<svg width="405" height="390" viewBox="0 0 405 390" fill="none" xmlns="http://www.w3.org/2000/svg">
<rect x="1.5" y="1.5" width="402" height="387" rx="18.5" fill="#FDFFEF" stroke="black" stroke-width="3"/>
<path d="M266 282C266 306.853 242.608 309 204.5 309C166.392 309 135.5 268 119 237C119 212.147 149.892 192 188 192C226.108 192 273.5 249.5 266 282Z" fill="black"/>
<path d="M332 71C332 77.9036 325.299 78 319.5 78C313.701 78 299.5 78.9036 299.5 72C299.5 65.0964 313.701 53 319.5 53C325.299 53 332 58 332 71Z" fill="black"/>
<path d="M258 40.5001C258 47.6798 240.18 37.5001 233 37.5001C225.82 37.5001 213 45.6798 213 38.5001C213 31.3204 238 7 250 10.0001C256.5 14.5001 256 33.5001 258 40.5001Z" fill="black"/>
<path d="M314.287 98.5C329.287 98.5 304.9 126.5 295.787 126.5C286.674 126.5 281.287 105.127 281.287 98.5C281.287 91.8726 288.674 86.5 297.787 86.5C306.9 86.5 314.287 91.8726 314.287 98.5Z" fill="black"/>
<ellipse cx="144.5" cy="154.5" rx="2.5" ry="4.5" fill="black"/>
<path d="M289 42.5002C289 47.7469 279.627 46.0002 273 46.0002C266.373 46.0002 261 41.7469 261 36.5002C261 31.2535 249 14.5 273 27.0002C285.5 32.5002 289 31.5002 289 42.5002Z" fill="black"/>
<path d="M343 78C338 84.5 311.627 98 305 98C298.373 98 296.5 81.9706 296.5 77C296.5 72.0294 317.373 70.0001 324 70.0001C330.627 70.0001 344 66.5002 343 78Z" fill="black"/>
<path d="M156 162C156 165.038 139.194 164 134.5 164C129.806 164 122.5 167 126 158.5C126 155.462 129.806 153 134.5 153C139.194 153 156 158.962 156 162Z" fill="black"/>
<path d="M185.5 316.5C185.5 335.83 166.971 348 162 348C157.03 348 80.5 374.5 134.5 306.5C162 242 173.529 273.5 178.5 273.5C183.471 273.5 185.5 297.17 185.5 316.5Z" fill="black"/>
<path d="M212.33 345.478C212.33 369 188.5 357.5 177 359C165.581 359 158.303 348.387 158.303 338.726C158.303 329.064 164 316 202.803 320.726C214.222 320.726 215 343.5 212.33 345.478Z" fill="black"/>
<path d="M347 117.5C347 126.06 352.799 149 347 149C341.201 149 319 110 300.5 101.5C300.5 92.9394 305.201 85.9998 311 85.9998C328.5 81.5 347 108.939 347 117.5Z" fill="black"/>
<path d="M118.5 194.5C118.5 208.031 145.761 234 143 234C140.239 234 114.5 234 95.5 183.5C95.5 169.969 95.2385 166 98 166C100.761 166 102.5 179 118.5 194.5Z" fill="black"/>
<path d="M267.5 232C267.5 246.359 255.209 258 253 258C250.791 258 234 237.859 234 223.5C234 209.141 250.791 206 253 206C255.209 206 267.5 217.641 267.5 232Z" fill="black"/>
<path d="M267 261.5C267 264.538 267.433 281.5 265.5 281.5C263.567 281.5 260 264.538 260 261.5C260 258.462 250.772 255.999 263.5 256C266 256 267 258.462 267 261.5Z" fill="black"/>
<path d="M317.5 175.5C300.5 209 305 220.5 283 223C256.5 224.5 264 212.031 264 198.5C264 184.969 272.507 174 283 174C293.493 174 317.5 161.969 317.5 175.5Z" fill="black"/>
<path d="M312.5 82C312.5 102.711 272.658 97 252.5 97C232.342 97 176 121.711 176 101C166 48 232.342 22 252.5 22C265.5 18 312.5 61.2894 312.5 82Z" fill="black"/>
<path d="M204.932 210C204.932 222.426 180.062 211 153 211C145.5 213.5 102.932 200.5 102.932 180C105.5 161.5 117.438 160 144.5 160C171.562 160 204.932 197.574 204.932 210Z" fill="black"/>
<path d="M327 155C322 203 262.016 227 246 227C229.984 227 130.5 177 142.5 126.5C174 85 229.984 80 246 80C262.016 80 311.5 101.5 327 155Z" fill="black"/>
<path d="M118.966 292C108 348.5 81.2842 359.5 72.9999 359.5C64.7156 359.5 63.5341 324 86.5 292C110.534 221.5 126.216 205 134.5 205C142.784 205 139 242.5 118.966 292Z" fill="black"/>
<path d="M176 352.5C179.5 388 141 370 120 372C105.917 372 113 356.15 113 344C113 331.85 124.417 322 138.5 322C152.583 322 181 324.5 176 352.5Z" fill="black"/>
<path d="M122.527 349.252C125.365 377.481 94.1479 363.168 77.1202 364.758C65.7009 364.758 68.5 352.162 68.5 342.5C68.5 332.838 77.1202 307.5 113 324.5C124.419 324.5 126.582 326.988 122.527 349.252Z" fill="black"/>
<path d="M315.5 346.5C315.5 372.5 296.5 362.5 284 364.5C269.917 364.5 247.5 371 250.5 347.5C236 310 275.417 321 289.5 321C303.583 321 320 331 315.5 346.5Z" fill="black"/>
<path d="M282.5 323.5C332 359.5 272.493 350 262 350C251.507 350 244.5 340.359 244.5 326C217.5 273.5 251.507 298 262 298C244.5 247 270.5 306.5 282.5 323.5Z" fill="black"/>
</svg>
