<svg width="80" height="82" viewBox="0 0 80 82" fill="none" xmlns="http://www.w3.org/2000/svg">
<g clip-path="url(#clip0_453_1425)">
<ellipse cx="-4.70208" cy="-4.78167" rx="46.5142" ry="44.8167" fill="#DF2027"/>
<path d="M65.316 -31.1783C66.423 -29.5998 56.1476 -11.9363 50.8125 -9.2641C44.9252 -5.1689 36.3094 2.19127 37.8141 -5.02339C35.3098 -8.26732 40.5825 -11.2012 46.4698 -15.2964C57.3144 -23.7073 64.2091 -32.7567 65.316 -31.1783Z" fill="#DF2027"/>
<path d="M37.2292 73.7081C59.0046 61.4838 46.5419 64.4355 37.2292 60.9498C35.9975 46.0109 34.3098 32.5658 27.3077 21.6105C12.8032 26.0922 27.2317 67.7844 28.9954 70.8987C30.7592 74.013 34.4455 75.2708 37.2292 73.7081Z" fill="#DF2027"/>
<path d="M18.0334 73.399C18.0334 77.5243 21.3922 80.8685 25.5356 80.8685C48.0423 80.3705 33.0379 77.5243 33.0379 73.399C33.0379 69.2737 32.6798 27.0884 28.5364 27.0884C24.393 27.0884 14.0319 63.9377 18.0334 73.399Z" fill="#DF2027"/>
<path d="M32.0374 70.4109C21.5342 75.3905 28.5364 80.8681 49.0426 81.864C59.5458 82.86 64.5474 78.2822 64.5474 71.4068C64.5474 64.5314 58.048 58.1465 52.0462 58.6445C33.0377 65.4312 36.0387 66.4272 32.0374 70.4109Z" fill="#DF2027"/>
<path d="M17.533 39.0393C23.5349 50.9904 14.032 65.9294 27.1797 45.0219C29.8626 43.6018 29.7248 38.1197 26.8719 32.7775C24.0191 27.4352 19.5315 24.2558 16.8487 25.6759C14.1658 27.0961 11.5312 32.0678 17.533 39.0393Z" fill="#DF2027"/>
<path d="M16.7028 7.20593C17.4265 7.96481 16.1798 8.69977 -7.80086 26.6224C-19.8064 15.1669 -31.8114 6.69912 -29.788 5.67473C-28.4073 4.9757 -18.8058 16.6609 -5.80234 15.1693C7.20142 15.1717 15.7254 6.18102 16.7028 7.20593Z" fill="#6A3126"/>
<path d="M2.69889 21.6384C1.19843 23.6303 -2.16046 26.618 -6.30386 26.618C-11.3054 27.614 -13.306 24.6262 -25.3097 9.68726C-23.3091 10.6832 -10.4473 16.6588 -6.30386 16.6588C-0.302029 18.6507 23.7053 0.226022 2.69889 21.6384Z" fill="#6A3126"/>
<ellipse cx="11.1199" cy="-14.3759" rx="15.0046" ry="15.4369" fill="white"/>
</g>
<defs>
<clipPath id="clip0_453_1425">
<rect width="80" height="82" fill="white"/>
</clipPath>
</defs>
</svg>
