<svg width="80" height="82" viewBox="0 0 80 82" fill="none" xmlns="http://www.w3.org/2000/svg">
<g clip-path="url(#clip0_453_1423)">
<ellipse cx="-4.70205" cy="77.2183" rx="46.5142" ry="44.8167" fill="#DF2027"/>
<ellipse cx="19.4402" cy="18.544" rx="19.4402" ry="18.544" transform="matrix(0.481224 0.876598 -0.878368 0.477984 38.378 0)" fill="#DF2027"/>
<path d="M28.8082 46.8426C24.8849 51.6866 21.6658 48.6712 17.258 45.1323C12.8502 41.5935 9.40563 40.0656 13.3289 35.2216C10.7096 6.57021 27.0577 24.0518 31.4655 27.5907C35.8733 31.1295 55.3448 38.0769 28.8082 46.8426Z" fill="#DF2027"/>
<path d="M50.3147 44.8506C53.3156 49.3323 56.0707 57.0594 55.9573 55.9831C59.3592 56.8372 56.6515 45.7579 55.8163 42.8586C55.4943 39.8546 52.0162 37.7947 49.8145 38.377C47.3138 40.369 46.8136 42.8588 50.3147 44.8506Z" fill="#DF2027"/>
<path d="M70.821 42.8588C68.3484 46.25 62.2122 52.4684 61.3181 51.8222C60.4239 51.1759 64.3471 44.2582 66.8197 40.867C69.2923 37.4758 71.4084 34.2057 73.3916 35.5624C75.3224 36.8832 73.2935 39.4677 70.821 42.8588Z" fill="#DF2027"/>
<path d="M77.5622 46.1029C78.4928 47.8385 74.8366 49.53 70.3209 51.3242C52.3153 69.749 61.6075 53.5938 61.2093 52.6004C60.8112 51.6071 64.1491 49.3473 68.6648 47.553C73.1805 45.7588 75.8226 42.8589 77.5622 46.1029Z" fill="#DF2027"/>
<path d="M63.1972 39.3634C62.637 43.5166 58.8173 58.7936 58.8173 57.2997C55.3162 59.2916 57.1353 43.5166 57.6955 39.3634C58.2557 35.2102 59.4259 31.6463 61.8182 31.9036C64.1473 32.154 63.7573 35.2102 63.1972 39.3634Z" fill="#DF2027"/>
<path d="M66.8197 52.8183C66.8197 56.3935 65.1852 57.7979 61.3181 57.7979C53.8158 57.2999 53.8158 57.7978 52.8155 52.8183C50.2184 39.89 55.4503 46.8426 59.3174 46.8426C63.8188 45.8467 68.8204 45.8467 66.8197 52.8183Z" fill="#DF2027"/>
<path d="M65.8185 42.8587C65.4211 43.5826 63.818 48.3354 61.5728 46.9335C60.6034 46.4061 60.1397 45.3917 60.537 44.6677C62.8182 41.3651 61.8179 44.6676 62.3179 45.8463C63.3181 46.3438 66.2158 42.1347 65.8185 42.8587Z" fill="#DF2027"/>
<path d="M71.5835 46.4131C70.9197 46.907 67.4767 50.5663 66.0199 48.3612C65.3584 47.4801 65.3602 46.3654 66.024 45.8714C69.4782 43.8121 67.1891 46.4017 67.1516 47.6809C67.8537 48.5477 72.2472 45.9191 71.5835 46.4131Z" fill="#DF2027"/>
<path d="M57.5377 41.4787C57.683 42.291 59.4209 46.997 56.7879 47.3029C55.7001 47.4957 54.7005 46.9935 54.5552 46.1813C54.3159 38.8751 55.8164 40.8669 56.6855 45.9906C57.3168 45.8465 57.3925 40.6664 57.5377 41.4787Z" fill="#DF2027"/>
<path d="M65.316 50.8217C66.423 52.4002 56.1476 70.0637 50.8125 72.7359C44.9252 76.8311 36.3094 84.1913 37.8141 76.9766C35.3098 73.7327 40.5825 70.7988 46.4698 66.7036C57.3144 58.2927 64.2091 49.2433 65.316 50.8217Z" fill="#DF2027"/>
<path d="M56.2174 59.7204C54.9721 62.4797 50.1838 67.1494 49.3147 66.7605C49.3148 65.7647 51.8246 61.0716 53.0699 58.3123C54.5754 54.9764 56.0293 53.6314 56.8985 54.0203C57.7676 54.4091 57.4627 56.9612 56.2174 59.7204Z" fill="#DF2027"/>
<ellipse cx="11.9931" cy="11.4633" rx="11.9931" ry="11.4633" transform="matrix(-0.894408 -0.447252 0.450397 -0.892829 35.5743 40.5598)" fill="url(#paint0_linear_453_1423)"/>
<ellipse cx="11.1199" cy="67.6241" rx="15.0046" ry="15.4369" fill="white"/>
<ellipse cx="11.1199" cy="68.122" rx="12.0037" ry="11.9511" fill="#DF2027"/>
<ellipse cx="11.1199" cy="68.122" rx="9.00275" ry="8.96334" fill="black"/>
<ellipse cx="14.1208" cy="65.1343" rx="3.00092" ry="2.98778" fill="white"/>
</g>
<defs>
<linearGradient id="paint0_linear_453_1423" x1="11.9931" y1="0" x2="11.9931" y2="22.9266" gradientUnits="userSpaceOnUse">
<stop stop-color="#D9D9D9" stop-opacity="0"/>
<stop offset="0.5" stop-opacity="0.1"/>
</linearGradient>
<clipPath id="clip0_453_1423">
<rect width="80" height="82" fill="white"/>
</clipPath>
</defs>
</svg>
