<svg width="405" height="390" viewBox="0 0 405 390" fill="none" xmlns="http://www.w3.org/2000/svg">
<rect x="1.5" y="1.5" width="402" height="387" rx="18.5" fill="#FDFFEF"/>
<rect x="1.5" y="1.5" width="402" height="387" rx="18.5" stroke="black" stroke-width="3"/>
<ellipse cx="194.066" cy="185.715" rx="88.377" ry="85.1518" fill="black"/>
<ellipse cx="125.645" cy="87.3174" rx="37.0613" ry="34.0607" fill="black"/>
<path d="M160.806 109.078C165.343 120.004 159.565 126.418 149.623 130.51C139.68 134.602 133.983 138.927 129.447 128.001C79.0814 106.24 123.252 95.0334 133.195 90.9415C143.138 86.8496 170.309 57.0414 160.806 109.078Z" fill="black"/>
<ellipse cx="36.9365" cy="35.2335" rx="36.9365" ry="35.2335" transform="matrix(0.481224 0.876598 -0.878368 0.477984 275.918 39)" fill="black"/>
<path d="M257.736 128.001C250.281 137.205 244.165 131.475 235.79 124.751C227.415 118.028 220.871 115.125 228.325 105.921C223.348 51.4833 254.41 84.6984 262.784 91.4222C271.159 98.1461 308.155 111.346 257.736 128.001Z" fill="black"/>
<path d="M298.598 124.217C304.3 132.732 309.534 147.413 309.319 145.368C315.782 146.991 310.638 125.94 309.051 120.432C308.439 114.724 301.831 110.81 297.648 111.917C292.896 115.701 291.946 120.432 298.598 124.217Z" fill="black"/>
<path d="M337.56 120.432C332.862 126.875 321.203 138.69 319.504 137.462C317.805 136.235 325.259 123.091 329.957 116.648C334.655 110.204 338.676 103.991 342.444 106.569C346.112 109.078 342.258 113.989 337.56 120.432Z" fill="black"/>
<path d="M350.368 126.596C352.136 129.893 345.189 133.107 336.61 136.516C302.399 171.523 320.054 140.828 319.298 138.941C318.541 137.053 324.883 132.76 333.463 129.351C342.043 125.942 347.063 120.432 350.368 126.596Z" fill="black"/>
<path d="M323.075 113.791C322.01 121.682 314.753 150.708 314.753 147.87C308.101 151.655 311.557 121.682 312.621 113.791C313.686 105.9 315.909 99.1285 320.455 99.6173C324.88 100.093 324.139 105.9 323.075 113.791Z" fill="black"/>
<path d="M329.957 139.355C329.957 146.148 326.852 148.816 319.504 148.816C305.25 147.87 305.25 148.816 303.349 139.355C298.415 114.791 308.355 128.001 315.703 128.001C324.256 126.109 333.759 126.109 329.957 139.355Z" fill="black"/>
<path d="M328.055 120.432C327.3 121.807 324.254 130.838 319.988 128.174C318.146 127.172 317.265 125.245 318.02 123.869C322.355 117.594 320.454 123.869 321.404 126.108C323.304 127.054 328.81 119.056 328.055 120.432Z" fill="black"/>
<path d="M339.009 127.185C337.747 128.123 331.206 135.076 328.438 130.886C327.181 129.212 327.184 127.094 328.445 126.156C335.009 122.243 330.659 127.163 330.588 129.594C331.922 131.241 340.27 126.246 339.009 127.185Z" fill="black"/>
<path d="M312.322 117.81C312.598 119.353 315.9 128.295 310.897 128.876C308.83 129.242 306.931 128.288 306.655 126.745C306.2 112.863 309.051 116.648 310.702 126.383C311.902 126.109 312.046 116.267 312.322 117.81Z" fill="black"/>
<path d="M327.101 135.561C329.204 138.56 309.68 172.121 299.544 177.198C288.358 184.979 271.988 198.963 274.847 185.255C270.089 179.092 280.107 173.517 291.293 165.737C311.897 149.756 324.997 132.562 327.101 135.561Z" fill="black"/>
<path d="M309.813 152.469C307.447 157.711 298.349 166.584 296.698 165.845C296.698 163.953 301.467 155.036 303.833 149.793C306.693 143.455 309.456 140.9 311.107 141.638C312.758 142.377 312.179 147.226 309.813 152.469Z" fill="black"/>
<path d="M68.5887 243.637C80.0313 245.321 99.7912 228.076 98.0867 229.237C103.514 233.09 78.6228 252.419 73.3793 254.782C68.6146 258.014 60.4219 254.771 58.5596 250.881C58.3793 244.826 61.3845 241.041 68.5887 243.637Z" fill="black"/>
<path d="M69.5781 262.352C74.6958 256.234 88.5839 242.483 90.1781 247.284C91.7913 248.621 83.4762 261.243 78.3585 267.361C73.2408 273.479 68.8142 279.412 65.2267 276.591C61.7339 273.844 64.4604 268.47 69.5781 262.352Z" fill="black"/>
<path d="M78.7708 276.686C80.7993 268.984 91.5784 241.063 91.2287 243.881C98.2968 240.937 91.1736 270.261 89.145 277.962C87.1165 285.664 84.0755 292.113 79.6247 291.072C75.2915 290.06 76.7422 284.387 78.7708 276.686Z" fill="black"/>
<path d="M99.4095 238.488C104.479 240.078 105.681 243.199 103.812 249.106C98.2904 262.692 101.908 295.466 93.3551 267.082C87.7033 248.326 74.3294 261.406 81.1853 246.608C81.9482 239.289 90.4906 232.332 99.4095 238.488Z" fill="black"/>
<path d="M77.4647 266.403C78.3834 265.131 82.742 256.7 85.9787 259.386C87.4037 260.406 87.8142 262.264 86.8955 263.537C81.9247 269.309 84.7643 263.443 84.3521 261.287C82.865 260.319 76.546 267.676 77.4647 266.403Z" fill="black"/>
<path d="M69.8614 253.675C71.2287 252.897 78.5776 246.796 80.8085 251.292C81.8496 253.107 81.5852 255.209 80.218 255.986C73.2224 259.068 78.145 254.716 78.5152 252.312C77.3942 250.515 68.4942 254.452 69.8614 253.675Z" fill="black"/>
<path d="M83.8622 279.441C83.7784 277.876 81.603 268.598 86.6397 268.633C88.736 268.521 90.5033 269.7 90.5871 271.266C89.3279 285.098 86.9649 280.994 86.5254 271.131C85.3013 271.256 83.9459 281.006 83.8622 279.441Z" fill="black"/>
<path d="M83.4188 271.365C80.6649 268.943 91.6944 231.747 100.344 224.435C109.373 214.248 121.732 185.228 122.198 199.22C128.281 204.094 120.105 223.451 111.076 233.637C94.8338 254.003 86.1726 273.786 83.4188 271.365Z" fill="black"/>
<path d="M96.1861 276.544C93.94 271.249 94.2554 243.295 96.186 242.483C97.6909 243.724 100.76 268.411 103.006 273.706C105.721 280.107 107.59 283.167 103.006 284.973C101.075 285.784 98.0866 282.221 96.1861 276.544Z" fill="black"/>
<path d="M116.731 334.846C75.3579 311.619 99.037 317.228 116.731 310.605C119.071 282.221 120.894 263.298 134.198 242.483C139.487 245.452 135.726 323.591 132.375 329.508C129.024 335.425 122.02 337.815 116.731 334.846Z" fill="black"/>
<path d="M153.203 334.258C153.203 342.096 146.821 348.45 138.949 348.45C96.1861 347.503 124.695 342.096 124.695 334.258C124.695 326.42 125.375 246.267 133.247 246.267C141.12 246.267 160.806 316.281 153.203 334.258Z" fill="black"/>
<path d="M126.595 328.581C146.552 338.042 133.247 348.45 94.2856 350.342C74.3295 352.234 64.8266 343.537 64.8266 330.473C64.8266 317.41 77.1754 305.279 88.5789 306.225C124.695 319.12 118.993 321.012 126.595 328.581Z" fill="black"/>
<path d="M154.154 268.975C142.75 291.682 160.806 320.066 135.825 280.342C130.728 277.643 130.99 267.228 136.41 257.077C141.83 246.927 150.357 240.886 155.454 243.584C160.552 246.283 165.557 255.729 154.154 268.975Z" fill="black"/>
<path d="M273.736 334.845C315.109 311.619 291.43 317.228 273.736 310.605C271.395 282.221 268.189 256.675 254.885 235.86C227.326 244.375 254.74 323.59 258.091 329.508C261.443 335.425 268.447 337.815 273.736 334.845Z" fill="black"/>
<path d="M237.263 334.258C237.263 342.096 243.645 348.45 251.518 348.45C294.28 347.504 265.772 342.096 265.772 334.258C265.772 326.42 265.092 246.268 257.219 246.268C249.347 246.268 229.661 316.282 237.263 334.258Z" fill="black"/>
<path d="M263.871 328.581C243.915 338.042 257.219 348.45 296.181 350.342C316.137 352.234 325.64 343.537 325.64 330.473C325.64 317.41 313.291 305.279 301.888 306.225C265.772 319.12 271.473 321.012 263.871 328.581Z" fill="black"/>
<path d="M236.313 268.975C247.716 291.682 229.661 320.066 254.641 280.342C259.739 277.644 259.477 267.228 254.057 257.078C248.636 246.927 240.11 240.886 235.012 243.585C229.915 246.283 224.909 255.729 236.313 268.975Z" fill="black"/>
<path d="M234.735 208.491C236.11 209.933 233.741 211.33 188.178 245.383C165.368 223.617 142.558 207.528 146.403 205.582C149.026 204.254 167.269 226.456 191.975 223.622C216.683 223.626 232.878 206.544 234.735 208.491Z" fill="black"/>
<path d="M208.128 235.913C205.277 239.698 198.895 245.374 191.023 245.374C181.52 247.267 177.718 241.59 154.911 213.206C158.713 215.098 183.15 226.452 191.023 226.452C202.426 230.236 248.04 195.229 208.128 235.913Z" fill="black"/>
<path d="M189.299 230.008C189.299 233.143 189.299 236.63 194.05 236.63C195.951 236.63 198.802 237.577 198.802 229.061C198.801 224.331 196.674 225.277 194.05 225.277C188.775 225.277 189.248 224.539 189.299 230.008Z" fill="black"/>
<path d="M190.199 229.8C190.199 232.935 190.199 236.423 185.447 236.423C180.746 235.685 179.796 233.792 180.746 229.062C180.796 224.539 182.873 225.277 185.498 225.277C190.773 225.277 190.249 224.331 190.199 229.8Z" fill="black"/>
<ellipse cx="224.128" cy="167.486" rx="28.5087" ry="29.3301" fill="black"/>
<ellipse cx="224.128" cy="168.432" rx="22.807" ry="22.7071" fill="black"/>
<ellipse cx="224.128" cy="168.432" rx="17.1052" ry="17.0304" fill="black"/>
<ellipse cx="229.83" cy="162.755" rx="5.70174" ry="5.67678" fill="black"/>
<ellipse cx="159.508" cy="167.486" rx="28.5087" ry="29.3301" fill="black"/>
<ellipse cx="159.508" cy="168.432" rx="22.807" ry="22.7071" fill="black"/>
<ellipse cx="159.508" cy="168.432" rx="17.1052" ry="17.0304" fill="black"/>
<ellipse cx="165.21" cy="162.755" rx="5.70174" ry="5.67678" fill="black"/>
</svg>
