<svg width="202" height="195" viewBox="0 0 202 195" fill="none" xmlns="http://www.w3.org/2000/svg">
<g clip-path="url(#clip0_577_3069)">
<rect x="1.5" y="-193.5" width="402" height="387" rx="18.5" fill="#FDFFEF"/>
<rect x="1.5" y="-193.5" width="402" height="387" rx="18.5" stroke="black" stroke-width="3"/>
<g filter="url(#filter0_d_577_3069)">
<ellipse cx="194.066" cy="-9.28512" rx="88.377" ry="85.1518" fill="#DF2027"/>
<path d="M68.5887 48.637C80.0313 50.321 99.7912 33.076 98.0867 34.2369C103.514 38.0895 78.6228 57.4191 73.3793 59.7825C68.6146 63.0145 60.4219 59.7713 58.5596 55.8812C58.3793 49.8256 61.3845 46.0411 68.5887 48.637Z" fill="#DF2027"/>
<path d="M69.5781 67.352C74.6958 61.2339 88.5839 47.4832 90.1781 52.2838C91.7913 53.6213 83.4762 66.2427 78.3585 72.3608C73.2408 78.4789 68.8142 84.4124 65.2267 81.591C61.7339 78.8441 64.4604 73.4701 69.5781 67.352Z" fill="#DF2027"/>
<path d="M78.7708 81.6857C80.7993 73.9842 91.5784 46.0635 91.2287 48.8806C98.2968 45.937 91.1736 75.2609 89.145 82.9624C87.1165 90.664 84.0755 97.1126 79.6247 96.0724C75.2915 95.0596 76.7422 89.3873 78.7708 81.6857Z" fill="#DF2027"/>
<path d="M99.4095 43.4879C104.479 45.0776 105.681 48.1988 103.812 54.1059C98.2904 67.692 101.908 100.466 93.3552 72.0823C87.7033 53.3255 74.3295 66.4056 81.1853 51.6075C81.9482 44.2888 90.4907 37.332 99.4095 43.4879Z" fill="#DF2027"/>
<path d="M77.4647 71.4034C78.3834 70.1305 82.742 61.7 85.9787 64.386C87.4037 65.4056 87.8142 67.264 86.8955 68.5369C81.9248 74.3095 84.7644 68.4433 84.3521 66.2867C82.865 65.3186 76.546 72.6764 77.4647 71.4034Z" fill="#DF2027"/>
<path d="M69.8615 58.6747C71.2287 57.8973 78.5776 51.7963 80.8086 56.2923C81.8496 58.1073 81.5852 60.2089 80.218 60.9863C73.2224 64.0678 78.145 59.7158 78.5152 57.3124C77.3942 55.5151 68.4942 59.4521 69.8615 58.6747Z" fill="#DF2027"/>
<path d="M83.8622 84.4409C83.7785 82.8756 81.603 73.5984 86.6397 73.6326C88.7361 73.5214 90.5034 74.7003 90.5871 76.2657C89.3279 90.0981 86.9649 85.994 86.5254 76.1308C85.3013 76.256 83.946 86.0063 83.8622 84.4409Z" fill="#DF2027"/>
<path d="M83.4188 76.3645C80.6649 73.9435 91.6944 36.7473 100.344 29.4348C109.373 19.2485 121.732 -9.7724 122.198 4.22017C128.281 9.09359 120.105 28.451 111.076 38.6374C94.8338 59.0026 86.1726 78.7856 83.4188 76.3645Z" fill="#DF2027"/>
<path d="M96.1861 81.544C93.9401 76.2489 94.2554 48.295 96.1861 47.4832C97.6909 48.7241 100.76 73.4105 103.006 78.7056C105.721 85.1072 107.59 88.1667 103.006 89.9726C101.075 90.7843 98.0866 87.2207 96.1861 81.544Z" fill="#DF2027"/>
<path d="M116.731 139.846C75.3579 116.619 99.037 122.228 116.731 115.605C119.071 87.2209 120.894 68.2981 134.198 47.4832C139.487 50.4524 135.726 128.591 132.375 134.508C129.024 140.425 122.02 142.815 116.731 139.846Z" fill="#DF2027"/>
<path d="M153.203 139.258C153.203 147.096 146.821 153.45 138.949 153.45C96.1862 152.503 124.695 147.096 124.695 139.258C124.695 131.42 125.375 51.2675 133.247 51.2675C141.12 51.2675 160.806 121.281 153.203 139.258Z" fill="#DF2027"/>
<path d="M126.595 133.581C146.552 143.042 133.248 153.45 94.2856 155.342C74.3295 157.234 64.8266 148.537 64.8266 135.473C64.8266 122.41 77.1754 110.279 88.5789 111.225C124.695 124.12 118.993 126.012 126.595 133.581Z" fill="#DF2027"/>
<path d="M154.154 73.9748C142.75 96.6819 160.806 125.066 135.825 85.3418C130.728 82.6434 130.99 72.2276 136.41 62.0773C141.83 51.927 150.357 45.886 155.454 48.5844C160.552 51.2827 165.557 60.729 154.154 73.9748Z" fill="#DF2027"/>
<path d="M236.313 73.9752C247.716 96.6823 229.661 125.066 254.641 85.3421C259.739 82.6438 259.477 72.2279 254.057 62.0777C248.636 51.9274 240.11 45.8864 235.012 48.5847C229.915 51.2831 224.909 60.7293 236.313 73.9752Z" fill="#DF2027"/>
<path d="M234.735 13.4913C236.11 14.9331 233.741 16.3296 188.178 50.3826C165.368 28.6171 142.558 12.5283 146.403 10.582C149.026 9.25383 167.269 31.4558 191.975 28.6217C216.683 28.6263 232.878 11.5439 234.735 13.4913Z" fill="#6A3126"/>
<path d="M208.128 40.913C205.277 44.6975 198.895 50.3743 191.023 50.3743C181.52 52.2666 177.718 46.5897 154.912 18.2058C158.713 20.0981 183.15 31.4517 191.023 31.4517C202.426 35.2363 248.04 0.229464 208.128 40.913Z" fill="#6A3126"/>
<path d="M189.299 35.0076C189.299 38.1427 189.299 41.6305 194.05 41.6305C195.951 41.6305 198.802 42.5775 198.801 34.0615C198.801 29.331 196.674 30.2771 194.05 30.2771C188.775 30.2771 189.248 29.5392 189.299 35.0076Z" fill="white"/>
<path d="M190.199 34.7996C190.199 37.9348 190.199 41.4225 185.447 41.4225C180.746 40.6846 179.796 38.7924 180.746 34.0617C180.796 29.5394 182.873 30.2772 185.497 30.2772C190.773 30.2772 190.249 29.3311 190.199 34.7996Z" fill="white"/>
<ellipse cx="224.128" cy="-27.5142" rx="28.5087" ry="29.3301" fill="white"/>
<ellipse cx="159.508" cy="-27.5142" rx="28.5087" ry="29.3301" fill="white"/>
</g>
</g>
<defs>
<filter id="filter0_d_577_3069" x="54.5519" y="-143.284" width="300.093" height="306.885" filterUnits="userSpaceOnUse" color-interpolation-filters="sRGB">
<feFlood flood-opacity="0" result="BackgroundImageFix"/>
<feColorMatrix in="SourceAlpha" type="matrix" values="0 0 0 0 0 0 0 0 0 0 0 0 0 0 0 0 0 0 127 0" result="hardAlpha"/>
<feOffset dy="4"/>
<feGaussianBlur stdDeviation="2"/>
<feComposite in2="hardAlpha" operator="out"/>
<feColorMatrix type="matrix" values="0 0 0 0 0 0 0 0 0 0 0 0 0 0 0 0 0 0 0.25 0"/>
<feBlend mode="normal" in2="BackgroundImageFix" result="effect1_dropShadow_577_3069"/>
<feBlend mode="normal" in="SourceGraphic" in2="effect1_dropShadow_577_3069" result="shape"/>
</filter>
<clipPath id="clip0_577_3069">
<rect width="202" height="195" fill="white"/>
</clipPath>
</defs>
</svg>
