<svg width="80" height="82" viewBox="0 0 80 82" fill="none" xmlns="http://www.w3.org/2000/svg">
<g clip-path="url(#clip0_453_1420)">
<ellipse cx="75.2979" cy="77.2183" rx="46.5142" ry="44.8167" fill="#DF2027"/>
<ellipse cx="39.287" cy="25.4301" rx="19.506" ry="17.9267" fill="#DF2027"/>
<path d="M57.7927 36.883C60.1803 42.6338 57.1397 46.0092 51.9067 48.1628C46.6738 50.3165 43.6752 52.593 41.2876 46.8422C14.7797 35.3893 38.0275 29.4911 43.2605 27.3375C48.4935 25.1839 62.7941 9.49537 57.7927 36.883Z" fill="#DF2027"/>
<path d="M108.808 46.8426C104.885 51.6866 101.666 48.6712 97.258 45.1323C92.8502 41.5935 89.4056 40.0656 93.3289 35.2216C90.7096 6.57021 107.058 24.0518 111.466 27.5907C115.873 31.1295 135.345 38.0769 108.808 46.8426Z" fill="#DF2027"/>
<path d="M17.0625 122.297C15.6131 121.023 21.4181 101.446 25.9705 97.5971C30.7227 92.2359 37.2272 76.9618 37.4726 84.3263C40.6743 86.8912 36.371 97.0793 31.6188 102.441C23.0704 113.159 18.5119 123.571 17.0625 122.297Z" fill="#DF2027"/>
<ellipse cx="11.9911" cy="11.4652" rx="11.9911" ry="11.4652" transform="matrix(-0.873055 0.487621 -0.490886 -0.871224 55.201 28.9409)" fill="url(#paint0_linear_453_1420)"/>
<ellipse cx="91.1199" cy="67.6241" rx="15.0046" ry="15.4369" fill="white"/>
<ellipse cx="91.1199" cy="68.122" rx="12.0037" ry="11.9511" fill="#DF2027"/>
<ellipse cx="57.1095" cy="67.6241" rx="15.0046" ry="15.4369" fill="white"/>
<ellipse cx="57.1095" cy="68.122" rx="12.0037" ry="11.9511" fill="#DF2027"/>
<ellipse cx="57.1095" cy="68.122" rx="9.00275" ry="8.96334" fill="black"/>
<ellipse cx="60.1104" cy="65.1343" rx="3.00092" ry="2.98778" fill="white"/>
</g>
<defs>
<linearGradient id="paint0_linear_453_1420" x1="11.9911" y1="0" x2="11.9911" y2="22.9305" gradientUnits="userSpaceOnUse">
<stop stop-color="#D9D9D9" stop-opacity="0"/>
<stop offset="0.5" stop-opacity="0.1"/>
</linearGradient>
<clipPath id="clip0_453_1420">
<rect width="80" height="82" fill="white"/>
</clipPath>
</defs>
</svg>
