<svg width="80" height="82" viewBox="0 0 80 82" fill="none" xmlns="http://www.w3.org/2000/svg">
<g clip-path="url(#clip0_453_1424)">
<ellipse cx="75.2979" cy="-4.78167" rx="46.5142" ry="44.8167" fill="#DF2027"/>
<path d="M9.25716 25.7038C15.2796 26.5901 25.6796 17.5138 24.7824 18.1248C27.6391 20.1525 14.5383 30.326 11.7785 31.5698C9.27082 33.2709 4.95884 31.564 3.97868 29.5166C3.88379 26.3294 5.46547 24.3376 9.25716 25.7038Z" fill="#DF2027"/>
<path d="M9.77793 35.5536C12.4714 32.3336 19.781 25.0964 20.62 27.623C21.4691 28.327 17.0927 34.9698 14.3992 38.1898C11.7057 41.4099 9.3759 44.5328 7.4877 43.0479C5.64939 41.6021 7.08441 38.7737 9.77793 35.5536Z" fill="#DF2027"/>
<path d="M14.6162 43.0978C15.6838 39.0444 21.357 24.3493 21.173 25.832C24.893 24.2827 21.144 39.7163 20.0763 43.7698C19.0087 47.8232 17.4081 51.2172 15.0656 50.6697C12.785 50.1367 13.5485 47.1513 14.6162 43.0978Z" fill="#DF2027"/>
<path d="M25.4787 22.9936C28.1469 23.8303 28.7794 25.473 27.7958 28.582C24.8897 35.7326 26.7936 52.9822 22.2922 38.0433C19.3175 28.1713 12.2786 35.0556 15.887 27.2671C16.2885 23.4151 20.7845 19.7537 25.4787 22.9936Z" fill="#DF2027"/>
<path d="M13.9288 37.6859C14.4123 37.016 16.7063 32.5788 18.4098 33.9925C19.1599 34.5291 19.3759 35.5073 18.8924 36.1772C16.2762 39.2154 17.7707 36.1279 17.5537 34.9929C16.771 34.4834 13.4453 38.3559 13.9288 37.6859Z" fill="#DF2027"/>
<path d="M9.92706 30.9867C10.6467 30.5776 14.5145 27.3665 15.6887 29.7328C16.2366 30.6881 16.0975 31.7942 15.3779 32.2033C11.696 33.8252 14.2868 31.5347 14.4817 30.2697C13.8917 29.3238 9.20746 31.3959 9.92706 30.9867Z" fill="#DF2027"/>
<path d="M17.2959 44.5478C17.2518 43.724 16.1069 38.8412 18.7577 38.8592C19.8611 38.8007 20.7913 39.4212 20.8353 40.2451C20.1726 47.5253 18.9289 45.3653 18.6976 40.1741C18.0533 40.24 17.34 45.3717 17.2959 44.5478Z" fill="#DF2027"/>
<path d="M17.0625 40.297C15.6131 39.0227 21.4181 19.4458 25.9705 15.5971C30.7227 10.2359 37.2272 -5.03825 37.4726 2.32626C40.6743 4.89122 36.371 15.0793 31.6188 20.4406C23.0704 31.1591 18.5119 41.5712 17.0625 40.297Z" fill="#DF2027"/>
<path d="M23.7822 43.023C22.6001 40.2362 22.766 25.5236 23.7822 25.0963C24.5742 25.7494 26.1893 38.7423 27.3714 41.5291C28.8006 44.8984 29.784 46.5087 27.3714 47.4591C26.3552 47.8864 24.7825 46.0108 23.7822 43.023Z" fill="#DF2027"/>
<path d="M34.5954 73.7081C12.82 61.4837 25.2827 64.4355 34.5954 60.9498C35.827 46.0109 36.7862 36.0515 43.7883 25.0963C46.572 26.659 44.5928 67.7844 42.8291 70.8987C41.0654 74.013 37.379 75.2708 34.5954 73.7081Z" fill="#DF2027"/>
<path d="M53.7912 73.3988C53.7912 77.524 50.4323 80.8682 46.2889 80.8682C23.7822 80.3702 38.7866 77.524 38.7866 73.3988C38.7866 69.2735 39.1448 27.0881 43.2882 27.0881C47.4316 27.0881 57.7926 63.9374 53.7912 73.3988Z" fill="#DF2027"/>
<path d="M39.7871 70.4109C50.2903 75.3905 43.2882 80.8681 22.7819 81.864C12.2787 82.86 7.27719 78.2822 7.27719 71.4068C7.27719 64.5314 13.7766 58.1465 19.7784 58.6445C38.7868 65.4312 35.7859 66.4272 39.7871 70.4109Z" fill="#DF2027"/>
<path d="M54.2915 39.0391C48.2897 50.9902 57.7926 65.9291 44.6449 45.0217C41.962 43.6015 42.0998 38.1195 44.9526 32.7772C47.8055 27.435 52.293 24.2555 54.9759 25.6757C57.6588 27.0959 60.2934 32.0676 54.2915 39.0391Z" fill="#DF2027"/>
<path d="M97.533 39.0393C103.535 50.9904 94.032 65.9294 107.18 45.0219C109.863 43.6018 109.725 38.1197 106.872 32.7775C104.019 27.4352 99.5315 24.2558 96.8487 25.6759C94.1658 27.0961 91.5312 32.0678 97.533 39.0393Z" fill="#DF2027"/>
<path d="M96.7028 7.20593C97.4265 7.96481 96.1798 8.69977 72.1991 26.6224C60.1936 15.1669 48.1886 6.69912 50.212 5.67473C51.5927 4.9757 61.1942 16.6609 74.1977 15.1693C87.2014 15.1717 95.7254 6.18102 96.7028 7.20593Z" fill="#6A3126"/>
<path d="M82.6989 21.6384C81.1984 23.6303 77.8395 26.618 73.6961 26.618C68.6946 27.614 66.694 24.6262 54.6903 9.68726C56.6909 10.6832 69.5527 16.6588 73.6961 16.6588C79.698 18.6507 103.705 0.226022 82.6989 21.6384Z" fill="#6A3126"/>
<path d="M72.7888 18.5301C72.7888 20.1802 72.7888 22.0159 75.2895 22.0159C76.2899 22.0159 77.7904 22.5143 77.7903 18.0322C77.7903 15.5425 76.6707 16.0404 75.2896 16.0404C72.5131 16.0404 72.7624 15.6521 72.7888 18.5301Z" fill="white"/>
<path d="M73.2625 18.4206C73.2625 20.0707 73.2625 21.9064 70.7618 21.9064C68.2874 21.518 67.7873 20.5221 68.2875 18.0323C68.314 15.6521 69.4071 16.0405 70.7882 16.0405C73.5647 16.0405 73.289 15.5425 73.2625 18.4206Z" fill="white"/>
<ellipse cx="91.1199" cy="-14.3759" rx="15.0046" ry="15.4369" fill="white"/>
<ellipse cx="57.1095" cy="-14.3759" rx="15.0046" ry="15.4369" fill="white"/>
</g>
<defs>
<clipPath id="clip0_453_1424">
<rect width="80" height="82" fill="white"/>
</clipPath>
</defs>
</svg>
