<svg width="202" height="195" viewBox="0 0 202 195" fill="none" xmlns="http://www.w3.org/2000/svg">
<g clip-path="url(#clip0_577_3067)">
<rect x="-201.5" y="1.5" width="402" height="387" rx="18.5" fill="#FDFFEF"/>
<rect x="-201.5" y="1.5" width="402" height="387" rx="18.5" stroke="black" stroke-width="3"/>
<g filter="url(#filter0_d_577_3067)">
<ellipse cx="-8.93388" cy="185.715" rx="88.377" ry="85.1518" fill="#DF2027"/>
<ellipse cx="36.9365" cy="35.2335" rx="36.9365" ry="35.2335" transform="matrix(0.481224 0.876598 -0.878368 0.477984 72.9182 39)" fill="#DF2027"/>
<path d="M54.7356 128.001C47.2813 137.205 41.1651 131.475 32.7902 124.751C24.4153 118.028 17.8707 115.125 25.325 105.921C20.3482 51.4833 51.4096 84.6984 59.7845 91.4222C68.1594 98.1461 105.155 111.346 54.7356 128.001Z" fill="#DF2027"/>
<path d="M95.5978 124.217C101.3 132.732 106.534 147.413 106.319 145.368C112.782 146.991 107.638 125.94 106.051 120.432C105.439 114.724 98.8308 110.81 94.6475 111.917C89.8961 115.701 88.9458 120.432 95.5978 124.217Z" fill="#DF2027"/>
<path d="M134.56 120.432C129.862 126.875 118.203 138.69 116.504 137.462C114.805 136.235 122.259 123.091 126.957 116.648C131.655 110.204 135.676 103.991 139.444 106.569C143.112 109.078 139.258 113.989 134.56 120.432Z" fill="#DF2027"/>
<path d="M147.368 126.596C149.136 129.893 142.189 133.107 133.61 136.516C99.399 171.523 117.054 140.828 116.298 138.941C115.541 137.053 121.883 132.76 130.463 129.351C139.043 125.942 144.063 120.432 147.368 126.596Z" fill="#DF2027"/>
<path d="M120.075 113.791C119.01 121.682 111.753 150.708 111.753 147.87C105.101 151.655 108.557 121.682 109.621 113.791C110.686 105.9 112.909 99.1285 117.454 99.6173C121.88 100.093 121.139 105.9 120.075 113.791Z" fill="#DF2027"/>
<path d="M126.957 139.355C126.957 146.148 123.852 148.816 116.504 148.816C102.25 147.87 102.25 148.816 100.349 139.355C95.4149 114.791 105.355 128.001 112.703 128.001C121.256 126.109 130.759 126.109 126.957 139.355Z" fill="#DF2027"/>
<path d="M125.055 120.432C124.3 121.807 121.254 130.838 116.988 128.174C115.146 127.172 114.265 125.245 115.02 123.869C119.355 117.594 117.454 123.869 118.404 126.108C120.304 127.054 125.81 119.056 125.055 120.432Z" fill="#DF2027"/>
<path d="M136.009 127.185C134.747 128.123 128.206 135.076 125.438 130.886C124.181 129.212 124.184 127.094 125.445 126.156C132.008 122.243 127.659 127.163 127.588 129.594C128.922 131.241 137.27 126.246 136.009 127.185Z" fill="#DF2027"/>
<path d="M109.322 117.81C109.598 119.353 112.9 128.295 107.897 128.876C105.83 129.242 103.931 128.288 103.655 126.745C103.2 112.863 106.051 116.648 107.702 126.383C108.902 126.109 109.046 116.267 109.322 117.81Z" fill="#DF2027"/>
<path d="M124.1 135.561C126.204 138.56 106.68 172.121 96.5438 177.198C85.3578 184.979 68.9879 198.963 71.8468 185.255C67.0886 179.092 77.1067 173.517 88.2926 165.737C108.897 149.756 121.997 132.562 124.1 135.561Z" fill="#DF2027"/>
<path d="M106.813 152.469C104.447 157.711 95.3492 166.584 93.6979 165.845C93.698 163.953 98.4667 155.036 100.833 149.793C103.693 143.455 106.456 140.9 108.107 141.638C109.758 142.377 109.179 147.226 106.813 152.469Z" fill="#DF2027"/>
<ellipse cx="22.7869" cy="21.7803" rx="22.7869" ry="21.7803" transform="matrix(-0.894408 -0.447252 0.450397 -0.892829 67.5911 116.063)" fill="url(#paint0_linear_577_3067)"/>
<ellipse cx="21.1279" cy="167.486" rx="28.5087" ry="29.3301" fill="white"/>
<ellipse cx="21.1279" cy="168.432" rx="22.807" ry="22.7071" fill="#DF2027"/>
<ellipse cx="21.1279" cy="168.432" rx="17.1052" ry="17.0304" fill="black"/>
<ellipse cx="26.8296" cy="162.755" rx="5.70174" ry="5.67678" fill="white"/>
</g>
</g>
<defs>
<filter id="filter0_d_577_3067" x="-148.448" y="51.7156" width="300.093" height="306.885" filterUnits="userSpaceOnUse" color-interpolation-filters="sRGB">
<feFlood flood-opacity="0" result="BackgroundImageFix"/>
<feColorMatrix in="SourceAlpha" type="matrix" values="0 0 0 0 0 0 0 0 0 0 0 0 0 0 0 0 0 0 127 0" result="hardAlpha"/>
<feOffset dy="4"/>
<feGaussianBlur stdDeviation="2"/>
<feComposite in2="hardAlpha" operator="out"/>
<feColorMatrix type="matrix" values="0 0 0 0 0 0 0 0 0 0 0 0 0 0 0 0 0 0 0.25 0"/>
<feBlend mode="normal" in2="BackgroundImageFix" result="effect1_dropShadow_577_3067"/>
<feBlend mode="normal" in="SourceGraphic" in2="effect1_dropShadow_577_3067" result="shape"/>
</filter>
<linearGradient id="paint0_linear_577_3067" x1="22.7869" y1="0" x2="22.7869" y2="43.5606" gradientUnits="userSpaceOnUse">
<stop stop-color="#D9D9D9" stop-opacity="0"/>
<stop offset="0.5" stop-opacity="0.1"/>
</linearGradient>
<clipPath id="clip0_577_3067">
<rect width="202" height="195" fill="white"/>
</clipPath>
</defs>
</svg>
