<svg width="203" height="195" viewBox="0 0 203 195" fill="none" xmlns="http://www.w3.org/2000/svg">
<g clip-path="url(#clip0_577_3066)">
<rect x="1.5" y="1.5" width="402" height="387" rx="18.5" fill="#FDFFEF"/>
<rect x="1.5" y="1.5" width="402" height="387" rx="18.5" stroke="black" stroke-width="3"/>
<ellipse cx="194.066" cy="185.715" rx="88.377" ry="85.1518" fill="#DF2027"/>
<ellipse cx="125.645" cy="87.3174" rx="37.0613" ry="34.0607" fill="#DF2027"/>
<path d="M160.806 109.078C165.343 120.004 159.565 126.418 149.623 130.51C139.68 134.602 133.983 138.927 129.447 128.001C79.0814 106.24 123.252 95.0334 133.195 90.9415C143.138 86.8496 170.309 57.0414 160.806 109.078Z" fill="#DF2027"/>
<path d="M257.736 128.001C250.281 137.205 244.165 131.475 235.79 124.751C227.415 118.028 220.871 115.125 228.325 105.921C223.348 51.4833 254.41 84.6984 262.784 91.4222C271.159 98.1461 308.155 111.346 257.736 128.001Z" fill="#DF2027"/>
<path d="M83.4188 271.365C80.6649 268.943 91.6944 231.747 100.344 224.435C109.373 214.248 121.732 185.228 122.198 199.22C128.281 204.094 120.105 223.451 111.076 233.637C94.8338 254.003 86.1726 273.786 83.4188 271.365Z" fill="#DF2027"/>
<ellipse cx="22.7831" cy="21.7839" rx="22.7831" ry="21.7839" transform="matrix(-0.873055 0.487621 -0.490886 -0.871224 155.882 93.9877)" fill="url(#paint0_linear_577_3066)"/>
<ellipse cx="224.128" cy="167.486" rx="28.5087" ry="29.3301" fill="white"/>
<ellipse cx="224.128" cy="168.432" rx="22.807" ry="22.7071" fill="#DF2027"/>
<ellipse cx="159.508" cy="167.486" rx="28.5087" ry="29.3301" fill="white"/>
<ellipse cx="159.508" cy="168.432" rx="22.807" ry="22.7071" fill="#DF2027"/>
<ellipse cx="159.508" cy="168.432" rx="17.1052" ry="17.0304" fill="black"/>
<ellipse cx="165.21" cy="162.755" rx="5.70174" ry="5.67678" fill="white"/>
</g>
<defs>
<linearGradient id="paint0_linear_577_3066" x1="22.7831" y1="0" x2="22.7831" y2="43.5679" gradientUnits="userSpaceOnUse">
<stop stop-color="#D9D9D9" stop-opacity="0"/>
<stop offset="0.5" stop-opacity="0.1"/>
</linearGradient>
<clipPath id="clip0_577_3066">
<rect width="203" height="195" fill="white"/>
</clipPath>
</defs>
</svg>
