<svg width="160" height="164" viewBox="0 0 160 164" fill="none" xmlns="http://www.w3.org/2000/svg">
<ellipse cx="75.2979" cy="77.2183" rx="46.5142" ry="44.8167" fill="black"/>
<ellipse cx="39.287" cy="25.4301" rx="19.506" ry="17.9267" fill="black"/>
<path d="M57.7927 36.883C60.1803 42.6338 57.1397 46.0092 51.9067 48.1628C46.6738 50.3165 43.6752 52.593 41.2876 46.8422C14.7797 35.3893 38.0275 29.4911 43.2605 27.3375C48.4935 25.1839 62.7941 9.49537 57.7927 36.883Z" fill="black"/>
<ellipse cx="19.4402" cy="18.544" rx="19.4402" ry="18.544" transform="matrix(0.481224 0.876598 -0.878368 0.477984 118.378 0)" fill="black"/>
<path d="M108.808 46.8426C104.885 51.6866 101.666 48.6712 97.2579 45.1323C92.8501 41.5935 89.4056 40.0656 93.3289 35.2216C90.7095 6.57021 107.058 24.0518 111.465 27.5907C115.873 31.1295 135.345 38.0769 108.808 46.8426Z" fill="black"/>
<path d="M130.315 44.8506C133.316 49.3323 136.071 57.0594 135.957 55.9831C139.359 56.8372 136.652 45.7579 135.816 42.8586C135.494 39.8546 132.016 37.7947 129.815 38.377C127.314 40.369 126.814 42.8588 130.315 44.8506Z" fill="black"/>
<path d="M150.821 42.8588C148.348 46.25 142.212 52.4684 141.318 51.8222C140.424 51.1759 144.347 44.2582 146.82 40.867C149.292 37.4758 151.408 34.2057 153.391 35.5624C155.322 36.8832 153.293 39.4677 150.821 42.8588Z" fill="black"/>
<path d="M157.562 46.1029C158.493 47.8385 154.837 49.53 150.321 51.3242C132.315 69.749 141.608 53.5938 141.209 52.6004C140.811 51.6071 144.149 49.3473 148.665 47.553C153.181 45.7588 155.823 42.8589 157.562 46.1029Z" fill="black"/>
<path d="M143.197 39.3634C142.637 43.5166 138.817 58.7936 138.817 57.2997C135.316 59.2916 137.135 43.5166 137.695 39.3634C138.256 35.2102 139.426 31.6463 141.818 31.9036C144.147 32.154 143.757 35.2102 143.197 39.3634Z" fill="black"/>
<path d="M146.82 52.8183C146.82 56.3935 145.185 57.7979 141.318 57.7979C133.816 57.2999 133.816 57.7978 132.815 52.8183C130.218 39.89 135.45 46.8426 139.317 46.8426C143.819 45.8467 148.82 45.8467 146.82 52.8183Z" fill="black"/>
<path d="M145.818 42.8587C145.421 43.5826 143.818 48.3354 141.573 46.9335C140.603 46.4061 140.14 45.3917 140.537 44.6677C142.818 41.3651 141.818 44.6676 142.318 45.8463C143.318 46.3438 146.216 42.1347 145.818 42.8587Z" fill="black"/>
<path d="M151.583 46.4131C150.92 46.907 147.477 50.5663 146.02 48.3612C145.358 47.4801 145.36 46.3654 146.024 45.8714C149.478 43.8121 147.189 46.4017 147.152 47.6809C147.854 48.5477 152.247 45.9191 151.583 46.4131Z" fill="black"/>
<path d="M137.538 41.4787C137.683 42.291 139.421 46.997 136.788 47.3029C135.7 47.4957 134.7 46.9935 134.555 46.1813C134.316 38.8751 135.816 40.8669 136.685 45.9906C137.317 45.8465 137.392 40.6664 137.538 41.4787Z" fill="black"/>
<path d="M145.316 50.8217C146.423 52.4002 136.148 70.0637 130.812 72.7359C124.925 76.8311 116.309 84.1913 117.814 76.9766C115.31 73.7327 120.582 70.7988 126.47 66.7036C137.314 58.2927 144.209 49.2433 145.316 50.8217Z" fill="black"/>
<path d="M136.217 59.7204C134.972 62.4797 130.184 67.1494 129.315 66.7605C129.315 65.7647 131.825 61.0716 133.07 58.3123C134.575 54.9764 136.029 53.6314 136.898 54.0203C137.768 54.4091 137.463 56.9612 136.217 59.7204Z" fill="black"/>
<path d="M9.2572 107.704C15.2796 108.59 25.6796 99.5138 24.7825 100.125C27.6392 102.153 14.5383 112.326 11.7786 113.57C9.27087 115.271 4.95888 113.564 3.97873 111.517C3.88384 108.329 5.46552 106.338 9.2572 107.704Z" fill="black"/>
<path d="M9.77796 117.554C12.4715 114.334 19.781 107.096 20.6201 109.623C21.4691 110.327 17.0927 116.97 14.3992 120.19C11.7057 123.41 9.37593 126.533 7.48773 125.048C5.64942 123.602 7.08444 120.774 9.77796 117.554Z" fill="black"/>
<path d="M14.6162 125.098C15.6839 121.044 21.3571 106.349 21.173 107.832C24.8931 106.283 21.144 121.716 20.0763 125.77C19.0087 129.823 17.4082 133.217 15.0656 132.67C12.785 132.137 13.5486 129.151 14.6162 125.098Z" fill="black"/>
<path d="M25.4787 104.994C28.1469 105.83 28.7794 107.473 27.7959 110.582C24.8897 117.733 26.7936 134.982 22.2922 120.043C19.3176 110.171 12.2787 117.056 15.887 109.267C16.2885 105.415 20.7846 101.754 25.4787 104.994Z" fill="black"/>
<path d="M13.9288 119.686C14.4123 119.016 16.7063 114.579 18.4098 115.993C19.1599 116.529 19.3759 117.507 18.8924 118.177C16.2762 121.215 17.7707 118.128 17.5537 116.993C16.771 116.483 13.4453 120.356 13.9288 119.686Z" fill="black"/>
<path d="M9.92709 112.987C10.6467 112.578 14.5146 109.367 15.6887 111.733C16.2367 112.688 16.0975 113.794 15.3779 114.203C11.696 115.825 14.2869 113.535 14.4817 112.27C13.8917 111.324 9.20749 113.396 9.92709 112.987Z" fill="black"/>
<path d="M17.2959 126.548C17.2518 125.724 16.1069 120.841 18.7577 120.859C19.8611 120.801 20.7913 121.421 20.8353 122.245C20.1726 129.525 18.9289 127.365 18.6976 122.174C18.0533 122.24 17.34 127.372 17.2959 126.548Z" fill="black"/>
<path d="M17.0625 122.297C15.6131 121.023 21.4181 101.446 25.9705 97.5971C30.7227 92.2359 37.2272 76.9618 37.4726 84.3263C40.6743 86.8912 36.371 97.0793 31.6188 102.441C23.0704 113.159 18.5119 123.571 17.0625 122.297Z" fill="black"/>
<path d="M23.7822 125.023C22.6001 122.236 22.766 107.524 23.7822 107.096C24.5742 107.749 26.1893 120.742 27.3714 123.529C28.8006 126.898 29.784 128.509 27.3714 129.459C26.3552 129.886 24.7825 128.011 23.7822 125.023Z" fill="black"/>
<path d="M34.5953 155.708C12.82 143.484 25.2826 146.436 34.5953 142.95C35.827 128.011 36.7861 118.052 43.7883 107.096C46.5719 108.659 44.5928 149.784 42.8291 152.899C41.0654 156.013 37.379 157.271 34.5953 155.708Z" fill="black"/>
<path d="M53.7912 155.399C53.7912 159.524 50.4323 162.868 46.2889 162.868C23.7822 162.37 38.7866 159.524 38.7866 155.399C38.7866 151.273 39.1447 109.088 43.2881 109.088C47.4315 109.088 57.7926 145.937 53.7912 155.399Z" fill="black"/>
<path d="M39.7871 152.411C50.2903 157.391 43.2882 162.868 22.7819 163.864C12.2787 164.86 7.27716 160.282 7.27716 153.407C7.27716 146.531 13.7765 140.147 19.7784 140.645C38.7868 147.431 35.7859 148.427 39.7871 152.411Z" fill="black"/>
<path d="M54.2915 121.039C48.2897 132.99 57.7926 147.929 44.6448 127.022C41.962 125.602 42.0997 120.119 44.9526 114.777C47.8054 109.435 52.293 106.256 54.9759 107.676C57.6587 109.096 60.2933 114.068 54.2915 121.039Z" fill="black"/>
<path d="M117.229 155.708C139.005 143.484 126.542 146.436 117.229 142.95C115.998 128.011 114.31 114.566 107.308 103.611C92.8032 108.092 107.232 149.784 108.995 152.899C110.759 156.013 114.445 157.271 117.229 155.708Z" fill="black"/>
<path d="M98.0333 155.399C98.0333 159.524 101.392 162.868 105.536 162.868C128.042 162.37 113.038 159.524 113.038 155.399C113.038 151.274 112.68 109.088 108.536 109.088C104.393 109.088 94.0319 145.938 98.0333 155.399Z" fill="black"/>
<path d="M112.037 152.411C101.534 157.391 108.536 162.868 129.043 163.864C139.546 164.86 144.547 160.282 144.547 153.407C144.547 146.531 138.048 140.147 132.046 140.645C113.038 147.431 116.039 148.427 112.037 152.411Z" fill="black"/>
<path d="M97.533 121.039C103.535 132.99 94.032 147.929 107.18 127.022C109.863 125.602 109.725 120.12 106.872 114.777C104.019 109.435 99.5315 106.256 96.8487 107.676C94.1658 109.096 91.5312 114.068 97.533 121.039Z" fill="black"/>
<ellipse cx="11.9931" cy="11.4633" rx="11.9931" ry="11.4633" transform="matrix(-0.894408 -0.447252 0.450397 -0.892829 115.574 40.5598)" fill="url(#paint0_linear_453_1095)"/>
<ellipse cx="11.9911" cy="11.4652" rx="11.9911" ry="11.4652" transform="matrix(-0.873055 0.487621 -0.490886 -0.871224 55.201 28.9409)" fill="url(#paint1_linear_453_1095)"/>
<path d="M96.7027 89.2059C97.4264 89.9648 96.1797 90.6998 72.1991 108.622C60.1936 97.1669 48.1886 88.6991 50.212 87.6747C51.5926 86.9757 61.1941 98.6609 74.1976 97.1693C87.2014 97.1717 95.7254 88.181 96.7027 89.2059Z" fill="black"/>
<path d="M82.6989 103.638C81.1984 105.63 77.8395 108.618 73.6961 108.618C68.6946 109.614 66.694 106.626 54.6903 91.6873C56.6909 92.6832 69.5527 98.6588 73.6961 98.6588C79.6979 100.651 103.705 82.226 82.6989 103.638Z" fill="black"/>
<path d="M72.7888 100.53C72.7888 102.18 72.7888 104.016 75.2896 104.016C76.2899 104.016 77.7904 104.514 77.7904 100.032C77.7904 97.5425 76.6708 98.0404 75.2897 98.0404C72.5131 98.0404 72.7624 97.6521 72.7888 100.53Z" fill="black"/>
<path d="M73.2626 100.421C73.2626 102.071 73.2626 103.906 70.7618 103.906C68.2875 103.518 67.7873 102.522 68.2875 100.032C68.314 97.6521 69.4071 98.0405 70.7882 98.0405C73.5648 98.0405 73.289 97.5425 73.2626 100.421Z" fill="black"/>
<ellipse cx="91.1199" cy="67.6241" rx="15.0046" ry="15.4369" fill="black"/>
<ellipse cx="91.1199" cy="68.122" rx="12.0037" ry="11.9511" fill="black"/>
<ellipse cx="91.1199" cy="68.122" rx="9.00275" ry="8.96334" fill="black"/>
<ellipse cx="94.1208" cy="65.1343" rx="3.00092" ry="2.98778" fill="black"/>
<ellipse cx="57.1095" cy="67.6241" rx="15.0046" ry="15.4369" fill="black"/>
<ellipse cx="57.1095" cy="68.122" rx="12.0037" ry="11.9511" fill="black"/>
<ellipse cx="57.1095" cy="68.122" rx="9.00275" ry="8.96334" fill="black"/>
<ellipse cx="60.1104" cy="65.1343" rx="3.00092" ry="2.98778" fill="black"/>
<defs>
<linearGradient id="paint0_linear_453_1095" x1="11.9931" y1="0" x2="11.9931" y2="22.9266" gradientUnits="userSpaceOnUse">
<stop offset="0.5" stop-opacity="0.1"/>
</linearGradient>
<linearGradient id="paint1_linear_453_1095" x1="11.9911" y1="0" x2="11.9911" y2="22.9305" gradientUnits="userSpaceOnUse">
<stop offset="0.5" stop-opacity="0.1"/>
</linearGradient>
</defs>
</svg>
