<svg width="202" height="195" viewBox="0 0 202 195" fill="none" xmlns="http://www.w3.org/2000/svg">
<g clip-path="url(#clip0_577_3068)">
<rect x="-201.5" y="-193.5" width="402" height="387" rx="18.5" fill="#FDFFEF"/>
<rect x="-201.5" y="-193.5" width="402" height="387" rx="18.5" stroke="black" stroke-width="3"/>
<g filter="url(#filter0_d_577_3068)">
<ellipse cx="-8.93388" cy="-9.28512" rx="88.377" ry="85.1518" fill="#DF2027"/>
<path d="M124.1 -59.4389C126.204 -56.4399 106.68 -22.879 96.5438 -17.8019C85.3578 -10.0211 68.9879 3.96327 71.8468 -9.74459C67.0886 -15.9081 77.1067 -21.4825 88.2926 -29.2634C108.897 -45.2441 121.997 -62.4379 124.1 -59.4389Z" fill="#DF2027"/>
<path d="M70.7356 139.845C112.109 116.619 88.4297 122.228 70.7356 115.605C68.3954 87.2208 65.1888 61.675 51.8848 40.8601C24.3263 49.3752 51.7404 128.59 55.0915 134.508C58.4425 140.425 65.4466 142.815 70.7356 139.845Z" fill="#DF2027"/>
<path d="M34.2634 139.258C34.2634 147.096 40.6453 153.45 48.5178 153.45C91.2805 152.504 62.7721 147.096 62.7721 139.258C62.7721 131.42 62.0916 51.2679 54.2192 51.2679C46.3467 51.2679 26.6608 121.282 34.2634 139.258Z" fill="#DF2027"/>
<path d="M60.8712 133.581C40.9151 143.042 54.2191 153.45 93.181 155.342C113.137 157.234 122.64 148.537 122.64 135.473C122.64 122.41 110.291 110.279 98.8878 111.225C62.7718 124.12 68.4735 126.012 60.8712 133.581Z" fill="#DF2027"/>
<path d="M33.3128 73.9752C44.7163 96.6823 26.6608 125.066 51.6415 85.3421C56.7389 82.6438 56.4771 72.2279 51.0567 62.0777C45.6363 51.9274 37.1099 45.8864 32.0125 48.5847C26.915 51.2831 21.9093 60.7293 33.3128 73.9752Z" fill="#DF2027"/>
<path d="M31.7352 13.4913C33.1102 14.9331 30.7414 16.3296 -14.8217 50.3826C-37.6323 28.6171 -60.4418 12.5283 -56.5973 10.582C-53.974 9.25383 -35.7312 31.4558 -11.0246 28.6217C13.6826 28.6263 29.8782 11.5439 31.7352 13.4913Z" fill="#6A3126"/>
<path d="M5.12777 40.913C2.2769 44.6975 -4.10499 50.3743 -11.9775 50.3743C-21.4804 52.2666 -25.2815 46.5897 -48.0885 18.2058C-44.2873 20.0981 -19.8499 31.4517 -11.9775 31.4517C-0.573969 35.2363 45.04 0.229464 5.12777 40.913Z" fill="#6A3126"/>
<ellipse cx="21.1279" cy="-27.5142" rx="28.5087" ry="29.3301" fill="white"/>
</g>
</g>
<defs>
<filter id="filter0_d_577_3068" x="-148.448" y="-143.284" width="300.093" height="306.885" filterUnits="userSpaceOnUse" color-interpolation-filters="sRGB">
<feFlood flood-opacity="0" result="BackgroundImageFix"/>
<feColorMatrix in="SourceAlpha" type="matrix" values="0 0 0 0 0 0 0 0 0 0 0 0 0 0 0 0 0 0 127 0" result="hardAlpha"/>
<feOffset dy="4"/>
<feGaussianBlur stdDeviation="2"/>
<feComposite in2="hardAlpha" operator="out"/>
<feColorMatrix type="matrix" values="0 0 0 0 0 0 0 0 0 0 0 0 0 0 0 0 0 0 0.25 0"/>
<feBlend mode="normal" in2="BackgroundImageFix" result="effect1_dropShadow_577_3068"/>
<feBlend mode="normal" in="SourceGraphic" in2="effect1_dropShadow_577_3068" result="shape"/>
</filter>
<clipPath id="clip0_577_3068">
<rect width="202" height="195" fill="white"/>
</clipPath>
</defs>
</svg>
