<svg width="135" height="130" viewBox="0 0 135 130" fill="none" xmlns="http://www.w3.org/2000/svg">
<g clip-path="url(#clip0_645_7952)">
<rect width="135" height="130" fill="white"/>
<rect x="1.5" y="-128.5" width="402" height="387" rx="18.5" fill="#FDFFEF" stroke="black" stroke-width="3"/>
<g clip-path="url(#clip1_645_7952)">
<path d="M130.859 23.1815C127.895 24.0124 125.91 27.9537 125.938 30.8345C125.943 31.4905 125.812 32.4853 125.938 33.0211L124.849 32.4744C124.942 34.7266 125.046 36.782 124.844 39.0342C124.576 42.0298 123.362 44.5771 123.203 47.2338H122.109C122.098 47.0534 122.12 46.8676 122.109 46.6872C122.098 46.5068 122.12 46.3209 122.109 46.1405C122.088 45.7798 122.131 45.408 122.109 45.0472C122.044 44.036 122.131 42.4234 122.109 41.2207C122.055 38.564 121.628 35.4755 121.82 33.2998C121.88 32.6493 122.793 31.9824 122.109 30.8399C123.389 29.9981 123.187 32.54 123.739 31.9223C124.007 31.6217 125.199 27.653 125.227 27.1665C125.259 26.6526 124.844 26.5051 124.838 26.4559C124.784 25.9201 124.871 25.3571 124.838 24.8159C124.986 24.6027 124.789 23.8429 125.369 23.4329C125.948 23.0229 126.566 23.2908 127.026 23.176C127.485 23.0612 128.174 23.2908 128.672 22.9191C128.973 22.7113 129.109 22.4216 129.213 22.0827C130.302 21.875 130.509 22.9245 130.854 23.176L130.859 23.1815Z" fill="#7B3B19"/>
<path d="M128.125 20.9952V22.0885L125.938 22.094V22.6297L127.031 23.1818C126.572 23.2966 125.954 23.0233 125.374 23.4387C124.795 23.8542 124.991 24.6085 124.844 24.8217C124.576 25.2153 124.182 25.6909 123.75 25.915C122.202 24.7507 120.912 26.0735 123.209 26.735C123.121 27.2707 121.869 26.3578 122.109 28.6482C122.126 28.8286 122.077 29.0254 122.109 29.1949H120.469C120.578 28.5225 120.398 27.708 120.469 27.0083C121.415 23.9635 122.399 20.7438 126.309 20.454C127.513 20.3666 127.682 20.8968 128.125 20.9952ZM126.758 20.9952V21.5419C127.113 21.3615 127.113 21.1756 126.758 20.9952ZM121.289 27.555V28.1016C121.645 27.9212 121.645 27.7353 121.289 27.555Z" fill="#884722"/>
<path d="M136.875 122.125C136.853 122.185 136.41 122.294 136.328 123.218C136.279 123.759 136.372 124.317 136.328 124.858C135.12 126.569 135.486 128.99 135.234 130.871C134.928 133.161 134.846 134.779 134.688 136.884C133.96 137.261 134.277 138.016 134.141 138.524C134.015 138.994 133.72 139.229 133.594 140.164C133.523 140.683 133.687 141.323 133.594 141.804C133.49 142.208 133.2 142.465 133.047 143.444C133.02 143.619 133.063 143.81 133.047 143.99C132.992 144.384 132.609 145.045 132.5 146.177C132.429 146.893 132.527 147.642 132.5 148.363H131.953C132.812 141.219 133.38 134.052 134.846 126.93C135.213 125.142 135.53 121.955 136.875 121.031C136.815 121.37 136.968 121.857 136.875 122.125Z" fill="#87542F"/>
<path d="M119.375 39.5808C119.463 39.9416 119.402 40.1821 119.922 40.1275C119.9 40.3079 119.949 40.4992 119.922 40.6741V41.7674C119.966 42.2321 119.927 42.7022 120.469 42.8607C120.895 46.485 119.463 48.0648 121.563 51.607C121.688 51.8202 121.929 51.9842 122.109 52.1537C122.142 52.3122 122.098 52.5144 122.109 52.7003C122.159 53.4547 121.934 54.9415 122.109 55.4335C119.506 48.6715 118.746 46.5341 118.828 39.0342H119.375C119.391 39.22 119.337 39.4223 119.375 39.5808Z" fill="#C8974D"/>
<path d="M134.141 75.6596C135.836 75.9767 136.536 77.9719 137.269 78.4475C137.947 78.8957 139.309 78.125 139.609 79.4861C138.286 80.1202 138.073 79.9836 137.969 80.0328C137.28 80.3498 137.455 80.563 137.422 80.5794C136.186 81.1096 136.405 81.2408 135.781 81.6727C135.579 81.8148 134.813 81.5743 134.688 82.2193C134.513 82.2303 134.316 82.2303 134.141 82.2193C134.742 80.8691 134.545 77.2339 133.594 76.2062C133.49 76.0969 132.691 76.1024 132.5 75.6596H133.047C133.408 75.6596 133.785 75.6268 134.141 75.6596Z" fill="#0A2E3C"/>
<path d="M131.406 23.7281C131.521 23.8155 131.838 23.6406 131.953 23.7281C131.592 24.2091 131.609 24.887 131.406 25.368C127.042 25.8545 129.755 27.3906 129.766 28.1012L127.589 27.817L128.12 30.829L127.305 29.1836L125.938 30.829C125.91 27.9482 127.895 24.0069 130.859 23.176C130.903 23.165 131.253 23.657 131.406 23.7226V23.7281Z" fill="#723513"/>
<path d="M132.5 75.6597C132.691 76.1025 133.49 76.097 133.594 76.2063V81.1261H132.5C130.996 78.8849 131.324 78.043 130.859 75.6597H132.5Z" fill="#22485C"/>
<path d="M139.063 33.0215C139.03 33.18 139.063 33.3987 139.063 33.5681C138.871 33.7376 138.696 33.9344 138.516 34.1148C138.335 34.2952 138.16 34.4974 137.969 34.6614C137.028 35.4595 136.492 36.203 135.781 36.848L135.234 37.3946C134.715 37.903 133.955 37.8484 133.047 39.0346C132.899 39.2259 132.642 39.368 132.5 39.5812H131.953C132.642 36.7769 135.491 36.7387 135.781 33.5681C137.001 34.6505 137.788 33.2183 139.063 33.0215Z" fill="#2D5265"/>
<path d="M122.109 55.4336C122.18 55.6359 124.313 58.7025 124.844 58.1668C124.959 59.2874 124.74 59.2273 125.391 60.3534C125.795 61.0476 126.933 61.6653 127.031 61.9933C126.73 62.0699 126.287 61.9223 125.938 61.9933V63.6333C124.084 60.4682 123.384 58.7517 122.109 55.4336Z" fill="#CCAD66"/>
<path d="M135.781 33.0212C134.961 33.8631 134.365 34.8634 133.594 35.7544C133.703 35.0165 134.026 34.3004 134.141 33.5679C134.157 33.4531 134.529 33.3437 134.54 33.1469C134.567 32.7096 134.152 32.562 134.141 32.4746C134.048 31.6983 134.294 30.9166 133.594 30.288C133.539 28.7902 133.348 28.7082 133.047 27.5548C132.998 27.3744 133.107 27.1557 133.047 27.0081C132.899 26.6309 132.659 26.2866 132.5 25.9148C132.626 25.7454 132.38 24.6084 133.047 24.2749C133.282 24.674 135.721 32.3926 135.781 33.0212Z" fill="#5A2C13"/>
<path d="M120.469 29.1949C120.053 31.7914 120.474 31.9992 120.469 34.1147C119.988 34.2951 119.473 34.6941 119.375 35.208C119.288 35.6781 119.408 36.3177 119.375 36.8479C119.337 37.5312 119.315 38.3621 119.375 39.0345H118.828C118.883 34.3279 119.074 31.4908 120.469 27.0083C120.398 27.708 120.578 28.5225 120.469 29.1949Z" fill="#8E5629"/>
<path d="M135.781 33.5681C135.491 36.7387 132.642 36.7769 131.953 39.5812L130.859 40.1279C131.587 37.7445 131.838 37.9358 133.047 36.3014C133.189 36.11 133.424 35.946 133.594 35.7547C134.365 34.8637 134.961 33.8633 135.781 33.0215C135.798 33.1909 135.798 33.3987 135.781 33.5681Z" fill="#43301F"/>
<path d="M137.969 72.3799C137.745 72.6259 137.641 73.1671 137.422 73.4732C137.236 73.5005 137.034 73.4294 136.875 73.4732L136.328 74.0198C135.185 74.397 133.577 74.3205 133.047 75.6598H130.859C130.838 75.545 130.416 75.3208 130.312 75.1131C131.723 74.9218 134.879 73.5825 136.328 72.9265C136.864 72.686 137.367 72.4236 137.969 72.3799Z" fill="#0A2F39"/>
<path d="M136.328 72.9265C134.879 73.5825 131.723 74.9218 130.313 75.1131C130.039 75.1514 129.421 75.1732 129.219 75.1131C129.443 74.8179 129.547 74.2385 129.766 74.0198C130.154 74.0963 130.367 73.8613 130.313 73.4732C131.641 72.7516 134.846 73.413 136.328 72.3799V72.9265Z" fill="#204C5E"/>
<path d="M134.141 82.2191C134.108 82.2191 133.933 82.7931 133.599 82.5253C133.085 82.1699 132.834 81.6233 132.5 81.1259H133.588V76.2061C134.54 77.2337 134.737 80.8689 134.135 82.2191H134.141Z" fill="#1C3342"/>
<path d="M129.219 63.6333V65.2732C129.361 65.4482 129.968 64.8305 130.313 64.7266V65.8199C130.132 65.8035 129.941 65.8527 129.766 65.8199C129.454 65.7597 128.803 65.0655 128.677 65.2732C128.65 66.3611 128.699 67.4598 128.672 68.5531C128.672 68.7335 128.672 68.9194 128.672 69.0997L128.125 72.3796C127.742 70.6194 127.562 70.0126 127.578 68.0065C127.578 67.6675 128.059 65.8745 128.125 64.7266C128.677 64.5462 128.552 64.0433 128.672 63.6333H129.219Z" fill="#2B5B72"/>
<path d="M128.125 61.9935V62.5402C127.523 63.3055 128.147 64.3113 128.125 64.7267C128.059 65.8747 127.578 67.6677 127.578 68.0066C127.644 67.0664 127.113 66.1262 127.031 65.2734C126.938 64.3222 127.25 62.7096 127.031 61.9935C127.343 61.917 127.791 62.0591 128.125 61.9935Z" fill="#315664"/>
<path d="M128.125 20.9951C128.59 21.099 129.241 20.9186 129.76 21.0006L128.727 21.6183C128.699 21.8916 129.224 22.0556 129.213 22.0884C129.109 22.4219 128.973 22.7116 128.672 22.9248C128.174 23.302 127.485 23.0724 127.026 23.1817L125.938 22.6296V22.0939L128.125 22.0884V20.9951Z" fill="#834520"/>
<path d="M127.031 61.9934C127.25 62.7095 126.938 64.3221 127.031 65.2733C125.987 65.0765 126.211 64.098 125.938 63.6334V61.9934C126.288 61.9278 126.73 62.07 127.031 61.9934Z" fill="#D2A45A"/>
<path d="M133.047 24.2752C132.38 24.6086 132.626 25.7456 132.5 25.9151C132.467 25.9643 131.723 25.7292 131.406 26.3251C131.018 27.063 131.346 28.3695 130.859 29.7416C129.864 27.7682 130.717 27.0029 131.406 25.3685C131.609 24.8874 131.592 24.2096 131.953 23.7285C132.112 23.8488 132.604 23.5317 133.047 24.2752Z" fill="#673214"/>
<path d="M129.766 74.0198C129.547 74.2385 129.443 74.8179 129.219 75.1131C127.693 74.6375 128.338 73.3638 128.125 72.3799H128.672C128.787 73.1288 128.869 73.8504 129.766 74.0198Z" fill="#305163"/>
<path d="M135.781 81.6727C136.142 81.6563 136.514 81.7001 136.875 81.6727C136.591 82.4162 135.82 82.1538 135.234 82.2194C135.054 82.2413 134.868 82.2085 134.688 82.2194C134.813 81.5743 135.579 81.8149 135.781 81.6727Z" fill="#082A31"/>
<path d="M131.406 23.7285C131.253 23.6629 130.903 23.1709 130.859 23.1818C131.062 23.3294 131.209 23.5809 131.406 23.7285Z" fill="#75411F"/>
<path d="M124.844 26.4614C124.844 26.5106 125.259 26.6528 125.232 27.1721C125.205 27.6531 124.018 31.6272 123.745 31.9279C123.187 32.5456 123.389 29.9982 122.115 30.8455C122.798 31.988 121.885 32.6549 121.825 33.3054C121.628 35.4865 122.06 38.5751 122.115 41.2263L120.474 41.773C120.365 41.3192 120.72 40.6359 119.927 40.6797C119.955 40.5047 119.905 40.3134 119.927 40.133L121.016 39.8652L119.38 36.8531C119.413 36.3229 119.293 35.6833 119.38 35.2132C119.96 35.2515 120.245 35.2733 120.474 34.6666L121.568 30.0256C123.728 30.5777 122.219 29.7085 122.115 29.2001C122.082 29.0307 122.131 28.8339 122.115 28.6535L123.203 27.5602L123.214 29.1947H123.75C123.772 28.4293 123.925 27.6804 124.302 27.0081C124.406 26.8277 124.712 26.6692 124.849 26.4614H124.844Z" fill="#7F411A"/>
<path d="M126.484 39.5808C126.402 40.0892 126.594 40.7561 126.484 41.2208C126.288 42.0735 125.681 42.9099 125.938 43.954H124.855C124.68 45.0965 124.806 45.1949 125.932 45.0473C126.02 44.7357 125.834 44.0688 125.932 43.954C126.014 43.8611 126.348 44.036 126.479 43.954V47.2339C126.118 47.2557 125.746 47.2229 125.385 47.2339V45.5994H124.844L125.385 47.2339C125.117 47.9773 124.527 48.6934 124.291 49.4204C121.721 49.1744 123.148 48.0976 123.198 47.2339C123.356 44.5772 124.57 42.0298 124.838 39.0342L126.479 39.5808H126.484ZM125.664 40.1275V40.6741C126.02 40.4937 126.02 40.3079 125.664 40.1275Z" fill="#7A3A12"/>
<path d="M122.109 45.0477C122.131 45.4085 122.087 45.7802 122.109 46.141L121.573 46.4143L122.109 46.6876C122.12 46.868 122.098 47.0539 122.109 47.2343C122.295 49.7488 123.225 50.5305 123.75 52.1541C124.209 53.5699 124.428 55.0294 124.297 56.5272L122.109 52.7007C122.098 52.5148 122.142 52.3126 122.109 52.1541C122.055 51.8971 121.814 51.6894 121.562 51.6074C119.462 48.0652 120.895 46.4854 120.469 42.8611C120.447 42.6807 120.507 42.4839 120.469 42.3145L122.109 45.0477Z" fill="#86481A"/>
<path d="M129.766 28.1015C129.766 28.3093 128.869 29.2714 128.716 30.0585C128.295 32.2834 127.376 35.4758 127.578 37.3945H126.484C126.49 36.9353 127.19 36.1536 127.031 34.9783C126.905 34.06 126.041 33.4696 125.938 33.0213C125.812 32.4856 125.943 31.4907 125.938 30.8348L127.305 29.1894L128.12 30.8348L127.589 27.8228L129.766 28.107V28.1015Z" fill="#703411"/>
<path d="M125.938 33.0213C126.041 33.4695 126.911 34.0599 127.031 34.9782C127.19 36.1535 126.49 36.9352 126.484 37.3944C126.484 37.5037 126.911 38.362 127.031 38.4877C126.916 38.843 126.534 39.2639 126.484 39.581L124.844 39.0343C125.046 36.7822 124.942 34.7268 124.849 32.4746L125.938 33.0213Z" fill="#743716"/>
<path d="M122.109 41.2207C122.131 42.4233 122.044 44.0359 122.109 45.0472L120.469 42.314C120.43 42.1391 120.513 41.9368 120.469 41.7673L122.109 41.2207Z" fill="#7E4016"/>
<path d="M124.844 26.4617C124.707 26.6694 124.401 26.828 124.297 27.0084C123.728 26.8772 123.821 25.9697 123.75 25.9151C124.182 25.6909 124.576 25.2154 124.844 24.8218C124.877 25.363 124.789 25.926 124.844 26.4617Z" fill="#834520"/>
<path d="M123.203 47.2339C123.154 48.0976 121.727 49.1745 124.297 49.4205C124.051 50.1912 124.138 51.3283 123.75 52.1537C123.225 50.5302 122.295 49.7485 122.109 47.2339H123.203Z" fill="#7F411A"/>
<path d="M122.109 46.6873L121.573 46.4139L122.109 46.1406C122.12 46.321 122.098 46.5069 122.109 46.6873Z" fill="#7F411A"/>
<path d="M122.109 29.1948C122.213 29.7032 123.723 30.5724 121.563 30.0203L120.469 34.6613C120.513 34.541 120.469 34.3005 120.469 34.1146C120.474 31.9991 120.053 31.7914 120.469 29.1948H122.109Z" fill="#85441C"/>
<path d="M123.75 25.915C123.821 25.9696 123.728 26.8771 124.297 27.0083C123.92 27.6806 123.766 28.4295 123.745 29.1894H123.209L123.198 27.5549L122.109 28.6482C121.869 26.3578 123.121 27.2707 123.209 26.7349C120.912 26.0735 122.202 24.7506 123.75 25.915Z" fill="#85441C"/>
<path d="M126.758 20.9951C127.113 21.1755 127.113 21.3614 126.758 21.5418V20.9951Z" fill="#834520"/>
<path d="M121.289 27.5547C121.645 27.7351 121.645 27.9209 121.289 28.1013V27.5547Z" fill="#85441C"/>
<path d="M124.297 56.5272H124.844C124.871 57.0684 124.789 57.6314 124.844 58.1671C124.313 58.7028 122.18 55.6362 122.109 55.4339C121.934 54.9419 122.159 53.4551 122.109 52.7007L124.297 56.5272Z" fill="#C7994B"/>
<path d="M119.375 36.8477L121.01 39.8597L119.922 40.1275L119.375 39.5809C119.337 39.4224 119.391 39.2201 119.375 39.0342C119.315 38.3619 119.337 37.531 119.375 36.8477Z" fill="#8B4F1F"/>
<path d="M120.469 41.7677C120.512 41.9371 120.43 42.1394 120.469 42.3143C120.507 42.4892 120.447 42.6805 120.469 42.8609C119.927 42.7024 119.966 42.2323 119.922 41.7677C119.889 41.4287 119.867 40.9969 119.922 40.6744C120.715 40.6306 120.359 41.3139 120.469 41.7677Z" fill="#8B4F1F"/>
<path d="M119.922 41.7676V40.6743C119.867 40.9968 119.889 41.4287 119.922 41.7676Z" fill="#8E5629"/>
<path d="M122.109 52.1541C121.929 51.9846 121.688 51.8206 121.562 51.6074C121.814 51.6894 122.055 51.8971 122.109 52.1541Z" fill="#C7994B"/>
<path d="M119.922 40.1277C119.402 40.1824 119.462 39.9418 119.375 39.5811L119.922 40.1277Z" fill="#8E5629"/>
<path d="M145.625 74.0196C144.679 74.6373 144.909 76.0531 144.531 76.7528C144.012 77.7094 143.175 77.8898 142.344 78.3927C141.671 78.8027 140.38 79.1143 139.609 79.486C139.303 78.1249 137.947 78.8956 137.269 78.4474C136.541 77.9663 135.841 75.9765 134.141 75.6595C134.857 75.7251 135.617 75.5775 136.328 75.6595C136.437 75.6704 136.859 76.3592 137.34 76.4303C139.604 76.7583 142.087 76.6271 143.984 75.1128C144.734 74.5115 144.87 73.5112 145.625 72.9263C145.647 73.2871 145.592 73.6588 145.625 74.0196Z" fill="#062733"/>
<path d="M131.406 25.3682C130.717 27.0026 129.864 27.7679 130.859 29.7413C130.766 30.0037 130.936 30.4957 130.859 30.8401L129.224 30.288L129.777 36.5361L128.656 37.1593C128.962 37.9574 129.131 38.7282 129.224 39.5809H128.131C128.109 39.4005 128.158 39.2147 128.131 39.0343C127.999 38.0667 127.606 37.5857 127.584 37.3943C127.381 35.4756 128.3 32.2832 128.721 30.0584C128.869 29.2712 129.771 28.3091 129.771 28.1014C129.76 27.3907 127.048 25.8547 131.412 25.3682H131.406Z" fill="#6C3111"/>
<path d="M137.969 35.2079C137.925 35.5577 138.034 35.9677 137.969 36.3012C135.3 36.6619 137.034 38.2144 136.831 38.4549C136.629 38.6955 135.563 38.0614 135.781 39.0289C138.062 38.8704 135.945 39.7232 135.984 40.3955C136.082 41.9808 136.952 43.4731 138.51 43.9487L137.416 44.4954C136.695 44.4954 135.617 44.2548 135.229 45.042C134.934 45.0037 134.403 44.9873 134.135 45.042C133.867 45.0967 133.665 45.3263 133.588 45.5886C133.244 45.6433 132.79 45.5067 132.495 45.5886L132.101 45.3263C132.063 45.0038 132.516 44.6156 132.495 44.4954L134.682 43.9487V42.8554C134.327 42.8008 133.927 42.9046 133.588 42.8554C133.216 42.7953 132.5 42.8554 132.489 42.5766L133.588 40.1222L134.135 41.7621L134.677 41.4779C134.704 41.0242 134.677 40.5705 134.677 40.1222C134.677 39.7559 134.682 39.3897 134.671 39.0289C134.491 38.8376 133.949 39.5209 133.583 39.5756C133.545 39.581 133.315 38.9906 133.036 39.0289C133.944 37.8427 134.704 37.8974 135.223 37.389C135.404 37.2086 135.584 37.0118 135.77 36.8423C136.481 36.1973 137.017 35.4539 137.958 34.6558V35.2024L137.969 35.2079Z" fill="#1E506F"/>
<path d="M132.5 39.5811C132.418 39.7068 132.577 39.9856 132.5 40.1277C131.997 40.6743 131.034 41.6474 130.859 42.3143C130.821 42.4673 130.876 42.6696 130.859 42.8609C130.755 43.9815 130.81 45.1404 131.406 46.1408C131.045 46.3321 130.668 46.4961 130.312 46.6874H129.766C129.935 44.6375 130.329 42.6696 130.859 40.6743C130.903 40.5049 130.81 40.2917 130.859 40.1277L131.953 39.5811H132.5Z" fill="#275068"/>
<path d="M133.594 39.5811V40.1278L132.495 42.5822C132.505 42.8555 133.222 42.8009 133.594 42.861L133.052 43.6755L133.594 43.9543H134.687L132.5 44.5009C132.314 43.3475 132.27 42.9047 130.859 42.861C130.876 42.6697 130.821 42.4674 130.859 42.3144C132.232 41.959 132.095 40.8494 132.5 40.1278C132.577 39.9857 132.418 39.7069 132.5 39.5811C132.642 39.368 132.899 39.2258 133.047 39.0345C133.326 38.9962 133.555 39.5866 133.594 39.5811Z" fill="#1B5275"/>
<path d="M125.391 52.7003C125.303 54.7502 124.723 58.7134 126.484 59.8067V60.3533C126.123 60.3314 125.752 60.3697 125.391 60.3533C124.74 59.2272 124.959 59.2873 124.844 58.1667C124.789 57.631 124.871 57.068 124.844 56.5268C124.734 54.1325 124.554 51.6125 125.391 49.4204C125.358 50.5082 125.44 51.6125 125.391 52.7003Z" fill="#375B6B"/>
<path d="M126.484 60.3533C126.665 60.3642 126.856 60.326 127.031 60.3533C127.119 60.3642 127.316 60.7414 127.753 60.7414C128.262 60.7414 128.759 60.4134 129.219 60.3533C129.388 60.8836 129.848 60.8617 130.312 60.9L129.766 61.4466H129.219C128.759 61.3482 128.305 61.955 128.125 61.9933C127.791 62.0588 127.343 61.9167 127.031 61.9933C126.933 61.6653 125.795 61.0476 125.391 60.3533C125.752 60.3697 126.123 60.3315 126.484 60.3533Z" fill="#214856"/>
<path d="M132.5 25.9147C132.659 26.2864 132.899 26.6308 133.047 27.008H131.953V28.648C131.773 28.9377 132.008 32.5947 131.953 33.5678C131.92 34.1527 131.018 35.3225 131.406 36.301H133.047C131.838 37.9354 131.587 37.7441 130.859 40.1275C130.81 40.2915 130.903 40.5047 130.859 40.6741L129.766 41.2208C129.766 40.5265 129.257 39.9416 129.219 39.5808C129.131 38.7281 128.956 37.9573 128.65 37.1592L129.771 36.536L129.219 30.2879L130.854 30.84C130.936 30.4956 130.766 30.0036 130.854 29.7412C131.341 28.3692 131.013 27.0627 131.401 26.3247C131.718 25.7289 132.462 25.9639 132.495 25.9147H132.5Z" fill="#652F0F"/>
<path d="M134.141 32.4747V33.568C134.026 34.3005 133.703 35.0166 133.594 35.7545C133.424 35.9459 133.189 36.1099 133.047 36.3012H131.406C131.018 35.3227 131.92 34.1529 131.953 33.568H133.588C132.938 32.4091 133.616 30.873 133.588 30.2881C134.288 30.9167 134.042 31.6984 134.135 32.4747H134.141Z" fill="#632A07"/>
<path d="M133.594 30.2879C133.616 30.8728 132.943 32.4089 133.594 33.5623H131.959C132.013 32.5948 131.778 28.9322 131.959 28.648C132.008 28.566 133.479 28.883 133.052 27.5547C133.353 28.7081 133.545 28.7901 133.599 30.2879H133.594Z" fill="#622B10"/>
<path d="M133.047 27.0083C133.107 27.1559 132.998 27.3746 133.047 27.5549C133.473 28.8833 132.002 28.5662 131.953 28.6482V27.0083H133.047Z" fill="#652B0C"/>
<path d="M134.141 33.5679V32.4746C134.152 32.5621 134.567 32.7097 134.54 33.147C134.529 33.3438 134.157 33.4531 134.141 33.5679Z" fill="#622B10"/>
<path d="M120.469 34.6614C120.239 35.2682 119.955 35.2463 119.375 35.208C119.473 34.6942 119.988 34.2951 120.469 34.1147C120.469 34.3006 120.512 34.5411 120.469 34.6614Z" fill="#8B4F1F"/>
<path d="M137.969 73.4728C138.22 73.5275 138.423 73.779 138.516 74.0195C137.646 74.1124 136.722 74.6372 135.781 74.5716L136.328 75.1128V75.6594C135.617 75.5774 134.857 75.725 134.141 75.6594C133.785 75.6266 133.408 75.6594 133.047 75.6594C133.577 74.3201 135.185 74.3967 136.328 74.0195C136.52 73.9539 136.716 73.5111 136.875 73.4728C137.034 73.4346 137.236 73.5002 137.422 73.4728C137.57 73.451 137.827 73.44 137.969 73.4728Z" fill="#032122"/>
<path d="M136.328 71.2866C136.306 71.4616 136.334 71.6529 136.328 71.8333C136.323 72.0137 136.334 72.1995 136.328 72.3799C134.846 73.4131 131.641 72.7517 130.312 73.4732C130.045 73.6208 129.941 73.8449 129.766 74.0199C128.869 73.8504 128.787 73.1288 128.672 72.3799C129.246 72.3307 129.875 71.2375 130.312 71.2866C130.433 71.303 131.39 72.6478 132.5 72.3799C132.68 72.3362 133.665 70.5432 135.218 71.2703C135.311 70.9149 135.207 70.5487 135.234 70.1934C135.645 70.4885 135.962 70.9423 136.328 71.2866Z" fill="#20536F"/>
<path d="M129.766 74.0198C129.941 73.8449 130.045 73.6207 130.312 73.4731C130.367 73.8613 130.154 74.0963 129.766 74.0198Z" fill="#2C586E"/>
<path d="M129.766 69.0999C129.82 69.7285 129.733 70.2916 130.312 70.7398V71.2864C129.875 71.2372 129.246 72.3305 128.672 72.3797C128.53 71.4395 128.677 70.1221 128.672 69.0999C128.672 68.9195 128.672 68.7336 128.672 68.5532L129.766 69.0999Z" fill="#245A76"/>
<path d="M129.766 65.8202V66.9135C129.766 67.6296 129.7 68.3949 129.766 69.1L128.672 68.5534C128.699 67.4656 128.65 66.3613 128.677 65.2735C128.803 65.0658 129.454 65.76 129.766 65.8202Z" fill="#225778"/>
<path d="M130.313 61.9934V64.18L129.219 63.6334H128.672C128.721 63.4639 128.623 63.2562 128.672 63.0867C128.787 62.7041 129.47 62.1793 129.219 61.4468H129.766L130.313 61.9934Z" fill="#28547A"/>
<path d="M128.672 72.3795H128.125L128.672 69.0996C128.677 70.1218 128.53 71.4392 128.672 72.3795Z" fill="#2B566C"/>
<path d="M128.672 63.0867C128.623 63.2561 128.721 63.4639 128.672 63.6333C128.552 64.0433 128.677 64.5462 128.125 64.7266C128.147 64.3112 127.523 63.3053 128.125 62.54L128.672 63.0867Z" fill="#1F5E7D"/>
<path d="M130.313 64.1799V64.7266C129.968 64.8305 129.361 65.4482 129.224 65.2732V63.6333L130.313 64.1799Z" fill="#32506D"/>
<path d="M129.219 61.4468C129.47 62.1793 128.787 62.7041 128.672 63.0867L128.125 62.5401V61.9935C128.305 61.9552 128.759 61.3484 129.219 61.4468Z" fill="#215675"/>
<path d="M129.766 46.6874L125.735 48.2891C125.172 48.5351 125.489 49.1582 125.391 49.4206C124.554 51.6127 124.734 54.1327 124.844 56.527H124.297C124.428 55.0292 124.209 53.5697 123.75 52.1539C124.138 51.3284 124.051 50.1914 124.297 49.4206C124.532 48.6936 125.123 47.9775 125.391 47.2341C125.752 47.2231 126.123 47.2559 126.484 47.2341C127.086 47.1958 127.255 46.8405 127.578 46.6874C128.147 46.4196 129.06 46.6273 129.219 45.5941C129.191 45.2333 129.257 44.8561 129.219 44.5008C128.645 43.4513 129.766 41.5872 129.766 41.221L130.859 40.6743C130.329 42.6696 129.935 44.6375 129.766 46.6874Z" fill="#684228"/>
<path d="M128.125 39.0344C128.152 39.2148 128.103 39.4007 128.125 39.5811C128.223 40.3191 128.59 41.0352 128.672 41.7677H128.125L126.484 41.221C126.594 40.7564 126.402 40.0895 126.484 39.5811C126.534 39.264 126.916 38.8431 127.031 38.4878C127.239 38.7065 127.83 38.8158 128.125 39.0344Z" fill="#76340E"/>
<path d="M128.125 41.7673C127.638 42.7622 127.704 43.9539 127.578 45.0472C127.436 43.5931 127.338 43.4073 126.484 43.9539C126.353 44.0359 126.02 43.861 125.938 43.9539C125.681 42.9098 126.288 42.0735 126.484 41.2207L128.125 41.7673Z" fill="#723816"/>
<path d="M127.578 46.1407V46.6873C127.255 46.8404 127.086 47.1957 126.484 47.2339V45.594L127.578 45.0474C127.534 45.4027 127.605 45.7799 127.578 46.1407Z" fill="#733A1A"/>
<path d="M127.578 45.0473L126.484 45.594V43.954C127.337 43.4074 127.436 43.5932 127.578 45.0473Z" fill="#6F3D1E"/>
<path d="M125.937 43.9541C125.839 44.0634 126.02 44.7358 125.937 45.0474C124.805 45.195 124.68 45.0966 124.86 43.965H125.943L125.937 43.9541Z" fill="#7F390C"/>
<path d="M125.391 47.2341L124.849 45.5996H125.385L125.391 47.2341Z" fill="#7F411A"/>
<path d="M125.664 40.1274C126.02 40.3078 126.02 40.4937 125.664 40.6741V40.1274Z" fill="#7B3B19"/>
<path d="M127.578 37.3945C127.6 37.5859 127.994 38.0669 128.125 39.0345C127.83 38.8158 127.239 38.7065 127.031 38.4878C126.911 38.3621 126.484 37.5039 126.484 37.3945H127.578Z" fill="#723816"/>
<path d="M129.219 39.5811C129.257 39.9418 129.771 40.5268 129.766 41.221C129.766 41.5872 128.645 43.4513 129.219 44.5009C129.153 43.905 128.798 42.8719 128.672 41.7676C128.59 41.0351 128.223 40.319 128.125 39.5811H129.219Z" fill="#723816"/>
<path d="M133.594 45.5943H134.141L134.649 45.8676L133.047 47.2342C131.844 47.77 130.433 48.4423 129.219 48.8742C128.497 48.9179 127.753 48.814 127.031 48.8742L127.31 48.3385C128.934 48.6828 129.744 46.9937 130.313 46.6876C130.668 46.4963 131.045 46.3323 131.406 46.141C131.652 46.0098 132.369 45.6326 132.5 45.5943C132.795 45.5123 133.249 45.649 133.594 45.5943Z" fill="#326A8B"/>
<path d="M132.5 44.5008C132.516 44.6156 132.068 45.0091 132.106 45.3317L132.5 45.5941C132.369 45.6323 131.652 46.0095 131.406 46.1407C130.81 45.1403 130.755 43.9815 130.859 42.8608C132.27 42.9046 132.314 43.3474 132.5 44.5008Z" fill="#27516D"/>
<path d="M134.688 40.1275L134.141 41.7674L133.594 40.1275V39.5808C133.96 39.5262 134.502 38.8429 134.682 39.0342C134.693 39.395 134.688 39.7612 134.688 40.1275Z" fill="#27516D"/>
<path d="M135.234 45.0473C135.491 45.0801 135.71 45.3425 135.781 45.594C135.601 45.676 135.437 46.0531 135.234 46.1406C135.032 46.2281 134.862 46.6107 134.688 46.6873C134.108 46.9332 133.495 47.0371 133.047 47.2339L134.649 45.8673L134.141 45.594V45.0473C134.409 44.9927 134.939 45.0091 135.234 45.0473Z" fill="#2A658B"/>
<path d="M133.594 42.861C133.933 42.9157 134.332 42.8063 134.688 42.861V43.9543H133.594V42.861Z" fill="#175075"/>
<path d="M134.141 41.7674L134.688 40.1274C134.688 40.5812 134.709 41.0349 134.688 41.4831L134.146 41.7674H134.141Z" fill="#275068"/>
<path d="M134.141 45.594H133.594C133.67 45.3316 133.873 45.102 134.141 45.0474V45.594Z" fill="#27516D"/>
<path d="M130.859 42.314C131.034 41.6471 131.997 40.6741 132.5 40.1274C132.095 40.849 132.232 41.9587 130.859 42.314Z" fill="#27516D"/>
<path d="M129.766 49.9673L131.302 50.6014C130.81 52.859 132.084 53.4385 132.5 54.3404C133.085 55.5977 131.592 55.3408 133.594 55.9804C134.239 56.1881 134.463 56.3958 135.234 55.9804C135.234 56.3412 135.262 56.7129 135.234 57.0737C135.196 57.5383 135.218 58.0084 134.687 58.167C134.327 58.1888 133.621 58.7409 133.047 58.7136C131.702 58.6535 130.952 58.2326 130.312 58.167V57.6203C130.805 57.0245 130.312 56.2756 130.312 55.9804C130.318 55.5212 131.527 54.2694 130.312 53.7938L129.219 53.2472C128.841 53.3018 128.798 53.7063 128.672 53.7938C128.502 53.9141 128.223 54.171 128.125 54.3404C127.255 55.8601 128.01 55.1877 128.125 55.9804C128.152 56.1662 128.081 56.374 128.125 56.527C128.174 56.691 128.081 56.8987 128.125 57.0737C128.207 57.4181 128.541 57.8062 128.672 58.167C128.584 58.2107 128.032 59.3094 127.578 59.8069H126.484C124.723 58.7136 125.303 54.7504 125.391 52.7005C126.818 51.886 125.905 51.0223 125.937 50.5139C127.195 50.4429 128.552 50.2843 129.766 49.9673Z" fill="#245977"/>
<path d="M125.938 50.514C125.905 51.0223 126.818 51.886 125.391 52.7005C125.44 51.6127 125.358 50.5085 125.391 49.4207C125.768 49.3059 126.134 48.967 126.484 48.874C126.173 49.3715 125.976 49.9236 125.938 50.514Z" fill="#335B70"/>
<path d="M127.031 60.3533C126.856 60.326 126.665 60.3642 126.484 60.3533V59.8066H127.031V60.3533Z" fill="#1C5875"/>
<path d="M130.312 58.1667C130.952 58.2323 131.702 58.6533 133.047 58.7134V59.26C132.883 59.2272 132.675 59.26 132.5 59.26C132.325 59.26 132.128 59.2382 131.953 59.26C130.985 59.3803 130.116 59.1452 129.766 60.3533C129.591 60.3861 129.399 60.3315 129.219 60.3533C128.754 60.4135 128.262 60.7414 127.753 60.7414C127.316 60.7414 127.119 60.3643 127.031 60.3533C127.589 60.4572 127.496 59.8941 127.578 59.8067C128.032 59.3092 128.584 58.2105 128.672 58.1667C128.82 58.0902 129.963 58.1285 130.312 58.1667Z" fill="#215170"/>
<path d="M133.047 60.3537C132.604 61.4634 131.406 61.8405 130.312 61.9936L129.766 61.447L130.312 60.9003C130.482 60.9167 130.69 60.9222 130.859 60.9003C131.04 60.8785 131.231 60.9331 131.406 60.9003C131.581 60.8675 131.784 60.4083 131.953 60.3537C132.227 60.2662 132.708 60.4138 133.047 60.3537Z" fill="#255970"/>
<path d="M130.859 60.3533V60.8999C130.69 60.9218 130.482 60.9163 130.312 60.8999C129.848 60.8617 129.388 60.8835 129.219 60.3533C129.399 60.3314 129.591 60.3861 129.766 60.3533C130.105 60.2877 130.57 60.4408 130.859 60.3533Z" fill="#0A374F"/>
<path d="M136.328 59.8068C135.978 63.7536 136.815 67.3614 136.328 71.2863C135.962 70.9419 135.645 70.4882 135.234 70.193C135.338 68.6351 134.78 68.1868 134.687 67.4598C134.436 65.4645 134.255 65.0054 134.687 63.0866C134.945 61.9496 135.677 62.0371 134.141 60.3534C134.698 60.5283 135.021 59.8778 135.234 59.8068C135.366 59.763 135.59 59.8177 135.781 59.8068C135.973 59.7958 136.148 59.8122 136.328 59.8068Z" fill="#1C557A"/>
<path d="M134.688 63.0867C134.255 65.0054 134.436 65.4646 134.688 67.4598C132.041 69.384 134.168 69.4278 135.234 70.1931C135.213 70.5484 135.311 70.9146 135.218 71.27C133.659 70.5484 132.68 72.3359 132.5 72.3796C132.123 71.9751 132.15 71.0294 131.953 70.7397C133.091 68.9686 132.155 66.5469 132.5 64.7266C132.549 64.4697 133.643 62.6111 133.873 62.54L134.688 63.0867Z" fill="#225978"/>
<path d="M131.953 70.74C132.15 71.0297 132.123 71.9754 132.5 72.3799C131.39 72.6478 130.433 71.303 130.312 71.2866V70.74C130.416 70.5268 130.838 70.3027 130.859 70.1934C131.127 70.4011 131.827 70.5541 131.953 70.74Z" fill="#1F5270"/>
<path d="M130.859 70.1932C130.837 70.3025 130.416 70.5267 130.312 70.7399C129.733 70.2916 129.82 69.7286 129.766 69.0999C129.7 68.3948 129.766 67.6294 129.766 66.9133L130.859 66.3667C130.723 67.5693 131.056 69.0617 130.859 70.1932Z" fill="#265772"/>
<path d="M130.859 65.8199V66.3665L129.766 66.9131V65.8199C129.941 65.8527 130.132 65.8035 130.312 65.8199C130.477 65.8363 130.695 65.8472 130.859 65.8199Z" fill="#1F4F6B"/>
<path d="M135.781 59.2603V59.8069C135.59 59.8178 135.366 59.7632 135.234 59.8069L134.141 60.3535C135.677 62.0372 134.945 61.9497 134.688 63.0868L133.873 62.5401C133.637 62.6112 132.549 64.4698 132.5 64.7267H131.953C131.505 64.2129 130.848 64.5627 130.312 64.7267V61.9935C131.406 61.8404 132.604 61.4632 133.047 60.3535V59.8069C133.222 59.8069 133.424 59.8342 133.594 59.8069C134.223 59.714 134.791 59.3149 135.781 59.2603Z" fill="#215675"/>
<path d="M137.422 45.0473C137.936 44.9708 138.532 45.0965 139.062 45.0473V45.594C138.466 45.7689 138.428 45.8345 137.969 46.1406C134.398 48.5295 136.574 52.3669 136.328 55.9802C136.164 56.1989 135.814 56.8439 135.781 57.0735H135.234C135.262 56.7127 135.234 56.341 135.234 55.9802C135.234 55.4445 135.289 54.8596 135.234 54.3403C135.213 54.1599 135.256 53.9741 135.234 53.7937C135.147 53.1486 134.846 51.7984 134.688 51.0604V47.2339L135.234 46.1406C135.437 46.0532 135.601 45.676 135.781 45.594C136.366 45.3261 136.755 45.1457 137.422 45.0473Z" fill="#1D457A"/>
<path d="M129.219 44.5008C129.257 44.8561 129.191 45.2333 129.219 45.5941L127.578 46.1407C127.605 45.78 127.534 45.4028 127.578 45.0474C127.704 43.9542 127.638 42.7625 128.125 41.7676H128.672C128.798 42.8718 129.153 43.905 129.219 44.5008Z" fill="#79380D"/>
<path d="M130.313 46.6875C129.749 46.9936 128.934 48.6827 127.31 48.3384L127.031 48.8741C126.84 48.8905 126.638 48.8358 126.484 48.8741C126.134 48.967 125.768 49.3059 125.391 49.4207C125.489 49.1583 125.172 48.5352 125.735 48.2892L129.766 46.6875H130.313Z" fill="#485F6A"/>
<path d="M127.578 46.6875V46.1409L129.219 45.5942C129.06 46.6274 128.147 46.4197 127.578 46.6875Z" fill="#723816"/>
<path d="M134.688 47.2341V47.7808C134.48 47.9065 134.31 48.2509 134.141 48.3274C133.758 48.5024 133.162 48.8303 133.047 48.8741C132.888 48.9397 132.659 48.8085 132.5 48.8741C132.068 49.049 131.559 49.3715 131.406 49.4207C131.242 49.4754 131.029 49.3715 130.859 49.4207C130.493 49.5301 130.116 49.8744 129.766 49.9674C128.552 50.2844 127.195 50.443 125.938 50.514C125.976 49.9236 126.173 49.3715 126.484 48.8741C126.638 48.8358 126.84 48.8905 127.031 48.8741L127.873 49.4426C128.519 49.7105 128.995 48.9561 129.219 48.8741C130.433 48.4422 131.844 47.7699 133.047 47.2341C133.495 47.0374 134.108 46.9335 134.688 46.6875V47.2341Z" fill="#296080"/>
<path d="M129.219 48.8738C128.995 48.9558 128.519 49.7101 127.873 49.4423L127.031 48.8738C127.753 48.8136 128.497 48.9175 129.219 48.8738Z" fill="#27648A"/>
<path d="M133.594 43.9541L133.052 43.6753L133.594 42.8608V43.9541Z" fill="#1B5479"/>
<path d="M134.688 47.2339V46.6873C134.862 46.6107 135.032 46.2281 135.234 46.1406L134.688 47.2339Z" fill="#235778"/>
<path d="M134.141 48.3271C133.681 49.4587 134.54 50.3716 134.688 51.0604C134.846 51.7983 135.147 53.1486 135.234 53.7936L134.698 54.0669L135.234 54.3402C135.289 54.8596 135.234 55.4445 135.234 55.9802C134.463 56.3956 134.239 56.1879 133.594 55.9802C133.687 53.9849 134.507 52.4816 133.588 50.5137L132.5 54.3402C132.079 53.4383 130.81 52.8534 131.302 50.6012L129.766 49.9671C130.116 49.8742 130.493 49.5298 130.859 49.4204L131.138 49.9562L131.406 49.4204C131.559 49.3712 132.068 49.0487 132.5 48.8738C132.462 49.5844 133.534 49.7156 133.594 49.1471L133.047 48.8738C133.162 48.8301 133.758 48.5021 134.141 48.3271Z" fill="#24597B"/>
<path d="M133.594 55.9801C131.592 55.3405 133.085 55.5975 132.5 54.3402L133.588 50.5137C134.507 52.4816 133.687 53.9849 133.594 55.9801Z" fill="#235778"/>
<path d="M130.312 55.9805L128.672 56.5272H128.125C128.081 56.3741 128.152 56.1664 128.125 55.9805V55.4339H128.672C128.902 55.3082 129.033 55.0458 129.219 54.8872C129.405 54.7287 129.585 54.521 129.766 54.3406C129.946 54.1602 130.143 53.9853 130.312 53.7939C131.527 54.2695 130.318 55.5213 130.312 55.9805Z" fill="#5B6E6F"/>
<path d="M130.312 55.9805C130.312 56.2757 130.805 57.0246 130.312 57.6204C129.875 57.6477 129.465 57.1394 129.219 57.0738L128.672 56.5271L130.312 55.9805Z" fill="#1D383D"/>
<path d="M135.781 58.7136C135.716 58.8448 135.825 59.0799 135.781 59.2603C134.791 59.3149 134.223 59.714 133.594 59.8069C133.501 59.5664 133.298 59.3095 133.047 59.2603V58.7136C133.621 58.741 134.327 58.1889 134.688 58.167C134.753 58.167 135.393 58.7847 135.781 58.7136Z" fill="#133F5C"/>
<path d="M136.328 58.167C136.262 58.4403 135.847 58.5879 135.781 58.7137C135.393 58.7847 134.753 58.1616 134.688 58.167C135.218 58.0085 135.196 57.5384 135.234 57.0737H135.781C135.727 57.4509 135.803 58.2162 136.328 58.167Z" fill="#022743"/>
<path d="M129.219 57.0738C129.465 57.1394 129.875 57.6478 130.312 57.6204V58.1671C129.963 58.1288 128.82 58.0906 128.672 58.1671C128.541 57.8063 128.207 57.4182 128.125 57.0738C128.47 57.1285 128.923 56.9918 129.219 57.0738Z" fill="#20516A"/>
<path d="M128.125 55.4336V55.9803C128.01 55.1876 127.255 55.86 128.125 54.3403V55.4336Z" fill="#577D84"/>
<path d="M130.312 53.7937C130.143 53.985 129.946 54.1545 129.766 54.3404L129.219 53.7937V53.2471L130.312 53.7937Z" fill="#92ACB6"/>
<path d="M129.219 57.0735C128.923 56.9915 128.47 57.1282 128.125 57.0735C128.081 56.8986 128.174 56.6908 128.125 56.5269H128.672L129.219 57.0735Z" fill="#375B6B"/>
<path d="M127.031 60.3533V59.8066H127.578C127.496 59.8941 127.589 60.4571 127.031 60.3533Z" fill="#235982"/>
<path d="M128.672 54.3406C128.497 54.4007 128.174 54.2641 128.125 54.3406C128.223 54.1711 128.502 53.9142 128.672 53.7939C128.584 53.8814 128.743 54.1711 128.672 54.3406Z" fill="#8CA3AA"/>
<path d="M129.219 53.7937H128.672C128.798 53.7063 128.841 53.3017 129.219 53.2471V53.7937Z" fill="#7993A1"/>
<path d="M133.047 59.8069V60.3535C132.708 60.4136 132.227 60.266 131.953 60.3535L131.406 60.9001C131.231 60.9329 131.04 60.8783 130.859 60.9001V60.3535C131.133 60.2715 131.63 59.5007 131.953 59.2602C132.128 59.2383 132.325 59.2602 132.5 59.2602C132.522 59.5554 132.768 59.8014 133.047 59.8069Z" fill="#0C4055"/>
<path d="M131.953 59.2603C131.63 59.5008 131.133 60.2715 130.859 60.3535C130.57 60.441 130.105 60.2879 129.766 60.3535C130.116 59.1455 130.985 59.3805 131.953 59.2603Z" fill="#20516A"/>
<path d="M133.594 59.8068C133.424 59.8342 133.222 59.8068 133.047 59.8068C132.768 59.8068 132.522 59.5554 132.5 59.2602C132.675 59.2602 132.883 59.2274 133.047 59.2602C133.298 59.3094 133.501 59.5663 133.594 59.8068Z" fill="#05374F"/>
<path d="M131.406 60.9002L131.953 60.3535C131.784 60.4082 131.57 60.8674 131.406 60.9002Z" fill="#20516A"/>
<path d="M135.234 70.1932C134.168 69.4279 132.041 69.3842 134.687 67.46C134.78 68.187 135.338 68.6352 135.234 70.1932Z" fill="#22597A"/>
<path d="M135.234 59.8066C135.021 59.8777 134.698 60.5282 134.141 60.3533L135.234 59.8066Z" fill="#22557C"/>
<path d="M131.953 70.7397C131.827 70.5538 131.127 70.4007 130.859 70.193C131.056 69.0615 130.723 67.5691 130.859 66.3665V65.8199C131.198 65.7652 131.598 65.88 131.953 65.8199V64.7266H132.5C132.155 66.5469 133.091 68.9685 131.953 70.7397Z" fill="#245974"/>
<path d="M131.953 64.7269V65.8202C131.598 65.8803 131.198 65.7655 130.859 65.8202C130.695 65.8475 130.477 65.8366 130.312 65.8202V64.7269C130.848 64.5629 131.505 64.213 131.953 64.7269Z" fill="#21566F"/>
<path d="M137.969 47.2339C137.936 47.4088 138.007 47.6056 137.969 47.7806C137.958 47.8407 137.498 47.9172 137.422 48.8738C137.318 50.2077 137.351 51.8968 137.422 53.247C137.444 53.6078 137.389 53.9795 137.422 54.3403C137.455 54.7011 137.34 55.1876 137.422 55.4336C137.148 55.6468 136.481 55.7834 136.328 55.9802C136.574 52.3669 134.398 48.5295 137.969 46.1406C137.925 46.4905 138.029 46.9005 137.969 47.2339Z" fill="#1F3776"/>
<path d="M134.688 51.0606C134.54 50.3719 133.681 49.459 134.141 48.3274C134.31 48.2509 134.48 47.9065 134.688 47.7808V51.0606Z" fill="#235778"/>
<path d="M135.234 54.3406L134.698 54.0673L135.234 53.7939C135.256 53.9743 135.213 54.1602 135.234 54.3406Z" fill="#235778"/>
<path d="M133.047 48.8739L133.594 49.1472C133.539 49.7157 132.467 49.59 132.5 48.8739C132.659 48.8083 132.888 48.9395 133.047 48.8739Z" fill="#235778"/>
<path d="M130.859 49.4209C131.029 49.3717 131.242 49.4755 131.406 49.4209L131.138 49.9566L130.859 49.4209Z" fill="#245977"/>
<path d="M128.672 54.887V55.4337H128.125V54.3404C128.174 54.2638 128.497 54.4005 128.672 54.3404C128.606 54.488 128.721 54.723 128.672 54.887Z" fill="#87968C"/>
<path d="M128.672 55.4339V54.8872H129.219C129.033 55.0457 128.902 55.3081 128.672 55.4339Z" fill="#AEAC99"/>
<path d="M129.219 54.887C129.246 54.7066 129.186 54.5153 129.219 54.3403H129.766C129.585 54.5207 129.416 54.7175 129.219 54.887Z" fill="#CECEC2"/>
<path d="M129.766 54.3406H129.219C129.252 54.1657 129.191 53.9743 129.219 53.7939L129.766 54.3406Z" fill="#C3CDCD"/>
<path d="M129.219 54.3406C129.038 54.3843 128.825 54.2859 128.672 54.3406C128.743 54.1711 128.584 53.8814 128.672 53.7939H129.219C129.191 53.9743 129.252 54.1657 129.219 54.3406Z" fill="#737F83"/>
<path d="M129.219 54.8869H128.672C128.721 54.7229 128.606 54.4879 128.672 54.3403C128.825 54.2856 129.038 54.384 129.219 54.3403C129.186 54.5152 129.246 54.7065 129.219 54.8869Z" fill="#AFB0A5"/>
</g>
</g>
<defs>
<clipPath id="clip0_645_7952">
<rect width="135" height="130" fill="white"/>
</clipPath>
<clipPath id="clip1_645_7952">
<rect width="175" height="334" fill="white" transform="translate(115 -102)"/>
</clipPath>
</defs>
</svg>
