<svg width="135" height="130" viewBox="0 0 135 130" fill="none" xmlns="http://www.w3.org/2000/svg">
<g clip-path="url(#clip0_645_7951)">
<rect x="-268.5" y="1.5" width="402" height="387" rx="18.5" fill="#FDFFEF" stroke="black" stroke-width="3"/>
<g clip-path="url(#clip1_645_7951)">
<path d="M3.04696 90.3174C3.40243 90.5142 3.77977 90.6782 4.14071 90.864C4.41961 91.7769 5.13055 93.5918 5.23446 94.1439C5.25086 94.2423 3.95477 94.8491 5.23446 95.7838C5.50789 97.0848 6.16414 98.3476 6.32821 99.6103C5.45321 100.157 5.69383 101.72 5.78133 102.606C6.05477 105.438 6.21883 107.684 6.32821 110.543C6.53055 115.682 6.65086 120.197 6.32821 125.303C6.31727 125.483 6.33914 125.669 6.32821 125.849H5.78133C5.86336 123.646 5.45868 121.471 5.23446 119.29C4.58368 113.014 5.08133 106.903 3.59383 100.704C3.30399 99.501 2.92118 98.0141 2.50008 96.8771C2.85008 95.4176 2.21571 94.286 1.95321 93.0506C1.7618 92.1486 1.31336 91.2849 1.40633 90.3229H3.04696V90.3174Z" fill="#B0854E"/>
<path d="M10.7031 132.409L10.1562 132.956C10.0086 132.267 9.35781 130.89 8.51562 131.316C8.48281 126.183 7.49844 122.214 7.42188 117.103C8.24219 117.027 8.24219 115.54 7.42188 115.463C7.42188 115.097 7.42188 114.736 7.42188 114.37V111.637C9.35234 118.284 9.37422 125.554 10.7031 132.409Z" fill="#BC9F6E"/>
<path d="M6.875 111.637C6.89141 112.511 6.54687 113.911 7.42188 114.37C7.42188 114.736 7.42188 115.097 7.42188 115.463C7.42188 116.01 7.41641 116.557 7.42188 117.103C7.49844 122.214 8.48281 126.183 8.51562 131.316C8.51562 131.496 8.51562 131.682 8.51562 131.863L7.42188 133.503C7.42188 133.136 7.43281 132.776 7.42188 132.409C7.36719 130.086 7.56953 127.402 6.32812 125.303C6.65078 120.197 6.53047 115.682 6.32812 110.543H6.875C6.875 110.91 6.86953 111.27 6.875 111.637Z" fill="#BF985F"/>
<path d="M13.9844 30.7333C13.7984 31.023 13.7875 31.8321 13.4375 32.3732C13.175 32.7778 13.0601 33.1987 12.8906 33.4665C11.6383 33.7125 9.92654 36.5004 9.06248 37.8397C8.9367 38.0365 9.19373 38.758 9.06248 38.933C9.0242 38.9822 8.57576 38.6979 7.96873 39.4796C7.78826 39.7147 8.47732 40.961 6.87498 40.5729C6.87498 40.3925 6.86404 40.2067 6.87498 40.0263C6.98435 38.0857 7.73357 37.3914 7.96873 35.6531C8.79998 34.9042 9.49998 34.0514 10.1562 33.4665C11.1515 32.581 12.6609 32.4771 12.8906 30.7333C13.2133 30.6622 13.6344 30.777 13.9844 30.7333Z" fill="#925121"/>
<path d="M2.4999 78.2912C2.6749 78.3185 2.8663 78.2693 3.04677 78.2912C3.22724 78.3131 3.41318 78.2748 3.59365 78.2912H4.14052C4.64912 81.1611 10.3257 83.4132 7.96865 87.5841C8.57021 84.2059 6.84755 84.4081 5.23427 83.211C4.78037 82.8721 3.73583 81.6367 3.59365 81.5711L4.6874 81.2977L2.50537 80.4559L3.01396 79.4282C2.45068 79.3079 1.92021 79.1112 1.41162 78.8378C0.728027 78.4716 -0.0704102 78.0835 -0.775879 77.7445C0.378027 77.586 1.42256 78.1163 2.50537 78.2912H2.4999Z" fill="#757776"/>
<path d="M5.23432 37.8396C5.04291 38.02 4.87338 38.2059 4.68744 38.3863C4.27729 38.7799 4.23901 39.3812 4.14057 39.4796C2.91557 40.6986 2.52182 40.8517 1.40619 42.2128C1.25307 42.3987 0.979631 42.5463 0.859318 42.7594C0.782756 42.8961 -0.907088 43.8199 0.312443 44.946C0.137443 44.6071 -1.27896 44.1315 -0.781307 42.7594C1.8601 39.2172 2.75151 38.8673 5.78119 36.1997L5.23432 37.8396Z" fill="#966035"/>
<path d="M9.60939 56.9723C8.55939 57.1637 8.78361 58.164 8.51564 58.6123C8.27502 59.0168 8.16018 59.312 7.96877 59.7056C7.92502 59.7985 7.33987 59.886 7.17034 60.2686C6.76018 61.1815 7.13205 62.3896 6.32814 62.9854C6.34455 62.805 6.31174 62.6192 6.32814 62.4388C6.35549 62.078 6.3008 61.7063 6.32814 61.3455C6.38283 60.6239 6.28986 59.886 6.32814 59.1589H6.87502L7.14846 59.6946L7.42189 59.1589C7.50393 58.6615 7.29611 57.929 7.42189 57.519L7.96877 56.9723C8.04533 56.6498 7.89768 56.207 7.96877 55.879C8.53205 55.7205 8.42814 55.2285 8.51564 54.7858C8.82189 53.2552 9.27033 52.6593 9.60939 51.5059L11.25 50.4126C10.7797 52.632 10.118 54.7694 9.60939 56.9723Z" fill="#501B09"/>
<path d="M13.9843 39.4798C14.0007 39.6601 13.957 39.846 13.9843 40.0264C13.9953 40.092 13.9734 40.7644 13.9843 41.1197C13.9843 41.3001 13.9898 41.4859 13.9843 41.6663C13.9023 42.4371 12.4148 43.5741 12.3437 43.8529C12.2507 44.2082 12.5132 44.4652 12.8906 44.3996C13.0164 44.9298 12.6937 45.7115 13.4375 46.0395C13.2898 46.5588 13.0273 46.8048 12.8906 47.1328L11.8023 46.0395C11.9226 47.1874 11.4414 48.2315 11.25 49.3194C10.9109 49.3795 10.4351 49.2319 10.1562 49.3194C10.189 48.7782 10.1343 48.2261 10.1562 47.6794C12.2507 44.8259 11.2445 45.0883 11.7968 42.213H12.8906C12.9343 41.4914 12.8304 40.748 12.8906 40.0264C12.907 39.846 12.8906 39.6601 12.8906 39.4798V38.9331H13.4375C13.4812 39.19 13.7218 39.4142 13.9843 39.4798Z" fill="#65311D"/>
<path d="M5.7813 71.1849C5.86333 70.671 5.70474 70.0643 5.7813 69.5449C5.91802 68.6102 6.27349 67.0358 6.32818 66.2651C6.76021 65.8168 7.41099 64.6142 7.42193 64.0785C7.53677 63.7286 7.92505 63.2968 7.9688 62.9852C8.14927 61.7061 8.18755 61.0501 8.51568 59.7053C8.55943 59.5359 8.48287 59.3336 8.51568 59.1587H9.06255C8.12193 63.1383 7.7774 67.4404 5.7813 71.1849Z" fill="#4B2314"/>
<path d="M2.5 85.9443C3.18359 86.1958 2.82813 86.1575 3.45703 86.4582C4.45781 86.9338 5.86328 86.7534 6.32813 88.1309C5.78672 88.1637 5.22344 88.0817 4.6875 88.1309C4.50703 88.1473 4.32109 88.12 4.14063 88.1309C4.09688 87.2891 2.53828 87.2945 2.5 88.1309C2.31953 88.1309 2.13359 88.1309 1.95313 88.1309C1.68516 87.4203 0.914063 87.6061 0.3125 87.5843C0.132031 87.1032 -0.272656 86.5839 -0.78125 86.491L-0.234375 85.9443C0.613281 86.245 1.85469 87.1251 2.5 85.9443Z" fill="#2B261E"/>
<path d="M10.1562 33.4666C9.5 34.0515 8.8 34.9042 7.96875 35.6531C7.1375 36.402 6.03828 37.0908 5.23438 37.8397L5.78125 36.1998C7.20312 34.948 7.95234 34.1389 9.60938 32.9199L10.1562 33.4666Z" fill="#966232"/>
<path d="M6.87508 110.543H6.3282C6.21883 107.684 6.05477 105.438 5.78133 102.606C5.69383 101.72 5.45867 100.157 6.3282 99.6104C6.79305 103.213 6.84774 106.908 6.87508 110.543Z" fill="#B99C6B"/>
<path d="M5.78125 71.1849C5.40937 73.5354 4.21172 75.9407 4.14062 77.7446L3.59375 78.2912C3.41328 78.2748 3.22734 78.3131 3.04688 78.2912V77.7446C3.33672 77.6626 3.47891 77.4603 3.59375 77.1979C4.48516 75.1808 4.49609 71.6112 5.78125 69.5449C5.70469 70.0642 5.86328 70.671 5.78125 71.1849Z" fill="#47230F"/>
<path d="M7.96878 87.5841C7.87582 87.7536 7.59144 88.0378 7.42191 88.1307C7.493 87.4748 7.36722 85.6982 6.87504 85.3975C6.18597 83.7193 4.76957 85.9059 5.23441 83.2109C6.84769 84.4081 8.57035 84.2058 7.96878 87.5841Z" fill="#3E4142"/>
<path d="M6.875 85.3979C7.36719 85.6986 7.49297 87.4752 7.42188 88.1311C6.54141 88.6341 5.50234 89.3283 4.6875 88.1311C5.22344 88.0819 5.78672 88.1639 6.32812 88.1311C8.28594 87.4314 4.74766 84.9551 3.59375 84.8513C3.63203 84.8622 3.90547 84.3265 4.29375 84.4304C4.54531 84.496 6.76016 85.3269 6.875 85.3979Z" fill="#393833"/>
<path d="M14.5312 36.7461C14.5094 37.1069 14.6625 38.6703 15.0781 38.9327C14.8922 39.3099 14.7226 39.6542 14.5312 40.026H13.9844C13.957 39.8456 14.0008 39.6597 13.9844 39.4793L13.4375 38.9327C13.3664 38.5282 13.3773 37.7137 13.4375 37.2927C13.4648 37.1014 13.3883 36.8882 13.4375 36.7461H14.5312Z" fill="#481F0A"/>
<path d="M13.4375 46.0392C12.6937 45.7112 13.0164 44.9295 12.8906 44.3992C12.8359 44.1587 12.5789 43.9455 12.3438 43.8526C12.4148 43.5738 13.9023 42.4368 13.9844 41.666C13.9242 43.5137 13.957 44.1915 13.4375 46.0392Z" fill="#4A230C"/>
<path d="M12.8906 30.7334C12.6609 32.4772 11.1516 32.5811 10.1562 33.4666L9.60938 32.92C10.7906 32.0508 10.9 31.1598 12.8906 30.7334Z" fill="#935E33"/>
<path d="M16.7187 34.0131L16.4453 32.3677C16.0953 32.3677 16.0516 33.4391 15.625 34.0131C15.6578 33.0674 15.9312 32.1763 16.1719 31.2798C16.3523 30.602 16.8719 29.9406 16.7187 29.0933H17.2656C17.2711 31.2634 17.0797 32.1217 16.7187 34.0131Z" fill="#592F18"/>
<path d="M2.5 88.1309C2.46719 88.7978 3.025 88.6447 3.04688 88.6775C3.22734 88.9016 3.80702 88.9508 4.03124 89.5904C4.20077 90.0605 4.04766 90.5689 4.14062 90.8641C3.77969 90.6782 3.40234 90.5142 3.04688 90.3174C2.72422 90.137 2.46172 89.7271 1.95312 89.7708C1.95312 89.5904 1.95312 89.4045 1.95312 89.2241C1.95312 88.8032 1.84375 88.6283 1.40625 88.6775V88.1309C1.58672 88.1309 1.77266 88.1309 1.95312 88.1309C2.13359 88.1309 2.31953 88.1309 2.5 88.1309Z" fill="#522F11"/>
<path d="M14.5312 31.8265L13.4375 32.3731C13.7875 31.832 13.7984 31.0229 13.9844 30.7332C14.3727 30.1374 15.0453 29.5142 15.625 29.0933H16.1719C16.3742 30.5801 14.925 31.1978 14.5312 31.8265Z" fill="#8D4E1D"/>
<path d="M0.3125 44.9459C0.503906 45.3066 0.673437 45.6784 0.859375 46.0391C0.935937 46.1813 0.782812 46.4437 0.859375 46.5858L-1.32813 44.9459C-1.37734 44.5413 -1.57969 44.1423 -1.875 43.8526V43.3059C-1.58516 43.1255 -0.939844 42.9725 -0.78125 42.7593C-1.27891 44.1314 0.1375 44.6069 0.3125 44.9459Z" fill="#695C5B"/>
<path d="M12.8906 47.1324C12.475 48.1382 12.3218 49.4556 11.25 49.8656C11.2828 49.6907 11.2171 49.4939 11.25 49.3189C11.4414 48.2311 11.9226 47.187 11.8023 46.0391L12.8906 47.1324Z" fill="#532009"/>
<path d="M16.7187 34.0131C16.6531 34.3465 16.2594 34.751 16.1719 35.1064C14.8047 35.6202 14.6187 35.3414 14.5312 36.7463H13.4375C13.7055 35.9318 15.0453 34.8002 15.625 34.0131C16.0516 33.4391 16.0953 32.3677 16.4453 32.3677L16.7187 34.0131Z" fill="#4C2B14"/>
<path d="M16.172 36.1997H15.0837L15.6251 37.8397C15.4884 38.2114 15.2532 38.5722 15.0782 38.933C14.6626 38.6706 14.5095 37.1072 14.5313 36.7464C14.6188 35.3415 14.8048 35.6203 16.172 35.1064C16.0899 35.429 16.2595 35.9045 16.172 36.1997Z" fill="#411D09"/>
<path d="M9.0625 59.1587H8.51562V58.6121C8.78359 58.1639 8.55938 57.1635 9.60938 56.9722C9.43984 57.7156 9.23203 58.4317 9.0625 59.1587Z" fill="#4D200F"/>
<path d="M16.1718 36.1997C15.9804 36.8338 15.8491 37.2274 15.6249 37.8396L15.0835 36.2052H16.1718V36.1997Z" fill="#4C2B14"/>
<path d="M7.42181 114.37C6.54681 113.911 6.89134 112.511 6.87493 111.637H7.42181V114.37Z" fill="#B99C6B"/>
<path d="M11.25 49.319C11.2172 49.4939 11.2828 49.6907 11.25 49.8656C11.2172 50.0406 11.2883 50.2374 11.25 50.4123L9.60938 51.5056C9.85 50.6856 10.0906 50.3412 10.1562 49.319C10.4352 49.2315 10.9109 49.3791 11.25 49.319Z" fill="#581E08"/>
<path d="M14.5312 40.0264C14.3453 40.3872 14.1594 40.7534 13.9844 41.1197C13.9734 40.7643 13.9953 40.092 13.9844 40.0264H14.5312Z" fill="#4A230C"/>
<path d="M5.23431 94.6907V95.2373C5.25619 95.4177 5.19603 95.6145 5.23431 95.784C3.95462 94.8492 5.25072 94.2424 5.23431 94.144V94.6907Z" fill="#BCA269"/>
<path d="M4.14062 88.1308C3.77969 88.1527 3.40781 88.1199 3.04687 88.1308C2.86641 88.1363 2.68047 88.1308 2.5 88.1308C2.53828 87.2944 4.09687 87.289 4.14062 88.1308Z" fill="#393833"/>
<path d="M17.2656 28.5465C17.2656 28.7269 17.2656 28.9127 17.2656 29.0931H15.625C15.8 28.9674 15.9422 28.6449 16.1719 28.5465C16.4016 28.4481 16.932 28.6121 17.2656 28.5465Z" fill="#956645"/>
<path d="M4.14062 78.2913H3.59375L4.14062 77.7446C4.13516 77.9141 4.11328 78.1273 4.14062 78.2913Z" fill="#414444"/>
<path d="M5.23438 95.2371V94.6904C5.825 94.9802 5.23438 95.2097 5.23438 95.2371Z" fill="#B79B6C"/>
<path d="M3.0468 88.6775C3.02493 88.6447 2.46712 88.7978 2.49993 88.1309C2.6804 88.1309 2.86633 88.1363 3.0468 88.1309V88.6775Z" fill="#46290E"/>
<path d="M5.23445 119.29H4.14617C5.13602 120.776 4.17352 121.974 4.14617 122.569L3.5993 122.023C3.63211 121.575 3.69227 120.738 3.5993 120.383C3.51727 120.066 3.41883 119.847 3.05242 119.836C2.97039 119.142 3.17274 118.295 3.05242 117.65C5.11961 112.216 3.54461 106.837 3.5993 101.25V100.704C5.0868 106.903 4.58914 113.014 5.23992 119.29H5.23445Z" fill="#A87838"/>
<path d="M5.23447 119.29C5.45868 121.471 5.86337 123.646 5.78134 125.849L5.7376 127.429L4.14072 127.489C4.1954 127.145 4.10243 126.751 4.14072 126.396C4.1954 125.86 4.09697 125.297 4.14072 124.756C4.20087 124.034 4.10243 123.291 4.14072 122.569C4.17353 121.974 5.13056 120.776 4.14072 119.295H5.22899L5.23447 119.29Z" fill="#B3853A"/>
<path d="M5.23438 131.316C5.09219 130.622 5.09766 130.124 4.41406 129.676C4.06406 129.539 4.01484 130.485 3.59375 130.769C3.46797 130.857 3.16172 130.682 3.04688 130.769V129.676C3.50625 129.425 3.43516 128.911 3.59375 128.583C3.75234 128.255 4.04766 128.102 4.14063 127.49L5.73751 127.429L5.78125 125.85H6.32813C6.20781 127.615 7.07188 130.463 5.23438 131.316Z" fill="#B9873C"/>
<path d="M7.42179 132.409H6.87492C6.34445 132.458 5.74835 132.333 5.23429 132.409C5.19054 132.059 5.29992 131.638 5.23429 131.316C7.07179 130.463 6.20773 127.615 6.32804 125.849C6.33898 125.669 6.3171 125.483 6.32804 125.303C7.56945 127.402 7.3671 130.086 7.42179 132.409Z" fill="#C29449"/>
<path d="M2.5 96.8771C2.92109 98.0141 3.30391 99.501 3.59375 100.704V101.25C1.87656 100.212 1.43906 97.6588 1.40625 95.7838C1.49922 95.7619 1.51015 95.095 1.94765 95.2371C1.78359 95.9478 2.31953 96.3906 2.5 96.8771Z" fill="#A57334"/>
<path d="M1.95312 89.7711C2.46172 89.7273 2.72422 90.1373 3.04688 90.3177H1.40625C1.31328 91.2853 1.75625 92.149 1.95312 93.0509L0.859375 94.6909C0.771875 94.1661 0.514844 92.8651 0.3125 92.5043C1.04531 91.411 0.296094 89.4595 1.95312 89.7711Z" fill="#A17543"/>
<path d="M2.49992 96.8773C2.31945 96.3908 1.78351 95.948 1.94757 95.2374C1.51007 95.1007 1.50461 95.7621 1.40617 95.784C1.24211 95.8277 1.03977 95.7512 0.859298 95.784V95.2374C0.837423 95.057 0.886642 94.8656 0.859298 94.6907L1.95305 93.0508C2.21555 94.2862 2.84992 95.4178 2.49992 96.8773Z" fill="#A0793A"/>
<path d="M7.42186 117.103C7.4164 116.557 7.42186 116.01 7.42186 115.463C8.24218 115.54 8.24218 117.027 7.42186 117.103Z" fill="#B99C6B"/>
<path d="M6.875 40.026C5.0375 40.0916 5.45312 41.7261 5.09218 42.0704C4.47968 42.6608 1.67969 42.7865 3.04688 45.487C2.16094 45.7986 1.86563 45.1317 1.40625 44.9458L0.859375 42.7592C0.979688 42.546 1.25313 42.3984 1.40625 42.2126V43.3004C1.67969 43.7268 3.75781 40.3758 4.14063 39.4793C4.27188 39.1623 4.6875 38.8398 4.6875 38.3861C4.87344 38.2057 5.04297 38.0198 5.23438 37.8394C6.03828 37.0905 7.14844 36.3908 7.96875 35.6528C7.73359 37.3912 6.98438 38.0854 6.875 40.026Z" fill="#955426"/>
<path d="M9.06253 40.573C8.75081 41.1688 8.71799 41.6827 8.51565 42.2129C7.90315 42.3386 7.71721 43.0547 7.4219 43.3062C6.92971 43.7271 6.29534 44.0059 5.78128 44.3995C5.81409 44.2246 5.7594 44.0332 5.78128 43.8528C5.86878 43.1422 5.71565 42.3824 5.78128 41.6663L7.40002 41.3929C7.29065 41.1251 6.87502 40.7698 6.86955 40.573C8.4719 40.9611 7.78283 39.7147 7.9633 39.4797L9.05705 38.933C9.1883 38.7581 8.93127 38.0365 9.05705 37.8398C10.8071 36.8503 11.8352 35.1011 12.8852 33.4666C13.0547 33.1987 13.1696 32.7778 13.4321 32.3733L14.5258 31.8267C12.7703 34.6364 10.561 37.6867 9.05705 40.573H9.06253Z" fill="#884A1F"/>
<path d="M6.8749 40.573C6.8749 40.7698 7.29599 41.1251 7.40537 41.393L5.78662 41.6663C5.71553 42.3824 5.86865 43.1422 5.78662 43.8529H5.23975L4.97177 43.3172C4.39755 43.7326 4.09678 44.2191 4.146 44.9462C3.95459 45.4054 4.52881 46.772 3.59912 47.1327C3.05771 46.9524 2.48896 46.7774 1.9585 46.5861C1.58115 46.4549 1.24209 46.1816 0.864746 46.0395C0.678809 45.6787 0.509277 45.307 0.317871 44.9462C0.449121 45.0664 1.13271 44.8314 1.41162 44.9462C1.871 45.132 2.16631 45.8044 3.05225 45.4873C1.68506 42.7924 4.48505 42.6612 5.09755 42.0708C5.45849 41.721 5.04287 40.092 6.88037 40.0264C6.86943 40.2068 6.88037 40.3926 6.88037 40.573H6.8749Z" fill="#8C4F24"/>
<path d="M12.8906 33.4663C11.8406 35.1008 10.8125 36.85 9.0625 37.8395C9.92656 36.5002 11.6383 33.7123 12.8906 33.4663Z" fill="#8D4E1D"/>
<path d="M9.0625 38.933L7.96875 39.4796C8.57578 38.6979 9.02422 38.9822 9.0625 38.933Z" fill="#8D4E1D"/>
<path d="M-3.51562 76.6512C-3.33516 76.6512 -3.14922 76.6512 -2.96875 76.6512C-2.39453 77.3181 -1.51406 77.3946 -0.78125 77.7445C-0.0484375 78.0943 0.722656 78.4715 1.40625 78.8378V79.9311H0.3125C-1.77109 79.4391 -4.63672 79.5047 -6.79688 79.3844C-6.1625 78.2365 -4.05703 79.4609 -3.51562 78.2911C-3.42266 78.0943 -3.55937 77.5422 -3.51562 77.2033L-5.7086 76.6512C-4.98126 76.6567 -4.24844 76.6293 -3.5211 76.6512H-3.51562Z" fill="#7A7D79"/>
<path d="M1.40635 78.8379C1.91495 79.1112 2.44541 79.308 3.00869 79.4283L2.5001 80.456L4.68213 81.2978L3.58838 81.5711C3.40244 81.4837 2.3415 81.1557 1.94775 81.0245C1.49385 80.7621 0.722754 80.0296 0.307129 79.9312H1.40088V78.8379H1.40635Z" fill="#787B78"/>
<path d="M1.95312 76.6516C2.02969 77.078 2.17734 77.4443 2.5 77.7449V78.2916C1.41719 78.1166 0.372656 77.5864 -0.78125 77.7449C-1.51406 77.3951 -2.39453 77.3185 -2.96875 76.6516C-2.78828 76.6516 -2.60234 76.6516 -2.42188 76.6516C-2.24141 76.6516 -2.05547 76.6516 -1.875 76.6516C-1.32812 76.6626 -0.775781 76.6188 -0.234375 76.6516C-0.130469 76.6571 0.339843 77.3404 1.0125 77.2475L1.95312 76.105C1.96953 76.2854 1.92031 76.4767 1.95312 76.6516Z" fill="#6C7250"/>
<path d="M1.95313 81.0247C2.34688 81.1559 3.40781 81.4839 3.59375 81.5713C3.73594 81.6369 4.78047 82.8723 5.23438 83.2113H4.14063C2.19922 81.7408 0.170313 81.5604 -1.875 80.478C-0.710156 80.6584 0.842969 80.6639 1.95313 81.0247Z" fill="#414444"/>
<path d="M3.04688 78.2913C2.86641 78.2694 2.675 78.3186 2.5 78.2913V77.7446H3.04688V78.2913Z" fill="#5D4E45"/>
<path d="M4.14052 39.4795C3.75771 40.3815 1.67959 43.7269 1.41162 43.3005V42.2127C2.52178 40.8516 2.91552 40.6985 4.14052 39.4795Z" fill="#955B27"/>
<path d="M1.40635 44.9459C1.12744 44.8311 0.443846 45.0661 0.312596 44.9459C-0.906935 43.8198 0.782909 42.8959 0.859471 42.7593L1.40635 44.9459Z" fill="#955B27"/>
<path d="M4.14062 39.4795C4.23906 39.3811 4.27734 38.7798 4.6875 38.3862C4.6875 38.8399 4.27187 39.1625 4.14062 39.4795Z" fill="#966232"/>
<path d="M9.60938 51.5059C9.27031 52.6593 8.82188 53.2552 8.51563 54.7858C7.94141 54.9443 8.06172 55.4418 7.96875 55.8791C7.89766 56.2071 8.04531 56.6498 7.96875 56.9724C7.95781 57.0106 7.55859 57.0708 7.42188 57.519C7.29609 57.929 7.50391 58.6615 7.42188 59.1589H6.32812V58.0657C7.49297 56.1852 7.62969 53.441 8.51563 51.5059C8.83281 50.8171 9.42344 49.5489 10.1563 49.3193C10.0906 50.3416 9.85 50.6859 9.60938 51.5059Z" fill="#743120"/>
<path d="M8.51556 59.7056C8.18743 61.0503 8.14915 61.7063 7.96868 62.9854C5.73197 62.8706 7.42728 63.953 7.42181 64.0787C7.41087 64.6144 6.76009 65.8171 6.32806 66.2653C6.339 66.0849 6.31165 65.8991 6.32806 65.7187C6.34447 65.5383 6.31165 65.3524 6.32806 65.172C6.37181 64.6308 6.28431 64.0733 6.32806 63.5321C6.34447 63.3517 6.31165 63.1658 6.32806 62.9854C7.13197 62.3896 6.75463 61.1815 7.17025 60.2686C7.34525 59.8805 7.92493 59.793 7.96868 59.7056H8.51556Z" fill="#451806"/>
<path d="M7.96875 55.8789C8.06172 55.4416 7.94141 54.9442 8.51562 54.7856C8.42813 55.2284 8.53203 55.7204 7.96875 55.8789Z" fill="#5F2B19"/>
<path d="M8.51562 59.1589C8.48281 59.3339 8.55937 59.5361 8.51562 59.7056H7.96875C8.16016 59.312 8.275 59.0168 8.51562 58.6123V59.1589Z" fill="#441502"/>
<path d="M6.875 59.1587H7.42188L7.14844 59.6944L6.875 59.1587Z" fill="#4D200F"/>
<path d="M7.42188 57.5188C7.55859 57.0706 7.95781 57.0104 7.96875 56.9722L7.42188 57.5188Z" fill="#5F2B19"/>
<path d="M12.8906 42.2129C12.2508 41.8248 11.9664 41.3383 11.7969 42.2129C11.2445 45.0883 12.2508 44.8259 10.1562 47.6794C9.88281 48.0566 9.36328 48.3682 9.0625 48.7727C9.85547 46.1871 10.8945 43.6725 11.7969 41.1197C11.9281 40.7425 12.2016 40.4036 12.3438 40.0264H12.8906C12.8305 40.7479 12.9344 41.4914 12.8906 42.2129Z" fill="#89422C"/>
<path d="M10.1563 49.3191C9.42349 49.5487 8.83286 50.8169 8.51567 51.5057H7.9688C8.07817 51.2379 7.85395 50.6475 7.9688 50.4124C8.22036 49.8931 8.70161 49.2535 9.06255 48.7725C9.36333 48.368 9.88286 48.0564 10.1563 47.6792C10.1344 48.2258 10.1891 48.778 10.1563 49.3191Z" fill="#863E2A"/>
<path d="M12.8907 38.9329V39.4795H12.3439C12.1634 39.5233 11.9009 39.4085 11.797 39.4795C11.8845 39.3593 11.7095 39.0422 11.797 38.9329L12.8907 38.3862V38.9329Z" fill="#834E32"/>
<path d="M13.4375 38.9329H12.8906V37.8396C13.0875 37.6866 13.2352 37.4515 13.4375 37.293C13.3773 37.7139 13.3664 38.5284 13.4375 38.9329Z" fill="#4C2B14"/>
<path d="M12.8906 44.3992C12.5133 44.4648 12.2508 44.2079 12.3438 43.8525C12.5789 43.9455 12.836 44.1587 12.8906 44.3992Z" fill="#481F0A"/>
<path d="M12.8906 42.2126H11.7969C11.9664 41.338 12.2508 41.8245 12.8906 42.2126Z" fill="#7C4029"/>
<path d="M12.8906 40.0261H12.3438V39.4795H12.8906C12.8906 39.6599 12.907 39.8457 12.8906 40.0261Z" fill="#7C4029"/>
<path d="M13.9844 39.4798C13.7219 39.4142 13.4812 39.19 13.4375 38.9331L13.9844 39.4798Z" fill="#4A230C"/>
<path d="M6.3282 65.7183C6.3118 65.8987 6.33914 66.0845 6.3282 66.2649C6.27352 67.0357 5.91805 68.61 5.78133 69.5448C4.49617 71.6111 4.48523 75.1807 3.59383 77.1978H3.04695L1.9532 76.6512C1.92039 76.4762 1.96961 76.2849 1.9532 76.1045C1.9368 75.9241 1.95867 75.7383 1.9532 75.5579C2.51102 75.5961 2.40164 75.3556 2.50008 75.0112C2.62039 74.5848 2.41805 73.8742 2.50008 73.3713C2.76258 73.0652 3.48992 72.5623 3.59383 72.278C3.47352 72.3983 3.67586 72.8356 3.86727 72.8246C4.46336 72.7864 3.85086 72.0211 3.59383 72.278C4.07508 70.9497 4.79149 67.4457 5.23445 65.7183H6.3282Z" fill="#401D06"/>
<path d="M7.96884 62.9851C7.92509 63.2967 7.53681 63.7285 7.42196 64.0784C7.42196 63.9526 5.73212 62.8703 7.96884 62.9851Z" fill="#4D200F"/>
<path d="M-5.15625 81.0247C-4.80078 81.0575 -4.37969 80.9591 -4.0625 81.0247C-5.45703 83.8454 -2.96328 81.8282 -1.1586 82.7685C0.115624 83.4299 0.946875 84.3647 3.04688 84.8512C3.22187 84.8895 3.41875 84.8129 3.59375 84.8512C4.74766 84.955 8.28594 87.4314 6.32812 88.1311C5.86328 86.7535 4.45781 86.9339 3.45703 86.4583C2.82813 86.1577 3.18359 86.2014 2.5 85.9445C1.31875 85.5072 -0.239838 84.6489 -1.20234 84.4248C-2.04453 84.228 -2.81016 84.4029 -3.51562 84.3045C-4.29766 83.9164 -4.09531 83.7415 -5.70312 83.2113V82.118L-6.25 82.6646C-6.43047 82.6591 -6.61641 82.6646 -6.79688 82.6646C-7.51875 82.6209 -8.26797 82.7302 -8.98438 82.6646V81.0356L-6.25 80.478C-6.06953 80.478 -5.88359 80.478 -5.70312 80.478L-5.15625 81.0247Z" fill="#2C2D2E"/>
<path d="M-6.79688 86.4911C-6.25 86.5021 -5.70312 86.4802 -5.15625 86.4911C-4.24844 86.513 -3.32422 86.4365 -2.42188 86.4911C-1.89141 86.5239 -1.25703 86.4037 -0.78125 86.4911C-0.272656 86.5841 0.132031 87.1034 0.3125 87.5844C-0.0484375 87.568 -0.420312 87.6172 -0.78125 87.5844C-4.42344 87.2455 -8.63438 86.6169 -12.2656 87.0378V86.4911C-12.0852 86.4802 -11.8992 86.5021 -11.7188 86.4911C-10.1 86.4146 -8.42109 86.4638 -6.79688 86.4911Z" fill="#2B1A05"/>
<path d="M2.5 85.9441C1.85469 87.1249 0.613281 86.2448 -0.234375 85.9441C-1.175 85.6107 -2.56406 84.7798 -3.51562 84.3042C-2.80469 84.4026 -2.04453 84.2331 -1.20234 84.4245C-0.245306 84.6486 1.31875 85.5014 2.5 85.9441Z" fill="#212321"/>
<path d="M0.3125 87.5843C0.914063 87.6062 1.68516 87.4203 1.95312 88.1309C1.77266 88.1309 1.58672 88.1309 1.40625 88.1309C0.678906 88.1419 -0.0539062 88.12 -0.78125 88.1309V87.5843C-0.420312 87.6171 -0.0484375 87.5679 0.3125 87.5843Z" fill="#46290E"/>
<path d="M-14.4531 79.3847L-14.1797 79.9204L-13.9062 79.3847C-12.4516 79.3628 -10.9859 79.3956 -9.53125 79.3847L-9.25781 79.9204L-8.98438 79.3847C-8.80391 79.3847 -8.61797 79.3847 -8.4375 79.3847C-6.5125 80.057 -4.04609 80.139 -1.875 80.4779C0.170313 81.5603 2.19922 81.7407 4.14062 83.2112C4.24453 83.2877 4.23906 83.5392 4.40859 83.5993L4.6875 83.2112H5.23438C4.76953 85.9061 6.18594 83.7195 6.875 85.3977C6.76016 85.3267 4.53984 84.4958 4.29375 84.4302C3.91094 84.3263 3.6375 84.862 3.59375 84.8511C3.41875 84.8128 3.22187 84.8894 3.04688 84.8511C2.13906 82.1999 -1.85859 81.4728 -4.0625 81.0246C-4.37969 80.959 -4.80078 81.0574 -5.15625 81.0246C-5.19453 81.0246 -5.06875 80.4779 -5.70312 80.4779C-5.88359 80.4779 -6.06953 80.4779 -6.25 80.4779L-10.0781 81.0246C-10.2641 80.877 -10.3953 80.5982 -10.625 80.4779C-12.9164 79.2972 -13.1188 80.959 -13.3594 81.0246C-13.5344 81.0738 -13.7531 80.9699 -13.9062 81.0246C-13.9828 80.7567 -14.1633 80.5107 -14.4531 80.4779C-14.6336 80.4615 -14.8195 80.4943 -15 80.4779L-15.5469 81.0246C-15.9023 80.9098 -16.318 80.5326 -16.6406 80.4779C-16.8156 80.4506 -17.007 80.4889 -17.1875 80.4779C-17.368 80.467 -17.5539 80.4779 -17.7344 80.4779C-18.5492 80.4943 -19.3695 80.4451 -20.1898 80.4779L-20.4688 81.0191C-20.6547 80.9973 -20.8516 81.0574 -21.0156 81.0191C-21.0977 80.9973 -21.1469 80.631 -21.2891 80.4834L-21.5625 81.0191C-21.9234 81.0027 -22.2953 81.0465 -22.6562 81.0191C-22.8367 81.0082 -23.0227 81.0246 -23.2031 81.0191C-23.7391 80.9973 -24.3133 80.9754 -24.8438 81.0191C-24.9094 80.7567 -25.1336 80.5107 -25.3906 80.4725V79.9258C-22.1531 79.8274 -18.5656 79.4448 -15.5469 79.3792C-15.1805 79.3737 -14.8195 79.3847 -14.4531 79.3792V79.3847Z" fill="#38393C"/>
<path d="M15.6251 34.013C15.0454 34.8002 13.7055 35.9317 13.4376 36.7462C13.3884 36.8884 13.4649 37.1016 13.4376 37.2929C13.2352 37.4514 13.0876 37.6865 12.8907 37.8395C12.3274 38.2823 12.2345 38.4026 11.797 38.9328C11.7095 39.0421 11.8845 39.3592 11.797 39.4795C11.4524 39.709 11.4524 39.5943 11.2501 40.0261L10.7032 39.4795C10.7415 39.3045 10.654 39.0968 10.7032 38.9328L11.2501 38.3862C12.661 35.9372 14.4766 33.5484 16.172 31.2798C15.9313 32.1763 15.6579 33.0673 15.6251 34.013Z" fill="#5F2D0E"/>
<path d="M16.1719 31.2798C14.4766 33.5484 12.6609 35.9373 11.25 38.3862C11.2117 38.4518 10.8398 38.4682 10.7031 38.9329C10.6539 39.0969 10.7414 39.3046 10.7031 39.4795L9.0625 40.5728C10.5664 37.6865 12.7758 34.6362 14.5313 31.8265C14.925 31.1978 16.3742 30.5801 16.1719 29.0933H16.7188C16.8719 29.9406 16.3523 30.602 16.1719 31.2798Z" fill="#683615"/>
<path d="M0.859375 89.2244C1.20391 89.279 1.59766 89.1861 1.95312 89.2244C1.95312 89.4048 1.95312 89.5906 1.95312 89.771C0.296094 89.4594 1.04531 91.411 0.3125 92.5043C0.257812 92.4059 -1.20234 90.9627 -1.32812 90.8643C-1.49219 90.7331 -1.57969 90.4598 -1.875 90.3177C-2.00625 90.2575 -2.23594 90.3614 -2.42188 90.3177C-1.29531 88.7871 -0.65 88.9893 0.859375 89.2244Z" fill="#976730"/>
<path d="M-0.781147 88.1311C-0.0538032 88.1202 0.679009 88.142 1.40635 88.1311V88.6777L0.859478 89.2244C-0.649897 88.9893 -1.29521 88.7871 -2.42177 90.3177C-2.58037 90.2794 -2.78271 90.3341 -2.96865 90.3177L-3.521 89.2298L-1.86942 89.2189L-2.42177 88.1311C-1.8749 88.1202 -1.32802 88.142 -0.781147 88.1311Z" fill="#724F2C"/>
<path d="M1.95312 89.2241C1.59766 89.1859 1.20391 89.2788 0.859375 89.2241L1.40625 88.6775C1.84375 88.6283 1.95312 88.8032 1.95312 89.2241Z" fill="#724B23"/>
<path d="M0.859375 46.5857C0.935937 46.7279 0.788281 46.9848 0.859375 47.1324C0.985156 47.3893 1.35156 47.5478 1.40625 47.679C1.47734 47.7829 1.3625 48.0453 1.40625 48.2257C1.28594 48.1054 0.848437 48.3077 0.859375 48.499C0.897656 49.0948 1.66328 48.4826 1.40625 48.2257H1.95312C2.01328 48.3897 1.89297 48.6138 1.95312 48.7723C2.0625 49.062 2.48906 49.2588 2.5 49.319C2.53828 49.4939 2.46719 49.6907 2.5 49.8656C2.56562 50.1991 2.45078 50.6145 2.5 50.9589C2.54922 51.3033 2.46172 51.6969 2.5 52.0522H1.95312C1.92578 51.8773 1.98047 51.6859 1.95312 51.5055C1.60312 48.9855 0.175776 49.8547 0.307026 47.679C-0.382037 47.4932 -0.879688 48.0999 -1.32812 48.2257C-0.595313 47.2526 -1.19688 46.0883 -1.32812 44.9458L0.859375 46.5857Z" fill="#354966"/>
<path d="M1.95325 46.5857C2.14466 46.9465 2.29779 47.3291 2.50013 47.679C2.63685 47.9141 2.96497 48.0726 3.047 48.2256C3.12357 48.3678 2.97044 48.6302 3.047 48.7723C3.21107 49.0729 3.54466 49.226 3.59388 49.3189C3.67044 49.4611 3.51732 49.7234 3.59388 49.8656C3.69779 50.0678 4.03138 50.2209 4.14075 50.4122C4.30482 50.7019 4.23919 51.2595 4.68763 51.5055C4.68763 51.6859 4.68216 51.8718 4.68763 52.0522C4.6931 52.2325 4.68763 52.4184 4.68763 52.5988H4.14075C3.84544 51.6804 3.22747 50.527 2.50013 49.8656C2.46732 49.6907 2.53841 49.4939 2.50013 49.3189L1.95325 48.7723C1.8931 48.6138 2.01341 48.3896 1.95325 48.2256C1.87669 48.0125 1.47747 47.843 1.40638 47.679C1.26419 47.4713 1.03997 47.3073 0.859504 47.1324C0.78841 46.9848 0.936067 46.7278 0.859504 46.5857C0.782942 46.4436 0.936067 46.1812 0.859504 46.0391C1.23685 46.1812 1.57591 46.4545 1.95325 46.5857Z" fill="#765962"/>
<path d="M3.04688 77.7449V77.1982H3.59375C3.47891 77.4606 3.33672 77.6629 3.04688 77.7449Z" fill="#2F180C"/>
<path d="M0.859375 95.784C1.03984 95.7512 1.24219 95.8278 1.40625 95.784C1.43906 97.659 1.87656 100.212 3.59375 101.25C3.53906 106.837 5.11406 112.216 3.04688 117.65C2.93203 117.032 2.48359 116.797 2.5 115.463C2.51641 114.228 3.01953 113.025 3.04688 111.637C3.10703 108.543 3.10156 107.045 2.5 103.984C2.43438 103.656 2.54375 103.24 2.5 102.89L1.95313 102.344L-0.234375 95.784C0.115625 95.7403 0.525781 95.8442 0.859375 95.784Z" fill="#A1722D"/>
<path d="M3.04688 117.65C3.16719 118.295 2.96484 119.142 3.04688 119.837H2.5C2.46172 119.662 2.53828 119.465 2.5 119.29C2.36328 118.678 2.00234 118.366 1.95312 118.197C1.85469 117.847 1.46641 117.442 1.40625 117.103L1.94765 116.819C1.94765 116.365 1.98593 115.912 1.94765 115.463H2.49453C2.47812 116.797 2.92656 117.032 3.0414 117.65H3.04688Z" fill="#875B2F"/>
<path d="M4.14052 122.57C4.10224 123.291 4.20067 124.035 4.14052 124.756H3.59364L3.04677 124.21C3.03036 123.849 3.07411 123.477 3.04677 123.116C3.57724 122.969 3.56083 122.488 3.59364 122.023L4.14052 122.57Z" fill="#956733"/>
<path d="M3.59385 122.023C3.56104 122.487 3.57744 122.968 3.04698 123.116C2.99776 122.405 3.14541 121.607 3.04698 120.929L3.59385 120.383C3.68682 120.738 3.62666 121.574 3.59385 122.023Z" fill="#7F542A"/>
<path d="M3.59375 120.383L3.04688 120.93C3.03047 120.804 2.59844 120.328 2.5 119.836H3.04688C3.41328 119.847 3.51172 120.066 3.59375 120.383Z" fill="#835E3D"/>
<path d="M4.14062 126.396L3.59375 128.583C3.43516 128.911 3.50625 129.425 3.04688 129.676V128.036C3.04688 127.123 3.05234 126.216 3.04688 125.303L3.59375 124.756H4.14062C4.09687 125.298 4.19531 125.861 4.14062 126.396Z" fill="#A37942"/>
<path d="M4.14062 127.489C4.04766 128.102 3.75781 128.244 3.59375 128.583L4.14062 126.396C4.10234 126.751 4.19531 127.145 4.14062 127.489Z" fill="#AE803F"/>
<path d="M5.23438 131.316C5.3 131.639 5.19063 132.059 5.23438 132.409C4.85156 132.464 3.9875 133.399 3.04688 132.95L3.59375 130.769C4.01484 130.485 4.06406 129.545 4.41406 129.676C5.10312 130.119 5.09219 130.622 5.23438 131.316Z" fill="#C88D32"/>
<path d="M3.04688 129.676V130.769C2.83906 130.933 2.69141 131.152 2.5 131.316L1.95312 130.769C2.31406 130.048 2.56562 129.419 2.5 128.583C2.68594 128.402 2.85 128.206 3.04688 128.036V129.676Z" fill="#9E7F50"/>
<path d="M-2.42188 90.3176L-1.875 90.8643H-1.32813C-1.20234 90.9627 0.257812 92.4058 0.3125 92.5042C0.514843 92.865 0.771875 94.166 0.859375 94.6908C0.886718 94.8657 0.8375 95.057 0.859375 95.2374H-0.234375C-0.392969 95.0406 -0.5625 94.811 -0.78125 94.6908V94.1441L-0.234375 93.6029L-1.32813 93.0563L-0.239849 92.5097C-1.60704 92.2637 -2.05547 91.1321 -3.51562 90.8643V90.3176C-3.33516 90.3285 -3.14922 90.3012 -2.96875 90.3176C-2.78828 90.334 -2.58047 90.2793 -2.42188 90.3176Z" fill="#2E130A"/>
<path d="M0.859375 95.2373V95.7839C0.525781 95.8441 0.115625 95.7402 -0.234375 95.7839H-0.78125V95.2373H0.859375Z" fill="#946435"/>
<path d="M11.2501 40.0261C11.1844 40.1683 11.2993 40.4033 11.2501 40.5728C10.654 40.7696 10.4461 41.1686 10.1563 41.6661C10.0797 41.8027 10.2329 42.0706 10.1563 42.2127C10.129 42.2619 9.8063 42.404 9.60943 42.7594C9.53286 42.896 9.68599 43.1693 9.60943 43.306C9.3688 43.7269 8.8438 44.443 8.51568 44.9459C8.30786 45.0935 7.5149 45.5746 7.4274 45.4926V44.3993C7.47662 44.2408 7.37818 44.0221 7.42193 43.8527C8.43911 43.6121 8.26411 42.8742 8.51568 42.2127C8.71802 41.6825 8.75083 41.1686 9.06255 40.5728L10.7032 39.4795L11.2501 40.0261Z" fill="#66300F"/>
<path d="M7.42188 43.8528C7.37813 44.0223 7.47656 44.2409 7.42188 44.3994C7.33984 44.64 7.03906 45.121 6.875 45.4927C6.39375 46.5696 5.62266 47.641 5.23438 48.7726H4.6875C4.91172 48.0729 5.08125 47.3076 5.23438 46.586C5.3875 45.8645 5.64453 45.1374 5.78125 44.3994C6.29531 44.0059 6.92969 43.7271 7.42188 43.3062V43.8528Z" fill="#7E411F"/>
<path d="M5.78125 43.8525C5.75938 44.0329 5.81406 44.2243 5.78125 44.3992C5.64453 45.1372 5.3875 45.8533 5.23438 46.5858L4.67657 47.6736C3.9711 47.9578 3.69219 47.1652 3.59375 47.1324C4.52344 46.7716 3.94922 45.405 4.14063 44.9458C4.26641 44.6397 4.96094 44.1696 5.23438 43.8525H5.78125Z" fill="#884A18"/>
<path d="M7.42188 43.8528V43.3062C7.71719 43.0547 7.90312 42.3386 8.51562 42.2129C8.26406 42.8743 8.43906 43.6123 7.42188 43.8528Z" fill="#683415"/>
<path d="M3.59375 47.1326C3.69766 47.1654 3.9711 47.958 4.67657 47.6738L5.23437 46.5859C5.08125 47.3075 4.91172 48.0728 4.6875 48.7725C4.61094 49.013 4.075 49.3957 4.14062 49.8658H3.59375C3.51719 49.7237 3.67031 49.4613 3.59375 49.3192L3.04687 48.7725C2.97031 48.6304 3.12344 48.368 3.04687 48.2259L2.5 47.6792C2.29766 47.3294 2.14453 46.9467 1.95312 46.5859C2.48359 46.7773 3.05234 46.9522 3.59375 47.1326Z" fill="#824922"/>
<path d="M5.23428 43.8526C4.96085 44.1697 4.26631 44.6398 4.14053 44.9459C4.08585 44.2189 4.3921 43.7323 4.96632 43.3169L5.23428 43.8526Z" fill="#884A1F"/>
<path d="M-7.34375 79.3846C-7.16328 79.3956 -6.97734 79.3737 -6.79688 79.3846C-4.63672 79.5049 -1.77109 79.4393 0.3125 79.9313C0.728125 80.0297 1.49922 80.7622 1.95312 81.0246C0.842969 80.6638 -0.710156 80.6583 -1.875 80.4779C-4.04609 80.139 -6.5125 80.057 -8.4375 79.3846C-8.07109 79.3901 -7.70469 79.3682 -7.34375 79.3846Z" fill="#70706E"/>
<path d="M1.95312 75.5579C1.95859 75.7383 1.93672 75.9242 1.95312 76.1045L1.0125 77.247C0.339843 77.34 -0.130469 76.6567 -0.234375 76.6512V76.1045L0.864849 75.2846L-0.234375 74.4646C0.0445312 74.3608 0.689844 74.0765 0.859375 73.918C0.875781 74.5685 1.16016 75.5032 1.95312 75.5579Z" fill="#91994D"/>
<path d="M3.04688 77.198V77.7447H2.5C2.17734 77.444 2.02969 77.0778 1.95312 76.6514L3.04688 77.198Z" fill="#362412"/>
<path d="M4.14062 83.2109H4.6875L4.40859 83.5991C4.23906 83.5444 4.24453 83.2929 4.14062 83.2109Z" fill="#3E4142"/>
<path d="M6.32812 58.0656H5.78125C5.78125 56.4311 5.78125 54.7803 5.78125 53.1458H6.32812C6.30078 53.687 6.12578 55.3378 6.60156 55.3378L6.875 53.1458C7.42734 52.7139 7.70625 52.1345 7.96875 51.5059H8.51562C7.62969 53.441 7.49297 56.1851 6.32812 58.0656Z" fill="#843C2D"/>
<path d="M6.32817 59.1587C6.28989 59.8858 6.38286 60.6237 6.32817 61.3453L4.68755 61.8919C4.71489 61.5312 4.65474 61.1594 4.68755 60.7987C4.73677 60.2793 4.57817 59.5742 4.68755 59.1587C4.71489 59.0549 5.09771 58.8362 5.23442 58.6121C5.33833 58.4481 5.68286 58.3114 5.7813 58.0654H6.32817V59.1587Z" fill="#7A3731"/>
<path d="M11.7969 41.1196C10.8945 43.6725 9.85547 46.187 9.0625 48.7727C8.70156 49.2537 8.22031 49.8933 7.96875 50.4126H6.32812L6.86953 50.1283C6.96796 49.702 6.77656 49.128 6.86953 48.7727C6.91328 48.6032 6.83124 48.4009 6.86953 48.226C6.88593 48.1659 7.31249 48.0511 7.4164 47.1327C7.43828 46.9578 7.42734 46.761 7.4164 46.5861C7.40546 46.3948 7.46562 46.1652 7.4164 46.0394C7.97968 45.8317 8.20937 45.4108 8.51015 44.9461C9.18281 44.4815 9.63124 44.3175 9.6039 43.3062C9.68046 43.1695 9.52734 42.8962 9.6039 42.7596L10.1508 42.2129C10.2273 42.0708 10.0742 41.8029 10.1508 41.6663L11.2445 41.1196H11.7914H11.7969Z" fill="#8D4632"/>
<path d="M7.96885 50.4126C7.85401 50.6477 8.07823 51.238 7.96885 51.5059C7.70635 52.1345 7.42745 52.714 6.8751 53.1458L6.60167 51.5004C6.09854 51.5004 6.35557 52.632 6.32823 53.1458H5.78135C5.78135 52.5992 5.80323 52.0525 5.78135 51.5059C5.77588 51.3255 5.79229 51.1396 5.78135 50.9592C5.77042 50.7788 5.80323 50.593 5.78135 50.4126H7.96885Z" fill="#8A4031"/>
<path d="M12.3438 40.026C12.2016 40.4032 11.9282 40.7421 11.797 41.1193H11.2501V40.5727C11.2993 40.4032 11.1845 40.1682 11.2501 40.026C11.529 39.9331 11.6384 39.6926 11.797 39.4794C11.9009 39.4083 12.1634 39.5231 12.3438 39.4794V40.026Z" fill="#8C573E"/>
<path d="M12.8906 38.3865L11.7969 38.9331C12.2344 38.4029 12.3273 38.2826 12.8906 37.8398V38.3865Z" fill="#683615"/>
<path d="M5.23442 65.7185C4.79146 67.4459 4.07505 70.9499 3.5938 72.2782C3.48989 72.5625 2.76255 73.0654 2.50005 73.3715H1.95317C1.99146 73.1966 1.90942 72.9943 1.95317 72.8249C2.61489 70.2666 4.25552 68.0909 4.68755 64.6252C4.8188 64.5815 5.04302 64.6307 5.23442 64.6252C5.16333 64.9532 5.31646 65.4069 5.23442 65.7185Z" fill="#511C0A"/>
<path d="M6.32802 65.1718C6.31161 65.3522 6.34443 65.5381 6.32802 65.7185H5.23427C5.3163 65.4069 5.16318 64.9532 5.23427 64.6252C5.46943 64.6143 6.00536 65.0734 6.32802 65.1718Z" fill="#3A1C04"/>
<path d="M2.49994 75.0115H1.95307C1.98041 74.4922 1.85463 73.8034 1.95307 73.3716H2.49994C2.41791 73.8745 2.62026 74.5851 2.49994 75.0115Z" fill="#612B1C"/>
<path d="M3.59382 72.2782C3.85085 72.0213 4.46335 72.7866 3.86725 72.8249C3.67585 72.8358 3.4735 72.3985 3.59382 72.2782Z" fill="#47230F"/>
<path d="M1.95309 75.5579C1.94762 75.3775 1.94215 75.1916 1.95309 75.0112H2.49997C2.40153 75.3556 2.5109 75.5961 1.95309 75.5579Z" fill="#47230F"/>
<path d="M6.32813 62.9851C6.31172 63.1655 6.34453 63.3514 6.32813 63.5318L5.23438 64.0784C5.3875 63.2748 5.39844 62.7063 6.32813 62.4385C6.31172 62.6189 6.34453 62.8047 6.32813 62.9851Z" fill="#4D200F"/>
<path d="M6.32802 65.1717C6.00536 65.0733 5.46942 64.6141 5.23427 64.625C5.27255 64.4501 5.20145 64.2533 5.23427 64.0784L6.32802 63.5317C6.28427 64.0729 6.37177 64.6305 6.32802 65.1717Z" fill="#401D06"/>
<path d="M-4.06259 81.0244C-1.85868 81.4727 2.13898 82.1997 3.04679 84.8509C0.946789 84.3644 0.115537 83.4297 -1.15868 82.7682C-2.9579 81.8334 -5.45165 83.8506 -4.06259 81.0244Z" fill="#302F35"/>
<path d="M11.25 40.0261C11.4523 39.5943 11.4523 39.7091 11.7969 39.4795C11.6383 39.6927 11.5289 39.9332 11.25 40.0261Z" fill="#7C4029"/>
<path d="M10.7031 38.9329C10.8398 38.4682 11.2117 38.4518 11.25 38.3862L10.7031 38.9329Z" fill="#66300F"/>
<path d="M-1.32812 50.9591C-0.475 50.9755 0.957813 51.5659 1.95313 51.5058C1.98047 51.6862 1.92578 51.8775 1.95313 52.0524C2.19375 53.501 2.4125 55.4963 2.5 56.9722C1.40078 58.4427 2.58203 60.5965 0.312501 61.3454C-0.190625 59.2517 -2.08827 59.6453 -3.28593 59.2025C-3.83281 59.0003 -4.46172 58.1038 -4.60938 58.0655L-4.15548 57.7047C-4.71329 56.1796 -4.21016 55.376 -4.0625 54.239C-3.94766 53.3644 -3.63594 52.4897 -3.51562 51.5058C-3.16016 51.3746 -2.76094 51.0247 -2.42187 50.9591C-2.12109 50.899 -1.67266 50.9537 -1.32812 50.9591Z" fill="#2B3C58"/>
<path d="M4.14061 53.6921C4.18983 53.9272 4.87343 54.4683 4.70937 55.015L4.69296 58.3386L5.23436 58.6174C5.09765 58.8415 4.71483 59.0602 4.68749 59.164L4.13514 58.0762H3.59921L3.04686 59.7107C3.00311 56.8791 2.81718 54.8291 2.49999 52.0576C2.46171 51.7023 2.54921 51.3142 2.49999 50.9644L4.14061 53.6976V53.6921Z" fill="#2B3C58"/>
<path d="M-1.32812 48.2258C-0.874219 48.1001 -0.382036 47.4933 0.307026 47.6791C0.175776 49.8548 1.60313 48.9856 1.95313 51.5057C0.957813 51.5658 -0.475 50.9754 -1.32812 50.959L-0.85782 49.3901C-1.18595 49.2917 -1.53594 49.2863 -1.875 49.3191V48.2258C-1.72187 48.1711 -1.50312 48.275 -1.32812 48.2258Z" fill="#31445F"/>
<path d="M3.04688 59.7053C3.06875 60.9954 3.17812 62.2089 3.04688 63.5318C1.95312 61.8645 2.62578 59.0766 2.5 56.972C2.4125 55.4961 2.19375 53.5009 1.95312 52.0522H2.5C2.81719 54.8237 3.00313 56.8737 3.04688 59.7053Z" fill="#2B3C58"/>
<path d="M4.14058 52.5989C4.23355 52.8777 4.06949 53.3588 4.14058 53.6922L2.49996 50.959C2.45074 50.6146 2.56558 50.1992 2.49996 49.8657C3.2273 50.5272 3.84527 51.6806 4.14058 52.5989Z" fill="#605560"/>
<path d="M2.5 49.3191C2.48906 49.259 2.0625 49.0622 1.95312 48.7725L2.5 49.3191Z" fill="#605560"/>
<path d="M1.40621 48.2256C1.66324 48.4826 0.897614 49.0948 0.859332 48.499C0.848395 48.3076 1.28589 48.1054 1.40621 48.2256Z" fill="#314B69"/>
<path d="M1.95313 48.2258H1.40625C1.3625 48.0455 1.47735 47.7831 1.40625 47.6792C1.47735 47.8432 1.87656 48.0127 1.95313 48.2258Z" fill="#605560"/>
<path d="M1.40625 47.6795C1.35156 47.5483 0.985156 47.3897 0.859375 47.1328C1.03984 47.3077 1.26406 47.4717 1.40625 47.6795Z" fill="#695C5B"/>
<path d="M5.78125 53.1458C5.78125 54.7803 5.78125 56.4311 5.78125 58.0656C5.68281 58.3116 5.33828 58.4482 5.23438 58.6122C5.90156 57.7649 4.71484 53.5722 4.6875 52.5991C4.6875 52.4188 4.69297 52.2329 4.6875 52.0525L5.23438 51.5059H5.78125C5.80313 52.0525 5.78125 52.5991 5.78125 53.1458Z" fill="#814537"/>
<path d="M5.23425 58.6123L4.69285 58.3335L4.70926 55.0099C4.86785 54.4633 4.18972 53.9221 4.1405 53.687C4.06941 53.3536 4.23347 52.8725 4.1405 52.5938H4.68738C4.71472 53.5668 5.90144 57.7595 5.23425 58.6068V58.6123Z" fill="#7B5E6C"/>
<path d="M5.23431 48.7725C4.93353 49.6416 4.79681 49.9751 4.68744 50.959C4.66556 51.134 4.68744 51.3253 4.68744 51.5057C4.239 51.2597 4.30463 50.7021 4.14057 50.4124V49.8658C4.07494 49.3956 4.61088 49.013 4.68744 48.7725H5.23431Z" fill="#753F1D"/>
<path d="M5.23433 51.5056L4.68746 52.0523C4.68199 51.8719 4.68746 51.686 4.68746 51.5056C4.68746 51.3252 4.66558 51.1339 4.68746 50.959H5.23433V51.5056Z" fill="#612A19"/>
<path d="M4.14062 50.4124C4.03125 50.221 3.69766 50.068 3.59375 49.8657H4.14062V50.4124Z" fill="#695C5B"/>
<path d="M3.59375 49.3191C3.54453 49.2262 3.21094 49.0731 3.04688 48.7725L3.59375 49.3191Z" fill="#695C5B"/>
<path d="M3.04688 48.2258C2.96484 48.0728 2.63672 47.9143 2.5 47.6792L3.04688 48.2258Z" fill="#695C5B"/>
<path d="M1.95315 102.344L2.50002 102.89C2.54377 103.24 2.4344 103.656 2.50002 103.984C1.3133 104.973 1.9094 106.241 1.95315 107.264C-0.518729 107.575 0.662515 102.798 0.307047 102.349C-0.917953 101.507 -0.874198 104.629 -1.87498 103.437C-2.30701 102.923 -1.44842 101.726 -1.33358 101.256C-0.907016 99.5614 -0.868735 98.2003 -0.786703 96.3362C-0.781235 96.1558 -0.792172 95.9699 -0.786703 95.7896H-0.239828L1.94767 102.349L1.95315 102.344Z" fill="#9E6A28"/>
<path d="M3.04697 111.636C1.24228 111.8 0.148529 110.68 0.312591 108.903C0.378216 108.892 0.465724 108.269 0.815724 108.362L1.67978 109.986C2.8829 109.253 2.00244 108.488 1.95322 107.263C1.90947 106.241 1.31337 104.973 2.50009 103.983C3.10165 107.045 3.10712 108.542 3.04697 111.636Z" fill="#A16C29"/>
<path d="M0.3125 108.903C0.148437 110.68 1.24219 111.801 3.04688 111.637C3.01953 113.025 2.51641 114.228 2.5 115.463H1.95312C1.85469 114.064 1.13828 113.922 0.859375 113.277C0.214063 111.784 0.0992187 110.675 -1.32812 109.45L-0.78125 108.903C-0.425781 108.871 -0.0375 108.953 0.3125 108.903Z" fill="#9E6B2B"/>
<path d="M-0.234501 116.01C0.175655 116.163 0.711593 117.158 1.40612 117.103C1.46628 117.442 1.85456 117.847 1.953 118.196V118.743C1.63034 118.639 1.39519 119.06 1.40612 119.29L-0.775902 118.749V117.098H-4.6095C-4.57669 116.781 -5.47903 115.638 -4.6095 114.911C-3.297 115.179 -1.44309 115.551 -0.234501 116.004V116.01Z" fill="#BAB4B3"/>
<path d="M2.5 119.29C2.53828 119.465 2.46172 119.662 2.5 119.837C2.59844 120.329 3.03047 120.804 3.04688 120.93C3.14531 121.608 2.99766 122.406 3.04688 123.116C3.07422 123.477 3.03047 123.849 3.04688 124.21C3.06328 124.57 3.04688 124.937 3.04688 125.303C3.05234 126.216 3.04688 127.123 3.04688 128.036C2.85 128.206 2.68594 128.402 2.5 128.583C2.14453 128.933 1.69062 129.283 1.40625 129.676H0.859375C0.536719 129.173 0.465625 128.594 0.3125 128.036C0.503906 127.905 1.91484 126.659 1.93672 126.549C2.46172 124.089 1.53203 121.498 1.40625 119.29C1.39531 119.06 1.63047 118.639 1.95312 118.743L2.5 119.29Z" fill="#BEB9B4"/>
<path d="M1.40615 117.103C1.3624 116.852 1.34599 116.218 1.40615 116.01C1.49912 115.677 1.55927 115.485 1.95302 115.463C1.98584 115.912 1.95302 116.371 1.95302 116.819L1.41162 117.103H1.40615Z" fill="#663F20"/>
<path d="M2.5 119.29L1.95312 118.743V118.196C2.00234 118.366 2.36328 118.677 2.5 119.29Z" fill="#835E3D"/>
<path d="M3.59375 124.756L3.04688 125.303C3.04688 124.937 3.06328 124.57 3.04688 124.209L3.59375 124.756Z" fill="#AE803F"/>
<path d="M1.95312 130.769C1.73437 131.201 0.925 131.693 0.859375 132.409C-0.469531 133.519 -1.30078 133.819 -2.96875 134.049L-1.875 132.956C-1.7 132.912 -1.48672 133.005 -1.32812 132.956C0.4 132.414 0.728125 130.616 1.40625 129.676C1.69062 129.282 2.14453 128.932 2.5 128.583C2.56562 129.419 2.31406 130.048 1.95312 130.769Z" fill="#C4B0A1"/>
<path d="M8.51562 44.9461C8.84375 44.4432 9.36875 43.7271 9.60938 43.3062C9.63672 44.3174 9.18828 44.4814 8.51562 44.9461Z" fill="#89422C"/>
<path d="M7.42187 44.3994V45.4927C7.51484 45.5802 8.30781 45.0937 8.51562 44.9461C8.21484 45.4107 7.98516 45.8316 7.42187 46.0393C7.31797 45.766 7.44375 45.4216 6.875 45.4927C7.03906 45.121 7.33984 44.6399 7.42187 44.3994Z" fill="#683415"/>
<path d="M9.60938 42.7595C9.80625 42.4042 10.1289 42.2621 10.1562 42.2129L9.60938 42.7595Z" fill="#7C4029"/>
<path d="M11.25 41.1194L10.1562 41.666C10.4461 41.1686 10.6539 40.7695 11.25 40.5728V41.1194Z" fill="#7C4029"/>
<path d="M7.42188 46.586C7.43281 46.7609 7.44375 46.9577 7.42188 47.1326L6.875 48.2259C6.83672 48.4008 6.91875 48.6031 6.875 48.7725L6.32812 49.8658H5.78125C5.67734 49.4449 5.92344 48.8709 5.23438 48.7725C5.62266 47.641 6.39375 46.5696 6.875 45.4927L7.42188 46.586Z" fill="#6E3217"/>
<path d="M-5.15625 74.4646C-4.60937 74.4755 -4.0625 74.4536 -3.51562 74.4646C-3.42812 74.4646 -2.93594 74.9948 -2.42187 75.0112C-1.45391 75.044 -1.03828 74.7707 -0.234374 74.4646L0.86485 75.2845L-0.234374 76.1045C-0.578906 76.0499 -1.04375 76.192 -1.32812 76.1045C-1.84766 75.9515 -2.00078 75.6672 -2.96875 75.5579C-3.32422 75.5196 -3.70156 75.5797 -4.0625 75.5579L-4.39063 75.0495L-5.15625 75.5579C-5.33672 75.5524 -5.52266 75.5633 -5.70312 75.5579C-5.76875 75.3064 -5.99844 75.044 -6.25 75.0112V74.4646C-5.88906 74.4864 -5.51719 74.4591 -5.15625 74.4646Z" fill="#A0A748"/>
<path d="M1.95312 73.3714C1.85469 73.8032 1.98047 74.492 1.95312 75.0113C1.94219 75.1917 1.94766 75.3775 1.95312 75.5579C1.16016 75.5033 0.875781 74.5685 0.859375 73.918C1.03437 73.754 1.32422 73.6665 1.40625 73.3714V72.8247H1.95312C1.90937 72.9942 1.99141 73.1964 1.95312 73.3714Z" fill="#A48F5E"/>
<path d="M6.87491 53.1459L6.60147 55.3379C6.12569 55.3379 6.30069 53.6816 6.32804 53.1459C6.35538 52.6102 6.09835 51.5005 6.60147 51.5005L6.87491 53.1459Z" fill="#8B3F2A"/>
<path d="M4.68753 59.1586C4.57815 59.5741 4.73675 60.2792 4.68753 60.7986C3.50628 61.7989 3.818 63.3623 3.59378 64.6251H3.0469C3.07972 64.4501 3.01956 64.2588 3.0469 64.0784C3.07425 63.898 3.0305 63.7122 3.0469 63.5318C3.17815 62.2089 3.06878 60.9954 3.0469 59.7053L3.59925 58.0708H4.13518L4.68753 59.1586Z" fill="#2B3C58"/>
<path d="M6.32808 62.4385C5.3984 62.7064 5.38746 63.2749 5.23433 64.0784C5.20152 64.2534 5.27262 64.4502 5.23433 64.6251C5.04293 64.6306 4.81871 64.5814 4.68746 64.6251C4.75308 64.0948 4.6273 63.5209 4.68746 62.9851C4.72574 62.6298 4.66012 62.2526 4.68746 61.8919L6.32808 61.3452C6.30074 61.706 6.35543 62.0777 6.32808 62.4385Z" fill="#612818"/>
<path d="M4.6875 61.8921C4.66016 62.2529 4.72578 62.6301 4.6875 62.9854L3.59375 64.6253C3.81797 63.3626 3.50625 61.7992 4.6875 60.7988C4.65469 61.1596 4.71484 61.5313 4.6875 61.8921Z" fill="#784444"/>
<path d="M6.32812 50.4124V49.8658L6.875 48.7725C6.77656 49.1332 6.96797 49.7018 6.875 50.1281L6.3336 50.4124H6.32812Z" fill="#854538"/>
<path d="M7.42188 46.0395C7.47109 46.1652 7.41094 46.3948 7.42188 46.5861L6.875 45.4928C7.44375 45.4218 7.31797 45.7662 7.42188 46.0395Z" fill="#632A10"/>
<path d="M6.875 48.2261L7.42188 47.1328C7.31797 48.0512 6.89141 48.166 6.875 48.2261Z" fill="#863E2A"/>
<path d="M5.78125 49.8658C5.81953 50.0243 5.75937 50.2265 5.78125 50.4124C5.80312 50.5983 5.77031 50.7786 5.78125 50.959H4.6875C4.79687 49.9751 4.93359 49.6416 5.23437 48.7725C5.92344 48.8709 5.67734 49.4448 5.78125 49.8658Z" fill="#6E300D"/>
<path d="M5.78125 51.5056H5.23438V50.959H5.78125C5.79219 51.1394 5.77578 51.3252 5.78125 51.5056Z" fill="#863E2A"/>
<path d="M6.32818 50.4124H5.78131C5.75943 50.2265 5.81959 50.0242 5.78131 49.8657H6.32818V50.4124Z" fill="#863E2A"/>
<path d="M1.95312 72.8247H1.40625C1.43906 70.8349 2.56016 69.2168 3.04687 67.3582L3.59375 66.2649C3.6375 66.0955 3.55547 65.8932 3.59375 65.7183C3.91094 65.4286 4.32656 64.7453 4.6875 64.625C4.25547 68.0907 2.61484 70.2664 1.95312 72.8247Z" fill="#612B1C"/>
<path d="M-5.70312 57.519C-5.93828 59.4706 -4.87187 57.9946 -4.60938 58.0657C-4.46172 58.104 -3.83281 59.0005 -3.28593 59.2027C-2.08827 59.6455 -0.190625 59.2519 0.3125 61.3456C0.460156 61.9687 0.383594 63.8601 0.3125 64.6254C0.126562 66.6589 -1.02187 67.8452 -1.32812 69.5452C-1.37187 69.8022 -1.6125 70.0317 -1.875 70.0919C-2.05 70.0755 -2.24688 70.0864 -2.42188 70.0919C-2.59687 70.0973 -2.78828 70.0864 -2.96875 70.0919C-4.12266 69.4523 -3.46641 68.0201 -3.51562 67.9053C-1.86406 66.7136 -0.770319 64.7238 -3.50469 65.1502L-4.06797 62.171L-2.97422 62.4443L-3.5211 59.7111L-4.06797 61.351C-4.20469 61.5642 -4.86094 60.8372 -5.15625 60.7989L-6.25 58.0657V57.519H-5.70312Z" fill="#293954"/>
<path d="M3.04688 63.5319C3.03047 63.7123 3.07422 63.8982 3.04688 64.0786C2.40703 64.6635 2.25938 65.5053 1.95313 66.2651C1.29688 65.478 1.625 64.2644 0.3125 64.6252C0.383594 63.8599 0.460156 61.9685 0.3125 61.3453C2.58203 60.5964 1.40078 58.4426 2.5 56.9722C2.62578 59.0768 1.95313 61.8646 3.04688 63.5319Z" fill="#2D3E57"/>
<path d="M-1.32823 101.25C-1.44854 101.726 -2.30166 102.918 -1.86963 103.431C-0.868848 104.623 -0.912603 101.502 0.312397 102.344C0.667866 102.797 -0.513379 107.57 1.9585 107.258C2.00771 108.482 2.88818 109.253 1.68506 109.98L0.820987 108.357C0.470987 108.269 0.383496 108.887 0.317871 108.898C-0.0321289 108.947 -0.42041 108.865 -0.775879 108.898L-0.857924 106.804C-0.994642 106.602 -2.65713 106.11 -2.96338 106.165V105.618C-2.73916 105.755 -1.36651 105.602 -0.781353 106.165V105.077C-2.32354 105.394 -1.26807 103.989 -1.82041 103.688C-3.61963 103.12 -3.92041 104.148 -4.05713 102.338L-3.22588 100.671L-1.32275 101.245L-1.32823 101.25Z" fill="#9C6725"/>
<path d="M0.3125 113.277H0.859375C1.13828 113.922 1.85469 114.064 1.95312 115.463C1.55937 115.485 1.49922 115.677 1.40625 116.01C0.367188 115.556 0.274219 114.272 -0.78125 113.823V113.277C-0.682812 113.337 -0.43125 113.249 -0.234375 113.277C-0.0539062 113.304 0.132031 113.255 0.3125 113.277Z" fill="#784D2C"/>
<path d="M0.859375 113.277H0.3125L-1.32812 109.45C0.0992187 110.675 0.214063 111.784 0.859375 113.277Z" fill="#825122"/>
<path d="M-4.60945 117.103H-0.786798L-0.781324 118.748L1.4007 119.29C1.52648 121.498 2.45617 124.089 1.93117 126.549C1.9093 126.658 0.498358 127.905 0.306952 128.036C-0.431329 125.379 -0.759443 121.924 -0.24538 119.29L-3.00163 119.536C-3.67429 120.06 -3.45555 120.782 -3.52117 121.476C-3.66883 121.405 -3.90945 121.542 -4.06805 121.476C-4.00789 121.247 -4.03524 120.667 -4.06805 120.383C-4.23211 118.978 -4.81727 118.907 -5.1618 118.196C-5.13992 118.016 -5.1782 117.83 -5.1618 117.65C-4.97039 117.502 -4.65867 117.48 -4.61492 117.103H-4.60945Z" fill="#BFB8B7"/>
<path d="M-0.78125 113.823C0.274218 114.271 0.367187 115.556 1.40625 116.01C1.34609 116.217 1.3625 116.852 1.40625 117.103C0.711718 117.158 0.175781 116.163 -0.234375 116.01C-0.507813 114.96 -1.02734 114.435 -1.875 113.823C-1.53047 113.883 -1.00547 113.725 -0.78125 113.823Z" fill="#B5ACAA"/>
<path d="M0.859272 129.676H1.40615C0.728022 130.616 0.399897 132.415 -1.32823 132.956C-1.5251 131.66 -1.06573 130.633 -0.234478 129.676C0.0389591 129.769 0.520209 129.616 0.859272 129.676Z" fill="#C7B8AF"/>
<path d="M0.3125 128.036C0.465625 128.594 0.536719 129.173 0.859375 129.676C0.520312 129.616 0.0390625 129.769 -0.234375 129.676C-0.78125 129.496 -1.13125 129.118 -1.32812 128.583C-0.458594 127.839 0.142969 128.151 0.3125 128.036Z" fill="#C2BAB3"/>
<path d="M-0.234375 72.8248C0.00625026 72.8631 0.739063 73.6557 1.40625 73.3715C1.32422 73.6667 1.03438 73.7541 0.859375 73.9181C0.684375 74.0821 0.0445315 74.3609 -0.234375 74.4648C-1.03828 74.7709 -1.45391 75.0442 -2.42188 75.0114L-1.89141 74.1914L-2.42188 73.9181C-2.14297 73.7049 -2.06641 73.0162 -1.32812 72.8248C-1.10391 72.7647 -0.502344 72.7811 -0.234375 72.8248Z" fill="#A2AD41"/>
<path d="M1.40625 72.8249V73.3716C0.739062 73.6558 0.00624997 72.8632 -0.234375 72.8249V72.2783C-0.0539063 72.2947 0.1375 72.2509 0.3125 72.2783C0.4875 72.3056 0.979687 72.8796 1.40625 72.8249Z" fill="#9EA562"/>
<path d="M3.59375 65.7183C3.55547 65.8932 3.6375 66.0955 3.59375 66.2649C3.57734 66.3251 3.22734 66.6695 3.04688 67.3582C2.56016 69.2168 1.43906 70.8349 1.40625 72.8247C0.979688 72.8793 0.492969 72.3054 0.3125 72.278C0.575 72.2124 0.815625 71.9883 0.859375 71.7314C0.941406 71.2394 0.728125 70.4522 0.859375 70.0914C1.49375 68.3477 2.60937 66.9646 3.04688 64.625H3.59375C3.53359 64.9694 3.66484 65.3958 3.59375 65.7183Z" fill="#5F4545"/>
<path d="M3.04688 64.6253C2.60937 66.9649 1.49375 68.3479 0.859375 70.0917H0.3125C0.985156 68.8672 1.43359 67.5553 1.95312 66.2652C2.25938 65.5054 2.40703 64.6635 3.04688 64.0786C3.01953 64.259 3.07969 64.4503 3.04688 64.6253Z" fill="#404455"/>
<path d="M4.68742 64.6253C4.32648 64.7455 3.91086 65.4289 3.59367 65.7186C3.66476 65.3961 3.53351 64.9697 3.59367 64.6253L4.68742 62.9854C4.62726 63.5211 4.75305 64.095 4.68742 64.6253Z" fill="#723A34"/>
<path d="M3.04688 67.3584C3.22734 66.6697 3.57734 66.3253 3.59375 66.2651L3.04688 67.3584Z" fill="#723A34"/>
<path d="M0.3125 64.625C1.625 64.2642 1.29687 65.4777 1.95312 66.2649C1.43359 67.555 0.985156 68.8669 0.3125 70.0914C0.175781 70.3429 0.0882811 70.5834 -0.234375 70.6381V68.9981L-1.32812 69.5448C-1.02188 67.8447 0.126562 66.6585 0.3125 64.625Z" fill="#2D3E52"/>
<path d="M-2.42179 108.903C-2.11007 109.034 -1.54132 109.264 -1.32804 109.45L0.312585 113.276C0.132117 113.255 -0.053821 113.304 -0.23429 113.276L-0.781165 112.73C-0.792102 112.544 -0.742883 112.331 -0.781165 112.183C-0.939758 111.576 -0.988977 111.554 -1.32804 111.09C-1.77648 110.483 -1.82023 110.445 -2.42179 109.997C-2.64054 109.838 -3.82726 110.412 -3.51554 108.903C-3.44445 108.931 -3.98585 108.247 -2.42179 108.903Z" fill="#724415"/>
<path d="M-3.51562 121.476C-3.45 120.782 -3.66874 120.06 -2.99609 119.536L-0.239849 119.29C-0.753912 121.924 -0.425781 125.379 0.3125 128.036C0.142969 128.151 -0.458594 127.839 -1.32812 128.583C-1.57422 128.79 -1.90234 130.534 -3.51562 130.769C-3.55391 130.304 -3.52656 129.834 -4.0625 129.676C-3.88203 129.299 -3.73438 129.31 -3.51562 129.129C-3.39531 129.031 -2.78828 129.446 -2.40547 128.768C-1.82578 127.746 -1.74375 124.395 -1.875 123.116C-2.02813 121.596 -2.19766 122.11 -3.51562 121.476Z" fill="#C3BDBC"/>
<path d="M-0.234375 71.1849C0.0664066 71.2177 0.509375 71.6222 0.859375 71.7315C0.815625 71.9885 0.575 72.2126 0.3125 72.2782C0.1375 72.2508 -0.0539059 72.2946 -0.234375 72.2782C-0.316406 71.6113 -0.890625 71.819 -1.32812 71.7315C-1.65625 71.6659 -2.07734 71.7862 -2.42187 71.7315C-2.59687 71.7042 -2.78828 71.7425 -2.96875 71.7315V71.1849C-2.78828 71.1958 -2.60234 71.1794 -2.42187 71.1849C-1.70547 71.2122 -0.939844 71.1029 -0.234375 71.1849Z" fill="#3C4945"/>
<path d="M0.859375 71.7317C0.509375 71.6224 0.0664063 71.2179 -0.234375 71.1851V70.6384C0.0882812 70.5838 0.175781 70.3433 0.3125 70.0918H0.859375C0.728125 70.4526 0.941406 71.2398 0.859375 71.7317Z" fill="#3E4750"/>
</g>
</g>
<defs>
<clipPath id="clip0_645_7951">
<rect width="135" height="130" fill="white"/>
</clipPath>
<clipPath id="clip1_645_7951">
<rect width="175" height="334" fill="white" transform="translate(-155 28)"/>
</clipPath>
</defs>
</svg>
