<svg width="135" height="130" viewBox="0 0 135 130" fill="none" xmlns="http://www.w3.org/2000/svg">
<g clip-path="url(#clip0_645_68687)">
<rect x="1.5" y="-258.5" width="402" height="387" rx="18.5" fill="#FDFFEF" stroke="black" stroke-width="3"/>
<g clip-path="url(#clip1_645_68687)">
<path d="M129.766 29.2962C129.766 29.4765 129.766 29.6624 129.766 29.8428C129.766 30.2036 129.798 30.5808 129.766 30.9361C129.372 34.9703 128.103 38.5126 127.578 42.4156C127.288 44.5803 127.075 47.8493 127.031 50.0687C127.015 50.9761 127.02 51.8945 127.031 52.8019C127.048 54.5238 127.513 55.8303 127.578 57.175C127.605 57.7217 127.545 58.2738 127.578 58.815C127.715 61.1656 127.474 63.5708 127.578 65.9214L129.213 66.468C128.114 67.124 126.96 66.1564 127.026 68.1079C125.155 66.058 125.166 52.0093 125.391 48.7075C125.834 42.1314 127.835 35.1835 129.213 28.7495H129.76V29.2962H129.766Z" fill="#EBC275"/>
<path d="M136.875 -7.87546C136.853 -7.81533 136.41 -7.706 136.328 -6.78217C136.279 -6.24099 136.372 -5.68341 136.328 -5.14224C135.12 -3.43124 135.486 -1.0096 135.234 0.870857C134.928 3.1613 134.846 4.77937 134.688 6.88395C133.96 7.26114 134.277 8.01551 134.141 8.52389C134.015 8.994 133.72 9.22906 133.594 10.1638C133.523 10.6831 133.687 11.3227 133.594 11.8038C133.49 12.2083 133.2 12.4652 133.047 13.4437C133.02 13.6186 133.063 13.8099 133.047 13.9903C132.992 14.3839 132.609 15.0454 132.5 16.1769C132.429 16.893 132.527 17.6419 132.5 18.3635H131.953C132.812 11.2188 133.38 4.05233 134.846 -3.07045C135.213 -4.85798 135.53 -8.04492 136.875 -8.96875C136.815 -8.62983 136.968 -8.14332 136.875 -7.87546Z" fill="#87542F"/>
<path d="M135.781 71.9346C135.945 71.9729 136.295 72.689 137.094 72.525C137.247 72.4922 137.334 71.1037 139.609 71.388C139.773 71.4098 140.293 71.9838 140.703 71.9346C139.303 73.1208 138.264 72.8858 137.422 74.1212C136.607 73.9517 135.738 73.2903 134.688 73.5745C134.365 73.3832 134.119 72.9732 133.594 73.0279C133.55 72.8694 133.621 72.6671 133.594 72.4812C133.566 72.2954 133.61 72.115 133.594 71.9346C134.327 71.3661 135.038 71.7487 135.781 71.9346Z" fill="#D59C3C"/>
<path d="M132.5 20.5499C132.495 20.7303 132.511 20.9161 132.5 21.0965C131.893 21.6869 131.663 22.5123 131.406 23.2831C131.357 23.4307 131.445 23.6439 131.406 23.8297C131.029 25.7758 131.166 25.6009 131.406 27.6562L130.312 23.8297C130.766 21.8563 131.723 20.2711 131.953 18.3633H132.5C132.473 19.0903 132.527 19.8228 132.5 20.5499Z" fill="#884D24"/>
<path d="M129.219 66.4679C129.355 66.3859 129.651 66.5554 129.766 66.4679V67.0146C131.231 67.6596 130.925 68.8841 130.859 70.2944C130.039 69.8025 128.82 69.1629 128.125 68.6545C127.819 68.4304 127.206 68.2992 127.031 68.1079C126.966 66.1563 128.12 67.1239 129.219 66.4679Z" fill="#E0B96A"/>
<path d="M133.594 70.8414C133.605 71.2022 133.561 71.574 133.594 71.9347C133.61 72.1151 133.566 72.3065 133.594 72.4814H133.047C132.866 71.9238 132.402 72.0058 131.953 71.9347C131.778 71.9074 131.587 71.9566 131.406 71.9347C131.609 71.5904 131.723 71.1585 131.953 70.8414C133.741 68.3378 132.648 67.7638 133.047 65.375H133.594C133.337 66.594 133.55 69.3928 133.594 70.8414Z" fill="#DFB054"/>
<path d="M130.859 70.2947C131.209 70.5024 131.598 70.6446 131.953 70.8414C131.723 71.1584 131.609 71.5903 131.406 71.9347H130.859C130.679 71.3005 130.296 71.1147 129.766 70.8414C129.634 70.7758 129.399 70.8851 129.219 70.8414L128.672 70.2947C128.448 69.759 128.174 69.2506 128.125 68.6548C128.82 69.1632 130.039 69.8027 130.859 70.2947Z" fill="#E0B16A"/>
<path d="M134.688 73.5746C135.792 74.236 136.18 74.3617 137.422 74.6679C137.586 74.7061 137.788 74.6351 137.969 74.6679V75.7611C135.989 75.5152 134.141 75.1325 133.594 73.0279C134.119 72.9733 134.365 73.3832 134.688 73.5746Z" fill="#B49042"/>
<path d="M129.766 26.563C129.465 27.7929 130.471 27.8093 131.406 28.2029C131.434 28.5637 131.39 28.9354 131.406 29.2962V29.8429H130.859V29.2962L129.766 28.7496H129.219C129.394 27.9351 129.629 27.1971 129.766 26.563Z" fill="#D49E4B"/>
<path d="M131.406 27.6561C131.428 27.8365 131.395 28.0224 131.406 28.2027C130.471 27.8092 129.465 27.7928 129.766 26.5628C129.962 25.6445 130.094 24.7917 130.312 23.8296L131.406 27.6561Z" fill="#976432"/>
<path d="M130.859 71.9346V72.4812C130.154 72.3009 129.711 71.8854 129.219 71.388L129.766 70.8413C130.296 71.1146 130.679 71.3005 130.859 71.9346Z" fill="#B09E7A"/>
<path d="M133.047 72.4812C132.686 72.4703 132.314 72.5031 131.953 72.4812V71.9346C132.402 72.0056 132.866 71.9236 133.047 72.4812Z" fill="#C3A86B"/>
<path d="M131.953 71.9343V72.4809C131.598 72.4645 131.144 72.552 130.859 72.4809V71.9343H131.406C131.587 71.9562 131.778 71.907 131.953 71.9343Z" fill="#AF965A"/>
<path d="M129.766 70.8414L129.219 71.388C129.038 71.2076 128.814 71.0655 128.672 70.8414H129.219C129.399 70.8851 129.634 70.7758 129.766 70.8414Z" fill="#A99569"/>
<path d="M129.219 70.8411H128.672C128.595 70.7208 128.743 70.4584 128.672 70.2944L129.219 70.8411Z" fill="#B89462"/>
<path d="M127.578 58.8149C127.917 60.2253 129.465 59.7224 129.766 59.9082C130.23 60.1925 130.055 63.5106 132.5 62.0948C132.177 63.2428 131.942 64.2923 131.406 65.3747C128.858 65.3255 130.023 66.2712 129.766 66.468C129.651 66.5554 129.355 66.386 129.219 66.468L127.584 65.9213C127.474 63.5708 127.715 61.1655 127.584 58.8149H127.578ZM129.76 62.0893V61.2803L128.677 60.4549V62.0893H129.76Z" fill="#F0C46A"/>
<path d="M129.766 40.229C129.525 41.9072 129.842 44.1485 128.141 44.9302C129.115 46.745 127.146 47.9531 129.766 48.4287C129.695 48.7403 129.815 49.1721 129.766 49.522C128.327 49.9866 128.207 50.3857 127.578 51.7085C127.42 51.2931 127.846 50.3201 127.031 50.0686C127.075 47.8492 127.288 44.5803 127.578 42.4156L129.766 40.229Z" fill="#EEB84D"/>
<path d="M130.859 29.2964V29.843C130.859 30.2093 130.865 30.5701 130.859 30.9363C130.843 31.7672 130.4 33.7843 130.312 34.7628C130.159 36.4465 129.995 38.6331 129.766 40.2293L127.578 42.4159C128.103 38.5128 129.372 34.9706 129.766 30.9363L130.23 30.1874L129.766 29.843C129.766 29.6626 129.766 29.4768 129.766 29.2964H130.859Z" fill="#EEBC57"/>
<path d="M127.578 54.9883C127.846 55.6662 128.426 56.1527 128.951 56.6228H129.76V55.535V54.9883C130.296 55.2234 130.652 56.4151 131.401 56.6283H131.948C131.789 56.9891 131.445 57.563 131.401 57.7216C129.826 58.0386 128.798 58.4869 127.573 57.1749C127.507 55.8302 127.042 54.5237 127.026 52.8018C127.966 53.1571 127.387 54.5128 127.573 54.9883H127.578Z" fill="#F2C15C"/>
<path d="M131.406 57.7219C131.324 58.0007 131.45 58.4599 131.406 58.8152C130.608 58.8207 130.001 59.1268 129.766 59.9085C129.465 59.7227 127.917 60.2256 127.578 58.8152C127.545 58.274 127.605 57.7219 127.578 57.1753C128.803 58.4872 129.831 58.039 131.406 57.7219Z" fill="#F2C362"/>
<path d="M127.578 51.7087C127.895 52.5287 127.72 53.5619 129.213 53.3487C129.388 52.6708 130.061 50.4405 130.433 50.1727C130.903 49.8338 131.729 50.1891 131.953 50.0743C130.75 51.5338 129.388 52.9934 129.219 54.9941C128.683 54.9285 128.12 55.0378 127.578 54.9941C127.392 54.5185 127.972 53.1628 127.031 52.8075C127.02 51.9001 127.015 50.9817 127.031 50.0743C127.846 50.3257 127.42 51.2988 127.578 51.7142V51.7087Z" fill="#F3BB52"/>
<path d="M129.766 55.535C129.432 55.6389 129.197 55.2344 129.219 54.9884C129.416 55.0102 129.645 54.9337 129.766 54.9884V55.535Z" fill="#F3BB52"/>
<path d="M129.766 30.9361C129.798 30.5807 129.766 30.2036 129.766 29.8428L130.23 30.1872L129.766 30.9361Z" fill="#F0C363"/>
<path d="M130.859 29.2962H129.766V28.7495L130.859 29.2962Z" fill="#E9B550"/>
<path d="M137.422 3.60409C137.46 3.77901 137.389 3.97581 137.422 4.15073C136.711 4.53885 137.001 5.24949 136.875 5.79067C136.421 7.73672 136.875 7.19554 136.875 7.97725C136.875 9.1088 136.804 9.86317 136.875 11.2571C136.629 11.4375 136.246 11.4922 136.055 11.7874L135.234 9.61718C135.278 9.26733 135.174 8.85735 135.234 8.52389C135.245 8.45283 135.759 8.4091 135.77 8.25604L135.234 7.97725H134.688C134.704 7.61646 134.66 7.24474 134.688 6.88396C134.846 4.77937 134.928 3.16131 135.234 0.870864C135.431 0.728736 135.688 0.548343 135.781 0.324219H136.328C136.317 0.586608 137.313 3.07931 137.422 3.60409ZM135.776 6.33731V4.1562H135.24V6.33731H135.776Z" fill="#87481D"/>
<path d="M132.5 20.5499C132.527 19.8229 132.473 19.0904 132.5 18.3633C132.527 17.6363 132.429 16.8929 132.5 16.1768H133.047C133.025 17.5488 133.484 19.637 132.5 20.5499Z" fill="#874B21"/>
<path d="M134.688 7.97708C134.6 10.1254 133.927 10.4971 133.594 11.8036C133.687 11.3225 133.523 10.683 133.594 10.1637L134.141 8.52372C134.277 8.01534 133.96 7.26097 134.688 6.88379C134.66 7.24457 134.704 7.61629 134.688 7.97708Z" fill="#8A4A21"/>
<path d="M133.047 16.1768H132.5C132.609 15.0453 132.992 14.3838 133.047 13.9902C132.981 14.7063 133.058 15.4552 133.047 16.1768Z" fill="#884D24"/>
<path d="M133.594 10.1639C133.72 9.2291 134.015 8.99404 134.141 8.52393L133.594 10.1639Z" fill="#874B21"/>
<path d="M133.594 13.4436H133.047C133.2 12.4652 133.49 12.2082 133.594 11.8037C133.495 12.2957 133.709 12.9954 133.594 13.4436Z" fill="#884D24"/>
<path d="M133.047 13.99C133.063 13.8096 133.02 13.6183 133.047 13.4434H133.594C133.539 13.6566 133.063 13.8752 133.047 13.99Z" fill="#874B21"/>
<path d="M137.422 68.6546C136.695 69.5675 137.323 71.426 135.781 71.9344C135.037 71.7486 134.327 71.3659 133.594 71.9344C133.561 71.5736 133.605 71.2019 133.594 70.8411C134.179 70.7373 134.436 69.9228 134.687 69.7478C135.508 69.1793 136 69.4363 136.875 68.1079L137.422 68.6546Z" fill="#E0A63E"/>
<path d="M137.422 74.1211V74.6677C136.18 74.3616 135.792 74.2359 134.688 73.5745C135.737 73.2902 136.607 73.9516 137.422 74.1211Z" fill="#B68F3E"/>
<path d="M134.688 16.1768C134.611 17.6308 133.851 19.0685 134.141 21.0966C133.577 21.031 133.698 21.3644 133.594 21.6432C133.49 21.922 133.709 22.5014 133.594 22.7365C133.43 23.0809 132.456 24.1742 131.953 23.8298H131.406C131.445 23.6439 131.357 23.4307 131.406 23.2831H132.5C132.549 22.5616 132.456 21.8236 132.5 21.0966C132.511 20.9162 132.495 20.7303 132.5 20.5499C133.484 19.637 133.025 17.5488 133.047 16.1768H134.688Z" fill="#894716"/>
<path d="M131.953 23.8296C131.477 25.3219 132.686 26.1528 133.047 27.1095C133.151 27.3882 132.938 27.9458 133.047 28.2027H131.953C132.172 27.667 132.588 27.2024 132.495 26.5683L131.406 27.6561C131.166 25.6007 131.029 25.7756 131.406 23.8296H131.953Z" fill="#874B21"/>
<path d="M132.5 21.0967C132.456 21.8237 132.549 22.5617 132.5 23.2887H131.406C131.663 22.518 131.893 21.6871 132.5 21.0967Z" fill="#874B21"/>
<path d="M133.047 65.3748C132.648 67.7637 133.741 68.3376 131.953 70.8413C131.598 70.6445 131.209 70.5024 130.859 70.2946C130.925 68.8843 131.231 67.6598 129.766 67.0148C130.531 66.6813 132.216 65.9925 132.5 65.3748C132.866 64.5767 132.877 63.4944 133.047 62.6416H133.594C133.391 63.478 133.189 64.5221 133.047 65.3748Z" fill="#E7BC5F"/>
<path d="M131.406 65.3749C131.773 65.3804 132.134 65.3749 132.5 65.3749C132.216 65.9926 130.531 66.6814 129.766 67.0148V66.4682C130.023 66.2714 128.858 65.3257 131.406 65.3749Z" fill="#EBC05E"/>
<path d="M135.234 65.3748C135.185 66.2604 135.349 67.2717 135.234 68.1081C135.18 68.5016 134.605 69.1631 134.688 69.748C134.436 69.9229 134.179 70.7374 133.594 70.8413C133.55 69.3927 133.337 66.5938 133.594 65.3748C133.648 65.1234 135.059 63.2812 135.234 62.6416C135.141 63.5217 135.284 64.4783 135.234 65.3748Z" fill="#E7B247"/>
<path d="M139.062 55.5354C138.182 56.6068 137.444 59.0941 137.274 59.2526C136.142 60.3022 135.661 58.6568 135.234 62.6418C135.059 63.2814 133.648 65.1236 133.594 65.375H133.047C133.189 64.5223 133.391 63.4782 133.594 62.6418C133.966 61.1003 133.714 61.308 134.688 59.9086C135.776 58.3397 137.411 56.6888 138.516 54.9888L139.062 55.5354Z" fill="#EDB74B"/>
<path d="M132.5 30.3894C132.522 30.5698 132.467 30.7611 132.5 30.9361C132.577 31.3788 133.167 31.9583 133.052 32.576L134.688 30.9361C134.726 31.2914 134.649 31.674 134.688 32.0294C134.726 32.3847 134.66 32.7619 134.688 33.1226C133.113 34.1722 133.32 33.6146 132.5 32.576C131.986 31.9255 132.298 30.5589 130.859 30.9361C130.865 30.5698 130.859 30.209 130.859 29.8428H131.406L132.5 30.3894Z" fill="#DFA53F"/>
<path d="M132.5 30.3897L131.406 29.8431V29.2964C131.898 29.0559 131.805 28.5639 131.953 28.2031H132.5C132.56 28.9192 132.413 29.6791 132.5 30.3897Z" fill="#B27729"/>
<path d="M131.953 28.2028C131.805 28.5636 131.898 29.0556 131.406 29.2961C131.39 28.9353 131.434 28.5636 131.406 28.2028C131.395 28.0224 131.428 27.8366 131.406 27.6562L132.495 26.5684C132.588 27.2079 132.166 27.6726 131.953 28.2028Z" fill="#82431C"/>
<path d="M131.406 58.8149C131.155 60.7938 130.312 62.0019 133.047 61.0015C133.009 61.1764 133.085 61.3732 133.047 61.5482C132.817 61.652 132.566 61.8543 132.5 62.0948C130.055 63.5106 130.23 60.1925 129.766 59.9082C130.001 59.1265 130.608 58.8204 131.406 58.8149Z" fill="#F5C76A"/>
<path d="M133.047 62.6416C132.877 63.4944 132.866 64.5768 132.5 65.3749C132.134 65.3749 131.773 65.3803 131.406 65.3749C131.942 64.2925 132.177 63.2429 132.5 62.095C132.566 61.8545 132.817 61.6522 133.047 61.5483C132.97 61.8709 133.112 62.3082 133.047 62.6416Z" fill="#EEC061"/>
<path d="M129.76 62.0895H128.677V60.4551L129.76 61.286V62.0895Z" fill="#EDC468"/>
<path d="M131.953 34.2158C131.784 35.6754 131.937 37.5941 131.953 39.1356C130.816 39.562 131.428 40.7701 131.22 41.2019C131.045 41.5573 129.76 41.4971 129.749 43.7821C129.744 45.3182 132.259 43.6837 131.406 46.7887C131.067 46.6629 130.455 46.0835 130.318 46.242C130.477 47.0729 129.913 47.7726 129.766 48.4286C127.146 47.953 129.115 46.7449 128.141 44.9301C129.842 44.1484 129.525 41.9016 129.766 40.2289C130.006 38.5562 130.159 36.4461 130.313 34.7625L131.953 34.2158ZM130.854 39.1356V37.5012H130.318V39.1356H130.854Z" fill="#EDB74A"/>
<path d="M136.328 47.3355C135.202 47.7893 133.938 49.052 133.047 49.5221C132.686 49.7135 132.314 49.8774 131.953 50.0688C131.729 50.189 130.903 49.8282 130.433 50.1672C130.061 50.4405 129.388 52.6708 129.213 53.3432C127.72 53.5564 127.895 52.5287 127.578 51.7032C128.207 50.3804 128.327 49.9813 129.766 49.5167C131.472 48.97 131.98 49.7189 133.594 47.3301C134.392 47.423 135.491 47.3683 136.328 47.3301V47.3355Z" fill="#F0B94E"/>
<path d="M131.406 46.7887C132.292 47.1222 132.626 47.2206 133.594 47.3354C131.98 49.7242 131.472 48.9753 129.766 49.522C129.815 49.1721 129.695 48.7403 129.766 48.4287C129.913 47.7727 130.477 47.0675 130.318 46.2421C130.455 46.0836 131.062 46.663 131.406 46.7887Z" fill="#F0B749"/>
<path d="M130.859 30.9363C132.298 30.5591 131.986 31.9257 132.5 32.5762C132.779 33.2213 131.98 34.003 131.953 34.2162L130.312 34.7628C130.4 33.7843 130.843 31.7672 130.859 30.9363Z" fill="#E9B550"/>
<path d="M137.422 47.3354C134.715 49.0355 134.835 51.2931 134.141 53.8952C133.112 54.2833 132.965 55.2782 132.5 56.0818C132.385 56.2785 132.035 56.4425 131.953 56.6284H131.406C131.078 55.4531 132.336 54.3052 132.407 53.5235C132.478 52.7418 131.007 51.7906 131.423 51.1893C131.537 51.0253 133.309 50.9433 133.041 49.5165C133.933 49.0464 135.196 47.7837 136.323 47.33C136.503 47.3245 136.689 47.3464 136.87 47.33C137.05 47.3136 137.241 47.3573 137.416 47.33L137.422 47.3354Z" fill="#F6C258"/>
<path d="M129.219 54.9883C129.197 55.2343 129.432 55.6388 129.766 55.535V56.6228H128.951C128.426 56.1527 127.841 55.6662 127.578 54.9883C128.12 55.0321 128.683 54.9227 129.219 54.9883Z" fill="#F4BF55"/>
<path d="M133.047 49.522C133.309 50.9432 131.538 51.0307 131.428 51.1947C131.013 51.796 132.484 52.7527 132.413 53.5289C132.341 54.3051 131.078 55.4585 131.412 56.6338C130.663 56.4206 130.307 55.229 129.771 54.9939C129.651 54.9392 129.421 55.0158 129.224 54.9939C129.394 52.9932 130.755 51.5336 131.959 50.0741C132.32 49.8828 132.691 49.7188 133.052 49.5274L133.047 49.522Z" fill="#F4BF55"/>
<path d="M132.5 56.082L133.036 57.476L131.948 57.9898L132.511 59.3674L133.599 58.8207C133.348 59.4111 133.211 60.3349 133.052 61.0073C130.318 62.0077 131.16 60.7996 131.412 58.8207C131.455 58.4654 131.33 58.0062 131.412 57.7274C131.455 57.5689 131.8 56.9949 131.959 56.6341C132.041 56.4483 132.391 56.2843 132.505 56.0875L132.5 56.082Z" fill="#F8CA6B"/>
<path d="M136.875 11.2571C136.93 12.3832 137.34 13.5257 137.17 14.5534C136.859 16.412 132.265 19.5169 136.328 21.6434C136.109 22.3759 136.098 23.502 135.234 23.83C135.087 22.9827 134.212 21.6051 134.141 21.0967C133.851 19.0687 134.611 17.631 134.687 16.1769C134.726 15.4554 134.627 14.7119 134.687 13.9903C134.704 13.81 134.671 13.6241 134.687 13.4437C134.802 12.1864 135.076 10.8745 135.234 9.61719L136.055 11.7874C136.246 11.4867 136.629 11.432 136.875 11.2571Z" fill="#82431E"/>
<path d="M135.234 8.5237C135.174 8.85715 135.278 9.26713 135.234 9.61699C135.076 10.8743 134.802 12.1862 134.688 13.4435V13.9901C134.627 14.7117 134.726 15.4552 134.688 16.1767H133.047C133.058 15.4552 132.981 14.7062 133.047 13.9901C133.063 13.8753 133.539 13.6567 133.594 13.4435C133.709 12.9953 133.495 12.2955 133.594 11.8036C133.927 10.4971 134.6 10.1254 134.688 7.97705H135.234V8.5237Z" fill="#8B491A"/>
<path d="M140.156 60.4551C139.932 61.3953 139.686 62.1934 139.609 63.1883C139.555 63.9099 139.648 64.6533 139.609 65.3749C139.008 65.282 138.538 64.9977 137.974 64.8228C137.952 66.009 137.515 67.1351 136.875 68.1081C136 69.4365 135.508 69.1795 134.688 69.748C134.605 69.1631 135.18 68.5017 135.234 68.1081C135.595 66.6759 136.749 65.5607 137.285 64.4183C137.575 63.8005 137.296 62.7619 137.684 62.0404C138.013 61.4281 139.134 62.6854 139.609 60.4551H140.156Z" fill="#E3A83D"/>
<path d="M133.594 22.7363L133.949 23.8351C134.338 23.8132 134.928 23.9444 135.234 23.8296C135.377 24.6441 135.136 25.6937 135.234 26.5628L133.047 27.1095C132.686 26.1529 131.477 25.322 131.953 23.8296C132.456 24.174 133.43 23.0807 133.594 22.7363Z" fill="#82431F"/>
<path d="M135.234 23.8299C134.928 23.9447 134.338 23.8135 133.949 23.8354L133.594 22.7366C133.709 22.5016 133.49 21.933 133.594 21.6433L134.141 21.0967C134.212 21.6051 135.087 22.9826 135.234 23.8299Z" fill="#7F441C"/>
<path d="M133.594 21.6434C133.698 21.3646 133.577 21.0311 134.141 21.0967L133.594 21.6434Z" fill="#874B21"/>
<path d="M137.422 54.4417C136.35 55.9613 135.158 58.0823 134.688 59.9081C133.714 61.3075 133.966 61.0998 133.594 62.6413H133.047C133.113 62.3079 132.97 61.8706 133.047 61.548C133.085 61.3731 133.009 61.1763 133.047 61.0014C133.205 60.329 133.342 59.4052 133.594 58.8148C133.703 58.5579 134.398 57.6559 134.688 57.1749C135.3 56.1636 136.481 54.6658 137.422 53.895V54.4417Z" fill="#F3C15D"/>
<path d="M140.156 52.2554C139.259 52.966 138.975 54.278 138.516 54.9886C137.411 56.6887 135.776 58.3395 134.688 59.9084C135.158 58.0826 136.35 55.9616 137.422 54.442C137.865 53.8133 139.106 52.8949 139.609 52.2554H140.156Z" fill="#F1BB50"/>
<path d="M132.5 32.5762C133.32 33.6148 133.112 34.1724 134.687 33.1228C134.595 33.5765 134.966 33.5273 135.234 33.6695H135.781C135.869 33.9756 135.677 34.5004 135.781 34.7628C135.344 35.1727 134.786 35.8178 134.687 36.4027C134.66 36.5776 134.704 36.7689 134.687 36.9493C134.545 38.6822 134.474 40.8524 135.234 42.4158C136.077 43.356 140.025 42.9406 141.25 44.6024H140.156V45.6956V46.2423C139.976 46.2423 139.79 46.2478 139.609 46.2423C139.429 46.2368 139.243 46.2478 139.062 46.2423C138.702 46.2259 138.33 46.2696 137.969 46.2423C135.978 46.1002 134.037 46.6523 132.462 44.9139C131.554 43.6293 131.97 40.8305 131.953 39.1359C131.937 37.5944 131.784 35.6756 131.953 34.2161C131.98 34.0029 132.779 33.2212 132.5 32.5762Z" fill="#EBB041"/>
<path d="M133.047 28.7498C133.189 29.0996 133.331 29.1215 133.594 29.2964C134.119 29.6463 135.016 29.7119 135.781 30.3897C136.17 30.7341 136.465 31.6033 136.875 32.0296C137.05 32.2155 137.258 32.3904 137.422 32.5763C137.515 32.6801 137.329 33.03 137.422 33.1229C138.614 34.3255 139.62 34.7683 141.25 34.2162V35.8562C140.845 34.1014 138.658 35.5391 138.084 35.151C138.007 35.0963 137.307 34.1069 136.88 33.6696C136.257 33.0355 136.066 31.9367 134.693 32.0296C134.655 31.6743 134.731 31.2917 134.693 30.9363C134.655 30.581 134.726 30.2038 134.693 29.8431L133.594 31.483L132.511 30.9363C132.478 30.7614 132.533 30.5701 132.511 30.3897C132.423 29.6791 132.571 28.9192 132.511 28.2031H133.058C133.123 28.3562 132.992 28.5967 133.058 28.7498H133.047Z" fill="#8F4F11"/>
<path d="M134.688 30.9361L133.052 32.576C133.167 31.9583 132.577 31.3788 132.5 30.9361L133.583 31.4827L134.682 29.8428C134.72 30.2036 134.649 30.5807 134.682 30.9361H134.688Z" fill="#B27729"/>
<path d="M137.969 46.2421L136.875 47.3354C136.695 47.3518 136.509 47.3299 136.328 47.3354C135.491 47.3737 134.392 47.4283 133.594 47.3354C132.626 47.2206 132.292 47.1222 131.406 46.7888C132.265 43.6838 129.744 45.3183 129.749 43.7822C129.76 41.4918 131.045 41.5519 131.22 41.2021C131.428 40.7757 130.816 39.5621 131.953 39.1357C131.97 40.8303 131.554 43.6346 132.462 44.9138C134.037 46.6521 135.978 46.1 137.969 46.2421Z" fill="#EEB646"/>
<path d="M130.854 37.4961H130.318V39.1306H130.854V37.4961Z" fill="#EEB646"/>
<path d="M141.25 46.2422C137.898 48.314 135.464 50.0578 135.24 54.4419L137.969 52.2553C137.761 52.5942 137.805 53.4743 137.422 53.8952C136.481 54.666 135.3 56.1638 134.688 57.1751H133.052C133.189 55.9834 133.818 55.1197 134.141 53.8952C134.835 51.2932 134.715 49.0355 137.422 47.3355C137.673 47.3027 138.718 46.9255 139.063 46.7888C139.287 46.7014 139.467 46.439 139.609 46.2422C139.79 46.2477 139.976 46.2422 140.156 46.2422C140.523 46.2422 140.884 46.2477 141.25 46.2422Z" fill="#FCCF6F"/>
<path d="M134.141 53.8951C133.813 55.1196 133.189 55.9833 133.052 57.1695H134.688C134.398 57.656 133.703 58.5525 133.594 58.8149L132.505 59.3616L131.942 57.984L133.03 57.4702L132.495 56.0762C132.959 55.2727 133.107 54.2778 134.135 53.8896L134.141 53.8951Z" fill="#FACD6C"/>
<path d="M139.609 8.5237C139.582 8.94461 139.484 9.96137 139.664 10.1254L141.217 10.2019L141.245 12.3502L139.615 11.2569C139.024 12.6782 140.725 12.219 140.73 12.6563C140.73 12.8914 140.277 15.067 140.156 15.6301L138.521 12.8969C138.259 14.4384 137.274 15.7831 136.875 17.27C136.334 19.2817 136.995 19.6807 136.875 20.5499C136.864 20.6155 136.459 21.2059 136.328 21.6432C132.265 19.5167 136.859 16.4118 137.17 14.5532C137.34 13.5255 136.93 12.383 136.875 11.2569C137.433 10.8579 137.766 10.2566 137.969 9.61699L139.057 10.1691L139.609 7.97705C139.598 8.15744 139.62 8.3433 139.609 8.5237Z" fill="#80401C"/>
<path d="M134.687 13.99V13.4434C134.671 13.6238 134.704 13.8096 134.687 13.99Z" fill="#874B21"/>
<path d="M135.234 26.563H135.781C135.683 27.8148 136.312 28.6949 136.328 29.2962C136.328 29.3727 135.71 29.9959 135.781 30.3895C135.016 29.7117 134.119 29.6461 133.594 29.2962L133.047 28.7496C132.981 28.5965 133.112 28.356 133.047 28.2029C132.937 27.946 133.151 27.3884 133.047 27.1096L135.234 26.563Z" fill="#82431C"/>
<path d="M135.781 34.7627C137.034 37.884 141.43 36.8837 140.703 41.8691C140.523 41.8745 140.337 41.8581 140.156 41.8691C140.665 39.7754 139.413 39.2069 137.706 38.5837C136.06 40.1635 138.997 41.6231 135.781 42.4157H135.234C134.474 40.8523 134.545 38.6821 134.688 36.9493L135.223 36.676L134.688 36.4026C134.786 35.8177 135.344 35.1727 135.781 34.7627Z" fill="#E3A43B"/>
<path d="M136.875 33.6694L137.455 36.3862C140.102 35.3039 140.102 36.4518 141.797 38.0426C144.548 40.6227 147.594 42.5797 151.641 42.9624C152.537 43.0498 153.473 42.9022 154.375 42.9624C154.539 43.11 155.245 43.1045 155.469 43.509C154.03 43.4379 152.537 43.4871 151.094 43.509C149.541 43.5363 147.627 43.3177 146.172 43.509C145.811 43.4871 145.439 43.5418 145.078 43.509L145.62 41.8691C144.323 42.29 143.093 41.8909 141.797 41.8691C141.616 41.8691 141.43 41.8691 141.25 41.8691C141.07 41.8691 140.884 41.8636 140.703 41.8691C141.43 36.8837 137.034 37.884 135.781 34.7627C135.677 34.5003 135.869 33.9755 135.781 33.6694C135.552 32.8768 135.278 33.6913 135.234 33.6694C134.966 33.5273 134.595 33.5765 134.687 33.1228C134.66 32.762 134.726 32.3848 134.687 32.0295C136.06 31.9365 136.252 33.0353 136.875 33.6694Z" fill="#E09F3A"/>
<path d="M134.688 36.949C134.704 36.7686 134.66 36.5773 134.688 36.4023L135.223 36.6757L134.688 36.949Z" fill="#DFA53F"/>
<path d="M133.594 29.2962C133.331 29.1212 133.189 29.0994 133.047 28.7495L133.594 29.2962Z" fill="#874B21"/>
</g>
</g>
<defs>
<clipPath id="clip0_645_68687">
<rect width="135" height="130" fill="white"/>
</clipPath>
<clipPath id="clip1_645_68687">
<rect width="175" height="334" fill="white" transform="translate(115 -232)"/>
</clipPath>
</defs>
</svg>
