<svg width="135" height="130" viewBox="0 0 135 130" fill="none" xmlns="http://www.w3.org/2000/svg">
<g clip-path="url(#clip0_645_68686)">
<rect width="135" height="130" fill="white"/>
<rect x="-268.5" y="-128.5" width="402" height="387" rx="18.5" fill="#FDFFEF" stroke="black" stroke-width="3"/>
<g clip-path="url(#clip1_645_68686)">
<path d="M10.7031 2.40922L10.1562 2.95587C10.0086 2.2671 9.35781 0.889551 8.51562 1.31593C8.48281 -3.81706 7.49844 -7.7857 7.42188 -12.8968C8.24219 -12.9734 8.24219 -14.4602 7.42188 -14.5368C7.42188 -14.903 7.42188 -15.2638 7.42188 -15.6301V-18.3633C9.35234 -11.7161 9.37422 -4.4457 10.7031 2.40922Z" fill="#BC9F6E"/>
<path d="M6.875 -18.3633C6.89141 -17.4886 6.54687 -16.0892 7.42188 -15.63C7.42188 -15.2638 7.42188 -14.903 7.42188 -14.5367C7.42188 -13.9901 7.41641 -13.4435 7.42188 -12.8968C7.49844 -7.78568 8.48281 -3.81704 8.51562 1.31596C8.51562 1.49635 8.51562 1.68221 8.51562 1.8626L7.42188 3.50254C7.42188 3.13629 7.43281 2.7755 7.42188 2.40925C7.36719 0.0860089 7.56953 -2.59802 6.32812 -4.69713C6.65078 -9.8028 6.53047 -14.3181 6.32812 -19.4565H6.875C6.875 -19.0903 6.86953 -18.7295 6.875 -18.3633Z" fill="#BF985F"/>
<path d="M13.9843 28.1013C13.4374 29.3859 12.814 31.403 11.2499 31.3811C11.4523 30.0473 11.0585 28.3582 11.2499 27.008C11.4796 26.8987 11.7202 26.7073 11.7968 26.4613C11.846 26.3083 11.7585 26.1006 11.7968 25.9147C12.2234 23.7718 11.9718 22.9409 11.7968 20.9949C11.7968 20.9512 12.2562 20.6614 12.3437 20.4482C12.5077 21.3721 13.689 23.1049 13.8804 24.1545C14.132 25.532 13.432 26.7675 13.9843 28.1013Z" fill="#A9884E"/>
<path d="M10.703 7.3291C10.8398 7.87575 11.3866 10.2482 11.7913 9.51022V7.87575C12.6116 10.8604 13.8202 13.4843 14.5312 16.6221H13.9843C13.153 15.8021 12.8304 14.9001 12.3437 13.8888C11.3483 11.8335 10.5772 9.68514 9.66943 7.58603L10.1562 7.3291H10.703Z" fill="#CEB484"/>
<path d="M11.7969 25.9151C11.7586 26.1009 11.8461 26.3087 11.7969 26.4617C11.5344 26.5218 11.2883 26.7514 11.25 27.0084C11.0586 28.3586 11.4523 30.0477 11.25 31.3815C10.9328 33.4588 9.89922 33.497 8.51563 34.6614C7.3125 35.6727 5.97266 36.5965 4.6875 37.9413H4.14062C4.47969 37.6679 4.85703 36.7441 5.23438 36.3013C5.5625 35.9187 6.02734 35.618 6.32813 35.208C9.86641 33.4424 8.98594 31.3487 9.60938 28.6483C9.64766 28.4788 9.57656 28.2766 9.60938 28.1016C9.63672 27.9595 10.025 26.8826 10.1563 26.4617C10.3203 25.9205 10.6867 25.4231 10.7031 24.8218C10.7688 25.0732 11.5672 25.598 11.7969 25.9151Z" fill="#9B7336"/>
<path d="M12.8906 18.2617C13.1257 18.7974 12.9288 20.0602 13.3827 20.6724C14.1702 21.722 15.2585 19.4534 15.0781 23.7282C14.996 25.6742 14.7226 26.3739 13.9843 28.1013C13.432 26.7675 14.1265 25.5321 13.8804 24.1545C13.689 23.105 12.5078 21.3721 12.3437 20.4483C12.2835 20.1094 12.2671 19.0872 12.3437 18.8084C12.4203 18.5296 12.814 18.3929 12.8906 18.2617Z" fill="#B79965"/>
<path d="M15.0781 23.7285C15.2586 19.4537 14.1703 21.7223 13.3828 20.6727C12.9289 20.0659 13.1258 18.7977 12.8906 18.262C13.0438 17.9996 14.1813 17.6224 13.9844 16.6221H14.5312C15.0234 18.8032 16.4016 21.8207 15.0781 23.7285Z" fill="#BEA06F"/>
<path d="M8.51562 34.6611C7.77734 37.4709 5.43672 38.8047 3.59375 40.6742L3.04688 40.1276H2.5C3.41328 39.5099 3.9875 38.6735 4.6875 37.941C5.97266 36.5963 7.3125 35.6724 8.51562 34.6611Z" fill="#9C7A42"/>
<path d="M11.7969 7.87563V9.5101C11.3867 10.2481 10.8398 7.87563 10.7031 7.32898C10.293 5.68905 10.4297 4.21857 10.1562 2.95582L10.7031 2.40918C11.0531 4.20217 11.3156 6.1209 11.7969 7.87563Z" fill="#C3AC7E"/>
<path d="M3.04688 40.6742H3.59375C3.21641 41.0569 2.89375 41.3958 2.5 41.7675C2.62031 41.6473 2.41797 41.21 2.22656 41.2209C1.63047 41.2592 2.24297 42.0245 2.5 41.7675C1.92578 42.3087 1.67969 42.757 0.859375 43.4075L0.580463 42.8718C0.33437 42.9811 0.394531 43.3364 0.3125 43.4075C0.115625 43.5824 -0.0484375 43.7737 -0.234375 43.9541C-0.589844 44.2985 -1.02187 44.6812 -1.32812 45.0474C-1.09844 44.3477 -1.05469 43.5441 -0.78125 42.8608C-0.666406 42.5766 -0.3875 41.9425 -0.234375 41.7675C-0.152344 41.6746 1.83828 40.7125 1.95312 40.6742C2.11719 40.6196 2.34141 40.7344 2.5 40.6742C2.65313 40.6196 2.86641 40.718 3.04688 40.6742Z" fill="#A0844B"/>
<path d="M0.859375 43.4073C0.667969 43.5604 0.53125 43.8173 0.3125 43.9539V43.4073C0.394531 43.3308 0.33437 42.9809 0.580463 42.8716L0.859375 43.4073Z" fill="#917D50"/>
<path d="M0.3125 43.9544H-0.234375C-0.0484375 43.774 0.115625 43.5826 0.3125 43.4077V43.9544Z" fill="#927A4C"/>
<path d="M5.23438 1.31606C5.09219 0.621819 5.09766 0.124372 4.41406 -0.323877C4.06406 -0.460538 4.01484 0.485157 3.59375 0.769413C3.46797 0.856876 3.16172 0.681949 3.04688 0.769413V-0.323877C3.50625 -0.575334 3.43516 -1.08918 3.59375 -1.41717C3.75234 -1.74515 4.04766 -1.89821 4.14063 -2.51046L5.73751 -2.57059L5.78125 -4.15039H6.32813C6.20781 -2.38473 7.07188 0.463292 5.23438 1.31606Z" fill="#B9873C"/>
<path d="M7.42179 2.40912H6.87492C6.34445 2.45831 5.74835 2.33259 5.23429 2.40912C5.19054 2.05926 5.29992 1.63835 5.23429 1.31583C7.07179 0.463061 6.20773 -2.38496 6.32804 -4.15062C6.33898 -4.33101 6.3171 -4.51687 6.32804 -4.69727C7.56945 -2.59815 7.3671 0.0858759 7.42179 2.40912Z" fill="#C29449"/>
<path d="M8.51562 1.31566C9.35781 0.889275 10.0086 2.26682 10.1562 2.95559C10.4297 4.21834 10.293 5.68882 10.7031 7.32875H10.1562C9.71875 6.85864 9.15 6.38852 8.51562 6.23546C9.0625 4.71032 8.51562 3.14145 8.51562 1.8623C8.51562 1.68191 8.51562 1.49605 8.51562 1.31566Z" fill="#C9AD77"/>
<path d="M7.42188 3.50247C7.42188 3.86872 7.42188 4.22951 7.42188 4.59576C5.52422 5.82024 3.00859 4.72149 1.40625 6.23569C1.22578 6.23569 1.03984 6.23569 0.859375 6.23569C0.678906 6.23569 0.492969 6.23569 0.3125 6.23569V5.68905C0.498438 5.50866 0.689844 5.3392 0.859375 5.1424C2.41797 5.07134 6.98438 4.25137 6.875 2.40918H7.42188C7.43281 2.77543 7.42188 3.13622 7.42188 3.50247Z" fill="#D09F4E"/>
<path d="M8.51562 6.23546C8.36797 6.1972 8.14922 6.23546 7.96875 6.23546C7.78828 6.23546 7.60234 6.23546 7.42188 6.23546V4.59553C7.42188 4.22928 7.42188 3.86849 7.42188 3.50224L8.51562 1.8623C8.51562 3.14145 9.0625 4.71032 8.51562 6.23546Z" fill="#D2AF6A"/>
<path d="M10.7031 19.9017C11.0422 20.2242 11.6492 20.3663 11.7969 20.995C11.9719 22.941 12.2235 23.7719 11.7969 25.9148C11.5672 25.5977 10.7688 25.073 10.7031 24.8215C10.55 24.2421 10.818 23.2964 10.7031 22.6295C8.35705 23.6517 7.26876 21.558 7.05548 21.5198C6.72189 21.4596 3.76877 21.9735 3.5883 22.0883C3.35314 21.3066 2.74611 21.0004 1.94767 20.995C1.93673 20.8091 1.98595 20.6069 1.94767 20.4483C2.24845 20.1859 2.74064 19.4261 3.04142 19.355C4.98283 18.9123 8.36798 21.0606 10.6977 19.9017H10.7031Z" fill="#B28034"/>
<path d="M9.60938 16.0751C10.0633 16.3211 11.2336 18.5951 12.3438 18.8083C12.2672 19.0871 12.2836 20.1093 12.3438 20.4482C12.2563 20.6614 11.7914 20.9512 11.7969 20.9949C11.6492 20.3662 11.0422 20.2241 10.7031 19.9016C10.3313 19.5517 9.99219 19.1363 9.60938 18.8083C8.93672 18.2234 7.02813 16.8295 6.45391 16.6764C4.98282 16.2828 2.98125 15.5558 1.89843 16.8623C1.31875 17.4472 1.51016 18.1578 1.40625 18.8083C1.37891 18.9832 1.42266 19.1746 1.40625 19.355H0.859375V16.0751C2.61484 15.3207 7.99609 15.2005 9.60938 16.0751Z" fill="#C79342"/>
<path d="M11.25 27.0081C11.2883 26.7511 11.5344 26.5216 11.7969 26.4614C11.7203 26.7074 11.4797 26.8987 11.25 27.0081Z" fill="#B28034"/>
<path d="M10.1563 7.32905L9.66959 7.58597C10.5774 9.68509 11.343 11.8334 12.3438 13.8888C11.3704 14.0145 11.179 13.1617 10.7032 12.7955C10.5391 12.6698 10.0962 13.1563 9.43444 12.1286C8.66881 10.9369 7.36179 7.68983 7.96882 6.23576C8.14929 6.23576 8.36804 6.19749 8.51569 6.23576C9.15007 6.38882 9.71882 6.85893 10.1563 7.32905Z" fill="#DAB677"/>
<path d="M10.7031 12.7954C11.1789 13.1617 11.3703 14.0144 12.3437 13.8887C12.8305 14.9 13.1531 15.802 13.9844 16.6219C14.1812 17.6223 13.0437 17.9995 12.8906 18.2619C12.5844 17.5622 11.0805 14.8016 10.7031 14.4353V12.7954Z" fill="#D1B074"/>
<path d="M3.59363 22.0885C3.7741 21.9791 6.72722 21.4598 7.06082 21.52C7.26863 21.5582 8.35692 23.6519 10.7085 22.6297C10.8233 23.2966 10.5499 24.2423 10.7085 24.8217C10.6921 25.423 10.3257 25.9205 10.1616 26.4616V25.3738C9.65301 25.2699 8.94207 25.4886 8.52098 25.3683C6.86395 24.8818 6.06003 23.5371 4.37566 24.1657C3.30925 24.286 3.51707 25.5433 3.05223 26.4616H2.50536C2.26473 25.4831 2.87723 22.5313 3.59911 22.0885H3.59363Z" fill="#A3702A"/>
<path d="M8.51562 25.3685L7.96328 26.4563L9.54923 26.5L9.60938 28.0962C9.57656 28.2711 9.64766 28.4734 9.60938 28.6429C8.65234 29.2278 9.51094 30.731 8.51562 31.3761C8.60312 30.7256 8.61953 29.266 8.51562 28.6429C8.12734 26.3087 6.86953 27.402 6.32812 27.0029C6.22969 26.9319 6.73829 25.7292 5.51329 25.8878L3.59375 27.5496V28.0962H2.5C2.86641 27.5277 2.83906 26.8717 3.04688 26.4563C3.51172 25.5379 3.30391 24.2806 4.37032 24.1604C6.05469 23.5263 6.85859 24.8765 8.51562 25.363V25.3685Z" fill="#986627"/>
<path d="M6.32812 35.2077C6.61797 34.8086 7.70625 32.9828 7.96875 32.4745C8.05078 32.3105 8.45547 32.1465 8.51562 31.9278C8.55937 31.7748 8.48828 31.567 8.51562 31.3812C9.51094 30.7361 8.65234 29.2329 9.60937 28.6479C8.98594 31.3484 9.86641 33.442 6.32812 35.2077Z" fill="#9B6D2A"/>
<path d="M8.51573 25.368C8.93682 25.4937 9.64776 25.2751 10.1564 25.3735V26.4613C10.0251 26.8822 9.63682 27.9591 9.60948 28.1012L9.54933 26.505L7.96338 26.4613L8.51573 25.3735V25.368Z" fill="#9B6D2A"/>
<path d="M10.7031 14.4353C11.0805 14.8016 12.5844 17.5621 12.8906 18.2618C12.8141 18.393 12.4258 18.5242 12.3438 18.8085C11.2336 18.5953 10.0633 16.3212 9.60938 16.0753L9.0625 13.8887C9.54375 14.2112 10.5883 14.3205 10.7031 14.4353Z" fill="#D0A255"/>
<path d="M-0.234304 33.5679C-0.0374287 35.6233 0.345389 37.5912 0.86492 39.581C1.7782 38.9688 3.37507 38.5588 4.1407 37.9411H4.68757C3.98757 38.6736 3.41335 39.5099 2.50007 40.1276V40.6743C2.34148 40.7344 2.11726 40.6196 1.9532 40.6743C-0.764772 41.2373 -0.715554 36.2027 -0.781179 34.1145C-0.792116 33.7538 -0.808522 33.3766 -0.781179 33.0213C-0.770241 32.8409 -0.808522 32.6495 -0.781179 32.4746H-0.234304C-0.217897 32.8354 -0.267116 33.2126 -0.234304 33.5679Z" fill="#A17536"/>
<path d="M3.59375 40.6741H3.04688V40.1274L3.59375 40.6741Z" fill="#8F7649"/>
<path d="M3.04688 40.6741C2.86641 40.7178 2.65313 40.6194 2.5 40.6741V40.1274H3.04688V40.6741Z" fill="#A5834E"/>
<path d="M-0.781173 34.1147C-0.715548 36.2029 -0.764767 41.2375 1.9532 40.6745C1.83836 40.7128 -0.152267 41.6748 -0.234298 41.7678L-1.32257 42.3144C-1.27882 40.1388 -1.39914 37.9303 -1.32805 35.7547C-1.30617 35.1534 -1.49211 34.3771 -0.781173 34.1147Z" fill="#A7793B"/>
<path d="M2.50009 41.7675C2.24306 42.0245 1.63056 41.2592 2.22665 41.2209C2.41806 41.21 2.6204 41.6473 2.50009 41.7675Z" fill="#917949"/>
<path d="M3.59375 0.769389L3.04688 2.95051C3.9875 3.39329 4.84609 2.46399 5.23438 2.40932C5.74844 2.33279 6.34453 2.45852 6.875 2.40932C6.98438 4.25152 2.41797 5.07148 0.859375 5.14255C0.744531 5.14255 -0.130469 4.55217 -1.32812 4.5959C0.0226563 4.13126 0.564063 3.15823 1.40625 2.40932C1.83828 2.02667 2.18828 1.58936 2.5 1.31603C2.69141 1.15204 2.83906 0.933383 3.04688 0.769389C3.16172 0.681926 3.46797 0.856852 3.59375 0.769389Z" fill="#CB9847"/>
<path d="M5.23438 1.31599C5.3 1.63851 5.19063 2.05942 5.23438 2.40928C4.85156 2.46394 3.9875 3.39871 3.04688 2.95046L3.59375 0.769341C4.01484 0.485086 4.06406 -0.455143 4.41406 -0.323948C5.10312 0.118834 5.09219 0.621747 5.23438 1.31599Z" fill="#C88D32"/>
<path d="M3.04688 -0.323933V0.769357C2.83906 0.933351 2.69141 1.15201 2.5 1.316L1.95312 0.769357C2.31406 0.0477859 2.56562 -0.580856 2.5 -1.41722C2.68594 -1.59762 2.85 -1.79441 3.04688 -1.96387V-0.323933Z" fill="#9E7F50"/>
<path d="M-1.32811 4.59556C-0.130451 4.55183 0.744549 5.14767 0.859393 5.1422C0.689862 5.33899 0.498455 5.50845 0.312518 5.68885C0.12658 5.86924 -0.0538883 6.0551 -0.234357 6.23549C-0.414826 6.41588 -0.611701 6.58534 -0.781232 6.78214C-1.50311 6.90786 -2.60233 7.30145 -2.96873 7.32878L-10.0726 6.23003L-3.51561 5.1422C-2.81014 5.04381 -2.00076 4.62289 -1.32811 4.59556Z" fill="#CD9939"/>
<path d="M5.23438 6.78248V7.32913C4.48516 7.07767 2.89376 7.23073 1.9586 6.78795V7.87577C1.77266 7.86484 1.59219 7.88124 1.40625 7.87577C-1.49766 7.76645 -4.43984 7.96324 -7.34375 7.87577C-7.69922 7.86484 -8.09297 7.91951 -8.4375 7.87577V7.32913C-6.64922 7.3018 -4.71328 7.47126 -2.96875 7.32913C-2.60234 7.3018 -1.50313 6.90821 -0.78125 6.78248C-0.223438 6.68409 0.596875 7.00114 0.859375 6.23584C1.03984 6.23584 1.22578 6.23584 1.40625 6.23584C3.03594 6.23584 4.39766 6.74422 5.23438 6.78248Z" fill="#E3B564"/>
<path d="M7.42188 6.23564C7.13203 6.23017 6.22969 6.83148 5.23438 6.78228C4.39766 6.74402 3.03594 6.23017 1.40625 6.23564C3.00859 4.72143 5.52422 5.82019 7.42188 4.5957V6.23564Z" fill="#DDB165"/>
<path d="M0.3125 6.23584C0.492969 6.23584 0.678906 6.23584 0.859375 6.23584C0.596875 7.00114 -0.223438 6.68409 -0.78125 6.78248C-0.611719 6.58569 -0.414844 6.41623 -0.234375 6.23584H0.3125Z" fill="#D0A562"/>
<path d="M0.3125 6.23561H-0.234375C-0.0539062 6.05522 0.126562 5.86936 0.3125 5.68896V6.23561Z" fill="#CB9847"/>
<path d="M7.96875 6.23588C7.36172 7.69542 8.66875 10.937 9.43437 12.1287C10.0961 13.1564 10.5391 12.6699 10.7031 12.7956V14.4355C10.5883 14.3208 9.54375 14.2114 9.0625 13.8889C8.58125 13.5664 7.67344 12.3802 6.875 12.249C7.95234 10.0241 7.65156 8.13273 5.23438 7.32917V6.78252C6.22969 6.83172 7.13203 6.23041 7.42188 6.23588C7.60234 6.23588 7.78828 6.23588 7.96875 6.23588Z" fill="#DEB465"/>
<path d="M9.60938 18.8083C9.99219 19.1363 10.3312 19.5517 10.7031 19.9016C8.37344 21.0605 4.98828 18.9122 3.04688 19.3549V18.2617H1.95312C3.12891 17.2504 7.82109 18.5678 9.60938 18.8083Z" fill="#BD8833"/>
<path d="M3.59385 22.0884C2.87197 22.5312 2.25947 25.4831 2.5001 26.4616C1.50479 25.9423 2.02979 24.2094 1.95322 23.1817C1.89854 22.4601 2.00244 21.7167 1.95322 20.9951C2.75166 21.0006 3.35869 21.3067 3.59385 22.0884Z" fill="#AB7E36"/>
<path d="M1.95308 18.2617H3.04683V19.355C2.74604 19.4261 2.25386 20.1859 1.95308 20.4483C1.89292 20.1914 1.65776 19.9837 1.4062 19.9017C1.41714 19.7213 1.38979 19.5354 1.4062 19.355C1.42261 19.1746 1.37886 18.9833 1.4062 18.8084C1.60854 18.6498 1.76167 18.4257 1.95308 18.2617Z" fill="#B48835"/>
<path d="M1.95314 20.4485C1.99142 20.607 1.9422 20.8093 1.95314 20.9951C2.00236 21.7167 1.89845 22.4602 1.95314 23.1817H1.40626C1.46642 22.0939 1.33517 20.9897 1.40626 19.9019C1.65783 19.9839 1.89298 20.1916 1.95314 20.4485Z" fill="#AF8843"/>
<path d="M6.875 12.2487C7.67344 12.3799 8.55937 13.5498 9.0625 13.8887L9.60938 16.0753C7.99609 15.2006 2.61484 15.3209 0.859375 16.0753C0.689844 16.1463 0.4 15.9933 0.3125 16.0753C0.279688 15.7801 -0.130469 15.3264 -0.234375 14.982C0.214062 14.5119 0.148445 13.2491 1.22579 12.8883C1.63048 12.7517 6.44297 12.1777 6.875 12.2487Z" fill="#D8A54A"/>
<path d="M1.40625 18.8085C1.51016 18.1525 1.32422 17.4473 1.89843 16.8624C2.98125 15.5614 4.98282 16.283 6.45391 16.6766C7.02266 16.8296 8.93125 18.2236 9.60938 18.8085C7.82109 18.5679 3.12891 17.2505 1.95312 18.2618C1.76172 18.4258 1.60859 18.6499 1.40625 18.8085Z" fill="#C58F36"/>
<path d="M1.40633 19.9016C1.33524 20.9894 1.46649 22.0937 1.40633 23.1815C1.27508 25.5485 1.34071 26.7893 0.859456 29.1946C0.826644 29.364 0.870394 29.5663 0.859456 29.7412C0.722737 29.9271 0.350862 30.1348 0.312581 30.2879H-0.234294C-0.20695 29.9271 -0.261638 29.5554 -0.234294 29.1946C-0.141325 28.0412 0.744612 25.6687 0.859456 24.2748C0.985237 22.7168 0.859456 20.9512 0.859456 19.355H1.40633C1.38992 19.5354 1.41727 19.7212 1.40633 19.9016Z" fill="#B69253"/>
<path d="M0.859416 19.355H0.312541C0.285197 18.2836 0.421916 17.1138 0.312541 16.0752C0.400041 15.9932 0.689884 16.1462 0.859416 16.0752V19.355Z" fill="#C19A52"/>
<path d="M2.5 26.4615H3.04688C2.83906 26.877 2.86641 27.5329 2.5 28.1014C2.35234 28.331 1.49375 28.6098 1.40625 29.1947H0.859375C1.34062 26.7895 1.275 25.5486 1.40625 23.1816H1.95312C2.02969 24.2093 1.50469 25.9422 2.5 26.4615Z" fill="#A68044"/>
<path d="M3.59375 28.1016L4.64376 28.1453L4.14063 29.7415C3.96563 29.7579 3.77422 29.747 3.59375 29.7415C2.79531 29.7087 2.02422 29.9164 1.40625 29.1949C1.49375 28.6099 2.35234 28.3312 2.5 28.1016H3.59375Z" fill="#7B4C19"/>
<path d="M8.51562 28.6479C8.61953 29.2711 8.60312 30.7307 8.51562 31.3812C8.20937 31.578 7.35625 31.5452 6.875 31.9278V30.8345C7.21953 30.594 7.46015 30.2332 7.96328 30.2769L7.97968 29.4679C7.91406 29.1181 7.07734 28.9377 6.875 28.6479H8.51562Z" fill="#8F6223"/>
<path d="M3.59375 27.5546L5.51329 25.8928C6.73829 25.7343 6.22969 26.9369 6.32812 27.008C5.69375 26.8932 5.16328 27.4398 4.6875 27.5546C4.38125 27.6311 3.94375 27.5054 3.59375 27.5546Z" fill="#916024"/>
<path d="M8.51562 28.6482H6.875C6.66172 28.3421 6.65078 27.4347 6.32812 27.0083C6.86953 27.4074 8.12734 26.3141 8.51562 28.6482Z" fill="#915F26"/>
<path d="M4.6875 27.5547C4.8625 27.7406 5.03203 27.9429 5.23437 28.1014V29.7413C4.87344 29.7796 4.50156 29.714 4.14062 29.7413L4.64376 28.1451L3.59375 28.1014V27.5547C3.94375 27.5056 4.38125 27.6313 4.6875 27.5547Z" fill="#80511D"/>
<path d="M8.5157 31.3813C8.48836 31.5672 8.55945 31.7749 8.5157 31.928L7.96883 32.4746C7.70633 32.983 6.61805 34.8088 6.3282 35.2079C6.03836 35.6069 5.56258 35.9185 5.23445 36.3012C2.24852 37.5311 1.19305 35.9021 -0.234296 33.5679C-0.267109 33.2126 -0.21789 32.8354 -0.234296 32.4746C1.59773 32.5676 1.02899 34.541 3.22196 34.4808C5.23446 34.4316 5.49695 33.0158 6.87508 31.928C7.35633 31.5453 8.20945 31.5781 8.5157 31.3813Z" fill="#946425"/>
<path d="M7.96875 32.4744L8.51562 31.9277C8.45547 32.1464 8.05078 32.3104 7.96875 32.4744Z" fill="#986627"/>
<path d="M-0.234368 19.355C-0.256243 19.5354 -0.212493 19.7212 -0.234368 19.9016C-0.26718 20.1695 -1.63984 21.5197 -0.234368 22.0882C-0.196086 22.3451 0.0500073 22.5747 0.312507 22.6348C0.339851 23.2307 0.142976 24.0124 0.859382 24.2748C0.744538 25.6687 -0.141399 28.0412 -0.234368 29.1946C-0.622649 27.0627 0.793762 23.4384 -1.32264 22.0882C-0.46405 24.2967 -1.01093 26.1224 -1.01639 28.2872C-1.01639 29.0361 -2.04452 29.3258 -0.234368 29.1946C-0.261711 29.5554 -0.207024 29.9271 -0.234368 30.2879C-0.261711 30.6487 -0.22343 31.0204 -0.234368 31.3812L-0.781243 31.9278C-0.803118 32.1082 -0.753899 32.2995 -0.781243 32.4745C-0.808586 32.6494 -0.770305 32.8407 -0.781243 33.0211C-1.72187 33.6115 -1.89687 34.7212 -1.87499 35.7543L-2.96327 36.301C-2.90311 35.4099 -3.06171 34.4533 -2.96327 33.5677C-2.47655 29.0361 -1.84217 25.0565 -1.86952 20.4483L-1.32812 20.9949L-1.27343 19.4096L-0.228894 19.355H-0.234368Z" fill="#B99962"/>
<path d="M5.23438 36.3011C4.85703 36.7439 4.47969 37.6677 4.14062 37.941C3.375 38.5587 1.77813 38.9687 0.864849 39.581C0.345318 37.5912 -0.0375 35.6233 -0.234375 33.5679C1.19297 35.902 2.24844 37.531 5.23438 36.3011Z" fill="#9D6D2A"/>
<path d="M1.40625 2.40918C0.564063 3.15808 0.0226563 4.13111 -1.32812 4.59576C-2.00078 4.62309 -2.81016 5.04401 -3.51562 5.1424H-4.0625V4.59576L-3.51562 4.04911C-3.33516 4.03271 -3.14922 4.07098 -2.96875 4.04911C-1.30078 3.81952 -0.469531 3.51887 0.859375 2.40918H1.40625Z" fill="#D0A562"/>
<path d="M2.5 1.31569C2.18828 1.58901 1.83828 2.02633 1.40625 2.40898H0.859375C0.925 1.69287 1.73437 1.20089 1.95312 0.769043L2.5 1.31569Z" fill="#A08769"/>
<path d="M1.95312 0.769099C1.73437 1.20095 0.925 1.69293 0.859375 2.40903C-0.469531 3.51872 -1.30078 3.81938 -2.96875 4.04897L-1.875 2.95568C-1.7 2.91195 -1.48672 3.00488 -1.32812 2.95568C0.4 2.4145 0.728125 0.616038 1.40625 -0.324191C1.69062 -0.717775 2.14453 -1.06763 2.5 -1.41748C2.56562 -0.581114 2.31406 0.0475276 1.95312 0.769099Z" fill="#C4B0A1"/>
<path d="M5.23438 7.32878C7.65156 8.13235 7.95234 10.0237 6.875 12.2486C6.44297 12.1775 1.63048 12.7515 1.22579 12.8882C0.148445 13.2489 0.214063 14.5117 -0.234375 14.9818C-0.34375 15.0966 -1.15859 15.5011 -1.32812 15.5285C-1.42656 15.2497 -1.71094 14.6538 -1.875 14.4352C-1.32266 14.4789 -1.31172 13.7519 -1.32812 13.3419C-1.20234 13.1341 -0.863281 12.9647 -0.78125 12.7952C1.05078 11.5379 4.04766 11.5106 4.6875 9.51536C4.71484 9.43336 5.34375 9.2147 5.21797 8.76099L4.70938 8.12688C3.82344 7.67317 2.87188 7.93009 1.95313 7.87542V6.7876C2.89375 7.23585 4.48516 7.08279 5.23438 7.32878Z" fill="#E4B665"/>
<path d="M1.40625 7.87584L1.95312 10.0624C1.02891 10.4232 -0.365625 11.9101 -0.78125 12.7956C-0.863281 12.9651 -1.20234 13.1346 -1.32812 13.3423C-1.36094 12.577 -1.45938 11.2541 -1.875 10.6091C-2.87578 9.04566 -4.24297 9.53217 -5.70312 8.96913C-5.77969 8.70674 -5.9875 8.48261 -6.25 8.42248C-6.56172 8.35142 -6.99375 8.47168 -7.34375 8.42248V7.87584C-4.43984 7.9633 -1.49766 7.76651 1.40625 7.87584Z" fill="#E9C070"/>
<path d="M4.6875 9.51571C3.95469 10.2373 2.52734 9.83823 1.95313 10.0624L1.40625 7.87578C1.58672 7.88124 1.77266 7.86485 1.95313 7.87578C2.87188 7.93591 3.82344 7.67899 4.70938 8.12724L5.21797 8.76134C5.34375 9.22052 4.71484 9.43372 4.6875 9.51571Z" fill="#E9BA6B"/>
<path d="M0.312379 16.0752C-0.693872 16.6383 -0.070434 17.9502 -0.234496 18.8084C-0.486059 18.7155 -0.704809 18.5242 -0.781371 18.2618C-0.83059 18.0923 -0.732153 17.8846 -0.781371 17.7152C-0.83059 17.5457 -0.74309 17.3489 -0.781371 17.1685C-0.836059 16.9171 -1.08762 16.7148 -1.32825 16.6219C-1.39934 16.2829 -1.23528 15.7964 -1.32825 15.5286C-1.15872 15.5012 -0.343871 15.0967 -0.234496 14.9819C-0.13059 15.3263 0.279566 15.78 0.312379 16.0752Z" fill="#C5A46D"/>
<path d="M0.859292 24.2748C0.142885 24.0124 0.33976 23.2307 0.312417 22.6348C0.268667 21.7274 0.328823 20.8091 0.312417 19.9016C0.312417 19.7212 0.312417 19.5354 0.312417 19.355H0.859292C0.859292 20.9512 0.985073 22.7168 0.859292 24.2748Z" fill="#BA9759"/>
<path d="M3.59374 29.7415L3.04686 30.8348C2.86639 30.8457 2.68045 30.8184 2.49999 30.8348C2.4617 30.8348 2.62577 30.2881 1.95311 30.2881C1.68514 30.2881 1.18749 30.7254 0.859361 30.8348C0.875767 30.474 0.837486 30.1023 0.859361 29.7415C0.870299 29.5665 0.826549 29.3643 0.859361 29.1948H1.40624C2.0242 29.9164 2.7953 29.7087 3.59374 29.7415Z" fill="#80511D"/>
<path d="M0.859254 30.8345H0.312379C0.339723 30.6486 0.274098 30.4464 0.312379 30.2879C0.35066 30.1293 0.722535 29.9271 0.859254 29.7412C0.837379 30.102 0.87566 30.4737 0.859254 30.8345Z" fill="#8B5B25"/>
<path d="M0.312549 30.8347C0.290674 31.0151 0.328955 31.201 0.312549 31.3814C0.13208 31.3814 -0.0538576 31.3814 -0.234326 31.3814C-0.223389 31.0206 -0.26167 30.6489 -0.234326 30.2881H0.312549C0.274267 30.4466 0.339892 30.6489 0.312549 30.8347Z" fill="#A68044"/>
<path d="M0.312541 19.3551C0.312541 19.5355 0.312541 19.7213 0.312541 19.9017H-0.234334C-0.212459 19.7213 -0.256209 19.5355 -0.234334 19.3551C-0.212459 19.1747 -0.267147 18.9833 -0.234334 18.8084C-0.0702718 17.9502 -0.693709 16.6382 0.312541 16.0752C0.421916 17.1138 0.285197 18.2836 0.312541 19.3551Z" fill="#BF9C63"/>
<path d="M5.23437 30.2881C4.48516 30.0531 3.48437 30.8129 3.04688 30.8348L3.59375 29.7415C3.77422 29.747 3.96562 29.7579 4.14062 29.7415C4.50156 29.7142 4.87344 29.7798 5.23437 29.7415V28.1016C7.09375 29.5228 6.4375 29.0582 5.23437 30.2881Z" fill="#83511F"/>
<path d="M6.87499 30.8345V31.9278C5.49686 33.0156 5.23984 34.4314 3.22187 34.4806C1.0289 34.5353 1.59765 32.5673 -0.234386 32.4744C-0.239855 32.294 -0.234386 32.1082 -0.234386 31.9278C-0.0539171 31.9442 0.13202 31.9059 0.312489 31.9278C1.29686 32.0426 1.82733 32.3487 2.49999 32.4744C2.58749 32.4908 2.70234 32.9664 3.17265 32.9336C3.38046 32.9172 3.45702 32.5291 3.59374 32.4744C4.43593 32.1574 6.20233 31.3046 6.87499 30.8345Z" fill="#8F5D24"/>
<path d="M6.32813 27.0084C6.65078 27.4348 6.66172 28.3422 6.875 28.6484C7.08828 28.9545 7.91406 29.1185 7.97968 29.4683L7.96328 30.2774C7.46015 30.2336 7.21953 30.5944 6.875 30.8349C6.20234 31.3051 4.43594 32.1578 3.59375 32.4749H2.5C1.82734 32.3491 1.29688 32.043 0.3125 31.9282V31.3816C2.86094 31.3215 2.94844 32.6225 5.23438 30.2883C6.4375 29.0583 7.09375 29.523 5.23438 28.1017C5.03203 27.9432 4.8625 27.7409 4.6875 27.5551C5.16328 27.4403 5.69375 26.8936 6.32813 27.0084Z" fill="#8A5921"/>
<path d="M-0.234478 29.1948C-2.04463 29.326 -1.01651 29.0362 -1.01651 28.2873C-1.01651 26.1226 -0.46416 24.2968 -1.32275 22.0884C0.793652 23.4331 -0.622759 27.0628 -0.234478 29.1948Z" fill="#BB9B6A"/>
<path d="M0.859272 -0.323935H1.40615C0.728022 0.616294 0.399897 2.41476 -1.32823 2.95593C-1.5251 1.66039 -1.06573 0.632693 -0.234478 -0.323935C0.0389591 -0.231006 0.520209 -0.384066 0.859272 -0.323935Z" fill="#C7B8AF"/>
<path d="M4.6875 9.51562C4.04766 11.5109 1.05078 11.5382 -0.78125 12.7955C-0.365625 11.9099 1.02891 10.4231 1.95312 10.0623C2.52734 9.83815 3.95469 10.2372 4.6875 9.51562Z" fill="#EABD68"/>
<path d="M0.31244 22.6351C0.0499399 22.5749 -0.196154 22.3454 -0.234435 22.0884C-0.338341 21.4106 -0.163341 20.607 -0.234435 19.9019H0.31244C0.328846 20.8093 0.26869 21.7276 0.31244 22.6351Z" fill="#BE9F68"/>
<path d="M2.50011 30.8349C2.68058 30.8185 2.86652 30.8458 3.04698 30.8349C3.48448 30.813 4.48527 30.0532 5.23448 30.2882C2.94855 32.6224 2.86105 31.3214 0.31261 31.3815C0.329016 31.2011 0.290735 31.0153 0.31261 30.8349H0.859485C1.18761 30.7255 1.68527 30.2882 1.95324 30.2882L2.50011 30.8349Z" fill="#865420"/>
<path d="M2.5 30.8347L1.95312 30.2881C2.62578 30.2881 2.46172 30.8402 2.5 30.8347Z" fill="#83511F"/>
<path d="M0.312489 31.928C0.13202 31.9061 -0.0539171 31.9444 -0.234386 31.928C-0.234386 31.7476 -0.239855 31.5617 -0.234386 31.3813C-0.0539171 31.3813 0.13202 31.3813 0.312489 31.3813V31.928Z" fill="#946425"/>
<path d="M3.59375 32.4746C3.45703 32.5238 3.38594 32.9174 3.17266 32.9338C2.70235 32.9666 2.5875 32.491 2.5 32.4746H3.59375Z" fill="#8B5B25"/>
<path d="M-3.51562 -8.52387C-3.45 -9.21811 -3.66874 -9.93968 -2.99609 -10.4645L-0.239849 -10.7104C-0.753912 -8.07562 -0.425781 -4.62083 0.3125 -1.96413C0.142969 -1.84934 -0.458594 -2.16092 -1.32812 -1.41749C-1.57422 -1.20976 -1.90234 0.534034 -3.51562 0.769092C-3.55391 0.304444 -3.52656 -0.165671 -4.0625 -0.324198C-3.88203 -0.701383 -3.73438 -0.69045 -3.51562 -0.870843C-3.39531 -0.969239 -2.78828 -0.553791 -2.40547 -1.23163C-1.82578 -2.25386 -1.74375 -5.60479 -1.875 -6.88394C-2.02813 -8.40361 -2.19766 -7.88976 -3.51562 -8.52387Z" fill="#C3BDBC"/>
</g>
</g>
<defs>
<clipPath id="clip0_645_68686">
<rect width="135" height="130" fill="white"/>
</clipPath>
<clipPath id="clip1_645_68686">
<rect width="175" height="334" fill="white" transform="translate(-155 -102)"/>
</clipPath>
</defs>
</svg>
