<svg width="405" height="390" viewBox="0 0 405 390" fill="none" xmlns="http://www.w3.org/2000/svg">
<rect x="1.5" y="1.5" width="402" height="387" rx="18.5" fill="#FDFFEF" stroke="black" stroke-width="3"/>
<path d="M266.817 246.069C266.817 266.227 232.245 274.069 201.317 274.069C170.389 274.069 140.317 257.727 140.317 237.569C141.817 223.069 164.889 188.069 195.817 188.069C242.817 87.5688 266.817 225.911 266.817 246.069Z" fill="black"/>
<path d="M172.817 63.0688C175.868 80.4766 189.705 164.687 181.817 166.069C173.929 167.451 143.892 86.0027 140.841 68.5949C146.317 36.0691 139.317 63.5887 146.317 33.5691C161.317 42.5688 165.817 45.0688 172.817 63.0688Z" fill="black"/>
<path d="M135.817 164.569C135.817 171.749 129.302 195.569 126.817 195.569C124.332 195.569 116.317 177.069 118.317 167.069C119.317 151.569 123.332 150.569 125.817 150.569C129.817 150.569 135.817 157.389 135.817 164.569Z" fill="black"/>
<path d="M269.317 304.069C269.317 328.369 269.317 355.569 245.317 348.069C226.817 354.569 230.817 329.069 233.317 304.069C233.317 279.768 238.69 260.069 245.317 260.069C265.817 203.569 269.317 279.768 269.317 304.069Z" fill="black"/>
<path d="M204.317 186.069C204.317 193.248 167.043 212.569 148.817 212.569C130.592 212.569 121.317 185.248 121.317 178.069C121.317 170.889 122.317 171.069 147.817 157.069C202.817 120.569 204.317 178.889 204.317 186.069Z" fill="black"/>
<path d="M205.817 309.569C205.817 333.593 203.817 366.069 185.817 353.069C162.817 363.069 166.817 333.593 166.817 309.569C166.817 285.544 164.317 236.569 185.817 266.069C221.317 264.069 205.817 285.544 205.817 309.569Z" fill="black"/>
<path d="M216.317 317.069C216.317 330.069 212.064 332.069 206.817 332.069C201.57 332.069 197.317 325.353 197.317 317.069C197.317 308.784 197.317 291.069 206.817 302.069C212.064 302.069 218.317 304.569 216.317 317.069Z" fill="black"/>
<path d="M242.317 280.069C242.317 283.935 231.796 287.069 218.817 287.069C205.838 287.069 195.317 283.935 195.317 280.069C195.317 276.203 205.838 273.069 218.817 273.069C244.317 254.069 242.317 276.203 242.317 280.069Z" fill="black"/>
<path d="M161.817 281.069C160.625 297.041 134.926 330.062 128.317 329.569C118.817 324.069 127.317 297.569 130.817 273.569C145.317 205.569 140.991 245.469 147.6 245.962C163.317 241.569 163.198 262.569 161.817 281.069Z" fill="black"/>
<path d="M176.317 316.069C176.317 327.115 176.317 340.069 149.817 336.069C129.317 340.069 123.317 327.115 123.317 316.069C123.317 305.023 139.682 304.069 154.317 304.069C173.817 308.569 176.317 305.023 176.317 316.069Z" fill="black"/>
<path d="M214.817 345.069C220.817 364.069 198.691 360.069 186.817 360.069C168.817 362.569 165.317 352.234 165.317 342.569C161.817 323.569 174.943 325.069 186.817 325.069C214.817 317.069 214.817 335.404 214.817 345.069Z" fill="black"/>
<path d="M287.817 339.069C290.817 357.569 272.139 355.069 260.817 355.069C228.317 350.569 240.317 347.01 240.317 337.069C240.317 327.128 249.495 319.069 260.817 319.069C291.317 320.569 287.817 329.128 287.817 339.069Z" fill="black"/>
<path d="M284.317 43.0689C284.317 48.5918 275.422 73.0689 274.317 73.0689C243.817 45.0689 262.817 45.5688 272.817 38.5688C283.317 27.5686 285.713 29.0689 286.817 29.0689C287.922 29.0689 284.317 37.5461 284.317 43.0689Z" fill="black"/>
<path d="M160.317 299.069C160.317 307.353 158.079 314.069 155.317 314.069C152.556 314.069 150.317 307.353 150.317 299.069C150.317 290.785 152.556 284.069 155.317 284.069C158.079 284.069 163.817 264.569 160.317 299.069Z" fill="black"/>
<path d="M277.817 86.0688C277.817 88.278 275.817 90.0688 273.317 88.0688C271.66 88.0688 270.317 85.278 270.317 83.0688C270.317 80.8597 269.66 76.0688 271.317 76.0688C272.974 76.0688 277.817 83.8597 277.817 86.0688Z" fill="black"/>
<path d="M283.817 157.069C260.817 178.569 255.827 198.069 229.317 198.069C185.817 185.569 168.817 178.069 165.317 125.069C163.37 95.5858 202.807 91.0688 229.317 91.0688C265.817 53.0688 280.317 113.569 283.817 157.069Z" fill="black"/>
<path d="M273.817 75.5688C273.817 92.4135 245.484 106.069 217.317 106.069C189.151 106.069 151.817 183.069 166.317 75.5688C166.317 58.7242 212.151 31.0688 240.317 31.0688C268.484 31.0688 281.817 61.5688 273.817 75.5688Z" fill="black"/>
<path d="M275.817 100.069C283.817 153.569 272.079 123.069 269.317 123.069C266.556 123.069 264.317 111.876 264.317 98.0688C264.317 84.2617 266.556 73.0688 269.317 73.0688C272.079 73.0688 271.817 86.0688 275.817 100.069Z" fill="black"/>
</svg>
