<svg width="383" height="275" viewBox="0 0 383 275" fill="none" xmlns="http://www.w3.org/2000/svg">
<path d="M264.693 10C267.193 17.5 274.693 23.5 253.693 20C236.693 23 241.193 18.5 242.693 10C242.693 4.47715 248.723 0 253.693 0C258.664 0 262.693 4 264.693 10Z" fill="#FFCC33"/>
<path d="M307.693 109C310.193 164 337.693 210.5 258.193 210.5C182.193 210.5 204.693 178.5 206.693 109C206.693 57.6374 206.693 12.9999 257.193 15.9999C298.193 15.9999 298.693 57.9999 307.693 109Z" fill="#FFCC33"/>
<path d="M252.693 236C255.443 240.176 243.193 243 229.193 243.5C215.193 245 196.693 245.5 196.693 239C194.693 233.5 213.693 224.5 229.193 228.5C242.724 228.5 239.193 215.5 252.693 236Z" fill="#FFCC33"/>
<path d="M240.337 217.819C244.193 227 252.053 236.053 249.193 237C246.333 237.947 232.931 230.161 229.98 221.248C225.193 203.395 226.955 204.342 229.815 203.395C232.675 202.448 236.693 196 240.337 217.819Z" fill="#FFCC33"/>
<path d="M262.082 235.821C259.332 239.997 271.582 242.821 285.582 243.321C299.582 244.821 318.082 245.321 318.082 238.821C320.082 233.321 301.082 224.321 285.582 228.321C272.051 228.321 275.582 215.321 262.082 235.821Z" fill="#FFCC33"/>
<path d="M274.439 217.64C270.582 226.821 262.722 235.874 265.582 236.821C268.442 237.768 281.845 229.982 284.796 221.069C289.582 203.216 287.821 204.163 284.961 203.216C282.101 202.269 278.082 195.821 274.439 217.64Z" fill="#FFCC33"/>
<path d="M193.693 117C193.693 125.284 196.693 133 193.693 133C191.193 134 188.693 128 188.693 117C188.693 108.716 190.589 102 191.693 102C192.798 102 193.693 108.716 193.693 117Z" fill="#FFCC33"/>
<path d="M187.693 115.5C185.401 123.461 187.451 131.294 184.693 130.5C182.118 130.8 181.15 124.071 184.193 113.5C186.485 105.539 189.042 99.5018 190.057 99.7941C191.072 100.086 189.985 107.539 187.693 115.5Z" fill="#FFCC33"/>
<path d="M182.693 115.5C177.962 122.301 177.549 128.139 175.193 126.5C173.362 125.226 173.912 121.53 180.194 112.5C184.924 105.7 189.097 100.449 189.965 101.053C190.832 101.656 187.424 108.699 182.693 115.5Z" fill="#FFCC33"/>
<path d="M198.168 107.883C202.693 113.5 206.693 117.5 203.693 120.5C200.193 123.5 197.552 116.665 193.688 110.869C189.825 105.073 187.456 98.8244 188.694 97.9999C189.693 93.4999 195.693 105 198.168 107.883Z" fill="#FFCC33"/>
<path d="M190.688 112.75C190.688 114.407 190.693 119 188.193 114.5C185.198 119.25 185.688 114.407 185.688 112.75C185.688 111.093 186.808 109.75 188.188 109.75C189.569 109.75 190.688 111.093 190.688 112.75Z" fill="#FFCC33"/>
<path d="M197.116 110.5C197.648 112.069 199.132 116.416 194.475 113.245C191.193 120 191.229 114.249 190.696 112.68C190.163 111.111 191.169 109.352 192.941 108.75C194.714 108.148 196.583 108.931 197.116 110.5Z" fill="#FFCC33"/>
<path d="M185.322 114.651C185.108 115.609 184.518 118.263 183.141 115.225C179.4 117.63 181.19 114.733 181.404 113.776C181.618 112.818 182.669 112.238 183.75 112.48C184.832 112.722 185.536 113.694 185.322 114.651Z" fill="#FFCC33"/>
<path d="M202.193 79.4999C196.834 87.2051 186.193 107.5 187.693 108C186.716 106.662 188.193 79.7947 198.014 74.9496C204.78 70.0068 212.693 62.9999 212.036 68.4224C216.193 71.9999 208.96 74.5571 202.193 79.4999Z" fill="#FFCC33"/>
<path d="M195.128 96.4658C193.193 109.5 198.693 111 190.027 107.51C174.193 118.5 187.485 101.827 188.461 95.4457C189.437 89.0646 191.721 84.1199 193.563 84.4016C195.404 84.6833 197.193 83.4999 195.128 96.4658Z" fill="#FFCC33"/>
<path d="M320.584 115.991C321.145 124.257 318.673 132.157 321.666 131.955C324.228 132.783 326.317 126.628 325.573 115.653C325.013 107.388 322.668 100.816 321.566 100.89C320.464 100.965 320.024 107.726 320.584 115.991Z" fill="#FFCC33"/>
<path d="M326.469 114.089C329.294 121.877 327.779 129.83 330.477 128.852C333.066 128.976 333.577 122.198 329.826 111.857C327.001 104.069 324.042 98.2184 323.049 98.5787C322.056 98.939 323.644 106.301 326.469 114.089Z" fill="#FFCC33"/>
<path d="M331.458 113.751C336.638 120.216 337.445 126.013 339.684 124.219C341.425 122.824 340.627 119.174 333.749 110.589C328.569 104.124 324.051 99.1678 323.226 99.8285C322.401 100.489 326.278 107.286 331.458 113.751Z" fill="#FFCC33"/>
<path d="M315.503 107.198C311.368 113.108 307.648 117.369 310.844 120.16C314.539 122.916 316.712 115.918 320.175 109.874C323.637 103.83 325.578 97.4356 324.288 96.6966C322.986 92.2746 317.778 104.154 315.503 107.198Z" fill="#FFCC33"/>
<path d="M323.295 111.548C323.407 113.201 323.713 117.784 325.903 113.125C329.212 117.662 328.396 112.863 328.284 111.21C328.172 109.557 326.964 108.292 325.587 108.386C324.209 108.479 323.183 109.895 323.295 111.548Z" fill="#FFCC33"/>
<path d="M316.73 109.738C316.305 111.339 315.119 115.776 319.551 112.298C323.282 118.815 322.857 113.08 323.283 111.479C323.708 109.877 322.586 108.189 320.777 107.709C318.968 107.228 317.156 108.136 316.73 109.738Z" fill="#FFCC33"/>
<path d="M328.778 113.082C329.056 114.023 329.824 116.632 330.993 113.507C334.887 115.653 332.906 112.884 332.627 111.943C332.349 111.003 331.262 110.495 330.199 110.809C329.136 111.124 328.5 112.141 328.778 113.082Z" fill="#FFCC33"/>
<path d="M309.568 79.152C315.436 86.4772 327.425 106.006 325.962 106.606C326.847 105.205 323.556 78.4995 313.431 74.3295C306.345 69.8556 297.977 63.3998 298.999 68.7654C295.093 72.6158 302.483 74.6781 309.568 79.152Z" fill="#FFCC33"/>
<path d="M317.764 95.6012C320.576 108.475 315.19 110.343 323.601 106.275C340.141 116.169 325.753 100.433 324.347 94.1327C322.942 87.8321 320.329 83.0532 318.511 83.4588C316.693 83.8643 314.827 82.8046 317.764 95.6012Z" fill="#FFCC33"/>
<ellipse cx="242.174" cy="33.7751" rx="6.5" ry="8.5" fill="white"/>
<circle cx="242.174" cy="35.7751" r="2.5" fill="black"/>
<circle cx="241.424" cy="35.0251" r="0.75" fill="white"/>
<ellipse cx="262.174" cy="32.7751" rx="6.5" ry="8.5" fill="white"/>
<circle cx="262.174" cy="34.7751" r="2.5" fill="black"/>
<circle cx="261.424" cy="34.0251" r="0.75" fill="white"/>
<path d="M247.674 20.4326C247.674 20.9326 243.788 20.7301 240.353 21.7753C233.353 25.7753 233.254 26.0385 233.173 25.7743C233.093 25.5101 235.173 20.7743 239.173 19.7742C242.673 18.2743 248.174 19.9326 247.674 20.4326Z" fill="#787262"/>
<path d="M271.174 25.2752C270.796 25.6032 268.715 23.182 265.674 21.2752C261.174 19.2752 257.674 19.7752 257.661 18.8439C257.808 18.6099 263.174 16.7752 267.674 19.7752C271.174 21.7751 271.879 25.3246 271.174 25.2752Z" fill="#787262"/>
<path d="M274.174 50.2752C275.674 50.7752 266.891 58.7134 256.174 59.7752C245.457 60.837 234.674 56.7752 235.174 55.7752C235.119 55.2256 245.362 58.2595 256.079 57.1977C266.796 56.1359 274.119 49.7256 274.174 50.2752Z" fill="#693624"/>
<path d="M177.534 27.5C193.034 45.5 170.534 65 143.534 74C122.034 66.5 95.0344 46.5 110.534 29.5C119.034 13.5 123.772 10 143.534 10C163.297 10 166.572 14.7693 177.534 27.5Z" fill="#804317"/>
<path d="M199.534 135.5C199.534 162.01 174.686 183.5 144.034 183.5C113.383 183.5 88.5344 162.01 88.5344 135.5C88.5344 108.99 109.534 86.5 141.534 48C172.534 80.5 199.534 108.99 199.534 135.5Z" fill="#804317"/>
<path d="M164.221 71.1602C176.721 94.1602 156.095 80.1602 144.221 80.1602C132.347 80.1602 114.221 88.1602 124.221 71.1602C110.034 33.5 132.347 61.1602 144.221 61.1602C156.095 61.1602 171.034 39.5 164.221 71.1602Z" fill="#804317"/>
<ellipse cx="181" cy="105.955" rx="12.9922" ry="8.44213" transform="rotate(29.5599 181 105.955)" fill="#804317"/>
<path d="M160.034 52.5517C160.034 53.104 151.034 61.5517 144.034 61.0517C136.534 61.5517 127.534 53.104 127.534 52.5517C127.534 51.9994 136.855 56.0517 144.034 56.0517C151.214 56.0517 160.034 51.9994 160.034 52.5517Z" fill="black"/>
<circle cx="158.534" cy="34.5" r="12" fill="white"/>
<circle cx="158.534" cy="34.5" r="9" fill="#7FBC6C"/>
<circle cx="158.534" cy="34.5" r="6" fill="black"/>
<circle cx="156.034" cy="32" r="1.5" fill="white"/>
<circle cx="127.534" cy="34.5" r="12" fill="white"/>
<circle cx="127.534" cy="34.5" r="9" fill="#7FBC6C"/>
<circle cx="127.534" cy="34.5" r="6" fill="black"/>
<circle cx="125.034" cy="32" r="1.5" fill="white"/>
<rect x="91.4698" y="73.4592" width="25.7063" height="7" transform="rotate(43.5672 91.4698 73.4592)" fill="#804317"/>
<rect width="30.5753" height="7.12762" transform="matrix(-0.795261 -0.606267 0.620877 -0.783908 209.36 126.274)" fill="#804317"/>
<rect width="7.18078" height="14.9059" transform="matrix(-0.900689 0.434464 -0.445326 -0.895369 220.289 134.052)" fill="#804317"/>
<circle cx="83.6691" cy="59.1717" r="5.5" transform="rotate(5.60431 83.6691 59.1717)" fill="#804317"/>
<ellipse cx="97.6834" cy="52.9104" rx="2.29045" ry="3.5" transform="rotate(23.2645 97.6834 52.9104)" fill="#804317"/>
<ellipse cx="90.4249" cy="58.589" rx="3.15428" ry="9.53382" transform="rotate(56.1035 90.4249 58.589)" fill="#804317"/>
<path d="M90.6578 48.6243C88.6074 57.9452 86.7455 57.1105 85.4187 56.7456C84.0918 56.3807 82.8751 53.596 85.853 47.3028C87.5143 41.262 89.9367 36.6608 91.2635 37.0257C92.5904 37.3906 92.3192 42.5835 90.6578 48.6243Z" fill="#804317"/>
<path d="M83.5846 48.6747C84.6491 53.964 83.7581 56.3156 81.7313 56.3872C80.3435 56.4362 77.5824 54.8882 78.5589 48.8521C78.3589 43.1869 79.3218 38.5546 80.7096 38.5056C82.0974 38.4566 83.3846 43.0095 83.5846 48.6747Z" fill="#804317"/>
<path d="M77.8349 52.0682C81.9716 55.9909 80.9955 59.885 79.4584 60.5034C77.9213 61.1218 75.0877 57.6772 73.1295 52.8096C71.1713 47.942 70.8299 43.4948 72.367 42.8764C73.9041 42.258 75.8767 47.2006 77.8349 52.0682Z" fill="#804317"/>
<ellipse cx="80.5365" cy="61.1402" rx="2.31925" ry="12.0791" transform="rotate(-29.7179 80.5365 61.1402)" fill="#804317"/>
<ellipse cx="86.4498" cy="69.4259" rx="3.84662" ry="12.6188" transform="rotate(-20.1618 86.4498 69.4259)" fill="#804317"/>
<circle cx="217.345" cy="139.152" r="5.5" transform="rotate(166.604 217.345 139.152)" fill="#804317"/>
<ellipse cx="206.133" cy="149.635" rx="2.29045" ry="3.5" transform="rotate(-175.736 206.133 149.635)" fill="#804317"/>
<ellipse cx="211.147" cy="141.903" rx="3.15428" ry="9.53382" transform="rotate(-142.897 211.147 141.903)" fill="#804317"/>
<path d="M214.171 151.4C213.075 141.92 215.107 142.103 216.481 142.016C217.854 141.929 219.911 144.166 219.145 151.085C219.54 157.338 218.748 162.477 217.375 162.564C216.001 162.651 214.567 157.653 214.171 151.4Z" fill="#804317"/>
<path d="M220.843 149.05C218.114 144.395 218.191 141.881 220.084 141.154C221.38 140.656 224.495 141.22 225.537 147.246C227.57 152.537 228.168 157.23 226.872 157.729C225.576 158.227 222.876 154.341 220.843 149.05Z" fill="#804317"/>
<path d="M225.174 143.969C219.986 141.607 219.641 137.607 220.893 136.522C222.145 135.437 225.946 137.771 229.382 141.736C232.818 145.701 234.589 149.795 233.337 150.88C232.085 151.965 228.611 147.934 225.174 143.969Z" fill="#804317"/>
<path d="M171.534 194.5C170.034 207 170.534 213.5 165.353 216.5C160.267 216.833 160.034 209 162.534 195.5C161.034 183.5 158.534 171 165.353 173.433C170.439 173.1 170.758 182.651 171.534 194.5Z" fill="#804317"/>
<path d="M116.533 193.558C118.273 181.089 117.898 174.58 123.136 171.681C128.228 171.445 128.31 179.282 125.551 192.731C126.819 204.758 129.078 217.303 122.307 214.74C117.216 214.975 117.081 205.419 116.533 193.558Z" fill="#804317"/>
<path d="M131.534 217.5C131.978 221.062 122.259 223.038 114.534 224C106.809 226.291 97.9778 225.062 97.5343 221.5C97.0908 217.938 104.31 210.462 112.034 209.5C119.759 208.538 131.091 213.938 131.534 217.5Z" fill="#804317"/>
<path d="M82.6155 218.261C82.0847 211.659 87.6001 207.419 99.0344 206.5C111.281 207.335 122.991 207.461 123.281 215.335C124.534 223.5 111.781 224.835 100.703 227.248C89.2682 228.167 83.2979 226.749 82.6155 218.261Z" fill="#804317"/>
<path d="M132.534 216C132.534 219.5 129.162 221.5 122.534 221.5C115.907 221.5 110.534 219.038 110.534 216C110.534 212.962 115.907 210.5 122.534 210.5C129.162 210.5 132.534 211.5 132.534 216Z" fill="#804317"/>
<path d="M159.451 215.767C159.258 212.115 169.092 210.819 176.865 210.408C184.732 208.646 193.456 210.542 193.649 214.195C193.842 217.848 186.117 224.916 178.344 225.327C170.571 225.738 159.644 219.42 159.451 215.767Z" fill="#804317"/>
<path d="M208.292 217.938C208.35 224.272 202.546 227.945 191.075 228.05C178.919 226.427 167.249 225.516 167.521 217.984C166.854 210.11 179.669 209.697 190.892 208.143C202.363 208.037 208.217 209.794 208.292 217.938Z" fill="#804317"/>
<path d="M158.342 217.103C158.591 213.612 162.097 211.856 168.707 212.327C175.318 212.797 180.502 215.635 180.287 218.665C180.071 221.694 174.537 223.769 167.927 223.299C161.316 222.829 158.023 221.592 158.342 217.103Z" fill="#804317"/>
<path d="M128.747 170C134.247 211.5 146.747 246.5 84.7474 248.5C21.7474 248.5 24.7473 200.5 35.7473 166.5C49.3281 124.523 67.2473 102 84.7474 94.5C105.247 94.5 123.048 127 128.747 170Z" fill="#B2CA36"/>
<path d="M98.2473 85.5C97.7473 94 94.5 97.5 91.5 96C86.5 95.5 87.7473 93.8366 87.7473 85C91.2473 77.5 85.3666 69 86.7473 69C88.128 69 95.7473 73.5 98.2473 85.5Z" fill="#909A39"/>
<path d="M92.517 89.7752C93.4226 98.2416 88.1513 94.8424 87.2473 95.5001C84.5 95.5001 83.2473 97.5001 83.2473 90.5002C83.2473 87.5002 84.2473 86.0002 78.4586 75.3926C80.7473 75 84.7473 81.5 92.517 89.7752Z" fill="#7E8732"/>
<path d="M64.711 252C64.8137 258.448 66.7142 264.954 64.711 264.825C62.7077 264.696 56.2473 264.825 56.7477 250.693C58.2249 238.816 59.0784 239.813 61.0817 239.942C63.085 240.071 67.8802 238.022 64.711 252Z" fill="#B2CA36"/>
<path d="M66.2473 263C66.7473 265.497 59.7554 269.503 51.7473 269.503C43.7391 269.503 36.7473 267.092 36.7473 263.503C36.7473 259.913 41.0326 254.259 49.2473 256.5C60.2473 259.5 65.7473 254 66.2473 263Z" fill="#B2CA36"/>
<path d="M105.64 252.937C105.537 259.385 103.637 265.891 105.64 265.762C107.643 265.633 114.104 265.762 113.603 251.63C114.747 245 115.607 239.871 113.603 240C111.6 240.129 104.247 235 105.64 252.937Z" fill="#B2CA36"/>
<path d="M103.247 264.44C102.747 266.938 108.239 269.5 116.247 269.5C124.247 268 133.604 268.03 133.604 264.44C133.604 260.85 129.318 255.197 121.104 257.437C110.104 260.437 103.747 255.44 103.247 264.44Z" fill="#B2CA36"/>
<path d="M110 154.5C110 161.404 107.5 168 99.5 168C95.3579 168 92 161.404 92 154.5C92 147.596 95.3579 142 99.5 142C103.642 142 110 147.596 110 154.5Z" fill="white"/>
<path d="M106 154.737C106 157.091 104.119 159 101.799 159C99.4789 159 97.598 157.105 97.0729 154.737C96.5478 151.421 98.9537 150 101.274 150C103.594 150 106 151.067 106 154.737Z" fill="black"/>
<path d="M109 199.5C112.5 205.5 102 214.5 85 214.5C70.9167 214.5 63.5 211 58 204.5C59.5 202.5 70.9167 208.5 85 208.5C99.0833 208.5 109 198.119 109 199.5Z" fill="black"/>
<path d="M88 153.5C86.5 162 84 170 72.5 176.5C59 180 54 167.031 54 153.5C54 139.969 62.3873 129 71.5 129C81.5 129 88 139.969 88 153.5Z" fill="white"/>
<path d="M77 150C76 153.5 75.5 154.5 72 155.5C69 155 68.5 154 67.5 150C67.5 145.5 69.2386 144.5 72 144.5C74.7614 144.5 77 147.239 77 150Z" fill="black"/>
<path d="M134.318 202.975C134.318 207.669 147.318 243.475 84.3182 250.475C27.3182 246.475 29.3182 207.669 29.3182 202.975C29.3182 198.28 40.8182 218.474 84.3182 218.474C132.818 216.474 134.318 198.28 134.318 202.975Z" fill="white"/>
<path d="M24.695 212.942C22.2225 215.545 19.3182 216.474 18.1411 215.681C15.8182 214.474 18.0685 211.598 20.541 208.996C25.3182 205.474 28.6711 201.385 29.8182 202.474C30.9653 203.564 29.3182 204.474 24.695 212.942Z" fill="white"/>
<path d="M30.0282 202.434C30.1847 202.963 28.0259 203.879 24.3182 204.974C20.6106 206.069 18.3182 208.474 16.8183 205.975C16.6619 205.445 16.8182 202.474 21.3183 201.974C25.0259 200.879 29.8718 201.904 30.0282 202.434Z" fill="white"/>
<path d="M134.534 201.453C134.443 202.174 137.533 203.303 142.818 203.975C148.103 204.646 154.851 209.031 156.318 205.475C156.41 204.754 153.818 199.974 145.818 198.475C136.318 198.475 134.626 200.732 134.534 201.453Z" fill="white"/>
<path d="M145.318 212.474C150.818 217.974 151.481 221.89 152.742 221.185C155.32 220.247 154.056 212.41 150.318 208.474C143.818 200.474 135.999 200.349 134.852 201.439C131.818 204.321 138.818 206.974 145.318 212.474Z" fill="white"/>
<path d="M117.747 151.5C120.247 161.685 124.64 157.315 140.247 168.5C149.247 183.5 152.378 188.024 153.354 186.685C154.331 185.346 155.354 173.685 144.354 161.685C133.854 153.185 118.747 149 117.747 151.5Z" fill="#B2CA36"/>
<path d="M146.354 193.357C146.354 193.909 148.198 190.185 149.854 190.185C151.511 190.185 151.354 194.737 151.354 194.185C151.354 193.633 152.511 186.685 150.854 186.685C149.198 186.685 146.354 192.805 146.354 193.357Z" fill="#B2CA36"/>
<path d="M161.355 191.685C161.752 192.069 159.923 188.192 160.634 187.457C161.354 187.685 164.752 190.569 164.354 190.185C163.957 189.801 159.065 182.95 158.354 183.685C157.644 184.42 160.957 191.301 161.355 191.685Z" fill="#B2CA36"/>
<path d="M157.355 193.185C158.855 195.185 155.855 204.185 160.855 203.685C163.355 202.685 162.541 197.185 161.855 193.685C160.792 188.265 158.854 179.685 154.354 178.685C146.109 180.302 154.855 185.185 157.355 193.185Z" fill="#B2CA36"/>
<path d="M144.355 188.185C140.942 192.527 138.945 196.601 140.03 197.455C143.854 200.185 144.442 195.527 147.854 191.185C151.267 186.843 153.475 182.583 152.389 181.73C137.354 159.685 151.355 179.279 144.355 188.185Z" fill="#B2CA36"/>
<path d="M151.355 198.186C150.919 203.691 149.855 207.186 152.89 208.132C156.355 208.406 156.355 202.185 156.355 198.686C156.79 193.18 156.731 185.294 155.354 185.185C144.522 184.328 152.354 180.685 151.355 198.186Z" fill="#B2CA36"/>
<path d="M158.354 183.686C160.354 185.186 163.354 193.186 166.354 191.686C167.854 188.186 164.854 185.185 161.354 182.685C155.11 180.5 151.387 171.66 150.854 172.185C146.663 176.319 152.048 178.204 158.354 183.686Z" fill="#B2CA36"/>
<path d="M49.7473 150.5C50.7234 151.839 38.2878 160.679 28.2473 168C19.5323 180.395 16.2235 188.339 15.2473 187C14.2711 185.661 13.2473 174 24.2473 162C34.7473 153.5 48.7711 149.162 49.7473 150.5Z" fill="#B2CA36"/>
<path d="M22.2472 193.672C22.2472 194.224 20.4041 190.5 18.7472 190.5C17.0904 190.5 17.2472 195.052 17.2472 194.5C17.2472 193.948 16.0904 187 17.7473 187C19.4041 187 22.2472 193.119 22.2472 193.672Z" fill="#B2CA36"/>
<path d="M7.24715 192C6.8501 192.384 8.67859 188.507 7.96803 187.772C7.24724 188 3.85018 190.884 4.24723 190.5C4.64428 190.116 9.53669 183.265 10.2473 184C10.9578 184.735 7.6442 191.616 7.24715 192Z" fill="#B2CA36"/>
<path d="M11.2471 193.5C9.7471 195.5 12.7471 204.5 7.74705 204C5.24711 203 6.06068 197.5 6.74708 194C7.8099 188.58 9.74725 180 14.2473 179C22.4928 180.617 13.7472 185.5 11.2471 193.5Z" fill="#B2CA36"/>
<path d="M24.2471 188.5C27.6599 192.842 29.6571 196.916 28.5715 197.77C24.7473 200.5 24.16 195.842 20.7472 191.5C17.3344 187.158 15.1271 182.898 16.2126 182.045C31.2472 160 17.2471 179.594 24.2471 188.5Z" fill="#B2CA36"/>
<path d="M17.2471 198.501C17.6826 204.006 18.7471 207.501 15.712 208.447C12.2471 208.721 12.2472 202.5 12.2472 199.001C11.8116 193.495 11.8708 185.609 13.2473 185.5C24.0795 184.643 16.2473 181 17.2471 198.501Z" fill="#B2CA36"/>
<path d="M10.2475 184.001C8.24748 185.501 5.24748 193.501 2.24751 192.001C0.74748 188.501 3.74737 185.5 7.24738 183C13.4913 180.815 17.2147 171.975 17.7473 172.5C21.9387 176.634 16.554 178.519 10.2475 184.001Z" fill="#B2CA36"/>
<path d="M319.969 253.154C318.082 269.732 316.951 269.355 322.603 268.225C324.06 268.225 325.617 261.82 326.748 252.777C325.617 246.372 324.487 234.315 319.212 241.097C317.756 241.097 319.969 244.414 319.969 253.154Z" fill="#1C3471"/>
<path d="M315.444 268.225C315.444 271.993 320.921 272.746 326.748 272.746C332.574 272.746 345.587 272.06 345.587 269.355C345.21 262.196 325.617 259.936 322.603 260.312C320.719 254.661 315.068 265.588 315.444 268.225Z" fill="#1C3471"/>
<path d="M284.528 253.407C286.415 269.986 287.545 269.609 281.893 268.478C280.437 268.478 278.879 262.073 277.749 253.031C278.879 246.625 280.009 234.568 285.284 241.35C286.741 241.35 284.528 244.668 284.528 253.407Z" fill="#1C3471"/>
<path d="M289.052 268.478C289.052 272.246 283.575 272.999 277.749 272.999C271.922 272.999 258.91 272.313 258.91 269.608C259.287 262.45 278.879 260.189 281.893 260.566C283.777 254.914 289.429 265.841 289.052 268.478Z" fill="#1C3471"/>
<path d="M237.737 205.225C235.168 211.712 235.11 225.21 236.983 225.952C238.856 226.694 241.6 214.238 244.169 207.751C246.738 201.264 251.2 192.548 247.452 191.645C245.579 190.904 239.904 198.14 237.737 205.225Z" fill="#1C3471"/>
<path d="M227.654 229.28C226.844 235.575 226.729 241.232 228.351 241.603C231.366 242.734 231.194 236.356 232.496 230.677C233.798 224.998 238.263 218.992 236.64 218.62C234.757 217.867 228.956 223.601 227.654 229.28Z" fill="#1C3471"/>
<path d="M243.046 231.726C244.93 238.213 243.799 245.371 252.088 242.357C255.479 240.85 248.697 237.836 248.321 231.431C247.19 226.532 241.901 218.308 240.448 219.121C236.68 218.744 240.201 226.641 243.046 231.726Z" fill="#1C3471"/>
<path d="M231.82 235.925C232.334 242.251 234.222 247.982 235.887 248.009C239.07 248.489 236.752 242.113 236.847 236.287C236.942 230.462 238.682 220.531 237.017 220.504C235.018 220.158 231.915 230.1 231.82 235.925Z" fill="#1C3471"/>
<path d="M237.771 236.706C238.285 243.032 240.408 249.516 243.046 249.516C246.229 249.996 243.422 243.111 242.292 237.459C241.915 231.431 241.696 220.531 240.031 220.504C238.032 220.158 236.64 230.677 237.771 236.706Z" fill="#1C3471"/>
<path d="M241.162 233.314C242.128 233.275 241.539 230.677 242.292 230.3C243.046 230.677 243.046 232.938 244.553 232.938C244.553 232.313 242.956 229.17 241.915 229.17C240.875 229.17 241.162 232.69 241.162 233.314Z" fill="#1C3471"/>
<path d="M235.893 236.169C236.736 236.282 236.64 233.315 237.189 232.492C237.566 233.622 237.018 236.007 238.32 236.26C238.471 235.48 238.669 225.954 237.771 225.779C236.873 225.604 236.044 235.389 235.893 236.169Z" fill="#1C3471"/>
<path d="M230.763 236.24C231.607 236.354 231.511 233.386 232.06 232.563C232.437 233.694 231.889 236.078 233.19 236.331C233.342 235.551 233.54 226.025 232.641 225.85C231.743 225.676 230.915 235.46 230.763 236.24Z" fill="#1C3471"/>
<path d="M368.175 205.18C370.78 211.758 371.366 225.236 369.682 225.903C367.999 226.569 364.998 214.026 362.393 207.448C359.788 200.87 355.365 191.993 358.756 191.239C360.439 190.573 365.915 198.021 368.175 205.18Z" fill="#1C3471"/>
<path d="M379.423 229.027C380.232 235.322 380.348 240.979 378.725 241.351C375.711 242.481 375.882 236.103 374.58 230.424C373.279 224.745 368.813 218.739 370.436 218.367C372.32 217.614 378.121 223.348 379.423 229.027Z" fill="#1C3471"/>
<path d="M364.031 231.473C362.147 237.96 363.277 245.118 354.988 242.104C351.597 240.597 358.379 237.583 358.756 231.178C359.886 226.279 364.462 217.931 365.915 218.744C367.817 219.449 366.875 226.388 364.031 231.473Z" fill="#1C3471"/>
<path d="M375.256 235.672C374.742 241.998 372.854 247.729 371.189 247.756C368.006 248.236 370.325 241.86 370.23 236.034C370.135 230.209 368.395 220.278 370.059 220.251C372.058 219.905 375.161 229.847 375.256 235.672Z" fill="#1C3471"/>
<path d="M369.306 236.453C368.791 242.779 366.668 249.263 364.031 249.263C360.848 249.743 363.654 242.858 364.784 237.206C365.161 231.178 365.38 220.278 367.045 220.251C369.044 219.905 370.436 230.424 369.306 236.453Z" fill="#1C3471"/>
<path d="M365.915 233.062C364.948 233.022 365.538 230.424 364.784 230.047C364.031 230.424 364.031 232.685 362.524 232.685C362.524 232.06 364.121 228.917 365.161 228.917C366.201 228.917 365.915 232.437 365.915 233.062Z" fill="#1C3471"/>
<path d="M371.184 235.916C370.34 236.029 370.436 233.062 369.887 232.239C369.51 233.369 370.058 235.754 368.757 236.007C368.605 235.227 368.407 225.701 369.306 225.526C370.204 225.351 371.032 235.136 371.184 235.916Z" fill="#1C3471"/>
<path d="M376.313 235.987C375.469 236.101 375.565 233.133 375.017 232.31C374.64 233.441 375.187 235.825 373.886 236.078C373.735 235.298 373.537 225.772 374.435 225.597C375.333 225.423 376.162 235.207 376.313 235.987Z" fill="#1C3471"/>
<path d="M290.882 150.924C290.882 172.565 275.531 249.263 296.964 249.263C310.152 252.277 373.45 210.832 371.189 157.329C371.189 135.688 350.423 114 328.99 114C303.746 115.884 290.882 129.283 290.882 150.924Z" fill="#1C3471"/>
<path d="M304.287 260.419L277.749 237.61L327.107 235.322L304.287 260.419Z" fill="#1C3471"/>
<path d="M310.528 153.185C310.528 174.826 326.31 251.147 304.877 251.147C283.444 251.147 228.391 200.659 231.782 154.692C231.782 133.051 249.157 116.261 270.59 116.261C292.82 117.391 310.528 131.544 310.528 153.185Z" fill="#1C3471"/>
<path d="M318.064 135.476C318.064 136.309 329.367 134.723 338.787 136.607C356.495 142.258 362.147 157.785 362.147 156.953C362.524 155.069 355.365 131.708 336.526 129.448C325.976 128.317 318.064 134.644 318.064 135.476Z" fill="#0E1E42"/>
<path d="M287.545 135.476C287.545 136.309 275.111 133.969 267.199 136.23C256.17 136.23 243.085 157.031 243.085 156.199C243.085 155.367 250.621 131.332 269.46 129.071C280.488 129.071 287.545 134.644 287.545 135.476Z" fill="#0E1E42"/>
<path d="M329.744 214.223C330.121 214.976 316.687 231.178 303.37 231.178C288.675 232.308 281.893 223.642 282.27 222.135C282.459 221.381 289.298 228.164 302.616 228.164C316.18 226.887 329.744 213.599 329.744 214.223Z" fill="#812A35"/>
<path d="M304.906 172.024C304.152 189.732 318.221 205.934 332.787 205.934C347.353 205.934 359.915 191.239 357.654 172.024C357.654 155.793 343.586 139.244 329.019 139.244C314.453 139.244 304.906 155.793 304.906 172.024Z" fill="white"/>
<ellipse cx="6.02843" cy="6.40521" rx="6.02843" ry="6.40521" transform="matrix(-1 0 0 1 333.805 172.4)" fill="black"/>
<path d="M305.17 167.502C305.17 167.502 315.343 159.59 331.544 162.604C347.746 167.126 343.225 166.372 358.296 178.052C360.933 163.358 347.746 141.505 331.544 138.49C310.068 139.621 305.17 160.843 305.17 167.502Z" fill="#6785BE"/>
<circle cx="1.88388" cy="1.88388" r="1.88388" transform="matrix(-1 0 0 1 327.777 173.907)" fill="white"/>
<path d="M299.866 171.27C300.62 188.979 286.551 205.18 271.985 205.18C257.419 205.18 244.857 190.486 247.118 171.27C247.118 155.039 261.186 138.491 275.753 138.491C290.319 138.491 299.866 155.039 299.866 171.27Z" fill="white"/>
<ellipse cx="276.995" cy="178.052" rx="6.02843" ry="6.40521" fill="black"/>
<path d="M299.602 166.749C299.602 166.749 289.429 158.837 273.228 161.851C257.026 166.372 261.547 165.619 246.476 177.299C243.839 162.604 257.026 140.751 273.228 137.737C294.704 138.867 299.602 160.09 299.602 166.749Z" fill="#6785BE"/>
<circle cx="278.879" cy="175.038" r="1.88388" fill="white"/>
<ellipse cx="171.275" cy="187.534" rx="46.5" ry="45" fill="#DF2027"/>
<ellipse cx="135.275" cy="135.534" rx="19.5" ry="18" fill="#DF2027"/>
<path d="M153.775 147.034C156.162 152.808 153.122 156.197 147.891 158.36C142.66 160.522 139.662 162.808 137.275 157.034C110.775 145.534 134.016 139.612 139.247 137.449C144.479 135.287 158.775 119.534 153.775 147.034Z" fill="#DF2027"/>
<ellipse cx="207.411" cy="136.011" rx="19.5" ry="18.5569" transform="rotate(61.3405 207.411 136.011)" fill="#DF2027"/>
<path d="M204.775 157.034C200.853 161.898 197.635 158.87 193.228 155.317C188.822 151.764 185.378 150.23 189.3 145.366C186.682 116.597 203.025 134.15 207.431 137.704C211.838 141.257 231.303 148.233 204.775 157.034Z" fill="#DF2027"/>
<path d="M226.275 155.034C229.275 159.534 232.029 167.293 231.916 166.212C235.317 167.07 232.61 155.945 231.775 153.034C231.453 150.018 227.976 147.949 225.775 148.534C223.275 150.534 222.775 153.034 226.275 155.034Z" fill="#DF2027"/>
<path d="M246.775 153.034C244.303 156.439 238.169 162.683 237.275 162.034C236.381 161.385 240.303 154.439 242.775 151.034C245.247 147.629 247.362 144.346 249.345 145.708C251.275 147.034 249.247 149.629 246.775 153.034Z" fill="#DF2027"/>
<path d="M253.514 156.291C254.444 158.034 250.789 159.732 246.275 161.534C228.275 180.034 237.564 163.813 237.166 162.815C236.768 161.818 240.105 159.549 244.619 157.747C249.134 155.946 251.775 153.034 253.514 156.291Z" fill="#DF2027"/>
<path d="M239.153 149.524C238.593 153.695 234.775 169.034 234.775 167.534C231.275 169.534 233.093 153.695 233.653 149.525C234.213 145.354 235.383 141.776 237.775 142.034C240.103 142.286 239.713 145.354 239.153 149.524Z" fill="#DF2027"/>
<path d="M242.775 163.034C242.775 166.624 241.141 168.034 237.275 168.034C229.775 167.534 229.775 168.034 228.775 163.034C226.179 150.053 231.409 157.034 235.275 157.034C239.775 156.034 244.775 156.034 242.775 163.034Z" fill="#DF2027"/>
<path d="M241.775 153.034C241.377 153.761 239.775 158.534 237.53 157.126C236.56 156.596 236.097 155.578 236.494 154.851C238.775 151.534 237.775 154.851 238.275 156.034C239.275 156.534 242.172 152.308 241.775 153.034Z" fill="#DF2027"/>
<path d="M247.537 156.603C246.874 157.099 243.432 160.773 241.975 158.559C241.314 157.674 241.316 156.555 241.979 156.059C245.433 153.991 243.144 156.591 243.107 157.876C243.809 158.746 248.201 156.107 247.537 156.603Z" fill="#DF2027"/>
<path d="M233.496 151.648C233.641 152.464 235.378 157.189 232.746 157.496C231.659 157.69 230.659 157.186 230.514 156.37C230.275 149.034 231.775 151.034 232.644 156.179C233.275 156.034 233.351 150.833 233.496 151.648Z" fill="#DF2027"/>
<path d="M241.275 161.034C242.382 162.619 232.109 180.352 226.775 183.034C220.889 187.145 212.275 194.534 213.779 187.291C211.275 184.034 216.547 181.089 222.433 176.978C233.275 168.534 240.168 159.449 241.275 161.034Z" fill="#DF2027"/>
<path d="M232.177 169.965C230.932 172.736 226.144 177.425 225.275 177.034C225.275 176.034 227.784 171.322 229.029 168.551C230.534 165.201 231.988 163.851 232.857 164.241C233.726 164.632 233.422 167.195 232.177 169.965Z" fill="#DF2027"/>
<path d="M105.254 218.144C111.275 219.034 121.672 209.921 120.775 210.534C123.631 212.57 110.534 222.785 107.775 224.034C105.268 225.742 100.957 224.028 99.9775 221.973C99.8826 218.772 101.464 216.772 105.254 218.144Z" fill="#DF2027"/>
<path d="M105.775 228.034C108.468 224.801 115.775 217.534 116.614 220.071C117.463 220.778 113.088 227.448 110.395 230.681C107.702 233.915 105.373 237.05 103.485 235.559C101.648 234.108 103.082 231.268 105.775 228.034Z" fill="#DF2027"/>
<path d="M110.612 235.609C111.679 231.539 117.351 216.784 117.167 218.273C120.885 216.717 117.138 232.214 116.07 236.284C115.003 240.354 113.403 243.762 111.061 243.212C108.781 242.677 109.544 239.679 110.612 235.609Z" fill="#DF2027"/>
<path d="M121.471 215.423C124.138 216.263 124.771 217.912 123.787 221.034C120.882 228.214 122.785 245.534 118.285 230.534C115.312 220.622 108.275 227.534 111.882 219.714C112.284 215.846 116.778 212.17 121.471 215.423Z" fill="#DF2027"/>
<path d="M109.924 230.175C110.407 229.502 112.701 225.047 114.404 226.466C115.154 227.005 115.37 227.988 114.887 228.66C112.271 231.711 113.765 228.611 113.548 227.471C112.766 226.959 109.441 230.848 109.924 230.175Z" fill="#DF2027"/>
<path d="M105.924 223.449C106.643 223.038 110.51 219.814 111.684 222.19C112.232 223.149 112.093 224.26 111.373 224.67C107.692 226.299 110.282 223.999 110.477 222.729C109.887 221.779 105.205 223.86 105.924 223.449Z" fill="#DF2027"/>
<path d="M113.291 237.065C113.247 236.238 112.102 231.335 114.752 231.354C115.855 231.295 116.785 231.918 116.829 232.745C116.166 240.055 114.923 237.886 114.692 232.674C114.048 232.74 113.335 237.893 113.291 237.065Z" fill="#DF2027"/>
<path d="M113.053 232.793C111.604 231.514 117.408 211.859 121.96 207.995C126.711 202.613 133.215 187.278 133.46 194.672C136.661 197.247 132.358 207.475 127.607 212.858C119.06 223.619 114.502 234.072 113.053 232.793Z" fill="#DF2027"/>
<path d="M119.775 235.534C118.593 232.736 118.759 217.963 119.775 217.534C120.567 218.19 122.181 231.236 123.363 234.034C124.792 237.417 125.775 239.034 123.363 239.989C122.347 240.418 120.775 238.534 119.775 235.534Z" fill="#DF2027"/>
<path d="M130.585 266.345C108.816 254.07 121.275 257.034 130.585 253.534C131.816 238.534 132.775 228.534 139.775 217.534C142.558 219.103 140.579 260.397 138.816 263.524C137.053 266.651 133.368 267.914 130.585 266.345Z" fill="#DF2027"/>
<path d="M149.775 266.034C149.775 270.176 146.417 273.534 142.275 273.534C119.775 273.034 134.775 270.176 134.775 266.034C134.775 261.892 135.133 219.534 139.275 219.534C143.417 219.534 153.775 256.534 149.775 266.034Z" fill="#DF2027"/>
<path d="M135.775 263.034C146.275 268.034 139.275 273.534 118.775 274.534C108.275 275.534 103.275 270.938 103.275 264.034C103.275 257.131 109.772 250.72 115.772 251.22C134.775 258.034 131.775 259.034 135.775 263.034Z" fill="#DF2027"/>
<path d="M150.275 231.534C144.275 243.534 153.775 258.534 140.631 237.541C137.949 236.115 138.087 230.611 140.939 225.247C143.791 219.883 148.277 216.69 150.959 218.116C153.641 219.542 156.275 224.534 150.275 231.534Z" fill="#DF2027"/>
<path d="M213.193 266.345C234.962 254.07 222.503 257.034 213.193 253.534C211.962 238.534 210.275 225.034 203.275 214.034C188.775 218.534 203.199 260.397 204.962 263.524C206.725 266.651 210.411 267.914 213.193 266.345Z" fill="#DF2027"/>
<path d="M194.003 266.034C194.003 270.177 197.361 273.534 201.503 273.534C224.003 273.034 209.003 270.177 209.003 266.034C209.003 261.892 208.645 219.534 204.503 219.534C200.361 219.534 190.003 256.534 194.003 266.034Z" fill="#DF2027"/>
<path d="M208.003 263.034C197.503 268.034 204.503 273.534 225.003 274.534C235.503 275.534 240.503 270.938 240.503 264.034C240.503 257.131 234.006 250.72 228.006 251.22C209.003 258.034 212.003 259.034 208.003 263.034Z" fill="#DF2027"/>
<path d="M193.503 231.534C199.503 243.534 190.003 258.534 203.147 237.542C205.829 236.116 205.691 230.611 202.839 225.247C199.987 219.883 195.501 216.69 192.819 218.116C190.137 219.542 187.503 224.534 193.503 231.534Z" fill="#DF2027"/>
<ellipse cx="205.977" cy="135.063" rx="12" ry="11.5" transform="rotate(-153.332 205.977 135.063)" fill="url(#paint0_linear_363_1552)"/>
<ellipse cx="135.092" cy="134.901" rx="12" ry="11.5" transform="rotate(150.709 135.092 134.901)" fill="url(#paint1_linear_363_1552)"/>
<path d="M192.674 199.562C193.397 200.324 192.15 201.062 168.174 219.062C156.174 207.562 144.174 199.062 146.197 198.033C147.577 197.331 157.174 209.062 170.174 207.562C183.174 207.562 191.697 198.533 192.674 199.562Z" fill="#6A3126"/>
<path d="M178.674 214.062C177.174 216.062 173.816 219.062 169.674 219.062C164.674 220.062 162.674 217.062 150.674 202.062C152.674 203.062 165.532 209.062 169.674 209.062C175.674 211.062 199.674 192.562 178.674 214.062Z" fill="#6A3126"/>
<path d="M168.767 210.941C168.767 212.598 168.767 214.441 171.267 214.441C172.267 214.441 173.767 214.942 173.767 210.441C173.767 207.941 172.647 208.441 171.267 208.441C168.491 208.441 168.74 208.052 168.767 210.941Z" fill="white"/>
<path d="M169.24 210.831C169.24 212.488 169.24 214.331 166.74 214.331C164.267 213.941 163.767 212.941 164.267 210.441C164.293 208.052 165.386 208.441 166.767 208.441C169.542 208.441 169.267 207.941 169.24 210.831Z" fill="white"/>
<ellipse cx="187.092" cy="177.901" rx="15" ry="15.5" fill="white"/>
<circle cx="187.092" cy="178.401" r="12" fill="#DF2027"/>
<circle cx="187.092" cy="178.401" r="9" fill="black"/>
<circle cx="190.092" cy="175.401" r="3" fill="white"/>
<ellipse cx="153.092" cy="177.901" rx="15" ry="15.5" fill="white"/>
<circle cx="153.092" cy="178.401" r="12" fill="#DF2027"/>
<circle cx="153.092" cy="178.401" r="9" fill="black"/>
<circle cx="156.092" cy="175.401" r="3" fill="white"/>
<defs>
<linearGradient id="paint0_linear_363_1552" x1="205.977" y1="123.563" x2="205.977" y2="146.563" gradientUnits="userSpaceOnUse">
<stop stop-color="#D9D9D9" stop-opacity="0"/>
<stop offset="0.5" stop-opacity="0.1"/>
</linearGradient>
<linearGradient id="paint1_linear_363_1552" x1="135.092" y1="123.401" x2="135.092" y2="146.401" gradientUnits="userSpaceOnUse">
<stop stop-color="#D9D9D9" stop-opacity="0"/>
<stop offset="0.5" stop-opacity="0.1"/>
</linearGradient>
</defs>
</svg>
