<svg width="387" height="283" viewBox="0 0 387 283" fill="none" xmlns="http://www.w3.org/2000/svg">
<g filter="url(#filter0_d_363_1552)">
<path d="M267.693 10C270.193 17.5 277.693 23.5 256.693 20C239.693 23 244.193 18.5 245.693 10C245.693 4.47715 251.723 0 256.693 0C261.664 0 265.693 4 267.693 10Z" fill="#FFCC33"/>
<path d="M310.693 109C313.193 164 340.693 210.5 261.193 210.5C185.193 210.5 207.693 178.5 209.693 109C209.693 57.6374 209.693 12.9999 260.193 15.9999C301.193 15.9999 301.693 57.9999 310.693 109Z" fill="#FFCC33"/>
<path d="M255.693 236C258.443 240.176 246.193 243 232.193 243.5C218.193 245 199.693 245.5 199.693 239C197.693 233.5 216.693 224.5 232.193 228.5C245.724 228.5 242.193 215.5 255.693 236Z" fill="#FFCC33"/>
<path d="M243.337 217.819C247.193 227 255.053 236.053 252.193 237C249.333 237.947 235.931 230.161 232.98 221.248C228.193 203.395 229.955 204.342 232.815 203.395C235.675 202.448 239.693 196 243.337 217.819Z" fill="#FFCC33"/>
<path d="M265.082 235.821C262.332 239.997 274.582 242.821 288.582 243.321C302.582 244.821 321.082 245.321 321.082 238.821C323.082 233.321 304.082 224.321 288.582 228.321C275.051 228.321 278.582 215.321 265.082 235.821Z" fill="#FFCC33"/>
<path d="M277.439 217.64C273.582 226.821 265.722 235.874 268.582 236.821C271.442 237.768 284.845 229.982 287.796 221.069C292.582 203.216 290.821 204.163 287.961 203.216C285.101 202.269 281.082 195.821 277.439 217.64Z" fill="#FFCC33"/>
<path d="M196.693 117C196.693 125.284 199.693 133 196.693 133C194.193 134 191.693 128 191.693 117C191.693 108.716 193.589 102 194.693 102C195.798 102 196.693 108.716 196.693 117Z" fill="#FFCC33"/>
<path d="M190.693 115.5C188.401 123.461 190.451 131.294 187.693 130.5C185.118 130.8 184.15 124.071 187.193 113.5C189.485 105.539 192.042 99.5018 193.057 99.7941C194.072 100.086 192.985 107.539 190.693 115.5Z" fill="#FFCC33"/>
<path d="M185.693 115.5C180.962 122.301 180.549 128.139 178.193 126.5C176.362 125.226 176.912 121.53 183.194 112.5C187.924 105.7 192.097 100.449 192.965 101.053C193.832 101.656 190.424 108.699 185.693 115.5Z" fill="#FFCC33"/>
<path d="M201.168 107.883C205.693 113.5 209.693 117.5 206.693 120.5C203.193 123.5 200.552 116.665 196.688 110.869C192.825 105.073 190.456 98.8244 191.694 97.9999C192.693 93.4999 198.693 105 201.168 107.883Z" fill="#FFCC33"/>
<path d="M193.688 112.75C193.688 114.407 193.693 119 191.193 114.5C188.198 119.25 188.688 114.407 188.688 112.75C188.688 111.093 189.808 109.75 191.188 109.75C192.569 109.75 193.688 111.093 193.688 112.75Z" fill="#FFCC33"/>
<path d="M200.116 110.5C200.648 112.069 202.132 116.416 197.475 113.245C194.193 120 194.229 114.249 193.696 112.68C193.163 111.111 194.169 109.352 195.941 108.75C197.714 108.148 199.583 108.931 200.116 110.5Z" fill="#FFCC33"/>
<path d="M188.322 114.651C188.108 115.609 187.518 118.263 186.141 115.225C182.4 117.63 184.19 114.733 184.404 113.776C184.618 112.818 185.669 112.238 186.75 112.48C187.832 112.722 188.536 113.694 188.322 114.651Z" fill="#FFCC33"/>
<path d="M205.193 79.4999C199.834 87.2051 189.193 107.5 190.693 108C189.716 106.662 191.193 79.7947 201.014 74.9496C207.78 70.0068 215.693 62.9999 215.036 68.4224C219.193 71.9999 211.96 74.5571 205.193 79.4999Z" fill="#FFCC33"/>
<path d="M198.128 96.4658C196.193 109.5 201.693 111 193.027 107.51C177.193 118.5 190.485 101.827 191.461 95.4457C192.437 89.0646 194.721 84.1199 196.563 84.4016C198.404 84.6833 200.193 83.4999 198.128 96.4658Z" fill="#FFCC33"/>
<path d="M323.584 115.991C324.145 124.257 321.673 132.157 324.666 131.955C327.228 132.783 329.317 126.628 328.573 115.653C328.013 107.388 325.668 100.816 324.566 100.89C323.464 100.965 323.024 107.726 323.584 115.991Z" fill="#FFCC33"/>
<path d="M329.469 114.089C332.294 121.877 330.779 129.83 333.477 128.852C336.066 128.976 336.577 122.198 332.826 111.857C330.001 104.069 327.042 98.2184 326.049 98.5787C325.056 98.939 326.644 106.301 329.469 114.089Z" fill="#FFCC33"/>
<path d="M334.458 113.751C339.638 120.216 340.445 126.013 342.684 124.219C344.425 122.824 343.627 119.174 336.749 110.589C331.569 104.124 327.051 99.1678 326.226 99.8285C325.401 100.489 329.278 107.286 334.458 113.751Z" fill="#FFCC33"/>
<path d="M318.503 107.198C314.368 113.108 310.648 117.369 313.844 120.16C317.539 122.916 319.712 115.918 323.175 109.874C326.637 103.83 328.578 97.4356 327.288 96.6966C325.986 92.2746 320.778 104.154 318.503 107.198Z" fill="#FFCC33"/>
<path d="M326.295 111.548C326.407 113.201 326.713 117.784 328.903 113.125C332.212 117.662 331.396 112.863 331.284 111.21C331.172 109.557 329.964 108.292 328.587 108.386C327.209 108.479 326.183 109.895 326.295 111.548Z" fill="#FFCC33"/>
<path d="M319.73 109.738C319.305 111.339 318.119 115.776 322.551 112.298C326.282 118.815 325.857 113.08 326.283 111.479C326.708 109.877 325.586 108.189 323.777 107.709C321.968 107.228 320.156 108.136 319.73 109.738Z" fill="#FFCC33"/>
<path d="M331.778 113.082C332.056 114.023 332.824 116.632 333.993 113.507C337.887 115.653 335.906 112.884 335.627 111.943C335.349 111.003 334.262 110.495 333.199 110.809C332.136 111.124 331.5 112.141 331.778 113.082Z" fill="#FFCC33"/>
<path d="M312.568 79.152C318.436 86.4772 330.425 106.006 328.962 106.606C329.847 105.205 326.556 78.4995 316.431 74.3295C309.345 69.8556 300.977 63.3998 301.999 68.7654C298.093 72.6158 305.483 74.6781 312.568 79.152Z" fill="#FFCC33"/>
<path d="M320.764 95.6012C323.576 108.475 318.19 110.343 326.601 106.275C343.141 116.169 328.753 100.433 327.347 94.1327C325.942 87.8321 323.329 83.0532 321.511 83.4588C319.693 83.8643 317.827 82.8046 320.764 95.6012Z" fill="#FFCC33"/>
<ellipse cx="245.174" cy="33.7751" rx="6.5" ry="8.5" fill="white"/>
<circle cx="245.174" cy="35.7751" r="2.5" fill="black"/>
<circle cx="244.424" cy="35.0251" r="0.75" fill="white"/>
<ellipse cx="265.174" cy="32.7751" rx="6.5" ry="8.5" fill="white"/>
<circle cx="265.174" cy="34.7751" r="2.5" fill="black"/>
<circle cx="264.424" cy="34.0251" r="0.75" fill="white"/>
<path d="M250.674 20.4326C250.674 20.9326 246.788 20.7301 243.353 21.7753C236.353 25.7753 236.254 26.0385 236.173 25.7743C236.093 25.5101 238.173 20.7743 242.173 19.7742C245.673 18.2743 251.174 19.9326 250.674 20.4326Z" fill="#787262"/>
<path d="M274.174 25.2752C273.796 25.6032 271.715 23.182 268.674 21.2752C264.174 19.2752 260.674 19.7752 260.661 18.8439C260.808 18.6099 266.174 16.7752 270.674 19.7752C274.174 21.7751 274.879 25.3246 274.174 25.2752Z" fill="#787262"/>
<path d="M277.174 50.2752C278.674 50.7752 269.891 58.7134 259.174 59.7752C248.457 60.837 237.674 56.7752 238.174 55.7752C238.119 55.2256 248.362 58.2595 259.079 57.1977C269.796 56.1359 277.119 49.7256 277.174 50.2752Z" fill="#693624"/>
</g>
<g filter="url(#filter1_d_363_1552)">
<path d="M180.534 27.5C196.034 45.5 173.534 65 146.534 74C125.034 66.5 98.0344 46.5 113.534 29.5C122.034 13.5 126.772 10 146.534 10C166.297 10 169.572 14.7693 180.534 27.5Z" fill="#804317"/>
<path d="M202.534 135.5C202.534 162.01 177.686 183.5 147.034 183.5C116.383 183.5 91.5344 162.01 91.5344 135.5C91.5344 108.99 112.534 86.5 144.534 48C175.534 80.5 202.534 108.99 202.534 135.5Z" fill="#804317"/>
<path d="M167.221 71.1602C179.721 94.1602 159.095 80.1602 147.221 80.1602C135.347 80.1602 117.221 88.1602 127.221 71.1602C113.034 33.5 135.347 61.1602 147.221 61.1602C159.095 61.1602 174.034 39.5 167.221 71.1602Z" fill="#804317"/>
<ellipse cx="184" cy="105.955" rx="12.9922" ry="8.44213" transform="rotate(29.5599 184 105.955)" fill="#804317"/>
<path d="M163.034 52.5517C163.034 53.104 154.034 61.5517 147.034 61.0517C139.534 61.5517 130.534 53.104 130.534 52.5517C130.534 51.9994 139.855 56.0517 147.034 56.0517C154.214 56.0517 163.034 51.9994 163.034 52.5517Z" fill="black"/>
<circle cx="161.534" cy="34.5" r="12" fill="white"/>
<circle cx="161.534" cy="34.5" r="9" fill="#7FBC6C"/>
<circle cx="161.534" cy="34.5" r="6" fill="black"/>
<circle cx="159.034" cy="32" r="1.5" fill="white"/>
<circle cx="130.534" cy="34.5" r="12" fill="white"/>
<circle cx="130.534" cy="34.5" r="9" fill="#7FBC6C"/>
<circle cx="130.534" cy="34.5" r="6" fill="black"/>
<circle cx="128.034" cy="32" r="1.5" fill="white"/>
<rect x="94.4698" y="73.4592" width="25.7063" height="7" transform="rotate(43.5672 94.4698 73.4592)" fill="#804317"/>
<rect width="30.5753" height="7.12762" transform="matrix(-0.795261 -0.606267 0.620877 -0.783908 212.36 126.274)" fill="#804317"/>
<rect width="7.18078" height="14.9059" transform="matrix(-0.900689 0.434464 -0.445326 -0.895369 223.289 134.052)" fill="#804317"/>
<circle cx="86.6691" cy="59.1717" r="5.5" transform="rotate(5.60431 86.6691 59.1717)" fill="#804317"/>
<ellipse cx="100.683" cy="52.9104" rx="2.29045" ry="3.5" transform="rotate(23.2645 100.683 52.9104)" fill="#804317"/>
<ellipse cx="93.4249" cy="58.589" rx="3.15428" ry="9.53382" transform="rotate(56.1035 93.4249 58.589)" fill="#804317"/>
<path d="M93.6578 48.6243C91.6074 57.9452 89.7455 57.1105 88.4187 56.7456C87.0918 56.3807 85.8751 53.596 88.853 47.3028C90.5143 41.262 92.9367 36.6608 94.2635 37.0257C95.5904 37.3906 95.3192 42.5835 93.6578 48.6243Z" fill="#804317"/>
<path d="M86.5846 48.6747C87.6491 53.964 86.7581 56.3156 84.7313 56.3872C83.3435 56.4362 80.5824 54.8882 81.5589 48.8521C81.3589 43.1869 82.3218 38.5546 83.7096 38.5056C85.0974 38.4566 86.3846 43.0095 86.5846 48.6747Z" fill="#804317"/>
<path d="M80.8349 52.0682C84.9716 55.9909 83.9955 59.885 82.4584 60.5034C80.9213 61.1218 78.0877 57.6772 76.1295 52.8096C74.1713 47.942 73.8299 43.4948 75.367 42.8764C76.9041 42.258 78.8767 47.2006 80.8349 52.0682Z" fill="#804317"/>
<ellipse cx="83.5365" cy="61.1402" rx="2.31925" ry="12.0791" transform="rotate(-29.7179 83.5365 61.1402)" fill="#804317"/>
<ellipse cx="89.4498" cy="69.4259" rx="3.84662" ry="12.6188" transform="rotate(-20.1618 89.4498 69.4259)" fill="#804317"/>
<circle cx="220.345" cy="139.152" r="5.5" transform="rotate(166.604 220.345 139.152)" fill="#804317"/>
<ellipse cx="209.133" cy="149.635" rx="2.29045" ry="3.5" transform="rotate(-175.736 209.133 149.635)" fill="#804317"/>
<ellipse cx="214.147" cy="141.903" rx="3.15428" ry="9.53382" transform="rotate(-142.897 214.147 141.903)" fill="#804317"/>
<path d="M217.171 151.4C216.075 141.92 218.107 142.103 219.481 142.016C220.854 141.929 222.911 144.166 222.145 151.085C222.54 157.338 221.748 162.477 220.375 162.564C219.001 162.651 217.567 157.653 217.171 151.4Z" fill="#804317"/>
<path d="M223.843 149.05C221.114 144.395 221.191 141.881 223.084 141.154C224.38 140.656 227.495 141.22 228.537 147.246C230.57 152.537 231.168 157.23 229.872 157.729C228.576 158.227 225.876 154.341 223.843 149.05Z" fill="#804317"/>
<path d="M228.174 143.969C222.986 141.607 222.641 137.607 223.893 136.522C225.145 135.437 228.946 137.771 232.382 141.736C235.818 145.701 237.589 149.795 236.337 150.88C235.085 151.965 231.611 147.934 228.174 143.969Z" fill="#804317"/>
<path d="M174.534 194.5C173.034 207 173.534 213.5 168.353 216.5C163.267 216.833 163.034 209 165.534 195.5C164.034 183.5 161.534 171 168.353 173.433C173.439 173.1 173.758 182.651 174.534 194.5Z" fill="#804317"/>
<path d="M119.533 193.558C121.273 181.089 120.898 174.58 126.136 171.681C131.228 171.445 131.31 179.282 128.551 192.731C129.819 204.758 132.078 217.303 125.307 214.74C120.216 214.975 120.081 205.419 119.533 193.558Z" fill="#804317"/>
<path d="M134.534 217.5C134.978 221.062 125.259 223.038 117.534 224C109.809 226.291 100.978 225.062 100.534 221.5C100.091 217.938 107.31 210.462 115.034 209.5C122.759 208.538 134.091 213.938 134.534 217.5Z" fill="#804317"/>
<path d="M85.6155 218.261C85.0847 211.659 90.6001 207.419 102.034 206.5C114.281 207.335 125.991 207.461 126.281 215.335C127.534 223.5 114.781 224.835 103.703 227.248C92.2682 228.167 86.2979 226.749 85.6155 218.261Z" fill="#804317"/>
<path d="M135.534 216C135.534 219.5 132.162 221.5 125.534 221.5C118.907 221.5 113.534 219.038 113.534 216C113.534 212.962 118.907 210.5 125.534 210.5C132.162 210.5 135.534 211.5 135.534 216Z" fill="#804317"/>
<path d="M162.451 215.767C162.258 212.115 172.092 210.819 179.865 210.408C187.732 208.646 196.456 210.542 196.649 214.195C196.842 217.848 189.117 224.916 181.344 225.327C173.571 225.738 162.644 219.42 162.451 215.767Z" fill="#804317"/>
<path d="M211.292 217.938C211.35 224.272 205.546 227.945 194.075 228.05C181.919 226.427 170.249 225.516 170.521 217.984C169.854 210.11 182.669 209.697 193.892 208.143C205.363 208.037 211.217 209.794 211.292 217.938Z" fill="#804317"/>
<path d="M161.342 217.103C161.591 213.612 165.097 211.856 171.707 212.327C178.318 212.797 183.502 215.635 183.287 218.665C183.071 221.694 177.537 223.769 170.927 223.299C164.316 222.829 161.023 221.592 161.342 217.103Z" fill="#804317"/>
</g>
<g filter="url(#filter2_d_363_1552)">
<path d="M131.747 170C137.247 211.5 149.747 246.5 87.7474 248.5C24.7474 248.5 27.7473 200.5 38.7473 166.5C52.3281 124.523 70.2473 102 87.7474 94.5C108.247 94.5 126.048 127 131.747 170Z" fill="#B2CA36"/>
<path d="M101.247 85.5C100.747 94 97.5 97.5 94.5 96C89.5 95.5 90.7473 93.8366 90.7473 85C94.2473 77.5 88.3666 69 89.7473 69C91.128 69 98.7473 73.5 101.247 85.5Z" fill="#909A39"/>
<path d="M95.517 89.7752C96.4226 98.2416 91.1513 94.8424 90.2473 95.5001C87.5 95.5001 86.2473 97.5001 86.2473 90.5002C86.2473 87.5002 87.2473 86.0002 81.4586 75.3926C83.7473 75 87.7473 81.5 95.517 89.7752Z" fill="#7E8732"/>
<path d="M67.711 252C67.8137 258.448 69.7142 264.954 67.711 264.825C65.7077 264.696 59.2473 264.825 59.7477 250.693C61.2249 238.816 62.0784 239.813 64.0817 239.942C66.085 240.071 70.8802 238.022 67.711 252Z" fill="#B2CA36"/>
<path d="M69.2473 263C69.7473 265.497 62.7554 269.503 54.7473 269.503C46.7391 269.503 39.7473 267.092 39.7473 263.503C39.7473 259.913 44.0326 254.259 52.2473 256.5C63.2473 259.5 68.7473 254 69.2473 263Z" fill="#B2CA36"/>
<path d="M108.64 252.937C108.537 259.385 106.637 265.891 108.64 265.762C110.643 265.633 117.104 265.762 116.603 251.63C117.747 245 118.607 239.871 116.603 240C114.6 240.129 107.247 235 108.64 252.937Z" fill="#B2CA36"/>
<path d="M106.247 264.44C105.747 266.938 111.239 269.5 119.247 269.5C127.247 268 136.604 268.03 136.604 264.44C136.604 260.85 132.318 255.197 124.104 257.437C113.104 260.437 106.747 255.44 106.247 264.44Z" fill="#B2CA36"/>
<path d="M113 154.5C113 161.404 110.5 168 102.5 168C98.3579 168 95 161.404 95 154.5C95 147.596 98.3579 142 102.5 142C106.642 142 113 147.596 113 154.5Z" fill="white"/>
<path d="M109 154.737C109 157.091 107.119 159 104.799 159C102.479 159 100.598 157.105 100.073 154.737C99.5478 151.421 101.954 150 104.274 150C106.594 150 109 151.067 109 154.737Z" fill="black"/>
<path d="M112 199.5C115.5 205.5 105 214.5 88 214.5C73.9167 214.5 66.5 211 61 204.5C62.5 202.5 73.9167 208.5 88 208.5C102.083 208.5 112 198.119 112 199.5Z" fill="black"/>
<path d="M91 153.5C89.5 162 87 170 75.5 176.5C62 180 57 167.031 57 153.5C57 139.969 65.3873 129 74.5 129C84.5 129 91 139.969 91 153.5Z" fill="white"/>
<path d="M80 150C79 153.5 78.5 154.5 75 155.5C72 155 71.5 154 70.5 150C70.5 145.5 72.2386 144.5 75 144.5C77.7614 144.5 80 147.239 80 150Z" fill="black"/>
<path d="M137.318 202.975C137.318 207.669 150.318 243.475 87.3182 250.475C30.3182 246.475 32.3182 207.669 32.3182 202.975C32.3182 198.28 43.8182 218.474 87.3182 218.474C135.818 216.474 137.318 198.28 137.318 202.975Z" fill="white"/>
<path d="M27.695 212.942C25.2225 215.545 22.3182 216.474 21.1411 215.681C18.8182 214.474 21.0685 211.598 23.541 208.996C28.3182 205.474 31.6711 201.385 32.8182 202.474C33.9653 203.564 32.3182 204.474 27.695 212.942Z" fill="white"/>
<path d="M33.0282 202.434C33.1847 202.963 31.0259 203.879 27.3182 204.974C23.6106 206.069 21.3182 208.474 19.8183 205.975C19.6619 205.445 19.8182 202.474 24.3183 201.974C28.0259 200.879 32.8718 201.904 33.0282 202.434Z" fill="white"/>
<path d="M137.534 201.453C137.443 202.174 140.533 203.303 145.818 203.975C151.103 204.646 157.851 209.031 159.318 205.475C159.41 204.754 156.818 199.974 148.818 198.475C139.318 198.475 137.626 200.732 137.534 201.453Z" fill="white"/>
<path d="M148.318 212.474C153.818 217.974 154.481 221.89 155.742 221.185C158.32 220.247 157.056 212.41 153.318 208.474C146.818 200.474 138.999 200.349 137.852 201.439C134.818 204.321 141.818 206.974 148.318 212.474Z" fill="white"/>
<path d="M120.747 151.5C123.247 161.685 127.64 157.315 143.247 168.5C152.247 183.5 155.378 188.024 156.354 186.685C157.331 185.346 158.354 173.685 147.354 161.685C136.854 153.185 121.747 149 120.747 151.5Z" fill="#B2CA36"/>
<path d="M149.354 193.357C149.354 193.909 151.198 190.185 152.854 190.185C154.511 190.185 154.354 194.737 154.354 194.185C154.354 193.633 155.511 186.685 153.854 186.685C152.198 186.685 149.354 192.805 149.354 193.357Z" fill="#B2CA36"/>
<path d="M164.355 191.685C164.752 192.069 162.923 188.192 163.634 187.457C164.354 187.685 167.752 190.569 167.354 190.185C166.957 189.801 162.065 182.95 161.354 183.685C160.644 184.42 163.957 191.301 164.355 191.685Z" fill="#B2CA36"/>
<path d="M160.355 193.185C161.855 195.185 158.855 204.185 163.855 203.685C166.355 202.685 165.541 197.185 164.855 193.685C163.792 188.265 161.854 179.685 157.354 178.685C149.109 180.302 157.855 185.185 160.355 193.185Z" fill="#B2CA36"/>
<path d="M147.355 188.185C143.942 192.527 141.945 196.601 143.03 197.455C146.854 200.185 147.442 195.527 150.854 191.185C154.267 186.843 156.475 182.583 155.389 181.73C140.354 159.685 154.355 179.279 147.355 188.185Z" fill="#B2CA36"/>
<path d="M154.355 198.186C153.919 203.691 152.855 207.186 155.89 208.132C159.355 208.406 159.355 202.185 159.355 198.686C159.79 193.18 159.731 185.294 158.354 185.185C147.522 184.328 155.354 180.685 154.355 198.186Z" fill="#B2CA36"/>
<path d="M161.354 183.686C163.354 185.186 166.354 193.186 169.354 191.686C170.854 188.186 167.854 185.185 164.354 182.685C158.11 180.5 154.387 171.66 153.854 172.185C149.663 176.319 155.048 178.204 161.354 183.686Z" fill="#B2CA36"/>
<path d="M52.7473 150.5C53.7234 151.839 41.2878 160.679 31.2473 168C22.5323 180.395 19.2235 188.339 18.2473 187C17.2711 185.661 16.2473 174 27.2473 162C37.7473 153.5 51.7711 149.162 52.7473 150.5Z" fill="#B2CA36"/>
<path d="M25.2472 193.672C25.2472 194.224 23.4041 190.5 21.7472 190.5C20.0904 190.5 20.2472 195.052 20.2472 194.5C20.2472 193.948 19.0904 187 20.7473 187C22.4041 187 25.2472 193.119 25.2472 193.672Z" fill="#B2CA36"/>
<path d="M10.2471 192C9.8501 192.384 11.6786 188.507 10.968 187.772C10.2472 188 6.85018 190.884 7.24723 190.5C7.64428 190.116 12.5367 183.265 13.2473 184C13.9578 184.735 10.6442 191.616 10.2471 192Z" fill="#B2CA36"/>
<path d="M14.2471 193.5C12.7471 195.5 15.7471 204.5 10.7471 204C8.24711 203 9.06068 197.5 9.74708 194C10.8099 188.58 12.7473 180 17.2473 179C25.4928 180.617 16.7472 185.5 14.2471 193.5Z" fill="#B2CA36"/>
<path d="M27.2471 188.5C30.6599 192.842 32.6571 196.916 31.5715 197.77C27.7473 200.5 27.16 195.842 23.7472 191.5C20.3344 187.158 18.1271 182.898 19.2126 182.045C34.2472 160 20.2471 179.594 27.2471 188.5Z" fill="#B2CA36"/>
<path d="M20.2471 198.501C20.6826 204.006 21.7471 207.501 18.712 208.447C15.2471 208.721 15.2472 202.5 15.2472 199.001C14.8116 193.495 14.8708 185.609 16.2473 185.5C27.0795 184.643 19.2473 181 20.2471 198.501Z" fill="#B2CA36"/>
<path d="M13.2475 184.001C11.2475 185.501 8.24748 193.501 5.24751 192.001C3.74748 188.501 6.74737 185.5 10.2474 183C16.4913 180.815 20.2147 171.975 20.7473 172.5C24.9387 176.634 19.554 178.519 13.2475 184.001Z" fill="#B2CA36"/>
</g>
<g filter="url(#filter3_d_363_1552)">
<path d="M322.969 253.154C321.082 269.732 319.951 269.355 325.603 268.225C327.06 268.225 328.617 261.82 329.748 252.777C328.617 246.372 327.487 234.315 322.212 241.097C320.756 241.097 322.969 244.414 322.969 253.154Z" fill="#1C3471"/>
<path d="M318.444 268.225C318.444 271.993 323.921 272.746 329.748 272.746C335.574 272.746 348.587 272.06 348.587 269.355C348.21 262.196 328.617 259.936 325.603 260.312C323.719 254.661 318.068 265.588 318.444 268.225Z" fill="#1C3471"/>
<path d="M287.528 253.407C289.415 269.986 290.545 269.609 284.893 268.478C283.437 268.478 281.879 262.073 280.749 253.031C281.879 246.625 283.009 234.568 288.284 241.35C289.741 241.35 287.528 244.668 287.528 253.407Z" fill="#1C3471"/>
<path d="M292.052 268.478C292.052 272.246 286.575 272.999 280.749 272.999C274.922 272.999 261.91 272.313 261.91 269.608C262.287 262.45 281.879 260.189 284.893 260.566C286.777 254.914 292.429 265.841 292.052 268.478Z" fill="#1C3471"/>
<path d="M240.737 205.225C238.168 211.712 238.11 225.21 239.983 225.952C241.856 226.694 244.6 214.238 247.169 207.751C249.738 201.264 254.2 192.548 250.452 191.645C248.579 190.904 242.904 198.14 240.737 205.225Z" fill="#1C3471"/>
<path d="M230.654 229.28C229.844 235.575 229.729 241.232 231.351 241.603C234.366 242.734 234.194 236.356 235.496 230.677C236.798 224.998 241.263 218.992 239.64 218.62C237.757 217.867 231.956 223.601 230.654 229.28Z" fill="#1C3471"/>
<path d="M246.046 231.726C247.93 238.213 246.799 245.371 255.088 242.357C258.479 240.85 251.697 237.836 251.321 231.431C250.19 226.532 244.901 218.308 243.448 219.121C239.68 218.744 243.201 226.641 246.046 231.726Z" fill="#1C3471"/>
<path d="M234.82 235.925C235.334 242.251 237.222 247.982 238.887 248.009C242.07 248.489 239.752 242.113 239.847 236.287C239.942 230.462 241.682 220.531 240.017 220.504C238.018 220.158 234.915 230.1 234.82 235.925Z" fill="#1C3471"/>
<path d="M240.771 236.706C241.285 243.032 243.408 249.516 246.046 249.516C249.229 249.996 246.422 243.111 245.292 237.459C244.915 231.431 244.696 220.531 243.031 220.504C241.032 220.158 239.64 230.677 240.771 236.706Z" fill="#1C3471"/>
<path d="M244.162 233.314C245.128 233.275 244.539 230.677 245.292 230.3C246.046 230.677 246.046 232.938 247.553 232.938C247.553 232.313 245.956 229.17 244.915 229.17C243.875 229.17 244.162 232.69 244.162 233.314Z" fill="#1C3471"/>
<path d="M238.893 236.169C239.736 236.282 239.64 233.315 240.189 232.492C240.566 233.622 240.018 236.007 241.32 236.26C241.471 235.48 241.669 225.954 240.771 225.779C239.873 225.604 239.044 235.389 238.893 236.169Z" fill="#1C3471"/>
<path d="M233.763 236.24C234.607 236.354 234.511 233.386 235.06 232.563C235.437 233.694 234.889 236.078 236.19 236.331C236.342 235.551 236.54 226.025 235.641 225.85C234.743 225.676 233.915 235.46 233.763 236.24Z" fill="#1C3471"/>
<path d="M371.175 205.18C373.78 211.758 374.366 225.236 372.682 225.903C370.999 226.569 367.998 214.026 365.393 207.448C362.788 200.87 358.365 191.993 361.756 191.239C363.439 190.573 368.915 198.021 371.175 205.18Z" fill="#1C3471"/>
<path d="M382.423 229.027C383.232 235.322 383.348 240.979 381.725 241.351C378.711 242.481 378.882 236.103 377.58 230.424C376.279 224.745 371.813 218.739 373.436 218.367C375.32 217.614 381.121 223.348 382.423 229.027Z" fill="#1C3471"/>
<path d="M367.031 231.473C365.147 237.96 366.277 245.118 357.988 242.104C354.597 240.597 361.379 237.583 361.756 231.178C362.886 226.279 367.462 217.931 368.915 218.744C370.817 219.449 369.875 226.388 367.031 231.473Z" fill="#1C3471"/>
<path d="M378.256 235.672C377.742 241.998 375.854 247.729 374.189 247.756C371.006 248.236 373.325 241.86 373.23 236.034C373.135 230.209 371.395 220.278 373.059 220.251C375.058 219.905 378.161 229.847 378.256 235.672Z" fill="#1C3471"/>
<path d="M372.306 236.453C371.791 242.779 369.668 249.263 367.031 249.263C363.848 249.743 366.654 242.858 367.784 237.206C368.161 231.178 368.38 220.278 370.045 220.251C372.044 219.905 373.436 230.424 372.306 236.453Z" fill="#1C3471"/>
<path d="M368.915 233.062C367.948 233.022 368.538 230.424 367.784 230.047C367.031 230.424 367.031 232.685 365.524 232.685C365.524 232.06 367.121 228.917 368.161 228.917C369.201 228.917 368.915 232.437 368.915 233.062Z" fill="#1C3471"/>
<path d="M374.184 235.916C373.34 236.029 373.436 233.062 372.887 232.239C372.51 233.369 373.058 235.754 371.757 236.007C371.605 235.227 371.407 225.701 372.306 225.526C373.204 225.351 374.032 235.136 374.184 235.916Z" fill="#1C3471"/>
<path d="M379.313 235.987C378.469 236.101 378.565 233.133 378.017 232.31C377.64 233.441 378.187 235.825 376.886 236.078C376.735 235.298 376.537 225.772 377.435 225.597C378.333 225.423 379.162 235.207 379.313 235.987Z" fill="#1C3471"/>
<path d="M293.882 150.924C293.882 172.565 278.531 249.263 299.964 249.263C313.152 252.277 376.45 210.832 374.189 157.329C374.189 135.688 353.423 114 331.99 114C306.746 115.884 293.882 129.283 293.882 150.924Z" fill="#1C3471"/>
<path d="M307.287 260.419L280.749 237.61L330.107 235.322L307.287 260.419Z" fill="#1C3471"/>
<path d="M313.528 153.185C313.528 174.826 329.31 251.147 307.877 251.147C286.444 251.147 231.391 200.659 234.782 154.692C234.782 133.051 252.157 116.261 273.59 116.261C295.82 117.391 313.528 131.544 313.528 153.185Z" fill="#1C3471"/>
<path d="M321.064 135.476C321.064 136.309 332.367 134.723 341.787 136.607C359.495 142.258 365.147 157.785 365.147 156.953C365.524 155.069 358.365 131.708 339.526 129.448C328.976 128.317 321.064 134.644 321.064 135.476Z" fill="#0E1E42"/>
<path d="M290.545 135.476C290.545 136.309 278.111 133.969 270.199 136.23C259.17 136.23 246.085 157.031 246.085 156.199C246.085 155.367 253.621 131.332 272.46 129.071C283.488 129.071 290.545 134.644 290.545 135.476Z" fill="#0E1E42"/>
<path d="M332.744 214.223C333.121 214.976 319.687 231.178 306.37 231.178C291.675 232.308 284.893 223.642 285.27 222.135C285.459 221.381 292.298 228.164 305.616 228.164C319.18 226.887 332.744 213.599 332.744 214.223Z" fill="#812A35"/>
<path d="M307.906 172.024C307.152 189.732 321.221 205.934 335.787 205.934C350.353 205.934 362.915 191.239 360.654 172.024C360.654 155.793 346.586 139.244 332.019 139.244C317.453 139.244 307.906 155.793 307.906 172.024Z" fill="white"/>
<ellipse cx="6.02843" cy="6.40521" rx="6.02843" ry="6.40521" transform="matrix(-1 0 0 1 336.805 172.4)" fill="black"/>
<path d="M308.17 167.502C308.17 167.502 318.343 159.59 334.544 162.604C350.746 167.126 346.225 166.372 361.296 178.052C363.933 163.358 350.746 141.505 334.544 138.49C313.068 139.621 308.17 160.843 308.17 167.502Z" fill="#6785BE"/>
<circle cx="1.88388" cy="1.88388" r="1.88388" transform="matrix(-1 0 0 1 330.777 173.907)" fill="white"/>
<path d="M302.866 171.27C303.62 188.979 289.551 205.18 274.985 205.18C260.419 205.18 247.857 190.486 250.118 171.27C250.118 155.039 264.186 138.491 278.753 138.491C293.319 138.491 302.866 155.039 302.866 171.27Z" fill="white"/>
<ellipse cx="279.995" cy="178.052" rx="6.02843" ry="6.40521" fill="black"/>
<path d="M302.602 166.749C302.602 166.749 292.429 158.837 276.228 161.851C260.026 166.372 264.547 165.619 249.476 177.299C246.839 162.604 260.026 140.751 276.228 137.737C297.704 138.867 302.602 160.09 302.602 166.749Z" fill="#6785BE"/>
<circle cx="281.879" cy="175.038" r="1.88388" fill="white"/>
</g>
<g filter="url(#filter4_d_363_1552)">
<ellipse cx="174.275" cy="187.534" rx="46.5" ry="45" fill="#DF2027"/>
<ellipse cx="138.275" cy="135.534" rx="19.5" ry="18" fill="#DF2027"/>
<path d="M156.775 147.034C159.162 152.808 156.122 156.197 150.891 158.36C145.66 160.522 142.662 162.808 140.275 157.034C113.775 145.534 137.016 139.612 142.247 137.449C147.479 135.287 161.775 119.534 156.775 147.034Z" fill="#DF2027"/>
<ellipse cx="210.411" cy="136.011" rx="19.5" ry="18.5569" transform="rotate(61.3405 210.411 136.011)" fill="#DF2027"/>
<path d="M207.775 157.034C203.853 161.898 200.635 158.87 196.228 155.317C191.822 151.764 188.378 150.23 192.3 145.366C189.682 116.597 206.025 134.15 210.431 137.704C214.838 141.257 234.303 148.233 207.775 157.034Z" fill="#DF2027"/>
<path d="M229.275 155.034C232.275 159.534 235.029 167.293 234.916 166.212C238.317 167.07 235.61 155.945 234.775 153.034C234.453 150.018 230.976 147.949 228.775 148.534C226.275 150.534 225.775 153.034 229.275 155.034Z" fill="#DF2027"/>
<path d="M249.775 153.034C247.303 156.439 241.169 162.683 240.275 162.034C239.381 161.385 243.303 154.439 245.775 151.034C248.247 147.629 250.362 144.346 252.345 145.708C254.275 147.034 252.247 149.629 249.775 153.034Z" fill="#DF2027"/>
<path d="M256.514 156.291C257.444 158.034 253.789 159.732 249.275 161.534C231.275 180.034 240.564 163.813 240.166 162.815C239.768 161.818 243.105 159.549 247.619 157.747C252.134 155.946 254.775 153.034 256.514 156.291Z" fill="#DF2027"/>
<path d="M242.153 149.524C241.593 153.695 237.775 169.034 237.775 167.534C234.275 169.534 236.093 153.695 236.653 149.525C237.213 145.354 238.383 141.776 240.775 142.034C243.103 142.286 242.713 145.354 242.153 149.524Z" fill="#DF2027"/>
<path d="M245.775 163.034C245.775 166.624 244.141 168.034 240.275 168.034C232.775 167.534 232.775 168.034 231.775 163.034C229.179 150.053 234.409 157.034 238.275 157.034C242.775 156.034 247.775 156.034 245.775 163.034Z" fill="#DF2027"/>
<path d="M244.775 153.034C244.377 153.761 242.775 158.534 240.53 157.126C239.56 156.596 239.097 155.578 239.494 154.851C241.775 151.534 240.775 154.851 241.275 156.034C242.275 156.534 245.172 152.308 244.775 153.034Z" fill="#DF2027"/>
<path d="M250.537 156.603C249.874 157.099 246.432 160.773 244.975 158.559C244.314 157.674 244.316 156.555 244.979 156.059C248.433 153.991 246.144 156.591 246.107 157.876C246.809 158.746 251.201 156.107 250.537 156.603Z" fill="#DF2027"/>
<path d="M236.496 151.648C236.641 152.464 238.378 157.189 235.746 157.496C234.659 157.69 233.659 157.186 233.514 156.37C233.275 149.034 234.775 151.034 235.644 156.179C236.275 156.034 236.351 150.833 236.496 151.648Z" fill="#DF2027"/>
<path d="M244.275 161.034C245.382 162.619 235.109 180.352 229.775 183.034C223.889 187.145 215.275 194.534 216.779 187.291C214.275 184.034 219.547 181.089 225.433 176.978C236.275 168.534 243.168 159.449 244.275 161.034Z" fill="#DF2027"/>
<path d="M235.177 169.965C233.932 172.736 229.144 177.425 228.275 177.034C228.275 176.034 230.784 171.322 232.029 168.551C233.534 165.201 234.988 163.851 235.857 164.241C236.726 164.632 236.422 167.195 235.177 169.965Z" fill="#DF2027"/>
<path d="M108.254 218.144C114.275 219.034 124.672 209.921 123.775 210.534C126.631 212.57 113.534 222.785 110.775 224.034C108.268 225.742 103.957 224.028 102.977 221.973C102.883 218.772 104.464 216.772 108.254 218.144Z" fill="#DF2027"/>
<path d="M108.775 228.034C111.468 224.801 118.775 217.534 119.614 220.071C120.463 220.778 116.088 227.448 113.395 230.681C110.702 233.915 108.373 237.05 106.485 235.559C104.648 234.108 106.082 231.268 108.775 228.034Z" fill="#DF2027"/>
<path d="M113.612 235.609C114.679 231.539 120.351 216.784 120.167 218.273C123.885 216.717 120.138 232.214 119.07 236.284C118.003 240.354 116.403 243.762 114.061 243.212C111.781 242.677 112.544 239.679 113.612 235.609Z" fill="#DF2027"/>
<path d="M124.471 215.423C127.138 216.263 127.771 217.912 126.787 221.034C123.882 228.214 125.785 245.534 121.285 230.534C118.312 220.622 111.275 227.534 114.882 219.714C115.284 215.846 119.778 212.17 124.471 215.423Z" fill="#DF2027"/>
<path d="M112.924 230.175C113.407 229.502 115.701 225.047 117.404 226.466C118.154 227.005 118.37 227.988 117.887 228.66C115.271 231.711 116.765 228.611 116.548 227.471C115.766 226.959 112.441 230.848 112.924 230.175Z" fill="#DF2027"/>
<path d="M108.924 223.449C109.643 223.038 113.51 219.814 114.684 222.19C115.232 223.149 115.093 224.26 114.373 224.67C110.692 226.299 113.282 223.999 113.477 222.729C112.887 221.779 108.205 223.86 108.924 223.449Z" fill="#DF2027"/>
<path d="M116.291 237.065C116.247 236.238 115.102 231.335 117.752 231.354C118.855 231.295 119.785 231.918 119.829 232.745C119.166 240.055 117.923 237.886 117.692 232.674C117.048 232.74 116.335 237.893 116.291 237.065Z" fill="#DF2027"/>
<path d="M116.053 232.793C114.604 231.514 120.408 211.859 124.96 207.995C129.711 202.613 136.215 187.278 136.46 194.672C139.661 197.247 135.358 207.475 130.607 212.858C122.06 223.619 117.502 234.072 116.053 232.793Z" fill="#DF2027"/>
<path d="M122.775 235.534C121.593 232.736 121.759 217.963 122.775 217.534C123.567 218.19 125.181 231.236 126.363 234.034C127.792 237.417 128.775 239.034 126.363 239.989C125.347 240.418 123.775 238.534 122.775 235.534Z" fill="#DF2027"/>
<path d="M133.585 266.345C111.816 254.07 124.275 257.034 133.585 253.534C134.816 238.534 135.775 228.534 142.775 217.534C145.558 219.103 143.579 260.397 141.816 263.524C140.053 266.651 136.368 267.914 133.585 266.345Z" fill="#DF2027"/>
<path d="M152.775 266.034C152.775 270.176 149.417 273.534 145.275 273.534C122.775 273.034 137.775 270.176 137.775 266.034C137.775 261.892 138.133 219.534 142.275 219.534C146.417 219.534 156.775 256.534 152.775 266.034Z" fill="#DF2027"/>
<path d="M138.775 263.034C149.275 268.034 142.275 273.534 121.775 274.534C111.275 275.534 106.275 270.938 106.275 264.034C106.275 257.131 112.772 250.72 118.772 251.22C137.775 258.034 134.775 259.034 138.775 263.034Z" fill="#DF2027"/>
<path d="M153.275 231.534C147.275 243.534 156.775 258.534 143.631 237.541C140.949 236.115 141.087 230.611 143.939 225.247C146.791 219.883 151.277 216.69 153.959 218.116C156.641 219.542 159.275 224.534 153.275 231.534Z" fill="#DF2027"/>
<path d="M216.193 266.345C237.962 254.07 225.503 257.034 216.193 253.534C214.962 238.534 213.275 225.034 206.275 214.034C191.775 218.534 206.199 260.397 207.962 263.524C209.725 266.651 213.411 267.914 216.193 266.345Z" fill="#DF2027"/>
<path d="M197.003 266.034C197.003 270.177 200.361 273.534 204.503 273.534C227.003 273.034 212.003 270.177 212.003 266.034C212.003 261.892 211.645 219.534 207.503 219.534C203.361 219.534 193.003 256.534 197.003 266.034Z" fill="#DF2027"/>
<path d="M211.003 263.034C200.503 268.034 207.503 273.534 228.003 274.534C238.503 275.534 243.503 270.938 243.503 264.034C243.503 257.131 237.006 250.72 231.006 251.22C212.003 258.034 215.003 259.034 211.003 263.034Z" fill="#DF2027"/>
<path d="M196.503 231.534C202.503 243.534 193.003 258.534 206.147 237.542C208.829 236.116 208.691 230.611 205.839 225.247C202.987 219.883 198.501 216.69 195.819 218.116C193.137 219.542 190.503 224.534 196.503 231.534Z" fill="#DF2027"/>
<ellipse cx="208.977" cy="135.063" rx="12" ry="11.5" transform="rotate(-153.332 208.977 135.063)" fill="url(#paint0_linear_363_1552)"/>
<ellipse cx="138.092" cy="134.901" rx="12" ry="11.5" transform="rotate(150.709 138.092 134.901)" fill="url(#paint1_linear_363_1552)"/>
<path d="M195.674 199.562C196.397 200.324 195.15 201.062 171.174 219.062C159.174 207.562 147.174 199.062 149.197 198.033C150.577 197.331 160.174 209.062 173.174 207.562C186.174 207.562 194.697 198.533 195.674 199.562Z" fill="#6A3126"/>
<path d="M181.674 214.062C180.174 216.062 176.816 219.062 172.674 219.062C167.674 220.062 165.674 217.062 153.674 202.062C155.674 203.062 168.532 209.062 172.674 209.062C178.674 211.062 202.674 192.562 181.674 214.062Z" fill="#6A3126"/>
<path d="M171.767 210.941C171.767 212.598 171.767 214.441 174.267 214.441C175.267 214.441 176.767 214.942 176.767 210.441C176.767 207.941 175.647 208.441 174.267 208.441C171.491 208.441 171.74 208.052 171.767 210.941Z" fill="white"/>
<path d="M172.24 210.831C172.24 212.488 172.24 214.331 169.74 214.331C167.267 213.941 166.767 212.941 167.267 210.441C167.293 208.052 168.386 208.441 169.767 208.441C172.542 208.441 172.267 207.941 172.24 210.831Z" fill="white"/>
<ellipse cx="190.092" cy="177.901" rx="15" ry="15.5" fill="white"/>
<circle cx="190.092" cy="178.401" r="12" fill="#DF2027"/>
<circle cx="190.092" cy="178.401" r="9" fill="black"/>
<circle cx="193.092" cy="175.401" r="3" fill="white"/>
<ellipse cx="156.092" cy="177.901" rx="15" ry="15.5" fill="white"/>
<circle cx="156.092" cy="178.401" r="12" fill="#DF2027"/>
<circle cx="156.092" cy="178.401" r="9" fill="black"/>
<circle cx="159.092" cy="175.401" r="3" fill="white"/>
</g>
<defs>
<filter id="filter0_d_363_1552" x="173.276" y="0" width="174.196" height="252.451" filterUnits="userSpaceOnUse" color-interpolation-filters="sRGB">
<feFlood flood-opacity="0" result="BackgroundImageFix"/>
<feColorMatrix in="SourceAlpha" type="matrix" values="0 0 0 0 0 0 0 0 0 0 0 0 0 0 0 0 0 0 127 0" result="hardAlpha"/>
<feOffset dy="4"/>
<feGaussianBlur stdDeviation="2"/>
<feComposite in2="hardAlpha" operator="out"/>
<feColorMatrix type="matrix" values="0 0 0 0 0 0 0 0 0 0 0 0 0 0 0 0 0 0 0.25 0"/>
<feBlend mode="normal" in2="BackgroundImageFix" result="effect1_dropShadow_363_1552"/>
<feBlend mode="normal" in="SourceGraphic" in2="effect1_dropShadow_363_1552" result="shape"/>
</filter>
<filter id="filter1_d_363_1552" x="70.405" y="10" width="170.334" height="226.051" filterUnits="userSpaceOnUse" color-interpolation-filters="sRGB">
<feFlood flood-opacity="0" result="BackgroundImageFix"/>
<feColorMatrix in="SourceAlpha" type="matrix" values="0 0 0 0 0 0 0 0 0 0 0 0 0 0 0 0 0 0 127 0" result="hardAlpha"/>
<feOffset dy="4"/>
<feGaussianBlur stdDeviation="2"/>
<feComposite in2="hardAlpha" operator="out"/>
<feColorMatrix type="matrix" values="0 0 0 0 0 0 0 0 0 0 0 0 0 0 0 0 0 0 0.25 0"/>
<feBlend mode="normal" in2="BackgroundImageFix" result="effect1_dropShadow_363_1552"/>
<feBlend mode="normal" in="SourceGraphic" in2="effect1_dropShadow_363_1552" result="shape"/>
</filter>
<filter id="filter2_d_363_1552" x="0.851562" y="69" width="172.899" height="208.503" filterUnits="userSpaceOnUse" color-interpolation-filters="sRGB">
<feFlood flood-opacity="0" result="BackgroundImageFix"/>
<feColorMatrix in="SourceAlpha" type="matrix" values="0 0 0 0 0 0 0 0 0 0 0 0 0 0 0 0 0 0 127 0" result="hardAlpha"/>
<feOffset dy="4"/>
<feGaussianBlur stdDeviation="2"/>
<feComposite in2="hardAlpha" operator="out"/>
<feColorMatrix type="matrix" values="0 0 0 0 0 0 0 0 0 0 0 0 0 0 0 0 0 0 0.25 0"/>
<feBlend mode="normal" in2="BackgroundImageFix" result="effect1_dropShadow_363_1552"/>
<feBlend mode="normal" in="SourceGraphic" in2="effect1_dropShadow_363_1552" result="shape"/>
</filter>
<filter id="filter3_d_363_1552" x="226.077" y="114" width="160.922" height="166.999" filterUnits="userSpaceOnUse" color-interpolation-filters="sRGB">
<feFlood flood-opacity="0" result="BackgroundImageFix"/>
<feColorMatrix in="SourceAlpha" type="matrix" values="0 0 0 0 0 0 0 0 0 0 0 0 0 0 0 0 0 0 127 0" result="hardAlpha"/>
<feOffset dy="4"/>
<feGaussianBlur stdDeviation="2"/>
<feComposite in2="hardAlpha" operator="out"/>
<feColorMatrix type="matrix" values="0 0 0 0 0 0 0 0 0 0 0 0 0 0 0 0 0 0 0.25 0"/>
<feBlend mode="normal" in2="BackgroundImageFix" result="effect1_dropShadow_363_1552"/>
<feBlend mode="normal" in="SourceGraphic" in2="effect1_dropShadow_363_1552" result="shape"/>
</filter>
<filter id="filter4_d_363_1552" x="98.9734" y="116.72" width="161.686" height="165.951" filterUnits="userSpaceOnUse" color-interpolation-filters="sRGB">
<feFlood flood-opacity="0" result="BackgroundImageFix"/>
<feColorMatrix in="SourceAlpha" type="matrix" values="0 0 0 0 0 0 0 0 0 0 0 0 0 0 0 0 0 0 127 0" result="hardAlpha"/>
<feOffset dy="4"/>
<feGaussianBlur stdDeviation="2"/>
<feComposite in2="hardAlpha" operator="out"/>
<feColorMatrix type="matrix" values="0 0 0 0 0 0 0 0 0 0 0 0 0 0 0 0 0 0 0.25 0"/>
<feBlend mode="normal" in2="BackgroundImageFix" result="effect1_dropShadow_363_1552"/>
<feBlend mode="normal" in="SourceGraphic" in2="effect1_dropShadow_363_1552" result="shape"/>
</filter>
<linearGradient id="paint0_linear_363_1552" x1="208.977" y1="123.563" x2="208.977" y2="146.563" gradientUnits="userSpaceOnUse">
<stop stop-color="#D9D9D9" stop-opacity="0"/>
<stop offset="0.5" stop-opacity="0.1"/>
</linearGradient>
<linearGradient id="paint1_linear_363_1552" x1="138.092" y1="123.401" x2="138.092" y2="146.401" gradientUnits="userSpaceOnUse">
<stop stop-color="#D9D9D9" stop-opacity="0"/>
<stop offset="0.5" stop-opacity="0.1"/>
</linearGradient>
</defs>
</svg>
