<svg width="400" height="284" viewBox="0 0 400 284" fill="none" xmlns="http://www.w3.org/2000/svg">
<path fill-rule="evenodd" clip-rule="evenodd" d="M210.5 84.5C212.191 87.6454 212.691 90.9787 212 94.5C208.908 98.9279 204.741 101.761 199.5 103C192.148 103.582 184.815 103.415 177.5 102.5C173.956 100.431 170.29 100.098 166.5 101.5C165.833 101.5 165.167 101.5 164.5 101.5C164.665 98.1501 164.498 94.8168 164 91.5C162.961 92.2438 162.461 93.2438 162.5 94.5C159.748 107.61 157.415 107.61 155.5 94.5C154.833 99.5 154.167 104.5 153.5 109.5C151.712 108.717 150.712 107.384 150.5 105.5C150.315 103.804 149.481 102.471 148 101.5C148.215 104.811 148.215 108.144 148 111.5C143.236 104.714 136.902 100.38 129 98.5C128.333 94.1667 128.333 89.8333 129 85.5C130.214 83.9512 131.714 82.7845 133.5 82C131.641 80.4422 130.141 78.6089 129 76.5C128.333 71.8333 128.333 67.1667 129 62.5C142.155 48.7607 139.655 46.594 121.5 56C120.177 56.8159 119.511 57.9826 119.5 59.5C118.081 54.1186 119.748 49.6186 124.5 46C117.518 45.8483 112.518 42.6816 109.5 36.5C109.667 36.1667 109.833 35.8333 110 35.5C112.417 36.9985 115.083 37.6651 118 37.5C120.375 37.5963 122.541 37.0963 124.5 36C119.08 30.748 117.58 24.5813 120 17.5C123.387 24.1208 128.887 27.6208 136.5 28C144.907 31.2604 148.574 37.427 147.5 46.5C153.206 46.1712 158.872 46.5046 164.5 47.5C167.043 51.4206 169.71 55.2539 172.5 59C184.824 55.6677 195.324 58.501 204 67.5C206.76 73.5409 208.427 79.8742 209 86.5C209.278 85.5842 209.778 84.9175 210.5 84.5Z" fill="#0381C6"/>
<path opacity="0.89" fill-rule="evenodd" clip-rule="evenodd" d="M210.5 84.5C209.778 84.9175 209.278 85.5842 209 86.5C208.427 79.8742 206.76 73.5409 204 67.5C195.324 58.501 184.824 55.6677 172.5 59C169.71 55.2539 167.043 51.4206 164.5 47.5C158.872 46.5046 153.206 46.1712 147.5 46.5C148.574 37.427 144.907 31.2604 136.5 28C128.887 27.6208 123.387 24.1208 120 17.5C117.58 24.5813 119.08 30.748 124.5 36C122.541 37.0963 120.375 37.5963 118 37.5C115.083 37.6651 112.417 36.9985 110 35.5C109.833 35.8333 109.667 36.1667 109.5 36.5C112.518 42.6816 117.518 45.8483 124.5 46C119.748 49.6186 118.081 54.1186 119.5 59.5C119.539 60.7562 119.039 61.7562 118 62.5C115.555 56.8581 116.388 51.6915 120.5 47C111.815 45.7093 107.815 40.876 108.5 32.5C112.094 35.4502 116.094 36.1168 120.5 34.5C116.54 28.0214 116.54 21.688 120.5 15.5C121.573 18.7395 123.573 21.2395 126.5 23C134.023 23.6611 140.523 26.4945 146 31.5C148.76 35.4037 149.594 39.5704 148.5 44C154.278 44.0941 159.944 44.7608 165.5 46C169.05 49.8826 172.217 54.0493 175 58.5C189.788 53.3986 200.788 57.732 208 71.5C209.631 75.6879 210.464 80.0212 210.5 84.5Z" fill="#23252A"/>
<path fill-rule="evenodd" clip-rule="evenodd" d="M253.5 85.5C250.394 84.2926 247.394 82.7926 244.5 81C241.483 77.9145 238.483 74.9145 235.5 72C230.833 71.3333 226.167 71.3333 221.5 72C220.376 72.2492 219.376 72.7492 218.5 73.5C216.5 77.8333 214.5 82.1667 212.5 86.5C214.989 91.5829 213.989 96.0829 209.5 100C199.162 106.218 188.495 107.052 177.5 102.5C184.815 103.415 192.148 103.582 199.5 103C204.741 101.761 208.908 98.9279 212 94.5C212.691 90.9787 212.191 87.6454 210.5 84.5C212.626 80.1822 214.959 75.8489 217.5 71.5C224.967 67.4251 232.301 67.5918 239.5 72C243.527 76.6901 248.194 80.6901 253.5 84C254.738 84.69 254.738 85.19 253.5 85.5Z" fill="#2B271E"/>
<path opacity="0.835" fill-rule="evenodd" clip-rule="evenodd" d="M247.5 87.5C249.519 89.5057 251.852 91.1724 254.5 92.5C254.376 93.1067 254.043 93.44 253.5 93.5C249.413 92.7443 246.08 90.7443 243.5 87.5C244.7 86.7084 246.033 86.7084 247.5 87.5Z" fill="#3E392B"/>
<path fill-rule="evenodd" clip-rule="evenodd" d="M150.5 105.5C149.624 108.577 149.291 111.577 149.5 114.5C145.348 110.849 141.348 107.016 137.5 103C131.153 101.902 125.153 102.902 119.5 106C117.282 113.265 113.615 119.765 108.5 125.5C107.448 125.649 106.448 125.483 105.5 125C111.22 119.744 115.053 113.244 117 105.5C120.116 103.193 123.616 101.86 127.5 101.5C127.062 97.9277 126.396 94.4277 125.5 91C126.119 87.43 127.786 84.43 130.5 82C125.558 74.4366 125.224 66.6033 129.5 58.5C135.338 53.6127 134.671 52.446 127.5 55C124.671 56.3557 122.004 57.8557 119.5 59.5C119.511 57.9826 120.177 56.8159 121.5 56C139.655 46.594 142.155 48.7607 129 62.5C128.333 67.1667 128.333 71.8333 129 76.5C130.141 78.6089 131.641 80.4422 133.5 82C131.714 82.7845 130.214 83.9512 129 85.5C128.333 89.8333 128.333 94.1667 129 98.5C136.902 100.38 143.236 104.714 148 111.5C148.215 108.144 148.215 104.811 148 101.5C149.481 102.471 150.315 103.804 150.5 105.5Z" fill="#212324"/>
<path opacity="0.882" fill-rule="evenodd" clip-rule="evenodd" d="M246.5 95.5C249.009 96.9213 251.343 98.5879 253.5 100.5C249.863 100.513 246.863 99.1798 244.5 96.5C244.957 95.7025 245.624 95.3691 246.5 95.5Z" fill="#2F2B26"/>
<path fill-rule="evenodd" clip-rule="evenodd" d="M164.5 101.5C163.833 99.1667 163.167 96.8333 162.5 94.5C162.461 93.2438 162.961 92.2438 164 91.5C164.498 94.8168 164.665 98.1501 164.5 101.5Z" fill="#131412"/>
<path fill-rule="evenodd" clip-rule="evenodd" d="M249.5 103.5C250.525 114.803 245.525 120.136 234.5 119.5C235.274 123.779 235.774 128.113 236 132.5C238.405 133.274 240.905 133.774 243.5 134C242.109 136.39 240.109 138.057 237.5 139C238.381 139.708 239.047 140.542 239.5 141.5C237.577 141.205 235.91 140.372 234.5 139C236.332 138.252 237.999 137.252 239.5 136C237.152 135.654 235.319 134.487 234 132.5C233.779 127.78 233.279 123.113 232.5 118.5C240.334 118.835 245.668 115.335 248.5 108C246.881 105.84 247.214 104.34 249.5 103.5Z" fill="#272522"/>
<path fill-rule="evenodd" clip-rule="evenodd" d="M272.5 88.5C270.568 91.1769 262.068 97.1769 263 100.5C263.333 99.8333 263.667 99.1667 264 98.5C264.41 99.9007 264.91 101.234 265.5 102.5C257.063 104.947 252.73 110.613 252.5 119.5C251.518 122.962 251.185 126.629 251.5 130.5C250.833 128.5 250.167 126.5 249.5 124.5C249.906 118.542 251.406 112.875 254 107.5C256.234 105.3 258.734 103.467 261.5 102C260.39 99.2628 260.223 96.4294 261 93.5C263 90.5 270.983 88.5106 272.5 88.5Z" fill="#2B2424"/>
<path fill-rule="evenodd" clip-rule="evenodd" d="M253.5 85.5C251.898 87.0739 249.898 87.7406 247.5 87.5C246.033 86.7084 244.7 86.7084 243.5 87.5C246.08 90.7443 249.413 92.7443 253.5 93.5C251.485 94.9238 249.152 95.5905 246.5 95.5C245.624 95.3691 244.957 95.7025 244.5 96.5C246.863 99.1798 249.863 100.513 253.5 100.5C254.738 100.81 254.738 101.31 253.5 102C252.255 102.791 250.922 103.291 249.5 103.5C247.214 104.34 246.881 105.84 248.5 108C245.668 115.335 240.334 118.835 232.5 118.5C233.279 123.113 233.779 127.78 234 132.5C235.319 134.487 237.152 135.654 239.5 136C237.999 137.252 236.332 138.252 234.5 139C235.91 140.372 237.577 141.205 239.5 141.5C240.85 142.65 240.684 143.317 239 143.5C232.338 141.777 231.838 142.777 237.5 146.5C236.047 146.929 234.381 147.096 232.5 147C230.539 149.963 228.206 152.629 225.5 155C221.268 157.275 217.268 159.775 213.5 162.5C213.158 163.338 212.492 163.672 211.5 163.5C209.628 166.529 206.961 168.695 203.5 170C206.207 170.317 208.54 169.484 210.5 167.5C211.5 169.5 212.5 171.5 213.5 173.5C207.86 172.83 202.86 174.164 198.5 177.5C197.504 177.586 196.671 177.252 196 176.5C195.598 175.128 195.098 173.795 194.5 172.5C205.106 171.345 205.106 170.512 194.5 170C193.034 169.365 191.7 168.531 190.5 167.5C190.912 168.782 190.246 169.782 188.5 170.5C184.958 170.187 181.625 170.521 178.5 171.5C176.523 169.261 174.023 167.927 171 167.5C168.461 168.602 165.961 168.602 163.5 167.5C162.186 168.313 161.019 169.313 160 170.5C159.821 165.039 158.321 164.372 155.5 168.5C154.569 166.354 154.903 164.188 156.5 162C153.325 162.053 150.658 161.22 148.5 159.5C150.818 159.182 152.152 157.848 152.5 155.5C149.765 151.419 147.431 147.085 145.5 142.5C134.134 150.327 124.801 148.327 117.5 136.5C119.207 134.358 120.041 132.025 120 129.5C119.292 130.381 118.458 131.047 117.5 131.5C115.236 132.219 112.903 132.552 110.5 132.5C113.165 129.665 115.665 126.665 118 123.5C118.667 122.5 118.667 121.5 118 120.5C117.051 122.093 115.885 123.426 114.5 124.5C112.565 125.15 110.565 125.483 108.5 125.5C113.615 119.765 117.282 113.265 119.5 106C125.153 102.902 131.153 101.902 137.5 103C141.348 107.016 145.348 110.849 149.5 114.5C149.291 111.577 149.624 108.577 150.5 105.5C150.712 107.384 151.712 108.717 153.5 109.5C154.167 104.5 154.833 99.5 155.5 94.5C157.415 107.61 159.748 107.61 162.5 94.5C163.167 96.8333 163.833 99.1667 164.5 101.5C165.167 101.5 165.833 101.5 166.5 101.5C170.198 101.552 173.865 101.886 177.5 102.5C188.495 107.052 199.162 106.218 209.5 100C213.989 96.0829 214.989 91.5829 212.5 86.5C214.5 82.1667 216.5 77.8333 218.5 73.5C219.376 72.7492 220.376 72.2492 221.5 72C226.167 71.3333 230.833 71.3333 235.5 72C238.483 74.9145 241.483 77.9145 244.5 81C247.394 82.7926 250.394 84.2926 253.5 85.5Z" fill="#DDB901"/>
<path fill-rule="evenodd" clip-rule="evenodd" d="M138.5 124.5C140.951 126.59 143.284 128.923 145.5 131.5C143.469 133.404 141.469 133.571 139.5 132C140.5 131.667 141.5 131.333 142.5 131C141.333 129.833 140.167 128.667 139 127.5C138.189 128.96 137.355 129.293 136.5 128.5C137.18 127.14 137.847 125.807 138.5 124.5Z" fill="#362E0E"/>
<path fill-rule="evenodd" clip-rule="evenodd" d="M163.5 115.5C168.4 114.948 171.734 116.948 173.5 121.5C166.024 120.077 161.524 123.41 160 131.5C157.122 125.062 158.289 119.728 163.5 115.5Z" fill="#151107"/>
<path fill-rule="evenodd" clip-rule="evenodd" d="M203.5 105.5C210.219 104.864 214.552 107.864 216.5 114.5C216.167 114.833 215.833 115.167 215.5 115.5C210.221 110.283 205.055 110.283 200 115.5C199.935 111.773 201.101 108.44 203.5 105.5Z" fill="#110E07"/>
<path fill-rule="evenodd" clip-rule="evenodd" d="M228.5 101.5C229.629 103.666 229.129 105.666 227 107.5C226.964 105.428 227.464 103.428 228.5 101.5Z" fill="#221B0D"/>
<path fill-rule="evenodd" clip-rule="evenodd" d="M166.5 101.5C170.29 100.098 173.956 100.431 177.5 102.5C173.865 101.886 170.198 101.552 166.5 101.5Z" fill="#12222D"/>
<path fill-rule="evenodd" clip-rule="evenodd" d="M229.5 94.5C231.63 96.1271 233.63 97.9604 235.5 100C233.255 99.8047 231.422 98.6381 230 96.5C228.431 100.072 226.098 103.072 223 105.5C222.333 104.833 222.333 104.167 223 103.5C225.666 100.824 227.833 97.8239 229.5 94.5Z" fill="#2D270E"/>
<path fill-rule="evenodd" clip-rule="evenodd" d="M265.5 102.5C270 103.5 270.921 104.03 275.5 104C276.263 104.768 279.763 105.268 281 105.5C286.869 105.758 292 107.5 297.5 108.5C298.403 110.636 299.569 112.636 301 114.5C301.749 121.597 301.249 128.597 299.5 135.5C298.067 136.833 296.733 138.333 295.5 140C294.552 140.483 293.552 140.649 292.5 140.5C290.712 139.378 288.712 139.211 286.5 140C283.562 141.808 280.562 143.308 277.5 144.5C273.215 143.792 268.882 143.292 264.5 143C261.761 141.974 259.428 140.474 257.5 138.5C256.5 136.833 255.167 135.5 253.5 134.5C252.608 129.562 252.274 124.562 252.5 119.5C252.73 110.613 257.063 104.947 265.5 102.5Z" fill="#CC0821"/>
<path d="M262.604 112.864C262.757 111.963 263.677 111.4 264.557 111.671C266.6 112.302 269.782 113.252 272.875 114.048C274.27 114.407 275.649 114.736 276.9 114.99C281.416 115.907 287.836 116.532 291.195 116.818C292.102 116.896 292.741 117.744 292.563 118.631L289.432 134.26C289.292 134.961 288.681 135.459 287.974 135.449C284.977 135.407 278.536 135.232 274.08 134.507C269.697 133.793 263.649 131.964 260.777 131.053C260.08 130.832 259.656 130.13 259.781 129.399L262.604 112.864Z" fill="#E2EAEF" stroke="#2B2424"/>
<path d="M263.97 116.851C263.865 116.873 263.779 116.861 263.713 116.815C263.646 116.769 263.602 116.717 263.578 116.659C263.544 116.585 263.544 116.513 263.576 116.445C263.609 116.376 263.676 116.324 263.777 116.288C263.944 116.23 264.146 116.196 264.386 116.185C264.626 116.167 264.875 116.195 265.132 116.269C265.39 116.343 265.617 116.458 265.812 116.615C266.015 116.767 266.175 116.945 266.294 117.15C266.42 117.355 266.501 117.58 266.538 117.824C266.583 118.062 266.58 118.306 266.528 118.554C266.467 118.814 266.368 119.067 266.228 119.313C266.095 119.56 265.93 119.784 265.731 119.985C265.538 120.187 265.317 120.364 265.066 120.515C264.823 120.661 264.564 120.763 264.289 120.821C264.103 120.835 263.968 120.818 263.882 120.768C263.796 120.719 263.741 120.668 263.716 120.616C263.709 120.581 263.71 120.537 263.72 120.485C263.737 120.427 263.784 120.374 263.86 120.327C263.896 119.677 263.958 119.054 264.045 118.46C264.14 117.861 264.232 117.315 264.321 116.823C264.206 116.823 264.089 116.832 263.97 116.851ZM265.066 116.917C265.028 116.904 264.986 116.893 264.94 116.884C264.902 116.871 264.863 116.86 264.824 116.853C264.853 116.913 264.874 116.984 264.886 117.068C264.9 117.145 264.9 117.219 264.887 117.291C264.814 117.692 264.74 118.122 264.663 118.582C264.593 119.044 264.536 119.545 264.493 120.086C264.819 119.928 265.113 119.71 265.373 119.432C265.641 119.149 265.814 118.831 265.891 118.479C265.957 118.152 265.927 117.849 265.802 117.569C265.677 117.282 265.432 117.065 265.066 116.917ZM270.806 118.291C270.811 118.414 270.812 118.56 270.808 118.728C270.806 118.891 270.792 119.061 270.767 119.239C270.749 119.412 270.72 119.59 270.681 119.772C270.641 119.955 270.589 120.128 270.525 120.293C270.45 120.483 270.339 120.649 270.191 120.792C270.044 120.934 269.873 121.056 269.678 121.156C269.491 121.258 269.287 121.333 269.068 121.381C268.857 121.424 268.647 121.447 268.436 121.45C268.233 121.447 268.035 121.418 267.842 121.363C267.657 121.302 267.496 121.215 267.361 121.103C267.208 120.973 267.093 120.821 267.017 120.644C266.94 120.468 266.929 120.266 266.984 120.039C267.038 119.818 267.094 119.618 267.153 119.439C267.214 119.254 267.28 119.079 267.35 118.916C267.427 118.754 267.507 118.592 267.59 118.431C267.674 118.263 267.763 118.09 267.857 117.91C267.905 117.831 267.973 117.792 268.061 117.794C268.095 117.794 268.134 117.801 268.179 117.816C268.198 117.819 268.222 117.837 268.25 117.869C268.286 117.896 268.317 117.932 268.343 117.978C268.368 118.023 268.386 118.074 268.396 118.13C268.413 118.187 268.406 118.246 268.374 118.308C268.277 118.508 268.18 118.71 268.081 118.916C267.983 119.122 267.893 119.319 267.812 119.508C267.737 119.697 267.679 119.87 267.637 120.025C267.603 120.174 267.598 120.295 267.622 120.388C267.685 120.528 267.785 120.631 267.922 120.696C268.067 120.756 268.224 120.788 268.393 120.791C268.561 120.795 268.727 120.781 268.888 120.749C269.057 120.712 269.204 120.667 269.329 120.615C269.527 120.529 269.682 120.405 269.793 120.242C269.91 120.08 269.998 119.896 270.055 119.69C270.113 119.483 270.149 119.263 270.165 119.029C270.186 118.795 270.198 118.564 270.199 118.334C270.196 118.272 270.213 118.197 270.25 118.109C270.286 118.021 270.351 117.958 270.446 117.921C270.548 117.885 270.628 117.907 270.689 117.985C270.756 118.065 270.795 118.167 270.806 118.291ZM275.557 118.805C275.41 119.354 275.251 119.915 275.08 120.487C274.916 121.053 274.736 121.583 274.538 122.076C274.49 122.196 274.437 122.278 274.382 122.322C274.327 122.366 274.254 122.39 274.166 122.394C274.091 122.395 273.994 122.353 273.873 122.27C273.759 122.189 273.67 122.085 273.604 121.958C273.52 121.787 273.428 121.601 273.329 121.4C273.238 121.194 273.133 120.985 273.016 120.774C272.906 120.558 272.785 120.343 272.655 120.129C272.53 119.917 272.394 119.716 272.245 119.527C272.147 119.956 272.053 120.383 271.963 120.807C271.874 121.225 271.797 121.648 271.733 122.077C271.723 122.136 271.665 122.156 271.56 122.137C271.435 122.114 271.345 122.033 271.289 121.894C271.234 121.749 271.212 121.609 271.222 121.476C271.226 121.341 271.25 121.152 271.294 120.91C271.339 120.66 271.389 120.402 271.445 120.134C271.506 119.867 271.566 119.611 271.624 119.364C271.683 119.117 271.731 118.922 271.771 118.781C271.812 118.625 271.869 118.517 271.941 118.456C272.02 118.395 272.088 118.374 272.146 118.391C272.275 118.428 272.353 118.483 272.38 118.555C272.416 118.623 272.428 118.703 272.418 118.796C272.624 119.009 272.807 119.232 272.968 119.465C273.136 119.698 273.283 119.931 273.41 120.164C273.544 120.399 273.662 120.63 273.763 120.858C273.871 121.081 273.973 121.286 274.068 121.472C274.218 121.093 274.36 120.665 274.494 120.188C274.634 119.712 274.778 119.213 274.927 118.691C274.932 118.624 274.983 118.569 275.079 118.525C275.176 118.475 275.26 118.46 275.331 118.479C275.512 118.526 275.588 118.634 275.557 118.805ZM276.328 119.087C276.223 119.108 276.137 119.096 276.071 119.05C276.004 119.004 275.96 118.952 275.936 118.894C275.902 118.82 275.902 118.749 275.934 118.68C275.967 118.611 276.034 118.559 276.135 118.523C276.302 118.465 276.504 118.431 276.744 118.42C276.984 118.402 277.233 118.43 277.491 118.504C277.748 118.578 277.975 118.693 278.17 118.851C278.373 119.002 278.533 119.181 278.652 119.385C278.778 119.591 278.859 119.815 278.896 120.059C278.941 120.298 278.938 120.541 278.886 120.789C278.826 121.049 278.726 121.302 278.586 121.548C278.454 121.795 278.288 122.019 278.089 122.22C277.896 122.422 277.675 122.599 277.424 122.75C277.181 122.896 276.922 122.998 276.647 123.057C276.461 123.071 276.326 123.053 276.24 123.003C276.154 122.954 276.099 122.903 276.074 122.851C276.067 122.816 276.068 122.772 276.078 122.72C276.095 122.662 276.142 122.61 276.218 122.562C276.254 121.912 276.316 121.29 276.403 120.696C276.498 120.096 276.59 119.551 276.679 119.059C276.564 119.058 276.447 119.067 276.328 119.087ZM277.424 119.153C277.386 119.139 277.344 119.128 277.298 119.12C277.26 119.106 277.221 119.096 277.182 119.088C277.211 119.148 277.232 119.22 277.244 119.303C277.258 119.38 277.258 119.455 277.245 119.527C277.172 119.927 277.098 120.357 277.021 120.818C276.951 121.279 276.895 121.78 276.851 122.321C277.178 122.164 277.471 121.946 277.731 121.668C277.999 121.384 278.172 121.066 278.249 120.714C278.315 120.388 278.285 120.084 278.16 119.804C278.036 119.517 277.79 119.3 277.424 119.153ZM282.466 121.691C282.48 121.761 282.442 121.822 282.352 121.873C282.262 121.918 282.13 121.935 281.956 121.924C281.654 121.91 281.344 121.898 281.028 121.888C280.712 121.871 280.39 121.857 280.06 121.845C279.986 122.177 279.926 122.512 279.878 122.849C280.029 122.876 280.212 122.895 280.427 122.907C280.649 122.913 280.876 122.914 281.107 122.908C281.339 122.903 281.56 122.895 281.772 122.886C281.991 122.872 282.176 122.861 282.327 122.854C282.402 122.848 282.48 122.848 282.56 122.856C282.641 122.857 282.71 122.869 282.767 122.893C282.831 122.912 282.879 122.944 282.912 122.991C282.944 123.037 282.953 123.096 282.94 123.169C282.937 123.188 282.909 123.214 282.855 123.245C282.802 123.276 282.736 123.308 282.655 123.341C282.582 123.368 282.503 123.394 282.417 123.42C282.339 123.439 282.269 123.454 282.206 123.463C281.776 123.52 281.355 123.563 280.944 123.59C280.533 123.611 280.141 123.59 279.765 123.529C279.548 123.497 279.394 123.411 279.304 123.273C279.215 123.128 279.188 122.94 279.223 122.71C279.268 122.386 279.326 122.061 279.399 121.735C279.299 121.65 279.26 121.548 279.281 121.43C279.317 121.307 279.392 121.233 279.505 121.206C279.552 121.018 279.597 120.829 279.638 120.64C279.68 120.445 279.725 120.253 279.772 120.065C279.702 120.039 279.643 119.991 279.595 119.921C279.553 119.853 279.539 119.782 279.552 119.71C279.562 119.651 279.585 119.601 279.62 119.56C279.655 119.512 279.712 119.482 279.789 119.469C279.911 119.464 280.061 119.46 280.238 119.458C280.414 119.456 280.593 119.458 280.775 119.464C280.964 119.471 281.142 119.48 281.309 119.49C281.483 119.501 281.63 119.514 281.749 119.528C281.889 119.54 282.018 119.577 282.136 119.639C282.26 119.702 282.368 119.8 282.459 119.931C282.469 120.028 282.436 120.093 282.362 120.127C282.295 120.162 282.211 120.178 282.11 120.173C282.01 120.168 281.888 120.163 281.747 120.158C281.607 120.146 281.46 120.137 281.305 120.129C281.157 120.123 281.006 120.116 280.852 120.108C280.705 120.095 280.564 120.087 280.43 120.082C280.427 120.096 280.424 120.112 280.421 120.132C280.425 120.146 280.426 120.16 280.423 120.173C280.379 120.341 280.339 120.51 280.301 120.679C280.264 120.849 280.227 121.018 280.189 121.187C280.473 121.191 280.762 121.203 281.057 121.222C281.352 121.235 281.587 121.25 281.76 121.268C281.9 121.28 282.031 121.321 282.154 121.39C282.277 121.46 282.381 121.56 282.466 121.691ZM283.904 124.308C283.929 124.062 283.962 123.784 284.005 123.473C284.054 123.163 284.108 122.848 284.166 122.526C284.225 122.198 284.283 121.877 284.34 121.562C284.404 121.248 284.465 120.965 284.525 120.711C284.536 120.646 284.575 120.602 284.64 120.58C284.713 120.552 284.768 120.545 284.806 120.559C284.922 120.594 284.993 120.65 285.019 120.73C285.053 120.804 285.066 120.904 285.056 121.031C285.012 121.24 284.967 121.449 284.923 121.657C284.885 121.867 284.85 122.078 284.819 122.289C285.123 122.29 285.389 122.226 285.615 122.098C285.848 121.97 286.026 121.81 286.15 121.615C286.197 121.542 286.237 121.451 286.27 121.342C286.31 121.234 286.333 121.123 286.341 121.009C286.349 120.889 286.336 120.775 286.301 120.667C286.274 120.554 286.217 120.458 286.129 120.382C286 120.27 285.851 120.196 285.681 120.158C285.512 120.121 285.33 120.115 285.136 120.141C284.949 120.161 284.757 120.215 284.558 120.301C284.366 120.388 284.18 120.5 283.999 120.637C284.001 120.739 283.972 120.825 283.912 120.895C283.853 120.959 283.778 121 283.687 121.017C283.632 121.021 283.574 120.983 283.514 120.905C283.455 120.819 283.432 120.741 283.445 120.669C283.492 120.406 283.606 120.193 283.784 120.029C283.971 119.859 284.187 119.729 284.434 119.638C284.681 119.547 284.938 119.492 285.206 119.473C285.474 119.454 285.716 119.463 285.932 119.503C286.254 119.561 286.505 119.705 286.687 119.934C286.871 120.157 286.976 120.416 287.004 120.713C287.053 121.23 286.937 121.666 286.655 122.022C286.381 122.378 285.985 122.659 285.467 122.863C285.77 123.135 286.052 123.393 286.313 123.636C286.58 123.881 286.844 124.142 287.106 124.42C287.138 124.466 287.17 124.533 287.202 124.62C287.241 124.702 287.214 124.812 287.121 124.951C287.065 125.036 286.987 125.076 286.886 125.071C286.793 125.061 286.707 125.015 286.627 124.933C286.504 124.789 286.362 124.638 286.201 124.48C286.047 124.317 285.883 124.155 285.709 123.995C285.536 123.828 285.362 123.668 285.186 123.514C285.012 123.354 284.846 123.205 284.688 123.068C284.647 123.332 284.603 123.595 284.555 123.857C284.515 124.114 284.48 124.368 284.448 124.62C284.431 124.712 284.393 124.773 284.333 124.803C284.275 124.826 284.206 124.83 284.128 124.816C284.089 124.803 284.057 124.776 284.03 124.738C284.004 124.692 283.979 124.644 283.955 124.592C283.938 124.535 283.924 124.481 283.913 124.432C283.902 124.376 283.9 124.335 283.904 124.308ZM290.856 123.645C290.85 123.678 290.808 123.704 290.73 123.724C290.658 123.745 290.593 123.75 290.534 123.739C290.1 123.668 289.687 123.61 289.295 123.566C288.903 123.522 288.52 123.487 288.146 123.46C288.072 123.453 288.011 123.418 287.961 123.355C287.918 123.293 287.897 123.225 287.897 123.15C287.895 123.083 287.911 123.018 287.942 122.955C287.981 122.888 288.036 122.85 288.105 122.843C288.492 122.838 288.905 122.855 289.345 122.894C289.786 122.933 290.217 123.018 290.641 123.149C290.666 123.16 290.696 123.183 290.73 123.216C290.766 123.243 290.797 123.279 290.823 123.324C290.849 123.363 290.868 123.41 290.878 123.466C290.888 123.522 290.881 123.582 290.856 123.645ZM265.917 125.303C265.913 125.851 265.886 126.395 265.835 126.934C265.786 127.467 265.728 127.999 265.659 128.528C265.655 128.589 265.639 128.64 265.611 128.682C265.584 128.718 265.551 128.749 265.512 128.776C265.48 128.804 265.446 128.825 265.41 128.839C265.38 128.854 265.355 128.86 265.335 128.856C265.263 128.843 265.197 128.797 265.137 128.718C265.084 128.634 265.061 128.535 265.068 128.422C265.094 128.169 265.119 127.916 265.145 127.663C265.17 127.41 265.192 127.157 265.211 126.903C264.488 126.968 263.729 127.004 262.936 127.009C262.936 127.158 262.936 127.308 262.936 127.457C262.936 127.606 262.94 127.755 262.946 127.906C262.948 127.933 262.944 127.976 262.933 128.035C262.929 128.096 262.914 128.157 262.889 128.221C262.871 128.285 262.84 128.344 262.797 128.397C262.761 128.445 262.711 128.476 262.647 128.492C262.594 128.489 262.541 128.462 262.489 128.412C262.437 128.362 262.405 128.316 262.392 128.273C262.35 128.055 262.319 127.799 262.298 127.504C262.283 127.21 262.277 126.904 262.281 126.586C262.292 126.263 262.316 125.939 262.355 125.614C262.393 125.289 262.446 124.98 262.512 124.687C262.543 124.591 262.592 124.529 262.658 124.5C262.732 124.466 262.795 124.454 262.848 124.463C262.907 124.474 262.952 124.502 262.984 124.549C263.023 124.596 263.05 124.652 263.066 124.716C263.082 124.78 263.091 124.842 263.093 124.904C263.095 124.965 263.093 125.016 263.086 125.055C263.055 125.266 263.027 125.474 263.003 125.68C262.98 125.886 262.966 126.093 262.962 126.303C263.305 126.317 263.68 126.321 264.088 126.313C264.497 126.299 264.885 126.271 265.252 126.229C265.266 126.076 265.277 125.922 265.284 125.768C265.293 125.607 265.301 125.449 265.309 125.294C265.329 125.183 265.38 125.09 265.461 125.017C265.548 124.945 265.628 124.915 265.7 124.928C265.753 124.938 265.8 124.973 265.843 125.035C265.893 125.099 265.918 125.188 265.917 125.303ZM270.093 127.958C270.02 128.135 269.916 128.299 269.78 128.451C269.652 128.597 269.509 128.73 269.352 128.851C269.195 128.971 269.028 129.07 268.851 129.146C268.681 129.224 268.512 129.278 268.344 129.309C268.037 129.362 267.742 129.345 267.459 129.26C267.184 129.17 266.955 128.993 266.772 128.73C266.655 128.519 266.584 128.293 266.56 128.051C266.542 127.811 266.555 127.573 266.597 127.336C266.648 127.095 266.723 126.868 266.822 126.656C266.928 126.444 267.046 126.259 267.177 126.1C267.333 125.911 267.505 125.763 267.694 125.655C267.883 125.547 268.078 125.497 268.28 125.507C268.335 125.503 268.375 125.524 268.401 125.569C268.426 125.614 268.435 125.663 268.425 125.716C268.503 125.662 268.613 125.631 268.757 125.623C268.901 125.615 269.055 125.64 269.221 125.697C269.529 125.793 269.761 125.934 269.917 126.118C270.074 126.302 270.176 126.503 270.225 126.722C270.281 126.936 270.289 127.154 270.249 127.377C270.216 127.595 270.164 127.788 270.093 127.958ZM268.193 126.212C268.051 126.248 267.924 126.316 267.81 126.418C267.705 126.514 267.61 126.629 267.524 126.762C267.446 126.897 267.381 127.048 267.331 127.215C267.288 127.377 267.259 127.537 267.244 127.697C267.222 127.93 267.256 128.133 267.347 128.305C267.439 128.471 267.61 128.576 267.859 128.621C268.003 128.648 268.149 128.647 268.296 128.619C268.451 128.586 268.596 128.535 268.731 128.464C268.866 128.394 268.993 128.305 269.114 128.198C269.236 128.085 269.339 127.964 269.423 127.837C269.469 127.771 269.512 127.687 269.55 127.586C269.59 127.478 269.617 127.368 269.63 127.255C269.645 127.136 269.639 127.019 269.612 126.906C269.585 126.793 269.529 126.691 269.444 126.601C269.324 126.478 269.17 126.389 268.984 126.335C268.797 126.281 268.589 126.287 268.36 126.354C268.316 126.374 268.269 126.372 268.219 126.349C268.177 126.321 268.168 126.276 268.193 126.212ZM275.084 126.849C274.937 127.398 274.778 127.959 274.607 128.531C274.444 129.098 274.263 129.627 274.066 130.12C274.017 130.24 273.965 130.322 273.909 130.366C273.854 130.41 273.782 130.435 273.693 130.439C273.619 130.439 273.521 130.398 273.401 130.315C273.287 130.233 273.197 130.129 273.132 130.002C273.048 129.831 272.956 129.645 272.857 129.444C272.765 129.238 272.661 129.029 272.543 128.818C272.433 128.602 272.313 128.387 272.182 128.174C272.058 127.962 271.921 127.761 271.773 127.571C271.675 128.001 271.581 128.427 271.49 128.851C271.401 129.269 271.325 129.692 271.261 130.121C271.25 130.18 271.192 130.2 271.087 130.181C270.963 130.158 270.872 130.078 270.816 129.939C270.761 129.793 270.739 129.654 270.75 129.52C270.754 129.385 270.778 129.197 270.822 128.954C270.867 128.705 270.917 128.446 270.972 128.178C271.034 127.912 271.094 127.655 271.152 127.408C271.21 127.161 271.259 126.967 271.298 126.825C271.34 126.67 271.397 126.562 271.469 126.5C271.547 126.44 271.616 126.418 271.673 126.435C271.802 126.472 271.88 126.527 271.908 126.6C271.943 126.667 271.956 126.747 271.946 126.84C272.151 127.054 272.334 127.276 272.495 127.509C272.663 127.742 272.811 127.976 272.938 128.209C273.072 128.443 273.189 128.674 273.29 128.903C273.399 129.125 273.501 129.33 273.596 129.517C273.746 129.137 273.887 128.709 274.021 128.232C274.161 127.756 274.306 127.257 274.454 126.735C274.46 126.668 274.51 126.613 274.606 126.57C274.704 126.519 274.788 126.504 274.859 126.524C275.04 126.57 275.115 126.679 275.084 126.849ZM279.127 127.926C279.131 128.049 279.132 128.194 279.129 128.363C279.126 128.525 279.113 128.696 279.087 128.874C279.069 129.047 279.041 129.225 279.001 129.407C278.961 129.59 278.909 129.763 278.846 129.928C278.771 130.117 278.659 130.284 278.512 130.426C278.364 130.569 278.193 130.69 277.999 130.791C277.811 130.892 277.608 130.967 277.389 131.016C277.178 131.059 276.967 131.082 276.757 131.084C276.554 131.082 276.356 131.053 276.163 130.997C275.977 130.937 275.817 130.85 275.681 130.737C275.528 130.608 275.414 130.455 275.337 130.279C275.261 130.102 275.25 129.901 275.304 129.673C275.358 129.453 275.414 129.253 275.474 129.074C275.534 128.888 275.6 128.714 275.67 128.551C275.747 128.388 275.827 128.227 275.91 128.066C275.995 127.898 276.084 127.724 276.177 127.545C276.225 127.465 276.293 127.427 276.381 127.429C276.415 127.429 276.454 127.436 276.499 127.451C276.519 127.454 276.543 127.472 276.571 127.504C276.607 127.531 276.637 127.567 276.663 127.612C276.689 127.658 276.707 127.708 276.717 127.764C276.734 127.822 276.726 127.881 276.695 127.943C276.598 128.142 276.5 128.345 276.402 128.551C276.304 128.757 276.214 128.954 276.132 129.142C276.057 129.332 275.999 129.504 275.957 129.659C275.924 129.809 275.919 129.93 275.942 130.023C276.005 130.163 276.105 130.265 276.242 130.331C276.387 130.391 276.544 130.423 276.713 130.426C276.882 130.43 277.047 130.415 277.208 130.384C277.378 130.346 277.525 130.302 277.649 130.25C277.848 130.164 278.002 130.039 278.113 129.877C278.23 129.715 278.318 129.531 278.376 129.324C278.433 129.118 278.47 128.898 278.485 128.663C278.507 128.43 278.518 128.199 278.519 127.968C278.517 127.907 278.534 127.832 278.57 127.744C278.606 127.656 278.672 127.593 278.767 127.556C278.868 127.52 278.949 127.541 279.009 127.62C279.076 127.7 279.115 127.802 279.127 127.926ZM283.877 128.44C283.73 128.989 283.571 129.549 283.4 130.121C283.237 130.688 283.056 131.218 282.859 131.71C282.81 131.83 282.758 131.912 282.702 131.957C282.647 132.001 282.575 132.025 282.486 132.029C282.411 132.029 282.314 131.988 282.193 131.905C282.079 131.824 281.99 131.719 281.925 131.592C281.841 131.421 281.749 131.235 281.65 131.034C281.558 130.828 281.454 130.62 281.336 130.409C281.226 130.192 281.106 129.977 280.975 129.764C280.851 129.552 280.714 129.351 280.566 129.162C280.468 129.591 280.374 130.018 280.283 130.442C280.194 130.859 280.118 131.282 280.054 131.711C280.043 131.77 279.985 131.79 279.88 131.771C279.756 131.749 279.665 131.668 279.609 131.529C279.554 131.384 279.532 131.244 279.542 131.111C279.547 130.976 279.571 130.787 279.614 130.544C279.66 130.295 279.71 130.037 279.765 129.769C279.827 129.502 279.887 129.245 279.945 128.999C280.003 128.752 280.052 128.557 280.091 128.415C280.133 128.26 280.189 128.152 280.262 128.09C280.34 128.03 280.408 128.009 280.466 128.026C280.595 128.063 280.673 128.117 280.701 128.19C280.736 128.258 280.749 128.338 280.739 128.431C280.944 128.644 281.127 128.867 281.288 129.099C281.456 129.333 281.604 129.566 281.731 129.799C281.865 130.033 281.982 130.265 282.083 130.493C282.192 130.716 282.294 130.921 282.389 131.107C282.538 130.728 282.68 130.3 282.814 129.822C282.954 129.346 283.099 128.847 283.247 128.326C283.253 128.259 283.303 128.204 283.399 128.16C283.496 128.11 283.58 128.095 283.651 128.114C283.833 128.16 283.908 128.269 283.877 128.44ZM286.049 130.306C286.016 130.3 285.974 130.289 285.923 130.273C285.879 130.251 285.836 130.227 285.794 130.199C285.759 130.165 285.729 130.129 285.702 130.091C285.676 130.045 285.667 130.003 285.674 129.964C285.683 129.911 285.724 129.854 285.796 129.793C285.876 129.726 285.992 129.686 286.143 129.673C286.348 129.662 286.56 129.673 286.777 129.706C286.996 129.732 287.213 129.771 287.427 129.823C287.642 129.869 287.853 129.921 288.059 129.978C288.267 130.03 288.462 130.075 288.644 130.115C288.749 130.134 288.815 130.166 288.84 130.211C288.866 130.256 288.874 130.305 288.865 130.358C288.843 130.476 288.774 130.558 288.657 130.605C288.541 130.652 288.43 130.662 288.327 130.637C288.216 130.61 288.099 130.585 287.974 130.563C287.856 130.541 287.731 130.519 287.6 130.495C287.567 130.679 287.536 130.886 287.508 131.118C287.487 131.345 287.466 131.575 287.444 131.808C287.422 132.041 287.402 132.265 287.384 132.478C287.372 132.693 287.363 132.874 287.356 133.022C287.36 133.077 287.338 133.124 287.29 133.162C287.25 133.196 287.194 133.206 287.122 133.193C286.984 133.168 286.898 133.064 286.863 132.882C286.797 132.538 286.775 132.155 286.797 131.732C286.404 131.884 286.032 131.956 285.681 131.947C285.33 131.937 285.024 131.872 284.761 131.75C284.507 131.622 284.311 131.451 284.173 131.237C284.044 131.017 284.003 130.773 284.052 130.504C284.098 130.248 284.194 129.981 284.339 129.702C284.484 129.423 284.667 129.162 284.888 128.917C285.108 128.672 285.353 128.459 285.623 128.278C285.901 128.091 286.195 127.964 286.505 127.899C286.608 127.89 286.7 127.903 286.782 127.939C286.872 127.968 286.948 128.016 287.01 128.081C287.081 128.142 287.139 128.213 287.185 128.296C287.239 128.373 287.282 128.449 287.317 128.523C287.341 128.575 287.352 128.628 287.349 128.681C287.346 128.735 287.317 128.781 287.263 128.818C287.152 128.873 287.068 128.851 287.011 128.752C286.924 128.594 286.844 128.495 286.77 128.455C286.704 128.409 286.597 128.417 286.451 128.478C286.303 128.546 286.133 128.661 285.941 128.823C285.751 128.978 285.566 129.158 285.386 129.363C285.215 129.562 285.068 129.776 284.945 130.005C284.824 130.226 284.758 130.442 284.747 130.65C284.735 130.83 284.81 130.976 284.973 131.087C285.137 131.191 285.331 131.26 285.555 131.294C285.786 131.329 286.02 131.327 286.257 131.289C286.501 131.251 286.697 131.179 286.846 131.07C286.859 130.957 286.873 130.844 286.887 130.732C286.901 130.612 286.919 130.497 286.939 130.386C286.792 130.373 286.646 130.36 286.499 130.347C286.353 130.327 286.203 130.313 286.049 130.306Z" fill="black"/>
<path d="M273.235 115.314L272.068 113.198L273.654 112.934L273.235 115.314Z" fill="#CC0821"/>
<path d="M271.997 114.569L271.158 112.712L272.522 112.6L271.997 114.569Z" fill="#CC0821"/>
<path d="M261.702 121.54L259.999 121.824L260.327 120.495L261.702 121.54Z" fill="#CC0821"/>
<path d="M266.636 131.277L266.449 133.733L265.167 133.254L266.636 131.277Z" fill="#CC0821"/>
<path fill-rule="evenodd" clip-rule="evenodd" d="M252.5 119.5C252.274 124.562 252.608 129.562 253.5 134.5C251.896 133.713 251.229 132.38 251.5 130.5C251.185 126.629 251.518 122.962 252.5 119.5Z" fill="#4C0C10"/>
<path opacity="0.961" fill-rule="evenodd" clip-rule="evenodd" d="M110.5 132.5C109.761 132.631 109.094 132.464 108.5 132C111.094 129.914 113.094 127.414 114.5 124.5C115.885 123.426 117.051 122.093 118 120.5C118.667 121.5 118.667 122.5 118 123.5C115.665 126.665 113.165 129.665 110.5 132.5Z" fill="#373126"/>
<path fill-rule="evenodd" clip-rule="evenodd" d="M208.5 125.5C215.241 126.622 217.741 130.622 216 137.5C212.325 142.93 208.992 142.596 206 136.5C204.946 132.345 205.78 128.678 208.5 125.5Z" fill="#1A1711"/>
<path fill-rule="evenodd" clip-rule="evenodd" d="M170.5 135.5C175.779 136.952 178.779 140.452 179.5 146C178.412 150.403 175.745 151.57 171.5 149.5C168.015 144.982 167.682 140.315 170.5 135.5Z" fill="#110F0A"/>
<path fill-rule="evenodd" clip-rule="evenodd" d="M171.5 136.5C172.559 138.07 172.059 139.403 170 140.5C169.7 138.934 170.2 137.601 171.5 136.5Z" fill="#D5D6D5"/>
<path fill-rule="evenodd" clip-rule="evenodd" d="M208.584 127C209.643 128.57 209.143 129.903 207.084 131C206.784 129.434 207.284 128.101 208.584 127Z" fill="#D5D6D5"/>
<path fill-rule="evenodd" clip-rule="evenodd" d="M193.5 139.5C195.857 139.337 198.19 139.503 200.5 140C196.715 140.574 193.048 141.24 189.5 142C190.858 141.066 192.192 140.232 193.5 139.5Z" fill="#2E260B"/>
<path fill-rule="evenodd" clip-rule="evenodd" d="M193.5 142.5C196.187 142.336 198.854 142.503 201.5 143C203.281 148.576 201.114 151.409 195 151.5C190.314 151.87 188.314 149.87 189 145.5C190.409 144.219 191.909 143.219 193.5 142.5Z" fill="#0D0B08"/>
<path opacity="0.514" fill-rule="evenodd" clip-rule="evenodd" d="M239.5 141.5C241.912 141.694 242.912 143.027 242.5 145.5C241.07 145.579 239.736 145.246 238.5 144.5C237.702 144.957 237.369 145.624 237.5 146.5C231.838 142.777 232.338 141.777 239 143.5C240.684 143.317 240.85 142.65 239.5 141.5Z" fill="#403E3E"/>
<path opacity="0.788" fill-rule="evenodd" clip-rule="evenodd" d="M148.5 159.5C149.355 158.469 150.022 157.303 150.5 156C148.278 152.615 146.278 149.115 144.5 145.5C137.325 150.643 129.992 150.81 122.5 146C116.835 142.239 115.169 137.405 117.5 131.5C118.458 131.047 119.292 130.381 120 129.5C120.041 132.025 119.207 134.358 117.5 136.5C124.801 148.327 134.134 150.327 145.5 142.5C147.431 147.085 149.765 151.419 152.5 155.5C152.152 157.848 150.818 159.182 148.5 159.5Z" fill="#2C2924"/>
<path fill-rule="evenodd" clip-rule="evenodd" d="M194.5 143.5C199.666 144.034 199.666 145.034 194.5 146.5C193.833 146.167 193.167 145.833 192.5 145.5C193.243 144.818 193.909 144.151 194.5 143.5Z" fill="#CDCECE"/>
<path fill-rule="evenodd" clip-rule="evenodd" d="M249.5 124.5C250.167 126.5 250.833 128.5 251.5 130.5C251.229 132.38 251.896 133.713 253.5 134.5C253.833 136.833 255.167 138.167 257.5 138.5C259.428 140.474 261.761 141.974 264.5 143C268.882 143.292 273.215 143.792 277.5 144.5C279.246 145.218 279.912 146.218 279.5 147.5C282.652 143.024 286.985 140.69 292.5 140.5C293.552 140.649 294.552 140.483 295.5 140C296.733 138.333 298.067 136.833 299.5 135.5C300.222 135.082 300.722 134.416 301 133.5C302.114 138.612 300.447 142.612 296 145.5C295.667 144.5 295.333 143.5 295 142.5C294.883 147.902 292.383 151.736 287.5 154C280.617 156.358 273.617 157.025 266.5 156C267.167 156.333 267.833 156.667 268.5 157C258.35 167.384 246.017 172.051 231.5 171C227.833 167.491 224.167 163.824 220.5 160C229.219 154.419 238.386 149.586 248 145.5C248.361 142.475 248.861 139.475 249.5 136.5C248.353 134.194 247.02 132.027 245.5 130C245.519 128.167 246.185 126.667 247.5 125.5C247.842 124.662 248.508 124.328 249.5 124.5Z" fill="#DCB802"/>
<path fill-rule="evenodd" clip-rule="evenodd" d="M207.5 163.5C207.38 162.414 206.713 161.747 205.5 161.5C203.896 161.939 202.396 162.606 201 163.5C197.763 162.202 195.597 163.202 194.5 166.5C190.97 164.323 187.97 161.489 185.5 158C183.725 156.561 181.725 155.561 179.5 155C180.333 154.167 181.167 153.333 182 152.5C185.277 158.109 190.11 159.942 196.5 158C197.126 157.25 197.626 156.416 198 155.5C203.91 157.628 208.076 155.462 210.5 149C210.095 148.055 209.428 147.388 208.5 147C210.167 146.333 211.833 146.333 213.5 147C211.343 152.48 209.343 157.98 207.5 163.5Z" fill="#141007"/>
<path fill-rule="evenodd" clip-rule="evenodd" d="M218.5 169.5C216.861 170.473 215.527 171.806 214.5 173.5C214.167 173.5 213.833 173.5 213.5 173.5C212.5 171.5 211.5 169.5 210.5 167.5C210.833 166.167 211.167 164.833 211.5 163.5C212.492 163.672 213.158 163.338 213.5 162.5C219.013 160.314 223.013 161.981 225.5 167.5C223.031 168.168 220.698 168.835 218.5 169.5Z" fill="#1276B3"/>
<path fill-rule="evenodd" clip-rule="evenodd" d="M207.5 163.5C203.605 166.037 199.272 167.037 194.5 166.5C195.597 163.202 197.763 162.202 201 163.5C202.396 162.606 203.896 161.939 205.5 161.5C206.713 161.747 207.38 162.414 207.5 163.5Z" fill="#D5521C"/>
<path fill-rule="evenodd" clip-rule="evenodd" d="M207.5 163.5C207.426 165.411 206.426 166.578 204.5 167C200.973 167.808 197.64 167.641 194.5 166.5C199.272 167.037 203.605 166.037 207.5 163.5Z" fill="#2C190D"/>
<path fill-rule="evenodd" clip-rule="evenodd" d="M211.5 163.5C211.167 164.833 210.833 166.167 210.5 167.5C208.54 169.484 206.207 170.317 203.5 170C206.961 168.695 209.628 166.529 211.5 163.5Z" fill="#383017"/>
<path opacity="0.906" fill-rule="evenodd" clip-rule="evenodd" d="M148.5 159.5C150.658 161.22 153.325 162.053 156.5 162C154.903 164.188 154.569 166.354 155.5 168.5C154.686 170.273 153.352 170.773 151.5 170C155.149 164.964 153.816 162.297 147.5 162C146.117 160.539 146.451 159.706 148.5 159.5Z" fill="#3A362E"/>
<path fill-rule="evenodd" clip-rule="evenodd" d="M218.5 169.5C225.139 167.876 229.805 170.043 232.5 176C231.2 178.437 230.2 180.937 229.5 183.5C229.167 183.5 228.833 183.5 228.5 183.5C224.131 183.533 219.798 183.2 215.5 182.5C215.037 179.518 214.704 176.518 214.5 173.5C215.527 171.806 216.861 170.473 218.5 169.5Z" fill="#EFEC03"/>
<path fill-rule="evenodd" clip-rule="evenodd" d="M188.5 170.5C190.167 170.5 191.833 170.5 193.5 170.5C193.5 172.167 193.5 173.833 193.5 175.5C189.525 175.486 186.192 176.819 183.5 179.5C182.527 177.052 182.194 174.385 182.5 171.5C184.735 171.795 186.735 171.461 188.5 170.5Z" fill="#0380C3"/>
<path fill-rule="evenodd" clip-rule="evenodd" d="M215.5 182.5C219.616 186.021 223.95 186.355 228.5 183.5C228.833 183.5 229.167 183.5 229.5 183.5C231.474 181.572 232.974 179.239 234 176.5C236.718 178.771 238.551 181.604 239.5 185C248.41 188.376 255.244 194.209 260 202.5C262.118 211.523 258.952 217.69 250.5 221C241.559 223.909 233.726 222.076 227 215.5C222.957 207.54 224.457 206.04 231.5 211C232.833 211.667 234.167 211.667 235.5 211C231.867 210.18 228.867 208.347 226.5 205.5C220.439 210.633 213.439 213.633 205.5 214.5C203.339 221.155 200.506 227.488 197 233.5C190.266 223.774 181.099 217.608 169.5 215C172.461 211.583 174.794 207.75 176.5 203.5C174 200.036 173 196.369 173.5 192.5C175.505 190.666 177.672 188.999 180 187.5C181.704 189.373 183.537 191.04 185.5 192.5C186.624 193.809 188.124 194.475 190 194.5C193.566 194.424 196.4 193.09 198.5 190.5C199.972 188.883 200.639 186.883 200.5 184.5C200.559 181.891 199.892 179.557 198.5 177.5C203.41 176.181 208.41 175.181 213.5 174.5C213.111 177.553 213.777 180.22 215.5 182.5Z" fill="#0182C7"/>
<path fill-rule="evenodd" clip-rule="evenodd" d="M198.5 177.5C199.892 179.557 200.559 181.891 200.5 184.5C200.639 186.883 199.972 188.883 198.5 190.5C200.2 178.225 195.2 174.558 183.5 179.5C186.192 176.819 189.525 175.486 193.5 175.5C193.5 173.833 193.5 172.167 193.5 170.5C191.833 170.5 190.167 170.5 188.5 170.5C190.246 169.782 190.912 168.782 190.5 167.5C191.7 168.531 193.034 169.365 194.5 170C205.106 170.512 205.106 171.345 194.5 172.5C195.098 173.795 195.598 175.128 196 176.5C196.671 177.252 197.504 177.586 198.5 177.5Z" fill="#23241C"/>
<path fill-rule="evenodd" clip-rule="evenodd" d="M198.5 190.5C194.364 192.183 190.031 192.85 185.5 192.5C184.184 190.178 182.851 187.844 181.5 185.5C181.977 183.403 182.643 181.403 183.5 179.5C195.2 174.558 200.2 178.225 198.5 190.5Z" fill="#F0EE03"/>
<path fill-rule="evenodd" clip-rule="evenodd" d="M213.5 173.5C213.833 173.5 214.167 173.5 214.5 173.5C214.704 176.518 215.037 179.518 215.5 182.5C213.777 180.22 213.111 177.553 213.5 174.5C208.41 175.181 203.41 176.181 198.5 177.5C202.86 174.164 207.86 172.83 213.5 173.5Z" fill="#1D1D17"/>
<path fill-rule="evenodd" clip-rule="evenodd" d="M178.5 171.5C179.552 171.351 180.552 171.517 181.5 172C180.201 175.135 180.201 178.301 181.5 181.5C180.902 182.795 180.402 184.128 180 185.5C176.926 187.071 174.76 189.404 173.5 192.5C172.733 191.828 172.066 190.995 171.5 190C173.998 187.552 175.498 184.719 176 181.5C173.55 186.284 170.05 190.117 165.5 193C160.401 193.93 155.401 195.263 150.5 197C154.47 196.674 158.47 196.674 162.5 197C165.129 200.199 164.796 203.199 161.5 206C158.287 206.703 155.121 206.536 152 205.5C148.932 209.319 145.099 210.319 140.5 208.5C136.069 210.996 131.569 210.996 127 208.5C120.782 211.699 115.115 211.032 110 206.5C109.503 204.19 109.337 201.857 109.5 199.5C113.445 200.656 117.445 201.156 121.5 201C124.167 198.667 124.167 196.333 121.5 194C117.205 193.102 113.372 191.269 110 188.5C108.423 183.921 109.923 180.921 114.5 179.5C118.297 181.467 121.964 183.634 125.5 186C127.81 186.497 130.143 186.663 132.5 186.5C132.509 184.692 132.009 183.025 131 181.5C122.553 173.836 123.72 170.003 134.5 170C139.035 174.898 142.702 180.398 145.5 186.5C146.59 185.609 146.59 184.609 145.5 183.5C152.695 174.402 162.028 169.902 173.5 170C175.286 170.785 176.786 171.951 178 173.5C178.464 172.906 178.631 172.239 178.5 171.5Z" fill="#DDB901"/>
<path fill-rule="evenodd" clip-rule="evenodd" d="M178.5 171.5C181.625 170.521 184.958 170.187 188.5 170.5C186.735 171.461 184.735 171.795 182.5 171.5C182.194 174.385 182.527 177.052 183.5 179.5C182.643 181.403 181.977 183.403 181.5 185.5C182.851 187.844 184.184 190.178 185.5 192.5C183.537 191.04 181.704 189.373 180 187.5C177.672 188.999 175.505 190.666 173.5 192.5C174.76 189.404 176.926 187.071 180 185.5C180.402 184.128 180.902 182.795 181.5 181.5C180.201 178.301 180.201 175.135 181.5 172C180.552 171.517 179.552 171.351 178.5 171.5Z" fill="#232521"/>
<path opacity="0.18" fill-rule="evenodd" clip-rule="evenodd" d="M178.5 171.5C178.631 172.239 178.464 172.906 178 173.5C176.786 171.951 175.286 170.785 173.5 170C162.028 169.902 152.695 174.402 145.5 183.5C146.59 184.609 146.59 185.609 145.5 186.5C142.702 180.398 139.035 174.898 134.5 170C123.72 170.003 122.553 173.836 131 181.5C132.009 183.025 132.509 184.692 132.5 186.5C130.143 186.663 127.81 186.497 125.5 186C121.964 183.634 118.297 181.467 114.5 179.5C109.923 180.921 108.423 183.921 110 188.5C113.372 191.269 117.205 193.102 121.5 194C124.167 196.333 124.167 198.667 121.5 201C117.445 201.156 113.445 200.656 109.5 199.5C109.962 198.12 110.962 197.453 112.5 197.5C114.833 198.167 117.167 198.833 119.5 199.5C120.737 199.444 121.737 198.944 122.5 198C118.019 195.169 113.519 192.335 109 189.5C108.034 185.882 108.534 182.549 110.5 179.5C111.772 178.954 113.106 178.621 114.5 178.5C119.304 179.819 123.804 181.819 128 184.5C128.5 184.167 129 183.833 129.5 183.5C128.243 181.321 126.743 179.321 125 177.5C123.167 169.333 126.333 166.167 134.5 168C139.49 170.825 142.823 174.992 144.5 180.5C149.061 177.088 153.394 173.588 157.5 170C157.164 168.97 156.497 168.47 155.5 168.5C158.321 164.372 159.821 165.039 160 170.5C161.019 169.313 162.186 168.313 163.5 167.5C165.961 168.602 168.461 168.602 171 167.5C174.023 167.927 176.523 169.261 178.5 171.5Z" fill="black"/>
<path fill-rule="evenodd" clip-rule="evenodd" d="M165.5 216.5C170.483 216.412 175.149 217.579 179.5 220C186.721 224.386 192.387 230.22 196.5 237.5C195.843 241.814 194.343 245.814 192 249.5C189.379 250.991 186.545 251.658 183.5 251.5C183.192 249.076 183.526 246.743 184.5 244.5C185.396 245.506 186.062 245.506 186.5 244.5C185.123 241.123 182.79 238.789 179.5 237.5C175.124 230.82 169.79 224.82 163.5 219.5C164.193 218.482 164.859 217.482 165.5 216.5Z" fill="#0281C6"/>
<path fill-rule="evenodd" clip-rule="evenodd" d="M165.5 216.5C164.859 217.482 164.193 218.482 163.5 219.5C169.79 224.82 175.124 230.82 179.5 237.5C178.448 237.649 177.448 237.483 176.5 237C172.421 230.501 167.421 224.834 161.5 220C157.5 219.333 153.5 219.333 149.5 220C148.696 221.771 147.529 223.271 146 224.5C145.667 222.953 146.167 221.62 147.5 220.5C147.137 219.817 146.804 219.15 146.5 218.5C149.91 218.218 153.243 217.551 156.5 216.5C159.761 218.455 162.761 218.455 165.5 216.5Z" fill="#1C1D1D"/>
<path fill-rule="evenodd" clip-rule="evenodd" d="M146.5 218.5C135.128 217.224 130.628 222.224 133 233.5C135.074 235.452 137.241 237.285 139.5 239C137.544 238.778 135.71 237.945 134 236.5C133.333 239.5 133.333 242.5 134 245.5C137.771 250.107 142.604 252.773 148.5 253.5C150.5 254.167 152.5 254.833 154.5 255.5C145.856 256.676 138.69 254.009 133 247.5C133.014 241.048 132.18 234.548 130.5 228C131.585 218.908 136.585 215.241 145.5 217C146.056 217.383 146.389 217.883 146.5 218.5Z" fill="#292621"/>
<path opacity="0.671" fill-rule="evenodd" clip-rule="evenodd" d="M297.5 108.5C297.833 108.5 299.667 108.5 300 108.5C302 111.5 302.208 111.894 303 114.5C303.138 122.209 303.305 129.876 303.5 137.5C300.172 142.497 296.838 147.497 293.5 152.5C286.415 157.898 278.581 159.564 270 157.5C260.597 168.117 248.763 173.784 234.5 174.5C237.55 176.928 239.883 179.928 241.5 183.5C265.89 195.214 268.89 210.714 250.5 230C253.6 232.792 255.267 236.292 255.5 240.5C254.267 244.248 252.767 247.914 251 251.5C245.673 256.651 240.507 256.651 235.5 251.5C239.838 254.057 244.172 254.057 248.5 251.5C249.738 248.832 249.738 246.166 248.5 243.5C248.833 243.167 249.167 242.833 249.5 242.5C251.766 246.587 253.099 246.254 253.5 241.5C253.072 237.38 251.572 233.713 249 230.5C241.088 234.633 233.255 234.466 225.5 230C224.29 228.961 223.29 227.794 222.5 226.5C231.416 233.778 240.75 234.278 250.5 228C252.245 226.308 252.578 224.475 251.5 222.5C241.781 225.306 233.281 223.306 226 216.5C225.118 210.048 222.451 209.048 218 213.5C217.506 215.134 217.34 216.801 217.5 218.5C216.698 217.048 216.198 215.382 216 213.5C214.989 214.337 213.822 214.67 212.5 214.5C212.737 215.791 212.404 216.791 211.5 217.5C210.448 215.744 208.781 215.077 206.5 215.5C205.144 222.723 202.144 229.223 197.5 235C198.964 242.745 196.298 248.745 189.5 253C187.559 253.743 185.726 253.576 184 252.5C182.64 262.185 177.14 266.019 167.5 264C162.764 262.08 158.764 259.247 155.5 255.5C160.048 257.107 164.381 259.274 168.5 262C174.482 263.039 178.982 260.873 182 255.5C182.744 252.129 182.244 248.963 180.5 246C182.032 245.3 183.032 244.134 183.5 242.5C182.143 240.814 180.81 239.148 179.5 237.5C182.79 238.789 185.123 241.123 186.5 244.5C186.062 245.506 185.396 245.506 184.5 244.5C183.526 246.743 183.192 249.076 183.5 251.5C186.545 251.658 189.379 250.991 192 249.5C194.343 245.814 195.843 241.814 196.5 237.5C192.387 230.22 186.721 224.386 179.5 220C175.149 217.579 170.483 216.412 165.5 216.5C166.209 215.596 167.209 215.263 168.5 215.5C169.941 211.286 171.941 207.286 174.5 203.5C172.248 200.176 170.748 196.509 170 192.5C168.167 193.667 166.333 194.833 164.5 196C167.547 202.514 165.214 207.014 157.5 209.5C155.726 209.113 154.059 208.447 152.5 207.5C149.512 211.162 145.846 212.162 141.5 210.5C139.393 211.637 137.227 212.637 135 213.5C132.54 212.402 130.04 211.402 127.5 210.5C121.755 213.241 116.088 213.074 110.5 210C107.054 206.658 106.721 203.158 109.5 199.5C109.337 201.857 109.503 204.19 110 206.5C115.115 211.032 120.782 211.699 127 208.5C131.569 210.996 136.069 210.996 140.5 208.5C145.099 210.319 148.932 209.319 152 205.5C155.121 206.536 158.287 206.703 161.5 206C164.796 203.199 165.129 200.199 162.5 197C158.47 196.674 154.47 196.674 150.5 197C155.401 195.263 160.401 193.93 165.5 193C170.05 190.117 173.55 186.284 176 181.5C175.498 184.719 173.998 187.552 171.5 190C172.066 190.995 172.733 191.828 173.5 192.5C173 196.369 174 200.036 176.5 203.5C174.794 207.75 172.461 211.583 169.5 215C181.099 217.608 190.266 223.774 197 233.5C200.506 227.488 203.339 221.155 205.5 214.5C213.439 213.633 220.439 210.633 226.5 205.5C228.867 208.347 231.867 210.18 235.5 211C234.167 211.667 232.833 211.667 231.5 211C224.457 206.04 222.957 207.54 227 215.5C233.726 222.076 241.559 223.909 250.5 221C258.952 217.69 262.118 211.523 260 202.5C255.244 194.209 248.41 188.376 239.5 185C238.551 181.604 236.718 178.771 234 176.5C232.974 179.239 231.474 181.572 229.5 183.5C230.2 180.937 231.2 178.437 232.5 176C229.805 170.043 225.139 167.876 218.5 169.5C220.698 168.835 223.031 168.168 225.5 167.5C223.013 161.981 219.013 160.314 213.5 162.5C217.268 159.775 221.268 157.275 225.5 155C228.206 152.629 230.539 149.963 232.5 147C234.381 147.096 236.047 146.929 237.5 146.5C239.437 147.706 241.104 147.373 242.5 145.5C245.863 145.333 246.863 143.833 245.5 141C246.029 139.441 246.696 137.941 247.5 136.5C245.739 134.747 244.406 132.747 243.5 130.5C243.676 127.775 245.01 126.108 247.5 125.5C246.185 126.667 245.519 128.167 245.5 130C247.02 132.027 248.353 134.194 249.5 136.5C248.861 139.475 248.361 142.475 248 145.5C238.386 149.586 229.219 154.419 220.5 160C224.167 163.824 227.833 167.491 231.5 171C246.017 172.051 258.35 167.384 268.5 157C267.833 156.667 267.167 156.333 266.5 156C273.617 157.025 280.617 156.358 287.5 154C292.383 151.736 294.883 147.902 295 142.5C295.333 143.5 295.667 144.5 296 145.5C300.447 142.612 302.114 138.612 301 133.5C300.722 134.416 300.222 135.082 299.5 135.5C301.249 128.597 301.749 121.597 301 114.5C299.569 112.636 298.403 110.636 297.5 108.5Z" fill="#252524"/>
<path opacity="0.569" fill-rule="evenodd" clip-rule="evenodd" d="M211.5 217.5C209.409 230.477 213.742 240.643 224.5 248C228.547 250.073 232.38 249.907 236 247.5C236.195 248.819 236.028 250.153 235.5 251.5C222.26 251.622 213.76 245.288 210 232.5C209.333 228.5 209.333 224.5 210 220.5C210.232 219.263 210.732 218.263 211.5 217.5Z" fill="#292620"/>
<path fill-rule="evenodd" clip-rule="evenodd" d="M217.5 218.5C217.701 222.13 219.368 224.797 222.5 226.5C223.29 227.794 224.29 228.961 225.5 230C233.255 234.466 241.088 234.633 249 230.5C251.572 233.713 253.072 237.38 253.5 241.5C253.099 246.254 251.766 246.587 249.5 242.5C249.167 242.833 248.833 243.167 248.5 243.5C249.738 246.166 249.738 248.832 248.5 251.5C244.172 254.057 239.838 254.057 235.5 251.5C236.028 250.153 236.195 248.819 236 247.5C232.38 249.907 228.547 250.073 224.5 248C213.742 240.643 209.409 230.477 211.5 217.5C212.404 216.791 212.737 215.791 212.5 214.5C213.822 214.67 214.989 214.337 216 213.5C216.198 215.382 216.698 217.048 217.5 218.5Z" fill="#DDB902"/>
<path fill-rule="evenodd" clip-rule="evenodd" d="M222.5 226.5C219.368 224.797 217.701 222.13 217.5 218.5C217.34 216.801 217.506 215.134 218 213.5C222.451 209.048 225.118 210.048 226 216.5C233.281 223.306 241.781 225.306 251.5 222.5C252.578 224.475 252.245 226.308 250.5 228C240.75 234.278 231.416 233.778 222.5 226.5Z" fill="#097DBF"/>
<path fill-rule="evenodd" clip-rule="evenodd" d="M198.5 190.5C196.4 193.09 193.566 194.424 190 194.5C188.124 194.475 186.624 193.809 185.5 192.5C190.031 192.85 194.364 192.183 198.5 190.5Z" fill="#181F1F"/>
<path fill-rule="evenodd" clip-rule="evenodd" d="M215.5 182.5C219.798 183.2 224.131 183.533 228.5 183.5C223.95 186.355 219.616 186.021 215.5 182.5Z" fill="#1D211D"/>
<path fill-rule="evenodd" clip-rule="evenodd" d="M292.5 140.5C286.985 140.69 282.652 143.024 279.5 147.5C279.912 146.218 279.246 145.218 277.5 144.5C280.562 143.308 283.562 141.808 286.5 140C288.712 139.211 290.712 139.378 292.5 140.5Z" fill="#321E0D"/>
<path fill-rule="evenodd" clip-rule="evenodd" d="M252 133C253.636 134.091 256.909 137.181 258 139C255.455 138.637 252.363 135.545 252 133Z" fill="#3E2E10"/>
<path fill-rule="evenodd" clip-rule="evenodd" d="M148.5 253.5C151.187 253.336 153.854 253.503 156.5 254C155.944 254.383 155.611 254.883 155.5 255.5C155.167 255.5 154.833 255.5 154.5 255.5C152.5 254.833 150.5 254.167 148.5 253.5Z" fill="#635309"/>
<path fill-rule="evenodd" clip-rule="evenodd" d="M146.5 218.5C146.804 219.15 147.137 219.817 147.5 220.5C146.167 221.62 145.667 222.953 146 224.5C147.529 223.271 148.696 221.771 149.5 220C153.5 219.333 157.5 219.333 161.5 220C167.421 224.834 172.421 230.501 176.5 237C177.448 237.483 178.448 237.649 179.5 237.5C180.81 239.148 182.143 240.814 183.5 242.5C183.032 244.134 182.032 245.3 180.5 246C182.244 248.963 182.744 252.129 182 255.5C178.982 260.873 174.482 263.039 168.5 262C164.381 259.274 160.048 257.107 155.5 255.5C155.611 254.883 155.944 254.383 156.5 254C153.854 253.503 151.187 253.336 148.5 253.5C142.604 252.773 137.771 250.107 134 245.5C133.333 242.5 133.333 239.5 134 236.5C135.71 237.945 137.544 238.778 139.5 239C137.241 237.285 135.074 235.452 133 233.5C130.628 222.224 135.128 217.224 146.5 218.5Z" fill="#DAB703"/>
<path fill-rule="evenodd" clip-rule="evenodd" d="M159.5 246.5C157.891 246.094 156.557 246.094 155.5 246.5C156.09 247.799 157.09 248.632 158.5 249C157.5 249.333 156.5 249.667 155.5 250C156.571 250.852 157.571 251.685 158.5 252.5C157.041 252.567 155.708 252.234 154.5 251.5C154.15 249.374 154.15 247.041 154.5 244.5C156.698 244.12 158.365 244.787 159.5 246.5Z" fill="#50440F"/>
<path fill-rule="evenodd" clip-rule="evenodd" d="M160.5 239.5C166.323 241.317 170.657 244.984 173.5 250.5C173.565 250.938 173.399 251.272 173 251.5C169.597 246.595 165.43 242.595 160.5 239.5Z" fill="#221D0C"/>
<path fill-rule="evenodd" clip-rule="evenodd" d="M160.5 239.5C165.43 242.595 169.597 246.595 173 251.5C173.399 251.272 173.565 250.938 173.5 250.5C175.696 255.139 174.196 258.139 169 259.5C165.583 257.682 162.083 255.348 158.5 252.5C157.571 251.685 156.571 250.852 155.5 250C156.5 249.667 157.5 249.333 158.5 249C157.09 248.632 156.09 247.799 155.5 246.5C156.557 246.094 157.891 246.094 159.5 246.5C158.365 244.787 156.698 244.12 154.5 244.5C154.15 247.041 154.15 249.374 154.5 251.5C152.418 251.376 150.918 250.376 150 248.5C149.333 249.167 148.667 249.833 148 250.5C146.148 248.441 144.982 246.274 144.5 244C145.875 241.523 147.709 240.689 150 241.5C153.059 237.35 156.559 236.684 160.5 239.5Z" fill="#9A880C"/>
<path fill-rule="evenodd" clip-rule="evenodd" d="M159.5 246.5C160.787 247.528 161.954 247.195 163 245.5C165.157 246.385 165.99 248.052 165.5 250.5C162.392 250.625 160.392 249.292 159.5 246.5Z" fill="#42380D"/>
<path fill-rule="evenodd" clip-rule="evenodd" d="M162.5 246.5C164.085 247.002 164.585 248.002 164 249.5C162.961 248.756 162.461 247.756 162.5 246.5Z" fill="#DFBF09"/>
<path opacity="0.165" fill-rule="evenodd" clip-rule="evenodd" d="M95.5 267.5C95.8966 266.475 96.5632 266.308 97.5 267C96.9056 267.464 96.2389 267.631 95.5 267.5Z" fill="#7A7A7E"/>
<path d="M282.895 89.2427L282.896 89.2427L282.912 89.2451L282.929 89.2467L282.929 89.2467L282.929 89.2467L282.93 89.2467L282.933 89.247L282.945 89.2482L282.996 89.2533C283.042 89.258 283.11 89.2652 283.199 89.2751C283.376 89.2948 283.635 89.3252 283.957 89.3677C284.602 89.4526 285.499 89.5853 286.507 89.7761C288.542 90.1617 290.95 90.7708 292.651 91.664C294.606 92.6905 296.537 93.9029 297.969 95.2615C299.411 96.6294 300.25 98.0503 300.25 99.5C300.25 101.204 300.038 103.453 299.822 105.297C299.714 106.214 299.607 107.023 299.526 107.603C299.511 107.71 299.497 107.809 299.485 107.9C299.129 107.903 298.635 107.905 298.029 107.904C296.722 107.903 294.895 107.887 292.821 107.829C288.664 107.712 283.549 107.428 279.626 106.761C275.997 106.144 271.841 104.788 268.571 103.575C266.941 102.971 265.54 102.405 264.547 101.99C264.05 101.783 263.656 101.614 263.387 101.497C263.361 101.485 263.336 101.475 263.312 101.464C263.302 101.423 263.292 101.379 263.282 101.332C263.213 101.025 263.122 100.595 263.035 100.106C262.857 99.1114 262.703 97.9318 262.749 97.0382L262.751 96.9934C262.797 96.0983 262.838 95.2884 262.961 94.579C263.087 93.8556 263.283 93.3319 263.576 92.9798C263.687 92.8464 264.028 92.5848 264.652 92.2324C265.245 91.8978 266.013 91.525 266.886 91.1509C268.634 90.402 270.757 89.6678 272.667 89.2311C274.56 88.7982 277.097 88.792 279.21 88.9058C280.257 88.9621 281.181 89.0467 281.843 89.1171C282.174 89.1523 282.438 89.1839 282.62 89.2067C282.71 89.218 282.78 89.2271 282.827 89.2334L282.879 89.2404L282.892 89.2422L282.895 89.2426L282.895 89.2427L282.895 89.2427Z" fill="#D9D9D9" stroke="#2B2424" stroke-width="1.5"/>
<path d="M262.62 93.4457C262.62 93.4457 271.662 98.6142 280.701 100.151C291.821 102.042 300.916 101.055 300.916 101.055" stroke="#2B2424"/>
<path d="M266.374 95.1555C266.374 95.1555 265.324 97.5027 265 99C264.669 100.53 264.759 102.778 264.759 102.778" stroke="#2B2424" stroke-width="0.5"/>
<path d="M270.192 96.916C270.192 96.916 269.157 99.1938 268.842 100.649C268.52 102.135 268.623 104.323 268.623 104.323" stroke="#2B2424" stroke-width="0.5"/>
<path d="M274.098 98.3876C274.098 98.3876 273.073 100.617 272.765 102.043C272.45 103.499 272.561 105.644 272.561 105.644" stroke="#2B2424" stroke-width="0.5"/>
<path d="M277.959 99.6498C277.959 99.6498 277.3 101.615 277 103C276.694 104.415 276.466 106.699 276.466 106.699" stroke="#2B2424" stroke-width="0.5"/>
<path d="M282.457 100.428C282.457 100.428 282.116 102.56 281.809 103.979C281.495 105.429 280.926 107.653 280.926 107.653" stroke="#2B2424" stroke-width="0.5"/>
<path d="M287.32 100.965C287.32 100.965 287.108 103.083 286.886 104.498C286.66 105.943 286.225 108.164 286.225 108.164" stroke="#2B2424" stroke-width="0.5"/>
<path d="M291.734 101.467C291.734 101.467 291.645 103.514 291.465 105.008C291.294 106.424 290.814 108.483 290.814 108.483" stroke="#2B2424" stroke-width="0.5"/>
<path d="M296.302 101.303C296.302 101.303 296.23 103.264 296.063 104.693C295.903 106.048 295.442 108.016 295.442 108.016" stroke="#2B2424" stroke-width="0.5"/>
</svg>
