<svg width="299" height="212" viewBox="0 0 299 212" fill="none" xmlns="http://www.w3.org/2000/svg">
<path opacity="0.999" fill-rule="evenodd" clip-rule="evenodd" d="M187.594 98.832C186.631 98.6552 185.885 98.9036 185.357 99.5779C182.845 103.228 180.607 107.082 178.643 111.139C179.627 111.285 180.622 111.16 181.627 110.766C182.59 110.59 183.336 110.838 183.865 111.512C179.912 111.773 178.296 113.762 179.016 117.48C180.725 119.777 182.341 122.139 183.865 124.566C184.829 124.931 185.824 125.056 186.848 124.939C188.092 125.436 189.334 125.933 190.578 126.43C188.155 126.235 185.918 126.235 183.865 126.43C183.367 126.43 183.119 126.679 183.119 127.176C181.908 124.267 180.293 121.532 178.271 118.971C177.217 121.329 175.973 123.567 174.541 125.684C174.293 128.42 174.043 131.154 173.795 133.889C168.947 140.598 164.472 147.56 160.369 154.775C161.838 159.582 162.957 164.554 163.725 169.693C162.437 174.08 159.453 176.442 154.775 176.779C151.045 177.276 147.316 177.276 143.586 176.779C135.736 175.446 128.029 173.581 120.463 171.184C120.004 170.216 120.004 169.47 120.463 168.947C126.533 171.038 132.749 172.654 139.111 173.795C146.36 174.436 153.57 174.187 160.742 173.049C161.92 168.496 161.298 164.145 158.877 159.996C158.133 157.534 157.885 155.048 158.131 152.537C162.567 145.863 167.291 139.399 172.303 133.143C172.801 131.403 172.801 129.662 172.303 127.922C170.853 128.939 169.236 129.561 167.455 129.787C160.493 130.284 153.531 130.284 146.57 129.787C145.643 128.926 144.897 127.931 144.332 126.803C142.094 126.555 139.857 126.306 137.619 126.057C135.771 124.832 134.031 123.465 132.398 121.955C131.714 122.423 130.968 122.672 130.16 122.701C129.662 122.949 129.166 123.198 128.668 123.447C115.395 126.481 108.806 121.011 108.902 107.037C113.112 101.707 117.463 96.4854 121.955 91.373C122.064 89.6529 122.312 87.9127 122.701 86.1517C123.559 85.2335 124.429 85.2335 125.311 86.1517C125.96 85.6982 126.333 85.0768 126.43 84.2869C123.465 81.9403 120.233 80.0755 116.734 78.6926C115.964 75.7993 115.467 73.0646 115.242 70.4877C115.868 68.1199 117.11 66.1308 118.971 64.5205C117.536 62.3963 116.293 60.1586 115.242 57.8074C109.83 56.0417 107.592 52.4365 108.529 46.9918C107.147 44.27 106.774 41.4108 107.41 38.414C110.211 36.2312 112.325 33.4963 113.75 30.209C114.955 29.7212 116.198 29.3483 117.48 29.0902C122.135 24.0283 127.108 19.3042 132.398 14.9181C144.874 14.2047 157.181 12.34 169.32 9.32379C174.276 10.537 178.254 13.2719 181.254 17.5287C185.978 23.7445 190.702 29.9604 195.426 36.1763C193.33 45.6866 192.211 55.3834 192.07 65.2664C188.239 65.1527 185.38 63.4123 183.492 60.0451C181.97 61.1942 180.354 62.1888 178.643 63.0287C178.06 64.95 176.941 66.4418 175.287 67.5041C175.039 68.9959 174.789 70.4877 174.541 71.9795C172.887 73.4277 171.643 75.1683 170.812 77.2008C167.475 79.0328 164.119 80.8975 160.742 82.7951C164.249 84.0691 167.108 86.1822 169.32 89.1353C173.094 94.6945 176.078 100.662 178.271 107.037C179.862 103.718 181.727 100.61 183.865 97.7131C185.275 97.5617 186.518 97.9347 187.594 98.832Z" fill="#161712"/>
<path fill-rule="evenodd" clip-rule="evenodd" d="M144.332 95.8484C146.268 96.419 148.258 96.6681 150.299 96.5943C150.178 98.3524 150.301 100.093 150.672 101.816C152.943 103.99 154.559 106.601 155.521 109.648C152.881 109.858 150.27 110.231 147.689 110.766C146.371 110.14 145.376 109.146 144.705 107.783C143.582 103.81 143.458 99.8322 144.332 95.8484Z" fill="#F3F3F3"/>
<path fill-rule="evenodd" clip-rule="evenodd" d="M128.668 95.1025C130.408 95.1025 132.149 95.1025 133.889 95.1025C133.73 96.3287 133.979 97.4476 134.635 98.459C132.7 98.6276 130.835 99.0006 129.041 99.5779C128.672 98.1062 128.547 96.6144 128.668 95.1025Z" fill="#E6E6E6"/>
<path fill-rule="evenodd" clip-rule="evenodd" d="M136.127 92.8647C138.507 93.2183 140.745 93.9642 142.84 95.1025C143.579 97.1492 143.33 99.1385 142.094 101.07C141.019 100.052 140.025 98.9327 139.111 97.7131C137.908 97.1761 136.789 97.2999 135.754 98.0861C135.23 96.2743 135.354 94.5341 136.127 92.8647Z" fill="#8FC115"/>
<path fill-rule="evenodd" clip-rule="evenodd" d="M152.537 93.6107C151.342 94.7847 149.85 95.2822 148.061 95.1025C149.256 93.9284 150.748 93.4309 152.537 93.6107Z" fill="#839381"/>
<path fill-rule="evenodd" clip-rule="evenodd" d="M128.668 91.3729C129.414 91.3729 130.16 91.3729 130.906 91.3729C131.646 91.2446 132.142 91.4938 132.398 92.1188C132.398 92.8647 132.398 93.6106 132.398 94.3565C130.062 94.7981 128.322 94.0522 127.176 92.1188C127.431 91.4938 127.928 91.2446 128.668 91.3729Z" fill="#A3BDA6"/>
<path fill-rule="evenodd" clip-rule="evenodd" d="M132.398 92.1189C132.142 91.4938 131.646 91.2447 130.906 91.373C130.906 90.8755 130.906 90.3787 130.906 89.8812C131.646 90.0095 132.142 89.7603 132.398 89.1353C133.516 88.2566 134.262 87.0132 134.635 85.4058C134.884 85.6541 135.133 85.9033 135.381 86.1517C134.578 88.37 134.578 90.6077 135.381 92.8648C134.293 92.9148 133.299 92.6664 132.398 92.1189Z" fill="#8EBF16"/>
<path fill-rule="evenodd" clip-rule="evenodd" d="M145.824 86.1516C145.138 90.1825 146.878 91.6743 151.045 90.6271C152.305 91.6944 153.797 92.3158 155.52 92.4918C154.728 93.3779 153.733 93.7509 152.537 93.6107C150.748 93.4309 149.256 93.9284 148.061 95.1025C146.53 95.1756 145.287 94.678 144.332 93.6107C145.493 91.2327 144.747 89.4925 142.094 88.3894C141.195 87.36 141.443 86.4895 142.84 85.7787C144.008 85.2081 145.003 85.3326 145.824 86.1516Z" fill="#91C516"/>
<path fill-rule="evenodd" clip-rule="evenodd" d="M126.43 88.3893C127.771 89.3068 129.262 89.8036 130.906 89.8811C130.906 90.3787 130.906 90.8754 130.906 91.3729C130.16 91.3729 129.414 91.3729 128.668 91.3729C127.707 90.5249 126.961 89.5306 126.43 88.3893Z" fill="#3E4D1B"/>
<path fill-rule="evenodd" clip-rule="evenodd" d="M126.43 88.3893C126.961 89.5306 127.707 90.5248 128.668 91.3729C127.928 91.2446 127.431 91.4938 127.176 92.1188C124.672 91.3528 123.428 89.6126 123.447 86.8975C124.714 86.9177 125.709 87.4152 126.43 88.3893Z" fill="#8CBD16"/>
<path fill-rule="evenodd" clip-rule="evenodd" d="M142.094 88.3893C144.747 89.4925 145.493 91.2327 144.332 93.6107C142.354 93.1243 141.11 91.8809 140.602 89.8811C140.787 88.9764 141.284 88.4789 142.094 88.3893Z" fill="#95AD94"/>
<path fill-rule="evenodd" clip-rule="evenodd" d="M136.873 86.8975C137.922 87.2503 138.419 87.9962 138.365 89.1352C137.884 92.9073 136.889 92.9073 135.381 89.1352C135.711 88.2111 136.208 87.4652 136.873 86.8975Z" fill="#A8C1AD"/>
<path fill-rule="evenodd" clip-rule="evenodd" d="M132.398 89.1352C132.142 89.7603 131.646 90.0094 130.906 89.8811C129.262 89.8035 127.771 89.3068 126.43 88.3893C128.333 87.6553 130.322 86.9094 132.398 86.1516C133.237 87.1273 133.237 88.1223 132.398 89.1352Z" fill="#A8C4AC"/>
<path fill-rule="evenodd" clip-rule="evenodd" d="M145.824 86.1516C145.824 86.6491 146.072 86.8975 146.57 86.8975C146.687 89.7118 147.93 90.4577 150.299 89.1352C150.924 89.3903 151.173 89.8871 151.045 90.627C146.878 91.6743 145.138 90.1825 145.824 86.1516Z" fill="#6E7F58"/>
<path fill-rule="evenodd" clip-rule="evenodd" d="M150.299 89.1352C147.93 90.4577 146.687 89.7118 146.57 86.8975C148.199 86.4597 149.443 87.2056 150.299 89.1352Z" fill="#BEDDC5"/>
<path fill-rule="evenodd" clip-rule="evenodd" d="M154.775 83.9139C159.745 83.2874 163.599 85.0283 166.336 89.1352C172.191 97.2641 175.671 106.215 176.779 115.988C175.455 120.503 173.093 124.357 169.693 127.549C162.002 128.771 154.294 128.896 146.57 127.922C144.711 123.019 144.587 118.047 146.197 113.004C146.993 112.489 147.863 112.116 148.807 111.885C153.283 111.637 157.758 111.388 162.234 111.139C160.452 110.913 158.836 110.291 157.385 109.275C156.57 104.811 155.824 100.336 155.148 95.8483C154.337 98.2285 153.715 100.715 153.283 103.307C152.846 103.151 152.473 102.902 152.164 102.561C151.552 100.283 151.675 98.0458 152.537 95.8483C154.314 95.2136 155.805 94.2193 157.012 92.8647C156.325 91.182 155.082 90.4361 153.283 90.627C153.212 88.2424 153.709 86.0047 154.775 83.9139Z" fill="#96CA17"/>
<path fill-rule="evenodd" clip-rule="evenodd" d="M136.873 86.8976C137.951 86.0674 139.195 85.9428 140.602 86.5246C140.019 88.5684 139.646 90.6823 139.484 92.8648C139.336 91.461 138.963 90.2183 138.365 89.1353C138.419 87.9963 137.922 87.2504 136.873 86.8976Z" fill="#6F9412"/>
<path fill-rule="evenodd" clip-rule="evenodd" d="M148.061 85.4057C149.452 84.4413 150.944 84.4413 152.537 85.4057C152.164 86.1516 151.791 86.8975 151.418 87.6434C150.47 86.6118 149.351 85.8659 148.061 85.4057Z" fill="#BCBDBC"/>
<path fill-rule="evenodd" clip-rule="evenodd" d="M127.922 84.6599C130.971 84.4495 131.344 84.947 129.041 86.1517C128.273 85.901 127.9 85.4035 127.922 84.6599Z" fill="#D7D6D6"/>
<path fill-rule="evenodd" clip-rule="evenodd" d="M145.078 71.2336C146.818 71.2336 148.559 71.2336 150.299 71.2336C151.262 71.0566 152.008 71.3052 152.537 71.9795C153.781 73.4554 154.278 75.1958 154.029 77.2008C153.442 78.3973 152.447 78.8948 151.045 78.6926C148.893 78.9209 146.904 78.6725 145.078 77.9467C145.736 75.1861 146.979 74.4404 148.807 75.709C148.15 76.8062 147.156 77.4276 145.824 77.5738C147.797 77.9445 149.787 78.0691 151.791 77.9467C151.791 76.7033 151.791 75.4606 151.791 74.2172C148.678 74.623 145.819 74.1255 143.213 72.7254C143.006 73.4085 142.633 73.9058 142.094 74.2172C142.094 73.7199 142.094 73.2227 142.094 72.7254C142.681 71.5288 143.676 71.0315 145.078 71.2336Z" fill="#B0B0AE"/>
<path fill-rule="evenodd" clip-rule="evenodd" d="M118.971 74.9631C119.273 75.9 119.77 76.7705 120.463 77.5738C119.201 78.938 118.455 78.5651 118.225 76.4549C118.257 75.7717 118.506 75.2742 118.971 74.9631Z" fill="#D7B504"/>
<path fill-rule="evenodd" clip-rule="evenodd" d="M145.078 77.9467C142.992 77.5984 141.997 76.3557 142.094 74.2172C142.633 73.9058 143.006 73.4085 143.213 72.7254C145.819 74.1255 148.678 74.623 151.791 74.2172C151.791 75.4606 151.791 76.7033 151.791 77.9467C149.787 78.069 147.797 77.9445 145.824 77.5738C147.156 77.4276 148.15 76.8062 148.807 75.709C146.979 74.4404 145.736 75.1861 145.078 77.9467Z" fill="#F8F8F8"/>
<path fill-rule="evenodd" clip-rule="evenodd" d="M128.668 75.709C127.928 75.5807 127.431 75.8298 127.176 76.4549C124.257 76.745 121.522 76.2475 118.971 74.9631C118.971 73.7199 118.971 72.4768 118.971 71.2336C122.13 70.5354 125.363 70.2868 128.668 70.4877C127.888 72.2642 127.888 74.0047 128.668 75.709Z" fill="#E2E2E2"/>
<path fill-rule="evenodd" clip-rule="evenodd" d="M142.094 72.7254C142.094 73.2227 142.094 73.7199 142.094 74.2172C141.997 76.3557 142.992 77.5984 145.078 77.9467C146.904 78.6725 148.893 78.9209 151.045 78.6926C149.203 79.302 147.215 79.675 145.078 79.8115C143.159 81.3712 141.169 82.7392 139.111 83.914C136.663 83.0502 134.177 82.1797 131.652 81.3033C132.779 80.0987 133.773 80.0987 134.635 81.3033C137.156 82.003 139.394 81.5054 141.348 79.8115C139.42 76.9495 139.669 76.7003 142.094 79.0656C142.84 79.5631 143.586 79.5631 144.332 79.0656C142.27 78.2473 141.027 76.7555 140.602 74.5902C138.078 72.8659 136.089 73.3632 134.635 76.082C132.606 76.531 130.617 76.4065 128.668 75.709C127.888 74.0047 127.888 72.2642 128.668 70.4877C125.363 70.2869 122.13 70.5355 118.971 71.2336C118.949 70.4898 119.322 69.9925 120.09 69.7418C121.985 69.3637 123.85 68.8664 125.684 68.25C124.423 66.1278 124.672 64.3874 126.43 63.0287C127.227 62.3317 128.221 62.0831 129.414 62.2828C130.248 64.7854 130.248 67.2717 129.414 69.7418C133.117 71.0786 136.847 72.3217 140.602 73.4713C141.112 73.2008 141.609 72.9521 142.094 72.7254Z" fill="#241F14"/>
<path fill-rule="evenodd" clip-rule="evenodd" d="M130.16 71.9795C131.427 71.86 132.671 71.9844 133.889 72.3525C132.334 73.948 131.091 73.8238 130.16 71.9795Z" fill="#C9C8C8"/>
<path fill-rule="evenodd" clip-rule="evenodd" d="M186.848 58.5533C187.843 58.5533 188.838 58.5533 189.832 58.5533C190.045 59.887 189.796 61.1302 189.086 62.2828C187.403 61.5959 186.657 60.3527 186.848 58.5533Z" fill="#A8C4AE"/>
<path fill-rule="evenodd" clip-rule="evenodd" d="M177.152 57.0615C177.19 60.7136 175.822 63.6972 173.049 66.0123C171.259 64.3494 169.643 62.609 168.201 60.791C171.049 59.542 174.032 58.2988 177.152 57.0615Z" fill="#94C816"/>
<path fill-rule="evenodd" clip-rule="evenodd" d="M183.865 55.5697C183.186 57.7407 181.694 59.2325 179.389 60.0451C178.693 58.8555 178.693 57.6123 179.389 56.3156C180.747 54.8528 182.239 54.6042 183.865 55.5697Z" fill="#A7C1A8"/>
<path fill-rule="evenodd" clip-rule="evenodd" d="M154.775 45.873C155.272 47.1162 155.769 48.3593 156.266 49.6025C158.702 54.7249 160.94 59.9463 162.979 65.2664C162.417 67.9522 161.423 70.4386 159.996 72.7254C159.375 72.974 158.752 73.2227 158.131 73.4713C156.234 73.0453 154.369 72.548 152.537 71.9795C152.008 71.3052 151.262 71.0566 150.299 71.2336C149.77 70.5593 149.024 70.3107 148.061 70.4877C148.709 68.1212 148.709 65.8835 148.061 63.7746C148.061 63.2773 147.813 63.0287 147.316 63.0287C144.481 60.4871 143.238 61.233 143.586 65.2664C143.5 67.4361 143.997 69.4251 145.078 71.2336C143.676 71.0315 142.681 71.5288 142.094 72.7254C141.609 72.9521 141.112 73.2008 140.602 73.4713C136.847 72.3217 133.117 71.0786 129.414 69.7418C130.248 67.2717 130.248 64.7854 129.414 62.2828C128.221 62.083 127.227 62.3316 126.43 63.0287C124.672 64.3874 124.423 66.1278 125.684 68.25C123.85 68.8663 121.985 69.3636 120.09 69.7418C119.322 69.9925 118.949 70.4898 118.971 71.2336C117.931 72.393 117.434 72.1444 117.479 70.4877C118.269 68.4765 119.015 66.4875 119.717 64.5205C116.393 56.2812 117.139 48.4492 121.955 41.0246C127.07 42.7294 132.291 44.4698 137.619 46.2459C143.359 46.7615 149.077 46.6372 154.775 45.873Z" fill="#DBB701"/>
<path fill-rule="evenodd" clip-rule="evenodd" d="M147.316 63.0287C146.439 62.8653 145.693 63.1139 145.078 63.7746C146.165 64.7308 147.16 64.7308 148.062 63.7746C148.709 65.8835 148.709 68.1212 148.062 70.4877C149.024 70.3107 149.77 70.5593 150.299 71.2336C148.559 71.2336 146.818 71.2336 145.078 71.2336C143.997 69.4251 143.5 67.4361 143.586 65.2664C143.238 61.233 144.481 60.4871 147.316 63.0287Z" fill="#141008"/>
<path fill-rule="evenodd" clip-rule="evenodd" d="M147.316 63.0287C147.813 63.0287 148.061 63.2773 148.061 63.7746C147.16 64.7308 146.165 64.7308 145.078 63.7746C145.693 63.1139 146.439 62.8653 147.316 63.0287Z" fill="#8D8E8D"/>
<path fill-rule="evenodd" clip-rule="evenodd" d="M126.43 63.0287C127.307 62.8653 128.053 63.1139 128.668 63.7746C127.51 64.7427 126.764 64.4941 126.43 63.0287Z" fill="#A9ABA9"/>
<path fill-rule="evenodd" clip-rule="evenodd" d="M168.201 60.791C168.902 63.1885 170.021 65.4262 171.557 67.5041C172.055 68.9959 172.055 70.4877 171.557 71.9795C171.06 72.974 170.563 72.974 170.066 71.9795C169.647 74.0606 168.653 75.8008 167.082 77.2008C166.399 76.5832 165.903 75.8373 165.59 74.9631C163.635 79.2498 160.279 81.8605 155.52 82.7951C149.145 83.9952 142.929 84.7411 136.873 85.0328C131.045 84.4584 126.072 82.0962 121.955 77.9467C123.797 77.4485 125.537 76.9509 127.176 76.4549C127.431 75.8298 127.928 75.5807 128.668 75.709C130.617 76.4064 132.606 76.531 134.635 76.082C136.089 73.3632 138.078 72.8659 140.602 74.5902C141.027 76.7555 142.27 78.2473 144.332 79.0656C143.586 79.5631 142.84 79.5631 142.094 79.0656C139.669 76.7003 139.42 76.9494 141.348 79.8115C139.394 81.5054 137.156 82.0029 134.635 81.3033C133.773 80.0986 132.779 80.0986 131.652 81.3033C134.177 82.1797 136.663 83.0502 139.111 83.9139C141.169 82.7391 143.159 81.3712 145.078 79.8115C147.215 79.675 149.203 79.302 151.045 78.6926C152.447 78.8948 153.442 78.3972 154.029 77.2008C161.95 75.577 165.307 70.604 164.098 62.2828C162.503 58.0966 160.514 54.1185 158.131 50.3484C157.076 44.3374 157.822 38.6188 160.369 33.1926C160.99 32.5711 161.612 31.9494 162.234 31.3279C165.68 30.3383 169.161 29.841 172.676 29.8361C174.541 30.7063 175.908 32.0738 176.779 33.9385C179.389 39.1911 179.264 44.4124 176.406 49.6025C178.421 52.3012 177.426 54.6632 173.422 56.6885C171.51 57.4936 169.522 57.8665 167.455 57.8074C167.255 59.0001 167.504 59.9947 168.201 60.791Z" fill="#DAB701"/>
<path fill-rule="evenodd" clip-rule="evenodd" d="M122.701 50.3484C125.156 50.0646 126.897 51.0592 127.922 53.332C126.788 53.6152 125.545 53.7396 124.193 53.7049C123.477 54.7637 122.855 55.8825 122.328 57.0615C121.855 54.783 121.979 52.5453 122.701 50.3484Z" fill="#141007"/>
<path fill-rule="evenodd" clip-rule="evenodd" d="M145.078 48.1107C147.185 47.7979 148.801 48.5438 149.926 50.3484C153.844 58.0886 153.222 58.7102 148.061 52.2131C145.257 51.3358 143.144 52.206 141.721 54.8238C142.02 52.2371 143.139 49.9994 145.078 48.1107Z" fill="#1B1507"/>
<path fill-rule="evenodd" clip-rule="evenodd" d="M155.52 44.3812C156.169 46.0348 156.417 47.7753 156.266 49.6025C155.769 48.3593 155.272 47.1162 154.775 45.873C154.775 45.6244 154.775 45.3757 154.775 45.1271C154.775 44.6298 155.023 44.3812 155.52 44.3812Z" fill="#726005"/>
<path fill-rule="evenodd" clip-rule="evenodd" d="M117.48 44.3811C116.673 48.0902 115.927 51.8197 115.242 55.5697C112.46 54.4771 110.72 52.488 110.021 49.6025C110.258 48.7467 110.754 48.1251 111.512 47.7377C108.821 44.3741 108.697 41.0176 111.139 37.668C111.871 41.2581 113.984 43.4958 117.48 44.3811Z" fill="#D7B402"/>
<path fill-rule="evenodd" clip-rule="evenodd" d="M182.373 41.3975C183.119 41.6461 183.616 42.1434 183.865 42.8893C185.491 47.4742 183.999 49.2147 179.389 48.1106C180.055 45.6469 181.049 43.4092 182.373 41.3975Z" fill="#AFCAB3"/>
<path fill-rule="evenodd" clip-rule="evenodd" d="M165.963 22.75C165.392 24.6864 165.143 26.6755 165.217 28.7172C167.421 28.2259 169.659 27.9772 171.93 27.9713C171.93 27.2254 171.93 26.4795 171.93 25.7336C172.179 25.7336 172.428 25.7336 172.676 25.7336C172.704 28.1217 173.946 29.3649 176.406 29.4631C177.775 31.4641 178.521 33.7018 178.643 36.1762C182.275 35.6253 183.27 33.6362 181.627 30.209C184.929 33.6132 184.183 35.9753 179.389 37.2951C180.058 39.0187 181.053 40.3862 182.373 41.3975C181.049 43.4092 180.055 45.6469 179.389 48.1107C183.999 49.2147 185.491 47.4743 183.865 42.8893C186.742 47.7455 185.251 49.9832 179.389 49.6025C179.501 52.3583 178.755 54.8447 177.152 57.0615C174.032 58.2988 171.049 59.542 168.201 60.791C167.504 59.9947 167.255 59.0001 167.455 57.8074C169.522 57.8665 171.51 57.4936 173.422 56.6885C177.426 54.6633 178.421 52.3012 176.406 49.6025C179.264 44.4124 179.389 39.1911 176.779 33.9385C175.908 32.0738 174.541 30.7063 172.676 29.8361C169.161 29.841 165.68 30.3383 162.234 31.3279C161.612 31.9494 160.99 32.5711 160.369 33.1926C157.822 38.6188 157.076 44.3374 158.131 50.3484C160.514 54.1185 162.503 58.0966 164.098 62.2828C165.307 70.604 161.95 75.577 154.029 77.2008C154.278 75.1958 153.781 73.4553 152.537 71.9795C154.369 72.548 156.234 73.0452 158.131 73.4713C158.752 73.2227 159.375 72.974 159.996 72.7254C161.423 70.4385 162.417 67.9522 162.979 65.2664C160.94 59.9462 158.702 54.7249 156.266 49.6025C156.417 47.7753 156.169 46.0348 155.52 44.3811C156.195 43.8523 156.443 43.1064 156.266 42.1434C156.395 41.4038 156.146 40.9065 155.52 40.6516C155.526 38.3805 155.775 36.1428 156.266 33.9385C157.606 32.9743 158.849 31.8554 159.996 30.582C161.133 29.8297 162.377 29.4567 163.725 29.4631C163.604 27.7052 163.728 25.9647 164.098 24.2418C164.409 23.305 165.031 22.8077 165.963 22.75Z" fill="#18170E"/>
<path fill-rule="evenodd" clip-rule="evenodd" d="M168.947 42.8893C169.731 42.7778 170.477 42.9022 171.184 43.2623C168.24 44.4473 166.873 46.5607 167.082 49.6024C169.907 47.7681 170.404 48.514 168.574 51.8402C168.069 50.2074 167.198 49.9587 165.963 51.0943C165.715 50.4727 165.466 49.8511 165.217 49.2295C165.692 46.6464 166.935 44.5329 168.947 42.8893Z" fill="#2A230A"/>
<path fill-rule="evenodd" clip-rule="evenodd" d="M115.988 38.4139C117.382 38.9097 118.874 39.407 120.463 39.9057C119.966 41.1489 119.469 42.3921 118.971 43.6353C118.63 44.2301 118.133 44.4788 117.479 44.3812C115.966 42.6219 114.474 40.8815 113.004 39.1598C113.998 38.9112 114.993 38.6625 115.988 38.4139Z" fill="#475D0E"/>
<path fill-rule="evenodd" clip-rule="evenodd" d="M191.324 37.668C192.07 37.668 192.816 37.668 193.561 37.668C192.478 39.7962 191.608 42.0339 190.951 44.3811C190.45 44.9424 189.829 45.191 189.086 45.127C188.461 44.8722 188.212 44.3749 188.34 43.6352C187.799 40.7956 188.793 38.8065 191.324 37.668Z" fill="#B0CDB5"/>
<path fill-rule="evenodd" clip-rule="evenodd" d="M191.324 37.668C188.793 38.8065 187.799 40.7956 188.34 43.6352C186.959 40.7891 187.705 38.5514 190.578 36.9221C191.031 37.0143 191.279 37.2629 191.324 37.668Z" fill="#1E2316"/>
<path fill-rule="evenodd" clip-rule="evenodd" d="M114.496 30.9549C115.047 30.8572 115.545 30.9815 115.988 31.3279C115.117 32.1981 114.247 33.0683 113.377 33.9385C113.153 32.7707 113.526 31.7762 114.496 30.9549Z" fill="#998608"/>
<path fill-rule="evenodd" clip-rule="evenodd" d="M175.66 21.2582C177.349 21.7942 179.089 22.0429 180.881 22.0041C180.304 22.4868 179.558 22.7354 178.643 22.75C177.26 22.8692 176.266 22.3719 175.66 21.2582Z" fill="#3D4632"/>
<path fill-rule="evenodd" clip-rule="evenodd" d="M174.914 19.7664C175.162 20.2637 175.411 20.7609 175.66 21.2582C176.266 22.3719 177.26 22.8692 178.643 22.75C179.558 22.7355 180.304 22.4868 180.881 22.0041C184.587 25.8365 188.192 29.8147 191.697 33.9385C192.513 35.1155 193.135 36.3587 193.562 37.668C192.816 37.668 192.07 37.668 191.324 37.668C191.279 37.2629 191.031 37.0143 190.578 36.9221C187.705 38.5514 186.96 40.7891 188.34 43.6353C188.212 44.3749 188.461 44.8722 189.086 45.1271C189.854 45.912 190.352 46.9066 190.578 48.1107C189.983 51.3169 189.735 54.5491 189.832 57.8074C188.639 57.6076 187.645 57.8562 186.848 58.5533C185.854 57.5588 184.859 56.5642 183.865 55.5697C182.239 54.6042 180.747 54.8528 179.389 56.3156C178.725 56.7704 177.979 57.019 177.152 57.0615C178.755 54.8447 179.501 52.3584 179.389 49.6025C185.251 49.9832 186.742 47.7455 183.865 42.8894C183.616 42.1435 183.119 41.6462 182.373 41.3975C181.053 40.3862 180.058 39.0187 179.389 37.2951C184.183 35.9753 184.929 33.6132 181.627 30.209C180.02 28.6919 178.279 28.4432 176.406 29.4631C173.947 29.3649 172.704 28.1217 172.676 25.7336C171.87 23.1886 170.129 21.6968 167.455 21.2582C166.693 21.5234 166.195 22.0207 165.963 22.75C165.031 22.8077 164.409 23.305 164.098 24.2418C163.728 25.9647 163.604 27.7052 163.725 29.4631C162.377 29.4567 161.133 29.8297 159.996 30.582C158.849 31.8555 157.606 32.9743 156.266 33.9385C154.102 32.7336 152.362 33.2308 151.045 35.4303C149.115 37.6055 149.364 39.7188 151.791 41.7705C153.263 42.1401 154.754 42.2644 156.266 42.1435C156.443 43.1064 156.195 43.8523 155.521 44.3812C155.023 44.3812 154.775 44.6298 154.775 45.1271C149.796 45.2511 144.823 45.1268 139.857 44.7541C133.422 43.1066 127.206 40.8689 121.209 38.041C119.397 37.5164 117.657 37.6407 115.988 38.4139C114.993 38.6626 113.998 38.9112 113.004 39.1598C112.893 38.3752 113.017 37.6293 113.377 36.9221C117.996 31.6679 123.092 27.1924 128.668 23.4959C132.232 22.8195 133.475 20.8304 132.398 17.5287C132.333 16.7859 132.583 16.1643 133.143 15.6639C135.381 15.1667 137.619 15.1667 139.857 15.6639C140.306 17.209 141.301 18.0792 142.84 18.2746C144.83 20.2637 146.818 20.2637 148.807 18.2746C149.547 18.4026 150.044 18.1539 150.299 17.5287C151.045 17.2801 151.543 16.7828 151.791 16.0369C153.567 14.441 155.556 14.1924 157.758 15.291C157.758 15.7883 158.007 16.0369 158.504 16.0369C160.53 18.0014 162.643 18.0014 164.844 16.0369C166.282 10.3792 169.266 9.38472 173.795 13.0533C173.93 15.4361 174.303 17.6738 174.914 19.7664Z" fill="#95C916"/>
<path fill-rule="evenodd" clip-rule="evenodd" d="M136.873 35.4303C135.715 40.7395 137.953 42.9772 143.586 42.1434C139.359 43.9712 136.375 42.728 134.635 38.4139C134.681 36.8081 135.427 35.8135 136.873 35.4303Z" fill="#4E5946"/>
<path fill-rule="evenodd" clip-rule="evenodd" d="M151.045 35.4303C150.924 36.9425 151.049 38.4343 151.418 39.9057C152.67 41.4372 154.037 41.6859 155.52 40.6516C156.146 40.9065 156.395 41.4038 156.266 42.1434C154.754 42.2643 153.263 42.1401 151.791 41.7705C149.364 39.7188 149.115 37.6054 151.045 35.4303Z" fill="#4B583D"/>
<path fill-rule="evenodd" clip-rule="evenodd" d="M142.094 34.6844C146.273 35.334 147.268 37.3231 145.078 40.6517C145.619 37.812 144.625 35.8229 142.094 34.6844Z" fill="#2D3322"/>
<path fill-rule="evenodd" clip-rule="evenodd" d="M142.094 34.6845C144.625 35.8229 145.619 37.812 145.078 40.6517C144.829 41.3976 144.332 41.8949 143.586 42.1435C137.953 42.9772 135.715 40.7395 136.873 35.4304C137.479 34.3166 138.473 33.8194 139.857 33.9385C140.771 33.9531 141.517 34.2018 142.094 34.6845Z" fill="#B1CFB7"/>
<path fill-rule="evenodd" clip-rule="evenodd" d="M122.701 30.9549C121.924 35.8874 124.161 37.8764 129.414 36.9221C125.1 39.6184 122.365 38.3752 121.209 33.1926C121.174 32.0456 121.671 31.2997 122.701 30.9549Z" fill="#21261C"/>
<path fill-rule="evenodd" clip-rule="evenodd" d="M156.266 33.9385C155.775 36.1428 155.526 38.3805 155.52 40.6517C154.037 41.6859 152.67 41.4372 151.418 39.9058C151.049 38.4343 150.924 36.9425 151.045 35.4303C152.362 33.2308 154.102 32.7336 156.266 33.9385Z" fill="#ACC8B0"/>
<path fill-rule="evenodd" clip-rule="evenodd" d="M181.627 30.209C183.27 33.6362 182.275 35.6253 178.643 36.1762C178.521 33.7018 177.775 31.4641 176.406 29.4631C178.279 28.4432 180.02 28.6918 181.627 30.209Z" fill="#A3BDA6"/>
<path fill-rule="evenodd" clip-rule="evenodd" d="M129.414 36.9221C124.161 37.8764 121.924 35.8874 122.701 30.9549C124.76 29.1349 126.998 29.0107 129.414 30.582C131.387 32.782 131.387 34.8954 129.414 36.9221Z" fill="#A1BCA5"/>
<path fill-rule="evenodd" clip-rule="evenodd" d="M135.381 24.2418C135.138 28.9601 137.376 30.7005 142.094 29.4631C138.175 31.741 135.44 30.6221 133.889 26.1066C133.993 25.1362 134.49 24.5145 135.381 24.2418Z" fill="#445033"/>
<path fill-rule="evenodd" clip-rule="evenodd" d="M151.045 27.2254C153.07 28.436 155.308 28.9332 157.758 28.7172C156.171 29.5594 154.431 29.6837 152.537 29.0902C151.88 28.5618 151.383 27.9403 151.045 27.2254Z" fill="#3B4332"/>
<path fill-rule="evenodd" clip-rule="evenodd" d="M159.25 23.4959C160.087 24.8299 160.211 26.3217 159.623 27.9713C159.122 28.5325 158.501 28.7812 157.758 28.7172C159.002 27.2414 159.499 25.5009 159.25 23.4959Z" fill="#35401F"/>
<path fill-rule="evenodd" clip-rule="evenodd" d="M141.348 23.4959C143.097 23.8532 144.092 24.972 144.332 26.8525C144.228 27.8229 143.732 28.4445 142.84 28.7172C143.089 26.7122 142.593 24.9718 141.348 23.4959Z" fill="#556349"/>
<path fill-rule="evenodd" clip-rule="evenodd" d="M141.348 23.4959C142.593 24.9718 143.089 26.7122 142.84 28.7172C142.84 29.2145 142.592 29.4631 142.094 29.4631C137.376 30.7005 135.138 28.9601 135.381 24.2418C137.37 23.9932 139.359 23.7445 141.348 23.4959Z" fill="#BAD9C1"/>
<path fill-rule="evenodd" clip-rule="evenodd" d="M141.348 23.4959C139.359 23.7445 137.37 23.9932 135.381 24.2418C137.241 22.6875 139.23 22.4389 141.348 23.4959Z" fill="#5D6B55"/>
<path fill-rule="evenodd" clip-rule="evenodd" d="M165.963 22.75C168.803 22.2086 170.792 23.2031 171.93 25.7336C171.93 26.4795 171.93 27.2254 171.93 27.9713C169.659 27.9772 167.421 28.2259 165.217 28.7172C165.143 26.6756 165.392 24.6865 165.963 22.75Z" fill="#BAD8C0"/>
<path fill-rule="evenodd" clip-rule="evenodd" d="M158.504 22.75C159.002 22.75 159.25 22.9986 159.25 23.4959C159.499 25.5009 159.002 27.2414 157.758 28.7172C155.308 28.9332 153.07 28.436 151.045 27.2254C150.805 25.5677 151.302 24.2003 152.537 23.123C154.511 22.7519 156.5 22.6276 158.504 22.75Z" fill="#B9D9C1"/>
<path fill-rule="evenodd" clip-rule="evenodd" d="M172.676 25.7336C172.428 25.7336 172.179 25.7336 171.93 25.7336C170.792 23.203 168.803 22.2085 165.963 22.75C166.195 22.0206 166.693 21.5233 167.455 21.2582C170.129 21.6968 171.87 23.1886 172.676 25.7336Z" fill="#5A6A44"/>
<path fill-rule="evenodd" clip-rule="evenodd" d="M158.504 22.75C156.5 22.6276 154.511 22.7519 152.537 23.1229C151.302 24.2002 150.805 25.5677 151.045 27.2254C149.772 23.4937 151.264 21.5046 155.52 21.2582C156.904 21.139 157.898 21.6363 158.504 22.75Z" fill="#576650"/>
<path fill-rule="evenodd" clip-rule="evenodd" d="M132.398 17.5287C133.475 20.8304 132.232 22.8195 128.668 23.4959C127.528 23.483 127.155 22.9857 127.549 22.0041C129.103 20.3213 130.719 18.8295 132.398 17.5287Z" fill="#96AD93"/>
<path fill-rule="evenodd" clip-rule="evenodd" d="M142.84 18.2746C144.829 18.2746 146.818 18.2746 148.807 18.2746C146.818 20.2637 144.829 20.2637 142.84 18.2746Z" fill="#455038"/>
<path fill-rule="evenodd" clip-rule="evenodd" d="M180.881 22.0041C179.089 22.0429 177.349 21.7942 175.66 21.2582C175.411 20.7609 175.162 20.2637 174.914 19.7664C174.691 18.197 174.939 16.7052 175.66 15.291C177.698 17.3253 179.439 19.563 180.881 22.0041Z" fill="#B4D1BA"/>
<path fill-rule="evenodd" clip-rule="evenodd" d="M141.348 16.0369C144.683 15.5972 147.667 16.0945 150.299 17.5287C150.044 18.1539 149.547 18.4026 148.807 18.2746C146.818 18.2746 144.83 18.2746 142.84 18.2746C142.343 17.5287 141.846 16.7828 141.348 16.0369Z" fill="#B3D0B8"/>
<path fill-rule="evenodd" clip-rule="evenodd" d="M141.348 16.0369C144.754 15.0692 148.235 15.0692 151.791 16.0369C151.543 16.7828 151.045 17.2801 150.299 17.5287C147.667 16.0945 144.683 15.5973 141.348 16.0369Z" fill="#586457"/>
<path fill-rule="evenodd" clip-rule="evenodd" d="M158.504 16.0369C158.007 16.0369 157.758 15.7883 157.758 15.291C157.841 14.8305 158.089 14.4575 158.504 14.1721C160.699 13.3334 162.936 13.0848 165.217 13.4262C164.72 14.1721 164.223 14.918 163.725 15.6639C162.002 16.0344 160.262 16.1587 158.504 16.0369Z" fill="#B1CDB7"/>
<path fill-rule="evenodd" clip-rule="evenodd" d="M185.357 99.5779C188.78 100.638 191.142 102.876 192.443 106.291C192.977 112.564 192.604 118.78 191.324 124.939C189.832 124.939 188.34 124.939 186.848 124.939C185.824 125.056 184.829 124.931 183.865 124.566C182.341 122.139 180.724 119.777 179.016 117.48C178.296 113.762 179.912 111.773 183.865 111.512C184.967 111.708 185.961 111.459 186.848 110.766C185.004 109.799 183.263 109.799 181.627 110.766C180.622 111.16 179.627 111.285 178.643 111.139C180.607 107.082 182.845 103.228 185.357 99.5779Z" fill="#F8F8F8"/>
<path fill-rule="evenodd" clip-rule="evenodd" d="M131.652 99.5779C133.66 101.436 135.898 103.052 138.365 104.426C140.459 106.078 140.211 107.197 137.619 107.783C134.673 105.931 132.186 103.569 130.16 100.697C130.843 100.489 131.34 100.116 131.652 99.5779Z" fill="#D2B104"/>
<path fill-rule="evenodd" clip-rule="evenodd" d="M125.684 101.816C127.018 101.603 128.262 101.851 129.414 102.561C130.865 104.523 132.605 106.139 134.635 107.41C133.399 109.869 131.409 110.615 128.668 109.648C127.267 108.497 126.148 107.129 125.312 105.545C124.912 107.087 125.285 108.455 126.43 109.648C124.654 110.773 123.908 112.389 124.193 114.496C124.611 116.786 124.984 119.024 125.312 121.209C122.01 118.957 120.643 115.849 121.209 111.885C120.635 107.487 122.127 104.131 125.684 101.816Z" fill="#D6B302"/>
<path fill-rule="evenodd" clip-rule="evenodd" d="M136.127 98.832C137.121 98.832 138.116 98.832 139.111 98.832C139 99.6167 139.123 100.363 139.484 101.07C140.762 102.221 141.881 103.464 142.84 104.799C142.875 105.918 142.378 106.664 141.348 107.037C140.103 104.483 138.239 102.494 135.754 101.07C135.404 100.266 135.528 99.5204 136.127 98.832Z" fill="#CFAF04"/>
<path fill-rule="evenodd" clip-rule="evenodd" d="M123.447 92.1188C124.692 92.3061 125.811 92.8036 126.803 93.6106C127.143 96.1124 127.516 98.5985 127.922 101.07C124.776 102.068 121.544 102.937 118.225 103.68C116.631 104.741 115.76 106.108 115.615 107.783C116.558 106.211 117.925 105.465 119.717 105.545C118.986 108.998 118.861 112.479 119.344 115.988C120.36 118.028 121.728 119.769 123.447 121.209C119.35 122.913 116.241 121.918 114.123 118.225C112.589 115.657 111.471 112.921 110.766 110.02C110.93 108.948 111.303 107.954 111.885 107.037C116.47 102.583 120.324 97.6102 123.447 92.1188Z" fill="#91C416"/>
<path fill-rule="evenodd" clip-rule="evenodd" d="M181.627 110.766C183.263 109.799 185.004 109.799 186.848 110.766C185.962 111.459 184.967 111.708 183.865 111.512C183.336 110.838 182.59 110.59 181.627 110.766Z" fill="#767676"/>
<path fill-rule="evenodd" clip-rule="evenodd" d="M130.906 113.75C130.333 114.319 129.96 115.065 129.787 115.988C129.251 115.278 128.63 115.155 127.922 115.615C128.715 116.501 129.71 116.874 130.906 116.734C131.154 118.225 131.403 119.717 131.652 121.209C129.184 121.601 127.569 120.607 126.803 118.225C125.637 116.016 125.512 113.778 126.43 111.512C132.132 110.811 137.85 109.941 143.586 108.902C144.178 109.711 144.675 110.581 145.078 111.512C144.104 112.565 143.482 113.809 143.213 115.242C142.841 118.465 142.716 121.697 142.84 124.938C140.383 125.118 138.145 124.497 136.127 123.074C133.683 120.293 131.943 117.185 130.906 113.75Z" fill="#D9B601"/>
<path fill-rule="evenodd" clip-rule="evenodd" d="M130.906 113.75C130.906 114.744 130.906 115.739 130.906 116.734C129.71 116.874 128.715 116.501 127.922 115.615C128.63 115.155 129.251 115.278 129.787 115.988C129.96 115.065 130.333 114.319 130.906 113.75Z" fill="#615506"/>
<path fill-rule="evenodd" clip-rule="evenodd" d="M120.463 168.947C118.336 167.771 116.098 166.652 113.75 165.59C115.8 164.752 117.665 163.634 119.344 162.234C119.88 162.943 120.501 163.067 121.209 162.607C118.751 156.983 117.383 151.14 117.107 145.078C120.799 139.645 124.777 134.423 129.041 129.414C130.002 127.287 130.375 125.05 130.16 122.701C130.968 122.672 131.714 122.423 132.398 121.955C134.031 123.465 135.771 124.832 137.619 126.057C139.857 126.306 142.094 126.555 144.332 126.803C144.897 127.931 145.643 128.926 146.57 129.787C153.531 130.284 160.493 130.284 167.455 129.787C169.236 129.561 170.853 128.939 172.303 127.922C172.801 129.662 172.801 131.403 172.303 133.143C167.291 139.399 162.567 145.863 158.131 152.537C157.885 155.048 158.133 157.534 158.877 159.996C161.298 164.145 161.92 168.496 160.742 173.049C153.57 174.187 146.36 174.436 139.111 173.795C132.749 172.654 126.533 171.037 120.463 168.947Z" fill="#FBFBFB"/>
<path fill-rule="evenodd" clip-rule="evenodd" d="M183.119 127.176C183.4 132.216 183.027 137.189 182 142.094C179.452 147.443 176.345 152.416 172.676 157.012C172.801 157.261 172.925 157.51 173.049 157.758C177.318 152.946 178.313 153.94 176.033 160.742C175.182 162.315 174.063 163.682 172.676 164.844C173.72 165.288 174.714 165.164 175.66 164.471C178.162 167.096 180.523 169.831 182.746 172.676C185.004 176.075 184.881 179.183 182.373 182C175.865 185.759 168.903 187.251 161.488 186.475C155.234 182.769 148.645 182.147 141.721 184.611C136.462 183.358 131.614 181.244 127.176 178.27C123.261 179.004 119.531 178.508 115.988 176.779C115.278 176.243 115.155 175.622 115.615 174.914C116.926 173.224 118.542 171.981 120.463 171.184C128.029 173.581 135.736 175.446 143.586 176.779C147.316 177.276 151.045 177.276 154.775 176.779C159.453 176.442 162.436 174.08 163.725 169.693C162.957 164.554 161.838 159.582 160.369 154.775C164.472 147.559 168.947 140.598 173.795 133.889C174.043 131.154 174.293 128.42 174.541 125.684C175.973 123.567 177.217 121.329 178.27 118.971C180.293 121.532 181.908 124.267 183.119 127.176Z" fill="#96CA17"/>
<path opacity="0.996" fill-rule="evenodd" clip-rule="evenodd" d="M185.357 99.5779C185.885 98.9036 186.631 98.6552 187.594 98.832C193.136 101.897 195.872 106.621 195.799 113.004C194.574 120.831 193.456 128.538 192.443 136.127C190.711 138.676 188.722 138.924 186.475 136.873C185.82 142.992 183.209 148.088 178.643 152.164C180.688 155.728 180.44 159.209 177.898 162.607C182.505 166.48 185.489 171.328 186.848 177.152C186.428 179.659 185.433 181.897 183.865 183.865C185.068 185.049 186.56 185.795 188.34 186.102C189.801 188.108 189.925 190.098 188.713 192.07C187.316 193.717 185.7 195.085 183.865 196.172C172.584 201.459 160.898 202.703 148.807 199.902C144.064 198.461 139.713 196.348 135.754 193.561C126.272 194.979 116.948 194.357 107.783 191.697C102.391 188.074 100.65 183.226 102.561 177.152C105.533 174.986 108.765 174.49 112.258 175.66C113.471 172.583 115.709 170.718 118.971 170.066C116.141 169.125 113.655 167.633 111.512 165.59C113.859 163.866 116.097 162.001 118.225 159.996C116.643 157.359 115.275 154.624 114.123 151.791C113.255 146.935 114.499 142.709 117.852 139.111C121.092 135.251 124.448 131.521 127.922 127.922C128.555 126.498 128.804 125.006 128.668 123.447C129.166 123.198 129.662 122.949 130.16 122.701C130.375 125.05 130.002 127.287 129.041 129.414C124.777 134.423 120.799 139.645 117.107 145.078C117.383 151.14 118.751 156.983 121.209 162.607C120.501 163.067 119.88 162.943 119.344 162.234C117.665 163.634 115.8 164.753 113.75 165.59C116.098 166.652 118.336 167.771 120.463 168.947C120.004 169.47 120.004 170.216 120.463 171.184C118.542 171.981 116.926 173.224 115.615 174.914C115.155 175.622 115.278 176.243 115.988 176.779C119.531 178.508 123.261 179.004 127.176 178.27C131.614 181.244 136.462 183.358 141.721 184.611C148.645 182.147 155.234 182.769 161.488 186.475C168.903 187.251 175.865 185.759 182.373 182C184.881 179.183 185.005 176.075 182.746 172.676C180.523 169.831 178.162 167.096 175.66 164.471C174.714 165.164 173.72 165.288 172.676 164.844C174.063 163.682 175.182 162.315 176.033 160.742C178.313 153.94 177.318 152.946 173.049 157.758C172.925 157.51 172.801 157.261 172.676 157.012C176.345 152.416 179.452 147.443 182 142.094C183.027 137.189 183.4 132.216 183.119 127.176C183.119 126.679 183.367 126.43 183.865 126.43C186.067 127.855 188.554 128.601 191.324 128.668C191.501 127.705 191.252 126.959 190.578 126.43C189.334 125.933 188.092 125.436 186.848 124.939C188.34 124.939 189.832 124.939 191.324 124.939C192.604 118.78 192.977 112.564 192.443 106.291C191.142 102.876 188.78 100.638 185.357 99.5779Z" fill="#191A17"/>
<path fill-rule="evenodd" clip-rule="evenodd" d="M121.955 180.135C123.033 179.305 124.277 179.18 125.684 179.762C128.17 181.254 130.657 182.746 133.143 184.238C128.987 184.153 125.258 182.786 121.955 180.135Z" fill="#CEAE04"/>
<path fill-rule="evenodd" clip-rule="evenodd" d="M104.799 177.898C109.655 177.577 114.38 178.198 118.971 179.762C122.006 182.047 125.238 184.036 128.668 185.73C131.171 185.89 133.657 185.89 136.127 185.73C137.411 186.281 138.653 186.903 139.857 187.594C139.3 188.516 139.052 189.511 139.111 190.578C129.644 191.653 120.195 191.528 110.766 190.205C104.49 188.218 102.5 184.115 104.799 177.898Z" fill="#BADAC2"/>
<path fill-rule="evenodd" clip-rule="evenodd" d="M131.652 148.807C131.678 152.198 131.802 155.679 132.025 159.25C129.711 155.887 129.586 152.406 131.652 148.807Z" fill="#393939"/>
<path fill-rule="evenodd" clip-rule="evenodd" d="M185.357 129.414C187.156 130.571 189.145 131.068 191.324 130.906C191.158 135.98 189.293 136.974 185.729 133.889C185.36 132.418 185.236 130.926 185.357 129.414Z" fill="#F0F0F0"/>
<path fill-rule="evenodd" clip-rule="evenodd" d="M190.578 126.43C191.252 126.959 191.501 127.705 191.324 128.668C188.553 128.601 186.067 127.855 183.865 126.43C185.917 126.235 188.155 126.235 190.578 126.43Z" fill="#E2E2E2"/>
<path fill-rule="evenodd" clip-rule="evenodd" d="M148.061 184.611C150.313 184.488 152.55 184.612 154.775 184.984C159.666 188.3 164.888 191.035 170.439 193.188C175.233 193.748 179.709 192.754 183.865 190.205C184.859 189.459 184.859 188.713 183.865 187.967C188.218 188.193 188.715 189.933 185.357 193.188C172.323 199.385 158.897 200.38 145.078 196.172C141.615 194.627 140.496 192.016 141.721 188.34C143.603 186.604 145.717 185.362 148.061 184.611Z" fill="#B9D8C1"/>
<path fill-rule="evenodd" clip-rule="evenodd" d="M180.881 184.611C181.995 185.216 182.492 186.211 182.373 187.594C182.635 189.402 181.89 190.521 180.135 190.951C175.417 192.692 170.942 192.195 166.709 189.459C171.736 188.489 176.461 186.872 180.881 184.611Z" fill="#D0AF02"/>
</svg>
