<svg width="400" height="284" viewBox="0 0 400 284" fill="none" xmlns="http://www.w3.org/2000/svg">
<path d="M150.5 267.5C148.3 266.7 145.8 265.2 144.8 264C143.9 262.9 142.5 262 141.7 262C141 262 139.5 261.1 138.6 260.1C137 258.4 137 257.6 138 254.3C140.9 245.5 143.6 243.3 166 231.7C173.1 228.1 173.6 227.5 177.2 220.7C183.8 208.1 186.2 202.9 185.8 202.4C185.5 202.2 183.9 202.5 182.2 203.1C178.7 204.3 174.2 202.5 171.7 199C170.5 197.3 170 197.2 167.3 198.2C163.3 199.7 158.4 197.8 155.9 193.6C153.7 189.9 153.6 187.9 155.5 182.5C156.4 179.9 156.6 178.4 155.9 178.1C152.4 176.9 149.8 173.2 149.7 169.2C149.6 166.9 149.2 165 148.8 165C148 165 147.6 168.8 148 172.3C148.2 175 145.1 178 142 178C139.1 178 134.5 174.2 133.5 170.9C133.1 169.6 131.9 169 130 169C126.4 169 123 164.9 123 160.6C123 156.9 126.2 150.3 129.3 147.6C130.5 146.6 131.6 144.6 131.7 143.3C131.8 141.9 132.6 140 133.4 139.1C135.6 136.6 135.4 136 131.9 134.8C122.4 131.5 126.4 115 136.7 115C139.6 115 140.3 115.5 141.5 118.4C143.3 122.6 144.6 123.5 148.6 123.1C150.4 123 152.4 123.5 153.3 124.4C155.1 126.2 159 126.6 159 125C159 124.4 158.3 122.5 157.3 120.7C156.4 118.8 155.6 114.5 155.4 110.1C155.2 106.1 154.9 102.6 154.7 102.3C154.4 102.1 152.4 102.4 150.1 102.9C147.4 103.5 143.4 103.5 139 102.8L132.1 101.8L134.8 99.3L137.5 96.9L133.2 97.6C129.5 98.1 127.8 97.7 122.3 95L115.7 91.7L118.6 90.2L121.5 88.7L119 88C114.5 86.8 110.2 84.1 108.1 81.1L106 78.2L110.1 79.7C112.4 80.4 114.5 80.8 114.8 80.5C115.1 80.2 114 78.5 112.2 76.7C109.2 73.6 104 63.8 104 61.2C104 60.3 104.7 60.3 107 61.5C110 63.1 111 62.4 108.9 60.3C108.2 59.6 107.8 56.2 107.8 52.3C107.9 44.3 110.9 37.2 116.4 31.7C120.2 27.8 126.7 26.3 133.8 27.5C139.8 28.5 140.1 28.9 141 39.5C141.9 50 143.2 53.1 145 48.6C145.5 47.1 146 44.7 146 43.2C146.1 40.8 146.2 40.7 147.1 42.3C147.7 43.3 148 45.5 147.9 47.3C147.5 51.2 148.9 60 149.8 60C150.2 60 151.2 58.3 152.2 56.2L153.8 52.5L153.9 57.2C154 63.3 155.7 68 157.1 66C157.9 64.8 158.7 65.2 161.5 68.2C163.5 70.3 165.6 72 166.4 72C168.4 72 170.9 64.9 172 56.8C172.4 53 173 49.6 173.3 49.4C173.5 49.1 174.1 53.1 174.5 58.2L175.2 67.5L177.2 65C178.2 63.6 180.1 61.2 181.3 59.6C185 54.6 192 48.2 196.5 45.5C201.2 42.8 205.1 42 201 44.6C198.7 46.1 193.3 52.1 189.2 57.9C188.3 59.3 185.8 62.1 183.8 64.3C181.7 66.5 180 68.6 180 69.1C180 69.6 178.7 70 177.1 70C173.5 70 171 73.5 171 78.5C171 81.8 170.8 82 167.8 81.9C165.1 81.9 163.9 81 160.7 76.9C158.7 74.2 156.2 72 155.2 72C154.2 72 152.9 71.5 152.2 70.8C151.3 69.9 151 70 151 71.2C151 72.1 151.9 73 153 73.3C154.2 73.6 155 74.7 155 76C155 78.3 158.5 83.9 160.7 85.3C161.4 85.7 162 87.7 162 89.5V93H154.7C149.8 93 146.7 92.5 145.4 91.5C144.4 90.7 142.5 90 141.3 90C139.5 90 139 89.4 139 87.5C139 85.6 138.5 85 136.7 85C134.8 85 134.1 84.1 132.7 79.7C131.8 76.7 131 72.2 131 69.5V64.7L138.2 65.4C142.1 65.7 146.4 66.3 147.7 66.6C149.1 67 150 66.8 150 66C150 65.4 149.1 64.6 148 64.3C145.9 63.7 143 59.3 143 56.5C143 55.7 142.2 55 141.2 55C138.6 55 137.1 51.1 135.9 41.6C135.3 37.2 134.7 33.4 134.5 33.1C134.2 32.9 131.6 32.7 128.6 32.6C122.2 32.6 120.9 33.7 115.8 44C112.9 49.6 112.5 51.3 112.7 57.2C112.8 61.1 112.5 64 111.9 64C110.7 64 114.2 70.9 117.5 74.8C118.9 76.4 120 79 120 80.4C120 82.3 120.6 83.1 122.5 83.6C124.4 84.1 125 84.9 125 87.1C125 90.6 127.3 92 134.6 92.7C139.5 93.2 140 93.5 140 95.8C140 98.2 140.1 98.2 146.3 97.7C149.7 97.4 154.9 96.8 157.8 96.4L163 95.7V99.4C163 101.4 162.6 103 162 103C158.9 103 162.7 121.5 166 122.5C167.1 122.8 169.9 125.3 172.2 127.9C175.6 131.7 178.7 133.7 187 137.5C192.8 140.1 198 142.6 198.5 143C199.1 143.4 201.6 144 204.1 144.2L208.8 144.7L209.2 136.9C209.8 126.6 211.5 124 217.5 124C220.8 124 222.5 124.6 223.7 126C225.6 128.2 228 128.5 230.8 127.1C231.7 126.6 233.4 125.8 234.5 125.4C236 124.8 235 124.5 231 124C225.1 123.4 221 121.6 221 119.7C221 119.1 220.3 119.6 219.4 120.8C218.3 122.3 216.9 123 214.4 123C211.3 123 211 122.8 211 120C211 113.8 215.9 108 221.1 108C222.5 108 224.5 107.1 225.5 106C226.5 104.9 228.1 103.8 229.1 103.5C230.7 103 230.9 102.2 230.4 99C230 96.8 230.1 93.5 230.4 91.5C231.1 88.2 231.3 88 235 88C237.3 88 239.5 88.7 240.6 89.7C242.2 91.3 242.2 91.3 241.5 89C241.1 87.6 239.8 84.8 238.7 82.8C237 79.6 236.1 79 233.5 79C231.7 79 229.1 78.1 227.7 77C226.3 75.9 224.2 75 223 75C221 75 220.8 74.6 221.2 69.5L221.5 63.9L217.8 63.3C215 62.9 214 62.3 214 60.9C214 59.3 213.4 59.2 209 59.7C204.1 60.3 204 60.2 204 57.7V55L200.5 56.7C198.6 57.6 197 58.7 197 59.2C197 59.6 195.3 60 193.3 60L189.5 59.9L194 55.9C200.5 50 207.3 46.9 214.4 46.3L220.5 45.9L215.8 48.9C213.1 50.6 210.6 52 210 52C208.9 52 204.8 56.2 205.4 56.7C205.6 56.9 207.5 56.4 209.5 55.6C211.6 54.7 215.7 53.7 218.6 53.4C223.4 52.8 224.3 52.3 227.5 48.2C229.4 45.7 231 42.5 231.1 41.1L231.2 38.5L232.3 41.3C232.9 42.8 233.7 44 234.1 44C234.5 44 235.7 41.3 236.7 38C238.2 32.8 238.6 32.2 239.7 33.6C241.6 36.2 242.9 34.4 243.6 27.9L244.3 21.9L246.2 24.7L248.2 27.5L247.6 23.5C247.3 21.3 246.9 18.6 246.8 17.5C246.5 15.6 247.1 15.5 254.5 15.5C264.3 15.5 267.1 17.2 272.6 26.2C275.5 30.9 276.5 33.8 276.8 38C277.2 43.3 277 43.8 273 48.9C270.7 51.8 269.1 54.4 269.4 54.7C269.6 55 271.2 54.5 272.9 53.7L275.9 52.2L273.9 54.8C272.8 56.3 270.4 58.6 268.5 60C264.5 62.9 264.1 64.1 267.3 63.2C269.3 62.7 269.4 62.8 268.1 64.4C266.1 66.8 261.6 69 258.5 69C255.7 69 255.3 69.9 257.3 71.9C258.3 72.9 258 72.9 255.7 71.9C253.3 70.8 252.4 70.9 249.1 72.8C247 74 244.5 75 243.6 75C241.6 75 241.6 75.9 243.3 78.5C245.9 82.2 247.3 87.5 248 95C248.6 102.2 248.6 102.4 249.9 99.5C251.4 96 254.5 92.8 255.5 93.8C255.9 94.2 255.5 93.3 254.5 91.7C253.6 90.2 253.2 89 253.6 89C254.1 89 253.7 88.5 252.8 87.9C248.3 85.3 253.4 80.4 259.3 81.5C265.2 82.6 267.5 85.7 267 91.7C266.8 94.3 269.8 96.1 272.8 95.3C274 95 276.1 95.5 277.5 96.4C280.6 98.4 285.4 106.6 284.6 108.6C284.3 109.4 284.4 109.8 285 109.5C285.6 109.2 286 109.3 286 109.8C286 110.4 286.9 110.6 288 110.3C289.3 110 290.9 110.8 293 112.8C296.5 116.4 297.1 121.7 294.2 124.3C292.2 126.1 288.1 125.8 286.5 123.7C285.4 122.2 281.6 120 280.3 120C279.9 120 280.1 120.4 280.8 120.8C281.7 121.4 280.7 122.1 278 123C274.3 124.2 273.5 124.2 270.3 122.5C266.9 120.6 266.7 120.6 265.4 122.4C264.7 123.4 262.6 125.9 260.8 127.9C259 129.9 255.3 134.1 252.7 137.3L247.9 143.1L249 148.6C250 153.5 249.9 154.5 248.2 158C247.1 160.2 246.7 162 247.2 162C249.2 162 252.3 171.5 252.4 177.5C252.4 182.9 251.7 184.9 245.3 198C241.4 206 237 214.4 235.5 216.8L232.9 221H239.7C243.4 221 250.1 220 254.5 218.9C265.7 216 269.2 215.9 270.5 218.7C271 219.9 272.7 221.5 274.3 222.1C278.3 223.8 281 228.1 281 232.9C281 236.2 280.4 237.6 277.6 240.4C275.7 242.3 272.4 244.4 270.3 245C268.2 245.7 266.1 246.6 265.5 247C261.5 250 237.2 251 226.5 248.6C221.2 247.4 212.5 244.6 207.9 242.6C206.5 242 206.2 242.7 205.8 246.8C205.5 249.7 204.4 253.1 203.1 254.9C200.4 258.6 185.9 266 181.2 266C179.5 266 175.5 266.7 172.3 267.5C165.2 269.4 155.8 269.4 150.5 267.5ZM168.3 262.5C172.9 261.9 173 261.8 173 258.4C173 255.2 173.2 255 176.5 255C179.6 255 180 255.3 180 257.6C180 260 180.3 260.2 183.1 259.6C184.8 259.3 188.8 257.4 192 255.5C196.2 252.9 198.1 251 199.5 247.9C201.4 243.8 201.4 243.8 199.2 242C194.9 238.5 196 233.8 206.2 214C215.2 196.3 215.4 196 218.6 196C221.3 196 221.9 196.4 222.2 198.3L222.5 200.7L228 199.2C232.3 198 234.7 196.4 239.1 192.1C246.2 185 248.8 178.3 246.9 172.1C245.7 168.1 245.6 168 241.1 168C238.6 168 235.6 167.3 234.6 166.5C231.8 164.4 227.3 164.6 226.6 166.8C226.3 167.7 225.6 170.7 225 173.5C223.4 180.5 222.8 181 214.8 181C207.9 181 207.7 180.9 203.8 177C201.6 174.8 199.6 173 199.4 173C199.2 173 199 174.3 199 175.9C199 178.2 198 179.7 194.5 182.6C189.4 186.7 188.4 190.8 192.1 191.7C196.1 192.8 194.2 200.3 185.2 218.6C178.8 231.6 176.6 235 175.1 235C174 235 171.9 235.5 170.5 236.2L167.8 237.4L171.7 238.5C175.2 239.5 175.5 239.9 175.8 243.4L176.1 247.2L166.3 246.5C160.9 246.1 156.3 245.5 156 245C155.7 244.6 153.3 245.4 150.5 246.6C146.2 248.6 145.9 249 148.3 249C150.7 249 151 249.3 151 252.6C151 254.5 150.5 257.1 149.9 258.2C149.2 259.5 149.2 260.6 149.8 261.2C150.8 262.2 159.7 263.9 162 263.5C162.8 263.3 165.6 262.9 168.3 262.5ZM254 244.4C257.4 243.8 257.5 243.7 257.2 239.9L256.8 236H261.3C264.7 236 266.1 236.5 267.1 238.1L268.5 240.2L271.3 238C276.4 234 276.6 232.3 272.5 228.4C269.8 225.9 267.9 225 265.5 225C263.7 225 262 224.5 261.8 223.9C261.5 223.1 260.3 223.1 257.5 223.8C255.3 224.4 249.3 225.2 244.3 225.6C238.4 226 234.6 226.8 233.9 227.6C233.3 228.4 231 229 228.9 229C225.2 229 225 228.8 225 226C225 222.9 227.7 216.8 231.2 211.8L233.1 209H226.8H220.5L213.8 222.4C206.4 237.1 206.4 236.6 214 239.3C226.8 243.8 244.2 246 254 244.4ZM182 195.4C181.4 194 181 189.9 181 186.4C181 180.3 181.2 179.7 184.2 176.9C186 175.3 187.9 174 188.5 173.9C189.5 173.9 173 170.1 170 169.7C169.1 169.6 168.4 170.8 167.9 173.4C167.3 177 166.1 178.6 161.7 181.5C158.8 183.4 158.8 186.6 161.6 189.9C164.9 193.9 165.8 193.8 166.6 189.5C167.2 186.3 167.5 186 170.6 186C173.6 186 174 186.3 174 188.6C174 193.2 177.6 197.9 181.2 198C182.7 198 182.8 197.6 182 195.4ZM145 160.7C146.2 158.3 146.9 157.9 149.9 158.2C153.4 158.5 153.5 158.6 153.8 163C154.1 168 155.7 172 157.5 172C158.3 172 158.5 170.1 158.2 166.1C157.7 159.8 158.4 157.8 163.2 151.9C167.2 146.9 167.9 141.2 165.1 136.7C162.1 131.8 159.3 130.3 154.3 130.8C150.6 131.2 150 131.5 150 133.6C150 138.3 147.9 141 144.3 141C141.1 141 141 140.9 141 137.1C141 131 141.7 130 146.2 130C149.7 130 150.1 129.8 149 128.5C148.3 127.7 146.1 127 144.1 127C139.6 127 138.4 126.2 137.1 122.7C135.9 119.6 134.3 119.9 133.1 123.4C132.1 125.9 134.1 130.5 137 132C140.7 134 139.1 144.1 134 150.5C131 154.3 129.9 156.5 132.2 154.2C132.9 153.5 134.9 153 136.7 153C139.8 153 140 153.2 140 156.3C140 158 139.3 160.4 138.5 161.4C136.7 163.7 137.4 166.6 140.4 169.8L142.5 172.2L143.1 167.8C143.4 165.5 144.3 162.2 145 160.7ZM216.5 168.8C217 166.7 216.9 165.5 216.1 165.2C215.5 165 215 163.5 215 161.9C215 159.5 214.6 159 212.7 159C211.4 159 209.5 158.3 208.4 157.5C204.8 154.8 204 155.6 205.6 160.3C206.9 164.1 213.4 172 215.1 172C215.5 172 216.2 170.6 216.5 168.8ZM196.6 163.4C196.3 162.5 196 159.8 196 157.4V152.9L185.4 148C179.6 145.2 174.7 143 174.5 143C174.3 143 174 145.8 173.8 149.3C173.6 152.7 173.1 156.2 172.7 157.1C171.8 159 174.6 160.4 184.5 163C193.6 165.4 197.4 165.6 196.6 163.4ZM243.1 146.6C242.5 145.2 241.6 144 241 144C239.3 144 239.9 147.8 241.7 148.9C244 150.2 244.3 149.8 243.1 146.6ZM247 113.3C247 110.4 246.7 108 246.3 108C245.8 108 245.5 110.9 245.5 114.4C245.5 118 245.8 120.3 246.2 119.7C246.6 119 247 116.1 247 113.3ZM269.4 114C271.9 114 272.9 114.5 273.3 116C273.8 118.1 277 118.8 277 116.9C277 115.6 284.9 116.1 288.5 117.6C290.3 118.3 290.4 118.2 289 116.5C288.2 115.5 286 114.1 284.3 113.3C282.3 112.5 280.3 110.5 279.1 108.2C276.4 103 273.2 100.4 268.6 99.7C263.8 98.9 263.8 98.9 263.1 93.8C262.7 91.1 261.7 89.2 260.3 88.2C258 86.8 258 86.8 258 92.5C258 97.4 257.6 98.5 255.1 101.1C253.5 102.7 251.7 104 251.1 104C250.5 104 250 104.5 250 105C250 106.2 251.7 106.3 252.4 105.1C253.4 103.6 256.9 105.1 259 107.8C261.4 110.8 261.7 117 259.5 117C258.6 117 258 117.9 258 119.1C258 121 258.4 120.9 262 117.6C264.9 115 266.9 114 269.4 114ZM235 112.8C235 110.9 234.2 111 231.2 113.3C230.2 114.1 230.2 114.5 231.1 115.1C232.9 116.2 235 115 235 112.8ZM248.3 67.2C249.8 67 251 66.4 251 65.9C251 65.4 251.9 65 253 65C254.2 65 255 64.3 255 63.2C255 62.2 257.2 60.2 260.5 58.2C264.7 55.7 266 54.3 266 52.5C266 51.2 267.1 48.4 268.5 46.4C272.3 40.7 272.5 38.8 269.4 32.6C265.2 24 262.3 21.2 256.8 20.4L252 19.8V25.4C252 30.3 251.8 31 250 31C248.9 31 248 31.7 248 32.5C248 35 244.5 40.9 243 41C242.2 41 240.8 42.5 240 44.3C239.1 46.3 237.6 47.6 236.3 47.8C233.3 48.2 233.4 49.4 236.5 50.8C238.5 51.7 239 52.7 239 55.5C239 58.7 238.8 59 236 59C233.8 59 233 59.5 233 60.8C233.1 63 242 69.2 244 68.4C244.8 68 246.7 67.5 248.3 67.2Z" fill="black"/>
<path d="M195.7 121.9C192.6 119.5 190 111.7 190 104.8C190 97.7 191.2 96 196.3 96C204.2 96 210 104.3 210 115.4C210 120.8 209.7 122.1 208.1 123C204.8 124.7 198.5 124.2 195.7 121.9Z" fill="black"/>
<path d="M178.1 84.5C178.1 75.7 178.4 72.7 179.6 71.6C181.5 69.6 187.1 68.6 191.5 69.4C194.7 70 195 70.4 195 73.5C195 75.9 194.5 77 193.6 77C191.2 77 188.3 82.2 187.7 87.9C186.9 94.4 185.7 96 181.5 96H178.2L178.1 84.5Z" fill="black"/>
<path d="M205.7 175.1C203.1 172.7 200.8 169.3 199.7 166.3C197.9 161.3 197.3 150 198.9 150C199.4 150 199.5 151.9 199.3 154.3C198.6 160.1 202.3 169.4 207 174.3C210.1 177.3 211.5 178 214.8 178C219.6 178 220.6 176.9 222 170.5C223.8 162.4 224 162 226.6 162C227.9 162 229.9 161.5 230.9 160.8C232.4 159.9 233.3 160.2 236.2 162.3C240.2 165.4 241.8 165.6 244.6 163.5C247.2 161.5 248 161.6 248 164C248 165.7 247.3 166 242.8 166C239.1 166 237.1 165.5 235.6 164.1C233.7 162.4 233 162.3 229.3 163.3L225.1 164.4L223.4 171.7L221.6 179H215.8C210.4 179 209.6 178.7 205.7 175.1Z" fill="#E23620"/>
<path d="M208.6 171.9C203.5 167.3 201 161.2 201 153.8C201 148.8 202.5 147.5 205 150.5C207.1 153.1 214.7 156.3 217.4 155.8C220.6 155.2 221.4 157 219.2 160.1C217.7 162.4 217.7 162.4 219.3 161.1C222.1 158.9 222.3 160.4 220.4 168.4C218.7 175.7 218.5 176 215.8 176C213.9 176 211.5 174.7 208.6 171.9Z" fill="#E23620"/>
<path d="M238.5 161C237.5 159.9 235.9 158.8 234.9 158.5C231.9 157.5 232.5 153.4 235.8 152.1L238.5 151L235.3 151.5C231.3 152.1 231 150.6 234.5 147.8C235.9 146.7 237 144.8 237 143.4C237 142.1 237.5 141 238.2 141C238.8 141 240.1 140.3 241 139.5C242.6 138.1 242.9 138.1 244.2 140.2C248.1 146.2 249.1 157.7 246 161.5C244.3 163.6 240.7 163.4 238.5 161ZM240.6 153.1C240.3 152.6 239.1 152.4 238 152.7C235.2 153.4 235.5 154 238.6 154C240 154 240.9 153.6 240.6 153.1Z" fill="#E23620"/>
<path d="M222.2 157.8C221.1 154.8 221.2 154.4 223.8 152.3C227.8 149 230.4 149.6 230.8 154.1C231.1 158 230 159.5 226 160.5C223.8 161 223.3 160.6 222.2 157.8Z" fill="#E23620"/>
<path d="M211.3 152.5C209.5 151.3 209.3 150.3 209.7 146.8C210.3 141.7 212 139.3 212 143.4C212 149.7 215.6 151.7 220.2 148C221.6 146.9 223.9 145.6 225.4 145C227.7 144.2 228 144.3 228 146C228 147.1 227.5 148 226.9 148C226.3 148 224.1 149.4 222 151C217.8 154.3 214.5 154.8 211.3 152.5Z" fill="#E23620"/>
<path d="M205.7 148.8C204.5 147.5 203.4 147.2 202.2 147.8C200.3 148.8 198 148.3 198 146.9C198 145.5 206.6 145.8 207.8 147.3C209.6 149.4 207.7 150.8 205.7 148.8Z" fill="#E23620"/>
<path d="M213.5 147C212.3 145 214.2 143.8 217.6 144.3C219.5 144.6 220.8 144.5 220.5 144C219.7 142.7 221.5 141.9 223.5 142.6C224.8 143.1 224.3 143.8 221.3 145.6C217.2 148.1 214.5 148.6 213.5 147Z" fill="#E23620"/>
<path d="M231.4 144.9C232.9 143.7 234 141.9 234 140.4C234 139 234.6 138 235.4 138C236.1 138 237.3 137.3 238 136.5C238.7 135.7 240 135 240.8 135C241.8 135 241.3 135.9 239.2 137.6C237.4 139.1 236 141.2 236 142.4C236 145.3 234.2 147 231.2 147H228.7L231.4 144.9Z" fill="#E23620"/>
<path d="M245.5 139C244.2 137.6 244 136.6 244.7 135.9C245.4 135.2 246.2 135.7 247.3 137.4C249.4 140.5 247.9 141.7 245.5 139Z" fill="#E23620"/>
<path d="M189.3 200.4C190.3 197.1 190.6 196.9 190.8 198.9C191 200.2 190.5 202 189.6 202.8C188.2 204.2 188.2 204 189.3 200.4Z" fill="#F9C8BA"/>
<path d="M179 201.1C173.8 199.8 171.1 196.6 170.9 191.3C170.8 188.8 170.7 188.8 169.8 192.3C168.9 195.7 168.5 196 165.1 196C158.7 196 154.5 189.7 156.3 182.8C157 180.1 158.1 178.5 160.1 177.4C163.4 175.8 165 173.2 165 169.7C165 168.3 165.9 166.6 167.2 165.8C169.2 164.5 169.9 164.5 173.6 166.1C175.8 167.1 181 168.5 185.1 169.1C189.2 169.7 193.1 170.4 193.8 170.6C196 171.2 195.1 174.9 192.3 176.4C190.7 177.2 188.3 178.9 186.8 180.4C183.4 183.5 183.1 188.8 186 194.5C187.6 197.6 187.7 198.7 186.8 199.6C185 201.3 181.9 201.9 179 201.1Z" fill="#F9C8BA"/>
<path d="M187.5 194.1C187.2 193 186.8 190.2 186.7 187.9C186.6 184.1 187 183.4 191.3 179.8C194.9 176.7 196 175.1 196 172.9C196 171.3 196.5 170 197 170C197.6 170 198 171.7 198 173.8C198 177.3 197.6 177.9 193.1 180.8C187.2 184.6 186.6 186 188.5 190.6C190.3 195 190.4 195.4 189.2 195.8C188.6 196 187.9 195.2 187.5 194.1Z" fill="#F9C8BA"/>
<path d="M157.6 174.1C159.4 173 161 171.6 161.4 170.8C161.7 170.1 161.8 170.9 161.7 172.5C161.5 175.2 161.1 175.5 158 175.8L154.5 176.1L157.6 174.1Z" fill="#F9C8BA"/>
<path d="M181.3 166C174 164.1 165.6 160.3 171 161.4C172.4 161.7 176 162.8 179.1 163.9C182.2 165 187.6 166.3 191.1 166.8C196.9 167.7 197.1 167.8 193 167.8C190.5 167.9 185.3 167 181.3 166Z" fill="#F9C8BA"/>
<path d="M163.4 164.9C162.8 163.9 164.5 162.1 166.2 162C167.9 162 167.9 164 166.1 165C164.7 165.7 163.9 165.7 163.4 164.9Z" fill="#F9C8BA"/>
<path d="M224.2 120.4C221.6 118.6 221.2 113.5 223.5 112.6C224.3 112.3 225 112.4 225 112.9C225 113.4 226.6 112.2 228.6 110.4C230.5 108.5 233 107 234 107C237.1 107 239.2 110 238.8 113.8C238.5 116.6 238.6 116.9 239.5 115.6C240.2 114.7 241 114 241.4 114C242.7 114 241.9 118.9 240.4 120.4C238.3 122.6 227.3 122.6 224.2 120.4ZM236 119.5C238.4 118.2 238.3 118.2 234.2 118.7C230.7 119.2 229.3 118.8 226.9 117.1C224.6 115.4 224 115.3 224 116.4C224 118.2 228.6 120.9 231.5 120.9C232.6 120.9 234.6 120.3 236 119.5Z" fill="#F9C8BA"/>
<path d="M223.9 110.9C221.7 109.4 228.5 104 232.5 104.1C235.2 104.1 235.3 104.2 233.6 105.3C232.5 106 230.3 107.7 228.5 109.2C226.3 111.1 225 111.6 223.9 110.9Z" fill="#F9C8BA"/>
<path d="M240 110.3C240 109.8 240.5 108.8 241 108C241.8 106.8 242 106.9 242 108.8C242 110 241.6 111 241 111C240.5 111 240 110.7 240 110.3Z" fill="#F9C8BA"/>
<path d="M146.5 90C145.5 88.9 143.9 88 142.8 88C141.5 88 141 87.3 141 85.5C141 83.4 140.5 83 138 83C136.4 83 135 82.6 135 82C135 81.5 134.3 81 133.5 81C132.3 81 132 79.6 132 74C132 67.1 132 67 134.6 67C136.1 67 140.1 67.5 143.6 68.2C149.3 69.2 150 69.6 150 71.7C150 73.3 150.6 74 152 74C153.6 74 154 74.7 154 77.3C154 79.6 154.8 81.4 156.5 83C160.2 86.5 159.8 88.4 155.2 88.8C152.2 89 150.9 88.5 149.1 86.6C147.8 85.2 146.2 84.4 145.4 84.7C144.4 85.1 144 84.4 144 82.1C144 79.3 143.8 79.1 141.1 79.6C138.4 80.2 138.2 79.9 136.6 75.4C135.7 72.8 135.1 70.6 135.3 70.4C135.4 70.3 138 70.7 141.1 71.2C146.2 72.2 146.6 72.5 146.2 74.6C145.8 76.6 146.2 77 148.4 77C150.8 77 151 77.2 149.9 79.1C149 80.9 149.3 81.7 152.1 84.6C156.2 88.8 157.1 88.2 153.6 83.5C152.1 81.6 151 79.2 151.2 78.3C151.4 77.1 150.7 76.4 149.2 76.2C147.2 75.9 146.9 75.4 147.4 73.4C148.1 70.6 146.5 69.7 138.8 68.7C134.6 68.1 134 68.3 134 69.8C134 71.3 136.8 80.9 137.5 81.8C137.6 81.9 138.9 81.6 140.4 81C143.1 80 143.1 80 142.4 83.7C141.8 87.1 141.9 87.3 143.9 86.7C145.4 86.3 146.8 86.8 148.1 88.1C149.4 89.4 151.4 90 154.5 90C157 90 159 90.5 159 91C159 91.6 156.6 92 153.7 92C149.6 92 147.9 91.5 146.5 90Z" fill="#F9C8BA"/>
<path d="M152.6 266C149.9 265.5 147 264.4 146.2 263.6C144.7 262.1 144.8 260.9 147.7 253C148 252.2 147.5 252.4 146.7 253.6C145.8 254.7 144.8 256.9 144.5 258.3C143.7 261.5 142.9 261.6 140.7 259.2C138.6 256.9 138.6 253.4 140.8 249.3C142.1 246.8 144.7 245 151.5 241.7C156.5 239.3 162.9 235.9 165.7 234.2C168.6 232.5 171.7 231.3 172.5 231.6C173.6 232.1 176 228.1 181.9 215.8C190.8 197.6 191.9 194.7 189.7 195.6C187.9 196.3 187 193.8 186.7 187.9C186.6 184.1 187 183.4 191.3 179.8C194.9 176.7 196 175.1 196 172.9C196 170.5 196.4 170 198.5 170C199.9 170 201 169.6 201 169C201 168.4 198.4 168 195.2 168C183.7 168 161.9 160.3 166.4 157.8C168.9 156.4 171 151.5 170.9 147.3L170.8 143.5L169.9 147.5C169.4 149.7 167.7 153.1 166.2 155C161.7 160.6 161.5 161.2 161.5 168.5V175.5L158.3 175.8C153.7 176.3 151 173 151 166.9C151 164.3 150.6 161.9 150.1 161.6C148.9 160.8 146.8 165.8 146.1 171C145.6 174.9 145.2 175.5 143 175.8C136.8 176.5 131.5 164.5 135.4 158.5C136.3 157.1 136.8 156 136.5 156C135.3 156 132 162.7 132 165.3C132 167.3 131.5 168 130.1 168C123.6 168 124.5 155.3 131.6 146.7C132.9 145.2 134.4 142.3 134.9 140.3C135.8 137 135.7 136.5 133 134C129.5 130.7 128.4 126.9 129.6 122.2C130.6 118.2 134.8 114.6 137.3 115.5C138.2 115.9 139.4 117.7 140 119.5C141.2 123.2 143.5 124.4 147.3 123.5C149.1 123 150.2 123.4 151.6 125.2C153.1 127 154.3 127.4 157.2 127.2C162 126.8 165.3 129 168.7 134.8C170.2 137.3 171.5 138.9 171.7 138.3C171.9 137.7 178.1 140 185.9 143.7L199.7 150.3L199.3 154.4C198.6 160.1 202.3 169.5 207 174.3C210.1 177.3 211.5 178 214.8 178C219.6 178 220.6 176.9 222 170.5C223.8 162.4 224 162 226.6 162C227.9 162 229.9 161.5 230.9 160.8C232.4 159.9 233.3 160.2 236.2 162.3C240.2 165.4 241.7 165.6 244.8 163.4C247.6 161.5 247.3 161.3 249.4 167.4C252.8 177.9 250.5 186.6 242.1 195.1C237.5 199.6 235.4 200.9 230.4 202.3C221.6 204.8 219.2 204.6 218.8 201.4C218.6 199.4 216.5 202.6 209.9 215.7C205.1 224.9 200.9 233.5 200.6 234.7C200.1 236.2 200.6 237.5 202.5 239.4C205.6 242.5 205.6 244.6 202.8 250.5C201.1 254 199.2 256 195 258.4C184.3 264.9 178 265.6 176.9 260.5C176.2 257.5 176.2 257.5 176.1 261.1C176 264.3 175.6 264.8 173 265.3C167 266.5 157.4 266.9 152.6 266ZM172.5 243C171.6 241.5 165.5 240.7 161.8 241.6C158.6 242.4 158.7 242.5 164 243.1C172.9 244 173.1 244 172.5 243ZM146.4 133C145.7 132.4 144 135.2 144.1 137C144.1 137.9 144.7 137.5 145.5 136C146.2 134.6 146.6 133.3 146.4 133Z" fill="white"/>
<path d="M232 247.3C217.9 245.2 206 241.1 204.1 237.9C202.9 235.6 203.3 234.4 210.3 220.4L217.9 205.2L222.4 205.7C228.2 206.4 235 204.5 240.1 200.8C244.8 197.4 244.9 197.3 236.5 211C233.6 215.7 230.5 221 229.6 222.8C227.9 226.2 229 227.2 231.2 224.3C232.2 222.9 234.3 222.4 241.5 222.2C246.5 222 253.9 221 258.2 220C266.4 217.9 270 217.5 270 218.8C270 219.3 268.8 220.1 267.3 220.7L264.5 221.8L268.2 221.9C273.4 222 279 227.4 279 232.1C279 236 277.2 239 273.2 241.8C268.3 245.3 266.6 245.3 264.7 242C263.7 240.3 262.2 239 261.4 239C260.3 239 260.4 239.7 262.1 242C263.4 243.6 264.1 245.3 263.7 245.6C261.8 247.5 240.5 248.7 232 247.3Z" fill="white"/>
<path d="M163.6 165.3C162.7 164.4 162.9 161.2 163.9 160.6C164.3 160.3 165.5 160.9 166.4 161.9C168.1 163.7 168.1 163.9 166.2 164.9C165.1 165.5 164 165.6 163.6 165.3Z" fill="white"/>
<path d="M210.5 151.5C209.1 150.2 208 149.5 208 150C208 150.6 207.1 150.1 206 149C204.5 147.5 203.5 147.2 202.1 147.9C200.8 148.6 199.5 148.4 197.2 147C195.5 145.9 189.4 143 183.8 140.4C175.7 136.7 172.6 134.7 169.2 130.9C166.9 128.3 164.1 125.8 163 125.5C160.7 124.8 158.5 117.6 157.5 107.8C156.9 102 157.1 101 158.7 100C160.4 98.9 160.3 98.9 158.5 99.6C157.4 100 151.3 100.5 145 100.8C133.7 101.2 133.5 101.2 135.2 99.3C137.7 96.5 137.5 96 133.5 96C130.3 96 119.5 92.8 118.2 91.5C117.9 91.2 118.6 90.2 119.9 89.4C122.1 87.8 122 87.8 116.3 85.1C113.1 83.6 109.8 81.5 109 80.5C108.2 79.4 108 78.9 108.6 79.3C109.2 79.6 111.4 80.2 113.4 80.4L117.1 80.9L114.5 77.8C111.8 74.6 106 63.8 106 62C106 61.3 106.6 61.2 107.7 61.9C109.3 62.7 109.5 62.1 109.5 55.1C109.5 48.5 109.9 46.6 112.8 41C118.4 29.7 118.7 29.5 129.7 29.5C138.2 29.5 139.1 29.6 138.7 31.2C138 33.7 139.7 46.2 141.1 49.3C142.4 52.2 143.7 52 145 48.6C145.7 46.9 145.9 47.4 145.9 50.8C146 55.5 148.5 61.4 150 60.5C150.6 60.1 151 59.1 151.1 58.2C151.1 57.3 151.7 58.7 152.4 61.3C153.1 64 154.5 66.9 155.4 67.8C156.9 69.3 157 69.2 157 67C157.1 64.6 157.1 64.6 158.2 66.5C158.8 67.6 161.4 71 163.8 74C167.7 78.7 168.3 79.1 167.8 76.7C167.4 74.7 168.4 71.7 171.1 66.2L175 58.5V62.8C175 65.1 175.5 67 176 67C176.6 67 177 66.7 177 66.3C177.1 65 189.2 52.5 193.1 49.7C198 46 199 46.3 195.3 50.3C191.9 54 189 58.1 189 59.3C189 59.8 190.8 58.8 192.9 57.1C198.3 52.8 207.4 48.8 212.9 48.3L217.5 47.8L214.2 49.9C212.4 51.1 210.6 52 210.2 52C209.7 52 208.3 53.2 206.9 54.6L204.5 57.3L207 56.6C214.7 54.4 224.2 53.6 229.7 54.8C232.8 55.4 235.6 55.8 235.8 55.5C236.4 55 232.5 53.4 228.7 52.5L225.9 51.9L228.9 48.4C230.6 46.5 232 43.9 232.1 42.7C232.1 40.6 232.2 40.6 233.1 42.9C234 45.1 234.2 45.2 235.6 43.8C236.4 43 237.7 40.1 238.4 37.4C239.7 32.7 239.8 32.6 240.5 35.3L241.2 38L243 34.8C243.9 33 245.1 30 245.5 28.2C246.1 25.1 246.3 25 247.6 26.7C249 28.3 249.1 27.9 248.7 22.7L248.3 16.9L256.3 17.2C263.9 17.5 264.4 17.6 267 20.8C271.3 26.1 275 34.4 275 39C275 42.9 272.1 50.2 270 51.5C269.5 51.8 269 52.8 269 53.6C269 54.7 269.6 54.9 271 54.5C274.8 53.3 273 55.1 265.3 60.1C257.5 65.2 257.5 65.3 266 63.4C267.5 63.1 268.1 63.2 267.5 63.8C266 65.2 258.2 68 255.7 68.1C254.5 68.1 254.1 68.4 254.8 68.7C257 69.6 256.1 70.7 253.5 70.2C252.1 70 248.7 70.8 245.8 72C241.4 73.9 240.5 74 239.6 72.8C239 72 236.7 70.1 234.5 68.5L230.5 65.5L235.2 70.8C242.4 78.9 245.1 85.3 245.8 95.6C246.2 103.4 246.5 104.2 248.6 105C250.2 105.7 251.8 105.5 253.7 104.4L256.5 102.9L253.3 103.5C250.4 104.1 250 103.9 250 102.1C250 101 251.3 98.7 253 97C255.6 94.3 255.8 93.7 254.9 91C254.3 89.4 253.4 88 252.9 88C252.4 88 252 87.1 252 86.1C252 82.8 257.1 82 262.1 84.5C265.7 86.4 267.3 90 266 93.5C265.2 95.7 265.3 96 267.1 96C268.2 96 268.9 96.4 268.6 96.8C268.4 97.2 269.7 97.4 271.6 97.2C275.8 96.7 279.7 99.9 282.5 106.1C283.5 108.2 284.6 110 284.9 110.1C290.6 110.8 294.2 114.6 293.8 119.6C293.5 124.5 291.5 125.9 288.7 123.2C286 120.6 280.9 118.6 280.1 119.8C278.1 122.7 268.3 121.4 269.4 118.4C270.7 114.9 265.6 119.6 256.8 129.9C247.7 140.7 247.5 140.8 245.6 139C243.8 137.2 243.8 136.9 245.2 135.3C248.2 131.9 251 125.1 251 121.3L250.9 117.5L249 122.9C246.7 129.4 243.2 134.6 239 137.9C237.2 139.2 236 141.2 236 142.5C236 145.4 234.4 146.6 229.7 147.3C227.6 147.6 224.2 149.3 222.1 150.9C217.4 154.6 213.7 154.8 210.5 151.5ZM221 147.5C222.9 146.1 226.1 144.7 228.2 144.4C231.5 143.8 231.7 143.6 230.4 142.3C228.5 140.3 229.1 138.6 231.9 138.2C233.1 138 234.8 136.6 235.7 135.2C236.6 133.7 238.1 131.6 239.1 130.5C240 129.4 241 126.7 241.3 124.5C241.9 120.7 241.9 120.7 240.8 123.5C239.5 127.1 237 130.1 236 129.5C235.6 129.2 233.9 129.7 232.4 130.5C228.2 132.7 224.5 132.3 221.4 129.5C219.9 128.1 218.1 127 217.4 127C214.9 127 212.7 132 212.2 138.9C211.5 149.8 214.2 152.5 221 147.5ZM255 121.1C255 118.1 251.7 113 250.5 114.2C250.1 114.6 250.7 116.1 251.9 117.6C253 119.1 254 121.1 254 122.1C254 123.2 254.2 124 254.5 124C254.8 124 255 122.7 255 121.1ZM205.1 120C209.1 117.8 206.4 107.2 200.3 101.5C196.8 98.3 195.3 98.3 193.8 101.5C192.1 105.3 194.5 114.6 198 118.2C201.1 121.3 202.2 121.5 205.1 120ZM235.3 119.9C236.7 119.3 238.4 117.7 239.1 116.4C239.8 115 241 114.2 241.7 114.4C243.4 115.1 243.4 113.4 241.7 111.9C240.8 111 240.5 108.8 240.8 105C241.3 98.1 238.3 91.1 234.9 91C233.6 91 233.2 95.5 233.9 100.3C234.7 104.8 234.5 105.2 232.1 106.4C230.7 107.2 228.7 108.7 227.7 109.8C226.6 111 225.1 111.6 223.9 111.3C221.3 110.6 217.4 113.3 215.4 117.3L213.7 120.5L217.4 116.8C219.5 114.8 222 113 223.1 112.7C224.9 112.2 225 112.5 224.5 115C224 117.4 224.3 118.1 226.7 119.4C230.1 121.2 232.1 121.4 235.3 119.9ZM256.5 111.4C255 109 251 106.7 250.1 107.6C249.8 107.9 251.4 109.7 253.6 111.8C257.8 115.7 259.3 115.6 256.5 111.4ZM184.6 85C185.3 79.1 188.1 74 190.8 73.9C192 73.9 191.9 73.6 190.3 73C187.7 72 182.1 73.5 181.9 75.3C181.8 76 181.7 80.2 181.6 84.7C181.5 91.2 181.8 92.7 182.7 91.7C183.4 91 184.2 88 184.6 85ZM158 88.7C155 86.3 150.9 80 151.2 78.3C151.4 77.1 150.7 76.4 149.2 76.2C147.2 75.9 146.9 75.4 147.4 73.4C148.1 70.6 146.5 69.7 138.6 68.6L133.7 68L134.4 71.8C134.8 73.8 135.3 76 135.4 76.5C135.6 77.1 136.1 78.5 136.5 79.8C137.3 82.4 137.1 82.3 140.5 81C143.1 80 143.1 80.1 142.4 83.7C141.8 87.1 141.9 87.3 143.9 86.7C145.4 86.3 146.8 86.8 148.1 88.1C149.4 89.4 151.4 90 154.8 90C158.6 89.9 159.2 89.7 158 88.7ZM231 71.4C227.6 66.6 224.7 65.8 224.2 69.7C223.9 71.4 224.3 71.7 225.8 71.3C227 71 228.7 71.8 230.3 73.4C234.2 77.3 234.5 76.5 231 71.4ZM228.6 60.4C227.4 59.6 224.5 59 221.6 59.1L216.5 59.2L221.5 60.4C224.3 61 227.4 61.6 228.5 61.7C230.5 61.9 230.5 61.9 228.6 60.4Z" fill="white"/>
<path d="M225.2 136.8C223.2 134.8 223.8 134 227.5 134C229.9 134 231 134.5 231 135.5C231 136.3 230.6 137 230.1 137C229.6 137 228.6 137.2 227.8 137.5C227.1 137.8 225.9 137.5 225.2 136.8Z" fill="white"/>
<path d="M232 135.2C232 134.2 234.1 132 235.2 132C236.8 132 236 133.9 234 135C232.9 135.6 232 135.7 232 135.2Z" fill="white"/>
<path d="M195.1 104.3C195 101.9 195.4 101 196.6 101C197.8 101 198 101.3 197.2 102.3C196.7 102.9 196 104.4 195.7 105.5C195.4 106.8 195.2 106.4 195.1 104.3Z" fill="white"/>
</svg>
