<svg width="172" height="222" viewBox="0 0 172 222" fill="none" xmlns="http://www.w3.org/2000/svg">
<path d="M111.534 17.5C127.034 35.5 104.534 55 77.5343 64C56.0344 56.5 29.0344 36.5 44.5343 19.5C53.0344 3.5 57.772 0 77.5344 0C97.2967 0 100.572 4.76927 111.534 17.5Z" fill="#804317"/>
<path d="M133.534 125.5C133.534 152.01 108.686 173.5 78.0343 173.5C47.3825 173.5 22.5343 152.01 22.5343 125.5C22.5343 98.9903 43.5344 76.5 75.5344 38C106.534 70.5 133.534 98.9903 133.534 125.5Z" fill="#804317"/>
<path d="M98.2206 61.1601C110.721 84.1601 90.0947 70.1602 78.2206 70.1602C66.3465 70.1602 48.2207 78.1601 58.2207 61.1601C44.0344 23.5 66.3465 51.1602 78.2206 51.1602C90.0947 51.1602 105.034 29.5 98.2206 61.1601Z" fill="#804317"/>
<ellipse cx="115" cy="95.9547" rx="12.9922" ry="8.44213" transform="rotate(29.5599 115 95.9547)" fill="#804317"/>
<path d="M94.0344 42.5517C94.0344 43.104 85.0344 51.5517 78.0344 51.0517C70.5344 51.5517 61.5344 43.104 61.5344 42.5517C61.5344 41.9994 70.8547 46.0517 78.0344 46.0517C85.2141 46.0517 94.0344 41.9994 94.0344 42.5517Z" fill="black"/>
<circle cx="92.5344" cy="24.5" r="12" fill="white"/>
<circle cx="92.5344" cy="24.5" r="9" fill="#7FBC6C"/>
<circle cx="92.5344" cy="24.5" r="6" fill="black"/>
<circle cx="90.0344" cy="22" r="1.5" fill="white"/>
<circle cx="61.5344" cy="24.5" r="12" fill="white"/>
<circle cx="61.5344" cy="24.5" r="9" fill="#7FBC6C"/>
<circle cx="61.5344" cy="24.5" r="6" fill="black"/>
<circle cx="59.0344" cy="22" r="1.5" fill="white"/>
<rect x="25.4699" y="63.4593" width="25.7063" height="7" transform="rotate(43.5672 25.4699 63.4593)" fill="#804317"/>
<rect width="30.5753" height="7.12762" transform="matrix(-0.795261 -0.606267 0.620877 -0.783908 143.36 116.274)" fill="#804317"/>
<rect width="7.18078" height="14.9059" transform="matrix(-0.900689 0.434464 -0.445326 -0.895369 154.289 124.052)" fill="#804317"/>
<circle cx="17.6691" cy="49.1718" r="5.5" transform="rotate(5.60431 17.6691 49.1718)" fill="#804317"/>
<ellipse cx="31.6834" cy="42.9103" rx="2.29045" ry="3.5" transform="rotate(23.2645 31.6834 42.9103)" fill="#804317"/>
<ellipse cx="24.4249" cy="48.5889" rx="3.15428" ry="9.53382" transform="rotate(56.1035 24.4249 48.5889)" fill="#804317"/>
<path d="M24.6578 38.6243C22.6074 47.9453 20.7455 47.1105 19.4187 46.7456C18.0918 46.3807 16.8751 43.5961 19.853 37.3028C21.5143 31.2621 23.9367 26.6609 25.2635 27.0258C26.5904 27.3907 26.3192 32.5835 24.6578 38.6243Z" fill="#804317"/>
<path d="M17.5846 38.6746C18.6491 43.9639 17.7581 46.3156 15.7313 46.3871C14.3435 46.4361 11.5824 44.8882 12.5589 38.852C12.3589 33.1868 13.3218 28.5546 14.7096 28.5056C16.0974 28.4566 17.3846 33.0094 17.5846 38.6746Z" fill="#804317"/>
<path d="M11.8349 42.0681C15.9716 45.9908 14.9955 49.8849 13.4584 50.5033C11.9213 51.1217 9.08773 47.6771 7.1295 42.8095C5.17126 37.9419 4.82989 33.4947 6.36702 32.8763C7.90414 32.2579 9.87671 37.2005 11.8349 42.0681Z" fill="#804317"/>
<ellipse cx="14.5365" cy="51.1401" rx="2.31925" ry="12.0791" transform="rotate(-29.7179 14.5365 51.1401)" fill="#804317"/>
<ellipse cx="20.4498" cy="59.4261" rx="3.84662" ry="12.6188" transform="rotate(-20.1618 20.4498 59.4261)" fill="#804317"/>
<circle cx="151.345" cy="129.152" r="5.5" transform="rotate(166.604 151.345 129.152)" fill="#804317"/>
<ellipse cx="140.133" cy="139.635" rx="2.29045" ry="3.5" transform="rotate(-175.736 140.133 139.635)" fill="#804317"/>
<ellipse cx="145.147" cy="131.903" rx="3.15428" ry="9.53382" transform="rotate(-142.897 145.147 131.903)" fill="#804317"/>
<path d="M148.171 141.4C147.075 131.92 149.107 132.103 150.481 132.016C151.854 131.929 153.911 134.165 153.145 141.085C153.54 147.338 152.748 152.477 151.375 152.564C150.001 152.651 148.567 147.653 148.171 141.4Z" fill="#804317"/>
<path d="M154.843 139.05C152.114 134.395 152.191 131.882 154.084 131.154C155.38 130.656 158.495 131.221 159.537 137.246C161.57 142.537 162.168 147.231 160.872 147.729C159.576 148.227 156.876 144.341 154.843 139.05Z" fill="#804317"/>
<path d="M159.174 133.969C153.986 131.607 153.641 127.607 154.893 126.522C156.145 125.437 159.946 127.771 163.382 131.736C166.818 135.701 168.589 139.795 167.337 140.88C166.085 141.965 162.611 137.934 159.174 133.969Z" fill="#804317"/>
<path d="M105.534 184.5C104.034 197 104.534 203.5 99.3532 206.5C94.2673 206.833 94.0344 199 96.5344 185.5C95.0343 173.5 92.5344 161 99.3532 163.433C104.439 163.1 104.758 172.651 105.534 184.5Z" fill="#804317"/>
<path d="M50.5329 183.558C52.2733 171.089 51.8985 164.58 57.1365 161.681C62.2278 161.445 62.3099 169.282 59.5505 182.731C60.8193 194.758 63.0782 207.303 56.3075 204.74C51.2162 204.975 51.0813 195.419 50.5329 183.558Z" fill="#804317"/>
<path d="M65.5343 207.5C65.9778 211.062 56.2587 213.038 48.5344 214C40.8094 216.291 31.9778 215.062 31.5343 211.5C31.0909 207.938 38.31 200.462 46.0344 199.5C53.7587 198.538 65.0908 203.938 65.5343 207.5Z" fill="#804317"/>
<path d="M16.6155 208.261C16.0847 201.659 21.6001 197.419 33.0343 196.5C45.2814 197.335 56.9908 197.462 57.2814 205.335C58.5343 213.5 45.7814 214.835 34.7025 217.248C23.2682 218.167 17.2979 216.749 16.6155 208.261Z" fill="#804317"/>
<path d="M66.5344 206C66.5344 209.5 63.1618 211.5 56.5344 211.5C49.9069 211.5 44.5344 209.038 44.5344 206C44.5344 202.962 49.9069 200.5 56.5344 200.5C63.1618 200.5 66.5344 201.5 66.5344 206Z" fill="#804317"/>
<path d="M93.4509 205.767C93.2578 202.114 103.092 200.819 110.865 200.408C118.732 198.646 127.456 200.542 127.649 204.195C127.842 207.848 120.117 214.916 112.344 215.327C104.571 215.738 93.6441 209.42 93.4509 205.767Z" fill="#804317"/>
<path d="M142.292 207.937C142.35 214.272 136.546 217.945 125.075 218.05C112.919 216.427 101.249 215.516 101.521 207.984C100.854 200.11 113.669 199.697 124.892 198.143C136.363 198.037 142.217 199.794 142.292 207.937Z" fill="#804317"/>
<path d="M92.3422 207.103C92.5906 203.612 96.0967 201.856 102.707 202.327C109.318 202.797 114.502 205.635 114.287 208.664C114.071 211.694 108.537 213.769 101.927 213.299C95.3159 212.828 92.0228 211.592 92.3422 207.103Z" fill="#804317"/>
</svg>
