<svg width="176" height="252" viewBox="0 0 176 252" fill="none" xmlns="http://www.w3.org/2000/svg">
<g filter="url(#filter0_d_340_1805)">
<path d="M95.0627 9.98154C97.5726 17.4677 105.103 23.4566 84.0189 19.9631C66.9511 22.9575 71.469 18.4658 72.975 9.98154C72.975 4.46889 79.0285 0 84.0189 0C89.0092 0 93.0547 3.99262 95.0627 9.98154Z" fill="#FFCC33"/>
<path d="M138.234 108.799C140.744 163.697 168.354 210.111 88.5368 210.111C12.234 210.111 34.8235 178.17 36.8315 108.799C36.8315 57.531 36.8315 12.9759 87.5327 15.9704C128.696 15.9704 129.198 57.8928 138.234 108.799Z" fill="#FFCC33"/>
<path d="M83.0148 235.565C85.7757 239.733 73.4769 242.551 59.4211 243.051C45.3654 244.548 26.7916 245.047 26.7916 238.559C24.7837 233.069 43.8594 224.086 59.4211 228.078C73.0061 228.078 69.461 215.102 83.0148 235.565Z" fill="#FFCC33"/>
<path d="M70.609 217.417C74.481 226.581 82.3723 235.617 79.5009 236.562C76.6295 237.508 63.1735 229.736 60.2106 220.84C55.4053 203.02 57.1736 203.965 60.0451 203.02C62.9165 202.074 66.9511 195.638 70.609 217.417Z" fill="#FFCC33"/>
<path d="M92.4411 235.386C89.6802 239.554 101.979 242.373 116.035 242.872C130.091 244.369 148.664 244.868 148.664 238.38C150.672 232.89 131.597 223.907 116.035 227.9C102.45 227.9 105.995 214.924 92.4411 235.386Z" fill="#FFCC33"/>
<path d="M104.847 217.238C100.975 226.402 93.0836 235.439 95.955 236.384C98.8265 237.329 112.282 229.558 115.245 220.661C120.051 202.841 118.282 203.786 115.411 202.841C112.539 201.896 108.505 195.459 104.847 217.238Z" fill="#FFCC33"/>
<path d="M23.7797 116.784C23.7797 125.053 26.7917 132.755 23.7797 132.755C21.2698 133.753 18.7598 127.764 18.7598 116.784C18.7598 108.515 20.6628 101.812 21.7718 101.812C22.8807 101.812 23.7797 108.515 23.7797 116.784Z" fill="#FFCC33"/>
<path d="M17.7558 115.287C15.4548 123.233 17.5127 131.052 14.7439 130.259C12.1588 130.558 11.1866 123.842 14.2419 113.291C16.5429 105.344 19.1096 99.318 20.1291 99.6098C21.1485 99.9016 20.0568 107.341 17.7558 115.287Z" fill="#FFCC33"/>
<path d="M12.7359 115.287C7.98621 122.075 7.57137 127.902 5.20613 126.266C3.36767 124.995 3.91953 121.306 10.2263 112.292C14.976 105.504 19.1655 100.264 20.0364 100.866C20.9072 101.468 17.4856 108.499 12.7359 115.287Z" fill="#FFCC33"/>
<path d="M28.2727 107.684C32.8156 113.291 36.8316 117.283 33.8196 120.278C30.3057 123.272 27.6534 116.45 23.7748 110.664C19.8963 104.879 17.5181 98.642 18.7601 97.8191C19.764 93.3274 25.7878 104.806 28.2727 107.684Z" fill="#FFCC33"/>
<path d="M20.7628 112.542C20.7628 114.196 20.7678 118.78 18.2578 114.289C15.2509 119.03 15.7429 114.196 15.7429 112.542C15.7429 110.888 16.8666 109.547 18.2528 109.547C19.639 109.547 20.7628 110.888 20.7628 112.542Z" fill="#FFCC33"/>
<path d="M27.2158 110.296C27.7507 111.862 29.24 116.201 24.5647 113.036C21.2698 119.779 21.3056 114.038 20.7707 112.472C20.2358 110.906 21.2449 109.15 23.0247 108.549C24.8044 107.948 26.6808 108.73 27.2158 110.296Z" fill="#FFCC33"/>
<path d="M15.3747 114.44C15.1599 115.395 14.5681 118.045 13.1852 115.013C9.4298 117.412 11.2269 114.521 11.4418 113.566C11.6566 112.61 12.7112 112.031 13.7973 112.272C14.8833 112.514 15.5896 113.484 15.3747 114.44Z" fill="#FFCC33"/>
<path d="M32.3136 79.3531C26.9329 87.0441 16.2499 107.301 17.7558 107.801C16.7747 106.465 18.2578 79.6474 28.1173 74.8113C34.9112 69.8776 42.8555 62.8836 42.1952 68.2961C46.3694 71.867 39.1075 74.4195 32.3136 79.3531Z" fill="#FFCC33"/>
<path d="M25.2206 96.2876C23.2779 109.298 28.7998 110.795 20.0989 107.311C4.20204 118.281 17.5465 101.639 18.5267 95.2694C19.5069 88.9 21.8 83.9646 23.6484 84.2457C25.4969 84.5269 27.2938 83.3457 25.2206 96.2876Z" fill="#FFCC33"/>
<path d="M151.177 115.777C151.739 124.027 149.258 131.914 152.263 131.711C154.835 132.538 156.932 126.394 156.185 115.44C155.623 107.19 153.268 100.63 152.162 100.704C151.055 100.779 150.614 107.527 151.177 115.777Z" fill="#FFCC33"/>
<path d="M157.085 113.878C159.921 121.652 158.4 129.591 161.108 128.614C163.708 128.738 164.221 121.972 160.455 111.65C157.619 103.877 154.648 98.037 153.651 98.3966C152.654 98.7563 154.249 106.105 157.085 113.878Z" fill="#FFCC33"/>
<path d="M162.093 113.541C167.294 119.994 168.104 125.78 170.353 123.989C172.1 122.597 171.299 118.954 164.394 110.385C159.193 103.932 154.657 98.9847 153.829 99.6442C153.001 100.304 156.893 107.088 162.093 113.541Z" fill="#FFCC33"/>
<path d="M146.075 107C141.924 112.899 138.189 117.153 141.397 119.938C145.107 122.689 147.289 115.704 150.765 109.671C154.241 103.638 156.19 97.2557 154.895 96.5181C153.588 92.1043 148.359 103.962 146.075 107Z" fill="#FFCC33"/>
<path d="M153.898 111.342C154.011 112.992 154.317 117.566 156.516 112.916C159.839 117.445 159.019 112.655 158.907 111.005C158.794 109.355 157.582 108.092 156.199 108.186C154.816 108.279 153.786 109.692 153.898 111.342Z" fill="#FFCC33"/>
<path d="M147.307 109.535C146.88 111.133 145.689 115.562 150.139 112.09C153.884 118.596 153.458 112.871 153.886 111.273C154.313 109.674 153.186 107.99 151.37 107.51C149.553 107.03 147.734 107.937 147.307 109.535Z" fill="#FFCC33"/>
<path d="M159.403 112.873C159.682 113.812 160.453 116.416 161.626 113.298C165.536 115.44 163.547 112.676 163.267 111.737C162.988 110.798 161.897 110.291 160.829 110.605C159.762 110.919 159.124 111.934 159.403 112.873Z" fill="#FFCC33"/>
<path d="M140.116 79.0059C146.008 86.3175 158.044 105.81 156.576 106.41C157.464 105.011 154.16 78.3546 143.994 74.1923C136.88 69.7266 128.479 63.2827 129.505 68.6384C125.584 72.4818 133.003 74.5402 140.116 79.0059Z" fill="#FFCC33"/>
<path d="M148.345 95.4247C151.168 108.274 145.761 110.139 154.205 106.079C170.811 115.955 156.366 100.248 154.954 93.9588C153.543 87.6699 150.92 82.8999 149.095 83.3046C147.269 83.7094 145.396 82.6517 148.345 95.4247Z" fill="#FFCC33"/>
<ellipse cx="72.4533" cy="33.7128" rx="6.5259" ry="8.48431" fill="white"/>
<ellipse cx="72.4533" cy="35.709" rx="2.50996" ry="2.49538" fill="black"/>
<ellipse cx="71.7003" cy="34.9605" rx="0.752989" ry="0.748616" fill="white"/>
<ellipse cx="92.533" cy="32.7145" rx="6.5259" ry="8.48431" fill="white"/>
<ellipse cx="92.533" cy="34.711" rx="2.50996" ry="2.49538" fill="black"/>
<ellipse cx="91.7801" cy="33.9622" rx="0.752989" ry="0.748616" fill="white"/>
<path d="M77.9753 20.3948C77.9753 20.8939 74.0737 20.6918 70.6257 21.735C63.5977 25.7276 63.4978 25.9903 63.4171 25.7266C63.3364 25.4629 65.4251 20.7359 69.4411 19.7377C72.955 18.2405 78.4772 19.8957 77.9753 20.3948Z" fill="#787262"/>
<path d="M101.569 25.2286C101.19 25.556 99.1006 23.1393 96.0469 21.236C91.529 19.2397 88.0151 19.7388 88.0022 18.8092C88.1495 18.5756 93.537 16.7443 98.055 19.7388C101.569 21.7351 102.277 25.278 101.569 25.2286Z" fill="#787262"/>
<path d="M104.581 50.1825C106.087 50.6815 97.2689 58.6051 86.5091 59.6649C75.7493 60.7247 64.9235 56.6705 65.4254 55.6723C65.3708 55.1237 75.6539 58.152 86.4137 57.0922C97.1735 56.0323 104.526 49.6339 104.581 50.1825Z" fill="#693624"/>
</g>
<defs>
<filter id="filter0_d_340_1805" x="0.285486" y="0" width="174.858" height="252" filterUnits="userSpaceOnUse" color-interpolation-filters="sRGB">
<feFlood flood-opacity="0" result="BackgroundImageFix"/>
<feColorMatrix in="SourceAlpha" type="matrix" values="0 0 0 0 0 0 0 0 0 0 0 0 0 0 0 0 0 0 127 0" result="hardAlpha"/>
<feOffset dy="4"/>
<feGaussianBlur stdDeviation="2"/>
<feComposite in2="hardAlpha" operator="out"/>
<feColorMatrix type="matrix" values="0 0 0 0 0 0 0 0 0 0 0 0 0 0 0 0 0 0 0.25 0"/>
<feBlend mode="normal" in2="BackgroundImageFix" result="effect1_dropShadow_340_1805"/>
<feBlend mode="normal" in="SourceGraphic" in2="effect1_dropShadow_340_1805" result="shape"/>
</filter>
</defs>
</svg>
