<svg width="172" height="245" viewBox="0 0 172 245" fill="none" xmlns="http://www.w3.org/2000/svg">
<path d="M92.6933 10C95.1933 17.5 102.693 23.5 81.6933 20C64.6933 23 69.1933 18.5 70.6933 10C70.6933 4.47715 76.7227 0 81.6933 0C86.6639 0 90.6933 4 92.6933 10Z" fill="#FFCC33"/>
<path d="M135.693 109C138.193 164 165.693 210.5 86.1933 210.5C10.1934 210.5 32.6933 178.5 34.6932 109C34.6932 57.6375 34.6932 13 85.1932 16C126.193 16 126.693 58 135.693 109Z" fill="#FFCC33"/>
<path d="M80.6932 236C83.4432 240.176 71.1932 243 57.1932 243.5C43.1932 245 24.6932 245.5 24.6932 239C22.6933 233.5 41.6932 224.5 57.1932 228.5C70.7242 228.5 67.1932 215.5 80.6932 236Z" fill="#FFCC33"/>
<path d="M68.3367 217.819C72.1933 227 80.0533 236.053 77.1933 237C74.3332 237.947 60.9307 230.161 57.9796 221.248C53.1933 203.395 54.9546 204.342 57.8147 203.395C60.6747 202.448 64.6933 196 68.3367 217.819Z" fill="#FFCC33"/>
<path d="M90.0821 235.821C87.3322 239.997 99.5821 242.821 113.582 243.321C127.582 244.821 146.082 245.321 146.082 238.821C148.082 233.321 129.082 224.321 113.582 228.321C100.051 228.321 103.582 215.321 90.0821 235.821Z" fill="#FFCC33"/>
<path d="M102.439 217.64C98.5821 226.821 90.722 235.874 93.5821 236.821C96.4421 237.768 109.845 229.982 112.796 221.069C117.582 203.216 115.821 204.163 112.961 203.216C110.101 202.269 106.082 195.821 102.439 217.64Z" fill="#FFCC33"/>
<path d="M21.6933 117C21.6933 125.284 24.6933 133 21.6933 133C19.1933 134 16.6933 128 16.6933 117C16.6933 108.716 18.5887 102 19.6933 102C20.7979 102 21.6933 108.716 21.6933 117Z" fill="#FFCC33"/>
<path d="M15.6933 115.5C13.4014 123.461 15.4511 131.294 12.6933 130.5C10.1185 130.799 9.15016 124.071 12.1933 113.5C14.4852 105.539 17.0417 99.5016 18.0571 99.7939C19.0725 100.086 17.9851 107.539 15.6933 115.5Z" fill="#FFCC33"/>
<path d="M10.6933 115.5C5.96245 122.301 5.54925 128.139 3.1934 126.5C1.36225 125.226 1.91191 121.53 8.19362 112.5C12.9245 105.7 17.0974 100.449 17.9648 101.053C18.8322 101.656 15.4241 108.699 10.6933 115.5Z" fill="#FFCC33"/>
<path d="M26.1684 107.883C30.6933 113.5 34.6933 117.5 31.6933 120.5C28.1933 123.5 25.5516 116.665 21.6884 110.869C17.8253 105.073 15.4565 98.8243 16.6936 97.9998C17.6935 93.4998 23.6933 105 26.1684 107.883Z" fill="#FFCC33"/>
<path d="M18.6883 112.75C18.6883 114.407 18.6933 119 16.1933 114.5C13.1983 119.25 13.6883 114.407 13.6883 112.75C13.6883 111.093 14.8076 109.75 16.1883 109.75C17.569 109.75 18.6883 111.093 18.6883 112.75Z" fill="#FFCC33"/>
<path d="M25.1157 110.5C25.6485 112.069 27.1319 116.416 22.4751 113.245C19.1933 120 19.229 114.249 18.6962 112.68C18.1634 111.111 19.1685 109.351 20.9412 108.749C22.7139 108.147 24.5829 108.931 25.1157 110.5Z" fill="#FFCC33"/>
<path d="M13.3216 114.651C13.1076 115.609 12.5183 118.263 11.1408 115.225C7.4003 117.63 9.19029 114.733 9.4043 113.776C9.6183 112.818 10.6687 112.238 11.7504 112.48C12.8322 112.722 13.5356 113.694 13.3216 114.651Z" fill="#FFCC33"/>
<path d="M30.1933 79.5C24.8339 87.2052 14.1933 107.5 15.6933 108C14.716 106.662 16.1933 79.7948 26.0136 74.9497C32.7805 70.0069 40.6933 63 40.0357 68.4225C44.1933 72 36.9602 74.5572 30.1933 79.5Z" fill="#FFCC33"/>
<path d="M23.1285 96.4659C21.1934 109.5 26.6934 111 18.027 107.51C2.1933 118.5 15.4848 101.827 16.4611 95.4458C17.4374 89.0646 19.7214 84.12 21.5625 84.4017C23.4037 84.6834 25.1934 83.5 23.1285 96.4659Z" fill="#FFCC33"/>
<path d="M148.584 115.991C149.145 124.257 146.673 132.157 149.666 131.955C152.228 132.783 154.317 126.628 153.573 115.653C153.013 107.388 150.668 100.816 149.566 100.89C148.464 100.965 148.024 107.726 148.584 115.991Z" fill="#FFCC33"/>
<path d="M154.469 114.089C157.294 121.877 155.779 129.83 158.477 128.852C161.066 128.976 161.577 122.198 157.826 111.857C155.001 104.069 152.042 98.2184 151.049 98.5787C150.056 98.939 151.644 106.301 154.469 114.089Z" fill="#FFCC33"/>
<path d="M159.458 113.751C164.638 120.216 165.445 126.013 167.684 124.219C169.425 122.824 168.627 119.173 161.749 110.589C156.569 104.124 152.051 99.1677 151.226 99.8284C150.402 100.489 154.278 107.286 159.458 113.751Z" fill="#FFCC33"/>
<path d="M143.503 107.198C139.368 113.108 135.648 117.369 138.844 120.159C142.539 122.916 144.712 115.918 148.175 109.874C151.637 103.83 153.578 97.4354 152.288 96.6965C150.986 92.2744 145.778 104.154 143.503 107.198Z" fill="#FFCC33"/>
<path d="M151.295 111.548C151.407 113.201 151.713 117.784 153.903 113.125C157.212 117.662 156.396 112.863 156.284 111.21C156.172 109.557 154.964 108.292 153.587 108.386C152.209 108.479 151.183 109.895 151.295 111.548Z" fill="#FFCC33"/>
<path d="M144.73 109.738C144.305 111.339 143.119 115.776 147.551 112.298C151.282 118.815 150.857 113.08 151.283 111.479C151.708 109.877 150.586 108.19 148.777 107.709C146.968 107.228 145.156 108.136 144.73 109.738Z" fill="#FFCC33"/>
<path d="M156.778 113.082C157.056 114.023 157.824 116.631 158.993 113.507C162.887 115.653 160.906 112.884 160.627 111.943C160.349 111.003 159.262 110.495 158.199 110.809C157.136 111.124 156.5 112.141 156.778 113.082Z" fill="#FFCC33"/>
<path d="M137.568 79.1518C143.436 86.477 155.425 106.006 153.962 106.606C154.847 105.205 151.556 78.4993 141.431 74.3293C134.345 69.8554 125.977 63.3996 126.999 68.7652C123.093 72.6156 130.483 74.6779 137.568 79.1518Z" fill="#FFCC33"/>
<path d="M145.764 95.6012C148.576 108.475 143.19 110.343 151.601 106.275C168.141 116.169 153.753 100.433 152.347 94.1326C150.942 87.832 148.329 83.0532 146.511 83.4587C144.693 83.8642 142.827 82.8045 145.764 95.6012Z" fill="#FFCC33"/>
<ellipse cx="70.1737" cy="33.7751" rx="6.5" ry="8.5" fill="white"/>
<circle cx="70.1737" cy="35.7751" r="2.5" fill="black"/>
<circle cx="69.4237" cy="35.0251" r="0.75" fill="white"/>
<ellipse cx="90.1737" cy="32.7751" rx="6.5" ry="8.5" fill="white"/>
<circle cx="90.1737" cy="34.7751" r="2.5" fill="black"/>
<circle cx="89.4237" cy="34.0251" r="0.75" fill="white"/>
<path d="M75.6737 20.4324C75.6737 20.9325 71.7876 20.73 68.3532 21.7752C61.3532 25.7752 61.2537 26.0383 61.1733 25.7742C61.0929 25.51 63.1733 20.7742 67.1734 19.7741C70.6733 18.2742 76.1737 19.9325 75.6737 20.4324Z" fill="#787262"/>
<path d="M99.1736 25.2752C98.7962 25.6032 96.7152 23.182 93.6736 21.2752C89.1736 19.2752 85.6736 19.7752 85.6609 18.8439C85.8075 18.6099 91.1737 16.7752 95.6737 19.7752C99.1737 21.7751 99.879 25.3246 99.1736 25.2752Z" fill="#787262"/>
<path d="M102.174 50.2751C103.674 50.7751 94.8908 58.7134 84.1737 59.7751C73.4566 60.8369 62.6737 56.7752 63.1737 55.7751C63.1192 55.2255 73.3615 58.2594 84.0786 57.1976C94.7957 56.1359 102.119 49.7256 102.174 50.2751Z" fill="#693624"/>
</svg>
