<svg width="163" height="172" viewBox="0 0 163 172" fill="none" xmlns="http://www.w3.org/2000/svg">
<g filter="url(#filter0_d_315_937)">
<ellipse cx="76.2979" cy="77.2183" rx="46.5142" ry="44.8167" fill="#DF2027"/>
<ellipse cx="40.2869" cy="25.4301" rx="19.506" ry="17.9267" fill="#DF2027"/>
<path d="M58.7927 36.883C61.1803 42.6338 58.1397 46.0092 52.9068 48.1628C47.6738 50.3165 44.6752 52.593 42.2876 46.8422C15.7797 35.3893 39.0276 29.4911 44.2605 27.3375C49.4935 25.1839 63.7941 9.49537 58.7927 36.883Z" fill="#DF2027"/>
<ellipse cx="19.4402" cy="18.544" rx="19.4402" ry="18.544" transform="matrix(0.481224 0.876598 -0.878368 0.477984 119.378 0)" fill="#DF2027"/>
<path d="M109.808 46.8426C105.885 51.6866 102.666 48.6712 98.2579 45.1323C93.8501 41.5935 90.4056 40.0656 94.3289 35.2216C91.7095 6.57021 108.058 24.0518 112.465 27.5907C116.873 31.1295 136.345 38.0769 109.808 46.8426Z" fill="#DF2027"/>
<path d="M131.315 44.8506C134.316 49.3323 137.071 57.0594 136.957 55.9831C140.359 56.8372 137.652 45.7579 136.816 42.8586C136.494 39.8546 133.016 37.7947 130.815 38.377C128.314 40.369 127.814 42.8588 131.315 44.8506Z" fill="#DF2027"/>
<path d="M151.821 42.8588C149.348 46.25 143.212 52.4684 142.318 51.8222C141.424 51.1759 145.347 44.2582 147.82 40.867C150.292 37.4758 152.408 34.2057 154.392 35.5624C156.322 36.8832 154.294 39.4677 151.821 42.8588Z" fill="#DF2027"/>
<path d="M158.562 46.1029C159.493 47.8385 155.837 49.53 151.321 51.3242C133.315 69.749 142.608 53.5938 142.209 52.6004C141.811 51.6071 145.149 49.3473 149.665 47.553C154.181 45.7588 156.823 42.8589 158.562 46.1029Z" fill="#DF2027"/>
<path d="M144.197 39.3634C143.637 43.5166 139.817 58.7936 139.817 57.2997C136.316 59.2916 138.135 43.5166 138.696 39.3634C139.256 35.2102 140.426 31.6463 142.818 31.9036C145.147 32.154 144.757 35.2102 144.197 39.3634Z" fill="#DF2027"/>
<path d="M147.82 52.8183C147.82 56.3935 146.185 57.7979 142.318 57.7979C134.816 57.2999 134.816 57.7978 133.815 52.8183C131.218 39.89 136.45 46.8426 140.317 46.8426C144.819 45.8467 149.82 45.8467 147.82 52.8183Z" fill="#DF2027"/>
<path d="M146.818 42.8587C146.421 43.5826 144.818 48.3354 142.573 46.9335C141.603 46.4061 141.14 45.3917 141.537 44.6677C143.818 41.3651 142.818 44.6676 143.318 45.8463C144.318 46.3438 147.216 42.1347 146.818 42.8587Z" fill="#DF2027"/>
<path d="M152.584 46.4131C151.92 46.907 148.477 50.5663 147.02 48.3612C146.358 47.4801 146.36 46.3654 147.024 45.8714C150.478 43.8121 148.189 46.4017 148.152 47.6809C148.854 48.5477 153.247 45.9191 152.584 46.4131Z" fill="#DF2027"/>
<path d="M138.538 41.4787C138.683 42.291 140.421 46.997 137.788 47.3029C136.7 47.4957 135.7 46.9935 135.555 46.1813C135.316 38.8751 136.816 40.8669 137.686 45.9906C138.317 45.8465 138.392 40.6664 138.538 41.4787Z" fill="#DF2027"/>
<path d="M146.316 50.8217C147.423 52.4002 137.148 70.0637 131.813 72.7359C125.925 76.8311 117.309 84.1913 118.814 76.9766C116.31 73.7327 121.582 70.7988 127.47 66.7036C138.314 58.2927 145.209 49.2433 146.316 50.8217Z" fill="#DF2027"/>
<path d="M137.217 59.7204C135.972 62.4797 131.184 67.1494 130.315 66.7605C130.315 65.7647 132.825 61.0716 134.07 58.3123C135.575 54.9764 137.029 53.6314 137.898 54.0203C138.768 54.4091 138.463 56.9612 137.217 59.7204Z" fill="#DF2027"/>
<path d="M10.2572 107.704C16.2796 108.59 26.6796 99.5138 25.7824 100.125C28.6391 102.153 15.5383 112.326 12.7786 113.57C10.2708 115.271 5.95885 113.564 4.97869 111.517C4.8838 108.329 6.46548 106.338 10.2572 107.704Z" fill="#DF2027"/>
<path d="M10.7779 117.554C13.4714 114.334 20.781 107.096 21.62 109.623C22.4691 110.327 18.0927 116.97 15.3992 120.19C12.7057 123.41 10.3759 126.533 8.4877 125.048C6.64939 123.602 8.0844 120.774 10.7779 117.554Z" fill="#DF2027"/>
<path d="M15.6162 125.098C16.6838 121.044 22.357 106.349 22.173 107.832C25.893 106.283 22.144 121.716 21.0763 125.77C20.0087 129.823 18.4081 133.217 16.0656 132.67C13.785 132.137 14.5485 129.151 15.6162 125.098Z" fill="#DF2027"/>
<path d="M26.4787 104.994C29.1469 105.83 29.7794 107.473 28.7959 110.582C25.8897 117.733 27.7936 134.982 23.2922 120.043C20.3175 110.171 13.2786 117.056 16.887 109.267C17.2885 105.415 21.7845 101.754 26.4787 104.994Z" fill="#DF2027"/>
<path d="M14.9288 119.686C15.4123 119.016 17.7063 114.579 19.4098 115.993C20.1599 116.529 20.3759 117.507 19.8924 118.177C17.2762 121.215 18.7707 118.128 18.5537 116.993C17.771 116.483 14.4453 120.356 14.9288 119.686Z" fill="#DF2027"/>
<path d="M10.9271 112.987C11.6467 112.578 15.5145 109.367 16.6887 111.733C17.2366 112.688 17.0975 113.794 16.3779 114.203C12.696 115.825 15.2868 113.535 15.4816 112.27C14.8917 111.324 10.2075 113.396 10.9271 112.987Z" fill="#DF2027"/>
<path d="M18.2959 126.548C18.2518 125.724 17.1069 120.841 19.7577 120.859C20.8611 120.801 21.7912 121.421 21.8353 122.245C21.1726 129.525 19.9289 127.365 19.6976 122.174C19.0533 122.24 18.34 127.372 18.2959 126.548Z" fill="#DF2027"/>
<path d="M18.0625 122.297C16.6131 121.023 22.4181 101.446 26.9705 97.5971C31.7227 92.2359 38.2272 76.9618 38.4726 84.3263C41.6743 86.8912 37.371 97.0793 32.6188 102.441C24.0704 113.159 19.5119 123.571 18.0625 122.297Z" fill="#DF2027"/>
<path d="M24.7822 125.023C23.6001 122.236 23.766 107.524 24.7822 107.096C25.5742 107.749 27.1893 120.742 28.3714 123.529C29.8006 126.898 30.784 128.509 28.3714 129.459C27.3552 129.886 25.7825 128.011 24.7822 125.023Z" fill="#DF2027"/>
<path d="M35.5954 155.708C13.82 143.484 26.2826 146.436 35.5954 142.95C36.827 128.011 37.7862 118.052 44.7883 107.096C47.572 108.659 45.5928 149.784 43.8291 152.899C42.0654 156.013 38.379 157.271 35.5954 155.708Z" fill="#DF2027"/>
<path d="M54.7912 155.399C54.7912 159.524 51.4323 162.868 47.2889 162.868C24.7822 162.37 39.7866 159.524 39.7866 155.399C39.7866 151.273 40.1448 109.088 44.2882 109.088C48.4316 109.088 58.7926 145.937 54.7912 155.399Z" fill="#DF2027"/>
<path d="M40.7871 152.411C51.2903 157.391 44.2882 162.868 23.7819 163.864C13.2787 164.86 8.27718 160.282 8.27718 153.407C8.27718 146.531 14.7765 140.147 20.7784 140.645C39.7868 147.431 36.7859 148.427 40.7871 152.411Z" fill="#DF2027"/>
<path d="M55.2915 121.039C49.2897 132.99 58.7926 147.929 45.6449 127.022C42.962 125.602 43.0998 120.119 45.9526 114.777C48.8055 109.435 53.293 106.256 55.9759 107.676C58.6588 109.096 61.2934 114.068 55.2915 121.039Z" fill="#DF2027"/>
<path d="M118.229 155.708C140.005 143.484 127.542 146.436 118.229 142.95C116.998 128.011 115.31 114.566 108.308 103.611C93.8033 108.092 108.232 149.784 109.995 152.899C111.759 156.013 115.446 157.271 118.229 155.708Z" fill="#DF2027"/>
<path d="M99.0334 155.399C99.0334 159.524 102.392 162.868 106.536 162.868C129.042 162.37 114.038 159.524 114.038 155.399C114.038 151.274 113.68 109.088 109.536 109.088C105.393 109.088 95.032 145.938 99.0334 155.399Z" fill="#DF2027"/>
<path d="M113.037 152.411C102.534 157.391 109.536 162.868 130.043 163.864C140.546 164.86 145.547 160.282 145.547 153.407C145.547 146.531 139.048 140.147 133.046 140.645C114.038 147.431 117.039 148.427 113.037 152.411Z" fill="#DF2027"/>
<path d="M98.533 121.039C104.535 132.99 95.032 147.929 108.18 127.022C110.863 125.602 110.725 120.12 107.872 114.777C105.019 109.435 100.532 106.256 97.8487 107.676C95.1658 109.096 92.5312 114.068 98.533 121.039Z" fill="#DF2027"/>
<ellipse cx="11.9931" cy="11.4633" rx="11.9931" ry="11.4633" transform="matrix(-0.894408 -0.447252 0.450397 -0.892829 116.574 40.5598)" fill="url(#paint0_linear_315_937)"/>
<ellipse cx="11.9911" cy="11.4652" rx="11.9911" ry="11.4652" transform="matrix(-0.873055 0.487621 -0.490886 -0.871224 56.2011 28.9409)" fill="url(#paint1_linear_315_937)"/>
<path d="M97.7028 89.2059C98.4265 89.9648 97.1798 90.6998 73.1991 108.622C61.1936 97.1669 49.1886 88.6991 51.212 87.6747C52.5927 86.9757 62.1942 98.6609 75.1977 97.1693C88.2014 97.1717 96.7254 88.181 97.7028 89.2059Z" fill="#6A3126"/>
<path d="M83.6989 103.638C82.1984 105.63 78.8395 108.618 74.6961 108.618C69.6946 109.614 67.694 106.626 55.6903 91.6873C57.6909 92.6832 70.5527 98.6588 74.6961 98.6588C80.698 100.651 104.705 82.226 83.6989 103.638Z" fill="#6A3126"/>
<path d="M73.7888 100.53C73.7888 102.18 73.7888 104.016 76.2895 104.016C77.2899 104.016 78.7904 104.514 78.7903 100.032C78.7903 97.5425 77.6707 98.0404 76.2896 98.0404C73.513 98.0404 73.7623 97.6521 73.7888 100.53Z" fill="white"/>
<path d="M74.2625 100.421C74.2625 102.071 74.2625 103.906 71.7618 103.906C69.2874 103.518 68.7873 102.522 69.2875 100.032C69.314 97.6521 70.4071 98.0405 71.7882 98.0405C74.5647 98.0405 74.289 97.5425 74.2625 100.421Z" fill="white"/>
<ellipse cx="92.1199" cy="67.6241" rx="15.0046" ry="15.4369" fill="white"/>
<ellipse cx="92.1199" cy="68.122" rx="12.0037" ry="11.9511" fill="#DF2027"/>
<ellipse cx="92.1199" cy="68.122" rx="9.00275" ry="8.96334" fill="black"/>
<ellipse cx="95.1208" cy="65.1343" rx="3.00092" ry="2.98778" fill="white"/>
<ellipse cx="58.1095" cy="67.6241" rx="15.0046" ry="15.4369" fill="white"/>
<ellipse cx="58.1095" cy="68.122" rx="12.0037" ry="11.9511" fill="#DF2027"/>
<ellipse cx="58.1095" cy="68.122" rx="9.00275" ry="8.96334" fill="black"/>
<ellipse cx="61.1104" cy="65.1343" rx="3.00092" ry="2.98778" fill="white"/>
</g>
<defs>
<filter id="filter0_d_315_937" x="0.974678" y="6.69238" width="161.733" height="165.308" filterUnits="userSpaceOnUse" color-interpolation-filters="sRGB">
<feFlood flood-opacity="0" result="BackgroundImageFix"/>
<feColorMatrix in="SourceAlpha" type="matrix" values="0 0 0 0 0 0 0 0 0 0 0 0 0 0 0 0 0 0 127 0" result="hardAlpha"/>
<feOffset dy="4"/>
<feGaussianBlur stdDeviation="2"/>
<feComposite in2="hardAlpha" operator="out"/>
<feColorMatrix type="matrix" values="0 0 0 0 0 0 0 0 0 0 0 0 0 0 0 0 0 0 0.25 0"/>
<feBlend mode="normal" in2="BackgroundImageFix" result="effect1_dropShadow_315_937"/>
<feBlend mode="normal" in="SourceGraphic" in2="effect1_dropShadow_315_937" result="shape"/>
</filter>
<linearGradient id="paint0_linear_315_937" x1="11.9931" y1="0" x2="11.9931" y2="22.9266" gradientUnits="userSpaceOnUse">
<stop stop-color="#D9D9D9" stop-opacity="0"/>
<stop offset="0.5" stop-opacity="0.1"/>
</linearGradient>
<linearGradient id="paint1_linear_315_937" x1="11.9911" y1="0" x2="11.9911" y2="22.9305" gradientUnits="userSpaceOnUse">
<stop stop-color="#D9D9D9" stop-opacity="0"/>
<stop offset="0.5" stop-opacity="0.1"/>
</linearGradient>
</defs>
</svg>
