<svg width="160" height="165" viewBox="0 0 160 165" fill="none" xmlns="http://www.w3.org/2000/svg">
<ellipse cx="75.2749" cy="77.5342" rx="46.5" ry="45" fill="#DF2027"/>
<ellipse cx="39.2749" cy="25.5342" rx="19.5" ry="18" fill="#DF2027"/>
<path d="M57.7751 37.0339C60.1619 42.8082 57.1223 46.1974 51.8909 48.3598C46.6595 50.5223 43.6619 52.8081 41.275 47.0338C14.7751 35.5341 38.0159 29.6118 43.2473 27.4493C48.4787 25.2869 62.7749 9.53424 57.7751 37.0339Z" fill="#DF2027"/>
<ellipse cx="111.411" cy="26.0109" rx="19.5" ry="18.5569" transform="rotate(61.3405 111.411 26.0109)" fill="#DF2027"/>
<path d="M108.775 47.0342C104.853 51.898 101.635 48.8703 97.2283 45.3169C92.8218 41.7636 89.3783 40.2295 93.3004 35.3657C90.6819 6.59712 107.025 24.1502 111.431 27.7036C115.838 31.2569 135.303 38.2326 108.775 47.0342Z" fill="#DF2027"/>
<path d="M130.275 45.0342C133.275 49.5342 136.029 57.2929 135.916 56.2122C139.317 57.0699 136.61 45.9452 135.775 43.0341C135.453 40.0177 131.976 37.9495 129.775 38.5341C127.275 40.5342 126.775 43.0342 130.275 45.0342Z" fill="#DF2027"/>
<path d="M150.775 43.0342C148.303 46.4393 142.169 52.6831 141.275 52.0342C140.381 51.3853 144.303 44.4393 146.775 41.0343C149.247 37.6292 151.362 34.3457 153.345 35.7079C155.275 37.0342 153.247 39.6292 150.775 43.0342Z" fill="#DF2027"/>
<path d="M157.514 46.2915C158.444 48.0341 154.789 49.7326 150.275 51.5341C132.275 70.0342 141.564 53.813 141.166 52.8155C140.768 51.8181 144.105 49.5491 148.619 47.7475C153.134 45.946 155.775 43.0341 157.514 46.2915Z" fill="#DF2027"/>
<path d="M143.154 39.5246C142.594 43.6948 138.775 59.0342 138.775 57.5342C135.275 59.5342 137.094 43.6948 137.654 39.5246C138.214 35.3543 139.383 31.7759 141.775 32.0342C144.103 32.2857 143.714 35.3543 143.154 39.5246Z" fill="#DF2027"/>
<path d="M146.775 53.0343C146.775 56.6242 145.141 58.0343 141.275 58.0343C133.775 57.5342 133.775 58.0342 132.775 53.0343C130.179 40.0531 135.409 47.0342 139.275 47.0342C143.775 46.0342 148.775 46.0342 146.775 53.0343Z" fill="#DF2027"/>
<path d="M145.775 43.0346C145.378 43.7616 143.775 48.5342 141.53 47.1262C140.561 46.5966 140.097 45.5779 140.494 44.8509C142.775 41.5346 141.775 44.8509 142.275 46.0346C143.275 46.5342 146.172 42.3076 145.775 43.0346Z" fill="#DF2027"/>
<path d="M151.537 46.6029C150.874 47.0989 147.432 50.773 145.975 48.559C145.314 47.6743 145.316 46.555 145.979 46.059C149.433 43.9913 147.144 46.5915 147.107 47.8759C147.809 48.7462 152.201 46.1069 151.537 46.6029Z" fill="#DF2027"/>
<path d="M137.496 41.6485C137.641 42.4641 139.378 47.1894 136.746 47.4965C135.659 47.6901 134.659 47.1859 134.514 46.3703C134.275 39.0342 135.775 41.0342 136.644 46.1789C137.275 46.0342 137.351 40.8329 137.496 41.6485Z" fill="#DF2027"/>
<path d="M145.275 51.0342C146.382 52.619 136.109 70.3519 130.775 73.0344C124.889 77.1455 116.275 84.5343 117.779 77.2912C115.275 74.0343 120.547 71.089 126.433 66.9779C137.275 58.5343 144.168 49.4495 145.275 51.0342Z" fill="#DF2027"/>
<path d="M136.177 59.9653C134.932 62.736 130.144 67.4248 129.275 67.0342C129.275 66.0342 131.784 61.3218 133.029 58.5511C134.534 55.2013 135.988 53.8508 136.857 54.2414C137.726 54.6319 137.421 57.1946 136.177 59.9653Z" fill="#DF2027"/>
<path d="M9.25432 108.144C15.2749 109.034 25.6717 99.9207 24.7748 100.534C27.6307 102.57 14.5338 112.785 11.7749 114.034C9.26798 115.742 4.95731 114.028 3.97746 111.973C3.88259 108.772 5.46379 106.772 9.25432 108.144Z" fill="#DF2027"/>
<path d="M9.77493 118.034C12.4676 114.801 19.7749 107.534 20.6137 110.071C21.4625 110.778 17.0875 117.448 14.3948 120.681C11.7021 123.914 9.37303 127.05 7.48541 125.559C5.64766 124.107 7.08224 121.267 9.77493 118.034Z" fill="#DF2027"/>
<path d="M14.6117 125.609C15.679 121.539 21.3505 106.784 21.1665 108.273C24.8854 106.717 21.1375 122.214 20.0702 126.284C19.0028 130.354 17.4028 133.762 15.061 133.212C12.7811 132.677 13.5444 129.679 14.6117 125.609Z" fill="#DF2027"/>
<path d="M25.4709 105.423C28.1383 106.263 28.7706 107.912 27.7874 111.034C24.8821 118.214 26.7854 135.534 22.2854 120.534C19.3116 110.622 12.2749 117.534 15.8821 109.714C16.2836 105.846 20.7782 102.17 25.4709 105.423Z" fill="#DF2027"/>
<path d="M13.9239 120.175C14.4074 119.502 16.7007 115.047 18.4041 116.466C19.1541 117.005 19.3702 117.988 18.8868 118.66C16.2712 121.711 17.7653 118.611 17.5482 117.471C16.7656 116.959 13.4405 120.848 13.9239 120.175Z" fill="#DF2027"/>
<path d="M9.924 113.449C10.6434 113.038 14.5101 109.814 15.6839 112.19C16.2316 113.149 16.0925 114.26 15.3731 114.67C11.6924 116.299 14.2824 113.999 14.4772 112.729C13.8874 111.779 9.20462 113.86 9.924 113.449Z" fill="#DF2027"/>
<path d="M17.2906 127.065C17.2466 126.238 16.102 121.335 18.752 121.353C19.855 121.295 20.7849 121.918 20.829 122.745C20.1664 130.055 18.9231 127.886 18.6919 122.674C18.0478 122.74 17.3347 127.893 17.2906 127.065Z" fill="#DF2027"/>
<path d="M17.0528 122.793C15.6037 121.514 21.4081 101.859 25.9597 97.9954C30.7112 92.6129 37.2149 77.2782 37.4601 84.6718C40.6612 87.2469 36.3585 97.4754 31.607 102.858C23.0599 113.619 18.502 124.072 17.0528 122.793Z" fill="#DF2027"/>
<path d="M23.7749 125.534C22.5932 122.736 22.7591 107.963 23.7749 107.534C24.5667 108.19 26.1813 121.236 27.363 124.034C28.7918 127.417 29.7749 129.034 27.363 129.988C26.3472 130.417 24.7749 128.534 23.7749 125.534Z" fill="#DF2027"/>
<path d="M34.5848 156.345C12.8161 144.07 25.2749 147.034 34.5848 143.534C35.8161 128.534 36.7749 118.534 43.7749 107.534C46.5577 109.103 44.5792 150.397 42.816 153.524C41.0528 156.651 37.3676 157.914 34.5848 156.345Z" fill="#DF2027"/>
<path d="M53.7748 156.034C53.7748 160.176 50.4169 163.534 46.2748 163.534C23.775 163.034 38.7748 160.176 38.7748 156.034C38.7748 151.892 39.1328 109.534 43.275 109.534C47.4171 109.534 57.775 146.534 53.7748 156.034Z" fill="#DF2027"/>
<path d="M39.775 153.034C50.275 158.034 43.275 163.534 22.775 164.534C12.275 165.534 7.27496 160.938 7.27496 154.034C7.27496 147.131 13.7723 140.72 19.7723 141.22C38.775 148.034 35.775 149.034 39.775 153.034Z" fill="#DF2027"/>
<path d="M54.275 121.534C48.275 133.534 57.775 148.534 44.6312 127.541C41.9492 126.115 42.0869 120.611 44.9389 115.247C47.7909 109.883 52.2771 106.69 54.9591 108.116C57.6412 109.542 60.275 114.534 54.275 121.534Z" fill="#DF2027"/>
<path d="M117.193 156.345C138.962 144.071 126.503 147.034 117.193 143.534C115.962 128.534 114.275 115.034 107.275 104.034C92.7749 108.534 107.199 150.397 108.962 153.524C110.725 156.651 114.411 157.914 117.193 156.345Z" fill="#DF2027"/>
<path d="M98.0035 156.034C98.0035 160.177 101.361 163.534 105.503 163.534C128.003 163.034 113.003 160.177 113.003 156.034C113.003 151.892 112.645 109.534 108.503 109.534C104.361 109.534 94.0033 146.534 98.0035 156.034Z" fill="#DF2027"/>
<path d="M112.003 153.034C101.503 158.034 108.503 163.534 129.003 164.534C139.503 165.534 144.503 160.938 144.503 154.034C144.503 147.131 138.006 140.72 132.006 141.22C113.003 148.034 116.003 149.034 112.003 153.034Z" fill="#DF2027"/>
<path d="M97.5033 121.534C103.503 133.534 94.0033 148.534 107.147 127.541C109.829 126.115 109.691 120.611 106.839 115.247C103.987 109.883 99.5012 106.69 96.8191 108.116C94.1371 109.542 91.5033 114.534 97.5033 121.534Z" fill="#DF2027"/>
<ellipse cx="109.977" cy="25.0631" rx="12" ry="11.5" transform="rotate(-153.332 109.977 25.0631)" fill="url(#paint0_linear_315_937)"/>
<ellipse cx="39.0921" cy="24.9007" rx="12" ry="11.5" transform="rotate(150.709 39.0921 24.9007)" fill="url(#paint1_linear_315_937)"/>
<path d="M96.6736 89.5622C97.397 90.324 96.1505 91.0622 72.1736 109.062C60.1736 97.5622 48.1736 89.0621 50.1966 88.0332C51.577 87.3311 61.1736 99.0622 74.1736 97.5621C87.1736 97.5622 95.6967 88.5333 96.6736 89.5622Z" fill="#6A3126"/>
<path d="M82.6736 104.062C81.1736 106.062 77.8158 109.062 73.6736 109.062C68.6736 110.062 66.6736 107.062 54.6736 92.0622C56.6736 93.0622 69.5315 99.0622 73.6736 99.0622C79.6736 101.062 103.674 82.5623 82.6736 104.062Z" fill="#6A3126"/>
<path d="M72.7666 100.941C72.7666 102.598 72.7666 104.441 75.2666 104.441C76.2666 104.441 77.7666 104.942 77.7666 100.441C77.7666 97.9415 76.6473 98.4414 75.2666 98.4414C72.4909 98.4414 72.7401 98.0515 72.7666 100.941Z" fill="white"/>
<path d="M73.2402 100.831C73.2402 102.488 73.2402 104.331 70.7402 104.331C68.2666 103.941 67.7666 102.941 68.2667 100.441C68.2931 98.0515 69.3859 98.4415 70.7666 98.4415C73.5423 98.4415 73.2666 97.9415 73.2402 100.831Z" fill="white"/>
<ellipse cx="91.0921" cy="67.9006" rx="15" ry="15.5" fill="white"/>
<circle cx="91.0921" cy="68.4006" r="12" fill="#DF2027"/>
<circle cx="91.0921" cy="68.4006" r="9" fill="black"/>
<circle cx="94.0921" cy="65.4006" r="3" fill="white"/>
<ellipse cx="57.0921" cy="67.9006" rx="15" ry="15.5" fill="white"/>
<circle cx="57.0921" cy="68.4006" r="12" fill="#DF2027"/>
<circle cx="57.0921" cy="68.4006" r="9" fill="black"/>
<circle cx="60.0921" cy="65.4006" r="3" fill="white"/>
<defs>
<linearGradient id="paint0_linear_315_937" x1="109.977" y1="13.5631" x2="109.977" y2="36.5631" gradientUnits="userSpaceOnUse">
<stop stop-color="#D9D9D9" stop-opacity="0"/>
<stop offset="0.5" stop-opacity="0.1"/>
</linearGradient>
<linearGradient id="paint1_linear_315_937" x1="39.0921" y1="13.4007" x2="39.0921" y2="36.4007" gradientUnits="userSpaceOnUse">
<stop stop-color="#D9D9D9" stop-opacity="0"/>
<stop offset="0.5" stop-opacity="0.1"/>
</linearGradient>
</defs>
</svg>
