<svg width="169" height="201" viewBox="0 0 169 201" fill="none" xmlns="http://www.w3.org/2000/svg">
<path d="M128.747 101C134.247 142.5 146.747 177.5 84.7474 179.5C21.7474 179.5 24.7473 131.5 35.7473 97.5C49.3281 55.5231 67.2473 33 84.7474 25.5C105.247 25.5 123.048 58 128.747 101Z" fill="#B2CA36"/>
<path d="M98.2473 16.5C97.7473 25 94.5 28.5 91.5 27C86.5 26.5 87.7473 24.8366 87.7473 16C91.2473 8.5 85.3666 0 86.7473 0C88.128 0 95.7473 4.5 98.2473 16.5Z" fill="#909A39"/>
<path d="M92.517 20.7751C93.4226 29.2415 88.1513 25.8423 87.2473 26.5C84.5 26.5001 83.2473 28.5 83.2473 21.5001C83.2473 18.5001 84.2473 17.0001 78.4586 6.39253C80.7473 5.99997 84.7473 12.5 92.517 20.7751Z" fill="#7E8732"/>
<path d="M64.711 183C64.8137 189.448 66.7142 195.954 64.711 195.825C62.7077 195.696 56.2473 195.825 56.7477 181.693C58.2249 169.816 59.0784 170.813 61.0817 170.942C63.085 171.071 67.8802 169.022 64.711 183Z" fill="#B2CA36"/>
<path d="M66.2473 194C66.7473 196.498 59.7554 200.503 51.7473 200.503C43.7391 200.503 36.7473 198.093 36.7473 194.503C36.7473 190.913 41.0326 185.26 49.2473 187.5C60.2473 190.5 65.7473 185 66.2473 194Z" fill="#B2CA36"/>
<path d="M105.64 183.937C105.537 190.385 103.637 196.891 105.64 196.762C107.643 196.633 114.104 196.762 113.603 182.63C114.747 176 115.607 170.871 113.603 171C111.6 171.129 104.247 166 105.64 183.937Z" fill="#B2CA36"/>
<path d="M103.247 195.44C102.747 197.938 108.239 200.5 116.247 200.5C124.247 199 133.604 199.03 133.604 195.44C133.604 191.85 129.318 186.197 121.104 188.437C110.104 191.438 103.747 186.44 103.247 195.44Z" fill="#B2CA36"/>
<path d="M110 85.5C110 92.4036 107.5 99 99.5 99C95.3579 99 92 92.4036 92 85.5C92 78.5964 95.3579 73 99.5 73C103.642 73 110 78.5964 110 85.5Z" fill="white"/>
<path d="M106 85.7368C106 88.0913 104.119 90 101.799 90C99.4789 90 97.598 88.1053 97.0729 85.7368C96.5478 82.4211 98.9537 81 101.274 81C103.594 81 106 82.0665 106 85.7368Z" fill="black"/>
<path d="M109 130.5C112.5 136.5 102 145.5 85 145.5C70.9167 145.5 63.5 142 58 135.5C59.5 133.5 70.9167 139.5 85 139.5C99.0833 139.5 109 129.119 109 130.5Z" fill="black"/>
<path d="M88 84.5C86.5 93 84 101 72.5 107.5C59 111 54 98.031 54 84.5C54 70.969 62.3873 60 71.5 60C81.5 60 88 70.969 88 84.5Z" fill="white"/>
<path d="M77 81C76 84.5 75.5 85.5 72 86.5C69 86 68.5 85 67.5 81C67.5 76.5 69.2386 75.5 72 75.5C74.7614 75.5 77 78.2386 77 81Z" fill="black"/>
<path d="M134.318 133.975C134.318 138.669 147.318 174.475 84.3182 181.475C27.3182 177.475 29.3182 138.669 29.3182 133.975C29.3182 129.28 40.8182 149.474 84.3182 149.474C132.818 147.474 134.318 129.28 134.318 133.975Z" fill="white"/>
<path d="M24.695 143.942C22.2225 146.545 19.3182 147.474 18.1411 146.681C15.8182 145.474 18.0685 142.598 20.541 139.996C25.3182 136.474 28.6711 132.385 29.8182 133.474C30.9653 134.564 29.3182 135.474 24.695 143.942Z" fill="white"/>
<path d="M30.0282 133.434C30.1847 133.963 28.0259 134.88 24.3182 135.975C20.6106 137.07 18.3182 139.474 16.8183 136.975C16.6619 136.445 16.8182 133.474 21.3183 132.975C25.0259 131.88 29.8718 132.904 30.0282 133.434Z" fill="white"/>
<path d="M134.534 132.453C134.443 133.174 137.533 134.303 142.818 134.974C148.103 135.646 154.851 140.031 156.318 136.474C156.41 135.754 153.818 130.974 145.818 129.474C136.318 129.474 134.626 131.732 134.534 132.453Z" fill="white"/>
<path d="M145.318 143.474C150.818 148.974 151.481 152.89 152.742 152.185C155.32 151.247 154.056 143.41 150.318 139.474C143.818 131.474 135.999 131.349 134.852 132.439C131.818 135.321 138.818 137.974 145.318 143.474Z" fill="white"/>
<path d="M117.747 82.4999C120.247 92.6851 124.64 88.3149 140.247 99.5C149.247 114.5 152.378 119.024 153.354 117.685C154.331 116.346 155.354 104.685 144.354 92.6851C133.854 84.1852 118.747 80 117.747 82.4999Z" fill="#B2CA36"/>
<path d="M146.354 124.357C146.354 124.909 148.198 121.185 149.854 121.185C151.511 121.185 151.354 125.737 151.354 125.185C151.354 124.633 152.511 117.685 150.854 117.685C149.198 117.685 146.354 123.805 146.354 124.357Z" fill="#B2CA36"/>
<path d="M161.355 122.685C161.752 123.069 159.923 119.192 160.634 118.457C161.354 118.685 164.751 121.569 164.354 121.185C163.957 120.801 159.065 113.95 158.354 114.685C157.644 115.42 160.957 122.301 161.355 122.685Z" fill="#B2CA36"/>
<path d="M157.355 124.185C158.855 126.185 155.855 135.185 160.855 134.685C163.355 133.685 162.541 128.185 161.855 124.685C160.792 119.266 158.854 110.685 154.354 109.685C146.109 111.302 154.855 116.185 157.355 124.185Z" fill="#B2CA36"/>
<path d="M144.355 119.185C140.942 123.528 138.945 127.602 140.03 128.455C143.854 131.185 144.442 126.527 147.854 122.185C151.267 117.843 153.475 113.584 152.389 112.73C137.354 90.6851 151.355 110.279 144.355 119.185Z" fill="#B2CA36"/>
<path d="M151.355 129.186C150.919 134.691 149.855 138.186 152.89 139.132C156.355 139.406 156.355 133.185 156.355 129.686C156.79 124.18 156.731 116.294 155.354 116.185C144.522 115.328 152.354 111.685 151.355 129.186Z" fill="#B2CA36"/>
<path d="M158.354 114.686C160.354 116.186 163.354 124.186 166.354 122.686C167.854 119.186 164.854 116.185 161.354 113.685C155.11 111.5 151.387 102.66 150.854 103.185C146.663 107.319 152.048 109.204 158.354 114.686Z" fill="#B2CA36"/>
<path d="M49.7473 81.5C50.7234 82.8387 38.2878 91.6785 28.2473 99C19.5323 111.395 16.2235 119.339 15.2473 118C14.2711 116.661 13.2473 105 24.2473 93C34.7473 84.5001 48.7711 80.1613 49.7473 81.5Z" fill="#B2CA36"/>
<path d="M22.2473 124.672C22.2473 125.224 20.4041 121.5 18.7473 121.5C17.0904 121.5 17.2473 126.052 17.2473 125.5C17.2473 124.948 16.0904 118 17.7473 118C19.4041 118 22.2473 124.119 22.2473 124.672Z" fill="#B2CA36"/>
<path d="M7.24718 123C6.85013 123.384 8.67862 119.507 7.96806 118.772C7.24727 119 3.85021 121.884 4.24726 121.5C4.64431 121.116 9.53672 114.265 10.2473 115C10.9578 115.735 7.64423 122.616 7.24718 123Z" fill="#B2CA36"/>
<path d="M11.2471 124.5C9.7471 126.5 12.7471 135.5 7.74705 135C5.24711 134 6.06068 128.5 6.74708 125C7.8099 119.58 9.74725 111 14.2473 110C22.4928 111.617 13.7472 116.5 11.2471 124.5Z" fill="#B2CA36"/>
<path d="M24.2471 119.5C27.6599 123.842 29.6571 127.916 28.5715 128.77C24.7473 131.5 24.16 126.842 20.7472 122.5C17.3344 118.158 15.1271 113.898 16.2126 113.045C31.2472 91 17.2471 110.594 24.2471 119.5Z" fill="#B2CA36"/>
<path d="M17.2471 129.501C17.6826 135.006 18.7471 138.501 15.712 139.447C12.2471 139.721 12.2472 133.5 12.2472 130.001C11.8116 124.495 11.8708 116.609 13.2473 116.5C24.0795 115.643 16.2473 112 17.2471 129.501Z" fill="#B2CA36"/>
<path d="M10.2475 115.001C8.24751 116.501 5.24751 124.501 2.24754 123.001C0.747511 119.501 3.7474 116.5 7.24741 114C13.4913 111.815 17.2147 102.975 17.7473 103.5C21.9387 107.634 16.554 109.519 10.2475 115.001Z" fill="#B2CA36"/>
</svg>
