<svg width="174" height="208" viewBox="0 0 174 208" fill="none" xmlns="http://www.w3.org/2000/svg">
<g filter="url(#filter0_d_317_1029)">
<path d="M131.288 100.747C136.768 142.143 149.224 177.055 87.445 179.05C24.6698 179.05 27.6589 131.17 38.6197 97.2555C52.152 55.3838 70.0073 32.9172 87.445 25.436C107.872 25.436 125.609 57.8545 131.288 100.747Z" fill="#B2CA36"/>
<path d="M100.897 16.4586C100.398 24.9373 97.1628 28.4285 94.1735 26.9323C89.1913 26.4336 90.4341 24.7743 90.4341 15.9599C93.9217 8.47869 88.062 0 89.4377 0C90.8135 0 98.4056 4.48872 100.897 16.4586Z" fill="#909A39"/>
<path d="M95.1869 20.723C96.0892 29.1682 90.8368 25.7775 89.9359 26.4336C87.1985 26.4336 85.9502 28.4285 85.9502 21.4462C85.9502 18.4537 86.9466 16.9574 81.1786 6.37648C83.4591 5.9849 87.4448 12.4686 95.1869 20.723Z" fill="#7E8732"/>
<path d="M67.4819 182.542C67.5853 188.974 69.48 195.464 67.4839 195.335C65.4878 195.207 59.0506 195.334 59.5469 181.237C61.017 169.39 61.8676 170.385 63.8637 170.514C65.8598 170.643 70.6375 168.6 67.4819 182.542Z" fill="#B2CA36"/>
<path d="M69.0108 193.513C69.5091 196.005 62.5421 200 54.5626 200C46.583 200 39.6161 197.596 39.6161 194.015C39.6161 190.434 43.8862 184.795 52.0715 187.03C63.0323 190.022 68.5126 184.536 69.0108 193.513Z" fill="#B2CA36"/>
<path d="M108.261 183.478C108.158 189.91 106.263 196.4 108.259 196.271C110.255 196.142 116.692 196.27 116.196 182.173C117.337 175.559 118.194 170.442 116.198 170.571C114.202 170.7 106.876 165.585 108.261 183.478Z" fill="#B2CA36"/>
<path d="M105.879 194.95C105.381 197.441 110.853 199.997 118.832 199.997C126.804 198.501 136.127 198.531 136.127 194.95C136.127 191.369 131.857 185.73 123.672 187.965C112.711 190.957 106.377 185.973 105.879 194.95Z" fill="#B2CA36"/>
<path d="M112.607 85.2856C112.607 92.1718 110.116 98.7517 102.145 98.7517C98.0176 98.7517 94.6717 92.1718 94.6717 85.2856C94.6717 78.3993 98.0176 72.8169 102.145 72.8169C106.272 72.8169 112.607 78.3993 112.607 85.2856Z" fill="white"/>
<path d="M108.622 85.5218C108.622 87.8704 106.748 89.7743 104.436 89.7743C102.124 89.7743 100.25 87.8843 99.7265 85.5218C99.2032 82.2144 101.601 80.7969 103.912 80.7969C106.224 80.7969 108.622 81.8607 108.622 85.5218Z" fill="black"/>
<path d="M111.611 130.173C115.099 136.158 104.636 145.135 87.6967 145.135C73.6637 145.135 66.2734 141.644 60.793 135.16C62.2877 133.165 73.6637 139.15 87.6967 139.15C101.73 139.15 111.611 128.796 111.611 130.173Z" fill="black"/>
<path d="M90.686 84.2882C89.1913 92.7669 86.7002 100.747 75.2413 107.231C61.7894 110.722 56.8073 97.7852 56.8073 84.2882C56.8073 70.7911 65.1647 59.8496 74.2448 59.8496C84.2092 59.8496 90.686 70.7911 90.686 84.2882Z" fill="white"/>
<path d="M79.7252 80.797C78.7288 84.2882 78.2306 85.2857 74.7431 86.2832C71.7538 85.7845 71.2555 84.787 70.2591 80.797C70.2591 76.3083 71.9915 75.3108 74.7431 75.3108C77.4946 75.3108 79.7252 78.0425 79.7252 80.797Z" fill="black"/>
<path d="M136.839 133.639C136.839 138.321 149.792 174.037 87.0173 181.02C30.2207 177.03 32.2135 138.321 32.2135 133.639C32.2135 128.956 43.6725 149.1 87.0173 149.099C135.344 147.105 136.839 128.956 136.839 133.639Z" fill="white"/>
<path d="M27.6069 143.581C25.1432 146.177 22.2492 147.104 21.0764 146.313C18.7617 145.109 21.004 142.241 23.4677 139.645C28.2278 136.132 31.5687 132.053 32.7117 133.14C33.8547 134.227 32.2135 135.135 27.6069 143.581Z" fill="white"/>
<path d="M32.9211 133.099C33.0769 133.627 30.9259 134.541 27.2315 135.634C23.537 136.726 21.2528 139.125 19.7583 136.631C19.6024 136.103 19.7582 133.14 24.2422 132.641C27.9366 131.549 32.7652 132.571 32.9211 133.099Z" fill="white"/>
<path d="M137.054 132.121C136.963 132.84 140.042 133.966 145.308 134.636C150.575 135.306 157.299 139.68 158.76 136.132C158.852 135.413 156.269 130.646 148.298 129.15C138.832 129.15 137.145 131.402 137.054 132.121Z" fill="white"/>
<path d="M147.8 143.115C153.28 148.601 153.941 152.507 155.196 151.803C157.766 150.868 156.507 143.05 152.782 139.125C146.305 131.145 138.514 131.019 137.371 132.106C134.348 134.982 141.323 137.628 147.8 143.115Z" fill="white"/>
<path d="M120.327 82.293C122.818 92.4527 127.195 88.0935 142.747 99.2505C151.715 114.213 154.834 118.725 155.807 117.39C156.78 116.055 157.8 104.423 146.839 92.4527C136.377 83.9741 121.323 79.7994 120.327 82.293Z" fill="#B2CA36"/>
<path d="M148.832 124.045C148.832 124.596 150.669 120.881 152.32 120.881C153.971 120.881 153.814 125.422 153.814 124.871C153.814 124.32 154.967 117.39 153.316 117.39C151.665 117.39 148.832 123.494 148.832 124.045Z" fill="#B2CA36"/>
<path d="M163.779 122.377C164.174 122.76 162.352 118.893 163.06 118.16C163.779 118.387 167.164 121.264 166.768 120.881C166.372 120.498 161.497 113.664 160.789 114.398C160.081 115.131 163.383 121.994 163.779 122.377Z" fill="#B2CA36"/>
<path d="M159.793 123.873C161.288 125.868 158.298 134.846 163.281 134.347C165.772 133.35 164.961 127.863 164.277 124.372C163.218 118.966 161.288 110.407 156.804 109.41C148.587 111.023 157.302 115.894 159.793 123.873Z" fill="#B2CA36"/>
<path d="M146.839 118.886C143.439 123.218 141.449 127.281 142.53 128.132C146.341 130.856 146.926 126.21 150.327 121.879C153.727 117.547 155.927 113.299 154.845 112.447C139.864 90.4576 153.814 110.002 146.839 118.886Z" fill="#B2CA36"/>
<path d="M153.814 128.862C153.38 134.354 152.32 137.839 155.344 138.783C158.797 139.057 158.797 132.851 158.797 129.361C159.231 123.869 159.172 116.002 157.8 115.894C147.006 115.039 154.811 111.405 153.814 128.862Z" fill="#B2CA36"/>
<path d="M160.789 114.398C162.782 115.894 165.771 123.874 168.761 122.378C170.255 118.887 167.266 115.894 163.778 113.4C157.557 111.22 153.847 102.402 153.316 102.926C149.14 107.05 154.505 108.93 160.789 114.398Z" fill="#B2CA36"/>
<path d="M52.5697 81.2958C53.5424 82.6312 41.1512 91.4488 31.1465 98.7519C22.4626 111.116 19.1656 119.04 18.1929 117.704C17.2202 116.369 16.2 104.737 27.1608 92.767C37.6233 84.2884 51.597 79.9604 52.5697 81.2958Z" fill="#B2CA36"/>
<path d="M25.1679 124.359C25.1679 124.91 23.3313 121.195 21.6803 121.195C20.0294 121.195 20.1857 125.736 20.1857 125.185C20.1857 124.634 19.033 117.704 20.6839 117.704C22.3349 117.704 25.1679 123.808 25.1679 124.359Z" fill="#B2CA36"/>
<path d="M10.2213 122.691C9.82567 123.074 11.6476 119.207 10.9396 118.474C10.2214 118.701 6.83646 121.578 7.2321 121.195C7.62773 120.812 12.5027 113.978 13.2107 114.712C13.9187 115.445 10.6169 122.308 10.2213 122.691Z" fill="#B2CA36"/>
<path d="M14.207 124.188C12.7123 126.183 15.7016 135.16 10.7194 134.661C8.22839 133.664 9.03906 128.178 9.723 124.686C10.782 119.28 12.7125 110.722 17.1964 109.724C25.4125 111.337 16.6981 116.208 14.207 124.188Z" fill="#B2CA36"/>
<path d="M27.1605 119.201C30.5612 123.532 32.5512 127.596 31.4695 128.447C27.6589 131.17 27.0738 126.524 23.6732 122.193C20.2725 117.861 18.0731 113.613 19.1548 112.762C34.1357 90.7718 20.1856 110.317 27.1605 119.201Z" fill="#B2CA36"/>
<path d="M20.1855 129.176C20.6195 134.668 21.6802 138.153 18.6559 139.097C15.2034 139.371 15.2035 133.165 15.2035 129.675C14.7695 124.183 14.8285 116.316 16.2 116.208C26.9936 115.353 19.1893 111.719 20.1855 129.176Z" fill="#B2CA36"/>
<path d="M13.2109 114.712C11.2181 116.209 8.22877 124.188 5.23951 122.692C3.74483 119.201 6.73402 116.208 10.2215 113.715C16.4432 111.535 20.1533 102.717 20.6839 103.241C24.8604 107.364 19.4949 109.244 13.2109 114.712Z" fill="#B2CA36"/>
</g>
<defs>
<filter id="filter0_d_317_1029" x="0.844953" y="0" width="172.31" height="208" filterUnits="userSpaceOnUse" color-interpolation-filters="sRGB">
<feFlood flood-opacity="0" result="BackgroundImageFix"/>
<feColorMatrix in="SourceAlpha" type="matrix" values="0 0 0 0 0 0 0 0 0 0 0 0 0 0 0 0 0 0 127 0" result="hardAlpha"/>
<feOffset dy="4"/>
<feGaussianBlur stdDeviation="2"/>
<feComposite in2="hardAlpha" operator="out"/>
<feColorMatrix type="matrix" values="0 0 0 0 0 0 0 0 0 0 0 0 0 0 0 0 0 0 0.25 0"/>
<feBlend mode="normal" in2="BackgroundImageFix" result="effect1_dropShadow_317_1029"/>
<feBlend mode="normal" in="SourceGraphic" in2="effect1_dropShadow_317_1029" result="shape"/>
</filter>
</defs>
</svg>
