<svg width="212" height="219" viewBox="0 0 212 219" fill="none" xmlns="http://www.w3.org/2000/svg">
<g filter="url(#filter0_d_320_1146)">
<path d="M128.028 184.664C125.524 206.664 124.024 206.164 131.524 204.664C133.457 204.664 135.524 196.164 137.024 184.164C135.524 175.664 134.024 159.664 127.024 168.664C125.091 168.664 128.028 173.066 128.028 184.664Z" fill="#1C3471"/>
<path d="M122.024 204.664C122.024 209.664 129.292 210.663 137.024 210.663C144.756 210.663 162.024 209.753 162.024 206.163C161.524 196.663 135.524 193.664 131.524 194.163C129.024 186.664 121.524 201.164 122.024 204.664Z" fill="#1C3471"/>
<path d="M80.9961 185C83.5 207 85 206.5 77.5 205C75.567 205 73.5 196.5 72 184.5C73.5 176 75 160 82 169C83.933 169 80.9961 173.402 80.9961 185Z" fill="#1C3471"/>
<path d="M87 205C87 210 79.732 211 72 211C64.268 211 47 210.09 47 206.5C47.5 197 73.5 194 77.5 194.5C80 187 87.5 201.5 87 205Z" fill="#1C3471"/>
<path d="M18.9025 121.06C15.4931 129.668 15.4162 147.58 17.9017 148.565C20.3873 149.549 24.0292 133.02 27.4386 124.411C30.8479 115.803 36.7683 104.237 31.7953 103.039C29.3098 102.054 21.7777 111.658 18.9025 121.06Z" fill="#1C3471"/>
<path d="M5.52163 152.982C4.4475 161.336 4.29421 168.842 6.4475 169.336C10.4475 170.836 10.2199 162.372 11.9475 154.836C13.6751 147.299 19.6008 139.329 17.4475 138.836C14.9475 137.836 7.24921 145.445 5.52163 152.982Z" fill="#1C3471"/>
<path d="M25.9476 156.228C28.4476 164.836 26.9475 174.336 37.9475 170.336C42.4475 168.335 33.4475 164.335 32.9475 155.835C31.4475 149.335 24.428 138.421 22.5 139.5C17.5 139 22.173 149.48 25.9476 156.228Z" fill="#1C3471"/>
<path d="M11.0504 161.801C11.7331 170.195 14.2387 177.8 16.4475 177.836C20.6717 178.473 17.5949 170.012 17.7211 162.281C17.8473 154.55 20.1563 141.372 17.9475 141.336C15.2944 140.876 11.1766 154.07 11.0504 161.801Z" fill="#1C3471"/>
<path d="M18.9475 162.836C19.6301 171.23 22.4475 179.836 25.9475 179.836C30.1717 180.473 26.4475 171.336 24.9475 163.836C24.4475 155.836 24.1563 141.371 21.9475 141.335C19.2944 140.876 17.4475 154.836 18.9475 162.836Z" fill="#1C3471"/>
<path d="M23.4475 158.335C24.7299 158.284 23.9475 154.835 24.9475 154.335C25.9475 154.835 25.9475 157.835 27.9475 157.835C27.9475 157.007 25.8282 152.835 24.4475 152.835C23.0668 152.835 23.4475 157.507 23.4475 158.335Z" fill="#1C3471"/>
<path d="M16.455 162.123C17.5747 162.274 17.4475 158.336 18.1757 157.244C18.6758 158.744 17.949 161.908 19.6757 162.244C19.8769 161.209 20.1395 148.567 18.9475 148.336C17.7555 148.104 16.6562 161.088 16.455 162.123Z" fill="#1C3471"/>
<path d="M9.64795 162.218C10.7677 162.369 10.6404 158.43 11.3687 157.339C11.8687 158.839 11.142 162.003 12.8687 162.339C13.0699 161.304 13.3325 148.662 12.1405 148.43C10.9484 148.199 9.84915 161.183 9.64795 162.218Z" fill="#1C3471"/>
<path d="M192 121C195.457 129.729 196.234 147.615 194 148.5C191.766 149.384 187.784 132.738 184.327 124.009C180.87 115.28 175 103.5 179.5 102.5C181.734 101.615 189 111.5 192 121Z" fill="#1C3471"/>
<path d="M206.926 152.646C208 161 208.153 168.506 206 169C202 170.5 202.228 162.036 200.5 154.5C198.772 146.963 192.847 138.993 195 138.5C197.5 137.5 205.198 145.109 206.926 152.646Z" fill="#1C3471"/>
<path d="M186.5 155.892C184 164.5 185.5 174 174.5 170C170 168 179 164 179.5 155.5C181 149 187.072 137.921 189 139C191.525 139.935 190.274 149.144 186.5 155.892Z" fill="#1C3471"/>
<path d="M201.397 161.465C200.714 169.859 198.209 177.464 196 177.5C191.776 178.137 194.853 169.676 194.726 161.945C194.6 154.214 192.291 141.036 194.5 141C197.153 140.54 201.271 153.734 201.397 161.465Z" fill="#1C3471"/>
<path d="M193.5 162.5C192.817 170.894 190 179.5 186.5 179.5C182.276 180.137 186 171 187.5 163.5C188 155.5 188.291 141.036 190.5 140.999C193.153 140.54 195 154.5 193.5 162.5Z" fill="#1C3471"/>
<path d="M189 158C187.718 157.948 188.5 154.5 187.5 154C186.5 154.5 186.5 157.5 184.5 157.5C184.5 156.672 186.619 152.5 188 152.5C189.381 152.5 189 157.172 189 158Z" fill="#1C3471"/>
<path d="M195.993 161.788C194.873 161.938 195 158 194.272 156.908C193.772 158.408 194.498 161.572 192.772 161.908C192.571 160.873 192.308 148.231 193.5 148C194.692 147.768 195.791 160.753 195.993 161.788Z" fill="#1C3471"/>
<path d="M202.8 161.882C201.68 162.033 201.807 158.094 201.079 157.003C200.579 158.503 201.306 161.667 199.579 162.003C199.378 160.968 199.115 148.326 200.307 148.094C201.499 147.863 202.598 160.847 202.8 161.882Z" fill="#1C3471"/>
<path d="M89.4284 49C89.4284 77.7188 69.0573 179.5 97.5 179.5C115 183.5 199 128.5 196 57.5C196 28.7812 168.443 0 140 0C106.5 2.5 89.4284 20.2812 89.4284 49Z" fill="#1C3471"/>
<path d="M107.218 194.305L72 164.036L137.5 161L107.218 194.305Z" fill="#1C3471"/>
<path d="M115.5 52C115.5 80.7188 136.443 182 108 182C79.5574 182 6.5 115 11.0001 54C11.0001 25.2812 34.0574 3 62.5001 3C92 4.5 115.5 23.2812 115.5 52Z" fill="#1C3471"/>
<path d="M125.5 28.5002C125.5 29.6047 140.5 27.5002 153 30.0002C176.5 37.5002 184 58.1047 184 57.0002C184.5 54.5002 175 23.5002 150 20.5002C136 19.0001 125.5 27.3956 125.5 28.5002Z" fill="#0E1E42"/>
<path d="M85 28.5C85 29.6046 68.5 26.5 58 29.5C43.3645 29.5 26 57.1046 26 56C26 54.8954 36 23 61 20C75.6355 20 85 27.3954 85 28.5Z" fill="#0E1E42"/>
<path d="M141 133C141.5 134 123.673 155.5 106 155.5C86.5 157 77.5 145.5 78 143.5C78.2501 142.5 87.3269 151.5 105 151.5C123 149.806 141 132.172 141 133Z" fill="#812A35"/>
<path d="M108.038 77C107.038 100.5 125.708 122 145.038 122C164.368 122 181.038 102.5 178.038 77C178.038 55.4609 159.368 33.5 140.038 33.5C120.708 33.5 108.038 55.4609 108.038 77Z" fill="white"/>
<ellipse cx="8" cy="8.5" rx="8" ry="8.5" transform="matrix(-1 0 0 1 146.39 77.5)" fill="black"/>
<path d="M108.39 71C108.39 71 121.889 60.5 143.389 64.5C164.89 70.5 158.89 69.5 178.89 85C182.39 65.5 164.889 36.5 143.389 32.5C114.89 34 108.39 62.1634 108.39 71Z" fill="#6785BE"/>
<circle cx="2.5" cy="2.5" r="2.5" transform="matrix(-1 0 0 1 138.39 79.5)" fill="white"/>
<path d="M101.351 76C102.351 99.5 83.6811 121 64.3511 121C45.0211 121 28.3511 101.5 31.3511 76C31.3511 54.4609 50.0211 32.5 69.3511 32.5C88.6811 32.5 101.351 54.4609 101.351 76Z" fill="white"/>
<ellipse cx="71" cy="85" rx="8" ry="8.5" fill="black"/>
<path d="M101 70C101 70 87.5002 59.5 66.0002 63.5C44.5 69.5 50.5 68.5 30.5 84C27 64.5 44.5002 35.5 66.0002 31.5C94.5 33 101 61.1634 101 70Z" fill="#6785BE"/>
<circle cx="73.5" cy="81" r="2.5" fill="white"/>
</g>
<defs>
<filter id="filter0_d_320_1146" x="0.756638" y="0" width="210.934" height="219" filterUnits="userSpaceOnUse" color-interpolation-filters="sRGB">
<feFlood flood-opacity="0" result="BackgroundImageFix"/>
<feColorMatrix in="SourceAlpha" type="matrix" values="0 0 0 0 0 0 0 0 0 0 0 0 0 0 0 0 0 0 127 0" result="hardAlpha"/>
<feOffset dy="4"/>
<feGaussianBlur stdDeviation="2"/>
<feComposite in2="hardAlpha" operator="out"/>
<feColorMatrix type="matrix" values="0 0 0 0 0 0 0 0 0 0 0 0 0 0 0 0 0 0 0.25 0"/>
<feBlend mode="normal" in2="BackgroundImageFix" result="effect1_dropShadow_320_1146"/>
<feBlend mode="normal" in="SourceGraphic" in2="effect1_dropShadow_320_1146" result="shape"/>
</filter>
</defs>
</svg>
