<svg width="209" height="211" viewBox="0 0 209 211" fill="none" xmlns="http://www.w3.org/2000/svg">
<path d="M126.028 184.664C123.524 206.664 122.024 206.164 129.524 204.664C131.457 204.664 133.524 196.164 135.024 184.164C133.524 175.664 132.024 159.664 125.024 168.664C123.091 168.664 126.028 173.066 126.028 184.664Z" fill="#1C3471"/>
<path d="M120.024 204.664C120.024 209.664 127.292 210.663 135.024 210.663C142.756 210.663 160.024 209.753 160.024 206.163C159.524 196.663 133.524 193.664 129.524 194.163C127.024 186.664 119.524 201.164 120.024 204.664Z" fill="#1C3471"/>
<path d="M78.9961 185C81.5 207 83 206.5 75.5 205C73.567 205 71.5 196.5 70 184.5C71.5 176 73 160 80 169C81.933 169 78.9961 173.402 78.9961 185Z" fill="#1C3471"/>
<path d="M85 205C85 210 77.732 210.999 70 210.999C62.268 210.999 45 210.089 45 206.499C45.5 197 71.5 194 75.5 194.5C78 187 85.5 201.5 85 205Z" fill="#1C3471"/>
<path d="M16.9025 121.06C13.4931 129.669 13.4162 147.581 15.9018 148.565C18.3873 149.549 22.0292 133.02 25.4386 124.411C28.848 115.803 34.7683 104.237 29.7953 103.039C27.3098 102.055 19.7777 111.658 16.9025 121.06Z" fill="#1C3471"/>
<path d="M3.52164 152.982C2.44752 161.336 2.29422 168.842 4.44752 169.336C8.44752 170.836 8.21992 162.372 9.9475 154.836C11.6751 147.299 17.6008 139.329 15.4475 138.836C12.9475 137.836 5.24922 145.445 3.52164 152.982Z" fill="#1C3471"/>
<path d="M23.9476 156.228C26.4476 164.836 24.9475 174.336 35.9475 170.336C40.4475 168.336 31.4475 164.336 30.9475 155.836C29.4475 149.336 22.428 138.422 20.5 139.5C15.5 139 20.173 149.48 23.9476 156.228Z" fill="#1C3471"/>
<path d="M9.05045 161.8C9.7331 170.195 12.2387 177.8 14.4475 177.836C18.6717 178.473 15.5949 170.012 15.7211 162.281C15.8473 154.55 18.1564 141.372 15.9475 141.336C13.2944 140.876 9.17663 154.069 9.05045 161.8Z" fill="#1C3471"/>
<path d="M16.9475 162.836C17.6301 171.231 20.4475 179.836 23.9475 179.836C28.1717 180.473 24.4475 171.336 22.9475 163.836C22.4475 155.836 22.1563 141.372 19.9475 141.336C17.2944 140.876 15.4475 154.836 16.9475 162.836Z" fill="#1C3471"/>
<path d="M21.4475 158.336C22.7299 158.284 21.9475 154.836 22.9475 154.336C23.9475 154.836 23.9475 157.836 25.9475 157.836C25.9475 157.007 23.8282 152.836 22.4475 152.836C21.0668 152.836 21.4475 157.507 21.4475 158.336Z" fill="#1C3471"/>
<path d="M14.455 162.124C15.5747 162.274 15.4475 158.336 16.1757 157.244C16.6758 158.744 15.949 161.908 17.6757 162.244C17.8769 161.209 18.1395 148.567 16.9475 148.336C15.7555 148.104 14.6562 161.089 14.455 162.124Z" fill="#1C3471"/>
<path d="M7.64796 162.218C8.76768 162.369 8.64043 158.43 9.3687 157.339C9.86872 158.839 9.142 162.003 10.8687 162.339C11.0699 161.304 11.3325 148.662 10.1405 148.43C8.94843 148.198 7.84916 161.183 7.64796 162.218Z" fill="#1C3471"/>
<path d="M190 121C193.457 129.729 194.234 147.615 192 148.5C189.766 149.385 185.784 132.739 182.327 124.009C178.87 115.28 173 103.5 177.5 102.5C179.734 101.615 187 111.5 190 121Z" fill="#1C3471"/>
<path d="M204.926 152.646C206 161 206.153 168.506 204 169C200 170.5 200.228 162.037 198.5 154.5C196.772 146.964 190.847 138.994 193 138.5C195.5 137.5 203.198 145.11 204.926 152.646Z" fill="#1C3471"/>
<path d="M184.5 155.892C182 164.5 183.5 174 172.5 170C168 168 177 164 177.5 155.5C179 149 185.072 137.922 187 139C189.525 139.935 188.274 149.144 184.5 155.892Z" fill="#1C3471"/>
<path d="M199.397 161.465C198.714 169.86 196.209 177.464 194 177.5C189.776 178.137 192.853 169.676 192.726 161.945C192.6 154.214 190.291 141.036 192.5 141C195.153 140.54 199.271 153.734 199.397 161.465Z" fill="#1C3471"/>
<path d="M191.5 162.5C190.817 170.895 188 179.5 184.5 179.5C180.276 180.137 184 171 185.5 163.5C186 155.5 186.291 141.036 188.5 141C191.153 140.54 193 154.5 191.5 162.5Z" fill="#1C3471"/>
<path d="M187 158C185.718 157.948 186.5 154.5 185.5 154C184.5 154.5 184.5 157.5 182.5 157.5C182.5 156.672 184.619 152.5 186 152.5C187.381 152.5 187 157.172 187 158Z" fill="#1C3471"/>
<path d="M193.993 161.788C192.873 161.938 193 158 192.272 156.908C191.772 158.408 192.498 161.573 190.772 161.908C190.571 160.873 190.308 148.232 191.5 148C192.692 147.768 193.791 160.753 193.993 161.788Z" fill="#1C3471"/>
<path d="M200.8 161.882C199.68 162.033 199.807 158.095 199.079 157.003C198.579 158.503 199.306 161.667 197.579 162.003C197.378 160.968 197.115 148.326 198.307 148.094C199.499 147.863 200.598 160.847 200.8 161.882Z" fill="#1C3471"/>
<path d="M87.4284 49C87.4284 77.7188 67.0573 179.5 95.5 179.5C113 183.5 197 128.5 194 57.5C194 28.7812 166.443 0 138 0C104.5 2.5 87.4284 20.2812 87.4284 49Z" fill="#1C3471"/>
<path d="M105.218 194.305L70 164.036L135.5 161L105.218 194.305Z" fill="#1C3471"/>
<path d="M113.5 52C113.5 80.7188 134.443 182 106 182C77.5574 182 4.5 115 9.00007 54C9.00007 25.2812 32.0574 3 60.5001 3C90 4.5 113.5 23.2812 113.5 52Z" fill="#1C3471"/>
<path d="M123.5 28.5C123.5 29.6046 138.5 27.5 151 30C174.5 37.5 182 58.1046 182 57C182.5 54.5 173 23.5 148 20.5C134 19 123.5 27.3955 123.5 28.5Z" fill="#0E1E42"/>
<path d="M83 28.5C83 29.6046 66.5 26.5 56 29.5C41.3645 29.5 24 57.1046 24 56C24 54.8954 34 23 59 20C73.6355 20 83 27.3954 83 28.5Z" fill="#0E1E42"/>
<path d="M139 133C139.5 134 121.673 155.5 104 155.5C84.5 157 75.5 145.5 76 143.5C76.2501 142.5 85.3269 151.5 103 151.5C121 149.806 139 132.172 139 133Z" fill="#812A35"/>
<path d="M106.038 77C105.038 100.5 123.708 122 143.038 122C162.368 122 179.038 102.5 176.038 77C176.038 55.4609 157.368 33.5 138.038 33.5C118.708 33.5 106.038 55.4609 106.038 77Z" fill="white"/>
<ellipse cx="8" cy="8.5" rx="8" ry="8.5" transform="matrix(-1 0 0 1 144.39 77.5)" fill="black"/>
<path d="M106.39 71C106.39 71 119.889 60.5 141.389 64.5C162.89 70.5 156.89 69.5 176.89 85C180.39 65.5 162.889 36.5 141.389 32.5C112.89 34 106.39 62.1634 106.39 71Z" fill="#6785BE"/>
<circle cx="2.5" cy="2.5" r="2.5" transform="matrix(-1 0 0 1 136.39 79.5)" fill="white"/>
<path d="M99.3511 76C100.351 99.5 81.6811 121 62.3511 121C43.0211 121 26.3511 101.5 29.3511 76C29.3511 54.4609 48.0211 32.5 67.3511 32.5C86.6811 32.5 99.3511 54.4609 99.3511 76Z" fill="white"/>
<ellipse cx="69" cy="85" rx="8" ry="8.5" fill="black"/>
<path d="M99 70C99 70 85.5002 59.5 64.0002 63.5C42.5 69.5 48.5 68.5 28.5 84C25 64.5 42.5002 35.5 64.0002 31.5C92.5 33 99 61.1634 99 70Z" fill="#6785BE"/>
<circle cx="71.5" cy="81" r="2.5" fill="white"/>
</svg>
