<svg width="1633" height="416" viewBox="0 0 1633 416" fill="none" xmlns="http://www.w3.org/2000/svg">
<g clip-path="url(#clip0_564_891)">
<g filter="url(#filter0_d_564_891)">
<path d="M1522.63 417.212C1522.63 417.212 927.188 417.212 552.553 417.212C177.917 417.212 557.791 427.544 -92.5774 427.544C5.90908 -76 -180.992 -36.9046 664.882 162C1317.58 315.48 1501.92 417.212 1522.63 417.212Z" fill="#68B671"/>
<path d="M1809.5 417.5C1576.27 417.5 1573.94 417.5 1371 417.5C1168.06 417.5 1157.11 400.358 139.537 400.358C139.537 400.358 962.198 106.296 1229.19 13.221C1265.22 0.663181 1809.5 -47.7028 1809.5 417.5Z" fill="#75D57A"/>
<path d="M1728 416.5C1542.27 417.085 1136.14 412.606 783.278 412.606C430.42 412.606 427.277 416.5 -3.25696 416.5C-3.25696 289.144 -10.4931 69.5001 727.113 211.5C1611.37 416.055 1923.01 67.4999 1728 416.5Z" fill="#A0ECAC"/>
<path d="M578.794 231.784C579.842 233.155 584.96 228.542 592.14 222.786C604.45 213.329 626.275 204.731 605.57 211.323C620.12 194.988 596.336 218.774 589.901 220.206C571.431 221.353 577.746 230.413 578.794 231.784Z" fill="#91632E"/>
<path d="M560.742 205.305C575.572 224.792 526.885 283.825 570.815 270.008C587.884 276.087 583.687 228.804 579.209 221.004C574.733 149.424 569.885 190.976 567.738 194.988C565.591 199 532.817 134.871 560.742 205.305Z" fill="#91632E"/>
<path d="M602.133 174.511C603.104 166.82 596.56 159.615 587.518 158.418C578.475 157.221 575.076 163.11 574.105 170.802C573.135 178.493 574.961 185.073 584.003 186.27C593.045 187.467 601.162 182.203 602.133 174.511Z" fill="#399832"/>
<path d="M602.64 137.499C598.154 129.208 585.111 127.825 573.506 134.41C561.9 140.995 562.183 149.619 566.669 157.91C571.154 166.202 578.143 171.02 589.748 164.435C601.354 157.85 607.125 145.79 602.64 137.499Z" fill="#399832"/>
<ellipse cx="8.39429" cy="8.31049" rx="8.39429" ry="8.31049" transform="matrix(-1 0 0 1 575.909 171.776)" fill="#399832"/>
<ellipse cx="8.39429" cy="8.31049" rx="8.39429" ry="8.31049" transform="matrix(-1 0 0 1 561.918 167.19)" fill="#399832"/>
<ellipse cx="14.5501" cy="10.0299" rx="14.5501" ry="10.0299" transform="matrix(-1 0 0 1 553.524 156.875)" fill="#399832"/>
<ellipse cx="14.5501" cy="14.615" rx="14.5501" ry="14.615" transform="matrix(-1 0 0 1 540.093 132.804)" fill="#369330"/>
<ellipse cx="14.5501" cy="14.615" rx="14.5501" ry="14.615" transform="matrix(-1 0 0 1 547.368 109.878)" fill="#399832"/>
<ellipse cx="21.2655" cy="19.2001" rx="21.2655" ry="19.2001" transform="matrix(-1 0 0 1 583.744 103)" fill="#38A631"/>
<ellipse cx="13.9905" cy="10.603" rx="13.9905" ry="10.603" transform="matrix(-1 0 0 1 561.023 175.789)" fill="#399832"/>
<ellipse cx="31.3387" cy="28.6569" rx="31.3387" ry="28.6569" transform="matrix(-1 0 0 1 588.221 122.487)" fill="#399832"/>
<path d="M538.845 277.403C539.925 277.471 549.599 277.439 549.985 270.962C561.594 272.356 561.279 260.987 560.199 260.92C554.311 249.456 555.155 267.427 548.03 270.839C547.644 277.316 534.729 268.287 538.845 277.403Z" fill="#91632E"/>
<path d="M534.268 275.171C534.28 275.453 535.046 275.518 538.553 274.33C542.394 274.918 546.979 275.087 545.676 274.38C545.663 274.098 541.602 273.419 538.519 273.564C535.508 274.473 534.268 275.171 534.268 275.171Z" fill="#91632E"/>
<path d="M544.558 275.13C544.51 274.851 543.743 274.885 540.41 276.517C536.527 276.43 531.958 276.855 533.338 277.388C533.385 277.666 537.497 277.815 540.538 277.273C543.413 275.982 544.558 275.13 544.558 275.13Z" fill="#91632E"/>
<path d="M555.841 264.601C553.296 263.809 550.688 269.148 546.368 276.087C547.031 284.111 555.913 289.533 556.825 290.128C557.737 290.724 553.187 287.836 549.671 278.244C553.991 271.305 559.172 266.776 555.841 264.601Z" fill="#91632E"/>
<path d="M544.085 285.383C545.889 284.97 545.924 283.987 547.314 281.704C549.83 280.099 549.511 277.366 549.118 277.115C548.724 276.863 546.752 273.794 545.889 280.794C544.5 283.077 542.275 287.836 544.085 285.383Z" fill="#91632E"/>
<path d="M539.756 269.782C540.733 270.258 549.72 273.925 552.438 268.064C562.7 273.794 556.568 257.066 555.591 256.59C554.306 243.705 552.907 261.185 550.669 267.203C547.95 273.065 538.357 264.624 539.756 269.782Z" fill="#91632E"/>
<path d="M531.082 270.069C531.082 270.702 531.922 270.929 535.839 268.636C540.036 270.356 545.073 271.216 543.674 269.496C543.674 268.863 539.239 266.917 535.839 266.917C532.481 268.636 531.082 270.069 531.082 270.069Z" fill="#91632E"/>
<path d="M601.746 272.302C601.18 271.358 595.599 263.266 590.2 266.661C584.647 256.128 575.741 262.921 576.307 263.865C570.525 275.385 584.405 264.357 591.225 268.371C596.624 264.975 596.823 280.988 601.746 272.302Z" fill="#91632E"/>
<path d="M594.087 273.603C594.305 273.43 593.917 272.751 590.953 270.493C589.218 266.935 586.72 262.993 586.903 264.492C586.685 264.664 588.474 268.459 590.361 270.961C592.816 272.964 594.087 273.603 594.087 273.603Z" fill="#91632E"/>
<path d="M596.648 268.817C596.453 269.017 596.921 269.641 600.139 271.498C602.3 274.803 605.263 278.39 604.897 276.927C605.092 276.727 602.849 273.194 600.67 270.956C597.987 269.287 596.648 268.817 596.648 268.817Z" fill="#91632E"/>
<path d="M603.325 263.841C601.221 261.987 599.973 262.772 595.919 262.998C591.711 261.279 588.61 263.967 588.647 264.659C588.684 265.35 586.628 270.34 596.052 265.502C600.106 265.276 607.959 263.985 603.325 263.841Z" fill="#91632E"/>
<path d="M221.079 183.259C219.864 184.848 213.932 179.502 205.611 172.831C191.344 161.87 166.048 151.906 190.045 159.545C173.183 140.613 200.748 168.181 208.206 169.841C229.612 171.17 222.293 181.671 221.079 183.259Z" fill="#91632E"/>
<path d="M229.612 189.105C229.612 220.472 254.908 230.289 227.666 227.3C211.127 236.932 217.938 201.872 217.938 170.506C217.938 139.139 210.154 113.711 227.666 113.711C245.179 113.711 229.612 157.738 229.612 189.105Z" fill="#91632E"/>
<path d="M194.03 116.88C192.905 107.966 200.489 99.6154 210.969 98.2282C221.449 96.841 225.389 103.666 226.514 112.58C227.639 121.494 225.523 129.122 215.043 130.509C204.563 131.896 195.155 125.794 194.03 116.88Z" fill="#399832"/>
<path d="M193.442 73.984C198.641 64.3746 213.759 62.7718 227.209 70.404C240.659 78.0362 240.331 88.0314 235.133 97.6407C229.934 107.25 221.834 112.835 208.383 105.203C194.933 97.5704 188.244 83.5933 193.442 73.984Z" fill="#399832"/>
<ellipse cx="234.152" cy="123.343" rx="9.72896" ry="9.63185" fill="#399832"/>
<ellipse cx="250.367" cy="118.03" rx="9.72896" ry="9.63185" fill="#399832"/>
<ellipse cx="267.231" cy="108.065" rx="16.8635" ry="11.6246" fill="#399832"/>
<ellipse cx="282.797" cy="85.4808" rx="16.8635" ry="16.9388" fill="#369330"/>
<ellipse cx="274.365" cy="58.9095" rx="16.8635" ry="16.9388" fill="#399832"/>
<ellipse cx="239.989" cy="56.2529" rx="24.6467" ry="22.2529" fill="#38A631"/>
<ellipse cx="257.891" cy="130.65" rx="16.2149" ry="12.2889" fill="#399832"/>
<ellipse cx="246.475" cy="89.7992" rx="36.3215" ry="33.2133" fill="#399832"/>
<path d="M1404.02 273.878C1404.02 297.517 1423.08 304.916 1402.55 302.663C1390.08 309.922 1395.22 283.5 1395.22 259.86C1395.22 236.221 1389.35 217.058 1402.55 217.058C1415.75 217.058 1404.02 250.238 1404.02 273.878Z" fill="#91632E"/>
<ellipse cx="1403.53" cy="205.793" rx="19.0635" ry="17.2712" fill="#399832"/>
<ellipse cx="1383.49" cy="217.057" rx="12.709" ry="11.5142" fill="#369530"/>
<ellipse cx="1399.13" cy="223.065" rx="12.709" ry="11.5142" fill="#399832"/>
<ellipse cx="1415.26" cy="217.057" rx="12.709" ry="11.5142" fill="#399832"/>
<ellipse cx="1430.9" cy="211.549" rx="12.709" ry="11.5142" fill="#399832"/>
<ellipse cx="1422.59" cy="194.029" rx="12.709" ry="11.5142" fill="#3CA335"/>
<ellipse cx="1405.48" cy="182.514" rx="12.709" ry="11.5142" fill="#399832"/>
<ellipse cx="1386.66" cy="188.521" rx="15.8863" ry="11.5142" fill="#399832"/>
<ellipse cx="1376.89" cy="205.542" rx="15.8863" ry="11.5142" fill="#399832"/>
<path d="M1425.4 240.432C1426.02 241.658 1421.48 245.347 1415.26 248.671C1409.04 251.995 1404.42 255.53 1402.86 252.471C1402.24 251.245 1408.22 250.048 1414.44 246.723C1422.48 244.709 1424.77 239.207 1425.4 240.432Z" fill="#91632E"/>
<ellipse cx="1426.51" cy="238.697" rx="3.94807" ry="3.53585" fill="#399832"/>
<ellipse cx="1422.36" cy="241.004" rx="2.63204" ry="2.35723" fill="#399832"/>
<ellipse cx="1425.6" cy="242.233" rx="2.63204" ry="2.35723" fill="#399832"/>
<ellipse cx="1428.94" cy="241.004" rx="2.63204" ry="2.35723" fill="#399832"/>
<ellipse cx="1432.18" cy="239.877" rx="2.63204" ry="2.35723" fill="#399832"/>
<ellipse cx="1430.46" cy="236.289" rx="2.63204" ry="2.35723" fill="#399832"/>
<ellipse cx="1426.92" cy="233.931" rx="2.63204" ry="2.35723" fill="#399832"/>
<ellipse cx="1423.02" cy="235.161" rx="3.29006" ry="2.35723" fill="#399832"/>
<ellipse cx="1420.99" cy="238.646" rx="3.29006" ry="2.35723" fill="#399832"/>
</g>
</g>
<defs>
<filter id="filter0_d_564_891" x="-96.5774" y="5.55762" width="1910.08" height="429.986" filterUnits="userSpaceOnUse" color-interpolation-filters="sRGB">
<feFlood flood-opacity="0" result="BackgroundImageFix"/>
<feColorMatrix in="SourceAlpha" type="matrix" values="0 0 0 0 0 0 0 0 0 0 0 0 0 0 0 0 0 0 127 0" result="hardAlpha"/>
<feOffset dy="4"/>
<feGaussianBlur stdDeviation="2"/>
<feComposite in2="hardAlpha" operator="out"/>
<feColorMatrix type="matrix" values="0 0 0 0 0 0 0 0 0 0 0 0 0 0 0 0 0 0 0.25 0"/>
<feBlend mode="normal" in2="BackgroundImageFix" result="effect1_dropShadow_564_891"/>
<feBlend mode="normal" in="SourceGraphic" in2="effect1_dropShadow_564_891" result="shape"/>
</filter>
<clipPath id="clip0_564_891">
<rect width="1633" height="416" fill="white"/>
</clipPath>
</defs>
</svg>
