<svg width="135" height="130" viewBox="0 0 135 130" fill="none" xmlns="http://www.w3.org/2000/svg">
<g clip-path="url(#clip0_639_5318)">
<rect width="135" height="130" fill="white"/>
<rect x="-268.5" y="-128.5" width="402" height="387" rx="18.5" fill="#FDFFEF" stroke="black" stroke-width="3"/>
<g clip-path="url(#clip1_639_5318)">
<path fill-rule="evenodd" clip-rule="evenodd" d="M19.1635 35.5853C18.752 37.9031 18.4584 40.2938 18.2832 42.7571C18.2414 43.7215 17.9479 44.5653 17.403 45.2883C17.2784 44.9555 17.0583 44.6741 16.7427 44.4446C16.281 45.1226 15.6208 45.4035 14.7621 45.2883C15.8541 42.6576 16.4412 39.9854 16.5227 37.2728C14.1027 38.7624 11.6084 38.9029 9.04019 37.6947C10.7616 37.6137 12.5222 37.5432 14.3219 37.4837C18.1371 35.3735 20.8515 32.35 22.4646 28.4135C23.609 23.9716 24.0491 19.4715 23.7851 14.9136C23.3467 14.0023 22.6865 13.2991 21.8044 12.8042C18.8955 9.22465 15.2278 6.55252 10.8008 4.78867C8.64186 3.5374 6.29457 2.6232 3.75845 2.0465C-0.481468 1.43395 -4.73591 1.15256 -9.00576 1.20276C-13.4856 5.2156 -17.6669 9.50435 -21.5499 14.0698C-21.5239 15.9911 -21.1573 17.819 -20.4495 19.5542C-20.4495 19.6947 -20.4495 19.8356 -20.4495 19.9761C-19.6678 22.6545 -18.9341 25.3262 -18.2488 27.9916C-15.4944 28.1224 -12.7804 27.9815 -10.1061 27.5697C-9.67434 26.4644 -9.16113 25.4098 -8.56562 24.4057C-9.00796 21.5146 -10.1814 18.9129 -12.0868 16.6011C-10.6766 16.3041 -9.28261 16.0231 -7.9054 15.7573C-7.34641 13.2822 -6.53963 10.8915 -5.4846 8.58552C-5.33803 8.8669 -5.19102 9.14787 -5.04445 9.42926C-6.02862 13.2725 -6.90891 17.1398 -7.68533 21.0307C-7.56473 22.7414 -6.831 24.0775 -5.4846 25.0385C-4.01407 26.7074 -2.10648 27.4107 0.237289 27.1479C0.596888 26.1063 0.816961 24.9816 0.897507 23.7729C1.04408 24.898 1.19108 26.0227 1.33765 27.1479C1.50623 27.3824 1.7263 27.5229 1.99787 27.5697C2.14444 27.5697 2.29145 27.5697 2.43802 27.5697C3.58768 29.6027 5.34826 30.9388 7.71976 31.5775C9.94601 31.8564 12.1467 31.7159 14.3219 31.1556C15.5275 30.7228 16.5544 30.09 17.403 29.2572C18.7476 28.2802 19.0407 27.0146 18.2832 25.4604C16.9263 26.8918 15.3127 27.4541 13.4416 27.1479C15.6243 25.2676 17.7515 23.2987 19.8238 21.2417C20.9171 17.9 21.3572 18.0409 21.1442 21.6635C20.8735 22.3453 20.4334 22.9076 19.8238 23.351C20.4743 29.3644 17.7604 32.9503 11.6811 34.1087C8.96625 34.68 6.47239 34.2581 4.1986 32.8431C2.64356 31.329 1.24962 29.712 0.0172168 27.9916C-2.04398 28.3232 -3.80456 29.1669 -5.26453 30.5228C-5.5581 30.9447 -5.5581 31.3666 -5.26453 31.7885C-2.15622 33.4511 0.557715 35.5604 2.87816 38.1165C2.87816 39.1008 2.87816 40.0854 2.87816 41.0696C2.58458 40.6478 2.29145 40.2259 1.99787 39.804C1.70429 39.2417 1.26415 38.8198 0.677435 38.5384C0.237289 37.8351 -0.349424 37.2728 -1.08315 36.8509C-1.39521 36.4695 -1.83535 36.3291 -2.40358 36.429C-2.47841 35.8713 -2.33184 35.379 -1.96344 34.9525C-2.18351 34.7416 -2.40358 34.5306 -2.62365 34.3197C-3.24602 34.7049 -3.90624 34.7049 -4.60431 34.3197C-6.62942 33.4215 -8.53701 32.4369 -10.3262 31.3666C-10.7439 31.0915 -11.2571 30.9506 -11.8667 30.9447C-12.7505 30.8633 -13.4107 31.1447 -13.8474 31.7885C-14.2875 31.7885 -14.7276 31.7885 -15.1678 31.7885C-17.2118 32.2521 -19.1194 32.9554 -20.8897 33.8978C-22.0569 33.8598 -23.0838 34.1408 -23.9707 34.7416C-25.0508 35.0483 -26.0777 35.4701 -27.0517 36.0072C-27.6384 36.0072 -27.932 35.7258 -27.932 35.1634C-26.9461 34.1231 -25.7722 33.2793 -24.4108 32.6322C-25.5821 31.8602 -26.5359 30.8759 -27.2718 29.6791C-27.5654 28.6949 -27.5654 27.7102 -27.2718 26.726C-26.2863 24.7951 -25.1129 22.9667 -23.7506 21.2417C-23.3105 20.9603 -22.8703 20.6793 -22.4302 20.3979C-22.4623 18.0093 -22.4623 15.6185 -22.4302 13.2261C-19.4913 8.29949 -15.7501 4.01032 -11.2065 0.359018C0.0489075 -2.2511 10.1722 -0.141744 19.1635 6.68709C21.1442 8.58552 23.1248 10.4839 25.1055 12.3824C26.017 18.024 25.8705 23.6489 24.6654 29.2572C23.0571 31.5699 21.223 33.6793 19.1635 35.5853Z" fill="#131512"/>
<path fill-rule="evenodd" clip-rule="evenodd" d="M2.43797 27.5697C2.2914 27.5697 2.14439 27.5697 1.99782 27.5697C1.55283 26.0459 1.47933 24.4989 1.77775 22.9291C2.74343 19.9422 3.84379 16.9891 5.07884 14.0698C4.93227 13.9293 4.78526 13.7884 4.63869 13.6479C1.90011 17.7713 0.433105 22.2714 0.237241 27.1478C-2.10653 27.4106 -4.01412 26.7074 -5.48465 25.0384C-6.83105 24.0774 -7.56477 22.7413 -7.68537 21.0306C-6.90896 17.1397 -6.02867 13.2724 -5.0445 9.42918C-5.19107 9.14779 -5.33808 8.86682 -5.48465 8.58543C-6.53968 10.8914 -7.34646 13.2821 -7.90545 15.7573C-9.28266 16.023 -10.6766 16.304 -12.0868 16.601C-10.1814 18.9129 -9.00801 21.5145 -8.56566 24.4056C-9.16118 25.4097 -9.67439 26.4644 -10.1062 27.5697C-12.7805 27.9814 -15.4944 28.1223 -18.2489 27.9915C-18.9342 25.3261 -19.6679 22.6544 -20.4496 19.976C-19.1771 21.9107 -18.2968 24.02 -17.8087 26.304C-17.4231 26.6209 -16.983 26.8318 -16.4883 26.9369C-14.4394 27.1474 -12.3857 27.2178 -10.3262 27.1478C-10.3262 26.5854 -10.3262 26.0227 -10.3262 25.4603C-11.8007 25.5299 -13.2677 25.4595 -14.7277 25.2494C-13.92 23.2695 -13.4799 21.1602 -13.4073 18.9213C-13.5129 18.0708 -13.6599 17.2271 -13.8474 16.3901C-13.461 15.6307 -13.1674 14.8574 -12.9671 14.0698C-12.0868 13.9293 -11.2065 13.7884 -10.3262 13.6479C-10.3262 14.0698 -10.3262 14.4916 -10.3262 14.9135C-9.74437 14.9852 -9.23072 14.8447 -8.78574 14.4916C-8.25668 13.5732 -8.03661 12.5886 -8.12552 11.5385C-8.85924 11.5385 -9.59252 11.5385 -10.3262 11.5385C-10.3989 10.1253 -10.3254 8.71917 -10.1062 7.31982C-9.38874 8.03953 -8.72852 8.74279 -8.12552 9.42918C-7.55025 8.21208 -6.66996 7.22785 -5.48465 6.47607C-4.48728 6.6579 -3.82706 7.22026 -3.50399 8.16356C-3.28524 9.27983 -3.21174 10.405 -3.28392 11.5385C-3.72407 11.5385 -4.16421 11.5385 -4.60436 11.5385C-4.97452 15.1206 -3.36095 16.3863 0.237241 15.3354C1.18663 14.5288 2.21393 13.8255 3.31826 13.226C3.72715 12.7244 3.87372 12.1621 3.7584 11.5385C4.63869 11.5385 5.51898 11.5385 6.39927 11.5385C6.15675 13.8504 6.15675 16.1002 6.39927 18.2885C5.51898 18.2885 4.63869 18.2885 3.7584 18.2885C3.7584 20.5383 3.7584 22.7886 3.7584 25.0384C3.31826 25.0384 2.87811 25.0384 2.43797 25.0384C2.43797 25.8822 2.43797 26.7259 2.43797 27.5697Z" fill="#B6D3B8"/>
<path fill-rule="evenodd" clip-rule="evenodd" d="M1.99789 27.5692C1.72632 27.5224 1.50624 27.3819 1.33767 27.1474C1.1911 26.0222 1.04409 24.8975 0.897522 23.7724C0.816976 24.981 0.596903 26.1058 0.237305 27.1474C0.433169 22.2709 1.90017 17.7708 4.63876 13.6475C4.78532 13.7879 4.93233 13.9288 5.0789 14.0693C3.84385 16.9887 2.74349 19.9418 1.77781 22.9286C1.47939 24.4984 1.5529 26.0454 1.99789 27.5692Z" fill="#1C261A"/>
<path fill-rule="evenodd" clip-rule="evenodd" d="M10.8007 4.78839C9.32626 4.858 7.85925 4.78754 6.39929 4.57745C6.986 4.29606 6.986 4.0151 6.39929 3.73371C4.97146 3.32449 3.57796 2.83217 2.21791 2.25716C-1.15976 3.51602 -4.60786 3.72696 -8.1255 2.88996C-7.59909 2.61406 -7.59909 2.40312 -8.1255 2.25716C-9.24963 2.84736 -9.98291 3.6911 -10.3262 4.78839C-10.9129 4.78839 -11.5001 4.78839 -12.0868 4.78839C-11.751 5.90255 -11.6775 7.02768 -11.8667 8.16336C-12.7541 9.08473 -13.7079 9.92847 -14.7277 10.6946C-14.6357 10.9418 -14.4887 11.1527 -14.2875 11.3274C-15.5472 11.2924 -16.8677 11.3628 -18.2488 11.5383C-18.093 12.7706 -18.5332 13.7548 -19.5693 14.4914C-19.8629 16.2409 -20.1564 17.9284 -20.4496 19.5539C-21.1573 17.8187 -21.524 15.9908 -21.5499 14.0696C-17.667 9.50407 -13.4856 5.21532 -9.00579 1.20248C-4.73594 1.15228 -0.481498 1.43366 3.75842 2.04622C6.29454 2.62292 8.64183 3.53712 10.8007 4.78839Z" fill="#B6D5B9"/>
<path fill-rule="evenodd" clip-rule="evenodd" d="M10.8007 4.78807C15.2277 6.55191 18.8954 9.22405 21.8044 12.8036C21.8092 13.4436 22.1023 13.9359 22.6846 14.2802C22.4549 14.5168 22.3083 14.7982 22.2445 15.1239C23.3017 16.3997 23.3748 17.7353 22.4646 19.1317C21.5376 18.3761 20.4373 18.0947 19.1635 18.288C19.1261 19.3127 18.6859 20.1564 17.843 20.8192C16.7066 21.0774 15.6062 21.2179 14.542 21.2411C14.126 21.0702 13.8324 20.7888 13.6617 20.3973C13.5534 21.8275 13.3333 23.2336 13.0014 24.616C13.2325 24.908 13.5261 25.1189 13.8817 25.2488C13.3276 25.6382 12.7409 25.9901 12.1212 26.3035C12.4772 26.9663 12.6242 27.6695 12.5613 28.4129C13.8364 28.4892 15.0833 28.3488 16.3025 27.991C17.1062 28.2062 17.1797 28.558 16.5226 29.0457C16.7841 29.2414 17.0776 29.3119 17.4029 29.2566C16.5543 30.0894 15.5274 30.7222 14.3219 31.155C12.1467 31.7153 9.94596 31.8558 7.71971 31.5769C5.34821 30.9382 3.58762 29.6021 2.43797 27.5691C2.43797 26.7254 2.43797 25.8816 2.43797 25.0379C2.87811 25.0379 3.31826 25.0379 3.7584 25.0379C3.7584 22.7881 3.7584 20.5378 3.7584 18.288C4.63869 18.288 5.51898 18.288 6.39927 18.288C6.15675 16.0997 6.15675 13.8499 6.39927 11.538C5.51898 11.538 4.63869 11.538 3.7584 11.538C3.87372 12.1615 3.72715 12.7239 3.31826 13.2255C2.21393 13.825 1.18663 14.5282 0.237239 15.3349C-3.36095 16.3857 -4.97452 15.1201 -4.60436 11.538C-4.16421 11.538 -3.72407 11.538 -3.28392 11.538C-3.21174 10.4044 -3.28524 9.27931 -3.50399 8.16304C-3.82706 7.21973 -4.48728 6.65738 -5.48465 6.47555C-6.66996 7.22733 -7.55025 8.21155 -8.12552 9.42865C-8.72852 8.74227 -9.38874 8.03901 -10.1062 7.3193C-10.3254 8.71864 -10.3989 10.1247 -10.3262 11.538C-9.59252 11.538 -8.85924 11.538 -8.12552 11.538C-8.03661 12.5881 -8.25668 13.5727 -8.78574 14.4911C-9.23072 14.8442 -9.74437 14.9847 -10.3262 14.913C-10.3262 14.4911 -10.3262 14.0692 -10.3262 13.6474C-11.2065 13.7879 -12.0868 13.9288 -12.9671 14.0692C-13.1674 14.8569 -13.461 15.6302 -13.8474 16.3895C-13.6599 17.2265 -13.5129 18.0703 -13.4073 18.9208C-13.4799 21.1596 -13.92 23.269 -14.7277 25.2488C-13.2677 25.4589 -11.8007 25.5294 -10.3262 25.4598C-10.3262 26.0221 -10.3262 26.5849 -10.3262 27.1473C-12.3857 27.2173 -14.4394 27.1468 -16.4883 26.9363C-16.983 26.8313 -17.4231 26.6203 -17.8087 26.3035C-18.2968 24.0195 -19.1771 21.9101 -20.4496 19.9754C-20.4496 19.835 -20.4496 19.6941 -20.4496 19.5536C-20.1564 17.9281 -19.8629 16.2406 -19.5693 14.4911C-18.5332 13.7545 -18.093 12.7703 -18.2489 11.538C-16.8677 11.3625 -15.5472 11.2921 -14.2876 11.3271C-14.4887 11.1524 -14.6357 10.9415 -14.7277 10.6943C-13.7079 9.92815 -12.7541 9.08441 -11.8668 8.16304C-11.6775 7.02736 -11.751 5.90223 -12.0868 4.78807C-11.5001 4.78807 -10.913 4.78807 -10.3262 4.78807C-9.98293 3.69078 -9.24965 2.84703 -8.12552 2.25684C-7.59911 2.4028 -7.59911 2.61374 -8.12552 2.88964C-4.60788 3.72664 -1.15978 3.5157 2.21789 2.25684C3.57794 2.83185 4.97144 3.32417 6.39927 3.73339C6.98599 4.01478 6.98599 4.29574 6.39927 4.57713C7.85923 4.78722 9.32624 4.85767 10.8007 4.78807Z" fill="#B4DBB5"/>
<path fill-rule="evenodd" clip-rule="evenodd" d="M-5.48469 25.0385C-6.85178 22.0453 -6.85178 19.0922 -5.48469 16.1792C-5.19111 16.3197 -4.89798 16.4606 -4.6044 16.6011C-4.36276 18.7712 -3.99612 20.8805 -3.50404 22.9291C-2.74479 21.6201 -2.23114 20.214 -1.96353 18.7104C-1.12901 18.3029 -0.248724 18.1624 0.677341 18.2886C0.0730219 20.6873 -0.513692 23.0776 -1.08324 25.4604C-2.00358 25.3836 -2.88387 25.5245 -3.72411 25.8822C-4.21795 25.4055 -4.80511 25.1241 -5.48469 25.0385Z" fill="#B5DBB4"/>
<path fill-rule="evenodd" clip-rule="evenodd" d="M-1.9635 37.2724C-1.81297 36.9189 -1.51983 36.778 -1.08321 36.8505C-0.349488 37.2724 0.237225 37.8348 0.677371 38.538C-0.20292 38.1161 -1.08321 37.6943 -1.9635 37.2724Z" fill="#8A7F3C"/>
<path fill-rule="evenodd" clip-rule="evenodd" d="M21.8044 12.8042C22.6864 13.2991 23.3466 14.0023 23.785 14.9136C24.0491 19.4715 23.609 23.9716 22.4646 28.4135C20.8515 32.3499 18.1371 35.3735 14.3219 37.4837C12.5221 37.5432 10.7616 37.6136 9.04016 37.6946C11.6084 38.9029 14.1027 38.7624 16.5226 37.2728C16.4412 39.9854 15.854 42.6575 14.762 45.2883C13.7171 47.9925 12.4702 50.6647 11.0208 53.3039C10.2484 50.5537 8.70785 48.3039 6.39929 46.5539C5.01635 45.6764 3.69592 44.6918 2.43798 43.6008C3.37461 41.8032 3.52118 39.9748 2.87813 38.1165C0.557682 35.5604 -2.15625 33.451 -5.26456 31.7884C-5.55814 31.3666 -5.55814 30.9447 -5.26456 30.5228C-3.8046 29.1669 -2.04402 28.3232 0.0171837 27.9916C1.24959 29.712 2.64353 31.329 4.19856 32.8431C6.47235 34.2581 8.96622 34.6799 11.681 34.1087C17.7603 32.9503 20.4743 29.3644 19.8237 23.351C20.4333 22.9076 20.8735 22.3452 21.1442 21.6635C21.3572 18.0409 20.917 17.9 19.8237 21.2416C17.7515 23.2987 15.6243 25.2676 13.4416 27.1478C15.3127 27.4541 16.9262 26.8918 18.2832 25.4603C19.0407 27.0145 18.7476 28.2801 17.4029 29.2572C17.0777 29.3125 16.7841 29.242 16.5226 29.0463C17.1798 28.5586 17.1063 28.2067 16.3026 27.9916C15.0834 28.3493 13.8364 28.4898 12.5613 28.4135C12.6243 27.6701 12.4773 26.9669 12.1212 26.3041C12.7409 25.9906 13.3276 25.6388 13.8818 25.2494C13.5261 25.1195 13.2325 24.9085 13.0015 24.6166C13.3333 23.2341 13.5534 21.828 13.6617 20.3979C13.8325 20.7894 14.126 21.0708 14.542 21.2416C15.6062 21.2184 16.7066 21.0779 17.8431 20.8198C18.6859 20.157 19.1261 19.3133 19.1635 18.2885C20.4373 18.0953 21.5376 18.3767 22.4646 19.1323C23.3748 17.7359 23.3017 16.4002 22.2445 15.1245C22.3083 14.7988 22.4549 14.5174 22.6847 14.2808C22.1023 13.9365 21.8092 13.4442 21.8044 12.8042Z" fill="#B7D7B9"/>
<path fill-rule="evenodd" clip-rule="evenodd" d="M0.677368 38.5386C1.26408 38.82 1.70423 39.2418 1.9978 39.8042C2.11576 40.4788 1.96875 41.0411 1.55766 41.4917C1.60167 40.3914 1.3081 39.4068 0.677368 38.5386Z" fill="#888122"/>
<path fill-rule="evenodd" clip-rule="evenodd" d="M2.87809 38.1162C3.52115 39.9746 3.37458 41.8029 2.43795 43.6005C2.17518 43.5014 2.02861 43.2905 1.9978 42.9677C2.4001 42.3746 2.69323 41.7418 2.87809 41.0693C2.87809 40.0851 2.87809 39.1004 2.87809 38.1162Z" fill="#68786E"/>
<path fill-rule="evenodd" clip-rule="evenodd" d="M-0.642991 44.8666C0.00930442 46.1837 0.743027 47.4493 1.55774 48.6635C0.69373 48.0475 -0.113056 47.3443 -0.863063 46.5541C-1.38596 47.0026 -1.60603 47.5653 -1.52328 48.2416C-2.85164 47.67 -3.43835 46.6857 -3.28386 45.2885C-3.88818 45.3547 -4.47534 45.2843 -5.04444 45.0776C-6.98284 43.0066 -9.33014 41.6705 -12.0868 41.0698C-13.8324 40.7905 -15.593 40.65 -17.3685 40.6479C-19.1441 40.7205 -20.9046 40.9314 -22.6503 41.2807C-22.895 41.4423 -23.0415 41.6532 -23.0904 41.9135C-25.237 43.0534 -27.4377 44.1081 -29.6926 45.0776C-30.8092 46.2892 -32.0562 47.3439 -33.4338 48.2416C-34.0857 49.3427 -34.5993 50.4678 -34.9743 51.6166C-37.0434 54.2267 -38.5839 57.1798 -39.5958 60.4759C-39.8894 61.601 -39.8894 62.7257 -39.5958 63.8509C-39.5421 64.668 -39.1755 65.2304 -38.4955 65.5383C-38.4955 66.2416 -38.4955 66.9444 -38.4955 67.6477C-38.6033 69.0673 -38.3097 70.4034 -37.6152 71.6555C-38.106 72.1765 -38.106 72.6688 -37.6152 73.132C-37.8163 73.4687 -38.1099 73.6092 -38.4955 73.5539C-39.0633 73.3185 -39.4299 72.8966 -39.5958 72.2883C-39.7895 71.2901 -40.0096 70.3059 -40.2561 69.3352C-40.7231 67.5903 -41.1632 65.8328 -41.5765 64.0618C-41.7244 63.6273 -42.018 63.4163 -42.4568 63.429C-42.3102 62.3039 -42.1632 61.1791 -42.0166 60.054C-41.6535 57.2612 -40.9202 54.5891 -39.8159 52.0385C-39.3758 52.0385 -38.9356 52.0385 -38.4955 52.0385C-38.3639 50.5176 -37.8507 49.1111 -36.955 47.8197C-36.0298 47.1469 -35.3696 46.3031 -34.9743 45.2885C-29.6151 40.8926 -23.4531 38.08 -16.4882 36.8511C-14.2778 37.8923 -11.9301 38.666 -9.4459 39.1714C-6.45291 40.9854 -3.51846 42.8838 -0.642991 44.8666Z" fill="#DA9C20"/>
<path fill-rule="evenodd" clip-rule="evenodd" d="M-1.9635 37.2725C-1.08321 37.6943 -0.202919 38.1162 0.677371 38.5381C1.3081 39.4063 1.60168 40.3909 1.55766 41.4912C1.03829 42.5092 0.158 42.931 -1.08321 42.7568C-2.04405 42.1873 -2.77777 41.4136 -3.28394 40.4365C-2.77733 39.3966 -2.33718 38.3419 -1.9635 37.2725Z" fill="#E8DA31"/>
<path fill-rule="evenodd" clip-rule="evenodd" d="M19.1635 35.585C19.2366 37.4184 19.1631 39.2464 18.9434 41.0693C18.851 41.7266 18.6309 42.2889 18.2832 42.7568C18.4584 40.2935 18.752 37.9027 19.1635 35.585Z" fill="#8F8E8F"/>
<path fill-rule="evenodd" clip-rule="evenodd" d="M-1.5233 54.1477C-2.55016 54.4291 -3.57746 54.7101 -4.60432 54.9915C-4.75089 55.2729 -4.89789 55.5538 -5.04446 55.8352C-5.44235 56.1343 -5.58892 56.5562 -5.48461 57.1008C-7.11975 57.0683 -8.73332 57.2088 -10.3262 57.5227C-10.1409 58.5394 -9.55419 59.3127 -8.56562 59.843C-6.72186 60.1856 -4.96128 60.1151 -3.28388 59.6321C-2.4815 58.4985 -1.89434 57.2329 -1.5233 55.8352C-1.22972 55.8352 -0.936588 55.8352 -0.643011 55.8352C0.810348 59.7903 0.443707 63.5871 -1.74337 67.2258C-2.16811 67.9682 -2.68176 68.1091 -3.28388 67.6476C-2.19232 66.4406 -1.75218 65.0345 -1.96345 63.4289C-2.66724 63.3158 -3.25395 63.4567 -3.72403 63.8508C-5.95204 63.9461 -8.15277 63.8052 -10.3262 63.4289C-11.3531 62.7493 -12.0868 62.9602 -12.5269 64.0617C-11.8742 66.6592 -11.7272 69.2609 -12.0868 71.8663C-9.68183 71.7929 -7.3341 71.7929 -5.04446 71.8663C-5.77818 72.6396 -6.51147 73.4133 -7.24519 74.1866C-8.93359 75.0658 -10.5476 76.05 -12.0868 77.1397C-15.2673 77.8122 -18.4953 77.9531 -21.77 77.5616C-26.7256 76.9798 -31.0535 75.0814 -34.7543 71.8663C-35.4682 70.3527 -36.275 68.9466 -37.1751 67.6476C-37.2213 66.0365 -37.5879 64.4895 -38.2754 63.007C-38.5822 60.2142 -37.8485 57.683 -36.0747 55.4133C-35.6297 55.0602 -35.1161 54.9198 -34.5342 54.9915C-34.0918 56.3503 -33.7248 57.7564 -33.4338 59.2102C-33.1147 59.446 -32.7481 59.5865 -32.3335 59.6321C-31.1178 59.1009 -30.0905 58.3272 -29.2524 57.3118C-27.3541 57.0017 -25.4465 56.7908 -23.5306 56.679C-23.9064 54.2988 -24.1996 51.908 -24.4108 49.5071C-26.4351 50.442 -28.6358 50.9339 -31.013 50.9837C-31.9197 51.6992 -32.9466 52.1915 -34.094 52.4602C-34.6279 52.356 -34.9215 52.0747 -34.9743 51.6165C-34.5359 51.6528 -34.1693 51.5119 -33.874 51.1946C-32.7811 48.9406 -31.094 47.1826 -28.8123 45.9212C-23.303 42.9791 -17.4345 41.8544 -11.2065 42.5463C-8.58807 44.0481 -6.16727 45.8056 -3.9441 47.8197C-3.06909 49.9109 -2.26231 52.0202 -1.5233 54.1477Z" fill="#CCE2EF"/>
<path fill-rule="evenodd" clip-rule="evenodd" d="M-17.3685 40.6475C-15.593 40.6496 -13.8324 40.7901 -12.0868 41.0693C-9.33014 41.6701 -6.98285 43.0061 -5.04445 45.0771C-4.47534 45.2838 -3.88819 45.3543 -3.28387 45.288C-3.43836 46.6853 -2.85165 47.6695 -1.52329 48.2412C-1.52329 48.3816 -1.52329 48.5225 -1.52329 48.663C-0.470462 52.0717 0.556396 55.4467 1.55773 58.7879C1.81829 59.8962 1.96486 61.0213 1.99787 62.1629C1.22234 63.4298 0.709127 64.8363 0.457364 66.3816C-0.46342 67.7236 -1.49028 68.9892 -2.62365 70.1785C-3.06776 70.8218 -3.28783 71.5251 -3.28387 72.2878C-5.48196 74.1065 -7.82969 75.794 -10.3262 77.3503C-13.9393 78.8543 -17.7541 79.4166 -21.77 79.0378C-21.9165 79.0378 -22.0635 79.0378 -22.2101 79.0378C-24.6525 78.4341 -27.1468 77.8717 -29.6926 77.3503C-30.1389 76.855 -30.7256 76.5741 -31.4532 76.5066C-34.6706 74.2795 -37.0179 71.3264 -38.4955 67.6473C-38.4955 66.944 -38.4955 66.2412 -38.4955 65.5379C-37.8639 66.134 -37.4237 66.8373 -37.175 67.6473C-36.275 68.9462 -35.4682 70.3523 -34.7542 71.866C-31.0535 75.0811 -26.7256 76.9795 -21.77 77.5612C-18.4953 77.9527 -15.2673 77.8118 -12.0868 77.1394C-10.5476 76.0497 -8.93357 75.0654 -7.24518 74.1863C-6.51145 73.413 -5.77817 72.6393 -5.04445 71.866C-7.33409 71.7926 -9.68182 71.7926 -12.0868 71.866C-11.7272 69.2605 -11.8742 66.6588 -12.5269 64.0613C-12.0868 62.9598 -11.3531 62.7489 -10.3262 63.4285C-10.2773 63.6888 -10.1308 63.8998 -9.88605 64.0613C-7.75046 64.4052 -5.69631 64.3347 -3.72402 63.8504C-3.25394 63.4564 -2.66723 63.3155 -1.96343 63.4285C-1.75217 65.0342 -2.19231 66.4403 -3.28387 67.6473C-2.68175 68.1088 -2.1681 67.9679 -1.74336 67.2254C0.443719 63.5867 0.81036 59.7899 -0.642999 55.8348C-0.713422 55.1375 -1.00656 54.5751 -1.52329 54.1474C-2.26229 52.0199 -3.06908 49.9105 -3.94409 47.8193C-6.16726 45.8053 -8.58806 44.0477 -11.2065 42.5459C-17.4345 41.854 -23.303 42.9787 -28.8123 45.9209C-31.094 47.1823 -32.7811 48.9402 -33.874 51.1943C-34.1693 51.5115 -34.5359 51.6524 -34.9743 51.6161C-34.5993 50.4674 -34.0857 49.3422 -33.4338 48.2412C-32.0562 47.3434 -30.8092 46.2887 -29.6926 45.0771C-27.4377 44.1077 -25.237 43.053 -23.0904 41.9131C-21.0882 41.6832 -19.181 41.2613 -17.3685 40.6475Z" fill="#1A1513"/>
<path fill-rule="evenodd" clip-rule="evenodd" d="M6.39926 47.3974C7.89663 50.1801 8.92393 53.1332 9.48027 56.2567C9.62332 59.4288 9.47675 62.5224 9.04013 65.5379C9.21443 62.2671 8.99435 59.0327 8.37991 55.8349C8.23334 55.5535 8.08633 55.2725 7.93976 54.9911C7.86318 57.1781 7.64311 59.2875 7.27955 61.3192C7.42083 59.1276 7.27383 57.0182 6.8394 54.9911C6.26061 53.7626 5.74696 52.497 5.29889 51.1943C3.7509 48.785 2.21039 46.3946 0.677368 44.0225C2.13469 44.3591 3.30856 45.1324 4.19853 46.3428C5.05769 46.4972 5.79098 46.8486 6.39926 47.3974Z" fill="#920E1D"/>
<path fill-rule="evenodd" clip-rule="evenodd" d="M1.55774 48.6631C2.72368 49.4697 3.3104 50.5948 3.31832 52.0381C2.65062 50.9686 2.06391 49.8435 1.55774 48.6631Z" fill="#7B5A1C"/>
<path fill-rule="evenodd" clip-rule="evenodd" d="M1.55769 48.6626C2.06386 49.843 2.65057 50.9681 3.31827 52.0376C3.68711 52.1818 3.83412 52.4628 3.75842 52.8813C3.79143 54.1077 4.15851 55.2324 4.85878 56.2563C5.07841 58.361 5.15192 60.4703 5.07885 62.5843C4.39003 63.4319 3.94988 64.4165 3.75842 65.5374C2.80726 65.675 2.00048 66.0969 1.33762 66.8031C1.47803 65.2691 1.6981 63.7221 1.99784 62.1625C1.96483 61.0209 1.81826 59.8958 1.55769 58.7875C1.29581 55.6142 0.635588 52.5206 -0.422962 49.5063C-0.606502 48.9765 -0.973143 48.6951 -1.52332 48.6626C-1.52332 48.5221 -1.52332 48.3812 -1.52332 48.2407C-1.60607 47.5644 -1.386 47.0017 -0.863107 46.5532C-0.1131 47.3434 0.693687 48.0466 1.55769 48.6626Z" fill="#EDA114"/>
<path fill-rule="evenodd" clip-rule="evenodd" d="M1.9979 39.8042C2.29148 40.2261 2.58462 40.6479 2.87819 41.0698C2.69333 41.7423 2.40019 42.3751 1.9979 42.9682C2.02871 43.291 2.17528 43.5019 2.43805 43.601C3.69598 44.692 5.01642 45.6767 6.39935 46.5541C6.39935 46.8355 6.39935 47.1165 6.39935 47.3979C5.79107 46.849 5.05779 46.4976 4.19863 46.3432C3.30865 45.1329 2.13479 44.3596 0.677466 44.0229C2.21049 46.3951 3.751 48.7854 5.29899 51.1947C5.74706 52.4975 6.26071 53.7631 6.8395 54.9916C7.03712 58.5923 6.74355 62.1077 5.95921 65.5384C4.30866 66.6061 3.57538 68.1531 3.75848 70.179C3.17661 70.1072 2.66296 70.2477 2.21797 70.6008C1.12729 72.4259 0.17394 74.2538 -0.642969 76.0852C-1.2112 75.9852 -1.65134 76.1257 -1.96341 76.507C-2.40355 76.9289 -2.8437 77.3508 -3.28384 77.7727C-3.32169 78.1928 -3.17468 78.5443 -2.8437 78.8273C-3.75788 78.9083 -4.63817 79.1193 -5.48457 79.4601C-5.17955 79.8896 -4.88641 80.3115 -4.60428 80.7258C-5.0431 80.7131 -5.33668 80.924 -5.48457 81.3586C-5.26934 81.8387 -5.12277 82.331 -5.04442 82.8351C-5.58052 82.3158 -6.16723 81.8235 -6.805 81.3586C-7.96963 81.1489 -9.14349 81.0784 -10.3262 81.1476C-11.3257 80.9139 -12.3526 81.1248 -13.4072 81.7804C-15.9816 82.1255 -18.4755 82.0555 -20.8896 81.5695C-19.1858 81.7024 -17.5718 81.5619 -16.0481 81.1476C-15.6079 81.1476 -15.1678 81.1476 -14.7276 81.1476C-12.4477 80.8916 -10.3935 80.1887 -8.56558 79.0383C-6.85738 78.3958 -5.1703 77.6925 -3.50391 76.9289C-1.3921 74.0568 0.735125 71.1742 2.87819 68.2805C3.21886 67.3718 3.51244 66.4576 3.75848 65.5384C4.78578 64.8313 5.22593 63.8471 5.07892 62.5853C5.53315 61.7694 5.82628 60.8556 5.95921 59.8431C5.6982 58.5138 5.47813 57.1777 5.29899 55.8353C5.06923 54.6621 4.55559 53.6775 3.75848 52.8822C3.83419 52.4637 3.68718 52.1828 3.31834 52.0385C3.31041 50.5953 2.7237 49.4701 1.55776 48.6635C0.743048 47.4494 0.00932569 46.1837 -0.642969 44.8667C-0.717794 44.3089 -0.571226 43.8166 -0.202824 43.3901C-0.605997 43.2728 -0.899134 43.0619 -1.08311 42.7573C0.158095 42.9315 1.03839 42.5097 1.55776 41.4917C1.96885 41.0411 2.11586 40.4788 1.9979 39.8042Z" fill="#1B0A05"/>
<path fill-rule="evenodd" clip-rule="evenodd" d="M-1.52332 48.6631C-0.973134 48.6956 -0.606493 48.977 -0.422952 49.5068C0.635597 52.5211 1.29581 55.6147 1.5577 58.788C0.556371 55.4468 -0.470488 52.0718 -1.52332 48.6631Z" fill="#BB8F2B"/>
<path fill-rule="evenodd" clip-rule="evenodd" d="M6.8394 54.9912C7.27382 57.0183 7.42083 59.1277 7.27954 61.3193C7.23377 62.8832 6.79362 64.2893 5.95911 65.538C6.74345 62.1073 7.03702 58.5919 6.8394 54.9912Z" fill="#40030C"/>
<path fill-rule="evenodd" clip-rule="evenodd" d="M3.75842 52.8813C4.55553 53.6766 5.06918 54.6612 5.29893 55.8344C5.47807 57.1768 5.69814 58.5129 5.95915 59.8422C5.82622 60.8547 5.53309 61.7685 5.07886 62.5844C5.15192 60.4704 5.07842 58.361 4.85879 56.2563C4.15851 55.2324 3.79143 54.1077 3.75842 52.8813Z" fill="#8A6625"/>
<path fill-rule="evenodd" clip-rule="evenodd" d="M9.48035 56.2563C9.99004 60.2603 10.0635 64.3386 9.70042 68.4906C9.27964 69.8183 8.76599 71.0839 8.15991 72.2875C8.64451 70.0629 8.93765 67.8131 9.0402 65.5375C9.47683 62.522 9.62339 59.4284 9.48035 56.2563Z" fill="#5D0412"/>
<path fill-rule="evenodd" clip-rule="evenodd" d="M9.04021 65.538C8.93765 67.8136 8.64452 70.0634 8.15992 72.288C8.01335 72.288 7.86634 72.288 7.71977 72.288C6.00012 73.5278 4.38611 73.3874 2.87817 71.8661C3.24481 71.7256 3.6119 71.5847 3.97854 71.4442C4.89668 71.8315 5.85047 72.1129 6.83948 72.288C6.93587 71.7923 6.7893 71.3704 6.39934 71.0223C5.71579 70.6262 5.12864 70.1339 4.63875 69.5458C4.97899 68.1675 5.41913 66.8315 5.95919 65.538C6.79371 64.2893 7.23385 62.8832 7.27963 61.3193C7.64319 59.2876 7.86326 57.1782 7.93984 54.9912C8.08641 55.2726 8.23342 55.5536 8.37999 55.835C8.99443 59.0327 9.2145 62.2672 9.04021 65.538Z" fill="#CA0821"/>
<path fill-rule="evenodd" clip-rule="evenodd" d="M64.0583 77.7724C65.9043 78.4824 67.5913 79.4667 69.12 80.7255C70.3211 83.7605 71.9351 86.5731 73.9616 89.163C74.1772 89.7084 74.2507 90.2712 74.1816 90.8505C74.109 92.1237 74.1825 93.3893 74.4017 94.6473C74.8027 96.5537 75.4629 98.3817 76.3824 100.132C76.146 100.655 75.8524 101.147 75.5021 101.608C75.6979 106.956 75.9915 112.37 76.3824 117.85C75.4484 119.526 74.7146 121.284 74.1816 123.124C74.4638 124.703 74.4638 126.32 74.1816 127.975C73.6042 127.703 73.164 127.281 72.8612 126.71C66.1186 126.288 59.3699 126.147 52.6145 126.288C52.8346 127.972 52.1744 128.675 50.6339 128.397C50.4164 127.708 50.3434 127.004 50.4138 126.288C51.0005 126.288 51.5877 126.288 52.1744 126.288C52.9499 124.138 53.2435 121.888 53.0547 119.538C50.7074 119.538 48.3596 119.538 46.0123 119.538C46.0123 118.975 46.0123 118.413 46.0123 117.85C45.5722 117.85 45.132 117.85 44.6919 117.85C44.1972 116.909 43.9771 115.925 44.0317 114.897C44.6285 114.526 45.2887 114.385 46.0123 114.475C46.0123 113.913 46.0123 113.35 46.0123 112.788C48.3596 112.788 50.7074 112.788 53.0547 112.788C53.0547 112.225 53.0547 111.663 53.0547 111.1C50.7021 111.179 48.3548 111.32 46.0123 111.522C46.0123 111.1 46.0123 110.678 46.0123 110.257C47.5713 110.389 49.0383 110.248 50.4138 109.835C51.2408 109.48 52.1211 109.339 53.0547 109.413C53.2034 108.221 52.7633 107.307 51.7342 106.671C49.8548 106.217 47.9477 106.006 46.0123 106.038C46.3033 104.02 45.8631 102.191 44.6919 100.554C45.482 97.219 45.9221 93.7032 46.0123 90.0067C45.8658 88.0378 45.7188 86.0694 45.5722 84.1005C44.9855 84.3819 44.5453 84.8038 44.2518 85.3661C43.5717 85.7677 42.838 85.9082 42.051 85.788C42.9582 83.9225 44.2051 82.235 45.7923 80.7255C46.0079 80.1801 46.0814 79.6173 46.0123 79.038C46.9705 79.0018 47.8508 78.7204 48.6532 78.1943C49.5225 76.8827 50.5493 75.6871 51.7342 74.6084C52.2479 74.5379 52.7611 74.4679 53.2747 74.3975C56.9174 75.3585 60.5116 76.4836 64.0583 77.7724Z" fill="#B3DCB4"/>
<path fill-rule="evenodd" clip-rule="evenodd" d="M17.4029 45.2881C15.9482 49.1199 14.1141 52.7759 11.9011 56.2567C13.6291 68.6939 8.78749 77.9751 -2.62371 84.1003C-1.47097 86.7003 -2.13119 88.8801 -4.60436 90.6393C-6.6506 92.0796 -8.85133 92.3605 -11.2065 91.483C-12.0208 91.1919 -12.608 90.7 -12.9671 90.0065C-13.1511 89.7019 -13.4442 89.491 -13.8474 89.3737C-13.2677 88.1346 -13.2677 86.9395 -13.8474 85.7878C-18.1696 85.8975 -22.5711 85.6165 -27.0518 84.944C-27.3453 84.944 -27.6385 84.944 -27.9321 84.944C-28.1389 84.4407 -28.5791 84.1593 -29.2525 84.1003C-30.8731 84.7306 -32.3401 85.6443 -33.6539 86.8424C-37.2473 88.4949 -40.3283 87.8621 -42.897 84.944C-43.3468 84.0817 -43.787 83.238 -44.2174 82.4128C-44.9842 80.6456 -44.544 79.169 -42.897 77.9831C-41.1531 77.9971 -39.8327 77.2942 -38.9357 75.8738C-40.8987 72.6258 -42.4392 69.1804 -43.5572 65.5379C-44.4098 63.4678 -44.3363 61.4993 -43.3371 59.6317C-43.0436 59.7722 -42.7504 59.9131 -42.4569 60.0536C-42.8957 61.2466 -42.8957 62.3718 -42.4569 63.4286C-42.1848 64.9899 -41.8182 66.5365 -41.3565 68.0692C-41.1906 68.6775 -40.8239 69.0994 -40.2561 69.3348C-40.0096 70.3055 -39.7896 71.2897 -39.5959 72.2879C-39.43 72.8962 -39.0633 73.3181 -38.4955 73.5535C-36.7292 75.6679 -34.6755 77.4959 -32.3335 79.0378C-31.0342 79.8436 -29.5668 80.2655 -27.9321 80.3034C-25.7375 81.232 -23.3898 81.6538 -20.8897 81.569C-18.4755 82.055 -15.9817 82.1251 -13.4073 81.78C-12.3527 81.1244 -11.3258 80.9135 -10.3263 81.1472C-10.3263 81.4286 -10.3263 81.7095 -10.3263 81.9909C-11.0877 82.2128 -11.6749 82.6347 -12.0868 83.2565C-12.6691 85.1128 -12.6691 87.0112 -12.0868 88.9518C-9.28971 90.0774 -6.79541 89.7255 -4.60436 87.8971C-4.60436 87.7566 -4.60436 87.6157 -4.60436 87.4753C-4.02689 87.2031 -3.58675 86.7813 -3.28393 86.2096C-3.8768 85.0735 -4.46352 83.9484 -5.04451 82.8347C-5.12286 82.3305 -5.26942 81.8382 -5.48466 81.3581C-5.33677 80.9236 -5.04319 80.7126 -4.60436 80.7253C-3.6805 81.1944 -2.6532 81.4758 -1.52335 81.569C-1.52335 81.1472 -1.52335 80.7253 -1.52335 80.3034C-1.0832 80.3034 -0.643058 80.3034 -0.202913 80.3034C-0.202913 79.8816 -0.202913 79.4597 -0.202913 79.0378C0.677378 79.0378 1.55767 79.0378 2.43796 79.0378C2.53523 78.1249 2.97538 77.422 3.75839 76.9285C4.02248 76.3378 4.46263 75.916 5.07883 75.6628C6.09733 74.6799 6.97762 73.5552 7.7197 72.2879C7.86627 72.2879 8.01328 72.2879 8.15985 72.2879C8.76593 71.0843 9.27958 69.8187 9.70035 68.491C10.0635 64.339 9.98997 60.2607 9.48028 56.2567C8.92394 53.1332 7.89664 50.1801 6.39927 47.3974C6.39927 47.116 6.39927 46.8351 6.39927 46.5537C8.70783 48.3036 10.2483 50.5535 11.0208 53.3036C12.4702 50.6644 13.7171 47.9923 14.762 45.2881C15.6207 45.4033 16.281 45.1223 16.7427 44.4443C17.0583 44.6738 17.2783 44.9552 17.4029 45.2881Z" fill="#100B09"/>
<path fill-rule="evenodd" clip-rule="evenodd" d="M-1.9635 76.5068C-1.26191 77.4501 -0.308113 78.1534 0.897445 78.6162C1.11752 78.4757 1.33759 78.3348 1.55766 78.1943C1.22183 77.6801 0.781687 77.2582 0.237227 76.9287C0.383795 76.7882 0.530804 76.6473 0.677372 76.5068C1.66638 76.8756 2.69324 77.0165 3.75839 76.9287C2.97537 77.4223 2.53523 78.1251 2.43795 79.0381C1.55766 79.0381 0.677372 79.0381 -0.202918 79.0381C-0.202918 79.4599 -0.202918 79.8818 -0.202918 80.3037C-0.643063 80.3037 -1.08321 80.3037 -1.52335 80.3037C-1.52335 80.7256 -1.52335 81.1474 -1.52335 81.5693C-2.65321 81.4761 -3.68051 81.1947 -4.60437 80.7256C-3.36712 80.588 -2.19325 80.2366 -1.08321 79.6709C-1.58233 79.2423 -1.43576 78.9609 -0.643063 78.8271C-1.39879 78.1694 -2.27908 77.818 -3.28393 77.7725C-2.84379 77.3506 -2.40364 76.9287 -1.9635 76.5068Z" fill="#3E090F"/>
<path fill-rule="evenodd" clip-rule="evenodd" d="M5.95911 65.5381C5.41905 66.8315 4.97891 68.1676 4.63868 69.5459C5.12856 70.134 5.71571 70.6263 6.39926 71.0224C6.78923 71.3705 6.93579 71.7923 6.8394 72.288C5.8504 72.113 4.8966 71.8316 3.97846 71.4443C3.61182 71.5848 3.24474 71.7257 2.8781 71.8662C4.38603 73.3874 6.00005 73.5279 7.71969 72.288C6.97761 73.5553 6.09732 74.68 5.07882 75.663C4.46262 75.9161 4.02247 76.338 3.75839 76.9286C2.69324 77.0164 1.66638 76.8755 0.67737 76.5068C0.530802 76.6472 0.383793 76.7881 0.237225 76.9286C0.781685 77.2581 1.22183 77.68 1.55766 78.1942C1.33759 78.3347 1.11752 78.4756 0.897443 78.6161C-0.308115 78.1533 -1.26191 77.4501 -1.9635 76.5068C-1.65144 76.1254 -1.21129 75.9849 -0.643065 76.0849C0.173844 74.2535 1.1272 72.4256 2.21788 70.6005C2.66287 70.2474 3.17651 70.107 3.75839 70.1787C3.57529 68.1528 4.30857 66.6058 5.95911 65.5381Z" fill="#730D15"/>
<path fill-rule="evenodd" clip-rule="evenodd" d="M5.07886 75.6631C3.69945 75.3505 2.37901 74.9286 1.11755 74.3975C1.11755 73.9756 1.11755 73.5537 1.11755 73.1318C2.43491 73.5478 3.75534 73.9697 5.07886 74.3975C5.07886 74.8193 5.07886 75.2412 5.07886 75.6631Z" fill="#AE1425"/>
<path fill-rule="evenodd" clip-rule="evenodd" d="M1.99781 62.1631C1.69808 63.7227 1.478 65.2697 1.3376 66.8037C2.00046 66.0975 2.80724 65.6756 3.7584 65.5381C3.51235 66.4573 3.21878 67.3715 2.87811 68.2802C0.735038 71.1738 -1.39218 74.0565 -3.504 76.9286C-5.17039 77.6922 -6.85747 78.3954 -8.56567 79.038C-9.85618 78.9468 -11.0296 79.2282 -12.0868 79.8817C-12.7198 79.7893 -13.3065 79.5784 -13.8474 79.2489C-12.9332 79.1679 -12.0529 78.957 -11.2065 78.6161C-10.7171 78.2933 -10.4235 77.8715 -10.3263 77.3505C-7.82975 75.7942 -5.48201 74.1067 -3.28393 72.288C-3.28789 71.5253 -3.06782 70.822 -2.62371 70.1786C-1.49034 68.9894 -0.463477 67.7238 0.457307 66.3818C0.70907 64.8365 1.22228 63.43 1.99781 62.1631Z" fill="#DA9B1E"/>
<path fill-rule="evenodd" clip-rule="evenodd" d="M5.07886 62.5845C5.22587 63.8463 4.78572 64.8305 3.75842 65.5376C3.94989 64.4167 4.39003 63.432 5.07886 62.5845Z" fill="#855A22"/>
<path fill-rule="evenodd" clip-rule="evenodd" d="M80.7838 100.132C80.7763 104.076 80.9233 108.013 81.2239 111.944C80.5721 115.978 79.9118 120.056 79.2433 124.178C78.5399 125.849 77.8797 127.537 77.2626 129.241C75.8757 130.781 74.4087 132.258 72.8612 133.67C70.1512 135.25 67.3637 136.586 64.4984 137.678C61.8659 138.152 59.225 138.152 56.5758 137.678C54.8874 137.079 53.2734 136.376 51.7342 135.569C54.5036 143.496 58.1713 151.019 62.7378 158.139C69.8955 160.215 77.2309 160.989 84.7451 160.459C87.8279 160.344 90.9089 160.204 93.9881 160.037C96.6132 162.202 99.034 164.593 101.251 167.209C102.061 168.763 103.088 170.169 104.332 171.428C105.209 177.471 103.449 182.674 99.0498 187.037C94.5189 190.969 89.3107 193.711 83.4246 195.264C78.9572 196.399 74.4087 197.173 69.7801 197.584C68.5389 197.551 67.3651 197.27 66.259 196.74C63.7744 197.129 61.2801 197.129 58.7765 196.74C57.6009 196.058 56.2804 195.776 54.8152 195.896C47.5458 194.253 40.65 191.651 34.1284 188.092C33.131 187.49 32.3977 186.717 31.9277 185.772C32.6614 185.49 33.3947 185.209 34.1284 184.928C35.5743 185.972 37.1883 186.675 38.97 187.037C39.6742 187.52 40.4079 188.012 41.1707 188.514C44.5704 189.255 47.7984 190.381 50.8539 191.889C56.3786 193.006 61.8804 194.202 67.3593 195.475C69.7357 195.061 72.0099 194.498 74.1816 193.787C79.2041 193.26 84.0457 192.065 88.7064 190.201C90.6602 189.371 92.4208 188.316 93.9881 187.037C94.6602 187.068 95.1004 186.787 95.3086 186.193C98.9481 183.237 101.442 179.511 102.791 175.014C100.471 171.071 97.7566 167.345 94.6483 163.834C94.2042 163.191 93.9842 162.488 93.9881 161.725C93.0546 161.651 92.1743 161.792 91.3473 162.147C85.6711 162.928 79.9493 163.209 74.1816 162.99C71.7595 162.685 69.4117 162.122 67.1393 161.303C66.4579 160.061 65.4306 159.64 64.0583 160.037C64.7563 160.743 65.0499 161.587 64.9385 162.569C64.3342 162.635 63.7471 162.564 63.178 162.358C59.402 157.433 56.0274 152.3 53.0546 146.959C51.1017 142.08 49.121 137.158 47.1127 132.194C47.2227 128.692 46.636 125.317 45.3521 122.069C44.8384 121.577 44.3252 121.085 43.8116 120.592C40.3045 118.77 36.7833 116.942 33.2481 115.108C30.2459 114.089 27.1648 113.667 24.005 113.842C22.2242 115.394 20.3171 116.73 18.2832 117.85C17.9896 117.85 17.843 117.991 17.843 118.272C16.7145 118.474 15.6141 118.755 14.5419 119.116C13.762 123.049 12.295 126.705 10.1405 130.085C6.75663 134.888 3.16196 139.529 -0.643091 144.006C-1.58192 144.677 -2.3152 145.521 -2.84382 146.538C-3.13739 146.538 -3.28396 146.678 -3.28396 146.959C-5.6559 148.671 -7.56305 150.781 -9.00585 153.287C-9.15242 153.287 -9.29943 153.287 -9.44599 153.287C-13.3039 156.421 -16.6785 159.937 -19.5693 163.834C-20.2595 162.809 -20.9197 162.809 -21.55 163.834C-21.6723 163.448 -21.8924 163.167 -22.2102 162.99C-19.2859 159.764 -16.3514 156.53 -13.4073 153.287C-7.21182 146.925 -1.48993 140.175 3.75836 133.038C7.30989 128.909 10.3174 124.409 12.7813 119.538C12.9279 117.147 13.0749 114.757 13.2215 112.366C14.1423 113.578 14.5824 114.984 14.5419 116.585C14.7888 116.805 15.0824 116.945 15.4222 117.006C18.8457 115.684 22.0002 113.997 24.8853 111.944C27.5266 111.423 30.1675 111.493 32.8079 112.155C37.0003 114.093 40.8146 116.553 44.2517 119.538C45.7051 121.003 47.0986 122.55 48.4331 124.178C48.9542 126.268 49.3944 128.378 49.7535 130.506C50.7342 131.187 51.8345 131.468 53.0546 131.35C53.0546 131.772 53.0546 132.194 53.0546 132.616C52.3068 132.548 51.5731 132.618 50.8539 132.827C53.6127 136.116 57.1339 137.242 61.4174 136.202C66.1582 134.61 70.3396 132.149 73.9615 128.819C74.1657 128.568 74.2393 128.287 74.1816 127.975C75.1882 126.434 75.9954 124.747 76.6024 122.913C79.0205 113.446 78.874 104.024 76.1622 94.6473C75.6966 93.2694 75.0364 92.0038 74.1816 90.8504C74.2507 90.2712 74.1772 89.7084 73.9615 89.1629C71.9351 86.5731 70.3211 83.7605 69.1199 80.7255C67.5913 79.4666 65.9042 78.4824 64.0583 77.7724C62.2022 76.2305 60.0014 75.3163 57.4561 75.0302C55.817 74.4147 54.2765 73.641 52.8346 72.71C47.5273 76.2752 43.0523 80.6344 39.4101 85.788C38.8991 87.5999 38.8256 89.4283 39.19 91.2723C41.2125 95.0088 43.1197 98.8057 44.9119 102.663C45.1311 103.921 45.2046 105.186 45.132 106.46C46.6017 106.624 48.0691 106.835 49.5335 107.092C50.1818 107.392 50.4754 107.884 50.4138 108.569C44.8961 108.758 39.4673 108.195 34.1284 106.882C33.2415 106.281 32.2146 106 31.0474 106.038C23.8422 104.699 16.6533 103.222 9.48025 101.608C5.82836 101.575 2.3072 101.083 -1.08324 100.132C-2.16995 99.7869 -3.34338 99.576 -4.6044 99.4988C-4.05994 99.4009 -3.61979 99.19 -3.28396 98.866C-1.97145 98.5855 -0.577949 98.445 0.897418 98.4441C4.49428 98.6175 8.08895 98.8285 11.681 99.0769C20.5605 100.834 29.3634 102.803 38.0897 104.983C39.8353 105.332 41.5959 105.543 43.3714 105.616C43.1263 103.007 42.4661 100.476 41.3908 98.0223C35.3265 91.3588 35.3265 84.7497 41.3908 78.1943C44.7112 74.4843 48.8926 72.2341 53.9349 71.4443C59.7233 72.3581 64.858 74.6084 69.34 78.1943C73.2014 83.2036 76.5025 88.5474 79.2433 94.2254C79.5632 96.2559 80.0769 98.2243 80.7838 100.132Z" fill="#101310"/>
<path fill-rule="evenodd" clip-rule="evenodd" d="M24.8854 111.944C22.0002 113.997 18.8457 115.684 15.4223 117.006C15.0825 116.945 14.7889 116.805 14.542 116.584C14.5825 114.984 14.1423 113.578 13.2215 112.366C13.075 114.756 12.9279 117.147 12.7814 119.537C10.3174 124.409 7.30993 128.908 3.7584 133.037C4.15233 131.506 4.73905 130.029 5.51898 128.608C5.42699 127.818 4.98685 127.326 4.19855 127.131C3.6893 125.746 3.6158 124.339 3.97848 122.912C4.44591 123.979 4.81255 125.104 5.07884 126.287C5.51678 124.055 5.66335 121.805 5.51898 119.537C7.57314 119.537 9.62686 119.537 11.681 119.537C11.0961 115.057 10.8029 110.557 10.8007 106.038C6.1057 106.038 1.41111 106.038 -3.28392 106.038C-3.28392 108.287 -3.28392 110.538 -3.28392 112.787C-5.63121 112.787 -7.97895 112.787 -10.3262 112.787C-10.2299 112.292 -10.3764 111.87 -10.7664 111.522C-11.0639 111.987 -11.3571 112.409 -11.6467 112.787C-11.6792 111.199 -11.019 109.933 -9.66603 108.991C-8.72103 109.402 -7.76724 109.332 -6.80508 108.78C-7.00623 108.605 -7.15324 108.394 -7.24523 108.147C-7.02868 106.327 -6.44196 104.639 -5.48465 103.084C-5.12021 102.698 -4.68006 102.417 -4.16421 102.241C0.822635 102.171 5.8108 102.522 10.8007 103.295C15.4733 104.341 20.1679 105.255 24.8854 106.038C24.8854 108.006 24.8854 109.975 24.8854 111.944Z" fill="#B5DAB6"/>
<path fill-rule="evenodd" clip-rule="evenodd" d="M3.75846 133.037C-1.48983 140.175 -7.21172 146.925 -13.4072 153.287C-14.7998 153.312 -16.1203 153.593 -17.3685 154.131C-17.3685 154.553 -17.3685 154.975 -17.3685 155.397C-18.7189 155.377 -20.0393 155.166 -21.3298 154.764C-21.6982 154.337 -21.8448 153.845 -21.77 153.287C-22.6503 153.287 -23.5305 153.287 -24.4108 153.287C-24.4108 154.131 -24.4108 154.975 -24.4108 155.818C-22.9733 155.79 -22.3131 156.493 -22.4302 157.928C-21.9799 159.538 -22.2 161.015 -23.0904 162.357C-25.8325 161.933 -28.6199 161.723 -31.4532 161.725C-31.6539 163.251 -30.9936 164.236 -29.4725 164.678C-29.2551 165.367 -29.182 166.07 -29.2524 166.787C-29.9672 166.728 -30.4804 167.009 -30.7929 167.631C-33.2815 167.486 -35.8493 167.205 -38.4955 166.787C-38.4955 164.537 -38.4955 162.287 -38.4955 160.037C-36.1482 160.037 -33.8005 160.037 -31.4532 160.037C-31.4532 153.85 -31.4532 147.662 -31.4532 141.475C-31.4532 140.912 -31.4532 140.35 -31.4532 139.787C-30.936 139.88 -30.4958 139.739 -30.1327 139.365C-29.5874 138.069 -28.7806 136.944 -27.7119 135.99C-27.2313 134.917 -26.9377 133.792 -26.8316 132.616C-26.0838 132.998 -25.2766 133.138 -24.4108 133.037C-24.483 131.904 -24.4095 130.779 -24.1908 129.662C-22.7968 128.889 -21.6965 127.834 -20.8897 126.498C-21.0362 126.358 -21.1833 126.217 -21.3298 126.077C-20.5913 125.151 -20.1511 124.096 -20.0094 122.912C-19.6207 121.561 -18.887 120.436 -17.8087 119.537C-17.2219 119.537 -16.6348 119.537 -16.0481 119.537C-16.1172 118.958 -16.0437 118.395 -15.828 117.85C-15.5344 117.288 -15.2413 117.288 -14.9477 117.85C-14.6541 116.725 -14.361 116.725 -14.0674 117.85C-13.5538 116.795 -13.0406 115.741 -12.5269 114.686C-13.0291 113.748 -12.7355 113.115 -11.6466 112.788C-11.357 112.409 -11.0639 111.987 -10.7663 111.522C-10.3764 111.87 -10.2298 112.292 -10.3262 112.788C-7.97889 112.788 -5.63116 112.788 -3.28387 112.788C-3.28387 110.538 -3.28387 108.287 -3.28387 106.038C1.41116 106.038 6.10575 106.038 10.8008 106.038C10.803 110.557 11.0961 115.057 11.6811 119.537C9.62691 119.537 7.5732 119.537 5.51904 119.537C5.66341 121.805 5.51684 124.055 5.07889 126.287C4.81261 125.105 4.44596 123.979 3.97853 122.912C3.61585 124.339 3.68936 125.746 4.1986 127.131C4.9869 127.326 5.42705 127.818 5.51904 128.608C4.7391 130.029 4.15239 131.506 3.75846 133.037Z" fill="#B4DCB5"/>
<path fill-rule="evenodd" clip-rule="evenodd" d="M74.1816 90.8506C75.0364 92.004 75.6966 93.2696 76.1623 94.6474C78.874 104.024 79.0206 113.446 76.6024 122.913C75.9955 124.747 75.1882 126.435 74.1816 127.975C74.4638 126.32 74.4638 124.703 74.1816 123.124C74.7146 121.284 75.4484 119.526 76.3823 117.85C75.9915 112.37 75.6979 106.956 75.5021 101.608C75.8524 101.148 76.146 100.655 76.3823 100.132C75.4629 98.3818 74.8027 96.5539 74.4017 94.6474C74.1825 93.3894 74.109 92.1238 74.1816 90.8506Z" fill="#B5D6B8"/>
<path fill-rule="evenodd" clip-rule="evenodd" d="M64.0583 77.7724C60.5116 76.4836 56.9174 75.3585 53.2747 74.3974C52.7611 74.4679 52.2479 74.5379 51.7342 74.6084C50.5493 75.6871 49.5225 76.8827 48.6532 78.1943C47.8508 78.7204 46.9705 79.0018 46.0123 79.038C46.0814 79.6173 46.0079 80.18 45.7923 80.7255C44.2051 82.235 42.9582 83.9225 42.051 85.788C42.838 85.9082 43.5717 85.7677 44.2517 85.3661C44.5453 84.8038 44.9855 84.3819 45.5722 84.1005C45.7188 86.0694 45.8658 88.0378 46.0123 90.0067C45.9221 93.7031 45.482 97.219 44.6919 100.553C45.8631 102.191 46.3033 104.02 46.0123 106.038C47.9476 106.006 49.8548 106.217 51.7342 106.671C52.7633 107.307 53.2034 108.221 53.0547 109.413C52.1211 109.339 51.2408 109.48 50.4138 109.835C48.3147 109.882 46.2606 109.601 44.2517 108.991C43.0779 109.131 41.9045 109.272 40.7306 109.413C37.8696 108.519 34.9352 108.097 31.9277 108.147C31.8124 108.771 31.9589 109.333 32.3678 109.835C34.5162 110.302 36.4233 111.216 38.0897 112.577C37.297 112.711 37.1504 112.992 37.6496 113.421C38.7693 113.881 39.9432 114.163 41.1707 114.264C42.0295 114.996 42.4696 115.91 42.4912 117.006C43.0083 116.914 43.4485 117.055 43.8116 117.428C43.7627 118.107 43.9093 118.81 44.2517 119.538C40.8147 116.553 37.0004 114.093 32.808 112.155C30.1675 111.493 27.5267 111.423 24.8854 111.944C24.8854 109.975 24.8854 108.007 24.8854 106.038C20.1679 105.255 15.4733 104.341 10.8007 103.296C5.81079 102.522 0.822628 102.171 -4.16422 102.241C-4.68007 102.418 -5.12021 102.699 -5.48465 103.085C-6.44197 104.64 -7.02868 106.327 -7.24523 108.147C-7.15324 108.394 -7.00623 108.605 -6.80509 108.78C-7.76724 109.332 -8.72104 109.403 -9.66603 108.991C-11.019 109.933 -11.6793 111.199 -11.6467 112.788C-12.7356 113.115 -13.0292 113.748 -12.527 114.686C-13.0406 115.741 -13.5538 116.796 -14.0675 117.85C-14.3611 116.725 -14.6542 116.725 -14.9478 117.85C-15.2413 117.288 -15.5345 117.288 -15.8281 117.85C-16.0437 118.396 -16.1172 118.958 -16.0481 119.538C-16.6348 119.538 -17.222 119.538 -17.8087 119.538C-17.5688 118.655 -17.2022 117.811 -16.7084 117.006C-12.7642 111.484 -8.87641 105.929 -5.04451 100.343C-3.73199 100.132 -2.41156 100.062 -1.0832 100.132C2.30724 101.083 5.8284 101.575 9.48028 101.608C16.6533 103.222 23.8422 104.699 31.0474 106.038C31.9004 106.739 32.9277 107.02 34.1284 106.882C39.4674 108.195 44.8961 108.758 50.4138 108.569C50.4754 107.884 50.1818 107.392 49.5335 107.093C48.0691 106.835 46.6017 106.624 45.132 106.46C45.2047 105.186 45.1312 103.921 44.912 102.663C43.1197 98.8057 41.2125 95.0088 39.1901 91.2723C38.8256 89.4283 38.8991 87.5999 39.4102 85.788C43.0524 80.6344 47.5273 76.2752 52.8346 72.71C54.2765 73.641 55.817 74.4147 57.4561 75.0303C60.0015 75.3163 62.2022 76.2305 64.0583 77.7724Z" fill="#B6D5B8"/>
<path fill-rule="evenodd" clip-rule="evenodd" d="M31.0474 106.038C32.2146 106 33.2415 106.281 34.1284 106.882C32.9277 107.021 31.9004 106.74 31.0474 106.038Z" fill="#5B735C"/>
<path fill-rule="evenodd" clip-rule="evenodd" d="M80.7838 100.131C81.2011 103.079 81.4942 106.103 81.6641 109.202C81.6624 110.198 81.5158 111.111 81.224 111.944C80.9234 108.013 80.7764 104.075 80.7838 100.131Z" fill="#444347"/>
<path fill-rule="evenodd" clip-rule="evenodd" d="M53.0547 146.959C52.2276 146.604 51.3474 146.463 50.4138 146.537C50.5555 145.6 50.262 144.826 49.5335 144.217C49.6801 144.076 49.8271 143.936 49.9737 143.795C48.6035 142.895 47.4301 143.106 46.4525 144.428C46.0172 142.906 45.8702 141.359 46.0124 139.787C46.5991 139.787 47.1862 139.787 47.7729 139.787C47.1017 135.3 46.2214 130.8 45.1321 126.287C44.5277 126.354 43.9406 126.283 43.3715 126.076C42.1201 125.017 41.0198 123.822 40.0704 122.491C39.8882 122.683 39.6681 122.824 39.4102 122.912C38.9758 121.534 38.8292 120.127 38.97 118.694C37.1157 118.625 35.3551 118.907 33.6883 119.537C30.778 118.978 27.844 118.556 24.8854 118.272C23.8044 117.183 22.704 117.183 21.5843 118.272C20.5772 117.362 19.4769 117.221 18.2832 117.85C20.3171 116.73 22.2243 115.393 24.0051 113.842C27.1649 113.667 30.2459 114.089 33.2481 115.108C36.7834 116.942 40.3045 118.77 43.8116 120.592C44.3253 121.084 44.8385 121.576 45.3521 122.069C46.636 125.317 47.2228 128.692 47.1127 132.194C49.1211 137.158 51.1018 142.08 53.0547 146.959Z" fill="#B5D7B7"/>
<path fill-rule="evenodd" clip-rule="evenodd" d="M53.0547 146.959C52.9821 148.232 53.0556 149.498 53.2748 150.756C54.7559 151.89 55.9293 153.297 56.796 154.975C57.0081 156.511 57.3012 158.058 57.6763 159.615C58.4241 159.998 59.2313 160.138 60.0971 160.037C60.311 161.728 61.0447 163.205 62.2978 164.467C63.1781 164.748 64.0584 164.748 64.9386 164.467C65.5403 163.34 65.9805 162.144 66.2591 160.881C66.5597 161.034 66.8533 161.175 67.1394 161.303C67.0817 161.672 67.2283 161.954 67.5795 162.147C69.0901 162.982 70.7037 163.615 72.4211 164.045C71.223 164.582 70.6359 165.496 70.6605 166.787C71.8344 166.787 73.0078 166.787 74.1817 166.787C74.1817 165.943 74.1817 165.1 74.1817 164.256C78.8767 164.256 83.5713 164.256 88.2663 164.256C88.2663 165.1 88.2663 165.943 88.2663 166.787C88.8531 166.787 89.4402 166.787 90.0269 166.787C88.8293 163.856 89.8561 162.73 93.1079 163.412C93.052 164.431 92.979 165.416 92.8879 166.365C93.9359 166.76 95.0362 166.9 96.189 166.787C96.1172 167.781 96.1903 168.766 96.409 169.74C99.1498 170.759 100.544 172.728 100.59 175.646C100.517 176.35 100.444 177.053 100.37 177.756C99.6996 178.79 98.9658 179.775 98.1696 180.709C98.1313 182.007 97.5442 182.992 96.409 183.662C96.0692 183.601 95.7757 183.46 95.5287 183.24C95.31 184.215 95.2369 185.199 95.3087 186.193C95.1005 186.786 94.6603 187.068 93.9882 187.037C92.1977 187.817 90.2906 188.239 88.2663 188.303C88.2663 187.881 88.2663 187.459 88.2663 187.037C87.0925 187.037 85.919 187.037 84.7452 187.037C84.7351 187.923 85.0286 188.696 85.6255 189.357C84.8768 190.714 83.7764 191.066 82.3244 190.412C81.5907 190.834 80.8574 191.256 80.1237 191.678C78.2658 191.153 76.2852 191.153 74.1817 191.678C74.1817 192.381 74.1817 193.084 74.1817 193.787C72.01 194.498 69.7358 195.061 67.3594 195.474C61.8805 194.202 56.3787 193.006 50.854 191.889C47.7985 190.38 44.5705 189.255 41.1708 188.514C40.408 188.012 39.6743 187.52 38.9701 187.037C38.9701 186.475 38.9701 185.912 38.9701 185.349C37.8151 184.527 36.4947 183.894 35.0088 183.451C34.9533 182.509 35.0999 181.524 35.4489 180.498C33.4727 180.054 33.1795 180.616 34.5686 182.185C34.4221 182.256 34.2751 182.326 34.1285 182.396C33.6514 181.905 33.2847 181.343 33.0281 180.709C32.8459 180.902 32.6258 181.043 32.3679 181.131C31.8556 178.611 31.7825 176.08 32.1478 173.537C33.4414 170.439 35.1285 170.298 37.2095 173.115C38.4982 173.53 39.8187 173.671 41.1708 173.537C40.9983 172.421 40.9983 171.366 41.1708 170.373C40.5392 170.504 39.9525 170.434 39.4102 170.162C38.5938 168.79 37.5669 167.595 36.3292 166.576C37.0929 166.302 37.8266 166.372 38.5299 166.787C38.9679 164.555 39.1144 162.305 38.9701 160.037C38.2364 160.037 37.5031 160.037 36.7694 160.037C36.6514 161.142 36.798 162.197 37.2095 163.201C36.8966 163.731 36.5299 164.223 36.1091 164.678C35.2306 163.24 34.717 161.693 34.5686 160.037C33.6883 160.037 32.808 160.037 31.9278 160.037C29.2438 155.415 27.3362 150.493 26.2059 145.272C26.944 143.565 27.2376 141.737 27.0862 139.787C28.7002 139.787 30.3137 139.787 31.9278 139.787C31.9278 137.538 31.9278 135.287 31.9278 133.037C27.8199 133.037 23.7116 133.037 19.6037 133.037C19.5236 135.007 19.5236 136.906 19.6037 138.733C19.0601 139.984 18.4734 141.179 17.8431 142.319C16.4571 142.197 15.1367 142.408 13.8818 142.951C13.1881 143.828 12.3078 144.46 11.2409 144.85C10.832 145.351 10.6855 145.914 10.8008 146.537C8.24531 146.978 5.751 147.681 3.31832 148.647C3.15899 146.599 2.57227 144.701 1.55774 142.951C1.94727 142.041 2.68099 141.69 3.75847 141.897C3.75847 141.193 3.75847 140.491 3.75847 139.787C6.10576 139.787 8.45349 139.787 10.8008 139.787C10.8008 136.975 10.8008 134.163 10.8008 131.35C13.1481 131.35 15.4958 131.35 17.8431 131.35C17.9884 128.663 17.8414 125.991 17.403 123.334C16.7471 124.02 16.0869 124.723 15.4223 125.444C15.3479 123.477 15.421 121.508 15.6424 119.538C16.3761 119.538 17.1094 119.538 17.8431 119.538C17.8431 119.116 17.8431 118.694 17.8431 118.272C17.8431 117.99 17.9897 117.85 18.2833 117.85C19.4769 117.221 20.5773 117.362 21.5843 118.272C22.7041 117.183 23.8044 117.183 24.8854 118.272C27.8441 118.556 30.7781 118.978 33.6883 119.538C35.3552 118.907 37.1157 118.625 38.9701 118.694C38.8292 120.127 38.9758 121.534 39.4102 122.912C39.6682 122.824 39.8882 122.683 40.0704 122.491C41.0198 123.822 42.1202 125.017 43.3715 126.077C43.9406 126.283 44.5278 126.354 45.1321 126.287C46.2215 130.8 47.1018 135.3 47.773 139.787C47.1863 139.787 46.5991 139.787 46.0124 139.787C45.8702 141.359 46.0172 142.906 46.4525 144.428C47.4301 143.106 48.6035 142.895 49.9737 143.795C49.8271 143.936 49.6801 144.077 49.5336 144.217C50.262 144.826 50.5556 145.6 50.4139 146.537C51.3474 146.463 52.2277 146.604 53.0547 146.959Z" fill="#B4DCB5"/>
<path fill-rule="evenodd" clip-rule="evenodd" d="M50.4138 109.835C49.0384 110.248 47.5714 110.388 46.0124 110.256C46.0124 110.678 46.0124 111.1 46.0124 111.522C48.3548 111.32 50.7021 111.179 53.0547 111.1C53.0547 111.663 53.0547 112.225 53.0547 112.788C50.7074 112.788 48.3597 112.788 46.0124 112.788C46.0124 113.35 46.0124 113.913 46.0124 114.475C45.2888 114.385 44.6286 114.526 44.0317 114.897C43.9771 115.925 44.1972 116.909 44.6919 117.85C45.1321 117.85 45.5722 117.85 46.0124 117.85C46.0124 118.412 46.0124 118.975 46.0124 119.538C48.3597 119.538 50.7074 119.538 53.0547 119.538C53.2435 121.887 52.9499 124.138 52.1744 126.288C51.5877 126.288 51.0005 126.288 50.4138 126.288C50.3434 127.004 50.4165 127.708 50.6339 128.397C52.1744 128.675 52.8346 127.972 52.6146 126.288C59.3699 126.147 66.1186 126.288 72.8612 126.709C73.1641 127.281 73.6042 127.703 74.1817 127.975C74.2393 128.287 74.1658 128.568 73.9616 128.819C70.3396 132.149 66.1583 134.61 61.4175 136.202C57.134 137.241 53.6128 136.116 50.854 132.827C51.5732 132.618 52.3069 132.548 53.0547 132.616C53.0547 132.194 53.0547 131.772 53.0547 131.35C51.8346 131.468 50.7343 131.187 49.7536 130.506C49.3944 128.378 48.9543 126.268 48.4332 124.178C47.0987 122.55 45.7052 121.003 44.2518 119.538C43.9094 118.81 43.7628 118.107 43.8116 117.428C43.4485 117.054 43.0084 116.914 42.4912 117.006C42.4696 115.91 42.0295 114.996 41.1708 114.264C39.9432 114.163 38.7693 113.881 37.6496 113.42C37.1505 112.992 37.2971 112.71 38.0898 112.577C36.4234 111.216 34.5162 110.302 32.3679 109.835C31.959 109.333 31.8124 108.771 31.9277 108.147C34.9352 108.097 37.8697 108.519 40.7306 109.413C41.9045 109.272 43.0779 109.131 44.2518 108.991C46.2606 109.601 48.3148 109.882 50.4138 109.835Z" fill="#B5D9B6"/>
<path fill-rule="evenodd" clip-rule="evenodd" d="M17.843 118.271C17.843 118.693 17.843 119.115 17.843 119.537C17.1093 119.537 16.376 119.537 15.6423 119.537C15.4209 121.508 15.3478 123.477 15.4222 125.443C16.0869 124.723 16.7471 124.02 17.4029 123.334C17.8413 125.991 17.9883 128.663 17.843 131.35C15.4957 131.35 13.148 131.35 10.8007 131.35C10.8007 134.162 10.8007 136.974 10.8007 139.787C8.45341 139.787 6.10568 139.787 3.75839 139.787C3.75839 140.49 3.75839 141.193 3.75839 141.896C2.68091 141.69 1.94719 142.041 1.55766 142.951C2.57219 144.7 3.15891 146.599 3.31824 148.646C5.75092 147.681 8.24523 146.978 10.8007 146.537C10.6854 145.913 10.832 145.351 11.2409 144.849C12.3078 144.46 13.1881 143.827 13.8817 142.951C15.1366 142.407 16.457 142.196 17.843 142.318C18.4733 141.179 19.06 139.984 19.6036 138.732C19.5235 136.905 19.5235 135.007 19.6036 133.037C23.7115 133.037 27.8198 133.037 31.9277 133.037C31.9277 135.287 31.9277 137.537 31.9277 139.787C30.3137 139.787 28.7001 139.787 27.0861 139.787C27.2375 141.737 26.9439 143.565 26.2058 145.271C25.6965 144.101 25.403 142.836 25.3255 141.474C25.3255 139.927 25.3255 138.381 25.3255 136.834C24.8854 136.834 24.4452 136.834 24.0051 136.834C24.0051 137.256 24.0051 137.678 24.0051 138.099C23.7119 139.865 23.4184 141.693 23.1248 143.584C22.5979 142.138 21.9377 140.732 21.1441 139.365C20.6569 140.515 20.2898 141.71 20.0438 142.951C15.2809 145.133 10.4393 147.102 5.51897 148.857C4.35434 149.067 3.18047 149.137 1.9978 149.068C1.9956 147.366 1.84904 145.679 1.55766 144.006C0.970946 144.006 0.383792 144.006 -0.202921 144.006C-0.34949 144.006 -0.496498 144.006 -0.643066 144.006C3.16199 139.528 6.75665 134.887 10.1405 130.084C12.295 126.705 13.762 123.048 14.5419 119.115C15.6141 118.755 16.7145 118.474 17.843 118.271Z" fill="#B6D7B8"/>
<path fill-rule="evenodd" clip-rule="evenodd" d="M-2.60434 32.5776C-1.90627 32.9658 -1.24606 32.9658 -0.623691 32.5776C-0.403619 32.7902 -0.183546 33.0028 0.0365266 33.2153C-0.331875 33.6452 -0.478443 34.1413 -0.403619 34.7033C0.164609 34.6026 0.604754 34.7442 0.916817 35.1285C0.480193 35.0554 0.187056 35.1974 0.0365266 35.5536C-0.337157 36.6314 -0.777302 37.6942 -1.28391 38.7422C-0.777742 39.7268 -0.04402 40.5065 0.916817 41.0805C1.1008 41.3874 1.39393 41.6 1.79711 41.7182C1.42871 42.148 1.28214 42.6441 1.35696 43.2062C-1.51851 41.208 -4.45295 39.2949 -7.44594 37.4668C-9.93012 36.9574 -12.2779 36.1777 -14.4883 35.1285C-21.4531 36.3669 -27.6152 39.2013 -32.9744 43.6313C-32.9744 43.2062 -32.9744 42.781 -32.9744 42.3559C-31.9105 41.1995 -30.5901 40.3492 -29.0131 39.8051C-28.8665 39.3799 -28.7195 38.9548 -28.5729 38.5296C-30.0654 35.7441 -29.1852 34.0435 -25.932 33.4279C-25.932 33.9946 -25.6385 34.2782 -25.0518 34.2782C-26.3467 34.7637 -27.5201 35.4724 -28.5729 36.4039C-28.1596 37.0642 -27.646 37.6313 -27.0324 38.1045C-23.0927 36.7296 -19.2049 35.3126 -15.3686 33.8531C-14.1859 33.7833 -13.012 33.8543 -11.8474 34.0656C-8.9574 35.5328 -6.02295 36.8788 -3.04449 38.1045C-2.60434 37.9629 -2.1642 37.8209 -1.72405 37.6793C-0.963043 35.7547 -1.25618 34.0542 -2.60434 32.5776Z" fill="#20170B"/>
<path fill-rule="evenodd" clip-rule="evenodd" d="M0.476647 52.5596C0.993377 52.9907 1.28651 53.5574 1.35694 54.2601C1.06336 54.2601 0.770224 54.2601 0.476647 54.2601C0.427791 53.9978 0.281222 53.7853 0.0365014 53.6224C-0.831905 53.412 -1.7122 53.341 -2.60437 53.4099C-1.57751 53.1263 -0.550212 52.8431 0.476647 52.5596Z" fill="#656E7A"/>
<path fill-rule="evenodd" clip-rule="evenodd" d="M-2.60429 53.4097C-1.71211 53.3408 -0.831824 53.4118 0.0365826 53.6223C0.281303 53.7851 0.427872 53.9977 0.476728 54.26C0.105685 55.6685 -0.481468 56.9439 -1.28385 58.0863C-1.57743 58.0863 -1.724 57.9447 -1.724 57.6611C-1.724 57.0944 -2.01757 56.8109 -2.60429 56.8109C-2.89038 55.9882 -3.03695 55.1379 -3.04443 54.26C-2.89787 53.9764 -2.75086 53.6933 -2.60429 53.4097Z" fill="#250F0F"/>
<path fill-rule="evenodd" clip-rule="evenodd" d="M-1.28389 76.3677C-0.279042 76.4136 0.601249 76.7677 1.35698 77.4305C0.564277 77.5653 0.417708 77.8489 0.916833 78.2808C-0.193213 78.8509 -1.36708 79.2051 -2.60433 79.3437C-2.88646 78.9262 -3.1796 78.501 -3.48462 78.0682C-2.63822 77.7247 -1.75793 77.5122 -0.843748 77.4305C-1.17474 77.1453 -1.32175 76.7911 -1.28389 76.3677Z" fill="#711B21"/>
</g>
</g>
<defs>
<clipPath id="clip0_639_5318">
<rect width="135" height="130" fill="white"/>
</clipPath>
<clipPath id="clip1_639_5318">
<rect width="346" height="281" fill="white" transform="translate(-241 -76)"/>
</clipPath>
</defs>
</svg>
