<svg width="135" height="130" viewBox="0 0 135 130" fill="none" xmlns="http://www.w3.org/2000/svg">
<g clip-path="url(#clip0_639_5315)">
<rect x="-133.5" y="1.5" width="402" height="387" rx="18.5" fill="#FDFFEF" stroke="black" stroke-width="3"/>
<g clip-path="url(#clip1_639_5315)">
<path fill-rule="evenodd" clip-rule="evenodd" d="M87.2614 133.101C86.1708 132.821 84.9969 132.68 83.7403 132.679C81.9933 132.592 80.3798 132.873 78.8987 133.523C76.5914 134.206 74.3907 135.121 72.2965 136.265C68.315 138.806 64.0601 140.775 59.5323 142.171C58.8518 143.123 58.1186 144.037 57.3316 144.913C61.299 144.775 65.2603 144.986 69.2155 145.546C72.3656 146.248 75.4466 147.162 78.4585 148.288C79.9797 148.235 81.007 147.532 81.5396 146.179C81.9696 145.003 82.1161 143.737 81.9797 142.382C83.3001 142.382 84.6206 142.382 85.941 142.382C90.7558 142.687 94.2034 144.937 96.2844 149.132C98.1498 154.017 98.0032 158.798 95.8443 163.476C95.2699 164.656 94.6097 165.781 93.8636 166.851C95.615 168.795 97.1555 170.905 98.4852 173.179C98.8443 173.737 99.358 174.018 100.026 174.022C100.026 174.444 100.026 174.866 100.026 175.288C99.6304 176.303 98.9702 177.146 98.045 177.819C97.1493 179.111 96.6361 180.517 96.5045 182.038C96.0644 182.038 95.6242 182.038 95.1841 182.038C94.0797 184.589 93.3465 187.261 92.9833 190.053C92.8368 190.053 92.6898 190.053 92.5432 190.053C92.2496 189.913 91.9565 189.772 91.6629 189.632C91.9314 187.285 92.5916 185.035 93.6436 182.882C95.328 180.423 97.0151 177.962 98.7052 175.499C96.2554 172.727 93.6145 170.055 90.7826 167.483C88.9697 166.517 87.3556 165.322 85.941 163.897C86.4793 163.427 87.066 163.357 87.7016 163.686C89.1448 164.624 90.6853 165.398 92.3231 166.007C94.4098 164.083 95.5102 161.692 95.6242 158.835C95.7386 154.457 94.5652 150.449 92.103 146.812C89.3059 145.05 86.2249 143.995 82.86 143.648C82.9498 145.725 82.2896 147.553 80.8793 149.132C80.5858 149.554 80.5858 149.976 80.8793 150.398C83.6593 152.57 86.2271 154.96 88.5819 157.569C88.3609 158 88.0678 158.071 87.7016 157.78C85.323 155.079 82.5352 152.83 79.3388 151.03C78.0373 150.755 76.937 151.107 76.0377 152.085C75.8252 152.485 75.7521 152.907 75.8177 153.351C76.698 153.351 77.5783 153.351 78.4585 153.351C78.4585 153.913 78.4585 154.476 78.4585 155.038C75.521 154.948 72.5866 154.808 69.6556 154.616C68.6288 154.616 67.6015 154.616 66.5746 154.616C66.4237 155.453 66.7172 156.016 67.4549 156.304C67.6015 156.726 67.8951 157.007 68.3352 157.147C68.8128 158.028 69.546 158.59 70.5359 158.835C73.2041 161.98 75.1847 165.495 76.4779 169.382C77.628 173.138 78.6548 176.935 79.5589 180.772C80.8481 188.656 79.5277 196.109 75.5976 203.131C73.061 206.565 69.9065 209.378 66.1345 211.569C65.748 213.477 65.1609 215.305 64.3739 217.053C65.1662 218.919 65.4597 220.888 65.2542 222.959C64.7207 223.267 64.2806 223.689 63.9338 224.225C63.6758 224.137 63.4558 223.996 63.2735 223.803C63.0539 221.839 62.9804 219.871 63.0535 217.897C62.1296 218.205 61.2493 218.205 60.4126 217.897C62.8761 217.225 64.1965 215.678 64.3739 213.256C61.0935 214.299 58.0125 215.705 55.1308 217.475C54.1203 217.347 53.9737 216.925 54.6907 216.209C58.0516 214.599 61.4258 212.982 64.814 211.358C65.9126 210.796 66.7929 210.023 67.4549 209.038C67.7802 209.093 68.0738 209.022 68.3352 208.827C71.6807 205.153 74.028 201.004 75.3775 196.382C77.2006 192.237 77.8608 187.878 77.3582 183.304C76.0967 177.202 74.6297 171.155 72.9567 165.163C72.0527 163.359 71.0989 161.601 70.0958 159.89C65.4725 157.707 61.071 155.176 56.8914 152.296C56.0521 151.823 55.1718 151.471 54.2506 151.241C54.2506 151.101 54.2506 150.96 54.2506 150.819C53.2035 150.036 52.0296 149.474 50.7294 149.132C48.563 149.96 46.3623 150.664 44.1272 151.241C44.0616 151.685 44.1347 152.107 44.3473 152.507C46.4829 154.492 47.8033 156.883 48.3086 159.679C48.6022 160.944 48.6022 162.21 48.3086 163.476C47.8108 159.273 45.9767 155.687 42.8068 152.718C39.9665 152.703 37.1791 153.054 34.444 153.772C34.628 153.468 34.9211 153.257 35.3243 153.14C34.7552 152.933 34.168 152.863 33.5637 152.929C34.1857 152.323 34.9194 151.901 35.7645 151.663C42.066 149.617 48.3751 147.367 54.6907 144.913C57.141 142.283 59.0481 139.33 60.4126 136.054C61.2806 134.964 61.7207 133.698 61.733 132.257C62.1785 131.094 62.6186 129.969 63.0535 128.882C63.9016 127.77 64.1217 126.504 63.7137 125.085C63.4232 124.316 62.9095 123.753 62.1732 123.398C61.5865 121.992 60.5592 121.007 59.0922 120.445C58.4187 119.666 57.5384 119.244 56.4513 119.179C55.0124 119.626 54.2792 120.61 54.2506 122.132C52.4975 123.798 51.177 125.767 50.2892 128.038C50.1427 128.038 49.9957 128.038 49.8491 128.038C49.089 129.347 48.2087 130.613 47.2082 131.835C43.6849 132.467 41.1906 131.201 39.7258 128.038C39.4476 126.38 38.7139 124.973 37.525 123.82C36.9304 122.114 35.9031 120.708 34.444 119.601C33.6478 118.409 32.5474 117.565 31.1429 117.07C30.5663 117.335 30.1993 117.757 30.0426 118.335C29.6165 119.224 29.4695 120.209 29.6024 121.288C29.1623 121.288 28.7221 121.288 28.282 121.288C28.2314 118.922 28.8181 116.742 30.0426 114.749C29.6363 113.888 29.4897 112.974 29.6024 112.007C29.775 111.299 29.995 110.596 30.2626 109.898C32.7996 106.203 35.1469 102.406 37.305 98.5073C38.6456 96.8742 40.0391 95.3273 41.4863 93.8667C42.0731 93.1636 42.0731 92.4605 41.4863 91.7573C40.6782 91.5348 39.9445 91.2535 39.2856 90.9136C39.2368 90.6531 39.0902 90.4422 38.8455 90.2808C39.7139 90.0718 40.5942 90.0015 41.4863 90.0699C41.7799 90.0699 42.0731 90.0699 42.3666 90.0699C44.1149 90.6113 45.7285 91.455 47.2082 92.6011C47.6858 93.4815 48.4191 94.044 49.409 94.2886C49.5458 94.7011 49.8394 94.9823 50.2892 95.1323C50.9869 92.9832 50.6937 91.0144 49.409 89.2261C49.0362 87.4123 48.743 85.5842 48.5287 83.7418C49.2765 83.6742 50.0102 83.7445 50.7294 83.9527C52.2968 85.249 53.9108 86.4442 55.571 87.5386C55.9231 88.484 56.6564 88.9059 57.7717 88.8042C57.4161 86.5624 56.5358 84.5936 55.1308 82.898C54.8373 82.1949 54.5441 81.4918 54.2506 80.7887C53.9953 79.84 53.4086 79.1369 52.49 78.6793C52.3434 78.6793 52.1964 78.6793 52.0498 78.6793C51.6282 78.0627 51.115 77.5002 50.5093 76.9918C50.2919 76.3025 50.2188 75.5993 50.2892 74.8825C51.4631 74.8825 52.6365 74.8825 53.8104 74.8825C55.3285 75.6964 56.9425 75.9777 58.652 75.7262C58.4958 75.2949 58.2022 75.0137 57.7717 74.8825C56.6185 74.1815 55.4447 73.4784 54.2506 72.7731C52.8315 71.9482 51.3645 71.1044 49.8491 70.2419C46.7716 68.7307 43.544 67.6057 40.1659 66.8669C38.3248 66.1715 36.4172 65.609 34.444 65.1794C33.6896 64.657 32.8093 64.3758 31.8031 64.3357C31.6192 64.0313 31.326 63.8203 30.9229 63.7029C29.6103 63.4928 28.2899 63.4225 26.9616 63.4919C24.3673 62.8776 21.7265 62.5963 19.0389 62.6482C17.1375 62.3673 15.1569 62.2267 13.097 62.2263C10.2739 62.1371 7.55951 62.4184 4.95429 63.0701C3.63606 62.9831 2.46219 63.2643 1.43313 63.9138C0.992983 63.9138 0.552838 63.9138 0.112693 63.9138C-1.98416 64.0273 -3.89131 64.5897 -5.60919 65.6013C-11.3091 66.6369 -15.784 69.4494 -19.0336 74.0387C-20.0776 75.4773 -20.8844 77.0241 -21.4544 78.6793C-22.2669 79.9618 -22.8536 81.368 -23.215 82.898C-23.215 83.3199 -23.215 83.7418 -23.215 84.1637C-23.5838 84.3078 -23.7309 84.5891 -23.6551 85.0074C-24.2 85.7306 -24.4936 86.5744 -24.5354 87.5386C-24.7357 86.0682 -24.8088 84.5214 -24.7555 82.898C-24.9021 82.7574 -25.0491 82.6168 -25.1957 82.4762C-25.5288 83.2417 -25.8955 83.9448 -26.296 84.5855C-26.2859 83.5618 -26.0658 82.5774 -25.6358 81.6324C-22.6798 76.4159 -18.9386 71.8456 -14.4121 67.9216C-3.15098 61.0057 9.17308 58.3339 22.5601 59.906C34.0818 62.1948 44.9388 66.1322 55.1308 71.7184C57.2581 73.4762 59.3857 75.234 61.513 76.9918C61.7255 77.3918 61.7986 77.8136 61.733 78.2574C59.2726 78.3001 56.8518 78.0189 54.4706 77.4137C54.104 77.5543 53.7369 77.695 53.3703 77.8356C57.1951 82.0109 59.5429 86.8624 60.4126 92.3901C60.3391 93.1636 60.266 93.937 60.1925 94.7104C57.2594 91.9325 54.1049 89.4013 50.7294 87.1168C50.5828 87.4683 50.4358 87.8199 50.2892 88.1714C51.4248 91.6775 52.1585 95.2634 52.49 98.9292C52.0269 98.992 51.5868 98.922 51.1695 98.7182C49.2333 96.5954 47.0326 94.7673 44.5674 93.2339C44.1272 92.9526 43.6871 92.9526 43.2469 93.2339C39.2619 98.4651 35.8138 104.019 32.9035 109.898C32.2477 111.85 31.734 113.819 31.363 115.804C34.0061 116.156 36.2068 117.281 37.9652 119.179C39.1439 122.78 40.5378 126.296 42.1466 129.726C43.5964 130.912 44.9168 130.771 46.1079 129.304C48.5674 125.61 51.2818 122.095 54.2506 118.757C56.5873 117.522 58.788 117.733 60.8527 119.39C65.0346 123.256 66.1349 127.827 64.1538 133.101C63.3057 135.425 62.3519 137.675 61.2929 139.851C67.1072 136.889 73.1227 134.287 79.3388 132.046C83.0268 131.858 86.6945 132.069 90.3425 132.679C89.3552 133.09 88.3284 133.231 87.2614 133.101Z" fill="#171613"/>
<path fill-rule="evenodd" clip-rule="evenodd" d="M26.9615 63.4917C28.2899 63.4223 29.6103 63.4925 30.9229 63.7026C31.326 63.8201 31.6192 64.031 31.8031 64.3354C30.0611 64.4404 28.4475 64.1592 26.9615 63.4917Z" fill="#3F3E0C"/>
<path fill-rule="evenodd" clip-rule="evenodd" d="M4.95427 63.0706C3.89572 63.6056 2.72185 63.8869 1.43311 63.9143C2.46216 63.2649 3.63603 62.9836 4.95427 63.0706Z" fill="#AAA82E"/>
<path fill-rule="evenodd" clip-rule="evenodd" d="M19.0389 62.6484C14.336 62.6019 9.64095 62.7425 4.95428 63.0703C7.5595 62.4186 10.2739 62.1374 13.097 62.2266C15.1568 62.2269 17.1375 62.3675 19.0389 62.6484Z" fill="#C3C03B"/>
<path fill-rule="evenodd" clip-rule="evenodd" d="M0.112696 63.9141C-1.69762 64.666 -3.60477 65.2286 -5.60919 65.6015C-3.89131 64.59 -1.98416 64.0275 0.112696 63.9141Z" fill="#7A7F1A"/>
<path fill-rule="evenodd" clip-rule="evenodd" d="M34.444 65.1792C36.4171 65.6087 38.3247 66.1712 40.1659 66.8667C38.0501 66.7927 36.1429 66.2303 34.444 65.1792Z" fill="#B9B833"/>
<path fill-rule="evenodd" clip-rule="evenodd" d="M19.0389 62.6483C21.7264 62.5964 24.3673 62.8777 26.9615 63.4921C28.4474 64.1596 30.061 64.4408 31.8031 64.3358C32.8093 64.3759 33.6896 64.6571 34.444 65.1796C36.1429 66.2306 38.0501 66.7931 40.1659 66.867C43.544 67.6058 46.7716 68.7308 49.849 70.242C50.8653 71.7171 52.3328 72.5609 54.2505 72.7732C54.2844 73.3005 54.578 73.652 55.1308 73.8279C53.5731 73.9469 52.0326 74.1578 50.5093 74.4607C50.1695 74.3996 49.8759 74.259 49.629 74.0389C48.7377 76.499 49.5445 78.0459 52.0498 78.6794C52.1963 78.6794 52.3433 78.6794 52.4899 78.6794C52.7452 79.6282 53.3319 80.3312 54.2505 80.7888C54.5441 81.4919 54.8372 82.195 55.1308 82.8982C55.4442 84.1511 55.8843 85.3464 56.4512 86.4841C56.3702 87.0644 56.0767 87.4159 55.5709 87.5388C53.9107 86.4444 52.2967 85.2491 50.7293 83.9528C50.0101 83.7447 49.2764 83.6743 48.5286 83.7419C48.743 85.5843 49.0361 87.4124 49.4089 89.2262C49.5687 90.5183 49.8623 91.7839 50.2892 93.0231C50.2276 93.6684 49.934 94.0903 49.4089 94.2887C48.9313 93.4083 48.1981 92.8458 47.2082 92.6012C46.1479 90.8438 44.5339 90 42.3666 90.07C42.073 90.07 41.7799 90.07 41.4863 90.07C40.5589 89.6615 39.5316 89.5209 38.4053 89.6481C38.3106 90.3564 38.6042 90.7782 39.2856 90.9137C39.9445 91.2537 40.6782 91.5349 41.4863 91.7575C42.073 92.4606 42.073 93.1637 41.4863 93.8668C40.0391 95.3274 38.6456 96.8744 37.3049 98.5074C35.1469 102.406 32.7996 106.203 30.2626 109.898C29.995 110.596 29.7749 111.299 29.6024 112.007C29.3018 113.28 28.8616 114.545 28.2819 115.804C27.9439 116.126 27.7238 116.548 27.6217 117.07C27.4025 118.469 27.329 119.875 27.4016 121.288C26.1648 121.702 24.9914 122.264 23.8805 122.976C22.0103 123.493 20.1027 123.775 18.1586 123.82C17.8355 123.31 17.689 122.748 17.7185 122.132C17.5063 119.536 16.0389 117.989 13.317 117.492C11.5036 116.598 9.59645 115.895 7.59511 115.382C6.63604 114.781 5.53567 114.5 4.29402 114.539C3.5427 114.542 2.88248 114.683 2.31337 114.96C-1.00928 114.749 -4.0903 115.311 -6.92968 116.648C-9.22811 116.867 -11.4288 117.429 -13.5319 118.335C-14.204 118.305 -14.6441 118.586 -14.8523 119.179C-15.9918 119.163 -16.8721 119.585 -17.4932 120.445C-18.3444 120.702 -19.0781 121.124 -19.6939 121.71C-20.3361 121.739 -20.9228 121.598 -21.4545 121.288C-21.4545 121.007 -21.4545 120.726 -21.4545 120.445C-21.6499 117.773 -21.87 115.102 -22.1147 112.429C-22.4897 111.977 -22.8563 111.555 -23.215 111.164C-23.7978 108.104 -24.0914 105.01 -24.0953 101.882C-23.9479 95.968 -23.6543 90.0618 -23.215 84.1638C-23.215 83.7419 -23.215 83.32 -23.215 82.8982C-21.837 81.8674 -21.2502 80.4612 -21.4545 78.6794C-20.8845 77.0243 -20.0777 75.4774 -19.0337 74.0389C-15.7841 69.4495 -11.3091 66.637 -5.60924 65.6014C-3.60482 65.2285 -1.69767 64.6659 0.112646 63.9139C0.552791 63.9139 0.992936 63.9139 1.43308 63.9139C2.72183 63.8865 3.89569 63.6052 4.95424 63.0702C9.64091 62.7424 14.3359 62.6018 19.0389 62.6483Z" fill="#F7F009"/>
<path fill-rule="evenodd" clip-rule="evenodd" d="M11.9966 68.1328C11.56 68.0604 11.2668 68.2011 11.1163 68.5547C9.32447 68.4424 7.56388 68.583 5.83455 68.9765C5.68799 68.8359 5.54098 68.6953 5.39441 68.5547C6.56299 67.7334 7.88343 67.3115 9.35572 67.2891C10.435 67.3056 11.3152 67.5868 11.9966 68.1328Z" fill="#9F9823"/>
<path fill-rule="evenodd" clip-rule="evenodd" d="M49.8491 70.2417C51.3645 71.1043 52.8315 71.948 54.2506 72.7729C52.3329 72.5606 50.8654 71.7168 49.8491 70.2417Z" fill="#CAC638"/>
<path fill-rule="evenodd" clip-rule="evenodd" d="M54.2506 72.7734C55.4447 73.4787 56.6186 74.1818 57.7717 74.8828C56.5376 75.1408 55.2171 75.1408 53.8104 74.8828C52.6366 74.8828 51.4631 74.8828 50.2893 74.8828C50.2189 75.5996 50.2919 76.3028 50.5093 76.9922C51.115 77.5006 51.6282 78.063 52.0499 78.6796C49.5446 78.0461 48.7378 76.4992 49.6291 74.0391C49.876 74.2592 50.1696 74.3998 50.5093 74.4609C52.0327 74.158 53.5732 73.947 55.1309 73.8281C54.5781 73.6522 54.2845 73.3007 54.2506 72.7734Z" fill="#DBDB39"/>
<path fill-rule="evenodd" clip-rule="evenodd" d="M11.1163 68.5541C11.2669 68.2005 11.56 68.0598 11.9966 68.1322C14.1243 68.477 16.178 69.1098 18.1587 70.0306C21.3757 72.9743 24.4567 76.068 27.4017 79.3118C28.0963 79.7736 28.83 80.1251 29.6024 80.3665C29.6024 80.5071 29.6024 80.6478 29.6024 80.7884C28.1187 80.4413 26.6517 79.9491 25.201 79.3118C21.9734 76.7806 19.0389 73.9681 16.3981 70.8744C14.7722 69.816 13.0116 69.0425 11.1163 68.5541Z" fill="#1A1507"/>
<path fill-rule="evenodd" clip-rule="evenodd" d="M53.8104 74.8823C55.2171 75.1403 56.5376 75.1403 57.7717 74.8823C58.2022 75.0135 58.4958 75.2948 58.652 75.7261C56.9425 75.9775 55.3285 75.6962 53.8104 74.8823Z" fill="#878335"/>
<path fill-rule="evenodd" clip-rule="evenodd" d="M52.49 78.6797C53.4086 79.1372 53.9953 79.8403 54.2506 80.789C53.332 80.3315 52.7453 79.6284 52.49 78.6797Z" fill="#757417"/>
<path fill-rule="evenodd" clip-rule="evenodd" d="M29.6024 80.3672C31.4858 80.7365 33.3934 81.0881 35.3243 81.4219C33.7103 81.7031 32.0967 81.7031 30.4827 81.4219C30.0795 81.3044 29.7864 81.0935 29.6024 80.7891C29.6024 80.6484 29.6024 80.5078 29.6024 80.3672Z" fill="#A09611"/>
<path fill-rule="evenodd" clip-rule="evenodd" d="M55.1309 82.8979C56.5358 84.5935 57.4161 86.5623 57.7717 88.8042C56.6564 88.9058 55.9231 88.4839 55.571 87.5385C56.0767 87.4157 56.3703 87.0642 56.4513 86.4839C55.8844 85.3462 55.4442 84.1509 55.1309 82.8979Z" fill="#B6BE45"/>
<path fill-rule="evenodd" clip-rule="evenodd" d="M41.4863 90.0697C40.5941 90.0014 39.7139 90.0716 38.8454 90.2807C39.0902 90.4421 39.2367 90.653 39.2856 90.9135C38.6042 90.778 38.3107 90.3561 38.4053 89.6479C39.5316 89.5206 40.5589 89.6613 41.4863 90.0697Z" fill="#726612"/>
<path fill-rule="evenodd" clip-rule="evenodd" d="M42.3666 90.0699C44.5339 90 46.1479 90.8437 47.2082 92.6012C45.7285 91.4551 44.1149 90.6114 42.3666 90.0699Z" fill="#BDBF32"/>
<path fill-rule="evenodd" clip-rule="evenodd" d="M49.4089 89.2261C50.6937 91.0144 50.9869 92.9831 50.2892 95.1323C49.8394 94.9823 49.5458 94.701 49.4089 94.2885C49.934 94.0901 50.2276 93.6682 50.2892 93.0229C49.8623 91.7838 49.5687 90.5181 49.4089 89.2261Z" fill="#B6B64A"/>
<path fill-rule="evenodd" clip-rule="evenodd" d="M47.2082 92.6011C48.1981 92.8457 48.9314 93.4082 49.4089 94.2886C48.419 94.044 47.6857 93.4815 47.2082 92.6011Z" fill="#AEAE2B"/>
<path fill-rule="evenodd" clip-rule="evenodd" d="M2.31342 114.961C2.88252 114.683 3.54274 114.542 4.29407 114.539C5.53572 114.5 6.63608 114.781 7.59516 115.382C5.84294 115.163 4.08236 115.022 2.31342 114.961Z" fill="#737721"/>
<path fill-rule="evenodd" clip-rule="evenodd" d="M34.444 119.601C33.6258 119.618 33.0391 119.266 32.6834 118.546C32.0967 118.265 31.5096 118.265 30.9229 118.546C30.4365 119.441 30.4365 120.355 30.9229 121.289C30.6513 121.242 30.4312 121.101 30.2626 120.867C30.0448 120.034 29.9713 119.191 30.0426 118.335C30.1993 117.757 30.5663 117.336 31.1429 117.07C32.5474 117.565 33.6478 118.409 34.444 119.601Z" fill="#BCBC3C"/>
<path fill-rule="evenodd" clip-rule="evenodd" d="M13.317 117.492C16.0389 117.99 17.5063 119.537 17.7185 122.132C17.3708 121.664 17.1507 121.102 17.0583 120.445C15.854 119.348 14.6071 118.364 13.317 117.492Z" fill="#979922"/>
<path fill-rule="evenodd" clip-rule="evenodd" d="M28.282 115.804C28.1632 117.714 27.8696 119.542 27.4017 121.289C27.3291 119.875 27.4026 118.469 27.6218 117.07C27.7239 116.548 27.944 116.126 28.282 115.804Z" fill="#CDCE42"/>
<path fill-rule="evenodd" clip-rule="evenodd" d="M2.31339 117.07C4.36094 117.28 6.4151 117.42 8.47542 117.492C9.27032 117.713 10.0036 117.994 10.6761 118.335C12.0683 119.112 13.4623 119.956 14.8575 120.867C14.9394 121.937 15.1595 122.921 15.5177 123.82C15.5177 123.96 15.5177 124.101 15.5177 124.242C15.4781 125.36 15.7713 126.345 16.398 127.195C16.6348 127.877 16.7814 128.58 16.8382 129.304C16.9363 130.849 17.3765 132.255 18.1586 133.523C18.2044 134.452 18.4975 135.296 19.0389 136.054C18.8263 137.774 19.56 138.758 21.2396 139.007C21.8655 139.608 22.5992 140.03 23.4404 140.273C23.8369 141.212 24.5702 141.634 25.6411 141.538C25.7876 141.538 25.9347 141.538 26.0812 141.538C26.7903 142.211 27.6706 142.703 28.7221 143.015C31.7459 143.216 34.6803 143.005 37.525 142.382C37.9651 142.101 38.4053 141.82 38.8454 141.538C38.992 141.538 39.139 141.538 39.2856 141.538C41.4762 140.503 43.6769 139.518 45.8878 138.585C46.636 138.368 47.2227 137.946 47.6483 137.32C47.5018 137.179 47.3548 137.038 47.2082 136.898C46.5915 137.329 46.0044 137.75 45.4476 138.163C41.5193 139.744 37.4114 140.447 33.1235 140.273C32.9889 139.056 33.1354 137.931 33.5637 136.898C34.3947 135.848 34.6883 134.583 34.444 133.101C34.5624 131.232 34.4158 129.403 34.0038 127.617C34.0751 126.761 34.0016 125.918 33.7838 125.085C33.6152 124.851 33.3951 124.71 33.1235 124.664C33.2428 123.87 32.9492 123.308 32.2433 122.976C32.2195 122.077 31.7793 121.514 30.9228 121.289C30.4365 120.355 30.4365 119.441 30.9228 118.546C31.5095 118.265 32.0967 118.265 32.6834 118.546C33.039 119.266 33.6258 119.618 34.444 119.601C35.9031 120.708 36.9304 122.115 37.525 123.82C37.7952 125.058 38.2354 126.253 38.8454 127.406C38.9933 127.84 39.2869 128.051 39.7257 128.038C41.1905 131.201 43.6848 132.467 47.2082 131.835C48.8385 131.114 49.7188 129.848 49.8491 128.038C49.9956 128.038 50.1426 128.038 50.2892 128.038C50.8935 128.105 51.4807 128.034 52.0498 127.828C51.8486 127.653 51.7016 127.442 51.6096 127.195C53.1092 124.836 54.7232 122.515 56.4512 120.234C57.3262 120.158 58.2065 120.228 59.0921 120.445C60.5591 121.007 61.5864 121.992 62.1731 123.398C62.9557 125.113 63.2493 126.941 63.0534 128.882C62.6186 129.969 62.1784 131.094 61.733 132.257C61.0411 133.403 60.6009 134.668 60.4125 136.054C59.0481 139.33 57.1409 142.283 54.6907 144.913C48.375 147.367 42.066 149.617 35.7644 151.663C34.19 151.514 32.8696 151.935 31.8031 152.929C29.3317 153.382 26.8374 153.452 24.3206 153.14C23.9175 153.023 23.6243 152.812 23.4404 152.507C23.1992 151.417 22.4654 150.995 21.2396 151.241C21.0442 150.561 20.6041 150.069 19.9192 149.765C20.7172 149.784 21.4505 149.714 22.1199 149.554C20.0371 149.183 17.9834 148.761 15.9579 148.288C15.3897 148.388 14.9495 148.248 14.6375 147.866C12.7413 146.082 10.394 145.097 7.59513 144.913C7.41115 144.609 7.11801 144.398 6.71484 144.281C5.25488 144.07 3.78787 144 2.31339 144.07C0.32613 143.516 -1.72803 143.516 -3.84865 144.07C-3.46088 144.69 -2.87417 145.042 -2.08807 145.124C-0.600376 145.267 0.866628 145.478 2.31339 145.757C2.9001 145.898 3.48725 146.038 4.07397 146.179C4.50795 147.029 5.24167 147.592 6.27469 147.866C6.20119 148.007 6.12812 148.148 6.05462 148.288C0.181322 152.823 -4.88035 158.026 -9.13039 163.898C-9.7171 164.46 -10.3043 165.023 -10.891 165.585C-11.3294 165.621 -11.696 165.48 -11.9913 165.163C-12.2114 165.656 -12.578 166.007 -13.0917 166.218C-12.8906 166.393 -12.7435 166.603 -12.6516 166.851C-14.0596 168.867 -14.7933 171.117 -14.8523 173.601C-14.0653 173.48 -13.3316 173.621 -12.6516 174.022C-13.0701 176.246 -13.2171 178.496 -13.0917 180.772C-12.9874 181.317 -13.134 181.739 -13.5318 182.038C-13.9658 183.924 -14.1124 185.893 -13.972 187.944C-15.4962 187.692 -16.9632 187.27 -18.3734 186.679C-21.7207 184.317 -24.9483 181.785 -28.0566 179.085C-29.0976 178.23 -30.271 177.527 -31.5778 176.976C-32.3516 174.114 -33.0853 171.301 -33.7785 168.538C-33.9251 168.538 -34.0721 168.538 -34.2187 168.538C-34.7372 165.384 -35.3243 162.29 -35.9792 159.257C-35.8542 158.449 -36.0008 157.746 -36.4194 157.148C-36.3468 155.594 -36.4198 154.048 -36.6395 152.507C-36.7618 152.121 -36.9819 151.84 -37.2997 151.663C-37.6584 149.68 -38.0985 147.711 -38.6201 145.757C-38.8151 143.884 -38.8151 142.056 -38.6201 140.273C-37.959 139.566 -37.3723 138.793 -36.8595 137.952C-33.0448 134.859 -29.2305 131.765 -25.4158 128.671C-24.7445 128.246 -24.0108 128.035 -23.215 128.038C-23.2899 127.481 -23.1433 126.988 -22.7749 126.562C-20.3198 125.139 -17.899 123.663 -15.5125 122.132C-14.6115 121.664 -13.6582 121.383 -12.6516 121.289C-11.3377 120.94 -10.1643 120.378 -9.13039 119.601C-7.6537 119.521 -6.33327 119.099 -5.16908 118.335C-5.02251 118.335 -4.87551 118.335 -4.72894 118.335C-3.30859 118.261 -1.98815 117.98 -0.767631 117.492C0.290038 117.514 1.3169 117.373 2.31339 117.07Z" fill="#F6F00B"/>
<path fill-rule="evenodd" clip-rule="evenodd" d="M29.6024 112.007C29.4897 112.974 29.6363 113.888 30.0425 114.749C28.8181 116.742 28.2314 118.922 28.282 121.289C28.7221 121.289 29.1623 121.289 29.6024 121.289C29.4695 120.209 29.6165 119.224 30.0425 118.335C29.9712 119.191 30.0448 120.034 30.2626 120.867C30.4312 121.101 30.6513 121.242 30.9228 121.289C31.7794 121.514 32.2195 122.077 32.2433 122.976C31.9255 123.152 31.7054 123.433 31.5831 123.82C31.2714 123.448 30.9044 123.167 30.4827 122.976C28.833 121.804 27.366 121.945 26.0812 123.398C25.2925 123.341 24.5592 123.482 23.8805 123.82C21.9012 124.223 19.994 124.223 18.1586 123.82C20.1028 123.775 22.0103 123.493 23.8805 122.976C24.9914 122.264 26.1649 121.702 27.4017 121.289C27.8696 119.542 28.1631 117.714 28.282 115.804C28.8616 114.545 29.3018 113.28 29.6024 112.007Z" fill="#271E0A"/>
<path fill-rule="evenodd" clip-rule="evenodd" d="M56.4513 119.18C55.6366 120.14 54.9028 121.124 54.2505 122.133C54.2792 120.611 55.0124 119.627 56.4513 119.18Z" fill="#918B16"/>
<path fill-rule="evenodd" clip-rule="evenodd" d="M56.4513 119.18C57.5384 119.245 58.4187 119.667 59.0921 120.445C58.2066 120.228 57.3263 120.158 56.4513 120.234C54.7233 122.516 53.1093 124.836 51.6097 127.195C51.7017 127.442 51.8487 127.653 52.0498 127.828C51.4807 128.035 50.8936 128.105 50.2892 128.039C51.177 125.768 52.4975 123.799 54.2506 122.133C54.9028 121.124 55.6366 120.14 56.4513 119.18Z" fill="#E4E33E"/>
<path fill-rule="evenodd" clip-rule="evenodd" d="M37.525 123.82C38.7139 124.974 39.4476 126.38 39.7258 128.039C39.2869 128.051 38.9933 127.84 38.8455 127.406C38.2354 126.253 37.7953 125.058 37.525 123.82Z" fill="#BBBB37"/>
<path fill-rule="evenodd" clip-rule="evenodd" d="M15.5178 124.241C16.1445 125.091 16.4377 126.076 16.398 127.194C15.7713 126.344 15.4781 125.36 15.5178 124.241Z" fill="#807C11"/>
<path fill-rule="evenodd" clip-rule="evenodd" d="M31.363 129.726C31.363 132.96 31.363 136.194 31.363 139.429C30.3361 139.429 29.3088 139.429 28.2819 139.429C27.9884 139.429 27.8418 139.288 27.8418 139.007C27.4254 137.82 26.5451 137.258 25.2009 137.319C25.2009 136.757 25.2009 136.194 25.2009 135.632C24.0671 135.645 23.0403 135.364 22.1199 134.788C21.1208 131.797 20.3871 128.703 19.9192 125.507C20.4874 125.607 20.9276 125.466 21.2396 125.085C22.1767 124.788 23.057 124.366 23.8805 123.819C24.5592 123.481 25.2925 123.341 26.0812 123.397C26.9025 123.181 27.7098 122.9 28.502 122.554C29.057 122.663 29.4972 122.944 29.8225 123.397C30.3374 125.52 30.8511 127.629 31.363 129.726Z" fill="#CD031C"/>
<path fill-rule="evenodd" clip-rule="evenodd" d="M62.1732 123.398C62.9095 123.754 63.4232 124.316 63.7137 125.085C64.1217 126.504 63.9016 127.77 63.0534 128.882C63.2493 126.941 62.9557 125.113 62.1732 123.398Z" fill="#A2A034"/>
<path fill-rule="evenodd" clip-rule="evenodd" d="M33.1235 124.664C33.3951 124.71 33.6152 124.851 33.7838 125.085C34.0016 125.918 34.0751 126.762 34.0038 127.617C33.6046 126.707 33.3115 125.722 33.1235 124.664Z" fill="#5C5813"/>
<path fill-rule="evenodd" clip-rule="evenodd" d="M49.8491 128.039C49.7188 129.848 48.8385 131.114 47.2082 131.835C48.2086 130.613 49.0889 129.347 49.8491 128.039Z" fill="#A3A127"/>
<path fill-rule="evenodd" clip-rule="evenodd" d="M16.8382 129.304C17.6203 130.572 18.0605 131.978 18.1586 133.523C17.3765 132.255 16.9363 130.849 16.8382 129.304Z" fill="#767516"/>
<path fill-rule="evenodd" clip-rule="evenodd" d="M30.4827 122.976C31.5478 125.087 32.2081 127.336 32.4633 129.726C32.6918 133.247 32.6183 136.762 32.2433 140.273C30.7688 140.342 29.3018 140.272 27.8418 140.062C27.4541 139.763 27.1609 139.411 26.9615 139.007C27.2551 139.007 27.5482 139.007 27.8418 139.007C27.8418 139.288 27.9884 139.429 28.282 139.429C29.3594 139.839 30.5333 139.98 31.8031 139.851C31.9466 136.398 31.7996 133.023 31.363 129.726C30.8511 127.63 30.3374 125.52 29.8225 123.398C29.4972 122.945 29.0571 122.663 28.502 122.554C27.7098 122.9 26.9025 123.181 26.0812 123.398C27.366 121.945 28.833 121.804 30.4827 122.976Z" fill="#610715"/>
<path fill-rule="evenodd" clip-rule="evenodd" d="M2.31342 114.96C4.08237 115.022 5.84295 115.163 7.59517 115.382C9.59651 115.895 11.5037 116.598 13.3171 117.492C14.6071 118.364 15.8541 119.348 17.0583 120.445C17.1507 121.102 17.3708 121.664 17.7185 122.132C17.689 122.748 17.8356 123.31 18.1587 123.82C19.9941 124.223 21.9012 124.223 23.8805 123.82C23.057 124.367 22.1767 124.789 21.2397 125.085C20.5059 125.085 19.7727 125.085 19.0389 125.085C19.3171 127.788 19.8308 130.46 20.5795 133.101C20.9052 133.868 21.4188 134.431 22.12 134.788C22.8845 137.067 24.4985 138.473 26.9616 139.007C27.1609 139.411 27.4541 139.763 27.8418 140.062C29.3018 140.272 30.7688 140.342 32.2433 140.273C32.6183 136.762 32.6918 133.247 32.4634 129.726C32.2081 127.336 31.5479 125.087 30.4827 122.976C30.9044 123.167 31.2715 123.448 31.5831 123.82C31.7054 123.433 31.9255 123.152 32.2433 122.976C32.9493 123.308 33.2429 123.87 33.1236 124.663C33.3115 125.722 33.6047 126.707 34.0039 127.617C34.4159 129.403 34.5624 131.232 34.444 133.101C33.8221 134.248 33.5285 135.514 33.5637 136.898C33.1355 137.931 32.9889 139.056 33.1236 140.273C35.2895 140.425 37.3433 140.847 39.2856 141.538C39.1391 141.538 38.992 141.538 38.8455 141.538C37.1346 141.6 35.5206 141.881 34.0039 142.382C31.3194 142.434 28.6786 142.153 26.0813 141.538C25.9347 141.538 25.7877 141.538 25.6411 141.538C25.0254 140.952 24.2916 140.53 23.4404 140.273C22.5993 140.03 21.8656 139.608 21.2397 139.007C20.6085 137.933 19.8752 136.948 19.0389 136.054C18.4976 135.296 18.2044 134.452 18.1587 133.523C18.0605 131.978 17.6204 130.572 16.8382 129.304C16.7814 128.58 16.6349 127.877 16.3981 127.195C16.4377 126.076 16.1445 125.092 15.5178 124.242C15.5178 124.101 15.5178 123.96 15.5178 123.82C15.59 122.686 15.5165 121.561 15.2977 120.445C13.9548 119.344 12.4143 118.641 10.6762 118.335C10.0036 117.994 9.27036 117.713 8.47546 117.492C6.46311 116.623 4.40939 116.483 2.31342 117.07C1.31693 117.373 0.290076 117.514 -0.767593 117.492C-2.10784 117.495 -3.42827 117.636 -4.7289 117.914C-4.4833 117.369 -4.04315 117.018 -3.40846 116.859C-4.57309 116.649 -5.74696 116.579 -6.92963 116.648C-4.09025 115.311 -1.00923 114.749 2.31342 114.96Z" fill="#130D06"/>
<path fill-rule="evenodd" clip-rule="evenodd" d="M31.363 129.726C31.7996 133.023 31.9466 136.398 31.8031 139.851C30.5333 139.98 29.3595 139.84 28.282 139.429C29.3088 139.429 30.3361 139.429 31.363 139.429C31.363 136.195 31.363 132.961 31.363 129.726Z" fill="#A91228"/>
<path fill-rule="evenodd" clip-rule="evenodd" d="M21.2397 125.085C20.9276 125.467 20.4875 125.607 19.9192 125.507C20.3871 128.703 21.1208 131.797 22.12 134.788C21.4188 134.431 20.9052 133.868 20.5794 133.101C19.8308 130.46 19.3171 127.788 19.0389 125.085C19.7727 125.085 20.5059 125.085 21.2397 125.085Z" fill="#910C1F"/>
<path fill-rule="evenodd" clip-rule="evenodd" d="M2.31342 117.07C4.40939 116.483 6.4631 116.624 8.47545 117.492C6.41513 117.42 4.36097 117.28 2.31342 117.07Z" fill="#B3B52E"/>
<path fill-rule="evenodd" clip-rule="evenodd" d="M154.164 165.585C153.752 167.903 153.458 170.294 153.283 172.757C153.241 173.722 152.948 174.565 152.403 175.288C152.278 174.955 152.058 174.674 151.743 174.445C151.281 175.123 150.621 175.404 149.762 175.288C150.854 172.658 151.441 169.985 151.523 167.273C149.103 168.762 146.608 168.903 144.04 167.695C145.762 167.614 147.522 167.543 149.322 167.484C153.137 165.374 155.851 162.35 157.465 158.413C158.609 153.972 159.049 149.471 158.785 144.914C158.347 144.002 157.686 143.299 156.804 142.804C153.895 139.225 150.228 136.553 145.801 134.789C143.642 133.537 141.295 132.623 138.758 132.047C134.519 131.434 130.264 131.153 125.994 131.203C121.514 135.216 117.333 139.504 113.45 144.07C113.476 145.991 113.843 147.819 114.55 149.554C114.55 149.695 114.55 149.836 114.55 149.976C115.332 152.655 116.066 155.326 116.751 157.992C119.506 158.122 122.22 157.981 124.894 157.57C125.326 156.464 125.839 155.41 126.434 154.406C125.992 151.515 124.819 148.913 122.913 146.601C124.323 146.304 125.717 146.023 127.095 145.757C127.654 143.282 128.46 140.891 129.515 138.586C129.662 138.867 129.809 139.148 129.956 139.429C128.971 143.273 128.091 147.14 127.315 151.031C127.435 152.741 128.169 154.077 129.515 155.039C130.986 156.707 132.894 157.411 135.237 157.148C135.597 156.106 135.817 154.982 135.898 153.773C136.044 154.898 136.191 156.023 136.338 157.148C136.506 157.382 136.726 157.523 136.998 157.57C137.144 157.57 137.291 157.57 137.438 157.57C138.588 159.603 140.348 160.939 142.72 161.578C144.946 161.856 147.147 161.716 149.322 161.156C150.527 160.723 151.554 160.09 152.403 159.257C153.748 158.28 154.041 157.015 153.283 155.46C151.926 156.892 150.313 157.454 148.442 157.148C150.624 155.268 152.752 153.299 154.824 151.242C155.917 147.9 156.357 148.041 156.144 151.664C155.873 152.345 155.433 152.908 154.824 153.351C155.474 159.364 152.76 162.95 146.681 164.109C143.966 164.68 141.472 164.258 139.199 162.843C137.644 161.329 136.25 159.712 135.017 157.992C132.956 158.323 131.195 159.167 129.735 160.523C129.442 160.945 129.442 161.367 129.735 161.788C132.844 163.451 135.558 165.56 137.878 168.117C137.878 169.101 137.878 170.085 137.878 171.07C137.585 170.648 137.291 170.226 136.998 169.804C136.704 169.242 136.264 168.82 135.677 168.538C135.237 167.835 134.651 167.273 133.917 166.851C133.605 166.47 133.165 166.329 132.596 166.429C132.522 165.871 132.668 165.379 133.037 164.952C132.816 164.742 132.596 164.531 132.376 164.32C131.754 164.705 131.094 164.705 130.396 164.32C128.371 163.422 126.463 162.437 124.674 161.367C124.256 161.092 123.743 160.951 123.133 160.945C122.249 160.863 121.589 161.145 121.153 161.788C120.712 161.788 120.272 161.788 119.832 161.788C117.788 162.252 115.881 162.955 114.11 163.898C112.943 163.86 111.916 164.141 111.029 164.742C109.949 165.048 108.922 165.47 107.948 166.007C107.362 166.007 107.068 165.726 107.068 165.163C108.054 164.123 109.228 163.279 110.589 162.632C109.418 161.86 108.464 160.876 107.728 159.679C107.435 158.695 107.435 157.71 107.728 156.726C108.714 154.795 109.887 152.967 111.249 151.242C111.69 150.96 112.13 150.679 112.57 150.398C112.538 148.009 112.538 145.619 112.57 143.226C115.509 138.299 119.25 134.01 123.794 130.359C135.049 127.749 145.172 129.858 154.164 136.687C156.144 138.586 158.125 140.484 160.105 142.382C161.017 148.024 160.87 153.649 159.665 159.257C158.057 161.57 156.223 163.679 154.164 165.585Z" fill="#131512"/>
<path fill-rule="evenodd" clip-rule="evenodd" d="M-24.5355 87.539C-24.5355 88.664 -24.5355 89.789 -24.5355 90.914C-24.679 94.6473 -24.5324 98.3035 -24.0953 101.883C-24.0914 105.01 -23.7978 108.104 -23.215 111.164C-23.1046 114.405 -22.5178 117.499 -21.4544 120.445C-21.4544 120.726 -21.4544 121.007 -21.4544 121.289C-21.4544 121.711 -21.4544 122.132 -21.4544 122.554C-20.627 122.669 -20.0403 122.387 -19.6939 121.711C-19.0781 121.124 -18.3444 120.702 -17.4931 120.445C-16.4073 120.337 -15.527 119.916 -14.8523 119.179C-14.1802 119.21 -13.74 118.929 -13.5318 118.336C-11.4288 117.429 -9.22809 116.867 -6.92965 116.648C-5.74698 116.579 -4.57312 116.649 -3.40849 116.859C-4.04318 117.018 -4.48333 117.37 -4.72893 117.914C-4.72893 118.054 -4.72893 118.195 -4.72893 118.336C-4.8755 118.336 -5.0225 118.336 -5.16907 118.336C-6.67261 118.347 -7.99304 118.769 -9.13038 119.601C-10.6682 119.615 -11.8421 120.177 -12.6515 121.289C-13.6582 121.383 -14.6115 121.665 -15.5125 122.132C-17.899 123.663 -20.3198 125.14 -22.7749 126.562C-23.1433 126.989 -23.2899 127.481 -23.215 128.039C-24.0108 128.035 -24.7445 128.246 -25.4158 128.672C-29.2305 131.765 -33.0448 134.859 -36.8595 137.953C-37.3723 138.793 -37.959 139.566 -38.6201 140.273C-39.1452 140.471 -39.4388 140.893 -39.5004 141.539C-39.3239 143.025 -39.0308 144.432 -38.6201 145.757C-38.0985 147.711 -37.6584 149.68 -37.2997 151.664C-37.2451 153.583 -36.9515 155.411 -36.4194 157.148C-36.0008 157.746 -35.8542 158.449 -35.9792 159.257C-36.3507 162.579 -35.764 165.673 -34.2187 168.538C-34.0721 168.538 -33.9251 168.538 -33.7785 168.538C-33.7098 171.406 -33.2697 174.219 -32.4581 176.976C-31.2266 178.128 -29.7595 178.832 -28.0566 179.085C-24.9483 181.786 -21.7207 184.317 -18.3734 186.679C-17.321 188.12 -15.8536 188.683 -13.972 188.366C-14.4121 188.648 -14.8523 188.929 -15.2924 189.21C-15.678 189.155 -15.9716 189.295 -16.1727 189.632C-14.6833 191.925 -13.4359 194.316 -12.4315 196.804C-12.1947 198.764 -11.681 200.592 -10.891 202.288C-10.9596 203.822 -11.4728 203.962 -12.4315 202.71C-13.2933 198.95 -14.7607 195.435 -16.8329 192.163C-23.2023 184.224 -31.1984 178.388 -40.8208 174.656C-38.5981 174.777 -36.3974 175.128 -34.2187 175.71C-35.1104 172.985 -35.7706 170.173 -36.1993 167.273C-36.3701 166.881 -36.6637 166.6 -37.0796 166.429C-43.9842 168.685 -50.8799 170.935 -57.7664 173.179C-63.4601 175.941 -68.8154 179.175 -73.8317 182.882C-70.1323 183.398 -66.8312 184.804 -63.9285 187.101C-63.6256 187.452 -63.6991 187.733 -64.1485 187.944C-66.7524 186.128 -69.6864 185.144 -72.9514 184.991C-75.9352 185.452 -78.7226 186.366 -81.3142 187.734C-82.1945 188.015 -83.0748 188.015 -83.9551 187.734C-86.1356 186.348 -88.1893 184.801 -90.1171 183.093C-90.9974 182.812 -91.8777 182.812 -92.758 183.093C-93.5564 184.418 -94.5102 185.614 -95.6189 186.679C-96.4556 189.622 -96.4556 192.575 -95.6189 195.538C-94.5573 197.715 -93.3834 199.824 -92.0978 201.866C-90.2522 203.356 -88.7117 205.114 -87.4762 207.14C-82.0598 211.493 -75.8978 214.376 -68.9901 215.788C-69.2837 215.928 -69.5768 216.069 -69.8704 216.21C-72.1948 215.721 -74.5421 215.37 -76.9127 215.155C-79.2552 214.197 -81.6025 213.283 -83.9551 212.413C-84.2671 212.032 -84.7073 211.891 -85.2755 211.991C-85.4102 213.208 -85.2636 214.333 -84.8354 215.366C-84.7372 218.607 -84.5171 221.841 -84.1751 225.069C-83.4185 231.295 -82.4647 237.482 -81.3142 243.632C-81.4049 244.895 -81.1117 246.02 -80.4339 247.006C-79.345 251.222 -78.0981 255.441 -76.6927 259.663C-71.4981 269.902 -65.189 279.465 -57.7664 288.35C-53.449 292.348 -49.2677 296.496 -45.2223 300.795C-40.1157 304.703 -35.1271 308.781 -30.2574 313.029C-27.8216 314.548 -25.3273 315.954 -22.7749 317.248C-21.9065 317.457 -21.0262 317.527 -20.134 317.459C-21.1063 315.025 -21.5464 312.494 -21.4544 309.865C-21.0143 309.865 -20.5742 309.865 -20.134 309.865C-20.1239 310.889 -19.9038 311.873 -19.4738 312.818C-18.2999 314.506 -17.1265 316.193 -15.9526 317.881C-14.7141 319.782 -14.5675 321.751 -15.5125 323.787C-16.825 325.676 -18.0724 327.575 -19.2537 329.482C-17.4249 331.517 -15.5908 333.556 -13.7519 335.6C-0.664186 334.236 6.74478 327.205 8.47543 314.506C8.76857 313.161 9.06214 311.754 9.35572 310.287C9.64974 311.329 9.94331 312.313 10.236 313.24C10.3394 313.492 10.5595 313.633 10.8962 313.662C14.8465 311.875 18.8813 310.258 23.0002 308.811C27.4606 306.012 31.8621 303.129 36.2046 300.162C36.9436 300.072 37.3837 300.353 37.525 301.006C33.9009 305.347 29.4994 308.792 24.3207 311.342C21.4672 312.82 18.5327 314.085 15.5177 315.139C13.7933 315.626 12.0327 315.837 10.236 315.772C9.02561 327.354 2.57 334.315 -9.13038 336.654C-15.163 337.815 -19.1243 335.635 -21.0143 330.115C-20.9408 329.693 -20.8677 329.271 -20.7942 328.85C-19.2594 327.313 -17.939 325.626 -16.8329 323.787C-16.5138 322.573 -16.7339 321.449 -17.4931 320.412C-18.8255 320.049 -19.9993 319.416 -21.0143 318.514C-26.0201 317.033 -30.7151 314.924 -35.0989 312.186C-41.735 307.179 -48.1906 301.976 -54.4653 296.576C-63.4998 287.352 -71.4224 277.297 -78.2332 266.413C-78.3305 265.33 -78.624 264.345 -79.1135 263.459C-80.3221 260.053 -81.5695 256.678 -82.8547 253.335C-83.9449 248 -85.1188 242.656 -86.3759 237.303C-86.9454 230.392 -87.4591 223.501 -87.9164 216.632C-88.0383 214.635 -87.8913 212.666 -87.4762 210.726C-87.6325 210.294 -87.9261 210.013 -88.3565 209.882C-92.5929 206.733 -95.9675 202.866 -98.4799 198.28C-99.4117 195.148 -99.7052 191.984 -99.3602 188.788C-98.078 186.264 -96.3174 184.084 -94.0784 182.249C-92.7487 181.965 -91.4283 181.824 -90.1171 181.827C-88.7029 182.85 -87.3825 183.975 -86.1558 185.202C-85.5515 185.571 -84.8913 185.782 -84.1751 185.835C-81.7543 185.028 -79.3335 184.325 -76.9127 183.726C-76.3595 182.458 -75.6262 181.263 -74.712 180.14C-66.9166 174.12 -58.2607 169.831 -48.7435 167.273C-47.4252 167.36 -46.2514 167.079 -45.2223 166.429C-43.3935 165.837 -41.4863 165.415 -39.5004 165.163C-38.6201 165.163 -37.7398 165.163 -36.8595 165.163C-36.7266 164.084 -36.8736 163.099 -37.2997 162.21C-39.1135 155.012 -40.2139 147.699 -40.6008 140.273C-38.9485 137.844 -36.9678 135.664 -34.6588 133.734C-30.624 130.429 -26.5896 127.125 -22.5548 123.82C-23.9826 117.829 -25.3031 111.783 -26.5161 105.68C-27.3889 98.6077 -27.3154 91.5763 -26.296 84.5859C-25.8955 83.9452 -25.5289 83.2421 -25.1957 82.4766C-25.0491 82.6172 -24.9021 82.7578 -24.7555 82.8984C-24.8088 84.5218 -24.7357 86.0686 -24.5355 87.539Z" fill="#131212"/>
</g>
</g>
<defs>
<clipPath id="clip0_639_5315">
<rect width="135" height="130" fill="white"/>
</clipPath>
<clipPath id="clip1_639_5315">
<rect width="346" height="281" fill="white" transform="translate(-106 54)"/>
</clipPath>
</defs>
</svg>
