<svg width="135" height="130" viewBox="0 0 135 130" fill="none" xmlns="http://www.w3.org/2000/svg">
<g clip-path="url(#clip0_639_5316)">
<rect x="1.5" y="1.5" width="402" height="387" rx="18.5" fill="#FDFFEF" stroke="black" stroke-width="3"/>
<g clip-path="url(#clip1_639_5316)">
<path fill-rule="evenodd" clip-rule="evenodd" d="M222.261 133.101C221.171 132.821 219.997 132.68 218.74 132.679C216.993 132.592 215.38 132.873 213.899 133.523C211.591 134.206 209.391 135.121 207.297 136.265C203.315 138.806 199.06 140.775 194.532 142.171C193.852 143.123 193.119 144.037 192.332 144.913C196.299 144.775 200.26 144.986 204.215 145.546C207.366 146.248 210.447 147.162 213.459 148.288C214.98 148.235 216.007 147.532 216.54 146.179C216.97 145.003 217.116 143.737 216.98 142.382C218.3 142.382 219.621 142.382 220.941 142.382C225.756 142.687 229.203 144.937 231.284 149.132C233.15 154.017 233.003 158.798 230.844 163.476C230.27 164.656 229.61 165.781 228.864 166.851C230.615 168.795 232.155 170.905 233.485 173.179C233.844 173.737 234.358 174.018 235.026 174.022C235.026 174.444 235.026 174.866 235.026 175.288C234.63 176.303 233.97 177.146 233.045 177.819C232.149 179.111 231.636 180.517 231.504 182.038C231.064 182.038 230.624 182.038 230.184 182.038C229.08 184.589 228.346 187.261 227.983 190.053C227.837 190.053 227.69 190.053 227.543 190.053C227.25 189.913 226.956 189.772 226.663 189.632C226.931 187.285 227.592 185.035 228.644 182.882C230.328 180.423 232.015 177.962 233.705 175.499C231.255 172.727 228.615 170.055 225.783 167.483C223.97 166.517 222.356 165.322 220.941 163.897C221.479 163.427 222.066 163.357 222.702 163.686C224.145 164.624 225.685 165.398 227.323 166.007C229.41 164.083 230.51 161.692 230.624 158.835C230.739 154.457 229.565 150.449 227.103 146.812C224.306 145.05 221.225 143.995 217.86 143.648C217.95 145.725 217.29 147.553 215.879 149.132C215.586 149.554 215.586 149.976 215.879 150.398C218.659 152.57 221.227 154.96 223.582 157.569C223.361 158 223.068 158.071 222.702 157.78C220.323 155.079 217.535 152.83 214.339 151.03C213.037 150.755 211.937 151.107 211.038 152.085C210.825 152.485 210.752 152.907 210.818 153.351C211.698 153.351 212.578 153.351 213.459 153.351C213.459 153.913 213.459 154.476 213.459 155.038C210.521 154.948 207.587 154.808 204.656 154.616C203.629 154.616 202.601 154.616 201.575 154.616C201.424 155.453 201.717 156.016 202.455 156.304C202.601 156.726 202.895 157.007 203.335 157.147C203.813 158.028 204.546 158.59 205.536 158.835C208.204 161.98 210.185 165.495 211.478 169.382C212.628 173.138 213.655 176.935 214.559 180.772C215.848 188.656 214.528 196.109 210.598 203.131C208.061 206.565 204.907 209.378 201.134 211.569C200.748 213.477 200.161 215.305 199.374 217.053C200.166 218.919 200.46 220.888 200.254 222.959C199.721 223.267 199.281 223.689 198.934 224.225C198.676 224.137 198.456 223.996 198.274 223.803C198.054 221.839 197.98 219.871 198.053 217.897C197.13 218.205 196.249 218.205 195.413 217.897C197.876 217.225 199.197 215.678 199.374 213.256C196.093 214.299 193.012 215.705 190.131 217.475C189.12 217.347 188.974 216.925 189.691 216.209C193.052 214.599 196.426 212.982 199.814 211.358C200.913 210.796 201.793 210.023 202.455 209.038C202.78 209.093 203.074 209.022 203.335 208.827C206.681 205.153 209.028 201.004 210.378 196.382C212.201 192.237 212.861 187.878 212.358 183.304C211.097 177.202 209.63 171.155 207.957 165.163C207.053 163.359 206.099 161.601 205.096 159.89C200.472 157.707 196.071 155.176 191.891 152.296C191.052 151.823 190.172 151.471 189.251 151.241C189.251 151.101 189.251 150.96 189.251 150.819C188.203 150.036 187.03 149.474 185.729 149.132C183.563 149.96 181.362 150.664 179.127 151.241C179.062 151.685 179.135 152.107 179.347 152.507C181.483 154.492 182.803 156.883 183.309 159.679C183.602 160.944 183.602 162.21 183.309 163.476C182.811 159.273 180.977 155.687 177.807 152.718C174.967 152.703 172.179 153.054 169.444 153.772C169.628 153.468 169.921 153.257 170.324 153.14C169.755 152.933 169.168 152.863 168.564 152.929C169.186 152.323 169.919 151.901 170.764 151.663C177.066 149.617 183.375 147.367 189.691 144.913C192.141 142.283 194.048 139.33 195.413 136.054C196.281 134.964 196.721 133.698 196.733 132.257C197.178 131.094 197.619 129.969 198.053 128.882C198.902 127.77 199.122 126.504 198.714 125.085C198.423 124.316 197.91 123.753 197.173 123.398C196.586 121.992 195.559 121.007 194.092 120.445C193.419 119.666 192.538 119.244 191.451 119.179C190.012 119.626 189.279 120.61 189.251 122.132C187.497 123.798 186.177 125.767 185.289 128.038C185.143 128.038 184.996 128.038 184.849 128.038C184.089 129.347 183.209 130.613 182.208 131.835C178.685 132.467 176.191 131.201 174.726 128.038C174.448 126.38 173.714 124.973 172.525 123.82C171.93 122.114 170.903 120.708 169.444 119.601C168.648 118.409 167.547 117.565 166.143 117.07C165.566 117.335 165.199 117.757 165.043 118.335C164.617 119.224 164.469 120.209 164.602 121.288C164.162 121.288 163.722 121.288 163.282 121.288C163.231 118.922 163.818 116.742 165.043 114.749C164.636 113.888 164.49 112.974 164.602 112.007C164.775 111.299 164.995 110.596 165.263 109.898C167.8 106.203 170.147 102.406 172.305 98.5073C173.646 96.8742 175.039 95.3273 176.486 93.8667C177.073 93.1636 177.073 92.4605 176.486 91.7573C175.678 91.5348 174.945 91.2535 174.286 90.9136C174.237 90.6531 174.09 90.4422 173.845 90.2808C174.714 90.0718 175.594 90.0015 176.486 90.0699C176.78 90.0699 177.073 90.0699 177.367 90.0699C179.115 90.6113 180.728 91.455 182.208 92.6011C182.686 93.4815 183.419 94.044 184.409 94.2886C184.546 94.7011 184.839 94.9823 185.289 95.1323C185.987 92.9832 185.694 91.0144 184.409 89.2261C184.036 87.4123 183.743 85.5842 183.529 83.7418C184.276 83.6742 185.01 83.7445 185.729 83.9527C187.297 85.249 188.911 86.4442 190.571 87.5386C190.923 88.484 191.656 88.9059 192.772 88.8042C192.416 86.5624 191.536 84.5936 190.131 82.898C189.837 82.1949 189.544 81.4918 189.251 80.7887C188.995 79.84 188.409 79.1369 187.49 78.6793C187.343 78.6793 187.196 78.6793 187.05 78.6793C186.628 78.0627 186.115 77.5002 185.509 76.9918C185.292 76.3025 185.219 75.5993 185.289 74.8825C186.463 74.8825 187.637 74.8825 188.81 74.8825C190.328 75.6964 191.942 75.9777 193.652 75.7262C193.496 75.2949 193.202 75.0137 192.772 74.8825C191.619 74.1815 190.445 73.4784 189.251 72.7731C187.832 71.9482 186.365 71.1044 184.849 70.2419C181.772 68.7307 178.544 67.6057 175.166 66.8669C173.325 66.1715 171.417 65.609 169.444 65.1794C168.69 64.657 167.809 64.3758 166.803 64.3357C166.619 64.0313 166.326 63.8203 165.923 63.7029C164.61 63.4928 163.29 63.4225 161.962 63.4919C159.367 62.8776 156.726 62.5963 154.039 62.6482C152.138 62.3673 150.157 62.2267 148.097 62.2263C145.274 62.1371 142.56 62.4184 139.954 63.0701C138.636 62.9831 137.462 63.2643 136.433 63.9138C135.993 63.9138 135.553 63.9138 135.113 63.9138C133.016 64.0273 131.109 64.5897 129.391 65.6013C123.691 66.6369 119.216 69.4494 115.966 74.0387C114.922 75.4773 114.116 77.0241 113.546 78.6793C112.733 79.9618 112.146 81.368 111.785 82.898C111.785 83.3199 111.785 83.7418 111.785 84.1637C111.416 84.3078 111.269 84.5891 111.345 85.0074C110.8 85.7306 110.506 86.5744 110.465 87.5386C110.264 86.0682 110.191 84.5214 110.244 82.898C110.098 82.7574 109.951 82.6168 109.804 82.4762C109.471 83.2417 109.105 83.9448 108.704 84.5855C108.714 83.5618 108.934 82.5774 109.364 81.6324C112.32 76.4159 116.061 71.8456 120.588 67.9216C131.849 61.0057 144.173 58.3339 157.56 59.906C169.082 62.1948 179.939 66.1322 190.131 71.7184C192.258 73.4762 194.386 75.234 196.513 76.9918C196.726 77.3918 196.799 77.8136 196.733 78.2574C194.273 78.3001 191.852 78.0189 189.471 77.4137C189.104 77.5543 188.737 77.695 188.37 77.8356C192.195 82.0109 194.543 86.8624 195.413 92.3901C195.339 93.1636 195.266 93.937 195.193 94.7104C192.259 91.9325 189.105 89.4013 185.729 87.1168C185.583 87.4683 185.436 87.8199 185.289 88.1714C186.425 91.6775 187.159 95.2634 187.49 98.9292C187.027 98.992 186.587 98.922 186.17 98.7182C184.233 96.5954 182.033 94.7673 179.567 93.2339C179.127 92.9526 178.687 92.9526 178.247 93.2339C174.262 98.4651 170.814 104.019 167.904 109.898C167.248 111.85 166.734 113.819 166.363 115.804C169.006 116.156 171.207 117.281 172.965 119.179C174.144 122.78 175.538 126.296 177.147 129.726C178.596 130.912 179.917 130.771 181.108 129.304C183.567 125.61 186.282 122.095 189.251 118.757C191.587 117.522 193.788 117.733 195.853 119.39C200.035 123.256 201.135 127.827 199.154 133.101C198.306 135.425 197.352 137.675 196.293 139.851C202.107 136.889 208.123 134.287 214.339 132.046C218.027 131.858 221.695 132.069 225.342 132.679C224.355 133.09 223.328 133.231 222.261 133.101Z" fill="#171613"/>
<path fill-rule="evenodd" clip-rule="evenodd" d="M135.113 63.9141C133.302 64.666 131.395 65.2286 129.391 65.6015C131.109 64.59 133.016 64.0275 135.113 63.9141Z" fill="#7A7F1A"/>
<path fill-rule="evenodd" clip-rule="evenodd" d="M154.039 62.6483C156.726 62.5964 159.367 62.8777 161.961 63.4921C163.447 64.1596 165.061 64.4408 166.803 64.3358C167.809 64.3759 168.69 64.6571 169.444 65.1796C171.143 66.2306 173.05 66.7931 175.166 66.867C178.544 67.6058 181.772 68.7308 184.849 70.242C185.865 71.7171 187.333 72.5609 189.25 72.7732C189.284 73.3005 189.578 73.652 190.131 73.8279C188.573 73.9469 187.033 74.1578 185.509 74.4607C185.169 74.3996 184.876 74.259 184.629 74.0389C183.738 76.499 184.544 78.0459 187.05 78.6794C187.196 78.6794 187.343 78.6794 187.49 78.6794C187.745 79.6282 188.332 80.3312 189.25 80.7888C189.544 81.4919 189.837 82.195 190.131 82.8982C190.444 84.1511 190.884 85.3464 191.451 86.4841C191.37 87.0644 191.077 87.4159 190.571 87.5388C188.911 86.4444 187.297 85.2491 185.729 83.9528C185.01 83.7447 184.276 83.6743 183.529 83.7419C183.743 85.5843 184.036 87.4124 184.409 89.2262C184.569 90.5183 184.862 91.7839 185.289 93.0231C185.228 93.6684 184.934 94.0903 184.409 94.2887C183.931 93.4083 183.198 92.8458 182.208 92.6012C181.148 90.8438 179.534 90 177.367 90.07C177.073 90.07 176.78 90.07 176.486 90.07C175.559 89.6615 174.532 89.5209 173.405 89.6481C173.311 90.3564 173.604 90.7782 174.286 90.9137C174.944 91.2537 175.678 91.5349 176.486 91.7575C177.073 92.4606 177.073 93.1637 176.486 93.8668C175.039 95.3274 173.646 96.8744 172.305 98.5074C170.147 102.406 167.8 106.203 165.263 109.898C164.995 110.596 164.775 111.299 164.602 112.007C164.302 113.28 163.862 114.545 163.282 115.804C162.944 116.126 162.724 116.548 162.622 117.07C162.403 118.469 162.329 119.875 162.402 121.288C161.165 121.702 159.991 122.264 158.88 122.976C157.01 123.493 155.103 123.775 153.159 123.82C152.836 123.31 152.689 122.748 152.718 122.132C152.506 119.536 151.039 117.989 148.317 117.492C146.504 116.598 144.596 115.895 142.595 115.382C141.636 114.781 140.536 114.5 139.294 114.539C138.543 114.542 137.882 114.683 137.313 114.96C133.991 114.749 130.91 115.311 128.07 116.648C125.772 116.867 123.571 117.429 121.468 118.335C120.796 118.305 120.356 118.586 120.148 119.179C119.008 119.163 118.128 119.585 117.507 120.445C116.656 120.702 115.922 121.124 115.306 121.71C114.664 121.739 114.077 121.598 113.546 121.288C113.546 121.007 113.546 120.726 113.546 120.445C113.35 117.773 113.13 115.102 112.885 112.429C112.51 111.977 112.144 111.555 111.785 111.164C111.202 108.104 110.909 105.01 110.905 101.882C111.052 95.968 111.346 90.0618 111.785 84.1638C111.785 83.7419 111.785 83.32 111.785 82.8982C113.163 81.8674 113.75 80.4612 113.546 78.6794C114.116 77.0243 114.922 75.4774 115.966 74.0389C119.216 69.4495 123.691 66.637 129.391 65.6014C131.395 65.2285 133.302 64.6659 135.113 63.9139C135.553 63.9139 135.993 63.9139 136.433 63.9139C137.722 63.8865 138.896 63.6052 139.954 63.0702C144.641 62.7424 149.336 62.6018 154.039 62.6483Z" fill="#F7F009"/>
<path fill-rule="evenodd" clip-rule="evenodd" d="M113.546 78.6797C113.75 80.4614 113.163 81.8677 111.785 82.8984C112.146 81.3684 112.733 79.9622 113.546 78.6797Z" fill="#C1BF39"/>
<path fill-rule="evenodd" clip-rule="evenodd" d="M111.345 85.0073C111.164 87.0485 110.87 89.0173 110.465 90.9135C110.465 89.7885 110.465 88.6636 110.465 87.5386C110.506 86.5743 110.8 85.7305 111.345 85.0073Z" fill="#5F5A0C"/>
<path fill-rule="evenodd" clip-rule="evenodd" d="M111.785 84.1641C111.346 90.0621 111.052 95.9683 110.905 101.883C110.468 98.3035 110.321 94.6473 110.465 90.914C110.87 89.0177 111.164 87.049 111.345 85.0078C111.269 84.5895 111.416 84.3082 111.785 84.1641Z" fill="#EDEC42"/>
<path fill-rule="evenodd" clip-rule="evenodd" d="M111.785 111.164C112.144 111.556 112.51 111.978 112.885 112.43C113.13 115.102 113.35 117.774 113.546 120.445C112.482 117.499 111.895 114.406 111.785 111.164Z" fill="#CAC535"/>
<path fill-rule="evenodd" clip-rule="evenodd" d="M134.232 117.492C133.012 117.98 131.691 118.261 130.271 118.335C130.271 118.195 130.271 118.054 130.271 117.914C131.572 117.636 132.892 117.495 134.232 117.492Z" fill="#817F18"/>
<path fill-rule="evenodd" clip-rule="evenodd" d="M129.831 118.335C128.667 119.099 127.346 119.521 125.87 119.601C127.007 118.769 128.327 118.347 129.831 118.335Z" fill="#8D8B27"/>
<path fill-rule="evenodd" clip-rule="evenodd" d="M137.313 117.07C139.361 117.28 141.415 117.42 143.475 117.492C144.27 117.713 145.004 117.994 145.676 118.335C147.068 119.112 148.462 119.956 149.858 120.867C149.939 121.937 150.159 122.921 150.518 123.82C150.518 123.96 150.518 124.101 150.518 124.242C150.478 125.36 150.771 126.345 151.398 127.195C151.635 127.877 151.781 128.58 151.838 129.304C151.936 130.849 152.376 132.255 153.159 133.523C153.204 134.452 153.498 135.296 154.039 136.054C153.826 137.774 154.56 138.758 156.24 139.007C156.866 139.608 157.599 140.03 158.44 140.273C158.837 141.212 159.57 141.634 160.641 141.538C160.788 141.538 160.935 141.538 161.081 141.538C161.79 142.211 162.671 142.703 163.722 143.015C166.746 143.216 169.68 143.005 172.525 142.382C172.965 142.101 173.405 141.82 173.845 141.538C173.992 141.538 174.139 141.538 174.286 141.538C176.476 140.503 178.677 139.518 180.888 138.585C181.636 138.368 182.223 137.946 182.648 137.32C182.502 137.179 182.355 137.038 182.208 136.898C181.592 137.329 181.004 137.75 180.448 138.163C176.519 139.744 172.411 140.447 168.124 140.273C167.989 139.056 168.135 137.931 168.564 136.898C169.395 135.848 169.688 134.583 169.444 133.101C169.562 131.232 169.416 129.403 169.004 127.617C169.075 126.761 169.002 125.918 168.784 125.085C168.615 124.851 168.395 124.71 168.124 124.664C168.243 123.87 167.949 123.308 167.243 122.976C167.219 122.077 166.779 121.514 165.923 121.289C165.436 120.355 165.436 119.441 165.923 118.546C166.51 118.265 167.097 118.265 167.683 118.546C168.039 119.266 168.626 119.618 169.444 119.601C170.903 120.708 171.93 122.115 172.525 123.82C172.795 125.058 173.235 126.253 173.845 127.406C173.993 127.84 174.287 128.051 174.726 128.038C176.191 131.201 178.685 132.467 182.208 131.835C183.838 131.114 184.719 129.848 184.849 128.038C184.996 128.038 185.143 128.038 185.289 128.038C185.894 128.105 186.481 128.034 187.05 127.828C186.849 127.653 186.702 127.442 186.61 127.195C188.109 124.836 189.723 122.515 191.451 120.234C192.326 120.158 193.207 120.228 194.092 120.445C195.559 121.007 196.586 121.992 197.173 123.398C197.956 125.113 198.249 126.941 198.053 128.882C197.619 129.969 197.178 131.094 196.733 132.257C196.041 133.403 195.601 134.668 195.413 136.054C194.048 139.33 192.141 142.283 189.691 144.913C183.375 147.367 177.066 149.617 170.764 151.663C169.19 151.514 167.87 151.935 166.803 152.929C164.332 153.382 161.837 153.452 159.321 153.14C158.917 153.023 158.624 152.812 158.44 152.507C158.199 151.417 157.465 150.995 156.24 151.241C156.044 150.561 155.604 150.069 154.919 149.765C155.717 149.784 156.45 149.714 157.12 149.554C155.037 149.183 152.983 148.761 150.958 148.288C150.39 148.388 149.95 148.248 149.637 147.866C147.741 146.082 145.394 145.097 142.595 144.913C142.411 144.609 142.118 144.398 141.715 144.281C140.255 144.07 138.788 144 137.313 144.07C135.326 143.516 133.272 143.516 131.151 144.07C131.539 144.69 132.126 145.042 132.912 145.124C134.4 145.267 135.867 145.478 137.313 145.757C137.9 145.898 138.487 146.038 139.074 146.179C139.508 147.029 140.242 147.592 141.275 147.866C141.201 148.007 141.128 148.148 141.055 148.288C135.181 152.823 130.12 158.026 125.87 163.898C125.283 164.46 124.696 165.023 124.109 165.585C123.671 165.621 123.304 165.48 123.009 165.163C122.789 165.656 122.422 166.007 121.908 166.218C122.109 166.393 122.256 166.603 122.348 166.851C120.94 168.867 120.207 171.117 120.148 173.601C120.935 173.48 121.668 173.621 122.348 174.022C121.93 176.246 121.783 178.496 121.908 180.772C122.013 181.317 121.866 181.739 121.468 182.038C121.034 183.924 120.888 185.893 121.028 187.944C119.504 187.692 118.037 187.27 116.627 186.679C113.279 184.317 110.052 181.785 106.943 179.085C105.902 178.23 104.729 177.527 103.422 176.976C102.648 174.114 101.915 171.301 101.221 168.538C101.075 168.538 100.928 168.538 100.781 168.538C100.263 165.384 99.6757 162.29 99.0208 159.257C99.1458 158.449 98.9992 157.746 98.5806 157.148C98.6532 155.594 98.5802 154.048 98.3605 152.507C98.2382 152.121 98.0181 151.84 97.7003 151.663C97.3416 149.68 96.9015 147.711 96.3799 145.757C96.1849 143.884 96.1849 142.056 96.3799 140.273C97.041 139.566 97.6277 138.793 98.1405 137.952C101.955 134.859 105.769 131.765 109.584 128.671C110.255 128.246 110.989 128.035 111.785 128.038C111.71 127.481 111.857 126.988 112.225 126.562C114.68 125.139 117.101 123.663 119.488 122.132C120.388 121.664 121.342 121.383 122.348 121.289C123.662 120.94 124.836 120.378 125.87 119.601C127.346 119.521 128.667 119.099 129.831 118.335C129.977 118.335 130.124 118.335 130.271 118.335C131.691 118.261 133.012 117.98 134.232 117.492C135.29 117.514 136.317 117.373 137.313 117.07Z" fill="#F6F00B"/>
<path fill-rule="evenodd" clip-rule="evenodd" d="M125.87 119.601C124.836 120.378 123.662 120.94 122.348 121.289C123.158 120.177 124.332 119.615 125.87 119.601Z" fill="#9F9D33"/>
<path fill-rule="evenodd" clip-rule="evenodd" d="M137.313 114.96C139.082 115.022 140.843 115.163 142.595 115.382C144.597 115.895 146.504 116.598 148.317 117.492C149.607 118.364 150.854 119.348 152.058 120.445C152.151 121.102 152.371 121.664 152.719 122.132C152.689 122.748 152.836 123.31 153.159 123.82C154.994 124.223 156.901 124.223 158.881 123.82C158.057 124.367 157.177 124.789 156.24 125.085C155.506 125.085 154.773 125.085 154.039 125.085C154.317 127.788 154.831 130.46 155.579 133.101C155.905 133.868 156.419 134.431 157.12 134.788C157.884 137.067 159.499 138.473 161.962 139.007C162.161 139.411 162.454 139.763 162.842 140.062C164.302 140.272 165.769 140.342 167.243 140.273C167.618 136.762 167.692 133.247 167.463 129.726C167.208 127.336 166.548 125.087 165.483 122.976C165.904 123.167 166.271 123.448 166.583 123.82C166.705 123.433 166.926 123.152 167.243 122.976C167.949 123.308 168.243 123.87 168.124 124.663C168.312 125.722 168.605 126.707 169.004 127.617C169.416 129.403 169.562 131.232 169.444 133.101C168.822 134.248 168.529 135.514 168.564 136.898C168.135 137.931 167.989 139.056 168.124 140.273C170.29 140.425 172.343 140.847 174.286 141.538C174.139 141.538 173.992 141.538 173.845 141.538C172.135 141.6 170.521 141.881 169.004 142.382C166.319 142.434 163.679 142.153 161.081 141.538C160.935 141.538 160.788 141.538 160.641 141.538C160.025 140.952 159.292 140.53 158.44 140.273C157.599 140.03 156.866 139.608 156.24 139.007C155.608 137.933 154.875 136.948 154.039 136.054C153.498 135.296 153.204 134.452 153.159 133.523C153.06 131.978 152.62 130.572 151.838 129.304C151.781 128.58 151.635 127.877 151.398 127.195C151.438 126.076 151.145 125.092 150.518 124.242C150.518 124.101 150.518 123.96 150.518 123.82C150.59 122.686 150.516 121.561 150.298 120.445C148.955 119.344 147.414 118.641 145.676 118.335C145.004 117.994 144.27 117.713 143.475 117.492C141.463 116.623 139.409 116.483 137.313 117.07C136.317 117.373 135.29 117.514 134.232 117.492C132.892 117.495 131.572 117.636 130.271 117.914C130.517 117.369 130.957 117.018 131.592 116.859C130.427 116.649 129.253 116.579 128.07 116.648C130.91 115.311 133.991 114.749 137.313 114.96Z" fill="#130D06"/>
<path fill-rule="evenodd" clip-rule="evenodd" d="M113.546 121.289C114.077 121.598 114.664 121.739 115.306 121.71C114.96 122.387 114.373 122.669 113.546 122.554C113.546 122.132 113.546 121.71 113.546 121.289Z" fill="#737826"/>
<path fill-rule="evenodd" clip-rule="evenodd" d="M120.148 119.179C119.473 119.915 118.593 120.337 117.507 120.445C118.128 119.585 119.008 119.163 120.148 119.179Z" fill="#46430E"/>
<path fill-rule="evenodd" clip-rule="evenodd" d="M121.468 118.335C121.26 118.928 120.82 119.21 120.148 119.179C120.356 118.586 120.796 118.304 121.468 118.335Z" fill="#767410"/>
<path fill-rule="evenodd" clip-rule="evenodd" d="M110.465 87.539C110.465 88.664 110.465 89.789 110.465 90.914C110.321 94.6473 110.468 98.3035 110.905 101.883C110.909 105.01 111.202 108.104 111.785 111.164C111.895 114.405 112.482 117.499 113.546 120.445C113.546 120.726 113.546 121.007 113.546 121.289C113.546 121.711 113.546 122.132 113.546 122.554C114.373 122.669 114.96 122.387 115.306 121.711C115.922 121.124 116.656 120.702 117.507 120.445C118.593 120.337 119.473 119.916 120.148 119.179C120.82 119.21 121.26 118.929 121.468 118.336C123.571 117.429 125.772 116.867 128.07 116.648C129.253 116.579 130.427 116.649 131.592 116.859C130.957 117.018 130.517 117.37 130.271 117.914C130.271 118.054 130.271 118.195 130.271 118.336C130.125 118.336 129.977 118.336 129.831 118.336C128.327 118.347 127.007 118.769 125.87 119.601C124.332 119.615 123.158 120.177 122.348 121.289C121.342 121.383 120.388 121.665 119.488 122.132C117.101 123.663 114.68 125.14 112.225 126.562C111.857 126.989 111.71 127.481 111.785 128.039C110.989 128.035 110.255 128.246 109.584 128.672C105.77 131.765 101.955 134.859 98.1405 137.953C97.6277 138.793 97.041 139.566 96.3799 140.273C95.8548 140.471 95.5612 140.893 95.4996 141.539C95.6761 143.025 95.9692 144.432 96.3799 145.757C96.9015 147.711 97.3416 149.68 97.7003 151.664C97.7549 153.583 98.0485 155.411 98.5806 157.148C98.9992 157.746 99.1458 158.449 99.0208 159.257C98.6493 162.579 99.236 165.673 100.781 168.538C100.928 168.538 101.075 168.538 101.221 168.538C101.29 171.406 101.73 174.219 102.542 176.976C103.773 178.128 105.24 178.832 106.943 179.085C110.052 181.786 113.279 184.317 116.627 186.679C117.679 188.12 119.146 188.683 121.028 188.366C120.588 188.648 120.148 188.929 119.708 189.21C119.322 189.155 119.028 189.295 118.827 189.632C120.317 191.925 121.564 194.316 122.569 196.804C122.805 198.764 123.319 200.592 124.109 202.288C124.04 203.822 123.527 203.962 122.569 202.71C121.707 198.95 120.239 195.435 118.167 192.163C111.798 184.224 103.802 178.388 94.1792 174.656C96.4019 174.777 98.6026 175.128 100.781 175.71C99.8896 172.985 99.2294 170.173 98.8007 167.273C98.6299 166.881 98.3363 166.6 97.9204 166.429C91.0158 168.685 84.1201 170.935 77.2336 173.179C71.5399 175.941 66.1846 179.175 61.1683 182.882C64.8677 183.398 68.1688 184.804 71.0715 187.101C71.3744 187.452 71.3009 187.733 70.8515 187.944C68.2476 186.128 65.3136 185.144 62.0486 184.991C59.0648 185.452 56.2774 186.366 53.6858 187.734C52.8055 188.015 51.9252 188.015 51.0449 187.734C48.8644 186.348 46.8107 184.801 44.8829 183.093C44.0026 182.812 43.1223 182.812 42.242 183.093C41.4436 184.418 40.4898 185.614 39.3811 186.679C38.5444 189.622 38.5444 192.575 39.3811 195.538C40.4427 197.715 41.6166 199.824 42.9022 201.866C44.7478 203.356 46.2883 205.114 47.5238 207.14C52.9402 211.493 59.1022 214.376 66.0099 215.788C65.7163 215.928 65.4232 216.069 65.1296 216.21C62.8052 215.721 60.4579 215.37 58.0873 215.155C55.7448 214.197 53.3975 213.283 51.0449 212.413C50.7329 212.032 50.2927 211.891 49.7245 211.991C49.5898 213.208 49.7364 214.333 50.1646 215.366C50.2628 218.607 50.4829 221.841 50.8249 225.069C51.5815 231.295 52.5353 237.482 53.6858 243.632C53.5951 244.895 53.8883 246.02 54.5661 247.006C55.655 251.222 56.9019 255.441 58.3073 259.663C63.5019 269.902 69.811 279.465 77.2336 288.35C81.551 292.348 85.7323 296.496 89.7777 300.795C94.8843 304.703 99.8729 308.781 104.743 313.029C107.178 314.548 109.673 315.954 112.225 317.248C113.094 317.457 113.974 317.527 114.866 317.459C113.894 315.025 113.454 312.494 113.546 309.865C113.986 309.865 114.426 309.865 114.866 309.865C114.876 310.889 115.096 311.873 115.526 312.818C116.7 314.506 117.874 316.193 119.047 317.881C120.286 319.782 120.433 321.751 119.488 323.787C118.175 325.676 116.928 327.575 115.746 329.482C117.575 331.517 119.409 333.556 121.248 335.6C134.336 334.236 141.745 327.205 143.475 314.506C143.769 313.161 144.062 311.754 144.356 310.287C144.65 311.329 144.943 312.313 145.236 313.24C145.339 313.492 145.56 313.633 145.896 313.662C149.847 311.875 153.881 310.258 158 308.811C162.461 306.012 166.862 303.129 171.205 300.162C171.944 300.072 172.384 300.353 172.525 301.006C168.901 305.347 164.499 308.792 159.321 311.342C156.467 312.82 153.533 314.085 150.518 315.139C148.793 315.626 147.033 315.837 145.236 315.772C144.026 327.354 137.57 334.315 125.87 336.654C119.837 337.815 115.876 335.635 113.986 330.115C114.059 329.693 114.132 329.271 114.206 328.85C115.741 327.313 117.061 325.626 118.167 323.787C118.486 322.573 118.266 321.449 117.507 320.412C116.175 320.049 115.001 319.416 113.986 318.514C108.98 317.033 104.285 314.924 99.9011 312.186C93.265 307.179 86.8094 301.976 80.5347 296.576C71.5002 287.352 63.5776 277.297 56.7668 266.413C56.6695 265.33 56.376 264.345 55.8865 263.459C54.6779 260.053 53.4305 256.678 52.1453 253.335C51.0551 248 49.8812 242.656 48.6241 237.303C48.0546 230.392 47.5409 223.501 47.0836 216.632C46.9617 214.635 47.1087 212.666 47.5238 210.726C47.3675 210.294 47.0739 210.013 46.6435 209.882C42.4071 206.733 39.0325 202.866 36.5201 198.28C35.5883 195.148 35.2948 191.984 35.6398 188.788C36.922 186.264 38.6826 184.084 40.9216 182.249C42.2513 181.965 43.5717 181.824 44.8829 181.827C46.2971 182.85 47.6175 183.975 48.8442 185.202C49.4485 185.571 50.1087 185.782 50.8249 185.835C53.2457 185.028 55.6665 184.325 58.0873 183.726C58.6405 182.458 59.3738 181.263 60.288 180.14C68.0834 174.12 76.7393 169.831 86.2565 167.273C87.5748 167.36 88.7486 167.079 89.7777 166.429C91.6065 165.837 93.5137 165.415 95.4996 165.163C96.3799 165.163 97.2602 165.163 98.1405 165.163C98.2734 164.084 98.1264 163.099 97.7003 162.21C95.8865 155.012 94.7861 147.699 94.3992 140.273C96.0515 137.844 98.0322 135.664 100.341 133.734C104.376 130.429 108.41 127.125 112.445 123.82C111.017 117.829 109.697 111.783 108.484 105.68C107.611 98.6077 107.685 91.5763 108.704 84.5859C109.104 83.9452 109.471 83.2421 109.804 82.4766C109.951 82.6172 110.098 82.7578 110.244 82.8984C110.191 84.5218 110.264 86.0686 110.465 87.539Z" fill="#131212"/>
</g>
</g>
<defs>
<clipPath id="clip0_639_5316">
<rect width="135" height="130" fill="white"/>
</clipPath>
<clipPath id="clip1_639_5316">
<rect width="346" height="281" fill="white" transform="translate(29 54)"/>
</clipPath>
</defs>
</svg>
