<svg width="135" height="130" viewBox="0 0 135 130" fill="none" xmlns="http://www.w3.org/2000/svg">
<g clip-path="url(#clip0_639_5314)">
<rect x="-268.5" y="1.5" width="402" height="387" rx="18.5" fill="#FDFFEF" stroke="black" stroke-width="3"/>
<g clip-path="url(#clip1_639_5314)">
<path fill-rule="evenodd" clip-rule="evenodd" d="M19.1635 165.585C18.752 167.903 18.4584 170.294 18.2832 172.757C18.2414 173.722 17.9479 174.565 17.403 175.288C17.2784 174.955 17.0583 174.674 16.7427 174.445C16.281 175.123 15.6208 175.404 14.7621 175.288C15.8541 172.658 16.4412 169.985 16.5227 167.273C14.1027 168.762 11.6084 168.903 9.04019 167.695C10.7616 167.614 12.5222 167.543 14.3219 167.484C18.1371 165.374 20.8515 162.35 22.4646 158.413C23.609 153.972 24.0491 149.471 23.7851 144.914C23.3467 144.002 22.6865 143.299 21.8044 142.804C18.8955 139.225 15.2278 136.553 10.8008 134.789C8.64186 133.537 6.29457 132.623 3.75845 132.047C-0.481468 131.434 -4.73591 131.153 -9.00576 131.203C-13.4856 135.216 -17.6669 139.504 -21.5499 144.07C-21.5239 145.991 -21.1573 147.819 -20.4495 149.554C-20.4495 149.695 -20.4495 149.836 -20.4495 149.976C-19.6678 152.655 -18.9341 155.326 -18.2488 157.992C-15.4944 158.122 -12.7804 157.981 -10.1061 157.57C-9.67434 156.464 -9.16113 155.41 -8.56562 154.406C-9.00796 151.515 -10.1814 148.913 -12.0868 146.601C-10.6766 146.304 -9.28261 146.023 -7.9054 145.757C-7.34641 143.282 -6.53963 140.891 -5.4846 138.586C-5.33803 138.867 -5.19102 139.148 -5.04445 139.429C-6.02862 143.273 -6.90891 147.14 -7.68533 151.031C-7.56473 152.741 -6.831 154.077 -5.4846 155.039C-4.01407 156.707 -2.10648 157.411 0.237289 157.148C0.596888 156.106 0.816961 154.982 0.897507 153.773C1.04408 154.898 1.19108 156.023 1.33765 157.148C1.50623 157.382 1.7263 157.523 1.99787 157.57C2.14444 157.57 2.29145 157.57 2.43802 157.57C3.58768 159.603 5.34826 160.939 7.71976 161.578C9.94601 161.856 12.1467 161.716 14.3219 161.156C15.5275 160.723 16.5544 160.09 17.403 159.257C18.7476 158.28 19.0407 157.015 18.2832 155.46C16.9263 156.892 15.3127 157.454 13.4416 157.148C15.6243 155.268 17.7515 153.299 19.8238 151.242C20.9171 147.9 21.3572 148.041 21.1442 151.664C20.8735 152.345 20.4334 152.908 19.8238 153.351C20.4743 159.364 17.7604 162.95 11.6811 164.109C8.96625 164.68 6.47239 164.258 4.1986 162.843C2.64356 161.329 1.24962 159.712 0.0172168 157.992C-2.04398 158.323 -3.80456 159.167 -5.26453 160.523C-5.5581 160.945 -5.5581 161.367 -5.26453 161.788C-2.15622 163.451 0.557715 165.56 2.87816 168.117C2.87816 169.101 2.87816 170.085 2.87816 171.07C2.58458 170.648 2.29145 170.226 1.99787 169.804C1.70429 169.242 1.26415 168.82 0.677435 168.538C0.237289 167.835 -0.349424 167.273 -1.08315 166.851C-1.39521 166.47 -1.83535 166.329 -2.40358 166.429C-2.47841 165.871 -2.33184 165.379 -1.96344 164.952C-2.18351 164.742 -2.40358 164.531 -2.62365 164.32C-3.24602 164.705 -3.90624 164.705 -4.60431 164.32C-6.62942 163.422 -8.53701 162.437 -10.3262 161.367C-10.7439 161.092 -11.2571 160.951 -11.8667 160.945C-12.7505 160.863 -13.4107 161.145 -13.8474 161.788C-14.2875 161.788 -14.7276 161.788 -15.1678 161.788C-17.2118 162.252 -19.1194 162.955 -20.8897 163.898C-22.0569 163.86 -23.0838 164.141 -23.9707 164.742C-25.0508 165.048 -26.0777 165.47 -27.0517 166.007C-27.6384 166.007 -27.932 165.726 -27.932 165.163C-26.9461 164.123 -25.7722 163.279 -24.4108 162.632C-25.5821 161.86 -26.5359 160.876 -27.2718 159.679C-27.5654 158.695 -27.5654 157.71 -27.2718 156.726C-26.2863 154.795 -25.1129 152.967 -23.7506 151.242C-23.3105 150.96 -22.8703 150.679 -22.4302 150.398C-22.4623 148.009 -22.4623 145.619 -22.4302 143.226C-19.4913 138.299 -15.7501 134.01 -11.2065 130.359C0.0489075 127.749 10.1722 129.858 19.1635 136.687C21.1442 138.586 23.1248 140.484 25.1055 142.382C26.017 148.024 25.8705 153.649 24.6654 159.257C23.0571 161.57 21.223 163.679 19.1635 165.585Z" fill="#131512"/>
</g>
</g>
<defs>
<clipPath id="clip0_639_5314">
<rect width="135" height="130" fill="white"/>
</clipPath>
<clipPath id="clip1_639_5314">
<rect width="346" height="281" fill="white" transform="translate(-241 54)"/>
</clipPath>
</defs>
</svg>
