<svg width="135" height="130" viewBox="0 0 135 130" fill="none" xmlns="http://www.w3.org/2000/svg">
<g clip-path="url(#clip0_639_7982)">
<rect x="-268.5" y="-258.5" width="402" height="387" rx="18.5" fill="#FDFFEF" stroke="black" stroke-width="3"/>
<g clip-path="url(#clip1_639_7982)">
<path fill-rule="evenodd" clip-rule="evenodd" d="M80.7838 -29.8684C80.7763 -25.9243 80.9233 -21.987 81.2239 -18.056C80.5721 -14.0225 79.9118 -9.94423 79.2433 -5.8217C78.5399 -4.15066 77.8797 -2.46318 77.2626 -0.759238C75.8757 0.781015 74.4087 2.25757 72.8612 3.67041C70.1512 5.25032 67.3637 6.58639 64.4984 7.6782C61.8659 8.15196 59.225 8.15196 56.5758 7.6782C54.8874 7.07914 53.2734 6.37588 51.7342 5.56884C54.5036 13.4962 58.1713 21.0195 62.7378 28.139C69.8955 30.2154 77.2309 30.9887 84.7451 30.4593C87.8279 30.3441 90.9089 30.2036 93.9881 30.0374C96.6132 32.2024 99.034 34.5932 101.251 37.2092C102.061 38.763 103.088 40.1691 104.332 41.4279C105.209 47.4708 103.449 52.6738 99.0498 57.0372C94.5189 60.9686 89.3107 63.7108 83.4246 65.2637C78.9572 66.3994 74.4087 67.1727 69.7801 67.584C68.5389 67.5511 67.3651 67.2697 66.259 66.7402C63.7744 67.1292 61.2801 67.1292 58.7765 66.7402C57.6009 66.0576 56.2804 65.7763 54.8152 65.8965C47.5458 64.2529 40.65 61.6512 34.1284 58.0919C33.131 57.4903 32.3977 56.7166 31.9277 55.7716C32.6614 55.4902 33.3947 55.2092 34.1284 54.9278C35.5743 55.972 37.1883 56.6752 38.97 57.0372C39.6742 57.5198 40.4079 58.0121 41.1707 58.5137C44.5704 59.2554 47.7984 60.3805 50.8539 61.8887C56.3786 63.0063 61.8804 64.2018 67.3593 65.4746C69.7357 65.0608 72.0099 64.498 74.1816 63.7871C79.2041 63.2602 84.0457 62.0651 88.7064 60.2012C90.6602 59.371 92.4208 58.3163 93.9881 57.0372C94.6602 57.068 95.1004 56.7866 95.3086 56.1934C98.9481 53.2374 101.442 49.5106 102.791 45.0138C100.471 41.071 97.7566 37.3446 94.6483 33.8342C94.2042 33.1909 93.9842 32.4876 93.9881 31.7249C93.0546 31.6511 92.1743 31.792 91.3473 32.1468C85.6711 32.9281 79.9493 33.209 74.1816 32.9905C71.7595 32.6846 69.4117 32.1223 67.1393 31.303C66.4579 30.0614 65.4306 29.6396 64.0583 30.0374C64.7563 30.7432 65.0499 31.5869 64.9385 32.5686C64.3342 32.6349 63.7471 32.5644 63.178 32.3577C59.402 27.4328 56.0274 22.3003 53.0546 16.9594C51.1017 12.08 49.121 7.15845 47.1127 2.19386C47.2227 -1.30767 46.636 -4.68265 45.3521 -7.93106C44.8384 -8.42338 44.3252 -8.91528 43.8116 -9.40761C40.3045 -11.2297 36.7833 -13.0576 33.2481 -14.8919C30.2459 -15.9108 27.1648 -16.3326 24.005 -16.1576C22.2242 -14.6063 20.3171 -13.2703 18.2832 -12.1498C17.9896 -12.1498 17.843 -12.0093 17.843 -11.7279C16.7145 -11.5258 15.6141 -11.2449 14.5419 -10.8842C13.762 -6.95105 12.295 -3.29469 10.1405 0.0845053C6.75663 4.88794 3.16196 9.52853 -0.643091 14.0063C-1.58192 14.6775 -2.3152 15.5212 -2.84382 16.5375C-3.13739 16.5375 -3.28396 16.678 -3.28396 16.9594C-5.6559 18.6713 -7.56305 20.7807 -9.00585 23.2874C-9.15242 23.2874 -9.29943 23.2874 -9.44599 23.2874C-13.3039 26.4207 -16.6785 29.9366 -19.5693 33.8342C-20.2595 32.8087 -20.9197 32.8087 -21.55 33.8342C-21.6723 33.4478 -21.8924 33.1668 -22.2102 32.9905C-19.2859 29.7644 -16.3514 26.53 -13.4073 23.2874C-7.21182 16.9252 -1.48993 10.1753 3.75836 3.03761C7.30989 -1.09125 10.3174 -5.59094 12.7813 -10.4623C12.9279 -12.853 13.0749 -15.2434 13.2215 -17.6341C14.1423 -16.4221 14.5824 -15.0155 14.5419 -13.4154C14.7888 -13.1952 15.0824 -13.0547 15.4222 -12.9935C18.8457 -14.3157 22.0002 -16.0032 24.8853 -18.056C27.5266 -18.5774 30.1675 -18.507 32.8079 -17.845C37.0003 -15.9074 40.8146 -13.4466 44.2517 -10.4623C45.7051 -8.99671 47.0986 -7.4497 48.4331 -5.8217C48.9542 -3.73175 49.3944 -1.62239 49.7535 0.506377C50.7342 1.18686 51.8345 1.46824 53.0546 1.35012C53.0546 1.77199 53.0546 2.19386 53.0546 2.61574C52.3068 2.54824 51.5731 2.61827 50.8539 2.82667C53.6127 6.11643 57.1339 7.24156 61.4174 6.20165C66.1582 4.60992 70.3396 2.14915 73.9615 -1.18111C74.1657 -1.4317 74.2393 -1.71309 74.1816 -2.02485C75.1882 -3.56553 75.9954 -5.25302 76.6024 -7.08731C79.0205 -16.5541 78.874 -25.9758 76.1622 -35.3527C75.6966 -36.7306 75.0364 -37.9962 74.1816 -39.1496C74.2507 -39.7288 74.1772 -40.2916 73.9615 -40.8371C71.9351 -43.4269 70.3211 -46.2395 69.1199 -49.2745C67.5913 -50.5334 65.9042 -51.5176 64.0583 -52.2276C62.2022 -53.7695 60.0014 -54.6837 57.4561 -54.9698C55.817 -55.5853 54.2765 -56.359 52.8346 -57.29C47.5273 -53.7248 43.0523 -49.3656 39.4101 -44.212C38.8991 -42.4001 38.8256 -40.5717 39.19 -38.7277C41.2125 -34.9912 43.1197 -31.1943 44.9119 -27.3372C45.1311 -26.0791 45.2046 -24.8135 45.132 -23.5403C46.6017 -23.3758 48.0691 -23.1648 49.5335 -22.9075C50.1818 -22.608 50.4754 -22.1161 50.4138 -21.431C44.8961 -21.242 39.4673 -21.8047 34.1284 -23.1184C33.2415 -23.7192 32.2146 -24.0002 31.0474 -23.9622C23.8422 -25.3012 16.6533 -26.7778 9.48025 -28.3918C5.82836 -28.4247 2.3072 -28.9166 -1.08324 -29.8684C-2.16995 -30.2131 -3.34338 -30.424 -4.6044 -30.5012C-4.05994 -30.5991 -3.61979 -30.81 -3.28396 -31.134C-1.97145 -31.4145 -0.577949 -31.555 0.897418 -31.5559C4.49428 -31.3825 8.08895 -31.1715 11.681 -30.9231C20.5605 -29.1655 29.3634 -27.1967 38.0897 -25.0169C39.8353 -24.6676 41.5959 -24.4566 43.3714 -24.3841C43.1263 -26.9929 42.4661 -29.5241 41.3908 -31.9777C35.3265 -38.6412 35.3265 -45.2503 41.3908 -51.8057C44.7112 -55.5157 48.8926 -57.7659 53.9349 -58.5557C59.7233 -57.6419 64.858 -55.3916 69.34 -51.8057C73.2014 -46.7964 76.5025 -41.4526 79.2433 -35.7746C79.5632 -33.7441 80.0769 -31.7757 80.7838 -29.8684Z" fill="#101310"/>
<path fill-rule="evenodd" clip-rule="evenodd" d="M24.8854 -18.0563C22.0002 -16.0035 18.8457 -14.316 15.4223 -12.9938C15.0825 -13.055 14.7889 -13.1955 14.542 -13.4157C14.5825 -15.0159 14.1423 -16.4224 13.2215 -17.6344C13.075 -15.2437 12.9279 -12.8533 12.7814 -10.4626C10.3174 -5.59124 7.30993 -1.09156 3.7584 3.0373C4.15233 1.50591 4.73905 0.0293531 5.51898 -1.39235C5.42699 -2.18168 4.98685 -2.674 4.19855 -2.86891C3.6893 -4.25433 3.6158 -5.66085 3.97848 -7.08762C4.44591 -6.02071 4.81255 -4.89558 5.07884 -3.71265C5.51678 -5.94519 5.66335 -8.19504 5.51898 -10.4626C7.57314 -10.4626 9.62686 -10.4626 11.681 -10.4626C11.0961 -14.9433 10.8029 -19.4434 10.8007 -23.9625C6.1057 -23.9625 1.41111 -23.9625 -3.28392 -23.9625C-3.28392 -21.7127 -3.28392 -19.4624 -3.28392 -17.2125C-5.63121 -17.2125 -7.97895 -17.2125 -10.3262 -17.2125C-10.2299 -17.7082 -10.3764 -18.1301 -10.7664 -18.4782C-11.0639 -18.0133 -11.3571 -17.5914 -11.6467 -17.2125C-11.6792 -18.8013 -11.019 -20.0669 -9.66603 -21.0094C-8.72103 -20.5976 -7.76724 -20.6681 -6.80508 -21.2203C-7.00623 -21.395 -7.15324 -21.6059 -7.24523 -21.8531C-7.02868 -23.6731 -6.44196 -25.3606 -5.48465 -26.9156C-5.12021 -27.3016 -4.68006 -27.5826 -4.16421 -27.7593C0.822635 -27.8294 5.8108 -27.478 10.8007 -26.7047C15.4733 -25.6593 20.1679 -24.7451 24.8854 -23.9625C24.8854 -21.9936 24.8854 -20.0252 24.8854 -18.0563Z" fill="#B5DAB6"/>
<path fill-rule="evenodd" clip-rule="evenodd" d="M3.75846 3.03739C-1.48983 10.175 -7.21172 16.925 -13.4072 23.2872C-14.7998 23.3117 -16.1203 23.5927 -17.3685 24.131C-17.3685 24.5528 -17.3685 24.9747 -17.3685 25.3966C-18.7189 25.3768 -20.0393 25.1658 -21.3298 24.7638C-21.6982 24.3373 -21.8448 23.8449 -21.77 23.2872C-22.6503 23.2872 -23.5305 23.2872 -24.4108 23.2872C-24.4108 24.131 -24.4108 24.9747 -24.4108 25.8185C-22.9733 25.7902 -22.3131 26.493 -22.4302 27.9278C-21.9799 29.5381 -22.2 31.0147 -23.0904 32.3575C-25.8325 31.9335 -28.6199 31.7226 -31.4532 31.7247C-31.6539 33.2514 -30.9936 34.2356 -29.4725 34.6778C-29.2551 35.3671 -29.182 36.0704 -29.2524 36.7871C-29.9672 36.7281 -30.4804 37.0094 -30.7929 37.6309C-33.2815 37.4862 -35.8493 37.2048 -38.4955 36.7871C-38.4955 34.5373 -38.4955 32.287 -38.4955 30.0372C-36.1482 30.0372 -33.8005 30.0372 -31.4532 30.0372C-31.4532 23.8496 -31.4532 17.6624 -31.4532 11.4748C-31.4532 10.9125 -31.4532 10.3497 -31.4532 9.78733C-30.936 9.87972 -30.4958 9.73924 -30.1327 9.36546C-29.5874 8.06905 -28.7806 6.94392 -27.7119 5.99049C-27.2313 4.91725 -26.9377 3.79211 -26.8316 2.61551C-26.0838 2.99773 -25.2766 3.13821 -24.4108 3.03739C-24.483 1.90382 -24.4095 0.778685 -24.1908 -0.337588C-22.7968 -1.11088 -21.6965 -2.16556 -20.8897 -3.50163C-21.0362 -3.64211 -21.1833 -3.78301 -21.3298 -3.9235C-20.5913 -4.84908 -20.1511 -5.90376 -20.0094 -7.08753C-19.6207 -8.43921 -18.887 -9.56434 -17.8087 -10.4625C-17.2219 -10.4625 -16.6348 -10.4625 -16.0481 -10.4625C-16.1172 -11.0417 -16.0437 -11.6045 -15.828 -12.15C-15.5344 -12.7123 -15.2413 -12.7123 -14.9477 -12.15C-14.6541 -13.2751 -14.361 -13.2751 -14.0674 -12.15C-13.5538 -13.2047 -13.0406 -14.2594 -12.5269 -15.314C-13.0291 -16.2523 -12.7355 -16.8851 -11.6466 -17.2125C-11.357 -17.5913 -11.0639 -18.0132 -10.7663 -18.4781C-10.3764 -18.13 -10.2298 -17.7082 -10.3262 -17.2125C-7.97889 -17.2125 -5.63116 -17.2125 -3.28387 -17.2125C-3.28387 -19.4623 -3.28387 -21.7126 -3.28387 -23.9624C1.41116 -23.9624 6.10575 -23.9624 10.8008 -23.9624C10.803 -19.4433 11.0961 -14.9432 11.6811 -10.4625C9.62691 -10.4625 7.5732 -10.4625 5.51904 -10.4625C5.66341 -8.19495 5.51684 -5.94511 5.07889 -3.71256C4.81261 -4.89549 4.44596 -6.02062 3.97853 -7.08753C3.61585 -5.66076 3.68936 -4.25424 4.1986 -2.86882C4.9869 -2.67391 5.42705 -2.18159 5.51904 -1.39227C4.7391 0.0294407 4.15239 1.50599 3.75846 3.03739Z" fill="#B4DCB5"/>
<path fill-rule="evenodd" clip-rule="evenodd" d="M53.0547 16.9591C52.2276 16.6044 51.3474 16.4634 50.4138 16.5373C50.5555 15.5999 50.262 14.8262 49.5335 14.217C49.6801 14.0765 49.8271 13.9356 49.9737 13.7951C48.6035 12.8948 47.4301 13.1058 46.4525 14.4279C46.0172 12.9062 45.8702 11.3592 46.0124 9.78733C46.5991 9.78733 47.1862 9.78733 47.7729 9.78733C47.1017 5.29988 46.2214 0.799774 45.1321 -3.71257C44.5277 -3.64633 43.9406 -3.71678 43.3715 -3.9235C42.1201 -4.98282 41.0198 -6.17798 40.0704 -7.50941C39.8882 -7.31661 39.6681 -7.17571 39.4102 -7.08754C38.9758 -8.46621 38.8292 -9.87273 38.97 -11.3063C37.1157 -11.3746 35.3551 -11.0932 33.6883 -10.4625C30.778 -11.0223 27.844 -11.4442 24.8854 -11.7281C23.8044 -12.8166 22.704 -12.8166 21.5843 -11.7281C20.5772 -12.6377 19.4769 -12.7786 18.2832 -12.15C20.3171 -13.2705 22.2243 -14.6066 24.0051 -16.1578C27.1649 -16.3329 30.2459 -15.911 33.2481 -14.8922C36.7834 -13.0579 40.3045 -11.2299 43.8116 -9.40783C44.3253 -8.91551 44.8385 -8.42361 45.3521 -7.93128C46.636 -4.68287 47.2228 -1.3079 47.1127 2.19364C49.1211 7.15822 51.1018 12.0798 53.0547 16.9591Z" fill="#B5D7B7"/>
<path fill-rule="evenodd" clip-rule="evenodd" d="M53.0547 16.9592C52.9821 18.2324 53.0556 19.498 53.2748 20.756C54.7559 21.8904 55.9293 23.2969 56.796 24.9747C57.0081 26.5112 57.3012 28.0582 57.6763 29.6153C58.4241 29.9975 59.2313 30.138 60.0971 30.0372C60.311 31.7281 61.0447 33.2046 62.2978 34.4668C63.1781 34.7482 64.0584 34.7482 64.9386 34.4668C65.5403 33.3396 65.9805 32.1444 66.2591 30.8809C66.5597 31.0341 66.8533 31.1746 67.1394 31.3028C67.0817 31.6724 67.2283 31.9538 67.5795 32.1465C69.0901 32.9819 70.7037 33.6147 72.4211 34.045C71.223 34.5816 70.6359 35.4958 70.6605 36.7871C71.8344 36.7871 73.0078 36.7871 74.1817 36.7871C74.1817 35.9434 74.1817 35.0997 74.1817 34.2559C78.8767 34.2559 83.5713 34.2559 88.2663 34.2559C88.2663 35.0997 88.2663 35.9434 88.2663 36.7871C88.8531 36.7871 89.4402 36.7871 90.0269 36.7871C88.8293 33.8556 89.8561 32.7304 93.1079 33.4122C93.052 34.431 92.979 35.4156 92.8879 36.3653C93.9359 36.7597 95.0362 36.9002 96.189 36.7871C96.1172 37.7815 96.1903 38.7657 96.409 39.7402C99.1498 40.7591 100.544 42.7279 100.59 45.6464C100.517 46.3497 100.444 47.0525 100.37 47.7558C99.6996 48.7902 98.9658 49.7749 98.1696 50.7089C98.1313 52.0074 97.5442 52.9921 96.409 53.662C96.0692 53.6008 95.7757 53.4604 95.5287 53.2401C95.31 54.2147 95.2369 55.1989 95.3087 56.1932C95.1005 56.7864 94.6603 57.0678 93.9882 57.037C92.1977 57.8174 90.2906 58.2393 88.2663 58.3026C88.2663 57.8807 88.2663 57.4589 88.2663 57.037C87.0925 57.037 85.919 57.037 84.7452 57.037C84.7351 57.9229 85.0286 58.6962 85.6255 59.3573C84.8768 60.7144 83.7764 61.0659 82.3244 60.412C81.5907 60.8338 80.8574 61.2557 80.1237 61.6776C78.2658 61.1528 76.2852 61.1528 74.1817 61.6776C74.1817 62.3808 74.1817 63.0837 74.1817 63.7869C72.01 64.4978 69.7358 65.0606 67.3594 65.4744C61.8805 64.2016 56.3787 63.006 50.854 61.8885C47.7985 60.3803 44.5705 59.2552 41.1708 58.5135C40.408 58.0119 39.6743 57.5196 38.9701 57.037C38.9701 56.4746 38.9701 55.9119 38.9701 55.3495C37.8151 54.5268 36.4947 53.894 35.0088 53.4511C34.9533 52.5086 35.0999 51.524 35.4489 50.498C33.4727 50.0537 33.1795 50.6161 34.5686 52.1855C34.4221 52.2559 34.2751 52.3259 34.1285 52.3964C33.6514 51.9049 33.2847 51.3426 33.0281 50.7089C32.8459 50.9017 32.6258 51.0426 32.3679 51.1308C31.8556 48.6114 31.7825 46.0801 32.1478 43.5371C33.4414 40.4389 35.1285 40.2984 37.2095 43.1152C38.4982 43.5303 39.8187 43.6708 41.1708 43.5371C40.9983 42.4208 40.9983 41.3661 41.1708 40.373C40.5392 40.5043 39.9525 40.4342 39.4102 40.1621C38.5938 38.7902 37.5669 37.5946 36.3292 36.5762C37.0929 36.3016 37.8266 36.3716 38.5299 36.7871C38.9679 34.5546 39.1144 32.3048 38.9701 30.0372C38.2364 30.0372 37.5031 30.0372 36.7694 30.0372C36.6514 31.1421 36.798 32.1968 37.2095 33.2012C36.8966 33.7307 36.5299 34.2226 36.1091 34.6778C35.2306 33.24 34.717 31.693 34.5686 30.0372C33.6883 30.0372 32.808 30.0372 31.9278 30.0372C29.2438 25.4152 27.3362 20.4932 26.2059 15.2717C26.944 13.5652 27.2376 11.7372 27.0862 9.78735C28.7002 9.78735 30.3137 9.78735 31.9278 9.78735C31.9278 7.53751 31.9278 5.28724 31.9278 3.0374C27.8199 3.0374 23.7116 3.0374 19.6037 3.0374C19.5236 5.00712 19.5236 6.90554 19.6037 8.73267C19.0601 9.98394 18.4734 11.1791 17.8431 12.3186C16.4571 12.1967 15.1367 12.4076 13.8818 12.9514C13.1881 13.8276 12.3078 14.4604 11.2409 14.8498C10.832 15.3514 10.6855 15.9138 10.8008 16.5373C8.24531 16.9782 5.751 17.6814 3.31832 18.6467C3.15899 16.5993 2.57227 14.7009 1.55774 12.9514C1.94727 12.0414 2.68099 11.69 3.75847 11.8967C3.75847 11.1934 3.75847 10.4906 3.75847 9.78735C6.10576 9.78735 8.45349 9.78735 10.8008 9.78735C10.8008 6.97473 10.8008 4.16253 10.8008 1.34991C13.1481 1.34991 15.4958 1.34991 17.8431 1.34991C17.9884 -1.33657 17.8414 -4.0087 17.403 -6.66565C16.7471 -5.97969 16.0869 -5.27685 15.4223 -4.55629C15.3479 -6.52264 15.421 -8.49151 15.6424 -10.4625C16.3761 -10.4625 17.1094 -10.4625 17.8431 -10.4625C17.8431 -10.8844 17.8431 -11.3062 17.8431 -11.7281C17.8431 -12.0095 17.9897 -12.15 18.2833 -12.15C19.4769 -12.7786 20.5773 -12.6377 21.5843 -11.7281C22.7041 -12.8165 23.8044 -12.8165 24.8854 -11.7281C27.8441 -11.4442 30.7781 -11.0223 33.6883 -10.4625C35.3552 -11.0932 37.1157 -11.3746 38.9701 -11.3062C38.8292 -9.87272 38.9758 -8.4662 39.4102 -7.08752C39.6682 -7.17569 39.8882 -7.3166 40.0704 -7.50939C41.0198 -6.17797 42.1202 -4.9828 43.3715 -3.92348C43.9406 -3.71677 44.5278 -3.64631 45.1321 -3.71255C46.2215 0.799792 47.1018 5.2999 47.773 9.78735C47.1863 9.78735 46.5991 9.78735 46.0124 9.78735C45.8702 11.3592 46.0172 12.9062 46.4525 14.4279C47.4301 13.1058 48.6035 12.8949 49.9737 13.7951C49.8271 13.9356 49.6801 14.0765 49.5336 14.217C50.262 14.8262 50.5556 15.5999 50.4139 16.5373C51.3474 16.4635 52.2277 16.6044 53.0547 16.9592Z" fill="#B4DCB5"/>
<path fill-rule="evenodd" clip-rule="evenodd" d="M50.4138 -20.1654C49.0384 -19.7524 47.5714 -19.6115 46.0124 -19.7436C46.0124 -19.3217 46.0124 -18.8998 46.0124 -18.478C48.3548 -18.6805 50.7021 -18.8209 53.0547 -18.8998C53.0547 -18.3375 53.0547 -17.7747 53.0547 -17.2123C50.7074 -17.2123 48.3597 -17.2123 46.0124 -17.2123C46.0124 -16.65 46.0124 -16.0872 46.0124 -15.5249C45.2888 -15.6151 44.6286 -15.4742 44.0317 -15.103C43.9771 -14.0753 44.1972 -13.0911 44.6919 -12.1499C45.1321 -12.1499 45.5722 -12.1499 46.0124 -12.1499C46.0124 -11.5875 46.0124 -11.0247 46.0124 -10.4624C48.3597 -10.4624 50.7074 -10.4624 53.0547 -10.4624C53.2435 -8.11257 52.9499 -5.86231 52.1744 -3.71245C51.5877 -3.71245 51.0005 -3.71245 50.4138 -3.71245C50.3434 -2.99569 50.4165 -2.29243 50.6339 -1.60309C52.1744 -1.32465 52.8346 -2.02791 52.6146 -3.71245C59.3699 -3.85293 66.1186 -3.71203 72.8612 -3.29058C73.1641 -2.71894 73.6042 -2.29707 74.1817 -2.02496C74.2393 -1.7132 74.1658 -1.43181 73.9616 -1.18122C70.3396 2.14904 66.1583 4.60981 61.4175 6.20154C57.134 7.24145 53.6128 6.11632 50.854 2.82656C51.5732 2.61816 52.3069 2.54813 53.0547 2.61563C53.0547 2.19376 53.0547 1.77188 53.0547 1.35001C51.8346 1.46814 50.7343 1.18675 49.7536 0.506268C49.3944 -1.6225 48.9543 -3.73185 48.4332 -5.82181C47.0987 -7.44981 45.7052 -8.99681 44.2518 -10.4624C43.9094 -11.1901 43.7628 -11.893 43.8116 -12.5718C43.4485 -12.9455 43.0084 -13.086 42.4912 -12.9936C42.4696 -14.0901 42.0295 -15.0043 41.1708 -15.7358C39.9432 -15.8375 38.7693 -16.1188 37.6496 -16.5795C37.1505 -17.0082 37.2971 -17.2895 38.0898 -17.4233C36.4234 -18.7842 34.5162 -19.6984 32.3679 -20.1654C31.959 -20.667 31.8124 -21.2294 31.9277 -21.8529C34.9352 -21.9031 37.8697 -21.4813 40.7306 -20.5873C41.9045 -20.7278 43.0779 -20.8687 44.2518 -21.0092C46.2606 -20.3987 48.3148 -20.1178 50.4138 -20.1654Z" fill="#B5D9B6"/>
<path fill-rule="evenodd" clip-rule="evenodd" d="M17.843 -11.7285C17.843 -11.3066 17.843 -10.8848 17.843 -10.4629C17.1093 -10.4629 16.376 -10.4629 15.6423 -10.4629C15.4209 -8.49192 15.3478 -6.52304 15.4222 -4.5567C16.0869 -5.27725 16.7471 -5.98009 17.4029 -6.66606C17.8413 -4.00911 17.9883 -1.33697 17.843 1.34951C15.4957 1.34951 13.148 1.34951 10.8007 1.34951C10.8007 4.16213 10.8007 6.97432 10.8007 9.78694C8.45341 9.78694 6.10568 9.78694 3.75839 9.78694C3.75839 10.4902 3.75839 11.193 3.75839 11.8963C2.68091 11.6896 1.94719 12.041 1.55766 12.951C2.57219 14.7005 3.15891 16.5989 3.31824 18.6462C5.75092 17.681 8.24523 16.9777 10.8007 16.5369C10.6854 15.9134 10.832 15.351 11.2409 14.8494C12.3078 14.46 13.1881 13.8272 13.8817 12.951C15.1366 12.4072 16.457 12.1962 17.843 12.3182C18.4733 11.1787 19.06 9.98353 19.6036 8.73226C19.5235 6.90514 19.5235 5.00671 19.6036 3.03699C23.7115 3.03699 27.8198 3.03699 31.9277 3.03699C31.9277 5.28684 31.9277 7.5371 31.9277 9.78694C30.3137 9.78694 28.7001 9.78694 27.0861 9.78694C27.2375 11.7368 26.9439 13.5648 26.2058 15.2713C25.6965 14.1014 25.403 12.8358 25.3255 11.4744C25.3255 9.92742 25.3255 8.38084 25.3255 6.83384C24.8854 6.83384 24.4452 6.83384 24.0051 6.83384C24.0051 7.25571 24.0051 7.67758 24.0051 8.09945C23.7119 9.86457 23.4184 11.693 23.1248 13.5838C22.5979 12.1376 21.9377 10.7315 21.1441 9.36507C20.6569 10.5147 20.2898 11.7103 20.0438 12.951C15.2809 15.1329 10.4393 17.1018 5.51897 18.8572C4.35434 19.0669 3.18047 19.1373 1.9978 19.0681C1.9956 17.3663 1.84904 15.6788 1.55766 14.0057C0.970946 14.0057 0.383792 14.0057 -0.202921 14.0057C-0.34949 14.0057 -0.496498 14.0057 -0.643066 14.0057C3.16199 9.52791 6.75665 4.88732 10.1405 0.0838917C12.295 -3.2953 13.762 -6.95166 14.5419 -10.8848C15.6141 -11.2455 16.7145 -11.5264 17.843 -11.7285Z" fill="#B6D7B8"/>
<path fill-rule="evenodd" clip-rule="evenodd" d="M25.3256 11.4751C24.9642 10.15 24.7441 8.74344 24.6653 7.25634C24.543 7.64278 24.3229 7.92375 24.0051 8.10009C24.0051 7.67822 24.0051 7.25634 24.0051 6.83447C24.4453 6.83447 24.8854 6.83447 25.3256 6.83447C25.3256 8.38148 25.3256 9.92806 25.3256 11.4751Z" fill="#587459"/>
<path fill-rule="evenodd" clip-rule="evenodd" d="M56.5758 7.67773C59.225 8.1515 61.8659 8.1515 64.4984 7.67773C61.8465 8.74844 59.2057 8.74844 56.5758 7.67773Z" fill="#969494"/>
<path fill-rule="evenodd" clip-rule="evenodd" d="M53.0547 16.959C56.0274 22.2999 59.402 27.4324 63.178 32.3573C63.7471 32.564 64.3343 32.6345 64.9386 32.5682C65.0499 31.5865 64.7564 30.7428 64.0583 30.037C65.4307 29.6392 66.458 30.0611 67.1393 31.3026C66.8532 31.1744 66.5596 31.0339 66.259 30.8807C65.9804 32.1443 65.5403 33.3394 64.9386 34.4667C64.0583 34.748 63.178 34.748 62.2977 34.4667C61.0446 33.2044 60.3109 31.7279 60.097 30.037C59.2312 30.1378 58.424 29.9973 57.6762 29.6151C57.3012 28.058 57.008 26.511 56.7959 24.9745C55.9293 23.2968 54.7558 21.8902 53.2747 20.7558C53.0555 19.4978 52.982 18.2322 53.0547 16.959Z" fill="#B5D0B6"/>
<path fill-rule="evenodd" clip-rule="evenodd" d="M93.9882 30.037C90.9089 30.2032 87.8279 30.3437 84.7451 30.4589C87.8103 29.7311 90.8913 29.5902 93.9882 30.037Z" fill="#6A6A6D"/>
<path fill-rule="evenodd" clip-rule="evenodd" d="M-104.077 0.506348C-103.759 0.68269 -103.539 0.963657 -103.417 1.35009C-102.53 0.460785 -101.576 0.31988 -100.556 0.928219C-100.457 2.52796 -100.089 4.07496 -99.4556 5.56881C-98.0106 8.59236 -96.3966 11.5455 -94.614 14.4281C-94.4248 15.5638 -94.4983 16.6889 -94.8341 17.8031C-98.898 21.7969 -101.172 26.578 -101.656 32.1467C-100.692 32.9432 -99.8856 33.8574 -99.2355 34.8889C-98.8231 35.1808 -98.53 35.1104 -98.3553 34.678C-97.6678 33.8882 -97.2276 32.904 -97.0348 31.7249C-96.6836 31.9176 -96.537 32.199 -96.5947 32.5686C-96.7355 34.0021 -96.589 35.4086 -96.1545 36.7873C-95.6871 36.1452 -95.3935 35.4424 -95.2742 34.678C-94.9807 34.678 -94.8341 34.8184 -94.8341 35.0998C-94.8341 36.3654 -94.8341 37.6311 -94.8341 38.8967C-94.394 38.8967 -93.9538 38.8967 -93.5137 38.8967C-93.1536 34.1536 -92.2733 29.513 -90.8728 24.9749C-91.2135 24.464 -91.5801 24.464 -91.9732 24.9749C-92.6734 26.7459 -93.1866 28.5739 -93.5137 30.4592C-93.8614 30.9271 -94.0814 31.4894 -94.1739 32.1467C-94.4494 31.2131 -94.3759 30.2989 -93.9538 29.4046C-94.1004 29.1936 -94.2474 28.9827 -94.394 28.7718C-94.8821 29.2316 -95.3222 29.2316 -95.7144 28.7718C-95.2936 28.1073 -95 27.404 -94.8341 26.6624C-94.1233 24.9458 -92.9498 23.6097 -91.3129 22.6546C-90.136 22.7192 -88.9626 22.9301 -87.7918 23.2874C-85.8749 25.5706 -83.9678 27.8209 -82.0699 30.0374C-81.9594 30.7419 -81.6658 31.3747 -81.1896 31.9358C-76.8216 35.5567 -71.98 38.4398 -66.6648 40.5842C-66.2599 41.5486 -66.2599 42.5328 -66.6648 43.5373C-67.0028 43.8591 -67.2229 44.281 -67.325 44.8029C-67.4892 47.2029 -67.7093 49.5932 -67.9852 51.9747C-66.233 52.1945 -64.4724 52.335 -62.7035 52.3966C-62.7035 51.9747 -62.7035 51.5528 -62.7035 51.131C-61.9627 49.6645 -61.3025 48.1175 -60.7228 46.4904C-60.108 45.828 -59.4477 45.2652 -58.7422 44.8029C-57.1207 44.5797 -55.7272 45.0016 -54.5608 46.0685C-53.3619 46.5693 -52.1149 46.8502 -50.8196 46.9122C-45.3226 47.332 -39.7473 47.4729 -34.0941 47.3341C-32.9088 48.6339 -32.4686 50.1805 -32.7736 51.9747C-31.569 51.7507 -30.3951 51.3993 -29.2525 50.92C-27.7309 49.3798 -26.557 47.6218 -25.7313 45.6466C-24.0253 45.0383 -22.4113 44.335 -20.8897 43.5373C-11.5877 41.2195 -4.25222 36.2975 1.11755 28.7718C2.41466 27.2973 3.29495 25.6098 3.75842 23.7093C4.177 23.1107 4.32357 22.4078 4.19856 21.5999C2.90102 21.4831 1.65409 21.6236 0.457331 22.0218C0.239899 21.3325 0.166835 20.6292 0.237258 19.9124C0.30196 17.9237 0.155391 15.9549 -0.202887 14.0062C0.383827 14.0062 0.97098 14.0062 1.55769 14.0062C1.84907 15.6794 1.99564 17.3669 1.99784 19.0687C3.18051 19.1379 4.35438 19.0674 5.519 18.8578C10.4394 17.1024 15.281 15.1335 20.0438 12.9516C20.2898 11.7108 20.6569 10.5153 21.1442 9.36565C21.9377 10.7321 22.598 12.1382 23.1248 13.5844C23.4184 11.6935 23.712 9.86515 24.0051 8.10004C24.3229 7.9237 24.543 7.64273 24.6653 7.25629C24.7441 8.74339 24.9642 10.1499 25.3255 11.475C25.403 12.8364 25.6966 14.102 26.2058 15.2719C27.3361 20.4934 29.2437 25.4153 31.9277 30.0374C32.72 31.0195 33.2336 32.1446 33.4682 33.4123C35.775 36.1545 37.6087 39.1076 38.97 42.2716C38.507 42.3345 38.0669 42.2645 37.6496 42.0607C36.5396 40.9967 35.4392 39.9421 34.3485 38.8967C30.3634 42.5024 29.1896 46.8616 30.8273 51.9747C31.8705 53.0458 32.9709 54.0301 34.1284 54.9278C33.3947 55.2092 32.6614 55.4902 31.9277 55.7715C28.9453 52.3046 28.1385 48.3673 29.5069 43.9591C30.289 41.73 31.536 39.7615 33.2481 38.0529C31.2741 34.5505 29.2934 31.0351 27.3062 27.5061C25.8348 23.627 24.5874 19.6897 23.565 15.6937C22.9901 14.8614 22.2564 14.1585 21.3642 13.5844C16.9324 17.0446 11.9442 19.5053 6.39929 20.9671C4.44637 28.4431 0.338492 34.5603 -5.92477 39.3185C-11.7756 42.5454 -17.4975 45.9909 -23.0904 49.6544C-40.4709 57.0047 -58.2233 57.7079 -76.348 51.7638C-79.3758 50.437 -82.4568 49.1714 -85.591 47.9669C-89.3274 45.809 -92.8486 43.3478 -96.1545 40.5842C-96.7412 40.0218 -97.3284 39.459 -97.9151 38.8967C-100.921 36.4359 -103.269 33.4828 -104.957 30.0374C-104.517 30.0374 -104.077 30.0374 -103.637 30.0374C-103.589 29.1877 -103.883 28.4849 -104.517 27.928C-104.936 27.3294 -105.082 26.6265 -104.957 25.8186C-105.696 25.9094 -106.137 25.628 -106.278 24.9749C-106.006 25.0217 -105.786 25.1622 -105.618 25.3968C-105.272 24.6589 -104.905 23.9557 -104.517 23.2874C-103.273 19.5201 -101.953 15.7233 -100.556 11.8969C-100.105 11.5282 -99.8113 11.0358 -99.6757 10.4203C-100.231 9.50487 -100.671 8.59067 -100.996 7.67817C-101.664 7.68281 -102.177 7.96377 -102.537 8.52191C-103.951 11.2324 -105.344 13.9046 -106.718 16.5375C-106.743 16.0696 -106.89 15.6477 -107.158 15.2719C-105.655 12.1137 -103.894 9.02014 -101.876 5.99068C-102.023 5.70929 -102.17 5.42832 -102.317 5.14694C-103.042 5.63124 -103.703 6.1936 -104.297 6.83442C-105.005 8.3346 -105.812 9.7407 -106.718 11.0531C-106.718 10.7718 -106.865 10.6313 -107.158 10.6313C-105.876 7.99752 -104.409 5.46629 -102.757 3.03758C-102.903 2.61571 -103.05 2.19383 -103.197 1.77196C-104.847 3.39195 -106.168 5.21992 -107.158 7.25629C-107.501 6.97955 -107.794 6.62813 -108.038 6.20162C-107.823 5.2119 -107.529 4.29771 -107.158 3.45945C-107.375 5.05834 -107.008 5.33931 -106.058 4.30319C-105.606 2.87431 -104.946 1.6087 -104.077 0.506348Z" fill="#0E110C"/>
<path fill-rule="evenodd" clip-rule="evenodd" d="M1.11762 28.7715C-4.25215 36.2973 -11.5876 41.2192 -20.8896 43.537C-20.4112 41.8187 -19.2373 41.1159 -17.3685 41.4276C-17.3685 41.0058 -17.3685 40.5839 -17.3685 40.162C-16.3016 40.292 -15.2747 40.1511 -14.2875 39.7401C-14.8205 39.2255 -14.8205 38.7331 -14.2875 38.2636C-13.5683 38.0552 -12.8345 37.9852 -12.0867 38.0527C-12.0867 37.6308 -12.0867 37.2089 -12.0867 36.787C-11.1087 36.6512 -10.3015 36.9326 -9.66594 37.6308C-9.04137 37.2258 -8.38116 36.8744 -7.68529 36.5761C-8.272 36.0138 -8.272 35.451 -7.68529 34.8886C-8.12543 34.8182 -8.56558 34.7481 -9.00572 34.6777C-12.25 35.9534 -15.6242 36.7267 -19.1291 36.998C-21.2853 38.2117 -23.6331 38.8445 -26.1714 38.8964C-24.8787 37.9868 -23.4112 37.354 -21.7699 36.998C-19.0199 36.2741 -16.2325 35.7113 -13.4072 35.3105C-10.2029 34.1335 -7.41504 32.3755 -5.04442 30.0371C-5.07479 31.1272 -5.588 31.971 -6.58492 32.5683C-6.8006 33.1138 -6.8741 33.6766 -6.805 34.2558C-4.78737 34.3777 -3.6135 33.534 -3.28384 31.7246C-1.7266 30.8268 -0.259597 29.8422 1.11762 28.7715Z" fill="#5D6D29"/>
<path fill-rule="evenodd" clip-rule="evenodd" d="M3.7584 22.4434C3.7584 22.8653 3.7584 23.2872 3.7584 23.7091C3.29493 25.6096 2.41464 27.2971 1.11753 28.7715C-0.259682 29.8422 -1.72669 30.8269 -3.28392 31.7246C-3.61359 33.534 -4.78745 34.3778 -6.80508 34.2558C-6.87418 33.6766 -6.80068 33.1138 -6.58501 32.5684C-5.58808 31.971 -5.07487 31.1272 -5.0445 30.0371C-4.17125 30.0865 -3.43797 29.8051 -2.84377 29.1934C-1.03698 27.2696 0.430026 25.1603 1.55768 22.8653C2.2377 22.4637 2.97142 22.3232 3.7584 22.4434Z" fill="#61781E"/>
<path fill-rule="evenodd" clip-rule="evenodd" d="M3.75847 22.4433C2.97149 22.3231 2.23777 22.4635 1.55774 22.8652C0.430092 25.1601 -1.03691 27.2695 -2.84371 29.1932C-3.4379 29.805 -4.17119 30.0863 -5.04443 30.037C-4.12189 29.2215 -3.46167 28.2369 -3.06378 27.0839C-2.76844 26.7666 -2.4018 26.6257 -1.96342 26.662C-0.811117 25.3525 0.216182 23.9464 1.1176 22.4433C2.05775 21.8978 2.93804 21.8978 3.75847 22.4433Z" fill="#5D6E34"/>
<path fill-rule="evenodd" clip-rule="evenodd" d="M0.237225 19.9126C0.166802 20.6294 0.239866 21.3326 0.457298 22.022C1.65405 21.6237 2.90098 21.4832 4.19853 21.6001C4.32353 22.408 4.17696 23.1108 3.75839 23.7094C3.75839 23.2876 3.75839 22.8657 3.75839 22.4438C2.93796 21.8983 2.05767 21.8983 1.11752 22.4438C0.216098 23.947 -0.811201 25.3531 -1.9635 26.6625C-1.87415 26.0112 -1.58057 25.4484 -1.08321 24.9751C-1.28436 24.6384 -1.57793 24.4979 -1.9635 24.5532C-1.69501 24.1773 -1.54844 23.7554 -1.52336 23.2876C-0.563399 22.3325 0.0237546 21.2073 0.237225 19.9126Z" fill="#2E351C"/>
<path fill-rule="evenodd" clip-rule="evenodd" d="M-0.643024 14.0059C-0.496456 14.0059 -0.349447 14.0059 -0.202879 14.0059C0.155399 15.9545 0.301968 17.9234 0.237266 19.9121C0.0237959 21.2068 -0.563358 22.3319 -1.52331 23.287C-0.877181 21.0874 -0.583604 18.8376 -0.643024 16.5371C-1.37675 16.5371 -2.11003 16.5371 -2.84375 16.5371C-2.31514 15.5208 -1.58185 14.6771 -0.643024 14.0059Z" fill="#E7E7A1"/>
<path fill-rule="evenodd" clip-rule="evenodd" d="M67.1394 31.3027C69.4119 32.122 71.7596 32.6844 74.1817 32.9902C78.9067 33.2758 83.6752 33.5572 88.4865 33.834C89.4579 33.2493 90.4116 32.6869 91.3474 32.1465C92.1744 31.7917 93.0547 31.6508 93.9883 31.7246C93.9843 32.4874 94.2044 33.1906 94.6485 33.834C97.7568 37.3444 100.471 41.0708 102.791 45.0136C101.442 49.5103 98.9483 53.2371 95.3087 56.1932C95.237 55.1988 95.31 54.2146 95.5288 53.2401C95.7757 53.4603 96.0693 53.6008 96.4091 53.6619C97.5442 52.992 98.1314 52.0074 98.1696 50.7088C98.9659 49.7748 99.6996 48.7902 100.37 47.7557C100.444 47.0525 100.517 46.3496 100.59 45.6464C100.544 42.7279 99.1498 40.759 96.4091 39.7402C96.1903 38.7656 96.1172 37.7814 96.189 36.7871C95.0363 36.9001 93.9359 36.7596 92.8879 36.3652C92.979 35.4156 93.0521 34.4309 93.108 33.4121C89.8562 32.7303 88.8293 33.8555 90.027 36.7871C89.4402 36.7871 88.8531 36.7871 88.2664 36.7871C88.2664 35.9433 88.2664 35.0996 88.2664 34.2558C83.5713 34.2558 78.8768 34.2558 74.1817 34.2558C74.1817 35.0996 74.1817 35.9433 74.1817 36.7871C73.0079 36.7871 71.8344 36.7871 70.6606 36.7871C70.6359 35.4957 71.2231 34.5815 72.4211 34.0449C70.7037 33.6146 69.0901 32.9818 67.5796 32.1465C67.2283 31.9537 67.0817 31.6723 67.1394 31.3027Z" fill="#B6D4BB"/>
<path fill-rule="evenodd" clip-rule="evenodd" d="M91.3473 32.1465C90.4116 32.6869 89.4578 33.2493 88.4864 33.834C83.6751 33.5572 78.9066 33.2758 74.1816 32.9902C79.9493 33.2088 85.6712 32.9278 91.3473 32.1465Z" fill="#91A38F"/>
<path fill-rule="evenodd" clip-rule="evenodd" d="M31.9277 30.0371C32.808 30.0371 33.6883 30.0371 34.5686 30.0371C34.7169 31.693 35.2305 33.24 36.1091 34.6777C36.5299 34.2225 36.8965 33.7306 37.2094 33.2011C36.7979 32.1967 36.6513 31.142 36.7693 30.0371C37.503 30.0371 38.2363 30.0371 38.97 30.0371C39.1144 32.3047 38.9678 34.5545 38.5299 36.7871C37.8265 36.3715 37.0928 36.3015 36.3291 36.5761C37.5668 37.5945 38.5937 38.7901 39.4102 40.162C39.9524 40.4341 40.5391 40.5042 41.1707 40.373C40.9982 41.3661 40.9982 42.4207 41.1707 43.537C39.8186 43.6707 38.4982 43.5303 37.2094 43.1151C35.1284 40.2983 33.4414 40.4388 32.1478 43.537C31.7824 46.08 31.8555 48.6113 32.3678 51.1307C32.6258 51.0425 32.8458 50.9016 33.0281 50.7088C33.2847 51.3425 33.6513 51.9048 34.1284 52.3963C34.275 52.3259 34.422 52.2558 34.5686 52.1854C33.1795 50.616 33.4726 50.0537 35.4489 50.4979C35.0998 51.5239 34.9533 52.5085 35.0087 53.451C36.4946 53.894 37.8151 54.5268 38.97 55.3494C38.97 55.9118 38.97 56.4745 38.97 57.0369C37.1883 56.6749 35.5743 55.9717 34.1284 54.9275C32.9708 54.0298 31.8705 53.0456 30.8273 51.9744C29.1896 46.8614 30.3634 42.5022 34.3485 38.8964C35.4392 39.9418 36.5395 40.9965 37.6496 42.0605C38.0668 42.2642 38.507 42.3342 38.97 42.2714C37.6086 39.1074 35.775 36.1542 33.4682 33.4121C33.2336 32.1444 32.72 31.0192 31.9277 30.0371Z" fill="#B4D3B5"/>
<path fill-rule="evenodd" clip-rule="evenodd" d="M93.9882 57.0371C92.4208 58.3162 90.6602 59.3709 88.7064 60.2011C84.0457 62.065 79.2041 63.2601 74.1816 63.7871C74.1816 63.0838 74.1816 62.381 74.1816 61.6777C76.2851 61.1529 78.2657 61.1529 80.1236 61.6777C80.8573 61.2558 81.5906 60.834 82.3243 60.4121C83.7764 61.066 84.8767 60.7146 85.6254 59.3574C85.0286 58.6963 84.735 57.923 84.7451 57.0371C85.919 57.0371 87.0924 57.0371 88.2663 57.0371C88.2663 57.459 88.2663 57.8809 88.2663 58.3027C90.2905 58.2394 92.1977 57.8176 93.9882 57.0371Z" fill="#B9D6BA"/>
<path fill-rule="evenodd" clip-rule="evenodd" d="M54.8152 65.8966C56.2804 65.7764 57.6009 66.0578 58.7765 66.7404C57.3561 66.6661 56.0357 66.3847 54.8152 65.8966Z" fill="#959595"/>
</g>
</g>
<defs>
<clipPath id="clip0_639_7982">
<rect width="135" height="130" fill="white"/>
</clipPath>
<clipPath id="clip1_639_7982">
<rect width="346" height="281" fill="white" transform="translate(-241 -206)"/>
</clipPath>
</defs>
</svg>
