<svg width="135" height="130" viewBox="0 0 135 130" fill="none" xmlns="http://www.w3.org/2000/svg">
<g clip-path="url(#clip0_639_7983)">
<rect x="-133.5" y="-258.5" width="402" height="387" rx="18.5" fill="#FDFFEF" stroke="black" stroke-width="3"/>
<g clip-path="url(#clip1_639_7983)">
<path fill-rule="evenodd" clip-rule="evenodd" d="M4.07395 -113.821C6.26852 -113.903 7.0018 -112.989 6.27468 -111.079C7.00268 -110.822 7.7364 -110.611 8.4754 -110.446C3.49912 -106.239 -1.19591 -101.739 -5.60924 -96.9462C-6.3324 -95.9029 -7.2862 -95.0592 -8.47019 -94.415C-9.08595 -90.732 -9.74617 -87.0761 -10.4508 -83.4463C-11.3369 -79.8224 -11.9236 -76.0956 -12.2114 -72.2667C-12.2519 -71.0766 -11.9588 -70.0219 -11.3311 -69.1027C-11.4016 -68.3859 -11.3285 -67.6827 -11.1111 -66.9933C-8.58154 -61.7625 -5.7941 -56.7001 -2.7483 -51.806C-0.229349 -47.7045 2.92473 -44.1186 6.71482 -41.0482C8.96352 -39.8294 11.3113 -38.8452 13.7571 -38.0951C21.88 -36.26 30.0962 -35.7677 38.4053 -36.6186C39.2121 -36.5827 39.7988 -36.3013 40.1659 -35.7748C36.7869 -35.5204 33.4123 -35.0986 30.0425 -34.5092C30.8603 -33.6553 31.594 -32.7411 32.2432 -31.767C35.9158 -29.7265 39.437 -27.4766 42.8067 -25.0171C43.9119 -24.9163 44.6452 -25.4086 45.0075 -26.4937C46.147 -26.8814 47.0273 -27.5846 47.6483 -28.603C50.5088 -30.4217 53.4428 -32.1796 56.4512 -33.8764C57.4926 -34.062 58.5195 -34.273 59.5322 -34.5092C63.707 -34.7446 67.8149 -35.0256 71.8563 -35.353C71.9052 -35.6133 72.0517 -35.8242 72.2965 -35.9858C73.1768 -36.1262 74.057 -36.2672 74.9373 -36.4076C80.3951 -39.3405 85.6038 -42.645 90.5625 -46.3216C90.7751 -46.7216 90.8481 -47.1434 90.7826 -47.5872C91.213 -46.7621 91.6532 -45.9183 92.103 -45.056C91.5858 -45.1484 91.1457 -45.0079 90.7826 -44.6341C87.2108 -40.8643 82.9563 -37.9816 78.0183 -35.9858C77.6499 -35.5593 77.5034 -35.0669 77.5782 -34.5092C80.7288 -34.2709 83.8098 -33.7085 86.8213 -32.8217C89.0598 -32.488 90.0871 -31.2224 89.9023 -29.0249C92.9525 -29.2978 95.8134 -28.7355 98.4851 -27.3374C99.8733 -28.2453 101.267 -29.089 102.666 -29.8686C108.626 -32.8702 114.348 -36.3152 119.832 -40.2045C121.014 -41.2786 121.455 -42.6146 121.153 -44.2123C121.732 -43.0606 121.732 -41.8654 121.153 -40.6264C121.556 -40.5091 121.849 -40.2981 122.033 -39.9935C121.338 -39.2477 120.604 -38.4744 119.832 -37.6733C121.97 -35.3302 123.217 -32.588 123.573 -29.4468C123.742 -29.2122 123.962 -29.0717 124.234 -29.0249C124.234 -28.1811 124.234 -27.3374 124.234 -26.4937C125.106 -26.349 125.694 -26.6303 125.994 -27.3374C127.09 -28.5988 128.264 -29.794 129.515 -30.9233C130.235 -31.1317 130.968 -31.2017 131.716 -31.1342C131.38 -30.8102 130.94 -30.5993 130.396 -30.5014C131.657 -30.4242 132.83 -30.2133 133.917 -29.8686C132.588 -29.9382 131.268 -29.8678 129.955 -29.6577C126.124 -24.0708 122.236 -18.5161 118.292 -12.9938C117.798 -12.1893 117.431 -11.3455 117.191 -10.4625C116.113 -9.56437 115.379 -8.43923 114.991 -7.08756C109.456 0.00621469 104.027 7.17804 98.7052 14.4279C94.5366 18.4897 91.0154 22.9898 88.1417 27.9278C88.2733 27.0402 88.1267 26.1964 87.7015 25.3966C87.2535 25.6889 86.8133 25.9699 86.3811 26.2403C87.0717 24.517 87.8789 22.8295 88.8019 21.1778C91.3063 17.8678 93.8737 14.6334 96.5044 11.4748C97.9252 10.291 99.2457 9.02541 100.466 7.67796C100.864 7.37885 101.01 6.95698 100.906 6.41234C100.338 6.51233 99.8975 6.37184 99.5855 5.99047C100.329 5.38677 101.209 5.03535 102.226 4.93579C102.835 4.39959 103.275 3.76678 103.547 3.03737C106.001 -0.119919 108.349 -3.35399 110.589 -6.66569C112.521 -8.4367 113.768 -10.5461 114.33 -12.9938C113.635 -13.6439 112.828 -14.1362 111.91 -14.4703C111.616 -15.0327 111.323 -15.5954 111.029 -16.1578C110.256 -16.243 109.523 -16.454 108.829 -16.7906C107.612 -18.9426 105.851 -20.4896 103.547 -21.4312C101.228 -23.1086 98.7342 -24.5851 96.0643 -25.8608C93.8442 -26.4287 91.6435 -27.1319 89.4621 -27.9702C89.0748 -28.5423 88.9278 -29.1751 89.022 -29.8686C87.2781 -30.2382 85.5175 -30.5192 83.7402 -30.7124C82.5087 -31.2899 81.1883 -31.7118 79.7789 -31.978C78.4391 -32.6154 76.9717 -32.8968 75.3775 -32.8217C69.8286 -33.5887 64.2532 -33.7996 58.652 -33.4545C57.6823 -32.4539 56.655 -31.5397 55.5709 -30.7124C55.0027 -30.8124 54.5626 -30.6719 54.2505 -30.2905C51.4151 -28.4364 48.4806 -26.6784 45.4476 -25.0171C45.1166 -24.734 44.9696 -24.3826 45.0075 -23.9624C44.8609 -23.9624 44.7139 -23.9624 44.5673 -23.9624C43.7381 -23.0052 43.1514 -21.8801 42.8067 -20.5874C43.2816 -19.71 44.0149 -19.1476 45.0075 -18.9C49.2808 -15.101 50.5278 -10.4604 48.7487 -4.97819C47.8534 -3.54003 46.7531 -2.27442 45.4476 -1.18135C45.1193 -0.659914 44.9727 -0.0971376 45.0075 0.506139C44.0541 -0.565415 43.614 -0.284027 43.687 1.34988C43.5405 1.34988 43.3934 1.34988 43.2469 1.34988C41.9982 0.547482 40.5307 0.266094 38.8454 0.506139C38.8454 0.0842672 38.8454 -0.337604 38.8454 -0.759476C36.5589 -0.624055 34.3581 -0.76496 32.2432 -1.18135C36.2314 -1.12693 40.1927 -1.40789 44.1272 -2.02509C44.853 -2.5094 45.5132 -3.07175 46.1078 -3.71258C47.4982 -7.34025 47.5717 -10.9962 46.3279 -14.6812C44.7302 -16.575 42.6764 -17.8406 40.1659 -18.4781C40.0153 -18.8316 39.7222 -18.9725 39.2856 -18.9C31.848 -23.0132 24.219 -26.8101 16.398 -30.2905C15.8113 -30.431 15.2242 -30.5719 14.6374 -30.7124C9.64751 -33.3191 4.43927 -35.569 -0.987719 -37.4623C-1.06122 -37.6028 -1.13429 -37.7437 -1.20779 -37.8842C-0.362273 -38.3655 0.518018 -38.436 1.43308 -38.0951C3.38732 -36.9139 5.51455 -36.1402 7.81519 -35.7748C8.61273 -35.7719 9.27295 -36.0533 9.79584 -36.6186C6.97319 -38.147 4.25925 -39.8345 1.65315 -41.681C-1.33367 -45.3661 -4.04805 -49.2334 -6.48953 -53.2825C-7.07625 -53.5639 -7.6634 -53.5639 -8.25012 -53.2825C-13.3844 -50.8504 -17.8589 -47.5459 -21.6745 -43.3685C-21.9681 -42.8062 -21.9681 -42.2434 -21.6745 -41.681C-19.5249 -37.097 -18.0579 -32.3155 -17.2731 -27.3374C-16.796 -26.8459 -16.4293 -26.2836 -16.1727 -25.6499C-8.8245 -23.5342 -1.78218 -20.722 4.95424 -17.2125C7.30154 -15.3845 9.64927 -13.5561 11.9966 -11.7281C11.5212 -10.943 10.9341 -10.6621 10.236 -10.8844C11.229 -10.4959 11.6691 -9.7926 11.5564 -8.77504C1.45377 -17.5542 -10.2831 -23.179 -23.6552 -25.6499C-24.5355 -25.9313 -25.4158 -26.2123 -26.2961 -26.4937C-25.727 -26.7712 -25.0667 -26.9121 -24.3154 -26.9155C-22.4716 -26.6666 -20.6376 -26.3857 -18.8136 -26.0718C-20.8647 -38.6482 -27.3203 -48.5622 -38.18 -55.8137C-38.908 -56.0702 -39.6417 -56.2812 -40.3807 -56.4465C-40.4296 -56.7068 -40.5761 -56.9178 -40.8209 -57.0793C-39.6681 -57.0443 -38.4943 -56.9739 -37.2997 -56.8684C-35.7139 -55.9656 -34.0998 -55.0514 -32.4581 -54.1262C-28.9779 -51.4242 -25.8969 -48.4006 -23.2151 -45.056C-20.9571 -46.8692 -18.9034 -48.9081 -17.053 -51.1731C-14.7792 -52.3324 -12.5785 -53.5981 -10.4508 -54.97C-9.73164 -55.1784 -8.99792 -55.2484 -8.25012 -55.1809C-8.2127 -56.5094 -8.65285 -57.6345 -9.57055 -58.5559C-11.3703 -62.362 -12.7638 -66.2993 -13.7519 -70.3683C-14.1969 -70.7214 -14.7106 -70.8619 -15.2924 -70.7902C-14.8523 -71.0716 -14.4121 -71.3525 -13.972 -71.6339C-13.5741 -71.933 -13.4275 -72.3549 -13.5319 -72.8995C-13.1357 -74.938 -12.8426 -77.0474 -12.6516 -79.2276C-12.7796 -81.6757 -12.4865 -84.066 -11.7713 -86.3994C-11.3875 -88.0232 -11.314 -89.7107 -11.5512 -91.4619C-10.262 -92.8077 -9.45523 -94.3547 -9.13041 -96.1025C-4.88036 -101.974 0.181307 -107.177 6.0546 -111.712C6.12811 -111.852 6.20117 -111.993 6.27468 -112.134C5.24166 -112.408 4.50793 -112.971 4.07395 -113.821Z" fill="#121511"/>
<path fill-rule="evenodd" clip-rule="evenodd" d="M215.784 -29.8684C215.776 -25.9243 215.923 -21.987 216.224 -18.056C215.572 -14.0225 214.912 -9.94423 214.243 -5.8217C213.54 -4.15066 212.88 -2.46318 212.263 -0.759238C210.876 0.781015 209.409 2.25757 207.861 3.67041C205.151 5.25032 202.364 6.58639 199.498 7.6782C196.866 8.15196 194.225 8.15196 191.576 7.6782C189.887 7.07914 188.273 6.37588 186.734 5.56884C189.504 13.4962 193.171 21.0195 197.738 28.139C204.895 30.2154 212.231 30.9887 219.745 30.4593C222.828 30.3441 225.909 30.2036 228.988 30.0374C231.613 32.2024 234.034 34.5932 236.251 37.2092C237.061 38.763 238.088 40.1691 239.332 41.4279C240.209 47.4708 238.449 52.6738 234.05 57.0372C229.519 60.9686 224.311 63.7108 218.425 65.2637C213.957 66.3994 209.409 67.1727 204.78 67.584C203.539 67.5511 202.365 67.2697 201.259 66.7402C198.774 67.1292 196.28 67.1292 193.777 66.7402C192.601 66.0576 191.28 65.7763 189.815 65.8965C182.546 64.2529 175.65 61.6512 169.128 58.0919C168.131 57.4903 167.398 56.7166 166.928 55.7716C167.661 55.4902 168.395 55.2092 169.128 54.9278C170.574 55.972 172.188 56.6752 173.97 57.0372C174.674 57.5198 175.408 58.0121 176.171 58.5137C179.57 59.2554 182.798 60.3805 185.854 61.8887C191.379 63.0063 196.88 64.2018 202.359 65.4746C204.736 65.0608 207.01 64.498 209.182 63.7871C214.204 63.2602 219.046 62.0651 223.706 60.2012C225.66 59.371 227.421 58.3163 228.988 57.0372C229.66 57.068 230.1 56.7866 230.309 56.1934C233.948 53.2374 236.442 49.5106 237.791 45.0138C235.471 41.071 232.757 37.3446 229.648 33.8342C229.204 33.1909 228.984 32.4876 228.988 31.7249C228.055 31.6511 227.174 31.792 226.347 32.1468C220.671 32.9281 214.949 33.209 209.182 32.9905C206.759 32.6846 204.412 32.1223 202.139 31.303C201.458 30.0614 200.431 29.6396 199.058 30.0374C199.756 30.7432 200.05 31.5869 199.939 32.5686C199.334 32.6349 198.747 32.5644 198.178 32.3577C194.402 27.4328 191.027 22.3003 188.055 16.9594C186.102 12.08 184.121 7.15845 182.113 2.19386C182.223 -1.30767 181.636 -4.68265 180.352 -7.93106C179.838 -8.42338 179.325 -8.91528 178.812 -9.40761C175.304 -11.2297 171.783 -13.0576 168.248 -14.8919C165.246 -15.9108 162.165 -16.3326 159.005 -16.1576C157.224 -14.6063 155.317 -13.2703 153.283 -12.1498C152.99 -12.1498 152.843 -12.0093 152.843 -11.7279C151.714 -11.5258 150.614 -11.2449 149.542 -10.8842C148.762 -6.95105 147.295 -3.29469 145.14 0.0845053C141.757 4.88794 138.162 9.52853 134.357 14.0063C133.418 14.6775 132.685 15.5212 132.156 16.5375C131.863 16.5375 131.716 16.678 131.716 16.9594C129.344 18.6713 127.437 20.7807 125.994 23.2874C125.848 23.2874 125.701 23.2874 125.554 23.2874C121.696 26.4207 118.322 29.9366 115.431 33.8342C114.741 32.8087 114.08 32.8087 113.45 33.8342C113.328 33.4478 113.108 33.1668 112.79 32.9905C115.714 29.7644 118.649 26.53 121.593 23.2874C127.788 16.9252 133.51 10.1753 138.758 3.03761C142.31 -1.09125 145.317 -5.59094 147.781 -10.4623C147.928 -12.853 148.075 -15.2434 148.221 -17.6341C149.142 -16.4221 149.582 -15.0155 149.542 -13.4154C149.789 -13.1952 150.082 -13.0547 150.422 -12.9935C153.846 -14.3157 157 -16.0032 159.885 -18.056C162.527 -18.5774 165.168 -18.507 167.808 -17.845C172 -15.9074 175.815 -13.4466 179.252 -10.4623C180.705 -8.99671 182.099 -7.4497 183.433 -5.8217C183.954 -3.73175 184.394 -1.62239 184.754 0.506377C185.734 1.18686 186.835 1.46824 188.055 1.35012C188.055 1.77199 188.055 2.19386 188.055 2.61574C187.307 2.54824 186.573 2.61827 185.854 2.82667C188.613 6.11643 192.134 7.24156 196.417 6.20165C201.158 4.60992 205.34 2.14915 208.962 -1.18111C209.166 -1.4317 209.239 -1.71309 209.182 -2.02485C210.188 -3.56553 210.995 -5.25302 211.602 -7.08731C214.021 -16.5541 213.874 -25.9758 211.162 -35.3527C210.697 -36.7306 210.036 -37.9962 209.182 -39.1496C209.251 -39.7288 209.177 -40.2916 208.962 -40.8371C206.935 -43.4269 205.321 -46.2395 204.12 -49.2745C202.591 -50.5334 200.904 -51.5176 199.058 -52.2276C197.202 -53.7695 195.001 -54.6837 192.456 -54.9698C190.817 -55.5853 189.276 -56.359 187.835 -57.29C182.527 -53.7248 178.052 -49.3656 174.41 -44.212C173.899 -42.4001 173.826 -40.5717 174.19 -38.7277C176.213 -34.9912 178.12 -31.1943 179.912 -27.3372C180.131 -26.0791 180.205 -24.8135 180.132 -23.5403C181.602 -23.3758 183.069 -23.1648 184.533 -22.9075C185.182 -22.608 185.475 -22.1161 185.414 -21.431C179.896 -21.242 174.467 -21.8047 169.128 -23.1184C168.241 -23.7192 167.215 -24.0002 166.047 -23.9622C158.842 -25.3012 151.653 -26.7778 144.48 -28.3918C140.828 -28.4247 137.307 -28.9166 133.917 -29.8684C132.83 -30.2131 131.657 -30.424 130.396 -30.5012C130.94 -30.5991 131.38 -30.81 131.716 -31.134C133.029 -31.4145 134.422 -31.555 135.897 -31.5559C139.494 -31.3825 143.089 -31.1715 146.681 -30.9231C155.56 -29.1655 164.363 -27.1967 173.09 -25.0169C174.835 -24.6676 176.596 -24.4566 178.371 -24.3841C178.126 -26.9929 177.466 -29.5241 176.391 -31.9777C170.326 -38.6412 170.326 -45.2503 176.391 -51.8057C179.711 -55.5157 183.893 -57.7659 188.935 -58.5557C194.723 -57.6419 199.858 -55.3916 204.34 -51.8057C208.201 -46.7964 211.502 -41.4526 214.243 -35.7746C214.563 -33.7441 215.077 -31.7757 215.784 -29.8684Z" fill="#101310"/>
<path fill-rule="evenodd" clip-rule="evenodd" d="M159.885 -18.0563C157 -16.0035 153.846 -14.316 150.422 -12.9938C150.082 -13.055 149.789 -13.1955 149.542 -13.4157C149.582 -15.0159 149.142 -16.4224 148.222 -17.6344C148.075 -15.2437 147.928 -12.8533 147.781 -10.4626C145.317 -5.59124 142.31 -1.09156 138.758 3.0373C139.152 1.50591 139.739 0.0293531 140.519 -1.39235C140.427 -2.18168 139.987 -2.674 139.199 -2.86891C138.689 -4.25433 138.616 -5.66085 138.978 -7.08762C139.446 -6.02071 139.813 -4.89558 140.079 -3.71265C140.517 -5.94519 140.663 -8.19504 140.519 -10.4626C142.573 -10.4626 144.627 -10.4626 146.681 -10.4626C146.096 -14.9433 145.803 -19.4434 145.801 -23.9625C141.106 -23.9625 136.411 -23.9625 131.716 -23.9625C131.716 -21.7127 131.716 -19.4624 131.716 -17.2125C129.369 -17.2125 127.021 -17.2125 124.674 -17.2125C124.77 -17.7082 124.624 -18.1301 124.234 -18.4782C123.936 -18.0133 123.643 -17.5914 123.353 -17.2125C123.321 -18.8013 123.981 -20.0669 125.334 -21.0094C126.279 -20.5976 127.233 -20.6681 128.195 -21.2203C127.994 -21.395 127.847 -21.6059 127.755 -21.8531C127.971 -23.6731 128.558 -25.3606 129.515 -26.9156C129.88 -27.3016 130.32 -27.5826 130.836 -27.7593C135.823 -27.8294 140.811 -27.478 145.801 -26.7047C150.473 -25.6593 155.168 -24.7451 159.885 -23.9625C159.885 -21.9936 159.885 -20.0252 159.885 -18.0563Z" fill="#B5DAB6"/>
<path fill-rule="evenodd" clip-rule="evenodd" d="M83.7402 -30.7124C83.7402 -30.1501 83.7402 -29.5873 83.7402 -29.0249C85.0167 -29.1177 86.1905 -28.8368 87.2614 -28.1812C86.1359 -28.0622 84.9625 -27.9918 83.7402 -27.9703C82.8868 -27.5872 82.4467 -26.9544 82.4198 -26.0718C80.1707 -24.9948 77.8229 -24.1511 75.3775 -23.5406C73.0368 -22.7011 70.6895 -21.8573 68.3352 -21.0094C68.3352 -20.5875 68.3352 -20.1656 68.3352 -19.7438C66.8681 -19.7438 66.1344 -19.0405 66.1344 -17.6344C65.9839 -17.2809 65.6908 -17.14 65.2541 -17.2125C63.3998 -16.5633 61.6392 -15.7195 59.9724 -14.6813C59.5842 -14.1497 59.144 -13.6578 58.652 -13.2047C59.0204 -12.7782 59.1669 -12.2859 59.0921 -11.7282C59.7215 -11.7615 60.3087 -11.621 60.8527 -11.3063C61.2427 -11.6544 61.3892 -12.0762 61.2928 -12.5719C62.4935 -13.344 63.814 -13.9768 65.2541 -14.4704C66.2885 -15.4909 67.3158 -16.4751 68.3352 -17.4235C69.336 -17.2602 70.2898 -17.1897 71.1961 -17.2125C71.1877 -17.8905 71.1147 -18.5937 70.976 -19.3219C72.8194 -19.1506 74.2864 -19.7834 75.3775 -21.2203C75.9466 -21.427 76.5337 -21.4975 77.1381 -21.4312C77.1381 -21.8531 77.1381 -22.275 77.1381 -22.6969C78.7221 -23.7212 80.4827 -24.424 82.4198 -24.8062C84.9933 -24.7197 87.3406 -25.2821 89.4621 -26.4937C92.5225 -25.9613 95.4565 -25.0471 98.265 -23.7515C99.5863 -22.1488 101.347 -21.3756 103.547 -21.4312C103.45 -20.9355 103.597 -20.5137 103.987 -20.1656C106.11 -19.0439 107.724 -17.4268 108.829 -15.3141C107.199 -15.0268 105.585 -15.0968 103.987 -15.525C101.592 -14.8104 99.2448 -13.9666 96.9446 -12.9938C96.5934 -12.801 96.4468 -12.5196 96.5044 -12.1501C94.18 -11.7046 91.8327 -11.4232 89.4621 -11.3063C89.4621 -10.744 89.4621 -10.1812 89.4621 -9.61884C87.7662 -9.50915 86.1522 -9.43912 84.6205 -9.4079C84.4194 -9.23325 84.2724 -9.02231 84.1804 -8.7751C84.5373 -8.47304 84.8309 -8.12119 85.0607 -7.72042C84.047 -7.03445 83.1667 -6.26116 82.4198 -5.40012C81.1698 -4.3813 79.7028 -3.81895 78.0183 -3.71264C76.3678 -2.92627 74.6072 -2.36349 72.7366 -2.02515C72.4083 -1.50372 72.2617 -0.940939 72.2965 -0.337663C70.1807 -0.254554 68.8602 0.729673 68.3352 2.61544C67.7652 3.03225 67.1785 3.45412 66.5746 3.88105C64.7211 4.17341 63.2537 5.08761 62.1731 6.62322C61.3223 6.72911 60.5155 6.94005 59.7523 7.25603C59.3839 8.03691 59.0168 8.8102 58.652 9.57632C59.4081 9.72229 60.1419 9.93322 60.8527 10.2091C61.1199 10.1568 61.2664 10.0163 61.2928 9.78726C62.0266 9.78726 62.7598 9.78726 63.4936 9.78726C63.4245 9.20803 63.498 8.64525 63.7136 8.09977C65.3919 6.67469 67.226 5.4791 69.2154 4.51386C69.9091 3.78402 70.4963 3.01073 70.976 2.19357C71.4862 1.45529 72.2199 1.03342 73.1768 0.927952C75.8343 0.338176 78.1816 -0.786956 80.2191 -2.44702C88.9309 -6.54382 97.7338 -10.2702 106.628 -13.6266C108.715 -13.7642 110.696 -13.6937 112.57 -13.4157C112.79 -12.9938 113.01 -12.5719 113.23 -12.1501C112.59 -10.7743 111.784 -9.50873 110.809 -8.35322C110.593 -7.80774 110.52 -7.24497 110.589 -6.66574C108.349 -3.35405 106.001 -0.119977 103.547 3.03731C101.892 4.24893 99.9847 5.02222 97.8249 5.3576C97.1369 5.67781 96.6968 6.17013 96.5044 6.83416C88.9089 10.1982 82.0131 14.6278 75.8176 20.1231C75.9642 20.1936 76.1112 20.2636 76.2578 20.334C78.6852 18.6782 81.0325 16.9203 83.3001 15.0607C85.014 14.0288 86.7746 13.115 88.5818 12.3185C90.198 12.0987 91.8116 11.8177 93.4234 11.4747C94.4617 10.3766 95.7091 9.53287 97.1647 8.94351C97.3847 9.084 97.6048 9.2249 97.8249 9.36539C97.0339 9.86952 96.5938 10.5728 96.5044 11.4747C93.8737 14.6333 91.3063 17.8678 88.8019 21.1778C87.8789 22.8294 87.0717 24.5169 86.3811 26.2403C86.0123 26.3845 85.8653 26.6655 85.941 27.084C85.6694 27.1308 85.4493 27.2713 85.2807 27.5059C84.6315 29.4313 84.2649 31.3997 84.1804 33.4121C81.0721 32.6202 77.9911 31.706 74.9373 30.6699C73.9813 29.6296 72.881 28.7158 71.6362 27.9277C71.4897 28.0682 71.3427 28.2091 71.1961 28.3496C70.3127 27.8564 69.3594 27.5755 68.3352 27.5059C68.3352 27.084 68.3352 26.6621 68.3352 26.2403C66.6098 25.834 65.1423 24.9902 63.9337 23.709C63.2537 23.3074 62.52 23.1669 61.733 23.2872C61.4394 23.2872 61.2928 23.1467 61.2928 22.8653C59.8624 20.7876 58.2488 18.8187 56.4512 16.9591C55.7712 16.5575 55.0375 16.417 54.2505 16.5372C52.8178 15.5137 51.5709 14.2481 50.5093 12.7404C49.1787 10.7525 48.0784 8.64314 47.2082 6.41228C46.3635 4.45733 45.6303 2.48888 45.0075 0.506081C44.9727 -0.0971958 45.1193 -0.659973 45.4476 -1.18141C46.7531 -2.27448 47.8534 -3.54009 48.7487 -4.97825C50.5278 -10.4605 49.2808 -15.1011 45.0075 -18.9C44.0141 -20.4972 43.8675 -22.1847 44.5673 -23.9625C44.7139 -23.9625 44.8609 -23.9625 45.0075 -23.9625C46.4212 -24.5295 47.8882 -25.0214 49.4089 -25.439C49.7421 -26.0769 50.1822 -26.6397 50.7293 -27.1265C51.7117 -27.7973 52.739 -28.4301 53.8104 -29.0249C54.2003 -29.373 54.3469 -29.7949 54.2505 -30.2906C54.5626 -30.6719 55.0027 -30.8124 55.5709 -30.7124C57.545 -31.155 59.3056 -31.9987 60.8527 -33.2437C68.5253 -32.6775 76.1543 -31.8338 83.7402 -30.7124Z" fill="#FDF888"/>
<path fill-rule="evenodd" clip-rule="evenodd" d="M138.758 3.03739C133.51 10.175 127.788 16.925 121.593 23.2872C120.2 23.3117 118.88 23.5927 117.631 24.131C117.631 24.5528 117.631 24.9747 117.631 25.3966C116.281 25.3768 114.961 25.1658 113.67 24.7638C113.302 24.3373 113.155 23.8449 113.23 23.2872C112.35 23.2872 111.469 23.2872 110.589 23.2872C110.589 24.131 110.589 24.9747 110.589 25.8185C112.027 25.7902 112.687 26.493 112.57 27.9278C113.02 29.5381 112.8 31.0147 111.91 32.3575C109.167 31.9335 106.38 31.7226 103.547 31.7247C103.346 33.2514 104.006 34.2356 105.527 34.6778C105.745 35.3671 105.818 36.0704 105.748 36.7871C105.033 36.7281 104.52 37.0094 104.207 37.6309C101.718 37.4862 99.1507 37.2048 96.5045 36.7871C96.5045 34.5373 96.5045 32.287 96.5045 30.0372C98.8518 30.0372 101.2 30.0372 103.547 30.0372C103.547 23.8496 103.547 17.6624 103.547 11.4748C103.547 10.9125 103.547 10.3497 103.547 9.78733C104.064 9.87972 104.504 9.73924 104.867 9.36546C105.413 8.06905 106.219 6.94392 107.288 5.99049C107.769 4.91725 108.062 3.79211 108.168 2.61551C108.916 2.99773 109.723 3.13821 110.589 3.03739C110.517 1.90382 110.59 0.778685 110.809 -0.337588C112.203 -1.11088 113.304 -2.16556 114.11 -3.50163C113.964 -3.64211 113.817 -3.78301 113.67 -3.9235C114.409 -4.84908 114.849 -5.90376 114.991 -7.08753C115.379 -8.43921 116.113 -9.56434 117.191 -10.4625C117.778 -10.4625 118.365 -10.4625 118.952 -10.4625C118.883 -11.0417 118.956 -11.6045 119.172 -12.15C119.466 -12.7123 119.759 -12.7123 120.052 -12.15C120.346 -13.2751 120.639 -13.2751 120.933 -12.15C121.446 -13.2047 121.959 -14.2594 122.473 -15.314C121.971 -16.2523 122.264 -16.8851 123.353 -17.2125C123.643 -17.5913 123.936 -18.0132 124.234 -18.4781C124.624 -18.13 124.77 -17.7082 124.674 -17.2125C127.021 -17.2125 129.369 -17.2125 131.716 -17.2125C131.716 -19.4623 131.716 -21.7126 131.716 -23.9624C136.411 -23.9624 141.106 -23.9624 145.801 -23.9624C145.803 -19.4433 146.096 -14.9432 146.681 -10.4625C144.627 -10.4625 142.573 -10.4625 140.519 -10.4625C140.663 -8.19495 140.517 -5.94511 140.079 -3.71256C139.813 -4.89549 139.446 -6.02062 138.979 -7.08753C138.616 -5.66076 138.689 -4.25424 139.199 -2.86882C139.987 -2.67391 140.427 -2.18159 140.519 -1.39227C139.739 0.0294407 139.152 1.50599 138.758 3.03739Z" fill="#B4DCB5"/>
<path fill-rule="evenodd" clip-rule="evenodd" d="M103.547 -21.4316C105.851 -20.49 107.612 -18.943 108.829 -16.7911C109.523 -16.4544 110.256 -16.2435 111.029 -16.1582C111.323 -15.5959 111.616 -15.0331 111.91 -14.4708C112.828 -14.1366 113.635 -13.6443 114.33 -12.9942C113.768 -10.5465 112.521 -8.43715 110.589 -6.66613C110.52 -7.24536 110.594 -7.80814 110.809 -8.35362C111.784 -9.50912 112.59 -10.7747 113.23 -12.1505C113.01 -12.5723 112.79 -12.9942 112.57 -13.4161C110.696 -13.6941 108.715 -13.7645 106.628 -13.627C97.7338 -10.2706 88.9309 -6.54421 80.2191 -2.44741C78.1816 -0.787349 75.8344 0.337782 73.1768 0.927559C83.2279 -5.29589 93.9384 -10.4284 105.307 -14.4708C102.24 -14.2273 99.306 -13.454 96.5045 -12.1505C96.4468 -12.52 96.5934 -12.8014 96.9446 -12.9942C99.2448 -13.967 101.592 -14.8108 103.987 -15.5254C105.585 -15.0972 107.199 -15.0272 108.829 -15.3145C107.724 -17.4272 106.11 -19.0443 103.987 -20.166C103.597 -20.5141 103.45 -20.9359 103.547 -21.4316Z" fill="#EBEA96"/>
<path fill-rule="evenodd" clip-rule="evenodd" d="M11.9966 -11.7285C12.6573 -11.2003 13.391 -10.7785 14.1973 -10.4629C15.8646 -8.37042 17.6252 -6.33151 19.4791 -4.34576C23.7833 -3.42313 28.0381 -2.36845 32.2433 -1.18172C34.3582 -0.765336 36.5589 -0.624431 38.8455 -0.759852C38.8455 -0.33798 38.8455 0.0838917 38.8455 0.505763C37.4247 0.891354 35.9577 1.03184 34.444 0.927635C33.4242 0.319296 32.4704 0.460201 31.5831 1.34951C31.4607 0.963072 31.2406 0.682106 30.9228 0.505763C30.4598 0.442905 30.0197 0.512935 29.6024 0.716699C28.833 1.56593 28.2459 2.48012 27.8418 3.45887C27.4708 4.29712 27.1772 5.21132 26.9615 6.20103C27.2063 6.62754 27.4994 6.97896 27.8418 7.25571C27.8586 8.38675 27.565 9.44143 26.9615 10.4197C27.0421 11.1302 27.3357 11.2002 27.8418 10.6307C28.1354 10.6307 28.282 10.7712 28.282 11.0526C27.3814 12.438 27.2349 13.8441 27.8418 15.2713C28.1103 15.6472 28.2569 16.069 28.282 16.5369C28.282 17.5211 28.282 18.5058 28.282 19.49C28.2107 21.2948 28.3577 23.1227 28.7221 24.9743C28.8634 25.6274 29.3036 25.9088 30.0426 25.8181C29.9176 26.6259 30.0641 27.3288 30.4827 27.9274C31.1174 28.4843 31.4105 29.1871 31.363 30.0368C30.9228 30.0368 30.4827 30.0368 30.0426 30.0368C29.896 30.0368 29.749 30.0368 29.6024 30.0368C29.6398 29.4061 29.3467 28.9842 28.7221 28.7712C28.2868 30.2929 28.1398 31.8399 28.282 33.4118C28.2556 33.6408 28.109 33.7813 27.8418 33.8336C27.5095 31.4361 27.2159 29.0454 26.9615 26.6618C27.0522 23.7526 26.7586 20.94 26.0812 18.2244C24.2296 7.64088 19.388 -1.35891 11.5565 -8.77541C11.6691 -9.79297 11.229 -10.4962 10.236 -10.8848C10.9341 -10.6624 11.5212 -10.9434 11.9966 -11.7285Z" fill="#0B0D0B"/>
<path fill-rule="evenodd" clip-rule="evenodd" d="M73.1767 0.928102C72.2199 1.03357 71.4861 1.45544 70.976 2.19372C67.2594 4.1204 64.0314 6.65164 61.2928 9.78741C60.8205 9.47058 60.747 9.04871 61.0727 8.52179C62.9918 7.03174 64.8259 5.48474 66.5746 3.8812C67.1784 3.45427 67.7652 3.0324 68.3351 2.61559C71.7317 0.709572 74.9598 -1.39979 78.0183 -3.71249C79.7028 -3.8188 81.1698 -4.38115 82.4198 -5.39997C86.9951 -7.87383 91.6901 -10.1241 96.5044 -12.1499C99.306 -13.4535 102.24 -14.2268 105.307 -14.4702C93.9384 -10.4278 83.2279 -5.29535 73.1767 0.928102Z" fill="#2F2A12"/>
<path fill-rule="evenodd" clip-rule="evenodd" d="M78.0184 -3.71289C74.9598 -1.40019 71.7318 0.709168 68.3352 2.61518C68.8603 0.729418 70.1807 -0.254808 72.2965 -0.337917C72.2617 -0.941194 72.4083 -1.50397 72.7367 -2.0254C74.6073 -2.36374 76.3679 -2.92652 78.0184 -3.71289Z" fill="#ECEB99"/>
<path fill-rule="evenodd" clip-rule="evenodd" d="M22.1199 0.0839811C22.2234 -0.167876 22.4434 -0.30836 22.7802 -0.337891C24.112 0.240917 25.506 0.521884 26.9615 0.505853C26.5055 2.08618 25.9184 3.63319 25.201 5.14644C24.0086 3.53995 22.9817 1.85247 22.1199 0.0839811Z" fill="#E4E4E4"/>
<path fill-rule="evenodd" clip-rule="evenodd" d="M114.991 -7.08789C114.849 -5.90412 114.409 -4.84944 113.67 -3.92385C113.817 -3.78337 113.964 -3.64246 114.11 -3.50198C113.303 -2.16591 112.203 -1.11123 110.809 -0.337943C110.59 0.77833 110.517 1.90346 110.589 3.03703C109.723 3.13786 108.916 2.99738 108.168 2.61516C108.062 3.79176 107.769 4.91689 107.288 5.99013C106.219 6.94356 105.413 8.0687 104.867 9.36511C104.504 9.73889 104.064 9.87937 103.547 9.78698C103.547 10.3493 103.547 10.9121 103.547 11.4745C101.936 12.1174 100.322 13.1016 98.7052 14.4276C104.027 7.1777 109.456 0.0058831 114.991 -7.08789Z" fill="#B2CBB2"/>
<path fill-rule="evenodd" clip-rule="evenodd" d="M30.9228 0.506176C30.0544 1.60853 29.3942 2.87414 28.9422 4.30302C27.9919 5.33914 27.6252 5.05817 27.8418 3.45928C28.2459 2.48054 28.833 1.56634 29.6024 0.717111C30.0196 0.513347 30.4598 0.443317 30.9228 0.506176Z" fill="#5B6243"/>
<path fill-rule="evenodd" clip-rule="evenodd" d="M152.843 -11.7285C152.843 -11.3066 152.843 -10.8848 152.843 -10.4629C152.109 -10.4629 151.376 -10.4629 150.642 -10.4629C150.421 -8.49192 150.348 -6.52304 150.422 -4.5567C151.087 -5.27725 151.747 -5.98009 152.403 -6.66606C152.841 -4.00911 152.988 -1.33697 152.843 1.34951C150.496 1.34951 148.148 1.34951 145.801 1.34951C145.801 4.16213 145.801 6.97432 145.801 9.78694C143.453 9.78694 141.106 9.78694 138.758 9.78694C138.758 10.4902 138.758 11.193 138.758 11.8963C137.681 11.6896 136.947 12.041 136.558 12.951C137.572 14.7005 138.159 16.5989 138.318 18.6462C140.751 17.681 143.245 16.9777 145.801 16.5369C145.685 15.9134 145.832 15.351 146.241 14.8494C147.308 14.46 148.188 13.8272 148.882 12.951C150.137 12.4072 151.457 12.1962 152.843 12.3182C153.473 11.1787 154.06 9.98353 154.604 8.73226C154.524 6.90514 154.524 5.00671 154.604 3.03699C158.711 3.03699 162.82 3.03699 166.928 3.03699C166.928 5.28684 166.928 7.5371 166.928 9.78694C165.314 9.78694 163.7 9.78694 162.086 9.78694C162.237 11.7368 161.944 13.5648 161.206 15.2713C160.697 14.1014 160.403 12.8358 160.326 11.4744C160.326 9.92742 160.326 8.38084 160.326 6.83384C159.885 6.83384 159.445 6.83384 159.005 6.83384C159.005 7.25571 159.005 7.67758 159.005 8.09945C158.712 9.86457 158.418 11.693 158.125 13.5838C157.598 12.1376 156.938 10.7315 156.144 9.36507C155.657 10.5147 155.29 11.7103 155.044 12.951C150.281 15.1329 145.439 17.1018 140.519 18.8572C139.354 19.0669 138.18 19.1373 136.998 19.0681C136.996 17.3663 136.849 15.6788 136.558 14.0057C135.971 14.0057 135.384 14.0057 134.797 14.0057C134.651 14.0057 134.504 14.0057 134.357 14.0057C138.162 9.52791 141.757 4.88732 145.14 0.0838917C147.295 -3.2953 148.762 -6.95166 149.542 -10.8848C150.614 -11.2455 151.714 -11.5264 152.843 -11.7285Z" fill="#B6D7B8"/>
<path fill-rule="evenodd" clip-rule="evenodd" d="M45.0075 0.506348C45.6303 2.48914 46.3636 4.4576 47.2082 6.41255C46.4719 6.05691 45.9582 5.49456 45.6677 4.72506C45.3992 3.3215 45.1792 1.91498 45.0075 0.506348Z" fill="#3D3D24"/>
<path fill-rule="evenodd" clip-rule="evenodd" d="M70.976 2.19385C70.4963 3.01101 69.9091 3.7843 69.2155 4.51414C67.226 5.47938 65.3919 6.67497 63.7136 8.10005C63.498 8.64553 63.4245 9.20831 63.4936 9.78754C62.7599 9.78754 62.0266 9.78754 61.2928 9.78754C64.0314 6.65177 67.2595 4.12054 70.976 2.19385Z" fill="#E9E89A"/>
<path fill-rule="evenodd" clip-rule="evenodd" d="M103.547 3.0376C103.275 3.76701 102.835 4.39982 102.226 4.93602C101.209 5.03558 100.329 5.387 99.5855 5.9907C98.597 6.39359 97.5701 6.67498 96.5045 6.83444C96.6969 6.17042 97.137 5.67809 97.825 5.35789C99.9847 5.0225 101.892 4.24921 103.547 3.0376Z" fill="#EDEDA5"/>
<path fill-rule="evenodd" clip-rule="evenodd" d="M27.8418 10.6313C27.3357 11.2008 27.0421 11.1308 26.9615 10.4203C27.565 9.44202 27.8586 8.38734 27.8418 7.2563C28.8322 5.21993 30.1526 3.39196 31.8031 1.77197C31.9497 2.19384 32.0967 2.61572 32.2433 3.03759C30.591 5.4663 29.1235 7.99753 27.8418 10.6313Z" fill="#5F6C36"/>
<path fill-rule="evenodd" clip-rule="evenodd" d="M66.5746 3.88135C64.8259 5.48488 62.9918 7.03189 61.0728 8.52194C60.7471 9.04885 60.8206 9.47073 61.2928 9.78755C61.2664 10.0166 61.1199 10.1571 60.8527 10.2094C60.1419 9.93352 59.4081 9.72258 58.652 9.57662C59.0169 8.8105 59.3839 8.03721 59.7523 7.25632C60.5156 6.94034 61.3223 6.7294 62.1731 6.62351C63.2537 5.0879 64.7211 4.1737 66.5746 3.88135Z" fill="#ECE590"/>
<path fill-rule="evenodd" clip-rule="evenodd" d="M27.8418 15.2719C27.2348 13.8447 27.3814 12.4386 28.282 11.0532C29.1882 9.74073 29.995 8.33464 30.7027 6.83446C31.2974 6.19364 31.9576 5.63128 32.6834 5.14697C32.83 5.42836 32.977 5.70933 33.1235 5.99072C31.1055 9.02018 29.3449 12.1138 27.8418 15.2719Z" fill="#626E36"/>
<path fill-rule="evenodd" clip-rule="evenodd" d="M99.5855 5.99023C99.8975 6.37161 100.338 6.51209 100.906 6.41211C101.01 6.95674 100.864 7.37861 100.466 7.67772C100.315 6.94999 99.8746 6.73906 99.1453 7.04491C95.5401 8.68599 92.0189 10.4439 88.5818 12.3183C86.7746 13.1148 85.014 14.0286 83.3001 15.0605C81.0325 16.9201 78.6852 18.678 76.2578 20.3339C76.1112 20.2634 75.9642 20.1934 75.8176 20.1229C82.0131 14.6276 88.9089 10.198 96.5045 6.83398C97.57 6.67451 98.5969 6.39312 99.5855 5.99023Z" fill="#302C14"/>
<path fill-rule="evenodd" clip-rule="evenodd" d="M38.8454 0.505736C40.5307 0.265691 41.9982 0.54708 43.2469 1.34948C43.4956 3.31076 43.7156 5.27964 43.9071 7.25568C45.1276 8.91195 46.0079 10.7399 46.548 12.74C47.7751 13.5466 48.3618 14.6718 48.3085 16.115C48.9054 16.4862 49.5656 16.6271 50.2892 16.5369C51.9023 18.0851 53.3693 19.7726 54.6906 21.5993C56.3742 22.6785 57.8412 23.9441 59.0921 25.3962C59.1484 26.0669 59.442 26.6293 59.9724 27.0837C61.5618 28.1915 63.1758 29.1761 64.814 30.0368C64.814 30.74 64.814 31.4429 64.814 32.1461C65.9645 32.052 66.6982 32.5444 67.0147 33.6227C64.9535 34.7267 62.7528 35.3595 60.4125 35.5211C60.4781 35.0773 60.4051 34.6554 60.1925 34.2555C58.5023 32.9165 56.8152 31.5804 55.1308 30.2477C55.7122 29.5959 55.5657 29.104 54.6906 28.7711C54.3469 29.2896 54.1268 29.852 54.0304 30.4586C53.7351 30.1414 53.3685 30.0005 52.9301 30.0368C51.0322 27.8202 49.125 25.57 47.2082 23.2868C47.246 22.8666 47.099 22.5152 46.768 22.2321C45.154 21.9507 43.5405 21.9507 41.9264 22.2321C41.5708 22.9518 40.9841 23.3033 40.1659 23.2868C40.0695 25.4506 39.7759 25.4506 39.2856 23.2868C38.635 23.3973 38.0483 23.2569 37.525 22.8649C37.8542 22.0921 38.2944 21.3888 38.8454 20.7556C39.2759 20.9568 39.6425 21.2378 39.9458 21.5993C40.165 20.3413 40.2385 19.0757 40.1659 17.8025C40.5017 16.6883 40.5752 15.5632 40.3859 14.4275C38.6033 11.5449 36.9893 8.59175 35.5443 5.5682C34.9105 4.07435 34.5434 2.52735 34.444 0.927608C35.9576 1.03181 37.4246 0.891327 38.8454 0.505736Z" fill="#60761F"/>
<path fill-rule="evenodd" clip-rule="evenodd" d="M43.2469 1.34961C43.3935 1.34961 43.5405 1.34961 43.687 1.34961C44.0022 3.82347 44.6624 6.21379 45.6677 8.52143C46.8416 11.4231 48.3821 14.0948 50.2892 16.537C49.5656 16.6273 48.9054 16.4864 48.3086 16.1151C48.3618 14.6719 47.7751 13.5468 46.548 12.7401C46.0079 10.7401 45.1276 8.91208 43.9071 7.25581C43.7156 5.27977 43.4956 3.31089 43.2469 1.34961Z" fill="#53632A"/>
<path fill-rule="evenodd" clip-rule="evenodd" d="M100.466 7.67775C99.2457 9.02521 97.9253 10.2908 96.5045 11.4746C96.5938 10.5726 97.034 9.86937 97.8249 9.36524C97.6048 9.22475 97.3848 9.08385 97.1647 8.94337C95.7091 9.53272 94.4617 10.3765 93.4234 11.4746C91.8116 11.8176 90.1981 12.0985 88.5818 12.3183C92.0189 10.444 95.5401 8.68602 99.1453 7.04494C99.8747 6.73909 100.315 6.95002 100.466 7.67775Z" fill="#E7E698"/>
<path fill-rule="evenodd" clip-rule="evenodd" d="M34.0039 7.67773C32.8018 11.9496 30.8947 15.8869 28.282 19.4901C28.282 18.5059 28.282 17.5213 28.282 16.537C29.6557 13.9041 31.0492 11.232 32.4634 8.52148C32.8225 7.96334 33.3362 7.68237 34.0039 7.67773Z" fill="#627231"/>
<path fill-rule="evenodd" clip-rule="evenodd" d="M34.0039 7.67773C34.3287 8.59024 34.7689 9.50444 35.3243 10.4199C35.1888 11.0354 34.8952 11.5277 34.444 11.8965C34.1901 11.3594 33.8969 11.3594 33.5637 11.8965C32.2974 14.4635 30.9035 16.9948 29.3824 19.4901C29.1632 20.7482 29.0897 22.0138 29.1623 23.287C29.6024 23.287 30.0426 23.287 30.4827 23.287C30.0945 23.9552 29.7279 24.6585 29.3824 25.3963C29.2138 25.1618 28.9937 25.0213 28.7221 24.9745C28.3577 23.1229 28.2107 21.2949 28.282 19.4901C30.8947 15.8869 32.8018 11.9496 34.0039 7.67773Z" fill="#3C4918"/>
<path fill-rule="evenodd" clip-rule="evenodd" d="M34.444 11.8969C33.047 15.7233 31.7266 19.5201 30.4827 23.2875C30.0426 23.2875 29.6024 23.2875 29.1623 23.2875C29.0896 22.0142 29.1631 20.7486 29.3823 19.4906C30.9035 16.9952 32.2974 14.464 33.5637 11.8969C33.8969 11.3599 34.19 11.3599 34.444 11.8969Z" fill="#637628"/>
<path fill-rule="evenodd" clip-rule="evenodd" d="M26.0812 18.2251C26.7586 20.9407 27.0522 23.7533 26.9615 26.6625C26.3836 23.9377 26.0905 21.125 26.0812 18.2251Z" fill="#8F8E92"/>
<path fill-rule="evenodd" clip-rule="evenodd" d="M45.0075 0.505684C45.1792 1.91431 45.3992 3.32083 45.6677 4.7244C45.9582 5.49389 46.4719 6.05625 47.2082 6.41189C48.0784 8.64275 49.1788 10.7521 50.5093 12.74C51.5709 14.2477 52.8179 15.5133 54.2505 16.5368C56.0323 19.2292 58.38 21.3386 61.2929 22.8649C61.2929 23.1463 61.4394 23.2868 61.733 23.2868C63.4676 25.3729 65.6684 26.779 68.3352 27.5055C70.0064 29.3356 72.0606 30.6716 74.4972 31.5133C77.4568 32.176 80.2442 33.1607 82.86 34.4664C83.5792 34.6748 84.3129 34.7448 85.0607 34.6773C85.1941 32.1216 85.4872 29.5904 85.941 27.0836C85.8653 26.6651 86.0123 26.3841 86.3811 26.2399C86.8134 25.9694 87.2535 25.6885 87.7016 25.3961C88.1268 26.196 88.2733 27.0397 88.1417 27.9273C87.0167 30.7902 86.7236 33.7433 87.2614 36.7867C88.364 39.1795 90.2711 40.5152 92.9833 40.7944C97.4539 41.1771 101.709 40.4742 105.748 38.6851C108.061 36.6727 110.408 34.7743 112.79 32.9898C113.108 33.1661 113.328 33.4471 113.45 33.8335C114.08 32.808 114.741 32.808 115.431 33.8335C119.368 33.4593 122.889 32.1937 125.994 30.0367C128.864 28.8339 131.211 27.006 133.037 24.5524C133.422 24.4971 133.716 24.6376 133.917 24.9742C133.419 25.4476 133.126 26.0104 133.037 26.6617C132.598 26.6254 132.232 26.7664 131.936 27.0836C131.538 28.2366 130.878 29.2212 129.956 30.0367C127.585 32.3751 124.797 34.1331 121.593 35.3101C118.767 35.7109 115.98 36.2737 113.23 36.9976C111.589 37.3536 110.121 37.9865 108.829 38.896C106.803 39.9895 104.749 41.0442 102.667 42.06C100.02 42.2111 97.3791 42.422 94.7439 42.6929C91.169 42.8422 88.3081 41.5766 86.1611 38.896C85.717 38.2527 85.4969 37.5494 85.5009 36.7867C84.7671 36.7867 84.0339 36.7867 83.3001 36.7867C81.4423 36.1252 79.5347 35.7033 77.5782 35.521C75.3903 34.3571 73.043 33.4429 70.5359 32.7789C66.77 30.2042 62.9553 27.7434 59.0921 25.3961C57.8413 23.944 56.3742 22.6784 54.6907 21.5993C53.3694 19.7726 51.9024 18.0851 50.2892 16.5368C48.3821 14.0946 46.8416 11.4229 45.6677 8.52125C44.6624 6.21361 44.0022 3.82328 43.6871 1.34943C43.614 -0.284482 44.0541 -0.56587 45.0075 0.505684Z" fill="#0C0D07"/>
<path fill-rule="evenodd" clip-rule="evenodd" d="M29.6024 30.0371C29.3308 29.9903 29.1107 29.8498 28.9421 29.6152C28.8625 30.9631 28.6424 32.2287 28.2819 33.4121C28.1398 31.8402 28.2868 30.2932 28.7221 28.7715C29.3466 28.9845 29.6398 29.4064 29.6024 30.0371Z" fill="#7C7D79"/>
<path fill-rule="evenodd" clip-rule="evenodd" d="M37.0849 38.897C37.6716 39.4593 38.2587 40.0221 38.8455 40.5845C38.3573 40.6085 37.9172 40.749 37.525 41.0063C37.3837 40.3533 36.9436 40.0719 36.2046 40.1626C36.6672 39.858 36.9608 39.4361 37.0849 38.897Z" fill="#6D6D6D"/>
<path fill-rule="evenodd" clip-rule="evenodd" d="M30.9229 0.506348C31.2406 0.68269 31.4607 0.963657 31.5831 1.35009C32.4704 0.460785 33.4242 0.31988 34.444 0.928219C34.5435 2.52796 34.9106 4.07496 35.5444 5.56881C36.9894 8.59236 38.6034 11.5455 40.386 14.4281C40.5752 15.5638 40.5017 16.6889 40.1659 17.8031C36.102 21.7969 33.8278 26.578 33.3437 32.1467C34.3076 32.9432 35.1144 33.8574 35.7645 34.8889C36.1769 35.1808 36.47 35.1104 36.6447 34.678C37.3322 33.8882 37.7724 32.904 37.9652 31.7249C38.3164 31.9176 38.463 32.199 38.4053 32.5686C38.2645 34.0021 38.411 35.4086 38.8455 36.7873C39.3129 36.1452 39.6065 35.4424 39.7258 34.678C40.0193 34.678 40.1659 34.8184 40.1659 35.0998C40.1659 36.3654 40.1659 37.6311 40.1659 38.8967C40.606 38.8967 41.0462 38.8967 41.4863 38.8967C41.8464 34.1536 42.7267 29.513 44.1272 24.9749C43.7865 24.464 43.4199 24.464 43.0268 24.9749C42.3266 26.7459 41.8134 28.5739 41.4863 30.4592C41.1386 30.9271 40.9186 31.4894 40.8261 32.1467C40.5506 31.2131 40.6241 30.2989 41.0462 29.4046C40.8996 29.1936 40.7526 28.9827 40.606 28.7718C40.1179 29.2316 39.6778 29.2316 39.2856 28.7718C39.7064 28.1073 40 27.404 40.1659 26.6624C40.8767 24.9458 42.0502 23.6097 43.6871 22.6546C44.864 22.7192 46.0374 22.9301 47.2082 23.2874C49.1251 25.5706 51.0322 27.8209 52.9301 30.0374C53.0406 30.7419 53.3342 31.3747 53.8104 31.9358C58.1784 35.5567 63.02 38.4398 68.3352 40.5842C68.7401 41.5486 68.7401 42.5328 68.3352 43.5373C67.9972 43.8591 67.7771 44.281 67.675 44.8029C67.5108 47.2029 67.2907 49.5932 67.0148 51.9747C68.767 52.1945 70.5276 52.335 72.2965 52.3966C72.2965 51.9747 72.2965 51.5528 72.2965 51.131C73.0373 49.6645 73.6975 48.1175 74.2772 46.4904C74.892 45.828 75.5523 45.2652 76.2578 44.8029C77.8793 44.5797 79.2728 45.0016 80.4392 46.0685C81.6381 46.5693 82.8851 46.8502 84.1804 46.9122C89.6774 47.332 95.2527 47.4729 100.906 47.3341C102.091 48.6339 102.531 50.1805 102.226 51.9747C103.431 51.7507 104.605 51.3993 105.748 50.92C107.269 49.3798 108.443 47.6218 109.269 45.6466C110.975 45.0383 112.589 44.335 114.11 43.5373C123.412 41.2195 130.748 36.2975 136.118 28.7718C137.415 27.2973 138.295 25.6098 138.758 23.7093C139.177 23.1107 139.324 22.4078 139.199 21.5999C137.901 21.4831 136.654 21.6236 135.457 22.0218C135.24 21.3325 135.167 20.6292 135.237 19.9124C135.302 17.9237 135.155 15.9549 134.797 14.0062C135.384 14.0062 135.971 14.0062 136.558 14.0062C136.849 15.6794 136.996 17.3669 136.998 19.0687C138.181 19.1379 139.354 19.0674 140.519 18.8578C145.439 17.1024 150.281 15.1335 155.044 12.9516C155.29 11.7108 155.657 10.5153 156.144 9.36565C156.938 10.7321 157.598 12.1382 158.125 13.5844C158.418 11.6935 158.712 9.86515 159.005 8.10004C159.323 7.9237 159.543 7.64273 159.665 7.25629C159.744 8.74339 159.964 10.1499 160.326 11.475C160.403 12.8364 160.697 14.102 161.206 15.2719C162.336 20.4934 164.244 25.4153 166.928 30.0374C167.72 31.0195 168.234 32.1446 168.468 33.4123C170.775 36.1545 172.609 39.1076 173.97 42.2716C173.507 42.3345 173.067 42.2645 172.65 42.0607C171.54 40.9967 170.439 39.9421 169.349 38.8967C165.363 42.5024 164.19 46.8616 165.827 51.9747C166.87 53.0458 167.971 54.0301 169.128 54.9278C168.395 55.2092 167.661 55.4902 166.928 55.7715C163.945 52.3046 163.139 48.3673 164.507 43.9591C165.289 41.73 166.536 39.7615 168.248 38.0529C166.274 34.5505 164.293 31.0351 162.306 27.5061C160.835 23.627 159.587 19.6897 158.565 15.6937C157.99 14.8614 157.256 14.1585 156.364 13.5844C151.932 17.0446 146.944 19.5053 141.399 20.9671C139.446 28.4431 135.338 34.5603 129.075 39.3185C123.224 42.5454 117.502 45.9909 111.91 49.6544C94.5291 57.0047 76.7767 57.7079 58.652 51.7638C55.6242 50.437 52.5432 49.1714 49.409 47.9669C45.6726 45.809 42.1514 43.3478 38.8455 40.5842C38.2588 40.0218 37.6716 39.459 37.0849 38.8967C34.0791 36.4359 31.7314 33.4828 30.0426 30.0374C30.4827 30.0374 30.9229 30.0374 31.363 30.0374C31.4105 29.1877 31.1174 28.4849 30.4827 27.928C30.0641 27.3294 29.9176 26.6265 30.0426 25.8186C29.3036 25.9094 28.8634 25.628 28.7221 24.9749C28.9937 25.0217 29.2138 25.1622 29.3823 25.3968C29.7279 24.6589 30.0945 23.9557 30.4827 23.2874C31.7266 19.5201 33.047 15.7233 34.444 11.8969C34.8952 11.5282 35.1887 11.0358 35.3243 10.4203C34.7688 9.50487 34.3287 8.59067 34.0039 7.67817C33.3362 7.68281 32.8225 7.96377 32.4634 8.52191C31.0492 11.2324 29.6557 13.9046 28.282 16.5375C28.2569 16.0696 28.1103 15.6477 27.8418 15.2719C29.3449 12.1137 31.1055 9.02014 33.1236 5.99068C32.977 5.70929 32.83 5.42832 32.6834 5.14694C31.9576 5.63124 31.2974 6.1936 30.7028 6.83442C29.995 8.3346 29.1882 9.7407 28.282 11.0531C28.282 10.7718 28.1354 10.6313 27.8418 10.6313C29.1235 7.99752 30.591 5.46629 32.2433 3.03758C32.0967 2.61571 31.9497 2.19383 31.8031 1.77196C30.1526 3.39195 28.8322 5.21992 27.8418 7.25629C27.4994 6.97955 27.2063 6.62813 26.9615 6.20162C27.1772 5.2119 27.4708 4.29771 27.8418 3.45945C27.6253 5.05834 27.9919 5.33931 28.9422 4.30319C29.3942 2.87431 30.0544 1.6087 30.9229 0.506348Z" fill="#0E110C"/>
<path fill-rule="evenodd" clip-rule="evenodd" d="M59.9724 40.1621C60.8527 40.3026 61.733 40.4435 62.6133 40.584C61.4363 43.5443 60.9962 46.6383 61.2928 49.8652C60.461 49.9508 59.8008 49.6698 59.3122 49.0214C59.3844 46.0675 59.6045 43.1144 59.9724 40.1621Z" fill="#60702B"/>
<path fill-rule="evenodd" clip-rule="evenodd" d="M56.4512 36.7871C55.9922 40.2891 55.699 43.8045 55.5709 47.3339C54.9842 47.3339 54.3971 47.3339 53.8104 47.3339C53.7162 43.748 54.1563 40.2325 55.1308 36.7871C55.5709 36.7871 56.0111 36.7871 56.4512 36.7871Z" fill="#667530"/>
<path fill-rule="evenodd" clip-rule="evenodd" d="M57.7717 38.4746C58.2119 38.4746 58.652 38.4746 59.0921 38.4746C59.0833 41.8791 58.7898 45.2541 58.2119 48.5995C57.6436 48.6995 57.2035 48.559 56.8914 48.1777C56.9315 44.9195 57.2246 41.6855 57.7717 38.4746Z" fill="#657336"/>
<path fill-rule="evenodd" clip-rule="evenodd" d="M52.49 34.6782C53.8051 34.5327 54.3919 35.095 54.2506 36.3657C53.3113 39.8259 52.8712 43.3413 52.9301 46.9125C52.3483 46.9842 51.8346 46.8437 51.3896 46.4906C51.3161 45.5764 51.2431 44.6626 51.1696 43.7484C51.5248 40.711 51.9649 37.6878 52.49 34.6782Z" fill="#627031"/>
<path fill-rule="evenodd" clip-rule="evenodd" d="M114.11 43.537C110.146 43.3548 107.212 44.9018 105.307 48.1776C104.188 47.2871 104.188 46.3729 105.307 45.4355C104.386 44.8651 103.359 44.6542 102.226 44.8027C102.342 45.4262 102.195 45.9885 101.786 46.4901C100.039 46.14 98.2787 45.859 96.5045 45.6464C96.5045 45.084 96.5045 44.5213 96.5045 43.9589C95.3218 44.0281 94.148 43.9576 92.9833 43.748C97.3254 43.7615 101.58 43.1991 105.748 42.0605C107.173 41.3281 108.2 40.2734 108.829 38.8965C111.367 38.8446 113.715 38.2118 115.871 36.998C119.376 36.7268 122.75 35.9535 125.994 34.6777C126.434 34.7482 126.875 34.8182 127.315 34.8887C126.728 35.451 126.728 36.0138 127.315 36.5762C126.619 36.8744 125.959 37.2258 125.334 37.6308C124.698 36.9326 123.891 36.6513 122.913 36.7871C122.913 37.209 122.913 37.6308 122.913 38.0527C122.165 37.9852 121.432 38.0552 120.712 38.2636C120.179 38.7332 120.179 39.2255 120.712 39.7402C119.725 40.1511 118.698 40.292 117.631 40.1621C117.631 40.5839 117.631 41.0058 117.631 41.4277C115.763 41.1159 114.589 41.8188 114.11 43.537Z" fill="#60781B"/>
<path fill-rule="evenodd" clip-rule="evenodd" d="M49.4089 33.4121C48.5506 36.6875 48.184 40.0625 48.3085 43.537C48.6857 40.9396 49.1994 38.4083 49.849 35.9433C50.2751 35.0544 50.4221 34.0698 50.2892 32.9902C51.2505 32.3646 51.8372 32.646 52.0498 33.834C51.0625 37.7202 50.4758 41.658 50.2892 45.6464C48.2989 45.362 46.9784 44.3074 46.3279 42.4823C46.963 38.8998 47.5502 35.3139 48.0885 31.7246C48.5268 31.7609 48.8935 31.62 49.1888 31.3027C49.4063 31.9921 49.4793 32.6953 49.4089 33.4121Z" fill="#5B6731"/>
<path fill-rule="evenodd" clip-rule="evenodd" d="M49.409 33.4121C49.8319 34.1567 49.979 35.0005 49.8491 35.9433C49.1995 38.4083 48.6858 40.9396 48.3086 43.537C48.184 40.0625 48.5507 36.6875 49.409 33.4121Z" fill="#0B1202"/>
<path fill-rule="evenodd" clip-rule="evenodd" d="M77.5782 35.5215C79.5347 35.7037 81.4423 36.1256 83.3001 36.7871C84.2187 38.5535 85.2456 40.241 86.3811 41.8495C87.3297 42.2335 88.2099 42.7258 89.022 43.3261C87.4146 43.5366 85.801 43.6066 84.1804 43.537C84.5079 42.0816 83.9207 41.3787 82.4198 41.4277C82.5695 42.5431 82.2759 43.5273 81.5395 44.3808C81.7706 44.6727 82.0642 44.8837 82.4198 45.0136C80.9533 44.9516 79.4863 44.7406 78.0184 44.3808C77.3384 44.3854 76.7516 44.5259 76.2578 44.8027C75.5522 45.265 74.892 45.8278 74.2771 46.4901C73.6975 48.1173 73.0373 49.6643 72.2965 51.1307C70.9127 52.2002 69.5922 52.0597 68.3352 50.7089C67.8202 48.3278 67.8202 45.9371 68.3352 43.537C68.9219 43.537 69.5091 43.537 70.0958 43.537C70.168 42.4035 70.0944 41.2783 69.8757 40.1621C69.2401 39.4639 68.4329 39.1825 67.4549 39.3183C68.1226 38.016 68.4162 36.6095 68.3352 35.0996C69.2568 34.7866 70.2106 34.5052 71.1961 34.2559C73.4065 34.4786 75.5342 34.9005 77.5782 35.5215Z" fill="#60771E"/>
<path fill-rule="evenodd" clip-rule="evenodd" d="M136.118 28.7715C130.748 36.2973 123.412 41.2192 114.11 43.537C114.589 41.8187 115.763 41.1159 117.632 41.4276C117.632 41.0058 117.632 40.5839 117.632 40.162C118.698 40.292 119.725 40.1511 120.713 39.7401C120.18 39.2255 120.18 38.7331 120.713 38.2636C121.432 38.0552 122.165 37.9852 122.913 38.0527C122.913 37.6308 122.913 37.2089 122.913 36.787C123.891 36.6512 124.698 36.9326 125.334 37.6308C125.959 37.2258 126.619 36.8744 127.315 36.5761C126.728 36.0138 126.728 35.451 127.315 34.8886C126.875 34.8182 126.434 34.7481 125.994 34.6777C122.75 35.9534 119.376 36.7267 115.871 36.998C113.715 38.2117 111.367 38.8445 108.829 38.8964C110.121 37.9868 111.589 37.354 113.23 36.998C115.98 36.2741 118.768 35.7113 121.593 35.3105C124.797 34.1335 127.585 32.3755 129.956 30.0371C129.925 31.1272 129.412 31.971 128.415 32.5683C128.199 33.1138 128.126 33.6766 128.195 34.2558C130.213 34.3777 131.386 33.534 131.716 31.7246C133.273 30.8268 134.74 29.8422 136.118 28.7715Z" fill="#5D6D29"/>
<path fill-rule="evenodd" clip-rule="evenodd" d="M40.1659 35.0999C40.9661 33.6891 41.4062 32.1421 41.4863 30.4593C41.8134 28.5739 42.3266 26.746 43.0268 24.975C43.4199 24.4641 43.7865 24.4641 44.1272 24.975C42.7267 29.513 41.8464 34.1536 41.4863 38.8967C41.0462 38.8967 40.606 38.8967 40.1659 38.8967C40.1659 37.6311 40.1659 36.3655 40.1659 35.0999Z" fill="#596537"/>
<path fill-rule="evenodd" clip-rule="evenodd" d="M85.941 27.084C85.4872 29.5907 85.1941 32.122 85.0607 34.6777C84.3129 34.7452 83.5792 34.6751 82.86 34.4667C80.2442 33.161 77.4568 32.1764 74.4972 31.5136C72.0606 30.672 70.0064 29.3359 68.3352 27.5059C69.3594 27.5755 70.3128 27.8564 71.1961 28.3496C71.3427 28.2091 71.4897 28.0682 71.6363 27.9277C72.881 28.7158 73.9814 29.6296 74.9374 30.6699C77.9911 31.706 81.0721 32.6202 84.1804 33.4121C84.2649 31.3997 84.6316 29.4313 85.2808 27.5059C85.4494 27.2713 85.6694 27.1308 85.941 27.084Z" fill="#D9D790"/>
<path fill-rule="evenodd" clip-rule="evenodd" d="M39.7257 34.6777C39.6064 35.4421 39.3129 36.145 38.8454 36.7871C38.411 35.4084 38.2644 34.0019 38.4053 32.5683C38.7129 31.701 39.1531 30.8572 39.7257 30.0371C40.0747 31.5643 40.0747 33.1113 39.7257 34.6777Z" fill="#5E693D"/>
<path fill-rule="evenodd" clip-rule="evenodd" d="M59.0921 25.3965C62.9553 27.7438 66.77 30.2046 70.5359 32.7792C73.043 33.4433 75.3903 34.3575 77.5782 35.5214C75.5342 34.9004 73.4066 34.4785 71.1961 34.2558C70.2107 34.5051 69.2569 34.7865 68.3352 35.0995C68.4162 36.6094 68.1226 38.0159 67.4549 39.3182C68.4329 39.1824 69.2401 39.4638 69.8757 40.162C70.0945 41.2783 70.168 42.4034 70.0958 43.537C69.5091 43.537 68.9219 43.537 68.3352 43.537C68.7401 42.5325 68.7401 41.5483 68.3352 40.5839C63.02 38.4395 58.1784 35.5564 53.8104 31.9355C53.3342 31.3744 53.0406 30.7416 52.9301 30.0371C53.3685 30.0008 53.7351 30.1417 54.0305 30.4589C54.1269 29.8523 54.3469 29.2899 54.6907 28.7715C55.5657 29.1043 55.7123 29.5962 55.1308 30.248C56.8153 31.5807 58.5024 32.9168 60.1925 34.2558C60.4051 34.6557 60.4782 35.0776 60.4126 35.5214C62.7528 35.3598 64.9536 34.727 67.0148 33.623C66.6983 32.5447 65.9646 32.0524 64.814 32.1464C64.814 31.4432 64.814 30.7403 64.814 30.0371C63.1758 29.1765 61.5618 28.1918 59.9724 27.084C59.4421 26.6296 59.1485 26.0673 59.0921 25.3965Z" fill="#5E7125"/>
<path fill-rule="evenodd" clip-rule="evenodd" d="M40.1659 26.6621C39.9999 27.4038 39.7064 28.107 39.2856 28.7715C39.6778 29.2313 40.1179 29.2313 40.606 28.7715C40.7526 28.9824 40.8996 29.1933 41.0462 29.4043C40.6241 30.2986 40.5506 31.2128 40.8261 32.1464C40.9185 31.4892 41.1386 30.9268 41.4863 30.459C41.4062 32.1418 40.9661 33.6888 40.1659 35.0995C40.1659 34.8182 40.0193 34.6777 39.7257 34.6777C40.0748 33.1113 40.0748 31.5643 39.7257 30.0371C39.1531 30.8572 38.713 31.7009 38.4053 32.5683C38.463 32.1988 38.3164 31.9174 37.9651 31.7246C37.7724 32.9037 37.3322 33.8879 36.6447 34.6777C36.8437 33.5374 37.1372 32.4122 37.525 31.3027C38.2473 29.6236 39.1276 28.0766 40.1659 26.6621Z" fill="#1E2613"/>
<path fill-rule="evenodd" clip-rule="evenodd" d="M47.6483 28.3496C48.0044 29.1056 48.2245 29.9493 48.3086 30.8808C48.7535 30.5277 49.2672 30.3872 49.8491 30.459C49.7192 31.4019 49.8662 32.2456 50.2892 32.9902C50.4221 34.0698 50.2751 35.0544 49.8491 35.9433C49.9789 35.0004 49.8319 34.1567 49.4089 33.4121C49.4793 32.6953 49.4063 31.992 49.1888 31.3027C48.8935 31.62 48.5269 31.7609 48.0885 31.7246C47.8957 31.3002 47.6026 31.3002 47.2082 31.7246C47.5449 30.6294 47.6919 29.5043 47.6483 28.3496Z" fill="#333C21"/>
<path fill-rule="evenodd" clip-rule="evenodd" d="M44.5674 25.3965C45.0075 25.3965 45.4477 25.3965 45.8878 25.3965C45.0528 30.4741 44.026 35.5366 42.8068 40.5839C42.6602 40.0915 42.5132 39.5996 42.3666 39.1073C42.8451 34.4946 43.5788 29.924 44.5674 25.3965Z" fill="#616D3C"/>
<path fill-rule="evenodd" clip-rule="evenodd" d="M125.554 23.2871C125.027 25.1674 123.853 26.5735 122.033 27.5058C121.13 28.8006 120.543 30.2071 120.272 31.7245C121.486 31.776 122.366 31.2837 122.913 30.248C123.93 30.0383 124.957 29.9683 125.994 30.0371C122.889 32.1941 119.368 33.4597 115.431 33.8339C118.322 29.9362 121.696 26.4204 125.554 23.2871Z" fill="#E5E698"/>
<path fill-rule="evenodd" clip-rule="evenodd" d="M47.6484 28.3496C47.6919 29.5043 47.5449 30.6294 47.2082 31.7246C46.53 35.2046 46.0898 38.7205 45.8878 42.2714C45.3011 42.2714 44.7139 42.2714 44.1272 42.2714C44.5317 37.4135 45.412 32.6324 46.7681 27.9277C47.0687 28.0809 47.3623 28.2214 47.6484 28.3496Z" fill="#5C6934"/>
<path fill-rule="evenodd" clip-rule="evenodd" d="M138.758 22.4434C138.758 22.8653 138.758 23.2872 138.758 23.7091C138.295 25.6096 137.415 27.2971 136.118 28.7715C134.74 29.8422 133.273 30.8269 131.716 31.7246C131.386 33.534 130.213 34.3778 128.195 34.2558C128.126 33.6766 128.199 33.1138 128.415 32.5684C129.412 31.971 129.925 31.1272 129.956 30.0371C130.829 30.0865 131.562 29.8051 132.156 29.1934C133.963 27.2696 135.43 25.1603 136.558 22.8653C137.238 22.4637 137.971 22.3232 138.758 22.4434Z" fill="#61781E"/>
<path fill-rule="evenodd" clip-rule="evenodd" d="M132.156 16.5376C132.89 16.5376 133.623 16.5376 134.357 16.5376C134.416 18.8381 134.123 21.0879 133.477 23.2875C133.452 23.7554 133.305 24.1773 133.037 24.5532C131.211 27.0068 128.864 28.8347 125.994 30.0375C124.957 29.9687 123.93 30.0388 122.913 30.2484C122.366 31.2841 121.486 31.7764 120.272 31.725C120.543 30.2075 121.13 28.801 122.033 27.5063C123.853 26.5739 125.027 25.1678 125.554 23.2875C125.701 23.2875 125.848 23.2875 125.994 23.2875C126.511 23.3799 126.952 23.2395 127.315 22.8657C127.593 21.8258 128.253 21.1229 129.295 20.7563C129.863 19.7894 130.597 18.9456 131.496 18.2251C131.709 17.8251 131.782 17.4033 131.716 16.9595C131.716 16.6781 131.863 16.5376 132.156 16.5376Z" fill="#FAF787"/>
<path fill-rule="evenodd" clip-rule="evenodd" d="M138.758 22.4433C137.971 22.3231 137.238 22.4635 136.558 22.8652C135.43 25.1601 133.963 27.2695 132.156 29.1932C131.562 29.805 130.829 30.0863 129.956 30.037C130.878 29.2215 131.538 28.2369 131.936 27.0839C132.232 26.7666 132.598 26.6257 133.037 26.662C134.189 25.3525 135.216 23.9464 136.118 22.4433C137.058 21.8978 137.938 21.8978 138.758 22.4433Z" fill="#5D6E34"/>
<path fill-rule="evenodd" clip-rule="evenodd" d="M61.733 23.2872C62.52 23.167 63.2537 23.3074 63.9338 23.7091C65.1424 24.9903 66.6098 25.834 68.3352 26.2403C68.3352 26.6622 68.3352 27.084 68.3352 27.5059C65.6684 26.7794 63.4676 25.3733 61.733 23.2872Z" fill="#D7D891"/>
<path fill-rule="evenodd" clip-rule="evenodd" d="M40.1659 17.8032C40.2385 19.0764 40.165 20.342 39.9458 21.6001C39.6425 21.2385 39.2759 20.9576 38.8454 20.7563C38.2944 21.3896 37.8542 22.0928 37.525 22.8657C38.0483 23.2576 38.6351 23.3981 39.2856 23.2876C39.7759 25.4513 40.0695 25.4513 40.1659 23.2876C40.9841 23.304 41.5708 22.9526 41.9265 22.2329C43.5405 21.9515 45.154 21.9515 46.7681 22.2329C47.099 22.516 47.2461 22.8674 47.2082 23.2876C46.0374 22.9302 44.864 22.7193 43.687 22.6547C42.0501 23.6099 40.8767 24.9459 40.1659 26.6625C39.1276 28.0771 38.2473 29.6241 37.525 31.3031C37.1372 32.4126 36.8437 33.5378 36.6447 34.6781C36.47 35.1105 36.1768 35.181 35.7644 34.889C35.1143 33.8575 34.3075 32.9434 33.3436 32.1469C33.8278 26.5782 36.102 21.7971 40.1659 17.8032Z" fill="#5E722A"/>
<path fill-rule="evenodd" clip-rule="evenodd" d="M135.237 19.9126C135.167 20.6294 135.24 21.3326 135.457 22.022C136.654 21.6237 137.901 21.4832 139.199 21.6001C139.324 22.408 139.177 23.1108 138.758 23.7094C138.758 23.2876 138.758 22.8657 138.758 22.4438C137.938 21.8983 137.058 21.8983 136.118 22.4438C135.216 23.947 134.189 25.3531 133.036 26.6625C133.126 26.0112 133.419 25.4484 133.917 24.9751C133.716 24.6384 133.422 24.4979 133.036 24.5532C133.305 24.1773 133.452 23.7554 133.477 23.2876C134.437 22.3325 135.024 21.2073 135.237 19.9126Z" fill="#2E351C"/>
<path fill-rule="evenodd" clip-rule="evenodd" d="M131.716 16.959C131.782 17.4028 131.709 17.8247 131.496 18.2246C130.597 18.9452 129.863 19.7889 129.295 20.7558C128.253 21.1224 127.593 21.8253 127.315 22.8652C126.952 23.239 126.511 23.3794 125.994 23.2871C127.437 20.7803 129.344 18.6709 131.716 16.959Z" fill="#DFE095"/>
<path fill-rule="evenodd" clip-rule="evenodd" d="M37.0849 14.8497C37.6668 14.778 38.1804 14.9185 38.6254 15.2716C39.268 17.0848 38.6808 18.3504 36.8648 19.0684C36.8071 20.2796 36.2939 21.2643 35.3243 22.0215C35.1777 21.7402 35.0307 21.4592 34.8842 21.1778C35.9889 19.1975 36.7222 17.0882 37.0849 14.8497Z" fill="#586433"/>
<path fill-rule="evenodd" clip-rule="evenodd" d="M103.547 11.4751C103.547 17.6627 103.547 23.8499 103.547 30.0375C101.2 30.0375 98.8518 30.0375 96.5045 30.0375C96.5045 32.2873 96.5045 34.5376 96.5045 36.7874C99.1506 37.2051 101.718 37.4864 104.207 37.6311C104.52 37.0097 105.033 36.7283 105.748 36.7874C105.818 36.0706 105.745 35.3674 105.527 34.678C104.006 34.2359 103.346 33.2517 103.547 31.7249C106.38 31.7228 109.167 31.9338 111.91 32.3577C112.8 31.0149 113.02 29.5384 112.57 27.9281C112.687 26.4933 112.027 25.7905 110.589 25.8187C110.589 24.975 110.589 24.1312 110.589 23.2875C111.469 23.2875 112.35 23.2875 113.23 23.2875C113.155 23.8452 113.302 24.3375 113.67 24.7641C114.961 25.1661 116.281 25.377 117.631 25.3969C117.631 24.975 117.631 24.5531 117.631 24.1312C118.88 23.5929 120.2 23.312 121.593 23.2875C118.649 26.53 115.714 29.7645 112.79 32.9906C110.408 34.7751 108.061 36.6735 105.748 38.6858C101.709 40.475 97.4539 41.1778 92.9833 40.7952C90.2711 40.5159 88.364 39.1803 87.2614 36.7874C86.7236 33.744 87.0167 30.7909 88.1417 27.9281C91.0154 22.9901 94.5366 18.49 98.7052 14.4282C100.322 13.1023 101.936 12.118 103.547 11.4751Z" fill="#B6D8B6"/>
<path fill-rule="evenodd" clip-rule="evenodd" d="M54.2505 16.5377C55.0375 16.4174 55.7713 16.5579 56.4513 16.9595C58.2488 18.8192 59.8624 20.788 61.2929 22.8657C58.38 21.3394 56.0323 19.2301 54.2505 16.5377Z" fill="#EBEA94"/>
<path fill-rule="evenodd" clip-rule="evenodd" d="M134.357 14.0059C134.504 14.0059 134.651 14.0059 134.797 14.0059C135.155 15.9545 135.302 17.9234 135.237 19.9121C135.024 21.2068 134.437 22.3319 133.477 23.287C134.123 21.0874 134.416 18.8376 134.357 16.5371C133.623 16.5371 132.89 16.5371 132.156 16.5371C132.685 15.5208 133.418 14.6771 134.357 14.0059Z" fill="#E7E7A1"/>
<path fill-rule="evenodd" clip-rule="evenodd" d="M30.4827 27.9281C30.6341 25.2361 31.4413 22.7049 32.9035 20.3344C33.5813 17.488 34.3881 14.6758 35.3243 11.897C36.8401 12.1269 37.3538 12.9706 36.8648 14.4282C36.3181 15.7955 35.5844 17.0611 34.664 18.225C33.7318 21.3279 32.705 24.4215 31.583 27.5062C31.2877 27.8235 30.9211 27.9644 30.4827 27.9281Z" fill="#637132"/>
<path fill-rule="evenodd" clip-rule="evenodd" d="M83.3001 36.7871C84.0339 36.7871 84.7671 36.7871 85.5009 36.7871C85.4969 37.5499 85.717 38.2531 86.1611 38.8965C88.3081 41.577 91.1691 42.8427 94.7439 42.6933C97.3791 42.4225 100.02 42.2115 102.667 42.0605C104.749 41.0446 106.803 39.99 108.829 38.8965C108.2 40.2735 107.173 41.3281 105.748 42.0605C101.58 43.1991 97.3254 43.7615 92.9833 43.748C94.148 43.9577 95.3218 44.0281 96.5045 43.9589C96.5045 44.5213 96.5045 45.0841 96.5045 45.6464C98.2787 45.859 100.039 46.14 101.786 46.4902C102.195 45.9886 102.342 45.4262 102.226 44.8027C103.359 44.6542 104.386 44.8651 105.307 45.4355C104.188 46.3729 104.188 47.2871 105.307 48.1776C107.212 44.9018 110.146 43.3548 114.11 43.5371C112.589 44.3348 110.975 45.0381 109.269 45.6464C108.443 47.6216 107.269 49.3796 105.748 50.9198C104.605 51.3991 103.431 51.7505 102.226 51.9745C102.531 50.1803 102.091 48.6337 100.906 47.3339C99.7673 46.7787 98.4469 46.4973 96.9446 46.4902C92.695 46.785 88.4402 46.926 84.1804 46.912C82.8851 46.85 81.6381 46.569 80.4392 46.0683C79.2728 45.0014 77.8793 44.5795 76.2578 44.8027C76.7517 44.5259 77.3384 44.3854 78.0184 44.3808C79.4863 44.7407 80.9533 44.9516 82.4198 45.0136C82.0642 44.8837 81.7706 44.6727 81.5396 44.3808C82.2759 43.5274 82.5695 42.5431 82.4198 41.4277C83.9207 41.3788 84.5079 42.0816 84.1804 43.5371C85.801 43.6067 87.4146 43.5366 89.022 43.3261C88.21 42.7258 87.3297 42.2335 86.3812 41.8496C85.2456 40.241 84.2187 38.5535 83.3001 36.7871Z" fill="#5F7225"/>
<path fill-rule="evenodd" clip-rule="evenodd" d="M56.4513 36.7871C56.8914 37.3495 57.3316 37.9122 57.7717 38.4746C57.2246 41.6855 56.9315 44.9195 56.8914 48.1776C56.5309 46.9943 56.3109 45.7287 56.2312 44.3808C56.1493 45.4507 55.9293 46.4349 55.571 47.3339C55.6991 43.8045 55.9922 40.2891 56.4513 36.7871Z" fill="#202710"/>
<path fill-rule="evenodd" clip-rule="evenodd" d="M64.814 41.4277C65.152 41.7496 65.3721 42.1715 65.4742 42.6933C65.9192 42.3402 66.4329 42.1998 67.0147 42.2715C67.1191 42.8161 66.9725 43.238 66.5746 43.5371C66.6235 42.6309 66.3299 42.4904 65.6943 43.1152C65.4007 44.5821 65.1072 45.9886 64.814 47.3339C64.4782 48.0629 64.1846 49.0476 63.9337 50.287C63.8303 47.2854 64.1239 44.3323 64.814 41.4277Z" fill="#2A3513"/>
<path fill-rule="evenodd" clip-rule="evenodd" d="M100.906 47.334C95.2527 47.4728 89.6774 47.3319 84.1804 46.9121C88.4401 46.926 92.695 46.7851 96.9446 46.4902C98.4468 46.4974 99.7673 46.7788 100.906 47.334Z" fill="#58662F"/>
<path fill-rule="evenodd" clip-rule="evenodd" d="M64.814 41.4279C64.1239 44.3325 63.8303 47.2856 63.9338 50.2872C63.347 50.2872 62.7599 50.2872 62.1732 50.2872C62.0336 47.5835 62.2537 44.9113 62.8334 42.2717C63.2951 41.5937 63.9553 41.3128 64.814 41.4279Z" fill="#66762B"/>
<path fill-rule="evenodd" clip-rule="evenodd" d="M66.5746 43.5368C66.6477 45.2302 66.5742 46.9177 66.3545 48.5993C65.9879 49.0212 65.6208 49.443 65.2542 49.8649C64.829 49.065 64.6824 48.2213 64.814 47.3337C65.1072 45.9883 65.4007 44.5818 65.6943 43.115C66.3299 42.4902 66.6235 42.6307 66.5746 43.5368Z" fill="#545F35"/>
<path fill-rule="evenodd" clip-rule="evenodd" d="M74.0571 48.5991C74.5963 48.8742 74.8898 49.3665 74.9374 50.0757C75.0215 50.908 74.7279 51.5408 74.0571 51.9741C73.8595 50.9009 73.8595 49.7761 74.0571 48.5991Z" fill="#474F3A"/>
<path fill-rule="evenodd" clip-rule="evenodd" d="M98.7052 49.0214C100.792 48.8784 101.379 49.7221 100.466 51.5526C99.9218 51.8674 99.3346 52.0078 98.7052 51.9745C98.7052 50.9903 98.7052 50.0056 98.7052 49.0214Z" fill="#637138"/>
<path fill-rule="evenodd" clip-rule="evenodd" d="M10.236 53.2402C9.94335 52.3129 9.64977 51.3287 9.35575 50.2871C9.06218 51.754 8.7686 53.1605 8.47546 54.5058C8.47546 52.9588 8.47546 51.4122 8.47546 49.8652C9.06218 49.8652 9.64933 49.8652 10.236 49.8652C10.236 50.9904 10.236 52.1151 10.236 53.2402Z" fill="#ACACAC"/>
<path fill-rule="evenodd" clip-rule="evenodd" d="M76.2578 46.9123C76.775 46.8199 77.2151 46.9603 77.5782 47.3341C77.2208 49.1507 76.9273 50.9787 76.6979 52.8185C76.2578 52.8185 75.8176 52.8185 75.3775 52.8185C75.5786 50.8352 75.8722 48.8664 76.2578 46.9123Z" fill="#5E6D3E"/>
<path fill-rule="evenodd" clip-rule="evenodd" d="M86.8213 50.2866C87.408 50.2866 87.9951 50.2866 88.5818 50.2866C88.5818 51.4118 88.5818 52.5365 88.5818 53.6616C88 53.7333 87.4863 53.5928 87.0413 53.2397C86.8226 52.2652 86.7495 51.281 86.8213 50.2866Z" fill="#5F7038"/>
<path fill-rule="evenodd" clip-rule="evenodd" d="M96.5045 49.4434C97.3003 50.0416 97.5938 50.8853 97.3848 51.9746C96.9446 51.9746 96.5045 51.9746 96.0643 51.9746C96.0643 51.2713 96.0643 50.5685 96.0643 49.8652C96.3579 49.8652 96.5045 49.7247 96.5045 49.4434Z" fill="#6E8035"/>
<path fill-rule="evenodd" clip-rule="evenodd" d="M68.3351 43.5371C67.8202 45.9371 67.8202 48.3279 68.3351 50.7089C69.5922 52.0598 70.9126 52.2002 72.2965 51.1308C72.2965 51.5527 72.2965 51.9745 72.2965 52.3964C70.5275 52.3348 68.7669 52.1943 67.0147 51.9745C67.2907 49.5931 67.5108 47.2028 67.6749 44.8027C67.777 44.2809 67.9971 43.859 68.3351 43.5371Z" fill="#56612F"/>
<path fill-rule="evenodd" clip-rule="evenodd" d="M81.5396 49.0215C82.0162 49.0379 82.4564 49.1788 82.86 49.4434C83.2944 50.822 83.441 52.2286 83.3001 53.6621C82.5664 53.6621 81.8331 53.6621 81.0994 53.6621C80.9867 52.072 81.1333 50.525 81.5396 49.0215Z" fill="#5F7034"/>
<path fill-rule="evenodd" clip-rule="evenodd" d="M90.3425 50.2866C90.9292 50.2866 91.5163 50.2866 92.103 50.2866C92.1743 51.1418 92.1008 51.9855 91.883 52.8179C91.2861 53.1891 90.6259 53.33 89.9023 53.2397C89.8134 52.2061 89.96 51.2219 90.3425 50.2866Z" fill="#5E7030"/>
<path fill-rule="evenodd" clip-rule="evenodd" d="M96.5045 49.4433C96.8166 49.0619 97.2567 48.9214 97.8249 49.0214C97.8249 50.1465 97.8249 51.2713 97.8249 52.3964C97.0912 52.3964 96.3579 52.3964 95.6242 52.3964C95.2959 50.2959 95.0027 50.4364 94.7439 52.8183C94.1572 52.8183 93.5701 52.8183 92.9833 52.8183C92.9833 51.9745 92.9833 51.1308 92.9833 50.287C94.0617 50.3722 95.0886 50.2318 96.0644 49.8652C96.0644 50.5684 96.0644 51.2713 96.0644 51.9745C96.5045 51.9745 96.9446 51.9745 97.3848 51.9745C97.5939 50.8852 97.3003 50.0415 96.5045 49.4433Z" fill="#404F21"/>
<path fill-rule="evenodd" clip-rule="evenodd" d="M84.1804 49.8652C84.7671 49.8652 85.3542 49.8652 85.9409 49.8652C85.9409 51.1308 85.9409 52.3965 85.9409 53.6621C85.2173 53.7524 84.5571 53.6115 83.9603 53.2402C83.771 52.1045 83.8445 50.9794 84.1804 49.8652Z" fill="#586639"/>
<path fill-rule="evenodd" clip-rule="evenodd" d="M80.2191 48.1774C80.4242 49.9227 80.4242 51.7511 80.2191 53.6617C79.4854 53.6617 78.7521 53.6617 78.0184 53.6617C77.9537 51.673 78.1003 49.7042 78.4585 47.7555C79.1623 47.6425 79.7491 47.7834 80.2191 48.1774Z" fill="#3F4B22"/>
<path fill-rule="evenodd" clip-rule="evenodd" d="M80.2191 48.1777C79.8916 49.7045 79.745 51.2511 79.7789 52.8183C79.3388 52.8183 78.8986 52.8183 78.4585 52.8183C78.5571 51.2663 78.7041 49.7193 78.8986 48.1777C79.3388 48.1777 79.7789 48.1777 80.2191 48.1777Z" fill="#6C7F38"/>
<path fill-rule="evenodd" clip-rule="evenodd" d="M-24.5355 -172.461C-24.5355 -171.336 -24.5355 -170.211 -24.5355 -169.086C-24.679 -165.353 -24.5324 -161.697 -24.0953 -158.117C-24.0914 -154.99 -23.7978 -151.896 -23.215 -148.836C-23.1046 -145.595 -22.5178 -142.501 -21.4544 -139.555C-21.4544 -139.274 -21.4544 -138.993 -21.4544 -138.711C-21.4544 -138.289 -21.4544 -137.868 -21.4544 -137.446C-20.627 -137.331 -20.0403 -137.613 -19.6939 -138.289C-19.0781 -138.876 -18.3444 -139.298 -17.4931 -139.555C-16.4073 -139.663 -15.527 -140.084 -14.8523 -140.821C-14.1802 -140.79 -13.74 -141.071 -13.5318 -141.664C-11.4288 -142.571 -9.22809 -143.133 -6.92965 -143.352C-5.74698 -143.421 -4.57312 -143.351 -3.40849 -143.141C-4.04318 -142.982 -4.48333 -142.63 -4.72893 -142.086C-4.72893 -141.946 -4.72893 -141.805 -4.72893 -141.664C-4.8755 -141.664 -5.0225 -141.664 -5.16907 -141.664C-6.67261 -141.653 -7.99304 -141.231 -9.13038 -140.399C-10.6682 -140.385 -11.8421 -139.823 -12.6515 -138.711C-13.6582 -138.617 -14.6115 -138.335 -15.5125 -137.868C-17.899 -136.337 -20.3198 -134.86 -22.7749 -133.438C-23.1433 -133.011 -23.2899 -132.519 -23.215 -131.961C-24.0108 -131.965 -24.7445 -131.754 -25.4158 -131.328C-29.2305 -128.235 -33.0448 -125.141 -36.8595 -122.047C-37.3723 -121.207 -37.959 -120.434 -38.6201 -119.727C-39.1452 -119.529 -39.4388 -119.107 -39.5004 -118.461C-39.3239 -116.975 -39.0308 -115.568 -38.6201 -114.243C-38.0985 -112.289 -37.6584 -110.32 -37.2997 -108.336C-37.2451 -106.417 -36.9515 -104.589 -36.4194 -102.852C-36.0008 -102.254 -35.8542 -101.551 -35.9792 -100.743C-36.3507 -97.421 -35.764 -94.3274 -34.2187 -91.4616C-34.0721 -91.4616 -33.9251 -91.4616 -33.7785 -91.4616C-33.7098 -88.5937 -33.2697 -85.7811 -32.4581 -83.0242C-31.2266 -81.8716 -29.7595 -81.1684 -28.0566 -80.9148C-24.9483 -78.2144 -21.7207 -75.6832 -18.3734 -73.3211C-17.321 -71.8796 -15.8536 -71.3173 -13.972 -71.6337C-14.4121 -71.3523 -14.8523 -71.0713 -15.2924 -70.7899C-15.678 -70.8452 -15.9716 -70.7047 -16.1727 -70.368C-14.6833 -68.0752 -13.4359 -65.6844 -12.4315 -63.1962C-12.1947 -61.2358 -11.681 -59.4078 -10.891 -57.7119C-10.9596 -56.1784 -11.4728 -56.0379 -12.4315 -57.29C-13.2933 -61.0497 -14.7607 -64.5652 -16.8329 -67.8368C-23.2023 -75.776 -31.1984 -81.6122 -40.8208 -85.3445C-38.5981 -85.223 -36.3974 -84.8716 -34.2187 -84.2898C-35.1104 -87.0147 -35.7706 -89.8273 -36.1993 -92.7272C-36.3701 -93.1187 -36.6637 -93.4001 -37.0796 -93.571C-43.9842 -91.3152 -50.8799 -89.065 -57.7664 -86.821C-63.4601 -84.0595 -68.8154 -80.8254 -73.8317 -77.118C-70.1323 -76.602 -66.8312 -75.1959 -63.9285 -72.8993C-63.6256 -72.5483 -63.6991 -72.2673 -64.1485 -72.0555C-66.7524 -73.8721 -69.6864 -74.8563 -72.9514 -75.0086C-75.9352 -74.5479 -78.7226 -73.6338 -81.3142 -72.2665C-82.1945 -71.9851 -83.0748 -71.9851 -83.9551 -72.2665C-86.1356 -73.6523 -88.1893 -75.1993 -90.1171 -76.9071C-90.9974 -77.1884 -91.8777 -77.1884 -92.758 -76.9071C-93.5564 -75.5815 -94.5102 -74.3864 -95.6189 -73.3211C-96.4556 -70.3777 -96.4556 -67.4246 -95.6189 -64.4618C-94.5573 -62.2854 -93.3834 -60.176 -92.0978 -58.1338C-90.2522 -56.6441 -88.7117 -54.8862 -87.4762 -52.8604C-82.0598 -48.5067 -75.8978 -45.624 -68.9901 -44.212C-69.2837 -44.0715 -69.5768 -43.9306 -69.8704 -43.7901C-72.1948 -44.2787 -74.5421 -44.6301 -76.9127 -44.8448C-79.2552 -45.8033 -81.6025 -46.7175 -83.9551 -47.587C-84.2671 -47.9683 -84.7073 -48.1088 -85.2755 -48.0088C-85.4102 -46.7917 -85.2636 -45.6666 -84.8354 -44.6339C-84.7372 -41.3935 -84.5171 -38.1594 -84.1751 -34.9308C-83.4185 -28.7053 -82.4647 -22.5177 -81.3142 -16.3685C-81.4049 -15.105 -81.1117 -13.9798 -80.4339 -12.9935C-79.345 -8.77816 -78.0981 -4.55944 -76.6927 -0.337352C-71.4981 9.90232 -65.189 19.4649 -57.7664 28.3499C-53.449 32.3476 -49.2677 36.4963 -45.2223 40.7951C-40.1157 44.7029 -35.1271 48.7807 -30.2574 53.0294C-27.8216 54.5477 -25.3273 55.9538 -22.7749 57.2481C-21.9065 57.457 -21.0262 57.5274 -20.134 57.4591C-21.1063 55.0249 -21.5464 52.4936 -21.4544 49.8654C-21.0143 49.8654 -20.5742 49.8654 -20.134 49.8654C-20.1239 50.8893 -19.9038 51.8735 -19.4738 52.8185C-18.2999 54.506 -17.1265 56.1934 -15.9526 57.8809C-14.7141 59.7819 -14.5675 61.7508 -15.5125 63.7871C-16.825 65.6763 -18.0724 67.5747 -19.2537 69.4824C-17.4249 71.5171 -15.5908 73.5564 -13.7519 75.5995C-0.664186 74.2356 6.74478 67.2047 8.47543 54.506C8.76857 53.1606 9.06214 51.7541 9.35572 50.2872C9.64974 51.3288 9.94331 52.3131 10.236 53.2403C10.3394 53.4922 10.5595 53.6327 10.8962 53.6622C14.8465 51.8752 18.8813 50.2581 23.0002 48.8107C27.4606 46.012 31.8621 43.1293 36.2046 40.1623C36.9436 40.0716 37.3837 40.353 37.525 41.0061C33.9009 45.3471 29.4994 48.7921 24.3207 51.3419C21.4672 52.8197 18.5327 54.0854 15.5177 55.1388C13.7933 55.6265 12.0327 55.8374 10.236 55.7716C9.02561 67.3536 2.57 74.3145 -9.13038 76.6542C-15.163 77.8148 -19.1243 75.635 -21.0143 70.1152C-20.9408 69.6933 -20.8677 69.2715 -20.7942 68.8496C-19.2594 67.3131 -17.939 65.6257 -16.8329 63.7871C-16.5138 62.5734 -16.7339 61.4487 -17.4931 60.4122C-18.8255 60.0489 -19.9993 59.4161 -21.0143 58.5137C-26.0201 57.0334 -30.7151 54.924 -35.0989 52.1857C-41.735 47.1789 -48.1906 41.976 -54.4653 36.5764C-63.4998 27.3522 -71.4224 17.2973 -78.2332 6.41259C-78.3305 5.32965 -78.624 4.345 -79.1135 3.45949C-80.3221 0.0533011 -81.5695 -3.32167 -82.8547 -6.66543C-83.9449 -12 -85.1188 -17.3438 -86.3759 -22.6965C-86.9454 -29.6085 -87.4591 -36.4989 -87.9164 -43.3683C-88.0383 -45.365 -87.8913 -47.3339 -87.4762 -49.2745C-87.6325 -49.7056 -87.9261 -49.987 -88.3565 -50.1182C-92.5929 -53.2675 -95.9675 -57.1344 -98.4799 -61.7197C-99.4117 -64.8516 -99.7052 -68.0157 -99.3602 -71.2118C-98.078 -73.7358 -96.3174 -75.9157 -94.0784 -77.7508C-92.7487 -78.0347 -91.4283 -78.1756 -90.1171 -78.1727C-88.7029 -77.1505 -87.3825 -76.0253 -86.1558 -74.7977C-85.5515 -74.4286 -84.8913 -74.2176 -84.1751 -74.1649C-81.7543 -74.9719 -79.3335 -75.6752 -76.9127 -76.2742C-76.3595 -77.5415 -75.6262 -78.7367 -74.712 -79.8602C-66.9166 -85.8798 -58.2607 -90.169 -48.7435 -92.7272C-47.4252 -92.6403 -46.2514 -92.9213 -45.2223 -93.571C-43.3935 -94.1629 -41.4863 -94.5847 -39.5004 -94.8366C-38.6201 -94.8366 -37.7398 -94.8366 -36.8595 -94.8366C-36.7266 -95.9162 -36.8736 -96.9008 -37.2997 -97.7897C-39.1135 -104.988 -40.2139 -112.301 -40.6008 -119.727C-38.9485 -122.156 -36.9678 -124.336 -34.6588 -126.266C-30.624 -129.571 -26.5896 -132.875 -22.5548 -136.18C-23.9826 -142.171 -25.3031 -148.217 -26.5161 -154.32C-27.3889 -161.392 -27.3154 -168.424 -26.296 -175.414C-25.8955 -176.055 -25.5289 -176.758 -25.1957 -177.523C-25.0491 -177.383 -24.9021 -177.242 -24.7555 -177.102C-24.8088 -175.478 -24.7357 -173.931 -24.5355 -172.461Z" fill="#131212"/>
<path fill-rule="evenodd" clip-rule="evenodd" d="M-10.891 -57.7122C-10.8329 -58.7698 -10.3927 -59.0512 -9.57054 -58.5559C-8.65283 -57.6346 -8.21269 -56.5094 -8.2501 -55.181C-8.99791 -55.2485 -9.73163 -55.1784 -10.4508 -54.97C-12.5785 -53.5981 -14.7792 -52.3325 -17.053 -51.1732C-18.9034 -48.9082 -20.9571 -46.8692 -23.215 -45.056C-25.8968 -48.4006 -28.9779 -51.4242 -32.4581 -54.1263C-34.0998 -55.0514 -35.7138 -55.9656 -37.2997 -56.8684C-38.4964 -57.4646 -39.8169 -57.7459 -41.261 -57.7122C-41.3556 -57.0039 -41.062 -56.582 -40.3807 -56.4466C-39.6417 -56.2812 -38.908 -56.0703 -38.18 -55.8138C-27.3203 -48.5622 -20.8647 -38.6482 -18.8136 -26.0718C-20.6375 -26.3857 -22.4716 -26.6667 -24.3154 -26.9156C-25.0667 -26.9122 -25.7269 -26.7713 -26.2961 -26.4937C-26.5351 -26.4684 -26.6816 -26.3279 -26.7362 -26.0718C-25.749 -25.6609 -24.7221 -25.52 -23.6552 -25.6499C-10.2831 -23.179 1.45378 -17.5542 11.5564 -8.77507C19.3879 -1.35857 24.2295 7.64122 26.0812 18.2247C26.0905 21.1247 26.3836 23.9373 26.9615 26.6622C27.2159 29.0457 27.5095 31.4365 27.8418 33.834C28.109 33.7817 28.2555 33.6412 28.2819 33.4121C28.6424 32.2287 28.8625 30.9631 28.9422 29.6153C29.1107 29.8498 29.3308 29.9903 29.6024 30.0371C29.749 30.0371 29.896 30.0371 30.0425 30.0371C31.7314 33.4826 34.0791 36.4357 37.0849 38.8964C36.9607 39.4356 36.6672 39.8575 36.2046 40.162C31.8621 43.1291 27.4606 46.0117 23.0002 48.8104C18.8813 50.2579 14.8465 51.8749 10.8962 53.6619C10.5595 53.6324 10.3394 53.4919 10.236 53.2401C10.236 52.1149 10.236 50.9902 10.236 49.8651C9.64928 49.8651 9.06213 49.8651 8.47542 49.8651C8.47542 51.4121 8.47542 52.9587 8.47542 54.5057C6.74477 67.2044 -0.664199 74.2354 -13.7519 75.5993C-15.5908 73.5561 -17.4249 71.5168 -19.2537 69.4821C-18.0724 67.5744 -16.825 65.676 -15.5125 63.7869C-14.5675 61.7505 -14.7141 59.7816 -15.9526 57.8807C-17.1265 56.1932 -18.2999 54.5057 -19.4738 52.8182C-19.9038 51.8732 -20.1239 50.889 -20.134 49.8651C-20.5742 49.8651 -21.0143 49.8651 -21.4545 49.8651C-21.5464 52.4934 -21.1063 55.0246 -20.134 57.4588C-21.0262 57.5271 -21.9065 57.4567 -22.7749 57.2479C-25.3273 55.9535 -27.8216 54.5475 -30.2574 53.0291C-35.1271 48.7805 -40.1157 44.7027 -45.2223 40.7949C-49.2677 36.496 -53.4491 32.3473 -57.7664 28.3496C-65.189 19.4646 -71.4981 9.90203 -76.6927 -0.337639C-78.0981 -4.55973 -79.345 -8.77845 -80.4339 -12.9938C-80.4625 -14.229 -80.7561 -15.3542 -81.3142 -16.3688C-82.4647 -22.518 -83.4185 -28.7056 -84.1751 -34.9311C-84.5171 -38.1597 -84.7372 -41.3938 -84.8354 -44.6342C-85.0598 -45.8525 -84.7667 -46.8368 -83.9551 -47.5873C-81.6025 -46.7178 -79.2552 -45.8036 -76.9128 -44.8451C-74.5421 -44.6304 -72.1948 -44.279 -69.8704 -43.7904C-69.5769 -43.9309 -69.2837 -44.0718 -68.9901 -44.2123C-75.8978 -45.6243 -82.0598 -48.507 -87.4762 -52.8607C-88.7117 -54.8865 -90.2522 -56.6444 -92.0978 -58.1341C-93.3834 -60.1763 -94.5573 -62.2857 -95.6189 -64.4621C-96.4556 -67.4249 -96.4556 -70.378 -95.6189 -73.3214C-94.5102 -74.3867 -93.5564 -75.5818 -92.758 -76.9074C-91.8777 -77.1887 -90.9974 -77.1887 -90.1171 -76.9074C-88.1893 -75.1996 -86.1356 -73.6526 -83.9551 -72.2668C-83.0748 -71.9854 -82.1945 -71.9854 -81.3142 -72.2668C-78.7226 -73.6341 -75.9352 -74.5482 -72.9514 -75.0089C-69.6864 -74.8566 -66.7524 -73.8724 -64.1485 -72.0558C-63.6992 -72.2676 -63.6256 -72.5486 -63.9285 -72.8996C-66.8312 -75.1962 -70.1323 -76.6023 -73.8317 -77.1183C-68.8154 -80.8257 -63.4602 -84.0598 -57.7664 -86.8213C-50.8799 -89.0653 -43.9842 -91.3155 -37.0796 -93.5713C-36.6637 -93.4004 -36.3701 -93.119 -36.1993 -92.7275C-35.7706 -89.8276 -35.1104 -87.015 -34.2187 -84.2901C-36.3974 -84.8719 -38.5981 -85.2233 -40.8208 -85.3448C-31.1984 -81.6125 -23.2023 -75.7763 -16.8329 -67.8371C-14.7607 -64.5655 -13.2933 -61.05 -12.4315 -57.2903C-11.4728 -56.0382 -10.9596 -56.1787 -10.891 -57.7122Z" fill="#FCFCFC"/>
</g>
</g>
<defs>
<clipPath id="clip0_639_7983">
<rect width="135" height="130" fill="white"/>
</clipPath>
<clipPath id="clip1_639_7983">
<rect width="346" height="281" fill="white" transform="translate(-106 -206)"/>
</clipPath>
</defs>
</svg>
