<svg width="135" height="130" viewBox="0 0 135 130" fill="none" xmlns="http://www.w3.org/2000/svg">
<g clip-path="url(#clip0_639_7979)">
<rect x="1.5" y="-258.5" width="402" height="387" rx="18.5" fill="#FDFFEF" stroke="black" stroke-width="3"/>
<g clip-path="url(#clip1_639_7979)">
<path fill-rule="evenodd" clip-rule="evenodd" d="M139.074 -113.821C141.269 -113.903 142.002 -112.989 141.275 -111.079C142.003 -110.822 142.736 -110.611 143.475 -110.446C138.499 -106.239 133.804 -101.739 129.391 -96.9462C128.668 -95.9029 127.714 -95.0592 126.53 -94.415C125.914 -90.732 125.254 -87.0761 124.549 -83.4463C123.663 -79.8224 123.076 -76.0956 122.789 -72.2667C122.748 -71.0766 123.041 -70.0219 123.669 -69.1027C123.598 -68.3859 123.672 -67.6827 123.889 -66.9933C126.418 -61.7625 129.206 -56.7001 132.252 -51.806C134.771 -47.7045 137.925 -44.1186 141.715 -41.0482C143.964 -39.8294 146.311 -38.8452 148.757 -38.0951C156.88 -36.26 165.096 -35.7677 173.405 -36.6186C174.212 -36.5827 174.799 -36.3013 175.166 -35.7748C171.787 -35.5204 168.412 -35.0986 165.043 -34.5092C165.86 -33.6553 166.594 -32.7411 167.243 -31.767C170.916 -29.7265 174.437 -27.4766 177.807 -25.0171C178.912 -24.9163 179.645 -25.4086 180.007 -26.4937C181.147 -26.8814 182.027 -27.5846 182.648 -28.603C185.509 -30.4217 188.443 -32.1796 191.451 -33.8764C192.493 -34.062 193.519 -34.273 194.532 -34.5092C198.707 -34.7446 202.815 -35.0256 206.856 -35.353C206.905 -35.6133 207.052 -35.8242 207.296 -35.9858C208.177 -36.1262 209.057 -36.2672 209.937 -36.4076C215.395 -39.3405 220.604 -42.645 225.562 -46.3216C225.775 -46.7216 225.848 -47.1434 225.783 -47.5872C226.213 -46.7621 226.653 -45.9183 227.103 -45.056C226.586 -45.1484 226.146 -45.0079 225.783 -44.6341C222.211 -40.8643 217.956 -37.9816 213.018 -35.9858C212.65 -35.5593 212.503 -35.0669 212.578 -34.5092C215.729 -34.2709 218.81 -33.7085 221.821 -32.8217C224.06 -32.488 225.087 -31.2224 224.902 -29.0249C227.952 -29.2978 230.813 -28.7355 233.485 -27.3374C234.873 -28.2453 236.267 -29.089 237.666 -29.8686C243.626 -32.8702 249.348 -36.3152 254.832 -40.2045C256.014 -41.2786 256.455 -42.6146 256.153 -44.2123C256.732 -43.0606 256.732 -41.8654 256.153 -40.6264C256.556 -40.5091 256.849 -40.2981 257.033 -39.9935C256.338 -39.2477 255.604 -38.4744 254.832 -37.6733C256.97 -35.3302 258.217 -32.588 258.573 -29.4468C258.742 -29.2122 258.962 -29.0717 259.234 -29.0249C259.234 -28.1811 259.234 -27.3374 259.234 -26.4937C260.106 -26.349 260.694 -26.6303 260.994 -27.3374C262.09 -28.5988 263.264 -29.794 264.515 -30.9233C265.235 -31.1317 265.968 -31.2017 266.716 -31.1342C266.38 -30.8102 265.94 -30.5993 265.396 -30.5014C266.657 -30.4242 267.83 -30.2133 268.917 -29.8686C267.588 -29.9382 266.268 -29.8678 264.955 -29.6577C261.124 -24.0708 257.236 -18.5161 253.292 -12.9938C252.798 -12.1893 252.431 -11.3455 252.191 -10.4625C251.113 -9.56437 250.379 -8.43923 249.991 -7.08756C244.456 0.00621469 239.027 7.17804 233.705 14.4279C229.537 18.4897 226.015 22.9898 223.142 27.9278C223.273 27.0402 223.127 26.1964 222.702 25.3966C222.253 25.6889 221.813 25.9699 221.381 26.2403C222.072 24.517 222.879 22.8295 223.802 21.1778C226.306 17.8678 228.874 14.6334 231.504 11.4748C232.925 10.291 234.246 9.02541 235.466 7.67796C235.864 7.37885 236.01 6.95698 235.906 6.41234C235.338 6.51233 234.898 6.37184 234.585 5.99047C235.329 5.38677 236.209 5.03535 237.226 4.93579C237.835 4.39959 238.275 3.76678 238.547 3.03737C241.001 -0.119919 243.349 -3.35399 245.589 -6.66569C247.521 -8.4367 248.768 -10.5461 249.33 -12.9938C248.635 -13.6439 247.828 -14.1362 246.91 -14.4703C246.616 -15.0327 246.323 -15.5954 246.029 -16.1578C245.256 -16.243 244.523 -16.454 243.829 -16.7906C242.612 -18.9426 240.851 -20.4896 238.547 -21.4312C236.228 -23.1086 233.734 -24.5851 231.064 -25.8608C228.844 -26.4287 226.643 -27.1319 224.462 -27.9702C224.075 -28.5423 223.928 -29.1751 224.022 -29.8686C222.278 -30.2382 220.518 -30.5192 218.74 -30.7124C217.509 -31.2899 216.188 -31.7118 214.779 -31.978C213.439 -32.6154 211.972 -32.8968 210.377 -32.8217C204.829 -33.5887 199.253 -33.7996 193.652 -33.4545C192.682 -32.4539 191.655 -31.5397 190.571 -30.7124C190.003 -30.8124 189.563 -30.6719 189.251 -30.2905C186.415 -28.4364 183.481 -26.6784 180.448 -25.0171C180.117 -24.734 179.97 -24.3826 180.007 -23.9624C179.861 -23.9624 179.714 -23.9624 179.567 -23.9624C178.738 -23.0052 178.151 -21.8801 177.807 -20.5874C178.282 -19.71 179.015 -19.1476 180.007 -18.9C184.281 -15.101 185.528 -10.4604 183.749 -4.97819C182.853 -3.54003 181.753 -2.27442 180.448 -1.18135C180.119 -0.659914 179.973 -0.0971376 180.007 0.506139C179.054 -0.565415 178.614 -0.284027 178.687 1.34988C178.54 1.34988 178.393 1.34988 178.247 1.34988C176.998 0.547482 175.531 0.266094 173.845 0.506139C173.845 0.0842672 173.845 -0.337604 173.845 -0.759476C171.559 -0.624055 169.358 -0.76496 167.243 -1.18135C171.231 -1.12693 175.193 -1.40789 179.127 -2.02509C179.853 -2.5094 180.513 -3.07175 181.108 -3.71258C182.498 -7.34025 182.572 -10.9962 181.328 -14.6812C179.73 -16.575 177.676 -17.8406 175.166 -18.4781C175.015 -18.8316 174.722 -18.9725 174.286 -18.9C166.848 -23.0132 159.219 -26.8101 151.398 -30.2905C150.811 -30.431 150.224 -30.5719 149.637 -30.7124C144.648 -33.3191 139.439 -35.569 134.012 -37.4623C133.939 -37.6028 133.866 -37.7437 133.792 -37.8842C134.638 -38.3655 135.518 -38.436 136.433 -38.0951C138.387 -36.9139 140.515 -36.1402 142.815 -35.7748C143.613 -35.7719 144.273 -36.0533 144.796 -36.6186C141.973 -38.147 139.259 -39.8345 136.653 -41.681C133.666 -45.3661 130.952 -49.2334 128.51 -53.2825C127.924 -53.5639 127.337 -53.5639 126.75 -53.2825C121.616 -50.8504 117.141 -47.5459 113.325 -43.3685C113.032 -42.8062 113.032 -42.2434 113.325 -41.681C115.475 -37.097 116.942 -32.3155 117.727 -27.3374C118.204 -26.8459 118.571 -26.2836 118.827 -25.6499C126.175 -23.5342 133.218 -20.722 139.954 -17.2125C142.302 -15.3845 144.649 -13.5561 146.997 -11.7281C146.521 -10.943 145.934 -10.6621 145.236 -10.8844C146.229 -10.4959 146.669 -9.7926 146.556 -8.77504C136.454 -17.5542 124.717 -23.179 111.345 -25.6499C110.465 -25.9313 109.584 -26.2123 108.704 -26.4937C109.273 -26.7712 109.933 -26.9121 110.685 -26.9155C112.528 -26.6666 114.362 -26.3857 116.186 -26.0718C114.135 -38.6482 107.68 -48.5622 96.82 -55.8137C96.092 -56.0702 95.3583 -56.2812 94.6193 -56.4465C94.5704 -56.7068 94.4239 -56.9178 94.1791 -57.0793C95.3319 -57.0443 96.5057 -56.9739 97.7003 -56.8684C99.2861 -55.9656 100.9 -55.0514 102.542 -54.1262C106.022 -51.4242 109.103 -48.4006 111.785 -45.056C114.043 -46.8692 116.097 -48.9081 117.947 -51.1731C120.221 -52.3324 122.421 -53.5981 124.549 -54.97C125.268 -55.1784 126.002 -55.2484 126.75 -55.1809C126.787 -56.5094 126.347 -57.6345 125.429 -58.5559C123.63 -62.362 122.236 -66.2993 121.248 -70.3683C120.803 -70.7214 120.289 -70.8619 119.708 -70.7902C120.148 -71.0716 120.588 -71.3525 121.028 -71.6339C121.426 -71.933 121.572 -72.3549 121.468 -72.8995C121.864 -74.938 122.157 -77.0474 122.348 -79.2276C122.22 -81.6757 122.513 -84.066 123.229 -86.3994C123.613 -88.0232 123.686 -89.7107 123.449 -91.4619C124.738 -92.8077 125.545 -94.3547 125.87 -96.1025C130.12 -101.974 135.181 -107.177 141.055 -111.712C141.128 -111.852 141.201 -111.993 141.275 -112.134C140.242 -112.408 139.508 -112.971 139.074 -113.821Z" fill="#121511"/>
<path fill-rule="evenodd" clip-rule="evenodd" d="M88.8974 8.09994C88.8974 8.66229 88.8974 9.22507 88.8974 9.78742C87.6976 7.91178 86.5972 5.94291 85.5963 3.88122C85.2847 3.50955 84.9176 3.22859 84.496 3.03748C83.8146 2.90206 83.521 2.48019 83.6157 1.77186C83.2873 0.159047 82.407 -1.10657 80.9748 -2.02498C79.4075 -3.48128 77.9404 -5.02829 76.5734 -6.66557C76.2996 -7.34985 75.8594 -7.9122 75.2529 -8.35306C74.6909 -9.37146 73.9576 -9.44191 73.0522 -8.56399C71.6587 -7.72025 70.4853 -6.66557 69.531 -5.39996C67.8197 -4.30478 67.8197 -3.17965 69.531 -2.02498C69.531 -1.8845 69.531 -1.74359 69.531 -1.60311C69.5139 -0.510885 69.954 0.332858 70.8515 0.928119C71.1296 2.5865 71.8634 3.99302 73.0522 5.14684C73.671 5.34638 73.9646 5.76825 73.9325 6.41245C74.1873 8.0413 75.0676 9.16601 76.5734 9.78742C76.5043 10.3667 76.5778 10.9294 76.7934 11.4749C77.9074 12.0752 78.7147 12.919 79.2142 14.0061C79.6218 15.1009 80.3555 15.9446 81.415 16.5374C82.1522 16.3821 82.5923 15.9603 82.7354 15.2718C83.3542 15.0722 83.6478 14.6503 83.6157 14.0061C84.9722 13.4885 86.2926 12.8557 87.577 12.1077C88.077 11.6247 88.5171 11.1324 88.8974 10.6312C89.4657 10.7312 89.9058 10.5907 90.2179 10.2093C91.4828 9.45963 92.8033 9.31872 94.1792 9.78742C87.9339 12.2452 82.6522 16.0421 78.3339 21.178C78.0184 20.049 78.385 19.0644 79.4343 18.2249C79.7279 17.6625 79.7279 17.0997 79.4343 16.5374C76.2763 12.4499 73.3423 8.23114 70.6314 3.88122C69.5834 1.9963 68.7031 0.0274231 67.9905 -2.02498C67.6714 -2.26081 67.3048 -2.40129 66.8902 -2.44685C65.2968 -1.62294 63.9764 -0.498229 62.9289 0.928119C62.7823 0.787636 62.6353 0.646731 62.4887 0.506248C65.7555 -4.30562 70.0099 -8.1725 75.2529 -11.0952C77.1706 -11.4551 79.0782 -11.8069 80.9748 -12.1499C80.9748 -11.728 80.9748 -11.3062 80.9748 -10.8843C79.6447 -10.756 78.3243 -10.5451 77.0135 -10.2515C76.2837 -9.94562 76.0637 -9.4533 76.3533 -8.77493C82.1645 -4.2377 86.3459 1.38712 88.8974 8.09994Z" fill="#1C1515"/>
<path fill-rule="evenodd" clip-rule="evenodd" d="M69.5311 -1.60303C71.5421 -0.709925 72.5689 0.837078 72.6121 3.03756C72.131 2.25752 71.5443 1.55426 70.8515 0.928203C69.954 0.332942 69.5139 -0.510802 69.5311 -1.60303Z" fill="#9E0E21"/>
<path fill-rule="evenodd" clip-rule="evenodd" d="M80.9748 -2.02539C82.407 -1.10698 83.2873 0.158639 83.6157 1.77145C82.0087 0.940367 81.1284 -0.325248 80.9748 -2.02539Z" fill="#810D1E"/>
<path fill-rule="evenodd" clip-rule="evenodd" d="M70.8515 0.927734C71.5443 1.55379 72.131 2.25705 72.6121 3.03709C72.6689 3.76102 72.8154 4.46429 73.0522 5.14645C71.8634 3.99263 71.1297 2.58611 70.8515 0.927734Z" fill="#550511"/>
<path fill-rule="evenodd" clip-rule="evenodd" d="M76.5734 -6.66553C77.9405 -5.02825 79.4075 -3.48125 80.9748 -2.02495C81.1285 -0.324802 82.0087 0.940813 83.6157 1.7719C83.5211 2.48022 83.8147 2.90209 84.496 3.03751C85.3169 5.03466 86.2707 7.00353 87.3569 8.94372C87.5748 9.77607 87.6483 10.6198 87.577 11.4749C87.114 11.4121 86.6738 11.4821 86.2566 11.6859C85.5462 12.5832 84.6659 13.216 83.6157 13.5843C82.8336 13.705 82.0999 13.9864 81.415 14.4281C79.7666 13.408 78.5928 12.0019 77.8938 10.2093C77.5307 9.83556 77.0906 9.69507 76.5734 9.78746C75.7701 8.58428 74.8898 7.45957 73.9325 6.41249C73.9646 5.76829 73.6711 5.34642 73.0522 5.14687C72.8154 4.46471 72.6689 3.76145 72.6121 3.03751C72.5689 0.837032 71.5421 -0.709971 69.5311 -1.60307C69.5311 -1.74356 69.5311 -1.88446 69.5311 -2.02495C69.5311 -3.00917 69.5311 -3.99382 69.5311 -4.97805C71.1284 -5.79521 72.7424 -6.63896 74.3727 -7.50928C75.0575 -7.06758 75.7913 -6.78619 76.5734 -6.66553Z" fill="#CC031D"/>
<path fill-rule="evenodd" clip-rule="evenodd" d="M55.8866 3.45947C56.376 4.34498 56.6696 5.32963 56.7668 6.41257C56.0349 5.59499 55.7417 4.61034 55.8866 3.45947Z" fill="#8E8E8E"/>
<path fill-rule="evenodd" clip-rule="evenodd" d="M84.496 3.0376C84.9176 3.22871 85.2847 3.50967 85.5963 3.88134C86.5972 5.94303 87.6976 7.9119 88.8974 9.78754C88.8974 10.0689 88.8974 10.3499 88.8974 10.6313C88.5171 11.1325 88.077 11.6248 87.577 12.1078C86.2926 12.8558 84.9722 13.4886 83.6157 14.0063C83.6157 13.8658 83.6157 13.7249 83.6157 13.5844C84.6658 13.2161 85.5461 12.5833 86.2565 11.686C86.6738 11.4822 87.1139 11.4122 87.577 11.475C87.6483 10.6199 87.5748 9.77615 87.3569 8.9438C86.2706 7.00361 85.3168 5.03474 84.496 3.0376Z" fill="#630B17"/>
<path fill-rule="evenodd" clip-rule="evenodd" d="M73.9325 6.4126C74.8898 7.45968 75.7701 8.58439 76.5734 9.78757C75.0676 9.16615 74.1873 8.04144 73.9325 6.4126Z" fill="#630A17"/>
<path fill-rule="evenodd" clip-rule="evenodd" d="M88.8974 8.1001C89.1051 8.95692 89.5453 9.66018 90.2178 10.2095C89.9058 10.5908 89.4656 10.7313 88.8974 10.6313C88.8974 10.3499 88.8974 10.069 88.8974 9.78758C88.8974 9.22523 88.8974 8.66245 88.8974 8.1001Z" fill="#787A75"/>
<path fill-rule="evenodd" clip-rule="evenodd" d="M76.5733 9.78725C77.0905 9.69486 77.5307 9.83535 77.8938 10.2091C78.5927 12.0017 79.7666 13.4078 81.4149 14.4278C82.0998 13.9861 82.8335 13.7048 83.6157 13.5841C83.6157 13.7246 83.6157 13.8655 83.6157 14.006C83.6478 14.6502 83.3542 15.072 82.7354 15.2716C81.2882 15.4758 80.1143 15.0539 79.2142 14.006C78.7146 12.9188 77.9074 12.0751 76.7934 11.4747C76.5777 10.9293 76.5042 10.3665 76.5733 9.78725Z" fill="#A30E25"/>
<path fill-rule="evenodd" clip-rule="evenodd" d="M79.2142 14.0059C80.1143 15.0538 81.2882 15.4757 82.7354 15.2715C82.5923 15.96 82.1522 16.3818 81.415 16.5371C80.3555 15.9444 79.6218 15.1006 79.2142 14.0059Z" fill="#630F1B"/>
<path fill-rule="evenodd" clip-rule="evenodd" d="M93.739 16.9593C94.3895 16.8488 94.9763 16.9893 95.4996 17.3812C94.6853 18.2553 93.6585 18.8177 92.4186 19.0687C91.9164 19.8791 91.8429 20.7229 92.1985 21.5999C93.6166 25.3917 95.3772 29.0481 97.4802 32.5686C97.8099 33.0474 97.7368 33.4693 97.2602 33.8342C93.0031 30.736 89.0418 27.361 85.3762 23.7093C83.841 24.7547 82.6672 26.0908 81.8551 27.7171C81.4889 28.0073 81.1957 27.9369 80.9748 27.5061C83.7437 22.3159 87.9982 18.8004 93.739 16.9593Z" fill="#1E1818"/>
<path fill-rule="evenodd" clip-rule="evenodd" d="M90.658 21.1782C91.7483 21.9865 92.1884 23.1117 91.9785 24.5532C91.0916 23.6221 90.6514 22.497 90.658 21.1782Z" fill="#670A25"/>
<path fill-rule="evenodd" clip-rule="evenodd" d="M90.658 20.7558C89.1307 21.0883 87.9568 21.932 87.1368 23.2871C88.3428 24.5801 89.5167 25.8457 90.658 27.0839C88.8529 26.1284 87.3859 24.7923 86.2565 23.0761C87.1368 22.2324 88.0171 21.3886 88.8974 20.5449C89.5867 20.2222 90.1734 20.2926 90.658 20.7558Z" fill="#730E1B"/>
<path fill-rule="evenodd" clip-rule="evenodd" d="M90.658 20.7559C90.658 20.8963 90.658 21.0372 90.658 21.1777C90.6514 22.4965 91.0915 23.6216 91.9784 24.5527C92.5973 24.7523 92.8909 25.1741 92.8587 25.8183C92.8587 26.5216 92.8587 27.2244 92.8587 27.9277C92.4186 27.9277 91.9784 27.9277 91.5383 27.9277C91.2447 27.6463 90.9516 27.3653 90.658 27.0839C89.5167 25.8457 88.3428 24.5801 87.1368 23.2871C87.9568 21.932 89.1307 21.0883 90.658 20.7559Z" fill="#C20A1E"/>
<path fill-rule="evenodd" clip-rule="evenodd" d="M92.8587 25.8188C93.7267 26.909 94.1668 28.1746 94.1791 29.6157C92.9503 29.5642 92.07 29.0014 91.5383 27.9282C91.9784 27.9282 92.4186 27.9282 92.8587 27.9282C92.8587 27.2249 92.8587 26.5221 92.8587 25.8188Z" fill="#60151D"/>
<path fill-rule="evenodd" clip-rule="evenodd" d="M110.465 -172.461C110.465 -171.336 110.465 -170.211 110.465 -169.086C110.321 -165.353 110.468 -161.697 110.905 -158.117C110.909 -154.99 111.202 -151.896 111.785 -148.836C111.895 -145.595 112.482 -142.501 113.546 -139.555C113.546 -139.274 113.546 -138.993 113.546 -138.711C113.546 -138.289 113.546 -137.868 113.546 -137.446C114.373 -137.331 114.96 -137.613 115.306 -138.289C115.922 -138.876 116.656 -139.298 117.507 -139.555C118.593 -139.663 119.473 -140.084 120.148 -140.821C120.82 -140.79 121.26 -141.071 121.468 -141.664C123.571 -142.571 125.772 -143.133 128.07 -143.352C129.253 -143.421 130.427 -143.351 131.592 -143.141C130.957 -142.982 130.517 -142.63 130.271 -142.086C130.271 -141.946 130.271 -141.805 130.271 -141.664C130.125 -141.664 129.977 -141.664 129.831 -141.664C128.327 -141.653 127.007 -141.231 125.87 -140.399C124.332 -140.385 123.158 -139.823 122.348 -138.711C121.342 -138.617 120.388 -138.335 119.488 -137.868C117.101 -136.337 114.68 -134.86 112.225 -133.438C111.857 -133.011 111.71 -132.519 111.785 -131.961C110.989 -131.965 110.255 -131.754 109.584 -131.328C105.77 -128.235 101.955 -125.141 98.1405 -122.047C97.6277 -121.207 97.041 -120.434 96.3799 -119.727C95.8548 -119.529 95.5612 -119.107 95.4996 -118.461C95.6761 -116.975 95.9692 -115.568 96.3799 -114.243C96.9015 -112.289 97.3416 -110.32 97.7003 -108.336C97.7549 -106.417 98.0485 -104.589 98.5806 -102.852C98.9992 -102.254 99.1458 -101.551 99.0208 -100.743C98.6493 -97.421 99.236 -94.3274 100.781 -91.4616C100.928 -91.4616 101.075 -91.4616 101.221 -91.4616C101.29 -88.5937 101.73 -85.7811 102.542 -83.0242C103.773 -81.8716 105.24 -81.1684 106.943 -80.9148C110.052 -78.2144 113.279 -75.6832 116.627 -73.3211C117.679 -71.8796 119.146 -71.3173 121.028 -71.6337C120.588 -71.3523 120.148 -71.0713 119.708 -70.7899C119.322 -70.8452 119.028 -70.7047 118.827 -70.368C120.317 -68.0752 121.564 -65.6844 122.569 -63.1962C122.805 -61.2358 123.319 -59.4078 124.109 -57.7119C124.04 -56.1784 123.527 -56.0379 122.569 -57.29C121.707 -61.0497 120.239 -64.5652 118.167 -67.8368C111.798 -75.776 103.802 -81.6122 94.1792 -85.3445C96.4019 -85.223 98.6026 -84.8716 100.781 -84.2898C99.8896 -87.0147 99.2294 -89.8273 98.8007 -92.7272C98.6299 -93.1187 98.3363 -93.4001 97.9204 -93.571C91.0158 -91.3152 84.1201 -89.065 77.2336 -86.821C71.5399 -84.0595 66.1846 -80.8254 61.1683 -77.118C64.8677 -76.602 68.1688 -75.1959 71.0715 -72.8993C71.3744 -72.5483 71.3009 -72.2673 70.8515 -72.0555C68.2476 -73.8721 65.3136 -74.8563 62.0486 -75.0086C59.0648 -74.5479 56.2774 -73.6338 53.6858 -72.2665C52.8055 -71.9851 51.9252 -71.9851 51.0449 -72.2665C48.8644 -73.6523 46.8107 -75.1993 44.8829 -76.9071C44.0026 -77.1884 43.1223 -77.1884 42.242 -76.9071C41.4436 -75.5815 40.4898 -74.3864 39.3811 -73.3211C38.5444 -70.3777 38.5444 -67.4246 39.3811 -64.4618C40.4427 -62.2854 41.6166 -60.176 42.9022 -58.1338C44.7478 -56.6441 46.2883 -54.8862 47.5238 -52.8604C52.9402 -48.5067 59.1022 -45.624 66.0099 -44.212C65.7163 -44.0715 65.4232 -43.9306 65.1296 -43.7901C62.8052 -44.2787 60.4579 -44.6301 58.0873 -44.8448C55.7448 -45.8033 53.3975 -46.7175 51.0449 -47.587C50.7329 -47.9683 50.2927 -48.1088 49.7245 -48.0088C49.5898 -46.7917 49.7364 -45.6666 50.1646 -44.6339C50.2628 -41.3935 50.4829 -38.1594 50.8249 -34.9308C51.5815 -28.7053 52.5353 -22.5177 53.6858 -16.3685C53.5951 -15.105 53.8883 -13.9798 54.5661 -12.9935C55.655 -8.77816 56.9019 -4.55944 58.3073 -0.337352C63.5019 9.90232 69.811 19.4649 77.2336 28.3499C81.551 32.3476 85.7323 36.4963 89.7777 40.7951C94.8843 44.7029 99.8729 48.7807 104.743 53.0294C107.178 54.5477 109.673 55.9538 112.225 57.2481C113.094 57.457 113.974 57.5274 114.866 57.4591C113.894 55.0249 113.454 52.4936 113.546 49.8654C113.986 49.8654 114.426 49.8654 114.866 49.8654C114.876 50.8893 115.096 51.8735 115.526 52.8185C116.7 54.506 117.874 56.1934 119.047 57.8809C120.286 59.7819 120.433 61.7508 119.488 63.7871C118.175 65.6763 116.928 67.5747 115.746 69.4824C117.575 71.5171 119.409 73.5564 121.248 75.5995C134.336 74.2356 141.745 67.2047 143.475 54.506C143.769 53.1606 144.062 51.7541 144.356 50.2872C144.65 51.3288 144.943 52.3131 145.236 53.2403C145.339 53.4922 145.56 53.6327 145.896 53.6622C149.847 51.8752 153.881 50.2581 158 48.8107C162.461 46.012 166.862 43.1293 171.205 40.1623C171.944 40.0716 172.384 40.353 172.525 41.0061C168.901 45.3471 164.499 48.7921 159.321 51.3419C156.467 52.8197 153.533 54.0854 150.518 55.1388C148.793 55.6265 147.033 55.8374 145.236 55.7716C144.026 67.3536 137.57 74.3145 125.87 76.6542C119.837 77.8148 115.876 75.635 113.986 70.1152C114.059 69.6933 114.132 69.2715 114.206 68.8496C115.741 67.3131 117.061 65.6257 118.167 63.7871C118.486 62.5734 118.266 61.4487 117.507 60.4122C116.175 60.0489 115.001 59.4161 113.986 58.5137C108.98 57.0334 104.285 54.924 99.9011 52.1857C93.265 47.1789 86.8094 41.976 80.5347 36.5764C71.5002 27.3522 63.5776 17.2973 56.7668 6.41259C56.6695 5.32965 56.376 4.345 55.8865 3.45949C54.6779 0.0533011 53.4305 -3.32167 52.1453 -6.66543C51.0551 -12 49.8812 -17.3438 48.6241 -22.6965C48.0546 -29.6085 47.5409 -36.4989 47.0836 -43.3683C46.9617 -45.365 47.1087 -47.3339 47.5238 -49.2745C47.3675 -49.7056 47.0739 -49.987 46.6435 -50.1182C42.4071 -53.2675 39.0325 -57.1344 36.5201 -61.7197C35.5883 -64.8516 35.2948 -68.0157 35.6398 -71.2118C36.922 -73.7358 38.6826 -75.9157 40.9216 -77.7508C42.2513 -78.0347 43.5717 -78.1756 44.8829 -78.1727C46.2971 -77.1505 47.6175 -76.0253 48.8442 -74.7977C49.4485 -74.4286 50.1087 -74.2176 50.8249 -74.1649C53.2457 -74.9719 55.6665 -75.6752 58.0873 -76.2742C58.6405 -77.5415 59.3738 -78.7367 60.288 -79.8602C68.0834 -85.8798 76.7393 -90.169 86.2565 -92.7272C87.5748 -92.6403 88.7486 -92.9213 89.7777 -93.571C91.6065 -94.1629 93.5137 -94.5847 95.4996 -94.8366C96.3799 -94.8366 97.2602 -94.8366 98.1405 -94.8366C98.2734 -95.9162 98.1264 -96.9008 97.7003 -97.7897C95.8865 -104.988 94.7861 -112.301 94.3992 -119.727C96.0515 -122.156 98.0322 -124.336 100.341 -126.266C104.376 -129.571 108.41 -132.875 112.445 -136.18C111.017 -142.171 109.697 -148.217 108.484 -154.32C107.611 -161.392 107.685 -168.424 108.704 -175.414C109.104 -176.055 109.471 -176.758 109.804 -177.523C109.951 -177.383 110.098 -177.242 110.244 -177.102C110.191 -175.478 110.264 -173.931 110.465 -172.461Z" fill="#131212"/>
<path fill-rule="evenodd" clip-rule="evenodd" d="M124.109 -57.7122C124.167 -58.7698 124.607 -59.0512 125.429 -58.5559C126.347 -57.6346 126.787 -56.5094 126.75 -55.181C126.002 -55.2485 125.268 -55.1784 124.549 -54.97C122.422 -53.5981 120.221 -52.3325 117.947 -51.1732C116.097 -48.9082 114.043 -46.8692 111.785 -45.056C109.103 -48.4006 106.022 -51.4242 102.542 -54.1263C100.9 -55.0514 99.2862 -55.9656 97.7003 -56.8684C96.5036 -57.4646 95.1831 -57.7459 93.739 -57.7122C93.6444 -57.0039 93.938 -56.582 94.6193 -56.4466C95.3583 -56.2812 96.092 -56.0703 96.82 -55.8138C107.68 -48.5622 114.135 -38.6482 116.186 -26.0718C114.362 -26.3857 112.528 -26.6667 110.685 -26.9156C109.933 -26.9122 109.273 -26.7713 108.704 -26.4937C108.465 -26.4684 108.318 -26.3279 108.264 -26.0718C109.251 -25.6609 110.278 -25.52 111.345 -25.6499C124.717 -23.179 136.454 -17.5542 146.556 -8.77507C154.388 -1.35857 159.23 7.64122 161.081 18.2247C161.09 21.1247 161.384 23.9373 161.962 26.6622C162.216 29.0457 162.509 31.4365 162.842 33.834C163.109 33.7817 163.256 33.6412 163.282 33.4121C163.642 32.2287 163.863 30.9631 163.942 29.6153C164.111 29.8498 164.331 29.9903 164.602 30.0371C164.749 30.0371 164.896 30.0371 165.043 30.0371C166.731 33.4826 169.079 36.4357 172.085 38.8964C171.961 39.4356 171.667 39.8575 171.205 40.162C166.862 43.1291 162.461 46.0117 158 48.8104C153.881 50.2579 149.847 51.8749 145.896 53.6619C145.56 53.6324 145.339 53.4919 145.236 53.2401C145.236 52.1149 145.236 50.9902 145.236 49.8651C144.649 49.8651 144.062 49.8651 143.475 49.8651C143.475 51.4121 143.475 52.9587 143.475 54.5057C141.745 67.2044 134.336 74.2354 121.248 75.5993C119.409 73.5561 117.575 71.5168 115.746 69.4821C116.928 67.5744 118.175 65.676 119.488 63.7869C120.432 61.7505 120.286 59.7816 119.047 57.8807C117.873 56.1932 116.7 54.5057 115.526 52.8182C115.096 51.8732 114.876 50.889 114.866 49.8651C114.426 49.8651 113.986 49.8651 113.546 49.8651C113.454 52.4934 113.894 55.0246 114.866 57.4588C113.974 57.5271 113.094 57.4567 112.225 57.2479C109.673 55.9535 107.178 54.5475 104.743 53.0291C99.8729 48.7805 94.8843 44.7027 89.7777 40.7949C85.7323 36.496 81.5509 32.3473 77.2336 28.3496C69.811 19.4646 63.5019 9.90203 58.3073 -0.337639C56.9019 -4.55973 55.655 -8.77845 54.5661 -12.9938C54.5375 -14.229 54.2439 -15.3542 53.6858 -16.3688C52.5353 -22.518 51.5815 -28.7056 50.8249 -34.9311C50.4829 -38.1597 50.2628 -41.3938 50.1646 -44.6342C49.9402 -45.8525 50.2333 -46.8368 51.0449 -47.5873C53.3975 -46.7178 55.7448 -45.8036 58.0872 -44.8451C60.4579 -44.6304 62.8052 -44.279 65.1296 -43.7904C65.4231 -43.9309 65.7163 -44.0718 66.0099 -44.2123C59.1022 -45.6243 52.9402 -48.507 47.5238 -52.8607C46.2883 -54.8865 44.7478 -56.6444 42.9022 -58.1341C41.6166 -60.1763 40.4427 -62.2857 39.3811 -64.4621C38.5444 -67.4249 38.5444 -70.378 39.3811 -73.3214C40.4898 -74.3867 41.4436 -75.5818 42.242 -76.9074C43.1223 -77.1887 44.0026 -77.1887 44.8829 -76.9074C46.8107 -75.1996 48.8644 -73.6526 51.0449 -72.2668C51.9252 -71.9854 52.8055 -71.9854 53.6858 -72.2668C56.2774 -73.6341 59.0648 -74.5482 62.0486 -75.0089C65.3136 -74.8566 68.2476 -73.8724 70.8515 -72.0558C71.3008 -72.2676 71.3744 -72.5486 71.0715 -72.8996C68.1688 -75.1962 64.8677 -76.6023 61.1683 -77.1183C66.1846 -80.8257 71.5398 -84.0598 77.2336 -86.8213C84.1201 -89.0653 91.0158 -91.3155 97.9204 -93.5713C98.3363 -93.4004 98.6299 -93.119 98.8007 -92.7275C99.2294 -89.8276 99.8896 -87.015 100.781 -84.2901C98.6026 -84.8719 96.4019 -85.2233 94.1792 -85.3448C103.802 -81.6125 111.798 -75.7763 118.167 -67.8371C120.239 -64.5655 121.707 -61.05 122.569 -57.2903C123.527 -56.0382 124.04 -56.1787 124.109 -57.7122Z" fill="#FCFCFC"/>
</g>
</g>
<defs>
<clipPath id="clip0_639_7979">
<rect width="135" height="130" fill="white"/>
</clipPath>
<clipPath id="clip1_639_7979">
<rect width="346" height="281" fill="white" transform="translate(29 -206)"/>
</clipPath>
</defs>
</svg>
