<svg width="135" height="130" viewBox="0 0 135 130" fill="none" xmlns="http://www.w3.org/2000/svg">
<g clip-path="url(#clip0_639_7981)">
<rect width="135" height="130" fill="white"/>
<rect x="1.5" y="-128.5" width="402" height="387" rx="18.5" fill="#FDFFEF" stroke="black" stroke-width="3"/>
<g clip-path="url(#clip1_639_7981)">
<path fill-rule="evenodd" clip-rule="evenodd" d="M222.261 3.10077C221.171 2.82065 219.997 2.68016 218.74 2.6789C216.993 2.59199 215.38 2.87338 213.899 3.52264C211.591 4.2065 209.391 5.12069 207.297 6.26481C203.315 8.80616 199.06 10.7746 194.532 12.171C193.852 13.1232 193.119 14.0374 192.332 14.9132C196.299 14.7752 200.26 14.9862 204.215 15.546C207.366 16.2476 210.447 17.1618 213.459 18.2882C214.98 18.235 216.007 17.5317 216.54 16.1788C216.97 15.003 217.116 13.7374 216.98 12.3819C218.3 12.3819 219.621 12.3819 220.941 12.3819C225.756 12.687 229.203 14.9368 231.284 19.1319C233.15 24.0167 233.003 28.7978 230.844 33.4755C230.27 34.6559 229.61 35.7811 228.864 36.8505C230.615 38.7953 232.155 40.9047 233.485 43.1786C233.844 43.7367 234.358 44.0177 235.026 44.0223C235.026 44.4442 235.026 44.8661 235.026 45.2879C234.63 46.3025 233.97 47.1463 233.045 47.8192C232.149 49.1105 231.636 50.517 231.504 52.0379C231.064 52.0379 230.624 52.0379 230.184 52.0379C229.08 54.5885 228.346 57.2607 227.983 60.0534C227.837 60.0534 227.69 60.0534 227.543 60.0534C227.25 59.913 226.956 59.7721 226.663 59.6316C226.931 57.2851 227.592 55.0353 228.644 52.8816C230.328 50.4225 232.015 47.9618 233.705 45.4989C231.255 42.7268 228.615 40.055 225.783 37.4833C223.97 36.5172 222.356 35.3216 220.941 33.8974C221.479 33.4274 222.066 33.357 222.702 33.6865C224.145 34.6243 225.685 35.398 227.323 36.0068C229.41 34.083 230.51 31.6923 230.624 28.8349C230.739 24.4568 229.565 20.449 227.103 16.8116C224.306 15.0499 221.225 13.9952 217.86 13.6476C217.95 15.7249 217.29 17.5533 215.879 19.1319C215.586 19.5538 215.586 19.9756 215.879 20.3975C218.659 22.5697 221.227 24.9605 223.582 27.5693C223.361 28.0001 223.068 28.0705 222.702 27.7803C220.323 25.0794 217.535 22.8296 214.339 21.0303C213.037 20.7548 211.937 21.1067 211.038 22.085C210.825 22.4849 210.752 22.9068 210.818 23.3506C211.698 23.3506 212.578 23.3506 213.459 23.3506C213.459 23.913 213.459 24.4757 213.459 25.0381C210.521 24.9482 207.587 24.8078 204.656 24.6162C203.629 24.6162 202.601 24.6162 201.575 24.6162C201.424 25.4528 201.717 26.0156 202.455 26.3037C202.601 26.7256 202.895 27.007 203.335 27.1475C203.813 28.0279 204.546 28.5903 205.536 28.8349C208.204 31.98 210.185 35.4955 211.478 39.3817C212.628 43.1377 213.655 46.9345 214.559 50.7723C215.848 58.6558 214.528 66.1086 210.598 73.1315C208.061 76.5651 204.907 79.3777 201.134 81.5689C200.748 83.4775 200.161 85.3054 199.374 87.0532C200.166 88.9188 200.46 90.8876 200.254 92.9594C199.721 93.2674 199.281 93.6893 198.934 94.2251C198.676 94.1369 198.456 93.996 198.274 93.8032C198.054 91.8394 197.98 89.8709 198.053 87.897C197.13 88.2054 196.249 88.2054 195.413 87.897C197.876 87.2249 199.197 85.6779 199.374 83.2564C196.093 84.2988 193.012 85.7054 190.131 87.4751C189.12 87.3469 188.974 86.925 189.691 86.2095C193.052 84.5988 196.426 82.9818 199.814 81.358C200.913 80.7965 201.793 80.0232 202.455 79.0377C202.78 79.0929 203.074 79.0225 203.335 78.8267C206.681 75.1531 209.028 71.0044 210.378 66.3815C212.201 62.2371 212.861 57.8779 212.358 53.3035C211.097 47.2024 209.63 41.1553 207.957 35.163C207.053 33.3587 206.099 31.6012 205.096 29.8896C200.472 27.7073 196.071 25.1761 191.891 22.2959C191.052 21.8226 190.172 21.4712 189.251 21.2413C189.251 21.1008 189.251 20.9599 189.251 20.8194C188.203 20.0364 187.03 19.4736 185.729 19.1319C183.563 19.9605 181.362 20.6637 179.127 21.2413C179.062 21.6851 179.135 22.1069 179.347 22.5069C181.483 24.4922 182.803 26.8829 183.309 29.6787C183.602 30.9443 183.602 32.2099 183.309 33.4755C182.811 29.2733 180.977 25.6874 177.807 22.7178C174.967 22.703 172.179 23.0545 169.444 23.7725C169.628 23.4679 169.921 23.257 170.324 23.1397C169.755 22.933 169.168 22.8625 168.564 22.9287C169.186 22.3234 169.919 21.9015 170.764 21.6631C177.066 19.617 183.375 17.3668 189.691 14.9132C192.141 12.2832 194.048 9.33013 195.413 6.05387C196.281 4.96376 196.721 3.69814 196.733 2.25703C197.178 1.09393 197.619 -0.0312054 198.053 -1.11795C198.902 -2.23042 199.122 -3.49604 198.714 -4.91479C198.423 -5.68429 197.91 -6.24664 197.173 -6.60228C196.586 -8.00838 195.559 -8.99303 194.092 -9.55538C193.419 -10.3342 192.538 -10.756 191.451 -10.821C190.012 -10.3738 189.279 -9.38959 189.251 -7.86789C187.497 -6.2015 186.177 -4.23263 185.289 -1.96169C185.143 -1.96169 184.996 -1.96169 184.849 -1.96169C184.089 -0.653044 183.209 0.612571 182.208 1.83515C178.685 2.4667 176.191 1.20108 174.726 -1.96169C174.448 -3.62007 173.714 -5.02659 172.525 -6.18041C171.93 -7.88561 170.903 -9.29171 169.444 -10.3991C168.648 -11.5913 167.547 -12.4351 166.143 -12.9304C165.566 -12.6646 165.199 -12.2427 165.043 -11.6647C164.617 -10.7759 164.469 -9.79121 164.602 -8.71164C164.162 -8.71164 163.722 -8.71164 163.282 -8.71164C163.231 -11.0779 163.818 -13.2577 165.043 -15.2506C164.636 -16.1117 164.49 -17.0259 164.602 -17.9928C164.775 -18.7011 164.995 -19.4044 165.263 -20.1022C167.8 -23.7974 170.147 -27.5942 172.305 -31.4927C173.646 -33.1258 175.039 -34.6727 176.486 -36.1333C177.073 -36.8364 177.073 -37.5395 176.486 -38.2427C175.678 -38.4652 174.945 -38.7465 174.286 -39.0864C174.237 -39.3469 174.09 -39.5578 173.845 -39.7192C174.714 -39.9282 175.594 -39.9985 176.486 -39.9301C176.78 -39.9301 177.073 -39.9301 177.367 -39.9301C179.115 -39.3887 180.728 -38.545 182.208 -37.3989C182.686 -36.5185 183.419 -35.956 184.409 -35.7114C184.546 -35.2989 184.839 -35.0177 185.289 -34.8677C185.987 -37.0168 185.694 -38.9856 184.409 -40.7739C184.036 -42.5877 183.743 -44.4158 183.529 -46.2582C184.276 -46.3258 185.01 -46.2555 185.729 -46.0473C187.297 -44.751 188.911 -43.5558 190.571 -42.4614C190.923 -41.516 191.656 -41.0941 192.772 -41.1958C192.416 -43.4376 191.536 -45.4064 190.131 -47.102C189.837 -47.8051 189.544 -48.5082 189.251 -49.2113C188.995 -50.16 188.409 -50.8631 187.49 -51.3207C187.343 -51.3207 187.196 -51.3207 187.05 -51.3207C186.628 -51.9373 186.115 -52.4998 185.509 -53.0082C185.292 -53.6975 185.219 -54.4007 185.289 -55.1175C186.463 -55.1175 187.637 -55.1175 188.81 -55.1175C190.328 -54.3036 191.942 -54.0223 193.652 -54.2738C193.496 -54.7051 193.202 -54.9863 192.772 -55.1175C191.619 -55.8185 190.445 -56.5216 189.251 -57.2269C187.832 -58.0518 186.365 -58.8956 184.849 -59.7581C181.772 -61.2693 178.544 -62.3943 175.166 -63.1331C173.325 -63.8285 171.417 -64.391 169.444 -64.8206C168.69 -65.343 167.809 -65.6242 166.803 -65.6643C166.619 -65.9687 166.326 -66.1797 165.923 -66.2971C164.61 -66.5072 163.29 -66.5775 161.962 -66.5081C159.367 -67.1224 156.726 -67.4037 154.039 -67.3518C152.138 -67.6327 150.157 -67.7733 148.097 -67.7737C145.274 -67.8629 142.56 -67.5816 139.954 -66.9299C138.636 -67.0169 137.462 -66.7357 136.433 -66.0862C135.993 -66.0862 135.553 -66.0862 135.113 -66.0862C133.016 -65.9727 131.109 -65.4103 129.391 -64.3987C123.691 -63.3631 119.216 -60.5506 115.966 -55.9613C114.922 -54.5227 114.116 -52.9759 113.546 -51.3207C112.733 -50.0382 112.146 -48.632 111.785 -47.102C111.785 -46.6801 111.785 -46.2582 111.785 -45.8363C111.416 -45.6922 111.269 -45.4109 111.345 -44.9926C110.8 -44.2694 110.506 -43.4256 110.465 -42.4614C110.264 -43.9318 110.191 -45.4786 110.244 -47.102C110.098 -47.2426 109.951 -47.3832 109.804 -47.5238C109.471 -46.7583 109.105 -46.0552 108.704 -45.4145C108.714 -46.4382 108.934 -47.4226 109.364 -48.3676C112.32 -53.5841 116.061 -58.1544 120.588 -62.0784C131.849 -68.9943 144.173 -71.6661 157.56 -70.094C169.082 -67.8052 179.939 -63.8678 190.131 -58.2816C192.258 -56.5238 194.386 -54.766 196.513 -53.0082C196.726 -52.6082 196.799 -52.1864 196.733 -51.7426C194.273 -51.6999 191.852 -51.9811 189.471 -52.5863C189.104 -52.4457 188.737 -52.305 188.37 -52.1644C192.195 -47.9891 194.543 -43.1376 195.413 -37.6099C195.339 -36.8364 195.266 -36.063 195.193 -35.2896C192.259 -38.0675 189.105 -40.5987 185.729 -42.8832C185.583 -42.5317 185.436 -42.1801 185.289 -41.8286C186.425 -38.3225 187.159 -34.7366 187.49 -31.0708C187.027 -31.008 186.587 -31.078 186.17 -31.2818C184.233 -33.4046 182.033 -35.2327 179.567 -36.7661C179.127 -37.0474 178.687 -37.0474 178.247 -36.7661C174.262 -31.5349 170.814 -25.9805 167.904 -20.1022C167.248 -18.1498 166.734 -16.1813 166.363 -14.196C169.006 -13.8437 171.207 -12.7186 172.965 -10.821C174.144 -7.2199 175.538 -3.70402 177.147 -0.274203C178.596 0.911678 179.917 0.771195 181.108 -0.696075C183.567 -4.38998 186.282 -7.90544 189.251 -11.2429C191.587 -12.4777 193.788 -12.2668 195.853 -10.6101C200.035 -6.74361 201.135 -2.17305 199.154 3.10077C198.306 5.42486 197.352 7.6747 196.293 9.85072C202.107 6.88876 208.123 4.28707 214.339 2.04609C218.027 1.85836 221.695 2.06929 225.342 2.6789C224.355 3.0898 223.328 3.23071 222.261 3.10077Z" fill="#171613"/>
<path fill-rule="evenodd" clip-rule="evenodd" d="M137.313 -12.9302C139.361 -12.7201 141.415 -12.5796 143.475 -12.5083C144.27 -12.2872 145.004 -12.0059 145.676 -11.6646C147.068 -10.8879 148.462 -10.0442 149.858 -9.13333C149.939 -8.06346 150.159 -7.07924 150.518 -6.18023C150.518 -6.03975 150.518 -5.89884 150.518 -5.75836C150.478 -4.63955 150.771 -3.65533 151.398 -2.80526C151.635 -2.12309 151.781 -1.41983 151.838 -0.695898C151.936 0.848995 152.376 2.25509 153.159 3.52282C153.204 4.4522 153.498 5.29594 154.039 6.05405C153.826 7.77402 154.56 8.75824 156.24 9.00715C156.866 9.60832 157.599 10.0302 158.44 10.2728C158.837 11.2123 159.57 11.6341 160.641 11.5384C160.788 11.5384 160.935 11.5384 161.081 11.5384C161.79 12.2113 162.671 12.7032 163.722 13.0149C166.746 13.2162 169.68 13.0052 172.525 12.3821C172.965 12.1007 173.405 11.8198 173.845 11.5384C173.992 11.5384 174.139 11.5384 174.286 11.5384C176.476 10.5027 178.677 9.51846 180.888 8.58528C181.636 8.36759 182.223 7.94572 182.648 7.31966C182.502 7.17918 182.355 7.03827 182.208 6.89779C181.592 7.32852 181.004 7.75039 180.448 8.16341C176.519 9.74416 172.411 10.4474 168.124 10.2728C167.989 9.05566 168.135 7.93053 168.564 6.89779C169.395 5.84817 169.688 4.58256 169.444 3.10095C169.562 1.23163 169.416 -0.596759 169.004 -2.38338C169.075 -3.23852 169.002 -4.08226 168.784 -4.91461C168.615 -5.14918 168.395 -5.28966 168.124 -5.33649C168.243 -6.12961 167.949 -6.69196 167.243 -7.02397C167.219 -7.9234 166.779 -8.48576 165.923 -8.71146C165.436 -9.64506 165.436 -10.5593 165.923 -11.4536C166.51 -11.735 167.097 -11.735 167.683 -11.4536C168.039 -10.7339 168.626 -10.3825 169.444 -10.3989C170.903 -9.29153 171.93 -7.88543 172.525 -6.18023C172.795 -4.94204 173.235 -3.74687 173.845 -2.59432C173.993 -2.15979 174.287 -1.94886 174.726 -1.96151C176.191 1.20126 178.685 2.46687 182.208 1.83533C183.838 1.11351 184.719 -0.152106 184.849 -1.96151C184.996 -1.96151 185.143 -1.96151 185.289 -1.96151C185.894 -1.89528 186.481 -1.96573 187.05 -2.17245C186.849 -2.3471 186.702 -2.55804 186.61 -2.80526C188.109 -5.16436 189.723 -7.48466 191.451 -9.76614C192.326 -9.84208 193.207 -9.77204 194.092 -9.5552C195.559 -8.99285 196.586 -8.0082 197.173 -6.6021C197.956 -4.88719 198.249 -3.0588 198.053 -1.11777C197.619 -0.0310288 197.178 1.0941 196.733 2.2572C196.041 3.40258 195.601 4.6682 195.413 6.05405C194.048 9.3303 192.141 12.2834 189.691 14.9134C183.375 17.367 177.066 19.6172 170.764 21.6633C169.19 21.5135 167.87 21.9354 166.803 22.9289C164.332 23.3816 161.837 23.452 159.321 23.1398C158.917 23.0226 158.624 22.8116 158.44 22.507C158.199 21.4169 157.465 20.9951 156.24 21.2414C156.044 20.5609 155.604 20.0686 154.919 19.7649C155.717 19.7843 156.45 19.7143 157.12 19.5539C155.037 19.1831 152.983 18.7612 150.958 18.2883C150.39 18.3883 149.95 18.2478 149.637 17.8665C147.741 16.0819 145.394 15.0973 142.595 14.9134C142.411 14.6088 142.118 14.3978 141.715 14.2805C140.255 14.0705 138.788 14 137.313 14.0696C135.326 13.5161 133.272 13.5161 131.151 14.0696C131.539 14.6902 132.126 15.0416 132.912 15.1243C134.4 15.2673 135.867 15.4782 137.313 15.7571C137.9 15.8976 138.487 16.0385 139.074 16.179C139.508 17.0295 140.242 17.5918 141.275 17.8665C141.201 18.0069 141.128 18.1478 141.055 18.2883C135.181 22.8234 130.12 28.0264 125.87 33.8976C125.283 34.4599 124.696 35.0227 124.109 35.5851C123.671 35.6213 123.304 35.4804 123.009 35.1632C122.789 35.6555 122.422 36.0069 121.908 36.2179C122.109 36.3925 122.256 36.6035 122.348 36.8507C120.94 38.8668 120.207 41.1171 120.148 43.6006C120.935 43.4804 121.668 43.6209 122.348 44.0225C121.93 46.2458 121.783 48.4956 121.908 50.7724C122.013 51.3171 121.866 51.7389 121.468 52.0381C121.034 53.9238 120.888 55.8927 121.028 57.9443C119.504 57.6916 118.037 57.2697 116.627 56.6786C113.279 54.3166 110.052 51.7854 106.943 49.085C105.902 48.2298 104.729 47.527 103.422 46.9756C102.648 44.1136 101.915 41.301 101.221 38.5382C101.075 38.5382 100.928 38.5382 100.781 38.5382C100.263 35.3838 99.6757 32.2902 99.0208 29.257C99.1458 28.4491 98.9992 27.7463 98.5806 27.1476C98.6532 25.5943 98.5802 24.0477 98.3605 22.507C98.2382 22.1206 98.0181 21.8396 97.7003 21.6633C97.3416 19.6797 96.9015 17.7108 96.3799 15.7571C96.1849 13.884 96.1849 12.0556 96.3799 10.2728C97.041 9.56613 97.6277 8.79284 98.1405 7.95247C101.955 4.85889 105.769 1.76488 109.584 -1.32871C110.255 -1.75437 110.989 -1.96531 111.785 -1.96151C111.71 -2.51923 111.857 -3.01155 112.225 -3.43806C114.68 -4.86062 117.101 -6.33717 119.488 -7.86772C120.388 -8.33557 121.342 -8.61696 122.348 -8.71146C123.662 -9.05993 124.836 -9.62228 125.87 -10.3989C127.346 -10.4791 128.667 -10.901 129.831 -11.6646C129.977 -11.6646 130.124 -11.6646 130.271 -11.6646C131.691 -11.7388 133.012 -12.0202 134.232 -12.5083C135.29 -12.4864 136.317 -12.6269 137.313 -12.9302Z" fill="#F6F00B"/>
<path fill-rule="evenodd" clip-rule="evenodd" d="M137.313 -15.0396C139.082 -14.978 140.843 -14.8375 142.595 -14.6177C144.597 -14.1051 146.504 -13.4019 148.317 -12.5083C149.607 -11.6359 150.854 -10.6517 152.058 -9.55522C152.151 -8.89795 152.371 -8.33559 152.719 -7.86774C152.689 -7.25223 152.836 -6.68987 153.159 -6.18025C154.994 -5.77652 156.901 -5.77652 158.881 -6.18025C158.057 -5.63308 157.177 -5.21121 156.24 -4.91464C155.506 -4.91464 154.773 -4.91464 154.039 -4.91464C154.317 -2.2117 154.831 0.460009 155.579 3.10093C155.905 3.86831 156.419 4.43067 157.12 4.78841C157.884 7.06736 159.499 8.47346 161.962 9.00713C162.161 9.41128 162.454 9.76312 162.842 10.0618C164.302 10.2719 165.769 10.3424 167.243 10.2727C167.618 6.76235 167.692 3.24689 167.463 -0.274047C167.208 -2.66353 166.548 -4.91337 165.483 -7.02399C165.904 -6.83289 166.271 -6.55192 166.583 -6.18025C166.705 -6.56669 166.926 -6.84765 167.243 -7.02399C167.949 -6.69198 168.243 -6.12963 168.124 -5.33651C168.312 -4.27761 168.605 -3.29338 169.004 -2.38341C169.416 -0.596779 169.562 1.23161 169.444 3.10093C168.822 4.248 168.529 5.51361 168.564 6.89777C168.135 7.93051 167.989 9.05565 168.124 10.2727C170.29 10.4255 172.343 10.8473 174.286 11.5384C174.139 11.5384 173.992 11.5384 173.845 11.5384C172.135 11.6 170.521 11.8813 169.004 12.3821C166.319 12.4344 163.679 12.153 161.081 11.5384C160.935 11.5384 160.788 11.5384 160.641 11.5384C160.025 10.952 159.292 10.5301 158.44 10.2727C157.599 10.0302 156.866 9.6083 156.24 9.00713C155.608 7.93262 154.875 6.94797 154.039 6.05403C153.498 5.29592 153.204 4.45218 153.159 3.5228C153.06 1.9779 152.62 0.571806 151.838 -0.695919C151.781 -1.41985 151.635 -2.12311 151.398 -2.80528C151.438 -3.92408 151.145 -4.90831 150.518 -5.75838C150.518 -5.89886 150.518 -6.03977 150.518 -6.18025C150.59 -7.31382 150.516 -8.43895 150.298 -9.55522C148.955 -10.6559 147.414 -11.3587 145.676 -11.6646C145.004 -12.0059 144.27 -12.2873 143.475 -12.5083C141.463 -13.3765 139.409 -13.517 137.313 -12.9302C136.317 -12.6269 135.29 -12.4864 134.232 -12.5083C132.892 -12.505 131.572 -12.3645 130.271 -12.0865C130.517 -12.6307 130.957 -12.9821 131.592 -13.1411C130.427 -13.3508 129.253 -13.4213 128.07 -13.3521C130.91 -14.689 133.991 -15.2513 137.313 -15.0396Z" fill="#130D06"/>
<path fill-rule="evenodd" clip-rule="evenodd" d="M96.3799 10.2725C96.1849 12.0553 96.1849 13.8837 96.3799 15.7568C95.9693 14.4313 95.6761 13.0248 95.4996 11.5381C95.5613 10.8926 95.8548 10.4707 96.3799 10.2725Z" fill="#857D28"/>
<path fill-rule="evenodd" clip-rule="evenodd" d="M137.313 14.0694C135.547 13.9994 133.786 14.0698 132.032 14.2804C133.637 14.6069 135.251 14.8883 136.873 15.1241C137.118 15.2857 137.265 15.4966 137.313 15.7569C135.867 15.478 134.4 15.2671 132.912 15.1241C132.126 15.0414 131.539 14.69 131.151 14.0694C133.272 13.5159 135.326 13.5159 137.313 14.0694Z" fill="#625B13"/>
<path fill-rule="evenodd" clip-rule="evenodd" d="M148.757 36.8504C147.913 36.5906 147.4 36.0278 147.217 35.163C146.997 31.7909 146.924 28.416 146.997 25.038C144.649 25.038 142.302 25.038 139.954 25.038C139.954 25.7413 139.954 26.4441 139.954 27.1474C139.514 27.1474 139.074 27.1474 138.634 27.1474C138.374 28.4611 137.64 29.5158 136.433 30.3114C134.069 31.2682 131.721 32.1824 129.391 33.0536C133.804 28.2611 138.499 23.761 143.475 19.5537C143.902 19.0774 144.416 18.6555 145.016 18.2881C146.98 19.5018 149.107 20.3456 151.398 20.8193C150.551 22.4098 149.597 23.9564 148.537 25.4599C147.648 29.2787 147.722 33.0755 148.757 36.8504Z" fill="#B4D2B5"/>
<path fill-rule="evenodd" clip-rule="evenodd" d="M137.313 14.0696C138.993 14.4839 140.754 14.7653 142.595 14.9134C144.926 15.8888 147.273 16.873 149.637 17.8665C149.95 18.2479 150.39 18.3883 150.958 18.2884C152.502 19.5835 154.263 20.5677 156.24 21.2415C156.75 21.9797 157.484 22.4016 158.44 22.5071C158.624 22.8117 158.918 23.0226 159.321 23.1399C161.837 23.4521 164.332 23.3816 166.803 22.929C167.39 22.929 167.977 22.929 168.564 22.929C169.168 22.8627 169.755 22.9332 170.324 23.1399C169.921 23.2572 169.628 23.4681 169.444 23.7727C166.882 24.3279 164.242 24.7497 161.521 25.0383C161.521 25.7416 161.521 26.4444 161.521 27.1477C159.023 27.0776 156.529 27.1481 154.039 27.3586C151.974 29.5823 150.8 32.184 150.518 35.1632C150.107 35.6138 149.96 36.1761 150.078 36.8507C149.637 36.8507 149.197 36.8507 148.757 36.8507C147.722 33.0758 147.648 29.279 148.537 25.4602C149.597 23.9566 150.551 22.41 151.398 20.8196C149.107 20.3458 146.98 19.5021 145.016 18.2884C144.416 18.6558 143.902 19.0777 143.475 19.554C142.736 19.3886 142.003 19.1777 141.275 18.9212C142.002 17.0109 141.269 16.0967 139.074 16.179C138.487 16.0385 137.9 15.8976 137.313 15.7571C137.265 15.4968 137.118 15.2859 136.873 15.1243C135.251 14.8885 133.637 14.6071 132.032 14.2806C133.786 14.0701 135.547 13.9996 137.313 14.0696Z" fill="#080A07"/>
<path fill-rule="evenodd" clip-rule="evenodd" d="M97.7003 21.6631C98.0181 21.8394 98.2382 22.1204 98.3605 22.5068C98.5802 24.0475 98.6532 25.5941 98.5806 27.1474C98.0485 25.4102 97.7549 23.5822 97.7003 21.6631Z" fill="#B8AF35"/>
<path fill-rule="evenodd" clip-rule="evenodd" d="M191.891 37.6947C192.332 37.6947 192.772 37.6947 193.212 37.6947C193.55 37.3728 193.77 36.951 193.872 36.4291C194.019 36.851 194.166 37.2728 194.312 37.6947C194.774 37.2657 195.288 37.1952 195.853 37.4838C196.831 38.6671 197.491 40.0032 197.833 41.4916C200.106 42.8888 200.84 44.8573 200.034 47.3978C199.386 49.0502 198.873 50.7377 198.494 52.4602C198.15 51.9417 197.93 51.3794 197.833 50.7727C197.621 51.1727 197.548 51.5945 197.613 52.0384C197.173 52.0384 196.733 52.0384 196.293 52.0384C196.436 53.3141 195.849 54.0174 194.532 54.1477C193.274 53.9794 192.1 53.6275 191.011 53.093C191.305 52.8116 191.598 52.5307 191.891 52.2493C188.862 51.8114 185.928 52.0223 183.089 52.8821C180.517 52.1172 177.876 51.8359 175.166 52.0384C175.113 53.1795 175.553 53.4609 176.486 52.8821C177.056 53.1344 177.643 53.3453 178.247 53.5149C178.546 54.8919 179.06 56.228 179.787 57.5227C180.344 58.4116 181.151 58.8334 182.208 58.7883C182.208 61.0381 182.208 63.2884 182.208 65.5382C185.441 65.0717 185.881 65.7045 183.529 67.4367C183.111 67.697 182.744 67.6269 182.428 67.2257C182.21 68.342 182.136 69.4671 182.208 70.6007C182.208 70.8821 182.208 71.1631 182.208 71.4445C182.208 73.9757 182.208 76.5069 182.208 79.0381C183.235 79.0381 184.262 79.0381 185.289 79.0381C185.22 78.4589 185.294 77.8961 185.509 77.3507C186.471 76.7482 187.351 76.045 188.15 75.2413C189.045 75.086 189.999 75.086 191.011 75.2413C190.571 75.6632 190.131 76.085 189.691 76.5069C189.11 79.8072 189.11 83.0417 189.691 86.21C188.974 86.9255 189.12 87.3473 190.131 87.4756C189.631 87.8865 189.191 88.3788 188.81 88.9521C188.957 89.0926 189.104 89.2335 189.251 89.374C191.593 89.5845 193.941 89.655 196.293 89.5849C196.293 90.991 196.293 92.3976 196.293 93.8036C195.052 93.91 193.878 93.699 192.772 93.1708C194.499 92.8338 194.499 92.6228 192.772 92.538C191.058 92.5368 190.765 93.0291 191.891 94.0146C191.745 94.4365 191.598 94.8583 191.451 95.2802C190.847 95.4498 190.261 95.6607 189.691 95.913C189.301 95.565 189.154 95.1431 189.251 94.6474C187.9 94.6276 186.58 94.4166 185.289 94.0146C184.921 93.5881 184.774 93.0957 184.849 92.538C183.969 92.538 183.089 92.538 182.208 92.538C182.208 93.3818 182.208 94.2255 182.208 95.0693C182.79 94.9975 183.304 95.138 183.749 95.4911C184.038 96.4614 184.258 97.4457 184.409 98.4442C183.83 99.4276 183.243 100.412 182.648 101.397C182.027 102.416 181.147 103.119 180.008 103.507C176.001 102.833 176.001 102.2 180.008 101.608C180.787 100.296 180.421 99.5225 178.907 99.288C177.828 99.7702 176.728 100.192 175.606 100.554C175.181 99.7537 175.034 98.91 175.166 98.0224C174.286 98.0224 173.405 98.0224 172.525 98.0224C172.525 97.6005 172.525 97.1786 172.525 96.7568C173.405 96.6163 174.286 96.4754 175.166 96.3349C175.166 95.6316 175.166 94.9288 175.166 94.2255C174.799 93.699 174.212 93.4176 173.405 93.3818C165.096 94.2327 156.88 93.7404 148.757 91.9052C146.311 91.1551 143.964 90.1709 141.715 88.9521C137.925 85.8817 134.771 82.2958 132.252 78.1944C129.206 73.3003 126.419 68.2378 123.889 63.007C123.672 62.3177 123.598 61.6144 123.669 60.8977C123.669 58.2259 123.669 55.5538 123.669 52.8821C124.456 53.0023 125.19 52.8618 125.87 52.4602C125.507 52.0864 125.066 51.946 124.549 52.0384C124.549 50.2104 124.549 48.382 124.549 46.554C125.254 42.9242 125.914 39.2683 126.53 35.5854C127.714 34.9412 128.668 34.0974 129.391 33.0541C131.721 32.183 134.069 31.2688 136.433 30.312C137.64 29.5163 138.374 28.4616 138.634 27.1479C139.074 27.1479 139.514 27.1479 139.954 27.1479C139.954 26.4447 139.954 25.7418 139.954 25.0386C142.302 25.0386 144.649 25.0386 146.997 25.0386C146.924 28.4165 146.997 31.7915 147.217 35.1635C147.4 36.0283 147.913 36.5911 148.757 36.851C149.197 36.851 149.637 36.851 150.078 36.851C149.96 36.1764 150.107 35.614 150.518 35.1635C150.913 34.7003 151.279 34.7003 151.618 35.1635C151.854 34.4164 152.221 34.2759 152.718 34.7416C153.118 35.9739 153.264 37.2395 153.159 38.5385C154.186 38.5385 155.213 38.5385 156.24 38.5385C156.168 39.5328 156.241 40.517 156.46 41.4916C157.042 42.0737 157.629 42.2147 158.22 41.9134C158.504 42.3969 158.871 42.8188 159.321 43.179C158.835 43.3891 158.395 43.5296 158 43.6009C158.263 44.1472 158.484 44.7096 158.66 45.2884C158.783 44.902 159.003 44.621 159.321 44.4447C159.321 44.5851 159.321 44.7261 159.321 44.8665C159.504 45.1298 159.798 45.2703 160.201 45.2884C161.681 43.9211 163.149 43.8511 164.602 45.0775C166.21 45.288 167.823 45.358 169.444 45.2884C169.818 42.6386 170.698 40.0369 172.085 37.4838C171.973 36.9244 171.679 36.5025 171.205 36.2182C169.481 35.7533 167.72 35.4719 165.923 35.3744C165.324 34.5568 165.471 33.854 166.363 33.2651C164.254 32.1973 163.814 30.7208 165.043 28.8354C164.749 28.554 164.456 28.2731 164.162 27.9917C165.451 27.5765 166.771 27.4361 168.124 27.5698C168.124 26.5856 168.124 25.6009 168.124 24.6167C170.622 25.2634 173.043 25.1225 175.386 24.1948C178.07 24.7707 177.996 25.0521 175.166 25.0386C175.166 26.1637 175.166 27.2884 175.166 28.4135C176.489 28.519 177.295 27.9567 177.587 26.7261C178.032 27.0792 178.545 27.2196 179.127 27.1479C179.489 28.7443 179.929 30.2913 180.448 31.7885C181.034 31.7885 181.622 31.7885 182.208 31.7885C182.381 35.242 182.381 38.7574 182.208 42.3353C184.556 42.3353 186.903 42.3353 189.251 42.3353C189.251 41.0697 189.251 39.8041 189.251 38.5385C190.387 38.7388 191.267 38.4575 191.891 37.6947Z" fill="#B4DCB5"/>
<path fill-rule="evenodd" clip-rule="evenodd" d="M99.0208 29.2568C99.6757 32.2901 100.263 35.3837 100.781 38.538C99.236 35.6722 98.6493 32.5787 99.0208 29.2568Z" fill="#2A2708"/>
<path fill-rule="evenodd" clip-rule="evenodd" d="M97.7004 32.21C98.1264 33.0988 98.2734 34.0835 98.1405 35.1631C97.2602 35.1631 96.3799 35.1631 95.4996 35.1631C96.1242 34.7619 96.8575 34.6214 97.7004 34.7412C97.7004 33.8974 97.7004 33.0537 97.7004 32.21Z" fill="#848685"/>
<path fill-rule="evenodd" clip-rule="evenodd" d="M125.87 33.8975C125.545 35.6453 124.738 37.1923 123.449 38.538C123.686 40.2892 123.613 41.9767 123.229 43.6005C123.284 39.8729 122.477 39.7319 120.808 43.1786C120.733 42.1893 120.88 41.2047 121.248 40.2255C122.001 38.538 122.955 36.991 124.109 35.5849C124.696 35.0226 125.283 34.4598 125.87 33.8975Z" fill="#231F0A"/>
<path fill-rule="evenodd" clip-rule="evenodd" d="M89.7777 36.4287C88.7486 37.0784 87.5748 37.3594 86.2565 37.2725C87.3151 36.7375 88.4889 36.4561 89.7777 36.4287Z" fill="#636363"/>
<path fill-rule="evenodd" clip-rule="evenodd" d="M124.109 35.5854C122.955 36.9915 122.001 38.5385 121.248 40.226C120.88 41.2052 120.733 42.1898 120.808 43.1791C122.477 39.7324 123.284 39.8733 123.229 43.601C122.513 45.9344 122.22 48.3247 122.348 50.7728C122.202 50.7728 122.055 50.7728 121.908 50.7728C121.783 48.496 121.93 46.2461 122.348 44.0229C121.668 43.6213 120.935 43.4808 120.148 43.601C120.207 41.1174 120.94 38.8672 122.348 36.8511C122.256 36.6038 122.109 36.3929 121.908 36.2183C122.422 36.0073 122.789 35.6559 123.009 35.1636C123.304 35.4808 123.671 35.6217 124.109 35.5854Z" fill="#DBDE39"/>
<path fill-rule="evenodd" clip-rule="evenodd" d="M101.221 38.5386C101.915 41.3014 102.648 44.114 103.422 46.976C104.729 47.5274 105.902 48.2302 106.943 49.0854C105.24 48.8318 103.773 48.1286 102.542 46.976C101.73 44.2191 101.29 41.4065 101.221 38.5386Z" fill="#B4B436"/>
<path fill-rule="evenodd" clip-rule="evenodd" d="M124.549 46.5532C124.549 48.3812 124.549 50.2096 124.549 52.0376C125.066 51.9452 125.506 52.0856 125.87 52.4594C125.19 52.861 124.456 53.0015 123.669 52.8813C123.669 55.553 123.669 58.2251 123.669 60.8969C123.041 59.9776 122.748 58.9229 122.789 57.7328C123.076 53.9039 123.663 50.1771 124.549 46.5532Z" fill="#A0BDA9"/>
<path fill-rule="evenodd" clip-rule="evenodd" d="M121.908 50.7725C122.055 50.7725 122.202 50.7725 122.348 50.7725C122.157 52.9527 121.864 55.0621 121.468 57.1005C121.468 55.413 121.468 53.7256 121.468 52.0381C121.866 51.739 122.013 51.3171 121.908 50.7725Z" fill="#615818"/>
<path fill-rule="evenodd" clip-rule="evenodd" d="M121.468 52.0381C121.468 53.7256 121.468 55.4131 121.468 57.1005C121.572 57.6452 121.426 58.0671 121.028 58.3662C119.146 58.6826 117.679 58.1202 116.627 56.6787C118.037 57.2697 119.504 57.6916 121.028 57.9443C120.888 55.8927 121.034 53.9239 121.468 52.0381Z" fill="#BFBC3F"/>
<path fill-rule="evenodd" clip-rule="evenodd" d="M119.708 59.2101C120.289 59.1384 120.803 59.2788 121.248 59.6319C122.236 63.7009 123.63 67.6382 125.43 71.4444C124.607 70.9491 124.167 71.2305 124.109 72.2881C123.319 70.5922 122.805 68.7642 122.569 66.8038C121.564 64.3156 120.317 61.9248 118.827 59.6319C119.028 59.2953 119.322 59.1548 119.708 59.2101Z" fill="#D1D0D0"/>
<path fill-rule="evenodd" clip-rule="evenodd" d="M97.7003 73.1316C96.5058 73.0261 95.3319 72.9557 94.1792 72.9207C94.4239 73.0823 94.5705 73.2932 94.6193 73.5535C93.938 73.4181 93.6444 72.9962 93.739 72.2879C95.1832 72.2541 96.5036 72.5355 97.7003 73.1316Z" fill="#8C8C8C"/>
<path fill-rule="evenodd" clip-rule="evenodd" d="M51.0449 82.4125C50.2333 83.163 49.9402 84.1473 50.1647 85.3656C49.7364 84.3329 49.5898 83.2077 49.7245 81.9906C50.2927 81.8907 50.7329 82.0311 51.0449 82.4125Z" fill="#8D8D8D"/>
<path fill-rule="evenodd" clip-rule="evenodd" d="M46.6435 79.8818C47.074 80.013 47.3675 80.2944 47.5238 80.7256C47.1087 82.6662 46.9617 84.6351 47.0836 86.6318C46.6488 84.4634 46.5022 82.2131 46.6435 79.8818Z" fill="#969696"/>
<path fill-rule="evenodd" clip-rule="evenodd" d="M149.637 99.288C150.224 99.4284 150.811 99.5694 151.398 99.7098C151.956 100.253 151.81 100.675 150.958 100.975C152.189 101.595 153.51 101.947 154.919 102.03C155.213 102.592 155.506 103.155 155.8 103.718C157.416 104.616 159.176 104.968 161.081 104.772C161.081 105.194 161.081 105.616 161.081 106.038C161.815 106.038 162.548 106.038 163.282 106.038C163.333 106.875 163.04 107.578 162.402 108.147C164.312 110.348 166.586 110.77 169.224 109.413C170.797 110.271 172.484 110.834 174.286 111.1C174.722 111.028 175.015 111.169 175.166 111.522C175.166 111.944 175.166 112.366 175.166 112.788C176.335 112.645 177.362 112.927 178.247 113.632C179.053 115.679 179.933 117.648 180.888 119.538C179.714 119.538 178.54 119.538 177.367 119.538C177.29 118.114 177.07 116.708 176.706 115.319C176.413 114.757 175.973 114.335 175.386 114.053C175.166 118.129 175.093 122.207 175.166 126.288C172.8 126.149 170.453 126.29 168.124 126.71C169.738 126.991 171.351 127.272 172.965 127.553C172.873 127.801 172.726 128.012 172.525 128.186C169.628 128.588 166.988 128.025 164.602 126.499C163.438 126.289 162.264 126.219 161.081 126.288C161.081 125.444 161.081 124.6 161.081 123.757C158.734 123.757 156.386 123.757 154.039 123.757C154.039 122.772 154.039 121.788 154.039 120.803C153.079 120.895 152.346 120.543 151.838 119.749C150.97 119.54 150.09 119.469 149.197 119.538C148.391 119.222 147.657 118.8 146.997 118.272C144.649 116.444 142.302 114.616 139.954 112.788C140.059 111.958 139.913 111.184 139.514 110.468C137.469 109.379 135.268 108.746 132.912 108.569C132.912 108.147 132.912 107.725 132.912 107.304C130.702 106.539 128.355 105.976 125.87 105.616C124.093 104.55 122.26 103.565 120.368 102.663C119.977 103.248 119.756 103.178 119.708 102.452C120.047 101.937 120.488 101.515 121.028 101.186C122.647 100.394 124.261 99.9014 125.87 99.7098C123.426 99.4196 121.005 99.1386 118.607 98.8661C116.746 94.6849 115.646 90.3257 115.306 85.7881C115.893 85.7881 116.48 85.7881 117.067 85.7881C117.067 85.2257 117.067 84.6629 117.067 84.1006C120.614 83.021 123.695 81.1226 126.31 78.4053C126.981 77.9797 127.715 77.7687 128.511 77.7725C128.677 79.2554 129.117 80.6615 129.831 81.9912C132.119 83.8158 133.733 85.9252 134.673 88.3193C135.213 88.6488 135.8 88.8597 136.433 88.9521C136.873 89.6554 137.313 90.3582 137.754 91.0615C136.202 91.0421 134.661 90.8311 133.132 90.4287C132.913 91.5449 132.84 92.6701 132.912 93.8036C134.2 94.4208 135.521 95.0536 136.873 95.7021C138.73 95.775 140.491 96.1969 142.155 96.9677C142.326 97.6431 142.619 98.4168 143.035 99.288C145.236 99.288 147.437 99.288 149.637 99.288Z" fill="#B4DCB5"/>
<path fill-rule="evenodd" clip-rule="evenodd" d="M139.074 16.1789C141.269 16.0967 142.002 17.0109 141.275 18.9211C142.003 19.1776 142.736 19.3885 143.475 19.5539C138.499 23.7612 133.804 28.2613 129.391 33.0538C128.668 34.0971 127.714 34.9408 126.53 35.585C125.914 39.268 125.254 42.9239 124.549 46.5537C123.663 50.1776 123.076 53.9044 122.789 57.7333C122.748 58.9234 123.041 59.9781 123.669 60.8973C123.598 61.6141 123.672 62.3173 123.889 63.0067C126.418 68.2375 129.206 73.2999 132.252 78.194C134.771 82.2955 137.925 85.8814 141.715 88.9518C143.964 90.1706 146.311 91.1548 148.757 91.9049C156.88 93.74 165.096 94.2323 173.405 93.3814C174.212 93.4173 174.799 93.6987 175.166 94.2252C171.787 94.4796 168.412 94.9014 165.043 95.4908C165.86 96.3447 166.594 97.2589 167.243 98.233C170.916 100.274 174.437 102.523 177.807 104.983C178.912 105.084 179.645 104.591 180.007 103.506C181.147 103.119 182.027 102.415 182.648 101.397C185.509 99.5783 188.443 97.8204 191.451 96.1236C192.493 95.938 193.519 95.727 194.532 95.4908C198.707 95.2554 202.815 94.9744 206.856 94.647C206.905 94.3867 207.052 94.1758 207.296 94.0142C208.177 93.8738 209.057 93.7328 209.937 93.5924C215.395 90.6595 220.604 87.355 225.562 83.6784C225.775 83.2784 225.848 82.8566 225.783 82.4128C226.213 83.2379 226.653 84.0817 227.103 84.944C226.586 84.8516 226.146 84.9921 225.783 85.3659C222.211 89.1357 217.956 92.0184 213.018 94.0142C212.65 94.4407 212.503 94.9331 212.578 95.4908C215.729 95.7291 218.81 96.2915 221.821 97.1783C224.06 97.512 225.087 98.7776 224.902 100.975C227.952 100.702 230.813 101.265 233.485 102.663C234.873 101.755 236.267 100.911 237.666 100.131C243.626 97.1298 249.348 93.6848 254.832 89.7955C256.014 88.7214 256.455 87.3854 256.153 85.7877C256.732 86.9394 256.732 88.1346 256.153 89.3736C256.556 89.4909 256.849 89.7019 257.033 90.0065C256.338 90.7523 255.604 91.5256 254.832 92.3267C256.97 94.6698 258.217 97.412 258.573 100.553C258.742 100.788 258.962 100.928 259.234 100.975C259.234 101.819 259.234 102.663 259.234 103.506C260.106 103.651 260.694 103.37 260.994 102.663C262.09 101.401 263.264 100.206 264.515 99.0767C265.235 98.8683 265.968 98.7983 266.716 98.8658C266.38 99.1898 265.94 99.4007 265.396 99.4986C266.657 99.5758 267.83 99.7867 268.917 100.131C267.588 100.062 266.268 100.132 264.955 100.342C261.124 105.929 257.236 111.484 253.292 117.006C252.798 117.811 252.431 118.654 252.191 119.537C251.113 120.436 250.379 121.561 249.991 122.912C244.456 130.006 239.027 137.178 233.705 144.428C229.537 148.49 226.015 152.99 223.142 157.928C223.273 157.04 223.127 156.196 222.702 155.397C222.253 155.689 221.813 155.97 221.381 156.24C222.072 154.517 222.879 152.829 223.802 151.178C226.306 147.868 228.874 144.633 231.504 141.475C232.925 140.291 234.246 139.025 235.466 137.678C235.864 137.379 236.01 136.957 235.906 136.412C235.338 136.512 234.898 136.372 234.585 135.99C235.329 135.387 236.209 135.035 237.226 134.936C237.835 134.4 238.275 133.767 238.547 133.037C241.001 129.88 243.349 126.646 245.589 123.334C247.521 121.563 248.768 119.454 249.33 117.006C248.635 116.356 247.828 115.864 246.91 115.53C246.616 114.967 246.323 114.405 246.029 113.842C245.256 113.757 244.523 113.546 243.829 113.209C242.612 111.057 240.851 109.51 238.547 108.569C236.228 106.891 233.734 105.415 231.064 104.139C228.844 103.571 226.643 102.868 224.462 102.03C224.075 101.458 223.928 100.825 224.022 100.131C222.278 99.7618 220.518 99.4808 218.74 99.2876C217.509 98.7101 216.188 98.2882 214.779 98.022C213.439 97.3846 211.972 97.1032 210.377 97.1783C204.829 96.4113 199.253 96.2004 193.652 96.5455C192.682 97.5461 191.655 98.4603 190.571 99.2876C190.003 99.1876 189.563 99.3281 189.251 99.7095C186.415 101.564 183.481 103.322 180.448 104.983C180.117 105.266 179.97 105.617 180.007 106.038C179.861 106.038 179.714 106.038 179.567 106.038C178.738 106.995 178.151 108.12 177.807 109.413C178.282 110.29 179.015 110.852 180.007 111.1C184.281 114.899 185.528 119.54 183.749 125.022C182.853 126.46 181.753 127.726 180.448 128.819C180.119 129.34 179.973 129.903 180.007 130.506C179.054 129.435 178.614 129.716 178.687 131.35C178.54 131.35 178.393 131.35 178.247 131.35C176.998 130.547 175.531 130.266 173.845 130.506C173.845 130.084 173.845 129.662 173.845 129.241C171.559 129.376 169.358 129.235 167.243 128.819C171.231 128.873 175.193 128.592 179.127 127.975C179.853 127.491 180.513 126.928 181.108 126.287C182.498 122.66 182.572 119.004 181.328 115.319C179.73 113.425 177.676 112.159 175.166 111.522C175.015 111.168 174.722 111.027 174.286 111.1C166.848 106.987 159.219 103.19 151.398 99.7095C150.811 99.569 150.224 99.4281 149.637 99.2876C144.648 96.6809 139.439 94.431 134.012 92.5377C133.939 92.3972 133.866 92.2563 133.792 92.1158C134.638 91.6345 135.518 91.564 136.433 91.9049C138.387 93.0861 140.515 93.8598 142.815 94.2252C143.613 94.2281 144.273 93.9467 144.796 93.3814C141.973 91.853 139.259 90.1655 136.653 88.319C133.666 84.6339 130.952 80.7666 128.51 76.7175C127.924 76.4361 127.337 76.4361 126.75 76.7175C121.616 79.1496 117.141 82.4541 113.325 86.6315C113.032 87.1938 113.032 87.7566 113.325 88.319C115.475 92.903 116.942 97.6845 117.727 102.663C118.204 103.154 118.571 103.716 118.827 104.35C126.175 106.466 133.218 109.278 139.954 112.788C142.302 114.615 144.649 116.444 146.997 118.272C146.521 119.057 145.934 119.338 145.236 119.116C146.229 119.504 146.669 120.207 146.556 121.225C136.454 112.446 124.717 106.821 111.345 104.35C110.465 104.069 109.584 103.788 108.704 103.506C109.273 103.229 109.933 103.088 110.685 103.084C112.528 103.333 114.362 103.614 116.186 103.928C114.135 91.3518 107.68 81.4378 96.82 74.1863C96.092 73.9298 95.3583 73.7188 94.6193 73.5535C94.5704 73.2932 94.4239 73.0822 94.1791 72.9207C95.3319 72.9557 96.5057 73.0261 97.7003 73.1316C99.2861 74.0344 100.9 74.9486 102.542 75.8738C106.022 78.5758 109.103 81.5994 111.785 84.944C114.043 83.1308 116.097 81.0919 117.947 78.8269C120.221 77.6676 122.421 76.4019 124.549 75.03C125.268 74.8216 126.002 74.7516 126.75 74.8191C126.787 73.4906 126.347 72.3655 125.429 71.4441C123.63 67.638 122.236 63.7007 121.248 59.6317C120.803 59.2786 120.289 59.1381 119.708 59.2098C120.148 58.9284 120.588 58.6475 121.028 58.3661C121.426 58.067 121.572 57.6451 121.468 57.1005C121.864 55.062 122.157 52.9526 122.348 50.7724C122.22 48.3243 122.513 45.934 123.229 43.6006C123.613 41.9768 123.686 40.2893 123.449 38.5381C124.738 37.1923 125.545 35.6453 125.87 33.8975C130.12 28.0263 135.181 22.8234 141.055 18.2883C141.128 18.1478 141.201 18.0069 141.275 17.8664C140.242 17.5918 139.508 17.0294 139.074 16.1789Z" fill="#121511"/>
<path fill-rule="evenodd" clip-rule="evenodd" d="M149.638 99.2875C147.437 99.2875 145.236 99.2875 143.035 99.2875C142.619 98.4164 142.326 97.6426 142.155 96.9672C140.491 96.1965 138.73 95.7746 136.873 95.7016C135.521 95.0532 134.2 94.4204 132.912 93.8032C132.84 92.6696 132.913 91.5445 133.132 90.4282C134.661 90.8307 136.202 91.0416 137.754 91.061C137.313 90.3578 136.873 89.6549 136.433 88.9517C135.8 88.8593 135.214 88.6483 134.673 88.3189C133.733 85.9247 132.119 83.8154 129.831 81.9908C129.117 80.661 128.677 79.2549 128.511 77.7721C127.715 77.7683 126.981 77.9792 126.31 78.4049C123.695 81.1222 120.614 83.0206 117.067 84.1001C117.067 84.6625 117.067 85.2253 117.067 85.7876C116.48 85.7876 115.893 85.7876 115.306 85.7876C115.646 90.3253 116.746 94.6845 118.607 98.8657C121.005 99.1382 123.426 99.4191 125.87 99.7094C124.261 99.9009 122.647 100.393 121.028 101.186C120.488 101.515 120.047 101.936 119.708 102.452C119.756 103.178 119.977 103.248 120.368 102.662C122.26 103.564 124.093 104.549 125.87 105.616C128.355 105.975 130.702 106.538 132.912 107.303C132.912 107.725 132.912 108.147 132.912 108.569C135.268 108.746 137.469 109.379 139.514 110.467C139.913 111.184 140.06 111.958 139.954 112.787C133.218 109.278 126.176 106.466 118.827 104.35C118.571 103.716 118.204 103.154 117.727 102.662C116.942 97.6844 115.475 92.9029 113.326 88.3189C113.032 87.7565 113.032 87.1937 113.326 86.6314C117.141 82.454 121.616 79.1495 126.75 76.7174C127.337 76.436 127.924 76.436 128.511 76.7174C130.952 80.7665 133.666 84.6338 136.653 88.3189C139.259 90.1654 141.973 91.8529 144.796 93.3813C144.273 93.9466 143.613 94.228 142.815 94.2251C140.515 93.8597 138.387 93.086 136.433 91.9048C135.518 91.5639 134.638 91.6343 133.792 92.1157C133.866 92.2562 133.939 92.3971 134.012 92.5376C139.439 94.4309 144.648 96.6808 149.638 99.2875Z" fill="#B6D1B7"/>
<path fill-rule="evenodd" clip-rule="evenodd" d="M59.8478 98.8662C62.8201 103.918 66.1943 108.769 69.9712 113.421C71.7894 112.878 73.6966 112.386 75.6931 111.944C75.9866 112.085 76.2798 112.226 76.5734 112.366C70.436 114.896 65.4478 118.834 61.6084 124.179C61.1317 123.814 61.0587 123.392 61.3883 122.913C62.1516 121.378 62.9588 119.901 63.8091 118.483C62.7942 111.856 61.4737 105.317 59.8478 98.8662Z" fill="#1C1917"/>
<path fill-rule="evenodd" clip-rule="evenodd" d="M108.704 103.507C109.584 103.788 110.465 104.069 111.345 104.351C110.278 104.481 109.251 104.34 108.264 103.929C108.318 103.673 108.465 103.532 108.704 103.507Z" fill="#898989"/>
<path fill-rule="evenodd" clip-rule="evenodd" d="M66.45 111.1C65.5644 110.411 64.8307 109.567 64.2493 108.568C63.8149 109.947 63.6683 111.354 63.8091 112.787C63.5481 111.522 63.1815 110.256 62.7088 108.99C62.2255 105.471 63.1058 105.33 65.3497 108.568C65.8435 109.373 66.2101 110.217 66.45 111.1Z" fill="#5D0C19"/>
<path fill-rule="evenodd" clip-rule="evenodd" d="M66.45 111.1C68.1019 112.164 68.542 113.571 67.7705 115.318C67.105 116.085 66.2247 116.507 65.1296 116.584C65.3197 115.159 65.0261 113.894 64.2493 112.787C64.1027 112.787 63.9557 112.787 63.8091 112.787C63.6683 111.354 63.8149 109.947 64.2493 108.568C64.8307 109.567 65.5644 110.411 66.45 111.1Z" fill="#B90C24"/>
<path fill-rule="evenodd" clip-rule="evenodd" d="M64.2493 112.788C65.0261 113.894 65.3197 115.16 65.1296 116.584C66.2246 116.507 67.1049 116.085 67.7704 115.319C67.3175 116.802 66.2907 117.435 64.6894 117.217C64.2686 115.785 64.1221 114.309 64.2493 112.788Z" fill="#740C1D"/>
<path fill-rule="evenodd" clip-rule="evenodd" d="M53.6858 113.631C54.2439 114.646 54.5375 115.771 54.5661 117.006C53.8883 116.02 53.5951 114.895 53.6858 113.631Z" fill="#676767"/>
<path fill-rule="evenodd" clip-rule="evenodd" d="M88.8974 138.1C88.8974 138.662 88.8974 139.225 88.8974 139.787C87.6976 137.912 86.5972 135.943 85.5963 133.881C85.2847 133.51 84.9176 133.229 84.496 133.037C83.8146 132.902 83.521 132.48 83.6157 131.772C83.2873 130.159 82.407 128.893 80.9748 127.975C79.4075 126.519 77.9404 124.972 76.5734 123.334C76.2996 122.65 75.8594 122.088 75.2529 121.647C74.6909 120.629 73.9576 120.558 73.0522 121.436C71.6587 122.28 70.4853 123.334 69.531 124.6C67.8197 125.695 67.8197 126.82 69.531 127.975C69.531 128.116 69.531 128.256 69.531 128.397C69.5139 129.489 69.954 130.333 70.8515 130.928C71.1296 132.586 71.8634 133.993 73.0522 135.147C73.671 135.346 73.9646 135.768 73.9325 136.412C74.1873 138.041 75.0676 139.166 76.5734 139.787C76.5043 140.367 76.5778 140.929 76.7934 141.475C77.9074 142.075 78.7147 142.919 79.2142 144.006C79.6218 145.101 80.3555 145.945 81.415 146.537C82.1522 146.382 82.5923 145.96 82.7354 145.272C83.3542 145.072 83.6478 144.65 83.6157 144.006C84.9722 143.489 86.2926 142.856 87.577 142.108C88.077 141.625 88.5171 141.132 88.8974 140.631C89.4657 140.731 89.9058 140.591 90.2179 140.209C91.4828 139.46 92.8033 139.319 94.1792 139.787C87.9339 142.245 82.6522 146.042 78.3339 151.178C78.0184 150.049 78.385 149.064 79.4343 148.225C79.7279 147.663 79.7279 147.1 79.4343 146.537C76.2763 142.45 73.3423 138.231 70.6314 133.881C69.5834 131.996 68.7031 130.027 67.9905 127.975C67.6714 127.739 67.3048 127.599 66.8902 127.553C65.2968 128.377 63.9764 129.502 62.9289 130.928C62.7823 130.788 62.6353 130.647 62.4887 130.506C65.7555 125.694 70.0099 121.828 75.2529 118.905C77.1706 118.545 79.0782 118.193 80.9748 117.85C80.9748 118.272 80.9748 118.694 80.9748 119.116C79.6447 119.244 78.3243 119.455 77.0135 119.749C76.2837 120.054 76.0637 120.547 76.3533 121.225C82.1645 125.762 86.3459 131.387 88.8974 138.1Z" fill="#1C1515"/>
<path fill-rule="evenodd" clip-rule="evenodd" d="M75.2529 121.647C75.8594 122.088 76.2996 122.65 76.5733 123.335C75.7912 123.214 75.0575 122.933 74.3726 122.491C72.7423 123.361 71.1283 124.205 69.531 125.022C69.531 126.006 69.531 126.991 69.531 127.975C67.8197 126.821 67.8197 125.695 69.531 124.6C70.8968 123.789 72.2172 122.875 73.4923 121.858C74.0614 121.651 74.6486 121.581 75.2529 121.647Z" fill="#8A0E26"/>
<path fill-rule="evenodd" clip-rule="evenodd" d="M75.253 121.647C74.6486 121.581 74.0615 121.651 73.4924 121.858C72.2173 122.875 70.8968 123.789 69.5311 124.6C70.4853 123.335 71.6587 122.28 73.0522 121.436C73.9576 120.558 74.6909 120.629 75.253 121.647Z" fill="#48030E"/>
<path fill-rule="evenodd" clip-rule="evenodd" d="M69.5311 128.397C71.5421 129.29 72.5689 130.837 72.6121 133.038C72.131 132.258 71.5443 131.554 70.8515 130.928C69.954 130.333 69.5139 129.489 69.5311 128.397Z" fill="#9E0E21"/>
<path fill-rule="evenodd" clip-rule="evenodd" d="M80.9748 127.975C82.407 128.893 83.2873 130.159 83.6157 131.771C82.0087 130.94 81.1284 129.675 80.9748 127.975Z" fill="#810D1E"/>
<path fill-rule="evenodd" clip-rule="evenodd" d="M76.5734 123.334C77.9405 124.972 79.4075 126.519 80.9748 127.975C81.1285 129.675 82.0087 130.941 83.6157 131.772C83.5211 132.48 83.8147 132.902 84.496 133.038C85.3169 135.035 86.2707 137.004 87.3569 138.944C87.5748 139.776 87.6483 140.62 87.577 141.475C87.114 141.412 86.6738 141.482 86.2566 141.686C85.5462 142.583 84.6659 143.216 83.6157 143.584C82.8336 143.705 82.0999 143.986 81.415 144.428C79.7666 143.408 78.5928 142.002 77.8938 140.209C77.5307 139.836 77.0906 139.695 76.5734 139.787C75.7701 138.584 74.8898 137.46 73.9325 136.412C73.9646 135.768 73.6711 135.346 73.0522 135.147C72.8154 134.465 72.6689 133.761 72.6121 133.038C72.5689 130.837 71.5421 129.29 69.5311 128.397C69.5311 128.256 69.5311 128.116 69.5311 127.975C69.5311 126.991 69.5311 126.006 69.5311 125.022C71.1284 124.205 72.7424 123.361 74.3727 122.491C75.0575 122.932 75.7913 123.214 76.5734 123.334Z" fill="#CC031D"/>
<path fill-rule="evenodd" clip-rule="evenodd" d="M110.465 -42.461C110.465 -41.336 110.465 -40.211 110.465 -39.086C110.321 -35.3527 110.468 -31.6965 110.905 -28.1173C110.909 -24.99 111.202 -21.896 111.785 -18.8362C111.895 -15.5945 112.482 -12.5009 113.546 -9.55499C113.546 -9.2736 113.546 -8.99264 113.546 -8.71125C113.546 -8.28938 113.546 -7.8675 113.546 -7.44563C114.373 -7.33131 114.96 -7.61269 115.306 -8.28938C115.922 -8.87578 116.656 -9.29765 117.507 -9.55499C118.593 -9.66257 119.473 -10.0844 120.148 -10.8206C120.82 -10.7898 121.26 -11.0712 121.468 -11.6643C123.571 -12.5705 125.772 -13.1329 128.07 -13.3518C129.253 -13.421 130.427 -13.3506 131.592 -13.1409C130.957 -12.9819 130.517 -12.6304 130.271 -12.0862C130.271 -11.9457 130.271 -11.8048 130.271 -11.6643C130.125 -11.6643 129.977 -11.6643 129.831 -11.6643C128.327 -11.6525 127.007 -11.2307 125.87 -10.3987C124.332 -10.3852 123.158 -9.82288 122.348 -8.71125C121.342 -8.61675 120.388 -8.33536 119.488 -7.8675C117.101 -6.33695 114.68 -4.8604 112.225 -3.43785C111.857 -3.01134 111.71 -2.51902 111.785 -1.9613C110.989 -1.9651 110.255 -1.75416 109.584 -1.32849C105.77 1.76509 101.955 4.8591 98.1405 7.95268C97.6277 8.79305 97.041 9.56634 96.3799 10.273C95.8548 10.4713 95.5612 10.8931 95.4996 11.5386C95.6761 13.0253 95.9692 14.4318 96.3799 15.7573C96.9015 17.711 97.3416 19.6799 97.7003 21.6635C97.7549 23.5826 98.0485 25.4106 98.5806 27.1478C98.9992 27.7465 99.1458 28.4493 99.0208 29.2572C98.6493 32.579 99.236 35.6726 100.781 38.5384C100.928 38.5384 101.075 38.5384 101.221 38.5384C101.29 41.4063 101.73 44.2189 102.542 46.9758C103.773 48.1284 105.24 48.8316 106.943 49.0852C110.052 51.7856 113.279 54.3168 116.627 56.6789C117.679 58.1204 119.146 58.6827 121.028 58.3663C120.588 58.6477 120.148 58.9287 119.708 59.2101C119.322 59.1548 119.028 59.2953 118.827 59.632C120.317 61.9248 121.564 64.3156 122.569 66.8038C122.805 68.7642 123.319 70.5922 124.109 72.2881C124.04 73.8216 123.527 73.9621 122.569 72.71C121.707 68.9503 120.239 65.4348 118.167 62.1632C111.798 54.224 103.802 48.3878 94.1792 44.6555C96.4019 44.777 98.6026 45.1284 100.781 45.7102C99.8896 42.9853 99.2294 40.1727 98.8007 37.2728C98.6299 36.8813 98.3363 36.5999 97.9204 36.429C91.0158 38.6848 84.1201 40.935 77.2336 43.179C71.5399 45.9405 66.1846 49.1746 61.1683 52.882C64.8677 53.398 68.1688 54.8041 71.0715 57.1007C71.3744 57.4517 71.3009 57.7327 70.8515 57.9445C68.2476 56.1279 65.3136 55.1437 62.0486 54.9914C59.0648 55.4521 56.2774 56.3662 53.6858 57.7335C52.8055 58.0149 51.9252 58.0149 51.0449 57.7335C48.8644 56.3477 46.8107 54.8007 44.8829 53.0929C44.0026 52.8116 43.1223 52.8116 42.242 53.0929C41.4436 54.4185 40.4898 55.6136 39.3811 56.6789C38.5444 59.6223 38.5444 62.5754 39.3811 65.5382C40.4427 67.7146 41.6166 69.824 42.9022 71.8662C44.7478 73.3559 46.2883 75.1138 47.5238 77.1396C52.9402 81.4933 59.1022 84.376 66.0099 85.788C65.7163 85.9285 65.4232 86.0694 65.1296 86.2099C62.8052 85.7213 60.4579 85.3699 58.0873 85.1552C55.7448 84.1967 53.3975 83.2825 51.0449 82.413C50.7329 82.0317 50.2927 81.8912 49.7245 81.9912C49.5898 83.2083 49.7364 84.3334 50.1646 85.3661C50.2628 88.6065 50.4829 91.8406 50.8249 95.0692C51.5815 101.295 52.5353 107.482 53.6858 113.632C53.5951 114.895 53.8883 116.02 54.5661 117.006C55.655 121.222 56.9019 125.441 58.3073 129.663C63.5019 139.902 69.811 149.465 77.2336 158.35C81.551 162.348 85.7323 166.496 89.7777 170.795C94.8843 174.703 99.8729 178.781 104.743 183.029C107.178 184.548 109.673 185.954 112.225 187.248C113.094 187.457 113.974 187.527 114.866 187.459C113.894 185.025 113.454 182.494 113.546 179.865C113.986 179.865 114.426 179.865 114.866 179.865C114.876 180.889 115.096 181.873 115.526 182.818C116.7 184.506 117.874 186.193 119.047 187.881C120.286 189.782 120.433 191.751 119.488 193.787C118.175 195.676 116.928 197.575 115.746 199.482C117.575 201.517 119.409 203.556 121.248 205.6C134.336 204.236 141.745 197.205 143.475 184.506C143.769 183.161 144.062 181.754 144.356 180.287C144.65 181.329 144.943 182.313 145.236 183.24C145.339 183.492 145.56 183.633 145.896 183.662C149.847 181.875 153.881 180.258 158 178.811C162.461 176.012 166.862 173.129 171.205 170.162C171.944 170.072 172.384 170.353 172.525 171.006C168.901 175.347 164.499 178.792 159.321 181.342C156.467 182.82 153.533 184.085 150.518 185.139C148.793 185.626 147.033 185.837 145.236 185.772C144.026 197.354 137.57 204.315 125.87 206.654C119.837 207.815 115.876 205.635 113.986 200.115C114.059 199.693 114.132 199.271 114.206 198.85C115.741 197.313 117.061 195.626 118.167 193.787C118.486 192.573 118.266 191.449 117.507 190.412C116.175 190.049 115.001 189.416 113.986 188.514C108.98 187.033 104.285 184.924 99.9011 182.186C93.265 177.179 86.8094 171.976 80.5347 166.576C71.5002 157.352 63.5776 147.297 56.7668 136.413C56.6695 135.33 56.376 134.345 55.8865 133.459C54.6779 130.053 53.4305 126.678 52.1453 123.335C51.0551 118 49.8812 112.656 48.6241 107.303C48.0546 100.392 47.5409 93.5011 47.0836 86.6317C46.9617 84.635 47.1087 82.6661 47.5238 80.7255C47.3675 80.2944 47.0739 80.013 46.6435 79.8818C42.4071 76.7325 39.0325 72.8656 36.5201 68.2803C35.5883 65.1484 35.2948 61.9843 35.6398 58.7882C36.922 56.2642 38.6826 54.0843 40.9216 52.2492C42.2513 51.9653 43.5717 51.8244 44.8829 51.8273C46.2971 52.8495 47.6175 53.9747 48.8442 55.2023C49.4485 55.5714 50.1087 55.7824 50.8249 55.8351C53.2457 55.0281 55.6665 54.3248 58.0873 53.7258C58.6405 52.4585 59.3738 51.2633 60.288 50.1398C68.0834 44.1202 76.7393 39.831 86.2565 37.2728C87.5748 37.3597 88.7486 37.0787 89.7777 36.429C91.6065 35.8371 93.5137 35.4153 95.4996 35.1634C96.3799 35.1634 97.2602 35.1634 98.1405 35.1634C98.2734 34.0838 98.1264 33.0992 97.7003 32.2103C95.8865 25.0119 94.7861 17.6992 94.3992 10.273C96.0515 7.84384 98.0322 5.66403 100.341 3.73397C104.376 0.429445 108.41 -2.8755 112.445 -6.18002C111.017 -12.1706 109.697 -18.2173 108.484 -24.3205C107.611 -31.3923 107.685 -38.4237 108.704 -45.4141C109.104 -46.0548 109.471 -46.7579 109.804 -47.5234C109.951 -47.3828 110.098 -47.2422 110.244 -47.1016C110.191 -45.4782 110.264 -43.9314 110.465 -42.461Z" fill="#131212"/>
<path fill-rule="evenodd" clip-rule="evenodd" d="M124.109 72.2878C124.167 71.2302 124.607 70.9488 125.429 71.4441C126.347 72.3654 126.787 73.4906 126.75 74.819C126.002 74.7515 125.268 74.8216 124.549 75.03C122.422 76.4019 120.221 77.6675 117.947 78.8268C116.097 81.0918 114.043 83.1308 111.785 84.944C109.103 81.5994 106.022 78.5758 102.542 75.8737C100.9 74.9486 99.2862 74.0344 97.7003 73.1316C96.5036 72.5354 95.1831 72.2541 93.739 72.2878C93.6444 72.9961 93.938 73.418 94.6193 73.5534C95.3583 73.7188 96.092 73.9297 96.82 74.1862C107.68 81.4378 114.135 91.3518 116.186 103.928C114.362 103.614 112.528 103.333 110.685 103.084C109.933 103.088 109.273 103.229 108.704 103.506C108.465 103.532 108.318 103.672 108.264 103.928C109.251 104.339 110.278 104.48 111.345 104.35C124.717 106.821 136.454 112.446 146.556 121.225C154.388 128.641 159.23 137.641 161.081 148.225C161.09 151.125 161.384 153.937 161.962 156.662C162.216 159.046 162.509 161.436 162.842 163.834C163.109 163.782 163.256 163.641 163.282 163.412C163.642 162.229 163.863 160.963 163.942 159.615C164.111 159.85 164.331 159.99 164.602 160.037C164.749 160.037 164.896 160.037 165.043 160.037C166.731 163.483 169.079 166.436 172.085 168.896C171.961 169.436 171.667 169.857 171.205 170.162C166.862 173.129 162.461 176.012 158 178.81C153.881 180.258 149.847 181.875 145.896 183.662C145.56 183.632 145.339 183.492 145.236 183.24C145.236 182.115 145.236 180.99 145.236 179.865C144.649 179.865 144.062 179.865 143.475 179.865C143.475 181.412 143.475 182.959 143.475 184.506C141.745 197.204 134.336 204.235 121.248 205.599C119.409 203.556 117.575 201.517 115.746 199.482C116.928 197.574 118.175 195.676 119.488 193.787C120.432 191.75 120.286 189.782 119.047 187.881C117.873 186.193 116.7 184.506 115.526 182.818C115.096 181.873 114.876 180.889 114.866 179.865C114.426 179.865 113.986 179.865 113.546 179.865C113.454 182.493 113.894 185.025 114.866 187.459C113.974 187.527 113.094 187.457 112.225 187.248C109.673 185.954 107.178 184.547 104.743 183.029C99.8729 178.78 94.8843 174.703 89.7777 170.795C85.7323 166.496 81.5509 162.347 77.2336 158.35C69.811 149.465 63.5019 139.902 58.3073 129.662C56.9019 125.44 55.655 121.222 54.5661 117.006C54.5375 115.771 54.2439 114.646 53.6858 113.631C52.5353 107.482 51.5815 101.294 50.8249 95.0689C50.4829 91.8403 50.2628 88.6062 50.1646 85.3658C49.9402 84.1475 50.2333 83.1632 51.0449 82.4127C53.3975 83.2822 55.7448 84.1964 58.0872 85.1549C60.4579 85.3696 62.8052 85.721 65.1296 86.2096C65.4231 86.0691 65.7163 85.9282 66.0099 85.7877C59.1022 84.3757 52.9402 81.493 47.5238 77.1393C46.2883 75.1135 44.7478 73.3556 42.9022 71.8659C41.6166 69.8237 40.4427 67.7143 39.3811 65.5379C38.5444 62.5751 38.5444 59.622 39.3811 56.6786C40.4898 55.6133 41.4436 54.4182 42.242 53.0926C43.1223 52.8113 44.0026 52.8113 44.8829 53.0926C46.8107 54.8004 48.8644 56.3474 51.0449 57.7332C51.9252 58.0146 52.8055 58.0146 53.6858 57.7332C56.2774 56.3659 59.0648 55.4518 62.0486 54.9911C65.3136 55.1434 68.2476 56.1276 70.8515 57.9442C71.3008 57.7324 71.3744 57.4514 71.0715 57.1004C68.1688 54.8038 64.8677 53.3977 61.1683 52.8817C66.1846 49.1743 71.5398 45.9402 77.2336 43.1787C84.1201 40.9347 91.0158 38.6845 97.9204 36.4287C98.3363 36.5996 98.6299 36.881 98.8007 37.2725C99.2294 40.1724 99.8896 42.985 100.781 45.7099C98.6026 45.1281 96.4019 44.7767 94.1792 44.6552C103.802 48.3875 111.798 54.2237 118.167 62.1629C120.239 65.4345 121.707 68.95 122.569 72.7097C123.527 73.9618 124.04 73.8213 124.109 72.2878Z" fill="#FCFCFC"/>
</g>
</g>
<defs>
<clipPath id="clip0_639_7981">
<rect width="135" height="130" fill="white"/>
</clipPath>
<clipPath id="clip1_639_7981">
<rect width="346" height="281" fill="white" transform="translate(29 -76)"/>
</clipPath>
</defs>
</svg>
