<svg width="1074" height="206" viewBox="0 0 1074 206" fill="none" xmlns="http://www.w3.org/2000/svg">
<line x1="819.967" y1="118.872" x2="735.703" y2="150.504" stroke="black" stroke-width="4"/>
<line x1="818.34" y1="123.669" x2="732.405" y2="96.9097" stroke="black" stroke-width="4"/>
<g filter="url(#filter0_d_648_2)">
<path d="M59.045 11.5C62.5782 13.5319 102.93 27.5121 149.5 35C194.61 42.253 245.585 43.0522 272.706 43.0522C327.827 43.0522 351.143 33.73 390.298 25.5C426.046 17.9863 474.917 12.4998 496.866 12.5C520.787 12.5001 534.188 11.7905 582.436 17.5C645.593 24.9738 711.097 37.1646 733.465 41.4784C738.142 42.3803 741.501 46.478 741.501 51.2409V174.61C741.501 180.906 735.791 185.656 729.602 184.5C704.205 179.757 642.126 168.626 582.436 161.5C534.015 155.72 497.391 154.5 476.393 156C455.394 157.5 407.798 164.874 376.124 172C338.335 180.502 305.003 182 282.155 182C232.695 182 190.504 176.805 136.5 166C116.621 162.022 64.0005 144.897 50.0005 138C36.0005 131.103 33.4545 129.77 25.0005 124C13.3417 116.042 4.00049 107.5 4.00049 107.5L35.5005 61.5L27.0005 0L59.045 11.5Z" fill="white"/>
</g>
<g filter="url(#filter1_d_648_2)">
<path d="M856.297 152.752L856.303 152.738L856.31 152.725C858.555 148.644 860.504 146.005 861.942 144.343C862.275 143.959 862.581 143.626 862.856 143.34C861.281 143.735 858.795 144.149 855.2 144.149L855.179 144.149L855.158 144.147C854.208 144.068 853.376 143.991 852.643 143.922C851.467 143.813 850.547 143.727 849.801 143.696C848.579 143.646 847.995 143.758 847.618 144.033C847.233 144.313 846.956 144.834 846.585 145.95C846.461 146.324 846.325 146.767 846.169 147.276C845.884 148.203 845.532 149.349 845.06 150.699C843.648 154.733 843.797 156.955 844.61 158.162C845.412 159.355 847.011 159.768 849.119 159.768C849.735 159.768 850.23 159.916 850.629 160.159C851.024 160.4 851.298 160.718 851.496 161.017C851.649 161.246 851.77 161.486 851.859 161.664C851.866 161.678 851.873 161.691 851.879 161.704C852.053 161.454 852.292 161.035 852.632 160.376C853.297 159.087 854.3 156.967 855.888 153.616C856.02 153.336 856.156 153.048 856.297 152.752ZM852.033 161.973C852.033 161.973 852.032 161.972 852.029 161.969C852.032 161.972 852.033 161.974 852.033 161.973Z" fill="#8B6321" stroke="black"/>
<path d="M985.29 160.858L985.284 160.844L985.277 160.831C984.16 158.8 983.189 157.106 982.374 155.697C982.186 155.372 982.007 155.063 981.837 154.769C981.265 153.783 980.79 152.964 980.412 152.28C979.917 151.385 979.61 150.762 979.472 150.331C979.403 150.116 979.389 149.989 979.394 149.921C979.395 149.907 979.396 149.898 979.398 149.892C979.414 149.882 979.465 149.856 979.586 149.836C979.732 149.812 979.935 149.804 980.21 149.815C980.738 149.837 981.44 149.923 982.357 150.037C982.403 150.042 982.45 150.048 982.497 150.054C984.453 150.295 987.239 150.627 990.918 150.627L990.934 150.627L990.95 150.626C992.203 150.548 993.311 150.47 994.291 150.402C995.865 150.291 997.112 150.204 998.114 150.173C998.923 150.149 999.542 150.163 1000.02 150.228C1000.5 150.292 1000.8 150.403 1000.99 150.542C1001.36 150.799 1001.55 151.275 1001.62 152.445C1001.65 152.954 1001.66 153.555 1001.67 154.277C1001.68 154.359 1001.68 154.443 1001.68 154.529C1001.69 155.359 1001.71 156.328 1001.77 157.451C1001.88 159.466 1001.86 161.031 1001.73 162.245C1001.59 163.462 1001.33 164.289 1000.97 164.857C1000.28 165.933 999.115 166.247 996.999 166.247C995.736 166.247 994.776 166.973 994.001 167.649C993.85 167.781 993.709 167.909 993.573 168.031C993.34 168.241 993.122 168.438 992.892 168.623C992.538 168.909 992.22 169.11 991.908 169.209C991.613 169.303 991.308 169.31 990.953 169.171C990.583 169.027 990.133 168.714 989.587 168.119C988.491 166.924 987.111 164.702 985.29 160.858Z" fill="#8B6321" stroke="black"/>
<path d="M857.922 167.964C857.922 174.556 852.459 179.935 845.675 179.935C838.891 179.935 833.428 174.556 833.428 167.964C833.428 161.372 838.891 155.993 845.675 155.993C852.459 155.993 857.922 161.372 857.922 167.964Z" fill="#D9D9D9" stroke="black" stroke-width="2"/>
<path d="M851.799 167.964C851.799 171.517 849.038 174.363 845.675 174.363C842.312 174.363 839.552 171.517 839.552 167.964C839.552 164.41 842.312 161.564 845.675 161.564C849.038 161.564 851.799 164.41 851.799 167.964Z" fill="black" stroke="black"/>
<path d="M1022.75 178.908C1022.75 188.858 1014.51 196.96 1004.3 196.96C994.082 196.96 985.839 188.858 985.839 178.908C985.839 168.959 994.082 160.857 1004.3 160.857C1014.51 160.857 1022.75 168.959 1022.75 178.908Z" fill="#D9D9D9" stroke="black" stroke-width="2"/>
<path d="M1013.52 178.908C1013.52 184.248 1009.37 188.542 1004.3 188.542C999.218 188.542 995.067 184.248 995.067 178.908C995.067 173.568 999.218 169.274 1004.3 169.274C1009.37 169.274 1013.52 173.568 1013.52 178.908Z" fill="black" stroke="black"/>
<rect x="914.016" y="48.0752" width="10.9417" height="34.6706" transform="rotate(-2.14121 914.016 48.0752)" fill="#8B6321" stroke="black"/>
<rect x="985.37" y="40.3067" width="10.9417" height="34.6706" transform="rotate(-3.73245 985.37 40.3067)" fill="#8B6321" stroke="black"/>
<path d="M1068.34 107.567C1068.34 113.648 1064.35 114.458 1059.42 114.458C1050.91 116.08 1040.37 111.779 1040.37 107.973C1040.37 104.167 1050.1 99.8659 1059.42 100.677C1064.35 100.677 1067.94 101.893 1068.34 107.567Z" fill="black"/>
<path d="M1066.72 131.078C1070.37 157.02 1072.8 161.074 1061.85 161.074C1054.97 161.074 1057.8 144.873 1057.8 131.889C1059.42 110.81 1059.02 113.137 1061.04 113.001C1063.48 112.837 1063.07 112.432 1066.72 131.078Z" fill="black"/>
<path d="M1055.37 84.4627C1051.91 58.4951 1048.66 54.4456 1059.6 54.5237C1066.49 54.5728 1063.97 71.0733 1063.88 84.0573C1062.11 105.124 1063.07 102.176 1061.04 102.298C1058.61 102.444 1058.88 103.134 1055.37 84.4627Z" fill="black"/>
<path d="M1013.82 26.7939L1013.82 26.8771L1013.84 26.9573C1014.56 29.5351 1014.96 31.6292 1015.03 33.3414C1015.09 35.0507 1014.83 36.3481 1014.24 37.3608C1013.08 39.3801 1010.53 40.479 1006.03 41.1932C1002.63 41.7326 998.237 42.0378 992.719 42.4213C990.975 42.5425 989.118 42.6716 987.144 42.8184C978.943 43.4281 968.77 44.3413 956.39 46.2693C954.028 46.6168 951.662 46.9687 949.302 47.3196C935.24 49.4102 921.425 51.4641 910.508 52.3337C904.13 52.8418 898.778 52.942 894.96 52.4201C893.048 52.1588 891.561 51.7464 890.529 51.1789C889.508 50.6173 888.98 49.934 888.861 49.1229C888.706 48.0668 889.02 46.9706 889.822 45.8251C890.628 44.6742 891.908 43.4999 893.625 42.3198C897.056 39.9602 902.132 37.6439 908.311 35.4687C920.66 31.1215 937.3 27.3782 953.7 24.9647C962.236 23.7085 970.388 21.8106 977.778 20.0288C978.537 19.846 979.287 19.6644 980.029 19.4849C986.525 17.9126 992.364 16.4996 997.311 15.7795C1002.85 14.9735 1007.13 15.0609 1009.94 16.6432C1012.67 18.1819 1014.15 21.2316 1013.82 26.7939Z" fill="#FF0000" stroke="black"/>
<path d="M860.35 74.5032L860.356 74.5127L860.361 74.5221C865.676 83.4874 869.34 90.596 871.659 96.173C873.983 101.761 874.937 105.767 874.883 108.541C874.856 109.922 874.58 110.972 874.122 111.757C873.668 112.536 873.018 113.085 872.188 113.444C870.496 114.174 868.044 114.118 865.041 113.474C859.185 112.22 851.633 108.831 844.576 105.665L844.109 105.455C840.527 103.849 837.09 102.315 834.113 101.184C831.155 100.06 828.579 99.3037 826.742 99.3037C824.778 99.3037 823.077 100.571 821.605 102.376C820.124 104.192 818.796 106.651 817.589 109.245C816.643 111.278 815.761 113.418 814.934 115.423C814.705 115.979 814.48 116.524 814.26 117.054C813.234 119.515 812.307 121.617 811.441 122.939C811.003 123.607 810.622 124.009 810.306 124.183C810.159 124.264 810.044 124.285 809.952 124.277C809.861 124.27 809.745 124.231 809.6 124.115C809.29 123.866 808.92 123.321 808.52 122.322C808.127 121.338 807.728 119.975 807.322 118.163C805.699 110.908 804.034 96.7309 802.108 71.7962L801.61 71.8347L802.108 71.7962C801.912 69.256 801.554 66.8679 801.227 64.6855C801.033 63.3882 800.849 62.1636 800.717 61.0228C800.356 57.9068 800.363 55.3454 801.389 53.2021C802.404 51.0809 804.468 49.2741 808.449 47.7925C812.437 46.3081 818.29 45.1729 826.789 44.3634L826.813 44.3611L826.837 44.3565C827.744 44.181 828.604 44.0127 829.42 43.853C834.289 42.9006 837.609 42.2513 840.06 42.1701C841.478 42.1232 842.56 42.2696 843.457 42.6351C844.346 42.9975 845.091 43.591 845.81 44.5026C846.535 45.4226 847.226 46.6566 848.004 48.2883C848.675 49.6972 849.401 51.379 850.266 53.3822C850.402 53.6971 850.541 54.0199 850.684 54.3508C852.789 59.2176 855.682 65.7859 860.35 74.5032Z" fill="#FF0000" stroke="black"/>
<path d="M1054.87 109.609C1055.32 124.421 1055.1 134.195 1052.75 140.642C1051.59 143.841 1049.9 146.201 1047.52 147.947C1045.13 149.7 1042 150.862 1037.91 151.602C1029.7 153.087 1017.79 152.853 1000.57 152.468L999.634 152.447C982.558 152.065 960.405 151.57 931.738 152.465C871.746 150.641 840.727 146.206 824.711 139.722C816.721 136.488 812.527 132.767 810.308 128.66C808.08 124.539 807.796 119.952 807.796 114.863C807.796 109.942 809.941 105.603 814.515 101.756C819.107 97.8939 826.139 94.5394 835.864 91.6408C855.31 85.8452 885.353 81.9214 927.7 79.2866C953.666 79.2858 974.51 77.0034 991.198 74.633C996.46 73.8857 1001.3 73.1312 1005.75 72.437C1015.45 70.925 1023.32 69.699 1029.7 69.4568C1038.99 69.1045 1044.92 70.846 1048.74 76.6668C1050.67 79.6099 1052.08 83.6318 1053.07 89.0407C1054.05 94.4472 1054.62 101.208 1054.87 109.609Z" fill="#FF0000" stroke="black"/>
<path d="M886 142.5C872.475 141.813 861 139.5 852 138C842.31 136.386 835.5 135.025 827 132C816.582 128.293 809.5 125.5 809.5 125.5C809.5 125.5 810.919 129.919 812.5 131.5C815 134 817.602 136 819.5 137C822.068 138.354 826.235 140.116 829 141C834.367 142.718 836.989 143.322 842.5 144.5C851.007 146.32 855.857 147.01 864.5 148C872.281 148.893 876.687 149.445 884.5 150C893.284 150.625 899.709 150.983 908.5 151.5C917 152 923.5 152 933 152H951H980C991.325 152 997.98 152.5 1009.5 152.5C1019.07 152.5 1024 152.5 1032.5 152C1037.32 151.717 1045.5 149 1045.5 149C1045.5 149 1018.17 147.398 1013 147C1000 146 993.5 146 980 145.5C966.731 145.009 960.778 144.5 947.5 144.5H920.5C906.832 144.5 899.651 143.194 886 142.5Z" fill="#D60000"/>
</g>
<path d="M126.62 78.9542L124.415 98.828L124.645 98.925L138.528 83.9732L143.002 85.8588L124.858 104.642L119.836 102.525L122.158 77.0733L126.62 78.9542Z" fill="black"/>
<path d="M155.369 115.887L162.628 92.6245L166.874 93.8332L160.717 113.563L171.04 116.502L169.937 120.035L155.369 115.887Z" fill="black"/>
<path d="M174.038 121.143L179.628 97.4235L183.944 98.3519L181.375 109.25L181.666 109.313L193.529 100.414L198.799 101.548L187.077 110.209L193.29 125.285L188.102 124.168L183.391 112.471L180.018 115.006L178.353 122.071L174.038 121.143Z" fill="black"/>
<path d="M218.84 116.673C218.441 119.268 217.613 121.422 216.354 123.136C215.105 124.843 213.568 126.069 211.745 126.814C209.929 127.56 207.964 127.785 205.851 127.488C203.738 127.191 201.92 126.435 200.397 125.22C198.884 123.998 197.781 122.398 197.09 120.418C196.408 118.432 196.266 116.145 196.664 113.558C197.063 110.963 197.887 108.812 199.136 107.105C200.394 105.391 201.932 104.161 203.748 103.415C205.572 102.67 207.54 102.446 209.653 102.743C211.766 103.04 213.58 103.795 215.095 105.009C216.618 106.224 217.72 107.825 218.402 109.811C219.093 111.79 219.239 114.077 218.84 116.673ZM214.445 116.055C214.726 114.228 214.676 112.647 214.295 111.312C213.923 109.971 213.284 108.908 212.377 108.124C211.472 107.332 210.363 106.843 209.051 106.659C207.739 106.475 206.531 106.638 205.425 107.147C204.321 107.649 203.385 108.491 202.618 109.672C201.859 110.847 201.34 112.348 201.059 114.175C200.778 116.002 200.824 117.587 201.195 118.928C201.576 120.263 202.219 121.327 203.125 122.119C204.031 122.903 205.141 123.387 206.453 123.571C207.765 123.756 208.973 123.597 210.077 123.095C211.182 122.586 212.114 121.743 212.873 120.568C213.64 119.387 214.164 117.882 214.445 116.055Z" fill="black"/>
<path d="M223.418 104.954L228.807 105.337L234.656 123.457L234.941 123.477L243.524 106.386L248.913 106.769L247.026 131.065L242.801 130.765L244.097 114.073L243.871 114.057L235.863 130.199L232.706 129.974L227.281 112.839L227.056 112.823L225.757 129.551L221.532 129.25L223.418 104.954Z" fill="black"/>
<path d="M253.826 106.96L259.226 107.096L265.981 124.93L266.266 124.937L273.976 107.467L279.377 107.603L278.718 131.963L274.483 131.857L274.936 115.121L274.71 115.115L267.526 131.61L264.362 131.531L258.081 114.661L257.855 114.656L257.401 131.427L253.167 131.321L253.826 106.96Z" fill="black"/>
<path d="M284.77 131.992L284.942 107.623L300.791 107.733L300.765 111.434L289.33 111.355L289.283 117.97L299.897 118.044L299.871 121.744L289.257 121.671L289.21 128.322L300.74 128.402L300.714 132.103L284.77 131.992Z" fill="black"/>
<path d="M322.882 104.529L326.326 128.654L322.432 129.158L308.699 114.2L308.498 114.226L310.844 130.659L306.466 131.226L303.022 107.101L306.94 106.594L320.663 121.565L320.876 121.537L318.528 105.093L322.882 104.529Z" fill="black"/>
<path d="M344.824 105.019L344.089 101.392L363.212 97.8767L363.946 101.504L356.538 102.866L360.639 123.124L356.332 123.915L352.231 103.658L344.824 105.019Z" fill="black"/>
<path d="M371.335 96.229L376.538 120.036L372.208 120.896L367.005 97.0886L371.335 96.229Z" fill="black"/>
<path d="M381.417 119.057L376.044 95.2876L380.368 94.3995L384.925 114.559L395.439 112.4L396.255 116.01L381.417 119.057Z" fill="black"/>
<path d="M400.77 115.066L395.419 91.2916L399.744 90.4072L404.282 110.572L414.798 108.421L415.61 112.032L400.77 115.066Z" fill="black"/>
<path d="M435.974 107.202L431.256 83.2939L440.251 81.6817C442.094 81.3514 443.707 81.4168 445.092 81.8777C446.484 82.3373 447.618 83.109 448.495 84.1927C449.378 85.2673 449.97 86.5634 450.269 88.081C450.572 89.6142 450.516 91.0342 450.103 92.3411C449.69 93.648 448.919 94.7572 447.789 95.6688C446.658 96.5726 445.167 97.1903 443.316 97.522L437.355 98.5905L436.652 95.03L442.028 94.0664C443.105 93.8733 443.951 93.5284 444.564 93.0317C445.178 92.535 445.584 91.9303 445.783 91.2178C445.99 90.5039 446.009 89.7228 445.842 88.8745C445.674 88.0262 445.359 87.3091 444.896 86.7234C444.44 86.1362 443.83 85.7259 443.064 85.4924C442.305 85.2498 441.383 85.2258 440.297 85.4203L436.315 86.134L440.319 106.423L435.974 107.202Z" fill="black"/>
<path d="M469.715 77.0527L474.088 76.442L476.509 92.1777C476.775 93.9026 476.6 95.4767 475.984 96.9002C475.377 98.3225 474.395 99.5048 473.039 100.447C471.682 101.381 470.022 101.986 468.058 102.26C466.086 102.535 464.309 102.411 462.728 101.887C461.145 101.355 459.848 100.491 458.838 99.295C457.827 98.0986 457.189 96.638 456.923 94.9131L454.501 79.1775L458.874 78.5669L461.239 93.9379C461.394 94.9415 461.751 95.8046 462.312 96.5272C462.88 97.2487 463.604 97.7764 464.482 98.1102C465.358 98.4363 466.351 98.5219 467.458 98.3672C468.566 98.2125 469.491 97.8591 470.233 97.307C470.981 96.746 471.515 96.0428 471.834 95.1973C472.153 94.3518 472.236 93.4273 472.081 92.4237L469.715 77.0527Z" fill="black"/>
<path d="M495.914 81.0892C495.707 80.0637 495.166 79.2972 494.29 78.7896C493.423 78.2814 492.337 78.082 491.032 78.1915C490.115 78.2685 489.342 78.4727 488.711 78.8043C488.081 79.1358 487.614 79.5531 487.31 80.0563C487.006 80.5594 486.878 81.1154 486.927 81.7243C486.973 82.2298 487.129 82.6585 487.392 83.0105C487.664 83.3619 488.013 83.651 488.441 83.8778C488.867 84.0967 489.334 84.2725 489.84 84.4051C490.346 84.5377 490.854 84.6424 491.363 84.719L493.692 85.0966C494.629 85.2329 495.537 85.4472 496.417 85.7395C497.304 86.0312 498.109 86.4253 498.833 86.9218C499.564 87.4177 500.163 88.04 500.631 88.7888C501.099 89.5376 501.381 90.4372 501.479 91.4878C501.611 92.9096 501.363 94.1921 500.736 95.3352C500.108 96.4705 499.135 97.4 497.816 98.1237C496.504 98.8388 494.876 99.278 492.931 99.4413C491.042 99.5999 489.375 99.4453 487.929 98.9776C486.492 98.5092 485.33 97.7471 484.443 96.6912C483.564 95.6346 483.019 94.3032 482.806 92.6972L487.134 92.3339C487.276 93.1737 487.602 93.8548 488.112 94.3771C488.623 94.8995 489.258 95.268 490.019 95.4827C490.788 95.6968 491.631 95.7653 492.547 95.6884C493.504 95.6081 494.329 95.3955 495.022 95.0508C495.722 94.6975 496.254 94.2469 496.617 93.6989C496.98 93.1431 497.133 92.5173 497.076 91.8216C497.01 91.1903 496.776 90.6846 496.374 90.3044C495.971 89.9163 495.429 89.6115 494.748 89.3902C494.073 89.1602 493.291 88.9712 492.401 88.823L489.572 88.344C487.524 87.9985 485.871 87.3532 484.613 86.4081C483.361 85.4545 482.655 84.1088 482.494 82.3711C482.361 80.9414 482.632 79.6569 483.307 78.5176C483.99 77.3777 484.976 76.4551 486.265 75.7499C487.553 75.0368 489.047 74.6089 490.747 74.4662C492.47 74.3215 494.007 74.4949 495.36 74.9864C496.719 75.4693 497.819 76.2088 498.66 77.2048C499.501 78.193 499.996 79.3693 500.147 80.7338L495.914 81.0892Z" fill="black"/>
<path d="M519.928 80.1061C519.794 79.0694 519.307 78.2698 518.47 77.7073C517.64 77.1447 516.57 76.8765 515.262 76.9027C514.342 76.9211 513.556 77.0756 512.904 77.3664C512.252 77.6571 511.756 78.0439 511.418 78.5267C511.08 79.0095 510.914 79.5563 510.92 80.1672C510.931 80.6747 511.056 81.1126 511.294 81.4807C511.541 81.8487 511.869 82.1595 512.279 82.4131C512.69 82.6588 513.143 82.864 513.638 83.0286C514.134 83.1933 514.633 83.3301 515.135 83.4391L517.432 83.9644C518.357 84.1601 519.248 84.4319 520.105 84.7798C520.969 85.1275 521.745 85.5721 522.432 86.1138C523.126 86.6553 523.681 87.3147 524.095 88.0919C524.509 88.8691 524.728 89.7851 524.752 90.8399C524.784 92.2674 524.448 93.5317 523.742 94.6328C523.037 95.7259 522.001 96.5917 520.635 97.2299C519.277 97.8601 517.622 98.1947 515.671 98.2337C513.775 98.2716 512.123 98.011 510.714 97.4521C509.313 96.893 508.207 96.0582 507.396 94.9477C506.594 93.8371 506.142 92.4735 506.042 90.8569L510.385 90.7701C510.467 91.6174 510.745 92.318 511.218 92.8719C511.69 93.4258 512.299 93.8341 513.042 94.0969C513.794 94.3596 514.63 94.4817 515.55 94.4633C516.51 94.4442 517.347 94.2846 518.063 93.9847C518.786 93.6766 519.347 93.2608 519.748 92.737C520.149 92.2053 520.345 91.5905 520.338 90.8924C520.315 90.2581 520.117 89.7384 519.743 89.3333C519.369 88.9203 518.849 88.5816 518.185 88.3172C517.528 88.0447 516.761 87.8061 515.884 87.6015L513.096 86.9431C511.077 86.4678 509.474 85.7183 508.284 84.6948C507.102 83.6631 506.492 82.275 506.453 80.5302C506.42 79.0948 506.781 77.83 507.534 76.7359C508.294 75.6416 509.342 74.7836 510.677 74.1618C512.012 73.5321 513.532 73.2002 515.237 73.1661C516.966 73.1316 518.488 73.4026 519.802 73.9794C521.124 74.548 522.17 75.3562 522.939 76.404C523.708 77.4439 524.12 78.6496 524.175 80.0211L519.928 80.1061Z" fill="black"/>
<path d="M530.359 97.8396L530.305 73.4704L546.154 73.4466L546.163 77.1472L534.728 77.1644L534.742 83.7802L545.356 83.7643L545.365 87.4649L534.751 87.4808L534.765 94.1324L546.295 94.115L546.304 97.8156L530.359 97.8396Z" fill="black"/>
<path d="M550.884 97.5425L551.471 73.1803L555.884 73.2916L555.387 93.9543L566.116 94.2249L566.027 97.9244L550.884 97.5425Z" fill="black"/>
<path d="M578.336 100.503L570.121 99.6554L572.632 75.4159L581.012 76.2811C583.419 76.5295 585.436 77.2282 587.064 78.3771C588.7 79.519 589.89 81.0414 590.634 82.9445C591.378 84.8475 591.62 87.0576 591.359 89.5746C591.097 92.0996 590.403 94.221 589.276 95.9388C588.157 97.6575 586.667 98.9113 584.807 99.7002C582.955 100.49 580.798 100.758 578.336 100.503ZM574.906 96.3095L578.516 96.6822C580.205 96.8565 581.645 96.6942 582.837 96.1952C584.03 95.6884 584.975 94.8488 585.67 93.6766C586.367 92.4964 586.811 90.9792 587.003 89.125C587.195 87.2707 587.07 85.7027 586.629 84.421C586.188 83.1315 585.443 82.1255 584.394 81.4031C583.353 80.6736 582.012 80.2241 580.37 80.0547L576.63 79.6685L574.906 96.3095Z" fill="black"/>
<path d="M597.22 102.465L592.562 101.752L604.868 78.9833L610.255 79.8081L614.922 105.175L610.264 104.462L606.871 84.3457L606.683 84.3169L597.22 102.465ZM598.873 93.0521L611.576 94.997L611.019 98.4989L598.316 96.5541L598.873 93.0521Z" fill="black"/>
<path d="M636.752 93.3892C636.653 92.7265 636.47 92.1198 636.202 91.5693C635.943 91.012 635.602 90.5193 635.178 90.091C634.763 89.6638 634.262 89.3169 633.678 89.0501C633.094 88.7754 632.441 88.5871 631.718 88.4851C630.422 88.3021 629.217 88.4644 628.103 88.9721C626.99 89.4798 626.045 90.3237 625.269 91.5038C624.501 92.6772 623.979 94.1655 623.7 95.9686C623.419 97.7874 623.468 99.3684 623.846 100.712C624.225 102.055 624.874 103.128 625.793 103.93C626.714 104.725 627.85 105.218 629.201 105.409C630.426 105.582 631.523 105.496 632.491 105.152C633.467 104.809 634.265 104.241 634.885 103.447C635.506 102.646 635.907 101.661 636.088 100.493L637.054 100.786L630.503 99.8609L631.03 96.4506L640.821 97.8328L640.374 100.726C640.055 102.788 639.34 104.509 638.228 105.89C637.116 107.271 635.727 108.261 634.061 108.859C632.397 109.449 630.567 109.603 628.572 109.321C626.349 109.007 624.474 108.234 622.947 107.001C621.429 105.761 620.341 104.154 619.683 102.179C619.034 100.196 618.906 97.9353 619.298 95.3952C619.598 93.451 620.141 91.7533 620.927 90.3022C621.721 88.8522 622.699 87.6645 623.861 86.7391C625.025 85.8059 626.321 85.1558 627.75 84.7887C629.181 84.4139 630.685 84.3379 632.264 84.5608C633.599 84.7493 634.814 85.1211 635.908 85.676C637.004 86.2232 637.944 86.9167 638.729 87.7565C639.522 88.5974 640.134 89.5489 640.564 90.6109C640.994 91.673 641.207 92.8086 641.205 94.0179L636.752 93.3892Z" fill="black"/>
<path d="M659.321 98.9274C659.496 97.8992 659.264 97.0013 658.624 96.2339C657.992 95.4684 657.043 94.9189 655.777 94.5853C654.887 94.3507 654.086 94.2831 653.374 94.3824C652.662 94.4818 652.072 94.7159 651.605 95.0849C651.138 95.4539 650.817 95.9313 650.643 96.517C650.505 97.0055 650.496 97.4584 650.617 97.8758C650.745 98.2952 650.97 98.6824 651.29 99.0374C651.612 99.3847 651.987 99.705 652.415 99.9983C652.843 100.292 653.282 100.559 653.733 100.801L655.787 101.933C656.618 102.374 657.394 102.878 658.116 103.445C658.845 104.015 659.46 104.652 659.96 105.358C660.469 106.067 660.808 106.849 660.978 107.706C661.147 108.563 661.088 109.499 660.801 110.514C660.412 111.888 659.717 113.004 658.715 113.864C657.715 114.716 656.465 115.26 654.964 115.496C653.473 115.726 651.783 115.593 649.897 115.095C648.063 114.612 646.551 113.91 645.361 112.989C644.179 112.071 643.361 110.969 642.909 109.685C642.464 108.403 642.431 106.976 642.811 105.402L647.01 106.51C646.84 107.342 646.901 108.088 647.193 108.748C647.484 109.407 647.949 109.964 648.587 110.419C649.232 110.876 650 111.222 650.889 111.457C651.818 111.701 652.67 111.778 653.445 111.688C654.231 111.591 654.894 111.348 655.433 110.957C655.974 110.558 656.344 110.024 656.542 109.354C656.707 108.741 656.669 108.19 656.429 107.7C656.191 107.203 655.791 106.737 655.23 106.302C654.679 105.861 654.011 105.423 653.228 104.986L650.742 103.593C648.941 102.585 647.62 101.429 646.778 100.124C645.945 98.8139 645.767 97.3191 646.242 95.6399C646.633 94.2584 647.352 93.1477 648.397 92.3078C649.45 91.4699 650.71 90.9366 652.176 90.7079C653.644 90.4715 655.203 90.5707 656.852 91.0054C658.525 91.4462 659.908 92.1224 661.001 93.0341C662.105 93.9402 662.872 94.9996 663.304 96.2125C663.738 97.4177 663.779 98.6836 663.428 100.01L659.321 98.9274Z" fill="black"/>
<path d="M135.947 109.137L131.506 107.56L148.436 87.7242L153.572 89.5484L152.822 115.131L148.381 113.554L149.28 93.3249L149.1 93.2611L135.947 109.137ZM139.561 100.285L151.67 104.587L150.383 107.891L138.274 103.589L139.561 100.285ZM148.628 84.9396C148.037 84.7298 147.606 84.341 147.333 83.773C147.069 83.2077 147.046 82.6442 147.264 82.0825C147.495 81.4911 147.901 81.0716 148.482 80.8238C149.074 80.5712 149.665 80.5498 150.256 80.7596C150.861 80.9747 151.291 81.3585 151.543 81.9111C151.806 82.459 151.823 83.0285 151.592 83.6199C151.374 84.1816 150.974 84.5951 150.394 84.8604C149.822 85.1283 149.233 85.1547 148.628 84.9396ZM155.355 87.3294C154.765 87.1196 154.333 86.7307 154.061 86.1628C153.796 85.5975 153.773 85.034 153.992 84.4722C154.222 83.8809 154.628 83.4613 155.21 83.2135C155.802 82.961 156.393 82.9396 156.984 83.1494C157.589 83.3645 158.018 83.7483 158.271 84.3009C158.534 84.8487 158.55 85.4183 158.32 86.0097C158.101 86.5714 157.702 86.9849 157.122 87.2502C156.55 87.5181 155.961 87.5445 155.355 87.3294Z" fill="black"/>
<path d="M1029.1 82.6567C1034.55 82.4327 1039.5 82.583 1039.32 78.1934C1039.23 75.925 1034.95 75.1121 1029.81 75.323C1024.67 75.5339 1020.24 78.6936 1020.33 80.962C1021.49 84.4728 1023.96 82.8675 1029.1 82.6567Z" fill="#FF5959"/>
<path d="M910.5 52.0003C922.5 51 955.5 46 955.5 46C955.5 46 943 46.5 934.5 47C929.509 47.2936 901.901 48.9419 899.5 48.5003C896.092 47.8734 894.91 46.4648 892 43.9997C892 43.9997 889.003 46.4759 889 48.0003C888.998 49.188 889.542 50.1334 890 50.5002C892.5 52.5002 897.438 52.5002 899 52.5003L899 52.5003C903.356 52.5003 906.827 52.3065 910.5 52.0003Z" fill="#D60000"/>
<path d="M899.5 120.5C888 119.5 883 117.499 876.5 114.5C870 111.5 868 110 863 109.5C862 110 861 112 862.5 113.499C862.5 113.499 870.5 118.499 877.5 120C880.649 120.675 885.5 122 885.5 122C885.5 122 894.5 123.754 899.5 124C902.426 124.144 904.072 124.05 907 124C911.495 123.923 914.014 123.782 918.5 123.5C923.193 123.204 925.828 123.032 930.5 122.5C933.436 122.165 935 122 937.5 121.5C938.785 121.243 941 120 941 120C941 120 930.08 120.5 928 120.5H917C913.095 120.5 903.391 120.838 899.5 120.5Z" fill="#D60000"/>
<path d="M866 108C871 108 932.5 109.5 937.5 110.5C942.5 111.5 944.132 112.953 944 116C943.875 118.9 942.5 120 939 121.5C935.5 123 915.435 124.5 904.5 124.5C893.566 124.5 873.957 120.809 864 115C858 111.5 863.157 108 866 108Z" stroke="black"/>
<path d="M1046 97C1049 93 1050 93 1053.5 91L1054.5 98.9079C1054.5 98.9079 1054.96 103.996 1054.96 107.197C1054.96 110.421 1055 110.882 1055 112.724V117.329L1054.96 126.5C1054.96 126.5 1048.5 124.357 1046 119C1043.95 114.614 1043 110.421 1043 107.197C1043 104.437 1043.79 99.9446 1046 97Z" fill="black" stroke="black" stroke-width="0.5"/>
<path d="M981.074 27.983C994.458 25.7734 1006.6 24.0068 1006.12 21.1322C1005.88 19.6467 995.371 20.7171 982.768 22.7978C970.165 24.8785 959.321 28.6686 959.567 30.1541C962.436 32.0701 968.471 30.0636 981.074 27.983Z" fill="#FF5959"/>
<defs>
<filter id="filter0_d_648_2" x="0.000488281" y="0" width="745.5" height="192.674" filterUnits="userSpaceOnUse" color-interpolation-filters="sRGB">
<feFlood flood-opacity="0" result="BackgroundImageFix"/>
<feColorMatrix in="SourceAlpha" type="matrix" values="0 0 0 0 0 0 0 0 0 0 0 0 0 0 0 0 0 0 127 0" result="hardAlpha"/>
<feOffset dy="4"/>
<feGaussianBlur stdDeviation="2"/>
<feComposite in2="hardAlpha" operator="out"/>
<feColorMatrix type="matrix" values="0 0 0 0 0 0 0 0 0 0 0 0 0 0 0 0 0 0 0.25 0"/>
<feBlend mode="normal" in2="BackgroundImageFix" result="effect1_dropShadow_648_2"/>
<feBlend mode="normal" in="SourceGraphic" in2="effect1_dropShadow_648_2" result="shape"/>
</filter>
<filter id="filter1_d_648_2" x="796" y="14.7793" width="277.799" height="191.18" filterUnits="userSpaceOnUse" color-interpolation-filters="sRGB">
<feFlood flood-opacity="0" result="BackgroundImageFix"/>
<feColorMatrix in="SourceAlpha" type="matrix" values="0 0 0 0 0 0 0 0 0 0 0 0 0 0 0 0 0 0 127 0" result="hardAlpha"/>
<feOffset dy="4"/>
<feGaussianBlur stdDeviation="2"/>
<feComposite in2="hardAlpha" operator="out"/>
<feColorMatrix type="matrix" values="0 0 0 0 0 0 0 0 0 0 0 0 0 0 0 0 0 0 0.25 0"/>
<feBlend mode="normal" in2="BackgroundImageFix" result="effect1_dropShadow_648_2"/>
<feBlend mode="normal" in="SourceGraphic" in2="effect1_dropShadow_648_2" result="shape"/>
</filter>
</defs>
</svg>
