<svg width="1070" height="206" viewBox="0 0 1070 206" fill="none" xmlns="http://www.w3.org/2000/svg">
<line x1="815.967" y1="118.872" x2="731.703" y2="150.504" stroke="black" stroke-width="4"/>
<line x1="814.34" y1="123.669" x2="728.405" y2="96.9097" stroke="black" stroke-width="4"/>
<path d="M32.4911 61.3631L24.2172 1.49909L54.6292 12.4132C55.1766 12.7128 56.2319 13.1617 57.6761 13.719C59.2239 14.3162 61.2846 15.0627 63.7965 15.9222C68.8214 17.6415 75.6681 19.8185 83.8583 22.1653C100.238 26.8584 122.008 32.2355 145.342 35.9873C190.535 43.2538 241.577 44.0522 268.706 44.0522C311.634 44.0522 335.379 38.4018 362.156 32.0304C369.846 30.2003 377.787 28.3108 386.504 26.4786C422.205 18.9747 471.005 13.4998 492.866 13.5C495.312 13.5 497.648 13.4926 499.921 13.4853C519.869 13.422 535.058 13.3738 578.318 18.493C641.439 25.9625 706.914 38.1478 729.276 42.4603C733.478 43.2708 736.501 46.9537 736.501 51.2409V174.61C736.501 180.281 731.358 184.558 725.786 183.517C700.382 178.773 638.278 167.637 578.554 160.507C530.106 154.723 493.411 153.496 472.322 155.003C451.26 156.507 403.613 163.891 371.905 171.024C334.212 179.505 300.959 181 278.155 181C228.778 181 186.654 175.816 132.697 165.019C122.819 163.043 104.742 157.784 87.3542 152.144C69.9543 146.5 53.3675 140.515 46.4424 137.103C32.4566 130.213 29.9601 128.905 21.5642 123.174C15.7675 119.217 10.5426 115.112 6.76499 111.995C4.87695 110.436 3.35226 109.126 2.30053 108.206C1.90501 107.86 1.57644 107.57 1.32066 107.342L32.3256 62.065L32.544 61.746L32.4911 61.3631Z" fill="white" stroke="black" stroke-width="2"/>
<g filter="url(#filter0_d_444_669)">
<path d="M852.297 152.751L852.303 152.737L852.31 152.724C854.555 148.643 856.504 146.005 857.942 144.342C858.275 143.958 858.581 143.625 858.856 143.339C857.281 143.734 854.795 144.149 851.2 144.149L851.179 144.149L851.158 144.147C850.208 144.068 849.376 143.99 848.643 143.922C847.467 143.812 846.547 143.726 845.801 143.695C844.579 143.645 843.995 143.757 843.618 144.032C843.233 144.312 842.956 144.834 842.585 145.949C842.461 146.323 842.325 146.766 842.169 147.275C841.884 148.202 841.532 149.349 841.06 150.698C839.648 154.732 839.797 156.954 840.61 158.161C841.412 159.354 843.011 159.768 845.119 159.768C845.735 159.768 846.23 159.916 846.629 160.159C847.024 160.4 847.298 160.717 847.496 161.016C847.649 161.246 847.77 161.486 847.859 161.664C847.866 161.677 847.873 161.691 847.879 161.704C848.053 161.453 848.292 161.035 848.632 160.376C849.297 159.086 850.3 156.967 851.888 153.615C852.02 153.336 852.156 153.048 852.297 152.751ZM848.033 161.973C848.033 161.973 848.032 161.971 848.029 161.969C848.032 161.972 848.033 161.973 848.033 161.973Z" fill="#8B6321" stroke="black"/>
<path d="M981.29 160.858L981.284 160.844L981.277 160.831C980.16 158.8 979.189 157.105 978.374 155.696C978.186 155.372 978.007 155.063 977.837 154.768C977.265 153.783 976.79 152.963 976.412 152.279C975.917 151.384 975.61 150.761 975.472 150.331C975.403 150.116 975.389 149.988 975.394 149.921C975.395 149.907 975.396 149.897 975.398 149.891C975.414 149.881 975.465 149.855 975.586 149.835C975.732 149.811 975.935 149.803 976.21 149.815C976.738 149.836 977.44 149.923 978.357 150.036C978.403 150.042 978.45 150.048 978.497 150.053C980.453 150.295 983.239 150.627 986.918 150.627L986.934 150.627L986.95 150.626C988.203 150.548 989.311 150.47 990.291 150.401C991.865 150.291 993.112 150.203 994.114 150.173C994.923 150.148 995.542 150.162 996.02 150.227C996.498 150.292 996.797 150.402 996.995 150.541C997.361 150.799 997.55 151.274 997.623 152.444C997.654 152.954 997.664 153.554 997.675 154.276C997.676 154.359 997.677 154.443 997.678 154.528C997.692 155.359 997.71 156.328 997.769 157.45C997.875 159.466 997.864 161.03 997.727 162.245C997.589 163.462 997.329 164.289 996.967 164.857C996.281 165.933 995.115 166.246 992.999 166.246C991.736 166.246 990.776 166.973 990.001 167.649C989.85 167.781 989.709 167.908 989.573 168.031C989.34 168.241 989.122 168.438 988.892 168.623C988.538 168.908 988.22 169.11 987.908 169.209C987.613 169.302 987.308 169.309 986.953 169.171C986.583 169.026 986.133 168.714 985.587 168.119C984.491 166.923 983.111 164.701 981.29 160.858Z" fill="#8B6321" stroke="black"/>
<path d="M853.922 167.963C853.922 174.555 848.459 179.934 841.675 179.934C834.891 179.934 829.428 174.555 829.428 167.963C829.428 161.372 834.891 155.992 841.675 155.992C848.459 155.992 853.922 161.372 853.922 167.963Z" fill="#D9D9D9" stroke="black" stroke-width="2"/>
<path d="M847.799 167.963C847.799 171.517 845.038 174.363 841.675 174.363C838.312 174.363 835.552 171.517 835.552 167.963C835.552 164.409 838.312 161.563 841.675 161.563C845.038 161.563 847.799 164.409 847.799 167.963Z" fill="black" stroke="black"/>
<path d="M1018.75 178.908C1018.75 188.858 1010.51 196.959 1000.3 196.959C990.082 196.959 981.839 188.858 981.839 178.908C981.839 168.958 990.082 160.856 1000.3 160.856C1010.51 160.856 1018.75 168.958 1018.75 178.908Z" fill="#D9D9D9" stroke="black" stroke-width="2"/>
<path d="M1009.52 178.907C1009.52 184.247 1005.37 188.541 1000.3 188.541C995.218 188.541 991.067 184.247 991.067 178.907C991.067 173.567 995.218 169.273 1000.3 169.273C1005.37 169.273 1009.52 173.567 1009.52 178.907Z" fill="black" stroke="black"/>
<rect x="910.016" y="48.0747" width="10.9417" height="34.6706" transform="rotate(-2.14121 910.016 48.0747)" fill="#8B6321" stroke="black"/>
<rect x="981.37" y="40.3062" width="10.9417" height="34.6706" transform="rotate(-3.73245 981.37 40.3062)" fill="#8B6321" stroke="black"/>
<path d="M1064.34 107.567C1064.34 113.648 1060.35 114.458 1055.42 114.458C1046.91 116.08 1036.37 111.779 1036.37 107.973C1036.37 104.167 1046.1 99.8659 1055.42 100.677C1060.35 100.677 1063.94 101.893 1064.34 107.567Z" fill="black"/>
<path d="M1062.72 131.077C1066.37 157.02 1068.8 161.073 1057.85 161.073C1050.97 161.073 1053.8 144.872 1053.8 131.888C1055.42 110.81 1055.02 113.136 1057.04 113C1059.48 112.836 1059.07 112.431 1062.72 131.077Z" fill="black"/>
<path d="M1051.37 84.4617C1047.91 58.4941 1044.66 54.4446 1055.6 54.5227C1062.49 54.5718 1059.97 71.0724 1059.88 84.0564C1058.11 105.123 1059.07 102.175 1057.04 102.297C1054.61 102.443 1054.88 103.133 1051.37 84.4617Z" fill="black"/>
<path d="M1009.82 26.7934L1009.82 26.8766L1009.84 26.9568C1010.56 29.5346 1010.96 31.6287 1011.03 33.3409C1011.09 35.0502 1010.83 36.3476 1010.24 37.3603C1009.08 39.3796 1006.53 40.4785 1002.03 41.1927C998.628 41.7321 994.237 42.0373 988.719 42.4208C986.975 42.5421 985.118 42.6711 983.144 42.8179C974.943 43.4276 964.77 44.3408 952.39 46.2688C950.028 46.6163 947.662 46.9682 945.302 47.3191C931.24 49.4097 917.425 51.4636 906.508 52.3332C900.13 52.8413 894.778 52.9415 890.96 52.4196C889.048 52.1583 887.561 51.7459 886.529 51.1784C885.508 50.6168 884.98 49.9335 884.861 49.1224C884.706 48.0663 885.02 46.9701 885.822 45.8246C886.628 44.6737 887.908 43.4994 889.625 42.3193C893.056 39.9597 898.132 37.6434 904.311 35.4682C916.66 31.121 933.3 27.3777 949.7 24.9642C958.236 23.708 966.388 21.8101 973.778 20.0283C974.537 19.8455 975.287 19.6639 976.029 19.4844C982.525 17.9121 988.364 16.4991 993.311 15.779C998.849 14.9731 1003.13 15.0605 1005.94 16.6427C1008.67 18.1814 1010.15 21.2311 1009.82 26.7934Z" fill="#FF0000" stroke="black"/>
<path d="M856.35 74.5027L856.356 74.5123L856.361 74.5216C861.676 83.4869 865.34 90.5955 867.659 96.1725C869.983 101.761 870.937 105.766 870.883 108.541C870.856 109.921 870.58 110.971 870.122 111.757C869.668 112.536 869.018 113.085 868.188 113.444C866.496 114.174 864.044 114.117 861.041 113.474C855.185 112.219 847.633 108.831 840.576 105.665L840.109 105.455C836.527 103.848 833.09 102.315 830.113 101.184C827.155 100.06 824.579 99.3032 822.742 99.3032C820.778 99.3032 819.077 100.57 817.605 102.375C816.124 104.192 814.796 106.651 813.589 109.245C812.643 111.277 811.761 113.418 810.934 115.422C810.705 115.978 810.48 116.524 810.26 117.054C809.234 119.514 808.307 121.616 807.441 122.938C807.003 123.607 806.622 124.009 806.306 124.182C806.159 124.264 806.044 124.284 805.952 124.277C805.861 124.27 805.745 124.231 805.6 124.114C805.29 123.866 804.92 123.321 804.52 122.321C804.127 121.337 803.728 119.974 803.322 118.163C801.699 110.907 800.034 96.7304 798.108 71.7957L797.61 71.8342L798.108 71.7957C797.912 69.2555 797.554 66.8674 797.227 64.685C797.033 63.3877 796.849 62.1631 796.717 61.0223C796.356 57.9064 796.363 55.3449 797.389 53.2016C798.404 51.0805 800.468 49.2736 804.449 47.792C808.437 46.3076 814.29 45.1724 822.789 44.3629L822.813 44.3606L822.837 44.356C823.744 44.1805 824.604 44.0122 825.42 43.8525C830.289 42.9001 833.609 42.2508 836.06 42.1696C837.478 42.1227 838.56 42.2691 839.457 42.6346C840.346 42.997 841.091 43.5905 841.81 44.5021C842.535 45.4221 843.226 46.6561 844.004 48.2878C844.675 49.6967 845.401 51.3785 846.266 53.3818C846.402 53.6966 846.541 54.0194 846.684 54.3503C848.789 59.2171 851.682 65.7854 856.35 74.5027Z" fill="#FF0000" stroke="black"/>
<path d="M1050.87 109.608C1051.32 124.421 1051.1 134.195 1048.75 140.642C1047.59 143.841 1045.9 146.2 1043.52 147.947C1041.13 149.7 1038 150.861 1033.91 151.602C1025.7 153.087 1013.79 152.853 996.567 152.468L995.634 152.447C978.558 152.065 956.405 151.569 927.738 152.465C867.746 150.64 836.727 146.206 820.711 139.722C812.721 136.487 808.527 132.766 806.308 128.66C804.08 124.538 803.796 119.952 803.796 114.863C803.796 109.942 805.941 105.602 810.515 101.755C815.107 97.8934 822.139 94.5389 831.864 91.6403C851.31 85.8447 881.353 81.9209 923.7 79.2861C949.666 79.2853 970.51 77.0029 987.198 74.6326C992.46 73.8852 997.3 73.1307 1001.75 72.4365C1011.45 70.9245 1019.32 69.6985 1025.7 69.4564C1034.99 69.104 1040.92 70.8455 1044.74 76.6664C1046.67 79.6094 1048.08 83.6313 1049.07 89.0402C1050.05 94.4467 1050.62 101.208 1050.87 109.608Z" fill="#FF0000" stroke="black"/>
<path d="M882 142.5C868.475 141.813 857 139.5 848 138C838.31 136.385 831.5 135.025 823 132C812.582 128.293 805.5 125.5 805.5 125.5C805.5 125.5 806.919 129.919 808.5 131.5C811 134 813.602 136 815.5 137C818.068 138.353 822.235 140.115 825 141C830.367 142.718 832.989 143.321 838.5 144.5C847.007 146.319 851.857 147.009 860.5 148C868.281 148.892 872.687 149.445 880.5 150C889.284 150.624 895.709 150.983 904.5 151.5C913 152 919.5 152 929 152H947H976C987.325 152 993.98 152.5 1005.5 152.5C1015.07 152.5 1020 152.5 1028.5 152C1033.32 151.716 1041.5 149 1041.5 149C1041.5 149 1014.17 147.397 1009 147C996 146 989.5 146 976 145.5C962.731 145.009 956.778 144.5 943.5 144.5H916.5C902.832 144.5 895.651 143.194 882 142.5Z" fill="#D60000"/>
</g>
<path d="M131.621 77.9537L129.415 97.8275L129.646 97.9245L143.529 82.9727L148.002 84.8583L129.859 103.641L124.837 101.524L127.158 76.0728L131.621 77.9537Z" fill="black"/>
<path d="M160.369 114.887L167.629 91.6245L171.874 92.8332L165.717 112.563L176.04 115.502L174.938 119.035L160.369 114.887Z" fill="black"/>
<path d="M179.038 120.143L184.628 96.4239L188.944 97.3524L186.376 108.251L186.666 108.313L198.53 99.4146L203.799 100.548L192.078 109.21L198.29 124.285L193.102 123.169L188.391 111.471L185.019 114.007L183.354 121.072L179.038 120.143Z" fill="black"/>
<path d="M223.841 115.673C223.442 118.268 222.613 120.422 221.355 122.136C220.105 123.843 218.569 125.069 216.745 125.814C214.929 126.56 212.964 126.785 210.851 126.488C208.738 126.191 206.92 125.435 205.398 124.22C203.884 122.998 202.782 121.398 202.091 119.418C201.409 117.432 201.267 115.145 201.664 112.558C202.063 109.963 202.887 107.812 204.137 106.105C205.395 104.391 206.932 103.161 208.748 102.415C210.572 101.67 212.54 101.446 214.654 101.743C216.767 102.04 218.581 102.795 220.096 104.009C221.618 105.224 222.72 106.825 223.402 108.811C224.093 110.79 224.239 113.077 223.841 115.673ZM219.445 115.055C219.726 113.228 219.676 111.647 219.295 110.312C218.924 108.971 218.285 107.908 217.378 107.124C216.472 106.332 215.364 105.843 214.052 105.659C212.74 105.475 211.531 105.638 210.426 106.147C209.321 106.649 208.386 107.491 207.618 108.672C206.86 109.847 206.34 111.348 206.06 113.175C205.779 115.002 205.824 116.587 206.196 117.928C206.577 119.263 207.22 120.327 208.125 121.119C209.032 121.903 210.141 122.387 211.453 122.571C212.765 122.756 213.973 122.597 215.077 122.095C216.183 121.586 217.115 120.743 217.873 119.568C218.641 118.387 219.165 116.882 219.445 115.055Z" fill="black"/>
<path d="M228.418 103.954L233.807 104.337L239.657 122.457L239.941 122.477L248.525 105.386L253.913 105.769L252.027 130.065L247.801 129.765L249.097 113.073L248.872 113.057L240.864 129.199L237.706 128.974L232.282 111.839L232.056 111.823L230.758 128.551L226.532 128.25L228.418 103.954Z" fill="black"/>
<path d="M258.826 105.961L264.226 106.097L270.981 123.93L271.267 123.938L278.977 106.468L284.377 106.604L283.718 130.964L279.484 130.857L279.936 114.122L279.71 114.116L272.527 130.611L269.363 130.531L263.081 113.662L262.855 113.656L262.402 130.428L258.167 130.321L258.826 105.961Z" fill="black"/>
<path d="M289.77 130.992L289.942 106.623L305.791 106.733L305.765 110.433L294.331 110.354L294.284 116.97L304.898 117.043L304.871 120.744L294.258 120.67L294.211 127.322L305.741 127.402L305.715 131.102L289.77 130.992Z" fill="black"/>
<path d="M326.883 103.53L330.327 127.654L326.433 128.159L312.699 113.201L312.499 113.227L314.845 129.659L310.467 130.226L307.023 106.102L310.94 105.594L324.664 120.565L324.876 120.538L322.528 104.094L326.883 103.53Z" fill="black"/>
<path d="M340.823 105.019L340.089 101.392L359.211 97.8767L359.946 101.504L352.538 102.866L356.638 123.124L352.332 123.915L348.231 103.658L340.823 105.019Z" fill="black"/>
<path d="M367.335 96.2285L372.538 120.036L368.208 120.895L363.005 97.0881L367.335 96.2285Z" fill="black"/>
<path d="M377.417 119.058L372.044 95.2881L376.368 94.3999L380.925 114.56L391.439 112.401L392.255 116.01L377.417 119.058Z" fill="black"/>
<path d="M396.77 115.067L391.419 91.2921L395.744 90.4077L400.282 110.572L410.798 108.422L411.61 112.032L396.77 115.067Z" fill="black"/>
<path d="M425.974 109.202L421.256 85.2939L430.251 83.6817C432.094 83.3514 433.708 83.4168 435.092 83.8777C436.484 84.3373 437.619 85.109 438.496 86.1927C439.379 87.2673 439.97 88.5634 440.27 90.081C440.572 91.6142 440.517 93.0342 440.104 94.3411C439.691 95.648 438.919 96.7572 437.789 97.6688C436.658 98.5726 435.167 99.1903 433.317 99.522L427.355 100.591L426.652 97.03L432.028 96.0664C433.106 95.8733 433.951 95.5284 434.565 95.0317C435.178 94.535 435.584 93.9303 435.783 93.2178C435.99 92.5039 436.01 91.7228 435.842 90.8745C435.675 90.0262 435.36 89.3091 434.896 88.7234C434.441 88.1362 433.83 87.7259 433.065 87.4924C432.306 87.2498 431.383 87.2258 430.298 87.4203L426.316 88.134L430.32 108.423L425.974 109.202Z" fill="black"/>
<path d="M459.715 79.0532L464.088 78.4425L466.509 94.1782C466.775 95.903 466.6 97.4772 465.984 98.9007C465.377 100.323 464.395 101.505 463.039 102.447C461.682 103.382 460.022 103.986 458.058 104.26C456.086 104.536 454.309 104.412 452.728 103.888C451.145 103.356 449.848 102.492 448.838 101.295C447.827 100.099 447.189 98.6385 446.923 96.9136L444.501 81.178L448.874 80.5674L451.239 95.9384C451.394 96.942 451.751 97.8051 452.312 98.5277C452.88 99.2492 453.604 99.7768 454.482 100.111C455.358 100.437 456.351 100.522 457.458 100.368C458.566 100.213 459.491 99.8596 460.233 99.3075C460.981 98.7465 461.515 98.0433 461.834 97.1978C462.153 96.3523 462.236 95.4278 462.081 94.4242L459.715 79.0532Z" fill="black"/>
<path d="M485.914 83.0897C485.707 82.0642 485.166 81.2977 484.29 80.7901C483.423 80.2818 482.337 80.0825 481.032 80.192C480.115 80.2689 479.342 80.4732 478.711 80.8048C478.081 81.1363 477.614 81.5536 477.31 82.0568C477.006 82.5599 476.878 83.1159 476.927 83.7247C476.973 84.2303 477.129 84.659 477.392 85.011C477.664 85.3624 478.013 85.6514 478.441 85.8783C478.867 86.0972 479.334 86.2729 479.84 86.4056C480.346 86.5382 480.854 86.6428 481.363 86.7195L483.692 87.0971C484.629 87.2334 485.537 87.4477 486.417 87.74C487.304 88.0317 488.109 88.4258 488.833 88.9223C489.564 89.4181 490.163 90.0405 490.631 90.7893C491.099 91.5381 491.381 92.4377 491.479 93.4883C491.611 94.9101 491.363 96.1925 490.736 97.3357C490.108 98.471 489.135 99.4005 487.816 100.124C486.504 100.839 484.876 101.278 482.931 101.442C481.042 101.6 479.375 101.446 477.929 100.978C476.492 100.51 475.33 99.7476 474.443 98.6916C473.564 97.635 473.019 96.3037 472.806 94.6977L477.134 94.3343C477.276 95.1742 477.602 95.8553 478.112 96.3776C478.623 96.8999 479.258 97.2685 480.019 97.4832C480.788 97.6973 481.631 97.7658 482.547 97.6889C483.504 97.6086 484.329 97.396 485.022 97.0513C485.722 96.698 486.254 96.2474 486.617 95.6994C486.98 95.1436 487.133 94.5178 487.076 93.822C487.01 93.1908 486.776 92.6851 486.374 92.3049C485.971 91.9168 485.429 91.612 484.748 91.3906C484.073 91.1607 483.291 90.9716 482.401 90.8235L479.572 90.3445C477.524 89.999 475.871 89.3537 474.613 88.4086C473.361 87.455 472.655 86.1093 472.494 84.3715C472.361 82.9419 472.632 81.6574 473.307 80.5181C473.99 79.3782 474.976 78.4556 476.265 77.7504C477.553 77.0372 479.047 76.6093 480.747 76.4667C482.47 76.322 484.007 76.4954 485.36 76.9869C486.719 77.4698 487.819 78.2092 488.66 79.2053C489.501 80.1935 489.996 81.3698 490.147 82.7343L485.914 83.0897Z" fill="black"/>
<path d="M509.928 82.1061C509.794 81.0694 509.307 80.2698 508.47 79.7073C507.64 79.1447 506.57 78.8765 505.262 78.9027C504.342 78.9211 503.556 79.0756 502.904 79.3664C502.252 79.6571 501.756 80.0439 501.418 80.5267C501.08 81.0095 500.914 81.5563 500.92 82.1672C500.931 82.6747 501.056 83.1126 501.294 83.4807C501.541 83.8487 501.869 84.1595 502.279 84.4131C502.69 84.6588 503.143 84.864 503.638 85.0286C504.134 85.1933 504.633 85.3301 505.135 85.4391L507.432 85.9644C508.357 86.1601 509.248 86.4319 510.105 86.7798C510.969 87.1275 511.745 87.5721 512.432 88.1138C513.126 88.6553 513.681 89.3147 514.095 90.0919C514.509 90.8691 514.728 91.7851 514.752 92.8399C514.784 94.2674 514.448 95.5317 513.742 96.6328C513.037 97.7259 512.001 98.5917 510.635 99.2299C509.277 99.8601 507.622 100.195 505.671 100.234C503.775 100.272 502.123 100.011 500.714 99.4521C499.313 98.893 498.207 98.0582 497.396 96.9477C496.594 95.8371 496.142 94.4735 496.042 92.8569L500.385 92.7701C500.467 93.6174 500.745 94.318 501.218 94.8719C501.69 95.4258 502.299 95.8341 503.042 96.0969C503.794 96.3596 504.63 96.4817 505.55 96.4633C506.51 96.4442 507.347 96.2846 508.063 95.9847C508.786 95.6766 509.347 95.2608 509.748 94.737C510.149 94.2053 510.345 93.5905 510.338 92.8924C510.315 92.2581 510.117 91.7384 509.743 91.3333C509.369 90.9203 508.849 90.5816 508.185 90.3172C507.528 90.0447 506.761 89.8061 505.884 89.6015L503.096 88.9431C501.077 88.4678 499.474 87.7183 498.284 86.6948C497.102 85.6631 496.492 84.275 496.453 82.5302C496.42 81.0948 496.781 79.83 497.534 78.7359C498.294 77.6416 499.342 76.7836 500.677 76.1618C502.012 75.5321 503.532 75.2002 505.237 75.1661C506.966 75.1316 508.488 75.4026 509.802 75.9794C511.124 76.548 512.17 77.3562 512.939 78.404C513.708 79.4439 514.12 80.6496 514.175 82.0211L509.928 82.1061Z" fill="black"/>
<path d="M520.359 99.8401L520.305 75.4709L536.154 75.4471L536.163 79.1477L524.728 79.1649L524.742 85.7807L535.356 85.7648L535.365 89.4654L524.751 89.4813L524.765 96.1328L536.295 96.1155L536.304 99.8161L520.359 99.8401Z" fill="black"/>
<path d="M540.884 99.5425L541.471 75.1803L545.884 75.2916L545.387 95.9543L556.116 96.2249L556.027 99.9244L540.884 99.5425Z" fill="black"/>
<path d="M568.336 102.504L560.121 101.656L562.632 77.4164L571.012 78.2815C573.419 78.53 575.436 79.2287 577.064 80.3776C578.7 81.5195 579.89 83.0419 580.634 84.945C581.378 86.848 581.62 89.058 581.359 91.5751C581.097 94.1001 580.403 96.2215 579.276 97.9393C578.157 99.658 576.667 100.912 574.807 101.701C572.955 102.49 570.798 102.758 568.336 102.504ZM564.906 98.31L568.516 98.6827C570.205 98.857 571.645 98.6947 572.837 98.1957C574.03 97.6889 574.975 96.8493 575.67 95.6771C576.367 94.4969 576.811 92.9797 577.003 91.1254C577.195 89.2712 577.07 87.7032 576.629 86.4215C576.188 85.132 575.443 84.126 574.394 83.4036C573.353 82.6741 572.012 82.2246 570.37 82.0551L566.63 81.669L564.906 98.31Z" fill="black"/>
<path d="M587.22 104.465L582.562 103.752L594.868 80.9833L600.255 81.8081L604.922 107.175L600.264 106.462L596.871 86.3457L596.683 86.3169L587.22 104.465ZM588.873 95.0521L601.576 96.997L601.019 100.499L588.316 98.5541L588.873 95.0521Z" fill="black"/>
<path d="M626.752 95.3892C626.653 94.7265 626.47 94.1198 626.202 93.5693C625.943 93.012 625.602 92.5193 625.178 92.091C624.763 91.6638 624.262 91.3169 623.678 91.0501C623.094 90.7754 622.441 90.5871 621.718 90.4851C620.422 90.3021 619.217 90.4644 618.103 90.9721C616.99 91.4798 616.045 92.3237 615.269 93.5038C614.501 94.6772 613.979 96.1655 613.7 97.9686C613.419 99.7874 613.468 101.368 613.846 102.712C614.225 104.055 614.874 105.128 615.793 105.93C616.714 106.725 617.85 107.218 619.201 107.409C620.426 107.582 621.523 107.496 622.491 107.152C623.467 106.809 624.265 106.241 624.885 105.447C625.506 104.646 625.907 103.661 626.088 102.493L627.054 102.786L620.503 101.861L621.03 98.4506L630.821 99.8328L630.374 102.726C630.055 104.788 629.34 106.509 628.228 107.89C627.116 109.271 625.727 110.261 624.061 110.859C622.397 111.449 620.567 111.603 618.572 111.321C616.349 111.007 614.474 110.234 612.947 109.001C611.429 107.761 610.341 106.154 609.683 104.179C609.034 102.196 608.906 99.9353 609.298 97.3952C609.598 95.451 610.141 93.7533 610.927 92.3022C611.721 90.8522 612.699 89.6645 613.861 88.7391C615.025 87.8059 616.321 87.1558 617.75 86.7887C619.181 86.4139 620.685 86.3379 622.264 86.5608C623.599 86.7493 624.814 87.1211 625.908 87.676C627.004 88.2232 627.944 88.9167 628.729 89.7565C629.522 90.5974 630.134 91.5489 630.564 92.6109C630.994 93.673 631.207 94.8086 631.205 96.0179L626.752 95.3892Z" fill="black"/>
<path d="M649.321 100.927C649.496 99.8987 649.264 99.0008 648.624 98.2334C647.992 97.4679 647.043 96.9184 645.777 96.5848C644.887 96.3502 644.086 96.2826 643.374 96.3819C642.662 96.4813 642.072 96.7154 641.605 97.0844C641.138 97.4534 640.817 97.9308 640.643 98.5165C640.505 99.005 640.496 99.4579 640.617 99.8753C640.745 100.295 640.97 100.682 641.29 101.037C641.612 101.384 641.987 101.705 642.415 101.998C642.843 102.291 643.282 102.559 643.733 102.801L645.787 103.932C646.618 104.373 647.394 104.877 648.116 105.445C648.845 106.014 649.46 106.652 649.96 107.358C650.469 108.066 650.808 108.849 650.978 109.705C651.147 110.562 651.088 111.498 650.801 112.513C650.412 113.887 649.717 115.004 648.715 115.864C647.715 116.716 646.465 117.26 644.964 117.495C643.473 117.726 641.783 117.592 639.897 117.095C638.063 116.612 636.551 115.91 635.361 114.989C634.179 114.07 633.361 112.969 632.909 111.685C632.464 110.403 632.431 108.975 632.811 107.402L637.01 108.509C636.84 109.342 636.901 110.088 637.193 110.747C637.484 111.406 637.949 111.964 638.587 112.419C639.232 112.876 640 113.222 640.889 113.456C641.818 113.701 642.67 113.778 643.445 113.687C644.231 113.591 644.894 113.347 645.433 112.956C645.974 112.557 646.344 112.023 646.542 111.354C646.707 110.741 646.669 110.19 646.429 109.7C646.191 109.202 645.791 108.736 645.23 108.301C644.679 107.86 644.011 107.422 643.228 106.986L640.742 105.592C638.941 104.585 637.62 103.429 636.778 102.124C635.945 100.813 635.767 99.3186 636.242 97.6394C636.633 96.2579 637.352 95.1472 638.397 94.3073C639.45 93.4694 640.71 92.9361 642.176 92.7074C643.644 92.471 645.203 92.5702 646.852 93.0049C648.525 93.4457 649.908 94.1219 651.001 95.0336C652.105 95.9397 652.872 96.9992 653.304 98.212C653.738 99.4172 653.779 100.683 653.428 102.01L649.321 100.927Z" fill="black"/>
<path d="M140.947 108.137L136.506 106.56L153.436 86.7242L158.572 88.5484L157.822 114.131L153.381 112.554L154.28 92.3249L154.1 92.2611L140.947 108.137ZM144.561 99.2854L156.67 103.587L155.383 106.891L143.274 102.589L144.561 99.2854ZM153.628 83.9396C153.037 83.7298 152.606 83.341 152.333 82.773C152.069 82.2077 152.046 81.6442 152.264 81.0825C152.495 80.4911 152.901 80.0716 153.482 79.8238C154.074 79.5712 154.665 79.5498 155.256 79.7596C155.861 79.9747 156.291 80.3585 156.543 80.9111C156.806 81.459 156.823 82.0285 156.592 82.6199C156.374 83.1816 155.974 83.5951 155.394 83.8604C154.822 84.1283 154.233 84.1547 153.628 83.9396ZM160.355 86.3294C159.765 86.1196 159.333 85.7307 159.061 85.1628C158.796 84.5975 158.773 84.034 158.992 83.4722C159.222 82.8809 159.628 82.4613 160.21 82.2135C160.802 81.961 161.393 81.9396 161.984 82.1494C162.589 82.3645 163.018 82.7483 163.271 83.3009C163.534 83.8487 163.55 84.4183 163.32 85.0097C163.101 85.5714 162.702 85.9849 162.122 86.2502C161.55 86.5181 160.961 86.5445 160.355 86.3294Z" fill="black"/>
<path d="M1025.1 82.6567C1030.55 82.4327 1035.5 82.583 1035.32 78.1934C1035.23 75.925 1030.95 75.1121 1025.81 75.323C1020.67 75.5339 1016.24 78.6936 1016.33 80.962C1017.49 84.4728 1019.96 82.8675 1025.1 82.6567Z" fill="#FF5959"/>
<path d="M906.5 52.0003C918.5 51 951.5 46 951.5 46C951.5 46 939 46.5 930.5 47C925.509 47.2936 897.901 48.9419 895.5 48.5003C892.092 47.8734 890.91 46.4648 888 43.9997C888 43.9997 885.003 46.4759 885 48.0003C884.998 49.188 885.542 50.1334 886 50.5002C888.5 52.5002 893.438 52.5002 895 52.5003L895 52.5003C899.356 52.5003 902.827 52.3065 906.5 52.0003Z" fill="#D60000"/>
<path d="M895.5 120.5C884 119.5 879 117.499 872.5 114.5C866 111.5 864 110 859 109.5C858 110 857 112 858.5 113.499C858.5 113.499 866.5 118.499 873.5 120C876.649 120.675 881.5 122 881.5 122C881.5 122 890.5 123.754 895.5 124C898.426 124.144 900.072 124.05 903 124C907.495 123.923 910.014 123.782 914.5 123.5C919.193 123.204 921.828 123.032 926.5 122.5C929.436 122.165 931 122 933.5 121.5C934.785 121.243 937 120 937 120C937 120 926.08 120.5 924 120.5H913C909.095 120.5 899.391 120.838 895.5 120.5Z" fill="#D60000"/>
<path d="M862 108C867 108 928.5 109.5 933.5 110.5C938.5 111.5 940.132 112.953 940 116C939.875 118.9 938.5 120 935 121.5C931.5 123 911.435 124.5 900.5 124.5C889.566 124.5 869.957 120.809 860 115C854 111.5 859.157 108 862 108Z" stroke="black"/>
<path d="M1042 97C1045 93 1046 93 1049.5 91L1050.5 98.9079C1050.5 98.9079 1050.96 103.996 1050.96 107.197C1050.96 110.421 1051 110.882 1051 112.724V117.329L1050.96 126.5C1050.96 126.5 1044.5 124.357 1042 119C1039.95 114.614 1039 110.421 1039 107.197C1039 104.437 1039.79 99.9446 1042 97Z" fill="black" stroke="black" stroke-width="0.5"/>
<path d="M977.074 27.983C990.458 25.7734 1002.6 24.0068 1002.12 21.1322C1001.88 19.6467 991.371 20.7171 978.768 22.7978C966.165 24.8785 955.321 28.6686 955.567 30.1541C958.436 32.0701 964.471 30.0636 977.074 27.983Z" fill="#FF5959"/>
<defs>
<filter id="filter0_d_444_669" x="792" y="14.7793" width="277.799" height="191.18" filterUnits="userSpaceOnUse" color-interpolation-filters="sRGB">
<feFlood flood-opacity="0" result="BackgroundImageFix"/>
<feColorMatrix in="SourceAlpha" type="matrix" values="0 0 0 0 0 0 0 0 0 0 0 0 0 0 0 0 0 0 127 0" result="hardAlpha"/>
<feOffset dy="4"/>
<feGaussianBlur stdDeviation="2"/>
<feComposite in2="hardAlpha" operator="out"/>
<feColorMatrix type="matrix" values="0 0 0 0 0 0 0 0 0 0 0 0 0 0 0 0 0 0 0.25 0"/>
<feBlend mode="normal" in2="BackgroundImageFix" result="effect1_dropShadow_444_669"/>
<feBlend mode="normal" in="SourceGraphic" in2="effect1_dropShadow_444_669" result="shape"/>
</filter>
</defs>
</svg>
