<svg width="278" height="193" viewBox="0 0 278 193" fill="none" xmlns="http://www.w3.org/2000/svg">
<g filter="url(#filter0_d_371_3289)">
<path d="M60.2967 139.752L60.3032 139.738L60.3105 139.725C62.555 135.644 64.5044 133.005 65.9425 131.343C66.2748 130.959 66.5808 130.626 66.8564 130.34C65.2805 130.735 62.7951 131.149 59.1996 131.149L59.1788 131.149L59.1581 131.147C58.2076 131.068 57.3759 130.991 56.6434 130.922C55.4674 130.813 54.5469 130.727 53.8006 130.696C52.5786 130.646 51.9952 130.758 51.6176 131.033C51.233 131.313 50.9563 131.834 50.5852 132.95C50.4609 133.324 50.325 133.767 50.1687 134.276C49.8843 135.203 49.5325 136.349 49.0601 137.699C47.6482 141.733 47.7972 143.955 48.6095 145.162C49.4124 146.355 51.0105 146.768 53.1194 146.768C53.7351 146.768 54.2305 146.916 54.6294 147.159C55.0245 147.4 55.2976 147.718 55.4963 148.017C55.6487 148.246 55.7696 148.486 55.859 148.664C55.8659 148.678 55.8726 148.691 55.8791 148.704C56.0533 148.454 56.2924 148.035 56.6321 147.376C57.2967 146.087 58.3003 143.967 59.8876 140.616C60.0198 140.336 60.1562 140.048 60.2967 139.752ZM56.0329 148.973C56.0329 148.973 56.0317 148.972 56.0292 148.969C56.0316 148.972 56.0329 148.974 56.0329 148.973Z" fill="#8B6321" stroke="black"/>
<path d="M189.29 147.858L189.284 147.844L189.277 147.831C188.16 145.8 187.189 144.106 186.374 142.697C186.186 142.372 186.007 142.063 185.837 141.769C185.265 140.783 184.79 139.964 184.412 139.28C183.917 138.385 183.61 137.762 183.472 137.331C183.403 137.116 183.389 136.989 183.394 136.921C183.395 136.907 183.396 136.898 183.398 136.892C183.414 136.882 183.465 136.856 183.586 136.836C183.732 136.812 183.935 136.804 184.21 136.815C184.738 136.837 185.44 136.923 186.357 137.037C186.403 137.042 186.45 137.048 186.497 137.054C188.453 137.295 191.239 137.627 194.918 137.627L194.934 137.627L194.95 137.626C196.203 137.548 197.311 137.47 198.291 137.402C199.865 137.291 201.112 137.204 202.114 137.173C202.923 137.149 203.542 137.163 204.02 137.228C204.498 137.292 204.797 137.403 204.995 137.542C205.361 137.799 205.55 138.275 205.623 139.445C205.654 139.954 205.664 140.555 205.675 141.277C205.676 141.359 205.677 141.443 205.678 141.529C205.692 142.359 205.71 143.328 205.769 144.451C205.875 146.466 205.864 148.031 205.727 149.245C205.589 150.462 205.329 151.289 204.967 151.857C204.281 152.933 203.115 153.247 200.999 153.247C199.736 153.247 198.776 153.973 198.001 154.649C197.85 154.781 197.709 154.909 197.573 155.031C197.34 155.241 197.122 155.438 196.892 155.623C196.538 155.909 196.22 156.11 195.908 156.209C195.613 156.303 195.308 156.31 194.953 156.171C194.583 156.027 194.133 155.714 193.587 155.119C192.491 153.924 191.111 151.702 189.29 147.858Z" fill="#8B6321" stroke="black"/>
<path d="M62.422 154.963C62.422 161.841 56.7249 167.434 49.6749 167.434C42.6248 167.434 36.9277 161.841 36.9277 154.963C36.9277 148.086 42.6248 142.492 49.6749 142.492C56.7249 142.492 62.422 148.086 62.422 154.963Z" fill="#D9D9D9" stroke="black"/>
<path d="M55.7989 154.963C55.7989 158.517 53.0382 161.363 49.6753 161.363C46.3124 161.363 43.5518 158.517 43.5518 154.963C43.5518 151.409 46.3124 148.563 49.6753 148.563C53.0382 148.563 55.7989 151.409 55.7989 154.963Z" fill="black" stroke="black"/>
<path d="M227.252 165.908C227.252 176.144 218.775 184.459 208.296 184.459C197.816 184.459 189.339 176.144 189.339 165.908C189.339 155.672 197.816 147.356 208.296 147.356C218.775 147.356 227.252 155.672 227.252 165.908Z" fill="#D9D9D9" stroke="black"/>
<path d="M217.524 165.908C217.524 171.248 213.373 175.541 208.296 175.541C203.218 175.541 199.067 171.248 199.067 165.908C199.067 160.568 203.218 156.274 208.296 156.274C213.373 156.274 217.524 160.568 217.524 165.908Z" fill="black" stroke="black"/>
<rect x="118.016" y="35.0747" width="10.9417" height="34.6706" transform="rotate(-2.14121 118.016 35.0747)" fill="#8B6321" stroke="black"/>
<rect x="189.37" y="27.3067" width="10.9417" height="34.6706" transform="rotate(-3.73245 189.37 27.3067)" fill="#8B6321" stroke="black"/>
<path d="M272.341 94.567C272.341 100.647 268.348 101.458 263.423 101.458C254.911 103.079 244.372 98.7781 244.372 94.9724C244.372 91.1666 254.1 86.8654 263.423 87.6761C268.348 87.6761 271.935 88.8921 272.341 94.567Z" fill="black"/>
<path d="M270.719 118.077C274.367 144.02 276.801 148.073 265.855 148.073C258.966 148.073 261.801 131.872 261.801 118.888C263.423 97.8096 263.022 100.136 265.043 100C267.476 99.8363 267.071 99.4313 270.719 118.077Z" fill="black"/>
<path d="M259.37 71.4622C255.906 45.4946 252.657 41.4451 263.603 41.5232C270.492 41.5723 267.975 58.0729 267.882 71.0568C266.11 92.1232 267.066 89.1759 265.044 89.2975C262.61 89.4439 262.884 90.1338 259.37 71.4622Z" fill="black"/>
<path d="M217.824 13.7939L217.819 13.8771L217.841 13.9573C218.56 16.5351 218.959 18.6292 219.026 20.3414C219.092 22.0507 218.826 23.3481 218.243 24.3608C217.08 26.3801 214.531 27.479 210.028 28.1932C206.628 28.7326 202.237 29.0378 196.719 29.4213C194.975 29.5425 193.118 29.6716 191.144 29.8184C182.943 30.4281 172.77 31.3413 160.39 33.2693C158.028 33.6168 155.662 33.9687 153.302 34.3196C139.24 36.4102 125.425 38.4641 114.508 39.3337C108.13 39.8418 102.778 39.942 98.9596 39.4201C97.0477 39.1588 95.5607 38.7464 94.529 38.1789C93.5078 37.6173 92.9804 36.934 92.861 36.1229C92.7056 35.0668 93.0204 33.9706 93.8222 32.8251C94.6277 31.6742 95.9082 30.4999 97.6245 29.3198C101.056 26.9602 106.132 24.6439 112.311 22.4687C124.66 18.1215 141.3 14.3782 157.7 11.9647C166.236 10.7085 174.388 8.81059 181.778 7.02881C182.537 6.84597 183.287 6.66441 184.029 6.48493C190.525 4.91258 196.364 3.49959 201.311 2.77949C206.849 1.97354 211.132 2.06094 213.94 3.64322C216.671 5.18188 218.149 8.23158 217.824 13.7939Z" fill="#FF0000" stroke="black"/>
<path d="M64.3504 61.5027L64.3555 61.5123L64.3611 61.5216C69.6763 70.4869 73.3396 77.5955 75.6587 83.1725C77.9825 88.7608 78.9372 92.7662 78.8832 95.5408C78.8563 96.9214 78.58 97.9711 78.1221 98.7567C77.668 99.5359 77.0184 100.085 76.1879 100.444C74.4962 101.174 72.0437 101.117 69.0407 100.474C63.1848 99.2194 55.633 95.831 48.5763 92.6646L48.1087 92.4549C44.5274 90.8482 41.0904 89.3149 38.1134 88.1838C35.1554 87.0599 32.5787 86.3032 30.7415 86.3032C28.7782 86.3032 27.0765 87.5702 25.605 89.3754C24.1243 91.1919 22.796 93.6508 21.589 96.2446C20.643 98.2774 19.7608 100.418 18.9343 102.422C18.7051 102.978 18.4803 103.524 18.2595 104.054C17.2345 106.514 16.3071 108.616 15.4409 109.938C15.0028 110.607 14.6221 111.009 14.3064 111.182C14.1589 111.264 14.0445 111.284 13.9521 111.277C13.8606 111.27 13.7448 111.231 13.5998 111.114C13.2901 110.866 12.9203 110.321 12.5204 109.321C12.1268 108.337 11.7276 106.974 11.3222 105.163C9.69852 97.9072 8.03444 83.7304 6.10846 58.7957L5.60994 58.8342L6.10846 58.7957C5.91223 56.2555 5.55428 53.8674 5.22716 51.685C5.03271 50.3877 4.84915 49.1631 4.71692 48.0223C4.35572 44.9064 4.36254 42.3449 5.38875 40.2016C6.40433 38.0805 8.468 36.2736 12.4487 34.792C16.4368 33.3076 22.2901 32.1724 30.7889 31.3629L30.8129 31.3606L30.8365 31.356C31.7435 31.1805 32.6038 31.0122 33.4204 30.8525C38.2892 29.9001 41.6087 29.2508 44.0602 29.1696C45.478 29.1227 46.5602 29.2691 47.457 29.6346C48.3463 29.997 49.0913 30.5905 49.8099 31.5021C50.5352 32.4221 51.2257 33.6561 52.0036 35.2878C52.6753 36.6967 53.4013 38.3785 54.2661 40.3818C54.402 40.6966 54.5414 41.0194 54.6845 41.3503C56.7891 46.2171 59.6822 52.7854 64.3504 61.5027Z" fill="#FF0000" stroke="black"/>
<path d="M258.87 96.6086C259.316 111.421 259.098 121.195 256.751 127.642C255.586 130.841 253.902 133.201 251.52 134.947C249.13 136.7 246.003 137.862 241.911 138.602C233.704 140.087 221.793 139.853 204.567 139.468L203.634 139.447C186.558 139.065 164.405 138.57 135.738 139.465C75.746 137.641 44.7274 133.206 28.7113 126.722C20.7213 123.488 16.5271 119.767 14.3077 115.66C12.0799 111.539 11.7964 106.952 11.7964 101.863C11.7964 96.942 13.9406 92.6027 18.5154 88.7555C23.1074 84.8939 30.1386 81.5394 39.8642 78.6408C59.3104 72.8452 89.3532 68.9214 131.7 66.2866C157.666 66.2858 178.51 64.0034 195.198 61.633C200.46 60.8857 205.3 60.1312 209.753 59.437C219.452 57.925 227.316 56.699 233.7 56.4568C242.986 56.1045 248.925 57.846 252.738 63.6668C254.666 66.6099 256.076 70.6318 257.065 76.0407C258.054 81.4472 258.617 88.2084 258.87 96.6086Z" fill="#FF0000" stroke="black"/>
</g>
<defs>
<filter id="filter0_d_371_3289" x="0" y="1.7793" width="277.799" height="191.18" filterUnits="userSpaceOnUse" color-interpolation-filters="sRGB">
<feFlood flood-opacity="0" result="BackgroundImageFix"/>
<feColorMatrix in="SourceAlpha" type="matrix" values="0 0 0 0 0 0 0 0 0 0 0 0 0 0 0 0 0 0 127 0" result="hardAlpha"/>
<feOffset dy="4"/>
<feGaussianBlur stdDeviation="2"/>
<feComposite in2="hardAlpha" operator="out"/>
<feColorMatrix type="matrix" values="0 0 0 0 0 0 0 0 0 0 0 0 0 0 0 0 0 0 0.25 0"/>
<feBlend mode="normal" in2="BackgroundImageFix" result="effect1_dropShadow_371_3289"/>
<feBlend mode="normal" in="SourceGraphic" in2="effect1_dropShadow_371_3289" result="shape"/>
</filter>
</defs>
</svg>
