<svg width="1150" height="193" viewBox="0 0 1150 193" fill="none" xmlns="http://www.w3.org/2000/svg">
<line x1="907.022" y1="122" x2="817.021" y2="122.978" stroke="black" stroke-width="4"/>
<path d="M817 39.2041V162.609C817 168.266 812.104 172.687 806.47 172.138C776.583 169.226 692.86 161.952 638.962 166.019C622.582 167.255 605.597 169.104 588.724 170.941L587.938 171.027C570.804 172.892 553.797 174.735 537.651 175.902C505.332 178.24 476.571 177.862 457.196 169.623C437.539 161.265 412.645 164.407 389.661 168.581C386.046 169.237 382.479 169.919 378.986 170.587C371.344 172.049 364.051 173.443 357.37 174.357C347.625 175.691 339.286 175.987 333.152 174.024C326.885 172.018 319.325 171.94 311.16 172.797C303.085 173.644 294.365 175.414 285.652 177.182L285.346 177.244C276.519 179.035 267.706 180.814 259.526 181.643C251.342 182.473 243.843 182.345 237.636 180.358C237.021 180.161 236.445 179.873 235.857 179.534C224.315 172.886 207.159 171.906 192.976 172.557C185.868 172.883 179.477 173.621 174.863 174.277C172.556 174.605 170.692 174.913 169.404 175.139C168.806 175.244 168.332 175.331 167.996 175.395L167.003 30.8706L167.18 30.8686C167.615 30.8636 168.248 30.8568 169.038 30.8492C170.619 30.834 172.828 30.8157 175.342 30.8035C180.371 30.7792 186.616 30.7792 191.49 30.8765C204.024 31.1267 215.425 34.4763 226.514 37.734C230.093 38.7855 233.64 39.8275 237.182 40.7526C251.665 44.5356 265.981 46.3235 281.722 38.511C303.334 27.785 328.195 28.8057 357.224 30.3339C357.931 30.3712 358.641 30.4087 359.354 30.4464C387.835 31.9525 420.209 33.6645 457.114 25.0178C464.521 23.2824 475.374 22.8372 488.207 23.0496C500.547 23.2538 514.671 24.0643 529.248 24.9009L530.961 24.9991C561.296 26.7384 593.386 28.4956 615.079 25.0248C636.351 21.6214 676.285 22.1211 715.137 23.8214C753.97 25.5208 791.66 28.416 808.411 29.7869C813.309 30.1877 817 34.2776 817 39.2041Z" fill="white" stroke="black"/>
<path d="M3.14323 70.828C3.5504 70.9381 3.9964 71.0562 4.4774 71.1801C7.03052 71.8379 10.5727 72.6615 14.5279 73.3239C18.4817 73.986 22.8577 74.4888 27.0762 74.5014C31.2892 74.514 35.3779 74.0381 38.7392 72.7202C44.7709 70.3551 49.4914 68.6762 54.1624 67.0148C54.3607 66.9443 54.559 66.8738 54.7573 66.8032C59.6253 65.0714 64.4964 63.3283 70.7895 60.8196C75.9986 58.743 82.2144 58.201 88.5543 57.78C89.0846 57.7448 89.6159 57.7104 90.1474 57.676C95.9352 57.3016 101.757 56.925 106.8 55.4256C112.958 53.595 116.936 50.1055 120.815 46.7026L120.981 46.5565C124.92 43.1023 128.79 39.7602 134.831 38.1205C146.97 34.8255 160.839 31.8377 166.536 31.0001C167.432 31.0029 167.837 31.1121 168 31.1848V118.659C167.527 118.119 166.875 117.384 166.072 116.5C164.302 114.553 161.799 111.882 158.865 108.987C153.006 103.209 145.387 96.5001 138.435 92.9051C132.556 89.8657 127.534 91.8472 122.593 94.1229C122.247 94.2824 121.901 94.4432 121.555 94.6041C116.922 96.7588 112.296 98.9101 106.762 97.7282C101.343 96.5707 96.8441 93.9074 92.376 91.262C91.6578 90.8368 90.9403 90.4121 90.22 89.9941C85.0442 86.991 79.7408 84.3591 73.0797 84.7367C67.2406 85.0678 62.9246 85.7488 58.7979 86.3998C58.2847 86.4808 57.7744 86.5613 57.2645 86.6406C52.6593 87.357 48.0693 87.9788 41.5609 87.9812C37.7217 87.9827 33.2578 86.8245 28.696 85.0594C24.1409 83.2969 19.5228 80.9431 15.3851 78.5836C11.2487 76.2249 7.60053 73.8652 4.98622 72.095C4.29639 71.6279 3.67872 71.202 3.14323 70.828Z" fill="white" stroke="black" stroke-linejoin="bevel"/>
<path d="M169.728 174.601C169.706 174.803 169.682 174.954 169.66 175.061C169.571 175.091 169.465 175.127 169.34 175.169C168.388 175.49 164.333 176.462 159.314 176.845C154.291 177.228 148.387 177.015 143.695 175.028C143.452 174.926 143.208 174.822 142.963 174.719C131.823 170.001 118.33 164.288 106.244 162.176C100.812 161.226 96.3048 159.041 91.8379 156.876C91.12 156.528 90.4031 156.181 89.6836 155.839C84.5043 153.379 79.2177 151.234 72.5849 151.542C66.7503 151.813 62.4384 152.37 58.3118 152.903C57.7986 152.969 57.2882 153.035 56.7782 153.1C52.1711 153.686 47.576 154.196 41.061 154.198C33.3249 154.2 23.1492 150.373 14.8489 146.498C10.7116 144.567 7.0628 142.635 4.44828 141.185C3.96769 140.919 3.52213 140.669 3.11497 140.438C3.39445 140.499 3.68945 140.562 3.99896 140.628C6.55057 141.166 10.0903 141.84 14.0425 142.382C21.9189 143.461 31.5343 144.033 38.2094 141.891C42.4769 140.521 46.0303 138.951 49.3412 137.489C50.9297 136.787 52.4624 136.11 53.9913 135.492C58.7236 133.578 63.5223 132.173 70.1043 132.173C74.1507 132.173 77.2025 132.353 79.9077 132.512C80.834 132.566 81.7198 132.619 82.5909 132.66C86.0084 132.824 89.1677 132.824 93.5736 132.168C97.4232 131.595 101.175 129.867 104.69 128.239L104.763 128.206C108.287 126.573 111.546 125.064 114.551 124.756C120.635 124.132 125.417 124.636 130.019 125.121C130.477 125.169 130.933 125.217 131.389 125.264C136.424 125.78 141.364 126.134 147.608 124.746C155.851 122.915 161.068 118.692 164.222 114.918C165.798 113.034 166.858 111.262 167.525 109.959C167.554 109.903 167.582 109.848 167.609 109.794C167.621 110.032 167.634 110.289 167.648 110.563C167.741 112.406 167.872 115.038 168.024 118.199C168.329 124.521 168.719 132.955 169.063 141.404C169.407 149.854 169.703 158.316 169.82 164.695C169.879 167.886 169.892 170.55 169.845 172.428C169.821 173.369 169.782 174.102 169.728 174.601Z" fill="white" stroke="black" stroke-linejoin="bevel"/>
<path d="M166.216 31.5922C166.216 31.5922 167.716 30.818 168.716 31.3182C169.708 31.8145 172.216 31.3182 172.216 31.3182L172.5 174C172.5 174 171.72 174.368 170.716 174.477C169.004 174.664 166.216 174.818 166.216 174.818V31.5922Z" fill="white"/>
<path d="M249.008 86.908L239.54 112H235.76L226.292 86.908H229.784L237.668 108.544L245.552 86.908H249.008ZM267.432 106.42H256.488L254.472 112H251.016L260.088 87.052H263.868L272.904 112H269.448L267.432 106.42ZM266.496 103.756L261.96 91.084L257.424 103.756H266.496ZM259.08 84.388C258.552 84.388 258.096 84.208 257.712 83.848C257.352 83.488 257.172 83.044 257.172 82.516C257.172 81.988 257.352 81.544 257.712 81.184C258.096 80.8 258.552 80.608 259.08 80.608C259.584 80.608 260.016 80.8 260.376 81.184C260.76 81.544 260.952 81.988 260.952 82.516C260.952 83.044 260.76 83.488 260.376 83.848C260.016 84.208 259.584 84.388 259.08 84.388ZM264.912 84.388C264.384 84.388 263.94 84.208 263.58 83.848C263.22 83.488 263.04 83.044 263.04 82.516C263.04 81.988 263.22 81.544 263.58 81.184C263.94 80.8 264.384 80.608 264.912 80.608C265.44 80.608 265.884 80.8 266.244 81.184C266.628 81.544 266.82 81.988 266.82 82.516C266.82 83.044 266.628 83.488 266.244 83.848C265.884 84.208 265.44 84.388 264.912 84.388ZM280.134 109.336H288.918V112H276.858V86.908H280.134V109.336ZM306.005 112L295.673 100.552V112H292.397V86.908H295.673V98.536L306.041 86.908H310.181L298.805 99.472L310.289 112H306.005ZM325.324 112.252C322.996 112.252 320.872 111.712 318.952 110.632C317.032 109.528 315.508 108.004 314.38 106.06C313.276 104.092 312.724 101.884 312.724 99.436C312.724 96.988 313.276 94.792 314.38 92.848C315.508 90.88 317.032 89.356 318.952 88.276C320.872 87.172 322.996 86.62 325.324 86.62C327.676 86.62 329.812 87.172 331.732 88.276C333.652 89.356 335.164 90.868 336.268 92.812C337.372 94.756 337.924 96.964 337.924 99.436C337.924 101.908 337.372 104.116 336.268 106.06C335.164 108.004 333.652 109.528 331.732 110.632C329.812 111.712 327.676 112.252 325.324 112.252ZM325.324 109.408C327.076 109.408 328.648 109 330.04 108.184C331.456 107.368 332.56 106.204 333.352 104.692C334.168 103.18 334.576 101.428 334.576 99.436C334.576 97.42 334.168 95.668 333.352 94.18C332.56 92.668 331.468 91.504 330.076 90.688C328.684 89.872 327.1 89.464 325.324 89.464C323.548 89.464 321.964 89.872 320.572 90.688C319.18 91.504 318.076 92.668 317.26 94.18C316.468 95.668 316.072 97.42 316.072 99.436C316.072 101.428 316.468 103.18 317.26 104.692C318.076 106.204 319.18 107.368 320.572 108.184C321.988 109 323.572 109.408 325.324 109.408ZM367.701 87.088V112H364.425V93.424L356.145 112H353.841L345.525 93.388V112H342.249V87.088H345.777L354.993 107.68L364.209 87.088H367.701ZM398.708 87.088V112H395.432V93.424L387.152 112H384.848L376.532 93.388V112H373.256V87.088H376.784L386 107.68L395.216 87.088H398.708ZM407.54 89.572V97.96H416.684V100.66H407.54V109.3H417.764V112H404.264V86.872H417.764V89.572H407.54ZM442.449 112H439.173L425.997 92.02V112H422.721V86.872H425.997L439.173 106.816V86.872H442.449V112ZM473.075 86.908V89.572H466.235V112H462.959V89.572H456.083V86.908H473.075ZM480.384 86.908V112H477.108V86.908H480.384ZM489.243 109.336H498.027V112H485.967V86.908H489.243V109.336ZM504.782 109.336H513.566V112H501.506V86.908H504.782V109.336ZM543.419 94.252C543.419 96.34 542.699 98.08 541.259 99.472C539.843 100.84 537.671 101.524 534.743 101.524H529.919V112H526.643V86.908H534.743C537.575 86.908 539.723 87.592 541.187 88.96C542.675 90.328 543.419 92.092 543.419 94.252ZM534.743 98.824C536.567 98.824 537.911 98.428 538.775 97.636C539.639 96.844 540.071 95.716 540.071 94.252C540.071 91.156 538.295 89.608 534.743 89.608H529.919V98.824H534.743ZM550.695 86.908V102.784C550.695 105.016 551.235 106.672 552.315 107.752C553.419 108.832 554.943 109.372 556.887 109.372C558.807 109.372 560.307 108.832 561.387 107.752C562.491 106.672 563.043 105.016 563.043 102.784V86.908H566.319V102.748C566.319 104.836 565.899 106.6 565.059 108.04C564.219 109.456 563.079 110.512 561.639 111.208C560.223 111.904 558.627 112.252 556.851 112.252C555.075 112.252 553.467 111.904 552.027 111.208C550.611 110.512 549.483 109.456 548.643 108.04C547.827 106.6 547.419 104.836 547.419 102.748V86.908H550.695ZM579.74 112.252C578.084 112.252 576.596 111.964 575.276 111.388C573.98 110.788 572.96 109.972 572.216 108.94C571.472 107.884 571.088 106.672 571.064 105.304H574.556C574.676 106.48 575.156 107.476 575.996 108.292C576.86 109.084 578.108 109.48 579.74 109.48C581.3 109.48 582.524 109.096 583.412 108.328C584.324 107.536 584.78 106.528 584.78 105.304C584.78 104.344 584.516 103.564 583.988 102.964C583.46 102.364 582.8 101.908 582.008 101.596C581.216 101.284 580.148 100.948 578.804 100.588C577.148 100.156 575.816 99.724 574.808 99.292C573.824 98.86 572.972 98.188 572.252 97.276C571.556 96.34 571.208 95.092 571.208 93.532C571.208 92.164 571.556 90.952 572.252 89.896C572.948 88.84 573.92 88.024 575.168 87.448C576.44 86.872 577.892 86.584 579.524 86.584C581.876 86.584 583.796 87.172 585.284 88.348C586.796 89.524 587.648 91.084 587.84 93.028H584.24C584.12 92.068 583.616 91.228 582.728 90.508C581.84 89.764 580.664 89.392 579.2 89.392C577.832 89.392 576.716 89.752 575.852 90.472C574.988 91.168 574.556 92.152 574.556 93.424C574.556 94.336 574.808 95.08 575.312 95.656C575.84 96.232 576.476 96.676 577.22 96.988C577.988 97.276 579.056 97.612 580.424 97.996C582.08 98.452 583.412 98.908 584.42 99.364C585.428 99.796 586.292 100.48 587.012 101.416C587.732 102.328 588.092 103.576 588.092 105.16C588.092 106.384 587.768 107.536 587.12 108.616C586.472 109.696 585.512 110.572 584.24 111.244C582.968 111.916 581.468 112.252 579.74 112.252ZM600.869 112.252C599.213 112.252 597.725 111.964 596.405 111.388C595.109 110.788 594.089 109.972 593.345 108.94C592.601 107.884 592.217 106.672 592.193 105.304H595.685C595.805 106.48 596.285 107.476 597.125 108.292C597.989 109.084 599.237 109.48 600.869 109.48C602.429 109.48 603.653 109.096 604.541 108.328C605.453 107.536 605.909 106.528 605.909 105.304C605.909 104.344 605.645 103.564 605.117 102.964C604.589 102.364 603.929 101.908 603.137 101.596C602.345 101.284 601.277 100.948 599.933 100.588C598.277 100.156 596.945 99.724 595.937 99.292C594.953 98.86 594.101 98.188 593.381 97.276C592.685 96.34 592.337 95.092 592.337 93.532C592.337 92.164 592.685 90.952 593.381 89.896C594.077 88.84 595.049 88.024 596.297 87.448C597.569 86.872 599.021 86.584 600.653 86.584C603.005 86.584 604.925 87.172 606.413 88.348C607.925 89.524 608.777 91.084 608.969 93.028H605.369C605.249 92.068 604.745 91.228 603.857 90.508C602.969 89.764 601.793 89.392 600.329 89.392C598.961 89.392 597.845 89.752 596.981 90.472C596.117 91.168 595.685 92.152 595.685 93.424C595.685 94.336 595.937 95.08 596.441 95.656C596.969 96.232 597.605 96.676 598.349 96.988C599.117 97.276 600.185 97.612 601.553 97.996C603.209 98.452 604.541 98.908 605.549 99.364C606.557 99.796 607.421 100.48 608.141 101.416C608.861 102.328 609.221 103.576 609.221 105.16C609.221 106.384 608.897 107.536 608.249 108.616C607.601 109.696 606.641 110.572 605.369 111.244C604.097 111.916 602.597 112.252 600.869 112.252ZM617.318 89.572V97.96H626.462V100.66H617.318V109.3H627.542V112H614.042V86.872H627.542V89.572H617.318ZM635.775 109.336H644.559V112H632.499V86.908H635.775V109.336ZM655.85 86.908C658.586 86.908 660.95 87.424 662.942 88.456C664.958 89.464 666.494 90.916 667.55 92.812C668.63 94.708 669.17 96.94 669.17 99.508C669.17 102.076 668.63 104.308 667.55 106.204C666.494 108.076 664.958 109.516 662.942 110.524C660.95 111.508 658.586 112 655.85 112H648.038V86.908H655.85ZM655.85 109.3C659.09 109.3 661.562 108.448 663.266 106.744C664.97 105.016 665.822 102.604 665.822 99.508C665.822 96.388 664.958 93.952 663.23 92.2C661.526 90.448 659.066 89.572 655.85 89.572H651.314V109.3H655.85ZM688.323 106.42H677.379L675.363 112H671.907L680.979 87.052H684.759L693.795 112H690.339L688.323 106.42ZM687.387 103.756L682.851 91.084L678.315 103.756H687.387ZM716.757 94.18C716.061 92.716 715.053 91.588 713.733 90.796C712.413 89.98 710.877 89.572 709.125 89.572C707.373 89.572 705.789 89.98 704.373 90.796C702.981 91.588 701.877 92.74 701.061 94.252C700.269 95.74 699.873 97.468 699.873 99.436C699.873 101.404 700.269 103.132 701.061 104.62C701.877 106.108 702.981 107.26 704.373 108.076C705.789 108.868 707.373 109.264 709.125 109.264C711.573 109.264 713.589 108.532 715.173 107.068C716.757 105.604 717.681 103.624 717.945 101.128H707.937V98.464H721.437V100.984C721.245 103.048 720.597 104.944 719.493 106.672C718.389 108.376 716.937 109.732 715.137 110.74C713.337 111.724 711.333 112.216 709.125 112.216C706.797 112.216 704.673 111.676 702.753 110.596C700.833 109.492 699.309 107.968 698.181 106.024C697.077 104.08 696.525 101.884 696.525 99.436C696.525 96.988 697.077 94.792 698.181 92.848C699.309 90.88 700.833 89.356 702.753 88.276C704.673 87.172 706.797 86.62 709.125 86.62C711.789 86.62 714.141 87.28 716.181 88.6C718.245 89.92 719.745 91.78 720.681 94.18H716.757ZM733.724 112.252C732.068 112.252 730.58 111.964 729.26 111.388C727.964 110.788 726.944 109.972 726.2 108.94C725.456 107.884 725.072 106.672 725.048 105.304H728.54C728.66 106.48 729.14 107.476 729.98 108.292C730.844 109.084 732.092 109.48 733.724 109.48C735.284 109.48 736.508 109.096 737.396 108.328C738.308 107.536 738.764 106.528 738.764 105.304C738.764 104.344 738.5 103.564 737.972 102.964C737.444 102.364 736.784 101.908 735.992 101.596C735.2 101.284 734.132 100.948 732.788 100.588C731.132 100.156 729.8 99.724 728.792 99.292C727.808 98.86 726.956 98.188 726.236 97.276C725.54 96.34 725.192 95.092 725.192 93.532C725.192 92.164 725.54 90.952 726.236 89.896C726.932 88.84 727.904 88.024 729.152 87.448C730.424 86.872 731.876 86.584 733.508 86.584C735.86 86.584 737.78 87.172 739.268 88.348C740.78 89.524 741.632 91.084 741.824 93.028H738.224C738.104 92.068 737.6 91.228 736.712 90.508C735.824 89.764 734.648 89.392 733.184 89.392C731.816 89.392 730.7 89.752 729.836 90.472C728.972 91.168 728.54 92.152 728.54 93.424C728.54 94.336 728.792 95.08 729.296 95.656C729.824 96.232 730.46 96.676 731.204 96.988C731.972 97.276 733.04 97.612 734.408 97.996C736.064 98.452 737.396 98.908 738.404 99.364C739.412 99.796 740.276 100.48 740.996 101.416C741.716 102.328 742.076 103.576 742.076 105.16C742.076 106.384 741.752 107.536 741.104 108.616C740.456 109.696 739.496 110.572 738.224 111.244C736.952 111.916 735.452 112.252 733.724 112.252ZM751.145 86.908L750.749 104.908H748.013L747.617 86.908H751.145ZM749.525 112.216C748.901 112.216 748.373 112 747.941 111.568C747.509 111.136 747.293 110.608 747.293 109.984C747.293 109.36 747.509 108.832 747.941 108.4C748.373 107.968 748.901 107.752 749.525 107.752C750.125 107.752 750.629 107.968 751.037 108.4C751.469 108.832 751.685 109.36 751.685 109.984C751.685 110.608 751.469 111.136 751.037 111.568C750.629 112 750.125 112.216 749.525 112.216Z" fill="black"/>
<g filter="url(#filter0_d_442_4)">
<path d="M932.297 139.752L932.303 139.738L932.31 139.725C934.555 135.644 936.504 133.005 937.942 131.343C938.275 130.959 938.581 130.626 938.856 130.34C937.281 130.735 934.795 131.149 931.2 131.149L931.179 131.149L931.158 131.147C930.208 131.068 929.376 130.991 928.643 130.922C927.467 130.813 926.547 130.727 925.801 130.696C924.579 130.646 923.995 130.758 923.618 131.033C923.233 131.313 922.956 131.834 922.585 132.95C922.461 133.324 922.325 133.767 922.169 134.276C921.884 135.203 921.532 136.349 921.06 137.699C919.648 141.733 919.797 143.955 920.61 145.162C921.412 146.355 923.011 146.768 925.119 146.768C925.735 146.768 926.23 146.916 926.629 147.159C927.024 147.4 927.298 147.718 927.496 148.017C927.649 148.246 927.77 148.486 927.859 148.664C927.866 148.678 927.873 148.691 927.879 148.704C928.053 148.454 928.292 148.035 928.632 147.376C929.297 146.087 930.3 143.967 931.888 140.616C932.02 140.336 932.156 140.048 932.297 139.752ZM928.033 148.973C928.033 148.973 928.032 148.972 928.029 148.969C928.032 148.972 928.033 148.974 928.033 148.973Z" fill="#8B6321" stroke="black"/>
<path d="M1061.29 147.858L1061.28 147.844L1061.28 147.831C1060.16 145.8 1059.19 144.106 1058.37 142.697C1058.19 142.372 1058.01 142.063 1057.84 141.769C1057.27 140.783 1056.79 139.964 1056.41 139.28C1055.92 138.385 1055.61 137.762 1055.47 137.331C1055.4 137.116 1055.39 136.989 1055.39 136.921C1055.39 136.907 1055.4 136.898 1055.4 136.892C1055.41 136.882 1055.46 136.856 1055.59 136.836C1055.73 136.812 1055.93 136.804 1056.21 136.815C1056.74 136.837 1057.44 136.923 1058.36 137.037C1058.4 137.042 1058.45 137.048 1058.5 137.054C1060.45 137.295 1063.24 137.627 1066.92 137.627L1066.93 137.627L1066.95 137.626C1068.2 137.548 1069.31 137.47 1070.29 137.402C1071.86 137.291 1073.11 137.204 1074.11 137.173C1074.92 137.149 1075.54 137.163 1076.02 137.228C1076.5 137.292 1076.8 137.403 1076.99 137.542C1077.36 137.799 1077.55 138.275 1077.62 139.445C1077.65 139.954 1077.66 140.555 1077.67 141.277C1077.68 141.359 1077.68 141.443 1077.68 141.529C1077.69 142.359 1077.71 143.328 1077.77 144.451C1077.88 146.466 1077.86 148.031 1077.73 149.245C1077.59 150.462 1077.33 151.289 1076.97 151.857C1076.28 152.933 1075.12 153.247 1073 153.247C1071.74 153.247 1070.78 153.973 1070 154.649C1069.85 154.781 1069.71 154.909 1069.57 155.031C1069.34 155.241 1069.12 155.438 1068.89 155.623C1068.54 155.909 1068.22 156.11 1067.91 156.209C1067.61 156.303 1067.31 156.31 1066.95 156.171C1066.58 156.027 1066.13 155.714 1065.59 155.119C1064.49 153.924 1063.11 151.702 1061.29 147.858Z" fill="#8B6321" stroke="black"/>
<path d="M934.422 154.963C934.422 161.841 928.725 167.434 921.675 167.434C914.625 167.434 908.928 161.841 908.928 154.963C908.928 148.086 914.625 142.492 921.675 142.492C928.725 142.492 934.422 148.086 934.422 154.963Z" fill="#D9D9D9" stroke="black"/>
<path d="M927.799 154.963C927.799 158.517 925.038 161.363 921.675 161.363C918.312 161.363 915.552 158.517 915.552 154.963C915.552 151.409 918.312 148.563 921.675 148.563C925.038 148.563 927.799 151.409 927.799 154.963Z" fill="black" stroke="black"/>
<path d="M1099.25 165.908C1099.25 176.144 1090.78 184.459 1080.3 184.459C1069.82 184.459 1061.34 176.144 1061.34 165.908C1061.34 155.672 1069.82 147.356 1080.3 147.356C1090.78 147.356 1099.25 155.672 1099.25 165.908Z" fill="#D9D9D9" stroke="black"/>
<path d="M1089.52 165.908C1089.52 171.248 1085.37 175.541 1080.3 175.541C1075.22 175.541 1071.07 171.248 1071.07 165.908C1071.07 160.568 1075.22 156.274 1080.3 156.274C1085.37 156.274 1089.52 160.568 1089.52 165.908Z" fill="black" stroke="black"/>
<rect x="990.016" y="35.0747" width="10.9417" height="34.6706" transform="rotate(-2.14121 990.016 35.0747)" fill="#8B6321" stroke="black"/>
<rect x="1061.37" y="27.3067" width="10.9417" height="34.6706" transform="rotate(-3.73245 1061.37 27.3067)" fill="#8B6321" stroke="black"/>
<path d="M1144.34 94.567C1144.34 100.647 1140.35 101.458 1135.42 101.458C1126.91 103.079 1116.37 98.7781 1116.37 94.9724C1116.37 91.1666 1126.1 86.8654 1135.42 87.6761C1140.35 87.6761 1143.94 88.8921 1144.34 94.567Z" fill="black"/>
<path d="M1142.72 118.077C1146.37 144.02 1148.8 148.073 1137.85 148.073C1130.97 148.073 1133.8 131.872 1133.8 118.888C1135.42 97.8096 1135.02 100.136 1137.04 100C1139.48 99.8363 1139.07 99.4313 1142.72 118.077Z" fill="black"/>
<path d="M1131.37 71.4622C1127.91 45.4946 1124.66 41.4451 1135.6 41.5232C1142.49 41.5723 1139.97 58.0729 1139.88 71.0568C1138.11 92.1232 1139.07 89.1759 1137.04 89.2975C1134.61 89.4439 1134.88 90.1338 1131.37 71.4622Z" fill="black"/>
<path d="M1089.82 13.7939L1089.82 13.8771L1089.84 13.9573C1090.56 16.5351 1090.96 18.6292 1091.03 20.3414C1091.09 22.0507 1090.83 23.3481 1090.24 24.3608C1089.08 26.3801 1086.53 27.479 1082.03 28.1932C1078.63 28.7326 1074.24 29.0378 1068.72 29.4213C1066.97 29.5425 1065.12 29.6716 1063.14 29.8184C1054.94 30.4281 1044.77 31.3413 1032.39 33.2693C1030.03 33.6168 1027.66 33.9687 1025.3 34.3196C1011.24 36.4102 997.425 38.4641 986.508 39.3337C980.13 39.8418 974.778 39.942 970.96 39.4201C969.048 39.1588 967.561 38.7464 966.529 38.1789C965.508 37.6173 964.98 36.934 964.861 36.1229C964.706 35.0668 965.02 33.9706 965.822 32.8251C966.628 31.6742 967.908 30.4999 969.625 29.3198C973.056 26.9602 978.132 24.6439 984.311 22.4687C996.66 18.1215 1013.3 14.3782 1029.7 11.9647C1038.24 10.7085 1046.39 8.81059 1053.78 7.02881C1054.54 6.84597 1055.29 6.66441 1056.03 6.48493C1062.53 4.91258 1068.36 3.49959 1073.31 2.77949C1078.85 1.97354 1083.13 2.06094 1085.94 3.64322C1088.67 5.18188 1090.15 8.23158 1089.82 13.7939Z" fill="#FF0000" stroke="black"/>
<path d="M936.35 61.5027L936.356 61.5123L936.361 61.5216C941.676 70.4869 945.34 77.5955 947.659 83.1725C949.983 88.7608 950.937 92.7662 950.883 95.5408C950.856 96.9214 950.58 97.9711 950.122 98.7567C949.668 99.5359 949.018 100.085 948.188 100.444C946.496 101.174 944.044 101.117 941.041 100.474C935.185 99.2194 927.633 95.831 920.576 92.6646L920.109 92.4549C916.527 90.8482 913.09 89.3149 910.113 88.1838C907.155 87.0599 904.579 86.3032 902.742 86.3032C900.778 86.3032 899.077 87.5702 897.605 89.3754C896.124 91.1919 894.796 93.6508 893.589 96.2446C892.643 98.2774 891.761 100.418 890.934 102.422C890.705 102.978 890.48 103.524 890.26 104.054C889.234 106.514 888.307 108.616 887.441 109.938C887.003 110.607 886.622 111.009 886.306 111.182C886.159 111.264 886.044 111.284 885.952 111.277C885.861 111.27 885.745 111.231 885.6 111.114C885.29 110.866 884.92 110.321 884.52 109.321C884.127 108.337 883.728 106.974 883.322 105.163C881.699 97.9072 880.034 83.7304 878.108 58.7957L877.61 58.8342L878.108 58.7957C877.912 56.2555 877.554 53.8674 877.227 51.685C877.033 50.3877 876.849 49.1631 876.717 48.0223C876.356 44.9064 876.363 42.3449 877.389 40.2016C878.404 38.0805 880.468 36.2736 884.449 34.792C888.437 33.3076 894.29 32.1724 902.789 31.3629L902.813 31.3606L902.837 31.356C903.744 31.1805 904.604 31.0122 905.42 30.8525C910.289 29.9001 913.609 29.2508 916.06 29.1696C917.478 29.1227 918.56 29.2691 919.457 29.6346C920.346 29.997 921.091 30.5905 921.81 31.5021C922.535 32.4221 923.226 33.6561 924.004 35.2878C924.675 36.6967 925.401 38.3785 926.266 40.3818C926.402 40.6966 926.541 41.0194 926.684 41.3503C928.789 46.2171 931.682 52.7854 936.35 61.5027Z" fill="#FF0000" stroke="black"/>
<path d="M1130.87 96.6086C1131.32 111.421 1131.1 121.195 1128.75 127.642C1127.59 130.841 1125.9 133.201 1123.52 134.947C1121.13 136.7 1118 137.862 1113.91 138.602C1105.7 140.087 1093.79 139.853 1076.57 139.468L1075.63 139.447C1058.56 139.065 1036.4 138.57 1007.74 139.465C947.746 137.641 916.727 133.206 900.711 126.722C892.721 123.488 888.527 119.767 886.308 115.66C884.08 111.539 883.796 106.952 883.796 101.863C883.796 96.942 885.941 92.6027 890.515 88.7555C895.107 84.8939 902.139 81.5394 911.864 78.6408C931.31 72.8452 961.353 68.9214 1003.7 66.2866C1029.67 66.2858 1050.51 64.0034 1067.2 61.633C1072.46 60.8857 1077.3 60.1312 1081.75 59.437C1091.45 57.925 1099.32 56.699 1105.7 56.4568C1114.99 56.1045 1120.92 57.846 1124.74 63.6668C1126.67 66.6099 1128.08 70.6318 1129.07 76.0407C1130.05 81.4472 1130.62 88.2084 1130.87 96.6086Z" fill="#FF0000" stroke="black"/>
</g>
<defs>
<filter id="filter0_d_442_4" x="872" y="1.7793" width="277.799" height="191.18" filterUnits="userSpaceOnUse" color-interpolation-filters="sRGB">
<feFlood flood-opacity="0" result="BackgroundImageFix"/>
<feColorMatrix in="SourceAlpha" type="matrix" values="0 0 0 0 0 0 0 0 0 0 0 0 0 0 0 0 0 0 127 0" result="hardAlpha"/>
<feOffset dy="4"/>
<feGaussianBlur stdDeviation="2"/>
<feComposite in2="hardAlpha" operator="out"/>
<feColorMatrix type="matrix" values="0 0 0 0 0 0 0 0 0 0 0 0 0 0 0 0 0 0 0.25 0"/>
<feBlend mode="normal" in2="BackgroundImageFix" result="effect1_dropShadow_442_4"/>
<feBlend mode="normal" in="SourceGraphic" in2="effect1_dropShadow_442_4" result="shape"/>
</filter>
</defs>
</svg>
