<svg width="908" height="161" viewBox="0 0 908 161" fill="none" xmlns="http://www.w3.org/2000/svg">
<line x1="907.022" y1="99.9999" x2="817.021" y2="100.978" stroke="black" stroke-width="4"/>
<path d="M817 17.2041V140.609C817 146.266 812.104 150.687 806.47 150.138C776.583 147.226 692.86 139.952 638.962 144.019C622.582 145.255 605.597 147.104 588.724 148.941L587.938 149.027C570.804 150.892 553.797 152.735 537.651 153.902C505.332 156.24 476.571 155.862 457.196 147.623C437.539 139.265 412.645 142.407 389.661 146.581C386.046 147.237 382.479 147.919 378.986 148.587C371.344 150.049 364.051 151.443 357.37 152.357C347.625 153.691 339.286 153.987 333.152 152.024C326.885 150.018 319.325 149.94 311.16 150.797C303.085 151.644 294.365 153.414 285.652 155.182L285.346 155.244C276.519 157.035 267.706 158.814 259.526 159.643C251.342 160.473 243.843 160.345 237.636 158.358C237.021 158.161 236.445 157.873 235.857 157.534C224.315 150.886 207.159 149.906 192.976 150.557C185.868 150.883 179.477 151.621 174.863 152.277C172.556 152.605 170.692 152.913 169.404 153.139C168.806 153.244 168.332 153.331 167.996 153.395L167.003 8.87064L167.18 8.86858C167.615 8.86364 168.248 8.85679 169.038 8.84918C170.619 8.83397 172.828 8.8157 175.342 8.80353C180.371 8.77917 186.616 8.77921 191.49 8.87651C204.024 9.12672 215.425 12.4763 226.514 15.734C230.093 16.7855 233.64 17.8275 237.182 18.7526C251.665 22.5356 265.981 24.3235 281.722 16.511C303.334 5.78499 328.195 6.80568 357.224 8.33392C357.931 8.37117 358.641 8.40872 359.354 8.4464C387.835 9.95252 420.209 11.6645 457.114 3.0178C464.521 1.28242 475.374 0.837232 488.207 1.04959C500.547 1.25379 514.671 2.06434 529.248 2.90089L530.961 2.99912C561.296 4.73837 593.386 6.49556 615.079 3.02483C636.351 -0.378584 676.285 0.121132 715.137 1.82139C753.97 3.52079 791.66 6.416 808.411 7.78685C813.309 8.18767 817 12.2776 817 17.2041Z" fill="white" stroke="black"/>
<path d="M3.14323 48.828C3.5504 48.9381 3.9964 49.0562 4.4774 49.1801C7.03052 49.8379 10.5727 50.6615 14.5279 51.3239C18.4817 51.986 22.8577 52.4888 27.0762 52.5014C31.2892 52.514 35.3779 52.0381 38.7392 50.7202C44.7709 48.3551 49.4914 46.6762 54.1624 45.0148C54.3607 44.9443 54.559 44.8738 54.7573 44.8032C59.6253 43.0714 64.4964 41.3283 70.7895 38.8196C75.9986 36.743 82.2144 36.201 88.5543 35.78C89.0846 35.7448 89.6159 35.7104 90.1474 35.676C95.9352 35.3016 101.757 34.925 106.8 33.4256C112.958 31.595 116.936 28.1055 120.815 24.7026L120.981 24.5565C124.92 21.1023 128.79 17.7602 134.831 16.1205C146.97 12.8255 160.839 9.83771 166.536 9.00006C167.432 9.00292 167.837 9.11212 168 9.18478V96.6586C167.527 96.119 166.875 95.384 166.072 94.5003C164.302 92.5527 161.799 89.8816 158.865 86.9872C153.006 81.2091 145.387 74.5001 138.435 70.9051C132.556 67.8657 127.534 69.8472 122.593 72.1229C122.247 72.2824 121.901 72.4432 121.555 72.6041C116.922 74.7588 112.296 76.9101 106.762 75.7282C101.343 74.5707 96.8441 71.9074 92.376 69.262C91.6578 68.8368 90.9403 68.4121 90.22 67.9941C85.0442 64.991 79.7408 62.3591 73.0797 62.7367C67.2406 63.0678 62.9246 63.7488 58.7979 64.3998C58.2847 64.4808 57.7744 64.5613 57.2645 64.6406C52.6593 65.357 48.0693 65.9788 41.5609 65.9812C37.7217 65.9827 33.2578 64.8245 28.696 63.0594C24.1409 61.2969 19.5228 58.9431 15.3851 56.5836C11.2487 54.2249 7.60053 51.8652 4.98622 50.095C4.29639 49.6279 3.67872 49.202 3.14323 48.828Z" fill="white" stroke="black" stroke-linejoin="bevel"/>
<path d="M169.728 152.601C169.706 152.803 169.682 152.954 169.66 153.061C169.571 153.091 169.465 153.127 169.34 153.169C168.388 153.49 164.333 154.462 159.314 154.845C154.291 155.228 148.387 155.015 143.695 153.028C143.452 152.926 143.208 152.822 142.963 152.719C131.823 148.001 118.33 142.288 106.244 140.176C100.812 139.226 96.3048 137.041 91.8379 134.876C91.12 134.528 90.4031 134.181 89.6836 133.839C84.5043 131.379 79.2177 129.234 72.5849 129.542C66.7503 129.813 62.4384 130.37 58.3118 130.903C57.7986 130.969 57.2882 131.035 56.7782 131.1C52.1711 131.686 47.576 132.196 41.061 132.198C33.3249 132.2 23.1492 128.373 14.8489 124.498C10.7116 122.567 7.0628 120.635 4.44828 119.185C3.96769 118.919 3.52213 118.669 3.11497 118.438C3.39445 118.499 3.68945 118.562 3.99896 118.628C6.55057 119.166 10.0903 119.84 14.0425 120.382C21.9189 121.461 31.5343 122.033 38.2094 119.891C42.4769 118.521 46.0303 116.951 49.3412 115.489C50.9297 114.787 52.4624 114.11 53.9913 113.492C58.7236 111.578 63.5223 110.173 70.1043 110.173C74.1507 110.173 77.2025 110.353 79.9077 110.512C80.834 110.566 81.7198 110.619 82.5909 110.66C86.0084 110.824 89.1677 110.824 93.5736 110.168C97.4232 109.595 101.175 107.867 104.69 106.239L104.763 106.206C108.287 104.573 111.546 103.064 114.551 102.756C120.635 102.132 125.417 102.636 130.019 103.121C130.477 103.169 130.933 103.217 131.389 103.264C136.424 103.78 141.364 104.134 147.608 102.746C155.851 100.915 161.068 96.6917 164.222 92.9183C165.798 91.0336 166.858 89.2625 167.525 87.9595C167.554 87.9033 167.582 87.848 167.609 87.7935C167.621 88.0319 167.634 88.2887 167.648 88.5631C167.741 90.4055 167.872 93.0383 168.024 96.1991C168.329 102.521 168.719 110.955 169.063 119.404C169.407 127.854 169.703 136.316 169.82 142.695C169.879 145.886 169.892 148.55 169.845 150.428C169.821 151.369 169.782 152.102 169.728 152.601Z" fill="white" stroke="black" stroke-linejoin="bevel"/>
<path d="M166.216 9.59217C166.216 9.59217 167.716 8.81798 168.716 9.31821C169.708 9.81452 172.216 9.31821 172.216 9.31821L172.5 152C172.5 152 171.72 152.368 170.716 152.477C169.004 152.664 166.216 152.818 166.216 152.818V9.59217Z" fill="white"/>
</svg>
