<svg width="818" height="161" viewBox="0 0 818 161" fill="none" xmlns="http://www.w3.org/2000/svg">
<path d="M817.5 17.2041V140.609C817.5 146.266 812.604 150.687 806.97 150.138C777.083 147.226 693.36 139.952 639.462 144.019C623.082 145.255 606.097 147.104 589.224 148.941L588.438 149.027C571.304 150.892 554.297 152.735 538.151 153.902C505.832 156.24 477.071 155.862 457.696 147.623C438.039 139.265 413.145 142.407 390.161 146.581C386.546 147.237 382.979 147.919 379.486 148.587C371.844 150.049 364.551 151.443 357.87 152.357C348.125 153.691 339.786 153.987 333.652 152.024C327.385 150.018 319.825 149.94 311.66 150.797C303.585 151.644 294.865 153.414 286.152 155.182L285.846 155.244C277.019 157.035 268.206 158.814 260.026 159.643C251.842 160.473 244.343 160.345 238.136 158.358C237.521 158.161 236.945 157.873 236.357 157.534C224.815 150.886 207.659 149.906 193.476 150.557C186.368 150.883 179.977 151.621 175.363 152.277C173.056 152.605 171.192 152.913 169.904 153.139C169.306 153.244 168.832 153.331 168.496 153.395L167.503 8.87064L167.68 8.86858C168.115 8.86364 168.748 8.85679 169.538 8.84918C171.119 8.83397 173.328 8.8157 175.842 8.80353C180.871 8.77917 187.116 8.77921 191.99 8.87651C204.524 9.12672 215.925 12.4763 227.014 15.734C230.593 16.7855 234.14 17.8275 237.682 18.7526C252.165 22.5356 266.481 24.3235 282.222 16.511C303.834 5.78499 328.695 6.80568 357.724 8.33392C358.431 8.37117 359.141 8.40872 359.854 8.4464C388.335 9.95252 420.709 11.6645 457.614 3.0178C465.021 1.28242 475.874 0.837232 488.707 1.04959C501.047 1.25379 515.171 2.06434 529.748 2.90089L531.461 2.99912C561.796 4.73837 593.886 6.49556 615.579 3.02483C636.851 -0.378584 676.785 0.121132 715.637 1.82139C754.47 3.52079 792.16 6.416 808.911 7.78685C813.809 8.18767 817.5 12.2776 817.5 17.2041Z" fill="white" stroke="black"/>
<path d="M3.64323 48.828C4.0504 48.9381 4.4964 49.0562 4.9774 49.1801C7.53052 49.8379 11.0727 50.6615 15.0279 51.3239C18.9817 51.986 23.3577 52.4888 27.5762 52.5014C31.7892 52.514 35.8779 52.0381 39.2392 50.7202C45.2709 48.3551 49.9914 46.6762 54.6624 45.0148C54.8607 44.9443 55.059 44.8738 55.2573 44.8032C60.1253 43.0714 64.9964 41.3283 71.2895 38.8196C76.4986 36.743 82.7144 36.201 89.0543 35.78C89.5846 35.7448 90.1159 35.7104 90.6474 35.676C96.4352 35.3016 102.257 34.925 107.3 33.4256C113.458 31.595 117.436 28.1055 121.315 24.7026L121.481 24.5565C125.42 21.1023 129.29 17.7602 135.331 16.1205C147.47 12.8255 161.339 9.83771 167.036 9.00006C167.932 9.00292 168.337 9.11212 168.5 9.18478V96.6586C168.027 96.119 167.375 95.384 166.572 94.5003C164.802 92.5527 162.299 89.8816 159.365 86.9872C153.506 81.2091 145.887 74.5001 138.935 70.9051C133.056 67.8657 128.034 69.8472 123.093 72.1229C122.747 72.2824 122.401 72.4432 122.055 72.6041C117.422 74.7588 112.796 76.9101 107.262 75.7282C101.843 74.5707 97.3441 71.9074 92.876 69.262C92.1578 68.8368 91.4403 68.4121 90.72 67.9941C85.5442 64.991 80.2408 62.3591 73.5797 62.7367C67.7406 63.0678 63.4246 63.7488 59.2979 64.3998C58.7847 64.4808 58.2744 64.5613 57.7645 64.6406C53.1593 65.357 48.5693 65.9788 42.0609 65.9812C38.2217 65.9827 33.7578 64.8245 29.196 63.0594C24.6409 61.2969 20.0228 58.9431 15.8851 56.5836C11.7487 54.2249 8.10053 51.8652 5.48622 50.095C4.79639 49.6279 4.17872 49.202 3.64323 48.828Z" fill="white" stroke="black" stroke-linejoin="bevel"/>
<path d="M170.228 152.601C170.206 152.803 170.182 152.954 170.16 153.061C170.071 153.091 169.965 153.127 169.84 153.169C168.888 153.49 164.833 154.462 159.814 154.845C154.791 155.228 148.887 155.015 144.195 153.028C143.952 152.926 143.708 152.822 143.463 152.719C132.323 148.001 118.83 142.288 106.744 140.176C101.312 139.226 96.8048 137.041 92.3379 134.876C91.62 134.528 90.9031 134.181 90.1836 133.839C85.0043 131.379 79.7177 129.234 73.0849 129.542C67.2503 129.813 62.9384 130.37 58.8118 130.903C58.2986 130.969 57.7882 131.035 57.2782 131.1C52.6711 131.686 48.076 132.196 41.561 132.198C33.8249 132.2 23.6492 128.373 15.3489 124.498C11.2116 122.567 7.5628 120.635 4.94828 119.185C4.46769 118.919 4.02213 118.669 3.61497 118.438C3.89445 118.499 4.18945 118.562 4.49896 118.628C7.05057 119.166 10.5903 119.84 14.5425 120.382C22.4189 121.461 32.0343 122.033 38.7094 119.891C42.9769 118.521 46.5303 116.951 49.8412 115.489C51.4297 114.787 52.9624 114.11 54.4913 113.492C59.2236 111.578 64.0223 110.173 70.6043 110.173C74.6507 110.173 77.7025 110.353 80.4077 110.512C81.334 110.566 82.2198 110.619 83.0909 110.66C86.5084 110.824 89.6677 110.824 94.0736 110.168C97.9232 109.595 101.675 107.867 105.19 106.239L105.263 106.206C108.787 104.573 112.046 103.064 115.051 102.756C121.135 102.132 125.917 102.636 130.519 103.121C130.977 103.169 131.433 103.217 131.889 103.264C136.924 103.78 141.864 104.134 148.108 102.746C156.351 100.915 161.568 96.6917 164.722 92.9183C166.298 91.0336 167.358 89.2625 168.025 87.9595C168.054 87.9033 168.082 87.848 168.109 87.7935C168.121 88.0319 168.134 88.2887 168.148 88.5631C168.241 90.4055 168.372 93.0383 168.524 96.1991C168.829 102.521 169.219 110.955 169.563 119.404C169.907 127.854 170.203 136.316 170.32 142.695C170.379 145.886 170.392 148.55 170.345 150.428C170.321 151.369 170.282 152.102 170.228 152.601Z" fill="white" stroke="black" stroke-linejoin="bevel"/>
<path d="M166.716 9.59217C166.716 9.59217 168.216 8.81798 169.216 9.31821C170.208 9.81452 172.716 9.31821 172.716 9.31821L173 152C173 152 172.22 152.368 171.216 152.477C169.504 152.664 166.716 152.818 166.716 152.818V9.59217Z" fill="white"/>
</svg>
