<svg width="104" height="103" viewBox="0 0 104 103" fill="none" xmlns="http://www.w3.org/2000/svg">
<rect x="103.5" width="103" height="103" rx="10" transform="rotate(90 103.5 0)" fill="black"/>
<path d="M50.0979 15.3541C50.6966 13.5115 53.3034 13.5115 53.9021 15.3541L60.9806 37.1393C61.2483 37.9634 62.0162 38.5213 62.8827 38.5213H85.789C87.7264 38.5213 88.532 41.0005 86.9646 42.1393L68.433 55.6033C67.732 56.1126 67.4387 57.0154 67.7064 57.8394L74.7849 79.6246C75.3836 81.4672 73.2746 82.9995 71.7072 81.8607L53.1756 68.3967C52.4746 67.8874 51.5254 67.8874 50.8244 68.3967L32.2928 81.8607C30.7254 82.9995 28.6164 81.4672 29.2151 79.6246L36.2936 57.8394C36.5613 57.0154 36.268 56.1126 35.567 55.6033L17.0354 42.1393C15.468 41.0005 16.2735 38.5213 18.211 38.5213H41.1173C41.9838 38.5213 42.7517 37.9634 43.0194 37.1393L50.0979 15.3541Z" fill="#FFCC33"/>
</svg>
