<svg width="100" height="101" viewBox="0 0 100 101" fill="none" xmlns="http://www.w3.org/2000/svg">
<rect x="100" y="0.5" width="100" height="100" rx="10" transform="rotate(90 100 0.5)" fill="black"/>
<path d="M48.0979 14.3541C48.6966 12.5115 51.3034 12.5115 51.9021 14.3541L58.9806 36.1393C59.2483 36.9634 60.0162 37.5213 60.8827 37.5213H83.789C85.7264 37.5213 86.532 40.0005 84.9646 41.1393L66.433 54.6033C65.732 55.1126 65.4387 56.0154 65.7064 56.8394L72.7849 78.6246C73.3836 80.4672 71.2746 81.9995 69.7072 80.8607L51.1756 67.3967C50.4746 66.8874 49.5254 66.8874 48.8244 67.3967L30.2928 80.8607C28.7254 81.9995 26.6164 80.4672 27.2151 78.6246L34.2936 56.8394C34.5613 56.0154 34.268 55.1126 33.567 54.6033L15.0354 41.1393C13.468 40.0005 14.2735 37.5213 16.211 37.5213H39.1173C39.9838 37.5213 40.7517 36.9634 41.0194 36.1393L48.0979 14.3541Z" fill="#FFCC33"/>
</svg>
