<svg width="103" height="103" viewBox="0 0 103 103" fill="none" xmlns="http://www.w3.org/2000/svg">
<rect x="103" width="103" height="103" rx="10" transform="rotate(90 103 0)" fill="#52BDF3"/>
<path d="M76.8403 50.1515C89.3745 59.758 93.9491 59.0261 73.2563 62.3198C78.7616 78.1476 79.6765 76.5008 64.3975 72.0177C64.3975 87.0222 64.1232 86.6562 51.406 75.0369C40.427 94.0669 43.6293 82.5391 39.8781 74.2135C20.3906 83.5587 26.6418 77.8731 30.7291 66.8028C12.0116 62.9474 13.3991 65.9174 26.6417 53.6737C11.7508 45.3362 10.8358 48.2639 26.6417 40.7031C20.7032 25.5755 19.1576 27.7544 35.824 28.7199C38.8051 13.3806 36.1336 14.8139 50.1982 24.6733C61.357 15.3858 59.6414 13.7769 63.1102 29.158C76.9457 25.2157 76.3194 24.6067 73.2563 38.766C91.5703 42.1004 90.1065 40.7031 76.8403 50.1515Z" fill="url(#paint0_radial_444_1312)"/>
<circle cx="51.2894" cy="50.3734" r="20.2958" fill="url(#paint1_radial_444_1312)"/>
<path d="M53.0769 45.7393C54.7982 44.8962 55.8767 44.8962 57.8044 45.7393" stroke="black" stroke-linecap="round"/>
<path d="M44.8157 45.7393C46.5369 44.8962 47.6155 44.8962 49.5432 45.7393" stroke="black" stroke-linecap="round"/>
<path d="M56.3149 51.6584C52.2499 54.1223 49.8468 54.1223 45.7817 51.6584" stroke="black" stroke-linecap="round"/>
<path d="M37.8553 39.9843C37.0454 41.101 36.9812 41.6373 36.0517 44.1669C34.9747 47.0979 36.0517 48.9029 34.9747 48.9029C34.3956 48.5124 34.7465 42.2706 36.7763 39.2613C38.806 36.2519 44.6777 33.6588 45.2568 34.0493C45.7593 34.3883 44.0656 35.1368 41.136 36.8938C39.0956 38.3777 39.2988 38.3998 37.8553 39.9843Z" fill="#FFDF7E"/>
<defs>
<radialGradient id="paint0_radial_444_1312" cx="0" cy="0" r="1" gradientUnits="userSpaceOnUse" gradientTransform="translate(51.3728 46.1045) rotate(98.1707) scale(29.3178 36.3963)">
<stop offset="0.485" stop-color="#FFCC33"/>
<stop offset="1" stop-color="#FF9000"/>
</radialGradient>
<radialGradient id="paint1_radial_444_1312" cx="0" cy="0" r="1" gradientUnits="userSpaceOnUse" gradientTransform="translate(51.2894 50.3734) rotate(90) scale(20.2958)">
<stop stop-color="#FFF4D2"/>
<stop offset="1" stop-color="#FFCC33"/>
</radialGradient>
</defs>
</svg>
