<svg width="1366" height="398" viewBox="0 0 1366 398" fill="none" xmlns="http://www.w3.org/2000/svg">
<path d="M1378.25 453.283C1378.25 750.27 880.034 621.283 552.253 621.283C224.472 621.283 -58.5385 863.27 -41.2471 258.783C-41.2471 58.58 14.4609 -103.73 671.961 157.77C1168.46 392.77 1378.25 253.08 1378.25 453.283Z" fill="#68B671"/>
<path d="M1464.46 432.27C1464.46 548.802 1277.02 643.27 1099.46 643.27C921.901 643.27 -30.039 687.802 -30.039 571.27C-30.039 385.27 792.461 238.27 961.461 65.2701C1195.9 -174.722 1464.46 315.738 1464.46 432.27Z" fill="#75D57A"/>
<path d="M1492.46 536.27C1492.46 645.07 1011.19 719.77 702.461 719.77C393.734 719.77 -33.5391 645.07 -33.5391 536.27C-33.5391 427.47 235.961 102.27 643.461 263.27C1030.46 335.27 1492.46 427.47 1492.46 536.27Z" fill="#A0ECAC"/>
<path d="M456.22 299.687C455.147 301.057 449.909 296.447 442.562 290.696C429.964 281.246 407.628 272.655 428.818 279.241C413.928 262.919 438.268 286.686 444.854 288.118C463.755 289.264 457.292 298.317 456.22 299.687Z" fill="#91632E"/>
<path d="M474.694 273.228C459.517 292.7 509.342 351.689 464.385 337.882C446.917 343.957 451.213 296.709 455.795 288.916C460.376 217.389 465.337 258.91 467.535 262.919C469.732 266.928 503.272 202.847 474.694 273.228Z" fill="#91632E"/>
<path d="M432.335 242.457C431.342 234.772 438.038 227.572 447.292 226.376C456.546 225.18 460.025 231.065 461.018 238.75C462.012 246.435 460.143 253.011 450.889 254.207C441.635 255.403 433.329 250.142 432.335 242.457Z" fill="#399832"/>
<path d="M431.816 205.473C436.407 197.188 449.756 195.806 461.632 202.386C473.509 208.967 473.219 217.584 468.629 225.869C464.039 234.154 456.886 238.969 445.009 232.389C433.133 225.808 427.226 213.758 431.816 205.473Z" fill="#399832"/>
<ellipse cx="467.763" cy="248.029" rx="8.5906" ry="8.30425" fill="#399832"/>
<ellipse cx="482.081" cy="243.447" rx="8.5906" ry="8.30425" fill="#399832"/>
<ellipse cx="496.971" cy="234.857" rx="14.8904" ry="10.0224" fill="#399832"/>
<ellipse cx="510.716" cy="215.385" rx="14.8904" ry="14.604" fill="#369330"/>
<ellipse cx="503.271" cy="192.477" rx="14.8904" ry="14.604" fill="#399832"/>
<ellipse cx="472.918" cy="190.186" rx="21.7629" ry="19.1857" fill="#38A631"/>
<ellipse cx="488.724" cy="254.329" rx="14.3177" ry="10.5951" fill="#399832"/>
<ellipse cx="478.644" cy="219.107" rx="32.0716" ry="28.6353" fill="#399832"/>
<path d="M497.103 345.273C495.998 345.34 486.097 345.308 485.702 338.836C473.822 340.229 474.144 328.869 475.249 328.801C481.275 317.346 480.411 335.303 487.703 338.714C488.098 345.186 501.315 336.163 497.103 345.273Z" fill="#91632E"/>
<path d="M501.787 343.042C501.774 343.324 500.991 343.389 497.401 342.202C493.471 342.79 488.779 342.959 490.112 342.252C490.125 341.97 494.281 341.292 497.437 341.436C500.518 342.345 501.787 343.042 501.787 343.042Z" fill="#91632E"/>
<path d="M491.256 343.001C491.305 342.723 492.091 342.757 495.501 344.388C499.474 344.301 504.151 344.725 502.739 345.258C502.69 345.536 498.482 345.684 495.37 345.143C492.428 343.853 491.256 343.001 491.256 343.001Z" fill="#91632E"/>
<path d="M479.709 332.481C482.314 331.69 484.983 337.024 489.404 343.958C488.725 351.976 479.636 357.394 478.702 357.989C477.769 358.584 482.425 355.698 486.023 346.113C481.603 339.179 476.301 334.654 479.709 332.481Z" fill="#91632E"/>
<path d="M491.74 353.247C489.894 352.835 489.858 351.852 488.436 349.57C485.861 347.966 486.187 345.236 486.59 344.985C486.992 344.734 489.011 341.667 489.894 348.661C491.316 350.943 493.592 355.698 491.74 353.247Z" fill="#91632E"/>
<path d="M496.17 337.658C495.17 338.133 485.974 341.797 483.192 335.94C472.689 341.666 478.965 324.95 479.965 324.475C481.28 311.599 482.711 329.067 485.002 335.08C487.784 340.937 497.602 332.503 496.17 337.658Z" fill="#91632E"/>
<path d="M505.047 337.944C505.047 338.576 504.188 338.803 500.179 336.512C495.884 338.23 490.729 339.089 492.161 337.371C492.161 336.739 496.7 334.794 500.179 334.794C503.615 336.512 505.047 337.944 505.047 337.944Z" fill="#91632E"/>
<path d="M432.731 340.173C433.31 339.23 439.022 331.144 444.548 334.537C450.23 324.011 459.345 330.799 458.765 331.742C464.683 343.254 450.478 332.234 443.499 336.245C437.973 332.852 437.77 348.853 432.731 340.173Z" fill="#91632E"/>
<path d="M440.57 341.474C440.346 341.301 440.743 340.622 443.776 338.366C445.553 334.811 448.109 330.872 447.921 332.37C448.145 332.542 446.313 336.334 444.383 338.834C441.87 340.835 440.57 341.474 440.57 341.474Z" fill="#91632E"/>
<path d="M437.948 336.692C438.148 336.891 437.669 337.515 434.375 339.37C432.165 342.673 429.132 346.257 429.507 344.796C429.307 344.596 431.602 341.066 433.833 338.829C436.578 337.161 437.948 336.692 437.948 336.692Z" fill="#91632E"/>
<path d="M431.115 331.718C433.269 329.865 434.546 330.65 438.694 330.875C443.001 329.157 446.174 331.844 446.136 332.535C446.099 333.226 448.203 338.212 438.558 333.377C434.41 333.152 426.373 331.862 431.115 331.718Z" fill="#91632E"/>
<path d="M981.565 339.406C981.565 363.856 1001.76 371.509 980.012 369.179C966.808 376.687 972.245 349.358 972.245 324.908C972.245 300.458 966.032 280.637 980.012 280.637C993.992 280.637 981.565 314.956 981.565 339.406Z" fill="#91632E"/>
<ellipse cx="981.048" cy="268.986" rx="20.1938" ry="17.8637" fill="#399832"/>
<ellipse cx="959.818" cy="280.637" rx="13.4625" ry="11.9091" fill="#369530"/>
<ellipse cx="976.387" cy="286.85" rx="13.4625" ry="11.9091" fill="#399832"/>
<ellipse cx="993.475" cy="280.637" rx="13.4625" ry="11.9091" fill="#399832"/>
<ellipse cx="1010.04" cy="274.941" rx="13.4625" ry="11.9091" fill="#399832"/>
<ellipse cx="1001.24" cy="256.818" rx="13.4625" ry="11.9091" fill="#3CA335"/>
<ellipse cx="983.119" cy="244.909" rx="13.4625" ry="11.9091" fill="#399832"/>
<ellipse cx="963.184" cy="251.123" rx="16.8281" ry="11.9091" fill="#399832"/>
<ellipse cx="952.828" cy="268.728" rx="16.8281" ry="11.9091" fill="#399832"/>
<path d="M1004.21 304.815C1004.87 306.082 1000.07 309.897 993.475 313.336C986.882 316.774 981.991 320.431 980.341 317.266C979.68 315.998 986.014 314.76 992.606 311.322C1001.12 309.238 1003.55 303.547 1004.21 304.815Z" fill="#91632E"/>
<ellipse cx="1005.39" cy="303.019" rx="4.18214" ry="3.65714" fill="#399832"/>
<ellipse cx="1001" cy="305.405" rx="2.78809" ry="2.43809" fill="#399832"/>
<ellipse cx="1004.43" cy="306.677" rx="2.78809" ry="2.43809" fill="#399832"/>
<ellipse cx="1007.97" cy="305.405" rx="2.78809" ry="2.43809" fill="#399832"/>
<ellipse cx="1011.4" cy="304.239" rx="2.78809" ry="2.43809" fill="#399832"/>
<ellipse cx="1009.58" cy="300.528" rx="2.78809" ry="2.43809" fill="#399832"/>
<ellipse cx="1005.82" cy="298.09" rx="2.78809" ry="2.43809" fill="#399832"/>
<ellipse cx="1001.69" cy="299.362" rx="3.48512" ry="2.43809" fill="#399832"/>
<ellipse cx="999.549" cy="302.966" rx="3.48512" ry="2.43809" fill="#399832"/>
</svg>
