<svg width="1728" height="416" viewBox="0 0 1728 416" fill="none" xmlns="http://www.w3.org/2000/svg">
<g clip-path="url(#clip0_564_891)">
<g filter="url(#filter0_d_564_891)">
<path d="M1581.52 417.212C1581.52 417.212 964.37 417.212 576.075 417.212C187.78 417.212 581.504 427.544 -92.5774 427.544C9.5 -76 -184.216 -36.9046 692.5 162C1369 315.48 1560.06 417.212 1581.52 417.212Z" fill="#68B671"/>
<path d="M1875.22 406.796C1633.49 406.796 1632.66 406.796 1422.32 406.796C1211.98 406.796 1202.67 400.358 148 400.358C148 400.358 1000.66 106.296 1277.39 13.221C1314.72 0.663195 1875.22 -58.4067 1875.22 406.796Z" fill="#75D57A"/>
<path d="M1727 416C1534.5 416.585 1180.94 412.606 815.213 412.606C449.49 412.606 446.232 416.5 -0.000274563 416.5C-0.000274563 289.144 -7.50024 69.5001 757 211.5C1673.5 416.055 1750.5 60 1727 416Z" fill="#A0ECAC"/>
<path d="M603.273 231.784C604.359 233.155 609.664 228.542 617.105 222.786C629.864 213.329 652.485 204.731 631.025 211.323C646.105 194.988 621.455 218.774 614.784 220.206C595.642 221.353 602.187 230.413 603.273 231.784Z" fill="#91632E"/>
<path d="M584.563 205.305C599.934 224.792 549.472 283.825 595.003 270.008C612.694 276.087 608.344 228.804 603.703 221.004C599.064 149.424 594.039 190.976 591.813 194.988C589.588 199 555.62 134.871 584.563 205.305Z" fill="#91632E"/>
<path d="M627.463 174.511C628.469 166.82 621.687 159.615 612.315 158.418C602.943 157.221 599.419 163.11 598.413 170.802C597.407 178.493 599.3 185.073 608.672 186.27C618.044 187.467 626.457 182.203 627.463 174.511Z" fill="#399832"/>
<path d="M627.988 137.499C623.339 129.208 609.82 127.825 597.792 134.41C585.763 140.995 586.057 149.619 590.705 157.91C595.354 166.202 602.599 171.02 614.627 164.435C626.655 157.85 632.637 145.79 627.988 137.499Z" fill="#399832"/>
<ellipse cx="8.70035" cy="8.31049" rx="8.70035" ry="8.31049" transform="matrix(-1 0 0 1 600.283 171.776)" fill="#399832"/>
<ellipse cx="8.70035" cy="8.31049" rx="8.70035" ry="8.31049" transform="matrix(-1 0 0 1 585.782 167.19)" fill="#399832"/>
<ellipse cx="15.0806" cy="10.0299" rx="15.0806" ry="10.0299" transform="matrix(-1 0 0 1 577.082 156.875)" fill="#399832"/>
<ellipse cx="15.0806" cy="14.615" rx="15.0806" ry="14.615" transform="matrix(-1 0 0 1 563.161 132.804)" fill="#369330"/>
<ellipse cx="15.0806" cy="14.615" rx="15.0806" ry="14.615" transform="matrix(-1 0 0 1 570.702 109.878)" fill="#399832"/>
<ellipse cx="22.0409" cy="19.2001" rx="22.0409" ry="19.2001" transform="matrix(-1 0 0 1 608.403 103)" fill="#38A631"/>
<ellipse cx="14.5006" cy="10.603" rx="14.5006" ry="10.603" transform="matrix(-1 0 0 1 584.854 175.789)" fill="#399832"/>
<ellipse cx="32.4813" cy="28.6569" rx="32.4813" ry="28.6569" transform="matrix(-1 0 0 1 613.043 122.487)" fill="#399832"/>
<path d="M561.867 277.404C562.987 277.472 573.013 277.44 573.413 270.963C585.445 272.357 585.119 260.988 584 260.921C577.898 249.457 578.772 267.428 571.387 270.84C570.987 277.317 557.602 268.288 561.867 277.404Z" fill="#91632E"/>
<path d="M557.123 275.172C557.136 275.454 557.93 275.519 561.565 274.331C565.545 274.919 570.298 275.088 568.947 274.381C568.934 274.099 564.725 273.42 561.529 273.565C558.408 274.474 557.123 275.172 557.123 275.172Z" fill="#91632E"/>
<path d="M567.788 275.131C567.739 274.852 566.944 274.886 563.489 276.518C559.465 276.431 554.729 276.856 556.16 277.389C556.209 277.667 560.471 277.816 563.622 277.274C566.602 275.983 567.788 275.131 567.788 275.131Z" fill="#91632E"/>
<path d="M579.483 264.602C576.845 263.81 574.142 269.149 569.665 276.088C570.352 284.112 579.557 289.534 580.503 290.129C581.448 290.725 576.733 287.837 573.088 278.245C577.566 271.306 582.935 266.777 579.483 264.602Z" fill="#91632E"/>
<path d="M567.299 285.384C569.168 284.971 569.205 283.988 570.645 281.705C573.253 280.099 572.922 277.367 572.515 277.116C572.107 276.864 570.063 273.795 569.168 280.795C567.728 283.078 565.423 287.837 567.299 285.384Z" fill="#91632E"/>
<path d="M562.811 269.783C563.824 270.259 573.138 273.926 575.956 268.065C586.592 273.795 580.236 257.067 579.224 256.591C577.892 243.706 576.442 261.186 574.122 267.204C571.305 273.066 561.361 264.625 562.811 269.783Z" fill="#91632E"/>
<path d="M553.822 270.07C553.822 270.703 554.692 270.93 558.752 268.637C563.102 270.357 568.322 271.217 566.872 269.497C566.872 268.864 562.275 266.918 558.752 266.918C555.272 268.637 553.822 270.07 553.822 270.07Z" fill="#91632E"/>
<path d="M627.062 272.302C626.475 271.358 620.69 263.266 615.095 266.661C609.339 256.128 600.108 262.921 600.695 263.865C594.702 275.385 609.088 264.357 616.157 268.371C621.753 264.975 621.959 280.988 627.062 272.302Z" fill="#91632E"/>
<path d="M619.123 273.603C619.349 273.43 618.948 272.751 615.876 270.493C614.077 266.935 611.487 262.993 611.678 264.492C611.451 264.664 613.306 268.459 615.261 270.961C617.806 272.964 619.123 273.603 619.123 273.603Z" fill="#91632E"/>
<path d="M621.778 268.817C621.576 269.017 622.061 269.641 625.397 271.498C627.636 274.803 630.707 278.39 630.327 276.927C630.53 276.727 628.205 273.194 625.946 270.956C623.166 269.287 621.778 268.817 621.778 268.817Z" fill="#91632E"/>
<path d="M628.698 263.841C626.517 261.987 625.224 262.772 621.023 262.998C616.66 261.279 613.447 263.967 613.485 264.659C613.523 265.35 611.392 270.34 621.161 265.502C625.362 265.276 633.501 263.985 628.698 263.841Z" fill="#91632E"/>
<path d="M232.515 183.259C231.256 184.848 225.108 179.502 216.483 172.831C201.696 161.87 175.478 151.906 200.35 159.545C182.873 140.613 211.443 168.181 219.173 169.841C241.359 171.17 233.774 181.671 232.515 183.259Z" fill="#91632E"/>
<path d="M241.36 189.105C241.36 220.472 267.577 230.289 239.343 227.3C222.201 236.932 229.259 201.872 229.259 170.506C229.259 139.139 221.192 113.711 239.343 113.711C257.493 113.711 241.36 157.738 241.36 189.105Z" fill="#91632E"/>
<path d="M204.48 116.88C203.314 107.966 211.175 99.6154 222.037 98.2282C232.899 96.841 236.983 103.666 238.149 112.58C239.314 121.494 237.121 129.122 226.259 130.509C215.397 131.896 205.646 125.794 204.48 116.88Z" fill="#399832"/>
<path d="M203.871 73.984C209.259 64.3746 224.928 62.7718 238.869 70.404C252.809 78.0362 252.47 88.0314 247.082 97.6407C241.693 107.25 233.297 112.835 219.357 105.203C205.416 97.5704 198.483 83.5933 203.871 73.984Z" fill="#399832"/>
<ellipse cx="246.065" cy="123.343" rx="10.0837" ry="9.63185" fill="#399832"/>
<ellipse cx="262.871" cy="118.03" rx="10.0837" ry="9.63185" fill="#399832"/>
<ellipse cx="280.35" cy="108.065" rx="17.4784" ry="11.6246" fill="#399832"/>
<ellipse cx="296.484" cy="85.4808" rx="17.4784" ry="16.9388" fill="#369330"/>
<ellipse cx="287.745" cy="58.9095" rx="17.4784" ry="16.9388" fill="#399832"/>
<ellipse cx="252.115" cy="56.2529" rx="25.5454" ry="22.2529" fill="#38A631"/>
<ellipse cx="270.67" cy="130.65" rx="16.8062" ry="12.2889" fill="#399832"/>
<ellipse cx="258.838" cy="89.7992" rx="37.6458" ry="33.2133" fill="#399832"/>
<path d="M1458.58 273.878C1458.58 297.517 1478.34 304.916 1457.06 302.663C1444.14 309.922 1449.46 283.5 1449.46 259.86C1449.46 236.221 1443.38 217.058 1457.06 217.058C1470.74 217.058 1458.58 250.238 1458.58 273.878Z" fill="#91632E"/>
<ellipse cx="1458.08" cy="205.793" rx="19.7586" ry="17.2712" fill="#399832"/>
<ellipse cx="1437.31" cy="217.057" rx="13.1724" ry="11.5142" fill="#369530"/>
<ellipse cx="1453.52" cy="223.065" rx="13.1724" ry="11.5142" fill="#399832"/>
<ellipse cx="1470.24" cy="217.057" rx="13.1724" ry="11.5142" fill="#399832"/>
<ellipse cx="1486.45" cy="211.549" rx="13.1724" ry="11.5142" fill="#399832"/>
<ellipse cx="1477.84" cy="194.029" rx="13.1724" ry="11.5142" fill="#3CA335"/>
<ellipse cx="1460.1" cy="182.514" rx="13.1724" ry="11.5142" fill="#399832"/>
<ellipse cx="1440.6" cy="188.521" rx="16.4655" ry="11.5142" fill="#399832"/>
<ellipse cx="1430.47" cy="205.542" rx="16.4655" ry="11.5142" fill="#399832"/>
<path d="M1480.74 240.432C1481.39 241.658 1476.69 245.347 1470.24 248.671C1463.79 251.995 1459 255.53 1457.39 252.471C1456.74 251.245 1462.94 250.048 1469.39 246.723C1477.72 244.709 1480.1 239.207 1480.74 240.432Z" fill="#91632E"/>
<ellipse cx="1481.9" cy="238.697" rx="4.09202" ry="3.53585" fill="#399832"/>
<ellipse cx="1477.6" cy="241.004" rx="2.72801" ry="2.35723" fill="#399832"/>
<ellipse cx="1480.95" cy="242.233" rx="2.72801" ry="2.35723" fill="#399832"/>
<ellipse cx="1484.42" cy="241.004" rx="2.72801" ry="2.35723" fill="#399832"/>
<ellipse cx="1487.77" cy="239.877" rx="2.72801" ry="2.35723" fill="#399832"/>
<ellipse cx="1485.99" cy="236.289" rx="2.72801" ry="2.35723" fill="#399832"/>
<ellipse cx="1482.32" cy="233.931" rx="2.72801" ry="2.35723" fill="#399832"/>
<ellipse cx="1478.28" cy="235.161" rx="3.41001" ry="2.35723" fill="#399832"/>
<ellipse cx="1476.18" cy="238.646" rx="3.41001" ry="2.35723" fill="#399832"/>
</g>
</g>
<defs>
<filter id="filter0_d_564_891" x="-96.5774" y="4" width="1975.8" height="431.544" filterUnits="userSpaceOnUse" color-interpolation-filters="sRGB">
<feFlood flood-opacity="0" result="BackgroundImageFix"/>
<feColorMatrix in="SourceAlpha" type="matrix" values="0 0 0 0 0 0 0 0 0 0 0 0 0 0 0 0 0 0 127 0" result="hardAlpha"/>
<feOffset dy="4"/>
<feGaussianBlur stdDeviation="2"/>
<feComposite in2="hardAlpha" operator="out"/>
<feColorMatrix type="matrix" values="0 0 0 0 0 0 0 0 0 0 0 0 0 0 0 0 0 0 0.25 0"/>
<feBlend mode="normal" in2="BackgroundImageFix" result="effect1_dropShadow_564_891"/>
<feBlend mode="normal" in="SourceGraphic" in2="effect1_dropShadow_564_891" result="shape"/>
</filter>
<clipPath id="clip0_564_891">
<rect width="1728" height="416" fill="white"/>
</clipPath>
</defs>
</svg>
