<svg width="1366" height="396" viewBox="0 0 1366 396" fill="none" xmlns="http://www.w3.org/2000/svg">
<path d="M1329 390.5C1329 390.5 840.103 390.5 532.5 390.5C224.897 390.5 532.5 390.5 -1.49993 390.5C-62.4997 -41.9995 10.9852 -105.73 628.01 155.77C1093.95 390.77 1312 390.5 1329 390.5Z" fill="#68B671"/>
<path d="M1364.5 399.5C1173 399.5 1181.13 399.5 1014.5 399.5C847.871 399.5 840.501 394 5.00049 394C5.00049 394 690.497 169.669 899.689 63.2703C1319 -150 1401.5 263 1364.5 399.5Z" fill="#75D57A"/>
<path d="M1366 396C1213.5 396.5 938.722 396 649 396C359.278 396 357 396 3.5 396C3.5 287.2 218.85 100.27 601.264 261.27C964.44 333.27 1294 396.157 1366 396Z" fill="#A0ECAC"/>
<path d="M425.549 297.687C424.542 299.057 419.627 294.447 412.732 288.696C400.909 279.246 379.948 270.655 399.833 277.241C385.86 260.919 408.702 284.686 414.882 286.118C432.62 287.264 426.555 296.317 425.549 297.687Z" fill="#91632E"/>
<path d="M442.885 271.228C428.643 290.7 475.401 349.689 433.211 335.882C416.819 341.957 420.85 294.709 425.15 286.916C429.449 215.389 434.105 256.91 436.167 260.919C438.229 264.928 469.704 200.847 442.885 271.228Z" fill="#91632E"/>
<path d="M403.135 240.457C402.202 232.772 408.487 225.572 417.171 224.376C425.855 223.18 429.12 229.065 430.052 236.75C430.984 244.435 429.231 251.011 420.546 252.207C411.862 253.403 404.067 248.142 403.135 240.457Z" fill="#399832"/>
<path d="M402.648 203.473C406.955 195.188 419.482 193.806 430.628 200.386C441.773 206.967 441.501 215.584 437.194 223.869C432.886 232.154 426.174 236.969 415.028 230.389C403.883 223.808 398.34 211.758 402.648 203.473Z" fill="#399832"/>
<ellipse cx="436.381" cy="246.029" rx="8.06176" ry="8.30425" fill="#399832"/>
<ellipse cx="449.818" cy="241.447" rx="8.06176" ry="8.30425" fill="#399832"/>
<ellipse cx="463.791" cy="232.857" rx="13.9737" ry="10.0224" fill="#399832"/>
<ellipse cx="476.69" cy="213.385" rx="13.9737" ry="14.604" fill="#369330"/>
<ellipse cx="469.703" cy="190.477" rx="13.9737" ry="14.604" fill="#399832"/>
<ellipse cx="441.219" cy="188.186" rx="20.4231" ry="19.1857" fill="#38A631"/>
<ellipse cx="456.052" cy="252.329" rx="13.4363" ry="10.5951" fill="#399832"/>
<ellipse cx="446.593" cy="217.107" rx="30.0973" ry="28.6353" fill="#399832"/>
<path d="M463.915 343.273C462.878 343.34 453.587 343.308 453.216 336.836C442.067 338.229 442.37 326.869 443.407 326.801C449.061 315.346 448.251 333.303 455.094 336.714C455.465 343.186 467.867 334.163 463.915 343.273Z" fill="#91632E"/>
<path d="M468.311 341.042C468.299 341.324 467.563 341.389 464.195 340.202C460.507 340.79 456.103 340.959 457.355 340.252C457.367 339.97 461.267 339.292 464.228 339.436C467.12 340.345 468.311 341.042 468.311 341.042Z" fill="#91632E"/>
<path d="M458.429 341.001C458.474 340.723 459.211 340.757 462.412 342.388C466.141 342.301 470.529 342.725 469.204 343.258C469.158 343.536 465.209 343.684 462.289 343.143C459.528 341.853 458.429 341.001 458.429 341.001Z" fill="#91632E"/>
<path d="M447.592 330.481C450.037 329.69 452.541 335.024 456.69 341.958C456.053 349.976 447.523 355.394 446.647 355.989C445.771 356.584 450.141 353.698 453.517 344.113C449.369 337.179 444.393 332.654 447.592 330.481Z" fill="#91632E"/>
<path d="M458.882 351.247C457.149 350.835 457.116 349.852 455.781 347.57C453.365 345.966 453.671 343.236 454.049 342.985C454.427 342.734 456.321 339.667 457.149 346.661C458.484 348.943 460.62 353.698 458.882 351.247Z" fill="#91632E"/>
<path d="M463.04 335.658C462.102 336.133 453.471 339.797 450.86 333.94C441.005 339.666 446.894 322.95 447.832 322.475C449.067 309.599 450.41 327.067 452.56 333.08C455.17 338.937 464.384 330.503 463.04 335.658Z" fill="#91632E"/>
<path d="M471.37 335.944C471.37 336.576 470.564 336.803 466.802 334.512C462.771 336.23 457.934 337.089 459.278 335.371C459.278 334.739 463.537 332.794 466.802 332.794C470.027 334.512 471.37 335.944 471.37 335.944Z" fill="#91632E"/>
<path d="M403.506 338.173C404.049 337.23 409.41 329.144 414.595 332.537C419.928 322.011 428.481 328.799 427.937 329.742C433.49 341.254 420.16 330.234 413.61 334.245C408.425 330.852 408.234 346.853 403.506 338.173Z" fill="#91632E"/>
<path d="M410.862 339.474C410.652 339.301 411.025 338.622 413.871 336.366C415.538 332.811 417.937 328.872 417.761 330.37C417.971 330.542 416.252 334.334 414.44 336.834C412.082 338.835 410.862 339.474 410.862 339.474Z" fill="#91632E"/>
<path d="M408.402 334.692C408.59 334.891 408.14 335.515 405.049 337.37C402.974 340.673 400.128 344.257 400.48 342.796C400.293 342.596 402.447 339.066 404.54 336.829C407.116 335.161 408.402 334.692 408.402 334.692Z" fill="#91632E"/>
<path d="M401.99 329.718C404.011 327.865 405.209 328.65 409.102 328.875C413.144 327.157 416.121 329.844 416.086 330.535C416.051 331.226 418.025 336.212 408.974 331.377C405.081 331.152 397.539 329.862 401.99 329.718Z" fill="#91632E"/>
<path d="M124.518 327.829C123.377 329.381 117.807 324.158 109.993 317.64C96.5963 306.931 72.8431 297.196 95.377 304.66C79.5425 286.163 105.427 313.097 112.431 314.719C132.531 316.018 125.658 326.277 124.518 327.829Z" fill="#91632E"/>
<path d="M132.531 333.54C132.531 364.186 156.284 373.778 130.704 370.858C115.173 380.268 121.568 346.014 121.568 315.369C121.568 284.723 114.26 259.879 130.704 259.879C147.148 259.879 132.531 302.895 132.531 333.54Z" fill="#91632E"/>
<path d="M99.1186 262.976C98.0623 254.267 105.184 246.108 115.025 244.752C124.865 243.397 128.565 250.066 129.622 258.775C130.678 267.484 128.691 274.936 118.85 276.291C109.009 277.646 100.175 271.685 99.1186 262.976Z" fill="#399832"/>
<path d="M98.5666 221.065C103.448 211.677 117.644 210.111 130.274 217.568C142.904 225.024 142.596 234.79 137.715 244.178C132.833 253.567 125.227 259.023 112.597 251.566C99.9666 244.11 93.6851 230.454 98.5666 221.065Z" fill="#399832"/>
<ellipse cx="136.794" cy="269.29" rx="9.13566" ry="9.41044" fill="#399832"/>
<ellipse cx="152.02" cy="264.098" rx="9.13566" ry="9.41044" fill="#399832"/>
<ellipse cx="167.855" cy="254.363" rx="15.8351" ry="11.3574" fill="#399832"/>
<ellipse cx="182.472" cy="232.297" rx="15.8351" ry="16.5494" fill="#369330"/>
<ellipse cx="174.555" cy="206.337" rx="15.8351" ry="16.5494" fill="#399832"/>
<ellipse cx="142.276" cy="203.741" rx="23.1437" ry="21.7414" fill="#38A631"/>
<ellipse cx="159.085" cy="276.429" rx="15.2261" ry="12.0064" fill="#399832"/>
<ellipse cx="148.366" cy="236.516" rx="34.1065" ry="32.4498" fill="#399832"/>
<path d="M918.555 337.406C918.555 361.856 937.505 369.509 917.097 367.179C904.706 374.687 909.808 347.358 909.808 322.908C909.808 298.458 903.977 278.637 917.097 278.637C930.217 278.637 918.555 312.956 918.555 337.406Z" fill="#91632E"/>
<ellipse cx="918.069" cy="266.986" rx="18.9506" ry="17.8637" fill="#399832"/>
<ellipse cx="898.147" cy="278.637" rx="12.6338" ry="11.9091" fill="#369530"/>
<ellipse cx="913.696" cy="284.85" rx="12.6338" ry="11.9091" fill="#399832"/>
<ellipse cx="929.731" cy="278.637" rx="12.6338" ry="11.9091" fill="#399832"/>
<ellipse cx="945.281" cy="272.941" rx="12.6338" ry="11.9091" fill="#399832"/>
<ellipse cx="937.02" cy="254.818" rx="12.6338" ry="11.9091" fill="#3CA335"/>
<ellipse cx="920.013" cy="242.909" rx="12.6338" ry="11.9091" fill="#399832"/>
<ellipse cx="901.305" cy="249.123" rx="15.7922" ry="11.9091" fill="#399832"/>
<ellipse cx="891.587" cy="266.728" rx="15.7922" ry="11.9091" fill="#399832"/>
<path d="M939.809 302.815C940.43 304.082 935.918 307.897 929.731 311.336C923.545 314.774 918.955 318.431 917.406 315.266C916.785 313.998 922.729 312.76 928.916 309.322C936.908 307.238 939.189 301.547 939.809 302.815Z" fill="#91632E"/>
<ellipse cx="940.916" cy="301.019" rx="3.92469" ry="3.65714" fill="#399832"/>
<ellipse cx="936.79" cy="303.405" rx="2.61646" ry="2.43809" fill="#399832"/>
<ellipse cx="940.01" cy="304.677" rx="2.61646" ry="2.43809" fill="#399832"/>
<ellipse cx="943.331" cy="303.405" rx="2.61646" ry="2.43809" fill="#399832"/>
<ellipse cx="946.551" cy="302.239" rx="2.61646" ry="2.43809" fill="#399832"/>
<ellipse cx="944.841" cy="298.528" rx="2.61646" ry="2.43809" fill="#399832"/>
<ellipse cx="941.319" cy="296.09" rx="2.61646" ry="2.43809" fill="#399832"/>
<ellipse cx="937.444" cy="297.362" rx="3.27058" ry="2.43809" fill="#399832"/>
<ellipse cx="935.431" cy="300.966" rx="3.27058" ry="2.43809" fill="#399832"/>
</svg>
