<svg width="102" height="100" viewBox="0 0 102 100" fill="none" xmlns="http://www.w3.org/2000/svg">
<circle cx="48.0385" cy="78.5385" r="11.0385" fill="#1A1919" stroke="#1A1919"/>
<line x1="55.5" y1="78.6152" x2="55.5" y2="43.9999" stroke="#1A1919" stroke-width="8"/>
<circle cx="81.9616" cy="71.5385" r="11.0385" fill="#1A1919" stroke="#1A1919"/>
<line x1="89.5002" y1="70.7695" x2="89.5002" y2="36.1541" stroke="#1A1919" stroke-width="8"/>
<path d="M59.3971 18.2535L81.3971 13.2599C87.3412 11.9107 93 16.4289 93 22.5242V39.0674L52 48.3738V27.5179C52 23.0813 55.0707 19.2356 59.3971 18.2535Z" fill="#1A1919" stroke="#1A1919"/>
<circle cx="18.0385" cy="55.5385" r="11.0385" fill="#1A1919" stroke="#1A1919"/>
<path d="M29.5 22.9998C29.5 20.7906 27.7091 18.9998 25.5 18.9998C23.2909 18.9998 21.5 20.7906 21.5 22.9998H29.5ZM29.5 54.9229V22.9998H21.5V54.9229H29.5Z" fill="#1A1919"/>
<path d="M25.9633 23.3772C25.9633 23.3772 28.9835 27.502 31.5025 29.5767C32.1911 30.1439 32.5694 30.4743 33.3299 30.9595C34.4654 31.684 36.4841 32.4887 36.4841 32.4887L38.4045 33.2069" stroke="#1A1919" stroke-width="8" stroke-linecap="round"/>
<g filter="url(#filter0_d_529_2251)">
<path d="M95.4999 10.0003L11.499 89.501" stroke="black" stroke-width="5" stroke-linecap="round"/>
</g>
<defs>
<filter id="filter0_d_529_2251" x="4.99902" y="7.5" width="97.001" height="92.501" filterUnits="userSpaceOnUse" color-interpolation-filters="sRGB">
<feFlood flood-opacity="0" result="BackgroundImageFix"/>
<feColorMatrix in="SourceAlpha" type="matrix" values="0 0 0 0 0 0 0 0 0 0 0 0 0 0 0 0 0 0 127 0" result="hardAlpha"/>
<feOffset dy="4"/>
<feGaussianBlur stdDeviation="2"/>
<feComposite in2="hardAlpha" operator="out"/>
<feColorMatrix type="matrix" values="0 0 0 0 0 0 0 0 0 0 0 0 0 0 0 0 0 0 0.25 0"/>
<feBlend mode="normal" in2="BackgroundImageFix" result="effect1_dropShadow_529_2251"/>
<feBlend mode="normal" in="SourceGraphic" in2="effect1_dropShadow_529_2251" result="shape"/>
</filter>
</defs>
</svg>
