<svg width="101" height="101" viewBox="0 0 101 101" fill="none" xmlns="http://www.w3.org/2000/svg">
<rect x="100.5" y="0.5" width="100" height="100" rx="10" transform="rotate(90 100.5 0.5)" fill="#FFAEE5"/>
<path d="M49.0152 35.2709L50.0817 38.96L50.95 35.2192C53.1683 25.6614 61.5036 21.2797 69.7276 21.5084C77.9871 21.7381 85.7199 26.5883 86.8686 35.1265C87.4995 39.8165 86.1542 44.499 83.543 49.0432C80.93 53.5905 77.0819 57.9403 72.8134 61.9226C66.0291 68.2519 58.3077 73.5458 52.9953 77.188C51.87 77.9595 50.8528 78.6569 49.9755 79.2743C49.2672 78.7762 48.455 78.2164 47.559 77.5987C42.5673 74.1576 34.973 68.9224 28.2331 62.5831C24.091 58.6871 20.3149 54.4119 17.6898 49.9313C15.0653 45.4519 13.6238 40.8245 14.0516 36.1905C14.8767 27.2536 22.1417 22.2746 30.0655 21.9165C37.9787 21.5589 46.2894 25.8423 49.0152 35.2709Z" fill="#CF56A8" stroke="black" stroke-width="2"/>
<path d="M25.9275 27.4472C28.9847 27.4245 23.4448 32.4986 22.2015 35.3389C20.3495 39.5695 23.6486 46.6523 20.9106 44.7715C20.2586 44.3236 17.5791 40.3924 18.9192 34.2466C19.6568 31.202 22.2539 28.1036 25.9275 27.4472Z" fill="#F080CC"/>
</svg>
