<svg width="103" height="103" viewBox="0 0 103 103" fill="none" xmlns="http://www.w3.org/2000/svg">
<rect x="103" width="103" height="103" rx="10" transform="rotate(90 103 0)" fill="#FFAEE5"/>
<path d="M50.0152 36.2709L51.0817 39.96L51.95 36.2192C54.1683 26.6614 62.5036 22.2797 70.7276 22.5084C78.9871 22.7381 86.7199 27.5883 87.8686 36.1265C88.4996 40.8165 87.1542 45.499 84.543 50.0432C81.93 54.5905 78.0819 58.9403 73.8134 62.9226C67.0291 69.2519 59.3077 74.5458 53.9953 78.188C52.87 78.9595 51.8528 79.6569 50.9755 80.2743C50.2672 79.7762 49.455 79.2164 48.559 78.5987C43.5673 75.1576 35.973 69.9224 29.2331 63.5831C25.091 59.6871 21.3149 55.4119 18.6898 50.9313C16.0653 46.4519 14.6238 41.8245 15.0516 37.1905C15.8767 28.2536 23.1417 23.2746 31.0655 22.9165C38.9787 22.5589 47.2894 26.8423 50.0152 36.2709Z" fill="#CF56A8" stroke="black" stroke-width="2"/>
<path d="M26.9275 28.4474C29.9847 28.4247 24.4448 33.4988 23.2015 36.3391C21.3495 40.5698 24.6486 47.6525 21.9106 45.7717C21.2586 45.3239 18.5791 41.3926 19.9192 35.2469C20.6568 32.2022 23.2539 29.1038 26.9275 28.4474Z" fill="#F080CC"/>
</svg>
