<svg width="100" height="101" viewBox="0 0 100 101" fill="none" xmlns="http://www.w3.org/2000/svg">
<rect x="98.5" y="2" width="97" height="97" rx="8.5" transform="rotate(90 98.5 2)" fill="#FFAEE5"/>
<rect x="98.5" y="2" width="97" height="97" rx="8.5" transform="rotate(90 98.5 2)" stroke="black" stroke-width="3"/>
<path d="M48.5152 35.2709L49.5817 38.96L50.45 35.2192C52.6683 25.6614 61.0036 21.2797 69.2276 21.5084C77.4871 21.7381 85.2199 26.5883 86.3686 35.1265C86.9996 39.8165 85.6542 44.499 83.043 49.0432C80.43 53.5905 76.5819 57.9403 72.3134 61.9226C65.5291 68.2519 57.8077 73.5458 52.4953 77.188C51.37 77.9595 50.3528 78.6569 49.4755 79.2743C48.7672 78.7762 47.955 78.2164 47.059 77.5987C42.0673 74.1576 34.473 68.9224 27.7331 62.5831C23.591 58.6871 19.8149 54.4119 17.1898 49.9313C14.5653 45.4519 13.1238 40.8245 13.5516 36.1905C14.3767 27.2536 21.6417 22.2746 29.5655 21.9165C37.4787 21.5589 45.7894 25.8423 48.5152 35.2709Z" fill="#CF56A8" stroke="black" stroke-width="2"/>
<path d="M25.4275 27.4474C28.4847 27.4247 22.9448 32.4988 21.7015 35.3391C19.8495 39.5698 23.1486 46.6525 20.4106 44.7717C19.7586 44.3239 17.0791 40.3926 18.4192 34.2469C19.1568 31.2022 21.7539 28.1038 25.4275 27.4474Z" fill="#F080CC"/>
</svg>
