<svg width="41" height="37" viewBox="0 0 41 37" fill="none" xmlns="http://www.w3.org/2000/svg">
<path d="M34.941 7.4522C38.4476 15.9522 27.0984 26.6139 23.0002 29.6913C17.7689 28.8532 3.61856 25.5454 2.12146 16.6438C0.66393 7.97744 13.3939 3.71925 18.2543 11.8594C17.9565 2.3397 31.7064 -0.388365 34.941 7.4522Z" fill="#CF56A8"/>
<path d="M10.0191 9.37504C11.5683 10.0143 7.68986 11.3982 6.45726 12.5683C4.62122 14.3112 4.78012 18.5911 3.7974 17.0583C3.56339 16.6933 3.04666 14.1371 5.03172 11.3179C6.05238 9.93701 8.02374 8.92468 10.0191 9.37504Z" fill="#F080CC"/>
<path d="M22.4693 28.0031C22.4693 28.0031 19.8661 27.8125 17.398 26.9425C17.112 26.8417 13.5205 25.8274 11.5881 24.8954C11.3481 24.7796 10.6943 24.5807 9.65568 23.9637C9.06026 23.668 7.35322 22.7831 7.13164 22.572C6.73698 22.1961 7.95476 22.4361 8.18292 22.44C8.93202 22.4527 17.6497 25.3188 21.0369 24.4566C24.3484 23.6137 29.0507 18.9208 30.9024 17.1309C31.6642 16.3946 33.0813 14.5388 33.4902 14.7769C33.5463 14.8097 33.0408 15.7838 32.5582 16.7094C31.7836 18.1949 30.9185 19.3084 30.4046 19.9699C29.4853 21.1532 28.0995 22.7087 27.0423 23.8091C25.059 25.8735 22.4693 28.0031 22.4693 28.0031Z" fill="#BE4F9B"/>
</svg>
