<svg width="52" height="42" viewBox="0 0 52 42" fill="none" xmlns="http://www.w3.org/2000/svg">
<path d="M50.9958 10.3245C52.8162 23.9247 32.3786 34.9828 25.2928 37.8612C18.0645 34.6586 -1.0913 24.4938 0.140749 11.0799C1.34024 -1.97942 21.3299 -3.27223 25.2406 10.3245C28.4385 -3.52403 49.3166 -2.22053 50.9958 10.3245Z" fill="#CF56A8"/>
<path d="M14.3053 3.60234C16.2968 5.11504 10.1736 5.63386 7.94935 6.85236C4.63615 8.66729 3.23447 14.903 2.4007 12.317C2.20216 11.7012 2.43068 7.81619 6.36903 4.50507C8.36788 2.90158 11.598 2.19219 14.3053 3.60234Z" fill="#F080CC"/>
<path d="M25.17 35.2231C25.17 35.2231 21.4867 33.9561 18.2573 31.7604C17.883 31.506 13.0876 28.6739 10.6547 26.5928C10.3525 26.3343 9.48496 25.7983 8.22165 24.5121C7.47523 23.8587 5.34948 21.9315 5.11021 21.5425C4.68407 20.8496 6.34962 21.6601 6.67733 21.7526C7.75329 22.0564 19.2392 29.5136 24.4548 29.5604C29.5539 29.6061 38.1267 24.6271 41.4804 22.7502C42.8602 21.978 45.6119 19.8404 46.1112 20.3399C46.1796 20.4085 45.0791 21.6213 44.03 22.773C42.3464 24.6211 40.6739 25.898 39.6804 26.6566C37.9031 28.0136 35.3108 29.7297 33.3662 30.9146C29.718 33.1374 25.17 35.2231 25.17 35.2231Z" fill="#BE4F9B"/>
</svg>
