<svg width="58" height="51" viewBox="0 0 58 51" fill="none" xmlns="http://www.w3.org/2000/svg">
<path d="M52.092 10.1599C56.2929 23.2224 38.1375 37.7263 31.6738 41.8144C23.9925 39.9429 3.33888 33.3324 2.17512 19.9125C1.04212 6.84723 20.4866 2.0336 26.7442 14.7225C27.4381 0.526464 48.2169 -1.8893 52.092 10.1599Z" fill="#CF56A8"/>
<path d="M14.7908 10.0434C17.0189 11.1793 11.0844 12.7747 9.11117 14.368C6.1719 16.7411 5.89708 23.1266 4.61836 20.7291C4.31387 20.1582 3.85053 16.2942 7.14002 12.3378C8.82318 10.4055 11.8765 9.13515 14.7908 10.0434Z" fill="#F080CC"/>
<path d="M31.0858 39.2392C31.0858 39.2392 27.2363 38.6448 23.669 37.0559C23.2556 36.8718 18.0343 34.934 15.2712 33.3169C14.928 33.116 13.9792 32.7421 12.508 31.7002C11.6576 31.1892 9.2241 29.6691 8.9197 29.3287C8.37756 28.7223 10.1603 29.2248 10.4993 29.2579C11.612 29.3662 24.2373 34.6707 29.3787 33.7928C34.4053 32.9345 41.9604 26.5154 44.9286 24.0741C46.1497 23.0698 48.4792 20.4785 49.0591 20.8817C49.1386 20.937 48.2704 22.3256 47.4419 23.6449C46.1123 25.7621 44.6925 27.315 43.8491 28.2376C42.3403 29.888 40.093 32.0362 38.3891 33.5468C35.1924 36.3808 31.0858 39.2392 31.0858 39.2392Z" fill="#BE4F9B"/>
</svg>
