<svg width="78" height="68" viewBox="0 0 78 68" fill="none" xmlns="http://www.w3.org/2000/svg">
<path d="M69.5394 13.2808C75.3728 30.7024 51.2975 50.4115 42.7089 55.9884C32.3947 53.6056 4.63674 45.0856 2.86391 27.1369C1.13793 9.66244 27.0943 2.90656 35.6754 19.7951C36.3773 0.777485 64.1585 -2.78935 69.5394 13.2808Z" fill="#CF56A8"/>
<path d="M19.5969 13.7211C22.5981 15.2063 14.6782 17.4373 12.0619 19.602C8.16456 22.8264 7.89879 31.3799 6.14841 28.1906C5.7316 27.4311 5.04943 22.2651 9.39028 16.9154C11.6129 14.3015 15.6805 12.5518 19.5969 13.7211Z" fill="#F080CC"/>
<path d="M41.8801 52.5501C41.8801 52.5501 36.7166 51.8158 31.915 49.7457C31.3586 49.5058 24.3371 46.995 20.6118 44.8741C20.149 44.6106 18.8728 44.1252 16.8864 42.7537C15.7397 42.0832 12.4572 40.087 12.0442 39.636C11.3087 38.8328 13.7036 39.4771 14.1579 39.5159C15.6495 39.6432 32.6378 46.5431 39.5074 45.2854C46.2235 44.0559 56.236 35.3408 60.1709 32.0248C61.7898 30.6605 64.8672 27.1539 65.65 27.6844C65.7573 27.7573 64.6171 29.6303 63.529 31.4099C61.7828 34.2657 59.9067 36.3676 58.7922 37.6164C56.7986 39.8501 53.8242 42.7623 51.567 44.812C47.3325 48.6574 41.8801 52.5501 41.8801 52.5501Z" fill="#BE4F9B"/>
</svg>
