<svg width="59" height="52" viewBox="0 0 59 52" fill="none" xmlns="http://www.w3.org/2000/svg">
<path d="M56.907 20.2662C56.1473 33.9666 33.9999 41.0001 26.5003 42.5001C20 38 3.08762 24.4265 6.81083 11.4809C10.4356 -1.12247 30.3136 1.3525 31.6078 15.4412C37.3435 2.43691 57.6077 7.62867 56.907 20.2662Z" fill="#CF56A8"/>
<path d="M22.1258 6.7886C23.7987 8.64762 17.6867 8.01011 15.2735 8.79034C11.679 9.95244 9.13388 15.8152 8.79935 13.1187C8.71969 12.4766 9.67198 8.70323 14.1609 6.18854C16.4248 4.98791 19.7306 4.89622 22.1258 6.7886Z" fill="#F080CC"/>
<path d="M26.8741 39.8854C26.8741 39.8854 23.4934 37.9508 20.7325 35.189C20.4125 34.8689 16.2326 31.1886 14.2326 28.6886C13.9842 28.3781 13.2324 27.689 12.2324 26.189C11.6216 25.4072 9.89457 23.1159 9.73242 22.689C9.44362 21.9285 10.9278 23.0367 11.2324 23.189C12.2324 23.689 22.1179 33.1659 27.2324 34.189C32.2327 35.1892 41.5864 31.9043 45.2324 30.689C46.7324 30.189 49.8359 28.6047 50.2327 29.1889C50.2871 29.2691 48.9789 30.2543 47.7326 31.189C45.7326 32.689 43.8505 33.6299 42.7324 34.189C40.7324 35.189 37.8645 36.3891 35.7324 37.1886C31.7324 38.6886 26.8741 39.8854 26.8741 39.8854Z" fill="#BE4F9B"/>
</svg>
