<svg width="203" height="125" viewBox="0 0 203 125" fill="none" xmlns="http://www.w3.org/2000/svg">
<path d="M190.881 68.9053L190.198 69.4414L190.633 70.1931C196.25 79.8939 196.414 89.5519 190.931 95.543C185.416 101.569 173.76 104.385 154.594 99.3541L153.877 99.1659L153.489 99.7974C145.312 113.091 135.534 117.661 126.681 117.082C117.757 116.5 109.482 110.674 104.405 102.594L103.67 101.424L102.788 102.489C94.461 112.55 84.4301 116.388 75.8187 115.208C67.2259 114.031 59.8203 107.831 56.7297 97.3194L56.3726 96.1051L55.2739 96.7333C41.1766 104.793 31.9029 103.862 26.8743 99.0255C21.7482 94.0954 20.4701 84.6301 23.4898 74.4101L23.8249 73.2759L22.6508 73.1339C9.13043 71.4993 3.02428 63.2357 3.56266 55.1906C4.10472 47.0906 11.4145 38.5628 26.0862 36.5541L26.8936 36.4435L26.9483 35.6304C27.5294 26.9905 30.1481 21.0622 33.812 17.1925C37.4744 13.3245 42.2711 11.4181 47.3919 10.9878C57.7082 10.1209 69.1062 15.2649 74.4573 22.0302L75.3703 23.1846L76.1072 21.9106C81.0987 13.2811 89.2725 7.52478 97.7182 6.47078C106.098 5.42497 114.916 8.98606 121.362 19.3437L121.913 20.2275L122.774 19.6423C131.747 13.5434 139.921 12.6088 145.889 15.2365C151.84 17.8571 155.917 24.1631 156.419 33.2553L156.508 34.865L157.911 34.0701C165.707 29.6521 172.765 28.8005 178.667 30.1442C184.581 31.4905 189.429 35.0615 192.759 39.6492C199.47 48.8966 199.831 61.884 190.881 68.9053Z" fill="white" stroke="white" stroke-width="2"/>
<path d="M189.128 68.8381C200.958 85.5372 194.341 109.352 153.581 98.472C135.359 127.618 112.446 116.221 103.606 100.295C85.2054 125.698 59.7659 114.441 56.704 94.9125C25.9992 113.492 18.334 91.4042 24.7408 72.7598C9.26324 70.8008 4.8957 63.5382 4.55994 57.4599C5.99563 56.0323 9.38564 61.8741 15.8992 65.2753C19.4267 67.1174 23.4168 66.736 28.9314 67.8384C30.9602 68.6643 31.5579 70.5073 31.5579 70.5073C32.6756 72.7904 31.296 74.7426 31.296 74.7426C26.2463 82.0564 23.9167 106.938 54.8856 88.9161C55.1904 88.7387 57.3053 87.8445 58.2936 87.7899C58.7882 87.7626 60.7653 87.6534 61.8314 89.0014C68.0004 98.9145 76.9613 116.023 100.279 93.9125C101.684 92.4279 102.673 92.3733 103.139 92.3475C103.661 92.3187 105.144 92.2367 106.21 93.5848C135.3 129.47 140.674 98.0056 151.736 92.008C152.699 91.4858 154.182 91.4039 155.196 91.8169C170.19 97.9208 192.183 99.3351 189.128 68.8381Z" fill="#DAE7FF"/>
<path d="M75.0729 23.5492C75.0729 23.5492 75.4272 23.9987 75.8348 25.3831C76.2425 26.7676 76.2822 27.4971 76.2939 27.7027C76.3055 27.9083 76.3367 28.482 76.3455 28.6378C76.3544 28.7937 76.37 30.0051 76.3241 30.5067C76.2051 31.8077 75.9215 32.8821 75.9215 32.8821" stroke="white" stroke-linecap="round"/>
<path d="M81.3254 110.205C81.3254 110.205 77.5446 110.268 75.8618 109.811C74.1791 109.353 73.4537 109.188 71.746 108.327C70.0383 107.466 68.6584 106.447 68.363 106.218C68.0675 105.988 66.3074 104.468 65.162 102.855C63.2534 100.341 62.7127 97.4676 62.7127 97.4676" stroke="white" stroke-linecap="round"/>
<path d="M121.949 28.4633C121.949 28.4633 122.257 28.0711 122.525 26.9307C122.793 25.7903 122.76 25.2068 122.751 25.0423C122.743 24.8777 122.717 24.4189 122.71 24.2942C122.703 24.1695 122.599 23.2054 122.504 22.8114C122.256 21.7895 121.868 20.964 121.868 20.964" stroke="white" stroke-linecap="round"/>
<path d="M85.75 109.139C85.75 109.139 86.0752 109.144 86.8126 108.856C87.55 108.569 87.8709 108.34 87.9615 108.276C88.0521 108.212 88.3044 108.032 88.3731 107.983C88.4417 107.934 88.9551 107.532 89.1474 107.343C89.6463 106.852 89.9866 106.364 89.9866 106.364" stroke="white" stroke-linecap="round"/>
</svg>
