<svg width="165" height="102" viewBox="0 0 165 102" fill="none" xmlns="http://www.w3.org/2000/svg">
<path d="M157.608 60.9046L156.943 61.3961L157.3 62.1416C161.565 71.025 161.239 79.5785 156.395 84.5889C151.549 89.6009 141.721 91.5519 125.875 86.1509L125.142 85.901L124.716 86.5487C117.239 97.9403 108.865 101.457 101.555 100.523C94.1653 99.5777 87.5153 94.047 83.6311 86.6334L82.9539 85.3408L81.9928 86.4389C74.5477 94.9458 66.0018 97.8157 58.9123 96.3639C51.8371 94.9151 45.9233 89.1049 43.8166 79.6266L43.5319 78.3461L42.3726 78.9597C30.1807 85.4131 22.5488 84.0917 18.6246 79.636C14.5796 75.0432 13.933 66.6019 16.9432 57.676L17.3109 56.5856L16.1799 56.3736C4.99702 54.2772 0.268489 46.7077 1.09183 39.6089C1.91946 32.4732 8.41441 25.3161 20.7452 24.2595L21.5588 24.1897L21.6532 23.3786C22.5419 15.7375 25.0145 10.6213 28.2482 7.38834C31.475 4.16217 35.549 2.72123 39.8262 2.59164C48.4605 2.33005 57.7477 7.42161 61.9091 13.6624L62.7723 14.9569L63.5913 13.6341C68.175 6.23137 75.2717 1.56407 82.3388 1.04796C89.3302 0.537384 96.5233 4.07379 101.447 13.568L101.95 14.5377L102.872 13.9513C110.664 8.99343 117.497 8.59471 122.308 11.1778C127.12 13.762 130.255 19.5157 130.255 27.6155V29.2688L131.719 28.5011C138.441 24.9773 144.356 24.5792 149.197 26.045C154.052 27.5154 157.934 30.8949 160.51 35.118C165.712 43.6481 165.387 55.1559 157.608 60.9046Z" fill="white" stroke="white" stroke-width="2"/>
<path d="M156.25 60.8332C165.416 76.2499 158.75 97.0832 125 85.4165C108.333 110.417 89.6065 99.1665 82.9166 84.5832C66.2732 106.25 45.4164 94.9999 43.7498 77.4999C17.0829 92.4999 11.6664 72.4999 17.9163 56.2499C4.99984 53.7499 1.6665 47.0832 1.6665 41.6665C2.93933 40.4687 5.5171 45.8251 10.8332 49.1665C13.7122 50.9761 17.0832 50.8332 21.6665 52.0832C23.3332 52.9165 23.7499 54.5832 23.7499 54.5832C24.5832 56.6665 23.3332 58.3332 23.3332 58.3332C18.7499 64.5832 15.637 86.5749 42.4999 72.0832C42.7643 71.9405 44.5832 71.2499 45.4163 71.2499C45.8332 71.2499 47.4999 71.2499 48.3332 72.4999C53.0575 81.6097 59.794 97.2494 80.4166 78.7499C81.6666 77.4999 82.4999 77.4999 82.8932 77.4999C83.3332 77.4999 84.5832 77.4999 85.4166 78.7499C108.198 112.059 114.174 84.3688 123.749 79.5832C124.583 79.1665 125.833 79.1665 126.667 79.5832C138.984 85.742 157.401 88.0778 156.25 60.8332Z" fill="#DAE7FF"/>
<path d="M62.5002 15C62.5002 15 62.777 15.4167 63.0553 16.6667C63.3336 17.9167 63.3332 18.5668 63.3334 18.75C63.3337 18.9332 63.3332 19.4444 63.3334 19.5833C63.3336 19.7222 63.2905 20.7993 63.2287 21.2427C63.0683 22.3927 62.78 23.3333 62.78 23.3333" stroke="white" stroke-linecap="round"/>
<path d="M63.7322 92.2946C63.7322 92.2946 60.5517 92.1656 59.1588 91.6766C57.7659 91.1876 57.1639 91.0053 55.7688 90.1564C54.3736 89.3075 53.2613 88.3345 53.0236 88.1164C52.7859 87.8983 51.3773 86.4615 50.4896 84.9716C49.0023 82.6448 48.6812 80.0652 48.6812 80.0652" stroke="white" stroke-linecap="round"/>
<path d="M101.667 21.6665C101.667 21.6665 101.944 21.3332 102.222 20.3332C102.5 19.3332 102.5 18.8131 102.5 18.6665C102.5 18.5199 102.5 18.1109 102.5 17.9998C102.5 17.8887 102.457 17.0271 102.395 16.6724C102.235 15.7523 101.947 14.9998 101.947 14.9998" stroke="white" stroke-linecap="round"/>
<path d="M67.4998 91.5659C67.4998 91.5659 67.7729 91.5858 68.406 91.3665C69.039 91.1472 69.3193 90.9598 69.3984 90.9072C69.4776 90.8546 69.6979 90.7072 69.7579 90.6673C69.8179 90.6274 70.268 90.2956 70.4384 90.1367C70.8805 89.7246 71.1891 89.3082 71.1891 89.3082" stroke="white" stroke-linecap="round"/>
</svg>
