<svg width="98" height="82" viewBox="0 0 98 82" fill="none" xmlns="http://www.w3.org/2000/svg">
<path d="M11.1526 35.8483L11.5462 36.449L11.1028 37.0139C7.59412 41.4842 6.44199 46.3202 7.91799 49.6901C9.34459 52.9473 13.5217 55.4183 22.0676 54.5317L22.9405 54.4412L23.1436 55.2949C24.9354 62.8257 28.3714 65.7381 31.7663 66.175C35.2784 66.6269 39.296 64.5257 42.3792 60.8432L43.4729 59.5368L44.0802 61.1287C46.3087 66.9701 49.8927 69.5776 53.2912 69.7176C56.7054 69.8582 60.4318 67.5324 62.9887 62.425L63.6411 61.1218L64.6223 62.1994C67.0399 64.8547 69.1796 66.2029 70.9687 66.668C72.7122 67.1214 74.1928 66.7576 75.4372 65.8121C76.716 64.8405 77.7944 63.2114 78.5513 61.0826C79.3047 58.9638 79.7155 56.4146 79.7065 53.6944L79.703 52.6286L80.7669 52.6929C86.2689 53.0259 89.6906 49.5539 90.427 45.465C91.1634 41.3763 89.2132 36.6011 83.617 34.3858L82.856 34.0846L83.0009 33.2791C83.8067 28.7975 83.4205 25.5943 82.4103 23.3887C81.4122 21.2095 79.767 19.9173 77.838 19.2945C73.8867 18.0187 68.6962 19.5554 65.724 22.4774L64.4233 23.7561L64.0447 21.9719C63.0208 17.1468 60.3717 13.6701 57.2325 12.4806C54.1953 11.3297 50.3018 12.1854 46.3914 16.8919L45.59 17.8564L44.828 16.8605C41.8902 13.0209 38.8251 12.0246 36.344 12.7517C33.7854 13.5015 31.36 16.2098 30.046 20.8349L29.5573 22.5553L28.3476 21.2381C25.7156 18.3722 23.0387 17.4143 20.6276 17.5697C18.1804 17.7275 15.8286 19.0442 13.919 21.0678C12.0116 23.089 10.6113 25.7504 10.0535 28.4428C9.49556 31.1357 9.7938 33.7747 11.1526 35.8483Z" fill="white" stroke="white" stroke-width="2"/>
<path d="M11.4154 36.1652C4.40778 43.7457 4.2744 56.6419 22.7156 54.6377C26.8022 71.3196 37.814 67.4634 43.472 60.0169C48.0912 74.7806 60.1468 71.221 63.8195 61.3997C74.438 73.7288 80.3561 62.9932 79.9457 52.788C86.6826 53.1498 89.4039 49.7839 90.2879 46.6722C89.8598 45.8069 87.7225 48.5252 84.5723 49.7048C82.8663 50.3436 81.2379 49.7922 78.7881 49.8723C77.8354 50.1191 77.3593 51.0185 77.3593 51.0185C76.6109 52.0994 76.9514 53.2308 76.9514 53.2308C78.1772 57.4593 76.1135 70.5263 65.3159 58.4619C65.2096 58.3431 64.4311 57.6931 64.0229 57.5772C63.8186 57.5191 63.0019 57.2871 62.3896 57.8892C58.588 62.465 52.7348 70.5119 45.649 57.0138C45.2405 56.1217 44.8322 56.0057 44.6395 55.9509C44.4239 55.8897 43.8114 55.7157 43.1991 56.3178C26.6003 72.2819 28.191 55.5427 24.2802 51.4606C23.9397 51.1052 23.3272 50.9312 22.8509 51.0545C15.8105 52.8781 6.4049 51.6563 11.4154 36.1652Z" fill="#DAE7FF"/>
<path d="M64.8322 22.885C64.8322 22.885 64.6285 23.0859 64.2881 23.7652C63.9478 24.4446 63.8419 24.8181 63.8119 24.9233C63.7818 25.0286 63.6986 25.3223 63.6759 25.4021C63.6531 25.4818 63.4984 26.1066 63.4564 26.3699C63.3473 27.0529 63.335 27.6334 63.335 27.6334" stroke="white" stroke-linecap="round"/>
<path d="M51.6135 67.1176C51.6135 67.1176 53.1929 67.4862 53.9553 67.3991C54.7176 67.3121 55.0423 67.2912 55.8645 66.9977C56.6866 66.7043 57.3905 66.3001 57.5425 66.2079C57.6946 66.1157 58.6193 65.4864 59.2974 64.7541C60.4059 63.6244 60.9842 62.1872 60.9842 62.1872" stroke="white" stroke-linecap="round"/>
<path d="M44.5529 21.263C44.5529 21.263 44.4716 21.0329 44.4984 20.4197C44.5253 19.8065 44.6104 19.5078 44.6342 19.4236C44.658 19.3393 44.7249 19.1044 44.743 19.0406C44.761 18.9767 44.9228 18.4877 45.0109 18.2926C45.2397 17.7863 45.5037 17.3942 45.5037 17.3942" stroke="white" stroke-linecap="round"/>
<path d="M49.887 66.1742C49.887 66.1742 49.75 66.1477 49.4756 65.9336C49.2012 65.7195 49.0944 65.5728 49.0642 65.5316C49.034 65.4903 48.9501 65.375 48.9272 65.3437C48.9043 65.3124 48.738 65.0591 48.6804 64.9442C48.531 64.6459 48.4478 64.3637 48.4478 64.3637" stroke="white" stroke-linecap="round"/>
</svg>
