<svg width="138" height="92" viewBox="0 0 138 92" fill="none" xmlns="http://www.w3.org/2000/svg">
<path d="M126.383 40.9273L125.714 41.5736L126.31 42.2877C130.607 47.4316 131.372 52.8992 128.507 56.7358C125.577 60.6605 118.505 63.4139 105.88 62.2005L105.186 62.1339L104.884 62.7612C100.774 71.2763 94.9888 74.8001 89.4063 75.2621C83.7652 75.7289 78.1173 73.0899 74.302 68.857L73.4439 67.905L72.7291 68.9688C68.2712 75.6039 62.2618 78.7373 56.7757 78.829C51.309 78.9203 46.2245 76.0017 43.4839 70.2221L42.9679 69.1339L41.9931 69.8411C33.6618 75.8858 27.815 76.0869 24.3992 73.8093C20.9255 71.493 19.3498 66.2286 20.4472 59.9837L20.66 58.7724L19.4309 58.8111C10.7306 59.0845 6.46043 54.8085 6.18194 50.3351C5.89822 45.7777 9.66863 40.1544 18.8281 37.6311L19.6107 37.4155L19.5606 36.6053C19.2461 31.5244 20.425 27.8797 22.3884 25.3403C24.3568 22.7944 27.1944 21.2551 30.383 20.5404C33.5768 19.8246 37.083 19.9477 40.294 20.6978C43.5123 21.4496 46.3577 22.8131 48.2637 24.5036L49.2821 25.4069L49.8395 24.165C52.2926 18.7001 56.9726 14.6115 62.1911 13.2356C67.358 11.8734 73.1427 13.1426 77.9876 18.5662L78.6359 19.292L79.3791 18.6637C84.5716 14.2732 89.6225 13.0204 93.5184 13.9953C97.3765 14.9607 100.38 18.1805 101.4 23.3708L101.7 24.9004L102.965 23.9896C112.06 17.4414 120.436 19.3879 125.255 24.0428C130.164 28.7843 131.332 36.1488 126.383 40.9273Z" fill="white" stroke="white" stroke-width="2"/>
<path d="M125.495 41.3586C134.39 50.1564 132.067 64.863 105.15 62.1706C95.8384 81.1002 80.2856 76.4604 73.3626 67.8453C63.6368 84.5762 46.4803 80.2514 42.9615 68.9725C24.8275 82.7951 18.1624 70.4242 20.7648 58.7977C10.7179 59.0614 7.34603 55.1637 6.64522 51.5963C7.44843 50.6191 10.082 53.7656 14.5162 55.1801C16.9177 55.9462 19.4368 55.3535 23.0489 55.4989C24.4114 55.8013 24.9407 56.8373 24.9407 56.8373C25.8376 58.0862 25.1122 59.3687 25.1122 59.3687C22.4705 64.1627 22.9725 79.1067 41.3198 65.5899C41.5004 65.4568 42.7803 64.7329 43.4075 64.6098C43.7213 64.5481 44.976 64.3016 45.765 65.0016C50.5001 70.3027 57.5948 79.6067 70.7259 64.3732C71.5052 63.3651 72.1325 63.2418 72.4286 63.1837C72.7598 63.1186 73.7008 62.9337 74.4899 63.6337C95.9492 82.202 96.8656 63.0815 103.455 58.5136C104.028 58.1159 104.969 57.9311 105.651 58.0823C115.72 60.3169 129.886 59.1316 125.495 41.3586Z" fill="#DAE7FF"/>
<path d="M48.9892 25.0374C48.9892 25.0374 49.2518 25.2709 49.6232 26.0529C49.9946 26.8349 50.0784 27.2632 50.1023 27.3838C50.1262 27.5045 50.192 27.8412 50.2101 27.9326C50.2283 28.0241 50.3351 28.7398 50.3459 29.041C50.3738 29.8222 50.2783 30.4843 50.2783 30.4843" stroke="white" stroke-linecap="round"/>
<path d="M59.9184 75.7604C59.9184 75.7604 57.5075 76.1458 56.3957 76.0297C55.2838 75.9137 54.807 75.8827 53.647 75.5299C52.4869 75.1771 51.5236 74.7008 51.3165 74.5923C51.1093 74.4838 49.863 73.7459 49.002 72.8959C47.5813 71.5834 47.0059 69.932 47.0059 69.932" stroke="white" stroke-linecap="round"/>
<path d="M79.3369 23.6361C79.3369 23.6361 79.5024 23.3755 79.5827 22.6757C79.663 21.976 79.5954 21.6335 79.5766 21.5369C79.5579 21.4403 79.5046 21.1711 79.4904 21.0979C79.4762 21.0246 79.3322 20.4635 79.2397 20.2391C78.9998 19.6569 78.6852 19.204 78.6852 19.204" stroke="white" stroke-linecap="round"/>
<path d="M62.6603 74.7233C62.6603 74.7233 62.8685 74.696 63.3167 74.458C63.7648 74.2199 63.9516 74.0551 64.0044 74.0087C64.0571 73.9624 64.2039 73.8327 64.2439 73.7976C64.2839 73.7624 64.5798 73.4773 64.6876 73.3475C64.967 73.0107 65.1455 72.6908 65.1455 72.6908" stroke="white" stroke-linecap="round"/>
</svg>
