<svg width="136" height="102" viewBox="0 0 136 102" fill="none" xmlns="http://www.w3.org/2000/svg">
<path d="M129.727 61.1676L129.211 61.632L129.466 62.278C132.994 71.225 132.73 79.8884 128.716 84.9416C124.796 89.8761 116.862 91.8503 103.868 86.4594L103.033 86.1131L102.604 86.9084C96.4136 98.3889 89.5701 101.765 83.7542 100.859C77.8103 99.9341 72.3433 94.4769 69.1198 86.9877L68.421 85.3643L67.3893 86.7993C61.2414 95.3497 54.2879 98.1019 48.6335 96.6925C42.9526 95.2765 38.048 89.533 36.2936 79.9257L36.0251 78.455L34.7683 79.2647C29.7746 82.4821 25.7339 83.7387 22.5893 83.6655C19.4964 83.5936 17.1781 82.2355 15.5418 79.974C13.8791 77.676 12.8952 74.4011 12.6528 70.5251C12.4111 66.6605 12.9119 62.2694 14.147 57.8115L14.4266 56.8025L13.4058 56.5696C4.3872 54.5117 0.380485 47.0141 1.07569 39.7181C1.77034 32.428 7.1703 25.373 17.1315 24.334L17.9454 24.2491L18.0232 23.4345C18.7593 15.7303 20.8096 10.5782 23.4722 7.33794C26.114 4.12299 29.4109 2.723 32.8374 2.59664C39.7935 2.34011 47.3955 7.35093 50.8359 13.6311L51.7457 15.2918L52.6042 13.604C56.4008 6.14054 62.2204 1.55125 67.8947 1.04685C73.4514 0.5529 79.3429 3.95503 83.4279 13.5426L83.9358 14.7346L84.9602 13.9412C91.3492 8.9934 96.8299 8.66877 100.653 11.1676C104.563 13.7232 107.185 19.4963 107.185 27.706V29.5304L108.723 28.549C114.214 25.0449 118.987 24.6785 122.866 26.1085C126.786 27.5533 129.974 30.8992 132.108 35.1587C134.239 39.4127 135.27 44.4877 134.938 49.2305C134.606 53.9765 132.92 58.2956 129.727 61.1676Z" fill="white" stroke="white" stroke-width="2"/>
<path d="M128.787 61.0328C136.343 76.5001 130.848 97.4017 103.029 85.6968C89.2921 110.779 73.8569 99.4918 68.3428 84.8607C54.6246 106.598 37.4336 95.3115 36.0598 77.7542C14.0799 92.8033 9.61543 72.7378 14.7668 56.4345C4.12052 53.9263 1.37305 47.2377 1.37305 41.8033C2.42217 40.6015 4.54687 45.9755 8.9286 49.3279C11.3016 51.1435 14.0801 51 17.8579 52.2541C19.2317 53.0902 19.5751 54.7624 19.5751 54.7624C20.262 56.8525 19.2317 58.5247 19.2317 58.5247C15.4539 64.7951 12.8882 86.8589 35.0297 72.3197C35.2476 72.1766 36.7468 71.4836 37.4335 71.4837C37.7771 71.4836 39.1509 71.4836 39.8377 72.7377C43.7317 81.8775 49.2842 97.5684 66.2822 79.0082C67.3125 77.7541 67.9994 77.7541 68.3235 77.7542C68.6862 77.7541 69.7165 77.7541 70.4034 79.0082C89.1808 112.427 94.1067 84.6456 101.999 79.8443C102.686 79.4263 103.717 79.4263 104.403 79.8443C114.556 86.0233 129.736 88.3668 128.787 61.0328Z" fill="#DAE7FF"/>
<path d="M51.5143 15.0493C51.5143 15.0493 51.7425 15.4673 51.9719 16.7214C52.2013 17.9755 52.2009 18.6278 52.2011 18.8116C52.2013 18.9955 52.2009 19.5083 52.2011 19.6477C52.2013 19.787 52.1657 20.8676 52.1148 21.3124C51.9826 22.4663 51.745 23.41 51.745 23.41" stroke="white" stroke-linecap="round"/>
<path d="M52.5301 92.5975C52.5301 92.5975 49.9086 92.4681 48.7605 91.9775C47.6124 91.4869 47.1162 91.304 45.9663 90.4523C44.8164 89.6006 43.8995 88.6244 43.7036 88.4056C43.5077 88.1868 42.3466 86.7453 41.615 85.2505C40.3891 82.9161 40.1245 80.328 40.1245 80.328" stroke="white" stroke-linecap="round"/>
<path d="M83.797 21.7378C83.797 21.7378 84.0252 21.4034 84.2546 20.4001C84.484 19.3968 84.4836 18.875 84.4838 18.728C84.484 18.5809 84.4836 18.1706 84.4838 18.0591C84.484 17.9476 84.4484 17.0831 84.3975 16.7273C84.2653 15.8042 84.0277 15.0493 84.0277 15.0493" stroke="white" stroke-linecap="round"/>
<path d="M55.6352 91.8658C55.6352 91.8658 55.8602 91.8857 56.382 91.6657C56.9038 91.4457 57.1348 91.2577 57.2 91.2049C57.2653 91.1521 57.4469 91.0042 57.4963 90.9642C57.5458 90.9242 57.9168 90.5913 58.0572 90.4319C58.4216 90.0184 58.676 89.6007 58.676 89.6007" stroke="white" stroke-linecap="round"/>
</svg>
