<svg width="65" height="42" viewBox="0 0 65 42" fill="none" xmlns="http://www.w3.org/2000/svg">
<path d="M60.037 22.6675L59.4007 23.1957L59.8 23.9199C61.5271 27.0518 61.4773 29.9535 60.0094 31.6538C58.54 33.3557 55.2168 34.3636 49.2293 32.6927L48.483 32.4844L48.095 33.1551C45.6103 37.4497 42.7389 38.7537 40.2832 38.5795C37.7474 38.3995 35.2955 36.626 33.7543 34.0488L33.0053 32.7964L32.1076 33.9469C29.5946 37.1676 26.654 38.2807 24.2388 37.9265C21.8381 37.5744 19.6662 35.7318 18.7295 32.4129L18.3732 31.1504L17.2502 31.8284C12.8974 34.4564 10.3762 33.9554 9.11948 32.681C7.73451 31.2765 7.26499 28.4031 8.18095 25.0796L8.4867 23.9702L7.3455 23.8222C3.37252 23.3069 1.73508 20.8058 1.87121 18.506C2.00953 16.1691 4.00898 13.5358 8.38694 12.9107L9.19532 12.7952L9.24382 11.9801C9.40973 9.1921 10.196 7.3677 11.2227 6.21847C12.243 5.07644 13.5842 4.50698 15.0547 4.37927C18.0753 4.11692 21.4591 5.73817 23.0233 7.8196L23.958 9.06339L24.7012 7.69656C26.1897 4.95938 28.5987 3.20961 31.0025 2.8972C33.3308 2.59458 35.8792 3.61223 37.821 6.89037L38.3777 7.83018L39.2648 7.19286C41.9712 5.24859 44.2844 5.05885 45.8719 5.79933C47.4616 6.54082 48.68 8.38064 48.843 11.2693L48.9361 12.9201L50.3549 12.0711C52.6838 10.6775 54.7289 10.4469 56.3943 10.8504C58.0751 11.2577 59.4817 12.3384 60.4652 13.7637C62.4877 16.6951 62.4976 20.6253 60.037 22.6675Z" fill="white" stroke="white" stroke-width="2"/>
<path d="M59.9252 23.15C63.6915 28.7415 61.6307 36.7008 48.7182 33.037C42.9927 42.7717 35.727 38.9463 32.9077 33.6151C27.1205 42.0984 19.0553 38.318 18.0594 31.786C8.36947 37.9796 5.91344 30.5887 7.91487 24.3582C3.01472 23.6934 1.62268 21.2621 1.50802 19.2294C1.96033 18.7529 3.04109 20.7085 5.10682 21.8499C6.22555 22.4681 7.48757 22.3431 9.23406 22.7151C9.87716 22.9926 10.0688 23.6092 10.0688 23.6092C10.4256 24.3734 9.99183 25.0253 9.99183 25.0253C8.40411 27.4678 7.70144 35.7867 17.4757 29.7797C17.5719 29.7205 18.2399 29.4228 18.5525 29.4052C18.709 29.3964 19.3344 29.3611 19.6736 29.8126C21.6394 33.1313 24.4985 38.8579 31.846 31.4789C32.2887 30.9833 32.6014 30.9657 32.749 30.9574C32.9141 30.9481 33.3832 30.9216 33.7224 31.3731C42.9768 43.391 44.6335 32.873 48.1255 30.8744C48.4296 30.7004 48.8987 30.6739 49.2202 30.8126C53.9729 32.8632 60.934 33.3499 59.9252 23.15Z" fill="#DAE7FF"/>
<path d="M23.7727 7.93414C23.7727 7.93414 23.8854 8.08465 24.0163 8.54785C24.1472 9.01106 24.1608 9.25503 24.1648 9.32379C24.1688 9.39256 24.1794 9.58441 24.1824 9.63652C24.1855 9.68864 24.1921 10.0938 24.1783 10.2614C24.1424 10.6964 24.0541 11.0555 24.0541 11.0555" stroke="white" stroke-linecap="round"/>
<path d="M25.8709 36.9148C25.8709 36.9148 24.6746 36.9337 24.1415 36.7797C23.6085 36.6256 23.3787 36.57 22.8371 36.2809C22.2956 35.9919 21.8576 35.6503 21.7638 35.5735C21.67 35.4967 21.1109 34.9873 20.7462 34.4469C20.1389 33.6052 19.9638 32.644 19.9638 32.644" stroke="white" stroke-linecap="round"/>
<path d="M38.6121 9.607C38.6121 9.607 38.7089 9.47604 38.7922 9.09488C38.8755 8.71371 38.8643 8.51855 38.8613 8.46353C38.8583 8.40851 38.8494 8.25505 38.8472 8.21334C38.8449 8.17164 38.8105 7.84919 38.7798 7.7174C38.7001 7.37551 38.576 7.09923 38.576 7.09923" stroke="white" stroke-linecap="round"/>
<path d="M27.2699 36.5618C27.2699 36.5618 27.3728 36.5635 27.6058 36.4678C27.8387 36.3721 27.9399 36.2959 27.9685 36.2745C27.9971 36.253 28.0767 36.1931 28.0983 36.1768C28.12 36.1606 28.2819 36.0265 28.3425 35.9633C28.4996 35.7993 28.6066 35.6365 28.6066 35.6365" stroke="white" stroke-linecap="round"/>
</svg>
