<svg width="147" height="214" viewBox="0 0 147 214" fill="none" xmlns="http://www.w3.org/2000/svg">
<path d="M1.63952 205.795C77.8745 228.32 143.615 173.145 144.566 113.124C145.045 82.9254 129.122 51.7984 104.986 30.0185C81.2202 8.57249 49.56 -3.74989 17.8769 2.75161C55.4472 20.1925 73.3868 43.4403 81.3698 63.1937C85.407 73.1836 86.8941 82.2711 87.091 89.2486C87.1894 92.7367 86.9655 95.7033 86.5738 97.9961C86.2023 100.171 85.6693 101.805 85.0717 102.685C85.036 102.85 84.9616 103.004 84.8874 103.133C84.7788 103.322 84.6294 103.526 84.4546 103.739C84.1042 104.166 83.6139 104.672 83.0386 105.226C81.8918 106.331 80.3604 107.672 78.8104 109.029L78.7879 109.048C77.2246 110.417 75.6423 111.802 74.3883 113.001C73.7612 113.601 73.2235 114.147 72.8146 114.615C72.3945 115.097 72.1485 115.454 72.0575 115.681C71.6098 116.801 71.7236 117.865 72.2851 118.64C72.8465 119.415 73.9245 119.996 75.5933 119.996L75.6268 119.996L75.66 120C76.0283 120.05 76.6533 120.021 77.4667 119.976L77.6028 119.969C78.3585 119.927 79.2263 119.878 80.0644 119.895C80.9465 119.912 81.8448 120.001 82.5744 120.27C83.3144 120.543 83.9559 121.035 84.1491 121.885L84.1615 121.94L84.1615 121.992C84.1616 121.988 84.1626 122.008 84.1742 122.071C84.1857 122.134 84.2032 122.215 84.2265 122.318C84.2409 122.383 84.2576 122.455 84.2758 122.534C84.3142 122.701 84.3594 122.898 84.4052 123.11C84.5417 123.742 84.6951 124.563 84.7514 125.437C84.8614 127.145 84.6098 129.252 82.8706 130.412L82.8447 130.429L82.8169 130.443C82.434 130.634 81.8924 131.161 81.6224 131.863C81.365 132.532 81.3572 133.348 81.9933 134.196L82.1394 134.391L82.076 134.626C77.3755 152.072 60.6195 183.449 1.63952 205.795Z" fill="#FFCC33" stroke="#F0B400"/>
<path d="M95.6311 32.7873C104.977 39.6679 107.386 48.6154 111.885 50.1498C112.868 49.103 109.413 39.3947 100.538 31.0629C91.6643 22.731 80.7319 18.9307 79.749 19.9775C79.9597 23.2598 86.757 24.4554 95.6311 32.7873Z" fill="#FFDF7E"/>
<path d="M82.9117 114.495C82.9117 114.495 84.8991 114.579 85.7302 115.879C85.9802 116.27 86.404 117.413 85.7302 118.185C85.0563 118.956 83.8491 118.092 82.1064 117.723C81.1976 117.531 80.0933 118.185 80.0933 118.185" stroke="#F0B400" stroke-width="0.5" stroke-linecap="round"/>
<path d="M105.346 128.555C105.538 128.46 105.707 128.373 105.855 128.295C105.657 128.346 105.424 128.406 105.16 128.473C104.251 128.703 102.98 129.011 101.527 129.325C98.6246 129.954 94.9942 130.609 92.0993 130.711C90.2928 130.774 87.9136 130.62 85.989 130.451C85.0261 130.366 84.1758 130.277 83.5662 130.21C83.2614 130.176 83.0168 130.148 82.8483 130.128C82.764 130.118 82.6988 130.11 82.6546 130.104L82.6159 130.1C82.6002 130.107 82.5777 130.118 82.5499 130.131C82.4928 130.159 82.4134 130.199 82.3247 130.246C82.1457 130.341 81.9348 130.465 81.7904 130.584C81.1083 131.144 80.6888 131.667 80.6984 132.496C80.7018 132.795 80.7442 133.031 80.8337 133.253C80.9236 133.475 81.0633 133.689 81.269 133.941C81.4613 134.176 81.771 134.439 82.1082 134.631C82.4484 134.825 82.7981 134.937 83.0744 134.897C85.5952 134.531 86.0594 134.424 86.7704 134.259C87.0889 134.185 87.457 134.1 88.0817 133.975C88.5725 133.877 89.0097 133.794 89.4196 133.716C90.6436 133.482 91.6237 133.295 93.0581 132.899C93.4444 132.793 94.0883 132.573 95.0876 132.233C95.7458 132.009 96.5583 131.732 97.5531 131.401L102.053 129.901C103.453 129.434 104.575 128.936 105.346 128.555Z" fill="#FFB700" stroke="#E7A800" stroke-width="0.2"/>
<path d="M105.093 128.495C105.093 128.495 98.4704 130.552 93.5518 131.597C91.0877 132.12 89.6842 132.351 87.1753 132.571C84.7496 132.784 80.9448 132.731 80.9448 132.731" stroke="#E7A800" stroke-width="0.2"/>
<path d="M96.0026 98.4951C96.0026 98.4951 96.1952 99.1782 96.0026 99.5996C95.5933 100.495 95.0933 100.495 95.0933 100.495" stroke="black" stroke-width="0.3" stroke-linecap="round"/>
<path d="M98.0026 98.4951C98.0026 98.4951 98.2066 99.5278 98.0026 100.152C97.8125 100.733 97.0933 101.495 97.0933 101.495" stroke="black" stroke-width="0.3" stroke-linecap="round"/>
<path d="M100.009 98.4951C100.009 98.4951 100.199 99.6483 100.009 100.345C99.831 100.995 99.1587 101.845 99.1587 101.845" stroke="black" stroke-width="0.3" stroke-linecap="round"/>
<path d="M102.003 98.4951C102.003 98.4951 102.207 99.5278 102.003 100.152C101.813 100.733 101.093 101.495 101.093 101.495" stroke="black" stroke-width="0.3" stroke-linecap="round"/>
<path d="M109.497 95.5341C109.497 95.5341 110.19 96.4751 110.337 97.1826C110.473 97.8419 110.26 98.905 110.26 98.905" stroke="black" stroke-width="0.3" stroke-linecap="round"/>
<path d="M107.497 96.5341C107.497 96.5341 108.19 97.4751 108.337 98.1826C108.473 98.8419 108.26 99.905 108.26 99.905" stroke="black" stroke-width="0.3" stroke-linecap="round"/>
<path d="M105.497 97.5341C105.497 97.5341 106.19 98.4751 106.337 99.1826C106.473 99.8419 106.26 100.905 106.26 100.905" stroke="black" stroke-width="0.3" stroke-linecap="round"/>
<path d="M103.759 98.5285C103.759 98.5285 104.052 99.5025 104.022 100.125C103.994 100.705 103.659 101.514 103.659 101.514" stroke="black" stroke-width="0.3" stroke-linecap="round"/>
<path d="M111.172 93.9959C111.172 93.9959 112.066 94.7491 112.374 95.4029C112.66 96.0122 112.701 97.0956 112.701 97.0956" stroke="black" stroke-width="0.3" stroke-linecap="round"/>
<path d="M99.0937 85.046C99.0937 85.046 96.1742 88.1345 95.4158 90.6318C94.6332 93.2085 95.4296 97.5321 95.4296 97.5321" stroke="#F0B400" stroke-width="0.5" stroke-linecap="round"/>
<path d="M113.758 91.4951C113.758 91.4951 108.914 96.523 105.15 97.8692C101.458 99.1901 95.2714 98.2306 95.2714 98.2306" stroke="black" stroke-linecap="round"/>
<ellipse cx="8" cy="5.5" rx="8" ry="5.5" transform="matrix(-1 0 0 1 115.093 111.495)" fill="#FF9A9C" fill-opacity="0.48"/>
</svg>
