<svg width="325" height="342" viewBox="0 0 325 342" fill="none" xmlns="http://www.w3.org/2000/svg">
<path d="M221.082 145.428L221.115 145.428L221.148 145.432C221.469 145.476 222.017 145.451 222.741 145.411L222.862 145.404C223.532 145.367 224.305 145.324 225.05 145.338C225.835 145.353 226.64 145.432 227.296 145.675C227.963 145.921 228.552 146.369 228.729 147.148L228.742 147.203L228.742 147.252C228.742 147.252 228.744 147.271 228.752 147.316C228.762 147.37 228.777 147.442 228.798 147.533C228.811 147.59 228.825 147.654 228.841 147.724C228.875 147.872 228.916 148.047 228.957 148.236C229.078 148.798 229.215 149.53 229.265 150.309C229.363 151.829 229.141 153.727 227.571 154.774L227.545 154.792L227.517 154.806C227.191 154.969 226.719 155.425 226.485 156.035C226.262 156.613 226.255 157.316 226.806 158.052L226.952 158.247L226.889 158.482C222.717 173.967 207.859 201.785 155.631 221.616C223.181 241.47 281.39 192.567 282.232 139.385C282.657 112.607 268.537 84.999 247.128 65.68C226.089 46.6951 198.081 35.7751 170.043 41.4624C203.289 56.9371 219.181 77.5407 226.26 95.0568C229.845 103.928 231.166 111.999 231.341 118.198C231.429 121.296 231.23 123.932 230.881 125.971C230.553 127.894 230.081 129.351 229.546 130.145C229.511 130.296 229.443 130.435 229.378 130.548C229.28 130.72 229.145 130.904 228.989 131.094C228.676 131.475 228.239 131.926 227.728 132.418C226.709 133.4 225.349 134.59 223.974 135.794L223.954 135.812C222.566 137.027 221.163 138.255 220.051 139.318C219.495 139.85 219.02 140.333 218.658 140.747C218.286 141.173 218.073 141.484 217.996 141.677C217.605 142.655 217.707 143.578 218.192 144.248C218.677 144.918 219.614 145.428 221.082 145.428Z" fill="#FFCC33" stroke="#F0B400"/>
<path d="M238.864 68.0956C247.157 74.2015 249.295 82.1415 253.287 83.5032C254.16 82.5742 251.093 73.9591 243.218 66.5654C235.343 59.1717 225.642 55.7992 224.77 56.7282C224.957 59.6409 230.989 60.7019 238.864 68.0956Z" fill="#FFDF7E"/>
<path d="M227.576 140.604C227.576 140.604 229.34 140.678 230.077 141.831C230.299 142.178 230.675 143.193 230.077 143.878C229.479 144.562 228.408 143.795 226.862 143.468C226.055 143.298 225.075 143.878 225.075 143.878" stroke="#F0B400" stroke-width="0.5" stroke-linecap="round"/>
<path d="M247.479 153.069C247.613 153.003 247.735 152.941 247.844 152.884C247.69 152.924 247.515 152.969 247.322 153.018C246.516 153.221 245.387 153.495 244.098 153.774C241.522 154.332 238.299 154.914 235.73 155.004C234.126 155.06 232.014 154.923 230.306 154.773C229.451 154.698 228.697 154.619 228.156 154.559C227.885 154.529 227.668 154.504 227.518 154.486C227.444 154.477 227.386 154.47 227.347 154.466L227.315 154.462C227.302 154.468 227.283 154.477 227.26 154.488C227.209 154.513 227.139 154.548 227.06 154.59C226.902 154.675 226.715 154.784 226.588 154.889C225.984 155.385 225.615 155.846 225.623 156.576C225.626 156.841 225.664 157.049 225.742 157.244C225.822 157.44 225.945 157.628 226.127 157.852C226.297 158.059 226.57 158.292 226.869 158.462C227.17 158.634 227.477 158.731 227.719 158.696C229.955 158.372 230.367 158.276 230.998 158.13C231.28 158.065 231.607 157.989 232.162 157.878C232.597 157.791 232.986 157.717 233.349 157.648C234.435 157.441 235.305 157.275 236.577 156.924C236.92 156.829 237.49 156.635 238.377 156.333C238.961 156.134 239.682 155.889 240.565 155.594L244.559 154.263C245.8 153.849 246.795 153.407 247.479 153.069Z" fill="#FFB700" stroke="#E7A800" stroke-width="0.2"/>
<path d="M247.26 153.027C247.26 153.027 241.383 154.853 237.018 155.78C234.832 156.244 233.586 156.449 231.36 156.645C229.207 156.834 225.831 156.786 225.831 156.786" stroke="#E7A800" stroke-width="0.2"/>
<path d="M239.193 126.405C239.193 126.405 239.364 127.011 239.193 127.385C238.83 128.18 238.386 128.18 238.386 128.18" stroke="black" stroke-width="0.3" stroke-linecap="round"/>
<path d="M240.968 126.405C240.968 126.405 241.149 127.322 240.968 127.875C240.799 128.392 240.161 129.067 240.161 129.067" stroke="black" stroke-width="0.3" stroke-linecap="round"/>
<path d="M242.748 126.405C242.748 126.405 242.917 127.429 242.748 128.047C242.59 128.623 241.994 129.378 241.994 129.378" stroke="black" stroke-width="0.3" stroke-linecap="round"/>
<path d="M244.517 126.405C244.517 126.405 244.698 127.322 244.517 127.875C244.349 128.392 243.71 129.067 243.71 129.067" stroke="black" stroke-width="0.3" stroke-linecap="round"/>
<path d="M251.168 123.777C251.168 123.777 251.783 124.612 251.913 125.24C252.034 125.825 251.845 126.769 251.845 126.769" stroke="black" stroke-width="0.3" stroke-linecap="round"/>
<path d="M249.393 124.664C249.393 124.664 250.009 125.5 250.138 126.127C250.26 126.712 250.071 127.656 250.071 127.656" stroke="black" stroke-width="0.3" stroke-linecap="round"/>
<path d="M247.618 125.552C247.618 125.552 248.234 126.387 248.364 127.015C248.485 127.6 248.296 128.543 248.296 128.543" stroke="black" stroke-width="0.3" stroke-linecap="round"/>
<path d="M246.076 126.434C246.076 126.434 246.336 127.299 246.309 127.851C246.284 128.366 245.988 129.084 245.988 129.084" stroke="black" stroke-width="0.3" stroke-linecap="round"/>
<path d="M252.655 122.412C252.655 122.412 253.448 123.08 253.721 123.661C253.975 124.201 254.011 125.163 254.011 125.163" stroke="black" stroke-width="0.3" stroke-linecap="round"/>
<path d="M241.936 114.47C241.936 114.47 239.345 117.211 238.672 119.427C237.978 121.714 238.685 125.551 238.685 125.551" stroke="#F0B400" stroke-width="0.5" stroke-linecap="round"/>
<path d="M254.95 120.193C254.95 120.193 250.651 124.655 247.311 125.85C244.034 127.022 238.544 126.17 238.544 126.17" stroke="black" stroke-linecap="round"/>
<ellipse cx="7.09923" cy="4.88072" rx="7.09923" ry="4.88072" transform="matrix(-1 0 0 1 256.134 137.941)" fill="#FF9A9C" fill-opacity="0.48"/>
</svg>
