<svg width="76" height="76" viewBox="0 0 76 76" fill="none" xmlns="http://www.w3.org/2000/svg">
<path d="M42.1759 11.7406L46.194 21.7466C46.9808 23.7057 48.8195 25.0416 50.9258 25.1844L61.6838 25.9139C65.7308 26.1883 67.3774 31.2561 64.2646 33.8569L55.99 40.7704C54.3699 42.124 53.6675 44.2856 54.1826 46.3329L56.8133 56.7898C57.8029 60.7235 53.4919 63.8556 50.0565 61.6988L40.9244 55.9656C39.1364 54.8431 36.8636 54.8431 35.0756 55.9656L25.9434 61.6988C22.5081 63.8556 18.1971 60.7235 19.1867 56.7898L21.8174 46.3329C22.3325 44.2856 21.6301 42.124 20.01 40.7704L11.7354 33.8569C8.6226 31.2561 10.2692 26.1883 14.3162 25.9139L25.0742 25.1844C27.1805 25.0416 29.0192 23.7057 29.806 21.7466L33.8241 11.7406C35.3357 7.97646 40.6643 7.97646 42.1759 11.7406Z" fill="#FFCC33" stroke="#FF9000"/>
<ellipse cx="17.5122" cy="29.0348" rx="1.52" ry="6.84" transform="rotate(88.6985 17.5122 29.0348)" fill="#FFDF7E"/>
<ellipse cx="36.6352" cy="13.6377" rx="1.52" ry="4.30355" transform="rotate(18.4856 36.6352 13.6377)" fill="#FFDF7E"/>
<path d="M44.8044 41.5957C46.1678 41.387 46.8269 41.7015 47.6935 42.9746" stroke="black" stroke-linecap="round"/>
<path d="M29.0666 42.9746C29.9333 41.7016 30.5924 41.387 31.9558 41.5958" stroke="black" stroke-linecap="round"/>
<path d="M46.0786 42.5601C40.1789 48.6401 36.6913 48.6401 30.7916 42.5601" stroke="black" stroke-linecap="round"/>
<ellipse cx="3.04" cy="2.28" rx="3.04" ry="2.28" transform="matrix(1 0 0 -1 46.3599 40.2798)" fill="#FF9A9C"/>
<ellipse cx="3.04" cy="2.28" rx="3.04" ry="2.28" transform="matrix(1 0 0 -1 23.5596 40.2798)" fill="#FF9A9C"/>
<circle cx="43.2534" cy="33.3398" r="4.10936" fill="black"/>
<circle cx="42.2256" cy="34.3672" r="1.02734" fill="white"/>
<circle cx="44.7939" cy="32.8262" r="1.54101" fill="white"/>
<circle cx="33.5337" cy="33.2417" r="4.20754" fill="black"/>
<circle cx="35.111" cy="32.716" r="1.57783" fill="white"/>
<circle cx="32.4816" cy="34.2936" r="1.05188" fill="white"/>
</svg>
