<svg width="85" height="85" viewBox="0 0 85 85" fill="none" xmlns="http://www.w3.org/2000/svg">
<path d="M47.131 22.8426C50.1009 20.0798 54.9228 22.3477 54.6886 26.3972L54.3264 32.6583C54.2044 34.766 55.2997 36.7574 57.145 37.7832L62.6265 40.8302C66.1719 42.801 65.505 48.0877 61.5813 49.1163L55.5147 50.7066C53.4725 51.242 51.917 52.899 51.5117 54.971L50.3076 61.1258C49.5289 65.1066 44.2948 66.1061 42.1041 62.6923L38.7169 57.4141C37.5767 55.6373 35.5201 54.6699 33.4243 54.9247L27.1986 55.6815C23.172 56.171 20.6041 51.502 23.1738 48.3636L27.147 43.5111C28.4845 41.8777 28.7689 39.6228 27.879 37.7083L25.2354 32.0212C23.5255 28.3429 27.1725 24.4578 30.9515 25.932L36.7942 28.2112C38.761 28.9785 40.9934 28.5522 42.5392 27.1143L47.131 22.8426Z" fill="#FFCC33" stroke="#FF9000"/>
<ellipse cx="30.2947" cy="28.5464" rx="1.26" ry="5.67" transform="rotate(113.888 30.2947 28.5464)" fill="#FFDF7E"/>
<ellipse cx="50.0713" cy="23.7433" rx="1.26" ry="3.56742" transform="rotate(43.6754 50.0713 23.7433)" fill="#FFDF7E"/>
<path d="M46.3351 47.5972C47.4314 47.9216 47.8149 48.3901 48.0158 49.6508" stroke="black" stroke-linecap="round"/>
<path d="M45.399 40.9146C46.8604 40.8915 47.6046 41.2415 48.6612 42.449" stroke="black" stroke-linecap="round"/>
<path d="M39.6978 38.233C41.1592 38.2098 41.9035 38.5599 42.96 39.7674" stroke="black" stroke-linecap="round"/>
<path d="M34.0433 43.0792C35.1425 42.4301 35.7479 42.4267 36.6969 43.0643" stroke="black" stroke-linecap="round"/>
<path d="M46.9501 48.7699C40.3796 51.2491 37.7634 50.0186 35.4831 43.3764" stroke="black" stroke-linecap="round"/>
<ellipse cx="2.52" cy="1.89" rx="2.52" ry="1.89" transform="matrix(0.904903 0.425618 0.425618 -0.904903 47.9663 47.1592)" fill="#FF9A9C"/>
<ellipse cx="2.52" cy="1.89" rx="2.52" ry="1.89" transform="matrix(0.904903 0.425618 0.425618 -0.904903 30.8638 39.1152)" fill="#FF9A9C"/>
</svg>
