<svg width="91" height="91" viewBox="0 0 91 91" fill="none" xmlns="http://www.w3.org/2000/svg">
<path d="M41.3241 11.7406C42.8357 7.97647 48.1643 7.97646 49.6759 11.7406L55.6337 26.5769C56.4204 28.536 58.2591 29.8719 60.3655 30.0147L76.3167 31.0963C80.3637 31.3707 82.0103 36.4385 78.8975 39.0393L66.6285 49.2902C65.0084 50.6438 64.306 52.8053 64.8211 54.8527L68.7216 70.3574C69.7113 74.2911 65.4003 77.4232 61.9649 75.2665L48.4244 66.7656C46.6364 65.6431 44.3636 65.6431 42.5756 66.7656L29.0351 75.2665C25.5997 77.4232 21.2887 74.2911 22.2784 70.3574L26.1789 54.8527C26.694 52.8053 25.9916 50.6438 24.3715 49.2902L12.1025 39.0393C8.98968 36.4385 10.6363 31.3707 14.6833 31.0963L30.6345 30.0147C32.7409 29.8719 34.5796 28.536 35.3663 26.5769L41.3241 11.7406Z" fill="#FFCC33" stroke="#FF9000"/>
<ellipse cx="20.9687" cy="34.7653" rx="1.82" ry="8.19" transform="rotate(88.6985 20.9687 34.7653)" fill="#FFDF7E"/>
<ellipse cx="43.8657" cy="16.3294" rx="1.82" ry="5.15294" transform="rotate(18.4856 43.8657 16.3294)" fill="#FFDF7E"/>
<path d="M53.6476 49.805C55.28 49.555 56.0692 49.9317 57.1069 51.456" stroke="black" stroke-linecap="round"/>
<path d="M34.8036 51.4554C35.8413 49.9311 36.6305 49.5545 38.263 49.8045" stroke="black" stroke-linecap="round"/>
<path d="M55.1729 50.9599C48.1087 58.2399 43.9327 58.2399 36.8686 50.9599" stroke="black" stroke-linecap="round"/>
<ellipse cx="3.64" cy="2.73" rx="3.64" ry="2.73" transform="matrix(1 0 0 -1 55.5098 48.2305)" fill="#FF9A9C"/>
<ellipse cx="3.64" cy="2.73" rx="3.64" ry="2.73" transform="matrix(1 0 0 -1 28.2095 48.2305)" fill="#FF9A9C"/>
<circle cx="51.79" cy="39.9204" r="4.92042" fill="black"/>
<circle cx="50.5597" cy="41.15" r="1.2301" fill="white"/>
<circle cx="53.6347" cy="39.3051" r="1.84516" fill="white"/>
<circle cx="40.1522" cy="39.8026" r="5.03797" fill="black"/>
<circle cx="42.0411" cy="39.1724" r="1.88924" fill="white"/>
<circle cx="38.8923" cy="41.0622" r="1.25949" fill="white"/>
</svg>
