<svg width="78" height="78" viewBox="0 0 78 78" fill="none" xmlns="http://www.w3.org/2000/svg">
<path d="M30.2238 19.5898C30.862 15.584 36.0576 14.401 38.3672 17.7356L42.3332 23.4618C43.5352 25.1974 45.6246 26.0917 47.7101 25.7633L54.5909 24.6799C58.5978 24.0489 61.3285 28.6247 58.8708 31.8516L54.6504 37.393C53.3712 39.0726 53.1663 41.3361 54.1231 43.218L57.2798 49.4272C59.1181 53.043 55.6101 57.0541 51.7816 55.7139L45.2072 53.4124C43.2146 52.7148 40.9986 53.2194 39.5044 54.7109L34.5746 59.6319C31.7038 62.4975 26.805 60.4007 26.8966 56.3455L27.0538 49.3817C27.1015 47.271 25.9368 45.3194 24.0566 44.3592L17.8531 41.1913C14.2406 39.3466 14.721 34.0396 18.606 32.8736L25.2776 30.8712C27.2996 30.2643 28.7959 28.5535 29.128 26.4686L30.2238 19.5898Z" fill="#FFCC33" stroke="#FF9000"/>
<ellipse cx="20.1175" cy="35.3186" rx="1.3" ry="5.85" transform="rotate(75.871 20.1175 35.3186)" fill="#FFDF7E"/>
<ellipse cx="33.1403" cy="18.8475" rx="1.3" ry="3.68067" transform="rotate(5.65809 33.1403 18.8475)" fill="#FFDF7E"/>
<path d="M45.2617 40.6111C46.359 40.1781 46.9684 40.3153 47.9328 41.2123" stroke="black" stroke-linecap="round"/>
<path d="M32.3995 44.7493C32.8805 43.5232 33.3704 43.1357 34.547 43.0509" stroke="black" stroke-linecap="round"/>
<path d="M46.5072 41.1729C42.7418 47.3634 39.8334 48.0256 33.759 44.0757" stroke="black" stroke-linecap="round"/>
<ellipse cx="2.6" cy="1.95" rx="2.6" ry="1.95" transform="matrix(0.975043 -0.222017 -0.222017 -0.975043 46.3091 39.2188)" fill="#FF9A9C"/>
<ellipse cx="2.6" cy="1.95" rx="2.6" ry="1.95" transform="matrix(0.975043 -0.222017 -0.222017 -0.975043 27.2954 43.5479)" fill="#FF9A9C"/>
<circle cx="42.401" cy="34.0216" r="3.51458" transform="rotate(-12.8275 42.401 34.0216)" fill="black"/>
<circle cx="41.7393" cy="35.0738" r="0.878646" transform="rotate(-12.8275 41.7393 35.0738)" fill="white"/>
<circle cx="43.5879" cy="33.3011" r="1.31797" transform="rotate(-12.8275 43.5879 33.3011)" fill="white"/>
<circle cx="34.2769" cy="35.785" r="3.59855" transform="rotate(-12.8275 34.2769 35.785)" fill="black"/>
<circle cx="35.4928" cy="35.0474" r="1.34946" transform="rotate(-12.8275 35.4928 35.0474)" fill="white"/>
<circle cx="33.5994" cy="36.862" r="0.899638" transform="rotate(-12.8275 33.5994 36.862)" fill="white"/>
</svg>
