<svg width="72" height="72" viewBox="0 0 72 72" fill="none" xmlns="http://www.w3.org/2000/svg">
<path d="M45.6103 22.1541L45.7689 25.8557C45.8592 27.9649 47.149 29.8363 49.0879 30.6715L52.4906 32.1373C56.2159 33.7421 56.0833 39.0691 52.2827 40.4865L48.8113 41.7811C46.8332 42.5189 45.4519 44.3238 45.2567 46.4259L44.9141 50.115C44.5391 54.1539 39.4318 55.6739 36.9094 52.4973L34.6054 49.5959C33.2925 47.9426 31.1491 47.1867 29.0895 47.6506L25.4751 48.4648C21.518 49.3562 18.4942 44.9686 20.7358 41.588L22.7833 38.5001C23.95 36.7406 24.0065 34.4686 22.9288 32.6532L21.0376 29.4673C18.967 25.9793 22.2054 21.7476 26.1133 22.8348L29.6827 23.8279C31.7166 24.3937 33.895 23.7454 35.2885 22.1595L37.734 19.3763C40.4115 16.3292 45.4367 18.1015 45.6103 22.1541Z" fill="#FFCC33" stroke="#FF9000"/>
<ellipse cx="24.3756" cy="24.7408" rx="1.11207" ry="5.00434" transform="rotate(108.125 24.3756 24.7408)" fill="#FFDF7E"/>
<ellipse cx="41.3163" cy="18.77" rx="1.11207" ry="3.1486" transform="rotate(37.9119 41.3163 18.77)" fill="#FFDF7E"/>
<path d="M40.1503 40.048C41.1418 40.2358 41.52 40.6132 41.8082 41.7024" stroke="black" stroke-linecap="round"/>
<path d="M38.7352 34.2629C40.0165 34.1131 40.7011 34.3545 41.7359 35.3212" stroke="black" stroke-linecap="round"/>
<path d="M33.4916 32.4138C34.7728 32.264 35.4574 32.5054 36.4923 33.4721" stroke="black" stroke-linecap="round"/>
<path d="M28.9557 37.1704C29.8634 36.503 30.3948 36.4463 31.2846 36.9221" stroke="black" stroke-linecap="round"/>
<path d="M40.7942 41.0236C35.2441 43.7831 32.8376 42.9344 30.2465 37.3038" stroke="black" stroke-linecap="round"/>
<ellipse cx="2.22415" cy="1.66811" rx="2.22415" ry="1.66811" transform="matrix(0.94307 0.332594 0.332594 -0.94307 41.543 39.519)" fill="#FF9A9C"/>
<ellipse cx="2.22415" cy="1.66811" rx="2.22415" ry="1.66811" transform="matrix(0.94307 0.332594 0.332594 -0.94307 25.8115 33.9707)" fill="#FF9A9C"/>
</svg>
