<svg width="63" height="63" viewBox="0 0 63 63" fill="none" xmlns="http://www.w3.org/2000/svg">
<path d="M27.3241 11.7406C28.8357 7.97646 34.1643 7.97646 35.6759 11.7406L38.013 17.5604C38.7997 19.5195 40.6384 20.8554 42.7447 20.9982L49.0019 21.4225C53.0489 21.6969 54.6955 26.7647 51.5828 29.3655L46.77 33.3866C45.1498 34.7402 44.4475 36.9018 44.9626 38.9492L46.4927 45.0312C47.4823 48.9649 43.1713 52.097 39.7359 49.9402L34.4244 46.6056C32.6364 45.4831 30.3636 45.4831 28.5756 46.6056L23.2641 49.9402C19.8287 52.097 15.5177 48.9649 16.5073 45.0312L18.0374 38.9492C18.5525 36.9018 17.8502 34.7402 16.23 33.3866L11.4173 29.3655C8.30447 26.7647 9.9511 21.6969 13.9981 21.4225L20.2553 20.9982C22.3616 20.8554 24.2003 19.5195 24.987 17.5604L27.3241 11.7406Z" fill="#FFCC33" stroke="#FF9000"/>
<ellipse cx="14.5168" cy="24.0681" rx="1.26" ry="5.67" transform="rotate(88.6985 14.5168 24.0681)" fill="#FFDF7E"/>
<ellipse cx="30.3686" cy="11.3043" rx="1.26" ry="3.56742" transform="rotate(18.4856 30.3686 11.3043)" fill="#FFDF7E"/>
<path d="M37.1405 34.4801C38.2707 34.3071 38.817 34.5679 39.5354 35.6232" stroke="black" stroke-linecap="round"/>
<path d="M33.4492 28.8318C34.7618 28.1889 35.5842 28.1889 37.0543 28.8318" stroke="black" stroke-linecap="round"/>
<path d="M27.1489 28.8318C28.4615 28.1889 29.2839 28.1889 30.754 28.8318" stroke="black" stroke-linecap="round"/>
<path d="M24.0943 35.6227C24.8127 34.5675 25.3591 34.3067 26.4893 34.4798" stroke="black" stroke-linecap="round"/>
<path d="M38.1963 35.2796C33.3058 40.3196 30.4147 40.3196 25.5241 35.2796" stroke="black" stroke-linecap="round"/>
<ellipse cx="2.52" cy="1.89" rx="2.52" ry="1.89" transform="matrix(1 0 0 -1 38.4297 33.3906)" fill="#FF9A9C"/>
<ellipse cx="2.52" cy="1.89" rx="2.52" ry="1.89" transform="matrix(1 0 0 -1 19.5298 33.3906)" fill="#FF9A9C"/>
</svg>
