<svg width="68" height="68" viewBox="0 0 68 68" fill="none" xmlns="http://www.w3.org/2000/svg">
<path d="M34.7852 17.5512L36.9641 20.6972C38.1662 22.4327 40.2556 23.3271 42.3411 22.9987L46.1214 22.4034C50.1283 21.7725 52.859 26.3482 50.4013 29.5752L48.0826 32.6196C46.8034 34.2992 46.5985 36.5627 47.5553 38.4446L49.2896 41.856C51.1279 45.4718 47.6199 49.4828 43.7914 48.1426L40.1794 46.8782C38.1868 46.1806 35.9708 46.6852 34.4766 48.1767L31.7682 50.8803C28.8974 53.7459 23.9986 51.6491 24.0902 47.5939L24.1766 43.7679C24.2242 41.6573 23.0595 39.7056 21.1793 38.7455L17.7711 37.0051C14.1586 35.1603 14.639 29.8534 18.524 28.6873L22.1894 27.5872C24.2115 26.9803 25.7077 25.2695 26.0398 23.1846L26.6419 19.4054C27.28 15.3996 32.4757 14.2166 34.7852 17.5512Z" fill="#FFCC33" stroke="#FF9000"/>
<ellipse cx="18.1459" cy="31.2232" rx="1.1191" ry="5.03596" transform="rotate(75.871 18.1459 31.2232)" fill="#FFDF7E"/>
<ellipse cx="29.3564" cy="17.0442" rx="1.1191" ry="3.1685" transform="rotate(5.65809 29.3564 17.0442)" fill="#FFDF7E"/>
<path d="M39.7906 35.779C40.7352 35.4063 41.2598 35.5243 42.09 36.2966" stroke="black" stroke-linecap="round"/>
<path d="M28.7182 39.3416C29.1323 38.2861 29.554 37.9525 30.5669 37.8795" stroke="black" stroke-linecap="round"/>
<path d="M40.863 36.2626C37.6216 41.5917 35.1179 42.1618 29.8888 38.7614" stroke="black" stroke-linecap="round"/>
<ellipse cx="2.2382" cy="1.67865" rx="2.2382" ry="1.67865" transform="matrix(0.975043 -0.222017 -0.222017 -0.975043 40.6924 34.5801)" fill="#FF9A9C"/>
<ellipse cx="2.2382" cy="1.67865" rx="2.2382" ry="1.67865" transform="matrix(0.975043 -0.222017 -0.222017 -0.975043 24.3247 38.3071)" fill="#FF9A9C"/>
<circle cx="37.3288" cy="30.1059" r="3.02552" transform="rotate(-12.8275 37.3288 30.1059)" fill="black"/>
<circle cx="36.7589" cy="31.011" r="0.75638" transform="rotate(-12.8275 36.7589 31.011)" fill="white"/>
<circle cx="38.3503" cy="29.4852" r="1.13457" transform="rotate(-12.8275 38.3503 29.4852)" fill="white"/>
<circle cx="30.3352" cy="31.6242" r="3.0978" transform="rotate(-12.8275 30.3352 31.6242)" fill="black"/>
<circle cx="31.3818" cy="30.989" r="1.16168" transform="rotate(-12.8275 31.3818 30.989)" fill="white"/>
<circle cx="29.7518" cy="32.5514" r="0.774451" transform="rotate(-12.8275 29.7518 32.5514)" fill="white"/>
</svg>
