<svg width="63" height="63" viewBox="0 0 63 63" fill="none" xmlns="http://www.w3.org/2000/svg">
<path d="M35.6678 12.4252L38.005 18.1656C38.7982 20.1138 40.6331 21.439 42.732 21.5794L48.8619 21.9893C52.9259 22.2611 54.5668 27.3617 51.4234 29.9521L46.8133 33.7511C45.1686 35.1064 44.4549 37.2899 44.9817 39.3549L46.4663 45.1756C47.4673 49.0999 43.1801 52.2458 39.7369 50.1137L34.3955 46.8063C32.6214 45.7077 30.3786 45.7077 28.6045 46.8062L23.2631 50.1137C19.8199 52.2458 15.5327 49.0999 16.5337 45.1756L18.0183 39.3549C18.545 37.2899 17.8314 35.1064 16.1867 33.7511L11.5766 29.9521C8.43323 27.3617 10.074 22.2611 14.1381 21.9893L20.268 21.5794C22.3669 21.439 24.2018 20.1138 24.995 18.1656L27.3322 12.4252C28.8539 8.68779 34.1461 8.68779 35.6678 12.4252Z" fill="#FFCC33" stroke="#FF9000"/>
<ellipse cx="1.24275" cy="5.66996" rx="1.24275" ry="5.66996" transform="matrix(0.0230288 0.999735 -0.999749 0.0224025 20.1567 23.2319)" fill="#FFDF7E"/>
<ellipse cx="1.25828" cy="3.52349" rx="1.25828" ry="3.52349" transform="matrix(0.949703 0.313151 -0.321019 0.947073 30.3042 8.28174)" fill="#FFDF7E"/>
<path d="M37.1405 34.8703C38.2707 34.6997 38.817 34.9569 39.5354 35.9977" stroke="black" stroke-linecap="round"/>
<path d="M33.4492 29.2998C34.7618 28.6657 35.5842 28.6657 37.0543 29.2998" stroke="black" stroke-linecap="round"/>
<path d="M27.1489 29.2998C28.4615 28.6657 29.2839 28.6657 30.754 29.2998" stroke="black" stroke-linecap="round"/>
<path d="M24.0943 35.9978C24.8127 34.957 25.3591 34.6998 26.4893 34.8705" stroke="black" stroke-linecap="round"/>
<path d="M38.1963 35.659C33.3058 40.6299 30.4147 40.6299 25.5241 35.659" stroke="black" stroke-linecap="round"/>
<ellipse cx="2.52" cy="1.86411" rx="2.52" ry="1.86411" transform="matrix(1 0 0 -1 38.4297 33.7954)" fill="#FF9A9C"/>
<ellipse cx="2.52" cy="1.86411" rx="2.52" ry="1.86411" transform="matrix(1 0 0 -1 19.5298 33.7954)" fill="#FF9A9C"/>
</svg>
