<svg width="202" height="195" viewBox="0 0 202 195" fill="none" xmlns="http://www.w3.org/2000/svg">
<g clip-path="url(#clip0_567_2143)">
<rect x="-200.5" y="-193.5" width="402" height="387" rx="18.5" fill="#FDFFEF" stroke="black" stroke-width="3"/>
<path d="M72.6447 23.2076C72.6447 63.5968 35.1224 96.3388 -11.1636 96.3388C-57.4496 96.3388 -94.9718 63.5968 -94.9718 23.2076C-94.9718 -17.1817 -63.2605 -51.4472 -14.9387 -110.104C31.8732 -60.5886 72.6447 -17.1817 72.6447 23.2076Z" fill="#804317"/>
<rect width="46.3635" height="10.8129" transform="matrix(-0.791949 -0.609143 0.618021 -0.787283 87.4814 9.15137)" fill="#804317"/>
<rect width="10.8556" height="22.6836" transform="matrix(-0.89968 0.437859 -0.441895 -0.896419 103.986 21.0017)" fill="#804317"/>
<ellipse cx="8.30932" cy="8.37564" rx="8.30932" ry="8.37564" transform="matrix(-0.972321 0.233648 -0.229743 -0.973251 109.543 34.9819)" fill="#804317"/>
<ellipse cx="3.46294" cy="5.32608" rx="3.46294" ry="5.32608" transform="matrix(-0.996017 -0.0749218 0.0737774 -0.99843 85.6652 50.3206)" fill="#804317"/>
<ellipse cx="4.78812" cy="14.4502" rx="4.78812" ry="14.4502" transform="matrix(-0.793395 -0.605467 0.601009 -0.801707 85.2948 47.4463)" fill="#804317"/>
<path d="M94.7471 47.4331C93.092 32.9886 96.1609 33.2675 98.2347 33.135C100.309 33.0025 103.415 36.4104 102.257 46.9533C102.855 56.4794 101.659 64.3093 99.5847 64.4418C97.5109 64.5743 95.345 56.9592 94.7471 47.4331Z" fill="#804317"/>
<path d="M104.821 43.8516C100.701 36.76 100.817 32.9304 103.676 31.8219C105.633 31.063 110.336 31.9232 111.91 41.103C114.981 49.1648 115.883 56.3155 113.926 57.0745C111.968 57.8335 107.892 51.9134 104.821 43.8516Z" fill="#804317"/>
<path d="M111.362 36.1109C103.527 32.512 103.006 26.4181 104.897 24.7648C106.788 23.1115 112.527 26.6681 117.716 32.7087C122.905 38.7493 125.579 44.9865 123.688 46.6398C121.798 48.2931 116.551 42.1515 111.362 36.1109Z" fill="#804317"/>
<path d="M30.3629 113.099C28.0978 132.143 28.8528 142.046 21.0289 146.617C13.3489 147.125 12.9972 135.19 16.7723 114.622C14.5072 96.3393 10.7321 77.2947 21.0289 81.0016C28.7088 80.4938 29.1903 95.0463 30.3629 113.099Z" fill="#804317"/>
<path d="M12.1163 145.501C11.8246 139.935 26.6747 137.961 38.4125 137.335C50.2918 134.65 63.4662 137.54 63.7578 143.105C64.0495 148.67 52.3842 159.44 40.6464 160.066C28.9085 160.692 12.4079 151.066 12.1163 145.501Z" fill="#804317"/>
<path d="M85.8683 148.807C85.9562 158.457 77.192 164.054 59.8705 164.214C41.5141 161.741 23.891 160.354 24.3018 148.878C23.2946 136.881 42.647 136.252 59.5941 133.884C76.9155 133.723 85.7552 136.399 85.8683 148.807Z" fill="#804317"/>
<path d="M10.4421 147.535C10.8172 142.216 16.1115 139.542 26.0941 140.258C36.0766 140.975 43.9051 145.298 43.5796 149.914C43.254 154.531 34.8977 157.692 24.9151 156.975C14.9326 156.259 9.95979 154.374 10.4421 147.535Z" fill="#804317"/>
</g>
<defs>
<clipPath id="clip0_567_2143">
<rect width="202" height="195" fill="white"/>
</clipPath>
</defs>
</svg>
