<svg width="405" height="390" viewBox="0 0 405 390" fill="none" xmlns="http://www.w3.org/2000/svg">
<rect x="1.5" y="1.5" width="402" height="387" rx="18.5" fill="#FDFFEF" stroke="black" stroke-width="3"/>
<g filter="url(#filter0_d_453_1660)">
<path d="M241.421 53.6622C264.827 81.0861 230.851 110.795 190.08 124.507C157.614 113.081 116.843 82.6097 140.249 56.7093C153.084 32.3324 160.238 27 190.08 27C219.922 27 224.867 34.2662 241.421 53.6622Z" fill="black"/>
<path d="M274.642 218.206C274.642 258.595 237.12 291.336 190.835 291.336C144.549 291.336 107.028 258.595 107.028 218.206C107.028 177.817 138.739 143.552 187.06 84.895C233.871 134.41 274.642 177.817 274.642 218.206Z" fill="black"/>
<path d="M221.317 120.181C240.192 155.223 209.047 133.893 191.116 133.893C173.186 133.893 145.815 146.081 160.916 120.181C139.494 62.8037 173.186 104.945 191.116 104.945C209.047 104.945 231.606 71.945 221.317 120.181Z" fill="black"/>
<ellipse cx="19.6615" cy="12.8343" rx="19.6615" ry="12.8343" transform="matrix(0.867944 0.496663 -0.490011 0.871716 235.879 152.239)" fill="black"/>
<path d="M214.996 91.8298C214.996 92.6712 201.405 105.542 190.835 104.78C179.51 105.542 165.919 92.6712 165.919 91.8298C165.919 90.9884 179.993 97.1622 190.835 97.1622C201.677 97.1622 214.996 90.9884 214.996 91.8298Z" fill="black"/>
<ellipse cx="212.73" cy="64.3271" rx="18.1205" ry="18.2826" fill="black"/>
<ellipse cx="212.731" cy="64.327" rx="13.5903" ry="13.712" fill="black"/>
<ellipse cx="212.731" cy="64.3274" rx="9.06023" ry="9.14132" fill="black"/>
<ellipse cx="208.955" cy="60.518" rx="2.26506" ry="2.28533" fill="black"/>
<ellipse cx="165.919" cy="64.3271" rx="18.1205" ry="18.2826" fill="black"/>
<ellipse cx="165.92" cy="64.327" rx="13.5903" ry="13.712" fill="black"/>
<ellipse cx="165.919" cy="64.3274" rx="9.06023" ry="9.14132" fill="black"/>
<ellipse cx="162.144" cy="60.518" rx="2.26506" ry="2.28533" fill="black"/>
<rect width="38.9828" height="10.62" transform="matrix(0.721492 0.692422 -0.685975 0.727625 111.46 123.684)" fill="black"/>
<rect width="46.363" height="10.8127" transform="matrix(-0.791947 -0.609144 0.61802 -0.787284 289.479 204.15)" fill="black"/>
<rect width="10.8554" height="22.6833" transform="matrix(-0.899679 0.437861 -0.441894 -0.89642 305.983 216)" fill="black"/>
<ellipse cx="8.30592" cy="8.37883" rx="8.30592" ry="8.37883" transform="matrix(0.995135 0.0985233 -0.0967997 0.995304 92.2267 92.7581)" fill="black"/>
<ellipse cx="3.46178" cy="5.32773" rx="3.46178" ry="5.32773" transform="matrix(0.917868 0.398155 -0.391819 0.919502 119.753 86.0989)" fill="black"/>
<ellipse cx="4.78843" cy="14.4489" rx="4.78843" ry="14.4489" transform="matrix(0.554742 0.833041 -0.82703 0.560641 119.176 88.9382)" fill="black"/>
<path d="M110.234 85.8459C107.138 100.047 104.326 98.7752 102.323 98.2192C100.319 97.6633 98.4821 93.4206 102.979 83.8326C105.487 74.6292 109.145 67.619 111.149 68.175C113.152 68.7309 112.743 76.6425 110.234 85.8459Z" fill="black"/>
<path d="M99.5534 85.9229C101.161 93.9815 99.8154 97.5643 96.755 97.6733C94.6593 97.748 90.49 95.3896 91.9645 86.1932C91.6625 77.562 93.1165 70.5045 95.2121 70.4298C97.3077 70.3552 99.2514 77.2916 99.5534 85.9229Z" fill="black"/>
<path d="M90.8712 91.0932C97.1177 97.0697 95.6438 103.003 93.3227 103.945C91.0015 104.887 86.7228 99.6388 83.7658 92.2228C80.8088 84.8068 80.2933 78.0312 82.6144 77.089C84.9355 76.1469 87.9141 83.6772 90.8712 91.0932Z" fill="black"/>
<ellipse cx="3.51276" cy="18.3482" rx="3.51276" ry="18.3482" transform="matrix(0.865854 -0.498657 0.492804 0.871076 82.867 90.6838)" fill="black"/>
<ellipse cx="5.81872" cy="19.1922" rx="5.81872" ry="19.1922" transform="matrix(0.937083 -0.347149 0.342204 0.940343 91.8596 101.511)" fill="black"/>
<ellipse cx="8.30922" cy="8.37557" rx="8.30922" ry="8.37557" transform="matrix(-0.972321 0.233649 -0.229742 -0.973252 311.54 229.979)" fill="black"/>
<ellipse cx="3.46289" cy="5.32603" rx="3.46289" ry="5.32603" transform="matrix(-0.996017 -0.0749221 0.0737772 -0.998431 287.662 245.318)" fill="black"/>
<ellipse cx="4.78807" cy="14.45" rx="4.78807" ry="14.45" transform="matrix(-0.793393 -0.605468 0.601008 -0.801709 287.292 242.444)" fill="black"/>
<path d="M296.744 242.431C295.089 227.986 298.158 228.265 300.232 228.133C302.306 228 305.412 231.408 304.254 241.951C304.852 251.477 303.655 259.307 301.582 259.439C299.508 259.572 297.342 251.957 296.744 242.431Z" fill="black"/>
<path d="M306.818 238.849C302.698 231.758 302.814 227.928 305.672 226.82C307.63 226.061 312.333 226.921 313.906 236.101C316.977 244.162 317.88 251.313 315.923 252.072C313.965 252.831 309.889 246.911 306.818 238.849Z" fill="black"/>
<path d="M313.359 231.109C305.524 227.51 305.003 221.417 306.894 219.763C308.785 218.11 314.524 221.667 319.713 227.707C324.902 233.748 327.576 239.985 325.685 241.638C323.794 243.291 318.548 237.15 313.359 231.109Z" fill="black"/>
<path d="M232.359 308.095C230.092 327.139 230.846 337.042 223.022 341.614C215.343 342.122 214.992 330.187 218.768 309.619C216.504 291.336 212.731 272.292 223.027 275.998C230.707 275.49 231.187 290.042 232.359 308.095Z" fill="black"/>
<path d="M149.307 306.659C151.935 287.662 151.369 277.747 159.278 273.329C166.966 272.97 167.09 284.909 162.924 305.4C164.839 323.723 168.25 342.837 158.026 338.931C150.338 339.29 150.135 324.731 149.307 306.659Z" fill="black"/>
<path d="M171.959 343.137C172.629 348.565 157.953 351.575 146.289 353.04C134.624 356.531 121.288 354.659 120.618 349.231C119.948 343.804 130.85 332.414 142.514 330.949C154.178 329.484 171.29 337.71 171.959 343.137Z" fill="black"/>
<path d="M98.0901 344.296C97.2886 334.239 105.617 327.778 122.883 326.378C141.377 327.651 159.058 327.843 159.497 339.839C161.389 352.278 142.132 354.313 125.402 357.988C108.136 359.389 99.1206 357.228 98.0901 344.296Z" fill="black"/>
<path d="M173.47 340.852C173.47 346.184 168.377 349.231 158.369 349.231C148.362 349.231 140.249 345.48 140.249 340.852C140.249 336.224 148.362 332.472 158.369 332.472C168.377 332.472 173.47 333.996 173.47 340.852Z" fill="black"/>
<path d="M214.115 340.498C213.823 334.932 228.673 332.958 240.41 332.332C252.29 329.647 265.464 332.537 265.755 338.102C266.047 343.667 254.382 354.437 242.644 355.063C230.907 355.689 214.406 346.063 214.115 340.498Z" fill="black"/>
<path d="M287.866 343.803C287.954 353.454 279.19 359.05 261.868 359.211C243.512 356.737 225.889 355.35 226.3 343.875C225.293 331.878 244.645 331.248 261.592 328.881C278.913 328.72 287.753 331.396 287.866 343.803Z" fill="black"/>
<path d="M212.44 342.532C212.815 337.213 218.11 334.538 228.092 335.255C238.074 335.972 245.903 340.295 245.577 344.911C245.252 349.527 236.895 352.689 226.913 351.972C216.931 351.255 211.958 349.371 212.44 342.532Z" fill="black"/>
</g>
<defs>
<filter id="filter0_d_453_1660" x="77.1616" y="27" width="253.13" height="340.211" filterUnits="userSpaceOnUse" color-interpolation-filters="sRGB">
<feFlood flood-opacity="0" result="BackgroundImageFix"/>
<feColorMatrix in="SourceAlpha" type="matrix" values="0 0 0 0 0 0 0 0 0 0 0 0 0 0 0 0 0 0 127 0" result="hardAlpha"/>
<feOffset dy="4"/>
<feGaussianBlur stdDeviation="2"/>
<feComposite in2="hardAlpha" operator="out"/>
<feColorMatrix type="matrix" values="0 0 0 0 0 0 0 0 0 0 0 0 0 0 0 0 0 0 0.25 0"/>
<feBlend mode="normal" in2="BackgroundImageFix" result="effect1_dropShadow_453_1660"/>
<feBlend mode="normal" in="SourceGraphic" in2="effect1_dropShadow_453_1660" result="shape"/>
</filter>
</defs>
</svg>
