<svg width="86" height="111" viewBox="0 0 86 111" fill="none" xmlns="http://www.w3.org/2000/svg">
<g clip-path="url(#clip0_453_1928)">
<path d="M47.6785 14.9812C47.6785 41.5926 22.8034 63.1653 -7.88144 63.1653C-38.5663 63.1653 -63.4413 41.5926 -63.4413 14.9812C-63.4413 -11.6301 -42.4186 -34.2066 -10.3841 -72.8542C20.6494 -40.2296 47.6785 -11.6301 47.6785 14.9812Z" fill="#804317"/>
<rect width="30.6476" height="7.14544" transform="matrix(-0.794241 -0.607156 0.619997 -0.784951 57.5143 5.71997)" fill="#804317"/>
<rect width="7.19101" height="14.9576" transform="matrix(-0.900379 0.43551 -0.444265 -0.895694 68.4558 13.5278)" fill="#804317"/>
<ellipse cx="5.50675" cy="5.52028" rx="5.50675" ry="5.52028" transform="matrix(-0.972646 0.232291 -0.231086 -0.972933 72.1402 22.7388)" fill="#804317"/>
<ellipse cx="2.29378" cy="3.51211" rx="2.29378" ry="3.51211" transform="matrix(-0.996859 -0.0745248 0.0741717 -0.997604 56.3103 32.845)" fill="#804317"/>
<ellipse cx="3.16277" cy="9.55502" rx="3.16277" ry="9.55502" transform="matrix(-0.796272 -0.603933 0.602557 -0.798838 56.0648 30.9514)" fill="#804317"/>
<path d="M62.3311 30.9424C61.2339 21.4254 63.2684 21.6091 64.6432 21.5218C66.018 21.4345 68.0773 23.6799 67.3098 30.6263C67.7062 36.9028 66.913 42.0617 65.5382 42.149C64.1633 42.2363 62.7275 37.2189 62.3311 30.9424Z" fill="#804317"/>
<path d="M69.0098 28.5827C66.2782 23.9103 66.3551 21.3871 68.2502 20.6568C69.5478 20.1567 72.6658 20.7235 73.7089 26.7718C75.7447 32.0835 76.3431 36.7949 75.0454 37.2949C73.7478 37.795 71.0456 33.8944 69.0098 28.5827Z" fill="#804317"/>
<path d="M73.346 23.4829C68.1519 21.1117 67.8066 17.0966 69.06 16.0073C70.3134 14.918 74.1182 17.2613 77.5582 21.2413C80.9982 25.2213 82.7709 29.3308 81.5175 30.4201C80.2641 31.5095 76.786 27.4629 73.346 23.4829Z" fill="#804317"/>
<path d="M19.6467 74.2068C18.1442 86.7549 18.6443 93.2799 13.4573 96.2918C8.36598 96.6267 8.13336 88.7633 10.637 75.2113C9.13618 63.1653 6.6344 50.6174 13.4603 53.0593C18.5517 52.7243 18.8701 62.3126 19.6467 74.2068Z" fill="#804317"/>
<path d="M7.55176 95.5565C7.35841 91.8896 17.2031 90.589 24.9846 90.1764C32.8599 88.4076 41.5937 90.3112 41.787 93.9781C41.9804 97.645 34.247 104.741 26.4655 105.153C18.684 105.566 7.7451 99.2234 7.55176 95.5565Z" fill="#804317"/>
<path d="M56.4451 97.7348C56.5034 104.093 50.6932 107.781 39.2101 107.886C27.0409 106.257 15.3578 105.343 15.6302 97.7819C14.9625 89.8774 27.7919 89.4625 39.0269 87.9026C50.5099 87.7968 56.3701 89.5596 56.4451 97.7348Z" fill="#804317"/>
<path d="M6.44187 96.8971C6.69055 93.3925 10.2004 91.6302 16.8182 92.1024C23.436 92.5746 28.6259 95.423 28.4101 98.4645C28.1942 101.506 22.6545 103.589 16.0366 103.117C9.41879 102.645 6.12214 101.403 6.44187 96.8971Z" fill="#804317"/>
</g>
<defs>
<clipPath id="clip0_453_1928">
<rect width="86" height="111" fill="white"/>
</clipPath>
</defs>
</svg>
