<svg width="86" height="111" viewBox="0 0 86 111" fill="none" xmlns="http://www.w3.org/2000/svg">
<g clip-path="url(#clip0_453_1926)">
<path d="M25.6547 17.5671C41.1715 35.6361 18.6472 55.2109 -8.38198 64.2454C-29.9052 56.7166 -56.9343 36.6399 -41.4176 19.5748C-32.9084 3.51342 -28.1657 0 -8.38195 0C11.4018 0 14.6803 4.78755 25.6547 17.5671Z" fill="#804317"/>
<path d="M47.6785 125.981C47.6785 152.593 22.8034 174.165 -7.88144 174.165C-38.5663 174.165 -63.4413 152.593 -63.4413 125.981C-63.4413 99.3699 -42.4186 76.7934 -10.3841 38.1458C20.6494 70.7704 47.6785 99.3699 47.6785 125.981Z" fill="#804317"/>
<path d="M12.3266 61.3948C24.8401 84.483 4.19197 70.4293 -7.69496 70.4293C-19.5819 70.4293 -37.7273 78.4599 -27.7165 61.3948C-41.9181 23.5902 -19.5819 51.3564 -7.69496 51.3564C4.19197 51.3564 19.1477 29.6132 12.3266 61.3948Z" fill="#804317"/>
<ellipse cx="13.0149" cy="8.46884" rx="13.0149" ry="8.46884" transform="matrix(0.869258 0.494359 -0.492307 0.870421 21.9803 82.5171)" fill="#804317"/>
<path d="M8.13585 42.7148C8.13585 43.2692 -0.873867 51.7493 -7.88142 51.2474C-15.3895 51.7493 -24.3992 43.2692 -24.3992 42.7148C-24.3992 42.1604 -15.0689 46.2282 -7.88142 46.2282C-0.693972 46.2282 8.13585 42.1604 8.13585 42.7148Z" fill="black"/>
<ellipse cx="6.63423" cy="24.5939" rx="12.013" ry="12.046" fill="white"/>
<ellipse cx="6.63423" cy="24.5938" rx="9.00971" ry="9.03451" fill="#7FBC6C"/>
<ellipse cx="6.63422" cy="24.5941" rx="6.00648" ry="6.02301" fill="black"/>
<ellipse cx="4.1315" cy="22.0844" rx="1.50162" ry="1.50575" fill="white"/>
<rect width="30.6476" height="7.14544" transform="matrix(-0.794241 -0.607156 0.619997 -0.784951 57.5143 116.72)" fill="#804317"/>
</g>
<defs>
<clipPath id="clip0_453_1926">
<rect width="86" height="111" fill="white"/>
</clipPath>
</defs>
</svg>
