<svg width="172" height="222" viewBox="0 0 172 222" fill="none" xmlns="http://www.w3.org/2000/svg">
<path d="M111.655 17.5671C127.171 35.6361 104.647 55.2109 77.618 64.2454C56.0948 56.7166 29.0657 36.6399 44.5824 19.5748C53.0916 3.51342 57.8343 0 77.618 0C97.4018 0 100.68 4.78755 111.655 17.5671Z" fill="black"/>
<path d="M133.678 125.981C133.678 152.593 108.803 174.165 78.1186 174.165C47.4337 174.165 22.5587 152.593 22.5587 125.981C22.5587 99.3699 43.5814 76.7934 75.6159 38.1458C106.649 70.7704 133.678 99.3699 133.678 125.981Z" fill="black"/>
<path d="M98.3266 61.3948C110.84 84.483 90.192 70.4293 78.305 70.4293C66.4181 70.4293 48.2727 78.4599 58.2835 61.3948C44.0819 23.5902 66.4181 51.3564 78.305 51.3564C90.192 51.3564 105.148 29.6132 98.3266 61.3948Z" fill="black"/>
<ellipse cx="13.0149" cy="8.46884" rx="13.0149" ry="8.46884" transform="matrix(0.869258 0.494359 -0.492307 0.870421 107.98 82.5171)" fill="black"/>
<path d="M94.1358 42.7148C94.1358 43.2692 85.1261 51.7493 78.1185 51.2474C70.6104 51.7493 61.6007 43.2692 61.6007 42.7148C61.6007 42.1604 70.9311 46.2282 78.1185 46.2282C85.306 46.2282 94.1358 42.1604 94.1358 42.7148Z" fill="black"/>
<ellipse cx="92.6342" cy="24.5939" rx="12.013" ry="12.046" fill="black"/>
<ellipse cx="92.6342" cy="24.5938" rx="9.00971" ry="9.03451" fill="black"/>
<ellipse cx="92.6342" cy="24.5941" rx="6.00648" ry="6.02301" fill="black"/>
<ellipse cx="90.1315" cy="22.0844" rx="1.50162" ry="1.50575" fill="black"/>
<ellipse cx="61.6007" cy="24.5939" rx="12.013" ry="12.046" fill="black"/>
<ellipse cx="61.6008" cy="24.5938" rx="9.00971" ry="9.03451" fill="black"/>
<ellipse cx="61.6007" cy="24.5941" rx="6.00648" ry="6.02301" fill="black"/>
<ellipse cx="59.0981" cy="22.0844" rx="1.50162" ry="1.50575" fill="black"/>
<rect width="25.7677" height="7.01769" transform="matrix(0.72362 0.690198 -0.68821 0.725512 25.4974 63.7026)" fill="black"/>
<rect width="30.6476" height="7.14544" transform="matrix(-0.794241 -0.607156 0.619997 -0.784951 143.514 116.72)" fill="black"/>
<rect width="7.19101" height="14.9576" transform="matrix(-0.900379 0.43551 -0.444265 -0.895694 154.456 124.528)" fill="black"/>
<ellipse cx="5.50608" cy="5.52094" rx="5.50608" ry="5.52094" transform="matrix(0.995194 0.097924 -0.0973923 0.995246 12.7463 43.3264)" fill="black"/>
<ellipse cx="2.29356" cy="3.51246" rx="2.29356" ry="3.51246" transform="matrix(0.918438 0.395955 -0.394001 0.918942 30.9951 38.939)" fill="black"/>
<ellipse cx="3.16284" cy="9.5548" rx="3.16284" ry="9.5548" transform="matrix(0.556785 0.830972 -0.829118 0.558604 30.6123 40.8096)" fill="black"/>
<path d="M24.6845 38.7722C22.6318 48.129 20.7679 47.291 19.4396 46.9247C18.1114 46.5584 16.8933 43.7631 19.8744 37.4457C21.5375 31.3818 23.9626 26.7629 25.2908 27.1292C26.6191 27.4956 26.3476 32.7083 24.6845 38.7722Z" fill="black"/>
<path d="M17.6035 38.8229C18.6692 44.1325 17.7772 46.4932 15.7483 46.565C14.359 46.6142 11.5949 45.0603 12.5725 39.001C12.3723 33.3141 13.3362 28.6641 14.7255 28.6149C16.1148 28.5657 17.4033 33.136 17.6035 38.8229Z" fill="black"/>
<path d="M11.8478 42.2295C15.9889 46.1673 15.0118 50.0763 13.473 50.6971C11.9342 51.3179 9.09758 47.86 7.13723 42.9738C5.17688 38.0875 4.83514 33.6232 6.37393 33.0025C7.91271 32.3817 9.8874 37.3433 11.8478 42.2295Z" fill="black"/>
<ellipse cx="2.32391" cy="12.1142" rx="2.32391" ry="12.1142" transform="matrix(0.86767 -0.496633 0.494828 0.869281 6.54144 41.9597)" fill="black"/>
<ellipse cx="3.85284" cy="12.6604" rx="3.85284" ry="12.6604" transform="matrix(0.938219 -0.345435 0.34391 0.939225 12.503 49.0938)" fill="black"/>
<ellipse cx="5.50675" cy="5.52028" rx="5.50675" ry="5.52028" transform="matrix(-0.972646 0.232291 -0.231086 -0.972933 158.14 133.739)" fill="black"/>
<ellipse cx="2.29378" cy="3.51211" rx="2.29378" ry="3.51211" transform="matrix(-0.996859 -0.0745248 0.0741717 -0.997604 142.31 143.845)" fill="black"/>
<ellipse cx="3.16277" cy="9.55502" rx="3.16277" ry="9.55502" transform="matrix(-0.796272 -0.603933 0.602557 -0.798838 142.065 141.951)" fill="black"/>
<path d="M148.331 141.942C147.234 132.425 149.268 132.609 150.643 132.522C152.018 132.435 154.077 134.68 153.31 141.626C153.706 147.903 152.913 153.062 151.538 153.149C150.163 153.236 148.728 148.219 148.331 141.942Z" fill="black"/>
<path d="M155.01 139.583C152.278 134.91 152.355 132.387 154.25 131.657C155.548 131.157 158.666 131.724 159.709 137.772C161.745 143.083 162.343 147.795 161.046 148.295C159.748 148.795 157.046 144.894 155.01 139.583Z" fill="black"/>
<path d="M159.346 134.483C154.152 132.112 153.807 128.097 155.06 127.007C156.313 125.918 160.118 128.261 163.558 132.241C166.998 136.221 168.771 140.331 167.518 141.42C166.264 142.509 162.786 138.463 159.346 134.483Z" fill="black"/>
<path d="M105.647 185.207C104.144 197.755 104.644 204.28 99.4573 207.292C94.366 207.627 94.1334 199.763 96.637 186.211C95.1362 174.165 92.6344 161.617 99.4603 164.059C104.552 163.724 104.87 173.313 105.647 185.207Z" fill="black"/>
<path d="M50.5875 184.261C52.3297 171.745 51.9545 165.211 57.1982 162.3C62.295 162.064 62.3772 169.931 59.6149 183.432C60.885 195.504 63.1463 208.098 56.3683 205.525C51.2715 205.761 51.1364 196.168 50.5875 184.261Z" fill="black"/>
<path d="M65.6051 208.296C66.049 211.872 56.3194 213.855 48.5867 214.82C40.8535 217.12 32.0124 215.887 31.5684 212.311C31.1244 208.735 38.3514 201.23 46.084 200.265C53.8167 199.3 65.1611 204.72 65.6051 208.296Z" fill="black"/>
<path d="M16.6334 209.059C16.1021 202.433 21.6234 198.176 33.07 197.253C45.3303 198.092 57.0523 198.218 57.3433 206.123C58.5976 214.318 45.8309 215.659 34.74 218.08C23.2934 219.003 17.3166 217.58 16.6334 209.059Z" fill="black"/>
<path d="M66.6061 206.79C66.6061 210.303 63.2299 212.311 56.5953 212.311C49.9608 212.311 44.5824 209.839 44.5824 206.79C44.5824 203.741 49.9608 201.269 56.5953 201.269C63.2299 201.269 66.6061 202.273 66.6061 206.79Z" fill="black"/>
<path d="M93.5518 206.556C93.3584 202.89 103.203 201.589 110.985 201.176C118.86 199.408 127.594 201.311 127.787 204.978C127.98 208.645 120.247 215.741 112.466 216.153C104.684 216.566 93.7451 210.223 93.5518 206.556Z" fill="black"/>
<path d="M142.445 208.735C142.503 215.093 136.693 218.781 125.21 218.886C113.041 217.257 101.358 216.343 101.63 208.782C100.962 200.877 113.792 200.462 125.027 198.903C136.51 198.797 142.37 200.56 142.445 208.735Z" fill="black"/>
<path d="M92.4419 207.897C92.6906 204.393 96.2004 202.63 102.818 203.102C109.436 203.575 114.626 206.423 114.41 209.465C114.194 212.506 108.654 214.589 102.037 214.117C95.4188 213.645 92.1221 212.403 92.4419 207.897Z" fill="black"/>
</svg>
