<svg width="86" height="111" viewBox="0 0 86 111" fill="none" xmlns="http://www.w3.org/2000/svg">
<g clip-path="url(#clip0_453_1925)">
<path d="M111.655 17.5671C127.171 35.6361 104.647 55.2109 77.618 64.2454C56.0948 56.7166 29.0657 36.6399 44.5824 19.5748C53.0916 3.51342 57.8343 0 77.618 0C97.4018 0 100.68 4.78755 111.655 17.5671Z" fill="#804317"/>
<path d="M133.678 125.981C133.678 152.593 108.803 174.165 78.1186 174.165C47.4337 174.165 22.5587 152.593 22.5587 125.981C22.5587 99.3699 43.5814 76.7934 75.6159 38.1458C106.649 70.7704 133.678 99.3699 133.678 125.981Z" fill="#804317"/>
<path d="M98.3266 61.3948C110.84 84.483 90.192 70.4293 78.3051 70.4293C66.4181 70.4293 48.2727 78.4599 58.2835 61.3948C44.0819 23.5902 66.4181 51.3564 78.3051 51.3564C90.192 51.3564 105.148 29.6132 98.3266 61.3948Z" fill="#804317"/>
<path d="M94.1358 42.7148C94.1358 43.2692 85.1261 51.7493 78.1186 51.2474C70.6105 51.7493 61.6008 43.2692 61.6008 42.7148C61.6008 42.1604 70.9311 46.2282 78.1186 46.2282C85.306 46.2282 94.1358 42.1604 94.1358 42.7148Z" fill="black"/>
<ellipse cx="92.6342" cy="24.5939" rx="12.013" ry="12.046" fill="white"/>
<ellipse cx="92.6342" cy="24.5938" rx="9.00971" ry="9.03451" fill="#7FBC6C"/>
<ellipse cx="61.6008" cy="24.5939" rx="12.013" ry="12.046" fill="white"/>
<ellipse cx="61.6008" cy="24.5938" rx="9.00971" ry="9.03451" fill="#7FBC6C"/>
<ellipse cx="61.6008" cy="24.5941" rx="6.00648" ry="6.02301" fill="black"/>
<ellipse cx="59.0981" cy="22.0844" rx="1.50162" ry="1.50575" fill="white"/>
<rect width="25.7677" height="7.01769" transform="matrix(0.72362 0.690198 -0.68821 0.725512 25.4974 63.7026)" fill="#804317"/>
<ellipse cx="5.50608" cy="5.52094" rx="5.50608" ry="5.52094" transform="matrix(0.995194 0.097924 -0.0973923 0.995246 12.7463 43.3264)" fill="#804317"/>
<ellipse cx="2.29356" cy="3.51246" rx="2.29356" ry="3.51246" transform="matrix(0.918438 0.395955 -0.394001 0.918942 30.9951 38.939)" fill="#804317"/>
<ellipse cx="3.16284" cy="9.5548" rx="3.16284" ry="9.5548" transform="matrix(0.556785 0.830972 -0.829118 0.558604 30.6123 40.8096)" fill="#804317"/>
<path d="M24.6845 38.7722C22.6319 48.129 20.7679 47.291 19.4396 46.9247C18.1114 46.5584 16.8934 43.7631 19.8744 37.4457C21.5376 31.3818 23.9626 26.7629 25.2908 27.1292C26.6191 27.4956 26.3476 32.7083 24.6845 38.7722Z" fill="#804317"/>
<path d="M17.6036 38.8229C18.6692 44.1325 17.7773 46.4932 15.7483 46.565C14.359 46.6142 11.5949 45.0603 12.5725 39.001C12.3723 33.3141 13.3362 28.6641 14.7255 28.6149C16.1148 28.5657 17.4034 33.136 17.6036 38.8229Z" fill="#804317"/>
<path d="M11.8477 42.2295C15.9889 46.1673 15.0117 50.0763 13.473 50.6971C11.9342 51.3179 9.09756 47.86 7.13722 42.9738C5.17687 38.0875 4.83512 33.6232 6.37391 33.0025C7.9127 32.3817 9.88739 37.3433 11.8477 42.2295Z" fill="#804317"/>
<ellipse cx="2.32391" cy="12.1142" rx="2.32391" ry="12.1142" transform="matrix(0.86767 -0.496633 0.494828 0.869281 6.54143 41.9597)" fill="#804317"/>
<ellipse cx="3.85284" cy="12.6604" rx="3.85284" ry="12.6604" transform="matrix(0.938219 -0.345435 0.34391 0.939225 12.503 49.0938)" fill="#804317"/>
</g>
<defs>
<clipPath id="clip0_453_1925">
<rect width="86" height="111" fill="white"/>
</clipPath>
</defs>
</svg>
