<svg width="202" height="195" viewBox="0 0 202 195" fill="none" xmlns="http://www.w3.org/2000/svg">
<g clip-path="url(#clip0_567_2032)">
<rect x="1.5" y="-193.5" width="402" height="387" rx="18.5" fill="#FDFFEF" stroke="black" stroke-width="3"/>
<path d="M274.645 23.2076C274.645 63.5968 237.122 96.3388 190.836 96.3388C144.55 96.3388 107.028 63.5968 107.028 23.2076C107.028 -17.1817 138.739 -51.4472 187.061 -110.104C233.873 -60.5886 274.645 -17.1817 274.645 23.2076Z" fill="#804317"/>
<path d="M149.308 111.662C151.936 92.6649 151.37 82.7489 159.279 78.331C166.968 77.9724 167.092 89.9116 162.925 110.403C164.841 128.726 168.252 147.84 158.028 143.934C150.34 144.293 150.136 129.734 149.308 111.662Z" fill="#804317"/>
<path d="M171.961 148.14C172.631 153.567 157.954 156.578 146.29 158.043C134.625 161.534 121.289 159.662 120.619 154.234C119.949 148.807 130.851 137.416 142.515 135.951C154.179 134.486 171.291 142.712 171.961 148.14Z" fill="#804317"/>
<path d="M98.0905 149.299C97.2889 139.241 105.617 132.781 122.884 131.38C141.378 132.653 159.06 132.845 159.498 144.842C161.39 157.281 142.133 159.316 125.403 162.991C108.137 164.392 99.121 162.231 98.0905 149.299Z" fill="#804317"/>
<path d="M173.471 145.854C173.471 151.187 168.378 154.234 158.37 154.234C148.363 154.234 140.25 150.482 140.25 145.854C140.25 141.227 148.363 137.475 158.37 137.475C168.378 137.475 173.471 138.998 173.471 145.854Z" fill="#804317"/>
</g>
<rect x="0.5" y="0.5" width="201" height="194" stroke="black"/>
<defs>
<clipPath id="clip0_567_2032">
<rect width="202" height="195" fill="white"/>
</clipPath>
</defs>
</svg>
