<svg width="405" height="390" viewBox="0 0 405 390" fill="none" xmlns="http://www.w3.org/2000/svg">
<rect x="1.5" y="1.5" width="402" height="387" rx="18.5" fill="#FDFFEF" stroke="black" stroke-width="3"/>
<path d="M241.424 53.6624C264.829 81.0866 230.853 110.796 190.082 124.508C157.615 113.081 116.844 82.6102 140.25 56.7095C153.085 32.3325 160.239 27 190.082 27C219.924 27 224.869 34.2663 241.424 53.6624Z" fill="#804317"/>
<path d="M274.645 218.208C274.645 258.597 237.122 291.339 190.836 291.339C144.55 291.339 107.028 258.597 107.028 218.208C107.028 177.818 138.739 143.553 187.061 84.8955C233.873 134.411 274.645 177.818 274.645 218.208Z" fill="#804317"/>
<path d="M221.319 120.181C240.195 155.223 209.048 133.894 191.118 133.894C173.187 133.894 145.816 146.082 160.917 120.181C139.495 62.8037 173.187 104.946 191.118 104.946C209.048 104.946 231.608 71.9451 221.319 120.181Z" fill="#804317"/>
<ellipse cx="19.6618" cy="12.8345" rx="19.6618" ry="12.8345" transform="matrix(0.867945 0.496661 -0.490013 0.871715 235.881 152.24)" fill="#804317"/>
<path d="M214.998 91.8303C214.998 92.6717 201.407 105.542 190.837 104.781C179.511 105.542 165.921 92.6717 165.921 91.8303C165.921 90.9888 179.995 97.1628 190.837 97.1628C201.678 97.1628 214.998 90.9888 214.998 91.8303Z" fill="black"/>
<ellipse cx="212.733" cy="64.3272" rx="18.1207" ry="18.2828" fill="white"/>
<ellipse cx="212.732" cy="64.3273" rx="13.5905" ry="13.7121" fill="#7FBC6C"/>
<ellipse cx="212.732" cy="64.3274" rx="9.06035" ry="9.1414" fill="black"/>
<ellipse cx="208.957" cy="60.5187" rx="2.26509" ry="2.28535" fill="white"/>
<ellipse cx="165.921" cy="64.3272" rx="18.1207" ry="18.2828" fill="white"/>
<ellipse cx="165.921" cy="64.3273" rx="13.5905" ry="13.7121" fill="#7FBC6C"/>
<ellipse cx="165.921" cy="64.3274" rx="9.06035" ry="9.1414" fill="black"/>
<ellipse cx="162.145" cy="60.5187" rx="2.26509" ry="2.28535" fill="white"/>
<rect width="38.9833" height="10.6202" transform="matrix(0.721494 0.692421 -0.685976 0.727624 111.461 123.684)" fill="#804317"/>
<rect width="46.3635" height="10.8129" transform="matrix(-0.791949 -0.609143 0.618021 -0.787283 289.481 204.151)" fill="#804317"/>
<rect width="10.8556" height="22.6836" transform="matrix(-0.89968 0.437859 -0.441895 -0.896419 305.986 216.002)" fill="#804317"/>
<ellipse cx="8.30603" cy="8.37891" rx="8.30603" ry="8.37891" transform="matrix(0.995135 0.0985229 -0.0968001 0.995304 92.2269 92.7583)" fill="#804317"/>
<ellipse cx="3.46182" cy="5.32778" rx="3.46182" ry="5.32778" transform="matrix(0.917868 0.398153 -0.391821 0.919501 119.754 86.0994)" fill="#804317"/>
<ellipse cx="4.78848" cy="14.4491" rx="4.78848" ry="14.4491" transform="matrix(0.554744 0.83304 -0.827031 0.56064 119.177 88.9387)" fill="#804317"/>
<path d="M110.235 85.8466C107.139 100.048 104.327 98.7759 102.323 98.22C100.32 97.664 98.4825 93.4214 102.979 83.8333C105.488 74.6297 109.146 67.6195 111.149 68.1755C113.153 68.7314 112.744 76.643 110.235 85.8466Z" fill="#804317"/>
<path d="M99.5538 85.9235C101.161 93.9822 99.8158 97.565 96.7553 97.6741C94.6596 97.7487 90.4902 95.3903 91.9648 86.1938C91.6628 77.5625 93.1168 70.505 95.2124 70.4303C97.3081 70.3557 99.2518 77.2922 99.5538 85.9235Z" fill="#804317"/>
<path d="M90.8716 91.0935C97.1182 97.0701 95.6442 103.003 93.3231 103.945C91.0019 104.887 86.7231 99.6392 83.7661 92.2231C80.809 84.8071 80.2935 78.0314 82.6147 77.0892C84.9358 76.1471 87.9145 83.6775 90.8716 91.0935Z" fill="#804317"/>
<ellipse cx="3.5128" cy="18.3484" rx="3.5128" ry="18.3484" transform="matrix(0.865855 -0.498655 0.492805 0.871075 82.8672 90.6843)" fill="#804317"/>
<ellipse cx="5.81879" cy="19.1924" rx="5.81879" ry="19.1924" transform="matrix(0.937083 -0.347148 0.342206 0.940342 91.8597 101.512)" fill="#804317"/>
<ellipse cx="8.30932" cy="8.37564" rx="8.30932" ry="8.37564" transform="matrix(-0.972321 0.233648 -0.229743 -0.973251 311.543 229.982)" fill="#804317"/>
<ellipse cx="3.46294" cy="5.32608" rx="3.46294" ry="5.32608" transform="matrix(-0.996017 -0.0749218 0.0737774 -0.99843 287.665 245.321)" fill="#804317"/>
<ellipse cx="4.78812" cy="14.4502" rx="4.78812" ry="14.4502" transform="matrix(-0.793395 -0.605467 0.601009 -0.801707 287.295 242.446)" fill="#804317"/>
<path d="M296.747 242.433C295.092 227.989 298.161 228.267 300.235 228.135C302.309 228.002 305.415 231.41 304.257 241.953C304.855 251.479 303.659 259.309 301.585 259.442C299.511 259.574 297.345 251.959 296.747 242.433Z" fill="#804317"/>
<path d="M306.821 238.852C302.701 231.76 302.817 227.93 305.676 226.822C307.633 226.063 312.336 226.923 313.91 236.103C316.981 244.165 317.883 251.315 315.926 252.074C313.968 252.833 309.892 246.913 306.821 238.852Z" fill="#804317"/>
<path d="M313.362 231.111C305.527 227.512 305.006 221.418 306.897 219.765C308.788 218.111 314.527 221.668 319.716 227.709C324.905 233.749 327.579 239.987 325.688 241.64C323.798 243.293 318.551 237.152 313.362 231.111Z" fill="#804317"/>
<path d="M232.363 308.099C230.098 327.143 230.853 337.046 223.029 341.617C215.349 342.125 214.997 330.19 218.772 309.622C216.507 291.339 212.732 272.295 223.029 276.002C230.709 275.494 231.19 290.046 232.363 308.099Z" fill="#804317"/>
<path d="M149.308 306.662C151.936 287.665 151.37 277.749 159.279 273.331C166.968 272.972 167.092 284.912 162.925 305.403C164.841 323.726 168.252 342.84 158.028 338.934C150.34 339.293 150.136 324.734 149.308 306.662Z" fill="#804317"/>
<path d="M171.961 343.14C172.631 348.567 157.954 351.578 146.29 353.043C134.625 356.534 121.289 354.662 120.619 349.234C119.949 343.807 130.851 332.416 142.515 330.951C154.179 329.486 171.291 337.712 171.961 343.14Z" fill="#804317"/>
<path d="M98.0905 344.299C97.2889 334.241 105.617 327.781 122.884 326.38C141.378 327.653 159.06 327.845 159.498 339.842C161.39 352.281 142.133 354.316 125.403 357.991C108.137 359.392 99.121 357.231 98.0905 344.299Z" fill="#804317"/>
<path d="M173.471 340.854C173.471 346.187 168.378 349.234 158.37 349.234C148.363 349.234 140.25 345.482 140.25 340.854C140.25 336.227 148.363 332.475 158.37 332.475C168.378 332.475 173.471 333.998 173.471 340.854Z" fill="#804317"/>
<path d="M214.116 340.501C213.825 334.935 228.675 332.961 240.413 332.335C252.292 329.65 265.466 332.54 265.758 338.105C266.049 343.67 254.384 354.44 242.646 355.066C230.909 355.692 214.408 346.066 214.116 340.501Z" fill="#804317"/>
<path d="M287.868 343.807C287.956 353.457 279.192 359.054 261.871 359.214C243.514 356.741 225.891 355.354 226.302 343.878C225.295 331.881 244.647 331.252 261.594 328.884C278.916 328.723 287.755 331.399 287.868 343.807Z" fill="#804317"/>
<path d="M212.442 342.535C212.817 337.216 218.112 334.542 228.094 335.258C238.077 335.975 245.905 340.298 245.58 344.914C245.254 349.531 236.898 352.692 226.915 351.975C216.933 351.259 211.96 349.374 212.442 342.535Z" fill="#804317"/>
</svg>
