<svg width="202" height="195" viewBox="0 0 202 195" fill="none" xmlns="http://www.w3.org/2000/svg">
<g clip-path="url(#clip0_567_2030)">
<rect x="1.5" y="1.5" width="402" height="387" rx="18.5" fill="#FDFFEF" stroke="black" stroke-width="3"/>
<path d="M241.424 53.6624C264.829 81.0866 230.853 110.796 190.082 124.508C157.615 113.081 116.844 82.6102 140.25 56.7095C153.085 32.3325 160.239 27 190.082 27C219.924 27 224.869 34.2663 241.424 53.6624Z" fill="#804317"/>
<path d="M274.645 218.208C274.645 258.597 237.122 291.339 190.836 291.339C144.55 291.339 107.028 258.597 107.028 218.208C107.028 177.818 138.739 143.553 187.061 84.8955C233.873 134.411 274.645 177.818 274.645 218.208Z" fill="#804317"/>
<path d="M221.319 120.181C240.195 155.223 209.048 133.894 191.118 133.894C173.187 133.894 145.816 146.082 160.917 120.181C139.495 62.8037 173.187 104.946 191.118 104.946C209.048 104.946 231.608 71.9451 221.319 120.181Z" fill="#804317"/>
<path d="M214.998 91.8303C214.998 92.6717 201.407 105.542 190.837 104.781C179.511 105.542 165.921 92.6717 165.921 91.8303C165.921 90.9888 179.995 97.1628 190.837 97.1628C201.678 97.1628 214.998 90.9888 214.998 91.8303Z" fill="black"/>
<ellipse cx="212.733" cy="64.3272" rx="18.1207" ry="18.2828" fill="white"/>
<ellipse cx="212.732" cy="64.3273" rx="13.5905" ry="13.7121" fill="#7FBC6C"/>
<ellipse cx="165.921" cy="64.3272" rx="18.1207" ry="18.2828" fill="white"/>
<ellipse cx="165.921" cy="64.3273" rx="13.5905" ry="13.7121" fill="#7FBC6C"/>
<ellipse cx="165.921" cy="64.3274" rx="9.06035" ry="9.1414" fill="black"/>
<ellipse cx="162.145" cy="60.5187" rx="2.26509" ry="2.28535" fill="white"/>
<rect width="38.9833" height="10.6202" transform="matrix(0.721494 0.692421 -0.685976 0.727624 111.461 123.684)" fill="#804317"/>
<ellipse cx="8.30603" cy="8.37891" rx="8.30603" ry="8.37891" transform="matrix(0.995135 0.0985229 -0.0968001 0.995304 92.2269 92.7583)" fill="#804317"/>
<ellipse cx="3.46182" cy="5.32778" rx="3.46182" ry="5.32778" transform="matrix(0.917868 0.398153 -0.391821 0.919501 119.754 86.0994)" fill="#804317"/>
<ellipse cx="4.78848" cy="14.4491" rx="4.78848" ry="14.4491" transform="matrix(0.554744 0.83304 -0.827031 0.56064 119.177 88.9387)" fill="#804317"/>
<path d="M110.235 85.8466C107.139 100.048 104.327 98.7759 102.323 98.22C100.32 97.664 98.4825 93.4214 102.979 83.8333C105.488 74.6297 109.146 67.6195 111.149 68.1755C113.153 68.7314 112.744 76.643 110.235 85.8466Z" fill="#804317"/>
<path d="M99.5538 85.9235C101.161 93.9822 99.8158 97.565 96.7553 97.6741C94.6596 97.7487 90.4902 95.3903 91.9648 86.1938C91.6628 77.5625 93.1168 70.505 95.2124 70.4303C97.3081 70.3557 99.2518 77.2922 99.5538 85.9235Z" fill="#804317"/>
<path d="M90.8716 91.0935C97.1182 97.0701 95.6442 103.003 93.3231 103.945C91.0019 104.887 86.7231 99.6392 83.7661 92.2231C80.809 84.8071 80.2935 78.0314 82.6147 77.0892C84.9358 76.1471 87.9145 83.6775 90.8716 91.0935Z" fill="#804317"/>
<ellipse cx="3.5128" cy="18.3484" rx="3.5128" ry="18.3484" transform="matrix(0.865855 -0.498655 0.492805 0.871075 82.8672 90.6843)" fill="#804317"/>
<ellipse cx="5.81879" cy="19.1924" rx="5.81879" ry="19.1924" transform="matrix(0.937083 -0.347148 0.342206 0.940342 91.8597 101.512)" fill="#804317"/>
</g>
<rect x="0.5" y="0.5" width="201" height="194" stroke="black"/>
<defs>
<clipPath id="clip0_567_2030">
<rect width="202" height="195" fill="white"/>
</clipPath>
</defs>
</svg>
