<svg width="86" height="111" viewBox="0 0 86 111" fill="none" xmlns="http://www.w3.org/2000/svg">
<g clip-path="url(#clip0_453_1927)">
<path d="M133.678 14.9812C133.678 41.5926 108.803 63.1653 78.1186 63.1653C47.4337 63.1653 22.5587 41.5926 22.5587 14.9812C22.5587 -11.6301 43.5814 -34.2066 75.6159 -72.8542C106.649 -40.2296 133.678 -11.6301 133.678 14.9812Z" fill="#804317"/>
<path d="M50.5875 73.2613C52.3297 60.7447 51.9545 54.2113 57.1981 51.3005C62.2949 51.0642 62.3771 58.9306 59.6148 72.4316C60.8849 84.5043 63.1463 97.0982 56.3683 94.5246C51.2714 94.7609 51.1364 85.1682 50.5875 73.2613Z" fill="#804317"/>
<path d="M65.6051 97.2955C66.049 100.872 56.3194 102.855 48.5867 103.82C40.8535 106.12 32.0124 104.887 31.5684 101.311C31.1244 97.7349 38.3514 90.2302 46.084 89.2649C53.8167 88.2995 65.1611 93.7195 65.6051 97.2955Z" fill="#804317"/>
<path d="M16.6334 98.0594C16.102 91.4326 21.6234 87.1762 33.07 86.2533C45.3303 87.0918 57.0523 87.2185 57.3433 95.1225C58.5975 103.318 45.8309 104.659 34.74 107.08C23.2934 108.003 17.3166 106.58 16.6334 98.0594Z" fill="#804317"/>
<path d="M66.6062 95.7899C66.6062 99.3033 63.2299 101.311 56.5954 101.311C49.9608 101.311 44.5824 98.8391 44.5824 95.7899C44.5824 92.7407 49.9608 90.2688 56.5954 90.2688C63.2299 90.2688 66.6062 91.2726 66.6062 95.7899Z" fill="#804317"/>
</g>
<defs>
<clipPath id="clip0_453_1927">
<rect width="86" height="111" fill="white"/>
</clipPath>
</defs>
</svg>
