<svg width="202" height="195" viewBox="0 0 202 195" fill="none" xmlns="http://www.w3.org/2000/svg">
<g clip-path="url(#clip0_567_2031)">
<rect x="-200.5" y="1.5" width="402" height="387" rx="18.5" fill="#FDFFEF" stroke="black" stroke-width="3"/>
<path d="M39.4236 53.6624C62.8295 81.0866 28.8532 110.796 -11.9185 124.508C-44.3847 113.081 -85.1562 82.6102 -61.7504 56.7095C-48.9148 32.3325 -41.7608 27 -11.9184 27C17.9239 27 22.8694 34.2663 39.4236 53.6624Z" fill="#804317"/>
<path d="M72.6447 218.208C72.6447 258.597 35.1224 291.339 -11.1636 291.339C-57.4496 291.339 -94.9718 258.597 -94.9718 218.208C-94.9718 177.818 -63.2605 143.553 -14.9387 84.8955C31.8732 134.411 72.6447 177.818 72.6447 218.208Z" fill="#804317"/>
<path d="M19.319 120.181C38.1947 155.223 7.04844 133.894 -10.8822 133.894C-28.8128 133.894 -56.1839 146.082 -41.0833 120.181C-62.5054 62.8037 -28.8128 104.946 -10.8822 104.946C7.04844 104.946 29.6081 71.9451 19.319 120.181Z" fill="#804317"/>
<ellipse cx="19.6618" cy="12.8345" rx="19.6618" ry="12.8345" transform="matrix(0.867945 0.496661 -0.490013 0.871715 33.881 152.24)" fill="#804317"/>
<path d="M12.9975 91.8303C12.9975 92.6717 -0.592985 105.542 -11.1634 104.781C-22.4888 105.542 -36.0793 92.6717 -36.0793 91.8303C-36.0793 90.9888 -22.0052 97.1628 -11.1634 97.1628C-0.321625 97.1628 12.9975 90.9888 12.9975 91.8303Z" fill="black"/>
<ellipse cx="10.7325" cy="64.3272" rx="18.1207" ry="18.2828" fill="white"/>
<ellipse cx="10.7324" cy="64.3273" rx="13.5905" ry="13.7121" fill="#7FBC6C"/>
<ellipse cx="10.7325" cy="64.3274" rx="9.06035" ry="9.1414" fill="black"/>
<ellipse cx="6.95722" cy="60.5187" rx="2.26509" ry="2.28535" fill="white"/>
<rect width="46.3635" height="10.8129" transform="matrix(-0.791949 -0.609143 0.618021 -0.787283 87.4814 204.151)" fill="#804317"/>
</g>
<defs>
<clipPath id="clip0_567_2031">
<rect width="202" height="195" fill="white"/>
</clipPath>
</defs>
</svg>
