<svg width="135" height="130" viewBox="0 0 135 130" fill="none" xmlns="http://www.w3.org/2000/svg">
<g clip-path="url(#clip0_639_9899)">
<rect x="-268.5" y="1.5" width="402" height="387" rx="18.5" fill="#FDFFEF" stroke="black" stroke-width="3"/>
<g clip-path="url(#clip1_639_9899)">
<path opacity="0.999" fill-rule="evenodd" clip-rule="evenodd" d="M-1.07774 187.052C-2.71384 186.751 -3.98114 187.174 -4.87967 188.322C-9.1467 194.536 -12.9486 201.098 -16.2854 208.006C-14.6139 208.254 -12.9233 208.042 -11.2162 207.371C-9.58011 207.07 -8.31281 207.493 -7.41428 208.641C-14.1298 209.084 -16.876 212.471 -15.6518 218.801C-12.7496 222.712 -10.0034 226.734 -7.41428 230.865C-5.77565 231.488 -4.08507 231.7 -2.34505 231.5C-0.232452 232.347 1.87889 233.193 3.99149 234.04C-0.124725 233.707 -3.92665 233.707 -7.41428 234.04C-8.25958 234.04 -8.68159 234.463 -8.68159 235.31C-10.7384 230.357 -13.4834 225.7 -16.9191 221.341C-18.7098 225.355 -20.8224 229.165 -23.2556 232.77C-23.6777 237.427 -24.1009 242.083 -24.5229 246.74C-32.7592 258.161 -40.363 270.014 -47.3345 282.298C-44.8379 290.483 -42.9369 298.948 -41.6316 307.697C-43.8215 315.167 -48.8908 319.189 -56.8393 319.761C-63.1759 320.608 -69.5124 320.608 -75.8489 319.761C-89.1861 317.492 -102.281 314.317 -115.136 310.237C-115.916 308.588 -115.916 307.318 -115.136 306.427C-104.822 309.987 -94.2617 312.739 -83.4528 314.682C-71.1358 315.772 -58.886 315.35 -46.7008 313.412C-44.6998 305.66 -45.7554 298.252 -49.8691 291.188C-51.1326 286.996 -51.5546 282.763 -51.1364 278.488C-43.5997 267.126 -35.5739 256.119 -27.0576 245.47C-26.2123 242.507 -26.2123 239.543 -27.0576 236.58C-29.5225 238.311 -32.2687 239.37 -35.2951 239.755C-47.1229 240.602 -58.9519 240.602 -70.7797 239.755C-72.355 238.289 -73.6223 236.595 -74.5816 234.675C-78.3836 234.252 -82.1855 233.828 -85.9874 233.405C-89.1265 231.319 -92.0832 228.991 -94.8586 226.42C-96.0207 227.217 -97.288 227.641 -98.6605 227.69C-99.5058 228.113 -100.35 228.537 -101.195 228.96C-123.747 234.126 -134.941 224.814 -134.779 201.022C-127.625 191.946 -120.233 183.057 -112.601 174.353C-112.416 171.424 -111.994 168.461 -111.334 165.463C-109.875 163.9 -108.397 163.9 -106.898 165.463C-105.795 164.691 -105.162 163.633 -104.997 162.288C-110.035 158.293 -115.526 155.118 -121.472 152.764C-122.78 147.837 -123.624 143.181 -124.007 138.794C-122.943 134.763 -120.832 131.376 -117.67 128.635C-120.108 125.018 -122.221 121.208 -124.007 117.205C-133.202 114.199 -137.004 108.061 -135.412 98.7909C-137.759 94.1569 -138.393 89.2888 -137.313 84.1866C-132.553 80.4703 -128.963 75.8139 -126.541 70.2172C-124.495 69.3866 -122.382 68.7516 -120.205 68.3122C-112.294 59.694 -103.845 51.6509 -94.8586 44.1833C-73.6616 42.9688 -52.751 39.794 -32.1268 34.6587C-23.7055 36.7243 -16.947 41.3806 -11.8499 48.6281C-3.82401 59.2109 4.20314 69.7939 12.229 80.3767C8.66786 96.5688 6.76689 113.078 6.52611 129.905C0.0184784 129.711 -4.83911 126.748 -8.04794 121.015C-10.6332 122.971 -13.3795 124.665 -16.2854 126.095C-17.2765 129.366 -19.1774 131.906 -21.9883 133.714C-22.4103 136.254 -22.8336 138.794 -23.2556 141.334C-26.0665 143.8 -28.1791 146.763 -29.5922 150.224C-35.2608 153.343 -40.9637 156.518 -46.7008 159.748C-40.742 161.917 -35.8844 165.515 -32.1268 170.543C-25.7142 180.008 -20.645 190.167 -16.9191 201.022C-14.2147 195.372 -11.0464 190.08 -7.41428 185.147C-5.01781 184.889 -2.90646 185.524 -1.07774 187.052Z" fill="#161712"/>
<path fill-rule="evenodd" clip-rule="evenodd" d="M-2.34506 118.475C-0.655736 118.475 1.03485 118.475 2.72418 118.475C3.08536 120.746 2.66335 122.862 1.45687 124.825C-1.40218 123.655 -2.66949 121.539 -2.34506 118.475Z" fill="#A8C4AE"/>
<path fill-rule="evenodd" clip-rule="evenodd" d="M5.25883 82.9165C6.52614 82.9165 7.79344 82.9165 9.06075 82.9165C7.21935 86.5398 5.74167 90.3496 4.62517 94.346C3.77481 95.3015 2.71914 95.7249 1.4569 95.616C0.394896 95.182 -0.0283847 94.3353 0.189592 93.0761C-0.730474 88.2414 0.958849 84.8548 5.25883 82.9165Z" fill="#B0CDB5"/>
<path fill-rule="evenodd" clip-rule="evenodd" d="M5.25884 82.9174C0.958865 84.8557 -0.730458 88.2423 0.189608 93.077C-2.15618 88.2312 -0.888871 84.4214 3.99153 81.6475C4.76079 81.8044 5.1828 82.2277 5.25884 82.9174Z" fill="#1E2316"/>
<path fill-rule="evenodd" clip-rule="evenodd" d="M-22.6219 52.4381C-22.1999 53.2848 -21.7766 54.1314 -21.3546 54.978C-20.3256 56.8742 -18.6362 57.7209 -16.2854 57.5179C-14.7317 57.4932 -13.4643 57.0698 -12.4835 56.248C-6.18746 62.773 -0.062561 69.5461 5.89252 76.5671C7.27896 78.571 8.33589 80.6876 9.06079 82.9168C7.79349 82.9168 6.52618 82.9168 5.25887 82.9168C5.18283 82.2271 4.76082 81.8039 3.99156 81.6469C-0.888847 84.4208 -2.15615 88.2307 0.189636 93.0764C-0.0283432 94.3357 0.394943 95.1824 1.45694 95.6163C2.76227 96.9527 3.60757 98.646 3.99156 100.696C2.98152 106.155 2.55951 111.658 2.72426 117.205C0.69783 116.865 -0.991493 117.289 -2.34498 118.475C-4.0343 116.782 -5.72489 115.089 -7.41422 113.396C-10.1769 111.752 -12.7116 112.175 -15.0181 114.665C-16.1472 115.44 -17.4146 115.863 -18.82 115.935C-16.0953 112.161 -14.828 107.928 -15.0181 103.236C-5.05956 103.884 -2.52494 100.074 -7.41422 91.8065C-7.83623 90.5365 -8.68153 89.6898 -9.94883 89.2666C-12.192 87.5446 -13.8813 85.2165 -15.0181 82.2819C-6.87308 80.0348 -5.60577 76.0133 -11.2161 70.2174C-13.9472 67.6343 -16.9038 67.2109 -20.0873 68.9474C-24.2656 68.7802 -26.377 66.6636 -26.4238 62.5977C-27.7938 58.2647 -30.7517 55.7248 -35.295 54.978C-36.5902 55.4295 -37.4355 56.2762 -37.8296 57.5179C-39.4138 57.6162 -40.4694 58.4628 -40.9979 60.0578C-41.6277 62.9911 -41.8381 65.9544 -41.6315 68.9474C-43.9228 68.9365 -46.0354 69.5715 -47.9681 70.8524C-49.9159 73.0205 -52.0285 74.9255 -54.3046 76.5671C-57.9824 74.5156 -60.939 75.3622 -63.1758 79.107C-66.4556 82.8103 -66.0323 86.4084 -61.9085 89.9015C-59.4081 90.5308 -56.8735 90.7424 -54.3046 90.5365C-54.0043 92.176 -54.4263 93.446 -55.5719 94.3464C-56.4172 94.3464 -56.8392 94.7696 -56.8392 95.6163C-65.2985 95.8275 -73.7477 95.6158 -82.1854 94.9813C-93.1185 92.1763 -103.679 88.3664 -113.868 83.5518C-116.946 82.6587 -119.903 82.8704 -122.739 84.1868C-124.429 84.6101 -126.119 85.0335 -127.809 85.4567C-127.997 84.1208 -127.787 82.8508 -127.175 81.6469C-119.328 72.7011 -110.668 65.0815 -101.195 58.7879C-95.1399 57.6363 -93.0285 54.2497 -94.8585 48.6283C-94.9675 47.3636 -94.5442 46.3053 -93.5912 45.4534C-89.7893 44.6068 -85.9873 44.6068 -82.1854 45.4534C-81.4212 48.084 -79.7319 49.5657 -77.1162 49.8983C-73.7363 53.2848 -70.3576 53.2848 -66.9777 49.8983C-65.7206 50.1162 -64.8765 49.6928 -64.4431 48.6283C-63.1758 48.205 -62.3305 47.3584 -61.9085 46.0884C-58.891 43.3714 -55.5111 42.948 -51.77 44.8185C-51.77 45.6651 -51.348 46.0884 -50.5027 46.0884C-47.0607 49.4331 -43.4704 49.4331 -39.7306 46.0884C-37.2872 36.4559 -32.218 34.7627 -24.5229 41.0086C-24.2935 45.0656 -23.6598 48.8754 -22.6219 52.4381Z" fill="#95C916"/>
</g>
</g>
<defs>
<clipPath id="clip0_639_9899">
<rect width="135" height="130" fill="white"/>
</clipPath>
<clipPath id="clip1_639_9899">
<rect width="175" height="332" fill="white" transform="translate(-155 29)"/>
</clipPath>
</defs>
</svg>
