<svg width="140" height="265" viewBox="0 0 140 265" fill="none" xmlns="http://www.w3.org/2000/svg">
<g clip-path="url(#clip0_564_13)">
<path opacity="0.999" fill-rule="evenodd" clip-rule="evenodd" d="M123.138 126.156C121.829 125.916 120.815 126.254 120.096 127.17C116.683 132.13 113.641 137.368 110.972 142.882C112.309 143.08 113.661 142.91 115.027 142.375C116.336 142.135 117.35 142.472 118.069 143.389C112.696 143.742 110.499 146.446 111.479 151.498C113.8 154.62 115.997 157.83 118.069 161.128C119.38 161.624 120.732 161.794 122.124 161.635C123.814 162.311 125.503 162.986 127.193 163.662C123.9 163.396 120.859 163.396 118.069 163.662C117.392 163.662 117.055 163.999 117.055 164.676C115.409 160.722 113.213 157.005 110.465 153.525C109.032 156.729 107.342 159.77 105.396 162.648C105.058 166.365 104.719 170.081 104.382 173.799C97.7927 182.915 91.7096 192.376 86.1324 202.181C88.1297 208.714 89.6505 215.471 90.6947 222.454C88.9428 228.417 84.8874 231.627 78.5286 232.084C73.4593 232.76 68.3901 232.76 63.3209 232.084C52.6511 230.273 42.1751 227.738 31.8916 224.482C31.2671 223.166 31.2671 222.152 31.8916 221.441C40.1423 224.282 48.5907 226.478 57.2378 228.029C67.0914 228.9 76.8912 228.563 86.6393 227.016C88.2402 220.828 87.3957 214.916 84.1047 209.277C83.0939 205.931 82.7563 202.552 83.0909 199.14C89.1202 190.071 95.5409 181.285 102.354 172.785C103.03 170.42 103.03 168.054 102.354 165.689C100.382 167.071 98.185 167.916 95.764 168.223C86.3017 168.899 76.8385 168.899 67.3763 168.223C66.116 167.054 65.1022 165.701 64.3347 164.169C61.2932 163.831 58.2516 163.493 55.2101 163.155C52.6988 161.49 50.3335 159.632 48.1132 157.58C47.1835 158.216 46.1696 158.554 45.0716 158.594C44.3954 158.931 43.7202 159.27 43.0439 159.607C25.0025 163.731 16.0472 156.298 16.177 137.307C21.9002 130.063 27.8139 122.967 33.9193 116.02C34.0673 113.682 34.4049 111.317 34.9332 108.924C36.1001 107.676 37.2822 107.676 38.4816 108.924C39.3637 108.308 39.8706 107.464 40.0024 106.39C35.9723 103.201 31.5793 100.667 26.8224 98.7876C25.7761 94.8556 25.1009 91.1392 24.7947 87.6373C25.6453 84.4194 27.3344 81.7164 29.8639 79.528C27.9133 76.6412 26.2232 73.6002 24.7947 70.4051C17.4382 68.0055 14.3967 63.1061 15.6701 55.707C13.7924 52.0081 13.2855 48.1225 14.1493 44.0499C17.9573 41.0836 20.8295 37.3669 22.767 32.8996C24.4044 32.2367 26.0944 31.7298 27.8362 31.3791C34.1647 24.5001 40.924 18.0802 48.1132 12.1195C65.0708 11.1502 81.7992 8.61603 98.2986 4.51709C105.036 6.16581 110.442 9.8825 114.52 15.6674C120.941 24.1145 127.363 32.5618 133.783 41.0089C130.934 53.9333 129.414 67.1109 129.221 80.5417C124.015 80.3872 120.129 78.022 117.562 73.4461C115.493 75.0077 113.296 76.3592 110.972 77.5007C110.179 80.1117 108.658 82.139 106.409 83.5827C106.072 85.61 105.733 87.6373 105.396 89.6646C103.147 91.6327 101.457 93.998 100.326 96.7603C95.7913 99.2498 91.229 101.784 86.6393 104.363C91.4065 106.094 95.2925 108.966 98.2986 112.979C103.429 120.534 107.484 128.643 110.465 137.307C112.628 132.797 115.163 128.573 118.069 124.636C119.986 124.43 121.675 124.937 123.138 126.156Z" fill="#161712"/>
<path opacity="0.996" fill-rule="evenodd" clip-rule="evenodd" d="M120.096 127.17C120.815 126.254 121.829 125.916 123.138 126.156C130.671 130.322 134.388 136.741 134.29 145.416C132.625 156.052 131.105 166.527 129.728 176.84C127.375 180.303 124.671 180.641 121.617 177.853C120.726 186.168 117.177 193.095 110.972 198.633C113.751 203.476 113.413 208.207 109.958 212.824C116.22 218.088 120.276 224.677 122.124 232.591C121.553 235.999 120.201 239.04 118.069 241.714C119.704 243.324 121.732 244.337 124.152 244.755C126.138 247.481 126.306 250.184 124.659 252.864C122.76 255.103 120.563 256.961 118.069 258.439C102.736 265.624 86.8523 267.314 70.4178 263.508C63.9707 261.55 58.056 258.678 52.6755 254.891C39.7875 256.817 27.1144 255.973 14.6562 252.357C7.32813 247.434 4.96182 240.845 7.55929 232.591C11.5985 229.648 15.9915 228.973 20.7393 230.564C22.3878 226.382 25.4294 223.848 29.8639 222.961C26.0164 221.683 22.6372 219.656 19.7255 216.879C22.915 214.536 25.9566 212.001 28.8501 209.277C26.6997 205.693 24.8403 201.976 23.2739 198.126C22.0948 191.527 23.7849 185.784 28.3432 180.894C32.7463 175.648 37.3086 170.58 42.0301 165.689C42.8898 163.754 43.2285 161.727 43.0439 159.607C43.7202 159.27 44.3954 158.931 45.0716 158.594C45.3646 161.786 44.8577 164.827 43.5509 167.717C37.7547 174.524 32.3478 181.62 27.3293 189.003C27.7054 197.241 29.5648 205.182 32.9055 212.824C31.9433 213.45 31.0988 213.282 30.3708 212.318C28.0887 214.22 25.5541 215.741 22.767 216.879C25.9586 218.323 29.0001 219.843 31.8916 221.441C31.2671 222.152 31.2671 223.166 31.8916 224.482C29.281 225.564 27.084 227.254 25.3016 229.55C24.6761 230.512 24.8444 231.356 25.8085 232.084C30.6253 234.434 35.6946 235.109 41.0162 234.111C47.0476 238.153 53.6376 241.025 60.7863 242.727C70.1968 239.379 79.1531 240.225 87.6532 245.262C97.7329 246.316 107.195 244.289 116.041 239.18C119.449 235.351 119.618 231.128 116.548 226.509C113.527 222.643 110.317 218.926 106.916 215.359C105.631 216.299 104.279 216.469 102.861 215.865C104.746 214.286 106.266 212.428 107.423 210.29C110.523 201.047 109.17 199.696 103.368 206.236C103.199 205.898 103.03 205.56 102.861 205.222C107.847 198.976 112.071 192.218 115.534 184.949C116.93 178.283 117.437 171.525 117.055 164.676C117.055 163.999 117.392 163.662 118.069 163.662C121.061 165.598 124.442 166.612 128.207 166.703C128.447 165.394 128.11 164.381 127.193 163.662C125.503 162.986 123.814 162.311 122.124 161.635C124.152 161.635 126.179 161.635 128.207 161.635C129.948 153.266 130.455 144.818 129.728 136.293C127.96 131.652 124.75 128.611 120.096 127.17Z" fill="#191A17"/>
<path fill-rule="evenodd" clip-rule="evenodd" d="M64.3347 122.102C66.9667 122.877 69.6706 123.216 72.4455 123.115C72.2802 125.504 72.4485 127.869 72.9524 130.211C76.0386 133.166 78.2356 136.713 79.5424 140.854C75.9544 141.14 72.4059 141.647 68.897 142.375C67.1055 141.523 65.7531 140.172 64.8416 138.32C63.3158 132.921 63.1465 127.516 64.3347 122.102Z" fill="#F3F3F3"/>
<path fill-rule="evenodd" clip-rule="evenodd" d="M43.0439 121.088C45.4092 121.088 47.7756 121.088 50.1409 121.088C49.9239 122.754 50.2625 124.275 51.1547 125.649C48.5238 125.878 45.9892 126.385 43.5509 127.17C43.049 125.17 42.8797 123.143 43.0439 121.088Z" fill="#E6E6E6"/>
<path fill-rule="evenodd" clip-rule="evenodd" d="M53.1824 118.047C56.4176 118.527 59.4591 119.541 62.307 121.088C63.3117 123.869 62.9731 126.573 61.2932 129.197C59.8322 127.814 58.4807 126.293 57.2378 124.636C55.6035 123.906 54.0827 124.074 52.6755 125.143C51.9627 122.68 52.131 120.315 53.1824 118.047Z" fill="#8FC115"/>
<path fill-rule="evenodd" clip-rule="evenodd" d="M75.487 119.06C73.8629 120.656 71.8352 121.332 69.404 121.088C71.0281 119.492 73.0558 118.816 75.487 119.06Z" fill="#839381"/>
<path fill-rule="evenodd" clip-rule="evenodd" d="M43.0439 116.02C44.0578 116.02 45.0716 116.02 46.0855 116.02C47.0912 115.845 47.7664 116.184 48.1132 117.033C48.1132 118.047 48.1132 119.061 48.1132 120.074C44.9388 120.674 42.5735 119.661 41.0162 117.033C41.363 116.184 42.0382 115.845 43.0439 116.02Z" fill="#A3BDA6"/>
<path fill-rule="evenodd" clip-rule="evenodd" d="M48.1132 117.033C47.7664 116.184 47.0912 115.845 46.0855 116.019C46.0855 115.343 46.0855 114.668 46.0855 113.992C47.0912 114.166 47.7664 113.828 48.1132 112.978C49.6329 111.784 50.6468 110.095 51.1547 107.91C51.4923 108.248 51.8309 108.586 52.1685 108.924C51.0766 111.938 51.0766 114.979 52.1685 118.047C50.6893 118.115 49.3379 117.777 48.1132 117.033Z" fill="#8EBF16"/>
<path fill-rule="evenodd" clip-rule="evenodd" d="M66.3624 108.924C65.4307 114.402 67.796 116.429 73.4593 115.006C75.1717 116.456 77.1994 117.301 79.5424 117.54C78.4647 118.744 77.1122 119.251 75.487 119.06C73.0558 118.816 71.0281 119.492 69.404 121.088C67.3225 121.187 65.6324 120.511 64.3347 119.06C65.9123 115.829 64.8984 113.464 61.2932 111.965C60.0705 110.566 60.4081 109.383 62.307 108.417C63.8947 107.641 65.2462 107.811 66.3624 108.924Z" fill="#91C516"/>
<path fill-rule="evenodd" clip-rule="evenodd" d="M40.0024 111.965C41.8243 113.212 43.852 113.887 46.0855 113.992C46.0855 114.668 46.0855 115.343 46.0855 116.019C45.0716 116.019 44.0578 116.019 43.0439 116.019C41.7371 114.867 40.7232 113.516 40.0024 111.965Z" fill="#3E4D1B"/>
<path fill-rule="evenodd" clip-rule="evenodd" d="M40.0024 111.965C40.7232 113.516 41.7371 114.867 43.0439 116.019C42.0382 115.845 41.363 116.184 41.0162 117.033C37.6117 115.992 35.9217 113.627 35.947 109.938C37.6695 109.965 39.022 110.641 40.0024 111.965Z" fill="#8CBD16"/>
<path fill-rule="evenodd" clip-rule="evenodd" d="M61.2932 111.965C64.8984 113.464 65.9123 115.829 64.3347 119.06C61.646 118.4 59.9559 116.71 59.2655 113.992C59.5159 112.763 60.1921 112.086 61.2932 111.965Z" fill="#95AD94"/>
<path fill-rule="evenodd" clip-rule="evenodd" d="M54.1962 109.938C55.6217 110.417 56.2979 111.431 56.2239 112.978C55.57 118.105 54.2185 118.105 52.1685 112.978C52.6167 111.723 53.2929 110.709 54.1962 109.938Z" fill="#A8C1AD"/>
<path fill-rule="evenodd" clip-rule="evenodd" d="M48.1132 112.979C47.7664 113.828 47.0912 114.167 46.0855 113.993C43.852 113.887 41.8243 113.212 40.0024 111.965C42.5887 110.968 45.2926 109.954 48.1132 108.924C49.2548 110.25 49.2548 111.602 48.1132 112.979Z" fill="#A8C4AC"/>
<path fill-rule="evenodd" clip-rule="evenodd" d="M66.3624 108.924C66.3624 109.6 66.7 109.938 67.3762 109.938C67.5354 113.763 69.2255 114.776 72.4455 112.979C73.2951 113.326 73.6337 114.001 73.4593 115.006C67.796 116.429 65.4307 114.402 66.3624 108.924Z" fill="#6E7F58"/>
<path fill-rule="evenodd" clip-rule="evenodd" d="M72.4455 112.979C69.2255 114.776 67.5354 113.762 67.3763 109.938C69.5915 109.343 71.2816 110.356 72.4455 112.979Z" fill="#BEDDC5"/>
<path fill-rule="evenodd" clip-rule="evenodd" d="M78.5286 105.883C85.2849 105.031 90.5234 107.397 94.2432 112.979C102.201 124.025 106.932 136.189 108.437 149.47C106.638 155.606 103.428 160.844 98.8055 165.182C88.3528 166.842 77.8757 167.012 67.3763 165.689C64.8498 159.026 64.6815 152.269 66.8693 145.416C67.9511 144.715 69.1343 144.208 70.4178 143.895C76.5009 143.558 82.584 143.219 88.667 142.882C86.246 142.574 84.049 141.729 82.077 140.347C80.9689 134.282 79.9551 128.2 79.0355 122.101C77.9335 125.336 77.0889 128.716 76.5009 132.238C75.9068 132.026 75.3998 131.688 74.9801 131.224C74.1477 128.129 74.316 125.088 75.487 122.101C77.902 121.239 79.9297 119.888 81.5701 118.047C80.6364 115.76 78.9463 114.746 76.5009 115.006C76.4046 111.765 77.0808 108.724 78.5286 105.883Z" fill="#96CA17"/>
<path fill-rule="evenodd" clip-rule="evenodd" d="M54.1963 109.938C55.6623 108.809 57.3524 108.64 59.2655 109.431C58.4727 112.208 57.9657 115.081 57.7447 118.047C57.544 116.139 57.037 114.451 56.2239 112.979C56.298 111.431 55.6217 110.417 54.1963 109.938Z" fill="#6F9412"/>
<path fill-rule="evenodd" clip-rule="evenodd" d="M69.404 107.911C71.2938 106.6 73.3215 106.6 75.487 107.911C74.9801 108.924 74.4732 109.938 73.9663 110.952C72.6777 109.55 71.1569 108.536 69.404 107.911Z" fill="#BCBDBC"/>
<path fill-rule="evenodd" clip-rule="evenodd" d="M42.0301 106.897C46.1747 106.611 46.6816 107.287 43.5509 108.924C42.5066 108.583 41.9997 107.907 42.0301 106.897Z" fill="#D7D6D6"/>
<path fill-rule="evenodd" clip-rule="evenodd" d="M65.3486 88.6507C67.7139 88.6507 70.0802 88.6507 72.4455 88.6507C73.7544 88.4102 74.7682 88.748 75.487 89.6644C77.1781 91.67 77.8534 94.0353 77.5147 96.76C76.7168 98.3859 75.3654 99.062 73.4593 98.7873C70.5344 99.0975 67.8305 98.76 65.3486 97.7737C66.2428 94.0221 67.9329 93.0086 70.4178 94.7327C69.5246 96.2238 68.1731 97.0682 66.3624 97.2668C69.0451 97.7706 71.749 97.9399 74.4732 97.7737C74.4732 96.0839 74.4732 94.3951 74.4732 92.7054C70.2424 93.2568 66.3563 92.5807 62.814 90.678C62.5321 91.6063 62.0252 92.2822 61.2932 92.7054C61.2932 92.0295 61.2932 91.3538 61.2932 90.678C62.0911 89.0519 63.4425 88.3761 65.3486 88.6507Z" fill="#B0B0AE"/>
<path fill-rule="evenodd" clip-rule="evenodd" d="M29.8639 93.7188C30.2735 94.9919 30.9498 96.1749 31.8916 97.2666C30.1762 99.1206 29.1623 98.6137 28.8501 95.7461C28.8937 94.8176 29.2313 94.1414 29.8639 93.7188Z" fill="#D7B504"/>
<path fill-rule="evenodd" clip-rule="evenodd" d="M65.3486 97.7739C62.5128 97.3005 61.1604 95.6117 61.2932 92.7055C62.0252 92.2823 62.5321 91.6065 62.8139 90.6782C66.3563 92.5809 70.2424 93.257 74.4732 92.7055C74.4732 94.3953 74.4732 96.0841 74.4732 97.7739C71.749 97.9401 69.045 97.7708 66.3624 97.267C68.1731 97.0683 69.5246 96.224 70.4178 94.7329C67.9329 93.0088 66.2428 94.0223 65.3486 97.7739Z" fill="#F8F8F8"/>
<path fill-rule="evenodd" clip-rule="evenodd" d="M43.0439 94.733C42.0382 94.5587 41.363 94.8972 41.0162 95.7467C37.048 96.141 33.3313 95.4649 29.8639 93.7194C29.8639 92.0299 29.8639 90.3405 29.8639 88.6511C34.1576 87.7023 38.5516 87.3644 43.0439 87.6374C41.9834 90.0516 41.9834 92.4169 43.0439 94.733Z" fill="#E2E2E2"/>
<path fill-rule="evenodd" clip-rule="evenodd" d="M61.2932 90.678C61.2932 91.3538 61.2932 92.0295 61.2932 92.7053C61.1604 95.6114 62.5128 97.3002 65.3486 97.7736C67.8305 98.7599 70.5344 99.0974 73.4593 98.7872C70.9562 99.6154 68.2532 100.122 65.3486 100.308C62.7399 102.427 60.036 104.286 57.2378 105.883C53.9114 104.709 50.5322 103.526 47.0993 102.335C48.6312 100.698 49.9827 100.698 51.1547 102.335C54.5815 103.286 57.6231 102.61 60.2793 100.308C57.6585 96.4183 57.9972 96.0798 61.2932 99.2941C62.307 99.9702 63.3209 99.9702 64.3347 99.2941C61.5314 98.1821 59.8424 96.1548 59.2655 93.2121C55.8336 90.8688 53.1307 91.5446 51.1547 95.2394C48.396 95.8497 45.6931 95.6804 43.0439 94.7326C41.9835 92.4165 41.9835 90.0512 43.0439 87.637C38.5516 87.364 34.1576 87.7018 29.8639 88.6506C29.8335 87.6398 30.3404 86.964 31.3847 86.6233C33.9609 86.1094 36.4955 85.4336 38.9885 84.596C37.2741 81.7119 37.6128 79.3467 40.0024 77.5004C41.0852 76.5531 42.4366 76.2152 44.0578 76.4867C45.1913 79.8876 45.1913 83.2665 44.0578 86.6233C49.0915 88.44 54.1608 90.1294 59.2655 91.6916C59.9579 91.324 60.6342 90.986 61.2932 90.678Z" fill="#241F14"/>
<path fill-rule="evenodd" clip-rule="evenodd" d="M45.0716 89.6642C46.7941 89.5018 48.4842 89.6708 50.1409 90.171C48.027 92.3393 46.3379 92.1705 45.0716 89.6642Z" fill="#C9C8C8"/>
<path fill-rule="evenodd" clip-rule="evenodd" d="M122.124 71.4185C123.475 71.4185 124.828 71.4185 126.179 71.4185C126.468 73.2309 126.131 74.9204 125.166 76.4868C122.878 75.5533 121.864 73.8638 122.124 71.4185Z" fill="#A8C4AE"/>
<path fill-rule="evenodd" clip-rule="evenodd" d="M108.944 69.3911C108.996 74.3543 107.137 78.4089 103.368 81.555C100.935 79.2953 98.7376 76.9301 96.7778 74.4594C100.649 72.7621 104.704 71.0727 108.944 69.3911Z" fill="#94C816"/>
<path fill-rule="evenodd" clip-rule="evenodd" d="M118.069 67.3636C117.146 70.314 115.118 72.3413 111.986 73.4456C111.039 71.829 111.039 70.1395 111.986 68.3773C113.831 66.3894 115.858 66.0515 118.069 67.3636Z" fill="#A7C1A8"/>
<path fill-rule="evenodd" clip-rule="evenodd" d="M78.5286 54.186C79.2048 55.8754 79.88 57.5648 80.5563 59.2543C83.8675 66.2156 86.909 73.3112 89.6809 80.5412C88.9164 84.1911 87.565 87.57 85.6255 90.6778C84.781 91.0156 83.9354 91.3536 83.0909 91.6914C80.5116 91.1124 77.977 90.4366 75.487 89.6641C74.7682 88.7478 73.7544 88.4099 72.4455 88.6504C71.7267 87.7341 70.7128 87.3962 69.4039 87.6368C70.284 84.4207 70.284 81.3798 69.4039 78.5138C69.4039 77.838 69.0663 77.5002 68.3901 77.5002C64.5375 74.0462 62.8474 75.0599 63.3209 80.5412C63.2043 83.4897 63.8795 86.1927 65.3486 88.6504C63.4425 88.3758 62.0911 89.0517 61.2932 90.6778C60.6342 90.9858 59.9579 91.3238 59.2655 91.6914C54.1608 90.1292 49.0915 88.4398 44.0578 86.6231C45.1912 83.2663 45.1912 79.8874 44.0578 76.4865C42.4366 76.2151 41.0852 76.5529 40.0024 77.5002C37.6127 79.3466 37.2741 81.7117 38.9885 84.5958C36.4955 85.4334 33.9609 86.1092 31.3847 86.6231C30.3404 86.9638 29.8335 87.6396 29.8639 88.6504C28.4496 90.2261 27.7744 89.8881 27.8362 87.6368C28.9089 84.9036 29.9227 82.2006 30.8778 79.5275C26.359 68.3305 27.3729 57.687 33.9193 47.5972C40.8712 49.9139 47.9682 52.2792 55.2101 54.6928C63.0116 55.3934 70.7838 55.2246 78.5286 54.186Z" fill="#DBB701"/>
<path fill-rule="evenodd" clip-rule="evenodd" d="M68.3901 77.5008C67.1988 77.2788 66.185 77.6166 65.3486 78.5144C66.8268 79.8139 68.1792 79.8139 69.404 78.5144C70.284 81.3803 70.284 84.4213 69.404 87.6374C70.7128 87.3968 71.7267 87.7347 72.4455 88.651C70.0802 88.651 67.7139 88.651 65.3486 88.651C63.8795 86.1933 63.2043 83.4903 63.3209 80.5417C62.8474 75.0605 64.5375 74.0468 68.3901 77.5008Z" fill="#141008"/>
<path fill-rule="evenodd" clip-rule="evenodd" d="M68.3901 77.5006C69.0663 77.5006 69.4039 77.8384 69.4039 78.5142C68.1792 79.8138 66.8267 79.8138 65.3486 78.5142C66.185 77.6164 67.1988 77.2786 68.3901 77.5006Z" fill="#8D8E8D"/>
<path fill-rule="evenodd" clip-rule="evenodd" d="M40.0024 77.5006C41.1937 77.2786 42.2075 77.6164 43.0439 78.5142C41.4704 79.8299 40.4566 79.492 40.0024 77.5006Z" fill="#A9ABA9"/>
<path fill-rule="evenodd" clip-rule="evenodd" d="M96.7778 74.4595C97.7308 77.7177 99.2516 80.7587 101.34 83.5825C102.016 85.6098 102.016 87.6371 101.34 89.6644C100.664 91.0159 99.9887 91.0159 99.3124 89.6644C98.7437 92.4925 97.3922 94.8574 95.257 96.7601C94.3294 95.9207 93.6542 94.9071 93.2293 93.7191C90.5721 99.5446 86.0097 103.092 79.5424 104.363C70.8771 105.994 62.4277 107.007 54.1962 107.404C46.2751 106.623 39.5157 103.413 33.9193 97.7737C36.4225 97.0966 38.7878 96.4205 41.0162 95.7464C41.363 94.897 42.0382 94.5584 43.0439 94.7327C45.6931 95.6805 48.396 95.8498 51.1547 95.2396C53.1307 91.5448 55.8336 90.869 59.2655 93.2122C59.8424 96.1549 61.5314 98.1822 64.3347 99.2942C63.3209 99.9703 62.307 99.9703 61.2932 99.2942C57.9972 96.0799 57.6585 96.4185 60.2793 100.308C57.623 102.61 54.5815 103.286 51.1547 102.335C49.9827 100.698 48.6312 100.698 47.0993 102.335C50.5322 103.526 53.9114 104.709 57.2378 105.883C60.036 104.286 62.7399 102.427 65.3486 100.308C68.2532 100.122 70.9561 99.6155 73.4593 98.7874C75.3654 99.0621 76.7168 98.386 77.5147 96.7601C88.2818 94.5533 92.8441 87.7951 91.2017 76.4868C89.033 70.798 86.3291 65.3918 83.0909 60.2683C81.6573 52.0995 82.6711 44.328 86.1324 36.9541C86.977 36.1094 87.8225 35.2646 88.667 34.4199C93.351 33.0751 98.0826 32.3993 102.861 32.3926C105.396 33.5752 107.254 35.4336 108.437 37.9677C111.985 45.1058 111.815 52.2014 107.93 59.2546C110.67 62.9221 109.317 66.1321 103.875 68.8844C101.276 69.9784 98.5733 70.4853 95.764 70.4049C95.4923 72.0257 95.8309 73.3773 96.7778 74.4595Z" fill="#DAB701"/>
<path fill-rule="evenodd" clip-rule="evenodd" d="M34.9332 60.2683C38.2707 59.8827 40.636 61.2342 42.0301 64.3229C40.488 64.7078 38.799 64.8768 36.9609 64.8298C35.9876 66.2686 35.143 67.7891 34.4262 69.3912C33.7835 66.2948 33.9518 63.2538 34.9332 60.2683Z" fill="#141007"/>
<path fill-rule="evenodd" clip-rule="evenodd" d="M65.3486 57.2275C68.2127 56.8024 70.4087 57.8161 71.9386 60.2685C77.2633 70.7872 76.4177 71.6319 69.404 62.8026C65.5919 61.6103 62.7197 62.7929 60.7863 66.3504C61.1918 62.8351 62.7126 59.7942 65.3486 57.2275Z" fill="#1B1507"/>
<path fill-rule="evenodd" clip-rule="evenodd" d="M79.5424 52.1592C80.4235 54.4065 80.7611 56.7717 80.5563 59.2548C79.88 57.5653 79.2048 55.876 78.5286 54.1865C78.5286 53.8486 78.5286 53.5107 78.5286 53.1728C78.5286 52.497 78.8662 52.1592 79.5424 52.1592Z" fill="#726005"/>
<path fill-rule="evenodd" clip-rule="evenodd" d="M27.8362 52.1591C26.7403 57.1996 25.7264 62.2679 24.7947 67.364C21.014 65.8792 18.6487 63.1762 17.6978 59.2547C18.0202 58.0917 18.6954 57.2471 19.7254 56.7206C16.0675 52.1496 15.8982 47.5881 19.2185 43.0361C20.2131 47.9149 23.0853 50.9559 27.8362 52.1591Z" fill="#D7B402"/>
<path fill-rule="evenodd" clip-rule="evenodd" d="M116.041 48.104C117.055 48.4419 117.731 49.1177 118.069 50.1313C120.279 56.3621 118.251 58.7274 111.986 57.227C112.89 53.8788 114.241 50.8378 116.041 48.104Z" fill="#AFCAB3"/>
<path fill-rule="evenodd" clip-rule="evenodd" d="M93.7363 22.7627C92.9607 25.3943 92.622 28.0974 92.7224 30.872C95.7183 30.2043 98.7599 29.8663 101.847 29.8583C101.847 28.8447 101.847 27.831 101.847 26.8173C102.185 26.8173 102.523 26.8173 102.861 26.8173C102.898 30.0627 104.587 31.7521 107.93 31.8856C109.792 34.6049 110.805 37.6459 110.972 41.0086C115.908 40.2599 117.26 37.5568 115.027 32.8993C119.515 37.5256 118.502 40.7355 111.986 42.5291C112.895 44.8715 114.246 46.7298 116.041 48.1042C114.241 50.8381 112.89 53.8791 111.986 57.2272C118.251 58.7276 120.279 56.3623 118.069 50.1315C121.98 56.7309 119.952 59.7719 111.986 59.2545C112.138 62.9997 111.124 66.3785 108.944 69.3911C104.704 71.0727 100.649 72.7621 96.7778 74.4594C95.8309 73.3772 95.4922 72.0256 95.764 70.4048C98.5733 70.4852 101.276 69.9783 103.875 68.8843C109.317 66.132 110.67 62.922 107.93 59.2545C111.815 52.2013 111.984 45.1057 108.437 37.9676C107.254 35.4335 105.396 33.5751 102.861 32.3925C98.0826 32.3992 93.351 33.075 88.667 34.4198C87.8225 35.2645 86.9769 36.1093 86.1324 36.954C82.6711 44.3279 81.6573 52.0994 83.0909 60.2682C86.3291 65.3917 89.033 70.7979 91.2016 76.4867C92.8441 87.795 88.2818 94.5532 77.5147 96.76C77.8533 94.0352 77.1781 91.67 75.487 89.6643C77.977 90.4368 80.5116 91.1126 83.0909 91.6917C83.9354 91.3538 84.781 91.0158 85.6255 90.678C87.565 87.5702 88.9164 84.1914 89.6809 80.5414C86.909 73.3114 83.8675 66.2158 80.5563 59.2545C80.7611 56.7714 80.4234 54.4062 79.5424 52.1589C80.4589 51.4402 80.7965 50.4265 80.5563 49.1179C80.7306 48.1127 80.392 47.4369 79.5424 47.0906C79.5505 44.0042 79.8881 40.9632 80.5563 37.9676C82.3771 36.6573 84.0672 35.1368 85.6255 33.4061C87.1716 32.3838 88.8617 31.8769 90.6947 31.8856C90.5295 29.4966 90.6978 27.1314 91.2016 24.79C91.6244 23.5169 92.469 22.8412 93.7363 22.7627Z" fill="#18170E"/>
<path fill-rule="evenodd" clip-rule="evenodd" d="M97.7917 50.1314C98.8582 49.9798 99.8721 50.1488 100.833 50.6382C96.8315 52.2486 94.9732 55.1206 95.257 59.2543C99.0965 56.7615 99.7727 57.7752 97.2847 62.2953C96.5984 60.0764 95.4152 59.7384 93.7363 61.2816C93.3987 60.437 93.06 59.5922 92.7224 58.7475C93.3682 55.2371 95.0573 52.365 97.7917 50.1314Z" fill="#2A230A"/>
<path fill-rule="evenodd" clip-rule="evenodd" d="M25.8085 44.0498C27.7034 44.7235 29.7311 45.3993 31.8916 46.0771C31.2154 47.7666 30.5402 49.456 29.8639 51.1454C29.4006 51.9538 28.7244 52.2918 27.8362 52.1591C25.7791 49.7684 23.7514 47.4032 21.7531 45.0635C23.1046 44.7256 24.4571 44.3877 25.8085 44.0498Z" fill="#475D0E"/>
<path fill-rule="evenodd" clip-rule="evenodd" d="M128.207 43.0361C129.221 43.0361 130.235 43.0361 131.249 43.0361C129.775 45.9282 128.593 48.9692 127.7 52.1591C127.02 52.9218 126.175 53.2597 125.166 53.1727C124.316 52.8264 123.977 52.1506 124.152 51.1454C123.416 47.2864 124.767 44.5833 128.207 43.0361Z" fill="#B0CDB5"/>
<path fill-rule="evenodd" clip-rule="evenodd" d="M128.207 43.0361C124.767 44.5833 123.416 47.2864 124.152 51.1454C122.275 47.2776 123.289 44.2366 127.193 42.0225C127.809 42.1477 128.146 42.4856 128.207 43.0361Z" fill="#1E2316"/>
<path fill-rule="evenodd" clip-rule="evenodd" d="M23.7808 33.9135C24.5301 33.7807 25.2063 33.9496 25.8085 34.4203C24.6254 35.6029 23.4432 36.7855 22.2601 37.9681C21.9559 36.381 22.4628 35.0295 23.7808 33.9135Z" fill="#998608"/>
<path fill-rule="evenodd" clip-rule="evenodd" d="M106.916 20.7358C109.212 21.4643 111.577 21.8022 114.013 21.7495C113.228 22.4054 112.215 22.7434 110.972 22.7632C109.091 22.9251 107.74 22.2493 106.916 20.7358Z" fill="#3D4632"/>
<path fill-rule="evenodd" clip-rule="evenodd" d="M105.902 18.7082C106.24 19.384 106.579 20.0597 106.916 20.7355C107.74 22.249 109.091 22.9248 110.972 22.7628C112.215 22.743 113.229 22.4051 114.013 21.7491C119.05 26.9573 123.95 32.3636 128.714 37.9677C129.823 39.5672 130.669 41.2567 131.249 43.036C130.235 43.036 129.221 43.036 128.207 43.036C128.146 42.4855 127.809 42.1477 127.193 42.0224C123.289 44.2365 122.275 47.2775 124.152 51.1453C123.977 52.1505 124.316 52.8263 125.166 53.1726C126.21 54.2393 126.886 55.5909 127.193 57.2273C126.385 61.5845 126.048 65.977 126.179 70.4049C124.558 70.1334 123.207 70.4713 122.124 71.4185C120.773 70.067 119.42 68.7154 118.069 67.3639C115.858 66.0518 113.831 66.3897 111.986 68.3776C111.082 68.9957 110.068 69.3335 108.944 69.3912C111.124 66.3786 112.138 62.9998 111.986 59.2546C119.952 59.772 121.98 56.731 118.069 50.1317C117.731 49.118 117.055 48.4422 116.041 48.1043C114.246 46.7299 112.895 44.8716 111.986 42.5292C118.502 40.7356 119.515 37.5257 115.027 32.8994C112.842 30.8376 110.477 30.4997 107.93 31.8858C104.587 31.7523 102.898 30.0628 102.861 26.8175C101.765 23.3588 99.3986 21.3315 95.764 20.7355C94.7278 21.0958 94.0516 21.7717 93.7363 22.7628C92.469 22.8413 91.6244 23.517 91.2017 24.7901C90.6978 27.1315 90.5295 29.4968 90.6947 31.8858C88.8617 31.877 87.1716 32.3839 85.6255 33.4063C84.0672 35.1369 82.3771 36.6574 80.5563 37.9677C77.6141 36.3303 75.2488 37.006 73.4593 39.995C70.8355 42.951 71.1741 45.823 74.4732 48.6112C76.4735 49.1134 78.5012 49.2823 80.5563 49.118C80.7966 50.4266 80.4589 51.4403 79.5424 52.159C78.8662 52.159 78.5286 52.4968 78.5286 53.1726C71.7612 53.3412 65.0018 53.1722 58.2516 52.6658C49.5052 50.4268 41.0568 47.3859 32.9055 43.5429C30.4428 42.83 28.0775 42.9989 25.8085 44.0497C24.4571 44.3875 23.1046 44.7255 21.7532 45.0634C21.6021 43.997 21.7704 42.9833 22.2601 42.0224C28.5378 34.8819 35.4654 28.8 43.0439 23.7765C47.8881 22.8573 49.5772 20.1542 48.1132 15.6672C48.026 14.6577 48.3646 13.813 49.127 13.133C52.1686 12.4572 55.2101 12.4572 58.2516 13.133C58.863 15.2327 60.2145 16.4154 62.307 16.6808C65.011 19.384 67.7139 19.384 70.4178 16.6808C71.4235 16.8548 72.0988 16.5168 72.4455 15.6672C73.4593 15.3293 74.1356 14.6535 74.4732 13.6399C76.8872 11.4711 79.5911 11.1332 82.584 12.6262C82.584 13.302 82.9216 13.6399 83.5978 13.6399C86.3514 16.3095 89.2237 16.3095 92.2155 13.6399C94.1702 5.95124 98.2256 4.59972 104.382 9.58521C104.565 12.8235 105.072 15.8644 105.902 18.7082Z" fill="#95C916"/>
<path fill-rule="evenodd" clip-rule="evenodd" d="M54.1962 39.9946C52.6228 47.2097 55.6643 50.2506 63.3209 49.1176C57.5754 51.6016 53.52 49.9121 51.1547 44.0493C51.2166 41.8671 52.2304 40.5154 54.1962 39.9946Z" fill="#4E5946"/>
<path fill-rule="evenodd" clip-rule="evenodd" d="M73.4593 39.9946C73.2951 42.0496 73.4644 44.0769 73.9663 46.0766C75.6675 48.1578 77.5259 48.4958 79.5424 47.0903C80.392 47.4366 80.7306 48.1124 80.5563 49.1176C78.5012 49.2819 76.4735 49.113 74.4732 48.6107C71.1741 45.8226 70.8355 42.9506 73.4593 39.9946Z" fill="#4B583D"/>
<path fill-rule="evenodd" clip-rule="evenodd" d="M61.2932 38.9814C66.9728 39.8641 68.3252 42.5673 65.3486 47.0907C66.0846 43.2317 64.7332 40.5286 61.2932 38.9814Z" fill="#2D3322"/>
<path fill-rule="evenodd" clip-rule="evenodd" d="M61.2932 38.9815C64.7332 40.5286 66.0846 43.2318 65.3486 47.0908C65.011 48.1044 64.3347 48.7802 63.3209 49.1181C55.6643 50.2512 52.6228 47.2102 54.1963 39.9951C55.0195 38.4816 56.371 37.8058 58.2516 37.9678C59.4946 37.9876 60.5085 38.3255 61.2932 38.9815Z" fill="#B1CFB7"/>
<path fill-rule="evenodd" clip-rule="evenodd" d="M34.9331 33.9131C33.8767 40.6162 36.9183 43.3193 44.0578 42.0224C38.1937 45.6866 34.4769 43.9971 32.9055 36.9541C32.8578 35.3954 33.534 34.3817 34.9331 33.9131Z" fill="#21261C"/>
<path fill-rule="evenodd" clip-rule="evenodd" d="M80.5563 37.968C79.8881 40.9636 79.5505 44.0045 79.5424 47.0909C77.5259 48.4965 75.6675 48.1585 73.9663 46.0773C73.4644 44.0776 73.2951 42.0503 73.4593 39.9953C75.2488 37.0062 77.6141 36.3305 80.5563 37.968Z" fill="#ACC8B0"/>
<path fill-rule="evenodd" clip-rule="evenodd" d="M115.027 32.8993C117.26 37.5567 115.908 40.2599 110.972 41.0085C110.805 37.6458 109.792 34.6048 107.93 31.8856C110.477 30.4995 112.842 30.8375 115.027 32.8993Z" fill="#A3BDA6"/>
<path fill-rule="evenodd" clip-rule="evenodd" d="M44.0578 42.0221C36.9183 43.319 33.8767 40.616 34.9332 33.9128C37.7324 31.4395 40.7739 31.2706 44.0578 33.406C46.7394 36.3958 46.7394 39.2679 44.0578 42.0221Z" fill="#A1BCA5"/>
<path fill-rule="evenodd" clip-rule="evenodd" d="M52.1685 24.79C51.838 31.2021 54.8796 33.5672 61.2932 31.8857C55.9664 34.9812 52.2486 33.4607 50.1409 27.3242C50.2818 26.0054 50.957 25.1606 52.1685 24.79Z" fill="#445033"/>
<path fill-rule="evenodd" clip-rule="evenodd" d="M73.4593 28.8452C76.2119 30.4904 79.2535 31.1661 82.584 30.8725C80.4265 32.0171 78.0612 32.186 75.487 31.3794C74.5938 30.6614 73.9186 29.8167 73.4593 28.8452Z" fill="#3B4332"/>
<path fill-rule="evenodd" clip-rule="evenodd" d="M84.6116 23.7769C85.7492 25.5897 85.9185 27.617 85.1186 29.8588C84.4383 30.6215 83.5937 30.9595 82.584 30.8725C84.2751 28.8669 84.9503 26.5016 84.6116 23.7769Z" fill="#35401F"/>
<path fill-rule="evenodd" clip-rule="evenodd" d="M60.2793 23.7769C62.6558 24.2624 64.0083 25.7829 64.3347 28.3383C64.1938 29.6571 63.5186 30.5019 62.307 30.8725C62.6456 28.1478 61.9704 25.7825 60.2793 23.7769Z" fill="#556349"/>
<path fill-rule="evenodd" clip-rule="evenodd" d="M60.2793 23.7769C61.9704 25.7825 62.6456 28.1478 62.307 30.8725C62.307 31.5483 61.9694 31.8861 61.2932 31.8861C54.8796 33.5677 51.838 31.2025 52.1685 24.7905C54.8725 24.4527 57.5754 24.1147 60.2793 23.7769Z" fill="#BAD9C1"/>
<path fill-rule="evenodd" clip-rule="evenodd" d="M60.2793 23.7765C57.5754 24.1143 54.8725 24.4523 52.1685 24.7902C54.6961 22.6779 57.4 22.34 60.2793 23.7765Z" fill="#5D6B55"/>
<path fill-rule="evenodd" clip-rule="evenodd" d="M93.7363 22.7629C97.596 22.0271 100.3 23.3786 101.847 26.8175C101.847 27.8312 101.847 28.8449 101.847 29.8585C98.7599 29.8665 95.7183 30.2045 92.7224 30.8722C92.6221 28.0976 92.9607 25.3945 93.7363 22.7629Z" fill="#BAD8C0"/>
<path fill-rule="evenodd" clip-rule="evenodd" d="M83.5978 22.7631C84.274 22.7631 84.6117 23.1009 84.6117 23.7767C84.9503 26.5014 84.2751 28.8667 82.584 30.8724C79.2535 31.1659 76.2119 30.4902 73.4593 28.845C73.1329 26.5923 73.8091 24.7339 75.487 23.2699C78.1697 22.7657 80.8736 22.5967 83.5978 22.7631Z" fill="#B9D9C1"/>
<path fill-rule="evenodd" clip-rule="evenodd" d="M102.861 26.8178C102.523 26.8178 102.185 26.8178 101.847 26.8178C100.3 23.3789 97.596 22.0273 93.7363 22.7632C94.0516 21.772 94.7278 21.0962 95.764 20.7358C99.3986 21.3319 101.765 23.3592 102.861 26.8178Z" fill="#5A6A44"/>
<path fill-rule="evenodd" clip-rule="evenodd" d="M83.5978 22.7627C80.8736 22.5964 78.1697 22.7654 75.487 23.2696C73.8091 24.7336 73.1329 26.5919 73.4593 28.8447C71.7287 23.7733 73.7564 21.0702 79.5424 20.7354C81.4231 20.5734 82.7746 21.2492 83.5978 22.7627Z" fill="#576650"/>
<path fill-rule="evenodd" clip-rule="evenodd" d="M48.1132 15.6675C49.5771 20.1545 47.8881 22.8576 43.0439 23.7768C41.4948 23.7592 40.9878 23.0834 41.5231 21.7494C43.635 19.4626 45.832 17.4353 48.1132 15.6675Z" fill="#96AD93"/>
<path fill-rule="evenodd" clip-rule="evenodd" d="M62.307 16.6807C65.011 16.6807 67.7139 16.6807 70.4178 16.6807C67.7139 19.3838 65.011 19.3838 62.307 16.6807Z" fill="#455038"/>
<path fill-rule="evenodd" clip-rule="evenodd" d="M114.013 21.7494C111.577 21.8021 109.212 21.4642 106.916 20.7358C106.579 20.0599 106.24 19.3842 105.902 18.7084C105.599 16.5757 105.937 14.5484 106.916 12.6265C109.686 15.391 112.052 18.432 114.013 21.7494Z" fill="#B4D1BA"/>
<path fill-rule="evenodd" clip-rule="evenodd" d="M60.2793 13.64C64.8122 13.0425 68.8676 13.7182 72.4455 15.6673C72.0988 16.5169 71.4235 16.8549 70.4178 16.6809C67.7139 16.6809 65.011 16.6809 62.307 16.6809C61.6308 15.6673 60.9556 14.6536 60.2793 13.64Z" fill="#B3D0B8"/>
<path fill-rule="evenodd" clip-rule="evenodd" d="M60.2793 13.6396C64.9086 12.3246 69.6402 12.3246 74.4732 13.6396C74.1356 14.6532 73.4593 15.3291 72.4455 15.6669C68.8676 13.7178 64.8122 13.0421 60.2793 13.6396Z" fill="#586457"/>
<path fill-rule="evenodd" clip-rule="evenodd" d="M83.5978 13.6398C82.9216 13.6398 82.584 13.3019 82.584 12.6261C82.6965 12.0003 83.0341 11.4935 83.5978 11.1056C86.5805 9.96587 89.6221 9.62801 92.7224 10.092C92.0462 11.1056 91.371 12.1193 90.6947 13.133C88.3527 13.6363 85.9874 13.8053 83.5978 13.6398Z" fill="#B1CDB7"/>
<path fill-rule="evenodd" clip-rule="evenodd" d="M120.096 127.169C124.75 128.61 127.96 131.651 129.728 136.292C130.455 144.817 129.948 153.265 128.207 161.634C126.179 161.634 124.152 161.634 122.124 161.634C120.732 161.793 119.38 161.624 118.069 161.127C115.997 157.83 113.8 154.619 111.479 151.497C110.499 146.445 112.696 143.742 118.069 143.388C119.567 143.654 120.919 143.316 122.124 142.374C119.617 141.06 117.25 141.06 115.027 142.374C113.661 142.91 112.309 143.079 110.972 142.881C113.641 137.367 116.683 132.129 120.096 127.169Z" fill="#F8F8F8"/>
<path fill-rule="evenodd" clip-rule="evenodd" d="M47.0993 127.169C49.8296 129.694 52.8711 131.89 56.2239 133.758C59.0708 136.002 58.7332 137.523 55.2101 138.32C51.2064 135.804 47.8262 132.594 45.0716 128.69C46.0003 128.408 46.6755 127.901 47.0993 127.169Z" fill="#D2B104"/>
<path fill-rule="evenodd" clip-rule="evenodd" d="M38.9885 130.211C40.8013 129.922 42.4914 130.26 44.0578 131.225C46.0297 133.891 48.395 136.086 51.1547 137.814C49.4737 141.156 46.7698 142.169 43.0439 140.855C41.1399 139.291 39.6192 137.433 38.4816 135.28C37.9382 137.375 38.4451 139.234 40.0024 140.855C37.5884 142.384 36.5746 144.58 36.9608 147.443C37.5296 150.555 38.0365 153.596 38.4816 156.566C33.9943 153.506 32.136 149.282 32.9055 143.896C32.1248 137.919 34.1525 133.358 38.9885 130.211Z" fill="#D6B302"/>
<path fill-rule="evenodd" clip-rule="evenodd" d="M53.1824 126.156C54.5338 126.156 55.8863 126.156 57.2378 126.156C57.0867 127.223 57.255 128.236 57.7447 129.197C59.4824 130.761 61.0032 132.451 62.307 134.266C62.3547 135.786 61.6794 136.8 60.2793 137.307C58.5872 133.836 56.0526 131.133 52.6755 129.197C52.199 128.106 52.3683 127.092 53.1824 126.156Z" fill="#CFAF04"/>
<path fill-rule="evenodd" clip-rule="evenodd" d="M35.947 117.033C37.6401 117.288 39.1609 117.964 40.5093 119.061C40.9706 122.46 41.4775 125.839 42.0301 129.197C37.7537 130.553 33.3607 131.735 28.8501 132.745C26.6825 134.186 25.4993 136.044 25.3016 138.32C26.5831 136.184 28.4415 135.171 30.8778 135.279C29.8832 139.971 29.7139 144.702 30.3708 149.47C31.7517 152.244 33.6111 154.609 35.947 156.566C30.3779 158.881 26.1532 157.529 23.2739 152.511C21.1894 149.02 19.6687 145.303 18.7116 141.361C18.9336 139.903 19.4406 138.552 20.2324 137.306C26.4645 131.254 31.702 124.496 35.947 117.033Z" fill="#91C416"/>
<path fill-rule="evenodd" clip-rule="evenodd" d="M115.027 142.375C117.25 141.06 119.617 141.06 122.124 142.375C120.919 143.317 119.567 143.654 118.069 143.389C117.35 142.473 116.336 142.135 115.027 142.375Z" fill="#767676"/>
<path fill-rule="evenodd" clip-rule="evenodd" d="M46.0855 146.43C45.3068 147.203 44.7999 148.217 44.5647 149.471C43.8368 148.507 42.9922 148.338 42.0301 148.964C43.1078 150.168 44.4603 150.675 46.0855 150.484C46.4231 152.512 46.7617 154.539 47.0993 156.566C43.7455 157.099 41.5495 155.748 40.5093 152.512C38.9237 149.509 38.7543 146.468 40.0024 143.389C47.7522 142.436 55.5244 141.254 63.3209 139.841C64.1248 140.941 64.8011 142.124 65.3486 143.389C64.0245 144.82 63.1789 146.51 62.8139 148.457C62.308 152.837 62.1387 157.229 62.307 161.635C58.9674 161.879 55.9259 161.034 53.1824 159.1C49.86 155.321 47.4947 151.098 46.0855 146.43Z" fill="#D9B601"/>
<path fill-rule="evenodd" clip-rule="evenodd" d="M46.0855 146.43C46.0855 147.781 46.0855 149.133 46.0855 150.484C44.4603 150.675 43.1078 150.168 42.0301 148.964C42.9922 148.338 43.8368 148.507 44.5647 149.471C44.7999 148.217 45.3068 147.203 46.0855 146.43Z" fill="#615506"/>
<path fill-rule="evenodd" clip-rule="evenodd" d="M31.8916 221.441C29.0001 219.843 25.9586 218.323 22.767 216.879C25.5541 215.741 28.0887 214.22 30.3708 212.318C31.0988 213.282 31.9433 213.45 32.9055 212.825C29.5648 205.183 27.7054 197.242 27.3293 189.004C32.3478 181.62 37.7547 174.524 43.5509 167.717C44.8577 164.827 45.3646 161.786 45.0716 158.594C46.1696 158.554 47.1835 158.216 48.1132 157.58C50.3335 159.632 52.6988 161.49 55.2101 163.155C58.2516 163.493 61.2932 163.831 64.3347 164.169C65.1022 165.702 66.116 167.054 67.3763 168.224C76.8385 168.9 86.3017 168.9 95.764 168.224C98.185 167.916 100.382 167.071 102.354 165.689C103.03 168.054 103.03 170.42 102.354 172.785C95.5409 181.286 89.1202 190.071 83.0909 199.14C82.7563 202.552 83.0939 205.931 84.1047 209.277C87.3957 214.916 88.2402 220.828 86.6393 227.016C76.8912 228.563 67.0914 228.9 57.2378 228.03C48.5907 226.479 40.1423 224.282 31.8916 221.441Z" fill="#FBFBFB"/>
<path fill-rule="evenodd" clip-rule="evenodd" d="M117.055 164.675C117.437 171.524 116.93 178.283 115.534 184.948C112.071 192.217 107.847 198.975 102.861 205.222C103.03 205.559 103.199 205.898 103.368 206.235C109.17 199.695 110.523 201.046 107.423 210.29C106.266 212.428 104.746 214.286 102.861 215.865C104.279 216.468 105.631 216.299 106.916 215.358C110.317 218.925 113.527 222.642 116.548 226.509C119.618 231.128 119.449 235.351 116.041 239.179C107.195 244.288 97.7329 246.315 87.6532 245.261C79.1531 240.224 70.1968 239.379 60.7862 242.727C53.6376 241.024 47.0476 238.152 41.0162 234.111C35.6946 235.108 30.6253 234.433 25.8085 232.084C24.8444 231.356 24.6761 230.511 25.3016 229.549C27.084 227.254 29.281 225.564 31.8916 224.481C42.1751 227.738 52.6511 230.272 63.3209 232.084C68.3901 232.76 73.4593 232.76 78.5286 232.084C84.8874 231.626 88.9428 228.416 90.6947 222.454C89.6505 215.471 88.1297 208.714 86.1324 202.181C91.7096 192.375 97.7927 182.915 104.382 173.798C104.719 170.081 105.058 166.365 105.396 162.648C107.342 159.77 109.032 156.729 110.465 153.525C113.213 157.005 115.409 160.722 117.055 164.675Z" fill="#96CA17"/>
<path fill-rule="evenodd" clip-rule="evenodd" d="M33.9193 236.645C35.3853 235.517 37.0754 235.348 38.9885 236.138C42.3677 238.166 45.7479 240.193 49.127 242.22C43.4779 242.106 38.4086 240.248 33.9193 236.645Z" fill="#CEAE04"/>
<path fill-rule="evenodd" clip-rule="evenodd" d="M10.6008 233.604C17.201 233.168 23.6227 234.012 29.8639 236.138C33.9893 239.243 38.3823 241.946 43.0439 244.247C46.4464 244.465 49.8256 244.465 53.1824 244.247C54.9272 244.997 56.6163 245.842 58.2516 246.782C57.4953 248.034 57.1577 249.387 57.2378 250.836C44.37 252.297 31.5276 252.128 18.7116 250.329C10.1801 247.629 7.47616 242.054 10.6008 233.604Z" fill="#BADAC2"/>
<path fill-rule="evenodd" clip-rule="evenodd" d="M47.0993 194.072C47.1348 198.68 47.3041 203.411 47.6063 208.263C44.4613 203.692 44.292 198.963 47.0993 194.072Z" fill="#393939"/>
<path fill-rule="evenodd" clip-rule="evenodd" d="M120.096 167.717C122.543 169.289 125.246 169.964 128.207 169.744C127.982 176.64 125.447 177.991 120.603 173.799C120.101 171.799 119.932 169.771 120.096 167.717Z" fill="#F0F0F0"/>
<path fill-rule="evenodd" clip-rule="evenodd" d="M127.193 163.662C128.11 164.38 128.447 165.394 128.207 166.703C124.442 166.611 121.061 165.598 118.069 163.662C120.859 163.396 123.9 163.396 127.193 163.662Z" fill="#E2E2E2"/>
<path fill-rule="evenodd" clip-rule="evenodd" d="M69.4039 242.727C72.4637 242.56 75.5053 242.729 78.5286 243.234C85.1774 247.741 92.2743 251.458 99.8193 254.385C106.336 255.145 112.419 253.794 118.069 250.33C119.42 249.316 119.42 248.303 118.069 247.289C123.985 247.596 124.662 249.961 120.096 254.385C102.381 262.805 84.1321 264.157 65.3486 258.439C60.6413 256.339 59.1205 252.791 60.7862 247.796C63.3442 245.437 66.2174 243.748 69.4039 242.727Z" fill="#B9D8C1"/>
<path fill-rule="evenodd" clip-rule="evenodd" d="M114.013 242.728C115.527 243.551 116.203 244.902 116.041 246.782C116.398 249.239 115.384 250.76 112.999 251.344C106.587 253.711 100.504 253.034 94.7501 249.316C101.583 247.998 108.005 245.801 114.013 242.728Z" fill="#D0AF02"/>
</g>
<defs>
<clipPath id="clip0_564_13">
<rect width="140" height="265" fill="white"/>
</clipPath>
</defs>
</svg>
