<svg width="135" height="130" viewBox="0 0 135 130" fill="none" xmlns="http://www.w3.org/2000/svg">
<g clip-path="url(#clip0_639_9907)">
<rect width="135" height="130" fill="white"/>
<rect x="-133.5" y="-258.5" width="402" height="387" rx="18.5" fill="#FDFFEF" stroke="black" stroke-width="3"/>
<g clip-path="url(#clip1_639_9907)">
<path opacity="0.999" fill-rule="evenodd" clip-rule="evenodd" d="M133.922 -72.9479C132.286 -73.2489 131.019 -72.826 130.12 -71.6779C125.853 -65.4641 122.051 -58.9023 118.715 -51.9938C120.386 -51.7461 122.077 -51.9582 123.784 -52.6288C125.42 -52.9297 126.687 -52.5068 127.586 -51.3588C120.87 -50.9156 118.124 -47.5287 119.348 -41.1992C122.25 -37.2878 124.997 -33.2659 127.586 -29.1348C129.224 -28.5125 130.915 -28.3004 132.655 -28.4998C134.768 -27.6527 136.879 -26.807 138.991 -25.9599C134.875 -26.2926 131.073 -26.2926 127.586 -25.9599C126.74 -25.9599 126.318 -25.537 126.318 -24.69C124.262 -29.6427 121.517 -34.2996 118.081 -38.6593C116.29 -34.6451 114.178 -30.8352 111.744 -27.2298C111.322 -22.573 110.899 -17.9173 110.477 -13.2605C102.241 -1.83856 94.637 10.0138 87.6655 22.298C90.1621 30.4828 92.0631 38.9483 93.3684 47.6969C91.1785 55.1667 86.1092 59.1887 78.1607 59.7614C71.8241 60.6085 65.4876 60.6085 59.1511 59.7614C45.8139 57.492 32.7188 54.3171 19.8645 50.2368C19.0838 48.5884 19.0838 47.3185 19.8645 46.427C30.1778 49.9866 40.7383 52.7386 51.5472 54.6816C63.8642 55.7725 76.114 55.3496 88.2992 53.4117C90.3002 45.6599 89.2446 38.2523 85.1309 31.1876C83.8674 26.9955 83.4454 22.7628 83.8636 18.4882C91.4003 7.12598 99.4261 -3.88063 107.942 -14.5304C108.788 -17.4932 108.788 -20.4572 107.942 -23.42C105.478 -21.6891 102.731 -20.6299 99.7049 -20.2451C87.8771 -19.3981 76.0481 -19.3981 64.2203 -20.2451C62.645 -21.7107 61.3777 -23.4048 60.4184 -25.3249C56.6164 -25.7478 52.8145 -26.172 49.0126 -26.5949C45.8735 -28.6814 42.9168 -31.0092 40.1414 -33.5796C38.9793 -32.7833 37.712 -32.3592 36.3395 -32.3096C35.4942 -31.8867 34.6502 -31.4626 33.8049 -31.0397C11.2531 -25.8736 0.0589952 -35.1861 0.221211 -58.9785C7.37517 -68.0535 14.7674 -76.9431 22.3991 -85.6473C22.5841 -88.5758 23.0061 -91.5386 23.6664 -94.5369C25.1251 -96.1003 26.6028 -96.1003 28.102 -94.5369C29.2046 -95.3091 29.8382 -96.3669 30.003 -97.7118C24.9654 -101.707 19.4742 -104.882 13.528 -107.236C12.2201 -112.163 11.3761 -116.819 10.9933 -121.206C12.0566 -125.237 14.1679 -128.624 17.3299 -131.365C14.8916 -134.982 12.779 -138.792 10.9933 -142.795C1.79774 -145.801 -2.00418 -151.939 -0.412444 -161.209C-2.7595 -165.843 -3.39315 -170.711 -2.31341 -175.813C2.4466 -179.53 6.03689 -184.186 8.45872 -189.783C10.5054 -190.613 12.618 -191.248 14.7953 -191.688C22.7058 -200.306 31.1549 -208.349 40.1414 -215.817C61.3384 -217.031 82.249 -220.206 102.873 -225.341C111.294 -223.276 118.053 -218.619 123.15 -211.372C131.176 -200.789 139.203 -190.206 147.229 -179.623C143.668 -163.431 141.767 -146.922 141.526 -130.095C135.018 -130.289 130.161 -133.252 126.952 -138.985C124.367 -137.029 121.62 -135.335 118.715 -133.905C117.724 -130.634 115.823 -128.094 113.012 -126.286C112.59 -123.746 112.166 -121.206 111.744 -118.666C108.933 -116.2 106.821 -113.237 105.408 -109.776C99.7392 -106.657 94.0363 -103.482 88.2992 -100.252C94.258 -98.0826 99.1156 -94.4849 102.873 -89.4572C109.286 -79.9923 114.355 -69.8327 118.081 -58.9785C120.785 -64.6285 123.954 -69.9203 127.586 -74.8528C129.982 -75.1106 132.094 -74.4756 133.922 -72.9479Z" fill="#161712"/>
<path opacity="0.996" fill-rule="evenodd" clip-rule="evenodd" d="M130.12 -71.6777C131.019 -72.8257 132.286 -73.2486 133.922 -72.9477C143.338 -67.7295 147.986 -59.6869 147.863 -48.8187C145.782 -35.4932 143.881 -22.3708 142.16 -9.45039C139.218 -5.11099 135.838 -4.6881 132.021 -8.18045C130.907 2.23692 126.472 10.9145 118.715 17.8534C122.188 23.9212 121.766 29.8481 117.447 35.6327C125.275 42.2275 130.345 50.4821 132.655 60.3966C131.941 64.6662 130.251 68.476 127.586 71.8261C129.63 73.8428 132.165 75.1127 135.19 75.6359C137.672 79.0508 137.883 82.4378 135.823 85.7955C133.45 88.6008 130.703 90.9286 127.586 92.7802C108.42 101.782 88.5653 103.899 68.0222 99.1299C59.9634 96.6777 52.57 93.0799 45.8443 88.3354C29.7343 90.7483 13.893 89.6904 -1.67972 85.1605C-10.8398 78.9924 -13.7977 70.7378 -10.5509 60.3966C-5.50193 56.7099 -0.0106773 55.8642 5.92413 57.8567C7.98477 52.6182 11.7867 49.4433 17.3299 48.3321C12.5205 46.7307 8.29653 44.1908 4.65682 40.7124C8.64377 37.7763 12.4457 34.6015 16.0626 31.1879C13.3746 26.6986 11.0504 22.0417 9.0924 17.2185C7.61852 8.95111 9.73112 1.7556 15.4289 -4.37061C20.9329 -10.9426 26.6358 -17.2923 32.5376 -23.4198C33.6123 -25.8441 34.0356 -28.384 33.8049 -31.0395C34.6502 -31.4624 35.4942 -31.8865 36.3395 -32.3094C36.7058 -28.3104 36.0721 -24.5005 34.4386 -20.8799C27.1934 -12.3509 20.4348 -3.46133 14.1616 5.78895C14.6318 16.1098 16.9561 26.0585 21.1318 35.6327C19.9292 36.4162 18.8735 36.2054 17.9636 34.9977C15.1108 37.3814 11.9426 39.2863 8.45875 40.7124C12.4482 42.5208 16.2502 44.4258 19.8645 46.4272C19.0839 47.3187 19.0839 48.5886 19.8645 50.237C16.6012 51.5933 13.8549 53.7103 11.627 56.5868C10.8451 57.7919 11.0555 58.8498 12.2607 59.7616C18.2817 62.7054 24.6182 63.5511 31.2703 62.3015C38.8095 67.3648 47.047 70.9625 55.9828 73.0961C67.746 68.9014 78.9414 69.9606 89.5665 76.2709C102.166 77.5917 113.994 75.0518 125.051 68.6512C129.312 63.8547 129.522 58.5641 125.685 52.7769C121.908 47.9333 117.896 43.2765 113.645 38.8075C112.038 39.986 110.349 40.1981 108.576 39.4425C110.932 37.4639 112.833 35.1361 114.279 32.4578C118.153 20.8772 116.463 19.1843 109.21 27.378C108.998 26.9551 108.788 26.531 108.576 26.1081C114.809 18.2827 120.088 9.81595 124.417 0.709167C126.163 -7.64199 126.796 -16.1087 126.318 -24.6897C126.318 -25.5368 126.74 -25.9597 127.586 -25.9597C131.327 -23.5341 135.552 -22.2641 140.259 -22.1498C140.559 -23.7893 140.137 -25.0593 138.992 -25.9597C136.879 -26.8067 134.768 -27.6525 132.655 -28.4996C135.19 -28.4996 137.724 -28.4996 140.259 -28.4996C142.435 -38.9842 143.068 -49.568 142.16 -60.2482C139.95 -66.0633 135.937 -69.8731 130.12 -71.6777Z" fill="#191A17"/>
<path fill-rule="evenodd" clip-rule="evenodd" d="M19.8645 46.4275C16.2502 44.426 12.4482 42.5211 8.45874 40.7127C11.9426 39.2865 15.1108 37.3816 17.9636 34.9979C18.8735 36.2057 19.9292 36.4165 21.1318 35.6329C16.956 26.0588 14.6318 16.11 14.1616 5.7892C20.4348 -3.46108 27.1934 -12.3507 34.4386 -20.8796C36.0721 -24.5003 36.7058 -28.3101 36.3395 -32.3092C37.712 -32.3587 38.9793 -32.7828 40.1415 -33.5791C42.9169 -31.0087 45.8735 -28.6809 49.0126 -26.5944C52.8145 -26.1715 56.6165 -25.7473 60.4184 -25.3245C61.3777 -23.4043 62.6451 -21.7102 64.2203 -20.2447C76.0481 -19.3976 87.8772 -19.3976 99.705 -20.2447C102.731 -20.6295 105.478 -21.6886 107.942 -23.4195C108.788 -20.4568 108.788 -17.4927 107.942 -14.5299C99.4262 -3.88016 91.4003 7.12645 83.8636 18.4887C83.4454 22.7633 83.8674 26.996 85.1309 31.1881C89.2446 38.2528 90.3003 45.6604 88.2992 53.4121C76.114 55.3501 63.8642 55.773 51.5472 54.6821C40.7384 52.7391 30.1779 49.9871 19.8645 46.4275Z" fill="#FBFBFB"/>
<path fill-rule="evenodd" clip-rule="evenodd" d="M126.318 -24.6898C126.796 -16.1088 126.163 -7.64203 124.417 0.709126C120.088 9.81591 114.809 18.2826 108.576 26.108C108.788 26.5309 108.998 26.9551 109.21 27.378C116.463 19.1843 118.153 20.8771 114.279 32.4578C112.833 35.1361 110.932 37.4639 108.576 39.4425C110.349 40.1981 112.038 39.986 113.645 38.8075C117.896 43.2764 121.908 47.9333 125.685 52.7769C129.522 58.564 129.312 63.8546 125.051 68.6512C113.994 75.0517 102.166 77.5916 89.5665 76.2709C78.9414 69.9605 67.746 68.9014 55.9828 73.096C47.047 70.9625 38.8095 67.3648 31.2703 62.3015C24.6182 63.5511 18.2816 62.7053 12.2607 59.7616C11.0554 58.8498 10.8451 57.7919 11.627 56.5867C13.8549 53.7103 16.6012 51.5933 19.8645 50.237C32.7188 54.3173 45.8139 57.4922 59.1511 59.7616C65.4876 60.6086 71.8242 60.6086 78.1607 59.7616C86.1093 59.1888 91.1785 55.1669 93.3684 47.6971C92.0631 38.9485 90.1621 30.483 87.6655 22.2982C94.637 10.014 102.241 -1.83838 110.477 -13.2603C110.899 -17.9172 111.322 -22.5728 111.744 -27.2297C114.178 -30.835 116.29 -34.6449 118.081 -38.6592C121.517 -34.2995 124.262 -29.6426 126.318 -24.6898Z" fill="#96CA17"/>
<path fill-rule="evenodd" clip-rule="evenodd" d="M22.3991 65.4765C24.2316 64.063 26.3442 63.8509 28.7357 64.8415C32.9596 67.3814 37.1848 69.9213 41.4087 72.4612C34.3473 72.3177 28.0108 69.9898 22.3991 65.4765Z" fill="#CEAE04"/>
<path fill-rule="evenodd" clip-rule="evenodd" d="M-6.74895 61.6663C1.50123 61.1202 9.52836 62.1781 17.3299 64.8412C22.4866 68.731 27.9778 72.1179 33.8049 75.0007C38.058 75.2738 42.282 75.2738 46.478 75.0007C48.659 75.9392 50.7704 76.9983 52.8146 78.1756C51.8691 79.7452 51.4471 81.4393 51.5472 83.2554C35.4626 85.0853 19.4096 84.8733 3.38952 82.6204C-7.27488 79.2373 -10.6548 72.2526 -6.74895 61.6663Z" fill="#BADAC2"/>
<path fill-rule="evenodd" clip-rule="evenodd" d="M38.8742 12.1392C38.9185 17.9123 39.1302 23.8392 39.5078 29.9184C35.5766 24.1922 35.365 18.2666 38.8742 12.1392Z" fill="#393939"/>
<path fill-rule="evenodd" clip-rule="evenodd" d="M66.7549 73.0962C70.5796 72.8866 74.3816 73.0987 78.1607 73.7312C86.4717 79.3773 95.3429 84.0342 104.774 87.7006C112.92 88.653 120.524 86.9602 127.586 82.6208C129.275 81.3508 129.275 80.0809 127.586 78.8109C134.982 79.1957 135.827 82.1585 130.12 87.7006C107.977 98.25 85.1651 99.9441 61.6857 92.7803C55.8016 90.149 53.9006 85.7042 55.9828 79.4459C59.1802 76.4908 62.7718 74.375 66.7549 73.0962Z" fill="#B9D8C1"/>
<path fill-rule="evenodd" clip-rule="evenodd" d="M122.516 73.0962C124.409 74.1274 125.254 75.8202 125.051 78.176C125.497 81.2543 124.23 83.1592 121.249 83.8907C113.233 86.856 105.63 86.009 98.4376 81.3508C106.979 79.6986 115.006 76.9467 122.516 73.0962Z" fill="#D0AF02"/>
</g>
</g>
<defs>
<clipPath id="clip0_639_9907">
<rect width="135" height="130" fill="white"/>
</clipPath>
<clipPath id="clip1_639_9907">
<rect width="175" height="332" fill="white" transform="translate(-20 -231)"/>
</clipPath>
</defs>
</svg>
