<svg width="135" height="130" viewBox="0 0 135 130" fill="none" xmlns="http://www.w3.org/2000/svg">
<g clip-path="url(#clip0_639_9909)">
<rect width="135" height="130" fill="white"/>
<rect x="-268.5" y="-128.5" width="402" height="387" rx="18.5" fill="#FDFFEF" stroke="black" stroke-width="3"/>
<g clip-path="url(#clip1_639_9909)">
<path opacity="0.999" fill-rule="evenodd" clip-rule="evenodd" d="M-1.07774 57.0521C-2.71384 56.7511 -3.98114 57.174 -4.87967 58.3221C-9.14669 64.5359 -12.9486 71.0977 -16.2854 78.0062C-14.6139 78.2539 -12.9233 78.0418 -11.2162 77.3712C-9.58011 77.0703 -8.3128 77.4932 -7.41428 78.6412C-14.1298 79.0844 -16.876 82.4713 -15.6518 88.8008C-12.7497 92.7122 -10.0034 96.7341 -7.41428 100.865C-5.77565 101.488 -4.08506 101.7 -2.34505 101.5C-0.232446 102.347 1.87889 103.193 3.99149 104.04C-0.124725 103.707 -3.92665 103.707 -7.41428 104.04C-8.25958 104.04 -8.68159 104.463 -8.68159 105.31C-10.7384 100.357 -13.4834 95.7004 -16.9191 91.3406C-18.7098 95.3549 -20.8224 99.1648 -23.2556 102.77C-23.6777 107.427 -24.1009 112.083 -24.5229 116.74C-32.7592 128.161 -40.363 140.014 -47.3345 152.298C-44.8379 160.483 -42.9369 168.948 -41.6316 177.697C-43.8215 185.167 -48.8908 189.189 -56.8393 189.761C-63.1759 190.608 -69.5124 190.608 -75.8489 189.761C-89.1861 187.492 -102.281 184.317 -115.136 180.237C-115.916 178.588 -115.916 177.318 -115.136 176.427C-104.822 179.987 -94.2617 182.739 -83.4528 184.682C-71.1358 185.773 -58.886 185.35 -46.7008 183.412C-44.6998 175.66 -45.7554 168.252 -49.8691 161.188C-51.1326 156.996 -51.5546 152.763 -51.1364 148.488C-43.5997 137.126 -35.5739 126.119 -27.0576 115.47C-26.2123 112.507 -26.2123 109.543 -27.0576 106.58C-29.5225 108.311 -32.2687 109.37 -35.2951 109.755C-47.1229 110.602 -58.9519 110.602 -70.7797 109.755C-72.355 108.289 -73.6223 106.595 -74.5816 104.675C-78.3836 104.252 -82.1855 103.828 -85.9874 103.405C-89.1265 101.319 -92.0832 98.9908 -94.8586 96.4204C-96.0207 97.2167 -97.288 97.6408 -98.6605 97.6904C-99.5058 98.1133 -100.35 98.5374 -101.195 98.9603C-123.747 104.126 -134.941 94.8139 -134.779 71.0215C-127.625 61.9465 -120.233 53.0569 -112.601 44.3527C-112.416 41.4242 -111.994 38.4614 -111.334 35.4631C-109.875 33.8998 -108.397 33.8998 -106.898 35.4631C-105.795 34.6909 -105.162 33.6331 -104.997 32.2882C-110.035 28.2929 -115.526 25.1181 -121.472 22.7636C-122.78 17.8375 -123.624 13.1815 -124.007 8.7942C-122.943 4.76276 -120.832 1.37633 -117.67 -1.36536C-120.108 -4.98204 -122.221 -8.79187 -124.007 -12.7949C-133.202 -15.8011 -137.004 -21.9392 -135.412 -31.2091C-137.759 -35.8431 -138.393 -40.7112 -137.313 -45.8134C-132.553 -49.5297 -128.963 -54.1861 -126.541 -59.7828C-124.495 -60.6134 -122.382 -61.2484 -120.205 -61.6878C-112.294 -70.306 -103.845 -78.3491 -94.8586 -85.8167C-73.6616 -87.0312 -52.751 -90.206 -32.1268 -95.3413C-23.7055 -93.2757 -16.947 -88.6194 -11.8499 -81.3719C-3.824 -70.7891 4.20313 -60.2061 12.229 -49.6233C8.66786 -33.4312 6.7669 -16.9219 6.52611 -0.0954138C0.0184807 -0.288953 -4.83911 -3.25212 -8.04794 -8.98503C-10.6332 -7.02855 -13.3795 -5.33533 -16.2854 -3.90525C-17.2765 -0.634125 -19.1774 1.90577 -21.9883 3.71442C-22.4103 6.25431 -22.8336 8.7942 -23.2556 11.3341C-26.0665 13.7997 -28.1791 16.7631 -29.5922 20.2237C-35.2609 23.3427 -40.9637 26.5176 -46.7008 29.7483C-40.742 31.9174 -35.8844 35.5151 -32.1268 40.5428C-25.7142 50.0077 -20.645 60.1673 -16.9191 71.0215C-14.2147 65.3715 -11.0464 60.0797 -7.41428 55.1472C-5.0178 54.8894 -2.90647 55.5244 -1.07774 57.0521Z" fill="#161712"/>
<path opacity="0.996" fill-rule="evenodd" clip-rule="evenodd" d="M-4.87963 58.3223C-3.98111 57.1743 -2.7138 56.7514 -1.07771 57.0523C8.3384 62.2705 12.9856 70.3131 12.8627 81.1813C10.7818 94.5068 8.8808 107.629 7.1598 120.55C4.21838 124.889 0.838464 125.312 -2.97867 121.82C-4.09263 132.237 -8.52821 140.914 -16.2854 147.853C-12.8117 153.921 -13.2337 159.848 -17.5527 165.633C-9.72455 172.227 -4.65532 180.482 -2.34502 190.397C-3.05851 194.666 -4.7491 198.476 -7.41425 201.826C-5.37008 203.843 -2.83546 205.113 0.189602 205.636C2.67226 209.051 2.88263 212.438 0.823256 215.796C-1.55041 218.601 -4.29667 220.929 -7.41425 222.78C-26.5798 231.782 -46.4347 233.899 -66.9777 229.13C-75.0366 226.678 -82.43 223.08 -89.1556 218.335C-105.266 220.748 -121.107 219.69 -136.68 215.161C-145.84 208.992 -148.798 200.738 -145.551 190.397C-140.502 186.71 -135.011 185.864 -129.076 187.857C-127.015 182.618 -123.213 179.443 -117.67 178.332C-122.48 176.731 -126.703 174.191 -130.343 170.712C-126.356 167.776 -122.554 164.601 -118.937 161.188C-121.625 156.699 -123.95 152.042 -125.908 147.218C-127.381 138.951 -125.269 131.756 -119.571 125.629C-114.067 119.057 -108.364 112.708 -102.462 106.58C-101.388 104.156 -100.964 101.616 -101.195 98.9605C-100.35 98.5376 -99.5058 98.1135 -98.6605 97.6906C-98.2942 101.69 -98.9279 105.499 -100.561 109.12C-107.807 117.649 -114.565 126.539 -120.838 135.789C-120.368 146.11 -118.044 156.059 -113.868 165.633C-115.071 166.416 -116.127 166.205 -117.036 164.998C-119.889 167.381 -123.057 169.286 -126.541 170.712C-122.552 172.521 -118.75 174.426 -115.135 176.427C-115.916 177.319 -115.916 178.589 -115.135 180.237C-118.399 181.593 -121.145 183.71 -123.373 186.587C-124.155 187.792 -123.945 188.85 -122.739 189.762C-116.718 192.705 -110.382 193.551 -103.73 192.302C-96.1905 197.365 -87.953 200.963 -79.0172 203.096C-67.254 198.901 -56.0586 199.961 -45.4335 206.271C-32.8339 207.592 -21.0061 205.052 -9.94887 198.651C-5.68818 193.855 -5.4778 188.564 -9.31521 182.777C-13.0918 177.933 -17.1041 173.276 -21.3546 168.808C-22.9616 169.986 -24.6509 170.198 -26.4239 169.442C-24.068 167.464 -22.167 165.136 -20.721 162.458C-16.8468 150.877 -18.5374 149.184 -25.7902 157.378C-26.0019 156.955 -26.2122 156.531 -26.4239 156.108C-20.1913 148.283 -14.9116 139.816 -10.5825 130.709C-8.83744 122.358 -8.20378 113.891 -8.68156 105.31C-8.68156 104.463 -8.25954 104.04 -7.41425 104.04C-3.67316 106.466 0.552052 107.736 5.25884 107.85C5.55919 106.211 5.13717 104.941 3.99153 104.04C1.87892 103.193 -0.232412 102.347 -2.34502 101.5C0.189602 101.5 2.72422 101.5 5.25884 101.5C7.4348 91.0158 8.06846 80.432 7.1598 69.7518C4.94961 63.9367 0.937314 60.1269 -4.87963 58.3223Z" fill="#191A17"/>
<path fill-rule="evenodd" clip-rule="evenodd" d="M-4.87962 58.3218C0.937324 60.1264 4.94962 63.9362 7.15981 69.7513C8.06847 80.4315 7.43481 91.0152 5.25885 101.5C2.72423 101.5 0.189611 101.5 -2.34501 101.5C-4.08502 101.699 -5.77561 101.487 -7.41424 100.865C-10.0034 96.7338 -12.7496 92.7119 -15.6517 88.8005C-16.876 82.4711 -14.1297 79.0841 -7.41424 78.6409C-5.54116 78.9736 -3.85184 78.5507 -2.34501 77.371C-5.47906 75.7238 -8.43696 75.7238 -11.2162 77.371C-12.9232 78.0415 -14.6138 78.2536 -16.2854 78.0059C-12.9486 71.0974 -9.14665 64.5356 -4.87962 58.3218Z" fill="#F8F8F8"/>
<path fill-rule="evenodd" clip-rule="evenodd" d="M-4.87961 109.12C-1.82159 111.09 1.55706 111.936 5.25886 111.66C4.97752 120.299 1.80925 121.992 -4.24595 116.74C-4.87327 114.234 -5.08491 111.694 -4.87961 109.12Z" fill="#F0F0F0"/>
<path fill-rule="evenodd" clip-rule="evenodd" d="M3.99159 104.04C5.13724 104.94 5.55925 106.21 5.2589 107.85C0.552117 107.736 -3.67309 106.466 -7.41418 104.04C-3.92655 103.707 -0.124625 103.707 3.99159 104.04Z" fill="#E2E2E2"/>
</g>
</g>
<defs>
<clipPath id="clip0_639_9909">
<rect width="135" height="130" fill="white"/>
</clipPath>
<clipPath id="clip1_639_9909">
<rect width="175" height="332" fill="white" transform="translate(-155 -101)"/>
</clipPath>
</defs>
</svg>
