<svg width="135" height="130" viewBox="0 0 135 130" fill="none" xmlns="http://www.w3.org/2000/svg">
<g clip-path="url(#clip0_639_9897)">
<rect width="135" height="130" fill="white"/>
<rect x="-133.5" y="-128.5" width="402" height="387" rx="18.5" fill="#FDFFEF" stroke="black" stroke-width="3"/>
<g clip-path="url(#clip1_639_9897)">
<path opacity="0.999" fill-rule="evenodd" clip-rule="evenodd" d="M133.922 57.0521C132.286 56.7511 131.019 57.174 130.12 58.3221C125.853 64.5359 122.051 71.0977 118.715 78.0062C120.386 78.2539 122.077 78.0418 123.784 77.3712C125.42 77.0703 126.687 77.4932 127.586 78.6412C120.87 79.0844 118.124 82.4713 119.348 88.8008C122.25 92.7122 124.997 96.7341 127.586 100.865C129.224 101.488 130.915 101.7 132.655 101.5C134.768 102.347 136.879 103.193 138.991 104.04C134.875 103.707 131.073 103.707 127.586 104.04C126.74 104.04 126.318 104.463 126.318 105.31C124.262 100.357 121.517 95.7004 118.081 91.3406C116.29 95.3549 114.178 99.1648 111.744 102.77C111.322 107.427 110.899 112.083 110.477 116.74C102.241 128.161 94.637 140.014 87.6655 152.298C90.1621 160.483 92.0631 168.948 93.3684 177.697C91.1785 185.167 86.1092 189.189 78.1607 189.761C71.8241 190.608 65.4876 190.608 59.1511 189.761C45.8139 187.492 32.7188 184.317 19.8645 180.237C19.0838 178.588 19.0838 177.318 19.8645 176.427C30.1778 179.987 40.7383 182.739 51.5472 184.682C63.8642 185.773 76.114 185.35 88.2992 183.412C90.3002 175.66 89.2446 168.252 85.1309 161.188C83.8674 156.996 83.4454 152.763 83.8636 148.488C91.4003 137.126 99.4261 126.119 107.942 115.47C108.788 112.507 108.788 109.543 107.942 106.58C105.478 108.311 102.731 109.37 99.7049 109.755C87.8771 110.602 76.0481 110.602 64.2203 109.755C62.645 108.289 61.3777 106.595 60.4184 104.675C56.6164 104.252 52.8145 103.828 49.0126 103.405C45.8735 101.319 42.9168 98.9908 40.1414 96.4204C38.9793 97.2167 37.712 97.6408 36.3395 97.6904C35.4942 98.1133 34.6502 98.5374 33.8049 98.9603C11.2531 104.126 0.0589952 94.8139 0.221211 71.0215C7.37517 61.9465 14.7674 53.0569 22.3991 44.3527C22.5841 41.4242 23.0061 38.4614 23.6664 35.4631C25.1251 33.8998 26.6028 33.8998 28.102 35.4631C29.2046 34.6909 29.8382 33.6331 30.003 32.2882C24.9654 28.2929 19.4742 25.1181 13.5279 22.7636C12.2201 17.8375 11.3761 13.1815 10.9933 8.7942C12.0566 4.76276 14.1679 1.37633 17.3299 -1.36536C14.8916 -4.98204 12.779 -8.79187 10.9933 -12.7949C1.79774 -15.8011 -2.00418 -21.9392 -0.412444 -31.2091C-2.7595 -35.8431 -3.39315 -40.7112 -2.31341 -45.8134C2.4466 -49.5297 6.03689 -54.1861 8.45872 -59.7828C10.5054 -60.6134 12.618 -61.2484 14.7953 -61.6878C22.7058 -70.306 31.1549 -78.3491 40.1414 -85.8167C61.3384 -87.0312 82.249 -90.206 102.873 -95.3413C111.294 -93.2757 118.053 -88.6194 123.15 -81.3719C131.176 -70.7891 139.203 -60.2061 147.229 -49.6233C143.668 -33.4312 141.767 -16.9219 141.526 -0.0954138C135.018 -0.288953 130.161 -3.25212 126.952 -8.98503C124.367 -7.02855 121.62 -5.33533 118.715 -3.90525C117.724 -0.634125 115.823 1.90577 113.012 3.71442C112.59 6.25431 112.166 8.7942 111.744 11.3341C108.933 13.7997 106.821 16.7631 105.408 20.2237C99.7391 23.3427 94.0363 26.5176 88.2992 29.7483C94.258 31.9174 99.1156 35.5151 102.873 40.5428C109.286 50.0077 114.355 60.1673 118.081 71.0215C120.785 65.3715 123.954 60.0797 127.586 55.1472C129.982 54.8894 132.094 55.5244 133.922 57.0521Z" fill="#161712"/>
<path opacity="0.996" fill-rule="evenodd" clip-rule="evenodd" d="M130.12 58.3223C131.019 57.1743 132.286 56.7514 133.922 57.0523C143.338 62.2705 147.986 70.3131 147.863 81.1813C145.782 94.5068 143.881 107.629 142.16 120.55C139.218 124.889 135.838 125.312 132.021 121.82C130.907 132.237 126.472 140.914 118.715 147.853C122.188 153.921 121.766 159.848 117.447 165.633C125.275 172.227 130.345 180.482 132.655 190.397C131.941 194.666 130.251 198.476 127.586 201.826C129.63 203.843 132.165 205.113 135.19 205.636C137.672 209.051 137.883 212.438 135.823 215.796C133.45 218.601 130.703 220.929 127.586 222.78C108.42 231.782 88.5653 233.899 68.0223 229.13C59.9634 226.678 52.57 223.08 45.8444 218.335C29.7343 220.748 13.893 219.69 -1.67972 215.161C-10.8398 208.992 -13.7977 200.738 -10.5509 190.397C-5.50193 186.71 -0.0106774 185.864 5.92413 187.857C7.98477 182.618 11.7867 179.443 17.3299 178.332C12.5205 176.731 8.29653 174.191 4.65682 170.712C8.64377 167.776 12.4457 164.601 16.0626 161.188C13.3746 156.699 11.0504 152.042 9.0924 147.218C7.61852 138.951 9.73113 131.756 15.4289 125.629C20.9329 119.057 26.6358 112.708 32.5376 106.58C33.6123 104.156 34.0356 101.616 33.8049 98.9605C34.6502 98.5376 35.4942 98.1135 36.3395 97.6906C36.7058 101.69 36.0721 105.499 34.4386 109.12C27.1934 117.649 20.4348 126.539 14.1616 135.789C14.6318 146.11 16.9561 156.059 21.1318 165.633C19.9292 166.416 18.8735 166.205 17.9636 164.998C15.1109 167.381 11.9426 169.286 8.45875 170.712C12.4482 172.521 16.2502 174.426 19.8645 176.427C19.0839 177.319 19.0839 178.589 19.8645 180.237C16.6012 181.593 13.8549 183.71 11.627 186.587C10.8451 187.792 11.0555 188.85 12.2607 189.762C18.2817 192.705 24.6182 193.551 31.2703 192.302C38.8095 197.365 47.047 200.963 55.9828 203.096C67.746 198.901 78.9414 199.961 89.5665 206.271C102.166 207.592 113.994 205.052 125.051 198.651C129.312 193.855 129.522 188.564 125.685 182.777C121.908 177.933 117.896 173.276 113.645 168.808C112.038 169.986 110.349 170.198 108.576 169.442C110.932 167.464 112.833 165.136 114.279 162.458C118.153 150.877 116.463 149.184 109.21 157.378C108.998 156.955 108.788 156.531 108.576 156.108C114.809 148.283 120.088 139.816 124.417 130.709C126.163 122.358 126.796 113.891 126.318 105.31C126.318 104.463 126.74 104.04 127.586 104.04C131.327 106.466 135.552 107.736 140.259 107.85C140.559 106.211 140.137 104.941 138.992 104.04C136.879 103.193 134.768 102.347 132.655 101.5C135.19 101.5 137.724 101.5 140.259 101.5C142.435 91.0158 143.068 80.432 142.16 69.7518C139.95 63.9367 135.937 60.1269 130.12 58.3223Z" fill="#191A17"/>
<path fill-rule="evenodd" clip-rule="evenodd" d="M60.4184 51.9722C63.7083 52.9437 67.0882 53.3678 70.5568 53.2421C70.3503 56.2354 70.5606 59.1982 71.1905 62.1317C75.0482 65.8336 77.7944 70.2784 79.428 75.4662C74.943 75.8243 70.5074 76.4593 66.1213 77.3711C63.8819 76.3043 62.1913 74.6115 61.052 72.2913C59.1447 65.5276 58.9331 58.7549 60.4184 51.9722Z" fill="#F3F3F3"/>
<path fill-rule="evenodd" clip-rule="evenodd" d="M33.8049 50.7026C36.7615 50.7026 39.7194 50.7026 42.6761 50.7026C42.4049 52.7904 42.8281 54.6953 43.9434 56.4174C40.6547 56.7044 37.4864 57.3394 34.4386 58.3223C33.8112 55.8167 33.5996 53.2768 33.8049 50.7026Z" fill="#E6E6E6"/>
<path fill-rule="evenodd" clip-rule="evenodd" d="M46.478 46.8926C50.522 47.4945 54.3239 48.7645 57.8838 50.7024C59.1397 54.1871 58.7164 57.5741 56.6165 60.862C54.7903 59.1285 53.1009 57.2236 51.5472 55.1472C49.5043 54.2329 47.6034 54.4437 45.8443 55.7822C44.9534 52.6975 45.1638 49.7347 46.478 46.8926Z" fill="#8FC115"/>
<path fill-rule="evenodd" clip-rule="evenodd" d="M74.3588 48.1625C72.3286 50.1614 69.794 51.0084 66.7549 50.7024C68.7852 48.7035 71.3198 47.8564 74.3588 48.1625Z" fill="#839381"/>
<path fill-rule="evenodd" clip-rule="evenodd" d="M33.8049 44.3531C35.0722 44.3531 36.3395 44.3531 37.6068 44.3531C38.864 44.1346 39.708 44.5588 40.1414 45.623C40.1414 46.893 40.1414 48.1629 40.1414 49.4328C36.1735 50.1847 33.2168 48.9147 31.2703 45.623C31.7037 44.5588 32.5477 44.1346 33.8049 44.3531Z" fill="#A3BDA6"/>
<path fill-rule="evenodd" clip-rule="evenodd" d="M40.1414 45.6229C39.708 44.5587 38.864 44.1345 37.6068 44.3529C37.6068 43.5059 37.6068 42.6601 37.6068 41.813C38.864 42.0315 39.708 41.6073 40.1414 40.5431C42.0411 39.0471 43.3084 36.9301 43.9434 34.1934C44.3654 34.6163 44.7886 35.0404 45.2107 35.4633C43.8458 39.2401 43.8458 43.05 45.2107 46.8928C43.3617 46.9779 41.6723 46.555 40.1414 45.6229Z" fill="#8EBF16"/>
<path fill-rule="evenodd" clip-rule="evenodd" d="M62.953 35.4631C61.7883 42.3259 64.745 44.8658 71.8241 43.0828C73.9646 44.9001 76.4992 45.9579 79.428 46.2576C78.0808 47.7663 76.3903 48.4013 74.3588 48.1626C71.3198 47.8565 68.7851 48.7036 66.7549 50.7025C64.1531 50.8269 62.0405 49.9799 60.4184 48.1626C62.3903 44.114 61.123 41.1512 56.6164 39.2729C55.0881 37.5204 55.5101 36.0384 57.8837 34.8281C59.8684 33.8566 61.5577 34.0687 62.953 35.4631Z" fill="#91C516"/>
<path fill-rule="evenodd" clip-rule="evenodd" d="M30.003 39.2729C32.2803 40.835 34.815 41.6808 37.6068 41.8128C37.6068 42.6599 37.6068 43.5057 37.6068 44.3527C36.3395 44.3527 35.0722 44.3527 33.8049 44.3527C32.1714 42.9088 30.904 41.216 30.003 39.2729Z" fill="#3E4D1B"/>
<path fill-rule="evenodd" clip-rule="evenodd" d="M30.003 39.2728C30.9041 41.2158 32.1714 42.9087 33.8049 44.3526C32.5478 44.1342 31.7037 44.5583 31.2703 45.6225C27.0147 44.3183 24.9021 41.3555 24.9338 36.7329C27.0869 36.7672 28.7775 37.6143 30.003 39.2728Z" fill="#8CBD16"/>
<path fill-rule="evenodd" clip-rule="evenodd" d="M56.6165 39.2729C61.123 41.1512 62.3903 44.114 60.4184 48.1626C57.0575 47.3346 54.9449 45.2176 54.0818 41.8128C54.3949 40.2724 55.2402 39.4253 56.6165 39.2729Z" fill="#95AD94"/>
<path fill-rule="evenodd" clip-rule="evenodd" d="M47.7453 36.7329C49.5271 37.3336 50.3724 38.6035 50.2799 40.5427C49.4625 46.9649 47.7732 46.9649 45.2107 40.5427C45.7708 38.9693 46.6161 37.6993 47.7453 36.7329Z" fill="#A8C1AD"/>
<path fill-rule="evenodd" clip-rule="evenodd" d="M40.1415 40.5436C39.708 41.6079 38.864 42.032 37.6068 41.8136C34.815 41.6815 32.2803 40.8357 30.003 39.2737C33.2359 38.0241 36.6158 36.7541 40.1415 35.4639C41.5684 37.125 41.5684 38.8191 40.1415 40.5436Z" fill="#A8C4AC"/>
<path fill-rule="evenodd" clip-rule="evenodd" d="M62.953 35.4639C62.953 36.3109 63.375 36.7338 64.2203 36.7338C64.4193 41.5253 66.5319 42.7953 70.5569 40.5436C71.6189 40.978 72.0422 41.8238 71.8242 43.0835C64.745 44.8665 61.7884 42.3267 62.953 35.4639Z" fill="#6E7F58"/>
<path fill-rule="evenodd" clip-rule="evenodd" d="M70.5569 40.5425C66.5319 42.7941 64.4193 41.5242 64.2203 36.7327C66.9894 35.9872 69.102 37.2572 70.5569 40.5425Z" fill="#BEDDC5"/>
<path fill-rule="evenodd" clip-rule="evenodd" d="M78.1607 31.6536C86.6061 30.5869 93.1543 33.5509 97.804 40.5433C107.751 54.3831 113.664 69.6225 115.546 86.2613C113.298 93.9483 109.285 100.51 103.507 105.945C90.441 108.026 77.3446 108.238 64.2203 106.58C61.0622 98.2331 60.8518 89.7676 63.5867 81.1815C64.9389 80.304 66.4179 79.669 68.0223 79.2766C75.6261 78.8537 83.23 78.4295 90.8338 78.0066C87.8075 77.6218 85.0612 76.5627 82.5963 74.8318C81.2112 67.2324 79.9438 59.6128 78.7944 51.9728C77.4168 56.0252 76.3612 60.2592 75.6261 64.6722C74.8835 64.4068 74.2498 63.9826 73.7252 63.4023C72.6847 59.5239 72.8951 55.714 74.3588 51.9728C77.3775 50.892 79.9122 49.1992 81.9627 46.893C80.7955 44.028 78.6829 42.758 75.6261 43.0831C75.5057 39.0231 76.351 35.2133 78.1607 31.6536Z" fill="#96CA17"/>
<path fill-rule="evenodd" clip-rule="evenodd" d="M47.7453 36.7333C49.5778 35.3198 51.6904 35.1078 54.0818 36.0983C53.0908 39.578 52.4572 43.177 52.1809 46.8929C51.93 44.5028 51.2963 42.3871 50.2799 40.5431C50.3724 38.6039 49.5271 37.334 47.7453 36.7333Z" fill="#6F9412"/>
<path fill-rule="evenodd" clip-rule="evenodd" d="M66.7549 34.1939C69.1172 32.5519 71.6518 32.5519 74.3588 34.1939C73.7251 35.4639 73.0915 36.7338 72.4578 38.0038C70.8471 36.2474 68.9461 34.9775 66.7549 34.1939Z" fill="#BCBDBC"/>
<path fill-rule="evenodd" clip-rule="evenodd" d="M32.5376 32.9231C37.7184 32.565 38.352 33.412 34.4386 35.463C33.1333 35.0363 32.4996 34.1892 32.5376 32.9231Z" fill="#D7D6D6"/>
<path fill-rule="evenodd" clip-rule="evenodd" d="M61.6857 10.0642C64.6423 10.0642 67.6002 10.0642 70.5569 10.0642C72.1929 9.76285 73.4603 10.1861 74.3588 11.3342C76.4726 13.8469 77.3167 16.8102 76.8934 20.2238C75.896 22.2608 74.2067 23.1078 71.8242 22.7637C68.168 23.1523 64.7881 22.7294 61.6857 21.4937C62.8035 16.7936 64.9161 15.524 68.0222 17.6839C66.9057 19.552 65.2164 20.6098 62.953 20.8587C66.3063 21.4899 69.6862 21.702 73.0915 21.4937C73.0915 19.3767 73.0915 17.261 73.0915 15.144C67.803 15.8348 62.9454 14.9878 58.5174 12.6041C58.1651 13.7671 57.5315 14.6138 56.6165 15.144C56.6165 14.2973 56.6165 13.4508 56.6165 12.6041C57.6138 10.5669 59.3031 9.72018 61.6857 10.0642Z" fill="#B0B0AE"/>
<path fill-rule="evenodd" clip-rule="evenodd" d="M17.3299 16.4136C17.8419 18.0086 18.6872 19.4907 19.8645 20.8584C17.7202 23.1811 16.4529 22.5461 16.0626 18.9535C16.1171 17.7902 16.5391 16.9431 17.3299 16.4136Z" fill="#D7B504"/>
<path fill-rule="evenodd" clip-rule="evenodd" d="M61.6857 21.4941C58.1411 20.901 56.4505 18.7853 56.6165 15.1444C57.5315 14.6142 58.1651 13.7675 58.5174 12.6045C62.9454 14.9882 67.803 15.8352 73.0915 15.1444C73.0915 17.2614 73.0915 19.3771 73.0915 21.4941C69.6862 21.7024 66.3063 21.4903 62.953 20.8591C65.2164 20.6102 66.9058 19.5524 68.0223 17.6843C64.9161 15.5244 62.8035 16.794 61.6857 21.4941Z" fill="#F8F8F8"/>
<path fill-rule="evenodd" clip-rule="evenodd" d="M33.8049 17.6839C32.5477 17.4655 31.7037 17.8897 31.2703 18.9539C26.31 19.4479 21.6641 18.6008 17.3299 16.414C17.3299 14.2974 17.3299 12.1809 17.3299 10.0643C22.6969 8.87559 28.1895 8.45232 33.8049 8.79431C32.4793 11.8189 32.4793 14.7822 33.8049 17.6839Z" fill="#E2E2E2"/>
<path fill-rule="evenodd" clip-rule="evenodd" d="M56.6165 12.6038C56.6165 13.4505 56.6165 14.297 56.6165 15.1437C56.4505 18.7846 58.1411 20.9004 61.6857 21.4934C64.7881 22.7291 68.168 23.152 71.8242 22.7634C68.6952 23.8009 65.3166 24.4359 61.6857 24.6683C58.4249 27.3237 55.045 29.6528 51.5473 31.653C47.3892 30.1824 43.1653 28.7004 38.8742 27.2082C40.7891 25.1572 42.4784 25.1572 43.9434 27.2082C48.2269 28.3994 52.0288 27.5523 55.3492 24.6683C52.0732 19.7955 52.4965 19.3713 56.6165 23.3983C57.8838 24.2454 59.1511 24.2454 60.4184 23.3983C56.9143 22.0052 54.803 19.4653 54.0819 15.7787C49.792 12.8429 46.4134 13.6896 43.9434 18.3186C40.4951 19.0831 37.1164 18.871 33.8049 17.6836C32.4793 14.7819 32.4793 11.8186 33.8049 8.79397C28.1895 8.45197 22.697 8.87525 17.3299 10.0639C17.2919 8.79753 17.9256 7.95085 19.2309 7.52403C22.4511 6.88016 25.6194 6.03349 28.7357 4.98414C26.5927 1.37089 27.016 -1.59228 30.003 -3.90548C31.3565 -5.09225 33.0458 -5.51552 35.0722 -5.17543C36.4891 -0.914634 36.4891 3.31848 35.0722 7.52403C41.3644 9.80002 47.701 11.9165 54.0819 13.8738C54.9474 13.4131 55.7927 12.9897 56.6165 12.6038Z" fill="#241F14"/>
<path fill-rule="evenodd" clip-rule="evenodd" d="M36.3395 11.3341C38.4927 11.1306 40.6053 11.3423 42.6761 11.969C40.0337 14.6856 37.9224 14.474 36.3395 11.3341Z" fill="#C9C8C8"/>
<path fill-rule="evenodd" clip-rule="evenodd" d="M116.18 -14.0645C116.245 -7.84642 113.922 -2.76664 109.21 1.17489C106.168 -1.6562 103.422 -4.61936 100.972 -7.71473C105.811 -9.84112 110.88 -11.9577 116.18 -14.0645Z" fill="#94C816"/>
<path fill-rule="evenodd" clip-rule="evenodd" d="M78.1607 -33.114C79.006 -30.9974 79.85 -28.8809 80.6953 -26.7643C84.8344 -18.0429 88.6363 -9.15332 92.1011 -0.0954313C91.1455 4.47739 89.4562 8.7105 87.0319 12.604C85.9762 13.0273 84.9193 13.4507 83.8636 13.874C80.6396 13.1486 77.4713 12.3019 74.3588 11.3341C73.4603 10.186 72.1929 9.76277 70.5569 10.0641C69.6583 8.9161 68.391 8.49283 66.7549 8.79419C67.8549 4.76503 67.8549 0.955195 66.7549 -2.63532C66.7549 -3.48199 66.3329 -3.90527 65.4876 -3.90527C60.6718 -8.23248 58.5592 -6.96253 59.1511 -0.0954313C59.0053 3.59859 59.8494 6.98502 61.6857 10.0641C59.3032 9.7201 57.6138 10.5668 56.6165 12.604C55.7927 12.99 54.9474 13.4134 54.0818 13.874C47.7009 11.9167 41.3644 9.80024 35.0722 7.52424C36.4891 3.31869 36.4891 -0.914419 35.0722 -5.17521C33.0458 -5.5153 31.3565 -5.09203 30.003 -3.90527C27.0159 -1.59206 26.5926 1.3711 28.7357 4.98435C25.6194 6.03371 22.4511 6.88038 19.2309 7.52424C17.9255 7.95107 17.2919 8.79774 17.3299 10.0641C15.562 12.0381 14.718 11.6147 14.7953 8.79419C16.1361 5.37003 17.4034 1.9836 18.5972 -1.36538C12.9488 -15.3933 14.2161 -28.7277 22.3991 -41.3687C31.0891 -38.4662 39.9602 -35.5029 49.0126 -32.479C58.7645 -31.6012 68.4797 -31.8128 78.1607 -33.114Z" fill="#DBB701"/>
<path fill-rule="evenodd" clip-rule="evenodd" d="M65.4876 -3.90452C63.9985 -4.18264 62.7312 -3.75937 61.6857 -2.63457C63.5334 -1.00651 65.224 -1.00651 66.7549 -2.63457C67.855 0.955941 67.855 4.76578 66.7549 8.79493C68.391 8.49357 69.6583 8.91685 70.5569 10.0649C67.6002 10.0649 64.6423 10.0649 61.6857 10.0649C59.8494 6.98577 59.0054 3.59933 59.1511 -0.0946841C58.5593 -6.96179 60.6719 -8.23173 65.4876 -3.90452Z" fill="#141008"/>
<path fill-rule="evenodd" clip-rule="evenodd" d="M100.972 -7.71524C102.164 -3.63326 104.064 0.17658 106.675 3.71427C107.52 6.25416 107.52 8.79405 106.675 11.3339C105.83 13.0272 104.986 13.0272 104.141 11.3339C103.43 14.8771 101.74 17.8399 99.0713 20.2236C97.9117 19.172 97.0677 17.9021 96.5367 16.4137C93.215 23.7121 87.5122 28.1569 79.428 29.7481C68.5963 31.7915 58.0346 33.0614 47.7453 33.558C37.8438 32.5801 29.3947 28.5582 22.3991 21.4935C25.5281 20.6452 28.4847 19.7981 31.2703 18.9536C31.7037 17.8894 32.5477 17.4652 33.8049 17.6837C37.1164 18.8711 40.495 19.0831 43.9434 18.3186C46.4133 13.6897 49.792 12.843 54.0818 15.7787C54.8029 19.4654 56.9143 22.0053 60.4184 23.3984C59.1511 24.2455 57.8837 24.2455 56.6164 23.3984C52.4964 19.3714 52.0731 19.7956 55.3491 24.6684C52.0288 27.5524 48.2269 28.3995 43.9434 27.2083C42.4783 25.1573 40.789 25.1573 38.8741 27.2083C43.1652 28.7004 47.3892 30.1825 51.5472 31.6531C55.045 29.6529 58.4249 27.3238 61.6857 24.6684C65.3165 24.436 68.6952 23.801 71.8241 22.7634C74.2067 23.1076 75.896 22.2605 76.8934 20.2236C90.3522 17.4589 96.0551 8.99203 94.002 -5.17535C91.2913 -12.3025 87.9114 -19.0755 83.8636 -25.4945C82.0716 -35.7286 83.3389 -45.4649 87.6655 -54.7032C88.7212 -55.7615 89.7781 -56.8198 90.8338 -57.8781C96.6887 -59.5629 102.603 -60.4096 108.576 -60.418C111.744 -58.9363 114.067 -56.6081 115.546 -53.4333C119.981 -44.4904 119.769 -35.6008 114.913 -26.7644C118.337 -22.1696 116.646 -18.1481 109.843 -14.6999C106.595 -13.3293 103.217 -12.6943 99.7049 -12.795C99.3653 -10.7644 99.7886 -9.07103 100.972 -7.71524Z" fill="#DAB701"/>
<path fill-rule="evenodd" clip-rule="evenodd" d="M97.1703 -72.4819C96.2008 -69.185 95.7775 -65.7985 95.903 -62.3224C99.6479 -63.1589 103.45 -63.5823 107.309 -63.5923C107.309 -64.8623 107.309 -66.1322 107.309 -67.4022C107.731 -67.4022 108.154 -67.4022 108.576 -67.4022C108.623 -63.3363 110.734 -61.2197 114.913 -61.0524C117.239 -57.6457 118.507 -53.8358 118.715 -49.6229C124.885 -50.5609 126.574 -53.9475 123.784 -59.7825C129.394 -53.9866 128.127 -49.965 119.982 -47.718C121.119 -44.7834 122.808 -42.4552 125.051 -40.7333C122.802 -37.3083 121.112 -33.4984 119.982 -29.3038C127.814 -27.424 130.348 -30.3873 127.586 -38.1934C132.475 -29.9256 129.94 -26.1157 119.982 -26.7639C120.172 -22.0718 118.905 -17.8387 116.18 -14.0645C110.88 -11.9577 105.811 -9.84112 100.972 -7.71473C99.7886 -9.07052 99.3653 -10.7639 99.7049 -12.7945C103.217 -12.6938 106.595 -13.3288 109.843 -14.6994C116.646 -18.1476 118.337 -22.1691 114.913 -26.7639C119.769 -35.6003 119.981 -44.4899 115.546 -53.4328C114.067 -56.6076 111.744 -58.9358 108.576 -60.4175C102.603 -60.4091 96.6887 -59.5624 90.8338 -57.8776C89.7781 -56.8193 88.7212 -55.7609 87.6655 -54.7027C83.3389 -45.4644 82.0716 -35.7281 83.8636 -25.494C87.9114 -19.075 91.2913 -12.302 94.002 -5.17483C96.0551 8.99255 90.3522 17.4594 76.8934 20.2241C77.3167 16.8105 76.4726 13.8472 74.3588 11.3345C77.4713 12.3023 80.6395 13.149 83.8636 13.8743C84.9192 13.4511 85.9762 13.0277 87.0319 12.6044C89.4562 8.71087 91.1455 4.47777 92.1011 -0.0950536C88.6363 -9.15294 84.8343 -18.0426 80.6953 -26.7639C80.9513 -29.8748 80.5293 -32.8381 79.428 -35.6535C80.5736 -36.5539 80.9957 -37.8239 80.6953 -39.4634C80.9133 -40.7226 80.49 -41.5693 79.428 -42.0032C79.4381 -45.87 79.8602 -49.6798 80.6953 -53.4328C82.9714 -55.0744 85.084 -56.9793 87.0319 -59.1475C88.9645 -60.4284 91.0771 -61.0633 93.3684 -61.0524C93.1618 -64.0454 93.3722 -67.0087 94.002 -69.942C94.5305 -71.5371 95.5862 -72.3836 97.1703 -72.4819Z" fill="#18170E"/>
<path fill-rule="evenodd" clip-rule="evenodd" d="M130.12 58.3218C135.937 60.1264 139.95 63.9362 142.16 69.7513C143.068 80.4315 142.435 91.0152 140.259 101.5C137.724 101.5 135.19 101.5 132.655 101.5C130.915 101.699 129.224 101.487 127.586 100.865C124.997 96.7338 122.25 92.7119 119.348 88.8005C118.124 82.4711 120.87 79.0841 127.586 78.6409C129.459 78.9736 131.148 78.5507 132.655 77.371C129.521 75.7238 126.563 75.7238 123.784 77.371C122.077 78.0415 120.386 78.2536 118.715 78.0059C122.051 71.0974 125.853 64.5356 130.12 58.3218Z" fill="#F8F8F8"/>
<path fill-rule="evenodd" clip-rule="evenodd" d="M38.8742 58.3218C42.287 61.4852 46.0889 64.2359 50.2799 66.5764C53.8385 69.3881 53.4165 71.293 49.0126 72.2912C44.008 69.1392 39.7828 65.1173 36.3395 60.2267C37.5004 59.8737 38.3444 59.2387 38.8742 58.3218Z" fill="#D2B104"/>
<path fill-rule="evenodd" clip-rule="evenodd" d="M28.7357 62.1325C31.0016 61.7706 33.1142 62.1934 35.0722 63.4024C37.5371 66.7424 40.4938 69.4931 43.9434 71.6571C41.8422 75.8441 38.4623 77.114 33.8049 75.4669C31.4249 73.5074 29.524 71.1796 28.102 68.4822C27.4228 71.1072 28.0564 73.4363 30.003 75.4669C26.9855 77.3833 25.7182 80.134 26.2011 83.7216C26.912 87.6203 27.5457 91.4301 28.102 95.1511C22.4929 91.3171 20.1699 86.0252 21.1318 79.2768C20.156 71.7892 22.6906 66.0744 28.7357 62.1325Z" fill="#D6B302"/>
<path fill-rule="evenodd" clip-rule="evenodd" d="M46.478 57.0527C48.1673 57.0527 49.8579 57.0527 51.5472 57.0527C51.3584 58.3887 51.5688 59.6587 52.1809 60.8626C54.353 62.8221 56.254 64.9391 57.8838 67.2123C57.9433 69.1172 57.0993 70.3872 55.3491 71.0221C53.234 66.6738 50.0657 63.2882 45.8443 60.8626C45.2487 59.4948 45.4603 58.2249 46.478 57.0527Z" fill="#CFAF04"/>
<path fill-rule="evenodd" clip-rule="evenodd" d="M24.9338 45.6226C27.0502 45.9413 28.9511 46.7884 30.6367 48.1624C31.2133 52.4218 31.8469 56.6546 32.5376 60.8619C27.1921 62.5611 21.7009 64.0418 16.0626 65.3067C13.3531 67.1126 11.8742 69.4404 11.627 72.2914C13.2289 69.6156 15.5519 68.3457 18.5972 68.4816C17.354 74.3602 17.1424 80.287 17.9636 86.2608C19.6896 89.7354 22.0139 92.6982 24.9338 95.1504C17.9724 98.051 12.6916 96.3569 9.09241 90.0706C6.48683 85.697 4.58587 81.0401 3.38953 76.1012C3.66707 74.2751 4.30072 72.5822 5.29049 71.0215C13.0806 63.4386 19.6276 54.9719 24.9338 45.6226Z" fill="#91C416"/>
<path fill-rule="evenodd" clip-rule="evenodd" d="M123.784 77.3721C126.563 75.7249 129.521 75.7249 132.655 77.3721C131.148 78.5518 129.459 78.9747 127.586 78.642C126.687 77.494 125.42 77.0711 123.784 77.3721Z" fill="#767676"/>
<path fill-rule="evenodd" clip-rule="evenodd" d="M37.6068 82.4519C36.6335 83.4209 35.9999 84.6908 35.7059 86.2617C34.7959 85.054 33.7403 84.8432 32.5376 85.6268C33.8847 87.1355 35.5753 87.7704 37.6068 87.5317C38.0288 90.0716 38.4521 92.6115 38.8741 95.1514C34.6819 95.8194 31.9369 94.1265 30.6366 90.0716C28.6546 86.31 28.4429 82.5002 30.003 78.6421C39.6903 77.4483 49.4055 75.9676 59.1511 74.1973C60.1561 75.5752 61.0013 77.0572 61.6857 78.6421C60.0306 80.4352 58.9737 82.5522 58.5174 84.9918C57.885 90.4792 57.6734 95.9819 57.8838 101.501C53.7093 101.807 49.9073 100.749 46.478 98.3262C42.325 93.5919 39.3684 88.3 37.6068 82.4519Z" fill="#D9B601"/>
<path fill-rule="evenodd" clip-rule="evenodd" d="M37.6068 82.4512C37.6068 84.144 37.6068 85.8381 37.6068 87.531C35.5753 87.7697 33.8847 87.1347 32.5376 85.626C33.7403 84.8425 34.7959 85.0533 35.7059 86.261C35.9999 84.6901 36.6335 83.4201 37.6068 82.4512Z" fill="#615506"/>
<path fill-rule="evenodd" clip-rule="evenodd" d="M19.8645 176.427C16.2502 174.426 12.4482 172.521 8.45874 170.713C11.9426 169.287 15.1108 167.382 17.9636 164.998C18.8735 166.206 19.9292 166.416 21.1318 165.633C16.956 156.059 14.6318 146.11 14.1616 135.789C20.4348 126.539 27.1934 117.649 34.4386 109.12C36.0721 105.5 36.7058 101.69 36.3395 97.6908C37.712 97.6413 38.9793 97.2172 40.1415 96.4209C42.9169 98.9913 45.8735 101.319 49.0126 103.406C52.8145 103.828 56.6165 104.253 60.4184 104.676C61.3777 106.596 62.6451 108.29 64.2203 109.755C76.0481 110.602 87.8772 110.602 99.705 109.755C102.731 109.371 105.478 108.311 107.942 106.58C108.788 109.543 108.788 112.507 107.942 115.47C99.4262 126.12 91.4003 137.126 83.8636 148.489C83.4454 152.763 83.8674 156.996 85.1309 161.188C89.2446 168.253 90.3003 175.66 88.2992 183.412C76.114 185.35 63.8642 185.773 51.5472 184.682C40.7384 182.739 30.1779 179.987 19.8645 176.427Z" fill="#FBFBFB"/>
<path fill-rule="evenodd" clip-rule="evenodd" d="M126.318 105.31C126.796 113.891 126.163 122.358 124.417 130.709C120.088 139.816 114.809 148.283 108.576 156.108C108.788 156.531 108.998 156.955 109.21 157.378C116.463 149.184 118.153 150.877 114.279 162.458C112.833 165.136 110.932 167.464 108.576 169.442C110.349 170.198 112.038 169.986 113.645 168.807C117.896 173.276 121.908 177.933 125.685 182.777C129.522 188.564 129.312 193.855 125.051 198.651C113.994 205.052 102.166 207.592 89.5665 206.271C78.9414 199.961 67.746 198.901 55.9828 203.096C47.047 200.963 38.8095 197.365 31.2703 192.301C24.6182 193.551 18.2816 192.705 12.2607 189.762C11.0554 188.85 10.8451 187.792 11.627 186.587C13.8549 183.71 16.6012 181.593 19.8645 180.237C32.7188 184.317 45.8139 187.492 59.1511 189.762C65.4876 190.609 71.8242 190.609 78.1607 189.762C86.1093 189.189 91.1785 185.167 93.3684 177.697C92.0631 168.948 90.1621 160.483 87.6655 152.298C94.637 140.014 102.241 128.162 110.477 116.74C110.899 112.083 111.322 107.427 111.744 102.77C114.178 99.165 116.29 95.3551 118.081 91.3408C121.517 95.7005 124.262 100.357 126.318 105.31Z" fill="#96CA17"/>
<path fill-rule="evenodd" clip-rule="evenodd" d="M130.12 109.12C133.178 111.09 136.557 111.936 140.259 111.66C139.978 120.299 136.809 121.992 130.754 116.74C130.127 114.234 129.915 111.694 130.12 109.12Z" fill="#F0F0F0"/>
<path fill-rule="evenodd" clip-rule="evenodd" d="M138.992 104.04C140.137 104.94 140.559 106.21 140.259 107.85C135.552 107.736 131.327 106.466 127.586 104.04C131.073 103.707 134.875 103.707 138.992 104.04Z" fill="#E2E2E2"/>
</g>
</g>
<defs>
<clipPath id="clip0_639_9897">
<rect width="135" height="130" fill="white"/>
</clipPath>
<clipPath id="clip1_639_9897">
<rect width="175" height="332" fill="white" transform="translate(-20 -101)"/>
</clipPath>
</defs>
</svg>
