<svg width="405" height="390" viewBox="0 0 405 390" fill="none" xmlns="http://www.w3.org/2000/svg">
<rect x="1.5" y="1.5" width="402" height="387" rx="18.5" fill="#FDFFEF" stroke="black" stroke-width="3"/>
<g clip-path="url(#clip0_578_5252)">
<path opacity="0.999" fill-rule="evenodd" clip-rule="evenodd" d="M268.922 187.052C267.286 186.751 266.019 187.174 265.12 188.322C260.853 194.536 257.051 201.098 253.715 208.006C255.386 208.254 257.077 208.042 258.784 207.371C260.42 207.07 261.687 207.493 262.586 208.641C255.87 209.084 253.124 212.471 254.348 218.801C257.25 222.712 259.997 226.734 262.586 230.865C264.224 231.488 265.915 231.7 267.655 231.5C269.768 232.347 271.879 233.193 273.991 234.04C269.875 233.707 266.073 233.707 262.586 234.04C261.74 234.04 261.318 234.463 261.318 235.31C259.262 230.357 256.517 225.7 253.081 221.341C251.29 225.355 249.178 229.165 246.744 232.77C246.322 237.427 245.899 242.083 245.477 246.74C237.241 258.161 229.637 270.014 222.665 282.298C225.162 290.483 227.063 298.948 228.368 307.697C226.178 315.167 221.109 319.189 213.161 319.761C206.824 320.608 200.488 320.608 194.151 319.761C180.814 317.492 167.719 314.317 154.864 310.237C154.084 308.588 154.084 307.318 154.864 306.427C165.178 309.987 175.738 312.739 186.547 314.682C198.864 315.772 211.114 315.35 223.299 313.412C225.3 305.66 224.245 298.252 220.131 291.188C218.867 286.996 218.445 282.763 218.864 278.488C226.4 267.126 234.426 256.119 242.942 245.47C243.788 242.507 243.788 239.543 242.942 236.58C240.478 238.311 237.731 239.37 234.705 239.755C222.877 240.602 211.048 240.602 199.22 239.755C197.645 238.289 196.378 236.595 195.418 234.675C191.616 234.252 187.815 233.828 184.013 233.405C180.873 231.319 177.917 228.991 175.141 226.42C173.979 227.217 172.712 227.641 171.34 227.69C170.494 228.113 169.65 228.537 168.805 228.96C146.253 234.126 135.059 224.814 135.221 201.022C142.375 191.946 149.767 183.057 157.399 174.353C157.584 171.424 158.006 168.461 158.666 165.463C160.125 163.9 161.603 163.9 163.102 165.463C164.205 164.691 164.838 163.633 165.003 162.288C159.965 158.293 154.474 155.118 148.528 152.764C147.22 147.837 146.376 143.181 145.993 138.794C147.057 134.763 149.168 131.376 152.33 128.635C149.892 125.018 147.779 121.208 145.993 117.205C136.798 114.199 132.996 108.061 134.588 98.7909C132.241 94.1569 131.607 89.2888 132.687 84.1866C137.447 80.4703 141.037 75.8139 143.459 70.2172C145.505 69.3866 147.618 68.7516 149.795 68.3122C157.706 59.694 166.155 51.6509 175.141 44.1833C196.338 42.9688 217.249 39.794 237.873 34.6587C246.294 36.7243 253.053 41.3806 258.15 48.6281C266.176 59.2109 274.203 69.7939 282.229 80.3767C278.668 96.5688 276.767 113.078 276.526 129.905C270.018 129.711 265.161 126.748 261.952 121.015C259.367 122.971 256.62 124.665 253.715 126.095C252.724 129.366 250.823 131.906 248.012 133.714C247.59 136.254 247.166 138.794 246.744 141.334C243.933 143.8 241.821 146.763 240.408 150.224C234.739 153.343 229.036 156.518 223.299 159.748C229.258 161.917 234.116 165.515 237.873 170.543C244.286 180.008 249.355 190.167 253.081 201.022C255.785 195.372 258.954 190.08 262.586 185.147C264.982 184.889 267.094 185.524 268.922 187.052Z" fill="#161712"/>
<path opacity="0.996" fill-rule="evenodd" clip-rule="evenodd" d="M265.12 188.322C266.019 187.174 267.286 186.751 268.922 187.052C278.338 192.271 282.986 200.313 282.863 211.181C280.782 224.507 278.881 237.629 277.16 250.55C274.218 254.889 270.838 255.312 267.021 251.82C265.907 262.237 261.472 270.914 253.715 277.853C257.188 283.921 256.766 289.848 252.447 295.633C260.275 302.227 265.345 310.482 267.655 320.397C266.941 324.666 265.251 328.476 262.586 331.826C264.63 333.843 267.165 335.113 270.19 335.636C272.672 339.051 272.883 342.438 270.823 345.796C268.45 348.601 265.703 350.929 262.586 352.78C243.42 361.782 223.565 363.899 203.022 359.13C194.963 356.678 187.57 353.08 180.844 348.335C164.734 350.748 148.893 349.69 133.32 345.161C124.16 338.992 121.202 330.738 124.449 320.397C129.498 316.71 134.989 315.864 140.924 317.857C142.985 312.618 146.787 309.443 152.33 308.332C147.52 306.731 143.297 304.191 139.657 300.712C143.644 297.776 147.446 294.601 151.063 291.188C148.375 286.699 146.05 282.042 144.092 277.218C142.619 268.951 144.731 261.756 150.429 255.629C155.933 249.057 161.636 242.708 167.538 236.58C168.612 234.156 169.036 231.616 168.805 228.961C169.65 228.538 170.494 228.113 171.34 227.691C171.706 231.69 171.072 235.499 169.439 239.12C162.193 247.649 155.435 256.539 149.162 265.789C149.632 276.11 151.956 286.059 156.132 295.633C154.929 296.416 153.873 296.205 152.964 294.998C150.111 297.381 146.943 299.286 143.459 300.712C147.448 302.521 151.25 304.426 154.865 306.427C154.084 307.319 154.084 308.589 154.865 310.237C151.601 311.593 148.855 313.71 146.627 316.587C145.845 317.792 146.055 318.85 147.261 319.762C153.282 322.705 159.618 323.551 166.27 322.302C173.81 327.365 182.047 330.963 190.983 333.096C202.746 328.901 213.941 329.961 224.566 336.271C237.166 337.592 248.994 335.052 260.051 328.651C264.312 323.855 264.522 318.564 260.685 312.777C256.908 307.933 252.896 303.276 248.645 298.808C247.038 299.986 245.349 300.198 243.576 299.442C245.932 297.464 247.833 295.136 249.279 292.458C253.153 280.877 251.463 279.184 244.21 287.378C243.998 286.955 243.788 286.531 243.576 286.108C249.809 278.283 255.088 269.816 259.417 260.709C261.163 252.358 261.796 243.891 261.318 235.31C261.318 234.463 261.74 234.04 262.586 234.04C266.327 236.466 270.552 237.736 275.259 237.85C275.559 236.211 275.137 234.941 273.992 234.04C271.879 233.193 269.768 232.347 267.655 231.5C270.19 231.5 272.724 231.5 275.259 231.5C277.435 221.016 278.068 210.432 277.16 199.752C274.95 193.937 270.937 190.127 265.12 188.322Z" fill="#191A17"/>
<path fill-rule="evenodd" clip-rule="evenodd" d="M195.418 181.972C198.708 182.944 202.088 183.368 205.557 183.242C205.35 186.235 205.561 189.198 206.19 192.132C210.048 195.834 212.794 200.278 214.428 205.466C209.943 205.824 205.507 206.459 201.121 207.371C198.882 206.304 197.191 204.611 196.052 202.291C194.145 195.528 193.933 188.755 195.418 181.972Z" fill="#F3F3F3"/>
<path fill-rule="evenodd" clip-rule="evenodd" d="M168.805 180.703C171.762 180.703 174.719 180.703 177.676 180.703C177.405 182.79 177.828 184.695 178.943 186.417C175.655 186.704 172.486 187.339 169.439 188.322C168.811 185.817 168.6 183.277 168.805 180.703Z" fill="#E6E6E6"/>
<path fill-rule="evenodd" clip-rule="evenodd" d="M181.478 176.893C185.522 177.495 189.324 178.764 192.884 180.702C194.14 184.187 193.716 187.574 191.616 190.862C189.79 189.129 188.101 187.224 186.547 185.147C184.504 184.233 182.603 184.444 180.844 185.782C179.953 182.697 180.164 179.735 181.478 176.893Z" fill="#8FC115"/>
<path fill-rule="evenodd" clip-rule="evenodd" d="M209.359 178.162C207.329 180.161 204.794 181.008 201.755 180.702C203.785 178.703 206.32 177.856 209.359 178.162Z" fill="#839381"/>
<path fill-rule="evenodd" clip-rule="evenodd" d="M168.805 174.353C170.072 174.353 171.339 174.353 172.607 174.353C173.864 174.135 174.708 174.559 175.141 175.623C175.141 176.893 175.141 178.163 175.141 179.433C171.173 180.185 168.217 178.915 166.27 175.623C166.704 174.559 167.548 174.135 168.805 174.353Z" fill="#A3BDA6"/>
<path fill-rule="evenodd" clip-rule="evenodd" d="M175.141 175.623C174.708 174.559 173.864 174.134 172.607 174.353C172.607 173.506 172.607 172.66 172.607 171.813C173.864 172.031 174.708 171.607 175.141 170.543C177.041 169.047 178.308 166.93 178.943 164.193C179.365 164.616 179.789 165.04 180.211 165.463C178.846 169.24 178.846 173.05 180.211 176.893C178.362 176.978 176.672 176.555 175.141 175.623Z" fill="#8EBF16"/>
<path fill-rule="evenodd" clip-rule="evenodd" d="M197.953 165.463C196.788 172.326 199.745 174.866 206.824 173.083C208.965 174.9 211.499 175.958 214.428 176.258C213.081 177.766 211.39 178.401 209.359 178.163C206.32 177.857 203.785 178.704 201.755 180.702C199.153 180.827 197.041 179.98 195.418 178.163C197.39 174.114 196.123 171.151 191.616 169.273C190.088 167.52 190.51 166.038 192.884 164.828C194.868 163.857 196.558 164.069 197.953 165.463Z" fill="#91C516"/>
<path fill-rule="evenodd" clip-rule="evenodd" d="M165.003 169.273C167.28 170.835 169.815 171.681 172.607 171.813C172.607 172.66 172.607 173.506 172.607 174.353C171.339 174.353 170.072 174.353 168.805 174.353C167.171 172.909 165.904 171.216 165.003 169.273Z" fill="#3E4D1B"/>
<path fill-rule="evenodd" clip-rule="evenodd" d="M165.003 169.273C165.904 171.216 167.171 172.909 168.805 174.353C167.548 174.134 166.704 174.558 166.27 175.623C162.015 174.318 159.902 171.356 159.934 166.733C162.087 166.767 163.777 167.614 165.003 169.273Z" fill="#8CBD16"/>
<path fill-rule="evenodd" clip-rule="evenodd" d="M191.617 169.273C196.123 171.151 197.39 174.114 195.418 178.163C192.058 177.335 189.945 175.218 189.082 171.813C189.395 170.272 190.24 169.425 191.617 169.273Z" fill="#95AD94"/>
<path fill-rule="evenodd" clip-rule="evenodd" d="M182.745 166.733C184.527 167.334 185.372 168.604 185.28 170.543C184.463 176.965 182.773 176.965 180.211 170.543C180.771 168.969 181.616 167.699 182.745 166.733Z" fill="#A8C1AD"/>
<path fill-rule="evenodd" clip-rule="evenodd" d="M175.141 170.544C174.708 171.608 173.864 172.032 172.607 171.814C169.815 171.682 167.28 170.836 165.003 169.274C168.236 168.024 171.616 166.754 175.141 165.464C176.568 167.125 176.568 168.819 175.141 170.544Z" fill="#A8C4AC"/>
<path fill-rule="evenodd" clip-rule="evenodd" d="M197.953 165.464C197.953 166.311 198.375 166.734 199.22 166.734C199.419 171.525 201.532 172.795 205.557 170.544C206.619 170.978 207.042 171.824 206.824 173.084C199.745 174.867 196.788 172.327 197.953 165.464Z" fill="#6E7F58"/>
<path fill-rule="evenodd" clip-rule="evenodd" d="M205.557 170.543C201.532 172.794 199.419 171.524 199.22 166.733C201.989 165.987 204.102 167.257 205.557 170.543Z" fill="#BEDDC5"/>
<path fill-rule="evenodd" clip-rule="evenodd" d="M213.161 161.654C221.606 160.587 228.154 163.551 232.804 170.543C242.751 184.383 248.664 199.622 250.546 216.261C248.298 223.948 244.285 230.51 238.507 235.945C225.441 238.026 212.345 238.238 199.22 236.58C196.062 228.233 195.852 219.768 198.587 211.181C199.939 210.304 201.418 209.669 203.022 209.277C210.626 208.854 218.23 208.43 225.834 208.007C222.807 207.622 220.061 206.563 217.596 204.832C216.211 197.232 214.944 189.613 213.794 181.973C212.417 186.025 211.361 190.259 210.626 194.672C209.883 194.407 209.25 193.983 208.725 193.402C207.685 189.524 207.895 185.714 209.359 181.973C212.377 180.892 214.912 179.199 216.963 176.893C215.795 174.028 213.683 172.758 210.626 173.083C210.506 169.023 211.351 165.213 213.161 161.654Z" fill="#96CA17"/>
<path fill-rule="evenodd" clip-rule="evenodd" d="M182.745 166.733C184.578 165.32 186.69 165.108 189.082 166.098C188.091 169.578 187.457 173.177 187.181 176.893C186.93 174.503 186.296 172.387 185.28 170.543C185.372 168.604 184.527 167.334 182.745 166.733Z" fill="#6F9412"/>
<path fill-rule="evenodd" clip-rule="evenodd" d="M201.755 164.194C204.117 162.552 206.652 162.552 209.359 164.194C208.725 165.464 208.091 166.734 207.458 168.004C205.847 166.247 203.946 164.977 201.755 164.194Z" fill="#BCBDBC"/>
<path fill-rule="evenodd" clip-rule="evenodd" d="M167.538 162.923C172.718 162.565 173.352 163.412 169.439 165.463C168.133 165.036 167.5 164.189 167.538 162.923Z" fill="#D7D6D6"/>
<path fill-rule="evenodd" clip-rule="evenodd" d="M196.686 140.064C199.642 140.064 202.6 140.064 205.557 140.064C207.193 139.763 208.46 140.186 209.359 141.334C211.473 143.847 212.317 146.81 211.893 150.224C210.896 152.261 209.207 153.108 206.824 152.764C203.168 153.152 199.788 152.729 196.686 151.494C197.803 146.794 199.916 145.524 203.022 147.684C201.906 149.552 200.216 150.61 197.953 150.859C201.306 151.49 204.686 151.702 208.091 151.494C208.091 149.377 208.091 147.261 208.091 145.144C202.803 145.835 197.945 144.988 193.517 142.604C193.165 143.767 192.531 144.614 191.616 145.144C191.616 144.297 191.616 143.451 191.616 142.604C192.614 140.567 194.303 139.72 196.686 140.064Z" fill="#B0B0AE"/>
<path fill-rule="evenodd" clip-rule="evenodd" d="M152.33 146.414C152.842 148.009 153.687 149.491 154.865 150.858C152.72 153.181 151.453 152.546 151.063 148.953C151.117 147.79 151.539 146.943 152.33 146.414Z" fill="#D7B504"/>
<path fill-rule="evenodd" clip-rule="evenodd" d="M196.686 151.494C193.141 150.901 191.45 148.785 191.616 145.144C192.531 144.614 193.165 143.768 193.517 142.604C197.945 144.988 202.803 145.835 208.091 145.144C208.091 147.261 208.091 149.377 208.091 151.494C204.686 151.702 201.306 151.49 197.953 150.859C200.216 150.61 201.906 149.552 203.022 147.684C199.916 145.524 197.803 146.794 196.686 151.494Z" fill="#F8F8F8"/>
<path fill-rule="evenodd" clip-rule="evenodd" d="M168.805 147.684C167.548 147.466 166.704 147.89 166.27 148.954C161.31 149.448 156.664 148.601 152.33 146.414C152.33 144.297 152.33 142.181 152.33 140.064C157.697 138.876 163.19 138.452 168.805 138.794C167.479 141.819 167.479 144.782 168.805 147.684Z" fill="#E2E2E2"/>
<path fill-rule="evenodd" clip-rule="evenodd" d="M191.616 142.604C191.616 143.45 191.616 144.297 191.616 145.144C191.45 148.785 193.141 150.9 196.686 151.493C199.788 152.729 203.168 153.152 206.824 152.763C203.695 153.801 200.317 154.436 196.686 154.668C193.425 157.324 190.045 159.653 186.547 161.653C182.389 160.182 178.165 158.7 173.874 157.208C175.789 155.157 177.478 155.157 178.943 157.208C183.227 158.399 187.029 157.552 190.349 154.668C187.073 149.796 187.496 149.371 191.616 153.398C192.884 154.245 194.151 154.245 195.418 153.398C191.914 152.005 189.803 149.465 189.082 145.779C184.792 142.843 181.413 143.69 178.943 148.319C175.495 149.083 172.116 148.871 168.805 147.684C167.479 144.782 167.479 141.819 168.805 138.794C163.189 138.452 157.697 138.875 152.33 140.064C152.292 138.798 152.925 137.951 154.231 137.524C157.451 136.88 160.619 136.033 163.736 134.984C161.593 131.371 162.016 128.408 165.003 126.095C166.356 124.908 168.046 124.484 170.072 124.825C171.489 129.085 171.489 133.318 170.072 137.524C176.364 139.8 182.701 141.917 189.082 143.874C189.947 143.413 190.793 142.99 191.616 142.604Z" fill="#241F14"/>
<path fill-rule="evenodd" clip-rule="evenodd" d="M171.339 141.334C173.493 141.131 175.605 141.342 177.676 141.969C175.034 144.686 172.922 144.474 171.339 141.334Z" fill="#C9C8C8"/>
<path fill-rule="evenodd" clip-rule="evenodd" d="M267.655 118.475C269.344 118.475 271.035 118.475 272.724 118.475C273.085 120.746 272.663 122.862 271.457 124.825C268.598 123.655 267.331 121.539 267.655 118.475Z" fill="#A8C4AE"/>
<path fill-rule="evenodd" clip-rule="evenodd" d="M251.18 115.936C251.245 122.154 248.922 127.233 244.21 131.175C241.168 128.344 238.422 125.381 235.972 122.285C240.811 120.159 245.88 118.042 251.18 115.936Z" fill="#94C816"/>
<path fill-rule="evenodd" clip-rule="evenodd" d="M262.586 113.395C261.432 117.092 258.898 119.632 254.982 121.015C253.798 118.99 253.798 116.873 254.982 114.665C257.288 112.175 259.823 111.752 262.586 113.395Z" fill="#A7C1A8"/>
<path fill-rule="evenodd" clip-rule="evenodd" d="M213.161 96.886C214.006 99.0026 214.85 101.119 215.695 103.236C219.834 111.957 223.636 120.847 227.101 129.905C226.146 134.477 224.456 138.71 222.032 142.604C220.976 143.027 219.919 143.451 218.864 143.874C215.64 143.149 212.471 142.302 209.359 141.334C208.46 140.186 207.193 139.763 205.557 140.064C204.658 138.916 203.391 138.493 201.755 138.794C202.855 134.765 202.855 130.955 201.755 127.365C201.755 126.518 201.333 126.095 200.488 126.095C195.672 121.768 193.559 123.037 194.151 129.905C194.005 133.599 194.849 136.985 196.686 140.064C194.303 139.72 192.614 140.567 191.616 142.604C190.793 142.99 189.947 143.413 189.082 143.874C182.701 141.917 176.364 139.8 170.072 137.524C171.489 133.319 171.489 129.086 170.072 124.825C168.046 124.485 166.356 124.908 165.003 126.095C162.016 128.408 161.593 131.371 163.736 134.984C160.619 136.034 157.451 136.88 154.231 137.524C152.926 137.951 152.292 138.798 152.33 140.064C150.562 142.038 149.718 141.615 149.795 138.794C151.136 135.37 152.403 131.984 153.597 128.635C147.949 114.607 149.216 101.272 157.399 88.6313C166.089 91.5338 174.96 94.4971 184.013 97.521C193.765 98.3988 203.48 98.1872 213.161 96.886Z" fill="#DBB701"/>
<path fill-rule="evenodd" clip-rule="evenodd" d="M200.488 126.095C198.999 125.817 197.731 126.241 196.686 127.365C198.533 128.993 200.224 128.993 201.755 127.365C202.855 130.956 202.855 134.766 201.755 138.795C203.391 138.494 204.658 138.917 205.557 140.065C202.6 140.065 199.642 140.065 196.686 140.065C194.849 136.986 194.005 133.599 194.151 129.905C193.559 123.038 195.672 121.768 200.488 126.095Z" fill="#141008"/>
<path fill-rule="evenodd" clip-rule="evenodd" d="M200.488 126.095C201.333 126.095 201.755 126.518 201.755 127.365C200.224 128.993 198.533 128.993 196.686 127.365C197.731 126.24 198.999 125.817 200.488 126.095Z" fill="#8D8E8D"/>
<path fill-rule="evenodd" clip-rule="evenodd" d="M165.003 126.095C166.492 125.817 167.759 126.24 168.805 127.365C166.838 129.013 165.571 128.59 165.003 126.095Z" fill="#A9ABA9"/>
<path fill-rule="evenodd" clip-rule="evenodd" d="M235.972 122.285C237.164 126.367 239.065 130.177 241.675 133.714C242.52 136.254 242.52 138.794 241.675 141.334C240.83 143.027 239.986 143.027 239.141 141.334C238.43 144.877 236.74 147.84 234.071 150.224C232.912 149.172 232.068 147.902 231.537 146.414C228.215 153.712 222.512 158.157 214.428 159.748C203.596 161.791 193.035 163.061 182.745 163.558C172.844 162.58 164.395 158.558 157.399 151.493C160.528 150.645 163.485 149.798 166.27 148.954C166.704 147.889 167.548 147.465 168.805 147.684C172.116 148.871 175.495 149.083 178.943 148.319C181.413 143.69 184.792 142.843 189.082 145.779C189.803 149.465 191.914 152.005 195.418 153.398C194.151 154.245 192.884 154.245 191.617 153.398C187.496 149.371 187.073 149.796 190.349 154.668C187.029 157.552 183.227 158.399 178.943 157.208C177.478 155.157 175.789 155.157 173.874 157.208C178.165 158.7 182.389 160.182 186.547 161.653C190.045 159.653 193.425 157.324 196.686 154.668C200.317 154.436 203.695 153.801 206.824 152.763C209.207 153.108 210.896 152.261 211.893 150.224C225.352 147.459 231.055 138.992 229.002 124.825C226.291 117.697 222.911 110.924 218.864 104.506C217.072 94.2714 218.339 84.5351 222.666 75.2968C223.721 74.2385 224.778 73.1802 225.834 72.1219C231.689 70.4371 237.603 69.5904 243.576 69.582C246.744 71.0637 249.067 73.3919 250.546 76.5667C254.981 85.5096 254.769 94.3992 249.913 103.236C253.337 107.83 251.646 111.852 244.843 115.3C241.595 116.671 238.217 117.306 234.705 117.205C234.365 119.236 234.789 120.929 235.972 122.285Z" fill="#DAB701"/>
<path fill-rule="evenodd" clip-rule="evenodd" d="M158.666 104.506C162.838 104.023 165.795 105.716 167.538 109.586C165.61 110.068 163.499 110.28 161.201 110.221C159.984 112.024 158.929 113.928 158.033 115.936C157.229 112.056 157.44 108.247 158.666 104.506Z" fill="#141007"/>
<path fill-rule="evenodd" clip-rule="evenodd" d="M196.686 100.696C200.266 100.164 203.011 101.434 204.923 104.506C211.579 117.684 210.522 118.742 201.755 107.681C196.99 106.187 193.4 107.669 190.983 112.126C191.49 107.722 193.391 103.912 196.686 100.696Z" fill="#1B1507"/>
<path fill-rule="evenodd" clip-rule="evenodd" d="M214.428 94.3467C215.529 97.1621 215.951 100.125 215.695 103.236C214.85 101.12 214.006 99.0032 213.161 96.8866C213.161 96.4633 213.161 96.0399 213.161 95.6166C213.161 94.77 213.583 94.3467 214.428 94.3467Z" fill="#726005"/>
<path fill-rule="evenodd" clip-rule="evenodd" d="M149.795 94.346C148.425 100.661 147.158 107.011 145.993 113.395C141.268 111.535 138.311 108.149 137.122 103.236C137.525 101.779 138.369 100.72 139.657 100.061C135.084 94.3341 134.873 88.6193 139.023 82.9165C140.266 89.0288 143.857 92.8386 149.795 94.346Z" fill="#D7B402"/>
<path fill-rule="evenodd" clip-rule="evenodd" d="M260.051 89.2666C261.318 89.6899 262.164 90.5365 262.586 91.8065C265.349 99.6126 262.814 102.576 254.982 100.696C256.112 96.5015 257.802 92.6916 260.051 89.2666Z" fill="#AFCAB3"/>
<path fill-rule="evenodd" clip-rule="evenodd" d="M232.17 57.5181C231.201 60.815 230.778 64.2015 230.903 67.6776C234.648 66.8411 238.45 66.4177 242.309 66.4077C242.309 65.1377 242.309 63.8678 242.309 62.5978C242.731 62.5978 243.154 62.5978 243.576 62.5978C243.623 66.6637 245.734 68.7803 249.913 68.9476C252.239 72.3543 253.507 76.1642 253.715 80.3771C259.885 79.4391 261.574 76.0525 258.784 70.2175C264.394 76.0134 263.127 80.035 254.982 82.282C256.119 85.2166 257.808 87.5448 260.051 89.2667C257.802 92.6917 256.112 96.5016 254.982 100.696C262.814 102.576 265.348 99.6127 262.586 91.8066C267.475 100.074 264.94 103.884 254.982 103.236C255.172 107.928 253.905 112.161 251.18 115.936C245.88 118.042 240.811 120.159 235.972 122.285C234.789 120.929 234.365 119.236 234.705 117.205C238.217 117.306 241.595 116.671 244.843 115.301C251.646 111.852 253.337 107.831 249.913 103.236C254.769 94.3997 254.981 85.5101 250.546 76.5672C249.067 73.3924 246.744 71.0642 243.576 69.5825C237.603 69.5909 231.689 70.4376 225.834 72.1224C224.778 73.1807 223.721 74.2391 222.666 75.2973C218.339 84.5356 217.072 94.2719 218.864 104.506C222.911 110.925 226.291 117.698 229.002 124.825C231.055 138.993 225.352 147.459 211.893 150.224C212.317 146.81 211.473 143.847 209.359 141.334C212.471 142.302 215.64 143.149 218.864 143.874C219.919 143.451 220.976 143.028 222.032 142.604C224.456 138.711 226.146 134.478 227.101 129.905C223.636 120.847 219.834 111.957 215.695 103.236C215.951 100.125 215.529 97.1619 214.428 94.3465C215.574 93.4461 215.996 92.1761 215.695 90.5366C215.913 89.2774 215.49 88.4307 214.428 87.9968C214.438 84.13 214.86 80.3202 215.695 76.5672C217.971 74.9256 220.084 73.0207 222.032 70.8525C223.964 69.5716 226.077 68.9367 228.368 68.9476C228.162 65.9546 228.372 62.9913 229.002 60.058C229.531 58.4629 230.586 57.6164 232.17 57.5181Z" fill="#18170E"/>
<path fill-rule="evenodd" clip-rule="evenodd" d="M237.24 91.8061C238.573 91.6162 239.84 91.8279 241.042 92.4411C236.039 94.4586 233.717 98.0568 234.071 103.236C238.871 100.113 239.716 101.382 236.606 107.045C235.748 104.266 234.269 103.842 232.17 105.775C231.748 104.717 231.325 103.659 230.903 102.601C231.71 98.2027 233.822 94.6044 237.24 91.8061Z" fill="#2A230A"/>
<path fill-rule="evenodd" clip-rule="evenodd" d="M147.261 84.187C149.629 85.031 152.164 85.8777 154.864 86.7269C154.019 88.8435 153.175 90.96 152.33 93.0766C151.751 94.0894 150.905 94.5128 149.795 94.3466C147.224 91.3514 144.689 88.3882 142.191 85.457C143.881 85.0337 145.571 84.6103 147.261 84.187Z" fill="#475D0E"/>
<path fill-rule="evenodd" clip-rule="evenodd" d="M275.259 82.9165C276.526 82.9165 277.793 82.9165 279.061 82.9165C277.219 86.5398 275.742 90.3496 274.625 94.346C273.775 95.3015 272.719 95.7249 271.457 95.616C270.395 95.182 269.972 94.3353 270.19 93.0761C269.27 88.2414 270.959 84.8548 275.259 82.9165Z" fill="#B0CDB5"/>
<path fill-rule="evenodd" clip-rule="evenodd" d="M275.259 82.9174C270.959 84.8557 269.27 88.2423 270.19 93.077C267.844 88.2312 269.111 84.4214 273.992 81.6475C274.761 81.8044 275.183 82.2277 275.259 82.9174Z" fill="#1E2316"/>
<path fill-rule="evenodd" clip-rule="evenodd" d="M144.726 71.4875C145.663 71.3212 146.508 71.5329 147.261 72.1225C145.782 73.6041 144.304 75.0857 142.825 76.5673C142.445 74.579 143.079 72.8857 144.726 71.4875Z" fill="#998608"/>
<path fill-rule="evenodd" clip-rule="evenodd" d="M248.645 54.978C251.515 55.8906 254.471 56.314 257.517 56.248C256.536 57.0698 255.268 57.4932 253.715 57.5179C251.364 57.7209 249.674 56.8742 248.645 54.978Z" fill="#3D4632"/>
<path fill-rule="evenodd" clip-rule="evenodd" d="M247.378 52.4381C247.8 53.2848 248.223 54.1314 248.645 54.978C249.674 56.8742 251.364 57.7209 253.715 57.5179C255.268 57.4932 256.536 57.0698 257.517 56.248C263.813 62.773 269.937 69.5461 275.893 76.5671C277.279 78.571 278.336 80.6876 279.061 82.9168C277.793 82.9168 276.526 82.9168 275.259 82.9168C275.183 82.2271 274.761 81.8039 273.992 81.6469C269.111 84.4208 267.844 88.2307 270.19 93.0764C269.972 94.3357 270.395 95.1824 271.457 95.6163C272.762 96.9527 273.608 98.646 273.992 100.696C272.982 106.155 272.56 111.658 272.724 117.205C270.698 116.865 269.009 117.289 267.655 118.475C265.966 116.782 264.275 115.089 262.586 113.396C259.823 111.752 257.288 112.175 254.982 114.665C253.853 115.44 252.585 115.863 251.18 115.935C253.905 112.161 255.172 107.928 254.982 103.236C264.94 103.884 267.475 100.074 262.586 91.8065C262.164 90.5365 261.318 89.6898 260.051 89.2666C257.808 87.5446 256.119 85.2165 254.982 82.2819C263.127 80.0348 264.394 76.0133 258.784 70.2174C256.053 67.6343 253.096 67.2109 249.913 68.9474C245.734 68.7802 243.623 66.6636 243.576 62.5977C242.206 58.2647 239.248 55.7248 234.705 54.978C233.41 55.4295 232.565 56.2762 232.17 57.5179C230.586 57.6162 229.531 58.4628 229.002 60.0578C228.372 62.9911 228.162 65.9544 228.368 68.9474C226.077 68.9365 223.965 69.5715 222.032 70.8524C220.084 73.0205 217.971 74.9255 215.695 76.5671C212.018 74.5156 209.061 75.3622 206.824 79.107C203.544 82.8103 203.968 86.4084 208.092 89.9015C210.592 90.5308 213.127 90.7424 215.695 90.5365C215.996 92.176 215.574 93.446 214.428 94.3464C213.583 94.3464 213.161 94.7696 213.161 95.6163C204.701 95.8275 196.252 95.6158 187.815 94.9813C176.882 92.1763 166.321 88.3664 156.132 83.5518C153.054 82.6587 150.097 82.8704 147.261 84.1868C145.571 84.6101 143.881 85.0335 142.191 85.4567C142.003 84.1208 142.213 82.8508 142.825 81.6469C150.672 72.7011 159.332 65.0815 168.805 58.7879C174.86 57.6363 176.971 54.2497 175.141 48.6283C175.033 47.3636 175.456 46.3053 176.409 45.4534C180.211 44.6068 184.013 44.6068 187.815 45.4534C188.579 48.084 190.268 49.5657 192.884 49.8983C196.264 53.2848 199.642 53.2848 203.022 49.8983C204.279 50.1162 205.123 49.6928 205.557 48.6283C206.824 48.205 207.67 47.3584 208.092 46.0884C211.109 43.3714 214.489 42.948 218.23 44.8185C218.23 45.6651 218.652 46.0884 219.497 46.0884C222.939 49.4331 226.53 49.4331 230.269 46.0884C232.713 36.4559 237.782 34.7627 245.477 41.0086C245.707 45.0656 246.34 48.8754 247.378 52.4381Z" fill="#95C916"/>
<path fill-rule="evenodd" clip-rule="evenodd" d="M182.745 79.1069C180.778 88.1462 184.58 91.956 194.151 90.5364C186.969 93.6484 181.9 91.5318 178.943 84.1867C179.021 81.4528 180.288 79.7594 182.745 79.1069Z" fill="#4E5946"/>
<path fill-rule="evenodd" clip-rule="evenodd" d="M206.824 79.1069C206.619 81.6815 206.83 84.2214 207.458 86.7266C209.584 89.3341 211.907 89.7575 214.428 87.9966C215.49 88.4305 215.913 89.2772 215.695 90.5364C213.126 90.7423 210.592 90.5307 208.091 89.9015C203.968 86.4084 203.544 82.8102 206.824 79.1069Z" fill="#4B583D"/>
<path fill-rule="evenodd" clip-rule="evenodd" d="M191.616 77.8374C198.716 78.9433 200.407 82.3298 196.686 87.997C197.606 83.1623 195.916 79.7757 191.616 77.8374Z" fill="#2D3322"/>
<path fill-rule="evenodd" clip-rule="evenodd" d="M191.617 77.8375C195.917 79.7758 197.606 83.1623 196.686 87.997C196.264 89.267 195.418 90.1136 194.151 90.5369C184.58 91.9565 180.779 88.1466 182.745 79.1074C183.774 77.2112 185.464 76.3646 187.815 76.5675C189.368 76.5923 190.636 77.0157 191.617 77.8375Z" fill="#B1CFB7"/>
<path fill-rule="evenodd" clip-rule="evenodd" d="M158.666 71.4878C157.346 79.8857 161.148 83.2721 170.072 81.6474C162.742 86.238 158.096 84.1213 156.132 75.2976C156.072 73.3448 156.918 72.0749 158.666 71.4878Z" fill="#21261C"/>
<path fill-rule="evenodd" clip-rule="evenodd" d="M215.695 76.5672C214.86 80.3201 214.438 84.13 214.428 87.9967C211.907 89.7576 209.584 89.3342 207.458 86.7267C206.83 84.2215 206.619 81.6816 206.824 79.1071C209.061 75.3622 212.018 74.5157 215.695 76.5672Z" fill="#ACC8B0"/>
<path fill-rule="evenodd" clip-rule="evenodd" d="M258.784 70.2174C261.574 76.0525 259.885 79.439 253.715 80.377C253.507 76.1641 252.239 72.3543 249.913 68.9475C253.096 67.211 256.053 67.6344 258.784 70.2174Z" fill="#A3BDA6"/>
<path fill-rule="evenodd" clip-rule="evenodd" d="M170.072 81.6466C161.148 83.2714 157.346 79.8849 158.666 71.487C162.165 68.3884 165.967 68.1768 170.072 70.8521C173.424 74.5978 173.424 78.196 170.072 81.6466Z" fill="#A1BCA5"/>
<path fill-rule="evenodd" clip-rule="evenodd" d="M180.211 60.0576C179.797 68.0908 183.599 71.0539 191.616 68.9472C184.958 72.8254 180.311 70.9205 177.676 63.2325C177.852 61.5803 178.696 60.5219 180.211 60.0576Z" fill="#445033"/>
<path fill-rule="evenodd" clip-rule="evenodd" d="M206.824 65.1377C210.265 67.1988 214.067 68.0454 218.23 67.6776C215.533 69.1115 212.577 69.3232 209.359 68.3126C208.242 67.4131 207.398 66.3548 206.824 65.1377Z" fill="#3B4332"/>
<path fill-rule="evenodd" clip-rule="evenodd" d="M220.765 58.7881C222.187 61.0593 222.398 63.5991 221.398 66.4078C220.548 67.3633 219.492 67.7867 218.23 67.6777C220.344 65.165 221.188 62.2017 220.765 58.7881Z" fill="#35401F"/>
<path fill-rule="evenodd" clip-rule="evenodd" d="M190.349 58.7881C193.32 59.3964 195.01 61.3013 195.418 64.5028C195.242 66.155 194.398 67.2134 192.884 67.6777C193.307 64.2641 192.463 61.3008 190.349 58.7881Z" fill="#556349"/>
<path fill-rule="evenodd" clip-rule="evenodd" d="M190.349 58.7881C192.463 61.3008 193.307 64.2641 192.884 67.6777C192.884 68.5244 192.462 68.9476 191.616 68.9476C183.599 71.0544 179.798 68.0912 180.211 60.058C183.591 59.6348 186.969 59.2114 190.349 58.7881Z" fill="#BAD9C1"/>
<path fill-rule="evenodd" clip-rule="evenodd" d="M190.349 58.7875C186.969 59.2108 183.591 59.6342 180.211 60.0575C183.37 57.4112 186.75 56.9879 190.349 58.7875Z" fill="#5D6B55"/>
<path fill-rule="evenodd" clip-rule="evenodd" d="M232.17 57.5181C236.995 56.5963 240.375 58.2895 242.309 62.5979C242.309 63.8679 242.309 65.1378 242.309 66.4078C238.45 66.4178 234.648 66.8412 230.903 67.6777C230.778 64.2016 231.201 60.815 232.17 57.5181Z" fill="#BAD8C0"/>
<path fill-rule="evenodd" clip-rule="evenodd" d="M219.497 57.518C220.343 57.518 220.765 57.9412 220.765 58.7879C221.188 62.2015 220.344 65.1648 218.23 67.6775C214.067 68.0453 210.265 67.1988 206.824 65.1376C206.416 62.3153 207.261 59.9871 209.359 58.1529C212.712 57.5213 216.092 57.3096 219.497 57.518Z" fill="#B9D9C1"/>
<path fill-rule="evenodd" clip-rule="evenodd" d="M243.576 62.5977C243.154 62.5977 242.731 62.5977 242.309 62.5977C240.375 58.2893 236.995 56.5961 232.17 57.5179C232.565 56.2762 233.41 55.4295 234.705 54.978C239.248 55.7248 242.206 58.2646 243.576 62.5977Z" fill="#5A6A44"/>
<path fill-rule="evenodd" clip-rule="evenodd" d="M219.497 57.5176C216.092 57.3092 212.712 57.5209 209.359 58.1525C207.261 59.9867 206.416 62.3149 206.824 65.1372C204.661 58.7837 207.195 55.3971 214.428 54.9777C216.779 54.7747 218.468 55.6214 219.497 57.5176Z" fill="#576650"/>
<path fill-rule="evenodd" clip-rule="evenodd" d="M175.141 48.6284C176.971 54.2498 174.86 57.6364 168.805 58.788C166.868 58.766 166.235 57.9193 166.904 56.2481C169.544 53.3831 172.29 50.8432 175.141 48.6284Z" fill="#96AD93"/>
<path fill-rule="evenodd" clip-rule="evenodd" d="M192.884 49.8979C196.264 49.8979 199.642 49.8979 203.022 49.8979C199.642 53.2845 196.264 53.2845 192.884 49.8979Z" fill="#455038"/>
<path fill-rule="evenodd" clip-rule="evenodd" d="M257.517 56.2479C254.471 56.3139 251.515 55.8905 248.645 54.9779C248.223 54.1312 247.8 53.2847 247.378 52.438C246.999 49.7661 247.421 47.2262 248.645 44.8184C252.108 48.2819 255.066 52.0917 257.517 56.2479Z" fill="#B4D1BA"/>
<path fill-rule="evenodd" clip-rule="evenodd" d="M190.349 46.0886C196.015 45.3401 201.084 46.1867 205.557 48.6285C205.123 49.693 204.279 50.1164 203.022 49.8985C199.642 49.8985 196.264 49.8985 192.884 49.8985C192.038 48.6285 191.194 47.3586 190.349 46.0886Z" fill="#B3D0B8"/>
<path fill-rule="evenodd" clip-rule="evenodd" d="M190.349 46.0882C196.136 44.4407 202.05 44.4407 208.091 46.0882C207.669 47.3581 206.824 48.2048 205.557 48.6281C201.084 46.1862 196.015 45.3397 190.349 46.0882Z" fill="#586457"/>
<path fill-rule="evenodd" clip-rule="evenodd" d="M219.497 46.0882C218.652 46.0882 218.23 45.6649 218.23 44.8182C218.371 44.0342 218.793 43.3992 219.497 42.9133C223.226 41.4854 227.028 41.0621 230.903 41.6434C230.058 42.9133 229.214 44.1833 228.368 45.4532C225.441 46.0839 222.484 46.2956 219.497 46.0882Z" fill="#B1CDB7"/>
<path fill-rule="evenodd" clip-rule="evenodd" d="M265.12 188.322C270.937 190.126 274.95 193.936 277.16 199.751C278.068 210.432 277.435 221.015 275.259 231.5C272.724 231.5 270.19 231.5 267.655 231.5C265.915 231.699 264.224 231.487 262.586 230.865C259.997 226.734 257.25 222.712 254.348 218.8C253.124 212.471 255.87 209.084 262.586 208.641C264.459 208.974 266.148 208.551 267.655 207.371C264.521 205.724 261.563 205.724 258.784 207.371C257.077 208.041 255.386 208.254 253.715 208.006C257.051 201.097 260.853 194.536 265.12 188.322Z" fill="#F8F8F8"/>
<path fill-rule="evenodd" clip-rule="evenodd" d="M173.874 188.322C177.287 191.485 181.089 194.236 185.28 196.576C188.838 199.388 188.416 201.293 184.013 202.291C179.008 199.139 174.783 195.117 171.339 190.227C172.5 189.874 173.344 189.239 173.874 188.322Z" fill="#D2B104"/>
<path fill-rule="evenodd" clip-rule="evenodd" d="M163.736 192.132C166.002 191.771 168.114 192.193 170.072 193.402C172.537 196.742 175.494 199.493 178.943 201.657C176.842 205.844 173.462 207.114 168.805 205.467C166.425 203.507 164.524 201.18 163.102 198.482C162.423 201.107 163.056 203.436 165.003 205.467C161.985 207.383 160.718 210.134 161.201 213.722C161.912 217.62 162.546 221.43 163.102 225.151C157.493 221.317 155.17 216.025 156.132 209.277C155.156 201.789 157.691 196.074 163.736 192.132Z" fill="#D6B302"/>
<path fill-rule="evenodd" clip-rule="evenodd" d="M181.478 187.053C183.167 187.053 184.858 187.053 186.547 187.053C186.358 188.389 186.569 189.659 187.181 190.863C189.353 192.822 191.254 194.939 192.884 197.212C192.943 199.117 192.099 200.387 190.349 201.022C188.234 196.674 185.066 193.288 180.844 190.863C180.249 189.495 180.46 188.225 181.478 187.053Z" fill="#CFAF04"/>
<path fill-rule="evenodd" clip-rule="evenodd" d="M159.934 175.623C162.05 175.941 163.951 176.788 165.637 178.162C166.213 182.422 166.847 186.655 167.538 190.862C162.192 192.561 156.701 194.042 151.063 195.307C148.353 197.113 146.874 199.44 146.627 202.291C148.229 199.616 150.552 198.346 153.597 198.482C152.354 204.36 152.142 210.287 152.964 216.261C154.69 219.735 157.014 222.698 159.934 225.15C152.972 228.051 147.692 226.357 144.092 220.071C141.487 215.697 139.586 211.04 138.39 206.101C138.667 204.275 139.301 202.582 140.29 201.021C148.081 193.439 154.628 184.972 159.934 175.623Z" fill="#91C416"/>
<path fill-rule="evenodd" clip-rule="evenodd" d="M258.784 207.372C261.563 205.725 264.521 205.725 267.655 207.372C266.148 208.552 264.459 208.975 262.586 208.642C261.687 207.494 260.42 207.071 258.784 207.372Z" fill="#767676"/>
<path fill-rule="evenodd" clip-rule="evenodd" d="M172.607 212.452C171.634 213.421 171 214.691 170.706 216.262C169.796 215.054 168.74 214.843 167.538 215.627C168.885 217.135 170.575 217.77 172.607 217.532C173.029 220.072 173.452 222.611 173.874 225.151C169.682 225.819 166.937 224.127 165.637 220.072C163.655 216.31 163.443 212.5 165.003 208.642C174.69 207.448 184.406 205.968 194.151 204.197C195.156 205.575 196.001 207.057 196.686 208.642C195.031 210.435 193.974 212.552 193.517 214.992C192.885 220.479 192.673 225.982 192.884 231.501C188.709 231.807 184.907 230.749 181.478 228.326C177.325 223.592 174.368 218.3 172.607 212.452Z" fill="#D9B601"/>
<path fill-rule="evenodd" clip-rule="evenodd" d="M172.607 212.451C172.607 214.144 172.607 215.838 172.607 217.531C170.575 217.77 168.885 217.135 167.538 215.626C168.74 214.842 169.796 215.053 170.706 216.261C171 214.69 171.634 213.42 172.607 212.451Z" fill="#615506"/>
<path fill-rule="evenodd" clip-rule="evenodd" d="M154.865 306.427C151.25 304.426 147.448 302.521 143.459 300.713C146.943 299.287 150.111 297.382 152.964 294.998C153.873 296.206 154.929 296.416 156.132 295.633C151.956 286.059 149.632 276.11 149.162 265.789C155.435 256.539 162.193 247.649 169.439 239.12C171.072 235.5 171.706 231.69 171.34 227.691C172.712 227.641 173.979 227.217 175.141 226.421C177.917 228.991 180.873 231.319 184.013 233.406C187.815 233.828 191.616 234.253 195.418 234.676C196.378 236.596 197.645 238.29 199.22 239.755C211.048 240.602 222.877 240.602 234.705 239.755C237.731 239.371 240.478 238.311 242.942 236.58C243.788 239.543 243.788 242.507 242.942 245.47C234.426 256.12 226.4 267.126 218.864 278.489C218.445 282.763 218.867 286.996 220.131 291.188C224.245 298.253 225.3 305.66 223.299 313.412C211.114 315.35 198.864 315.773 186.547 314.682C175.738 312.739 165.178 309.987 154.865 306.427Z" fill="#FBFBFB"/>
<path fill-rule="evenodd" clip-rule="evenodd" d="M261.318 235.31C261.796 243.891 261.163 252.358 259.417 260.709C255.088 269.816 249.809 278.283 243.576 286.108C243.788 286.531 243.998 286.955 244.21 287.378C251.463 279.184 253.153 280.877 249.279 292.458C247.833 295.136 245.932 297.464 243.576 299.442C245.349 300.198 247.038 299.986 248.645 298.807C252.896 303.276 256.908 307.933 260.685 312.777C264.522 318.564 264.312 323.855 260.051 328.651C248.994 335.052 237.166 337.592 224.566 336.271C213.941 329.961 202.746 328.901 190.983 333.096C182.047 330.963 173.81 327.365 166.27 322.301C159.618 323.551 153.282 322.705 147.261 319.762C146.055 318.85 145.845 317.792 146.627 316.587C148.855 313.71 151.601 311.593 154.865 310.237C167.719 314.317 180.814 317.492 194.151 319.762C200.488 320.609 206.824 320.609 213.161 319.762C221.109 319.189 226.178 315.167 228.368 307.697C227.063 298.948 225.162 290.483 222.666 282.298C229.637 270.014 237.241 258.162 245.477 246.74C245.899 242.083 246.322 237.427 246.744 232.77C249.178 229.165 251.29 225.355 253.081 221.341C256.517 225.701 259.262 230.357 261.318 235.31Z" fill="#96CA17"/>
<path fill-rule="evenodd" clip-rule="evenodd" d="M157.399 325.476C159.232 324.063 161.344 323.851 163.736 324.841C167.96 327.381 172.185 329.921 176.409 332.461C169.347 332.318 163.011 329.99 157.399 325.476Z" fill="#CEAE04"/>
<path fill-rule="evenodd" clip-rule="evenodd" d="M128.251 321.666C136.501 321.12 144.528 322.178 152.33 324.841C157.487 328.731 162.978 332.118 168.805 335.001C173.058 335.274 177.282 335.274 181.478 335.001C183.659 335.939 185.77 336.998 187.814 338.176C186.869 339.745 186.447 341.439 186.547 343.255C170.463 345.085 154.41 344.873 138.389 342.62C127.725 339.237 124.345 332.253 128.251 321.666Z" fill="#BADAC2"/>
<path fill-rule="evenodd" clip-rule="evenodd" d="M173.874 272.139C173.919 277.912 174.13 283.839 174.508 289.918C170.577 284.192 170.365 278.267 173.874 272.139Z" fill="#393939"/>
<path fill-rule="evenodd" clip-rule="evenodd" d="M265.12 239.12C268.178 241.09 271.557 241.936 275.259 241.66C274.978 250.299 271.809 251.992 265.754 246.74C265.127 244.234 264.915 241.694 265.12 239.12Z" fill="#F0F0F0"/>
<path fill-rule="evenodd" clip-rule="evenodd" d="M273.992 234.04C275.137 234.94 275.559 236.21 275.259 237.85C270.552 237.736 266.327 236.466 262.586 234.04C266.073 233.707 269.875 233.707 273.992 234.04Z" fill="#E2E2E2"/>
<path fill-rule="evenodd" clip-rule="evenodd" d="M201.755 333.096C205.58 332.887 209.382 333.099 213.161 333.731C221.472 339.377 230.343 344.034 239.774 347.701C247.92 348.653 255.524 346.96 262.586 342.621C264.275 341.351 264.275 340.081 262.586 338.811C269.982 339.196 270.827 342.159 265.12 347.701C242.977 358.25 220.165 359.944 196.686 352.78C190.802 350.149 188.901 345.704 190.983 339.446C194.18 336.491 197.772 334.375 201.755 333.096Z" fill="#B9D8C1"/>
<path fill-rule="evenodd" clip-rule="evenodd" d="M257.516 333.096C259.409 334.127 260.254 335.82 260.051 338.176C260.497 341.254 259.23 343.159 256.249 343.891C248.233 346.856 240.63 346.009 233.438 341.351C241.979 339.699 250.006 336.947 257.516 333.096Z" fill="#D0AF02"/>
</g>
<defs>
<clipPath id="clip0_578_5252">
<rect width="175" height="332" fill="white" transform="translate(115 29)"/>
</clipPath>
</defs>
</svg>
