<svg width="135" height="130" viewBox="0 0 135 130" fill="none" xmlns="http://www.w3.org/2000/svg">
<g clip-path="url(#clip0_639_9903)">
<rect x="1.5" y="-258.5" width="402" height="387" rx="18.5" fill="#FDFFEF" stroke="black" stroke-width="3"/>
<g clip-path="url(#clip1_639_9903)">
<path opacity="0.999" fill-rule="evenodd" clip-rule="evenodd" d="M268.922 -72.9479C267.286 -73.2489 266.019 -72.826 265.12 -71.6779C260.853 -65.4641 257.051 -58.9023 253.715 -51.9938C255.386 -51.7461 257.077 -51.9582 258.784 -52.6288C260.42 -52.9297 261.687 -52.5068 262.586 -51.3588C255.87 -50.9156 253.124 -47.5287 254.348 -41.1992C257.25 -37.2878 259.997 -33.2659 262.586 -29.1348C264.224 -28.5125 265.915 -28.3004 267.655 -28.4998C269.768 -27.6527 271.879 -26.807 273.991 -25.9599C269.875 -26.2926 266.073 -26.2926 262.586 -25.9599C261.74 -25.9599 261.318 -25.537 261.318 -24.69C259.262 -29.6427 256.517 -34.2996 253.081 -38.6594C251.29 -34.6451 249.178 -30.8352 246.744 -27.2298C246.322 -22.573 245.899 -17.9173 245.477 -13.2604C237.241 -1.83856 229.637 10.0138 222.665 22.298C225.162 30.4828 227.063 38.9483 228.368 47.6969C226.178 55.1667 221.109 59.1887 213.161 59.7614C206.824 60.6085 200.488 60.6085 194.151 59.7614C180.814 57.492 167.719 54.3171 154.864 50.2368C154.084 48.5884 154.084 47.3185 154.864 46.427C165.178 49.9866 175.738 52.7386 186.547 54.6816C198.864 55.7725 211.114 55.3496 223.299 53.4117C225.3 45.6599 224.245 38.2523 220.131 31.1876C218.867 26.9955 218.445 22.7628 218.864 18.4882C226.4 7.12598 234.426 -3.88063 242.942 -14.5304C243.788 -17.4932 243.788 -20.4572 242.942 -23.42C240.478 -21.6891 237.731 -20.6299 234.705 -20.2451C222.877 -19.3981 211.048 -19.3981 199.22 -20.2451C197.645 -21.7107 196.378 -23.4048 195.418 -25.3249C191.616 -25.7478 187.815 -26.172 184.013 -26.5949C180.873 -28.6814 177.917 -31.0092 175.141 -33.5796C173.979 -32.7833 172.712 -32.3592 171.34 -32.3096C170.494 -31.8867 169.65 -31.4626 168.805 -31.0397C146.253 -25.8735 135.059 -35.1861 135.221 -58.9785C142.375 -68.0535 149.767 -76.9431 157.399 -85.6473C157.584 -88.5758 158.006 -91.5386 158.666 -94.5369C160.125 -96.1002 161.603 -96.1002 163.102 -94.5369C164.205 -95.3091 164.838 -96.3669 165.003 -97.7118C159.965 -101.707 154.474 -104.882 148.528 -107.236C147.22 -112.163 146.376 -116.819 145.993 -121.206C147.057 -125.237 149.168 -128.624 152.33 -131.365C149.892 -134.982 147.779 -138.792 145.993 -142.795C136.798 -145.801 132.996 -151.939 134.588 -161.209C132.241 -165.843 131.607 -170.711 132.687 -175.813C137.447 -179.53 141.037 -184.186 143.459 -189.783C145.505 -190.613 147.618 -191.248 149.795 -191.688C157.706 -200.306 166.155 -208.349 175.141 -215.817C196.338 -217.031 217.249 -220.206 237.873 -225.341C246.294 -223.276 253.053 -218.619 258.15 -211.372C266.176 -200.789 274.203 -190.206 282.229 -179.623C278.668 -163.431 276.767 -146.922 276.526 -130.095C270.018 -130.289 265.161 -133.252 261.952 -138.985C259.367 -137.029 256.62 -135.335 253.715 -133.905C252.724 -130.634 250.823 -128.094 248.012 -126.286C247.59 -123.746 247.166 -121.206 246.744 -118.666C243.933 -116.2 241.821 -113.237 240.408 -109.776C234.739 -106.657 229.036 -103.482 223.299 -100.252C229.258 -98.0826 234.116 -94.4849 237.873 -89.4572C244.286 -79.9923 249.355 -69.8327 253.081 -58.9785C255.785 -64.6285 258.954 -69.9203 262.586 -74.8528C264.982 -75.1106 267.094 -74.4756 268.922 -72.9479Z" fill="#161712"/>
<path opacity="0.996" fill-rule="evenodd" clip-rule="evenodd" d="M265.12 -71.6777C266.019 -72.8257 267.286 -73.2486 268.922 -72.9477C278.338 -67.7295 282.986 -59.6869 282.863 -48.8187C280.782 -35.4932 278.881 -22.3708 277.16 -9.45039C274.218 -5.11099 270.838 -4.6881 267.021 -8.18045C265.907 2.23691 261.472 10.9144 253.715 17.8534C257.188 23.9212 256.766 29.8481 252.447 35.6327C260.275 42.2275 265.345 50.4821 267.655 60.3966C266.941 64.6662 265.251 68.476 262.586 71.8261C264.63 73.8428 267.165 75.1127 270.19 75.6359C272.672 79.0508 272.883 82.4378 270.823 85.7955C268.45 88.6008 265.703 90.9286 262.586 92.7802C243.42 101.782 223.565 103.899 203.022 99.1299C194.963 96.6777 187.57 93.0799 180.844 88.3354C164.734 90.7483 148.893 89.6904 133.32 85.1605C124.16 78.9924 121.202 70.7378 124.449 60.3966C129.498 56.7099 134.989 55.8642 140.924 57.8567C142.985 52.6182 146.787 49.4433 152.33 48.3321C147.52 46.7307 143.297 44.1908 139.657 40.7124C143.644 37.7763 147.446 34.6015 151.063 31.1879C148.375 26.6986 146.05 22.0417 144.092 17.2185C142.619 8.95111 144.731 1.7556 150.429 -4.37061C155.933 -10.9426 161.636 -17.2923 167.538 -23.4198C168.612 -25.8441 169.036 -28.384 168.805 -31.0395C169.65 -31.4624 170.494 -31.8865 171.34 -32.3094C171.706 -28.3104 171.072 -24.5005 169.439 -20.8799C162.193 -12.3509 155.435 -3.46133 149.162 5.78895C149.632 16.1098 151.956 26.0585 156.132 35.6327C154.929 36.4162 153.873 36.2054 152.964 34.9977C150.111 37.3814 146.943 39.2863 143.459 40.7124C147.448 42.5208 151.25 44.4258 154.865 46.4272C154.084 47.3187 154.084 48.5886 154.865 50.237C151.601 51.5933 148.855 53.7103 146.627 56.5868C145.845 57.7919 146.055 58.8498 147.261 59.7616C153.282 62.7054 159.618 63.5511 166.27 62.3015C173.81 67.3648 182.047 70.9625 190.983 73.096C202.746 68.9014 213.941 69.9606 224.566 76.2709C237.166 77.5917 248.994 75.0518 260.051 68.6512C264.312 63.8547 264.522 58.5641 260.685 52.7769C256.908 47.9334 252.896 43.2765 248.645 38.8075C247.038 39.986 245.349 40.1981 243.576 39.4425C245.932 37.4639 247.833 35.1361 249.279 32.4578C253.153 20.8772 251.463 19.1843 244.21 27.378C243.998 26.9551 243.788 26.531 243.576 26.1081C249.809 18.2827 255.088 9.81595 259.417 0.709168C261.163 -7.64199 261.796 -16.1087 261.318 -24.6897C261.318 -25.5368 261.74 -25.9597 262.586 -25.9597C266.327 -23.5341 270.552 -22.2641 275.259 -22.1498C275.559 -23.7893 275.137 -25.0593 273.992 -25.9597C271.879 -26.8067 269.768 -27.6525 267.655 -28.4996C270.19 -28.4996 272.724 -28.4996 275.259 -28.4996C277.435 -38.9842 278.068 -49.568 277.16 -60.2482C274.95 -66.0633 270.937 -69.8731 265.12 -71.6777Z" fill="#191A17"/>
<path fill-rule="evenodd" clip-rule="evenodd" d="M128.251 61.6663C136.501 61.1202 144.528 62.1781 152.33 64.8412C157.487 68.731 162.978 72.1179 168.805 75.0007C173.058 75.2738 177.282 75.2738 181.478 75.0007C183.659 75.9392 185.77 76.9983 187.815 78.1756C186.869 79.7452 186.447 81.4393 186.547 83.2554C170.463 85.0853 154.41 84.8733 138.39 82.6204C127.725 79.2373 124.345 72.2526 128.251 61.6663Z" fill="#BADAC2"/>
</g>
</g>
<defs>
<clipPath id="clip0_639_9903">
<rect width="135" height="130" fill="white"/>
</clipPath>
<clipPath id="clip1_639_9903">
<rect width="175" height="332" fill="white" transform="translate(115 -231)"/>
</clipPath>
</defs>
</svg>
