<svg width="135" height="130" viewBox="0 0 135 130" fill="none" xmlns="http://www.w3.org/2000/svg">
<g clip-path="url(#clip0_639_9905)">
<rect x="-268.5" y="-258.5" width="402" height="387" rx="18.5" stroke="black" stroke-width="3"/>
<g clip-path="url(#clip1_639_9905)">
<path opacity="0.999" fill-rule="evenodd" clip-rule="evenodd" d="M-1.07774 -72.9479C-2.71384 -73.2489 -3.98114 -72.826 -4.87967 -71.6779C-9.14669 -65.4641 -12.9486 -58.9023 -16.2854 -51.9938C-14.6139 -51.7461 -12.9233 -51.9582 -11.2162 -52.6288C-9.58011 -52.9297 -8.3128 -52.5068 -7.41428 -51.3588C-14.1298 -50.9156 -16.876 -47.5287 -15.6518 -41.1992C-12.7497 -37.2878 -10.0034 -33.2659 -7.41428 -29.1348C-5.77565 -28.5125 -4.08506 -28.3004 -2.34505 -28.4998C-0.232446 -27.6527 1.87889 -26.807 3.99149 -25.9599C-0.124725 -26.2926 -3.92665 -26.2926 -7.41428 -25.9599C-8.25958 -25.9599 -8.68159 -25.537 -8.68159 -24.69C-10.7384 -29.6427 -13.4834 -34.2996 -16.9191 -38.6594C-18.7098 -34.6451 -20.8224 -30.8352 -23.2556 -27.2298C-23.6777 -22.573 -24.1009 -17.9173 -24.5229 -13.2604C-32.7592 -1.83856 -40.363 10.0138 -47.3345 22.298C-44.8379 30.4828 -42.9369 38.9483 -41.6316 47.6969C-43.8215 55.1667 -48.8908 59.1887 -56.8393 59.7614C-63.1759 60.6085 -69.5124 60.6085 -75.8489 59.7614C-89.1861 57.492 -102.281 54.3171 -115.136 50.2368C-115.916 48.5884 -115.916 47.3185 -115.136 46.427C-104.822 49.9866 -94.2617 52.7386 -83.4528 54.6816C-71.1358 55.7725 -58.886 55.3496 -46.7008 53.4117C-44.6998 45.6599 -45.7554 38.2523 -49.8691 31.1876C-51.1326 26.9955 -51.5546 22.7628 -51.1364 18.4882C-43.5997 7.12598 -35.5739 -3.88063 -27.0576 -14.5304C-26.2123 -17.4932 -26.2123 -20.4572 -27.0576 -23.42C-29.5225 -21.6891 -32.2687 -20.6299 -35.2951 -20.2451C-47.1229 -19.3981 -58.9519 -19.3981 -70.7797 -20.2451C-72.355 -21.7107 -73.6223 -23.4048 -74.5816 -25.3249C-78.3836 -25.7478 -82.1855 -26.172 -85.9874 -26.5949C-89.1265 -28.6814 -92.0832 -31.0092 -94.8586 -33.5796C-96.0207 -32.7833 -97.288 -32.3592 -98.6605 -32.3096C-99.5058 -31.8867 -100.35 -31.4626 -101.195 -31.0397C-123.747 -25.8735 -134.941 -35.1861 -134.779 -58.9785C-127.625 -68.0535 -120.233 -76.9431 -112.601 -85.6473C-112.416 -88.5758 -111.994 -91.5386 -111.334 -94.5369C-109.875 -96.1002 -108.397 -96.1002 -106.898 -94.5369C-105.795 -95.3091 -105.162 -96.3669 -104.997 -97.7118C-110.035 -101.707 -115.526 -104.882 -121.472 -107.236C-122.78 -112.163 -123.624 -116.819 -124.007 -121.206C-122.943 -125.237 -120.832 -128.624 -117.67 -131.365C-120.108 -134.982 -122.221 -138.792 -124.007 -142.795C-133.202 -145.801 -137.004 -151.939 -135.412 -161.209C-137.759 -165.843 -138.393 -170.711 -137.313 -175.813C-132.553 -179.53 -128.963 -184.186 -126.541 -189.783C-124.495 -190.613 -122.382 -191.248 -120.205 -191.688C-112.294 -200.306 -103.845 -208.349 -94.8586 -215.817C-73.6616 -217.031 -52.751 -220.206 -32.1268 -225.341C-23.7055 -223.276 -16.947 -218.619 -11.8499 -211.372C-3.824 -200.789 4.20313 -190.206 12.229 -179.623C8.66786 -163.431 6.7669 -146.922 6.52611 -130.095C0.0184807 -130.289 -4.83911 -133.252 -8.04794 -138.985C-10.6332 -137.029 -13.3795 -135.335 -16.2854 -133.905C-17.2765 -130.634 -19.1774 -128.094 -21.9883 -126.286C-22.4103 -123.746 -22.8336 -121.206 -23.2556 -118.666C-26.0665 -116.2 -28.1791 -113.237 -29.5922 -109.776C-35.2609 -106.657 -40.9637 -103.482 -46.7008 -100.252C-40.742 -98.0826 -35.8844 -94.4849 -32.1268 -89.4572C-25.7142 -79.9923 -20.645 -69.8327 -16.9191 -58.9785C-14.2147 -64.6285 -11.0464 -69.9203 -7.41428 -74.8528C-5.0178 -75.1106 -2.90647 -74.4756 -1.07774 -72.9479Z" fill="#161712"/>
<path opacity="0.996" fill-rule="evenodd" clip-rule="evenodd" d="M-4.87963 -71.6777C-3.98111 -72.8257 -2.7138 -73.2486 -1.07771 -72.9477C8.3384 -67.7295 12.9856 -59.6869 12.8627 -48.8187C10.7818 -35.4932 8.8808 -22.3708 7.1598 -9.45039C4.21838 -5.11099 0.838464 -4.6881 -2.97867 -8.18045C-4.09263 2.23691 -8.52821 10.9144 -16.2854 17.8534C-12.8117 23.9212 -13.2337 29.8481 -17.5527 35.6327C-9.72455 42.2275 -4.65532 50.4821 -2.34502 60.3966C-3.05851 64.6662 -4.7491 68.476 -7.41425 71.8261C-5.37008 73.8428 -2.83546 75.1127 0.189602 75.6359C2.67226 79.0508 2.88263 82.4378 0.823256 85.7955C-1.55041 88.6008 -4.29667 90.9286 -7.41425 92.7802C-26.5798 101.782 -46.4347 103.899 -66.9777 99.1299C-75.0366 96.6777 -82.43 93.0799 -89.1556 88.3354C-105.266 90.7483 -121.107 89.6904 -136.68 85.1605C-145.84 78.9924 -148.798 70.7378 -145.551 60.3966C-140.502 56.7099 -135.011 55.8642 -129.076 57.8567C-127.015 52.6182 -123.213 49.4433 -117.67 48.3321C-122.48 46.7307 -126.703 44.1908 -130.343 40.7124C-126.356 37.7763 -122.554 34.6015 -118.937 31.1879C-121.625 26.6986 -123.95 22.0417 -125.908 17.2185C-127.381 8.95111 -125.269 1.7556 -119.571 -4.37061C-114.067 -10.9426 -108.364 -17.2923 -102.462 -23.4198C-101.388 -25.8441 -100.964 -28.384 -101.195 -31.0395C-100.35 -31.4624 -99.5058 -31.8865 -98.6605 -32.3094C-98.2942 -28.3104 -98.9279 -24.5005 -100.561 -20.8799C-107.807 -12.3509 -114.565 -3.46133 -120.838 5.78895C-120.368 16.1098 -118.044 26.0585 -113.868 35.6327C-115.071 36.4162 -116.127 36.2054 -117.036 34.9977C-119.889 37.3814 -123.057 39.2863 -126.541 40.7124C-122.552 42.5208 -118.75 44.4258 -115.135 46.4272C-115.916 47.3187 -115.916 48.5886 -115.135 50.237C-118.399 51.5933 -121.145 53.7103 -123.373 56.5868C-124.155 57.7919 -123.945 58.8498 -122.739 59.7616C-116.718 62.7054 -110.382 63.5511 -103.73 62.3015C-96.1905 67.3648 -87.953 70.9625 -79.0172 73.096C-67.254 68.9014 -56.0586 69.9606 -45.4335 76.2709C-32.8339 77.5917 -21.0061 75.0518 -9.94887 68.6512C-5.68818 63.8547 -5.4778 58.5641 -9.31521 52.7769C-13.0918 47.9334 -17.1041 43.2765 -21.3546 38.8075C-22.9616 39.986 -24.6509 40.1981 -26.4239 39.4425C-24.068 37.4639 -22.167 35.1361 -20.721 32.4578C-16.8468 20.8772 -18.5374 19.1843 -25.7902 27.378C-26.0019 26.9551 -26.2122 26.531 -26.4239 26.1081C-20.1913 18.2827 -14.9116 9.81595 -10.5825 0.709168C-8.83744 -7.64199 -8.20378 -16.1087 -8.68156 -24.6897C-8.68156 -25.5368 -8.25954 -25.9597 -7.41425 -25.9597C-3.67316 -23.5341 0.552052 -22.2641 5.25884 -22.1498C5.55919 -23.7893 5.13717 -25.0593 3.99153 -25.9597C1.87892 -26.8067 -0.232412 -27.6525 -2.34502 -28.4996C0.189602 -28.4996 2.72422 -28.4996 5.25884 -28.4996C7.4348 -38.9842 8.06846 -49.568 7.1598 -60.2482C4.94961 -66.0633 0.937314 -69.8731 -4.87963 -71.6777Z" fill="#191A17"/>
<path fill-rule="evenodd" clip-rule="evenodd" d="M-68.245 73.0962C-64.4203 72.8866 -60.6184 73.0987 -56.8392 73.7312C-48.5282 79.3773 -39.6571 84.0342 -30.2258 87.7006C-22.0795 88.653 -14.4757 86.9602 -7.41421 82.6208C-5.72489 81.3508 -5.72489 80.0809 -7.41421 78.8109C-0.0182015 79.1957 0.827093 82.1585 -4.8796 87.7006C-27.0233 98.25 -49.8348 99.9441 -73.3143 92.7803C-79.1984 90.149 -81.0993 85.7042 -79.0171 79.4459C-75.8197 76.4908 -72.2282 74.375 -68.245 73.0962Z" fill="#B9D8C1"/>
</g>
<rect x="-268.5" y="-258.5" width="402" height="387" rx="18.5" fill="#FDFFEF" stroke="black" stroke-width="3"/>
<g clip-path="url(#clip2_639_9905)">
<path opacity="0.999" fill-rule="evenodd" clip-rule="evenodd" d="M-1.07774 -72.9479C-2.71384 -73.2489 -3.98114 -72.826 -4.87967 -71.6779C-9.14669 -65.4641 -12.9486 -58.9023 -16.2854 -51.9938C-14.6139 -51.7461 -12.9233 -51.9582 -11.2162 -52.6288C-9.58011 -52.9297 -8.3128 -52.5068 -7.41428 -51.3588C-14.1298 -50.9156 -16.876 -47.5287 -15.6518 -41.1992C-12.7497 -37.2878 -10.0034 -33.2659 -7.41428 -29.1348C-5.77565 -28.5125 -4.08506 -28.3004 -2.34505 -28.4998C-0.232446 -27.6527 1.87889 -26.807 3.99149 -25.9599C-0.124725 -26.2926 -3.92665 -26.2926 -7.41428 -25.9599C-8.25958 -25.9599 -8.68159 -25.537 -8.68159 -24.69C-10.7384 -29.6427 -13.4834 -34.2996 -16.9191 -38.6594C-18.7098 -34.6451 -20.8224 -30.8352 -23.2556 -27.2298C-23.6777 -22.573 -24.1009 -17.9173 -24.5229 -13.2604C-32.7592 -1.83856 -40.363 10.0138 -47.3345 22.298C-44.8379 30.4828 -42.9369 38.9483 -41.6316 47.6969C-43.8215 55.1667 -48.8908 59.1887 -56.8393 59.7614C-63.1759 60.6085 -69.5124 60.6085 -75.8489 59.7614C-89.1861 57.492 -102.281 54.3171 -115.136 50.2368C-115.916 48.5884 -115.916 47.3185 -115.136 46.427C-104.822 49.9866 -94.2617 52.7386 -83.4528 54.6816C-71.1358 55.7725 -58.886 55.3496 -46.7008 53.4117C-44.6998 45.6599 -45.7554 38.2523 -49.8691 31.1876C-51.1326 26.9955 -51.5546 22.7628 -51.1364 18.4882C-43.5997 7.12598 -35.5739 -3.88063 -27.0576 -14.5304C-26.2123 -17.4932 -26.2123 -20.4572 -27.0576 -23.42C-29.5225 -21.6891 -32.2687 -20.6299 -35.2951 -20.2451C-47.1229 -19.3981 -58.9519 -19.3981 -70.7797 -20.2451C-72.355 -21.7107 -73.6223 -23.4048 -74.5816 -25.3249C-78.3836 -25.7478 -82.1855 -26.172 -85.9874 -26.5949C-89.1265 -28.6814 -92.0832 -31.0092 -94.8586 -33.5796C-96.0207 -32.7833 -97.288 -32.3592 -98.6605 -32.3096C-99.5058 -31.8867 -100.35 -31.4626 -101.195 -31.0397C-123.747 -25.8735 -134.941 -35.1861 -134.779 -58.9785C-127.625 -68.0535 -120.233 -76.9431 -112.601 -85.6473C-112.416 -88.5758 -111.994 -91.5386 -111.334 -94.5369C-109.875 -96.1002 -108.397 -96.1002 -106.898 -94.5369C-105.795 -95.3091 -105.162 -96.3669 -104.997 -97.7118C-110.035 -101.707 -115.526 -104.882 -121.472 -107.236C-122.78 -112.163 -123.624 -116.819 -124.007 -121.206C-122.943 -125.237 -120.832 -128.624 -117.67 -131.365C-120.108 -134.982 -122.221 -138.792 -124.007 -142.795C-133.202 -145.801 -137.004 -151.939 -135.412 -161.209C-137.759 -165.843 -138.393 -170.711 -137.313 -175.813C-132.553 -179.53 -128.963 -184.186 -126.541 -189.783C-124.495 -190.613 -122.382 -191.248 -120.205 -191.688C-112.294 -200.306 -103.845 -208.349 -94.8586 -215.817C-73.6616 -217.031 -52.751 -220.206 -32.1268 -225.341C-23.7055 -223.276 -16.947 -218.619 -11.8499 -211.372C-3.824 -200.789 4.20313 -190.206 12.229 -179.623C8.66786 -163.431 6.7669 -146.922 6.52611 -130.095C0.0184807 -130.289 -4.83911 -133.252 -8.04794 -138.985C-10.6332 -137.029 -13.3795 -135.335 -16.2854 -133.905C-17.2765 -130.634 -19.1774 -128.094 -21.9883 -126.286C-22.4103 -123.746 -22.8336 -121.206 -23.2556 -118.666C-26.0665 -116.2 -28.1791 -113.237 -29.5922 -109.776C-35.2609 -106.657 -40.9637 -103.482 -46.7008 -100.252C-40.742 -98.0826 -35.8844 -94.4849 -32.1268 -89.4572C-25.7142 -79.9923 -20.645 -69.8327 -16.9191 -58.9785C-14.2147 -64.6285 -11.0464 -69.9203 -7.41428 -74.8528C-5.0178 -75.1106 -2.90647 -74.4756 -1.07774 -72.9479Z" fill="#161712"/>
<path opacity="0.996" fill-rule="evenodd" clip-rule="evenodd" d="M-4.87963 -71.6777C-3.98111 -72.8257 -2.7138 -73.2486 -1.07771 -72.9477C8.3384 -67.7295 12.9856 -59.6869 12.8627 -48.8187C10.7818 -35.4932 8.8808 -22.3708 7.1598 -9.45039C4.21838 -5.11099 0.838464 -4.6881 -2.97867 -8.18045C-4.09263 2.23691 -8.52821 10.9144 -16.2854 17.8534C-12.8117 23.9212 -13.2337 29.8481 -17.5527 35.6327C-9.72455 42.2275 -4.65532 50.4821 -2.34502 60.3966C-3.05851 64.6662 -4.7491 68.476 -7.41425 71.8261C-5.37008 73.8428 -2.83546 75.1127 0.189602 75.6359C2.67226 79.0508 2.88263 82.4378 0.823256 85.7955C-1.55041 88.6008 -4.29667 90.9286 -7.41425 92.7802C-26.5798 101.782 -46.4347 103.899 -66.9777 99.1299C-75.0366 96.6777 -82.43 93.0799 -89.1556 88.3354C-105.266 90.7483 -121.107 89.6904 -136.68 85.1605C-145.84 78.9924 -148.798 70.7378 -145.551 60.3966C-140.502 56.7099 -135.011 55.8642 -129.076 57.8567C-127.015 52.6182 -123.213 49.4433 -117.67 48.3321C-122.48 46.7307 -126.703 44.1908 -130.343 40.7124C-126.356 37.7763 -122.554 34.6015 -118.937 31.1879C-121.625 26.6986 -123.95 22.0417 -125.908 17.2185C-127.381 8.95111 -125.269 1.7556 -119.571 -4.37061C-114.067 -10.9426 -108.364 -17.2923 -102.462 -23.4198C-101.388 -25.8441 -100.964 -28.384 -101.195 -31.0395C-100.35 -31.4624 -99.5058 -31.8865 -98.6605 -32.3094C-98.2942 -28.3104 -98.9279 -24.5005 -100.561 -20.8799C-107.807 -12.3509 -114.565 -3.46133 -120.838 5.78895C-120.368 16.1098 -118.044 26.0585 -113.868 35.6327C-115.071 36.4162 -116.127 36.2054 -117.036 34.9977C-119.889 37.3814 -123.057 39.2863 -126.541 40.7124C-122.552 42.5208 -118.75 44.4258 -115.135 46.4272C-115.916 47.3187 -115.916 48.5886 -115.135 50.237C-118.399 51.5933 -121.145 53.7103 -123.373 56.5868C-124.155 57.7919 -123.945 58.8498 -122.739 59.7616C-116.718 62.7054 -110.382 63.5511 -103.73 62.3015C-96.1905 67.3648 -87.953 70.9625 -79.0172 73.096C-67.254 68.9014 -56.0586 69.9606 -45.4335 76.2709C-32.8339 77.5917 -21.0061 75.0518 -9.94887 68.6512C-5.68818 63.8547 -5.4778 58.5641 -9.31521 52.7769C-13.0918 47.9334 -17.1041 43.2765 -21.3546 38.8075C-22.9616 39.986 -24.6509 40.1981 -26.4239 39.4425C-24.068 37.4639 -22.167 35.1361 -20.721 32.4578C-16.8468 20.8772 -18.5374 19.1843 -25.7902 27.378C-26.0019 26.9551 -26.2122 26.531 -26.4239 26.1081C-20.1913 18.2827 -14.9116 9.81595 -10.5825 0.709168C-8.83744 -7.64199 -8.20378 -16.1087 -8.68156 -24.6897C-8.68156 -25.5368 -8.25954 -25.9597 -7.41425 -25.9597C-3.67316 -23.5341 0.552052 -22.2641 5.25884 -22.1498C5.55919 -23.7893 5.13717 -25.0593 3.99153 -25.9597C1.87892 -26.8067 -0.232412 -27.6525 -2.34502 -28.4996C0.189602 -28.4996 2.72422 -28.4996 5.25884 -28.4996C7.4348 -38.9842 8.06846 -49.568 7.1598 -60.2482C4.94961 -66.0633 0.937314 -69.8731 -4.87963 -71.6777Z" fill="#191A17"/>
<path fill-rule="evenodd" clip-rule="evenodd" d="M-68.245 73.0962C-64.4203 72.8866 -60.6184 73.0987 -56.8392 73.7312C-48.5282 79.3773 -39.6571 84.0342 -30.2258 87.7006C-22.0795 88.653 -14.4757 86.9602 -7.41421 82.6208C-5.72489 81.3508 -5.72489 80.0809 -7.41421 78.8109C-0.0182015 79.1957 0.827093 82.1585 -4.8796 87.7006C-27.0233 98.25 -49.8348 99.9441 -73.3143 92.7803C-79.1984 90.149 -81.0993 85.7042 -79.0171 79.4459C-75.8197 76.4908 -72.2282 74.375 -68.245 73.0962Z" fill="#B9D8C1"/>
</g>
</g>
<defs>
<clipPath id="clip0_639_9905">
<rect width="135" height="130" fill="white"/>
</clipPath>
<clipPath id="clip1_639_9905">
<rect width="175" height="332" fill="white" transform="translate(-155 -231)"/>
</clipPath>
<clipPath id="clip2_639_9905">
<rect width="175" height="332" fill="white" transform="translate(-155 -231)"/>
</clipPath>
</defs>
</svg>
