<svg width="135" height="130" viewBox="0 0 135 130" fill="none" xmlns="http://www.w3.org/2000/svg">
<g clip-path="url(#clip0_639_9901)">
<rect width="135" height="130" fill="white"/>
<rect x="1.5" y="-128.5" width="402" height="387" rx="18.5" fill="#FDFFEF" stroke="black" stroke-width="3"/>
<g clip-path="url(#clip1_639_9901)">
<path opacity="0.999" fill-rule="evenodd" clip-rule="evenodd" d="M268.922 57.0521C267.286 56.7511 266.019 57.174 265.12 58.3221C260.853 64.5359 257.051 71.0977 253.715 78.0062C255.386 78.2539 257.077 78.0418 258.784 77.3712C260.42 77.0703 261.687 77.4932 262.586 78.6412C255.87 79.0844 253.124 82.4713 254.348 88.8008C257.25 92.7122 259.997 96.7341 262.586 100.865C264.224 101.488 265.915 101.7 267.655 101.5C269.768 102.347 271.879 103.193 273.991 104.04C269.875 103.707 266.073 103.707 262.586 104.04C261.74 104.04 261.318 104.463 261.318 105.31C259.262 100.357 256.517 95.7004 253.081 91.3406C251.29 95.3549 249.178 99.1648 246.744 102.77C246.322 107.427 245.899 112.083 245.477 116.74C237.241 128.161 229.637 140.014 222.665 152.298C225.162 160.483 227.063 168.948 228.368 177.697C226.178 185.167 221.109 189.189 213.161 189.761C206.824 190.608 200.488 190.608 194.151 189.761C180.814 187.492 167.719 184.317 154.864 180.237C154.084 178.588 154.084 177.318 154.864 176.427C165.178 179.987 175.738 182.739 186.547 184.682C198.864 185.773 211.114 185.35 223.299 183.412C225.3 175.66 224.245 168.252 220.131 161.188C218.867 156.996 218.445 152.763 218.864 148.488C226.4 137.126 234.426 126.119 242.942 115.47C243.788 112.507 243.788 109.543 242.942 106.58C240.478 108.311 237.731 109.37 234.705 109.755C222.877 110.602 211.048 110.602 199.22 109.755C197.645 108.289 196.378 106.595 195.418 104.675C191.616 104.252 187.815 103.828 184.013 103.405C180.873 101.319 177.917 98.9908 175.141 96.4204C173.979 97.2167 172.712 97.6408 171.34 97.6904C170.494 98.1133 169.65 98.5374 168.805 98.9603C146.253 104.126 135.059 94.8139 135.221 71.0215C142.375 61.9465 149.767 53.0569 157.399 44.3527C157.584 41.4242 158.006 38.4614 158.666 35.4631C160.125 33.8998 161.603 33.8998 163.102 35.4631C164.205 34.6909 164.838 33.6331 165.003 32.2882C159.965 28.2929 154.474 25.1181 148.528 22.7636C147.22 17.8375 146.376 13.1815 145.993 8.7942C147.057 4.76276 149.168 1.37633 152.33 -1.36536C149.892 -4.98204 147.779 -8.79187 145.993 -12.7949C136.798 -15.8011 132.996 -21.9392 134.588 -31.2091C132.241 -35.8431 131.607 -40.7112 132.687 -45.8134C137.447 -49.5297 141.037 -54.1861 143.459 -59.7828C145.505 -60.6134 147.618 -61.2484 149.795 -61.6878C157.706 -70.306 166.155 -78.3491 175.141 -85.8167C196.338 -87.0312 217.249 -90.206 237.873 -95.3413C246.294 -93.2757 253.053 -88.6194 258.15 -81.3719C266.176 -70.7891 274.203 -60.2061 282.229 -49.6233C278.668 -33.4312 276.767 -16.9219 276.526 -0.0954138C270.018 -0.288953 265.161 -3.25212 261.952 -8.98503C259.367 -7.02855 256.62 -5.33533 253.715 -3.90525C252.724 -0.634125 250.823 1.90577 248.012 3.71442C247.59 6.25431 247.166 8.7942 246.744 11.3341C243.933 13.7997 241.821 16.7631 240.408 20.2237C234.739 23.3427 229.036 26.5176 223.299 29.7483C229.258 31.9174 234.116 35.5151 237.873 40.5428C244.286 50.0077 249.355 60.1673 253.081 71.0215C255.785 65.3715 258.954 60.0797 262.586 55.1472C264.982 54.8894 267.094 55.5244 268.922 57.0521Z" fill="#161712"/>
<path opacity="0.996" fill-rule="evenodd" clip-rule="evenodd" d="M265.12 58.3223C266.019 57.1743 267.286 56.7514 268.922 57.0523C278.338 62.2705 282.986 70.3131 282.863 81.1813C280.782 94.5068 278.881 107.629 277.16 120.55C274.218 124.889 270.838 125.312 267.021 121.82C265.907 132.237 261.472 140.914 253.715 147.853C257.188 153.921 256.766 159.848 252.447 165.633C260.275 172.227 265.345 180.482 267.655 190.397C266.941 194.666 265.251 198.476 262.586 201.826C264.63 203.843 267.165 205.113 270.19 205.636C272.672 209.051 272.883 212.438 270.823 215.796C268.45 218.601 265.703 220.929 262.586 222.78C243.42 231.782 223.565 233.899 203.022 229.13C194.963 226.678 187.57 223.08 180.844 218.335C164.734 220.748 148.893 219.69 133.32 215.161C124.16 208.992 121.202 200.738 124.449 190.397C129.498 186.71 134.989 185.864 140.924 187.857C142.985 182.618 146.787 179.443 152.33 178.332C147.52 176.731 143.297 174.191 139.657 170.712C143.644 167.776 147.446 164.601 151.063 161.188C148.375 156.699 146.05 152.042 144.092 147.218C142.619 138.951 144.731 131.756 150.429 125.629C155.933 119.057 161.636 112.708 167.538 106.58C168.612 104.156 169.036 101.616 168.805 98.9605C169.65 98.5376 170.494 98.1135 171.34 97.6906C171.706 101.69 171.072 105.499 169.439 109.12C162.193 117.649 155.435 126.539 149.162 135.789C149.632 146.11 151.956 156.059 156.132 165.633C154.929 166.416 153.873 166.205 152.964 164.998C150.111 167.381 146.943 169.286 143.459 170.712C147.448 172.521 151.25 174.426 154.865 176.427C154.084 177.319 154.084 178.589 154.865 180.237C151.601 181.593 148.855 183.71 146.627 186.587C145.845 187.792 146.055 188.85 147.261 189.762C153.282 192.705 159.618 193.551 166.27 192.302C173.81 197.365 182.047 200.963 190.983 203.096C202.746 198.901 213.941 199.961 224.566 206.271C237.166 207.592 248.994 205.052 260.051 198.651C264.312 193.855 264.522 188.564 260.685 182.777C256.908 177.933 252.896 173.276 248.645 168.808C247.038 169.986 245.349 170.198 243.576 169.442C245.932 167.464 247.833 165.136 249.279 162.458C253.153 150.877 251.463 149.184 244.21 157.378C243.998 156.955 243.788 156.531 243.576 156.108C249.809 148.283 255.088 139.816 259.417 130.709C261.163 122.358 261.796 113.891 261.318 105.31C261.318 104.463 261.74 104.04 262.586 104.04C266.327 106.466 270.552 107.736 275.259 107.85C275.559 106.211 275.137 104.941 273.992 104.04C271.879 103.193 269.768 102.347 267.655 101.5C270.19 101.5 272.724 101.5 275.259 101.5C277.435 91.0158 278.068 80.432 277.16 69.7518C274.95 63.9367 270.937 60.1269 265.12 58.3223Z" fill="#191A17"/>
</g>
</g>
<defs>
<clipPath id="clip0_639_9901">
<rect width="135" height="130" fill="white"/>
</clipPath>
<clipPath id="clip1_639_9901">
<rect width="175" height="332" fill="white" transform="translate(115 -101)"/>
</clipPath>
</defs>
</svg>
