<svg width="135" height="130" viewBox="0 0 135 130" fill="none" xmlns="http://www.w3.org/2000/svg">
<g clip-path="url(#clip0_639_9895)">
<rect x="1.5" y="1.5" width="402" height="387" rx="18.5" fill="#FDFFEF" stroke="black" stroke-width="3"/>
<g clip-path="url(#clip1_639_9895)">
<path opacity="0.999" fill-rule="evenodd" clip-rule="evenodd" d="M268.922 187.052C267.286 186.751 266.019 187.174 265.12 188.322C260.853 194.536 257.051 201.098 253.715 208.006C255.386 208.254 257.077 208.042 258.784 207.371C260.42 207.07 261.687 207.493 262.586 208.641C255.87 209.084 253.124 212.471 254.348 218.801C257.25 222.712 259.997 226.734 262.586 230.865C264.224 231.488 265.915 231.7 267.655 231.5C269.768 232.347 271.879 233.193 273.991 234.04C269.875 233.707 266.073 233.707 262.586 234.04C261.74 234.04 261.318 234.463 261.318 235.31C259.262 230.357 256.517 225.7 253.081 221.341C251.29 225.355 249.178 229.165 246.744 232.77C246.322 237.427 245.899 242.083 245.477 246.74C237.241 258.161 229.637 270.014 222.665 282.298C225.162 290.483 227.063 298.948 228.368 307.697C226.178 315.167 221.109 319.189 213.161 319.761C206.824 320.608 200.488 320.608 194.151 319.761C180.814 317.492 167.719 314.317 154.864 310.237C154.084 308.588 154.084 307.318 154.864 306.427C165.178 309.987 175.738 312.739 186.547 314.682C198.864 315.772 211.114 315.35 223.299 313.412C225.3 305.66 224.245 298.252 220.131 291.188C218.867 286.996 218.445 282.763 218.864 278.488C226.4 267.126 234.426 256.119 242.942 245.47C243.788 242.507 243.788 239.543 242.942 236.58C240.478 238.311 237.731 239.37 234.705 239.755C222.877 240.602 211.048 240.602 199.22 239.755C197.645 238.289 196.378 236.595 195.418 234.675C191.616 234.252 187.815 233.828 184.013 233.405C180.873 231.319 177.917 228.991 175.141 226.42C173.979 227.217 172.712 227.641 171.34 227.69C170.494 228.113 169.65 228.537 168.805 228.96C146.253 234.126 135.059 224.814 135.221 201.022C142.375 191.946 149.767 183.057 157.399 174.353C157.584 171.424 158.006 168.461 158.666 165.463C160.125 163.9 161.603 163.9 163.102 165.463C164.205 164.691 164.838 163.633 165.003 162.288C159.965 158.293 154.474 155.118 148.528 152.764C147.22 147.837 146.376 143.181 145.993 138.794C147.057 134.763 149.168 131.376 152.33 128.635C149.892 125.018 147.779 121.208 145.993 117.205C136.798 114.199 132.996 108.061 134.588 98.7909C132.241 94.1569 131.607 89.2888 132.687 84.1866C137.447 80.4703 141.037 75.8139 143.459 70.2172C145.505 69.3866 147.618 68.7516 149.795 68.3122C157.706 59.694 166.155 51.6509 175.141 44.1833C196.338 42.9688 217.249 39.794 237.873 34.6587C246.294 36.7243 253.053 41.3806 258.15 48.6281C266.176 59.2109 274.203 69.7939 282.229 80.3767C278.668 96.5688 276.767 113.078 276.526 129.905C270.018 129.711 265.161 126.748 261.952 121.015C259.367 122.971 256.62 124.665 253.715 126.095C252.724 129.366 250.823 131.906 248.012 133.714C247.59 136.254 247.166 138.794 246.744 141.334C243.933 143.8 241.821 146.763 240.408 150.224C234.739 153.343 229.036 156.518 223.299 159.748C229.258 161.917 234.116 165.515 237.873 170.543C244.286 180.008 249.355 190.167 253.081 201.022C255.785 195.372 258.954 190.08 262.586 185.147C264.982 184.889 267.094 185.524 268.922 187.052Z" fill="#161712"/>
<path fill-rule="evenodd" clip-rule="evenodd" d="M149.795 94.346C148.425 100.661 147.158 107.011 145.993 113.395C141.268 111.535 138.311 108.149 137.122 103.236C137.525 101.779 138.369 100.72 139.657 100.061C135.084 94.3341 134.873 88.6193 139.023 82.9165C140.266 89.0288 143.857 92.8386 149.795 94.346Z" fill="#D7B402"/>
</g>
</g>
<defs>
<clipPath id="clip0_639_9895">
<rect width="135" height="130" fill="white"/>
</clipPath>
<clipPath id="clip1_639_9895">
<rect width="175" height="332" fill="white" transform="translate(115 29)"/>
</clipPath>
</defs>
</svg>
