<svg width="135" height="130" viewBox="0 0 135 130" fill="none" xmlns="http://www.w3.org/2000/svg">
<g clip-path="url(#clip0_639_9896)">
<rect width="135" height="130" fill="white"/>
<rect x="-133.5" y="1.5" width="402" height="387" rx="18.5" fill="#FDFFEF" stroke="black" stroke-width="3"/>
<g clip-path="url(#clip1_639_9896)">
<path opacity="0.999" fill-rule="evenodd" clip-rule="evenodd" d="M133.922 187.052C132.286 186.751 131.019 187.174 130.12 188.322C125.853 194.536 122.051 201.098 118.715 208.006C120.386 208.254 122.077 208.042 123.784 207.371C125.42 207.07 126.687 207.493 127.586 208.641C120.87 209.084 118.124 212.471 119.348 218.801C122.25 222.712 124.997 226.734 127.586 230.865C129.224 231.488 130.915 231.7 132.655 231.5C134.768 232.347 136.879 233.193 138.991 234.04C134.875 233.707 131.073 233.707 127.586 234.04C126.74 234.04 126.318 234.463 126.318 235.31C124.262 230.357 121.517 225.7 118.081 221.341C116.29 225.355 114.178 229.165 111.744 232.77C111.322 237.427 110.899 242.083 110.477 246.74C102.241 258.161 94.637 270.014 87.6655 282.298C90.1621 290.483 92.0631 298.948 93.3684 307.697C91.1785 315.167 86.1092 319.189 78.1607 319.761C71.8241 320.608 65.4876 320.608 59.1511 319.761C45.8139 317.492 32.7188 314.317 19.8645 310.237C19.0838 308.588 19.0838 307.318 19.8645 306.427C30.1778 309.987 40.7383 312.739 51.5472 314.682C63.8642 315.772 76.114 315.35 88.2992 313.412C90.3002 305.66 89.2446 298.252 85.1309 291.188C83.8674 286.996 83.4454 282.763 83.8636 278.488C91.4003 267.126 99.4261 256.119 107.942 245.47C108.788 242.507 108.788 239.543 107.942 236.58C105.478 238.311 102.731 239.37 99.7049 239.755C87.8771 240.602 76.0481 240.602 64.2203 239.755C62.645 238.289 61.3777 236.595 60.4184 234.675C56.6164 234.252 52.8145 233.828 49.0126 233.405C45.8735 231.319 42.9168 228.991 40.1414 226.42C38.9793 227.217 37.712 227.641 36.3395 227.69C35.4942 228.113 34.6502 228.537 33.8049 228.96C11.2531 234.126 0.0589952 224.814 0.221211 201.022C7.37517 191.946 14.7674 183.057 22.3991 174.353C22.5841 171.424 23.0061 168.461 23.6664 165.463C25.1251 163.9 26.6028 163.9 28.102 165.463C29.2046 164.691 29.8382 163.633 30.003 162.288C24.9654 158.293 19.4742 155.118 13.528 152.764C12.2201 147.837 11.3761 143.181 10.9933 138.794C12.0566 134.763 14.1679 131.376 17.3299 128.635C14.8916 125.018 12.779 121.208 10.9933 117.205C1.79774 114.199 -2.00418 108.061 -0.412444 98.7909C-2.7595 94.1569 -3.39315 89.2888 -2.31341 84.1866C2.4466 80.4703 6.03689 75.8139 8.45872 70.2172C10.5054 69.3866 12.618 68.7516 14.7953 68.3122C22.7058 59.694 31.1549 51.6509 40.1414 44.1833C61.3384 42.9688 82.249 39.794 102.873 34.6587C111.294 36.7243 118.053 41.3806 123.15 48.6281C131.176 59.2109 139.203 69.7939 147.229 80.3767C143.668 96.5688 141.767 113.078 141.526 129.905C135.018 129.711 130.161 126.748 126.952 121.015C124.367 122.971 121.62 124.665 118.715 126.095C117.724 129.366 115.823 131.906 113.012 133.714C112.59 136.254 112.166 138.794 111.744 141.334C108.933 143.8 106.821 146.763 105.408 150.224C99.7392 153.343 94.0363 156.518 88.2992 159.748C94.258 161.917 99.1156 165.515 102.873 170.543C109.286 180.008 114.355 190.167 118.081 201.022C120.785 195.372 123.954 190.08 127.586 185.147C129.982 184.889 132.094 185.524 133.922 187.052Z" fill="#161712"/>
<path fill-rule="evenodd" clip-rule="evenodd" d="M56.6165 142.604C56.6165 143.45 56.6165 144.297 56.6165 145.144C56.4505 148.785 58.1411 150.9 61.6857 151.493C64.7881 152.729 68.168 153.152 71.8242 152.763C68.6952 153.801 65.3166 154.436 61.6857 154.668C58.4249 157.324 55.045 159.653 51.5473 161.653C47.3892 160.182 43.1653 158.7 38.8742 157.208C40.7891 155.157 42.4784 155.157 43.9434 157.208C48.2269 158.399 52.0288 157.552 55.3492 154.668C52.0732 149.796 52.4965 149.371 56.6165 153.398C57.8838 154.245 59.1511 154.245 60.4184 153.398C56.9143 152.005 54.803 149.465 54.0819 145.779C49.792 142.843 46.4134 143.69 43.9434 148.319C40.4951 149.083 37.1164 148.871 33.8049 147.684C32.4793 144.782 32.4793 141.819 33.8049 138.794C28.1895 138.452 22.697 138.875 17.3299 140.064C17.2919 138.798 17.9256 137.951 19.2309 137.524C22.4511 136.88 25.6194 136.033 28.7357 134.984C26.5927 131.371 27.016 128.408 30.003 126.095C31.3565 124.908 33.0458 124.484 35.0722 124.825C36.4891 129.085 36.4891 133.318 35.0722 137.524C41.3644 139.8 47.701 141.917 54.0819 143.874C54.9474 143.413 55.7927 142.99 56.6165 142.604Z" fill="#241F14"/>
<path fill-rule="evenodd" clip-rule="evenodd" d="M132.655 118.475C134.344 118.475 136.035 118.475 137.724 118.475C138.085 120.746 137.663 122.862 136.457 124.825C133.598 123.655 132.331 121.539 132.655 118.475Z" fill="#A8C4AE"/>
<path fill-rule="evenodd" clip-rule="evenodd" d="M116.18 115.936C116.245 122.154 113.922 127.233 109.21 131.175C106.168 128.344 103.422 125.381 100.972 122.285C105.811 120.159 110.88 118.042 116.18 115.936Z" fill="#94C816"/>
<path fill-rule="evenodd" clip-rule="evenodd" d="M127.586 113.395C126.432 117.092 123.898 119.632 119.982 121.015C118.798 118.99 118.798 116.873 119.982 114.665C122.288 112.175 124.823 111.752 127.586 113.395Z" fill="#A7C1A8"/>
<path fill-rule="evenodd" clip-rule="evenodd" d="M78.1607 96.886C79.006 99.0026 79.85 101.119 80.6953 103.236C84.8344 111.957 88.6363 120.847 92.1011 129.905C91.1455 134.477 89.4562 138.71 87.0319 142.604C85.9762 143.027 84.9193 143.451 83.8636 143.874C80.6396 143.149 77.4713 142.302 74.3588 141.334C73.4603 140.186 72.1929 139.763 70.5569 140.064C69.6583 138.916 68.391 138.493 66.7549 138.794C67.8549 134.765 67.8549 130.955 66.7549 127.365C66.7549 126.518 66.3329 126.095 65.4876 126.095C60.6718 121.768 58.5592 123.037 59.1511 129.905C59.0053 133.599 59.8494 136.985 61.6857 140.064C59.3032 139.72 57.6138 140.567 56.6165 142.604C55.7927 142.99 54.9474 143.413 54.0818 143.874C47.7009 141.917 41.3644 139.8 35.0722 137.524C36.4891 133.319 36.4891 129.086 35.0722 124.825C33.0458 124.485 31.3565 124.908 30.003 126.095C27.0159 128.408 26.5926 131.371 28.7357 134.984C25.6194 136.034 22.4511 136.88 19.2309 137.524C17.9255 137.951 17.2919 138.798 17.3299 140.064C15.562 142.038 14.718 141.615 14.7953 138.794C16.1361 135.37 17.4034 131.984 18.5972 128.635C12.9488 114.607 14.2161 101.272 22.3991 88.6313C31.0891 91.5338 39.9602 94.4971 49.0126 97.521C58.7645 98.3988 68.4797 98.1872 78.1607 96.886Z" fill="#DBB701"/>
<path fill-rule="evenodd" clip-rule="evenodd" d="M65.4876 126.095C63.9985 125.817 62.7312 126.241 61.6857 127.365C63.5334 128.993 65.224 128.993 66.7549 127.365C67.855 130.956 67.855 134.766 66.7549 138.795C68.391 138.494 69.6583 138.917 70.5569 140.065C67.6002 140.065 64.6423 140.065 61.6857 140.065C59.8494 136.986 59.0054 133.599 59.1511 129.905C58.5593 123.038 60.6719 121.768 65.4876 126.095Z" fill="#141008"/>
<path fill-rule="evenodd" clip-rule="evenodd" d="M65.4876 126.095C66.3329 126.095 66.7549 126.518 66.7549 127.365C65.224 128.993 63.5334 128.993 61.6857 127.365C62.7312 126.24 63.9985 125.817 65.4876 126.095Z" fill="#8D8E8D"/>
<path fill-rule="evenodd" clip-rule="evenodd" d="M30.003 126.095C31.4921 125.817 32.7594 126.24 33.8049 127.365C31.8381 129.013 30.5707 128.59 30.003 126.095Z" fill="#A9ABA9"/>
<path fill-rule="evenodd" clip-rule="evenodd" d="M100.972 122.285C102.164 126.367 104.064 130.177 106.675 133.714C107.52 136.254 107.52 138.794 106.675 141.334C105.83 143.027 104.986 143.027 104.141 141.334C103.43 144.877 101.74 147.84 99.0713 150.224C97.9117 149.172 97.0677 147.902 96.5367 146.414C93.215 153.712 87.5122 158.157 79.428 159.748C68.5963 161.791 58.0346 163.061 47.7453 163.558C37.8438 162.58 29.3947 158.558 22.3991 151.493C25.5281 150.645 28.4847 149.798 31.2703 148.954C31.7037 147.889 32.5477 147.465 33.8049 147.684C37.1164 148.871 40.495 149.083 43.9434 148.319C46.4133 143.69 49.792 142.843 54.0818 145.779C54.8029 149.465 56.9143 152.005 60.4184 153.398C59.1511 154.245 57.8838 154.245 56.6164 153.398C52.4964 149.371 52.0731 149.796 55.3491 154.668C52.0288 157.552 48.2269 158.399 43.9434 157.208C42.4783 155.157 40.789 155.157 38.8741 157.208C43.1652 158.7 47.3892 160.182 51.5472 161.653C55.045 159.653 58.4249 157.324 61.6857 154.668C65.3165 154.436 68.6952 153.801 71.8241 152.763C74.2067 153.108 75.896 152.261 76.8934 150.224C90.3522 147.459 96.0551 138.992 94.002 124.825C91.2913 117.697 87.9114 110.924 83.8636 104.506C82.0716 94.2714 83.3389 84.5351 87.6655 75.2968C88.7212 74.2385 89.7781 73.1802 90.8338 72.1219C96.6887 70.4371 102.603 69.5904 108.576 69.582C111.744 71.0637 114.067 73.3919 115.546 76.5667C119.981 85.5096 119.769 94.3992 114.913 103.236C118.337 107.83 116.646 111.852 109.843 115.3C106.595 116.671 103.217 117.306 99.7049 117.205C99.3653 119.236 99.7886 120.929 100.972 122.285Z" fill="#DAB701"/>
<path fill-rule="evenodd" clip-rule="evenodd" d="M23.6664 104.506C27.8384 104.023 30.795 105.716 32.5376 109.586C30.61 110.068 28.4987 110.28 26.201 110.221C24.9844 112.024 23.9288 113.928 23.0328 115.936C22.2293 112.056 22.4397 108.247 23.6664 104.506Z" fill="#141007"/>
<path fill-rule="evenodd" clip-rule="evenodd" d="M61.6857 100.696C65.2658 100.164 68.0108 101.434 69.9232 104.506C76.5791 117.684 75.5222 118.742 66.7549 107.681C61.9898 106.187 58.3995 107.669 55.9828 112.126C56.4897 107.722 58.3907 103.912 61.6857 100.696Z" fill="#1B1507"/>
<path fill-rule="evenodd" clip-rule="evenodd" d="M79.4281 94.3467C80.5294 97.1621 80.9514 100.125 80.6954 103.236C79.8501 101.12 79.0061 99.0032 78.1608 96.8866C78.1608 96.4633 78.1608 96.0399 78.1608 95.6166C78.1608 94.77 78.5828 94.3467 79.4281 94.3467Z" fill="#726005"/>
<path fill-rule="evenodd" clip-rule="evenodd" d="M14.7953 94.346C13.4253 100.661 12.158 107.011 10.9934 113.395C6.26756 111.535 3.31093 108.149 2.12219 103.236C2.52519 101.779 3.36922 100.72 4.65681 100.061C0.0843572 94.3341 -0.127283 88.6193 4.02315 82.9165C5.26638 89.0288 8.85667 92.8386 14.7953 94.346Z" fill="#D7B402"/>
<path fill-rule="evenodd" clip-rule="evenodd" d="M125.051 89.2666C126.318 89.6899 127.164 90.5365 127.586 91.8065C130.349 99.6126 127.814 102.576 119.982 100.696C121.112 96.5015 122.802 92.6916 125.051 89.2666Z" fill="#AFCAB3"/>
<path fill-rule="evenodd" clip-rule="evenodd" d="M97.1703 57.5181C96.2008 60.815 95.7775 64.2015 95.903 67.6776C99.6479 66.8411 103.45 66.4177 107.309 66.4077C107.309 65.1377 107.309 63.8678 107.309 62.5978C107.731 62.5978 108.154 62.5978 108.576 62.5978C108.623 66.6637 110.734 68.7803 114.913 68.9476C117.239 72.3543 118.507 76.1642 118.715 80.3771C124.885 79.4391 126.574 76.0525 123.784 70.2175C129.394 76.0134 128.127 80.035 119.982 82.282C121.119 85.2166 122.808 87.5448 125.051 89.2667C122.802 92.6917 121.112 96.5016 119.982 100.696C127.814 102.576 130.348 99.6127 127.586 91.8066C132.475 100.074 129.94 103.884 119.982 103.236C120.172 107.928 118.905 112.161 116.18 115.936C110.88 118.042 105.811 120.159 100.972 122.285C99.7886 120.929 99.3653 119.236 99.7049 117.205C103.217 117.306 106.595 116.671 109.843 115.301C116.646 111.852 118.337 107.831 114.913 103.236C119.769 94.3997 119.981 85.5101 115.546 76.5672C114.067 73.3924 111.744 71.0642 108.576 69.5825C102.603 69.5909 96.6887 70.4376 90.8338 72.1224C89.7781 73.1807 88.7212 74.2391 87.6655 75.2973C83.3389 84.5356 82.0716 94.2719 83.8636 104.506C87.9114 110.925 91.2913 117.698 94.002 124.825C96.0551 138.993 90.3522 147.459 76.8934 150.224C77.3167 146.81 76.4726 143.847 74.3588 141.334C77.4713 142.302 80.6395 143.149 83.8636 143.874C84.9192 143.451 85.9762 143.028 87.0319 142.604C89.4562 138.711 91.1455 134.478 92.1011 129.905C88.6363 120.847 84.8343 111.957 80.6953 103.236C80.9513 100.125 80.5293 97.1619 79.428 94.3465C80.5736 93.4461 80.9957 92.1761 80.6953 90.5366C80.9133 89.2774 80.49 88.4307 79.428 87.9968C79.4381 84.13 79.8602 80.3202 80.6953 76.5672C82.9714 74.9256 85.084 73.0207 87.0319 70.8525C88.9645 69.5716 91.0771 68.9367 93.3684 68.9476C93.1618 65.9546 93.3722 62.9913 94.002 60.058C94.5305 58.4629 95.5862 57.6164 97.1703 57.5181Z" fill="#18170E"/>
<path fill-rule="evenodd" clip-rule="evenodd" d="M102.24 91.8061C103.573 91.6162 104.84 91.8279 106.042 92.4411C101.039 94.4586 98.7165 98.0568 99.0713 103.236C103.871 100.113 104.716 101.382 101.606 107.045C100.748 104.266 99.269 103.842 97.1704 105.775C96.7484 104.717 96.3251 103.659 95.9031 102.601C96.7104 98.2027 98.8217 94.6044 102.24 91.8061Z" fill="#2A230A"/>
<path fill-rule="evenodd" clip-rule="evenodd" d="M12.2606 84.187C14.6292 85.031 17.1639 85.8777 19.8645 86.7269C19.0192 88.8435 18.1752 90.96 17.3299 93.0766C16.7507 94.0894 15.9054 94.5128 14.7953 94.3466C12.2239 91.3514 9.68927 88.3882 7.19141 85.457C8.88073 85.0337 10.5713 84.6103 12.2606 84.187Z" fill="#475D0E"/>
<path fill-rule="evenodd" clip-rule="evenodd" d="M140.259 82.9165C141.526 82.9165 142.793 82.9165 144.061 82.9165C142.219 86.5398 140.742 90.3496 139.625 94.346C138.775 95.3015 137.719 95.7249 136.457 95.616C135.395 95.182 134.972 94.3353 135.19 93.0761C134.27 88.2414 135.959 84.8548 140.259 82.9165Z" fill="#B0CDB5"/>
<path fill-rule="evenodd" clip-rule="evenodd" d="M140.259 82.9174C135.959 84.8557 134.27 88.2423 135.19 93.077C132.844 88.2312 134.111 84.4214 138.992 81.6475C139.761 81.8044 140.183 82.2277 140.259 82.9174Z" fill="#1E2316"/>
<path fill-rule="evenodd" clip-rule="evenodd" d="M9.72603 71.4875C10.6626 71.3212 11.5079 71.5329 12.2606 72.1225C10.7817 73.6041 9.30402 75.0857 7.82507 76.5673C7.44488 74.579 8.07853 72.8857 9.72603 71.4875Z" fill="#998608"/>
<path fill-rule="evenodd" clip-rule="evenodd" d="M113.645 54.978C116.515 55.8906 119.471 56.314 122.517 56.248C121.536 57.0698 120.268 57.4932 118.715 57.5179C116.364 57.7209 114.674 56.8742 113.645 54.978Z" fill="#3D4632"/>
<path fill-rule="evenodd" clip-rule="evenodd" d="M112.378 52.4381C112.8 53.2848 113.223 54.1314 113.645 54.978C114.674 56.8742 116.364 57.7209 118.715 57.5179C120.268 57.4932 121.536 57.0698 122.517 56.248C128.813 62.773 134.937 69.5461 140.893 76.5671C142.279 78.571 143.336 80.6876 144.061 82.9168C142.793 82.9168 141.526 82.9168 140.259 82.9168C140.183 82.2271 139.761 81.8039 138.992 81.6469C134.111 84.4208 132.844 88.2307 135.19 93.0764C134.972 94.3357 135.395 95.1824 136.457 95.6163C137.762 96.9527 138.608 98.646 138.992 100.696C137.982 106.155 137.56 111.658 137.724 117.205C135.698 116.865 134.009 117.289 132.655 118.475C130.966 116.782 129.275 115.089 127.586 113.396C124.823 111.752 122.288 112.175 119.982 114.665C118.853 115.44 117.585 115.863 116.18 115.935C118.905 112.161 120.172 107.928 119.982 103.236C129.94 103.884 132.475 100.074 127.586 91.8065C127.164 90.5365 126.318 89.6898 125.051 89.2666C122.808 87.5446 121.119 85.2165 119.982 82.2819C128.127 80.0348 129.394 76.0133 123.784 70.2174C121.053 67.6343 118.096 67.2109 114.913 68.9474C110.734 68.7802 108.623 66.6636 108.576 62.5977C107.206 58.2647 104.248 55.7248 99.705 54.978C98.4098 55.4295 97.5645 56.2762 97.1704 57.5179C95.5862 57.6162 94.5306 58.4628 94.0021 60.0578C93.3723 62.9911 93.1619 65.9544 93.3685 68.9474C91.0772 68.9365 88.9646 69.5715 87.0319 70.8524C85.0841 73.0205 82.9715 74.9255 80.6954 76.5671C77.0176 74.5156 74.061 75.3622 71.8242 79.107C68.5444 82.8103 68.9677 86.4084 73.0915 89.9015C75.5919 90.5308 78.1265 90.7424 80.6954 90.5365C80.9957 92.176 80.5737 93.446 79.4281 94.3464C78.5828 94.3464 78.1608 94.7696 78.1608 95.6163C69.7015 95.8275 61.2523 95.6158 52.8146 94.9813C41.8815 92.1763 31.321 88.3664 21.1319 83.5518C18.0536 82.6587 15.0969 82.8704 12.2607 84.1868C10.5714 84.6101 8.88079 85.0335 7.19147 85.4567C7.00264 84.1208 7.21301 82.8508 7.82512 81.6469C15.6723 72.7011 24.3318 65.0815 33.8049 58.7879C39.8601 57.6363 41.9715 54.2497 40.1415 48.6283C40.0325 47.3636 40.4558 46.3053 41.4088 45.4534C45.2107 44.6068 49.0127 44.6068 52.8146 45.4534C53.5788 48.084 55.2681 49.5657 57.8838 49.8983C61.2637 53.2848 64.6424 53.2848 68.0223 49.8983C69.2794 50.1162 70.1235 49.6928 70.5569 48.6283C71.8242 48.205 72.6695 47.3584 73.0915 46.0884C76.109 43.3714 79.4889 42.948 83.23 44.8185C83.23 45.6651 83.652 46.0884 84.4973 46.0884C87.9393 49.4331 91.5296 49.4331 95.2694 46.0884C97.7128 36.4559 102.782 34.7627 110.477 41.0086C110.707 45.0656 111.34 48.8754 112.378 52.4381Z" fill="#95C916"/>
<path fill-rule="evenodd" clip-rule="evenodd" d="M47.7453 79.1069C45.7784 88.1462 49.5803 91.956 59.1511 90.5364C51.9692 93.6484 46.9 91.5318 43.9434 84.1867C44.0207 81.4528 45.288 79.7594 47.7453 79.1069Z" fill="#4E5946"/>
<path fill-rule="evenodd" clip-rule="evenodd" d="M71.8242 79.1069C71.6189 81.6815 71.8305 84.2214 72.4578 86.7266C74.5844 89.3341 76.9073 89.7575 79.428 87.9966C80.49 88.4305 80.9133 89.2772 80.6953 90.5364C78.1265 90.7423 75.5919 90.5307 73.0915 89.9015C68.9676 86.4084 68.5444 82.8102 71.8242 79.1069Z" fill="#4B583D"/>
<path fill-rule="evenodd" clip-rule="evenodd" d="M56.6165 77.8374C63.7159 78.9433 65.4065 82.3298 61.6857 87.997C62.6058 83.1623 60.9164 79.7757 56.6165 77.8374Z" fill="#2D3322"/>
<path fill-rule="evenodd" clip-rule="evenodd" d="M56.6165 77.8375C60.9165 79.7758 62.6058 83.1623 61.6857 87.997C61.2637 89.267 60.4184 90.1136 59.1511 90.5369C49.5804 91.9565 45.7785 88.1466 47.7453 79.1074C48.7744 77.2112 50.4637 76.3646 52.8146 76.5675C54.3683 76.5923 55.6356 77.0157 56.6165 77.8375Z" fill="#B1CFB7"/>
<path fill-rule="evenodd" clip-rule="evenodd" d="M23.6665 71.4878C22.3459 79.8857 26.1479 83.2721 35.0722 81.6474C27.7421 86.238 23.0962 84.1213 21.1318 75.2976C21.0723 73.3448 21.9176 72.0749 23.6665 71.4878Z" fill="#21261C"/>
<path fill-rule="evenodd" clip-rule="evenodd" d="M80.6953 76.5672C79.8601 80.3201 79.4381 84.13 79.428 87.9967C76.9073 89.7576 74.5843 89.3342 72.4578 86.7267C71.8305 84.2215 71.6188 81.6816 71.8241 79.1071C74.0609 75.3622 77.0176 74.5157 80.6953 76.5672Z" fill="#ACC8B0"/>
<path fill-rule="evenodd" clip-rule="evenodd" d="M123.784 70.2174C126.574 76.0525 124.885 79.439 118.715 80.377C118.507 76.1641 117.239 72.3543 114.913 68.9475C118.096 67.211 121.053 67.6344 123.784 70.2174Z" fill="#A3BDA6"/>
<path fill-rule="evenodd" clip-rule="evenodd" d="M35.0722 81.6466C26.1478 83.2714 22.3459 79.8849 23.6665 71.487C27.1655 68.3884 30.9674 68.1768 35.0722 70.8521C38.4243 74.5978 38.4243 78.196 35.0722 81.6466Z" fill="#A1BCA5"/>
<path fill-rule="evenodd" clip-rule="evenodd" d="M45.2107 60.0576C44.7976 68.0908 48.5995 71.0539 56.6165 68.9472C49.958 72.8254 45.3108 70.9205 42.6761 63.2325C42.8522 61.5803 43.6963 60.5219 45.2107 60.0576Z" fill="#445033"/>
<path fill-rule="evenodd" clip-rule="evenodd" d="M71.8242 65.1377C75.265 67.1988 79.0669 68.0454 83.23 67.6776C80.5332 69.1115 77.5765 69.3232 74.3588 68.3126C73.2423 67.4131 72.3983 66.3548 71.8242 65.1377Z" fill="#3B4332"/>
<path fill-rule="evenodd" clip-rule="evenodd" d="M85.7646 58.7881C87.1865 61.0593 87.3982 63.5991 86.3983 66.4078C85.5479 67.3633 84.4922 67.7867 83.23 67.6777C85.3439 65.165 86.1879 62.2017 85.7646 58.7881Z" fill="#35401F"/>
<path fill-rule="evenodd" clip-rule="evenodd" d="M55.3491 58.7881C58.3197 59.3964 60.0103 61.3013 60.4184 64.5028C60.2422 66.155 59.3982 67.2134 57.8837 67.6777C58.307 64.2641 57.463 61.3008 55.3491 58.7881Z" fill="#556349"/>
<path fill-rule="evenodd" clip-rule="evenodd" d="M55.3491 58.7881C57.463 61.3008 58.307 64.2641 57.8838 67.6777C57.8838 68.5244 57.4617 68.9476 56.6164 68.9476C48.5995 71.0544 44.7975 68.0912 45.2107 60.058C48.5906 59.6348 51.9692 59.2114 55.3491 58.7881Z" fill="#BAD9C1"/>
<path fill-rule="evenodd" clip-rule="evenodd" d="M55.3492 58.7875C51.9693 59.2108 48.5906 59.6342 45.2107 60.0575C48.3701 57.4112 51.75 56.9879 55.3492 58.7875Z" fill="#5D6B55"/>
<path fill-rule="evenodd" clip-rule="evenodd" d="M97.1703 57.5181C101.995 56.5963 105.375 58.2895 107.309 62.5979C107.309 63.8679 107.309 65.1378 107.309 66.4078C103.45 66.4178 99.6479 66.8412 95.903 67.6777C95.7775 64.2016 96.2008 60.815 97.1703 57.5181Z" fill="#BAD8C0"/>
<path fill-rule="evenodd" clip-rule="evenodd" d="M84.4972 57.518C85.3425 57.518 85.7645 57.9412 85.7645 58.7879C86.1878 62.2015 85.3438 65.1648 83.2299 67.6775C79.0668 68.0453 75.2649 67.1988 71.8241 65.1376C71.4161 62.3153 72.2614 59.9871 74.3588 58.1529C77.7121 57.5213 81.092 57.3096 84.4972 57.518Z" fill="#B9D9C1"/>
<path fill-rule="evenodd" clip-rule="evenodd" d="M108.576 62.5977C108.154 62.5977 107.731 62.5977 107.309 62.5977C105.375 58.2893 101.995 56.5961 97.1704 57.5179C97.5645 56.2762 98.4098 55.4295 99.705 54.978C104.248 55.7248 107.206 58.2646 108.576 62.5977Z" fill="#5A6A44"/>
<path fill-rule="evenodd" clip-rule="evenodd" d="M84.4972 57.5176C81.092 57.3092 77.7121 57.5209 74.3588 58.1525C72.2614 59.9867 71.4161 62.3149 71.8241 65.1372C69.6608 58.7837 72.1955 55.3971 79.428 54.9777C81.7789 54.7747 83.4682 55.6214 84.4972 57.5176Z" fill="#576650"/>
<path fill-rule="evenodd" clip-rule="evenodd" d="M40.1414 48.6284C41.9714 54.2498 39.8601 57.6364 33.8049 58.788C31.8685 58.766 31.2348 57.9193 31.9039 56.2481C34.5437 53.3831 37.29 50.8432 40.1414 48.6284Z" fill="#96AD93"/>
<path fill-rule="evenodd" clip-rule="evenodd" d="M57.8838 49.8979C61.2637 49.8979 64.6423 49.8979 68.0223 49.8979C64.6423 53.2845 61.2637 53.2845 57.8838 49.8979Z" fill="#455038"/>
<path fill-rule="evenodd" clip-rule="evenodd" d="M122.517 56.2479C119.471 56.3139 116.515 55.8905 113.645 54.9779C113.223 54.1312 112.8 53.2847 112.378 52.438C111.999 49.7661 112.421 47.2262 113.645 44.8184C117.108 48.2819 120.066 52.0917 122.517 56.2479Z" fill="#B4D1BA"/>
<path fill-rule="evenodd" clip-rule="evenodd" d="M55.3491 46.0886C61.0153 45.3401 66.0845 46.1867 70.5568 48.6285C70.1234 49.693 69.2794 50.1164 68.0222 49.8985C64.6423 49.8985 61.2637 49.8985 57.8837 49.8985C57.0384 48.6285 56.1944 47.3586 55.3491 46.0886Z" fill="#B3D0B8"/>
<path fill-rule="evenodd" clip-rule="evenodd" d="M55.3491 46.0882C61.1357 44.4407 67.0502 44.4407 73.0914 46.0882C72.6694 47.3581 71.8241 48.2048 70.5568 48.6281C66.0845 46.1862 61.0153 45.3397 55.3491 46.0882Z" fill="#586457"/>
<path fill-rule="evenodd" clip-rule="evenodd" d="M84.4973 46.0882C83.652 46.0882 83.23 45.6649 83.23 44.8182C83.3707 44.0342 83.7927 43.3992 84.4973 42.9133C88.2257 41.4854 92.0276 41.0621 95.9031 41.6434C95.0578 42.9133 94.2137 44.1833 93.3684 45.4532C90.441 46.0839 87.4843 46.2956 84.4973 46.0882Z" fill="#B1CDB7"/>
</g>
</g>
<defs>
<clipPath id="clip0_639_9896">
<rect width="135" height="130" fill="white"/>
</clipPath>
<clipPath id="clip1_639_9896">
<rect width="175" height="332" fill="white" transform="translate(-20 29)"/>
</clipPath>
</defs>
</svg>
