<svg width="405" height="390" viewBox="0 0 405 390" fill="none" xmlns="http://www.w3.org/2000/svg">
<rect x="1.5" y="1.5" width="402" height="387" rx="18.5" fill="#FDFFEF"/>
<rect x="1.5" y="1.5" width="402" height="387" rx="18.5" stroke="black" stroke-width="3"/>
<path d="M236.286 318.06C232.406 352.259 230.081 351.482 241.703 349.15C244.698 349.15 247.901 335.937 250.226 317.283C247.901 304.07 245.577 279.197 234.73 293.188C231.735 293.188 236.286 300.031 236.286 318.06Z" fill="black"/>
<path d="M226.982 349.151C226.982 356.923 238.244 358.477 250.226 358.477C262.207 358.477 288.964 357.062 288.964 351.482C288.19 336.714 247.901 332.051 241.703 332.828C237.829 321.169 226.207 343.71 226.982 349.151Z" fill="black"/>
<path d="M163.408 318.584C167.288 352.783 169.612 352.005 157.991 349.674C154.996 349.674 151.793 336.461 149.468 317.806C151.793 304.593 154.117 279.721 164.964 293.712C167.959 293.712 163.408 300.554 163.408 318.584Z" fill="black"/>
<path d="M172.712 349.673C172.712 357.446 161.449 359 149.468 359C137.487 359 110.729 357.585 110.729 352.005C111.504 337.237 151.793 332.574 157.991 333.351C161.865 321.692 173.486 344.233 172.712 349.673Z" fill="black"/>
<path d="M67.191 219.188C61.908 232.571 61.7889 260.415 65.6403 261.946C69.4918 263.476 75.1352 237.781 80.4182 224.399C85.7011 211.016 94.8751 193.038 87.1691 191.175C83.3176 189.645 71.6464 204.573 67.191 219.188Z" fill="black"/>
<path d="M46.457 268.812C44.7926 281.798 44.5551 293.467 47.8917 294.234C54.0899 296.566 53.7372 283.409 56.4142 271.694C59.0912 259.978 68.2734 247.589 64.9367 246.821C61.0629 245.267 49.134 257.096 46.457 268.812Z" fill="black"/>
<path d="M78.1079 273.858C81.9818 287.238 79.6574 302.006 96.7025 295.788C103.675 292.679 89.7295 286.461 88.9547 273.248C86.6304 263.143 75.7533 246.177 72.7657 247.854C65.018 247.076 72.2591 263.368 78.1079 273.858Z" fill="black"/>
<path d="M55.0239 282.52C56.0816 295.57 59.9642 307.391 63.3869 307.447C69.9325 308.438 65.1649 295.284 65.3604 283.267C65.5559 271.249 69.1339 250.764 65.7112 250.708C61.6001 249.993 55.2194 270.502 55.0239 282.52Z" fill="black"/>
<path d="M67.2613 284.129C68.3191 297.179 72.6848 310.556 78.1082 310.556C84.6538 311.547 78.883 297.343 76.5587 285.684C75.7839 273.248 75.3327 250.763 71.91 250.707C67.7989 249.993 64.937 271.693 67.2613 284.129Z" fill="black"/>
<path d="M74.234 277.134C76.2211 277.053 75.0088 271.693 76.5584 270.916C78.1079 271.693 78.1079 276.357 81.207 276.357C81.207 275.069 77.9231 268.584 75.7836 268.584C73.6441 268.584 74.234 275.846 74.234 277.134Z" fill="black"/>
<path d="M63.3985 283.022C65.1336 283.256 64.9364 277.134 66.0649 275.437C66.8397 277.769 65.7136 282.688 68.3893 283.209C68.701 281.6 69.108 261.949 67.2608 261.589C65.4137 261.228 63.7103 281.413 63.3985 283.022Z" fill="black"/>
<path d="M52.8507 283.169C54.5858 283.403 54.3886 277.281 55.5171 275.584C56.2919 277.916 55.1658 282.835 57.8414 283.356C58.1532 281.747 58.5601 262.096 56.713 261.736C54.8659 261.375 53.1625 281.56 52.8507 283.169Z" fill="black"/>
<path d="M335.415 219.095C340.772 232.665 341.975 260.469 338.514 261.844C335.052 263.219 328.882 237.343 323.525 223.773C318.168 210.204 309.072 191.891 316.045 190.337C319.507 188.961 330.766 204.327 335.415 219.095Z" fill="black"/>
<path d="M358.543 268.29C360.207 281.276 360.445 292.944 357.108 293.712C350.91 296.043 351.263 282.887 348.586 271.171C345.909 259.456 336.727 247.067 340.063 246.299C343.937 244.745 355.866 256.574 358.543 268.29Z" fill="black"/>
<path d="M326.891 273.336C323.017 286.716 325.342 301.484 308.297 295.266C301.324 292.157 315.27 285.939 316.044 272.726C318.369 262.621 327.778 245.4 330.765 247.076C334.678 248.53 332.74 262.846 326.891 273.336Z" fill="black"/>
<path d="M349.976 281.998C348.918 295.048 345.035 306.869 341.613 306.925C335.067 307.916 339.835 294.762 339.639 282.744C339.444 270.727 335.866 250.242 339.288 250.185C343.399 249.471 349.78 269.98 349.976 281.998Z" fill="black"/>
<path d="M337.739 283.608C336.681 296.657 332.315 310.034 326.892 310.034C320.346 311.025 326.117 296.821 328.441 285.162C329.216 272.726 329.667 250.242 333.09 250.186C337.201 249.471 340.063 271.172 337.739 283.608Z" fill="black"/>
<path d="M330.766 276.613C328.779 276.532 329.991 271.172 328.442 270.395C326.892 271.172 326.892 275.835 323.793 275.835C323.793 274.547 327.077 268.063 329.216 268.063C331.356 268.063 330.766 275.325 330.766 276.613Z" fill="black"/>
<path d="M341.601 282.5C339.866 282.734 340.063 276.612 338.935 274.915C338.16 277.247 339.286 282.166 336.61 282.688C336.298 281.079 335.892 261.427 337.739 261.067C339.586 260.707 341.289 280.891 341.601 282.5Z" fill="black"/>
<path d="M352.148 282.647C350.413 282.881 350.61 276.759 349.482 275.062C348.707 277.394 349.833 282.313 347.158 282.835C346.846 281.226 346.439 261.574 348.286 261.214C350.133 260.854 351.837 281.038 352.148 282.647Z" fill="black"/>
<path d="M176.475 107.171C176.475 151.814 144.909 310.034 188.982 310.034C216.099 316.252 346.262 230.754 341.613 120.384C341.613 75.7405 298.911 31 254.838 31C202.928 34.8863 176.475 62.5272 176.475 107.171Z" fill="black"/>
<path d="M204.04 333.048L149.468 285.995L250.964 281.275L204.04 333.048Z" fill="black"/>
<path d="M216.874 111.835C216.874 156.478 249.326 313.92 205.253 313.92C161.179 313.92 47.9728 209.768 54.9459 114.944C54.9459 70.3001 90.6745 35.6638 134.748 35.6638C180.46 37.9956 216.874 67.1911 216.874 111.835Z" fill="black"/>
<path d="M232.369 75.3042C232.369 77.0213 255.612 73.7497 274.982 77.636C311.396 89.2948 323.018 121.325 323.018 119.608C323.793 115.721 309.072 67.5317 270.333 62.8682C248.639 60.5363 232.369 73.5871 232.369 75.3042Z" fill="black"/>
<path d="M169.613 75.3034C169.613 77.0204 144.045 72.1944 127.775 76.8579C105.096 76.8579 78.189 119.769 78.189 118.052C78.189 116.335 93.6845 66.7536 132.423 62.0901C155.102 62.0901 169.613 73.5863 169.613 75.3034Z" fill="black"/>
<path d="M256.387 237.75C257.162 239.304 229.538 272.727 202.153 272.727C171.937 275.058 157.991 257.181 158.765 254.072C159.153 252.517 173.218 266.508 200.603 266.508C228.495 263.875 256.387 236.462 256.387 237.75Z" fill="black"/>
<path d="M205.311 150.698C203.762 187.229 232.692 220.65 262.645 220.65C292.598 220.65 318.429 190.338 313.78 150.698C313.78 117.215 284.85 83.0767 254.897 83.0767C224.944 83.0767 205.311 117.215 205.311 150.698Z" fill="black"/>
<ellipse cx="12.3964" cy="13.2133" rx="12.3964" ry="13.2133" transform="matrix(-1 0 0 1 264.739 151.475)" fill="black"/>
<path d="M205.856 141.37C205.856 141.37 226.774 125.048 260.09 131.266C293.405 140.593 284.108 139.038 315.099 163.133C320.522 132.82 293.405 87.7395 260.09 81.5215C215.928 83.8532 205.856 127.633 205.856 141.37Z" fill="black"/>
<ellipse cx="3.87388" cy="3.88626" rx="3.87388" ry="3.88626" transform="matrix(-1 0 0 1 252.342 154.584)" fill="black"/>
<path d="M194.949 149.143C196.499 185.674 167.569 219.095 137.616 219.095C107.663 219.095 81.8319 188.783 86.4806 149.143C86.4806 115.66 115.411 81.5217 145.364 81.5217C175.316 81.5217 194.949 115.66 194.949 149.143Z" fill="black"/>
<ellipse cx="147.919" cy="163.134" rx="12.3964" ry="13.2133" fill="black"/>
<path d="M194.405 139.816C194.405 139.816 173.487 123.493 140.171 129.711C106.856 139.039 116.153 137.484 85.1618 161.579C79.7384 131.266 106.856 86.1853 140.171 79.9673C184.333 82.299 194.405 126.079 194.405 139.816Z" fill="black"/>
<ellipse cx="151.792" cy="156.916" rx="3.87388" ry="3.88626" fill="black"/>
</svg>
