<svg width="101" height="110" viewBox="0 0 101 110" fill="none" xmlns="http://www.w3.org/2000/svg">
<path d="M19.0277 83.6637C16.5238 105.664 15.0238 105.164 22.5238 103.664C24.4568 103.664 26.5238 95.1638 28.0238 83.1637C26.5238 74.6638 25.0238 58.6636 18.0238 67.6637C16.0908 67.6637 19.0277 72.0657 19.0277 83.6637Z" fill="#1C3471"/>
<path d="M13.0238 103.664C13.0238 108.664 20.2918 109.663 28.0238 109.663C35.7558 109.663 53.0238 108.753 53.0238 105.163C52.5238 95.6633 26.5238 92.6637 22.5238 93.1634C20.0238 85.6637 12.5238 100.164 13.0238 103.664Z" fill="#1C3471"/>
<path d="M83 19.9995C86.4571 28.7287 87.2339 46.6148 85 47.4995C82.7661 48.3842 78.7839 31.7382 75.3269 23.009C71.8698 14.2798 66 2.49965 70.5001 1.49954C72.734 0.614827 80 10.4995 83 19.9995Z" fill="#1C3471"/>
<path d="M97.9259 51.646C99 59.9998 99.1533 67.5062 97 67.9998C93 69.4998 93.2276 61.0363 91.5 53.4998C89.7725 45.9633 83.8467 37.9934 86 37.4998C88.5 36.4998 96.1983 44.1095 97.9259 51.646Z" fill="#1C3471"/>
<path d="M77.4999 54.8922C74.9999 63.4998 76.4999 72.9998 65.4999 68.9998C61 66.9997 70 62.9997 70.5 54.4997C72 47.9998 78.072 36.9213 80 37.9997C82.5249 38.9351 81.2745 48.1441 77.4999 54.8922Z" fill="#1C3471"/>
<path d="M92.397 60.4646C91.7144 68.8595 89.2088 76.4639 87 76.5C82.7758 77.1374 85.8525 68.6757 85.7264 60.9447C85.6002 53.2138 83.2911 40.0359 85.5 39.9999C88.1531 39.5403 92.2709 52.7337 92.397 60.4646Z" fill="#1C3471"/>
<path d="M84.5 61.4996C83.8173 69.8945 81 78.4996 77.5 78.4996C73.2758 79.137 77 69.9996 78.5 62.4996C79 54.4996 79.2911 40.0355 81.5 39.9995C84.1531 39.5399 86 53.4997 84.5 61.4996Z" fill="#1C3471"/>
<path d="M80 57C78.7176 56.9482 79.5 53.5 78.5 53C77.5 53.5 77.5 56.5 75.5 56.5C75.5 55.6716 77.6193 51.5 79 51.5C80.3807 51.5 80 56.1716 80 57Z" fill="#1C3471"/>
<path d="M86.9925 60.7875C85.8728 60.938 86.0001 56.9997 85.2718 55.908C84.7718 57.408 85.4985 60.5724 83.7718 60.908C83.5706 59.8731 83.308 47.2314 84.5 46.9996C85.6921 46.7679 86.7913 59.7526 86.9925 60.7875Z" fill="#1C3471"/>
<path d="M93.7996 60.8823C92.6798 61.0327 92.8071 57.0945 92.0788 56.0028C91.5788 57.5028 92.3055 60.6671 90.5788 61.0028C90.3776 59.9678 90.115 47.3261 91.307 47.0944C92.4991 46.8626 93.5983 59.8473 93.7996 60.8823Z" fill="#1C3471"/>
<path d="M-19.5716 -52C-19.5716 -23.2812 -39.9427 78.5 -11.5 78.5C6 82.5 90 27.5 87 -43.5C87 -72.2188 59.4426 -101 31 -101C-2.50004 -98.5 -19.5716 -80.7188 -19.5716 -52Z" fill="#1C3471"/>
<path d="M-1.78196 93.3052L-37 63.0361L28.5 60L-1.78196 93.3052Z" fill="#1C3471"/>
<path d="M6.50008 -49C6.50008 -20.2812 27.4427 81 -0.999916 81C-29.4426 81 -102.5 14 -97.9999 -47C-97.9999 -75.7188 -74.9426 -98 -46.4999 -98C-17 -96.5 6.50008 -77.7188 6.50008 -49Z" fill="#1C3471"/>
<path d="M32 32.0004C32.5 33 14.6731 54.5005 -2.99999 54.5005C-22.5 56 -31.5 44.5 -31 42.5003C-30.7499 41.5 -21.6731 50.5003 -3.99999 50.5003C14 48.8063 32 31.172 32 32.0004Z" fill="#812A35"/>
<path d="M-0.961594 -24C-1.96155 -0.5 16.7085 21 36.0384 21C55.3684 21 72.0384 1.5 69.0384 -24C69.0384 -45.5391 50.3684 -67.5 31.0384 -67.5C11.7085 -67.5 -0.961594 -45.5391 -0.961594 -24Z" fill="white"/>
</svg>
