<svg width="202" height="195" viewBox="0 0 202 195" fill="none" xmlns="http://www.w3.org/2000/svg">
<g clip-path="url(#clip0_577_3409)">
<rect x="-201.5" y="-193.5" width="402" height="387" rx="18.5" fill="#FDFFEF"/>
<rect x="-201.5" y="-193.5" width="402" height="387" rx="18.5" stroke="black" stroke-width="3"/>
<path d="M33.2857 123.06C29.4057 157.259 27.0814 156.482 38.703 154.15C41.6983 154.15 44.9013 140.937 47.2256 122.283C44.9013 109.07 42.5769 84.1974 31.7301 98.1881C28.7348 98.1881 33.2857 105.031 33.2857 123.06Z" fill="#1C3471"/>
<path d="M23.9823 154.151C23.9823 161.923 35.2444 163.477 47.2256 163.477C59.2067 163.477 85.9644 162.062 85.9644 156.482C85.1896 141.714 44.9012 137.051 38.703 137.828C34.8291 126.169 23.2075 148.71 23.9823 154.151Z" fill="#1C3471"/>
<path d="M132.415 24.0949C137.772 37.6645 138.975 65.4685 135.514 66.8438C132.052 68.2191 125.882 42.3428 120.525 28.7732C115.168 15.2036 106.072 -3.10871 113.045 -4.66339C116.507 -6.03868 127.766 9.32712 132.415 24.0949Z" fill="#1C3471"/>
<path d="M155.543 73.2895C157.207 86.2756 157.445 97.9443 154.108 98.7116C147.91 101.043 148.263 87.8869 145.586 76.1713C142.909 64.4558 133.727 52.0665 137.063 51.2993C140.937 49.7446 152.866 61.574 155.543 73.2895Z" fill="#1C3471"/>
<path d="M123.891 78.3357C120.017 91.7163 122.342 106.484 105.297 100.266C98.3237 97.157 112.27 90.939 113.044 77.7257C115.369 67.6214 124.778 50.3998 127.765 52.0763C131.678 53.5304 129.74 67.8458 123.891 78.3357Z" fill="#1C3471"/>
<path d="M146.976 86.998C145.918 100.048 142.035 111.869 138.613 111.925C132.067 112.916 136.835 99.7622 136.639 87.7444C136.444 75.7266 132.866 55.2415 136.288 55.1855C140.399 54.4711 146.78 74.9802 146.976 86.998Z" fill="#1C3471"/>
<path d="M134.739 88.6076C133.681 101.657 129.315 115.034 123.892 115.034C117.346 116.025 123.117 101.821 125.441 90.1621C126.216 77.7261 126.667 55.2416 130.09 55.1855C134.201 54.4711 137.063 76.1716 134.739 88.6076Z" fill="#1C3471"/>
<path d="M127.766 81.6125C125.779 81.532 126.991 76.1718 125.442 75.3945C123.892 76.1718 123.892 80.8353 120.793 80.8353C120.793 79.5475 124.077 73.0627 126.216 73.0627C128.356 73.0627 127.766 80.3247 127.766 81.6125Z" fill="#1C3471"/>
<path d="M138.601 87.5003C136.866 87.7342 137.063 81.6122 135.935 79.9151C135.16 82.2469 136.286 87.1658 133.61 87.6876C133.298 86.0788 132.892 66.4272 134.739 66.0669C136.586 65.7067 138.289 85.8914 138.601 87.5003Z" fill="#1C3471"/>
<path d="M149.148 87.6473C147.413 87.8812 147.61 81.7591 146.482 80.0621C145.707 82.3939 146.833 87.3128 144.158 87.8346C143.846 86.2257 143.439 66.5741 145.286 66.2139C147.133 65.8537 148.837 86.0384 149.148 87.6473Z" fill="#1C3471"/>
<path d="M-26.5252 -87.8292C-26.5252 -43.1857 -58.0914 115.034 -14.018 115.034C13.0992 121.252 143.262 35.754 138.613 -74.6159C138.613 -119.259 95.9114 -164 51.838 -164C-0.0720219 -160.114 -26.5252 -132.473 -26.5252 -87.8292Z" fill="#1C3471"/>
<path d="M1.0405 138.048L-53.5317 90.9949L47.9639 86.2752L1.0405 138.048Z" fill="#1C3471"/>
<path d="M13.8742 -83.1654C13.8742 -38.5218 46.3259 118.92 2.25251 118.92C-41.8209 118.92 -155.027 14.7685 -148.054 -80.0564C-148.054 -124.7 -112.326 -159.336 -68.2521 -159.336C-22.5405 -157.004 13.8742 -127.809 13.8742 -83.1654Z" fill="#1C3471"/>
<path d="M53.3872 42.7503C54.162 44.3041 26.5383 77.7266 -0.847118 77.7266C-31.0634 80.0577 -45.0094 62.1809 -44.2346 59.0723C-43.847 57.5174 -29.7821 71.5084 -2.39667 71.5084C25.4953 68.8751 53.3872 41.4625 53.3872 42.7503Z" fill="#812A35"/>
<path d="M2.31149 -44.3023C0.762013 -7.77147 29.6922 25.6504 59.6449 25.6504C89.5977 25.6504 115.429 -4.66245 110.78 -44.3023C110.78 -77.785 81.85 -111.923 51.8972 -111.923C21.9444 -111.923 2.31149 -77.785 2.31149 -44.3023Z" fill="white"/>
</g>
<defs>
<clipPath id="clip0_577_3409">
<rect width="202" height="195" fill="white"/>
</clipPath>
</defs>
</svg>
