<svg width="202" height="195" viewBox="0 0 202 195" fill="none" xmlns="http://www.w3.org/2000/svg">
<g clip-path="url(#clip0_577_3406)">
<rect x="1.5" y="1.5" width="402" height="387" rx="18.5" fill="#FDFFEF"/>
<rect x="1.5" y="1.5" width="402" height="387" rx="18.5" stroke="black" stroke-width="3"/>
<path d="M67.191 219.188C61.908 232.571 61.7889 260.415 65.6403 261.946C69.4918 263.476 75.1352 237.781 80.4182 224.399C85.7011 211.016 94.8751 193.038 87.1691 191.175C83.3176 189.645 71.6464 204.573 67.191 219.188Z" fill="#1C3471"/>
<path d="M176.475 107.171C176.475 151.814 144.909 310.034 188.982 310.034C216.099 316.252 346.262 230.754 341.613 120.384C341.613 75.7405 298.911 31 254.838 31C202.928 34.8863 176.475 62.5272 176.475 107.171Z" fill="#1C3471"/>
<path d="M216.874 111.835C216.874 156.478 249.326 313.92 205.253 313.92C161.179 313.92 47.9728 209.768 54.9459 114.944C54.9459 70.3001 90.6745 35.6638 134.748 35.6638C180.46 37.9956 216.874 67.1911 216.874 111.835Z" fill="#1C3471"/>
<path d="M169.613 75.3034C169.613 77.0204 144.045 72.1944 127.775 76.8579C105.096 76.8579 78.189 119.769 78.189 118.052C78.189 116.335 93.6845 66.7536 132.423 62.0901C155.102 62.0901 169.613 73.5863 169.613 75.3034Z" fill="#0E1E42"/>
<path d="M194.949 149.143C196.499 185.674 167.569 219.095 137.616 219.095C107.663 219.095 81.8319 188.783 86.4806 149.143C86.4806 115.66 115.411 81.5217 145.364 81.5217C175.316 81.5217 194.949 115.66 194.949 149.143Z" fill="white"/>
<ellipse cx="147.919" cy="163.134" rx="12.3964" ry="13.2133" fill="black"/>
<path d="M194.405 139.816C194.405 139.816 173.487 123.493 140.171 129.711C106.856 139.039 116.153 137.484 85.1618 161.579C79.7384 131.266 106.856 86.1853 140.171 79.9673C184.333 82.299 194.405 126.079 194.405 139.816Z" fill="#6785BE"/>
<ellipse cx="151.792" cy="156.916" rx="3.87388" ry="3.88626" fill="white"/>
</g>
<defs>
<clipPath id="clip0_577_3406">
<rect width="202" height="195" fill="white"/>
</clipPath>
</defs>
</svg>
