<svg width="107" height="100" viewBox="0 0 107 100" fill="none" xmlns="http://www.w3.org/2000/svg">
<path d="M17.0284 120.486C13.5936 129.054 13.5162 146.882 16.0202 147.861C18.5243 148.841 22.1933 132.39 25.6281 123.822C29.0628 115.254 35.0273 103.743 30.0172 102.551C27.5132 101.571 19.9251 111.129 17.0284 120.486Z" fill="#1C3471"/>
<path d="M88.0796 48.7679C88.0796 77.3507 67.5567 178.65 96.2113 178.65C113.842 182.631 198.467 127.891 195.445 57.2276C195.445 28.6449 167.682 0 139.028 0C105.278 2.48816 88.0796 20.1851 88.0796 48.7679Z" fill="#1C3471"/>
<path d="M114.345 51.7537C114.345 80.3365 135.444 181.138 106.79 181.138C78.1351 181.138 4.53352 114.455 9.0671 53.7443C9.0671 25.1615 32.2962 2.98584 60.9507 2.98584C90.6703 4.47873 114.345 23.171 114.345 51.7537Z" fill="#1C3471"/>
<path d="M83.6182 28.365C83.6182 29.4643 66.9953 26.3745 56.4171 29.3603C41.6725 29.3603 24.1787 56.8341 24.1787 55.7347C24.1787 54.6354 34.2532 22.8911 59.4394 19.9053C74.184 19.9053 83.6182 27.2657 83.6182 28.365Z" fill="#0E1E42"/>
<path d="M106.828 76.6353C105.821 100.024 124.63 121.422 144.104 121.422C163.578 121.422 180.372 102.014 177.35 76.6353C177.35 55.1982 158.54 33.3413 139.067 33.3413C119.593 33.3413 106.828 55.1982 106.828 76.6353Z" fill="white"/>
<path d="M100.091 75.6396C101.099 99.0283 82.2895 120.426 62.8155 120.426C43.3416 120.426 26.5474 101.019 29.5697 75.6396C29.5697 54.2026 48.3788 32.3457 67.8528 32.3457C87.3267 32.3457 100.091 54.2026 100.091 75.6396Z" fill="white"/>
<ellipse cx="69.5139" cy="84.5974" rx="8.05958" ry="8.45974" fill="black"/>
<path d="M99.7374 69.6682C99.7374 69.6682 86.137 59.218 64.4769 63.199C42.8165 69.1706 48.8612 68.1753 28.7122 83.6019C25.1862 64.1943 42.8167 35.3316 64.4769 31.3506C93.1889 32.8435 99.7374 60.8735 99.7374 69.6682Z" fill="#6785BE"/>
<ellipse cx="72.0325" cy="80.6161" rx="2.51862" ry="2.48816" fill="white"/>
</svg>
