<svg width="202" height="195" viewBox="0 0 202 195" fill="none" xmlns="http://www.w3.org/2000/svg">
<g clip-path="url(#clip0_577_3408)">
<rect x="1.5" y="-193.5" width="402" height="387" rx="18.5" fill="#FDFFEF"/>
<rect x="1.5" y="-193.5" width="402" height="387" rx="18.5" stroke="black" stroke-width="3"/>
<path d="M163.408 123.584C167.288 157.783 169.612 157.005 157.991 154.674C154.996 154.674 151.793 141.461 149.468 122.806C151.793 109.593 154.117 84.7208 164.964 98.7115C167.959 98.7115 163.408 105.554 163.408 123.584Z" fill="#1C3471"/>
<path d="M172.712 154.673C172.712 162.446 161.449 164 149.468 164C137.487 164 110.729 162.585 110.729 157.005C111.504 142.237 151.793 137.574 157.991 138.351C161.865 126.692 173.486 149.233 172.712 154.673Z" fill="#1C3471"/>
<path d="M67.191 24.1884C61.908 37.5707 61.7889 65.4154 65.6403 66.9455C69.4918 68.4757 75.1352 42.7809 80.4182 29.3986C85.7011 16.0163 94.8751 -1.96222 87.1691 -3.82487C83.3176 -5.35505 71.6464 9.57317 67.191 24.1884Z" fill="#1C3471"/>
<path d="M46.457 73.8118C44.7926 86.7978 44.5551 98.4665 47.8917 99.2338C54.0899 101.566 53.7372 88.4091 56.4142 76.6935C59.0912 64.978 68.2734 52.5888 64.9367 51.8215C61.0629 50.2668 49.134 62.0962 46.457 73.8118Z" fill="#1C3471"/>
<path d="M78.1079 78.8577C81.9818 92.2384 79.6574 107.006 96.7025 100.788C103.675 97.679 89.7295 91.461 88.9547 78.2477C86.6304 68.1435 75.7533 51.1773 72.7657 52.8538C65.018 52.0764 72.2591 68.3678 78.1079 78.8577Z" fill="#1C3471"/>
<path d="M55.0239 87.5203C56.0816 100.57 59.9642 112.391 63.3869 112.447C69.9325 113.438 65.1649 100.284 65.3604 88.2666C65.5559 76.2488 69.1339 55.7637 65.7112 55.7077C61.6001 54.9933 55.2194 75.5024 55.0239 87.5203Z" fill="#1C3471"/>
<path d="M67.2613 89.1293C68.3191 102.179 72.6848 115.556 78.1082 115.556C84.6538 116.547 78.883 102.343 76.5587 90.6839C75.7839 78.2478 75.3327 55.7633 71.91 55.7073C67.7989 54.9929 64.937 76.6934 67.2613 89.1293Z" fill="#1C3471"/>
<path d="M74.234 82.1338C76.2211 82.0532 75.0088 76.693 76.5584 75.9157C78.1079 76.693 78.1079 81.3565 81.207 81.3565C81.207 80.0687 77.9231 73.584 75.7836 73.584C73.6441 73.584 74.234 80.846 74.234 82.1338Z" fill="#1C3471"/>
<path d="M63.3985 88.0221C65.1336 88.256 64.9364 82.1339 66.0649 80.4368C66.8397 82.7686 65.7136 87.6876 68.3893 88.2094C68.701 86.6005 69.108 66.9489 67.2608 66.5887C65.4137 66.2284 63.7103 86.4132 63.3985 88.0221Z" fill="#1C3471"/>
<path d="M52.8507 88.169C54.5858 88.403 54.3886 82.2809 55.5171 80.5838C56.2919 82.9156 55.1658 87.8345 57.8414 88.3563C58.1532 86.7475 58.5601 67.0959 56.713 66.7356C54.8659 66.3754 53.1625 86.5601 52.8507 88.169Z" fill="#1C3471"/>
<path d="M176.475 -87.8292C176.475 -43.1857 144.909 115.034 188.982 115.034C216.099 121.252 346.262 35.754 341.613 -74.6159C341.613 -119.259 298.911 -164 254.838 -164C202.928 -160.114 176.475 -132.473 176.475 -87.8292Z" fill="#1C3471"/>
<path d="M204.04 138.048L149.468 90.9949L250.964 86.2752L204.04 138.048Z" fill="#1C3471"/>
<path d="M216.874 -83.1654C216.874 -38.5218 249.326 118.92 205.253 118.92C161.179 118.92 47.9728 14.7685 54.9459 -80.0564C54.9459 -124.7 90.6745 -159.336 134.748 -159.336C180.46 -157.004 216.874 -127.809 216.874 -83.1654Z" fill="#1C3471"/>
<path d="M256.387 42.7503C257.162 44.3041 229.538 77.7266 202.153 77.7266C171.937 80.0577 157.991 62.1809 158.765 59.0723C159.153 57.5174 173.218 71.5084 200.603 71.5084C228.495 68.8751 256.387 41.4625 256.387 42.7503Z" fill="#812A35"/>
<path d="M194.949 -45.8573C196.499 -9.3264 167.569 24.0955 137.616 24.0955C107.663 24.0955 81.8319 -6.21739 86.4806 -45.8573C86.4806 -79.3399 115.411 -113.478 145.364 -113.478C175.316 -113.478 194.949 -79.3399 194.949 -45.8573Z" fill="white"/>
</g>
<defs>
<clipPath id="clip0_577_3408">
<rect width="202" height="195" fill="white"/>
</clipPath>
</defs>
</svg>
