<svg width="202" height="195" viewBox="0 0 202 195" fill="none" xmlns="http://www.w3.org/2000/svg">
<g clip-path="url(#clip0_577_3407)">
<rect x="-201.5" y="1.5" width="402" height="387" rx="18.5" fill="#FDFFEF"/>
<rect x="-201.5" y="1.5" width="402" height="387" rx="18.5" stroke="black" stroke-width="3"/>
<path d="M132.415 219.095C137.772 232.665 138.975 260.469 135.514 261.844C132.052 263.219 125.882 237.343 120.525 223.773C115.168 210.204 106.072 191.891 113.045 190.337C116.507 188.961 127.766 204.327 132.415 219.095Z" fill="#1C3471"/>
<path d="M-26.5252 107.171C-26.5252 151.814 -58.0914 310.034 -14.018 310.034C13.0992 316.252 143.262 230.754 138.613 120.384C138.613 75.7405 95.9114 31 51.838 31C-0.0720219 34.8863 -26.5252 62.5272 -26.5252 107.171Z" fill="#1C3471"/>
<path d="M13.8742 111.835C13.8742 156.478 46.3259 313.92 2.25251 313.92C-41.8209 313.92 -155.027 209.768 -148.054 114.944C-148.054 70.3001 -112.326 35.6638 -68.2521 35.6638C-22.5405 37.9956 13.8742 67.1911 13.8742 111.835Z" fill="#1C3471"/>
<path d="M29.3691 75.3042C29.3691 77.0213 52.6124 73.7497 71.9818 77.636C108.396 89.2948 120.018 121.325 120.018 119.608C120.793 115.721 106.072 67.5317 67.3332 62.8682C45.6394 60.5363 29.3691 73.5871 29.3691 75.3042Z" fill="#0E1E42"/>
<path d="M2.31149 150.698C0.762013 187.229 29.6922 220.65 59.6449 220.65C89.5977 220.65 115.429 190.338 110.78 150.698C110.78 117.215 81.85 83.0767 51.8972 83.0767C21.9444 83.0767 2.31149 117.215 2.31149 150.698Z" fill="white"/>
<ellipse cx="12.3964" cy="13.2133" rx="12.3964" ry="13.2133" transform="matrix(-1 0 0 1 61.7388 151.475)" fill="black"/>
<path d="M2.85554 141.37C2.85554 141.37 23.7742 125.048 57.0895 131.266C90.4052 140.593 81.1079 139.038 112.099 163.133C117.522 132.82 90.405 87.7395 57.0895 81.5215C12.9276 83.8532 2.85554 127.633 2.85554 141.37Z" fill="#6785BE"/>
<ellipse cx="3.87388" cy="3.88626" rx="3.87388" ry="3.88626" transform="matrix(-1 0 0 1 49.3423 154.584)" fill="white"/>
</g>
<defs>
<clipPath id="clip0_577_3407">
<rect width="202" height="195" fill="white"/>
</clipPath>
</defs>
</svg>
