<svg width="209" height="211" viewBox="0 0 209 211" fill="none" xmlns="http://www.w3.org/2000/svg">
<path d="M126.028 184.664C123.524 206.664 122.024 206.164 129.524 204.664C131.457 204.664 133.524 196.164 135.024 184.164C133.524 175.664 132.024 159.664 125.024 168.664C123.091 168.664 126.028 173.066 126.028 184.664Z" fill="black"/>
<path d="M120.024 204.664C120.024 209.664 127.292 210.663 135.024 210.663C142.756 210.663 160.024 209.753 160.024 206.163C159.524 196.663 133.524 193.664 129.524 194.163C127.024 186.664 119.524 201.164 120.024 204.664Z" fill="black"/>
<path d="M78.9961 185C81.5 207 83 206.5 75.5 205C73.567 205 71.5 196.5 70 184.5C71.5 176 73 160 80 169C81.933 169 78.9961 173.402 78.9961 185Z" fill="black"/>
<path d="M85 205C85 210 77.732 211 70 211C62.268 211 45 210.09 45 206.5C45.5 197 71.5 194 75.5 194.5C78 187 85.5 201.5 85 205Z" fill="black"/>
<path d="M16.9024 121.06C13.4931 129.668 13.4162 147.58 15.9017 148.565C18.3872 149.549 22.0292 133.02 25.4386 124.411C28.8479 115.803 34.7683 104.237 29.7953 103.039C27.3097 102.054 19.7777 111.658 16.9024 121.06Z" fill="black"/>
<path d="M3.52161 152.982C2.44749 161.336 2.29419 168.842 4.44748 169.336C8.44748 170.836 8.21989 162.372 9.94747 154.836C11.675 147.299 17.6008 139.329 15.4475 138.836C12.9475 137.836 5.24919 145.445 3.52161 152.982Z" fill="black"/>
<path d="M23.9475 156.228C26.4475 164.836 24.9474 174.336 35.9474 170.336C40.4474 168.335 31.4474 164.335 30.9474 155.835C29.4474 149.335 22.4279 138.421 20.4999 139.5C15.4999 139 20.1729 149.48 23.9475 156.228Z" fill="black"/>
<path d="M9.05036 161.801C9.733 170.195 12.2386 177.8 14.4474 177.836C18.6716 178.473 15.5949 170.012 15.721 162.281C15.8472 154.55 18.1563 141.372 15.9474 141.336C13.2943 140.876 9.17653 154.07 9.05036 161.801Z" fill="black"/>
<path d="M16.9474 162.836C17.6301 171.23 20.4474 179.836 23.9474 179.836C28.1716 180.473 24.4474 171.336 22.9474 163.836C22.4474 155.836 22.1563 141.371 19.9474 141.335C17.2943 140.876 15.4474 154.836 16.9474 162.836Z" fill="black"/>
<path d="M21.4474 158.335C22.7298 158.284 21.9474 154.835 22.9474 154.335C23.9474 154.835 23.9474 157.835 25.9474 157.835C25.9474 157.007 23.8281 152.835 22.4474 152.835C21.0667 152.835 21.4474 157.507 21.4474 158.335Z" fill="black"/>
<path d="M14.455 162.123C15.5747 162.274 15.4474 158.336 16.1757 157.244C16.6757 158.744 15.949 161.908 17.6757 162.244C17.8769 161.209 18.1395 148.567 16.9475 148.336C15.7554 148.104 14.6562 161.088 14.455 162.123Z" fill="black"/>
<path d="M7.64784 162.218C8.76756 162.369 8.64031 158.43 9.36858 157.339C9.8686 158.839 9.14188 162.003 10.8686 162.339C11.0698 161.304 11.3324 148.662 10.1404 148.43C8.94831 148.199 7.84904 161.183 7.64784 162.218Z" fill="black"/>
<path d="M190 121C193.457 129.729 194.234 147.615 192 148.5C189.766 149.384 185.784 132.738 182.327 124.009C178.87 115.28 173 103.5 177.5 102.5C179.734 101.615 187 111.5 190 121Z" fill="black"/>
<path d="M204.926 152.646C206 161 206.153 168.506 204 169C200 170.5 200.228 162.036 198.5 154.5C196.772 146.963 190.847 138.993 193 138.5C195.5 137.5 203.198 145.109 204.926 152.646Z" fill="black"/>
<path d="M184.5 155.892C182 164.5 183.5 174 172.5 170C168 168 177 164 177.5 155.5C179 149 185.072 137.921 187 139C189.525 139.935 188.274 149.144 184.5 155.892Z" fill="black"/>
<path d="M199.397 161.465C198.714 169.859 196.209 177.464 194 177.5C189.776 178.137 192.853 169.676 192.726 161.945C192.6 154.214 190.291 141.036 192.5 141C195.153 140.54 199.271 153.734 199.397 161.465Z" fill="black"/>
<path d="M191.5 162.5C190.817 170.894 188 179.5 184.5 179.5C180.276 180.137 184 171 185.5 163.5C186 155.5 186.291 141.036 188.5 140.999C191.153 140.54 193 154.5 191.5 162.5Z" fill="black"/>
<path d="M187 158C185.718 157.948 186.5 154.5 185.5 154C184.5 154.5 184.5 157.5 182.5 157.5C182.5 156.672 184.619 152.5 186 152.5C187.381 152.5 187 157.172 187 158Z" fill="black"/>
<path d="M193.993 161.788C192.873 161.938 193 158 192.272 156.908C191.772 158.408 192.499 161.572 190.772 161.908C190.571 160.873 190.308 148.231 191.5 148C192.692 147.768 193.791 160.753 193.993 161.788Z" fill="black"/>
<path d="M200.8 161.882C199.68 162.033 199.807 158.094 199.079 157.003C198.579 158.503 199.306 161.667 197.579 162.003C197.378 160.968 197.115 148.326 198.307 148.094C199.499 147.863 200.598 160.847 200.8 161.882Z" fill="black"/>
<path d="M87.4284 49C87.4284 77.7188 67.0573 179.5 95.5 179.5C113 183.5 197 128.5 194 57.5C194 28.7812 166.443 0 138 0C104.5 2.5 87.4284 20.2812 87.4284 49Z" fill="black"/>
<path d="M105.218 194.305L70 164.036L135.5 161L105.218 194.305Z" fill="black"/>
<path d="M113.5 52C113.5 80.7188 134.443 182 106 182C77.5574 182 4.5 115 9.00007 54C9.00007 25.2812 32.0574 3 60.5001 3C90 4.5 113.5 23.2812 113.5 52Z" fill="black"/>
<path d="M123.5 28.5002C123.5 29.6047 138.5 27.5002 151 30.0002C174.5 37.5002 182 58.1047 182 57.0002C182.5 54.5002 173 23.5002 148 20.5002C134 19.0001 123.5 27.3956 123.5 28.5002Z" fill="black"/>
<path d="M83 28.5C83 29.6046 66.5 26.5 56 29.5C41.3645 29.5 24 57.1046 24 56C24 54.8954 34 23 59 20C73.6355 20 83 27.3954 83 28.5Z" fill="black"/>
<path d="M139 133C139.5 134 121.673 155.5 104 155.5C84.4999 157 75.4999 145.5 75.9999 143.5C76.25 142.5 85.3268 151.5 103 151.5C121 149.806 139 132.172 139 133Z" fill="black"/>
<path d="M106.038 77C105.038 100.5 123.708 122 143.038 122C162.368 122 179.038 102.5 176.038 77C176.038 55.4609 157.368 33.5 138.038 33.5C118.708 33.5 106.038 55.4609 106.038 77Z" fill="black"/>
<ellipse cx="8" cy="8.5" rx="8" ry="8.5" transform="matrix(-1 0 0 1 144.39 77.5)" fill="black"/>
<path d="M106.39 71C106.39 71 119.889 60.5 141.389 64.5C162.89 70.5 156.89 69.5 176.89 85C180.39 65.5 162.889 36.5 141.389 32.5C112.89 34 106.39 62.1634 106.39 71Z" fill="black"/>
<circle cx="2.5" cy="2.5" r="2.5" transform="matrix(-1 0 0 1 136.39 79.5)" fill="black"/>
<path d="M99.3511 76C100.351 99.5 81.6811 121 62.3511 121C43.0211 121 26.3511 101.5 29.3511 76C29.3511 54.4609 48.0211 32.5 67.3511 32.5C86.6811 32.5 99.3511 54.4609 99.3511 76Z" fill="black"/>
<ellipse cx="69" cy="85" rx="8" ry="8.5" fill="black"/>
<path d="M99 70C99 70 85.5002 59.5 64.0002 63.5C42.5 69.5 48.5 68.5 28.5 84C25 64.5 42.5002 35.5 64.0002 31.5C92.5 33 99 61.1634 99 70Z" fill="black"/>
<circle cx="71.5" cy="81" r="2.5" fill="black"/>
</svg>
