<svg width="102" height="101" viewBox="0 0 102 101" fill="none" xmlns="http://www.w3.org/2000/svg">
<path d="M83 121C86.4571 129.729 87.2339 147.615 85 148.5C82.7661 149.384 78.7839 132.738 75.3269 124.009C71.8698 115.28 66 103.5 70.5001 102.5C72.734 101.615 80 111.5 83 121Z" fill="#1C3471"/>
<path d="M-19.5716 49C-19.5716 77.7188 -39.9427 179.5 -11.5 179.5C6 183.5 90 128.5 87 57.5C87 28.7812 59.4426 0 31 0C-2.50004 2.5 -19.5716 20.2812 -19.5716 49Z" fill="#1C3471"/>
<path d="M6.50008 52C6.50008 80.7188 27.4427 182 -0.999916 182C-29.4426 182 -102.5 115 -97.9999 54C-97.9999 25.2812 -74.9426 3 -46.4999 3C-17 4.5 6.50008 23.2812 6.50008 52Z" fill="#1C3471"/>
<path d="M16.5 28.5002C16.5 29.6047 31.5 27.5002 44 30.0002C67.5 37.5002 75 58.1047 75 57.0002C75.5 54.5002 66 23.5002 41 20.5002C27 19.0001 16.5 27.3956 16.5 28.5002Z" fill="#0E1E42"/>
<path d="M-0.961594 77C-1.96155 100.5 16.7085 122 36.0384 122C55.3684 122 72.0384 102.5 69.0384 77C69.0384 55.4609 50.3684 33.5 31.0384 33.5C11.7085 33.5 -0.961594 55.4609 -0.961594 77Z" fill="white"/>
<ellipse cx="8" cy="8.5" rx="8" ry="8.5" transform="matrix(-1 0 0 1 37.3895 77.5)" fill="black"/>
<path d="M-0.610474 71C-0.610474 71 12.8893 60.5 34.3893 64.5C55.8895 70.5 49.8895 69.5 69.8895 85C73.3895 65.5 55.8893 36.5 34.3893 32.5C5.88953 34 -0.610474 62.1634 -0.610474 71Z" fill="#6785BE"/>
<circle cx="2.5" cy="2.5" r="2.5" transform="matrix(-1 0 0 1 29.3895 79.5)" fill="white"/>
</svg>
