<svg width="107" height="111" viewBox="0 0 107 111" fill="none" xmlns="http://www.w3.org/2000/svg">
<path d="M78.9961 85.0001C81.5 107 83 106.5 75.5 105C73.567 105 71.5 96.5003 70 84.5001C71.5 76.0003 73 60 80 69.0001C81.933 69.0001 78.9961 73.4021 78.9961 85.0001Z" fill="#1C3471"/>
<path d="M85 105C85 110 77.732 111 70 111C62.268 111 45 110.09 45 106.5C45.5 96.9998 71.5 94.0001 75.5 94.4999C78 87.0001 85.5 101.5 85 105Z" fill="#1C3471"/>
<path d="M16.9024 21.0596C13.4931 29.6683 13.4162 47.5805 15.9017 48.5648C18.3872 49.5492 22.0292 33.02 25.4386 24.4112C28.8479 15.8025 34.7683 4.23707 29.7953 3.03884C27.3097 2.05449 19.7777 11.6577 16.9024 21.0596Z" fill="#1C3471"/>
<path d="M3.52161 52.9819C2.44749 61.3357 2.29419 68.8421 4.44748 69.3357C8.44748 70.8357 8.21989 62.3723 9.94747 54.8358C11.675 47.2992 17.6008 39.3294 15.4475 38.8358C12.9475 37.8357 5.24919 45.4454 3.52161 52.9819Z" fill="#1C3471"/>
<path d="M23.9476 56.2279C26.4476 64.8355 24.9475 74.3355 35.9475 70.3355C40.4475 68.3355 31.4475 64.3355 30.9475 55.8355C29.4475 49.3355 22.428 38.4213 20.5 39.4998C15.5 38.9997 20.173 49.4798 23.9476 56.2279Z" fill="#1C3471"/>
<path d="M9.05042 61.8006C9.73306 70.1954 12.2386 77.7999 14.4475 77.8359C18.6717 78.4733 15.5949 70.0116 15.7211 62.2807C15.8473 54.5497 18.1563 41.3719 15.9475 41.3358C13.2944 40.8762 9.1766 54.0696 9.05042 61.8006Z" fill="#1C3471"/>
<path d="M16.9475 62.8355C17.6301 71.2304 20.4475 79.8355 23.9475 79.8355C28.1717 80.4729 24.4475 71.3356 22.9475 63.8356C22.4475 55.8356 22.1563 41.3715 19.9475 41.3354C17.2944 40.8758 15.4475 54.8356 16.9475 62.8355Z" fill="#1C3471"/>
<path d="M21.4475 58.3354C22.7299 58.2836 21.9475 54.8354 22.9475 54.3354C23.9475 54.8354 23.9475 57.8354 25.9475 57.8354C25.9475 57.007 23.8282 52.8354 22.4475 52.8354C21.0668 52.8354 21.4475 57.507 21.4475 58.3354Z" fill="#1C3471"/>
<path d="M14.455 62.1235C15.5747 62.274 15.4474 58.3357 16.1757 57.244C16.6757 58.744 15.949 61.9083 17.6757 62.244C17.8769 61.209 18.1395 48.5673 16.9475 48.3356C15.7554 48.1038 14.6562 61.0885 14.455 62.1235Z" fill="#1C3471"/>
<path d="M7.64796 62.2182C8.76768 62.3687 8.64043 58.4304 9.3687 57.3387C9.86872 58.8387 9.142 62.003 10.8687 62.3387C11.0699 61.3037 11.3325 48.662 10.1405 48.4303C8.94843 48.1986 7.84916 61.1832 7.64796 62.2182Z" fill="#1C3471"/>
<path d="M87.4284 -51C87.4284 -22.2812 67.0573 79.5 95.5 79.5C113 83.5 197 28.5 194 -42.5C194 -71.2188 166.443 -100 138 -100C104.5 -97.5 87.4284 -79.7188 87.4284 -51Z" fill="#1C3471"/>
<path d="M105.218 94.3052L70 64.0361L135.5 61L105.218 94.3052Z" fill="#1C3471"/>
<path d="M113.5 -48C113.5 -19.2812 134.443 82 106 82C77.5574 82 4.5 15 9.00007 -46C9.00007 -74.7188 32.0574 -97 60.5001 -97C90 -95.5 113.5 -76.7188 113.5 -48Z" fill="#1C3471"/>
<path d="M139 33.0004C139.5 34 121.673 55.5005 104 55.5005C84.5 57 75.5 45.5 76 43.5003C76.2501 42.5 85.3269 51.5003 103 51.5003C121 49.8063 139 32.172 139 33.0004Z" fill="#812A35"/>
<path d="M106.038 -23C105.038 0.5 123.708 22 143.038 22C162.368 22 179.038 2.5 176.038 -23C176.038 -44.5391 157.368 -66.5 138.038 -66.5C118.708 -66.5 106.038 -44.5391 106.038 -23Z" fill="white"/>
<path d="M99.3511 -24C100.351 -0.5 81.6811 21 62.3511 21C43.0211 21 26.3511 1.5 29.3511 -24C29.3511 -45.5391 48.0211 -67.5 67.3511 -67.5C86.6811 -67.5 99.3511 -45.5391 99.3511 -24Z" fill="white"/>
</svg>
