<svg width="135" height="130" viewBox="0 0 135 130" fill="none" xmlns="http://www.w3.org/2000/svg">
<g clip-path="url(#clip0_565_18677)">
<rect width="135" height="130" fill="white"/>
<rect x="-193.5" y="-184.5" width="524" height="498" rx="18.5" fill="#FDFFEF" stroke="black" stroke-width="3"/>
<path fill-rule="evenodd" clip-rule="evenodd" d="M88.0353 -18.7655C90.4578 -14.2006 91.1741 -9.36303 90.1842 -4.25262C85.7546 2.17352 79.7851 6.28515 72.277 8.08329C61.7448 8.92794 51.2397 8.68557 40.7605 7.35765C35.6834 4.35494 30.4316 3.87167 25.0022 5.90637C24.0467 5.90637 23.0926 5.90637 22.1371 5.90637C22.3734 1.04471 22.1342 -3.79285 21.4208 -8.60647C19.9323 -7.52701 19.2161 -6.07572 19.2719 -4.25262C15.3295 14.7737 11.9873 14.7737 9.24393 -4.25262C8.28841 3.0038 7.33432 10.2602 6.37879 17.5166C3.81736 16.3803 2.38479 14.4457 2.08108 11.7115C1.81606 9.25012 0.621293 7.31556 -1.50034 5.90637C-1.19234 10.7116 -1.19234 15.5487 -1.50034 20.4192C-8.32511 10.5708 -17.399 4.28093 -28.7192 1.55251C-29.6747 -4.73633 -29.6747 -11.0253 -28.7192 -17.3142C-26.98 -19.5619 -24.8312 -21.2551 -22.2726 -22.3937C-24.9358 -24.6545 -27.0846 -27.3151 -28.7192 -30.3757C-29.6747 -37.1484 -29.6747 -43.921 -28.7192 -50.6937C-9.87372 -70.6333 -13.4551 -73.7778 -39.4635 -60.127C-41.3587 -58.9429 -42.3128 -57.2497 -42.3286 -55.0475C-44.3614 -62.8575 -41.9733 -69.3883 -35.1657 -74.6399C-45.1679 -74.86 -52.3308 -79.4558 -56.6543 -88.4271C-56.4151 -88.9108 -56.1773 -89.3946 -55.938 -89.8784C-52.4755 -87.7036 -48.6563 -86.7362 -44.4775 -86.9758C-41.0751 -86.836 -37.9721 -87.5617 -35.1657 -89.1527C-42.9303 -96.7749 -45.0791 -105.724 -41.6123 -116.001C-36.7602 -106.393 -28.8811 -101.313 -17.9749 -100.763C-5.93128 -96.0312 -0.678048 -87.0817 -2.21663 -73.9142C5.95762 -74.3914 14.0746 -73.9076 22.1371 -72.463C25.7801 -66.7731 29.6008 -61.2098 33.5976 -55.7732C51.2526 -60.6093 66.2946 -56.4974 78.7236 -43.4373C82.6775 -34.6702 85.0656 -25.4788 85.8864 -15.8629C86.2847 -17.192 87.001 -18.1595 88.0353 -18.7655Z" fill="#0381C6"/>
<path fill-rule="evenodd" clip-rule="evenodd" d="M149.636 -17.3145C145.187 -19.0668 140.889 -21.2437 136.743 -23.8453C132.421 -28.3232 128.123 -32.6771 123.85 -36.9068C117.164 -37.8744 110.48 -37.8744 103.794 -36.9068C102.184 -36.5452 100.751 -35.8195 99.4961 -34.7299C96.631 -28.4411 93.7658 -22.1521 90.9007 -15.8632C94.4664 -8.48649 93.0338 -1.95571 86.603 3.72911C71.7931 12.7532 56.5119 13.9636 40.7607 7.35732C51.24 8.68524 61.745 8.9276 72.2773 8.08296C79.7854 6.28482 85.7549 2.17319 90.1844 -4.25295C91.1743 -9.36336 90.458 -14.2009 88.0356 -18.7658C91.0812 -25.0321 94.4234 -31.321 98.0635 -37.6325C108.761 -43.5463 119.267 -43.3044 129.58 -36.9068C135.349 -30.1002 142.035 -24.295 149.636 -19.4914C151.41 -18.49 151.41 -17.7644 149.636 -17.3145Z" fill="black"/>
<path fill-rule="evenodd" clip-rule="evenodd" d="M2.08138 11.7111C0.826451 16.1767 0.349405 20.5305 0.648812 24.7726C-5.29922 19.474 -11.0295 13.9112 -16.542 8.08286C-25.6346 6.48935 -34.23 7.94063 -42.3283 12.4367C-45.5057 22.9803 -50.759 32.4136 -58.0866 40.7367C-59.5936 40.953 -61.0262 40.7121 -62.3843 40.0111C-54.19 32.3832 -48.6989 22.9498 -45.9097 11.7111C-41.4458 8.36296 -36.4318 6.4284 -30.8677 5.90594C-31.4952 0.721515 -32.4493 -4.35798 -33.7329 -9.33254C-32.8461 -14.5136 -30.458 -18.8675 -26.57 -22.3941C-33.6498 -33.3707 -34.1283 -44.7391 -28.0026 -56.4993C-19.6392 -63.5921 -20.5948 -65.2853 -30.8677 -61.5788C-34.9205 -59.6112 -38.7411 -57.4343 -42.3283 -55.048C-42.3125 -57.2502 -41.3584 -58.9434 -39.4632 -60.1275C-13.4548 -73.7782 -9.87342 -70.6337 -28.7189 -50.6941C-29.6744 -43.9214 -29.6744 -37.1489 -28.7189 -30.3762C-27.0843 -27.3155 -24.9355 -24.6549 -22.2723 -22.3941C-24.8309 -21.2556 -26.9797 -19.5623 -28.7189 -17.3146C-29.6744 -11.0258 -29.6744 -4.73676 -28.7189 1.55208C-17.3987 4.2805 -8.32481 10.5704 -1.50004 20.4188C-1.19204 15.5483 -1.19204 10.7111 -1.50004 5.90594C0.621593 7.31513 1.81636 9.24969 2.08138 11.7111Z" fill="black"/>
<path fill-rule="evenodd" clip-rule="evenodd" d="M22.1372 5.90639C21.1817 2.52011 20.2276 -0.866314 19.2721 -4.25259C19.2162 -6.0757 19.9325 -7.52698 21.4209 -8.60645C22.1344 -3.79283 22.3736 1.04474 22.1372 5.90639Z" fill="#131412"/>
<path fill-rule="evenodd" clip-rule="evenodd" d="M143.906 8.80859C145.374 25.2125 138.211 32.9521 122.417 32.0291C123.526 38.2392 124.242 44.529 124.566 50.8958C128.012 52.0191 131.593 52.7448 135.311 53.0727C133.318 56.5413 130.453 58.9606 126.715 60.3292C127.977 61.3567 128.931 62.567 129.58 63.9574C126.825 63.5292 124.437 62.3203 122.417 60.3292C125.042 59.2436 127.43 57.7923 129.58 55.9753C126.217 55.4732 123.591 53.7795 121.701 50.8958C121.385 44.0458 120.668 37.2726 119.552 30.5778C130.775 31.064 138.416 25.9845 142.473 15.3394C140.154 12.2046 140.631 10.0277 143.906 8.80859Z" fill="black"/>
<path fill-rule="evenodd" clip-rule="evenodd" d="M149.636 -17.3143C147.341 -15.0301 144.476 -14.0626 141.04 -14.4118C138.939 -15.5606 137.029 -15.5606 135.31 -14.4118C139.006 -9.70335 143.781 -6.80079 149.636 -5.70405C146.749 -3.63771 143.407 -2.67014 139.608 -2.80149C138.353 -2.99146 137.397 -2.5076 136.743 -1.3502C140.128 2.53895 144.425 4.4738 149.636 4.45493C151.409 4.90483 151.409 5.63047 149.636 6.63186C147.852 7.77982 145.943 8.50547 143.905 8.80879C140.631 10.0279 140.154 12.2048 142.473 15.3396C138.416 25.9847 130.775 31.0642 119.552 30.578C120.668 37.2728 121.384 44.0459 121.701 50.896C123.59 53.7797 126.216 55.4733 129.58 55.9755C127.429 57.7925 125.041 59.2438 122.417 60.3293C124.437 62.3205 126.825 63.5294 129.58 63.9576C131.514 65.6265 131.276 66.5945 128.863 66.8601C119.32 64.3596 118.603 65.8108 126.715 71.214C124.633 71.8366 122.246 72.0789 119.552 71.9396C116.743 76.2398 113.4 80.1089 109.524 83.5499C103.461 86.8515 97.7309 90.4798 92.3329 94.4345C91.843 95.6507 90.8889 96.1354 89.4678 95.8858C86.786 100.282 82.9654 103.425 78.0072 105.319C81.8852 105.779 85.2274 104.57 88.0352 101.691C89.4678 104.593 90.9004 107.496 92.3329 110.399C84.2533 109.426 77.0904 111.362 70.8444 116.204C69.4176 116.329 68.2242 115.844 67.263 114.752C66.6871 112.761 65.9708 110.827 65.1141 108.947C80.308 107.271 80.308 106.062 65.1141 105.319C63.014 104.398 61.1029 103.187 59.3838 101.691C59.9741 103.551 59.02 105.003 56.5187 106.045C51.4445 105.591 46.6698 106.075 42.193 107.496C39.3608 104.247 35.7794 102.311 31.4487 101.691C27.8114 103.29 24.23 103.29 20.7044 101.691C18.822 102.871 17.1502 104.322 15.6904 106.045C15.434 98.1193 13.2852 97.1513 9.24388 103.142C7.91016 100.028 8.38864 96.8843 10.6765 93.7089C6.12804 93.7858 2.30738 92.5769 -0.78411 90.0807C2.53659 89.6191 4.44764 87.6831 4.94617 84.2755C1.02809 78.3528 -2.31553 72.063 -5.08182 65.4088C-21.3644 76.768 -34.7346 73.8655 -45.1938 56.7011C-42.7484 53.5925 -41.5536 50.2066 -41.6124 46.5422C-42.6266 47.8207 -43.8214 48.7873 -45.1938 49.4447C-48.4371 50.4882 -51.7793 50.9715 -55.2218 50.896C-51.404 46.7816 -47.8225 42.4278 -44.4775 37.8345C-43.522 36.3832 -43.522 34.9319 -44.4775 33.4806C-45.837 35.7925 -47.5074 37.7271 -49.4915 39.2857C-52.2635 40.2291 -55.1287 40.7123 -58.0869 40.737C-50.7593 32.4139 -45.5061 22.9806 -42.3286 12.437C-34.2303 7.94092 -25.6349 6.48963 -16.5424 8.08314C-11.0299 13.9115 -5.29957 19.4743 0.64846 24.7729C0.349053 20.5308 0.826099 16.177 2.08103 11.7114C2.38473 14.4456 3.81731 16.3801 6.37874 17.5165C7.33426 10.2601 8.28836 3.00365 9.24388 -4.25277C11.9873 14.7736 15.3294 14.7736 19.2719 -4.25277C20.2274 -0.866489 21.1815 2.51994 22.137 5.90622C23.0925 5.90622 24.0466 5.90622 25.0022 5.90622C30.2998 5.98168 35.553 6.46641 40.7604 7.3575C56.5115 13.9637 71.7928 12.7534 86.6027 3.72929C93.0335 -1.95553 94.466 -8.48631 90.9004 -15.863C93.7655 -22.1519 96.6307 -28.4409 99.4958 -34.7297C100.751 -35.8193 102.183 -36.545 103.794 -36.9066C110.479 -37.8742 117.164 -37.8742 123.849 -36.9066C128.123 -32.6769 132.421 -28.323 136.743 -23.8451C140.888 -21.2435 145.186 -19.0666 149.636 -17.3143Z" fill="#DDB901"/>
<path fill-rule="evenodd" clip-rule="evenodd" d="M20.7049 26.2247C27.7245 25.4236 32.5007 28.3261 35.0306 34.9324C24.3207 32.8672 17.8741 37.7043 15.6909 49.4452C11.5679 40.1019 13.2397 32.3607 20.7049 26.2247Z" fill="#151107"/>
<path fill-rule="evenodd" clip-rule="evenodd" d="M78.0074 11.7114C87.6329 10.7884 93.8402 15.1423 96.6308 24.773C96.1538 25.2563 95.6753 25.741 95.1983 26.2243C87.6357 18.6529 80.2351 18.6529 72.9934 26.2243C72.9003 20.8153 74.5707 15.9782 78.0074 11.7114Z" fill="#110E07"/>
<path fill-rule="evenodd" clip-rule="evenodd" d="M113.822 5.90625C115.439 9.04973 114.723 11.9523 111.673 14.614C111.621 11.6069 112.338 8.70432 113.822 5.90625Z" fill="#221B0D"/>
<path fill-rule="evenodd" clip-rule="evenodd" d="M25.0024 5.90638C30.4319 3.87168 35.6837 4.35496 40.7607 7.35766C35.5533 6.46657 30.3001 5.98184 25.0024 5.90638Z" fill="#12222D"/>
<path fill-rule="evenodd" clip-rule="evenodd" d="M115.254 -4.25293C118.306 -1.89155 121.171 0.769092 123.85 3.72913C120.634 3.44569 118.008 1.75263 115.971 -1.35036C113.723 3.83362 110.381 8.18747 105.943 11.7112C104.987 10.7432 104.987 9.77663 105.943 8.80862C109.762 4.92499 112.866 0.570992 115.254 -4.25293Z" fill="black"/>
<path fill-rule="evenodd" clip-rule="evenodd" d="M85.1702 40.7368C94.8272 42.3652 98.4086 48.1703 95.9145 58.1522C90.6498 66.0327 85.8751 65.548 81.5888 56.7009C80.0789 50.6709 81.2736 45.349 85.1702 40.7368Z" fill="black"/>
<path fill-rule="evenodd" clip-rule="evenodd" d="M30.7325 55.25C38.2951 57.3573 42.5928 62.4368 43.6257 70.4885C42.067 76.8785 38.2464 78.5721 32.1651 75.568C27.1726 69.0111 26.6956 62.2379 30.7325 55.25Z" fill="#110F0A"/>
<path fill-rule="evenodd" clip-rule="evenodd" d="M32.1652 56.7012C33.6823 58.9797 32.966 60.9142 30.0164 62.5063C29.5866 60.2336 30.3029 58.299 32.1652 56.7012Z" fill="#D5D6D5"/>
<path fill-rule="evenodd" clip-rule="evenodd" d="M85.2912 42.9141C86.8083 45.1926 86.092 47.1271 83.1424 48.7192C82.7126 46.4465 83.4289 44.5119 85.2912 42.9141Z" fill="#D5D6D5"/>
<path fill-rule="evenodd" clip-rule="evenodd" d="M63.6819 61.0551C67.0585 60.8186 70.4007 61.0595 73.7099 61.7808C68.2877 62.6138 63.0344 63.5804 57.9517 64.6834C59.8971 63.3279 61.8081 62.1175 63.6819 61.0551Z" fill="#2E260B"/>
<path fill-rule="evenodd" clip-rule="evenodd" d="M63.6817 65.4088C67.531 65.1708 71.3517 65.4131 75.1422 66.1344C77.6937 74.2268 74.5893 78.3383 65.8305 78.4703C59.1175 79.0073 56.2524 76.1047 57.2351 69.7626C59.2536 67.9035 61.4025 66.4523 63.6817 65.4088Z" fill="#0D0B08"/>
<path fill-rule="evenodd" clip-rule="evenodd" d="M129.58 63.9575C133.035 64.2391 134.468 66.1736 133.878 69.7627C131.829 69.8773 129.918 69.394 128.147 68.3114C127.004 68.9746 126.527 69.9426 126.715 71.2139C118.604 65.8108 119.32 64.3595 128.864 66.8601C131.276 66.5945 131.514 65.6265 129.58 63.9575Z" fill="black"/>
<path opacity="0.788" fill-rule="evenodd" clip-rule="evenodd" d="M-0.784103 90.0805C0.440745 88.5842 1.39627 86.892 2.08104 85.001C-1.10213 80.0884 -3.96727 75.0089 -6.51438 69.7625C-16.7931 77.2265 -27.2981 77.4688 -38.0309 70.4882C-46.1464 65.0299 -48.5331 58.0144 -45.1938 49.4446C-43.8214 48.7871 -42.6266 47.8206 -41.6124 46.542C-41.5536 50.2065 -42.7484 53.5923 -45.1938 56.701C-34.7346 73.8653 -21.3644 76.7679 -5.08181 65.4087C-2.31552 72.0628 1.0281 78.3527 4.94618 84.2754C4.44764 87.683 2.5366 89.619 -0.784103 90.0805Z" fill="black"/>
<path fill-rule="evenodd" clip-rule="evenodd" d="M65.1142 66.8604C72.5148 67.6353 72.5148 69.0866 65.1142 71.2142C64.1586 70.7309 63.2045 70.2462 62.249 69.7629C63.3134 68.7731 64.2675 67.8051 65.1142 66.8604Z" fill="#CDCECE"/>
<path fill-rule="evenodd" clip-rule="evenodd" d="M143.906 39.2858C144.861 42.1884 145.815 45.091 146.771 47.9935C146.383 50.7219 147.338 52.6565 149.636 53.7987C150.113 57.1845 152.024 59.1205 155.366 59.6038C158.128 62.4686 161.471 64.6455 165.394 66.1346C171.672 66.5583 177.879 67.284 184.018 68.3115C186.519 69.3535 187.473 70.8048 186.883 72.6653C191.398 66.1694 197.606 62.7821 205.506 62.5064C207.013 62.7226 208.446 62.4817 209.804 61.7807C211.57 59.3614 213.482 57.1845 215.534 55.2499C216.569 54.6433 217.285 53.6767 217.683 52.3474C219.279 59.7663 216.891 65.5715 210.52 69.7628C210.043 68.3115 209.565 66.8602 209.088 65.4089C208.92 73.2488 205.339 78.813 198.344 82.0987C188.483 85.5208 178.455 86.4888 168.26 85.0013C169.215 85.4845 170.169 85.9693 171.125 86.4525C156.584 101.523 138.916 108.296 118.12 106.771C112.866 101.678 107.615 96.3561 102.361 90.8064C114.852 82.7068 127.984 75.6927 141.757 69.7628C142.274 65.3726 142.99 61.0188 143.906 56.7012C142.263 53.3546 140.353 50.2096 138.176 47.2679C138.203 44.6077 139.157 42.4308 141.041 40.7371C141.531 39.5209 142.485 39.0362 143.906 39.2858Z" fill="#DCB802"/>
<path fill-rule="evenodd" clip-rule="evenodd" d="M83.7379 95.886C83.566 94.31 82.6105 93.3419 80.8728 92.9835C78.575 93.6206 76.4261 94.5886 74.4262 95.886C69.789 94.0023 66.6861 95.4536 65.1145 100.24C60.0576 97.0805 55.7598 92.9675 52.2214 87.904C49.6786 85.8156 46.8134 84.3643 43.626 83.5501C44.8193 82.3412 46.0141 81.1308 47.2074 79.9219C51.9019 88.0622 58.8255 90.7224 67.9797 87.904C68.8765 86.8155 69.5927 85.6052 70.1285 84.2758C78.595 87.3641 84.5631 84.2206 88.0357 74.8424C87.4555 73.471 86.4999 72.503 85.1705 71.9399C87.5586 70.9719 89.9453 70.9719 92.3334 71.9399C89.2433 79.8929 86.3782 87.875 83.7379 95.886Z" fill="#141007"/>
<path fill-rule="evenodd" clip-rule="evenodd" d="M99.4962 104.593C97.1482 106.006 95.2372 107.94 93.7659 110.399C93.2889 110.399 92.8104 110.399 92.3334 110.399C90.9008 107.496 89.4682 104.593 88.0356 101.691C88.5127 99.7563 88.9912 97.8203 89.4682 95.8857C90.8893 96.1354 91.8434 95.6506 92.3334 94.4344C100.231 91.2619 105.961 93.6812 109.524 101.691C105.987 102.66 102.645 103.628 99.4962 104.593Z" fill="#1276B3"/>
<path fill-rule="evenodd" clip-rule="evenodd" d="M83.7377 95.886C78.1578 99.5679 71.9505 101.019 65.1143 100.24C66.6858 95.4535 69.7887 94.0022 74.426 95.886C76.4258 94.5885 78.5747 93.6205 80.8725 92.9834C82.6102 93.3419 83.5658 94.3099 83.7377 95.886Z" fill="#D5521C"/>
<path fill-rule="evenodd" clip-rule="evenodd" d="M83.7377 95.8857C83.6317 98.6591 82.1991 100.353 79.44 100.965C74.3873 102.138 69.6125 101.896 65.1143 100.24C71.9505 101.019 78.1578 99.5676 83.7377 95.8857Z" fill="#2C190D"/>
<path fill-rule="evenodd" clip-rule="evenodd" d="M89.4679 95.8857C88.9908 97.8203 88.5124 99.7563 88.0353 101.691C85.2275 104.57 81.8853 105.779 78.0073 105.319C82.9654 103.425 86.7861 100.282 89.4679 95.8857Z" fill="black"/>
<path opacity="0.906" fill-rule="evenodd" clip-rule="evenodd" d="M-0.783935 90.0806C2.30755 92.5768 6.12822 93.7857 10.6766 93.7088C8.38881 96.8842 7.91033 100.028 9.24406 103.142C8.07794 105.715 6.1669 106.441 3.51378 105.319C8.74122 98.0104 6.83161 94.1398 -2.21651 93.7088C-4.19775 91.5885 -3.71927 90.3795 -0.783935 90.0806Z" fill="black"/>
<path fill-rule="evenodd" clip-rule="evenodd" d="M99.4959 104.593C109.007 102.236 115.691 105.381 119.552 114.027C117.69 117.563 116.257 121.192 115.254 124.911C114.777 124.911 114.299 124.911 113.822 124.911C107.563 124.959 101.355 124.476 95.1982 123.46C94.5349 119.132 94.0579 114.778 93.7656 110.398C95.2369 107.94 97.1479 106.005 99.4959 104.593Z" fill="#EFEC03"/>
<path fill-rule="evenodd" clip-rule="evenodd" d="M56.519 106.045C58.9071 106.045 61.2937 106.045 63.6818 106.045C63.6818 108.464 63.6818 110.882 63.6818 113.301C57.9873 113.281 53.2126 115.216 49.3561 119.106C47.9622 115.554 47.4852 111.683 47.9235 107.496C51.1253 107.924 53.9905 107.44 56.519 106.045Z" fill="#0380C3"/>
<path fill-rule="evenodd" clip-rule="evenodd" d="M95.1985 123.46C101.095 128.57 107.304 129.055 113.822 124.912C114.299 124.912 114.777 124.912 115.255 124.912C118.082 122.114 120.231 118.728 121.701 114.753C125.595 118.049 128.221 122.16 129.58 127.089C142.344 131.988 152.135 140.453 158.948 152.486C161.982 165.581 157.447 174.531 145.338 179.335C132.53 183.557 121.309 180.896 111.673 171.353C105.881 159.801 108.03 157.624 118.12 164.822C120.029 165.79 121.94 165.79 123.85 164.822C118.645 163.632 114.348 160.972 110.957 156.84C102.274 164.289 92.246 168.643 80.8728 169.901C77.777 179.56 73.7186 188.751 68.696 197.476C59.049 183.361 45.9167 174.412 29.3003 170.627C33.5421 165.668 36.8843 160.105 39.3283 153.937C35.7469 148.91 34.3143 143.588 35.0306 137.973C37.9029 135.312 41.0073 132.892 44.3423 130.717C46.7834 133.435 49.4093 135.854 52.2214 137.973C53.8316 139.873 55.9805 140.839 58.668 140.876C63.7765 140.765 67.8364 138.829 70.8448 135.071C72.9536 132.724 73.9091 129.821 73.71 126.363C73.7945 122.577 72.839 119.189 70.8448 116.204C77.8787 114.29 85.0416 112.838 92.3334 111.85C91.7761 116.281 92.7302 120.151 95.1985 123.46Z" fill="#0182C7"/>
<path fill-rule="evenodd" clip-rule="evenodd" d="M70.8445 116.204C72.8386 119.189 73.7942 122.576 73.7096 126.363C73.9088 129.821 72.9533 132.724 70.8445 135.07C73.2799 117.256 66.117 111.934 49.356 119.106C53.2124 115.215 57.9872 113.281 63.6817 113.301C63.6817 110.882 63.6817 108.464 63.6817 106.045C61.2936 106.045 58.9069 106.045 56.5188 106.045C59.0201 105.003 59.9742 103.551 59.3839 101.691C61.103 103.187 63.0141 104.398 65.1142 105.319C80.3081 106.062 80.3081 107.271 65.1142 108.947C65.9709 110.827 66.6872 112.761 67.2631 114.752C68.2243 115.844 69.4177 116.329 70.8445 116.204Z" fill="black"/>
<path fill-rule="evenodd" clip-rule="evenodd" d="M70.8444 135.07C64.9193 137.513 58.712 138.481 52.221 137.973C50.3357 134.603 48.4261 131.216 46.4907 127.814C47.1741 124.77 48.1282 121.868 49.3559 119.106C66.1169 111.934 73.2798 117.256 70.8444 135.07Z" fill="#F0EE03"/>
<path fill-rule="evenodd" clip-rule="evenodd" d="M92.3333 110.399C92.8103 110.399 93.2888 110.399 93.7659 110.399C94.0581 114.779 94.5351 119.132 95.1984 123.46C92.7301 120.151 91.776 116.281 92.3333 111.85C85.0415 112.838 77.8786 114.29 70.8447 116.204C77.0907 111.362 84.2536 109.426 92.3333 110.399Z" fill="#1D1D17"/>
<path fill-rule="evenodd" clip-rule="evenodd" d="M42.1933 107.496C43.7003 107.28 45.1329 107.521 46.491 108.222C44.6301 112.772 44.6301 117.366 46.491 122.009C45.6343 123.888 44.918 125.823 44.3421 127.814C39.9384 130.094 36.8355 133.48 35.0304 137.973C33.9316 136.998 32.9761 135.789 32.1653 134.345C35.7439 130.792 37.8927 126.681 38.6119 122.009C35.1021 128.952 30.0881 134.515 23.5699 138.699C16.2652 140.048 9.10235 141.983 2.08132 144.504C7.76863 144.031 13.4989 144.031 19.2722 144.504C23.0384 149.146 22.5613 153.5 17.8396 157.565C13.2367 158.586 8.70123 158.343 4.23018 156.84C-0.164946 162.382 -5.65599 163.833 -12.2444 161.194C-18.5921 164.816 -25.0387 164.816 -31.5841 161.194C-40.4918 165.836 -48.6102 164.868 -55.9378 158.291C-56.6498 154.939 -56.8876 151.553 -56.6541 148.132C-51.0026 149.81 -45.2723 150.535 -39.4632 150.309C-35.6425 146.923 -35.6425 143.536 -39.4632 140.15C-45.6161 138.847 -51.1071 136.187 -55.9378 132.168C-58.1969 125.522 -56.0481 121.169 -49.4912 119.106C-44.0517 121.961 -38.7985 125.106 -33.7329 128.54C-30.4237 129.261 -27.0815 129.502 -23.7049 129.265C-23.692 126.641 -24.4083 124.222 -25.8538 122.009C-37.9547 110.886 -36.2829 105.324 -20.8398 105.319C-14.3431 112.428 -9.08986 120.41 -5.08153 129.265C-3.52002 127.972 -3.52002 126.521 -5.08153 124.911C5.22582 111.708 18.596 105.177 35.0304 105.319C37.589 106.458 39.7379 108.151 41.477 110.399C42.1417 109.537 42.3809 108.569 42.1933 107.496Z" fill="#DDB901"/>
<path fill-rule="evenodd" clip-rule="evenodd" d="M42.1931 107.496C46.6699 106.075 51.4447 105.59 56.5188 106.045C53.9903 107.439 51.1252 107.924 47.9234 107.496C47.485 111.683 47.9621 115.554 49.356 119.106C48.1283 121.868 47.1742 124.771 46.4908 127.814C48.4262 131.216 50.3359 134.603 52.2211 137.973C49.409 135.854 46.7831 133.435 44.342 130.717C41.007 132.892 37.9026 135.311 35.0303 137.973C36.8353 133.48 39.9383 130.094 44.342 127.814C44.9179 125.823 45.6342 123.888 46.4908 122.009C44.6299 117.366 44.6299 112.771 46.4908 108.222C45.1328 107.521 43.7002 107.28 42.1931 107.496Z" fill="black"/>
<path fill-rule="evenodd" clip-rule="evenodd" d="M42.1933 107.496C42.381 108.569 42.1418 109.537 41.477 110.399C39.7379 108.151 37.5891 106.458 35.0305 105.319C18.596 105.177 5.22586 111.708 -5.08148 124.911C-3.51998 126.521 -3.51998 127.972 -5.08148 129.265C-9.08982 120.41 -14.343 112.428 -20.8398 105.319C-36.2829 105.323 -37.9547 110.886 -25.8537 122.009C-24.4083 124.222 -23.692 126.641 -23.7049 129.265C-27.0815 129.502 -30.4236 129.261 -33.7329 128.54C-38.7985 125.106 -44.0517 121.961 -49.4912 119.106C-56.048 121.169 -58.1969 125.522 -55.9377 132.168C-51.1071 136.186 -45.6161 138.847 -39.4632 140.15C-35.6425 143.536 -35.6425 146.923 -39.4632 150.309C-45.2722 150.535 -51.0025 149.81 -56.654 148.132C-55.9922 146.129 -54.5596 145.161 -52.3563 145.229C-49.0141 146.197 -45.6705 147.164 -42.3283 148.132C-40.5562 148.051 -39.1236 147.325 -38.0306 145.955C-44.4499 141.846 -50.8965 137.734 -57.3703 133.619C-58.7542 128.368 -58.0379 123.531 -55.2214 119.106C-53.3992 118.314 -51.4882 117.831 -49.4912 117.655C-42.6091 119.569 -36.1625 122.472 -30.1515 126.363C-29.4352 125.879 -28.7189 125.395 -28.0026 124.911C-29.8033 121.749 -31.9522 118.847 -34.4492 116.204C-37.0751 104.351 -32.5396 99.7564 -20.8398 102.417C-13.6912 106.516 -8.91647 112.564 -6.51405 120.558C0.0198973 115.606 6.22722 110.526 12.1094 105.319C11.628 103.824 10.6725 103.099 9.24422 103.142C13.2855 97.1513 15.4344 98.1193 15.6908 106.045C17.1506 104.322 18.8224 102.871 20.7048 101.691C24.2303 103.29 27.8118 103.29 31.4491 101.691C35.7797 102.311 39.3611 104.247 42.1933 107.496Z" fill="black"/>
<path fill-rule="evenodd" clip-rule="evenodd" d="M212.669 16.0654C213.146 16.0654 215.773 16.0654 216.251 16.0654C219.116 20.4193 219.414 20.9911 220.548 24.7731C220.746 35.9611 220.985 47.0881 221.264 58.1526C216.497 65.4047 211.721 72.6611 206.939 79.9219C196.789 87.7559 185.566 90.1738 173.273 87.1783C159.803 102.587 142.85 110.811 122.417 111.85C126.786 115.374 130.129 119.728 132.445 124.912C167.386 141.912 171.683 164.407 145.338 192.396C149.779 196.448 152.167 201.528 152.501 207.635C150.735 213.074 148.586 218.395 146.055 223.599C138.423 231.075 131.023 231.075 123.85 223.599C130.064 227.31 136.273 227.31 142.473 223.599C144.247 219.727 144.247 215.858 142.473 211.989C142.95 211.505 143.429 211.021 143.906 210.537C147.152 216.469 149.062 215.986 149.636 209.086C149.023 203.107 146.874 197.785 143.189 193.122C131.855 199.12 120.634 198.878 109.524 192.396C107.791 190.888 106.358 189.195 105.226 187.317C117.999 197.879 131.371 198.605 145.338 189.494C147.838 187.038 148.315 184.378 146.771 181.512C132.848 185.584 120.671 182.681 110.24 172.804C108.977 163.44 105.156 161.989 98.7798 168.45C98.0721 170.822 97.8343 173.241 98.0635 175.707C96.9145 173.599 96.1983 171.182 95.9146 168.45C94.4663 169.665 92.7945 170.148 90.9006 169.901C91.2401 171.775 90.7631 173.226 89.468 174.255C87.961 171.707 85.5729 170.739 82.3052 171.353C80.3626 181.835 76.0649 191.269 69.4121 199.653C71.5093 210.893 67.6901 219.601 57.9515 225.776C55.1709 226.854 52.545 226.612 50.0724 225.05C48.1241 239.106 40.2449 244.67 26.435 241.74C19.6503 238.954 13.92 234.842 9.24412 229.404C15.7595 231.736 21.9668 234.881 27.8675 238.837C36.4372 240.345 42.8837 237.202 47.2072 229.404C48.2731 224.512 47.5568 219.917 45.0584 215.617C47.2531 214.601 48.6856 212.909 49.3561 210.537C47.4121 208.091 45.5025 205.673 43.6258 203.281C48.339 205.152 51.6811 208.539 53.6538 213.44C53.0263 214.9 52.0722 214.9 50.7887 213.44C49.3933 216.695 48.9149 220.081 49.3561 223.599C53.7183 223.828 57.7782 222.86 61.5329 220.696C64.8894 215.347 67.0383 209.542 67.9795 203.281C62.0873 192.716 53.9704 184.249 43.6258 177.884C37.3927 174.37 30.7083 172.676 23.5698 172.804C24.5855 171.492 26.0181 171.009 27.8675 171.353C29.9319 165.237 32.797 159.432 36.463 153.937C33.2368 149.113 31.088 143.791 30.0164 137.973C27.3905 139.667 24.7632 141.359 22.1373 143.053C26.5023 152.506 23.1601 159.037 12.1093 162.645C9.56788 162.083 7.17979 161.117 4.94641 159.743C0.665892 165.057 -4.58591 166.508 -10.8119 164.096C-13.8303 165.746 -16.9332 167.198 -20.1236 168.45C-23.6477 166.857 -27.2291 165.405 -30.8678 164.096C-39.098 168.074 -47.2163 167.832 -55.2215 163.371C-60.1582 158.521 -60.6352 153.441 -56.6541 148.132C-56.8876 151.553 -56.6498 154.939 -55.9378 158.291C-48.6102 164.868 -40.4918 165.836 -31.5841 161.194C-25.0387 164.816 -18.5921 164.816 -12.2444 161.194C-5.65604 163.834 -0.164999 162.382 4.23013 156.84C8.70118 158.343 13.2367 158.586 17.8395 157.566C22.5613 153.501 23.0383 149.147 19.2721 144.504C13.4989 144.031 7.76857 144.031 2.08127 144.504C9.1023 141.983 16.2651 140.049 23.5698 138.699C30.088 134.515 35.102 128.952 38.6118 122.009C37.8927 126.681 35.7438 130.792 32.1652 134.345C32.9761 135.789 33.9316 136.998 35.0304 137.973C34.3141 143.588 35.7467 148.91 39.3281 153.937C36.8841 160.105 33.5419 165.668 29.3001 170.627C45.9165 174.412 59.0489 183.361 68.6958 197.476C73.7184 188.751 77.7768 179.56 80.8726 169.901C92.2458 168.643 102.274 164.289 110.957 156.84C114.347 160.972 118.645 163.632 123.85 164.822C121.94 165.79 120.029 165.79 118.119 164.822C108.03 157.624 105.881 159.801 111.673 171.353C121.308 180.896 132.53 183.557 145.338 179.335C157.446 174.531 161.982 165.581 158.948 152.486C152.134 140.453 142.344 131.988 129.58 127.089C128.22 122.16 125.595 118.049 121.701 114.753C120.231 118.728 118.082 122.114 115.254 124.912C116.257 121.192 117.69 117.564 119.552 114.027C115.691 105.382 109.007 102.237 99.496 104.594C102.645 103.629 105.987 102.661 109.524 101.691C105.961 93.6815 100.231 91.2622 92.3332 94.4347C97.7311 90.48 103.461 86.8518 109.524 83.5501C113.401 80.1091 116.743 76.24 119.552 71.9398C122.247 72.0792 124.633 71.8368 126.715 71.2142C129.49 72.9644 131.878 72.4812 133.878 69.7629C138.695 69.5205 140.128 67.3436 138.175 63.2321C138.933 60.9696 139.889 58.7927 141.041 56.7014C138.518 54.1573 136.608 51.2547 135.31 47.9937C135.562 44.0389 137.473 41.6196 141.041 40.7372C139.157 42.4309 138.203 44.6078 138.175 47.268C140.353 50.2098 142.263 53.3547 143.906 56.7014C142.99 61.0189 142.274 65.3728 141.757 69.7629C127.984 75.6929 114.852 82.7069 102.361 90.8065C107.614 96.3562 112.866 101.678 118.119 106.771C138.916 108.296 156.584 101.523 171.125 86.4527C170.169 85.9694 169.215 85.4847 168.259 85.0014C178.455 86.489 188.483 85.5209 198.343 82.0988C205.339 78.8131 208.92 73.2489 209.088 65.4091C209.565 66.8603 210.043 68.3116 210.52 69.7629C216.891 65.5716 219.279 59.7665 217.683 52.3475C217.285 53.6769 216.569 54.6434 215.534 55.2501C218.04 45.2319 218.756 35.0729 217.683 24.7731C215.633 22.0679 213.963 19.1654 212.669 16.0654Z" fill="black"/>
<path fill-rule="evenodd" clip-rule="evenodd" d="M95.1982 123.46C101.355 124.476 107.563 124.959 113.822 124.911C107.303 129.055 101.095 128.57 95.1982 123.46Z" fill="#1D211D"/>
</g>
<rect x="0.5" y="0.5" width="134" height="129" stroke="black"/>
<defs>
<clipPath id="clip0_565_18677">
<rect width="135" height="130" fill="white"/>
</clipPath>
</defs>
</svg>
