<svg width="135" height="130" viewBox="0 0 135 130" fill="none" xmlns="http://www.w3.org/2000/svg">
<g clip-path="url(#clip0_565_18678)">
<rect width="135" height="130" fill="white"/>
<rect x="-18.5" y="-184.5" width="524" height="498" rx="18.5" fill="#FDFFEF" stroke="black" stroke-width="3"/>
<path fill-rule="evenodd" clip-rule="evenodd" d="M222.268 -18.7655C224.691 -14.2006 225.407 -9.36303 224.417 -4.25262C219.988 2.17352 214.018 6.28515 206.51 8.08329C195.978 8.92794 185.473 8.68557 174.993 7.35765C169.916 4.35494 164.665 3.87167 159.235 5.90637C158.28 5.90637 157.325 5.90637 156.37 5.90637C156.606 1.04471 156.367 -3.79285 155.654 -8.60647C154.165 -7.52701 153.449 -6.07572 153.505 -4.25262C149.562 14.7737 146.22 14.7737 143.477 -4.25262C142.521 3.0038 141.567 10.2602 140.612 17.5166C138.05 16.3803 136.618 14.4457 136.314 11.7115C136.049 9.25012 134.854 7.31556 132.733 5.90637C133.041 10.7116 133.041 15.5487 132.733 20.4192C125.908 10.5708 116.834 4.28093 105.514 1.55251C104.558 -4.73633 104.558 -11.0253 105.514 -17.3142C107.253 -19.5619 109.402 -21.2551 111.96 -22.3937C109.297 -24.6545 107.148 -27.3151 105.514 -30.3757C104.558 -37.1484 104.558 -43.921 105.514 -50.6937C124.359 -70.6333 120.778 -73.7778 94.7695 -60.127C92.8742 -58.9429 91.9201 -57.2497 91.9043 -55.0475C89.8715 -62.8575 92.2596 -69.3883 99.0672 -74.6399C89.065 -74.86 81.9021 -79.4558 77.5786 -88.4271C77.8179 -88.9108 78.0557 -89.3946 78.2949 -89.8784C81.7574 -87.7036 85.5767 -86.7362 89.7555 -86.9758C93.1578 -86.836 96.2608 -87.5617 99.0672 -89.1527C91.3026 -96.7749 89.1538 -105.724 92.6206 -116.001C97.4727 -106.393 105.352 -101.313 116.258 -100.763C128.302 -96.0312 133.555 -87.0817 132.016 -73.9142C140.191 -74.3914 148.307 -73.9076 156.37 -72.463C160.013 -66.7731 163.834 -61.2098 167.831 -55.7732C185.486 -60.6093 200.528 -56.4974 212.956 -43.4373C216.91 -34.6702 219.298 -25.4788 220.119 -15.8629C220.518 -17.192 221.234 -18.1595 222.268 -18.7655Z" fill="#0381C6"/>
<path fill-rule="evenodd" clip-rule="evenodd" d="M136.314 11.7111C135.059 16.1767 134.582 20.5305 134.882 24.7726C128.934 19.474 123.203 13.9112 117.691 8.08286C108.598 6.48935 100.003 7.94063 91.9046 12.4367C88.7272 22.9803 83.4739 32.4136 76.1463 40.7367C74.6393 40.953 73.2067 40.7121 71.8486 40.0111C80.0429 32.3832 85.534 22.9498 88.3232 11.7111C92.7871 8.36296 97.8011 6.4284 103.365 5.90594C102.738 0.721515 101.784 -4.35798 100.5 -9.33254C101.387 -14.5136 103.775 -18.8675 107.663 -22.3941C100.583 -33.3707 100.105 -44.7391 106.23 -56.4993C114.594 -63.5921 113.638 -65.2853 103.365 -61.5788C99.3124 -59.6112 95.4918 -57.4343 91.9046 -55.048C91.9204 -57.2502 92.8745 -58.9434 94.7698 -60.1275C120.778 -73.7782 124.359 -70.6337 105.514 -50.6941C104.559 -43.9214 104.559 -37.1489 105.514 -30.3762C107.149 -27.3155 109.297 -24.6549 111.961 -22.3941C109.402 -21.2556 107.253 -19.5623 105.514 -17.3146C104.559 -11.0258 104.559 -4.73676 105.514 1.55208C116.834 4.2805 125.908 10.5704 132.733 20.4188C133.041 15.5483 133.041 10.7111 132.733 5.90594C134.855 7.31513 136.049 9.24969 136.314 11.7111Z" fill="black"/>
<path fill-rule="evenodd" clip-rule="evenodd" d="M283.869 -17.3143C281.574 -15.0301 278.709 -14.0626 275.273 -14.4118C273.172 -15.5606 271.262 -15.5606 269.543 -14.4118C273.239 -9.70335 278.014 -6.80079 283.869 -5.70405C280.982 -3.63771 277.64 -2.67014 273.841 -2.80149C272.586 -2.99146 271.63 -2.5076 270.976 -1.3502C274.361 2.53895 278.658 4.4738 283.869 4.45493C285.642 4.90483 285.642 5.63047 283.869 6.63186C282.085 7.77982 280.175 8.50547 278.138 8.80879C274.864 10.0279 274.386 12.2048 276.706 15.3396C272.649 25.9847 265.007 31.0642 253.785 30.578C254.901 37.2728 255.617 44.0459 255.934 50.896C257.823 53.7797 260.449 55.4733 263.813 55.9755C261.662 57.7925 259.274 59.2438 256.65 60.3293C258.67 62.3205 261.058 63.5294 263.813 63.9576C265.747 65.6265 265.509 66.5945 263.096 66.8601C253.553 64.3596 252.836 65.8108 260.948 71.214C258.866 71.8366 256.479 72.0789 253.785 71.9396C250.975 76.2398 247.633 80.1089 243.757 83.5499C237.694 86.8515 231.964 90.4798 226.566 94.4345C226.076 95.6507 225.122 96.1354 223.701 95.8858C221.019 100.282 217.198 103.425 212.24 105.319C216.118 105.779 219.46 104.57 222.268 101.691C223.701 104.593 225.133 107.496 226.566 110.399C218.486 109.426 211.323 111.362 205.077 116.204C203.65 116.329 202.457 115.844 201.496 114.752C200.92 112.761 200.204 110.827 199.347 108.947C214.541 107.271 214.541 106.062 199.347 105.319C197.247 104.398 195.336 103.187 193.617 101.691C194.207 103.551 193.253 105.003 190.752 106.045C185.677 105.591 180.903 106.075 176.426 107.496C173.594 104.247 170.012 102.311 165.682 101.691C162.044 103.29 158.463 103.29 154.937 101.691C153.055 102.871 151.383 104.322 149.923 106.045C149.667 98.1193 147.518 97.1513 143.477 103.142C142.143 100.028 142.622 96.8843 144.909 93.7089C140.361 93.7858 136.54 92.5769 133.449 90.0807C136.769 89.6191 138.681 87.6831 139.179 84.2755C135.261 78.3528 131.917 72.063 129.151 65.4088C112.868 76.768 99.4983 73.8655 89.0391 56.7011C91.4845 53.5925 92.6793 50.2066 92.6206 46.5422C91.6063 47.8207 90.4115 48.7873 89.0391 49.4447C85.7958 50.4882 82.4536 50.9715 79.0111 50.896C82.8289 46.7816 86.4104 42.4278 89.7554 37.8345C90.7109 36.3832 90.7109 34.9319 89.7554 33.4806C88.3959 35.7925 86.7255 37.7271 84.7414 39.2857C81.9694 40.2291 79.1043 40.7123 76.146 40.737C83.4736 32.4139 88.7268 22.9806 91.9043 12.437C100.003 7.94092 108.598 6.48963 117.691 8.08314C123.203 13.9115 128.933 19.4743 134.881 24.7729C134.582 20.5308 135.059 16.177 136.314 11.7114C136.618 14.4456 138.05 16.3801 140.612 17.5165C141.567 10.2601 142.521 3.00365 143.477 -4.25277C146.22 14.7736 149.562 14.7736 153.505 -4.25277C154.46 -0.866489 155.414 2.51994 156.37 5.90622C157.325 5.90622 158.28 5.90622 159.235 5.90622C164.533 5.98168 169.786 6.46641 174.993 7.3575C190.744 13.9637 206.026 12.7534 220.836 3.72929C227.266 -1.95553 228.699 -8.48631 225.133 -15.863C227.998 -22.1519 230.864 -28.4409 233.729 -34.7297C234.984 -35.8193 236.416 -36.545 238.026 -36.9066C244.712 -37.8742 251.397 -37.8742 258.082 -36.9066C262.356 -32.6769 266.653 -28.323 270.976 -23.8451C275.121 -21.2435 279.419 -19.0666 283.869 -17.3143Z" fill="#DDB901"/>
<path fill-rule="evenodd" clip-rule="evenodd" d="M119.123 39.2856C122.635 42.3188 125.977 45.7047 129.151 49.4446C126.242 52.2079 123.377 52.4502 120.556 50.1703C121.989 49.687 123.421 49.2023 124.854 48.719C123.182 47.0253 121.512 45.3331 119.84 43.6395C118.678 45.7584 117.483 46.2416 116.258 45.0908C117.232 43.117 118.188 41.1825 119.123 39.2856Z" fill="black"/>
<path opacity="0.961" fill-rule="evenodd" clip-rule="evenodd" d="M79.0111 50.8959C77.9525 51.086 76.9969 50.8436 76.146 50.1702C79.8621 47.1429 82.7272 43.5146 84.7414 39.2856C86.7255 37.7269 88.3959 35.7924 89.7554 33.4805C90.7109 34.9318 90.7109 36.383 89.7554 37.8343C86.4104 42.4276 82.8289 46.7815 79.0111 50.8959Z" fill="black"/>
<path opacity="0.788" fill-rule="evenodd" clip-rule="evenodd" d="M133.449 90.0805C134.674 88.5842 135.629 86.892 136.314 85.001C133.131 80.0884 130.266 75.0089 127.719 69.7625C117.44 77.2265 106.935 77.4688 96.202 70.4882C88.0865 65.0299 85.6998 58.0144 89.0391 49.4446C90.4115 48.7871 91.6063 47.8206 92.6206 46.542C92.6793 50.2065 91.4845 53.5923 89.0391 56.701C99.4983 73.8653 112.869 76.7679 129.151 65.4087C131.917 72.0628 135.261 78.3527 139.179 84.2754C138.681 87.683 136.77 89.619 133.449 90.0805Z" fill="black"/>
<path opacity="0.906" fill-rule="evenodd" clip-rule="evenodd" d="M133.449 90.0806C136.54 92.5768 140.361 93.7857 144.91 93.7088C142.622 96.8842 142.143 100.028 143.477 103.142C142.311 105.715 140.4 106.441 137.747 105.319C142.974 98.0104 141.065 94.1398 132.016 93.7088C130.035 91.5885 130.514 90.3795 133.449 90.0806Z" fill="black"/>
<path fill-rule="evenodd" clip-rule="evenodd" d="M176.426 107.496C177.933 107.28 179.366 107.521 180.724 108.222C178.863 112.772 178.863 117.366 180.724 122.009C179.867 123.888 179.151 125.823 178.575 127.814C174.171 130.094 171.068 133.48 169.263 137.973C168.165 136.998 167.209 135.789 166.398 134.345C169.977 130.792 172.126 126.681 172.845 122.009C169.335 128.952 164.321 134.515 157.803 138.699C150.498 140.048 143.335 141.983 136.314 144.504C142.002 144.031 147.732 144.031 153.505 144.504C157.271 149.146 156.794 153.5 152.073 157.565C147.47 158.586 142.934 158.343 138.463 156.84C134.068 162.382 128.577 163.833 121.989 161.194C115.641 164.816 109.194 164.816 102.649 161.194C93.7411 165.836 85.6227 164.868 78.2951 158.291C77.5832 154.939 77.3454 151.553 77.5789 148.132C83.2303 149.81 88.9606 150.535 94.7697 150.309C98.5904 146.923 98.5904 143.536 94.7697 140.15C88.6168 138.847 83.1258 136.187 78.2951 132.168C76.036 125.522 78.1848 121.169 84.7417 119.106C90.1812 121.961 95.4344 125.106 100.5 128.54C103.809 129.261 107.151 129.502 110.528 129.265C110.541 126.641 109.825 124.222 108.379 122.009C96.2782 110.886 97.95 105.324 113.393 105.319C119.89 112.428 125.143 120.41 129.151 129.265C130.713 127.972 130.713 126.521 129.151 124.911C139.459 111.708 152.829 105.177 169.263 105.319C171.822 106.458 173.971 108.151 175.71 110.399C176.375 109.537 176.614 108.569 176.426 107.496Z" fill="#DDB901"/>
<path fill-rule="evenodd" clip-rule="evenodd" d="M176.426 107.496C176.614 108.569 176.375 109.537 175.71 110.399C173.971 108.151 171.822 106.458 169.263 105.319C152.829 105.177 139.459 111.708 129.151 124.911C130.713 126.521 130.713 127.972 129.151 129.265C125.143 120.41 119.89 112.428 113.393 105.319C97.9501 105.323 96.2782 110.886 108.379 122.009C109.825 124.222 110.541 126.641 110.528 129.265C107.151 129.502 103.809 129.261 100.5 128.54C95.4345 125.106 90.1812 121.961 84.7418 119.106C78.1849 121.169 76.036 125.522 78.2952 132.168C83.1258 136.186 88.6169 138.847 94.7697 140.15C98.5904 143.536 98.5904 146.923 94.7697 150.309C88.9607 150.535 83.2304 149.81 77.5789 148.132C78.2408 146.129 79.6733 145.161 81.8766 145.229C85.2188 146.197 88.5624 147.164 91.9046 148.132C93.6767 148.051 95.1093 147.325 96.2023 145.955C89.783 141.846 83.3364 137.734 76.8626 133.619C75.4788 128.368 76.195 123.531 79.0115 119.106C80.8337 118.314 82.7448 117.831 84.7418 117.655C91.6238 119.569 98.0704 122.472 104.081 126.363C104.798 125.879 105.514 125.395 106.23 124.911C104.43 121.749 102.281 118.847 99.7837 116.204C97.1578 104.351 101.693 99.7564 113.393 102.417C120.542 106.516 125.316 112.564 127.719 120.558C134.253 115.606 140.46 110.526 146.342 105.319C145.861 103.824 144.905 103.099 143.477 103.142C147.518 97.1513 149.667 98.1193 149.924 106.045C151.383 104.322 153.055 102.871 154.938 101.691C158.463 103.29 162.045 103.29 165.682 101.691C170.013 102.311 173.594 104.247 176.426 107.496Z" fill="black"/>
<path fill-rule="evenodd" clip-rule="evenodd" d="M346.902 16.0654C347.379 16.0654 350.006 16.0654 350.483 16.0654C353.349 20.4193 353.647 20.9911 354.781 24.7731C354.979 35.9611 355.218 47.0881 355.497 58.1526C350.73 65.4047 345.954 72.6611 341.172 79.9219C331.022 87.7559 319.799 90.1738 307.506 87.1783C294.036 102.587 277.083 110.811 256.65 111.85C261.019 115.374 264.362 119.728 266.678 124.912C301.618 141.912 305.916 164.407 279.571 192.396C284.012 196.448 286.4 201.528 286.734 207.635C284.968 213.074 282.819 218.395 280.287 223.599C272.656 231.075 265.256 231.075 258.083 223.599C264.297 227.31 270.506 227.31 276.706 223.599C278.48 219.727 278.48 215.858 276.706 211.989C277.183 211.505 277.662 211.021 278.139 210.537C281.385 216.469 283.294 215.986 283.869 209.086C283.256 203.107 281.107 197.785 277.422 193.122C266.088 199.12 254.867 198.878 243.757 192.396C242.024 190.888 240.591 189.195 239.459 187.317C252.232 197.879 265.604 198.605 279.571 189.494C282.071 187.038 282.548 184.378 281.004 181.512C267.081 185.584 254.904 182.681 244.473 172.804C243.21 163.44 239.389 161.989 233.013 168.45C232.305 170.822 232.067 173.241 232.296 175.707C231.147 173.599 230.431 171.182 230.148 168.45C228.699 169.665 227.027 170.148 225.134 169.901C225.473 171.775 224.996 173.226 223.701 174.255C222.194 171.707 219.806 170.739 216.538 171.353C214.596 181.835 210.298 191.269 203.645 199.653C205.742 210.893 201.923 219.601 192.184 225.776C189.404 226.854 186.778 226.612 184.305 225.05C182.357 239.106 174.478 244.67 160.668 241.74C153.883 238.954 148.153 234.842 143.477 229.404C149.992 231.736 156.2 234.881 162.1 238.837C170.67 240.345 177.117 237.202 181.44 229.404C182.506 224.512 181.79 219.917 179.291 215.617C181.486 214.601 182.919 212.909 183.589 210.537C181.645 208.091 179.735 205.673 177.859 203.281C182.572 205.152 185.914 208.539 187.887 213.44C187.259 214.9 186.305 214.9 185.022 213.44C183.626 216.695 183.148 220.081 183.589 223.599C187.951 223.828 192.011 222.86 195.766 220.696C199.122 215.347 201.271 209.542 202.212 203.281C196.32 192.716 188.203 184.249 177.859 177.884C171.626 174.37 164.941 172.676 157.803 172.804C158.818 171.492 160.251 171.009 162.1 171.353C164.165 165.237 167.03 159.432 170.696 153.937C167.47 149.113 165.321 143.791 164.249 137.973C161.623 139.667 158.996 141.359 156.37 143.053C160.735 152.506 157.393 159.037 146.342 162.645C143.801 162.083 141.413 161.117 139.179 159.743C134.899 165.057 129.647 166.508 123.421 164.096C120.403 165.746 117.3 167.198 114.109 168.45C110.585 166.857 107.004 165.405 103.365 164.096C95.135 168.074 87.0166 167.832 79.0114 163.371C74.0747 158.521 73.5977 153.441 77.5788 148.132C77.3453 151.553 77.5831 154.939 78.2951 158.291C85.6227 164.868 93.7411 165.836 102.649 161.194C109.194 164.816 115.641 164.816 121.988 161.194C128.577 163.834 134.068 162.382 138.463 156.84C142.934 158.343 147.47 158.586 152.072 157.566C156.794 153.501 157.271 149.147 153.505 144.504C147.732 144.031 142.001 144.031 136.314 144.504C143.335 141.983 150.498 140.049 157.803 138.699C164.321 134.515 169.335 128.952 172.845 122.009C172.126 126.681 169.977 130.792 166.398 134.345C167.209 135.789 168.165 136.998 169.263 137.973C168.547 143.588 169.98 148.91 173.561 153.937C171.117 160.105 167.775 165.668 163.533 170.627C180.149 174.412 193.282 183.361 202.929 197.476C207.951 188.751 212.01 179.56 215.106 169.901C226.479 168.643 236.507 164.289 245.19 156.84C248.58 160.972 252.878 163.632 258.083 164.822C256.173 165.79 254.262 165.79 252.352 164.822C242.263 157.624 240.114 159.801 245.906 171.353C255.541 180.896 266.763 183.557 279.571 179.335C291.679 174.531 296.215 165.581 293.181 152.486C286.367 140.453 276.577 131.988 263.813 127.089C262.453 122.16 259.828 118.049 255.934 114.753C254.464 118.728 252.315 122.114 249.487 124.912C250.49 121.192 251.923 117.564 253.785 114.027C249.924 105.382 243.24 102.237 233.729 104.594C236.878 103.629 240.22 102.661 243.757 101.691C240.194 93.6815 234.464 91.2622 226.566 94.4347C231.964 90.48 237.694 86.8518 243.757 83.5501C247.633 80.1091 250.976 76.24 253.785 71.9398C256.48 72.0792 258.866 71.8368 260.948 71.2142C263.723 72.9644 266.111 72.4812 268.111 69.7629C272.928 69.5205 274.361 67.3436 272.408 63.2321C273.166 60.9696 274.122 58.7927 275.273 56.7014C272.751 54.1573 270.841 51.2547 269.543 47.9937C269.795 44.0389 271.706 41.6196 275.273 40.7372C273.39 42.4309 272.436 44.6078 272.408 47.268C274.586 50.2098 276.495 53.3547 278.139 56.7014C277.223 61.0189 276.507 65.3728 275.99 69.7629C262.217 75.6929 249.085 82.7069 236.594 90.8065C241.847 96.3562 247.099 101.678 252.352 106.771C273.149 108.296 290.817 101.523 305.357 86.4527C304.402 85.9694 303.448 85.4847 302.492 85.0014C312.688 86.489 322.716 85.5209 332.576 82.0988C339.572 78.8131 343.153 73.2489 343.321 65.4091C343.798 66.8603 344.276 68.3116 344.753 69.7629C351.124 65.5716 353.512 59.7665 351.916 52.3475C351.518 53.6769 350.801 54.6434 349.767 55.2501C352.273 45.2319 352.989 35.0729 351.916 24.7731C349.866 22.0679 348.196 19.1654 346.902 16.0654Z" fill="black"/>
</g>
<rect x="0.5" y="0.5" width="134" height="129" stroke="black"/>
<defs>
<clipPath id="clip0_565_18678">
<rect width="135" height="130" fill="white"/>
</clipPath>
</defs>
</svg>
