<svg width="135" height="130" viewBox="0 0 135 130" fill="none" xmlns="http://www.w3.org/2000/svg">
<g clip-path="url(#clip0_565_17952)">
<path d="M0 0H115C126.046 0 135 8.95431 135 20V130H0V0Z" fill="white"/>
<rect x="-370.5" y="-17.5" width="525" height="498" rx="18.5" fill="#FDFFEF" stroke="black" stroke-width="3"/>
<path fill-rule="evenodd" clip-rule="evenodd" d="M14.4076 112.685C9.9496 110.933 5.64373 108.756 1.49001 106.155C-2.84026 101.677 -7.14612 97.3229 -11.4276 93.0932C-18.1261 92.1256 -24.8231 92.1256 -31.5216 93.0932C-33.1349 93.4548 -34.5702 94.1805 -35.8275 95.2701C-38.6981 101.559 -41.5686 107.848 -44.4392 114.137C-40.8668 121.514 -42.3021 128.044 -48.7451 133.729C-63.5831 142.753 -78.8933 143.964 -94.6743 137.357C-84.1752 138.685 -73.6502 138.928 -63.098 138.083C-55.5756 136.285 -49.5948 132.173 -45.1569 125.747C-44.1651 120.637 -44.8827 115.799 -47.3098 111.234C-44.2584 104.968 -40.9098 98.679 -37.2628 92.3675C-26.5455 86.4537 -16.0191 86.6956 -5.68643 93.0932C0.0934726 99.8998 6.79196 105.705 14.4076 110.509C16.1845 111.51 16.1845 112.236 14.4076 112.685Z" fill="black"/>
<path opacity="0.835" fill-rule="evenodd" clip-rule="evenodd" d="M5.79584 115.588C8.69369 118.499 12.0422 120.918 15.8429 122.845C15.6649 123.725 15.1869 124.209 14.4076 124.296C8.54155 123.199 3.75773 120.297 0.0546875 115.588C1.77703 114.439 3.69027 114.439 5.79584 115.588Z" fill="black"/>
<path opacity="0.882" fill-rule="evenodd" clip-rule="evenodd" d="M4.36032 127.198C7.96146 129.261 11.3114 131.68 14.4073 134.455C9.1872 134.474 4.88133 132.539 1.48975 128.65C2.14567 127.492 3.10301 127.008 4.36032 127.198Z" fill="black"/>
<path fill-rule="evenodd" clip-rule="evenodd" d="M41.6776 117.04C38.9047 120.924 26.7047 129.632 28.0424 134.455C28.5204 133.487 28.9997 132.52 29.4777 131.552C30.0662 133.585 30.7838 135.52 31.6306 137.358C19.5211 140.909 13.302 149.132 12.9719 162.029C11.5624 167.054 11.0845 172.376 11.5366 177.993C10.5793 175.091 9.62335 172.188 8.66602 169.286C9.24874 160.639 11.4017 152.415 15.1248 144.614C18.3312 141.421 21.9195 138.761 25.8895 136.632C24.2963 132.659 24.0566 128.547 25.1718 124.296C28.0424 119.942 39.5003 117.055 41.6776 117.04Z" fill="black"/>
<path fill-rule="evenodd" clip-rule="evenodd" d="M14.4073 112.686C12.108 114.97 9.23744 115.937 5.79562 115.588C3.69005 114.439 1.77681 114.439 0.0544653 115.588C3.75751 120.297 8.54133 123.199 14.4073 124.296C11.5152 126.362 8.16672 127.33 4.36033 127.199C3.10302 127.009 2.14568 127.492 1.48975 128.65C4.88134 132.539 9.18721 134.474 14.4073 134.455C16.1842 134.905 16.1842 135.63 14.4073 136.632C12.6204 137.78 10.7072 138.505 8.6662 138.809C5.38513 140.028 4.90718 142.205 7.23091 145.34C3.16617 155.985 -4.48966 161.064 -15.7337 160.578C-14.6156 167.273 -13.898 174.046 -13.5808 180.896C-11.6876 183.78 -9.05675 185.473 -5.68669 185.975C-7.84106 187.792 -10.2337 189.244 -12.8631 190.329C-10.8394 192.32 -8.44675 193.529 -5.68669 193.958C-3.74905 195.627 -3.98731 196.595 -6.40433 196.86C-15.9662 194.36 -16.6839 195.811 -8.55727 201.214C-10.6427 201.837 -13.0339 202.079 -15.7337 201.94C-18.5483 206.24 -21.8968 210.109 -25.7807 213.55C-31.8549 216.852 -37.596 220.48 -43.0042 224.434C-43.4951 225.651 -44.451 226.135 -45.8748 225.886C-48.5616 230.282 -52.3895 233.425 -57.3571 235.319C-53.4717 235.779 -50.1232 234.57 -47.3101 231.691C-45.8748 234.593 -44.4395 237.496 -43.0042 240.399C-51.0992 239.426 -58.2757 241.362 -64.5335 246.204C-65.9631 246.329 -67.1587 245.844 -68.1217 244.752C-68.6987 242.761 -69.4164 240.827 -70.2747 238.947C-55.052 237.271 -55.052 236.062 -70.2747 235.319C-72.3788 234.398 -74.2935 233.187 -76.0158 231.691C-75.4245 233.551 -76.3804 235.003 -78.8864 236.045C-83.9702 235.591 -88.754 236.075 -93.2393 237.496C-96.0768 234.247 -99.6651 232.311 -104.004 231.691C-107.648 233.29 -111.236 233.29 -114.769 231.691C-116.655 232.871 -118.33 234.322 -119.792 236.045C-120.049 228.119 -122.202 227.151 -126.251 233.142C-127.587 230.028 -127.108 226.884 -124.816 223.709C-129.373 223.786 -133.201 222.577 -136.298 220.081C-132.971 219.619 -131.056 217.683 -130.557 214.276C-134.482 208.353 -137.832 202.063 -140.604 195.409C-156.917 206.768 -170.313 203.865 -180.792 186.701C-178.342 183.592 -177.145 180.207 -177.204 176.542C-178.22 177.821 -179.417 178.787 -180.792 179.445C-184.041 180.488 -187.39 180.971 -190.839 180.896C-187.014 176.782 -183.426 172.428 -180.074 167.834C-179.117 166.383 -179.117 164.932 -180.074 163.481C-181.436 165.792 -183.11 167.727 -185.098 169.286C-187.875 170.229 -190.746 170.712 -193.709 170.737C-186.368 162.414 -181.105 152.981 -177.921 142.437C-169.808 137.941 -161.196 136.49 -152.086 138.083C-146.563 143.911 -140.822 149.474 -134.863 154.773C-135.163 150.531 -134.685 146.177 -133.427 141.711C-133.123 144.446 -131.688 146.38 -129.121 147.516C-128.164 140.26 -127.208 133.004 -126.251 125.747C-123.502 144.774 -120.154 144.774 -116.204 125.747C-115.247 129.134 -114.291 132.52 -113.333 135.906C-112.376 135.906 -111.42 135.906 -110.463 135.906C-105.155 135.982 -99.8918 136.466 -94.6746 137.357C-78.8936 143.964 -63.5834 142.753 -48.7453 133.729C-42.3023 128.044 -40.867 121.514 -44.4395 114.137C-41.5689 107.848 -38.6983 101.559 -35.8277 95.2703C-34.5704 94.1807 -33.1351 93.455 -31.5219 93.0934C-24.8234 92.1258 -18.1263 92.1258 -11.4278 93.0934C-7.14638 97.3231 -2.84051 101.677 1.48975 106.155C5.64348 108.756 9.94934 110.933 14.4073 112.686Z" fill="#DDB901"/>
<path d="M56.6452 117.783L56.6452 117.783L56.6622 117.785L56.6794 117.787L56.6794 117.787L56.6795 117.787L56.6804 117.787L56.6847 117.787L56.703 117.789L56.7778 117.797C56.8441 117.804 56.943 117.814 57.0712 117.828C57.3276 117.857 57.701 117.902 58.1659 117.964C59.0962 118.087 60.3901 118.281 61.8433 118.559C64.7703 119.12 68.2655 120.011 70.7516 121.331C73.5683 122.826 76.3693 124.602 78.4565 126.604C80.5526 128.614 81.8339 130.76 81.8339 133.001C81.8339 135.495 81.5276 138.776 81.2173 141.454C81.0626 142.789 80.9079 143.966 80.7919 144.809C80.7535 145.088 80.7193 145.331 80.6909 145.53C80.6392 145.53 80.5846 145.531 80.5272 145.531C80.0095 145.536 79.2566 145.54 78.3171 145.539C76.4379 145.537 73.8135 145.514 70.8335 145.429C64.8635 145.26 57.5039 144.846 51.8492 143.875C46.6111 142.974 40.6242 140.999 35.9249 139.236C33.5801 138.357 31.5653 137.534 30.1372 136.931C29.4233 136.63 28.8563 136.384 28.4684 136.213C28.3704 136.17 28.2838 136.132 28.2092 136.099C28.1859 135.998 28.1585 135.877 28.128 135.74C28.0286 135.29 27.8975 134.662 27.7709 133.946C27.5148 132.499 27.2884 130.754 27.3558 129.416L27.3597 129.338C27.4246 128.049 27.4847 126.856 27.665 125.805C27.8493 124.731 28.1455 123.902 28.6216 123.323C28.8243 123.077 29.3629 122.672 30.2579 122.161C31.1218 121.668 32.2349 121.121 33.4956 120.575C36.0184 119.482 39.0852 118.41 41.8487 117.771C44.6121 117.132 48.291 117.126 51.3287 117.291C52.8374 117.373 54.1693 117.496 55.1236 117.599C55.6005 117.65 55.9826 117.697 56.2447 117.73C56.3757 117.746 56.4767 117.76 56.5445 117.769L56.6209 117.779L56.6397 117.782L56.6441 117.782L56.6451 117.783L56.6452 117.783Z" fill="#D9D9D9" stroke="black" stroke-width="1.5"/>
<path d="M27.4971 124.217C27.4971 124.217 40.4752 131.718 53.4486 133.949C69.4096 136.693 82.4634 135.26 82.4634 135.26" stroke="#070707"/>
<path d="M32.8848 126.698C32.8848 126.698 31.3776 130.105 30.913 132.278C30.4383 134.498 30.5668 137.76 30.5668 137.76" stroke="black" stroke-width="0.5"/>
<path d="M38.3652 129.253C38.3652 129.253 36.8792 132.559 36.4274 134.671C35.9659 136.828 36.1127 140.003 36.1127 140.003" stroke="black" stroke-width="0.5"/>
</g>
<path d="M0.5 0.5H115C125.77 0.5 134.5 9.23045 134.5 20V129.5H0.5V0.5Z" stroke="black"/>
<defs>
<clipPath id="clip0_565_17952">
<path d="M0 0H115C126.046 0 135 8.95431 135 20V130H0V0Z" fill="white"/>
</clipPath>
</defs>
</svg>
