<svg width="135" height="130" viewBox="0 0 135 130" fill="none" xmlns="http://www.w3.org/2000/svg">
<g clip-path="url(#clip0_565_18823)">
<path d="M0 0H135V110C135 121.046 126.046 130 115 130H0V0Z" fill="white"/>
<rect x="-369.5" y="-351.5" width="524" height="498" rx="18.5" fill="#FDFFEF" stroke="black" stroke-width="3"/>
<path fill-rule="evenodd" clip-rule="evenodd" d="M-39.8015 -6.53963C-33.905 -1.42967 -27.6963 -0.944937 -21.1781 -5.08835C-20.701 -5.08835 -20.2226 -5.08835 -19.7455 -5.08835C-16.9176 -7.88643 -14.7688 -11.2723 -13.2989 -15.2473C-9.40522 -11.9515 -6.77932 -7.83998 -5.41981 -2.91143C7.34439 1.98811 17.1346 10.4534 23.9479 22.486C26.9821 35.581 22.4465 44.531 10.3385 49.3348C-2.47015 53.5566 -13.6915 50.8964 -23.3269 41.3527C-29.1188 29.8005 -26.97 27.6236 -16.8804 34.8219C-14.9708 35.7899 -13.0597 35.7899 -11.1501 34.8219C-16.3546 33.6319 -20.6523 30.9717 -24.0432 26.8399C-32.726 34.2893 -42.754 38.6432 -54.1272 39.9014C-57.223 49.5597 -61.2814 58.7507 -66.304 67.4758C-75.951 53.3606 -89.0833 44.412 -105.7 40.6271C-101.458 35.668 -98.1157 30.1053 -95.6717 23.9373C-99.2531 18.9101 -100.686 13.5882 -99.9694 7.9732C-97.0971 5.31155 -93.9927 2.89226 -90.6577 0.716783C-88.2166 3.43504 -85.5907 5.85433 -82.7786 7.9732C-81.1684 9.87293 -79.0195 10.8395 -76.332 10.8758C-71.2235 10.7655 -67.1636 8.82946 -64.1552 5.07063C-62.0464 2.72391 -61.0909 -0.178659 -61.29 -3.63707C-61.2055 -7.42347 -62.161 -10.8108 -64.1552 -13.7961C-57.1213 -15.7103 -49.9584 -17.1616 -42.6666 -18.1499C-43.2239 -13.7191 -42.2698 -9.84856 -39.8015 -6.53963Z" fill="#0182C7"/>
<path fill-rule="evenodd" clip-rule="evenodd" d="M77.669 -113.935C78.1461 -113.935 80.7734 -113.935 81.2505 -113.935C84.1156 -109.581 84.4136 -109.009 85.5482 -105.227C85.7459 -94.0389 85.9851 -82.9119 86.2645 -71.8474C81.4969 -64.5953 76.7207 -57.3389 71.9388 -50.0781C61.789 -42.2441 50.5663 -39.8262 38.2734 -42.8217C24.8029 -27.4134 7.84989 -19.189 -12.5829 -18.1499C-8.21352 -14.6261 -4.87134 -10.2723 -2.55488 -5.0883C32.3855 11.912 36.6832 34.4069 10.3383 62.3964C14.7792 66.4484 17.1673 71.5279 17.5011 77.6349C15.7347 83.0743 13.5859 88.3947 11.0545 93.599C3.42324 101.075 -3.97741 101.075 -11.1503 93.599C-4.9358 97.3099 1.27295 97.3099 7.47311 93.599C9.24664 89.727 9.24664 85.8578 7.47311 81.9887C7.95016 81.5054 8.42864 81.0207 8.90568 80.5374C12.1519 86.4688 14.0615 85.9856 14.636 79.0862C14.0228 73.1069 11.874 67.785 8.1894 63.122C-3.1451 69.1202 -14.3664 68.8778 -25.476 62.3964C-27.2094 60.8885 -28.642 59.1948 -29.7737 57.3169C-17.0009 67.8793 -3.6293 68.605 10.3383 59.4938C12.8381 57.0382 13.3151 54.378 11.7708 51.5118C-2.15232 55.5841 -14.3292 52.6815 -24.7597 42.8041C-26.0232 33.4404 -29.8439 31.9891 -36.2203 38.4502C-36.9279 40.8216 -37.1658 43.2409 -36.9365 45.7066C-38.0855 43.5994 -38.8018 41.1815 -39.0854 38.4502C-40.5337 39.6649 -42.2055 40.1482 -44.0994 39.9015C-43.7599 41.7751 -44.2369 43.2264 -45.532 44.2553C-47.039 41.7069 -49.4271 40.7389 -52.6948 41.3528C-54.6374 51.8354 -58.9351 61.2687 -65.5879 69.6528C-63.4907 80.893 -67.3099 89.6007 -77.0485 95.7759C-79.8291 96.8542 -82.455 96.6119 -84.9276 95.0503C-86.8759 109.106 -94.7551 114.67 -108.565 111.74C-115.35 108.954 -121.08 104.842 -125.756 99.4041C-119.241 101.736 -113.033 104.881 -107.132 108.837C-98.5628 110.345 -92.1163 107.202 -87.7928 99.4041C-86.7269 94.5118 -87.4432 89.9171 -89.9416 85.6169C-87.7469 84.601 -86.3144 82.9088 -85.6439 80.5374C-87.5879 78.0906 -89.4975 75.6727 -91.3742 73.281C-86.661 75.1517 -83.3189 78.539 -81.3462 83.44C-81.9737 84.9 -82.9278 84.9 -84.2114 83.44C-85.6067 86.6952 -86.0852 90.0811 -85.6439 93.599C-81.2817 93.8283 -77.2218 92.8603 -73.4671 90.6964C-70.1106 85.347 -67.9617 79.5419 -67.0205 73.281C-72.9127 62.7157 -81.0296 54.2489 -91.3742 47.8835C-97.6073 44.37 -104.292 42.6763 -111.43 42.8041C-110.414 41.4921 -108.982 41.0088 -107.132 41.3528C-105.068 35.2371 -102.203 29.4319 -98.5371 23.9374C-101.763 19.1133 -103.912 13.7914 -104.984 7.97325C-107.61 9.6669 -110.237 11.3591 -112.863 13.0527C-108.498 22.5064 -111.84 29.0372 -122.891 32.6451C-125.432 32.0834 -127.82 31.1169 -130.054 29.7425C-134.334 35.0571 -139.586 36.5084 -145.812 34.0964C-148.83 35.7465 -151.933 37.1977 -155.124 38.4502C-158.648 36.8567 -162.229 35.4054 -165.868 34.0964C-174.098 38.0743 -182.216 37.832 -190.222 33.3707C-195.158 28.5205 -195.635 23.441 -191.654 18.1322C-191.888 21.5529 -191.65 24.9388 -190.938 28.2912C-183.61 34.8684 -175.492 35.8364 -166.584 31.1938C-160.039 34.8162 -153.592 34.8162 -147.244 31.1938C-140.656 33.8337 -135.165 32.3824 -130.77 26.8399C-126.299 28.3435 -121.763 28.5858 -117.16 27.5656C-112.439 23.5005 -111.962 19.1467 -115.728 14.504C-121.501 14.0309 -127.231 14.0309 -132.919 14.504C-125.898 11.9831 -118.735 10.0486 -111.43 8.69889C-104.912 4.51484 -99.898 -1.04793 -96.3882 -7.99087C-97.1073 -3.31919 -99.2562 0.792301 -102.835 4.34504C-102.024 5.78907 -101.068 6.99799 -99.9696 7.97325C-100.686 13.5883 -99.2533 18.9101 -95.6719 23.9374C-98.1159 30.1053 -101.458 35.6681 -105.7 40.6271C-89.0835 44.4121 -75.9512 53.3607 -66.3042 67.4759C-61.2816 58.7508 -57.2232 49.5598 -54.1274 39.9015C-42.7542 38.6432 -32.7262 34.2894 -24.0434 26.8399C-20.6525 30.9717 -16.3548 33.6319 -11.1503 34.822C-13.0599 35.79 -14.9709 35.79 -16.8806 34.822C-26.9702 27.6236 -29.119 29.8006 -23.3271 41.3528C-13.6917 50.8964 -2.47035 53.5566 10.3383 49.3348C22.4463 44.5311 26.9819 35.581 23.9477 22.4861C17.1344 10.4535 7.34418 1.98816 -5.42002 -2.91137C-6.77953 -7.83993 -9.40542 -11.9514 -13.2991 -15.2473C-14.769 -11.2722 -16.9178 -7.88637 -19.7457 -5.0883C-18.7429 -8.80794 -17.3103 -12.4361 -15.448 -15.9729C-19.3088 -24.6182 -25.9931 -27.7632 -35.504 -25.4063C-32.3552 -26.3714 -29.013 -27.3394 -25.476 -28.3089C-29.0388 -36.3185 -34.7691 -38.7378 -42.6668 -35.5653C-37.2689 -39.52 -31.5386 -43.1482 -25.476 -46.4499C-21.5995 -49.8909 -18.2573 -53.76 -15.448 -58.0602C-12.7533 -57.9208 -10.3667 -58.1632 -8.28516 -58.7858C-5.51027 -57.0356 -3.12217 -57.5188 -1.12231 -60.2371C3.69543 -60.4795 5.128 -62.6564 3.1754 -66.7679C3.93323 -69.0304 4.88876 -71.2073 6.04054 -73.2986C3.51779 -75.8427 1.60817 -78.7453 0.310264 -82.0063C0.562396 -85.9611 2.47344 -88.3804 6.04054 -89.2628C4.15671 -87.5691 3.20262 -85.3922 3.1754 -82.732C5.35291 -79.7902 7.26253 -76.6453 8.90568 -73.2986C7.99027 -68.9811 7.27399 -64.6272 6.75683 -60.2371C-7.0159 -54.3071 -20.1483 -47.2931 -32.6388 -39.1935C-27.3856 -33.6438 -22.1338 -28.3219 -16.8806 -23.2294C3.91605 -21.7041 21.5839 -28.4772 36.1245 -43.5473C35.169 -44.0306 34.2149 -44.5153 33.2594 -44.9986C43.455 -43.511 53.483 -44.4791 63.3433 -47.9012C70.3386 -51.1869 73.92 -56.7511 74.0876 -64.5909C74.5647 -63.1397 75.0431 -61.6884 75.5202 -60.2371C81.8908 -64.4284 84.2789 -70.2335 82.683 -77.6525C82.2848 -76.3231 81.5685 -75.3566 80.5342 -74.7499C83.0397 -84.7681 83.756 -94.9271 82.683 -105.227C80.633 -107.932 78.9627 -110.835 77.669 -113.935Z" fill="black"/>
<path fill-rule="evenodd" clip-rule="evenodd" d="M-36.9365 45.7066C-36.6485 50.9748 -34.2605 54.8453 -29.7736 57.3169C-28.6419 59.1948 -27.2093 60.8885 -25.4759 62.3964C-14.3664 68.8778 -3.14503 69.1202 8.18946 63.122C11.874 67.785 14.0229 73.1068 14.636 79.0861C14.0616 85.9855 12.152 86.4688 8.90575 80.5374C8.4287 81.0207 7.95023 81.5054 7.47318 81.9887C9.2467 85.8578 9.2467 89.7269 7.47318 93.599C1.27302 97.3099 -4.93575 97.3099 -11.1502 93.599C-10.3938 91.6441 -10.1546 89.7081 -10.4339 87.7938C-15.6199 91.2871 -21.1109 91.528 -26.9085 88.5195C-42.3201 77.8424 -48.5274 63.0886 -45.5319 44.2553C-44.2369 43.2264 -43.7598 41.7751 -44.0993 39.9015C-42.2055 40.1482 -40.5337 39.6649 -39.0854 38.4502C-38.8017 41.1815 -38.0854 43.5993 -36.9365 45.7066Z" fill="#DDB902"/>
<path fill-rule="evenodd" clip-rule="evenodd" d="M-29.7738 57.3169C-34.2606 54.8453 -36.6487 50.9748 -36.9367 45.7066C-37.1659 43.2409 -36.9281 40.8216 -36.2204 38.4502C-29.844 31.9891 -26.0233 33.4404 -24.7598 42.804C-14.3293 52.6815 -2.15244 55.584 11.7707 51.5117C13.315 54.378 12.838 57.0382 10.3381 59.4938C-3.62942 68.605 -17.001 67.8793 -29.7738 57.3169Z" fill="#097DBF"/>
</g>
<path d="M0.5 0.5H134.5V110C134.5 120.77 125.77 129.5 115 129.5H0.5V0.5Z" stroke="black"/>
<defs>
<clipPath id="clip0_565_18823">
<path d="M0 0H135V110C135 121.046 126.046 130 115 130H0V0Z" fill="white"/>
</clipPath>
</defs>
</svg>
