<svg width="135" height="130" viewBox="0 0 135 130" fill="none" xmlns="http://www.w3.org/2000/svg">
<g clip-path="url(#clip0_565_18675)">
<rect width="135" height="130" fill="white"/>
<rect x="-369.5" y="-184.5" width="524" height="498" rx="18.5" fill="#FDFFEF" stroke="black" stroke-width="3"/>
<path fill-rule="evenodd" clip-rule="evenodd" d="M14.6361 -17.3145C10.1865 -19.0668 5.8888 -21.2437 1.74294 -23.8453C-2.57913 -28.3232 -6.87684 -32.6771 -11.1502 -36.9068C-17.836 -37.8744 -24.5204 -37.8744 -31.2062 -36.9068C-32.8164 -36.5452 -34.249 -35.8195 -35.5039 -34.7299C-38.369 -28.4411 -41.2342 -22.1521 -44.0993 -15.8632C-40.5336 -8.48649 -41.9662 -1.95571 -48.397 3.72911C-63.2069 12.7532 -78.4881 13.9636 -94.2393 7.35732C-83.76 8.68524 -73.255 8.9276 -62.7227 8.08296C-55.2146 6.28482 -49.2451 2.17319 -44.8156 -4.25295C-43.8257 -9.36336 -44.542 -14.2009 -46.9644 -18.7658C-43.9188 -25.0321 -40.5766 -31.321 -36.9365 -37.6325C-26.2395 -43.5463 -15.733 -43.3044 -5.41991 -36.9068C0.349048 -30.1002 7.03485 -24.295 14.6361 -19.4914C16.4096 -18.49 16.4096 -17.7644 14.6361 -17.3145Z" fill="black"/>
<path opacity="0.882" fill-rule="evenodd" clip-rule="evenodd" d="M4.60782 -2.80163C8.20213 -0.738917 11.5458 1.67979 14.6358 4.45479C9.42555 4.47366 5.12784 2.53881 1.74268 -1.35034C2.39736 -2.50774 3.35288 -2.9916 4.60782 -2.80163Z" fill="black"/>
<path fill-rule="evenodd" clip-rule="evenodd" d="M8.90594 8.80859C10.3743 25.2125 3.21147 32.9521 -12.5826 32.0291C-11.4738 38.2392 -10.7575 44.529 -10.4338 50.8958C-6.98843 52.0191 -3.407 52.7448 0.310517 53.0727C-1.68219 56.5413 -4.54733 58.9606 -8.2849 60.3292C-7.02281 61.3567 -6.06872 62.567 -5.41976 63.9574C-8.1746 63.5292 -10.5627 62.3203 -12.5826 60.3292C-9.95815 59.2436 -7.57005 57.7923 -5.41976 55.9753C-8.78344 55.4732 -11.4093 53.7795 -13.2989 50.8958C-13.6155 44.0458 -14.3318 37.2726 -15.4478 30.5778C-4.225 31.064 3.41633 25.9845 7.47337 15.3394C5.15404 12.2046 5.63108 10.0277 8.90594 8.80859Z" fill="black"/>
<path fill-rule="evenodd" clip-rule="evenodd" d="M41.8549 -12.9604C39.0872 -9.07551 26.9103 -0.367807 28.2455 4.45495C28.7225 3.48738 29.201 2.51996 29.678 1.55239C30.2654 3.5852 30.9817 5.5202 31.8269 7.35752C19.7403 10.9088 13.533 19.1318 13.2035 32.0293C11.7967 37.0537 11.3196 42.3755 11.7709 47.9935C10.8154 45.0909 9.86129 42.1883 8.90576 39.2858C9.48739 30.639 11.6362 22.4146 15.3523 14.6139C18.5527 11.4211 22.1341 8.76091 26.0966 6.63188C24.5065 2.65943 24.2672 -1.45264 25.3803 -5.70403C28.2455 -10.0579 39.6817 -12.9451 41.8549 -12.9604Z" fill="black"/>
<path fill-rule="evenodd" clip-rule="evenodd" d="M14.6358 -17.3143C12.3408 -15.0301 9.47563 -14.0626 6.04033 -14.4118C3.93875 -15.5606 2.02913 -15.5606 0.310049 -14.4118C4.00608 -9.70335 8.78084 -6.80079 14.6358 -5.70405C11.7491 -3.63771 8.40694 -2.67014 4.60776 -2.80149C3.35283 -2.99146 2.3973 -2.5076 1.74262 -1.3502C5.12778 2.53895 9.42549 4.4738 14.6358 4.45493C16.4093 4.90483 16.4093 5.63047 14.6358 6.63186C12.8522 7.77982 10.9426 8.50547 8.90547 8.80879C5.63061 10.0279 5.15357 12.2048 7.4729 15.3396C3.41586 25.9847 -4.22547 31.0642 -15.4482 30.578C-14.3322 37.2728 -13.616 44.0459 -13.2994 50.896C-11.4098 53.7797 -8.78391 55.4733 -5.42023 55.9755C-7.57052 57.7925 -9.95861 59.2438 -12.5831 60.3293C-10.5632 62.3205 -8.17506 63.5294 -5.42023 63.9576C-3.48626 65.6265 -3.72407 66.5945 -6.13652 66.8601C-15.6803 64.3596 -16.3966 65.8108 -8.28537 71.214C-10.3669 71.8366 -12.7536 72.0789 -15.4482 71.9396C-18.2575 76.2398 -21.5997 80.1089 -25.4762 83.5499C-31.5388 86.8515 -37.2691 90.4798 -42.6671 94.4345C-43.157 95.6507 -44.1111 96.1354 -45.5322 95.8858C-48.214 100.282 -52.0346 103.425 -56.9928 105.319C-53.1148 105.779 -49.7726 104.57 -46.9648 101.691C-45.5322 104.593 -44.0996 107.496 -42.6671 110.399C-50.7467 109.426 -57.9096 111.362 -64.1556 116.204C-65.5824 116.329 -66.7758 115.844 -67.737 114.752C-68.3129 112.761 -69.0292 110.827 -69.8859 108.947C-54.692 107.271 -54.692 106.062 -69.8859 105.319C-71.986 104.398 -73.8971 103.187 -75.6162 101.691C-75.0259 103.551 -75.98 105.003 -78.4813 106.045C-83.5555 105.591 -88.3302 106.075 -92.807 107.496C-95.6392 104.247 -99.2206 102.311 -103.551 101.691C-107.189 103.29 -110.77 103.29 -114.296 101.691C-116.178 102.871 -117.85 104.322 -119.31 106.045C-119.566 98.1193 -121.715 97.1513 -125.756 103.142C-127.09 100.028 -126.611 96.8843 -124.324 93.7089C-128.872 93.7858 -132.693 92.5769 -135.784 90.0807C-132.463 89.6191 -130.552 87.6831 -130.054 84.2755C-133.972 78.3528 -137.316 72.063 -140.082 65.4088C-156.364 76.768 -169.735 73.8655 -180.194 56.7011C-177.748 53.5925 -176.554 50.2066 -176.612 46.5422C-177.627 47.8207 -178.821 48.7873 -180.194 49.4447C-183.437 50.4882 -186.779 50.9715 -190.222 50.896C-186.404 46.7816 -182.823 42.4278 -179.477 37.8345C-178.522 36.3832 -178.522 34.9319 -179.477 33.4806C-180.837 35.7925 -182.507 37.7271 -184.491 39.2857C-187.264 40.2291 -190.129 40.7123 -193.087 40.737C-185.759 32.4139 -180.506 22.9806 -177.329 12.437C-169.23 7.94092 -160.635 6.48963 -151.542 8.08314C-146.03 13.9115 -140.3 19.4743 -134.352 24.7729C-134.651 20.5308 -134.174 16.177 -132.919 11.7114C-132.615 14.4456 -131.183 16.3801 -128.621 17.5165C-127.666 10.2601 -126.712 3.00365 -125.756 -4.25277C-123.013 14.7736 -119.671 14.7736 -115.728 -4.25277C-114.773 -0.866489 -113.819 2.51994 -112.863 5.90622C-111.907 5.90622 -110.953 5.90622 -109.998 5.90622C-104.7 5.98168 -99.447 6.46641 -94.2396 7.3575C-78.4885 13.9637 -63.2072 12.7534 -48.3973 3.72929C-41.9665 -1.95553 -40.534 -8.48631 -44.0996 -15.863C-41.2345 -22.1519 -38.3693 -28.4409 -35.5042 -34.7297C-34.2493 -35.8193 -32.8167 -36.545 -31.2065 -36.9066C-24.5207 -37.8742 -17.8363 -37.8742 -11.1505 -36.9066C-6.87715 -32.6769 -2.57944 -28.323 1.74262 -23.8451C5.88848 -21.2435 10.1862 -19.0666 14.6358 -17.3143Z" fill="#DDB901"/>
<path fill-rule="evenodd" clip-rule="evenodd" d="M31.8269 7.35742C38.2735 8.80871 39.5929 9.57789 46.1526 9.53435C47.2457 10.6489 52.2596 11.3746 54.0317 11.7113C62.4395 12.0857 69.79 14.6138 77.6691 16.0651C78.9628 19.1651 80.6331 22.0676 82.6831 24.7728C83.7561 35.0726 83.0399 45.2316 80.5343 55.2498C78.4814 57.1843 76.5704 59.3613 74.804 61.7806C73.4459 62.4815 72.0134 62.7224 70.5063 62.5062C67.9449 60.8779 65.0797 60.6355 61.9109 61.7806C57.702 64.4045 53.4043 66.5814 49.0177 68.3113C42.8792 67.2838 36.6719 66.5582 30.3943 66.1344C26.4705 64.6454 23.1283 62.4685 20.3663 59.6036C18.9338 57.1843 17.0242 55.2498 14.6361 53.7985C13.3582 46.6321 12.8797 39.3756 13.2035 32.0292C13.533 19.1317 19.7403 10.9087 31.8269 7.35742Z" fill="#CC0821"/>
<path d="M70.9898 30.1176L66.0734 54.2312C65.9305 54.9324 65.3216 55.4248 64.6161 55.4109C60.732 55.3346 50.7854 55.0292 44.023 53.8609C37.3596 52.7097 28.0273 49.7254 24.2995 48.487C23.6036 48.2558 23.1831 47.5472 23.3102 46.818L27.7524 21.3384C27.9096 20.4364 28.8291 19.8838 29.7043 20.1666C32.5106 21.0733 37.5959 22.6721 42.5212 23.9934C44.5102 24.527 46.4766 25.0163 48.2584 25.3966C55.1602 26.8698 65.1996 27.8893 69.6323 28.295C70.5361 28.3777 71.1707 29.2304 70.9898 30.1176Z" fill="white" stroke="#2B2424"/>
<path d="M30.3734 30.0657C30.2045 30.0989 30.0673 30.0783 29.9617 30.0041C29.8561 29.9298 29.7849 29.8457 29.748 29.7519C29.694 29.6332 29.6934 29.5191 29.7462 29.4097C29.799 29.3002 29.9065 29.2175 30.0688 29.1614C30.335 29.0706 30.6594 29.0181 31.0418 29.0036C31.4261 28.9787 31.824 29.0269 32.2355 29.1482C32.647 29.2695 33.0082 29.4573 33.3192 29.7115C33.6426 29.9573 33.8986 30.2446 34.0873 30.5734C34.2865 30.9042 34.4151 31.265 34.4729 31.6559C34.5433 32.0383 34.5363 32.4277 34.4521 32.8243C34.3536 33.2398 34.1921 33.6435 33.9678 34.0352C33.7539 34.4289 33.4873 34.7855 33.1678 35.1049C32.8589 35.4264 32.5033 35.7064 32.1012 35.9451C31.7114 36.1752 31.2967 36.3355 30.8568 36.426C30.5603 36.4458 30.3435 36.4156 30.2064 36.3354C30.0694 36.2552 29.9814 36.1734 29.9426 36.0901C29.9313 36.0337 29.9335 35.9635 29.949 35.8796C29.9769 35.7872 30.052 35.7037 30.1743 35.6292C30.2367 34.588 30.3394 33.5926 30.4826 32.6427C30.6381 31.6844 30.7887 30.8119 30.9341 30.0253C30.7501 30.0231 30.5632 30.0365 30.3734 30.0657ZM32.125 30.1856C32.064 30.1632 31.9968 30.1451 31.9235 30.1312C31.8625 30.1088 31.8006 30.0916 31.7377 30.0797C31.7851 30.1756 31.8181 30.2903 31.8367 30.4241C31.8573 30.5474 31.857 30.6668 31.8356 30.7821C31.7173 31.4219 31.5955 32.1098 31.4702 32.846C31.3554 33.5841 31.2613 34.3858 31.188 35.2512C31.7113 35.0029 32.182 34.6578 32.6 34.2159C33.0305 33.7655 33.3085 33.2591 33.4343 32.6967C33.5417 32.1743 33.4961 31.6881 33.2972 31.2379C33.1004 30.7773 32.7096 30.4266 32.125 30.1856ZM41.2942 32.4587C41.3012 32.6554 41.3014 32.8888 41.2949 33.159C41.2902 33.4186 41.267 33.691 41.2251 33.9762C41.1956 34.2528 41.1485 34.537 41.0837 34.8286C41.0189 35.1203 40.9351 35.3975 40.8322 35.6603C40.7111 35.963 40.532 36.2276 40.2949 36.4541C40.0577 36.6806 39.7835 36.8729 39.4721 37.0311C39.1713 37.1912 38.8458 37.3087 38.4957 37.3835C38.1579 37.4499 37.8208 37.4837 37.4842 37.4851C37.1601 37.4781 36.8437 37.429 36.5351 37.338C36.2389 37.2385 35.9828 37.0978 35.767 36.9158C35.5235 36.7069 35.3413 36.4607 35.2201 36.1773C35.099 35.8938 35.0828 35.5706 35.1717 35.2075C35.2586 34.8548 35.3502 34.5357 35.4464 34.25C35.5446 33.9538 35.6503 33.6753 35.7637 33.4145C35.8875 33.1557 36.0165 32.8979 36.1508 32.6411C36.287 32.3738 36.4304 32.097 36.581 31.8107C36.6586 31.6843 36.7675 31.6235 36.9077 31.6283C36.962 31.6277 37.0249 31.6397 37.0963 31.664C37.1278 31.67 37.1658 31.6989 37.2105 31.7508C37.2675 31.7941 37.3165 31.8522 37.3572 31.9251C37.398 31.9979 37.4263 32.0793 37.4423 32.1691C37.4687 32.261 37.4565 32.3564 37.4056 32.4553C37.2492 32.773 37.0918 33.096 36.9335 33.4243C36.7751 33.7525 36.6302 34.067 36.4986 34.3677C36.3775 34.6705 36.2832 34.9457 36.2157 35.1934C36.1606 35.4327 36.1519 35.6264 36.1896 35.7747C36.289 35.9997 36.4482 36.1655 36.6671 36.2721C36.8985 36.3702 37.1491 36.4231 37.4189 36.4307C37.6887 36.4384 37.9529 36.4178 38.2114 36.3691C38.4823 36.3118 38.7176 36.2424 38.9171 36.1607C39.235 36.0255 39.4831 35.8282 39.6612 35.5689C39.8498 35.3115 39.9909 35.018 40.0844 34.6883C40.178 34.3587 40.2377 34.0063 40.2637 33.6313C40.3001 33.2583 40.3199 32.8876 40.3229 32.5191C40.3194 32.4207 40.347 32.3011 40.4056 32.1602C40.4642 32.0193 40.5694 31.9199 40.7212 31.8618C40.8834 31.8056 41.0125 31.8409 41.1084 31.9676C41.2148 32.0963 41.2767 32.26 41.2942 32.4587ZM48.8867 33.3424C48.6484 34.22 48.3906 35.1155 48.1131 36.0291C47.8481 36.9341 47.5561 37.7798 47.237 38.5661C47.1583 38.7574 47.0744 38.8881 46.9855 38.9581C46.8966 39.0281 46.7812 39.066 46.6391 39.0717C46.5199 39.0708 46.3642 39.0033 46.1721 38.8693C45.9904 38.7372 45.8479 38.5691 45.7446 38.365C45.611 38.0901 45.4656 37.7912 45.3084 37.4683C45.1635 37.1369 44.9977 36.8016 44.811 36.4623C44.6366 36.1145 44.4456 35.769 44.2379 35.4257C44.0406 35.0845 43.8238 34.7612 43.5873 34.4559C43.4278 35.1421 43.2746 35.8241 43.1275 36.5019C42.9824 37.1691 42.8573 37.8456 42.7522 38.5312C42.7347 38.6256 42.6422 38.657 42.4744 38.6252C42.2753 38.5875 42.1313 38.4571 42.0423 38.234C41.9554 38.0005 41.9208 37.7768 41.9386 37.5631C41.946 37.3474 41.9855 37.0455 42.0573 36.6575C42.131 36.2589 42.2129 35.8457 42.3029 35.4177C42.4034 34.9916 42.501 34.5813 42.5956 34.1868C42.6903 33.7922 42.7695 33.4815 42.8331 33.2548C42.9006 33.007 42.9922 32.8344 43.1079 32.7369C43.234 32.6414 43.3433 32.6078 43.4357 32.6361C43.6415 32.6968 43.7661 32.7855 43.8096 32.9023C43.8655 33.0106 43.8851 33.1391 43.8684 33.2879C44.1953 33.6321 44.4869 33.9912 44.7432 34.3653C45.0099 34.7415 45.2442 35.1169 45.4461 35.4916C45.6585 35.8684 45.8447 36.2401 46.0047 36.6069C46.1771 36.9652 46.3386 37.2943 46.4893 37.5942C46.7314 36.9887 46.961 36.3049 47.1779 35.5427C47.4053 34.7825 47.6395 33.9855 47.8804 33.1519C47.8894 33.045 47.9707 32.9573 48.1244 32.8887C48.2801 32.8096 48.4146 32.7862 48.5279 32.8186C48.8175 32.8951 48.9371 33.0697 48.8867 33.3424ZM50.1185 33.8035C49.9496 33.8367 49.8124 33.8161 49.7068 33.7419C49.6012 33.6676 49.5299 33.5836 49.493 33.4897C49.4391 33.371 49.4385 33.2569 49.4913 33.1475C49.544 33.0381 49.6516 32.9553 49.8138 32.8992C50.0801 32.8085 50.4045 32.7559 50.7868 32.7414C51.1711 32.7165 51.5691 32.7647 51.9806 32.886C52.3921 33.0073 52.7533 33.1951 53.0643 33.4494C53.3877 33.6951 53.6437 33.9824 53.8324 34.3112C54.0316 34.642 54.1601 35.0028 54.218 35.3937C54.2883 35.7761 54.2814 36.1655 54.1972 36.5621C54.0986 36.9776 53.9372 37.3813 53.7129 37.773C53.499 38.1667 53.2324 38.5233 52.9129 38.8427C52.6039 39.1642 52.2484 39.4442 51.8462 39.6829C51.4565 39.9131 51.0417 40.0733 50.6019 40.1638C50.3053 40.1836 50.0885 40.1534 49.9515 40.0732C49.8144 39.993 49.7265 39.9112 49.6877 39.8279C49.6764 39.7715 49.6785 39.7013 49.6941 39.6174C49.722 39.525 49.7971 39.4415 49.9194 39.367C49.9818 38.3259 50.0845 37.3304 50.2277 36.3805C50.3832 35.4222 50.5337 34.5497 50.6792 33.7631C50.4952 33.7609 50.3083 33.7743 50.1185 33.8035ZM51.87 33.9234C51.8091 33.901 51.7419 33.8829 51.6686 33.869C51.6076 33.8466 51.5457 33.8295 51.4828 33.8176C51.5302 33.9134 51.5632 34.0282 51.5818 34.1619C51.6024 34.2853 51.602 34.4046 51.5807 34.52C51.4624 35.1597 51.3406 35.8476 51.2153 36.5838C51.1004 37.3219 51.0064 38.1236 50.9331 38.989C51.4564 38.7407 51.927 38.3956 52.3451 37.9537C52.7755 37.5033 53.0536 36.9969 53.1793 36.4345C53.2868 35.9121 53.2411 35.4259 53.0423 34.9757C52.8455 34.5151 52.4547 34.1644 51.87 33.9234ZM59.9151 38.0516C59.9376 38.1644 59.8763 38.2613 59.7311 38.3424C59.5879 38.413 59.3771 38.4382 59.0987 38.4181C58.6154 38.3917 58.1207 38.3686 57.6145 38.3488C57.1102 38.3184 56.5945 38.2914 56.0673 38.2675C55.9474 38.7984 55.8485 39.3333 55.7705 39.8722C56.0116 39.9178 56.3037 39.9514 56.6469 39.9729C57.0025 39.986 57.3652 39.9895 57.7352 39.9836C58.1051 39.9776 58.4594 39.9687 58.7979 39.9568C59.1488 39.9364 59.4444 39.9218 59.6847 39.913C59.8058 39.9034 59.9302 39.9052 60.058 39.9185C60.1876 39.9214 60.2977 39.9422 60.3881 39.981C60.491 40.0114 60.5681 40.0639 60.6193 40.1388C60.6706 40.2136 60.6855 40.3087 60.6642 40.4241C60.6584 40.4555 60.6129 40.4958 60.5279 40.5448C60.4429 40.5938 60.336 40.6442 60.2071 40.6957C60.0907 40.7388 59.9637 40.7799 59.8263 40.819C59.7013 40.8497 59.5887 40.8718 59.4886 40.8854C58.7999 40.9721 58.1266 41.0346 57.4686 41.0729C56.8126 41.1006 56.1848 41.0632 55.5854 40.9606C55.2376 40.9056 54.9921 40.7669 54.8488 40.5444C54.7075 40.3114 54.6655 40.0103 54.7229 39.6413C54.797 39.1234 54.893 38.6043 55.011 38.0839C54.8522 37.9453 54.7902 37.7816 54.8252 37.5928C54.883 37.3975 55.0025 37.279 55.1838 37.2373C55.261 36.9372 55.333 36.636 55.3997 36.3338C55.4684 36.0212 55.5414 35.7148 55.6186 35.4146C55.5072 35.3718 55.413 35.2943 55.3361 35.182C55.2698 35.0718 55.2472 34.9589 55.2686 34.8436C55.286 34.7492 55.3225 34.6693 55.378 34.6038C55.4354 34.5278 55.5257 34.4798 55.6488 34.4596C55.8452 34.4534 56.0845 34.4499 56.3667 34.449C56.6489 34.4482 56.9354 34.4536 57.2262 34.4652C57.5274 34.4788 57.812 34.4947 58.0799 34.5128C58.3582 34.5329 58.5927 34.5556 58.7833 34.5808C59.0073 34.6015 59.213 34.6622 59.4005 34.7628C59.5985 34.8654 59.7701 35.0227 59.9153 35.2348C59.9301 35.3895 59.8783 35.4937 59.7599 35.5473C59.652 35.6028 59.5175 35.6262 59.3564 35.6174C59.1953 35.6086 59.0018 35.5991 58.7758 35.5889C58.5518 35.5682 58.3164 35.5508 58.0695 35.5366C57.8331 35.5244 57.5914 35.5113 57.3445 35.4971C57.11 35.4744 56.8851 35.459 56.6696 35.4507C56.6658 35.4717 56.6609 35.4979 56.6551 35.5294C56.6617 35.5524 56.6631 35.5743 56.6592 35.5953C56.5878 35.864 56.5216 36.1337 56.4607 36.4044C56.3998 36.6751 56.3389 36.9458 56.278 37.2165C56.7318 37.2264 57.1941 37.2488 57.665 37.2837C58.1378 37.3081 58.5124 37.3356 58.7888 37.3662C59.0128 37.3869 59.2229 37.4538 59.4189 37.5669C59.615 37.68 59.7803 37.8415 59.9151 38.0516ZM62.1983 42.2613C62.2386 41.8673 62.2939 41.4219 62.3641 40.925C62.4448 40.4301 62.5326 39.9257 62.6277 39.4118C62.7247 38.8874 62.8197 38.3735 62.9128 37.8701C63.0164 37.3686 63.1165 36.9154 63.2132 36.5103C63.2326 36.4055 63.2943 36.3357 63.3983 36.3012C63.5148 36.2581 63.6035 36.2477 63.6644 36.2701C63.8492 36.3268 63.9624 36.4188 64.0039 36.5461C64.0579 36.6648 64.0769 36.8258 64.061 37.0291C63.9885 37.3627 63.9159 37.6963 63.8434 38.0299C63.7813 38.3655 63.7245 38.7021 63.6729 39.0397C64.1601 39.0451 64.5851 38.9465 64.9481 38.7438C65.3215 38.5431 65.6074 38.2879 65.8057 37.9781C65.8814 37.8621 65.9462 37.717 66.0002 37.5427C66.0646 37.3703 66.1028 37.193 66.1148 37.0108C66.1288 36.818 66.1084 36.6351 66.0536 36.4619C66.0113 36.2802 65.9202 36.1273 65.7804 36.0031C65.5751 35.8231 65.3371 35.7021 65.0665 35.64C64.7959 35.5779 64.5052 35.5663 64.1942 35.6051C63.8957 35.6355 63.5875 35.7182 63.2696 35.8534C62.9621 35.9906 62.6636 36.1675 62.3741 36.3841C62.3764 36.5473 62.3293 36.6849 62.2326 36.7969C62.1379 36.8984 62.0176 36.9624 61.8716 36.9891C61.7839 36.9942 61.6921 36.9334 61.5962 36.8067C61.5022 36.6695 61.4659 36.5432 61.4872 36.4279C61.5648 36.0083 61.747 35.6683 62.0339 35.4079C62.3332 35.1389 62.6804 34.9332 63.0755 34.7909C63.4707 34.6486 63.8824 34.5637 64.3106 34.5362C64.7387 34.5088 65.1258 34.5277 65.4717 34.5932C65.9853 34.6904 66.3869 34.9239 66.6765 35.2935C66.9681 35.6526 67.1351 36.0696 67.1774 36.5444C67.2521 37.3726 67.0635 38.0696 66.6117 38.6354C66.1704 39.2031 65.5349 39.6473 64.7054 39.9679C65.1884 40.4067 65.6376 40.8228 66.053 41.2162C66.4789 41.6116 66.8999 42.0333 67.3161 42.4811C67.3674 42.556 67.418 42.6633 67.4681 42.803C67.5307 42.9342 67.4872 43.1105 67.3378 43.3319C67.2477 43.4668 67.1221 43.5299 66.961 43.5211C66.8124 43.5038 66.6743 43.4289 66.547 43.2962C66.3513 43.0638 66.1252 42.8201 65.8685 42.5653C65.6243 42.302 65.3634 42.0409 65.0858 41.7821C64.8102 41.5129 64.5326 41.2541 64.2531 41.0058C63.9755 40.747 63.7107 40.5069 63.4587 40.2855C63.3916 40.707 63.3193 41.1275 63.2417 41.547C63.1765 41.958 63.1176 42.3648 63.0648 42.7673C63.0376 42.9141 62.9763 43.011 62.8808 43.0581C62.7873 43.0947 62.6776 43.101 62.5518 43.0772C62.4909 43.0548 62.4391 43.0124 62.3963 42.9501C62.3556 42.8772 62.3158 42.7992 62.277 42.7158C62.2505 42.624 62.2284 42.5384 62.2105 42.459C62.1946 42.3692 62.1905 42.3033 62.1983 42.2613ZM32.9252 41.7836C32.9155 41.8361 32.8481 41.8776 32.7232 41.9082C32.6086 41.9408 32.5042 41.9482 32.4099 41.9303C31.7162 41.8098 31.0562 41.7121 30.43 41.6369C29.8039 41.5618 29.1915 41.5002 28.5929 41.452C28.4756 41.4406 28.3776 41.3841 28.2988 41.2823C28.2305 41.1826 28.1965 41.073 28.1968 40.9537C28.1953 40.8448 28.2199 40.7409 28.2708 40.642C28.334 40.5346 28.421 40.4751 28.5316 40.4634C29.1504 40.4612 29.8115 40.4941 30.5149 40.5621C31.2184 40.6301 31.9082 40.7716 32.5845 40.9864C32.6244 41.0048 32.672 41.041 32.7271 41.0948C32.7842 41.1382 32.8331 41.1963 32.8739 41.2692C32.9166 41.3315 32.9459 41.4076 32.9618 41.4975C32.9778 41.5873 32.9656 41.6827 32.9252 41.7836ZM32.8495 46.768C32.8391 47.6453 32.792 48.5156 32.7083 49.379C32.6265 50.2319 32.5289 51.0818 32.4157 51.9288C32.4087 52.0252 32.3827 52.1071 32.3377 52.1746C32.2946 52.2315 32.242 52.2813 32.1799 52.3238C32.1283 52.3683 32.0733 52.4013 32.0151 52.4229C31.9674 52.4464 31.9278 52.4552 31.8963 52.4492C31.781 52.4274 31.6754 52.3531 31.5795 52.2264C31.4961 52.0912 31.4603 51.9325 31.4723 51.7502C31.5146 51.3457 31.5569 50.9413 31.5991 50.5368C31.6414 50.1323 31.6784 49.7268 31.7102 49.3203C30.5534 49.4161 29.3405 49.4633 28.0715 49.4619C28.0707 49.7006 28.07 49.9392 28.0692 50.1779C28.0685 50.4166 28.073 50.6562 28.0827 50.8969C28.0854 50.9408 28.078 51.01 28.0606 51.1044C28.0536 51.2007 28.0299 51.2994 27.9896 51.4003C27.9597 51.5032 27.9098 51.5969 27.84 51.6813C27.7825 51.7573 27.7027 51.8073 27.6007 51.8314C27.5149 51.826 27.4306 51.783 27.3479 51.7022C27.2652 51.6214 27.214 51.5466 27.1942 51.4777C27.1285 51.1287 27.0798 50.7179 27.0479 50.2451C27.0265 49.7743 27.0194 49.2845 27.0267 48.7757C27.0465 48.2584 27.0882 47.7398 27.1518 47.2199C27.2154 46.7001 27.3013 46.2062 27.4095 45.7382C27.4596 45.5848 27.5376 45.4856 27.6436 45.4406C27.762 45.387 27.8631 45.3681 27.947 45.384C28.0413 45.4019 28.1141 45.4482 28.1653 45.5231C28.2271 45.5999 28.2702 45.6894 28.2946 45.7918C28.3191 45.8941 28.3331 45.9944 28.3366 46.0928C28.3401 46.1912 28.336 46.2718 28.3244 46.3347C28.2728 46.6723 28.2274 47.0057 28.1883 47.3347C28.1491 47.6638 28.1256 47.9959 28.1179 48.3309C28.6661 48.3587 29.2662 48.3692 29.9184 48.3624C30.5725 48.3451 31.1928 48.3051 31.7794 48.2425C31.803 47.9973 31.8215 47.7511 31.8346 47.504C31.8497 47.2463 31.8639 46.9939 31.877 46.7467C31.91 46.5684 31.9915 46.421 32.1216 46.3045C32.2621 46.19 32.39 46.1437 32.5053 46.1655C32.5891 46.1814 32.6652 46.2392 32.7336 46.339C32.8124 46.4407 32.851 46.5837 32.8495 46.768ZM39.5085 51.0734C39.3913 51.3551 39.2237 51.6165 39.0055 51.8574C38.7998 52.0898 38.5708 52.3016 38.3185 52.4926C38.0662 52.6837 37.7987 52.8393 37.5161 52.9595C37.244 53.0816 36.9735 53.1661 36.7045 53.2129C36.2122 53.2934 35.7404 53.2637 35.2889 53.124C34.8498 52.9758 34.4851 52.6896 34.1946 52.2656C34.0079 51.9263 33.896 51.5632 33.8591 51.1763C33.8327 50.7913 33.8544 50.4101 33.9242 50.0325C34.0065 49.6465 34.1277 49.2841 34.288 48.9454C34.4588 48.6086 34.649 48.3135 34.8586 48.0601C35.1093 47.7602 35.3861 47.525 35.6888 47.3543C35.9916 47.1837 36.3041 47.1072 36.6263 47.1247C36.714 47.1196 36.7783 47.1535 36.8191 47.2264C36.8598 47.2992 36.8725 47.3776 36.8569 47.4615C36.9812 47.3765 37.1582 47.3285 37.388 47.3178C37.6178 47.307 37.8651 47.3484 38.1298 47.4419C38.6213 47.6001 38.9915 47.8276 39.2404 48.1243C39.4892 48.4211 39.6517 48.745 39.7278 49.0959C39.8164 49.4383 39.8277 49.7878 39.7617 50.1444C39.7082 50.4925 39.6238 50.8021 39.5085 51.0734ZM36.4826 48.2536C36.2555 48.3083 36.0511 48.4162 35.8695 48.5772C35.7003 48.7296 35.5471 48.9123 35.4101 49.1252C35.2836 49.3401 35.1794 49.5809 35.0975 49.8476C35.0281 50.1058 34.9805 50.3628 34.9549 50.6184C34.9185 50.9915 34.9723 51.3164 35.1163 51.5934C35.2623 51.8598 35.5345 52.0307 35.9328 52.1061C36.1634 52.1498 36.3965 52.1505 36.6321 52.1083C36.8802 52.0575 37.1121 51.9766 37.3279 51.8655C37.5438 51.7544 37.7487 51.6141 37.9428 51.4446C38.1388 51.2646 38.3044 51.0734 38.4394 50.871C38.5132 50.7656 38.5813 50.6319 38.6438 50.4701C38.7082 50.2977 38.7516 50.1214 38.7741 49.9411C38.7986 49.7504 38.7896 49.5641 38.7473 49.3824C38.705 49.2008 38.6158 49.0373 38.48 48.8922C38.2889 48.6932 38.0444 48.5492 37.7462 48.4602C37.4481 48.3712 37.1158 48.3789 36.7493 48.4832C36.6787 48.5132 36.6034 48.5098 36.5234 48.473C36.4558 48.4276 36.4423 48.3545 36.4826 48.2536ZM47.497 49.3617C47.2588 50.2393 47.0009 51.1348 46.7235 52.0484C46.4584 52.9535 46.1664 53.7992 45.8474 54.5855C45.7686 54.7768 45.6848 54.9075 45.5959 54.9775C45.507 55.0475 45.3915 55.0853 45.2494 55.091C45.1303 55.0901 44.9746 55.0227 44.7824 54.8886C44.6007 54.7565 44.4582 54.5884 44.3549 54.3843C44.2214 54.1094 44.076 53.8105 43.9187 53.4876C43.7739 53.1563 43.6081 52.821 43.4213 52.4817C43.247 52.1339 43.0559 51.7883 42.8482 51.4451C42.651 51.1038 42.4341 50.7805 42.1977 50.4752C42.0382 51.1615 41.8849 51.8435 41.7379 52.5212C41.5928 53.1884 41.4677 53.8649 41.3625 54.5506C41.3451 54.645 41.2525 54.6763 41.0848 54.6445C40.8856 54.6068 40.7416 54.4764 40.6527 54.2534C40.5657 54.0198 40.5311 53.7962 40.549 53.5824C40.5563 53.3667 40.5959 53.0649 40.6676 52.6768C40.7414 52.2783 40.8232 51.865 40.9132 51.437C41.0137 51.011 41.1113 50.6007 41.206 50.2061C41.3007 49.8115 41.3798 49.5009 41.4435 49.2741C41.511 49.0264 41.6026 48.8538 41.7182 48.7562C41.8444 48.6607 41.9537 48.6271 42.0461 48.6555C42.2518 48.7161 42.3764 48.8049 42.4199 48.9216C42.4758 49.0299 42.4955 49.1585 42.4788 49.3073C42.8057 49.6514 43.0973 50.0105 43.3535 50.3847C43.6203 50.7608 43.8546 51.1363 44.0565 51.511C44.2689 51.8877 44.455 52.2594 44.615 52.6262C44.7874 52.9845 44.949 53.3136 45.0996 53.6135C45.3418 53.008 45.5713 52.3242 45.7882 51.562C46.0156 50.8018 46.2498 50.0049 46.4908 49.1712C46.4997 49.0644 46.581 48.9766 46.7347 48.908C46.8904 48.829 47.0249 48.8056 47.1383 48.8379C47.4279 48.9144 47.5475 49.089 47.497 49.3617ZM31.2334 54.9778C31.2404 55.1745 31.2406 55.4079 31.234 55.678C31.2294 55.9377 31.2062 56.2101 31.1643 56.4952C31.1348 56.7719 31.0877 57.056 31.0229 57.3477C30.9581 57.6394 30.8742 57.9166 30.7714 58.1793C30.6503 58.4821 30.4712 58.7467 30.234 58.9732C29.9969 59.1996 29.7226 59.3919 29.4113 59.5501C29.1105 59.7103 28.785 59.8278 28.4348 59.9026C28.0971 59.9689 27.76 60.0028 27.4234 60.0042C27.0993 59.9971 26.7829 59.9481 26.4742 59.8571C26.178 59.7576 25.922 59.6169 25.7061 59.4349C25.4627 59.226 25.2804 58.9798 25.1593 58.6963C25.0381 58.4129 25.022 58.0896 25.1108 57.7265C25.1978 57.3739 25.2893 57.0547 25.3856 56.769C25.4838 56.4728 25.5895 56.1943 25.7028 55.9335C25.8266 55.6747 25.9557 55.4169 26.09 55.1601C26.2262 54.8928 26.3696 54.6161 26.5202 54.3298C26.5978 54.2033 26.7067 54.1425 26.8468 54.1474C26.9012 54.1468 26.9641 54.1587 27.0355 54.1831C27.067 54.189 27.105 54.2179 27.1497 54.2698C27.2067 54.3132 27.2556 54.3713 27.2964 54.4441C27.3372 54.517 27.3655 54.5983 27.3815 54.6882C27.4079 54.78 27.3956 54.8754 27.3448 54.9743C27.1884 55.2921 27.031 55.6151 26.8727 55.9433C26.7143 56.2716 26.5694 56.586 26.4378 56.8868C26.3167 57.1895 26.2224 57.4647 26.1549 57.7125C26.0998 57.9517 26.0911 58.1455 26.1288 58.2937C26.2282 58.5188 26.3873 58.6846 26.6063 58.7912C26.8377 58.8892 27.0883 58.9421 27.3581 58.9498C27.6279 58.9574 27.892 58.9369 28.1506 58.8881C28.4215 58.8309 28.6568 58.7614 28.8563 58.6798C29.1742 58.5446 29.4222 58.3473 29.6004 58.0879C29.789 57.8306 29.9301 57.537 30.0236 57.2074C30.1171 56.8777 30.1769 56.5254 30.2029 56.1504C30.2393 55.7774 30.2591 55.4066 30.2621 55.0381C30.2586 54.9398 30.2862 54.8202 30.3448 54.6793C30.4034 54.5384 30.5086 54.4389 30.6603 54.3808C30.8226 54.3247 30.9517 54.36 31.0476 54.4867C31.154 54.6154 31.2159 54.7791 31.2334 54.9778ZM38.8259 55.8614C38.5876 56.739 38.3298 57.6346 38.0523 58.5481C37.7873 59.4532 37.4952 60.2989 37.1762 61.0852C37.0974 61.2765 37.0136 61.4072 36.9247 61.4772C36.8358 61.5472 36.7203 61.585 36.5783 61.5907C36.4591 61.5899 36.3034 61.5224 36.1112 61.3883C35.9296 61.2562 35.7871 61.0881 35.6838 60.8841C35.5502 60.6091 35.4048 60.3102 35.2475 59.9874C35.1027 59.656 34.9369 59.3207 34.7501 58.9814C34.5758 58.6336 34.3848 58.2881 34.177 57.9448C33.9798 57.6035 33.763 57.2802 33.5265 56.975C33.367 57.6612 33.2138 58.3432 33.0667 59.0209C32.9216 59.6882 32.7965 60.3646 32.6914 61.0503C32.6739 61.1447 32.5813 61.176 32.4136 61.1443C32.2145 61.1066 32.0704 60.9762 31.9815 60.7531C31.8945 60.5195 31.86 60.2959 31.8778 60.0822C31.8851 59.8664 31.9247 59.5646 31.9965 59.1765C32.0702 58.778 32.1521 58.3647 32.2421 57.9367C32.3426 57.5107 32.4401 57.1004 32.5348 56.7058C32.6295 56.3113 32.7087 56.0006 32.7723 55.7738C32.8398 55.5261 32.9314 55.3535 33.0471 55.256C33.1732 55.1604 33.2825 55.1269 33.3749 55.1552C33.5806 55.2159 33.7053 55.3046 33.7488 55.4214C33.8047 55.5296 33.8243 55.6582 33.8076 55.807C34.1345 56.1511 34.4261 56.5102 34.6824 56.8844C34.9491 57.2605 35.1834 57.636 35.3853 58.0107C35.5977 58.3874 35.7839 58.7592 35.9439 59.1259C36.1163 59.4842 36.2778 59.8133 36.4284 60.1132C36.6706 59.5078 36.9002 58.8239 37.1171 58.0617C37.3445 57.3015 37.5787 56.5046 37.8196 55.671C37.8285 55.5641 37.9099 55.4764 38.0636 55.4078C38.2192 55.3287 38.3537 55.3053 38.4671 55.3376C38.7567 55.4141 38.8763 55.5888 38.8259 55.8614ZM42.2864 58.8775C42.234 58.8676 42.1668 58.8494 42.0849 58.8231C42.0154 58.7882 41.9469 58.7481 41.8794 58.7027C41.8242 58.6489 41.7753 58.5908 41.7326 58.5284C41.6918 58.4556 41.6773 58.3877 41.6889 58.3247C41.7044 58.2408 41.77 58.1501 41.8857 58.0526C42.0138 57.9466 42.1989 57.884 42.4412 57.8647C42.7692 57.8508 43.1071 57.8714 43.455 57.9264C43.8047 57.9709 44.1506 58.0363 44.4926 58.1228C44.8366 58.1988 45.1734 58.2842 45.503 58.3792C45.8345 58.4636 46.146 58.5389 46.4376 58.6049C46.6053 58.6367 46.7095 58.689 46.7503 58.7618C46.791 58.8347 46.8037 58.9131 46.7882 58.997C46.7532 59.1857 46.6422 59.3167 46.4551 59.3898C46.268 59.463 46.0916 59.4784 45.9258 59.4362C45.7496 59.392 45.5619 59.351 45.3627 59.3133C45.1741 59.2776 44.9749 59.2399 44.7653 59.2002C44.711 59.4938 44.6603 59.8262 44.6134 60.1972C44.5789 60.5598 44.5434 60.9275 44.507 61.3006C44.4705 61.6736 44.437 62.0309 44.4064 62.3724C44.3862 62.716 44.3705 63.0061 44.3593 63.2428C44.3647 63.3307 44.3292 63.4053 44.2528 63.4669C44.1887 63.5199 44.099 63.5354 43.9837 63.5136C43.7636 63.472 43.6264 63.3049 43.572 63.0123C43.4679 62.4607 43.435 61.8466 43.4734 61.17C42.8434 61.409 42.2481 61.5188 41.6875 61.4995C41.127 61.4803 40.6372 61.3713 40.2183 61.1726C39.8119 60.9654 39.4995 60.6891 39.2813 60.3439C39.0755 59.9902 39.0124 59.5983 39.0919 59.1683C39.1676 58.7593 39.3224 58.3327 39.5565 57.8885C39.7905 57.4443 40.0845 57.0278 40.4385 56.6389C40.7925 56.25 41.1859 55.912 41.6187 55.6249C42.0639 55.3292 42.5346 55.1307 43.0307 55.0292C43.1957 55.017 43.3434 55.0395 43.4739 55.0968C43.6167 55.1455 43.738 55.2228 43.8378 55.3285C43.95 55.4257 44.0426 55.541 44.1156 55.6742C44.201 55.7989 44.2707 55.9206 44.3247 56.0394C44.3635 56.1228 44.3804 56.2074 44.3754 56.2932C44.3703 56.3791 44.3244 56.4518 44.2374 56.5114C44.0588 56.597 43.9245 56.5607 43.8344 56.4025C43.697 56.1485 43.5693 55.9887 43.4512 55.9229C43.3456 55.8486 43.1754 55.8598 42.9406 55.9565C42.7038 56.0636 42.4315 56.2455 42.1237 56.502C41.8178 56.748 41.5209 57.0338 41.2328 57.3592C40.9573 57.6761 40.7207 58.0166 40.5231 58.3809C40.3275 58.7346 40.2206 59.078 40.2024 59.4111C40.1815 59.7002 40.3009 59.9345 40.5606 60.1139C40.8223 60.2828 41.1323 60.3958 41.4906 60.4528C41.8594 60.5117 42.2336 60.512 42.6132 60.4536C43.0034 60.3972 43.3174 60.283 43.5554 60.1109C43.5779 59.9306 43.6004 59.7504 43.6229 59.5701C43.6473 59.3793 43.676 59.1948 43.709 59.0165C43.4745 58.9938 43.24 58.9712 43.0055 58.9485C42.773 58.9153 42.5333 58.8916 42.2864 58.8775Z" fill="black"/>
<path d="M42.8917 25.9702L41.2304 22.8616L43.5315 22.5065L42.8917 25.9702Z" fill="#CC0821"/>
<path d="M41.1178 24.8887L39.9262 22.1589L41.9093 22.0218L41.1178 24.8887Z" fill="#CC0821"/>
<path d="M26.381 35.0007L23.9442 35.3878L24.4226 33.4778L26.381 35.0007Z" fill="#CC0821"/>
<path d="M33.4623 49.1308L33.1762 52.6899L31.3521 51.9771L33.4623 49.1308Z" fill="#CC0821"/>
<path fill-rule="evenodd" clip-rule="evenodd" d="M13.2035 32.0293C12.8798 39.3757 13.3582 46.6321 14.6361 53.7986C12.3382 52.6564 11.3827 50.7218 11.7709 47.9934C11.3197 42.3755 11.7967 37.0536 13.2035 32.0293Z" fill="black"/>
<path fill-rule="evenodd" clip-rule="evenodd" d="M8.90586 39.2858C9.86139 42.1884 10.8155 45.091 11.771 47.9935C11.3828 50.7219 12.3383 52.6565 14.6361 53.7987C15.1132 57.1845 17.0242 59.1205 20.3664 59.6038C23.1284 62.4686 26.4706 64.6455 30.3944 66.1346C36.6719 66.5583 42.8793 67.284 49.0178 68.3115C51.5191 69.3535 52.4732 70.8048 51.883 72.6653C56.3984 66.1694 62.6058 62.7821 70.5064 62.5064C72.0134 62.7226 73.446 62.4817 74.8041 61.7807C76.5705 59.3614 78.4815 57.1845 80.5344 55.2499C81.5687 54.6433 82.285 53.6767 82.6832 52.3474C84.2791 59.7663 81.891 65.5715 75.5204 69.7628C75.0433 68.3115 74.5649 66.8602 74.0878 65.4089C73.9202 73.2488 70.3388 78.813 63.3435 82.0987C53.4832 85.5208 43.4552 86.4888 33.2596 85.0013C34.2151 85.4845 35.1692 85.9693 36.1247 86.4525C21.5841 101.523 3.91622 108.296 -16.8804 106.771C-22.1336 101.678 -27.3854 96.3561 -32.6387 90.8064C-20.1481 82.7068 -7.01572 75.6927 6.75701 69.7628C7.27417 65.3726 7.99045 61.0188 8.90586 56.7012C7.26271 53.3546 5.35309 50.2096 3.17558 47.2679C3.2028 44.6077 4.15689 42.4308 6.04072 40.7371C6.53066 39.5209 7.48475 39.0362 8.90586 39.2858Z" fill="#DCB802"/>
<path fill-rule="evenodd" clip-rule="evenodd" d="M-39.8015 123.46C-33.905 128.57 -27.6963 129.055 -21.1781 124.912C-20.701 124.912 -20.2225 124.912 -19.7455 124.912C-16.9176 122.114 -14.7687 118.728 -13.2989 114.753C-9.4052 118.049 -6.7793 122.16 -5.41979 127.089C7.34441 131.988 17.1346 140.453 23.9479 152.486C26.9821 165.581 22.4466 174.531 10.3385 179.335C-2.47013 183.557 -13.6915 180.896 -23.3269 171.353C-29.1188 159.801 -26.9699 157.624 -16.8804 164.822C-14.9707 165.79 -13.0597 165.79 -11.1501 164.822C-16.3546 163.632 -20.6523 160.972 -24.0432 156.84C-32.726 164.289 -42.754 168.643 -54.1272 169.901C-57.223 179.56 -61.2814 188.751 -66.304 197.476C-75.951 183.361 -89.0833 174.412 -105.7 170.627C-101.458 165.668 -98.1157 160.105 -95.6717 153.937C-99.2531 148.91 -100.686 143.588 -99.9694 137.973C-97.0971 135.312 -93.9927 132.892 -90.6577 130.717C-88.2166 133.435 -85.5907 135.854 -82.7786 137.973C-81.1684 139.873 -79.0195 140.839 -76.332 140.876C-71.2235 140.765 -67.1636 138.829 -64.1552 135.071C-62.0464 132.724 -61.0909 129.821 -61.29 126.363C-61.2055 122.577 -62.161 119.189 -64.1552 116.204C-57.1213 114.29 -49.9584 112.838 -42.6666 111.85C-43.2239 116.281 -42.2698 120.151 -39.8015 123.46Z" fill="#0182C7"/>
<path fill-rule="evenodd" clip-rule="evenodd" d="M77.6691 16.0654C78.1461 16.0654 80.7735 16.0654 81.2505 16.0654C84.1156 20.4193 84.4136 20.9911 85.5482 24.7731C85.7459 35.9611 85.9851 47.0881 86.2645 58.1526C81.4969 65.4047 76.7207 72.6611 71.9388 79.9219C61.789 87.7559 50.5663 90.1738 38.2734 87.1783C24.8029 102.587 7.84991 110.811 -12.5828 111.85C-8.2135 115.374 -4.87133 119.728 -2.55486 124.912C32.3855 141.912 36.6832 164.407 10.3383 192.396C14.7792 196.448 17.1673 201.528 17.5011 207.635C15.7348 213.074 13.5859 218.395 11.0546 223.599C3.42325 231.075 -3.97739 231.075 -11.1503 223.599C-4.93578 227.31 1.27297 227.31 7.47313 223.599C9.24665 219.727 9.24665 215.858 7.47313 211.989C7.95018 211.505 8.42865 211.021 8.9057 210.537C12.1519 216.469 14.0615 215.986 14.636 209.086C14.0228 203.107 11.874 197.785 8.18942 193.122C-3.14508 199.12 -14.3664 198.878 -25.476 192.396C-27.2094 190.888 -28.642 189.195 -29.7737 187.317C-17.0009 197.879 -3.62929 198.605 10.3383 189.494C12.8381 187.038 13.3152 184.378 11.7708 181.512C-2.15231 185.584 -14.3291 182.681 -24.7597 172.804C-26.0232 163.44 -29.8439 161.989 -36.2202 168.45C-36.9279 170.822 -37.1657 173.241 -36.9365 175.707C-38.0855 173.599 -38.8017 171.182 -39.0854 168.45C-40.5337 169.665 -42.2055 170.148 -44.0994 169.901C-43.7599 171.775 -44.2369 173.226 -45.532 174.255C-47.039 171.707 -49.4271 170.739 -52.6948 171.353C-54.6374 181.835 -58.9351 191.269 -65.5879 199.653C-63.4907 210.893 -67.3099 219.601 -77.0485 225.776C-79.8291 226.854 -82.455 226.612 -84.9276 225.05C-86.8759 239.106 -94.7551 244.67 -108.565 241.74C-115.35 238.954 -121.08 234.842 -125.756 229.404C-119.241 231.736 -113.033 234.881 -107.132 238.837C-98.5628 240.345 -92.1163 237.202 -87.7928 229.404C-86.7269 224.512 -87.4432 219.917 -89.9416 215.617C-87.7469 214.601 -86.3144 212.909 -85.6439 210.537C-87.5879 208.091 -89.4975 205.673 -91.3742 203.281C-86.661 205.152 -83.3189 208.539 -81.3462 213.44C-81.9737 214.9 -82.9278 214.9 -84.2113 213.44C-85.6067 216.695 -86.0851 220.081 -85.6439 223.599C-81.2817 223.828 -77.2218 222.86 -73.4671 220.696C-70.1106 215.347 -67.9617 209.542 -67.0205 203.281C-72.9127 192.716 -81.0296 184.249 -91.3742 177.884C-97.6073 174.37 -104.292 172.676 -111.43 172.804C-110.414 171.492 -108.982 171.009 -107.132 171.353C-105.068 165.237 -102.203 159.432 -98.537 153.937C-101.763 149.113 -103.912 143.791 -104.984 137.973C-107.61 139.667 -110.237 141.359 -112.863 143.053C-108.498 152.506 -111.84 159.037 -122.891 162.645C-125.432 162.083 -127.82 161.117 -130.054 159.743C-134.334 165.057 -139.586 166.508 -145.812 164.096C-148.83 165.746 -151.933 167.198 -155.124 168.45C-158.648 166.857 -162.229 165.405 -165.868 164.096C-174.098 168.074 -182.216 167.832 -190.222 163.371C-195.158 158.521 -195.635 153.441 -191.654 148.132C-191.888 151.553 -191.65 154.939 -190.938 158.291C-183.61 164.868 -175.492 165.836 -166.584 161.194C-160.039 164.816 -153.592 164.816 -147.244 161.194C-140.656 163.834 -135.165 162.382 -130.77 156.84C-126.299 158.343 -121.763 158.586 -117.16 157.566C-112.439 153.501 -111.962 149.147 -115.728 144.504C-121.501 144.031 -127.231 144.031 -132.919 144.504C-125.898 141.983 -118.735 140.049 -111.43 138.699C-104.912 134.515 -99.898 128.952 -96.3882 122.009C-97.1073 126.681 -99.2562 130.792 -102.835 134.345C-102.024 135.789 -101.068 136.998 -99.9696 137.973C-100.686 143.588 -99.2533 148.91 -95.6719 153.937C-98.1159 160.105 -101.458 165.668 -105.7 170.627C-89.0835 174.412 -75.9511 183.361 -66.3042 197.476C-61.2816 188.751 -57.2232 179.56 -54.1274 169.901C-42.7542 168.643 -32.7262 164.289 -24.0434 156.84C-20.6525 160.972 -16.3548 163.632 -11.1503 164.822C-13.0599 165.79 -14.9709 165.79 -16.8806 164.822C-26.9701 157.624 -29.119 159.801 -23.3271 171.353C-13.6916 180.896 -2.47034 183.557 10.3383 179.335C22.4464 174.531 26.9819 165.581 23.9477 152.486C17.1344 140.453 7.3442 131.988 -5.42 127.089C-6.77951 122.16 -9.4054 118.049 -13.2991 114.753C-14.7689 118.728 -16.9178 122.114 -19.7457 124.912C-18.7429 121.192 -17.3103 117.564 -15.448 114.027C-19.3088 105.382 -25.9931 102.237 -35.504 104.594C-32.3552 103.629 -29.013 102.661 -25.476 101.691C-29.0388 93.6815 -34.7691 91.2622 -42.6668 94.4347C-37.2689 90.48 -31.5386 86.8518 -25.476 83.5501C-21.5994 80.1091 -18.2573 76.24 -15.448 71.9398C-12.7533 72.0792 -10.3667 71.8368 -8.28514 71.2142C-5.51025 72.9644 -3.12216 72.4812 -1.12229 69.7629C3.69544 69.5205 5.12801 67.3436 3.17542 63.2321C3.93325 60.9696 4.88877 58.7927 6.04056 56.7014C3.5178 54.1573 1.60819 51.2547 0.31028 47.9937C0.562412 44.0389 2.47346 41.6196 6.04056 40.7372C4.15673 42.4309 3.20264 44.6078 3.17542 47.268C5.35293 50.2098 7.26254 53.3547 8.9057 56.7014C7.99029 61.0189 7.274 65.3728 6.75685 69.7629C-7.01588 75.6929 -20.1482 82.7069 -32.6388 90.8065C-27.3856 96.3562 -22.1338 101.678 -16.8806 106.771C3.91607 108.296 21.5839 101.523 36.1245 86.4527C35.169 85.9694 34.2149 85.4847 33.2594 85.0014C43.455 86.489 53.483 85.5209 63.3434 82.0988C70.3386 78.8131 73.92 73.2489 74.0876 65.4091C74.5647 66.8603 75.0432 68.3116 75.5202 69.7629C81.8908 65.5716 84.2789 59.7665 82.6831 52.3475C82.2848 53.6769 81.5685 54.6434 80.5342 55.2501C83.0398 45.2319 83.7561 35.0729 82.6831 24.7731C80.6331 22.0679 78.9627 19.1654 77.6691 16.0654Z" fill="black"/>
<path fill-rule="evenodd" clip-rule="evenodd" d="M70.5061 62.5063C62.6055 62.782 56.3982 66.1693 51.8827 72.6653C52.4729 70.8047 51.5188 69.3535 49.0176 68.3114C53.4041 66.5815 57.7018 64.4046 61.9107 61.7807C65.0796 60.6356 67.9447 60.878 70.5061 62.5063Z" fill="black"/>
<path fill-rule="evenodd" clip-rule="evenodd" d="M12.4873 51.6216C14.8315 53.2048 19.5199 57.6901 21.0827 60.3293C17.4367 59.8021 13.0077 55.3152 12.4873 51.6216Z" fill="#030303"/>
<path d="M56.7941 -12.2173L56.7942 -12.2173L56.8112 -12.2149L56.8284 -12.2132L56.8285 -12.2132L56.8285 -12.2132L56.8294 -12.2131L56.8337 -12.2127L56.852 -12.2109L56.9266 -12.2033C56.9928 -12.1964 57.0915 -12.1859 57.2194 -12.1714C57.4753 -12.1426 57.848 -12.0982 58.312 -12.0363C59.2405 -11.9125 60.5319 -11.719 61.9822 -11.4407C64.9036 -10.8801 68.392 -9.98933 70.873 -8.66961C73.6843 -7.1742 76.4797 -5.39843 78.5628 -3.39663C80.6547 -1.38638 81.9337 0.758768 81.9337 3.00086C81.9337 5.49469 81.628 8.77576 81.3183 11.4538C81.1639 12.7885 81.0095 13.9654 80.8937 14.8086C80.8554 15.0879 80.8213 15.3305 80.7928 15.5299C80.7416 15.5304 80.6874 15.5309 80.6304 15.5314C80.1137 15.5359 79.3622 15.5401 78.4245 15.539C76.5489 15.5368 73.9295 15.5136 70.9552 15.4292C64.9965 15.2601 57.651 14.8463 52.0072 13.8745C46.7793 12.9742 40.8039 10.9987 36.1136 9.23624C33.7733 8.35684 31.7623 7.5341 30.3369 6.93142C29.6244 6.63013 29.0585 6.38398 28.6713 6.21342C28.5738 6.17046 28.4876 6.1323 28.4133 6.09926C28.39 5.99835 28.3627 5.87786 28.3323 5.74044C28.2331 5.29107 28.1022 4.66245 27.9758 3.94671C27.7203 2.49926 27.4942 0.754862 27.5615 -0.583714L27.5655 -0.661813C27.6302 -1.95032 27.6902 -3.14387 27.8701 -4.19438C28.0541 -5.26858 28.3498 -6.09848 28.8251 -6.67706C29.0274 -6.92325 29.5649 -7.32844 30.4582 -7.83933C31.3205 -8.33253 32.4314 -8.87873 33.6896 -9.42487C36.2076 -10.5178 39.2685 -11.5902 42.0266 -12.2291C44.7844 -12.8679 48.4561 -12.8743 51.488 -12.7089C52.9938 -12.6268 54.323 -12.5036 55.2755 -12.4009C55.7515 -12.3495 56.1329 -12.3034 56.3944 -12.2702C56.5252 -12.2536 56.626 -12.2403 56.6937 -12.2311L56.7699 -12.2207L56.7887 -12.2181L56.7931 -12.2175L56.794 -12.2173L56.7941 -12.2173Z" fill="#D9D9D9" stroke="black" stroke-width="1.5"/>
<path d="M27.7007 -5.78271C27.7007 -5.78271 40.6542 1.71824 53.6031 3.94896C69.5338 6.69337 82.563 5.26021 82.563 5.26021" stroke="#070707"/>
<path d="M33.0786 -3.30176C33.0786 -3.30176 31.5743 0.104809 31.1106 2.27777C30.6368 4.49779 30.765 7.76006 30.765 7.76006" stroke="black" stroke-width="0.5"/>
<path d="M38.5483 -0.746582C38.5483 -0.746582 37.0651 2.55923 36.6142 4.6708C36.1536 6.8281 36.3001 10.003 36.3001 10.003" stroke="black" stroke-width="0.5"/>
<path d="M44.1445 1.38916C44.1445 1.38916 42.676 4.62468 42.2341 6.69341C41.7826 8.80696 41.9418 11.9209 41.9418 11.9209" stroke="black" stroke-width="0.5"/>
<path d="M49.6753 3.22119C49.6753 3.22119 48.7308 6.07377 48.3012 8.08331C47.8624 10.1364 47.5355 13.4518 47.5355 13.4518" stroke="#0A0A0A" stroke-width="0.5"/>
<path d="M56.1187 4.35054C56.1187 4.35054 55.6304 7.44472 55.1904 9.50433C54.7408 11.6085 53.9257 14.8358 53.9257 14.8358" stroke="black" stroke-width="0.5"/>
<path d="M63.0854 5.12903C63.0854 5.12903 62.7813 8.20343 62.464 10.2563C62.14 12.3536 61.5175 15.5773 61.5175 15.5773" stroke="black" stroke-width="0.5"/>
<path d="M69.4084 5.85823C69.4084 5.85823 69.282 8.8294 69.0234 10.997C68.7781 13.0529 68.0917 16.0406 68.0917 16.0406" stroke="black" stroke-width="0.5"/>
<path d="M75.9524 5.62092C75.9524 5.62092 75.8504 8.46582 75.6099 10.5399C75.3819 12.5071 74.721 15.3631 74.721 15.3631" stroke="#060606" stroke-width="0.5"/>
</g>
<rect x="0.5" y="0.5" width="134" height="129" stroke="black"/>
<defs>
<clipPath id="clip0_565_18675">
<rect width="135" height="130" fill="white"/>
</clipPath>
</defs>
</svg>
