<svg width="135" height="130" viewBox="0 0 135 130" fill="none" xmlns="http://www.w3.org/2000/svg">
<g clip-path="url(#clip0_565_18825)">
<path d="M0 0H135V130H20C8.9543 130 0 121.046 0 110V0Z" fill="white"/>
<rect x="-18.5" y="-351.5" width="524" height="498" rx="18.5" fill="#FDFFEF" stroke="black" stroke-width="3"/>
<path fill-rule="evenodd" clip-rule="evenodd" d="M176.426 -22.5039C177.933 -22.7201 179.366 -22.4792 180.724 -21.7783C178.863 -17.2285 178.863 -12.6337 180.724 -7.99107C179.867 -6.11166 179.151 -4.1771 178.575 -2.18594C174.171 0.0940304 171.068 3.47987 169.263 7.97305C168.165 6.99779 167.209 5.78887 166.398 4.34484C169.977 0.792097 172.126 -3.31939 172.845 -7.99107C169.335 -1.04813 164.321 4.51464 157.803 8.69869C150.498 10.0484 143.335 11.9829 136.314 14.5038C142.002 14.0307 147.732 14.0307 153.505 14.5038C157.271 19.1465 156.794 23.5003 152.072 27.5654C147.47 28.5856 142.934 28.3433 138.463 26.8397C134.068 32.3822 128.577 33.8335 121.989 31.1936C115.641 34.816 109.194 34.816 102.649 31.1936C93.7411 35.8362 85.6227 34.8682 78.2951 28.291C77.5832 24.9386 77.3454 21.5527 77.5789 18.132C83.2303 19.8097 88.9606 20.5354 94.7697 20.309C98.5904 16.9231 98.5904 13.5358 94.7697 10.15C88.6168 8.84672 83.1258 6.18652 78.2951 2.16791C76.036 -4.47751 78.1848 -8.83136 84.7417 -10.8936C90.1812 -8.03896 95.4344 -4.89403 100.5 -1.4603C103.809 -0.739008 107.151 -0.498095 110.528 -0.734654C110.541 -3.35857 109.825 -5.77786 108.379 -7.99107C96.2782 -19.1137 97.95 -24.6765 113.393 -24.6808C119.89 -17.5724 125.143 -9.59039 129.151 -0.734654C130.713 -2.02775 130.713 -3.47903 129.151 -5.0885C139.459 -18.2923 152.829 -24.8231 169.263 -24.6808C171.822 -23.5416 173.971 -21.8494 175.71 -19.6013C176.375 -20.4634 176.614 -21.4314 176.426 -22.5039Z" fill="#DDB901"/>
<path fill-rule="evenodd" clip-rule="evenodd" d="M176.426 -22.5039C176.614 -21.4315 176.375 -20.4634 175.71 -19.6014C173.971 -21.8494 171.822 -23.5416 169.263 -24.6809C152.829 -24.8231 139.459 -18.2923 129.151 -5.08855C130.713 -3.47907 130.713 -2.02779 129.151 -0.734694C125.143 -9.59043 119.89 -17.5725 113.393 -24.6809C97.95 -24.6765 96.2782 -19.1138 108.379 -7.99111C109.825 -5.77791 110.541 -3.35862 110.528 -0.734694C107.151 -0.498135 103.809 -0.739048 100.5 -1.46034C95.4345 -4.89407 90.1812 -8.03901 84.7418 -10.8937C78.1849 -8.83141 76.036 -4.47755 78.2952 2.16787C83.1258 6.18648 88.6169 8.84668 94.7697 10.1499C98.5904 13.5358 98.5904 16.9231 94.7697 20.3089C88.9607 20.5353 83.2304 19.8097 77.5789 18.132C78.2408 16.1292 79.6733 15.1612 81.8766 15.2294C85.2188 16.1974 88.5624 17.164 91.9046 18.132C93.6767 18.0507 95.1093 17.3251 96.2023 15.9551C89.783 11.8465 83.3364 7.73355 76.8626 3.61916C75.4788 -1.63159 76.195 -6.46872 79.0115 -10.8937C80.8337 -11.6861 82.7447 -12.1694 84.7418 -12.345C91.6238 -10.4307 98.0704 -7.52815 104.081 -3.63726C104.798 -4.12054 105.514 -4.60527 106.23 -5.08855C104.43 -8.25089 102.281 -11.1535 99.7837 -13.7962C97.1578 -25.6489 101.693 -30.2436 113.393 -27.5834C120.542 -23.4836 125.316 -17.4361 127.719 -9.4424C134.253 -14.3942 140.46 -19.4737 146.342 -24.6809C145.861 -26.1757 144.905 -26.9013 143.477 -26.8578C147.518 -32.8487 149.667 -31.8807 149.924 -23.9552C151.383 -25.6779 153.055 -27.1292 154.938 -28.3091C158.463 -26.7098 162.045 -26.7098 165.682 -28.3091C170.013 -27.6894 173.594 -25.7534 176.426 -22.5039Z" fill="black"/>
<path fill-rule="evenodd" clip-rule="evenodd" d="M157.803 42.8037C156.884 44.2289 155.93 45.6802 154.938 47.1576C163.948 54.8784 171.59 63.5861 177.859 73.2807C176.352 73.4969 174.919 73.256 173.561 72.555C167.718 63.1231 160.555 54.8987 152.072 47.8832C146.342 46.9152 140.612 46.9152 134.882 47.8832C133.73 50.4534 132.058 52.6304 129.868 54.414C129.391 52.1688 130.107 50.2343 132.016 48.6088C131.496 47.6176 131.019 46.6496 130.584 45.7063C135.469 45.297 140.244 44.329 144.91 42.8037C149.581 45.641 153.879 45.641 157.803 42.8037Z" fill="black"/>
<path fill-rule="evenodd" clip-rule="evenodd" d="M130.584 45.7063C114.293 43.8545 107.846 51.1109 111.244 67.4756C114.215 70.3085 117.32 72.9687 120.556 75.4576C117.754 75.1354 115.126 73.9265 112.677 71.8294C111.721 76.1833 111.721 80.5371 112.677 84.891C118.079 91.577 125.002 95.4461 133.449 96.5012C136.314 97.4692 139.179 98.4358 142.044 99.4038C129.661 101.111 119.395 97.2399 111.244 87.7935C111.264 78.4298 110.069 68.9965 107.663 59.4935C109.217 46.2984 116.38 40.9766 129.151 43.5294C129.948 44.0852 130.425 44.8109 130.584 45.7063Z" fill="black"/>
<path fill-rule="evenodd" clip-rule="evenodd" d="M346.902 -113.935C347.379 -113.935 350.006 -113.935 350.483 -113.935C353.349 -109.581 353.646 -109.009 354.781 -105.227C354.979 -94.0389 355.218 -82.9119 355.497 -71.8474C350.73 -64.5953 345.954 -57.3389 341.172 -50.0781C331.022 -42.2441 319.799 -39.8262 307.506 -42.8217C294.036 -27.4134 277.083 -19.189 256.65 -18.1499C261.019 -14.6261 264.362 -10.2723 266.678 -5.0883C301.618 11.912 305.916 34.4069 279.571 62.3964C284.012 66.4484 286.4 71.5279 286.734 77.6349C284.968 83.0743 282.819 88.3947 280.287 93.599C272.656 101.075 265.256 101.075 258.083 93.599C264.297 97.3099 270.506 97.3099 276.706 93.599C278.48 89.727 278.48 85.8578 276.706 81.9887C277.183 81.5054 277.662 81.0207 278.139 80.5374C281.385 86.4688 283.294 85.9856 283.869 79.0862C283.256 73.1069 281.107 67.785 277.422 63.122C266.088 69.1202 254.867 68.8778 243.757 62.3964C242.024 60.8885 240.591 59.1948 239.459 57.3169C252.232 67.8793 265.604 68.605 279.571 59.4938C282.071 57.0382 282.548 54.378 281.004 51.5118C267.081 55.5841 254.904 52.6815 244.473 42.8041C243.21 33.4404 239.389 31.9891 233.013 38.4502C232.305 40.8216 232.067 43.2409 232.296 45.7066C231.147 43.5994 230.431 41.1815 230.148 38.4502C228.699 39.6649 227.027 40.1482 225.134 39.9015C225.473 41.7751 224.996 43.2264 223.701 44.2553C222.194 41.7069 219.806 40.7389 216.538 41.3528C214.596 51.8354 210.298 61.2687 203.645 69.6528C205.742 80.893 201.923 89.6007 192.184 95.7759C189.404 96.8542 186.778 96.6119 184.305 95.0503C182.357 109.106 174.478 114.67 160.668 111.74C153.883 108.954 148.153 104.842 143.477 99.4041C149.992 101.736 156.2 104.881 162.1 108.837C170.67 110.345 177.117 107.202 181.44 99.4041C182.506 94.5118 181.79 89.9171 179.291 85.6169C181.486 84.601 182.919 82.9088 183.589 80.5374C181.645 78.0906 179.735 75.6727 177.859 73.281C182.572 75.1517 185.914 78.539 187.887 83.44C187.259 84.9 186.305 84.9 185.022 83.44C183.626 86.6952 183.148 90.0811 183.589 93.599C187.951 93.8283 192.011 92.8603 195.766 90.6964C199.122 85.347 201.271 79.5419 202.212 73.281C196.32 62.7157 188.203 54.2489 177.859 47.8835C171.626 44.37 164.941 42.6763 157.803 42.8041C158.818 41.4921 160.251 41.0088 162.1 41.3528C164.165 35.2371 167.03 29.4319 170.696 23.9374C167.47 19.1133 165.321 13.7914 164.249 7.97325C161.623 9.6669 158.996 11.3591 156.37 13.0527C160.735 22.5064 157.393 29.0372 146.342 32.6451C143.801 32.0834 141.413 31.1169 139.179 29.7425C134.899 35.0571 129.647 36.5084 123.421 34.0964C120.403 35.7465 117.3 37.1977 114.109 38.4502C110.585 36.8567 107.004 35.4054 103.365 34.0964C95.1349 38.0743 87.0166 37.832 79.0114 33.3707C74.0747 28.5205 73.5977 23.441 77.5788 18.1322C77.3453 21.5529 77.5831 24.9388 78.2951 28.2912C85.6227 34.8684 93.7411 35.8364 102.649 31.1938C109.194 34.8162 115.641 34.8162 121.988 31.1938C128.577 33.8337 134.068 32.3824 138.463 26.8399C142.934 28.3435 147.47 28.5858 152.072 27.5656C156.794 23.5005 157.271 19.1467 153.505 14.504C147.732 14.0309 142.001 14.0309 136.314 14.504C143.335 11.9831 150.498 10.0486 157.803 8.69889C164.321 4.51484 169.335 -1.04793 172.845 -7.99087C172.126 -3.31919 169.977 0.792301 166.398 4.34504C167.209 5.78907 168.165 6.99799 169.263 7.97325C168.547 13.5883 169.98 18.9101 173.561 23.9374C171.117 30.1053 167.775 35.6681 163.533 40.6271C180.149 44.4121 193.282 53.3607 202.929 67.4759C207.951 58.7508 212.01 49.5598 215.106 39.9015C226.479 38.6432 236.507 34.2894 245.189 26.8399C248.58 30.9717 252.878 33.6319 258.083 34.822C256.173 35.79 254.262 35.79 252.352 34.822C242.263 27.6236 240.114 29.8006 245.906 41.3528C255.541 50.8964 266.763 53.5566 279.571 49.3348C291.679 44.5311 296.215 35.581 293.181 22.4861C286.367 10.4535 276.577 1.98816 263.813 -2.91137C262.453 -7.83993 259.827 -11.9514 255.934 -15.2473C254.464 -11.2722 252.315 -7.88637 249.487 -5.0883C250.49 -8.80794 251.923 -12.4361 253.785 -15.9729C249.924 -24.6182 243.24 -27.7632 233.729 -25.4063C236.878 -26.3714 240.22 -27.3394 243.757 -28.3089C240.194 -36.3185 234.464 -38.7378 226.566 -35.5653C231.964 -39.52 237.694 -43.1482 243.757 -46.4499C247.633 -49.8909 250.976 -53.76 253.785 -58.0602C256.48 -57.9208 258.866 -58.1632 260.948 -58.7858C263.723 -57.0356 266.111 -57.5188 268.111 -60.2371C272.928 -60.4795 274.361 -62.6564 272.408 -66.7679C273.166 -69.0304 274.122 -71.2073 275.273 -73.2986C272.751 -75.8427 270.841 -78.7453 269.543 -82.0063C269.795 -85.9611 271.706 -88.3804 275.273 -89.2628C273.39 -87.5691 272.436 -85.3922 272.408 -82.732C274.586 -79.7902 276.495 -76.6453 278.139 -73.2986C277.223 -68.9811 276.507 -64.6272 275.99 -60.2371C262.217 -54.3071 249.085 -47.2931 236.594 -39.1935C241.847 -33.6438 247.099 -28.3219 252.352 -23.2294C273.149 -21.7041 290.817 -28.4772 305.357 -43.5473C304.402 -44.0306 303.448 -44.5153 302.492 -44.9986C312.688 -43.511 322.716 -44.4791 332.576 -47.9012C339.571 -51.1869 343.153 -56.7511 343.321 -64.5909C343.798 -63.1397 344.276 -61.6884 344.753 -60.2371C351.124 -64.4284 353.512 -70.2335 351.916 -77.6525C351.518 -76.3231 350.801 -75.3566 349.767 -74.7499C352.273 -84.7681 352.989 -94.9271 351.916 -105.227C349.866 -107.932 348.196 -110.835 346.902 -113.935Z" fill="black"/>
<path fill-rule="evenodd" clip-rule="evenodd" d="M133.449 96.5011C137.299 96.2631 141.119 96.5054 144.91 97.2267C144.113 97.7825 143.636 98.5082 143.477 99.4036C143 99.4036 142.522 99.4036 142.045 99.4036C139.179 98.4356 136.314 97.4691 133.449 96.5011Z" fill="#635309"/>
<path fill-rule="evenodd" clip-rule="evenodd" d="M130.584 45.7067C131.02 46.65 131.497 47.618 132.017 48.6093C130.107 50.2347 129.391 52.1693 129.868 54.4144C132.058 52.6308 133.73 50.4538 134.882 47.8836C140.612 46.9156 146.342 46.9156 152.073 47.8836C160.555 54.8991 167.718 63.1235 173.561 72.5554C174.919 73.2564 176.352 73.4973 177.859 73.2811C179.736 75.6728 181.645 78.0906 183.589 80.5375C182.919 82.9089 181.486 84.6011 179.291 85.617C181.79 89.9171 182.506 94.5119 181.44 99.4042C177.117 107.202 170.67 110.345 162.101 108.838C156.2 104.881 149.993 101.736 143.477 99.4042C143.636 98.5087 144.113 97.7831 144.91 97.2273C141.119 96.506 137.299 96.2636 133.449 96.5016C125.003 95.4465 118.079 91.5774 112.677 84.8913C111.721 80.5375 111.721 76.1836 112.677 71.8298C115.127 73.9269 117.754 75.1358 120.556 75.458C117.32 72.9691 114.216 70.3089 111.244 67.4759C107.846 51.1113 114.293 43.8549 130.584 45.7067Z" fill="#DAB703"/>
<path fill-rule="evenodd" clip-rule="evenodd" d="M150.64 76.1832C157.702 80.675 163.672 86.4801 168.547 93.5986C169.119 93.2678 169.356 92.783 169.263 92.1474C172.409 98.8799 170.26 103.234 162.817 105.209C157.922 102.57 152.908 99.1832 147.775 95.0499C146.444 93.8671 145.011 92.6582 143.477 91.4217C144.91 90.9384 146.342 90.4537 147.775 89.9704C145.755 89.4364 144.322 88.2274 143.477 86.3422C144.991 85.753 146.902 85.753 149.207 86.3422C147.581 83.8562 145.193 82.8882 142.044 83.4397C141.543 87.1274 141.543 90.5132 142.044 93.5986C139.062 93.4187 136.913 91.9674 135.598 89.2448C134.642 90.2128 133.688 91.1794 132.733 92.1474C130.08 89.1592 128.409 86.0142 127.719 82.714C129.689 79.1192 132.316 77.9088 135.598 79.0858C139.98 73.063 144.994 72.0964 150.64 76.1832Z" fill="#9A880C"/>
</g>
<path d="M0.5 0.5H134.5V129.5H20C9.23044 129.5 0.5 120.77 0.5 110V0.5Z" stroke="black"/>
<defs>
<clipPath id="clip0_565_18825">
<path d="M0 0H135V130H20C8.9543 130 0 121.046 0 110V0Z" fill="white"/>
</clipPath>
</defs>
</svg>
