<svg width="135" height="130" viewBox="0 0 135 130" fill="none" xmlns="http://www.w3.org/2000/svg">
<g clip-path="url(#clip0_565_18824)">
<rect width="135" height="130" fill="white"/>
<rect x="-194.5" y="-351.5" width="524" height="498" rx="18.5" fill="#FDFFEF" stroke="black" stroke-width="3"/>
<path fill-rule="evenodd" clip-rule="evenodd" d="M94.4314 -6.53964C100.328 -1.42967 106.537 -0.944938 113.055 -5.08835C113.532 -5.08835 114.01 -5.08835 114.487 -5.08835C117.315 -7.88643 119.464 -11.2723 120.934 -15.2473C124.828 -11.9515 127.454 -7.83999 128.813 -2.91143C141.577 1.98811 151.367 10.4534 158.181 22.486C161.215 35.581 156.679 44.531 144.571 49.3348C131.763 53.5566 120.541 50.8964 110.906 41.3527C105.114 29.8005 107.263 27.6236 117.353 34.8219C119.262 35.7899 121.173 35.7899 123.083 34.8219C117.878 33.6319 113.581 30.9717 110.19 26.8399C101.507 34.2893 91.4789 38.6432 80.1057 39.9014C77.0099 49.5597 72.9515 58.7507 67.9289 67.4758C58.282 53.3606 45.1496 44.412 28.5332 40.6271C32.775 35.668 36.1172 30.1053 38.5612 23.9373C34.9798 18.9101 33.5472 13.5882 34.2635 7.9732C37.1358 5.31154 40.2402 2.89225 43.5752 0.716781C46.0163 3.43503 48.6422 5.85432 51.4543 7.9732C53.0645 9.87293 55.2134 10.8395 57.9009 10.8758C63.0094 10.7655 67.0693 8.82945 70.0777 5.07063C72.1865 2.72391 73.142 -0.178661 72.9429 -3.63707C73.0274 -7.42347 72.0719 -10.8108 70.0777 -13.7961C77.1117 -15.7103 84.2745 -17.1616 91.5663 -18.1499C91.009 -13.7191 91.9631 -9.84856 94.4314 -6.53964Z" fill="#0182C7"/>
<path fill-rule="evenodd" clip-rule="evenodd" d="M70.0774 -13.7962C72.0716 -10.811 73.0271 -7.42366 72.9426 -3.63726C73.1417 -0.17885 72.1862 2.72372 70.0774 5.07044C72.5128 -12.7441 65.3499 -18.0659 48.5889 -10.8937C52.4453 -14.7846 57.2201 -16.7191 62.9146 -16.6988C62.9146 -19.1181 62.9146 -21.5359 62.9146 -23.9552C60.5265 -23.9552 58.1398 -23.9552 55.7517 -23.9552C58.253 -24.9973 59.2071 -26.4485 58.6169 -28.3091C60.3359 -26.8128 62.247 -25.6024 64.3471 -24.6809C79.541 -23.9378 79.541 -22.7289 64.3471 -21.0527C65.2038 -19.1733 65.9201 -17.2387 66.496 -15.2475C67.4572 -14.1562 68.6506 -13.6714 70.0774 -13.7962Z" fill="black"/>
<path fill-rule="evenodd" clip-rule="evenodd" d="M70.0773 5.07014C64.1522 7.51265 57.9449 8.48066 51.4539 7.97271C49.5687 4.60283 47.659 1.21553 45.7236 -2.18627C46.407 -5.22962 47.3611 -8.13218 48.5888 -10.894C65.3498 -18.0662 72.5127 -12.7444 70.0773 5.07014Z" fill="#F0EE03"/>
<path fill-rule="evenodd" clip-rule="evenodd" d="M41.4262 -22.5039C42.9332 -22.7201 44.3658 -22.4792 45.7239 -21.7783C43.863 -17.2285 43.863 -12.6337 45.7239 -7.99107C44.8672 -6.11166 44.1509 -4.1771 43.575 -2.18594C39.1713 0.0940304 36.0684 3.47987 34.2633 7.97305C33.1646 6.99779 32.209 5.78887 31.3982 4.34484C34.9768 0.792097 37.1256 -3.31939 37.8448 -7.99107C34.335 -1.04813 29.321 4.51464 22.8028 8.69869C15.4981 10.0484 8.33525 11.9829 1.31423 14.5038C7.00153 14.0307 12.7318 14.0307 18.5051 14.5038C22.2713 19.1465 21.7942 23.5003 17.0725 27.5654C12.4697 28.5856 7.93414 28.3433 3.46308 26.8397C-0.93204 32.3822 -6.42308 33.8335 -13.0115 31.1936C-19.3592 34.816 -25.8058 34.816 -32.3512 31.1936C-41.2589 35.8362 -49.3773 34.8682 -56.7049 28.291C-57.4168 24.9386 -57.6546 21.5527 -57.4211 18.132C-51.7697 19.8097 -46.0394 20.5354 -40.2303 20.309C-36.4096 16.9231 -36.4096 13.5358 -40.2303 10.15C-46.3832 8.84672 -51.8742 6.18652 -56.7049 2.16791C-58.964 -4.47751 -56.8152 -8.83136 -50.2583 -10.8936C-44.8188 -8.03896 -39.5656 -4.89403 -34.5 -1.4603C-31.1908 -0.739008 -27.8486 -0.498095 -24.472 -0.734654C-24.4591 -3.35857 -25.1754 -5.77786 -26.6209 -7.99107C-38.7218 -19.1137 -37.05 -24.6765 -21.6069 -24.6808C-15.1102 -17.5724 -9.85695 -9.59039 -5.84862 -0.734654C-4.28712 -2.02775 -4.28712 -3.47903 -5.84862 -5.0885C4.45872 -18.2923 17.8289 -24.8231 34.2633 -24.6808C36.8219 -23.5416 38.9708 -21.8494 40.7099 -19.6013C41.3746 -20.4634 41.6139 -21.4314 41.4262 -22.5039Z" fill="#DDB901"/>
<path fill-rule="evenodd" clip-rule="evenodd" d="M41.426 -22.504C45.9028 -23.9248 50.6776 -24.4095 55.7517 -23.9553C53.2232 -22.5606 50.3581 -22.0758 47.1563 -22.504C46.7179 -18.317 47.195 -14.4464 48.5889 -10.8937C47.3612 -8.13191 46.4071 -5.22935 45.7237 -2.186C47.6591 1.2158 49.5688 4.6031 51.454 7.97298C48.6419 5.85411 46.016 3.43482 43.5749 0.716563C40.2399 2.89204 37.1355 5.31133 34.2632 7.97298C36.0682 3.47981 39.1712 0.0939621 43.5749 -2.186C44.1508 -4.17717 44.8671 -6.11173 45.7237 -7.99114C43.8628 -12.6338 43.8628 -17.2286 45.7237 -21.7783C44.3657 -22.4793 42.9331 -22.7202 41.426 -22.504Z" fill="black"/>
<path fill-rule="evenodd" clip-rule="evenodd" d="M41.4262 -22.5039C41.6139 -21.4315 41.3747 -20.4634 40.7099 -19.6014C38.9708 -21.8494 36.8219 -23.5416 34.2634 -24.6809C17.8289 -24.8231 4.45876 -18.2923 -5.84858 -5.08855C-4.28708 -3.47907 -4.28708 -2.02779 -5.84858 -0.734694C-9.85691 -9.59043 -15.1101 -17.5725 -21.6068 -24.6809C-37.05 -24.6765 -38.7218 -19.1138 -26.6208 -7.99111C-25.1754 -5.77791 -24.4591 -3.35862 -24.472 -0.734694C-27.8486 -0.498135 -31.1907 -0.739048 -34.5 -1.46034C-39.5655 -4.89407 -44.8188 -8.03901 -50.2582 -10.8937C-56.8151 -8.83141 -58.964 -4.47755 -56.7048 2.16787C-51.8742 6.18648 -46.3831 8.84668 -40.2303 10.1499C-36.4096 13.5358 -36.4096 16.9231 -40.2303 20.3089C-46.0393 20.5353 -51.7696 19.8097 -57.4211 18.132C-56.7592 16.1292 -55.3267 15.1612 -53.1234 15.2294C-49.7812 16.1974 -46.4376 17.164 -43.0954 18.132C-41.3233 18.0507 -39.8907 17.3251 -38.7977 15.9551C-45.217 11.8465 -51.6636 7.73355 -58.1374 3.61916C-59.5212 -1.63159 -58.805 -6.46872 -55.9885 -10.8937C-54.1663 -11.6861 -52.2553 -12.1694 -50.2582 -12.345C-43.3762 -10.4307 -36.9296 -7.52815 -30.9186 -3.63726C-30.2023 -4.12054 -29.486 -4.60527 -28.7697 -5.08855C-30.5704 -8.25089 -32.7193 -11.1535 -35.2163 -13.7962C-37.8422 -25.6489 -33.3066 -30.2436 -21.6068 -27.5834C-14.4583 -23.4836 -9.68357 -17.4361 -7.28115 -9.4424C-0.747202 -14.3942 5.46012 -19.4737 11.3423 -24.6809C10.8609 -26.1757 9.90539 -26.9013 8.47712 -26.8578C12.5184 -32.8487 14.6672 -31.8807 14.9237 -23.9552C16.3835 -25.6779 18.0553 -27.1292 19.9377 -28.3091C23.4632 -26.7098 27.0447 -26.7098 30.6819 -28.3091C35.0126 -27.6894 38.594 -25.7534 41.4262 -22.5039Z" fill="black"/>
<path fill-rule="evenodd" clip-rule="evenodd" d="M22.8026 42.8041C29.9411 42.6764 36.6255 44.37 42.8586 47.8836C53.2032 54.2489 61.3201 62.7157 67.2123 73.281C66.2711 79.5419 64.1223 85.347 60.7657 90.6964C57.011 92.8603 52.9511 93.8283 48.5889 93.599C48.1477 90.0811 48.6261 86.6952 50.0215 83.44C51.305 84.9 52.2591 84.9 52.8866 83.44C50.914 78.539 47.5718 75.1517 42.8586 73.281C36.5897 63.5865 28.9484 54.8788 19.9375 47.1579C20.9303 45.6805 21.8844 44.2292 22.8026 42.8041Z" fill="#0281C6"/>
<path fill-rule="evenodd" clip-rule="evenodd" d="M22.8028 42.8037C21.8845 44.2289 20.9304 45.6802 19.9376 47.1576C28.9485 54.8784 36.5898 63.5861 42.8587 73.2807C41.3517 73.4969 39.9191 73.256 38.561 72.555C32.7176 63.1231 25.5547 54.8987 17.0725 47.8832C11.3422 46.9152 5.61191 46.9152 -0.118368 47.8832C-1.27015 50.4534 -2.94196 52.6304 -5.13236 54.414C-5.60941 52.1688 -4.89312 50.2343 -2.98351 48.6088C-3.50353 47.6176 -3.98058 46.6496 -4.41608 45.7063C0.468986 45.297 5.24374 44.329 9.90962 42.8037C14.5812 45.641 18.8789 45.641 22.8028 42.8037Z" fill="black"/>
<path fill-rule="evenodd" clip-rule="evenodd" d="M-4.41628 45.7063C-20.7075 43.8545 -27.154 51.1109 -23.756 67.4756C-20.7848 70.3085 -17.6804 72.9687 -14.4443 75.4576C-17.2464 75.1354 -19.8737 73.9265 -22.3234 71.8294C-23.2789 76.1833 -23.2789 80.5371 -22.3234 84.891C-16.9212 91.577 -9.99757 95.4461 -1.55114 96.5012C1.314 97.4692 4.17914 98.4358 7.04428 99.4038C-5.33886 101.111 -15.6047 97.2399 -23.756 87.7935C-23.7359 78.4298 -24.9307 68.9965 -27.3374 59.4935C-25.7831 46.2984 -18.6202 40.9766 -5.84885 43.5294C-5.05234 44.0852 -4.5753 44.8109 -4.41628 45.7063Z" fill="black"/>
<path fill-rule="evenodd" clip-rule="evenodd" d="M211.902 -113.935C212.379 -113.935 215.006 -113.935 215.483 -113.935C218.349 -109.581 218.646 -109.009 219.781 -105.227C219.979 -94.0389 220.218 -82.9119 220.497 -71.8474C215.73 -64.5953 210.954 -57.3389 206.172 -50.0781C196.022 -42.2441 184.799 -39.8262 172.506 -42.8217C159.036 -27.4134 142.083 -19.189 121.65 -18.1499C126.019 -14.6261 129.362 -10.2723 131.678 -5.0883C166.618 11.912 170.916 34.4069 144.571 62.3964C149.012 66.4484 151.4 71.5279 151.734 77.6349C149.968 83.0743 147.819 88.3947 145.287 93.599C137.656 101.075 130.256 101.075 123.083 93.599C129.297 97.3099 135.506 97.3099 141.706 93.599C143.48 89.727 143.48 85.8578 141.706 81.9887C142.183 81.5054 142.662 81.0207 143.139 80.5374C146.385 86.4688 148.294 85.9856 148.869 79.0862C148.256 73.1069 146.107 67.785 142.422 63.122C131.088 69.1202 119.867 68.8778 108.757 62.3964C107.024 60.8885 105.591 59.1948 104.459 57.3169C117.232 67.8793 130.604 68.605 144.571 59.4938C147.071 57.0382 147.548 54.378 146.004 51.5118C132.081 55.5841 119.904 52.6815 109.473 42.8041C108.21 33.4404 104.389 31.9891 98.0127 38.4502C97.305 40.8216 97.0672 43.2409 97.2964 45.7066C96.1474 43.5994 95.4312 41.1815 95.1475 38.4502C93.6992 39.6649 92.0274 40.1482 90.1335 39.9015C90.473 41.7751 89.996 43.2264 88.7009 44.2553C87.1939 41.7069 84.8058 40.7389 81.5381 41.3528C79.5955 51.8354 75.2978 61.2687 68.645 69.6528C70.7422 80.893 66.923 89.6007 57.1844 95.7759C54.4038 96.8542 51.7779 96.6119 49.3053 95.0503C47.357 109.106 39.4778 114.67 25.6679 111.74C18.8832 108.954 13.1529 104.842 8.47703 99.4041C14.9924 101.736 21.1997 104.881 27.1004 108.837C35.6701 110.345 42.1166 107.202 46.4401 99.4041C47.506 94.5118 46.7897 89.9171 44.2913 85.6169C46.486 84.601 47.9185 82.9088 48.589 80.5374C46.645 78.0906 44.7354 75.6727 42.8587 73.281C47.5719 75.1517 50.914 78.539 52.8867 83.44C52.2592 84.9 51.3051 84.9 50.0216 83.44C48.6262 86.6952 48.1478 90.0811 48.589 93.599C52.9512 93.8283 57.0111 92.8603 60.7658 90.6964C64.1223 85.347 66.2712 79.5419 67.2124 73.281C61.3202 62.7157 53.2033 54.2489 42.8587 47.8835C36.6256 44.37 29.9412 42.6763 22.8027 42.8041C23.8184 41.4921 25.251 41.0088 27.1004 41.3528C29.1648 35.2371 32.0299 29.4319 35.6959 23.9374C32.4697 19.1133 30.3209 13.7914 29.2493 7.97325C26.6234 9.6669 23.9961 11.3591 21.3702 13.0527C25.7352 22.5064 22.393 29.0372 11.3422 32.6451C8.80079 32.0834 6.41269 31.1169 4.17932 29.7425C-0.101203 35.0571 -5.353 36.5084 -11.579 34.0964C-14.5974 35.7465 -17.7003 37.1977 -20.8907 38.4502C-24.4148 36.8567 -27.9962 35.4054 -31.6349 34.0964C-39.8651 38.0743 -47.9834 37.832 -55.9886 33.3707C-60.9253 28.5205 -61.4023 23.441 -57.4212 18.1322C-57.6547 21.5529 -57.4169 24.9388 -56.7049 28.2912C-49.3773 34.8684 -41.2589 35.8364 -32.3512 31.1938C-25.8058 34.8162 -19.3592 34.8162 -13.0115 31.1938C-6.42313 33.8337 -0.932093 32.3824 3.46303 26.8399C7.93408 28.3435 12.4696 28.5858 17.0724 27.5656C21.7942 23.5005 22.2712 19.1467 18.505 14.504C12.7318 14.0309 7.00148 14.0309 1.31418 14.504C8.3352 11.9831 15.4981 10.0486 22.8027 8.69889C29.3209 4.51484 34.3349 -1.04793 37.8447 -7.99087C37.1256 -3.31919 34.9767 0.792301 31.3981 4.34504C32.209 5.78907 33.1645 6.99799 34.2633 7.97325C33.547 13.5883 34.9796 18.9101 38.561 23.9374C36.117 30.1053 32.7748 35.6681 28.533 40.6271C45.1494 44.4121 58.2818 53.3607 67.9287 67.4759C72.9513 58.7508 77.0097 49.5598 80.1055 39.9015C91.4787 38.6432 101.507 34.2894 110.189 26.8399C113.58 30.9717 117.878 33.6319 123.083 34.822C121.173 35.79 119.262 35.79 117.352 34.822C107.263 27.6236 105.114 29.8006 110.906 41.3528C120.541 50.8964 131.763 53.5566 144.571 49.3348C156.679 44.5311 161.215 35.581 158.181 22.4861C151.367 10.4535 141.577 1.98816 128.813 -2.91137C127.453 -7.83993 124.827 -11.9514 120.934 -15.2473C119.464 -11.2722 117.315 -7.88637 114.487 -5.0883C115.49 -8.80794 116.923 -12.4361 118.785 -15.9729C114.924 -24.6182 108.24 -27.7632 98.7289 -25.4063C101.878 -26.3714 105.22 -27.3394 108.757 -28.3089C105.194 -36.3185 99.4638 -38.7378 91.5661 -35.5653C96.964 -39.52 102.694 -43.1482 108.757 -46.4499C112.633 -49.8909 115.976 -53.76 118.785 -58.0602C121.48 -57.9208 123.866 -58.1632 125.948 -58.7858C128.723 -57.0356 131.111 -57.5188 133.111 -60.2371C137.928 -60.4795 139.361 -62.6564 137.408 -66.7679C138.166 -69.0304 139.122 -71.2073 140.273 -73.2986C137.751 -75.8427 135.841 -78.7453 134.543 -82.0063C134.795 -85.9611 136.706 -88.3804 140.273 -89.2628C138.39 -87.5691 137.436 -85.3922 137.408 -82.732C139.586 -79.7902 141.495 -76.6453 143.139 -73.2986C142.223 -68.9811 141.507 -64.6272 140.99 -60.2371C127.217 -54.3071 114.085 -47.2931 101.594 -39.1935C106.847 -33.6438 112.099 -28.3219 117.352 -23.2294C138.149 -21.7041 155.817 -28.4772 170.357 -43.5473C169.402 -44.0306 168.448 -44.5153 167.492 -44.9986C177.688 -43.511 187.716 -44.4791 197.576 -47.9012C204.571 -51.1869 208.153 -56.7511 208.321 -64.5909C208.798 -63.1397 209.276 -61.6884 209.753 -60.2371C216.124 -64.4284 218.512 -70.2335 216.916 -77.6525C216.518 -76.3231 215.801 -75.3566 214.767 -74.7499C217.273 -84.7681 217.989 -94.9271 216.916 -105.227C214.866 -107.932 213.196 -110.835 211.902 -113.935Z" fill="black"/>
<path fill-rule="evenodd" clip-rule="evenodd" d="M88.7009 44.2549C85.7054 63.0882 91.9128 77.8419 107.324 88.519C113.122 91.5275 118.613 91.2866 123.799 87.7934C124.078 89.7076 123.839 91.6436 123.083 93.5985C104.115 93.7756 91.9386 84.5832 86.5521 66.0241C85.5966 60.219 85.5966 54.4139 86.5521 48.6087C86.8844 46.8135 87.6007 45.3622 88.7009 44.2549Z" fill="black"/>
<path fill-rule="evenodd" clip-rule="evenodd" d="M97.2964 45.7066C97.5844 50.9748 99.9725 54.8453 104.459 57.3169C105.591 59.1948 107.024 60.8885 108.757 62.3964C119.867 68.8778 131.088 69.1202 142.422 63.122C146.107 67.785 148.256 73.1068 148.869 79.0861C148.294 85.9855 146.385 86.4688 143.139 80.5374C142.662 81.0207 142.183 81.5054 141.706 81.9887C143.48 85.8578 143.48 89.7269 141.706 93.599C135.506 97.3099 129.297 97.3099 123.083 93.599C123.839 91.6441 124.078 89.7081 123.799 87.7938C118.613 91.2871 113.122 91.528 107.324 88.5195C91.9128 77.8424 85.7055 63.0886 88.701 44.2553C89.996 43.2264 90.4731 41.7751 90.1336 39.9015C92.0274 40.1482 93.6992 39.6649 95.1476 38.4502C95.4312 41.1815 96.1475 43.5993 97.2964 45.7066Z" fill="#DDB902"/>
<path fill-rule="evenodd" clip-rule="evenodd" d="M104.459 57.3169C99.9723 54.8453 97.5842 50.9748 97.2962 45.7066C97.067 43.2409 97.3048 40.8216 98.0125 38.4502C104.389 31.9891 108.21 33.4404 109.473 42.804C119.904 52.6815 132.08 55.584 146.004 51.5117C147.548 54.378 147.071 57.0382 144.571 59.4938C130.603 68.605 117.232 67.8793 104.459 57.3169Z" fill="#097DBF"/>
<path fill-rule="evenodd" clip-rule="evenodd" d="M70.0775 5.07031C67.0691 8.82914 63.0092 10.7651 57.9007 10.8754C55.2132 10.8392 53.0643 9.87261 51.4541 7.97288C57.9451 8.48083 64.1524 7.51282 70.0775 5.07031Z" fill="#181F1F"/>
<path fill-rule="evenodd" clip-rule="evenodd" d="M-1.55078 96.5011C2.29853 96.2631 6.1192 96.5054 9.90978 97.2267C9.11327 97.7825 8.63622 98.5082 8.47721 99.4036C8.00016 99.4036 7.52169 99.4036 7.04464 99.4036C4.1795 98.4356 1.31436 97.4691 -1.55078 96.5011Z" fill="#635309"/>
<path fill-rule="evenodd" clip-rule="evenodd" d="M-4.41588 45.7067C-3.98038 46.65 -3.50333 47.618 -2.98331 48.6093C-4.89293 50.2347 -5.60921 52.1693 -5.13217 54.4144C-2.94177 52.6308 -1.26996 50.4538 -0.118172 47.8836C5.61211 46.9156 11.3424 46.9156 17.0727 47.8836C25.5549 54.8991 32.7178 63.1235 38.5612 72.5554C39.9193 73.2564 41.3519 73.4973 42.8589 73.2811C44.7356 75.6728 46.6452 78.0906 48.5892 80.5375C47.9188 82.9089 46.4862 84.6011 44.2915 85.617C46.7899 89.9171 47.5062 94.5119 46.4404 99.4042C42.1169 107.202 35.6703 110.345 27.1007 108.838C21.1999 104.881 14.9926 101.736 8.47725 99.4042C8.63626 98.5087 9.11331 97.7831 9.90982 97.2273C6.11924 96.506 2.29857 96.2636 -1.55074 96.5016C-9.99717 95.4465 -16.9208 91.5774 -22.323 84.8913C-23.2785 80.5375 -23.2785 76.1836 -22.323 71.8298C-19.8733 73.9269 -17.246 75.1358 -14.4439 75.458C-17.68 72.9691 -20.7844 70.3089 -23.7556 67.4759C-27.1536 51.1113 -20.7071 43.8549 -4.41588 45.7067Z" fill="#DAB703"/>
<path fill-rule="evenodd" clip-rule="evenodd" d="M14.2074 86.3422C11.9024 85.753 9.9913 85.753 8.47708 86.3422C9.32229 88.2275 10.7549 89.4364 12.7748 89.9705C11.3422 90.4537 9.90965 90.9385 8.47708 91.4217C10.0114 92.6582 11.4439 93.8671 12.7748 95.0499C10.6847 95.1472 8.77505 94.6639 7.04451 93.5987C6.54311 90.5132 6.54311 87.1274 7.04451 83.4397C10.1933 82.8882 12.5814 83.8562 14.2074 86.3422Z" fill="#50440F"/>
<path fill-rule="evenodd" clip-rule="evenodd" d="M15.6396 76.1831C23.9815 78.8201 30.1903 84.1419 34.2631 92.1472C34.3562 92.7829 34.1184 93.2676 33.5468 93.5985C28.6717 86.48 22.7022 80.6748 15.6396 76.1831Z" fill="#221D0C"/>
<path fill-rule="evenodd" clip-rule="evenodd" d="M15.6399 76.1832C22.7024 80.675 28.672 86.4801 33.547 93.5986C34.1186 93.2678 34.3564 92.783 34.2633 92.1474C37.4092 98.8799 35.2603 103.234 27.8167 105.209C22.9216 102.57 17.9076 99.1832 12.7747 95.0499C11.4439 93.8671 10.0113 92.6582 8.47702 91.4217C9.90959 90.9384 11.3422 90.4537 12.7747 89.9704C10.7548 89.4364 9.32224 88.2274 8.47702 86.3422C9.99125 85.753 11.9023 85.753 14.2073 86.3422C12.5813 83.8562 10.1932 82.8882 7.04445 83.4397C6.54305 87.1274 6.54305 90.5132 7.04445 93.5986C4.06184 93.4187 1.91298 91.9674 0.597885 89.2448C-0.357639 90.2128 -1.31173 91.1794 -2.26726 92.1474C-4.92037 89.1592 -6.59075 86.0142 -7.28125 82.714C-5.31147 79.1192 -2.68413 77.9088 0.597885 79.0858C4.98012 73.063 9.99411 72.0964 15.6399 76.1832Z" fill="#9A880C"/>
<path fill-rule="evenodd" clip-rule="evenodd" d="M14.2075 86.3424C16.0512 87.8343 17.723 87.351 19.2215 84.8911C22.3116 86.1755 23.5049 88.5948 22.8029 92.1475C18.3505 92.3289 15.4854 90.3944 14.2075 86.3424Z" fill="#42380D"/>
<path fill-rule="evenodd" clip-rule="evenodd" d="M18.505 86.3423C20.7756 87.0708 21.4919 88.5221 20.6538 90.6961C19.1654 89.6164 18.4491 88.1651 18.505 86.3423Z" fill="#DFBF09"/>
</g>
<rect x="0.5" y="0.5" width="134" height="129" stroke="black"/>
<defs>
<clipPath id="clip0_565_18824">
<rect width="135" height="130" fill="white"/>
</clipPath>
</defs>
</svg>
