<svg width="135" height="130" viewBox="0 0 135 130" fill="none" xmlns="http://www.w3.org/2000/svg">
<g clip-path="url(#clip0_565_17953)">
<rect width="135" height="130" fill="white"/>
<rect x="-194.5" y="-17.5" width="524" height="498" rx="18.5" fill="#FDFFEF" stroke="black" stroke-width="3"/>
<path fill-rule="evenodd" clip-rule="evenodd" d="M87.2682 111.235C89.6907 115.799 90.407 120.637 89.4171 125.747C84.9876 132.174 79.018 136.285 71.5099 138.083C60.9777 138.928 50.4726 138.686 39.9934 137.358C34.9164 134.355 29.6646 133.872 24.2351 135.906C23.2796 135.906 22.3255 135.906 21.37 135.906C21.6063 131.045 21.3671 126.207 20.6537 121.394C19.1652 122.473 18.449 123.924 18.5048 125.747C14.5624 144.774 11.2202 144.774 8.47684 125.747C7.52132 133.004 6.56723 140.26 5.6117 147.517C3.05027 146.38 1.6177 144.446 1.31399 141.712C1.04897 139.25 -0.145797 137.316 -2.26743 135.906C-1.95943 140.712 -1.95943 145.549 -2.26743 150.419C-9.0922 140.571 -18.1661 134.281 -29.4863 131.553C-30.4418 125.264 -30.4418 118.975 -29.4863 112.686C-27.7471 110.438 -25.5983 108.745 -23.0397 107.606C-25.7028 105.346 -27.8517 102.685 -29.4863 99.6243C-30.4418 92.8516 -30.4418 86.079 -29.4863 79.3063C-10.6408 59.3667 -14.2222 56.2222 -40.2305 69.873C-42.1258 71.0571 -43.0799 72.7503 -43.0957 74.9525C-45.1285 67.1425 -42.7404 60.6117 -35.9328 55.3601C-45.935 55.14 -53.0979 50.5442 -57.4214 41.5729C-57.1821 41.0892 -56.9443 40.6054 -56.7051 40.1216C-53.2426 42.2964 -49.4233 43.2638 -45.2445 43.0242C-41.8422 43.164 -38.7392 42.4383 -35.9328 40.8473C-43.6974 33.2251 -45.8462 24.2755 -42.3794 13.9985C-37.5273 23.6072 -29.6481 28.6867 -18.742 29.237C-6.69837 33.9688 -1.44514 42.9183 -2.98372 56.0858C5.19053 55.6086 13.3075 56.0924 21.37 57.537C25.013 63.2269 28.8337 68.7902 32.8305 74.2268C50.4855 69.3907 65.5275 73.5026 77.9565 86.5627C81.9104 95.3298 84.2985 104.521 85.1194 114.137C85.5176 112.808 86.2339 111.84 87.2682 111.235Z" fill="#0381C6"/>
<path opacity="0.89" fill-rule="evenodd" clip-rule="evenodd" d="M87.2683 111.234C86.234 111.84 85.5177 112.808 85.1195 114.137C84.2986 104.521 81.9105 95.3295 77.9566 86.5624C65.5277 73.5023 50.4857 69.3904 32.8307 74.2265C28.8338 68.7899 25.0131 63.2267 21.3701 57.5368C13.3076 56.0922 5.19066 55.6083 -2.98358 56.0855C-1.445 42.918 -6.69824 33.9685 -18.7419 29.2367C-29.648 28.6864 -37.5271 23.6069 -42.3793 13.9983C-45.8461 24.2752 -43.6972 33.2249 -35.9327 40.847C-38.7391 42.4381 -41.842 43.1637 -45.2444 43.0239C-49.4232 43.2635 -53.2424 42.2961 -56.705 40.1214C-56.9442 40.6051 -57.182 41.0889 -57.4212 41.5727C-53.0978 50.5439 -45.9349 55.1397 -35.9327 55.3598C-42.7403 60.6115 -45.1284 67.1422 -43.0955 74.9522C-43.0397 76.7753 -43.756 78.2266 -45.2444 79.306C-48.747 71.118 -47.5537 63.6198 -41.663 56.8111C-54.1048 54.938 -59.8351 47.9235 -58.8538 35.7675C-53.7052 40.0491 -47.9749 41.0165 -41.663 38.6701C-47.336 29.2678 -47.336 20.0762 -41.663 11.0957C-40.1258 15.7971 -37.2607 19.4253 -33.0676 21.9803C-22.2903 22.9398 -12.9786 27.0518 -5.13244 34.3162C-1.17855 39.9816 0.0162177 46.0287 -1.55101 52.4573C6.72638 52.5938 14.8433 53.5614 22.8027 55.3598C27.8883 60.9946 32.4253 67.0417 36.4121 73.5009C57.5969 66.0973 73.3552 72.3863 83.6869 92.3676C86.0234 98.4454 87.2168 104.734 87.2683 111.234Z" fill="black"/>
<path fill-rule="evenodd" clip-rule="evenodd" d="M148.869 112.685C144.419 110.933 140.122 108.756 135.976 106.155C131.654 101.677 127.356 97.3229 123.083 93.0932C116.397 92.1256 109.713 92.1256 103.027 93.0932C101.417 93.4548 99.984 94.1805 98.729 95.2701C95.8639 101.559 92.9987 107.848 90.1336 114.137C93.6993 121.514 92.2667 128.044 85.8359 133.729C71.026 142.753 55.7448 143.964 39.9937 137.357C50.4729 138.685 60.9779 138.928 71.5102 138.083C79.0183 136.285 84.9878 132.173 89.4173 125.747C90.4072 120.637 89.6909 115.799 87.2685 111.234C90.3141 104.968 93.6563 98.679 97.2965 92.3675C107.993 86.4537 118.5 86.6956 128.813 93.0932C134.582 99.8998 141.268 105.705 148.869 110.509C150.643 111.51 150.643 112.236 148.869 112.685Z" fill="black"/>
<path opacity="0.835" fill-rule="evenodd" clip-rule="evenodd" d="M140.273 115.588C143.166 118.499 146.508 120.918 150.301 122.845C150.124 123.725 149.647 124.209 148.869 124.296C143.014 123.199 138.239 120.297 134.543 115.588C136.262 114.439 138.172 114.439 140.273 115.588Z" fill="black"/>
<path fill-rule="evenodd" clip-rule="evenodd" d="M1.31429 141.711C0.0593612 146.177 -0.417685 150.531 -0.118278 154.773C-6.06631 149.474 -11.7966 143.911 -17.3091 138.083C-26.4016 136.489 -34.9971 137.941 -43.0954 142.437C-46.2728 152.98 -51.5261 162.414 -58.8537 170.737C-60.3607 170.953 -61.7933 170.712 -63.1514 170.011C-54.9571 162.383 -49.466 152.95 -46.6768 141.711C-42.2129 138.363 -37.1989 136.428 -31.6348 135.906C-32.2623 130.722 -33.2164 125.642 -34.5 120.667C-33.6132 115.486 -31.2251 111.133 -27.3371 107.606C-34.4169 96.6293 -34.8954 85.2609 -28.7697 73.5007C-20.4063 66.4079 -21.3619 64.7147 -31.6348 68.4212C-35.6876 70.3888 -39.5082 72.5657 -43.0954 74.952C-43.0796 72.7498 -42.1255 71.0566 -40.2302 69.8725C-14.2219 56.2218 -10.6405 59.3663 -29.486 79.3059C-30.4415 86.0786 -30.4415 92.8511 -29.486 99.6238C-27.8514 102.684 -25.7025 105.345 -23.0394 107.606C-25.598 108.744 -27.7468 110.438 -29.486 112.685C-30.4415 118.974 -30.4415 125.263 -29.486 131.552C-18.1658 134.28 -9.0919 140.57 -2.26713 150.419C-1.95913 145.548 -1.95913 140.711 -2.26713 135.906C-0.145496 137.315 1.04927 139.25 1.31429 141.711Z" fill="black"/>
<path fill-rule="evenodd" clip-rule="evenodd" d="M21.3701 135.906C20.4146 132.52 19.4605 129.134 18.505 125.747C18.4491 123.924 19.1654 122.473 20.6538 121.394C21.3673 126.207 21.6065 131.045 21.3701 135.906Z" fill="#131412"/>
<path fill-rule="evenodd" clip-rule="evenodd" d="M148.869 112.686C146.574 114.97 143.709 115.937 140.273 115.588C138.172 114.439 136.262 114.439 134.543 115.588C138.239 120.297 143.014 123.199 148.869 124.296C145.982 126.362 142.64 127.33 138.841 127.199C137.586 127.009 136.63 127.492 135.976 128.65C139.361 132.539 143.658 134.474 148.869 134.455C150.642 134.905 150.642 135.63 148.869 136.632C147.085 137.78 145.175 138.505 143.138 138.809C139.864 140.028 139.386 142.205 141.706 145.34C137.649 155.985 130.007 161.064 118.785 160.578C119.901 167.273 120.617 174.046 120.934 180.896C122.823 183.78 125.449 185.473 128.813 185.975C126.662 187.792 124.274 189.244 121.65 190.329C123.67 192.321 126.058 193.529 128.813 193.958C130.747 195.627 130.509 196.595 128.096 196.86C118.553 194.36 117.836 195.811 125.948 201.214C123.866 201.837 121.479 202.079 118.785 201.94C115.975 206.24 112.633 210.109 108.757 213.55C102.694 216.852 96.9638 220.48 91.5659 224.435C91.0759 225.651 90.1218 226.135 88.7007 225.886C86.0189 230.282 82.1983 233.425 77.2402 235.319C81.1181 235.779 84.4603 234.57 87.2681 231.691C88.7007 234.593 90.1333 237.496 91.5659 240.399C83.4862 239.426 76.3233 241.362 70.0773 246.204C68.6505 246.329 67.4571 245.844 66.4959 244.752C65.92 242.761 65.2037 240.827 64.347 238.947C79.5409 237.271 79.5409 236.062 64.347 235.319C62.2469 234.398 60.3358 233.187 58.6167 231.691C59.207 233.551 58.2529 235.003 55.7516 236.045C50.6774 235.591 45.9027 236.075 41.4259 237.496C38.5937 234.247 35.0123 232.311 30.6816 231.691C27.0443 233.29 23.4629 233.29 19.9374 231.691C18.055 232.871 16.3831 234.322 14.9234 236.045C14.6669 228.119 12.5181 227.151 8.47679 233.142C7.14307 230.028 7.62155 226.884 9.90936 223.709C5.36095 223.786 1.54029 222.577 -1.5512 220.081C1.7695 219.619 3.68055 217.683 4.17908 214.276C0.261001 208.353 -3.08262 202.063 -5.84891 195.409C-22.1315 206.768 -35.5017 203.865 -45.9609 186.701C-43.5155 183.592 -42.3207 180.207 -42.3794 176.542C-43.3937 177.821 -44.5885 178.787 -45.9609 179.445C-49.2042 180.488 -52.5464 180.971 -55.9889 180.896C-52.1711 176.782 -48.5896 172.428 -45.2446 167.834C-44.2891 166.383 -44.2891 164.932 -45.2446 163.481C-46.6041 165.792 -48.2745 167.727 -50.2586 169.286C-53.0306 170.229 -55.8957 170.712 -58.854 170.737C-51.5264 162.414 -46.2732 152.981 -43.0957 142.437C-34.9974 137.941 -26.402 136.49 -17.3095 138.083C-11.7969 143.911 -6.06666 149.474 -0.11863 154.773C-0.418037 150.531 0.0590089 146.177 1.31394 141.711C1.61765 144.446 3.05022 146.38 5.61165 147.516C6.56717 140.26 7.52127 133.004 8.47679 125.747C11.2202 144.774 14.5623 144.774 18.5048 125.747C19.4603 129.134 20.4144 132.52 21.3699 135.906C22.3254 135.906 23.2795 135.906 24.2351 135.906C29.5327 135.982 34.7859 136.466 39.9933 137.357C55.7444 143.964 71.0257 142.753 85.8356 133.729C92.2664 128.044 93.699 121.514 90.1333 114.137C92.9984 107.848 95.8636 101.559 98.7287 95.2703C99.9836 94.1807 101.416 93.455 103.026 93.0934C109.712 92.1258 116.397 92.1258 123.082 93.0934C127.356 97.3231 131.653 101.677 135.976 106.155C140.121 108.756 144.419 110.933 148.869 112.686Z" fill="#DDB901"/>
<path fill-rule="evenodd" clip-rule="evenodd" d="M114.487 125.747C117.539 128.108 120.404 130.769 123.083 133.729C119.867 133.446 117.241 131.753 115.204 128.65C112.956 133.834 109.614 138.187 105.176 141.711C104.22 140.743 104.22 139.777 105.176 138.809C108.995 134.925 112.099 130.571 114.487 125.747Z" fill="black"/>
</g>
<rect x="0.5" y="0.5" width="134" height="129" stroke="black"/>
<defs>
<clipPath id="clip0_565_17953">
<rect width="135" height="130" fill="white"/>
</clipPath>
</defs>
</svg>
