<svg width="527" height="501" viewBox="0 0 527 501" fill="none" xmlns="http://www.w3.org/2000/svg">
<rect x="1.5" y="1.5" width="524" height="498" rx="18.5" fill="#FDFFEF" stroke="black" stroke-width="3"/>
<path fill-rule="evenodd" clip-rule="evenodd" d="M289.772 142.893C292.93 148.757 293.864 154.972 292.573 161.537C286.799 169.792 279.016 175.074 269.228 177.384C255.497 178.469 241.801 178.157 228.14 176.451C221.521 172.594 214.674 171.973 207.596 174.587C206.35 174.587 205.106 174.587 203.86 174.587C204.168 168.342 203.857 162.127 202.926 155.944C200.986 157.33 200.052 159.195 200.125 161.537C194.985 185.978 190.628 185.978 187.051 161.537C185.806 170.858 184.562 180.18 183.316 189.502C179.977 188.042 178.109 185.557 177.713 182.044C177.368 178.883 175.81 176.397 173.044 174.587C173.446 180.76 173.446 186.974 173.044 193.231C164.147 180.579 152.317 172.499 137.559 168.994C136.313 160.915 136.313 152.836 137.559 144.758C139.826 141.87 142.628 139.695 145.963 138.232C142.491 135.328 139.69 131.91 137.559 127.979C136.313 119.278 136.313 110.578 137.559 101.878C162.128 76.263 157.459 72.2236 123.551 89.7596C121.081 91.2807 119.837 93.4558 119.816 96.2848C117.166 86.252 120.279 77.8625 129.154 71.1161C116.114 70.8333 106.776 64.9295 101.14 53.4049C101.452 52.7835 101.762 52.1619 102.073 51.5406C106.588 54.3343 111.567 55.577 117.015 55.2692C121.45 55.4488 125.496 54.5166 129.154 52.4727C119.032 42.6812 116.23 31.1844 120.75 17.9824C127.076 30.3259 137.348 36.851 151.566 37.558C167.267 43.6365 174.116 55.1332 172.11 72.0483C182.767 71.4353 193.349 72.0569 203.86 73.9127C208.61 81.222 213.591 88.3686 218.801 95.3526C241.818 89.14 261.429 94.4223 277.632 111.199C282.787 122.462 285.9 134.269 286.971 146.622C287.49 144.915 288.424 143.672 289.772 142.893Z" fill="#0381C6"/>
<path opacity="0.89" fill-rule="evenodd" clip-rule="evenodd" d="M289.772 142.893C288.424 143.672 287.49 144.915 286.971 146.622C285.9 134.269 282.787 122.462 277.632 111.2C261.429 94.4224 241.818 89.1402 218.802 95.3527C213.591 88.3687 208.61 81.2222 203.86 73.9128C193.349 72.0571 182.767 71.4355 172.11 72.0485C174.116 55.1333 167.268 43.6367 151.566 37.5582C137.348 36.8512 127.076 30.326 120.75 17.9826C116.23 31.1845 119.032 42.6814 129.154 52.4729C125.496 54.5168 121.45 55.4489 117.015 55.2694C111.567 55.5772 106.588 54.3344 102.074 51.5407C101.762 52.1621 101.452 52.7837 101.14 53.4051C106.776 64.9297 116.115 70.8335 129.154 71.1163C120.279 77.8626 117.166 86.2521 119.816 96.2849C119.889 98.6269 118.955 100.491 117.015 101.878C112.448 91.3595 114.004 81.7272 121.684 72.9806C105.463 70.5743 97.9928 61.5634 99.2721 45.9477C105.984 51.4479 113.455 52.6907 121.684 49.6764C114.288 37.5981 114.288 25.7904 121.684 14.2539C123.688 20.2934 127.423 24.9543 132.89 28.2365C146.94 29.469 159.08 34.7514 169.309 44.0834C174.464 51.3612 176.021 59.1293 173.978 67.3876C184.769 67.5631 195.351 68.806 205.728 71.1163C212.358 78.3548 218.273 86.1229 223.471 94.4206C251.089 84.9098 271.634 92.9888 285.103 118.657C288.149 126.465 289.705 134.543 289.772 142.893Z" fill="black"/>
<path fill-rule="evenodd" clip-rule="evenodd" d="M370.081 144.758C364.28 142.507 358.677 139.71 353.272 136.368C347.637 130.616 342.034 125.023 336.463 119.589C327.747 118.346 319.032 118.346 310.316 119.589C308.217 120.054 306.349 120.986 304.713 122.386C300.978 130.464 297.243 138.543 293.507 146.622C298.156 156.098 296.288 164.488 287.904 171.791C268.597 183.383 248.674 184.938 228.14 176.452C241.801 178.157 255.497 178.469 269.228 177.384C279.016 175.074 286.799 169.792 292.573 161.537C293.864 154.972 292.93 148.757 289.772 142.893C293.743 134.844 298.1 126.765 302.846 118.657C316.791 111.06 330.489 111.371 343.934 119.589C351.455 128.333 360.171 135.79 370.081 141.961C372.393 143.248 372.393 144.18 370.081 144.758Z" fill="black"/>
<path opacity="0.835" fill-rule="evenodd" clip-rule="evenodd" d="M358.875 148.486C362.646 152.226 367.003 155.333 371.948 157.808C371.717 158.939 371.095 159.56 370.081 159.672C362.448 158.263 356.223 154.535 351.404 148.486C353.645 147.01 356.135 147.01 358.875 148.486Z" fill="black"/>
<path fill-rule="evenodd" clip-rule="evenodd" d="M177.713 182.044C176.077 187.781 175.455 193.374 175.846 198.823C168.091 192.017 160.621 184.871 153.434 177.383C141.58 175.336 130.374 177.201 119.816 182.977C115.674 196.521 108.825 208.639 99.2721 219.331C97.3074 219.609 95.4397 219.299 93.6692 218.399C104.352 208.6 111.511 196.482 115.147 182.044C120.967 177.743 127.503 175.258 134.757 174.587C133.939 167.927 132.696 161.402 131.022 155.011C132.178 148.356 135.292 142.763 140.36 138.232C131.13 124.132 130.507 109.528 138.493 94.4203C149.396 85.3087 148.15 83.1336 134.757 87.8951C129.474 90.4226 124.493 93.2191 119.816 96.2846C119.837 93.4557 121.081 91.2806 123.552 89.7594C157.459 72.2235 162.128 76.2629 137.559 101.878C136.313 110.578 136.313 119.278 137.559 127.978C139.69 131.91 142.491 135.328 145.963 138.232C142.628 139.695 139.826 141.87 137.559 144.758C136.313 152.836 136.313 160.915 137.559 168.994C152.317 172.499 164.147 180.579 173.044 193.23C173.446 186.974 173.446 180.76 173.044 174.587C175.81 176.397 177.368 178.882 177.713 182.044Z" fill="black"/>
<path opacity="0.882" fill-rule="evenodd" clip-rule="evenodd" d="M357.007 163.401C361.693 166.051 366.052 169.158 370.081 172.722C363.288 172.747 357.685 170.261 353.272 165.265C354.125 163.778 355.371 163.157 357.007 163.401Z" fill="black"/>
<path fill-rule="evenodd" clip-rule="evenodd" d="M203.86 174.587C202.615 170.237 201.371 165.887 200.125 161.537C200.052 159.195 200.986 157.331 202.927 155.944C203.857 162.127 204.169 168.342 203.86 174.587Z" fill="#131412"/>
<path fill-rule="evenodd" clip-rule="evenodd" d="M362.61 178.316C364.525 199.389 355.186 209.331 334.596 208.145C336.041 216.123 336.975 224.203 337.397 232.382C341.889 233.825 346.558 234.757 351.404 235.178C348.807 239.634 345.071 242.742 340.199 244.5C341.844 245.82 343.088 247.375 343.934 249.161C340.342 248.611 337.229 247.058 334.596 244.5C338.017 243.106 341.131 241.241 343.934 238.907C339.549 238.262 336.125 236.086 333.662 232.382C333.249 223.582 332.315 214.881 330.86 206.281C345.491 206.906 355.454 200.38 360.743 186.705C357.719 182.678 358.341 179.882 362.61 178.316Z" fill="black"/>
<path fill-rule="evenodd" clip-rule="evenodd" d="M405.566 150.351C401.958 155.341 386.083 166.527 387.824 172.723C388.446 171.48 389.069 170.237 389.691 168.994C390.457 171.605 391.391 174.091 392.493 176.451C376.735 181.013 368.643 191.577 368.213 208.145C366.379 214.6 365.757 221.436 366.346 228.653C365.1 224.924 363.856 221.196 362.61 217.467C363.369 206.359 366.17 195.794 371.015 185.773C375.187 181.672 379.856 178.254 385.022 175.519C382.949 170.416 382.637 165.134 384.088 159.672C387.824 154.079 402.733 150.37 405.566 150.351Z" fill="black"/>
<path fill-rule="evenodd" clip-rule="evenodd" d="M370.081 144.758C367.089 147.692 363.354 148.935 358.875 148.487C356.135 147.011 353.645 147.011 351.404 148.487C356.223 154.535 362.448 158.264 370.081 159.673C366.317 162.327 361.96 163.57 357.007 163.401C355.371 163.157 354.125 163.779 353.272 165.266C357.685 170.262 363.288 172.747 370.081 172.723C372.393 173.301 372.393 174.233 370.081 175.52C367.756 176.994 365.266 177.927 362.61 178.316C358.341 179.882 357.719 182.679 360.743 186.706C355.453 200.381 345.491 206.906 330.86 206.281C332.315 214.882 333.249 223.582 333.662 232.382C336.125 236.087 339.548 238.262 343.934 238.907C341.13 241.241 338.017 243.106 334.595 244.5C337.229 247.058 340.342 248.611 343.934 249.161C346.455 251.305 346.145 252.549 343 252.89C330.558 249.678 329.624 251.542 340.198 258.483C337.485 259.283 334.373 259.594 330.86 259.415C327.198 264.939 322.841 269.909 317.787 274.33C309.883 278.571 302.412 283.232 295.375 288.312C294.736 289.875 293.492 290.497 291.64 290.177C288.143 295.824 283.162 299.862 276.698 302.295C281.754 302.886 286.111 301.333 289.772 297.634C291.64 301.363 293.507 305.091 295.375 308.82C284.841 307.571 275.503 310.058 267.36 316.277C265.5 316.438 263.944 315.815 262.691 314.413C261.94 311.855 261.006 309.37 259.89 306.956C279.698 304.802 279.698 303.249 259.89 302.295C257.152 301.111 254.66 299.556 252.419 297.634C253.188 300.024 251.945 301.888 248.684 303.227C242.069 302.643 235.844 303.266 230.007 305.091C226.315 300.917 221.646 298.43 216 297.634C211.258 299.689 206.589 299.689 201.993 297.634C199.538 299.15 197.359 301.014 195.456 303.227C195.121 293.046 192.32 291.802 187.051 299.498C185.313 295.497 185.936 291.459 188.919 287.38C182.989 287.479 178.008 285.926 173.978 282.719C178.307 282.126 180.798 279.639 181.448 275.262C176.34 267.654 171.981 259.573 168.375 251.025C147.147 265.618 129.716 261.889 116.081 239.839C119.269 235.846 120.826 231.497 120.75 226.789C119.428 228.432 117.87 229.673 116.081 230.518C111.852 231.858 107.495 232.479 103.007 232.382C107.985 227.097 112.654 221.504 117.015 215.603C118.26 213.739 118.26 211.874 117.015 210.01C115.242 212.98 113.065 215.465 110.478 217.467C106.864 218.679 103.129 219.3 99.272 219.332C108.825 208.64 115.674 196.521 119.816 182.977C130.374 177.201 141.58 175.337 153.434 177.384C160.62 184.871 168.091 192.017 175.845 198.824C175.455 193.374 176.077 187.781 177.713 182.045C178.109 185.557 179.977 188.042 183.316 189.502C184.562 180.181 185.806 170.859 187.051 161.537C190.628 185.979 194.985 185.979 200.125 161.537C201.371 165.887 202.614 170.237 203.86 174.588C205.106 174.588 206.35 174.588 207.595 174.588C214.502 174.684 221.351 175.307 228.14 176.452C248.674 184.938 268.597 183.383 287.904 171.791C296.288 164.488 298.156 156.099 293.507 146.622C297.243 138.544 300.978 130.465 304.713 122.386C306.349 120.986 308.217 120.054 310.316 119.589C319.032 118.346 327.747 118.346 336.463 119.589C342.034 125.023 347.637 130.616 353.272 136.369C358.677 139.711 364.28 142.507 370.081 144.758Z" fill="#DDB901"/>
<path fill-rule="evenodd" clip-rule="evenodd" d="M155.301 217.467C159.879 221.364 164.236 225.713 168.375 230.518C164.582 234.067 160.846 234.379 157.169 231.45C159.037 230.829 160.904 230.206 162.772 229.586C160.592 227.41 158.415 225.236 156.235 223.06C154.721 225.782 153.163 226.403 151.566 224.925C152.836 222.389 154.082 219.904 155.301 217.467Z" fill="black"/>
<path fill-rule="evenodd" clip-rule="evenodd" d="M201.993 200.688C211.144 199.659 217.371 203.388 220.669 211.874C206.706 209.222 198.302 215.435 195.456 230.518C190.081 218.515 192.26 208.571 201.993 200.688Z" fill="#151107"/>
<path fill-rule="evenodd" clip-rule="evenodd" d="M276.699 182.044C289.247 180.859 297.34 186.452 300.978 198.823C300.356 199.444 299.732 200.067 299.11 200.688C289.251 190.961 279.603 190.961 270.162 200.688C270.04 193.739 272.218 187.525 276.699 182.044Z" fill="#110E07"/>
<path fill-rule="evenodd" clip-rule="evenodd" d="M323.39 174.587C325.498 178.626 324.565 182.354 320.588 185.773C320.521 181.911 321.455 178.182 323.39 174.587Z" fill="#221B0D"/>
<path fill-rule="evenodd" clip-rule="evenodd" d="M207.596 174.587C214.674 171.974 221.521 172.594 228.14 176.452C221.351 175.307 214.502 174.684 207.596 174.587Z" fill="#12222D"/>
<path fill-rule="evenodd" clip-rule="evenodd" d="M325.257 161.537C329.235 164.57 332.971 167.988 336.463 171.79C332.27 171.426 328.847 169.251 326.191 165.265C323.261 171.925 318.904 177.518 313.118 182.044C311.872 180.801 311.872 179.559 313.118 178.316C318.097 173.327 322.144 167.734 325.257 161.537Z" fill="black"/>
<path fill-rule="evenodd" clip-rule="evenodd" d="M392.493 176.452C400.897 178.316 402.617 179.304 411.169 179.248C412.594 180.68 419.131 181.612 421.441 182.045C432.402 182.526 441.985 185.773 452.257 187.638C453.944 191.62 456.122 195.349 458.794 198.824C460.193 212.055 459.259 225.105 455.993 237.975C453.316 240.46 450.825 243.257 448.522 246.364C446.752 247.265 444.884 247.574 442.919 247.297C439.58 245.205 435.844 244.893 431.713 246.364C426.226 249.735 420.623 252.532 414.904 254.754C406.902 253.434 398.809 252.502 390.625 251.957C385.51 250.045 381.152 247.248 377.551 243.568C375.684 240.46 373.194 237.975 370.081 236.111C368.415 226.904 367.791 217.583 368.213 208.145C368.643 191.577 376.735 181.014 392.493 176.452Z" fill="#CC0821"/>
<path d="M443.848 204.671L437.328 237.134C437.187 237.836 436.578 238.334 435.87 238.328C431.204 238.288 417.602 238.043 408.443 236.556C399.408 235.09 386.626 231.107 382.135 229.66C381.436 229.434 381.01 228.728 381.135 227.999L387.002 193.73C387.156 192.828 388.075 192.268 388.951 192.542C392.435 193.633 399.528 195.799 406.381 197.56C408.98 198.227 411.549 198.838 413.875 199.309C423.268 201.212 437.112 202.437 442.487 202.867C443.39 202.939 444.027 203.782 443.848 204.671Z" fill="white" stroke="#2B2424"/>
<path d="M390.353 205.389C390.184 205.424 390.046 205.404 389.94 205.331C389.834 205.258 389.763 205.174 389.726 205.081C389.671 204.963 389.67 204.849 389.723 204.739C389.775 204.629 389.882 204.546 390.044 204.488C390.311 204.395 390.635 204.34 391.018 204.322C391.402 204.294 391.801 204.339 392.213 204.457C392.625 204.574 392.987 204.759 393.299 205.01C393.624 205.253 393.881 205.538 394.071 205.865C394.272 206.194 394.402 206.553 394.461 206.943C394.533 207.325 394.527 207.714 394.445 208.111C394.347 208.527 394.187 208.931 393.964 209.325C393.752 209.72 393.486 210.079 393.167 210.4C392.859 210.724 392.504 211.007 392.103 211.249C391.714 211.482 391.299 211.646 390.859 211.74C390.563 211.762 390.345 211.734 390.208 211.655C390.071 211.576 389.982 211.495 389.943 211.412C389.932 211.356 389.933 211.286 389.949 211.202C389.976 211.109 390.051 211.025 390.173 210.95C390.232 209.909 390.331 208.913 390.471 207.963C390.623 207.004 390.771 206.131 390.914 205.344C390.729 205.343 390.542 205.358 390.353 205.389ZM392.106 205.494C392.045 205.472 391.978 205.455 391.904 205.441C391.843 205.42 391.781 205.403 391.718 205.392C391.766 205.487 391.799 205.601 391.818 205.735C391.839 205.858 391.84 205.977 391.819 206.093C391.702 206.733 391.583 207.421 391.46 208.158C391.348 208.896 391.257 209.698 391.187 210.563C391.709 210.311 392.179 209.962 392.596 209.517C393.025 209.063 393.302 208.555 393.425 207.992C393.531 207.469 393.484 206.984 393.283 206.536C393.084 206.077 392.692 205.73 392.106 205.494ZM401.291 207.687C401.299 207.884 401.3 208.117 401.294 208.387C401.29 208.646 401.268 208.919 401.227 209.204C401.199 209.481 401.152 209.765 401.089 210.057C401.025 210.349 400.942 210.627 400.84 210.89C400.72 211.194 400.542 211.46 400.305 211.688C400.068 211.916 399.795 212.111 399.484 212.271C399.183 212.434 398.858 212.554 398.508 212.632C398.17 212.701 397.833 212.738 397.496 212.742C397.171 212.738 396.855 212.691 396.545 212.603C396.249 212.506 395.992 212.368 395.775 212.188C395.531 211.981 395.347 211.737 395.225 211.454C395.103 211.172 395.086 210.849 395.173 210.486C395.259 210.133 395.349 209.813 395.445 209.527C395.542 209.23 395.647 208.951 395.759 208.689C395.882 208.43 396.01 208.171 396.144 207.913C396.279 207.645 396.422 207.367 396.571 207.08C396.649 206.953 396.757 206.891 396.898 206.895C396.952 206.894 397.015 206.905 397.087 206.929C397.118 206.935 397.156 206.963 397.201 207.015C397.259 207.057 397.308 207.115 397.349 207.188C397.39 207.26 397.418 207.341 397.435 207.431C397.461 207.522 397.45 207.618 397.399 207.717C397.244 208.036 397.087 208.36 396.93 208.689C396.773 209.018 396.629 209.334 396.498 209.636C396.378 209.939 396.285 210.215 396.218 210.463C396.164 210.702 396.156 210.896 396.194 211.044C396.294 211.268 396.454 211.432 396.674 211.537C396.906 211.633 397.157 211.684 397.427 211.689C397.697 211.694 397.961 211.672 398.22 211.621C398.491 211.561 398.726 211.49 398.925 211.406C399.243 211.269 399.49 211.069 399.668 210.809C399.856 210.55 399.996 210.255 400.088 209.925C400.18 209.595 400.239 209.243 400.264 208.868C400.299 208.495 400.317 208.124 400.319 207.756C400.315 207.658 400.342 207.538 400.4 207.397C400.459 207.255 400.563 207.155 400.715 207.096C400.877 207.038 401.007 207.072 401.103 207.198C401.21 207.326 401.273 207.489 401.291 207.687ZM408.893 208.506C408.657 209.384 408.402 210.281 408.128 211.197C407.866 212.103 407.577 212.951 407.26 213.739C407.182 213.931 407.099 214.062 407.01 214.133C406.921 214.204 406.806 214.242 406.664 214.249C406.544 214.249 406.388 214.183 406.196 214.051C406.013 213.921 405.87 213.754 405.766 213.551C405.631 213.277 405.485 212.98 405.326 212.659C405.18 212.329 405.013 211.995 404.825 211.658C404.649 211.312 404.457 210.968 404.248 210.627C404.049 210.287 403.831 209.966 403.593 209.663C403.436 210.35 403.285 211.033 403.14 211.711C402.997 212.379 402.875 213.056 402.772 213.742C402.755 213.837 402.662 213.869 402.494 213.839C402.295 213.803 402.15 213.674 402.06 213.451C401.972 213.219 401.937 212.996 401.954 212.782C401.961 212.566 401.999 212.264 402.07 211.876C402.142 211.477 402.222 211.064 402.311 210.635C402.41 210.209 402.506 209.798 402.6 209.403C402.693 209.008 402.771 208.697 402.834 208.47C402.901 208.221 402.992 208.048 403.107 207.95C403.233 207.853 403.342 207.819 403.435 207.846C403.641 207.905 403.766 207.993 403.81 208.109C403.866 208.217 403.886 208.345 403.87 208.494C404.199 208.835 404.492 209.191 404.749 209.563C405.018 209.937 405.254 210.31 405.457 210.682C405.671 211.057 405.859 211.427 406.02 211.792C406.194 212.148 406.357 212.476 406.509 212.774C406.749 212.167 406.976 211.482 407.19 210.719C407.415 209.957 407.647 209.159 407.885 208.324C407.893 208.217 407.974 208.129 408.128 208.059C408.284 207.978 408.418 207.954 408.532 207.985C408.822 208.059 408.942 208.233 408.893 208.506ZM410.127 208.956C409.958 208.99 409.821 208.971 409.715 208.898C409.609 208.824 409.537 208.741 409.5 208.648C409.446 208.529 409.445 208.415 409.497 208.306C409.549 208.196 409.657 208.112 409.819 208.055C410.085 207.962 410.409 207.907 410.792 207.889C411.177 207.861 411.575 207.906 411.987 208.023C412.4 208.141 412.762 208.325 413.074 208.577C413.398 208.82 413.656 209.105 413.846 209.431C414.046 209.76 414.176 210.12 414.236 210.51C414.307 210.891 414.302 211.28 414.219 211.677C414.122 212.093 413.962 212.498 413.739 212.891C413.526 213.287 413.26 213.645 412.942 213.967C412.634 214.291 412.279 214.574 411.877 214.816C411.488 215.049 411.074 215.213 410.634 215.307C410.337 215.329 410.12 215.301 409.982 215.222C409.845 215.143 409.757 215.062 409.718 214.979C409.706 214.923 409.708 214.852 409.723 214.769C409.751 214.676 409.826 214.592 409.948 214.516C410.006 213.476 410.106 212.48 410.246 211.53C410.398 210.571 410.545 209.698 410.688 208.911C410.504 208.91 410.317 208.925 410.127 208.956ZM411.88 209.061C411.819 209.039 411.752 209.021 411.679 209.008C411.618 208.986 411.556 208.97 411.493 208.958C411.54 209.054 411.574 209.168 411.593 209.302C411.614 209.425 411.614 209.544 411.593 209.659C411.477 210.299 411.357 210.988 411.235 211.724C411.122 212.463 411.031 213.265 410.961 214.13C411.484 213.878 411.954 213.529 412.37 213.084C412.8 212.63 413.076 212.122 413.2 211.559C413.306 211.036 413.258 210.55 413.057 210.102C412.859 209.644 412.466 209.296 411.88 209.061ZM419.947 213.117C419.97 213.23 419.909 213.327 419.764 213.409C419.621 213.481 419.41 213.508 419.131 213.49C418.647 213.468 418.152 213.449 417.645 213.434C417.141 213.407 416.624 213.385 416.097 213.366C415.979 213.897 415.882 214.432 415.805 214.971C416.047 215.015 416.339 215.046 416.683 215.065C417.039 215.075 417.402 215.075 417.772 215.066C418.142 215.057 418.497 215.045 418.836 215.03C419.187 215.007 419.482 214.99 419.723 214.979C419.844 214.968 419.969 214.969 420.097 214.981C420.226 214.983 420.337 215.003 420.427 215.041C420.53 215.07 420.608 215.122 420.659 215.196C420.711 215.271 420.726 215.366 420.705 215.481C420.699 215.513 420.654 215.553 420.569 215.603C420.484 215.653 420.377 215.704 420.249 215.756C420.132 215.801 420.005 215.843 419.868 215.883C419.743 215.915 419.63 215.938 419.53 215.952C418.841 216.045 418.168 216.113 417.509 216.157C416.853 216.19 416.224 216.158 415.624 216.06C415.276 216.008 415.03 215.872 414.885 215.651C414.743 215.419 414.7 215.119 414.756 214.75C414.828 214.232 414.923 213.712 415.039 213.191C414.879 213.054 414.817 212.891 414.851 212.702C414.908 212.506 415.028 212.387 415.209 212.344C415.285 212.043 415.356 211.742 415.422 211.439C415.489 211.126 415.561 210.819 415.637 210.519C415.526 210.477 415.431 210.4 415.354 210.289C415.287 210.179 415.264 210.067 415.285 209.951C415.302 209.857 415.338 209.777 415.394 209.711C415.451 209.634 415.541 209.586 415.664 209.564C415.861 209.556 416.1 209.551 416.383 209.548C416.665 209.544 416.952 209.547 417.243 209.556C417.544 209.567 417.829 209.581 418.097 209.597C418.376 209.615 418.611 209.635 418.802 209.659C419.026 209.678 419.232 209.736 419.42 209.835C419.619 209.936 419.791 210.092 419.937 210.303C419.952 210.457 419.901 210.562 419.783 210.616C419.675 210.673 419.54 210.697 419.379 210.69C419.218 210.682 419.024 210.674 418.798 210.666C418.574 210.647 418.338 210.632 418.091 210.62C417.854 210.61 417.612 210.599 417.365 210.587C417.13 210.566 416.905 210.552 416.689 210.546C416.686 210.567 416.681 210.593 416.675 210.625C416.682 210.648 416.683 210.669 416.679 210.69C416.609 210.96 416.544 211.23 416.484 211.501C416.424 211.772 416.364 212.043 416.304 212.314C416.758 212.32 417.221 212.338 417.692 212.369C418.165 212.389 418.54 212.414 418.817 212.442C419.041 212.461 419.252 212.526 419.449 212.637C419.645 212.748 419.811 212.908 419.947 213.117ZM422.247 217.304C422.286 216.91 422.34 216.464 422.408 215.967C422.487 215.472 422.573 214.967 422.667 214.453C422.762 213.928 422.855 213.414 422.946 212.91C423.048 212.408 423.147 211.955 423.242 211.549C423.261 211.444 423.323 211.374 423.427 211.338C423.543 211.294 423.632 211.283 423.693 211.305C423.878 211.36 423.992 211.451 424.034 211.578C424.088 211.696 424.108 211.857 424.092 212.06C424.021 212.394 423.95 212.728 423.878 213.062C423.817 213.398 423.762 213.735 423.711 214.072C424.199 214.074 424.624 213.971 424.986 213.766C425.359 213.562 425.645 213.305 425.842 212.993C425.917 212.877 425.982 212.731 426.035 212.557C426.099 212.384 426.136 212.207 426.148 212.024C426.161 211.832 426.14 211.649 426.085 211.476C426.042 211.295 425.95 211.143 425.81 211.02C425.603 210.842 425.365 210.723 425.094 210.664C424.823 210.604 424.532 210.595 424.221 210.636C423.922 210.669 423.614 210.754 423.296 210.892C422.989 211.032 422.691 211.211 422.402 211.43C422.405 211.593 422.358 211.731 422.262 211.844C422.167 211.946 422.047 212.011 421.901 212.039C421.813 212.045 421.721 211.985 421.625 211.859C421.53 211.723 421.493 211.597 421.514 211.481C421.591 211.061 421.772 210.72 422.058 210.457C422.356 210.186 422.703 209.978 423.098 209.832C423.493 209.687 423.905 209.598 424.333 209.567C424.762 209.536 425.149 209.552 425.495 209.614C426.01 209.707 426.413 209.937 426.704 210.304C426.997 210.66 427.166 211.075 427.21 211.549C427.287 212.376 427.101 213.074 426.651 213.643C426.211 214.214 425.577 214.664 424.748 214.991C425.233 215.425 425.684 215.837 426.101 216.227C426.529 216.618 426.952 217.036 427.37 217.48C427.421 217.554 427.472 217.661 427.523 217.8C427.586 217.931 427.543 218.107 427.394 218.33C427.305 218.465 427.179 218.529 427.018 218.522C426.869 218.506 426.731 218.432 426.603 218.301C426.406 218.07 426.179 217.829 425.921 217.576C425.676 217.315 425.414 217.057 425.135 216.8C424.858 216.534 424.58 216.278 424.299 216.032C424.02 215.776 423.754 215.538 423.501 215.319C423.436 215.741 423.365 216.161 423.289 216.581C423.225 216.992 423.167 217.399 423.116 217.802C423.089 217.949 423.028 218.046 422.933 218.094C422.839 218.131 422.73 218.139 422.604 218.116C422.543 218.094 422.491 218.052 422.448 217.99C422.407 217.918 422.367 217.84 422.327 217.757C422.301 217.666 422.278 217.58 422.26 217.501C422.244 217.412 422.239 217.346 422.247 217.304ZM433.372 216.237C433.362 216.29 433.295 216.332 433.17 216.364C433.055 216.397 432.951 216.405 432.856 216.388C432.162 216.274 431.501 216.182 430.874 216.112C430.247 216.042 429.634 215.986 429.035 215.943C428.917 215.933 428.819 215.877 428.74 215.776C428.671 215.677 428.637 215.568 428.637 215.448C428.635 215.34 428.659 215.236 428.709 215.136C428.772 215.029 428.859 214.968 428.97 214.956C429.589 214.948 430.251 214.975 430.955 215.037C431.659 215.099 432.35 215.235 433.028 215.444C433.068 215.462 433.116 215.498 433.171 215.551C433.228 215.594 433.277 215.651 433.318 215.724C433.361 215.786 433.391 215.862 433.407 215.951C433.424 216.041 433.412 216.136 433.372 216.237ZM394.318 214.185C394.311 215.062 394.267 215.932 394.187 216.795C394.108 217.648 394.013 218.498 393.903 219.345C393.896 219.441 393.87 219.524 393.826 219.591C393.783 219.649 393.73 219.699 393.668 219.742C393.617 219.787 393.562 219.82 393.504 219.842C393.456 219.866 393.416 219.875 393.385 219.87C393.269 219.849 393.164 219.775 393.067 219.65C392.983 219.515 392.947 219.357 392.958 219.175C392.999 218.77 393.04 218.366 393.081 217.961C393.121 217.557 393.157 217.151 393.187 216.745C392.03 216.85 390.816 216.908 389.546 216.917C389.546 217.156 389.546 217.394 389.547 217.633C389.547 217.871 389.552 218.111 389.563 218.351C389.566 218.395 389.558 218.464 389.541 218.558C389.535 218.655 389.511 218.754 389.471 218.855C389.442 218.958 389.392 219.052 389.323 219.137C389.265 219.213 389.186 219.264 389.084 219.289C388.998 219.284 388.913 219.242 388.83 219.162C388.747 219.082 388.696 219.007 388.675 218.939C388.609 218.591 388.558 218.181 388.525 217.708C388.502 217.238 388.493 216.749 388.498 216.24C388.516 215.723 388.556 215.205 388.618 214.685C388.68 214.165 388.764 213.671 388.87 213.202C388.92 213.049 388.998 212.949 389.104 212.903C389.222 212.848 389.323 212.829 389.407 212.844C389.501 212.861 389.574 212.907 389.626 212.981C389.688 213.057 389.732 213.146 389.756 213.248C389.781 213.35 389.796 213.45 389.799 213.549C389.803 213.647 389.8 213.728 389.788 213.79C389.738 214.128 389.694 214.462 389.655 214.791C389.617 215.12 389.595 215.452 389.589 215.787C390.137 215.81 390.738 215.815 391.391 215.803C392.045 215.78 392.666 215.735 393.253 215.667C393.276 215.422 393.293 215.176 393.305 214.929C393.32 214.671 393.333 214.419 393.345 214.172C393.378 213.993 393.459 213.846 393.588 213.728C393.728 213.612 393.856 213.565 393.972 213.586C394.056 213.601 394.132 213.658 394.201 213.757C394.28 213.858 394.319 214.001 394.318 214.185ZM400.998 218.43C400.882 218.713 400.715 218.975 400.498 219.218C400.293 219.452 400.064 219.665 399.812 219.858C399.561 220.051 399.294 220.209 399.011 220.332C398.739 220.456 398.469 220.543 398.2 220.592C397.707 220.676 397.235 220.651 396.783 220.515C396.343 220.37 395.977 220.088 395.684 219.666C395.496 219.329 395.383 218.967 395.345 218.581C395.317 218.197 395.337 217.815 395.406 217.438C395.487 217.051 395.607 216.688 395.766 216.348C395.936 216.01 396.125 215.714 396.334 215.459C396.584 215.157 396.86 214.92 397.162 214.747C397.465 214.574 397.777 214.494 398.1 214.509C398.187 214.503 398.252 214.537 398.293 214.609C398.334 214.682 398.347 214.76 398.332 214.844C398.456 214.758 398.633 214.708 398.863 214.696C399.093 214.683 399.34 214.722 399.605 214.813C400.098 214.967 400.469 215.191 400.719 215.486C400.969 215.78 401.133 216.102 401.211 216.452C401.301 216.794 401.313 217.143 401.248 217.5C401.196 217.848 401.113 218.158 400.998 218.43ZM397.96 215.638C397.733 215.695 397.529 215.804 397.347 215.967C397.179 216.121 397.026 216.304 396.89 216.518C396.764 216.734 396.66 216.976 396.579 217.243C396.511 217.501 396.464 217.759 396.439 218.014C396.404 218.387 396.459 218.711 396.604 218.987C396.752 219.252 397.025 219.42 397.423 219.492C397.654 219.534 397.888 219.533 398.123 219.489C398.371 219.436 398.603 219.353 398.819 219.24C399.034 219.127 399.239 218.985 399.433 218.814C399.628 218.633 399.793 218.44 399.928 218.237C400.001 218.131 400.069 217.997 400.131 217.835C400.195 217.662 400.237 217.485 400.259 217.305C400.283 217.114 400.273 216.928 400.23 216.747C400.187 216.566 400.098 216.403 399.961 216.259C399.769 216.062 399.524 215.92 399.225 215.834C398.927 215.748 398.594 215.758 398.228 215.865C398.157 215.896 398.082 215.893 398.001 215.857C397.934 215.812 397.92 215.739 397.96 215.638ZM408.987 216.652C408.752 217.531 408.497 218.428 408.223 219.343C407.961 220.249 407.671 221.097 407.355 221.885C407.277 222.077 407.193 222.208 407.105 222.279C407.016 222.35 406.9 222.389 406.758 222.395C406.639 222.396 406.483 222.33 406.29 222.197C406.108 222.067 405.965 221.9 405.861 221.697C405.726 221.423 405.579 221.126 405.421 220.805C405.275 220.475 405.107 220.141 404.919 219.804C404.744 219.458 404.551 219.114 404.342 218.773C404.143 218.434 403.925 218.113 403.687 217.809C403.53 218.497 403.379 219.179 403.235 219.858C403.092 220.526 402.969 221.203 402.866 221.889C402.849 221.983 402.757 222.015 402.589 221.985C402.389 221.949 402.245 221.82 402.155 221.598C402.067 221.365 402.032 221.142 402.049 220.928C402.055 220.713 402.094 220.411 402.164 220.022C402.236 219.623 402.317 219.21 402.405 218.781C402.505 218.355 402.601 217.944 402.694 217.549C402.787 217.154 402.865 216.843 402.928 216.616C402.995 216.368 403.086 216.194 403.202 216.096C403.327 215.999 403.437 215.965 403.529 215.993C403.735 216.051 403.86 216.139 403.904 216.255C403.961 216.363 403.981 216.491 403.965 216.64C404.293 216.981 404.586 217.338 404.844 217.709C405.112 218.083 405.348 218.456 405.552 218.829C405.765 219.203 405.953 219.573 406.115 219.938C406.288 220.295 406.451 220.622 406.603 220.92C406.843 220.313 407.071 219.628 407.285 218.865C407.51 218.103 407.741 217.305 407.979 216.47C407.988 216.363 408.069 216.275 408.223 216.205C408.378 216.125 408.513 216.1 408.626 216.131C408.916 216.205 409.037 216.379 408.987 216.652ZM415.455 218.371C415.463 218.568 415.464 218.801 415.458 219.071C415.455 219.33 415.432 219.603 415.391 219.888C415.363 220.165 415.317 220.449 415.253 220.741C415.189 221.033 415.106 221.311 415.004 221.574C414.884 221.878 414.706 222.143 414.469 222.372C414.233 222.6 413.959 222.795 413.648 222.955C413.347 223.118 413.022 223.238 412.672 223.316C412.334 223.385 411.997 223.422 411.66 223.426C411.336 223.422 411.019 223.375 410.71 223.287C410.413 223.19 410.156 223.052 409.939 222.872C409.695 222.665 409.512 222.421 409.389 222.138C409.267 221.856 409.25 221.533 409.337 221.17C409.423 220.817 409.514 220.497 409.609 220.211C409.706 219.914 409.811 219.635 409.923 219.373C410.046 219.114 410.175 218.855 410.308 218.597C410.444 218.329 410.586 218.051 410.736 217.764C410.813 217.637 410.922 217.575 411.062 217.579C411.116 217.578 411.179 217.589 411.251 217.613C411.282 217.619 411.321 217.647 411.365 217.699C411.423 217.741 411.472 217.799 411.513 217.872C411.554 217.944 411.583 218.025 411.599 218.115C411.626 218.206 411.614 218.302 411.563 218.401C411.408 218.72 411.252 219.044 411.094 219.373C410.937 219.702 410.793 220.018 410.662 220.319C410.542 220.623 410.449 220.899 410.382 221.147C410.328 221.386 410.32 221.58 410.358 221.728C410.459 221.952 410.618 222.116 410.838 222.221C411.07 222.317 411.321 222.368 411.591 222.373C411.861 222.378 412.125 222.355 412.384 222.305C412.655 222.245 412.89 222.174 413.089 222.09C413.407 221.953 413.655 221.753 413.832 221.493C414.02 221.234 414.16 220.939 414.252 220.609C414.345 220.279 414.403 219.927 414.428 219.552C414.463 219.179 414.481 218.808 414.483 218.44C414.479 218.342 414.506 218.222 414.565 218.081C414.623 217.939 414.728 217.839 414.879 217.78C415.042 217.722 415.171 217.756 415.267 217.882C415.374 218.01 415.437 218.173 415.455 218.371ZM423.057 219.19C422.822 220.068 422.567 220.965 422.292 221.881C422.03 222.787 421.741 223.635 421.425 224.423C421.346 224.615 421.263 224.746 421.174 224.817C421.086 224.887 420.97 224.926 420.828 224.933C420.709 224.933 420.553 224.867 420.36 224.735C420.178 224.604 420.034 224.438 419.93 224.235C419.796 223.961 419.649 223.664 419.49 223.342C419.344 223.013 419.177 222.679 418.989 222.342C418.813 221.996 418.621 221.652 418.412 221.311C418.213 220.971 417.995 220.65 417.757 220.347C417.6 221.034 417.449 221.717 417.304 222.395C417.162 223.063 417.039 223.74 416.936 224.426C416.919 224.521 416.826 224.553 416.658 224.523C416.459 224.487 416.314 224.357 416.225 224.135C416.137 223.903 416.101 223.68 416.118 223.466C416.125 223.25 416.163 222.948 416.234 222.56C416.306 222.161 416.387 221.748 416.475 221.319C416.574 220.893 416.67 220.482 416.764 220.087C416.857 219.692 416.935 219.381 416.998 219.153C417.065 218.905 417.156 218.732 417.271 218.634C417.397 218.537 417.506 218.503 417.599 218.53C417.805 218.589 417.93 218.677 417.974 218.793C418.03 218.901 418.05 219.029 418.034 219.178C418.363 219.519 418.656 219.875 418.914 220.247C419.182 220.62 419.418 220.994 419.621 221.366C419.835 221.741 420.023 222.111 420.184 222.476C420.358 222.832 420.521 223.16 420.673 223.458C420.913 222.851 421.14 222.166 421.355 221.403C421.579 220.641 421.811 219.843 422.049 219.008C422.058 218.901 422.139 218.813 422.292 218.743C422.448 218.662 422.582 218.638 422.696 218.669C422.986 218.743 423.106 218.917 423.057 219.19ZM426.531 222.174C426.479 222.164 426.411 222.147 426.329 222.121C426.259 222.087 426.191 222.047 426.123 222.002C426.068 221.949 426.018 221.891 425.976 221.83C425.934 221.757 425.92 221.689 425.931 221.626C425.946 221.542 426.012 221.451 426.127 221.353C426.255 221.246 426.44 221.182 426.682 221.16C427.011 221.144 427.349 221.161 427.697 221.213C428.047 221.255 428.394 221.317 428.736 221.401C429.081 221.474 429.418 221.556 429.748 221.648C430.08 221.73 430.393 221.802 430.685 221.866C430.853 221.896 430.957 221.948 430.998 222.02C431.039 222.092 431.052 222.171 431.037 222.255C431.003 222.444 430.892 222.575 430.705 222.65C430.518 222.725 430.341 222.742 430.175 222.701C429.999 222.658 429.811 222.619 429.611 222.583C429.422 222.549 429.223 222.513 429.013 222.475C428.96 222.769 428.91 223.101 428.865 223.472C428.831 223.835 428.797 224.203 428.762 224.576C428.727 224.949 428.695 225.306 428.665 225.648C428.646 225.991 428.632 226.281 428.621 226.518C428.627 226.605 428.592 226.68 428.515 226.742C428.452 226.796 428.362 226.812 428.246 226.791C428.026 226.752 427.888 226.586 427.833 226.294C427.726 225.744 427.691 225.131 427.727 224.454C427.098 224.698 426.502 224.813 425.941 224.799C425.38 224.784 424.889 224.679 424.47 224.484C424.062 224.281 423.748 224.007 423.529 223.664C423.322 223.313 423.257 222.922 423.335 222.491C423.409 222.082 423.563 221.654 423.795 221.209C424.028 220.763 424.321 220.344 424.674 219.953C425.026 219.561 425.419 219.22 425.851 218.929C426.296 218.63 426.766 218.428 427.262 218.322C427.427 218.309 427.575 218.33 427.706 218.386C427.849 218.433 427.971 218.51 428.071 218.614C428.184 218.711 428.277 218.825 428.35 218.957C428.436 219.081 428.506 219.202 428.561 219.321C428.6 219.403 428.617 219.488 428.612 219.574C428.608 219.66 428.562 219.733 428.475 219.793C428.297 219.88 428.162 219.845 428.071 219.688C427.933 219.435 427.805 219.276 427.686 219.212C427.58 219.138 427.41 219.151 427.175 219.249C426.939 219.359 426.667 219.543 426.36 219.801C426.054 220.05 425.758 220.338 425.471 220.665C425.196 220.984 424.961 221.327 424.765 221.692C424.57 222.048 424.464 222.392 424.447 222.724C424.427 223.014 424.548 223.247 424.808 223.424C425.071 223.59 425.381 223.7 425.74 223.754C426.11 223.81 426.484 223.807 426.864 223.746C427.254 223.686 427.568 223.569 427.805 223.395C427.827 223.215 427.849 223.035 427.871 222.854C427.895 222.663 427.923 222.479 427.955 222.3C427.72 222.28 427.486 222.259 427.251 222.238C427.018 222.207 426.778 222.186 426.531 222.174Z" fill="black"/>
<path d="M406.939 200.341L404.759 196.398L407.723 195.905L406.939 200.341Z" fill="#CC0821"/>
<path d="M404.626 198.953L403.059 195.492L405.608 195.283L404.626 198.953Z" fill="#CC0821"/>
<path d="M385.399 211.948L382.218 212.48L382.832 210.001L385.399 211.948Z" fill="#CC0821"/>
<path d="M394.615 230.101L394.264 234.681L391.87 233.788L394.615 230.101Z" fill="#CC0821"/>
<path fill-rule="evenodd" clip-rule="evenodd" d="M368.213 208.146C367.791 217.583 368.415 226.905 370.081 236.111C367.085 234.643 365.839 232.158 366.346 228.653C365.757 221.436 366.379 214.6 368.213 208.146Z" fill="black"/>
<path opacity="0.961" fill-rule="evenodd" clip-rule="evenodd" d="M103.007 232.382C101.627 232.626 100.381 232.315 99.272 231.45C104.117 227.561 107.852 222.9 110.478 217.467C113.065 215.465 115.242 212.98 117.015 210.01C118.26 211.874 118.26 213.738 117.015 215.603C112.654 221.503 107.985 227.096 103.007 232.382Z" fill="black"/>
<path fill-rule="evenodd" clip-rule="evenodd" d="M286.037 219.332C298.627 221.423 303.296 228.881 300.044 241.704C293.181 251.827 286.956 251.204 281.368 239.839C279.399 232.093 280.957 225.256 286.037 219.332Z" fill="black"/>
<path fill-rule="evenodd" clip-rule="evenodd" d="M215.066 237.975C224.925 240.682 230.528 247.207 231.875 257.55C229.843 265.759 224.862 267.935 216.934 264.075C210.425 255.652 209.803 246.951 215.066 237.975Z" fill="#110F0A"/>
<path fill-rule="evenodd" clip-rule="evenodd" d="M216.934 239.839C218.912 242.766 217.978 245.252 214.132 247.297C213.572 244.377 214.506 241.892 216.934 239.839Z" fill="#D5D6D5"/>
<path fill-rule="evenodd" clip-rule="evenodd" d="M286.194 222.128C288.172 225.055 287.238 227.54 283.393 229.585C282.833 226.666 283.766 224.181 286.194 222.128Z" fill="#D5D6D5"/>
<path fill-rule="evenodd" clip-rule="evenodd" d="M258.022 245.432C262.424 245.128 266.781 245.438 271.096 246.364C264.027 247.435 257.178 248.676 250.552 250.093C253.088 248.352 255.579 246.797 258.022 245.432Z" fill="#2E260B"/>
<path fill-rule="evenodd" clip-rule="evenodd" d="M258.022 251.025C263.041 250.72 268.022 251.031 272.963 251.957C276.29 262.353 272.242 267.635 260.824 267.804C252.072 268.494 248.337 264.765 249.618 256.618C252.249 254.23 255.051 252.366 258.022 251.025Z" fill="#0D0B08"/>
<path fill-rule="evenodd" clip-rule="evenodd" d="M343.934 249.161C348.439 249.522 350.306 252.007 349.537 256.618C346.866 256.765 344.375 256.144 342.066 254.754C340.576 255.606 339.954 256.849 340.199 258.482C329.624 251.541 330.558 249.677 343 252.889C346.145 252.548 346.455 251.305 343.934 249.161Z" fill="black"/>
<path opacity="0.788" fill-rule="evenodd" clip-rule="evenodd" d="M173.978 282.719C175.575 280.797 176.82 278.623 177.713 276.194C173.563 269.883 169.828 263.358 166.507 256.618C153.107 266.206 139.411 266.518 125.419 257.55C114.839 250.538 111.727 241.526 116.081 230.517C117.87 229.673 119.428 228.431 120.75 226.789C120.827 231.496 119.269 235.846 116.081 239.839C129.717 261.889 147.147 265.617 168.375 251.025C171.981 259.573 176.34 267.653 181.448 275.261C180.799 279.639 178.307 282.126 173.978 282.719Z" fill="black"/>
<path fill-rule="evenodd" clip-rule="evenodd" d="M259.89 252.89C269.538 253.885 269.538 255.75 259.89 258.483C258.644 257.862 257.4 257.239 256.154 256.618C257.542 255.347 258.786 254.103 259.89 252.89Z" fill="#CDCECE"/>
<path fill-rule="evenodd" clip-rule="evenodd" d="M362.61 217.467C363.856 221.196 365.1 224.924 366.346 228.653C365.839 232.158 367.085 234.643 370.081 236.11C370.703 240.46 373.194 242.947 377.551 243.568C381.152 247.248 385.509 250.045 390.625 251.957C398.809 252.502 406.901 253.434 414.904 254.754C418.165 256.092 419.409 257.957 418.64 260.347C424.526 252.002 432.619 247.651 442.919 247.296C444.884 247.574 446.751 247.265 448.522 246.364C450.825 243.256 453.316 240.46 455.993 237.975C457.341 237.195 458.275 235.954 458.794 234.246C460.875 243.777 457.761 251.234 449.456 256.618C448.834 254.754 448.21 252.89 447.588 251.025C447.37 261.096 442.701 268.244 433.581 272.465C420.726 276.861 407.652 278.105 394.36 276.194C395.606 276.815 396.85 277.437 398.096 278.058C379.139 297.417 356.105 306.118 328.993 304.159C322.144 297.617 315.297 290.78 308.448 283.651C324.732 273.246 341.853 264.236 359.809 256.618C360.483 250.979 361.417 245.386 362.61 239.839C360.468 235.54 357.978 231.5 355.14 227.721C355.175 224.304 356.419 221.507 358.875 219.331C359.514 217.769 360.758 217.146 362.61 217.467Z" fill="#DCB802"/>
<path fill-rule="evenodd" clip-rule="evenodd" d="M284.169 290.177C283.945 288.152 282.699 286.908 280.434 286.448C277.438 287.266 274.637 288.51 272.029 290.177C265.984 287.757 261.939 289.621 259.89 295.77C253.297 291.711 247.694 286.427 243.081 279.923C239.766 277.24 236.031 275.376 231.875 274.33C233.431 272.777 234.988 271.222 236.544 269.669C242.664 280.126 251.691 283.543 263.625 279.923C264.794 278.525 265.728 276.97 266.426 275.262C277.464 279.229 285.245 275.191 289.772 263.144C289.016 261.382 287.77 260.138 286.037 259.415C289.15 258.172 292.262 258.172 295.375 259.415C291.346 269.632 287.611 279.886 284.169 290.177Z" fill="#141007"/>
<path fill-rule="evenodd" clip-rule="evenodd" d="M304.713 301.362C301.652 303.176 299.161 305.661 297.243 308.82C296.621 308.82 295.997 308.82 295.375 308.82C293.507 305.091 291.64 301.362 289.772 297.634C290.394 295.148 291.018 292.661 291.64 290.176C293.492 290.497 294.736 289.874 295.375 288.312C305.671 284.236 313.142 287.344 317.787 297.634C313.175 298.879 308.818 300.122 304.713 301.362Z" fill="#1276B3"/>
<path fill-rule="evenodd" clip-rule="evenodd" d="M284.169 290.176C276.895 294.906 268.802 296.771 259.89 295.769C261.938 289.621 265.984 287.757 272.029 290.176C274.637 288.51 277.438 287.266 280.434 286.448C282.699 286.908 283.945 288.152 284.169 290.176Z" fill="#D5521C"/>
<path fill-rule="evenodd" clip-rule="evenodd" d="M284.169 290.176C284.031 293.739 282.163 295.915 278.566 296.701C271.979 298.208 265.754 297.897 259.89 295.769C268.802 296.77 276.895 294.906 284.169 290.176Z" fill="#2C190D"/>
<path fill-rule="evenodd" clip-rule="evenodd" d="M291.64 290.176C291.018 292.661 290.394 295.148 289.772 297.634C286.111 301.332 281.754 302.885 276.698 302.294C283.162 299.862 288.143 295.823 291.64 290.176Z" fill="black"/>
<path opacity="0.906" fill-rule="evenodd" clip-rule="evenodd" d="M173.978 282.719C178.008 285.925 182.989 287.478 188.919 287.38C185.936 291.459 185.313 295.497 187.051 299.498C185.531 302.803 183.04 303.735 179.581 302.294C186.396 292.906 183.906 287.933 172.11 287.38C169.527 284.656 170.151 283.103 173.978 282.719Z" fill="black"/>
<path fill-rule="evenodd" clip-rule="evenodd" d="M304.713 301.362C317.113 298.334 325.827 302.374 330.86 313.48C328.432 318.024 326.565 322.684 325.257 327.463C324.635 327.463 324.012 327.463 323.39 327.463C315.23 327.524 307.137 326.903 299.11 325.598C298.246 320.039 297.624 314.446 297.243 308.819C299.161 305.661 301.652 303.176 304.713 301.362Z" fill="#EFEC03"/>
<path fill-rule="evenodd" clip-rule="evenodd" d="M248.684 303.227C251.797 303.227 254.909 303.227 258.022 303.227C258.022 306.334 258.022 309.44 258.022 312.548C250.598 312.522 244.373 315.007 239.346 320.006C237.528 315.442 236.906 310.47 237.478 305.091C241.652 305.641 245.387 305.018 248.684 303.227Z" fill="#0380C3"/>
<path fill-rule="evenodd" clip-rule="evenodd" d="M299.11 325.599C306.797 332.163 314.892 332.786 323.39 327.463C324.012 327.463 324.635 327.463 325.257 327.463C328.944 323.869 331.746 319.519 333.662 314.413C338.738 318.647 342.161 323.928 343.934 330.26C360.575 336.554 373.338 347.428 382.221 362.886C386.176 379.708 380.263 391.205 364.478 397.376C347.779 402.799 333.15 399.382 320.588 387.122C313.037 372.282 315.839 369.485 328.993 378.733C331.482 379.976 333.974 379.976 336.463 378.733C329.678 377.204 324.075 373.786 319.654 368.479C308.335 378.048 295.261 383.641 280.434 385.258C276.398 397.665 271.107 409.472 264.559 420.68C251.982 402.548 234.861 391.052 213.198 386.19C218.729 379.819 223.086 372.673 226.272 364.75C221.603 358.292 219.735 351.455 220.669 344.242C224.414 340.823 228.461 337.715 232.809 334.921C235.991 338.412 239.415 341.52 243.081 344.242C245.18 346.683 247.982 347.924 251.485 347.971C258.145 347.829 263.438 345.342 267.36 340.514C270.109 337.499 271.355 333.77 271.096 329.327C271.206 324.463 269.96 320.112 267.36 316.277C276.53 313.818 285.869 311.954 295.375 310.684C294.648 316.376 295.892 321.348 299.11 325.599Z" fill="#0182C7"/>
<path fill-rule="evenodd" clip-rule="evenodd" d="M267.36 316.277C269.96 320.112 271.206 324.464 271.096 329.328C271.355 333.77 270.11 337.499 267.36 340.514C270.535 317.629 261.197 310.792 239.346 320.006C244.373 315.008 250.598 312.522 258.022 312.549C258.022 309.441 258.022 306.335 258.022 303.227C254.909 303.227 251.797 303.227 248.684 303.227C251.945 301.888 253.189 300.024 252.419 297.634C254.66 299.556 257.152 301.111 259.89 302.295C279.698 303.249 279.698 304.802 259.89 306.955C261.007 309.37 261.94 311.855 262.691 314.413C263.944 315.815 265.5 316.438 267.36 316.277Z" fill="black"/>
<path fill-rule="evenodd" clip-rule="evenodd" d="M267.36 340.513C259.636 343.651 251.543 344.894 243.081 344.242C240.623 339.913 238.134 335.561 235.61 331.191C236.501 327.282 237.745 323.553 239.346 320.005C261.197 310.792 270.535 317.628 267.36 340.513Z" fill="#F0EE03"/>
<path fill-rule="evenodd" clip-rule="evenodd" d="M295.375 308.82C295.997 308.82 296.621 308.82 297.243 308.82C297.624 314.447 298.246 320.04 299.11 325.599C295.892 321.348 294.649 316.376 295.375 310.684C285.869 311.954 276.53 313.818 267.36 316.277C275.503 310.058 284.842 307.571 295.375 308.82Z" fill="#1D1D17"/>
<path fill-rule="evenodd" clip-rule="evenodd" d="M230.007 305.091C231.972 304.814 233.84 305.123 235.61 306.024C233.184 311.868 233.184 317.771 235.61 323.735C234.493 326.149 233.56 328.634 232.809 331.192C227.068 334.121 223.022 338.471 220.669 344.243C219.237 342.99 217.991 341.437 216.934 339.582C221.599 335.018 224.401 329.736 225.338 323.735C220.762 332.654 214.226 339.8 205.728 345.175C196.205 346.909 186.867 349.394 177.713 352.632C185.128 352.024 192.598 352.024 200.125 352.632C205.035 358.596 204.413 364.189 198.257 369.411C192.257 370.722 186.344 370.41 180.515 368.479C174.785 375.599 167.626 377.463 159.037 374.072C150.761 378.725 142.357 378.725 133.824 374.072C122.21 380.036 111.627 378.793 102.074 370.343C101.145 366.037 100.835 361.687 101.14 357.293C108.508 359.448 115.978 360.38 123.551 360.089C128.532 355.74 128.532 351.389 123.551 347.039C115.53 345.365 108.371 341.948 102.074 336.785C99.1282 328.248 101.93 322.655 110.478 320.006C117.569 323.673 124.418 327.713 131.022 332.124C135.336 333.051 139.694 333.36 144.096 333.057C144.112 329.686 143.179 326.578 141.294 323.735C125.518 309.447 127.698 302.301 147.831 302.295C156.301 311.426 163.149 321.68 168.375 333.057C170.411 331.395 170.411 329.531 168.375 327.464C181.813 310.502 199.243 302.112 220.669 302.295C224.005 303.758 226.806 305.932 229.074 308.82C229.94 307.713 230.252 306.469 230.007 305.091Z" fill="#DDB901"/>
<path fill-rule="evenodd" clip-rule="evenodd" d="M230.007 305.091C235.844 303.266 242.069 302.643 248.684 303.226C245.387 305.018 241.652 305.641 237.478 305.091C236.907 310.469 237.528 315.442 239.346 320.005C237.745 323.553 236.501 327.282 235.61 331.192C238.134 335.562 240.623 339.913 243.081 344.242C239.415 341.52 235.991 338.412 232.809 334.92C228.461 337.715 224.414 340.823 220.669 344.242C223.022 338.47 227.068 334.12 232.809 331.192C233.56 328.634 234.494 326.149 235.61 323.734C233.184 317.77 233.184 311.868 235.61 306.023C233.84 305.122 231.972 304.813 230.007 305.091Z" fill="black"/>
<path fill-rule="evenodd" clip-rule="evenodd" d="M230.007 305.091C230.252 306.469 229.94 307.712 229.073 308.82C226.806 305.932 224.005 303.758 220.669 302.295C199.243 302.112 181.813 310.501 168.375 327.463C170.411 329.531 170.411 331.395 168.375 333.056C163.149 321.68 156.301 311.426 147.831 302.295C127.698 302.3 125.518 309.446 141.294 323.734C143.179 326.578 144.112 329.685 144.096 333.056C139.693 333.36 135.336 333.051 131.022 332.124C124.418 327.713 117.569 323.673 110.478 320.006C101.93 322.655 99.1282 328.248 102.073 336.785C108.371 341.947 115.53 345.365 123.551 347.039C128.532 351.388 128.532 355.74 123.551 360.089C115.978 360.38 108.508 359.448 101.14 357.293C102.002 354.72 103.87 353.476 106.743 353.564C111.1 354.807 115.459 356.049 119.816 357.293C122.126 357.188 123.994 356.256 125.419 354.496C117.05 349.218 108.646 343.935 100.206 338.649C98.4017 331.904 99.3355 325.69 103.007 320.006C105.383 318.988 107.874 318.367 110.478 318.141C119.45 320.601 127.854 324.329 135.691 329.328C136.625 328.707 137.559 328.084 138.493 327.463C136.145 323.401 133.343 319.672 130.088 316.277C126.665 301.051 132.578 295.149 147.831 298.566C157.15 303.833 163.375 311.601 166.507 321.87C175.026 315.509 183.118 308.984 190.787 302.295C190.159 300.374 188.913 299.442 187.051 299.498C192.32 291.802 195.122 293.046 195.456 303.227C197.359 301.014 199.538 299.149 201.993 297.634C206.589 299.688 211.258 299.688 216 297.634C221.646 298.43 226.315 300.917 230.007 305.091Z" fill="black"/>
<path fill-rule="evenodd" clip-rule="evenodd" d="M205.728 388.987C215.034 388.823 223.749 390.998 231.875 395.512C245.361 403.689 255.943 414.565 263.625 428.138C262.398 436.181 259.597 443.638 255.221 450.51C250.326 453.29 245.033 454.533 239.346 454.239C238.77 449.719 239.394 445.37 241.213 441.188C242.887 443.064 244.131 443.064 244.949 441.188C242.377 434.892 238.02 430.541 231.875 428.138C223.702 415.684 213.74 404.498 201.993 394.58C203.287 392.682 204.531 390.817 205.728 388.987Z" fill="#0281C6"/>
<path fill-rule="evenodd" clip-rule="evenodd" d="M205.728 388.986C204.531 390.817 203.287 392.681 201.993 394.579C213.74 404.498 223.702 415.684 231.875 428.137C229.91 428.415 228.043 428.106 226.272 427.205C218.654 415.089 209.316 404.524 198.257 395.512C190.787 394.268 183.316 394.268 175.846 395.512C174.344 398.813 172.164 401.61 169.309 403.901C168.687 401.017 169.621 398.532 172.11 396.444C171.432 395.17 170.81 393.927 170.243 392.715C176.611 392.189 182.836 390.946 188.919 388.986C195.009 392.631 200.612 392.631 205.728 388.986Z" fill="black"/>
<path fill-rule="evenodd" clip-rule="evenodd" d="M170.243 392.715C149.004 390.336 140.599 399.658 145.029 420.68C148.903 424.319 152.95 427.737 157.169 430.934C153.516 430.52 150.091 428.967 146.897 426.273C145.651 431.866 145.651 437.459 146.897 443.052C153.94 451.641 162.966 456.612 173.978 457.967C177.713 459.21 181.449 460.452 185.184 461.696C169.04 463.888 155.656 458.916 145.029 446.781C145.056 434.752 143.498 422.634 140.36 410.426C142.387 393.476 151.725 386.639 168.375 389.918C169.413 390.632 170.035 391.565 170.243 392.715Z" fill="black"/>
<path fill-rule="evenodd" clip-rule="evenodd" d="M452.257 187.638C452.879 187.638 456.305 187.638 456.927 187.638C460.662 193.231 461.05 193.965 462.529 198.824C462.787 213.196 463.099 227.49 463.463 241.704C457.248 251.02 451.021 260.341 444.787 269.669C431.555 279.732 416.923 282.838 400.897 278.99C383.336 298.784 361.234 309.349 334.596 310.684C340.292 315.211 344.649 320.804 347.669 327.463C393.221 349.302 398.824 378.199 364.478 414.155C370.268 419.36 373.381 425.886 373.816 433.731C371.513 440.718 368.712 447.553 365.412 454.238C355.463 463.842 345.815 463.842 336.463 454.238C344.565 459.006 352.659 459.006 360.743 454.238C363.055 449.264 363.055 444.294 360.743 439.324C361.365 438.703 361.988 438.08 362.61 437.459C366.842 445.079 369.332 444.458 370.081 435.595C369.282 427.914 366.48 421.077 361.676 415.087C346.9 422.793 332.27 422.481 317.787 414.155C315.527 412.218 313.659 410.042 312.184 407.63C328.836 421.199 346.268 422.131 364.478 410.426C367.737 407.272 368.359 403.855 366.346 400.173C348.194 405.404 332.319 401.675 318.721 388.987C317.073 376.958 312.092 375.093 303.779 383.394C302.857 386.44 302.547 389.548 302.846 392.715C301.348 390.008 300.414 386.902 300.044 383.394C298.156 384.954 295.976 385.575 293.507 385.258C293.95 387.665 293.328 389.529 291.64 390.851C289.675 387.577 286.562 386.334 282.302 387.122C279.769 400.588 274.166 412.707 265.493 423.477C268.227 437.916 263.248 449.102 250.552 457.035C246.926 458.42 243.503 458.109 240.279 456.103C237.739 474.159 227.467 481.307 209.463 477.543C200.618 473.963 193.148 468.682 187.052 461.696C195.546 464.692 203.638 468.732 211.331 473.814C222.503 475.751 230.908 471.713 236.544 461.696C237.934 455.411 237 449.509 233.743 443.985C236.604 442.68 238.472 440.506 239.346 437.459C236.811 434.316 234.322 431.21 231.875 428.138C238.02 430.541 242.377 434.892 244.949 441.188C244.131 443.064 242.887 443.064 241.213 441.188C239.394 445.37 238.77 449.719 239.346 454.238C245.033 454.533 250.326 453.29 255.221 450.51C259.597 443.638 262.398 436.18 263.625 428.138C255.943 414.565 245.361 403.689 231.875 395.512C223.749 390.998 215.034 388.822 205.728 388.987C207.052 387.301 208.92 386.68 211.331 387.122C214.022 379.266 217.758 371.809 222.537 364.75C218.331 358.553 215.529 351.716 214.132 344.242C210.709 346.418 207.284 348.592 203.86 350.768C209.551 362.912 205.194 371.301 190.787 375.936C187.474 375.215 184.36 373.973 181.449 372.207C175.868 379.035 169.021 380.899 160.904 377.8C156.969 379.92 152.924 381.785 148.765 383.394C144.17 381.346 139.501 379.482 134.757 377.8C124.028 382.911 113.444 382.599 103.007 376.868C96.5715 370.638 95.9496 364.113 101.14 357.293C100.835 361.687 101.145 366.037 102.074 370.343C111.627 378.792 122.211 380.036 133.824 374.072C142.357 378.725 150.761 378.725 159.037 374.072C167.626 377.463 174.785 375.599 180.515 368.479C186.344 370.41 192.257 370.722 198.257 369.411C204.413 364.189 205.035 358.596 200.125 352.632C192.598 352.024 185.128 352.024 177.713 352.632C186.867 349.394 196.205 346.908 205.728 345.175C214.226 339.8 220.763 332.654 225.338 323.735C224.401 329.736 221.599 335.018 216.934 339.582C217.991 341.437 219.237 342.99 220.669 344.242C219.735 351.455 221.603 358.292 226.272 364.75C223.086 372.674 218.729 379.82 213.199 386.19C234.861 391.052 251.982 402.548 264.559 420.68C271.107 409.472 276.398 397.665 280.434 385.258C295.261 383.641 308.335 378.048 319.654 368.479C324.075 373.787 329.678 377.204 336.463 378.733C333.974 379.976 331.482 379.976 328.993 378.733C315.839 369.486 313.037 372.282 320.588 387.122C333.15 399.382 347.779 402.799 364.478 397.376C380.263 391.205 386.176 379.708 382.221 362.886C373.338 347.429 360.575 336.554 343.934 330.26C342.161 323.928 338.738 318.647 333.662 314.413C331.746 319.519 328.944 323.869 325.257 327.463C326.565 322.685 328.432 318.024 330.86 313.481C325.827 302.375 317.113 298.335 304.713 301.362C308.818 300.123 313.176 298.879 317.787 297.634C313.142 287.345 305.671 284.237 295.375 288.312C302.412 283.232 309.883 278.571 317.787 274.33C322.841 269.909 327.198 264.939 330.86 259.415C334.373 259.594 337.485 259.282 340.199 258.483C343.816 260.731 346.93 260.11 349.537 256.618C355.818 256.307 357.685 253.51 355.14 248.229C356.128 245.322 357.373 242.526 358.875 239.839C355.586 236.571 353.097 232.842 351.404 228.653C351.733 223.573 354.225 220.465 358.875 219.331C356.419 221.507 355.175 224.304 355.14 227.721C357.979 231.5 360.468 235.54 362.61 239.839C361.417 245.386 360.483 250.979 359.809 256.618C341.853 264.236 324.733 273.246 308.449 283.651C315.297 290.78 322.144 297.617 328.993 304.159C356.105 306.118 379.139 297.418 398.096 278.058C396.85 277.437 395.606 276.815 394.36 276.194C407.652 278.105 420.726 276.861 433.581 272.465C442.701 268.244 447.37 261.096 447.588 251.025C448.21 252.89 448.834 254.754 449.456 256.618C457.761 251.234 460.875 243.777 458.794 234.246C458.275 235.954 457.341 237.196 455.993 237.975C459.259 225.105 460.193 212.055 458.794 198.824C456.122 195.349 453.944 191.62 452.257 187.638Z" fill="black"/>
<path fill-rule="evenodd" clip-rule="evenodd" d="M291.64 390.851C287.735 415.044 295.827 433.997 315.919 447.713C323.478 451.578 330.636 451.268 337.397 446.781C337.761 449.24 337.449 451.727 336.463 454.238C311.736 454.466 295.861 442.657 288.838 418.816C287.593 411.358 287.593 403.901 288.838 396.444C289.272 394.137 290.205 392.273 291.64 390.851Z" fill="black"/>
<path fill-rule="evenodd" clip-rule="evenodd" d="M302.846 392.715C303.221 399.483 306.334 404.455 312.184 407.63C313.659 410.042 315.527 412.218 317.787 414.155C332.27 422.481 346.9 422.793 361.676 415.087C366.48 421.077 369.281 427.914 370.081 435.595C369.332 444.458 366.842 445.079 362.61 437.459C361.988 438.08 361.365 438.703 360.743 439.324C363.055 444.294 363.055 449.264 360.743 454.239C352.659 459.006 344.565 459.006 336.463 454.239C337.449 451.727 337.761 449.24 337.397 446.781C330.636 451.269 323.477 451.578 315.919 447.713C295.827 433.997 287.734 415.044 291.64 390.851C293.328 389.529 293.95 387.665 293.507 385.258C295.976 385.575 298.156 384.954 300.044 383.394C300.414 386.902 301.348 390.008 302.846 392.715Z" fill="#DDB902"/>
<path fill-rule="evenodd" clip-rule="evenodd" d="M312.184 407.63C306.334 404.455 303.221 399.483 302.846 392.715C302.547 389.547 302.857 386.44 303.779 383.393C312.092 375.093 317.073 376.958 318.721 388.986C332.319 401.675 348.194 405.404 366.346 400.172C368.359 403.854 367.737 407.272 364.478 410.426C346.268 422.131 328.836 421.198 312.184 407.63Z" fill="#097DBF"/>
<path fill-rule="evenodd" clip-rule="evenodd" d="M267.36 340.514C263.438 345.342 258.145 347.829 251.485 347.971C247.982 347.924 245.18 346.683 243.081 344.242C251.543 344.895 259.636 343.651 267.36 340.514Z" fill="#181F1F"/>
<path fill-rule="evenodd" clip-rule="evenodd" d="M299.11 325.599C307.137 326.904 315.23 327.524 323.39 327.463C314.892 332.786 306.798 332.163 299.11 325.599Z" fill="#1D211D"/>
<path fill-rule="evenodd" clip-rule="evenodd" d="M442.919 247.297C432.619 247.651 424.526 252.003 418.64 260.347C419.409 257.957 418.165 256.093 414.904 254.754C420.623 252.532 426.226 249.735 431.713 246.365C435.844 244.894 439.58 245.205 442.919 247.297Z" fill="black"/>
<path fill-rule="evenodd" clip-rule="evenodd" d="M367.279 233.314C370.335 235.348 376.448 241.11 378.485 244.5C373.732 243.823 367.958 238.059 367.279 233.314Z" fill="#030303"/>
<path fill-rule="evenodd" clip-rule="evenodd" d="M173.978 457.967C178.996 457.661 183.977 457.973 188.919 458.899C187.881 459.613 187.259 460.546 187.052 461.696C186.43 461.696 185.806 461.696 185.184 461.696C181.449 460.452 177.713 459.211 173.978 457.967Z" fill="#635309"/>
<path fill-rule="evenodd" clip-rule="evenodd" d="M170.243 392.716C170.81 393.928 171.432 395.171 172.11 396.444C169.621 398.533 168.687 401.018 169.309 403.902C172.164 401.611 174.344 398.814 175.846 395.512C183.316 394.269 190.787 394.269 198.257 395.512C209.316 404.525 218.654 415.09 226.272 427.206C228.043 428.107 229.91 428.416 231.875 428.138C234.322 431.211 236.811 434.317 239.346 437.46C238.472 440.506 236.604 442.68 233.743 443.985C237 449.509 237.934 455.412 236.544 461.696C230.908 471.713 222.503 475.752 211.331 473.815C203.638 468.732 195.546 464.692 187.051 461.696C187.259 460.546 187.881 459.614 188.919 458.9C183.977 457.973 178.996 457.662 173.978 457.968C162.966 456.612 153.94 451.642 146.897 443.053C145.651 437.46 145.651 431.867 146.897 426.274C150.091 428.968 153.516 430.521 157.169 430.935C152.95 427.737 148.903 424.32 145.029 420.681C140.599 399.659 149.004 390.337 170.243 392.716Z" fill="#DAB703"/>
<path fill-rule="evenodd" clip-rule="evenodd" d="M194.522 444.917C191.517 444.16 189.026 444.16 187.052 444.917C188.153 447.338 190.021 448.891 192.654 449.578C190.787 450.198 188.919 450.821 187.052 451.442C189.052 453.03 190.919 454.583 192.654 456.103C189.93 456.228 187.44 455.607 185.184 454.238C184.53 450.275 184.53 445.925 185.184 441.188C189.289 440.48 192.402 441.723 194.522 444.917Z" fill="#50440F"/>
<path fill-rule="evenodd" clip-rule="evenodd" d="M196.39 431.866C207.265 435.254 215.359 442.09 220.669 452.374C220.79 453.191 220.48 453.813 219.735 454.238C213.38 445.094 205.597 437.636 196.39 431.866Z" fill="#221D0C"/>
<path fill-rule="evenodd" clip-rule="evenodd" d="M196.39 431.866C205.597 437.636 213.38 445.094 219.735 454.238C220.48 453.813 220.79 453.191 220.669 452.374C224.77 461.023 221.969 466.616 212.265 469.153C205.883 465.764 199.346 461.412 192.654 456.103C190.919 454.583 189.052 453.03 187.051 451.442C188.919 450.821 190.787 450.198 192.654 449.577C190.021 448.891 188.153 447.338 187.051 444.917C189.026 444.16 191.517 444.16 194.522 444.917C192.402 441.723 189.289 440.48 185.184 441.188C184.53 445.925 184.53 450.275 185.184 454.238C181.295 454.007 178.494 452.143 176.779 448.645C175.534 449.889 174.29 451.13 173.044 452.374C169.585 448.535 167.408 444.495 166.507 440.256C169.075 435.638 172.501 434.083 176.779 435.595C182.493 427.858 189.029 426.616 196.39 431.866Z" fill="#9A880C"/>
<path fill-rule="evenodd" clip-rule="evenodd" d="M194.522 444.917C196.926 446.833 199.105 446.212 201.059 443.052C205.087 444.702 206.643 447.81 205.728 452.374C199.923 452.607 196.188 450.122 194.522 444.917Z" fill="#42380D"/>
<path fill-rule="evenodd" clip-rule="evenodd" d="M200.125 444.917C203.085 445.852 204.019 447.717 202.927 450.51C200.986 449.122 200.052 447.258 200.125 444.917Z" fill="#DFBF09"/>
<path d="M388.287 175.176C388.111 175.1 387.963 175.035 387.845 174.983C387.81 174.835 387.765 174.643 387.714 174.414C387.584 173.835 387.413 173.024 387.248 172.101C386.914 170.239 386.616 167.979 386.705 166.236L386.71 166.128C386.794 164.479 386.873 162.935 387.11 161.573C387.352 160.18 387.746 159.072 388.399 158.288C388.691 157.939 389.424 157.401 390.589 156.745C391.722 156.106 393.178 155.401 394.824 154.697C398.117 153.289 402.12 151.906 405.733 151.082C409.362 150.254 414.177 150.247 418.133 150.46C420.102 150.566 421.839 150.724 423.084 150.857C423.706 150.923 424.204 150.982 424.547 151.025C424.718 151.046 424.85 151.064 424.939 151.075L425.039 151.089L425.064 151.092L425.07 151.093L425.071 151.093L425.072 151.093L425.088 151.096L425.105 151.097L425.105 151.097L425.106 151.097L425.107 151.098L425.113 151.098L425.137 151.101L425.235 151.11C425.322 151.119 425.452 151.133 425.619 151.152C425.954 151.189 426.442 151.246 427.048 151.326C428.262 151.485 429.95 151.734 431.847 152.093C435.66 152.814 440.237 153.963 443.504 155.676C447.178 157.601 450.843 159.894 453.581 162.487C456.329 165.089 458.044 167.897 458.044 170.859C458.044 174.075 457.644 178.3 457.24 181.741C457.039 183.457 456.837 184.971 456.686 186.055C456.624 186.503 456.57 186.877 456.528 187.162C456.409 187.163 456.274 187.165 456.124 187.166C455.45 187.172 454.469 187.177 453.246 187.176C450.799 187.173 447.382 187.143 443.502 187.034C435.731 186.817 426.141 186.285 418.765 185.034C411.927 183.874 404.12 181.33 398.002 179.064C394.947 177.933 392.322 176.875 390.462 176.1C389.531 175.712 388.793 175.396 388.287 175.176Z" fill="#D9D9D9" stroke="black" stroke-width="1.5"/>
<path d="M387.113 159.571C387.113 159.571 404.001 169.207 420.882 172.073C441.651 175.598 458.637 173.757 458.637 173.757" stroke="#070707"/>
<path d="M394.125 162.758C394.125 162.758 392.163 167.134 391.559 169.926C390.941 172.778 391.108 176.968 391.108 176.968" stroke="black" stroke-width="0.5"/>
<path d="M401.256 166.041C401.256 166.041 399.322 170.288 398.734 173C398.134 175.772 398.325 179.85 398.325 179.85" stroke="black" stroke-width="0.5"/>
<path d="M408.552 168.785C408.552 168.785 406.637 172.941 406.061 175.599C405.472 178.314 405.68 182.314 405.68 182.314" stroke="black" stroke-width="0.5"/>
<path d="M415.762 171.138C415.762 171.138 414.531 174.803 413.971 177.384C413.398 180.022 412.972 184.281 412.972 184.281" stroke="#0A0A0A" stroke-width="0.5"/>
<path d="M424.162 172.589C424.162 172.589 423.526 176.564 422.952 179.209C422.366 181.913 421.303 186.058 421.303 186.058" stroke="black" stroke-width="0.5"/>
<path d="M433.245 173.589C433.245 173.589 432.848 177.538 432.434 180.176C432.012 182.87 431.2 187.011 431.2 187.011" stroke="black" stroke-width="0.5"/>
<path d="M441.488 174.525C441.488 174.525 441.323 178.342 440.986 181.127C440.666 183.768 439.771 187.606 439.771 187.606" stroke="black" stroke-width="0.5"/>
<path d="M450.019 174.221C450.019 174.221 449.886 177.875 449.573 180.54C449.275 183.067 448.414 186.736 448.414 186.736" stroke="#060606" stroke-width="0.5"/>
</svg>
