<svg width="413" height="398" viewBox="0 0 413 398" fill="none" xmlns="http://www.w3.org/2000/svg">
<g filter="url(#filter0_d_564_1293)">
<rect x="5.5" y="1.5" width="402" height="387" rx="18.5" fill="#FDFFEF" stroke="black" stroke-width="3"/>
<path fill-rule="evenodd" clip-rule="evenodd" d="M226.69 111.235C229.117 115.8 229.835 120.637 228.843 125.747C224.405 132.174 218.424 136.285 210.902 138.083C200.35 138.928 189.825 138.686 179.326 137.358C174.239 134.355 168.977 133.872 163.537 135.906C162.58 135.906 161.624 135.906 160.667 135.906C160.904 131.045 160.664 126.207 159.949 121.394C158.458 122.473 157.74 123.924 157.796 125.747C153.846 144.774 150.498 144.774 147.749 125.747C146.792 133.004 145.836 140.26 144.879 147.517C142.312 146.38 140.877 144.446 140.573 141.712C140.307 139.25 139.11 137.316 136.985 135.906C137.293 140.712 137.293 145.549 136.985 150.419C130.147 140.571 121.056 134.281 109.714 131.553C108.757 125.264 108.757 118.975 109.714 112.686C111.457 110.438 113.609 108.745 116.173 107.606C113.505 105.346 111.352 102.685 109.714 99.6244C108.757 92.8516 108.757 86.0791 109.714 79.3064C128.595 59.3667 125.007 56.2222 98.9494 69.873C97.0505 71.0571 96.0946 72.7503 96.0788 74.9525C94.0422 67.1426 96.4348 60.6118 103.255 55.3602C93.2341 55.14 86.0577 50.5442 81.726 41.573C81.9656 41.0892 82.2039 40.6054 82.4436 40.1217C85.9127 42.2964 89.7392 43.2638 93.9259 43.0242C97.3347 43.164 100.444 42.4384 103.255 40.8473C95.476 33.2252 93.3231 24.2755 96.7965 13.9985C101.658 23.6072 109.552 28.6867 120.479 29.237C132.545 33.9688 137.808 42.9183 136.267 56.0858C144.457 55.6086 152.589 56.0925 160.667 57.5371C164.317 63.227 168.145 68.7902 172.149 74.2269C189.838 69.3908 204.908 73.5027 217.361 86.5628C221.322 95.3299 223.715 104.521 224.537 114.137C224.936 112.808 225.654 111.841 226.69 111.235Z" fill="black"/>
<path opacity="0.89" fill-rule="evenodd" clip-rule="evenodd" d="M226.69 111.234C225.654 111.84 224.936 112.808 224.537 114.137C223.715 104.521 221.322 95.3296 217.361 86.5625C204.908 73.5024 189.838 69.3905 172.149 74.2266C168.145 68.7899 164.317 63.2267 160.667 57.5368C152.589 56.0922 144.457 55.6084 136.267 56.0855C137.808 42.918 132.545 33.9685 120.479 29.2368C109.552 28.6864 101.658 23.6069 96.7965 13.9983C93.3231 24.2753 95.476 33.2249 103.255 40.847C100.444 42.4381 97.3347 43.1637 93.9259 43.024C89.7392 43.2636 85.9127 42.2962 82.4436 40.1214C82.2039 40.6051 81.9657 41.089 81.726 41.5727C86.0577 50.5439 93.2341 55.1397 103.255 55.3599C96.4348 60.6115 94.0422 67.1423 96.0788 74.9522C96.1348 76.7753 95.4172 78.2266 93.9259 79.3061C90.4166 71.1181 91.6122 63.6199 97.5141 56.8112C85.0487 54.938 79.3075 47.9235 80.2907 35.7675C85.4491 40.0491 91.1903 41.0166 97.5141 38.6701C91.8304 29.2678 91.8304 20.0763 97.5141 11.0957C99.0542 15.7971 101.925 19.4254 106.126 21.9803C116.924 22.9398 126.253 27.0519 134.114 34.3163C138.075 39.9816 139.272 46.0287 137.702 52.4573C145.995 52.5939 154.128 53.5615 162.102 55.3599C167.197 60.9947 171.743 67.0417 175.737 73.501C196.962 66.0974 212.751 72.3864 223.102 92.3677C225.443 98.4455 226.638 104.734 226.69 111.234Z" fill="black"/>
<path fill-rule="evenodd" clip-rule="evenodd" d="M288.407 112.686C283.949 110.934 279.644 108.757 275.49 106.155C271.16 101.677 266.854 97.3234 262.572 93.0937C255.874 92.1261 249.177 92.1261 242.478 93.0937C240.865 93.4553 239.43 94.181 238.172 95.2706C235.302 101.559 232.431 107.848 229.561 114.137C233.133 121.514 231.698 128.045 225.255 133.73C210.417 142.754 195.107 143.964 179.326 137.358C189.825 138.686 200.35 138.928 210.902 138.083C218.424 136.285 224.405 132.174 228.843 125.748C229.835 120.637 229.117 115.8 226.69 111.235C229.742 104.968 233.09 98.6795 236.737 92.368C247.454 86.4542 257.981 86.6961 268.313 93.0937C274.093 99.9003 280.792 105.705 288.407 110.509C290.184 111.51 290.184 112.236 288.407 112.686Z" fill="black"/>
<path opacity="0.835" fill-rule="evenodd" clip-rule="evenodd" d="M279.796 115.588C282.694 118.499 286.042 120.918 289.843 122.845C289.665 123.725 289.187 124.209 288.408 124.296C282.542 123.199 277.758 120.297 274.055 115.588C275.777 114.439 277.69 114.439 279.796 115.588Z" fill="black"/>
<path fill-rule="evenodd" clip-rule="evenodd" d="M140.573 141.711C139.316 146.177 138.838 150.531 139.138 154.773C133.178 149.474 127.437 143.911 121.914 138.083C112.804 136.489 104.193 137.941 96.0789 142.437C92.8954 152.98 87.6322 162.414 80.2907 170.737C78.7808 170.953 77.3455 170.712 75.9849 170.011C84.1947 162.383 89.6962 152.95 92.4907 141.711C96.963 138.363 101.987 136.428 107.561 135.906C106.933 130.722 105.977 125.642 104.691 120.668C105.579 115.486 107.972 111.133 111.867 107.606C104.774 96.6293 104.294 85.261 110.432 73.5008C118.811 66.4079 117.854 64.7147 107.561 68.4213C103.501 70.3888 99.6729 72.5657 96.0789 74.952C96.0947 72.7499 97.0506 71.0566 98.9495 69.8725C125.007 56.2218 128.595 59.3663 109.714 79.3059C108.757 86.0786 108.757 92.8512 109.714 99.6239C111.352 102.685 113.505 105.345 116.173 107.606C113.61 108.744 111.457 110.438 109.714 112.685C108.757 118.974 108.757 125.263 109.714 131.552C121.056 134.281 130.147 140.57 136.985 150.419C137.293 145.548 137.293 140.711 136.985 135.906C139.11 137.315 140.307 139.25 140.573 141.711Z" fill="#161616"/>
<path opacity="0.882" fill-rule="evenodd" clip-rule="evenodd" d="M278.361 127.198C281.962 129.261 285.312 131.68 288.408 134.455C283.187 134.474 278.882 132.539 275.49 128.65C276.146 127.492 277.103 127.008 278.361 127.198Z" fill="black"/>
<path fill-rule="evenodd" clip-rule="evenodd" d="M160.667 135.906C159.709 132.52 158.754 129.134 157.796 125.747C157.74 123.924 158.458 122.473 159.949 121.394C160.664 126.207 160.904 131.045 160.667 135.906Z" fill="black"/>
<path fill-rule="evenodd" clip-rule="evenodd" d="M282.666 138.809C284.138 155.213 276.961 162.953 261.137 162.03C262.248 168.24 262.966 174.53 263.29 180.896C266.742 182.02 270.33 182.745 274.055 183.073C272.058 186.542 269.188 188.961 265.443 190.33C266.707 191.357 267.663 192.568 268.313 193.958C265.553 193.53 263.161 192.321 261.137 190.33C263.767 189.244 266.159 187.793 268.313 185.976C264.943 185.474 262.313 183.78 260.419 180.896C260.102 174.046 259.385 167.273 258.266 160.578C269.511 161.065 277.166 155.985 281.231 145.34C278.907 142.205 279.385 140.028 282.666 138.809Z" fill="black"/>
<path fill-rule="evenodd" clip-rule="evenodd" d="M315.678 117.04C312.905 120.924 300.705 129.632 302.043 134.455C302.521 133.487 303 132.52 303.478 131.552C304.067 133.585 304.784 135.52 305.631 137.358C293.521 140.909 287.302 149.132 286.972 162.029C285.563 167.054 285.085 172.376 285.537 177.994C284.58 175.091 283.624 172.188 282.666 169.286C283.249 160.639 285.402 152.415 289.125 144.614C292.332 141.421 295.92 138.761 299.89 136.632C298.297 132.659 298.057 128.547 299.172 124.296C302.043 119.942 313.501 117.055 315.678 117.04Z" fill="#161616"/>
<path fill-rule="evenodd" clip-rule="evenodd" d="M288.407 112.686C286.108 114.97 283.238 115.937 279.796 115.588C277.69 114.439 275.777 114.439 274.055 115.588C277.758 120.297 282.541 123.199 288.407 124.296C285.515 126.362 282.167 127.33 278.36 127.199C277.103 127.009 276.146 127.492 275.49 128.65C278.881 132.539 283.187 134.474 288.407 134.455C290.184 134.905 290.184 135.631 288.407 136.632C286.621 137.78 284.707 138.506 282.666 138.809C279.385 140.028 278.907 142.205 281.231 145.34C277.166 155.985 269.51 161.064 258.266 160.578C259.384 167.273 260.102 174.046 260.419 180.896C262.312 183.78 264.943 185.473 268.313 185.976C266.159 187.793 263.766 189.244 261.137 190.329C263.161 192.321 265.553 193.53 268.313 193.958C270.251 195.627 270.013 196.595 267.596 196.86C258.034 194.36 257.316 195.811 265.443 201.214C263.357 201.837 260.966 202.079 258.266 201.94C255.452 206.24 252.103 210.109 248.219 213.55C242.145 216.852 236.404 220.48 230.996 224.435C230.505 225.651 229.549 226.136 228.125 225.886C225.438 230.282 221.611 233.425 216.643 235.319C220.528 235.779 223.877 234.57 226.69 231.691C228.125 234.594 229.561 237.496 230.996 240.399C222.901 239.426 215.724 241.362 209.467 246.204C208.037 246.329 206.841 245.844 205.878 244.753C205.301 242.761 204.584 240.827 203.725 238.948C218.948 237.271 218.948 236.062 203.725 235.319C201.621 234.398 199.707 233.187 197.984 231.691C198.576 233.552 197.62 235.003 195.114 236.045C190.03 235.591 185.246 236.075 180.761 237.496C177.923 234.247 174.335 232.311 169.996 231.691C166.352 233.29 162.764 233.29 159.232 231.691C157.346 232.871 155.671 234.322 154.208 236.045C153.951 228.119 151.798 227.151 147.749 233.142C146.413 230.028 146.892 226.884 149.184 223.709C144.627 223.786 140.8 222.577 137.702 220.081C141.029 219.619 142.944 217.683 143.443 214.276C139.518 208.353 136.168 202.063 133.396 195.409C117.083 206.768 103.687 203.866 93.2082 186.701C95.6583 183.593 96.8553 180.207 96.7965 176.542C95.7803 177.821 94.5833 178.787 93.2082 179.445C89.9588 180.488 86.6102 180.972 83.1612 180.896C86.9863 176.782 90.5745 172.428 93.9259 167.835C94.8832 166.383 94.8832 164.932 93.9259 163.481C92.5638 165.793 90.8903 167.727 88.9024 169.286C86.1251 170.229 83.2545 170.712 80.2906 170.737C87.6321 162.414 92.8954 152.981 96.0788 142.437C104.193 137.941 112.804 136.49 121.914 138.083C127.437 143.912 133.178 149.474 139.137 154.773C138.837 150.531 139.315 146.177 140.573 141.711C140.877 144.446 142.312 146.38 144.879 147.517C145.836 140.26 146.792 133.004 147.749 125.747C150.498 144.774 153.846 144.774 157.796 125.747C158.754 129.134 159.709 132.52 160.667 135.906C161.624 135.906 162.58 135.906 163.537 135.906C168.845 135.982 174.108 136.466 179.326 137.358C195.107 143.964 210.417 142.753 225.255 133.729C231.698 128.045 233.133 121.514 229.561 114.137C232.431 107.848 235.302 101.559 238.172 95.2703C239.43 94.1807 240.865 93.455 242.478 93.0934C249.177 92.1258 255.874 92.1258 262.572 93.0934C266.854 97.3231 271.16 101.677 275.49 106.155C279.644 108.756 283.949 110.933 288.407 112.686Z" fill="black"/>
<path fill-rule="evenodd" clip-rule="evenodd" d="M123.349 169.286C126.867 172.319 130.216 175.705 133.396 179.445C130.481 182.208 127.611 182.451 124.785 180.171C126.22 179.687 127.655 179.203 129.09 178.719C127.416 177.026 125.742 175.334 124.067 173.64C122.903 175.759 121.706 176.242 120.479 175.091C121.455 173.118 122.412 171.183 123.349 169.286Z" fill="black"/>
<path fill-rule="evenodd" clip-rule="evenodd" d="M159.231 156.225C166.264 155.424 171.05 158.326 173.584 164.932C162.854 162.867 156.395 167.704 154.208 179.445C150.077 170.102 151.752 162.361 159.231 156.225Z" fill="black"/>
<path fill-rule="evenodd" clip-rule="evenodd" d="M216.643 141.711C226.287 140.788 232.506 145.142 235.302 154.773C234.824 155.256 234.344 155.741 233.867 156.224C226.29 148.653 218.875 148.653 211.62 156.224C211.526 150.815 213.2 145.978 216.643 141.711Z" fill="black"/>
<path fill-rule="evenodd" clip-rule="evenodd" d="M252.525 135.906C254.146 139.05 253.428 141.952 250.372 144.614C250.321 141.607 251.038 138.704 252.525 135.906Z" fill="black"/>
<path fill-rule="evenodd" clip-rule="evenodd" d="M163.537 135.906C168.977 133.872 174.239 134.355 179.326 137.358C174.108 136.467 168.845 135.982 163.537 135.906Z" fill="black"/>
<path fill-rule="evenodd" clip-rule="evenodd" d="M253.961 125.748C257.018 128.109 259.888 130.77 262.572 133.73C259.35 133.446 256.719 131.753 254.678 128.65C252.426 133.834 249.078 138.188 244.631 141.712C243.674 140.744 243.674 139.777 244.631 138.809C248.458 134.925 251.568 130.571 253.961 125.748Z" fill="black"/>
<path fill-rule="evenodd" clip-rule="evenodd" d="M305.631 137.357C312.09 138.809 313.412 139.578 319.984 139.534C321.079 140.649 326.102 141.375 327.878 141.711C336.302 142.086 343.666 144.614 351.56 146.065C352.856 149.165 354.53 152.068 356.584 154.773C357.659 165.073 356.941 175.232 354.431 185.25C352.374 187.184 350.459 189.361 348.69 191.781C347.329 192.482 345.894 192.723 344.384 192.506C341.817 190.878 338.947 190.636 335.772 191.781C331.555 194.405 327.249 196.581 322.854 198.311C316.704 197.284 310.485 196.558 304.196 196.134C300.264 194.645 296.916 192.469 294.149 189.604C292.713 187.184 290.8 185.25 288.408 183.799C287.127 176.632 286.648 169.376 286.972 162.029C287.302 149.132 293.521 140.909 305.631 137.357Z" fill="black"/>
<path d="M301.387 151.338C301.538 150.434 302.455 149.875 303.332 150.153C306.155 151.045 311.281 152.621 316.243 153.918C318.245 154.441 320.224 154.919 322.017 155.289C328.966 156.724 339.071 157.679 343.522 158.055C344.426 158.131 345.066 158.979 344.891 159.868L340.092 184.221C339.954 184.923 339.349 185.42 338.643 185.411C334.746 185.362 324.74 185.127 317.933 183.999C311.225 182.887 301.82 179.944 298.073 178.726C297.376 178.499 296.951 177.794 297.074 177.064L301.387 151.338Z" fill="black" stroke="black"/>
<path d="M304.095 160.063C303.926 160.097 303.789 160.078 303.683 160.004C303.577 159.93 303.505 159.846 303.468 159.753C303.413 159.634 303.411 159.52 303.464 159.41C303.516 159.301 303.622 159.217 303.784 159.16C304.05 159.068 304.374 159.014 304.756 158.997C305.14 158.97 305.538 159.017 305.95 159.136C306.362 159.255 306.725 159.441 307.037 159.694C307.362 159.938 307.62 160.224 307.811 160.552C308.012 160.882 308.143 161.242 308.204 161.633C308.277 162.015 308.272 162.404 308.191 162.801C308.095 163.218 307.937 163.622 307.715 164.015C307.504 164.41 307.24 164.768 306.923 165.09C306.616 165.413 306.262 165.695 305.862 165.936C305.474 166.168 305.061 166.33 304.622 166.423C304.325 166.445 304.108 166.415 303.971 166.336C303.833 166.256 303.745 166.175 303.705 166.092C303.694 166.036 303.695 165.965 303.71 165.881C303.738 165.789 303.812 165.705 303.934 165.63C303.989 164.588 304.085 163.592 304.222 162.641C304.371 161.681 304.515 160.808 304.655 160.02C304.471 160.019 304.285 160.033 304.095 160.063ZM305.847 160.174C305.786 160.152 305.718 160.134 305.645 160.121C305.584 160.099 305.522 160.082 305.459 160.07C305.507 160.166 305.541 160.281 305.56 160.414C305.582 160.537 305.582 160.657 305.562 160.772C305.448 161.413 305.331 162.102 305.21 162.839C305.101 163.578 305.012 164.38 304.945 165.246C305.466 164.995 305.934 164.647 306.349 164.203C306.776 163.75 307.051 163.242 307.173 162.679C307.277 162.156 307.228 161.67 307.026 161.221C306.826 160.761 306.433 160.412 305.847 160.174ZM315.028 162.4C315.037 162.597 315.038 162.83 315.034 163.1C315.031 163.36 315.009 163.633 314.969 163.918C314.942 164.195 314.897 164.48 314.834 164.772C314.771 165.064 314.689 165.341 314.588 165.605C314.469 165.908 314.292 166.174 314.056 166.402C313.821 166.63 313.548 166.823 313.238 166.983C312.938 167.145 312.614 167.264 312.264 167.341C311.927 167.409 311.59 167.445 311.254 167.448C310.93 167.442 310.613 167.395 310.304 167.306C310.007 167.208 309.75 167.068 309.533 166.887C309.288 166.68 309.105 166.434 308.982 166.151C308.858 165.869 308.84 165.545 308.927 165.182C309.011 164.828 309.1 164.509 309.195 164.222C309.291 163.926 309.395 163.646 309.506 163.385C309.628 163.125 309.755 162.867 309.888 162.609C310.022 162.341 310.164 162.064 310.312 161.776C310.389 161.65 310.497 161.588 310.638 161.592C310.692 161.591 310.755 161.603 310.826 161.627C310.858 161.633 310.896 161.661 310.941 161.713C310.998 161.756 311.048 161.814 311.089 161.887C311.13 161.959 311.159 162.041 311.176 162.13C311.203 162.222 311.191 162.318 311.141 162.417C310.987 162.736 310.832 163.059 310.676 163.389C310.52 163.718 310.377 164.033 310.247 164.335C310.128 164.638 310.036 164.914 309.97 165.162C309.917 165.402 309.909 165.596 309.948 165.744C310.049 165.968 310.209 166.133 310.429 166.239C310.661 166.336 310.912 166.387 311.181 166.393C311.451 166.4 311.715 166.378 311.973 166.328C312.244 166.269 312.478 166.198 312.677 166.116C312.994 165.979 313.241 165.78 313.417 165.52C313.604 165.261 313.743 164.967 313.834 164.637C313.925 164.306 313.983 163.954 314.006 163.578C314.04 163.205 314.057 162.834 314.058 162.465C314.054 162.367 314.08 162.247 314.138 162.106C314.195 161.965 314.3 161.865 314.451 161.806C314.613 161.749 314.742 161.783 314.839 161.91C314.946 162.038 315.009 162.201 315.028 162.4ZM322.624 163.244C322.392 164.123 322.14 165.02 321.869 165.936C321.61 166.842 321.324 167.69 321.01 168.478C320.933 168.67 320.85 168.801 320.762 168.871C320.673 168.942 320.558 168.98 320.416 168.987C320.297 168.987 320.141 168.92 319.948 168.787C319.765 168.656 319.622 168.488 319.517 168.285C319.382 168.01 319.234 167.712 319.075 167.39C318.928 167.059 318.76 166.725 318.571 166.386C318.394 166.039 318.201 165.695 317.991 165.352C317.791 165.012 317.573 164.69 317.334 164.386C317.179 165.073 317.031 165.756 316.888 166.435C316.748 167.103 316.627 167.78 316.527 168.467C316.51 168.561 316.418 168.593 316.25 168.562C316.051 168.525 315.906 168.396 315.815 168.173C315.727 167.94 315.691 167.716 315.707 167.502C315.713 167.287 315.75 166.984 315.82 166.596C315.891 166.197 315.97 165.783 316.057 165.354C316.154 164.928 316.249 164.517 316.341 164.122C316.433 163.726 316.51 163.415 316.572 163.188C316.638 162.94 316.728 162.767 316.843 162.669C316.969 162.572 317.078 162.538 317.17 162.566C317.376 162.626 317.501 162.714 317.546 162.83C317.602 162.938 317.623 163.067 317.607 163.216C317.936 163.558 318.23 163.916 318.489 164.289C318.758 164.664 318.995 165.038 319.199 165.412C319.414 165.788 319.603 166.159 319.765 166.525C319.94 166.882 320.104 167.21 320.256 167.51C320.494 166.903 320.719 166.218 320.931 165.454C321.153 164.692 321.382 163.894 321.617 163.059C321.625 162.952 321.706 162.864 321.859 162.794C322.014 162.714 322.148 162.69 322.262 162.722C322.552 162.797 322.673 162.971 322.624 163.244ZM323.859 163.699C323.69 163.733 323.553 163.713 323.447 163.639C323.34 163.566 323.269 163.482 323.231 163.388C323.176 163.27 323.175 163.156 323.227 163.046C323.279 162.936 323.386 162.853 323.548 162.796C323.813 162.704 324.137 162.649 324.519 162.633C324.903 162.606 325.302 162.652 325.714 162.771C326.126 162.89 326.488 163.076 326.801 163.329C327.126 163.573 327.384 163.859 327.575 164.187C327.776 164.517 327.907 164.877 327.967 165.268C328.04 165.65 328.036 166.04 327.955 166.437C327.859 166.853 327.7 167.258 327.479 167.651C327.268 168.046 327.003 168.404 326.686 168.725C326.38 169.048 326.026 169.33 325.626 169.571C325.238 169.803 324.824 169.966 324.385 170.059C324.089 170.08 323.872 170.051 323.734 169.971C323.597 169.892 323.508 169.81 323.469 169.727C323.457 169.671 323.459 169.601 323.474 169.517C323.501 169.424 323.576 169.34 323.697 169.265C323.753 168.223 323.849 167.227 323.985 166.276C324.134 165.317 324.279 164.443 324.419 163.655C324.235 163.654 324.048 163.669 323.859 163.699ZM325.61 163.81C325.549 163.787 325.482 163.77 325.408 163.756C325.347 163.734 325.285 163.717 325.222 163.706C325.27 163.801 325.304 163.916 325.324 164.05C325.345 164.173 325.346 164.292 325.325 164.408C325.211 165.048 325.094 165.737 324.974 166.474C324.864 167.213 324.775 168.016 324.708 168.882C325.23 168.631 325.698 168.283 326.113 167.839C326.54 167.386 326.814 166.878 326.936 166.315C327.04 165.791 326.991 165.305 326.789 164.856C326.589 164.396 326.196 164.047 325.61 163.81ZM333.681 167.897C333.704 168.01 333.643 168.107 333.499 168.189C333.356 168.26 333.145 168.286 332.867 168.268C332.384 168.244 331.889 168.223 331.383 168.206C330.878 168.178 330.363 168.154 329.836 168.133C329.719 168.665 329.624 169.2 329.55 169.74C329.791 169.784 330.083 169.816 330.427 169.836C330.782 169.847 331.145 169.849 331.515 169.841C331.884 169.833 332.238 169.822 332.577 169.808C332.927 169.786 333.223 169.77 333.463 169.76C333.584 169.75 333.708 169.751 333.836 169.764C333.966 169.766 334.076 169.786 334.167 169.824C334.27 169.854 334.347 169.906 334.399 169.981C334.45 170.056 334.466 170.151 334.446 170.266C334.44 170.298 334.395 170.338 334.31 170.388C334.226 170.437 334.119 170.488 333.99 170.54C333.874 170.584 333.748 170.626 333.611 170.666C333.486 170.697 333.374 170.72 333.273 170.734C332.586 170.824 331.913 170.89 331.255 170.932C330.6 170.963 329.972 170.929 329.372 170.829C329.024 170.776 328.778 170.639 328.633 170.417C328.49 170.185 328.446 169.884 328.501 169.514C328.572 168.996 328.664 168.476 328.778 167.955C328.619 167.817 328.556 167.654 328.589 167.465C328.646 167.269 328.764 167.15 328.945 167.107C329.021 166.806 329.09 166.505 329.155 166.202C329.222 165.889 329.292 165.582 329.368 165.282C329.256 165.239 329.161 165.162 329.084 165.05C329.017 164.94 328.993 164.828 329.014 164.712C329.031 164.618 329.067 164.538 329.122 164.472C329.179 164.395 329.268 164.347 329.391 164.326C329.588 164.319 329.827 164.314 330.109 164.312C330.391 164.309 330.677 164.313 330.968 164.323C331.269 164.335 331.554 164.35 331.822 164.367C332.1 164.385 332.335 164.407 332.526 164.431C332.75 164.45 332.956 164.51 333.144 164.61C333.342 164.711 333.515 164.868 333.662 165.079C333.677 165.234 333.626 165.338 333.508 165.393C333.401 165.449 333.267 165.473 333.105 165.465C332.944 165.457 332.751 165.448 332.525 165.439C332.301 165.42 332.065 165.404 331.819 165.391C331.582 165.38 331.34 165.368 331.094 165.355C330.859 165.334 330.634 165.319 330.419 165.312C330.415 165.333 330.41 165.359 330.405 165.391C330.411 165.414 330.413 165.436 330.409 165.457C330.34 165.726 330.275 165.996 330.216 166.267C330.157 166.538 330.098 166.809 330.039 167.081C330.493 167.088 330.955 167.108 331.426 167.14C331.899 167.162 332.274 167.188 332.55 167.217C332.774 167.237 332.985 167.302 333.181 167.415C333.378 167.527 333.544 167.687 333.681 167.897ZM335.992 172.096C336.029 171.702 336.081 171.256 336.148 170.758C336.226 170.263 336.31 169.758 336.401 169.243C336.495 168.718 336.586 168.204 336.676 167.7C336.776 167.197 336.873 166.743 336.967 166.338C336.986 166.233 337.047 166.163 337.151 166.128C337.267 166.084 337.355 166.073 337.416 166.095C337.602 166.151 337.715 166.242 337.758 166.369C337.812 166.488 337.833 166.649 337.818 166.852C337.748 167.186 337.678 167.52 337.607 167.855C337.548 168.191 337.493 168.528 337.444 168.866C337.931 168.868 338.355 168.767 338.716 168.563C339.088 168.36 339.372 168.103 339.569 167.792C339.643 167.676 339.707 167.53 339.76 167.356C339.823 167.183 339.86 167.006 339.871 166.823C339.884 166.63 339.862 166.447 339.806 166.274C339.763 166.093 339.67 165.94 339.53 165.817C339.323 165.638 339.085 165.518 338.814 165.457C338.543 165.397 338.252 165.387 337.942 165.427C337.643 165.459 337.336 165.543 337.019 165.68C336.713 165.819 336.415 165.998 336.127 166.216C336.131 166.379 336.085 166.517 335.989 166.63C335.895 166.732 335.775 166.796 335.629 166.824C335.541 166.829 335.449 166.769 335.353 166.643C335.258 166.506 335.221 166.38 335.241 166.264C335.316 165.844 335.496 165.503 335.781 165.241C336.078 164.97 336.424 164.763 336.818 164.619C337.212 164.474 337.623 164.387 338.051 164.357C338.478 164.328 338.865 164.345 339.212 164.408C339.726 164.503 340.129 164.734 340.421 165.102C340.715 165.46 340.885 165.876 340.93 166.351C341.01 167.179 340.827 167.877 340.379 168.446C339.941 169.016 339.309 169.464 338.482 169.789C338.968 170.225 339.42 170.639 339.838 171.03C340.266 171.424 340.69 171.843 341.109 172.289C341.161 172.364 341.212 172.471 341.263 172.61C341.327 172.741 341.284 172.918 341.137 173.14C341.047 173.275 340.922 173.339 340.761 173.331C340.612 173.315 340.474 173.24 340.346 173.108C340.149 172.877 339.921 172.634 339.663 172.381C339.417 172.119 339.154 171.859 338.875 171.601C338.597 171.333 338.318 171.076 338.037 170.829C337.758 170.572 337.492 170.333 337.238 170.113C337.174 170.535 337.104 170.956 337.03 171.376C336.967 171.787 336.911 172.195 336.861 172.597C336.835 172.744 336.774 172.842 336.679 172.889C336.586 172.926 336.476 172.933 336.351 172.91C336.289 172.888 336.237 172.846 336.194 172.784C336.153 172.711 336.113 172.633 336.073 172.55C336.046 172.458 336.024 172.373 336.005 172.294C335.989 172.204 335.984 172.138 335.992 172.096ZM306.726 171.772C306.716 171.824 306.649 171.866 306.524 171.897C306.41 171.931 306.306 171.938 306.211 171.921C305.517 171.804 304.857 171.71 304.23 171.638C303.604 171.566 302.991 171.508 302.393 171.463C302.275 171.452 302.177 171.396 302.097 171.294C302.028 171.195 301.994 171.086 301.993 170.966C301.991 170.857 302.015 170.753 302.065 170.654C302.128 170.546 302.214 170.486 302.325 170.474C302.943 170.469 303.604 170.498 304.308 170.562C305.011 170.627 305.702 170.765 306.38 170.976C306.42 170.994 306.467 171.03 306.523 171.084C306.58 171.127 306.63 171.185 306.671 171.257C306.714 171.319 306.744 171.395 306.76 171.485C306.777 171.575 306.765 171.67 306.726 171.772ZM306.684 176.758C306.679 177.636 306.638 178.506 306.56 179.371C306.484 180.224 306.393 181.075 306.285 181.923C306.279 182.019 306.253 182.101 306.209 182.169C306.166 182.226 306.114 182.276 306.052 182.319C306.001 182.364 305.946 182.397 305.888 182.419C305.841 182.443 305.801 182.452 305.77 182.446C305.654 182.425 305.548 182.351 305.451 182.225C305.367 182.09 305.33 181.931 305.341 181.749C305.381 181.344 305.42 180.939 305.46 180.534C305.499 180.13 305.533 179.724 305.562 179.317C304.407 179.419 303.194 179.473 301.926 179.478C301.927 179.717 301.928 179.955 301.928 180.194C301.929 180.433 301.935 180.672 301.947 180.913C301.95 180.957 301.943 181.026 301.926 181.121C301.92 181.217 301.897 181.316 301.857 181.417C301.828 181.52 301.779 181.614 301.709 181.699C301.653 181.775 301.573 181.826 301.471 181.851C301.385 181.846 301.301 181.803 301.218 181.723C301.135 181.642 301.083 181.568 301.063 181.499C300.995 181.15 300.943 180.739 300.908 180.267C300.883 179.796 300.873 179.306 300.877 178.797C300.893 178.279 300.931 177.76 300.991 177.24C301.051 176.72 301.134 176.225 301.239 175.756C301.288 175.603 301.365 175.503 301.471 175.457C301.589 175.403 301.69 175.384 301.774 175.399C301.868 175.417 301.941 175.463 301.993 175.537C302.055 175.614 302.099 175.703 302.124 175.805C302.149 175.908 302.164 176.008 302.168 176.106C302.172 176.205 302.169 176.285 302.157 176.348C302.108 176.686 302.065 177.02 302.028 177.349C301.991 177.679 301.97 178.011 301.965 178.346C302.513 178.371 303.113 178.378 303.765 178.368C304.418 178.348 305.038 178.304 305.624 178.239C305.646 177.993 305.663 177.747 305.674 177.5C305.688 177.242 305.7 176.989 305.712 176.742C305.743 176.563 305.824 176.415 305.953 176.298C306.093 176.183 306.22 176.136 306.336 176.157C306.42 176.173 306.496 176.23 306.565 176.329C306.644 176.431 306.684 176.574 306.684 176.758ZM313.37 181.03C313.255 181.312 313.089 181.575 312.872 181.817C312.668 182.05 312.441 182.263 312.19 182.456C311.939 182.648 311.673 182.805 311.391 182.927C311.12 183.051 310.85 183.136 310.581 183.185C310.09 183.268 309.618 183.241 309.166 183.103C308.726 182.957 308.359 182.673 308.066 182.25C307.877 181.912 307.763 181.549 307.723 181.162C307.694 180.777 307.713 180.396 307.78 180.018C307.86 179.631 307.979 179.268 308.137 178.928C308.305 178.591 308.493 178.295 308.701 178.04C308.95 177.739 309.225 177.502 309.526 177.33C309.828 177.157 310.139 177.079 310.462 177.095C310.549 177.089 310.614 177.123 310.655 177.196C310.696 177.268 310.709 177.347 310.695 177.431C310.818 177.345 310.995 177.296 311.224 177.284C311.454 177.272 311.702 177.312 311.967 177.404C312.459 177.56 312.831 177.786 313.082 178.081C313.332 178.377 313.497 178.7 313.576 179.051C313.666 179.393 313.68 179.742 313.617 180.099C313.565 180.448 313.483 180.758 313.37 181.03ZM310.326 178.225C310.099 178.281 309.896 178.39 309.715 178.552C309.547 178.705 309.395 178.889 309.26 179.102C309.135 179.318 309.032 179.559 308.952 179.827C308.884 180.085 308.839 180.343 308.815 180.599C308.781 180.972 308.837 181.297 308.983 181.573C309.13 181.839 309.404 182.008 309.802 182.082C310.033 182.124 310.266 182.124 310.501 182.08C310.749 182.028 310.98 181.946 311.195 181.834C311.41 181.721 311.614 181.58 311.807 181.409C312.002 181.228 312.166 181.036 312.3 180.833C312.373 180.727 312.44 180.593 312.501 180.431C312.564 180.258 312.607 180.081 312.628 179.901C312.651 179.71 312.641 179.524 312.597 179.342C312.554 179.161 312.464 178.998 312.327 178.853C312.134 178.655 311.889 178.513 311.59 178.425C311.292 178.338 310.96 178.347 310.594 178.453C310.524 178.484 310.448 178.481 310.368 178.444C310.3 178.399 310.286 178.326 310.326 178.225ZM321.344 179.276C321.112 180.155 320.86 181.052 320.589 181.967C320.33 182.874 320.044 183.721 319.73 184.51C319.653 184.702 319.57 184.833 319.482 184.903C319.393 184.974 319.278 185.012 319.136 185.019C319.017 185.018 318.861 184.952 318.668 184.819C318.485 184.687 318.342 184.52 318.237 184.316C318.102 184.042 317.954 183.744 317.795 183.422C317.648 183.091 317.48 182.756 317.291 182.418C317.114 182.071 316.921 181.726 316.711 181.384C316.511 181.044 316.292 180.721 316.054 180.417C315.899 181.105 315.751 181.788 315.608 182.466C315.468 183.135 315.347 183.812 315.247 184.498C315.23 184.593 315.138 184.625 314.97 184.594C314.77 184.557 314.626 184.427 314.535 184.205C314.447 183.972 314.411 183.748 314.427 183.534C314.433 183.318 314.47 183.016 314.539 182.628C314.61 182.229 314.689 181.815 314.776 181.386C314.874 180.959 314.969 180.549 315.061 180.153C315.153 179.758 315.23 179.447 315.292 179.22C315.358 178.972 315.448 178.798 315.563 178.7C315.688 178.604 315.797 178.57 315.89 178.598C316.096 178.657 316.221 178.745 316.266 178.862C316.322 178.97 316.343 179.099 316.327 179.248C316.656 179.59 316.95 179.948 317.209 180.321C317.478 180.696 317.715 181.07 317.919 181.444C318.134 181.819 318.323 182.19 318.485 182.556C318.66 182.914 318.824 183.242 318.976 183.541C319.214 182.934 319.439 182.249 319.651 181.486C319.873 180.724 320.101 179.926 320.337 179.09C320.345 178.983 320.426 178.895 320.579 178.826C320.734 178.746 320.868 178.722 320.982 178.754C321.272 178.829 321.392 179.003 321.344 179.276ZM305.124 184.979C305.132 185.176 305.134 185.409 305.13 185.679C305.127 185.939 305.105 186.212 305.065 186.497C305.038 186.774 304.993 187.058 304.93 187.351C304.867 187.643 304.785 187.92 304.684 188.184C304.565 188.487 304.388 188.753 304.152 188.981C303.917 189.209 303.644 189.402 303.334 189.562C303.034 189.724 302.71 189.843 302.36 189.92C302.023 189.988 301.686 190.024 301.35 190.027C301.026 190.021 300.709 189.974 300.4 189.885C300.103 189.787 299.846 189.647 299.629 189.466C299.384 189.259 299.2 189.013 299.077 188.73C298.954 188.448 298.936 188.124 299.022 187.761C299.107 187.407 299.196 187.088 299.291 186.801C299.387 186.504 299.49 186.225 299.602 185.964C299.724 185.704 299.851 185.446 299.984 185.188C300.118 184.92 300.26 184.643 300.408 184.355C300.485 184.228 300.593 184.167 300.733 184.171C300.788 184.17 300.851 184.182 300.922 184.206C300.954 184.212 300.992 184.24 301.037 184.292C301.094 184.335 301.144 184.393 301.185 184.466C301.226 184.538 301.255 184.62 301.272 184.709C301.299 184.801 301.287 184.897 301.237 184.996C301.083 185.314 300.928 185.638 300.771 185.968C300.615 186.297 300.473 186.612 300.343 186.914C300.224 187.217 300.132 187.493 300.066 187.741C300.013 187.981 300.005 188.174 300.044 188.323C300.145 188.547 300.305 188.712 300.525 188.818C300.757 188.915 301.007 188.966 301.277 188.972C301.547 188.979 301.811 188.957 302.069 188.907C302.339 188.848 302.574 188.777 302.773 188.694C303.09 188.558 303.337 188.359 303.513 188.099C303.7 187.84 303.839 187.546 303.93 187.215C304.021 186.885 304.079 186.532 304.102 186.157C304.136 185.784 304.153 185.413 304.154 185.044C304.149 184.946 304.176 184.826 304.234 184.685C304.291 184.544 304.396 184.444 304.547 184.385C304.709 184.328 304.838 184.362 304.935 184.489C305.042 184.617 305.105 184.78 305.124 184.979ZM312.72 185.823C312.488 186.702 312.236 187.599 311.965 188.515C311.706 189.421 311.42 190.269 311.106 191.057C311.029 191.249 310.946 191.38 310.858 191.45C310.769 191.521 310.654 191.559 310.512 191.566C310.393 191.566 310.237 191.499 310.044 191.366C309.861 191.235 309.718 191.067 309.613 190.864C309.478 190.589 309.33 190.291 309.171 189.969C309.024 189.638 308.856 189.304 308.667 188.965C308.49 188.618 308.297 188.274 308.087 187.931C307.887 187.591 307.668 187.269 307.43 186.965C307.275 187.652 307.127 188.335 306.984 189.014C306.844 189.682 306.723 190.359 306.623 191.046C306.606 191.14 306.514 191.172 306.346 191.141C306.147 191.104 306.002 190.975 305.911 190.752C305.823 190.519 305.787 190.295 305.803 190.081C305.809 189.866 305.846 189.563 305.915 189.175C305.986 188.776 306.065 188.362 306.153 187.933C306.25 187.507 306.345 187.096 306.437 186.701C306.529 186.305 306.606 185.994 306.668 185.767C306.734 185.519 306.824 185.346 306.939 185.248C307.065 185.151 307.174 185.117 307.266 185.145C307.472 185.205 307.597 185.293 307.642 185.409C307.698 185.517 307.719 185.646 307.703 185.795C308.032 186.137 308.326 186.495 308.585 186.868C308.854 187.243 309.091 187.617 309.295 187.991C309.51 188.367 309.699 188.738 309.861 189.104C310.036 189.461 310.2 189.789 310.352 190.089C310.59 189.482 310.815 188.796 311.027 188.033C311.249 187.271 311.478 186.473 311.713 185.638C311.721 185.531 311.802 185.443 311.955 185.373C312.11 185.293 312.244 185.269 312.358 185.301C312.648 185.376 312.768 185.55 312.72 185.823ZM316.2 188.822C316.147 188.812 316.08 188.794 315.998 188.768C315.928 188.734 315.859 188.694 315.792 188.649C315.736 188.596 315.687 188.538 315.644 188.475C315.603 188.403 315.587 188.335 315.599 188.272C315.614 188.188 315.679 188.097 315.794 187.999C315.921 187.892 316.106 187.828 316.348 187.808C316.675 187.792 317.013 187.811 317.361 187.864C317.711 187.907 318.058 187.971 318.4 188.055C318.744 188.129 319.082 188.213 319.412 188.306C319.744 188.389 320.056 188.463 320.348 188.527C320.515 188.558 320.62 188.61 320.661 188.683C320.703 188.755 320.716 188.834 320.701 188.918C320.667 189.107 320.557 189.238 320.37 189.312C320.184 189.387 320.008 189.403 319.842 189.362C319.665 189.318 319.477 189.278 319.278 189.242C319.089 189.207 318.89 189.17 318.68 189.132C318.628 189.426 318.579 189.758 318.535 190.13C318.503 190.493 318.47 190.861 318.436 191.234C318.402 191.607 318.371 191.965 318.343 192.307C318.325 192.65 318.311 192.941 318.302 193.178C318.308 193.265 318.273 193.34 318.197 193.402C318.133 193.456 318.043 193.472 317.928 193.45C317.708 193.41 317.569 193.244 317.513 192.951C317.405 192.4 317.368 191.786 317.402 191.109C316.774 191.351 316.179 191.464 315.619 191.448C315.058 191.431 314.568 191.325 314.148 191.128C313.74 190.923 313.426 190.649 313.206 190.304C312.998 189.952 312.932 189.56 313.008 189.129C313.081 188.72 313.233 188.292 313.464 187.847C313.695 187.401 313.986 186.983 314.337 186.592C314.689 186.201 315.079 185.861 315.51 185.572C315.953 185.274 316.422 185.072 316.918 184.968C317.082 184.955 317.23 184.977 317.361 185.034C317.504 185.082 317.626 185.158 317.726 185.264C317.839 185.36 317.933 185.475 318.007 185.608C318.093 185.732 318.163 185.854 318.218 185.972C318.257 186.055 318.275 186.14 318.27 186.226C318.266 186.312 318.22 186.385 318.134 186.445C317.956 186.531 317.822 186.496 317.73 186.338C317.591 186.085 317.463 185.925 317.344 185.86C317.238 185.786 317.068 185.799 316.834 185.896C316.598 186.005 316.327 186.188 316.021 186.446C315.717 186.694 315.422 186.981 315.136 187.309C314.863 187.627 314.629 187.969 314.434 188.334C314.241 188.689 314.136 189.033 314.12 189.366C314.101 189.656 314.222 189.89 314.483 190.068C314.746 190.235 315.056 190.347 315.415 190.402C315.784 190.459 316.158 190.457 316.537 190.397C316.927 190.338 317.24 190.222 317.477 190.049C317.498 189.869 317.519 189.688 317.54 189.508C317.564 189.317 317.591 189.132 317.623 188.953C317.388 188.932 317.154 188.91 316.919 188.889C316.686 188.857 316.447 188.835 316.2 188.822Z" fill="black"/>
<path d="M316.736 155.957L315.059 152.881L317.331 152.502L316.736 155.957Z" fill="black"/>
<path d="M314.959 154.876L313.753 152.176L315.706 152.017L314.959 154.876Z" fill="black"/>
<path d="M300.181 164.992L297.736 165.401L298.204 163.475L300.181 164.992Z" fill="black"/>
<path d="M307.26 179.123L306.996 182.687L305.152 181.989L307.26 179.123Z" fill="black"/>
<path fill-rule="evenodd" clip-rule="evenodd" d="M286.972 162.029C286.648 169.376 287.127 176.632 288.408 183.799C286.105 182.656 285.148 180.722 285.537 177.993C285.085 172.376 285.563 167.054 286.972 162.029Z" fill="black"/>
<path opacity="0.961" fill-rule="evenodd" clip-rule="evenodd" d="M83.1612 180.896C82.1005 181.086 81.1432 180.844 80.2906 180.171C84.0138 177.143 86.8844 173.515 88.9024 169.286C90.8903 167.727 92.5638 165.793 93.9259 163.481C94.8832 164.932 94.8832 166.384 93.9259 167.835C90.5745 172.428 86.9863 176.782 83.1612 180.896Z" fill="black"/>
<path fill-rule="evenodd" clip-rule="evenodd" d="M223.82 170.737C233.495 172.366 237.083 178.171 234.584 188.153C229.31 196.033 224.526 195.548 220.231 186.701C218.719 180.671 219.916 175.349 223.82 170.737Z" fill="black"/>
<path fill-rule="evenodd" clip-rule="evenodd" d="M169.279 185.25C176.855 187.357 181.161 192.437 182.196 200.488C180.635 206.879 176.807 208.572 170.714 205.568C165.712 199.011 165.234 192.238 169.279 185.25Z" fill="black"/>
<path fill-rule="evenodd" clip-rule="evenodd" d="M170.714 186.701C172.234 188.98 171.516 190.914 168.561 192.506C168.13 190.234 168.848 188.299 170.714 186.701Z" fill="black"/>
<path fill-rule="evenodd" clip-rule="evenodd" d="M223.941 172.914C225.461 175.193 224.743 177.127 221.788 178.719C221.357 176.446 222.075 174.512 223.941 172.914Z" fill="black"/>
<path fill-rule="evenodd" clip-rule="evenodd" d="M202.29 191.055C205.673 190.819 209.022 191.059 212.337 191.781C206.905 192.614 201.641 193.58 196.549 194.683C198.498 193.328 200.413 192.117 202.29 191.055Z" fill="black"/>
<path fill-rule="evenodd" clip-rule="evenodd" d="M202.29 195.409C206.147 195.171 209.975 195.413 213.773 196.134C216.329 204.227 213.219 208.338 204.443 208.47C197.717 209.007 194.847 206.105 195.831 199.763C197.854 197.904 200.007 196.452 202.29 195.409Z" fill="black"/>
<path fill-rule="evenodd" clip-rule="evenodd" d="M268.313 193.958C271.775 194.239 273.211 196.174 272.619 199.763C270.567 199.877 268.652 199.394 266.878 198.311C265.733 198.975 265.255 199.943 265.443 201.214C257.316 195.811 258.034 194.36 267.596 196.86C270.013 196.595 270.251 195.626 268.313 193.958Z" fill="black"/>
<path opacity="0.788" fill-rule="evenodd" clip-rule="evenodd" d="M137.702 220.081C138.929 218.585 139.887 216.893 140.573 215.002C137.384 210.089 134.513 205.009 131.961 199.763C121.663 207.227 111.138 207.469 100.385 200.489C92.2538 195.03 89.8626 188.015 93.2083 179.445C94.5833 178.788 95.7803 177.821 96.7965 176.542C96.8554 180.207 95.6583 183.593 93.2083 186.701C103.687 203.866 117.083 206.768 133.396 195.409C136.168 202.063 139.518 208.353 143.443 214.276C142.944 217.684 141.029 219.62 137.702 220.081Z" fill="black"/>
<path fill-rule="evenodd" clip-rule="evenodd" d="M203.726 196.86C211.14 197.635 211.14 199.087 203.726 201.214C202.768 200.731 201.812 200.246 200.855 199.763C201.921 198.773 202.877 197.805 203.726 196.86Z" fill="black"/>
<path fill-rule="evenodd" clip-rule="evenodd" d="M282.666 169.286C283.624 172.188 284.58 175.091 285.537 177.994C285.148 180.722 286.105 182.657 288.407 183.799C288.885 187.185 290.8 189.121 294.149 189.604C296.916 192.469 300.264 194.646 304.196 196.135C310.485 196.558 316.704 197.284 322.854 198.312C325.36 199.354 326.316 200.805 325.725 202.665C330.249 196.169 336.468 192.782 344.384 192.506C345.894 192.723 347.329 192.482 348.69 191.781C350.459 189.361 352.374 187.185 354.431 185.25C355.467 184.643 356.185 183.677 356.584 182.347C358.183 189.766 355.79 195.571 349.407 199.763C348.929 198.312 348.45 196.86 347.972 195.409C347.804 203.249 344.216 208.813 337.207 212.099C327.328 215.521 317.281 216.489 307.066 215.001C308.024 215.485 308.979 215.969 309.937 216.453C295.369 231.523 277.667 238.296 256.831 236.771C251.568 231.678 246.306 226.356 241.043 220.806C253.557 212.707 266.715 205.693 280.513 199.763C281.032 195.373 281.749 191.019 282.666 186.701C281.02 183.355 279.107 180.21 276.925 177.268C276.952 174.608 277.908 172.431 279.796 170.737C280.287 169.521 281.243 169.036 282.666 169.286Z" fill="black"/>
<path fill-rule="evenodd" clip-rule="evenodd" d="M222.384 225.887C222.212 224.31 221.255 223.342 219.514 222.984C217.211 223.621 215.059 224.589 213.055 225.887C208.409 224.003 205.3 225.454 203.725 230.24C198.659 227.081 194.353 222.968 190.808 217.904C188.26 215.816 185.39 214.365 182.196 213.551C183.392 212.342 184.589 211.131 185.784 209.922C190.488 218.063 197.425 220.723 206.596 217.904C207.495 216.816 208.212 215.606 208.749 214.276C217.232 217.365 223.211 214.221 226.69 204.843C226.109 203.471 225.151 202.503 223.82 201.94C226.212 200.972 228.603 200.972 230.996 201.94C227.9 209.893 225.029 217.875 222.384 225.887Z" fill="black"/>
<path fill-rule="evenodd" clip-rule="evenodd" d="M238.172 234.594C235.82 236.006 233.905 237.941 232.431 240.399C231.953 240.399 231.474 240.399 230.996 240.399C229.561 237.497 228.125 234.594 226.69 231.691C227.168 229.757 227.648 227.821 228.125 225.886C229.549 226.136 230.505 225.651 230.996 224.435C238.909 221.262 244.65 223.682 248.22 231.691C244.676 232.661 241.327 233.629 238.172 234.594Z" fill="black"/>
<path fill-rule="evenodd" clip-rule="evenodd" d="M222.384 225.886C216.794 229.568 210.575 231.019 203.726 230.24C205.3 225.453 208.409 224.002 213.055 225.886C215.059 224.589 217.212 223.621 219.514 222.983C221.255 223.342 222.212 224.31 222.384 225.886Z" fill="black"/>
<path fill-rule="evenodd" clip-rule="evenodd" d="M222.384 225.886C222.278 228.66 220.843 230.353 218.078 230.966C213.016 232.138 208.232 231.896 203.726 230.24C210.575 231.019 216.794 229.568 222.384 225.886Z" fill="black"/>
<path fill-rule="evenodd" clip-rule="evenodd" d="M228.125 225.886C227.647 227.821 227.168 229.757 226.69 231.691C223.877 234.571 220.528 235.78 216.643 235.32C221.611 233.426 225.439 230.282 228.125 225.886Z" fill="black"/>
<path opacity="0.906" fill-rule="evenodd" clip-rule="evenodd" d="M137.702 220.081C140.8 222.577 144.628 223.786 149.185 223.709C146.892 226.885 146.413 230.028 147.749 233.143C146.581 235.716 144.666 236.441 142.008 235.32C147.245 228.011 145.332 224.14 136.267 223.709C134.282 221.589 134.761 220.38 137.702 220.081Z" fill="black"/>
<path fill-rule="evenodd" clip-rule="evenodd" d="M238.172 234.594C247.701 232.237 254.398 235.382 258.266 244.027C256.401 247.564 254.965 251.192 253.961 254.912C253.483 254.912 253.003 254.912 252.525 254.912C246.255 254.96 240.035 254.476 233.867 253.46C233.202 249.133 232.724 244.779 232.431 240.399C233.905 237.94 235.82 236.006 238.172 234.594Z" fill="black"/>
<path fill-rule="evenodd" clip-rule="evenodd" d="M195.114 236.045C197.506 236.045 199.898 236.045 202.29 236.045C202.29 238.464 202.29 240.882 202.29 243.301C196.585 243.281 191.801 245.216 187.937 249.106C186.541 245.554 186.063 241.683 186.502 237.496C189.71 237.924 192.581 237.44 195.114 236.045Z" fill="black"/>
<path fill-rule="evenodd" clip-rule="evenodd" d="M233.867 253.46C239.774 258.57 245.995 259.055 252.525 254.912C253.003 254.912 253.483 254.912 253.961 254.912C256.794 252.114 258.947 248.728 260.419 244.753C264.32 248.049 266.951 252.16 268.313 257.089C281.102 261.988 290.911 270.453 297.737 282.486C300.777 295.581 296.233 304.531 284.102 309.335C271.269 313.557 260.026 310.896 250.372 301.353C244.569 289.801 246.722 287.624 256.831 294.822C258.744 295.79 260.659 295.79 262.572 294.822C257.358 293.632 253.052 290.972 249.655 286.84C240.955 294.289 230.908 298.643 219.514 299.901C216.412 309.56 212.346 318.751 207.314 327.476C197.648 313.361 184.491 304.412 167.843 300.627C172.093 295.668 175.442 290.105 177.89 283.937C174.302 278.91 172.867 273.588 173.584 267.973C176.462 265.312 179.572 262.892 182.914 260.717C185.36 263.435 187.99 265.854 190.808 267.973C192.421 269.873 194.574 270.84 197.267 270.876C202.385 270.765 206.453 268.829 209.467 265.071C211.579 262.724 212.537 259.821 212.337 256.363C212.422 252.577 211.465 249.189 209.467 246.204C216.514 244.29 223.69 242.838 230.996 241.85C230.438 246.281 231.394 250.151 233.867 253.46Z" fill="black"/>
<path fill-rule="evenodd" clip-rule="evenodd" d="M209.467 246.204C211.465 249.19 212.422 252.577 212.337 256.363C212.537 259.822 211.579 262.724 209.467 265.071C211.907 247.256 204.73 241.935 187.937 249.107C191.801 245.216 196.585 243.281 202.29 243.302C202.29 240.882 202.29 238.465 202.29 236.045C199.898 236.045 197.506 236.045 195.114 236.045C197.62 235.003 198.576 233.552 197.984 231.691C199.707 233.188 201.621 234.398 203.726 235.32C218.948 236.063 218.948 237.272 203.726 238.948C204.584 240.827 205.301 242.762 205.878 244.753C206.842 245.844 208.037 246.329 209.467 246.204Z" fill="black"/>
<path fill-rule="evenodd" clip-rule="evenodd" d="M209.467 265.071C203.53 267.513 197.311 268.481 190.808 267.973C188.919 264.603 187.006 261.216 185.067 257.814C185.751 254.771 186.707 251.868 187.937 249.107C204.73 241.934 211.907 247.256 209.467 265.071Z" fill="black"/>
<path fill-rule="evenodd" clip-rule="evenodd" d="M230.996 240.399C231.474 240.399 231.953 240.399 232.431 240.399C232.724 244.779 233.202 249.133 233.867 253.461C231.394 250.152 230.438 246.281 230.996 241.85C223.69 242.839 216.514 244.29 209.467 246.204C215.725 241.363 222.901 239.427 230.996 240.399Z" fill="#161616"/>
<path fill-rule="evenodd" clip-rule="evenodd" d="M180.761 237.497C182.271 237.28 183.706 237.521 185.067 238.222C183.202 242.772 183.202 247.367 185.067 252.009C184.208 253.889 183.491 255.823 182.914 257.815C178.502 260.095 175.393 263.48 173.584 267.974C172.484 266.998 171.526 265.789 170.714 264.345C174.299 260.793 176.452 256.681 177.173 252.009C173.656 258.952 168.633 264.515 162.102 268.699C154.784 270.049 147.607 271.983 140.573 274.504C146.271 274.031 152.012 274.031 157.796 274.504C161.57 279.147 161.092 283.501 156.361 287.566C151.749 288.586 147.205 288.344 142.726 286.84C138.322 292.383 132.821 293.834 126.22 291.194C119.86 294.817 113.401 294.817 106.844 291.194C97.9189 295.837 89.7851 294.869 82.4436 288.292C81.7303 284.939 81.492 281.553 81.726 278.133C87.3882 279.81 93.1294 280.536 98.9495 280.309C102.777 276.924 102.777 273.536 98.9495 270.15C92.7849 268.847 87.2834 266.187 82.4436 262.168C80.1802 255.523 82.3331 251.169 88.9024 249.107C94.3522 251.962 99.6154 255.106 104.691 258.54C108.006 259.262 111.355 259.502 114.738 259.266C114.751 256.642 114.033 254.223 112.585 252.009C100.461 240.887 102.136 235.324 117.608 235.32C124.117 242.428 129.38 250.41 133.396 259.266C134.961 257.973 134.961 256.521 133.396 254.912C143.723 241.708 157.119 235.177 173.584 235.32C176.148 236.459 178.301 238.151 180.043 240.399C180.709 239.537 180.949 238.569 180.761 237.497Z" fill="black"/>
<path fill-rule="evenodd" clip-rule="evenodd" d="M180.761 237.496C185.246 236.075 190.03 235.59 195.114 236.045C192.581 237.439 189.71 237.924 186.502 237.496C186.063 241.683 186.541 245.554 187.937 249.106C186.707 251.868 185.751 254.771 185.067 257.814C187.006 261.216 188.919 264.603 190.808 267.973C187.99 265.854 185.36 263.435 182.914 260.717C179.572 262.892 176.462 265.311 173.584 267.973C175.393 263.48 178.502 260.094 182.914 257.814C183.491 255.823 184.208 253.888 185.067 252.009C183.202 247.366 183.202 242.771 185.067 238.222C183.706 237.521 182.271 237.28 180.761 237.496Z" fill="black"/>
<path fill-rule="evenodd" clip-rule="evenodd" d="M180.761 237.496C180.949 238.569 180.709 239.537 180.043 240.399C178.301 238.151 176.148 236.458 173.584 235.319C157.119 235.177 143.723 241.708 133.396 254.911C134.961 256.521 134.961 257.972 133.396 259.265C129.38 250.41 124.117 242.428 117.608 235.319C102.136 235.323 100.461 240.886 112.585 252.009C114.033 254.222 114.751 256.641 114.738 259.265C111.355 259.502 108.006 259.261 104.691 258.54C99.6154 255.106 94.3522 251.961 88.9024 249.106C82.3331 251.169 80.1802 255.522 82.4436 262.168C87.2834 266.187 92.7849 268.847 98.9494 270.15C102.777 273.536 102.777 276.923 98.9494 280.309C93.1293 280.535 87.3882 279.81 81.726 278.132C82.3891 276.129 83.8244 275.161 86.0318 275.229C89.3804 276.197 92.7303 277.164 96.0789 278.132C97.8543 278.051 99.2896 277.325 100.385 275.955C93.9532 271.847 87.4944 267.734 81.0083 263.619C79.6218 258.368 80.3395 253.531 83.1613 249.106C84.9869 248.314 86.9016 247.831 88.9024 247.655C95.7975 249.569 102.256 252.472 108.279 256.363C108.996 255.879 109.714 255.395 110.432 254.911C108.628 251.749 106.475 248.847 103.973 246.204C101.342 234.351 105.886 229.756 117.608 232.417C124.77 236.516 129.554 242.564 131.961 250.558C138.507 245.606 144.727 240.526 150.62 235.319C150.138 233.824 149.18 233.099 147.749 233.142C151.798 227.151 153.951 228.119 154.208 236.045C155.671 234.322 157.346 232.871 159.232 231.691C162.764 233.29 166.352 233.29 169.996 231.691C174.335 232.311 177.923 234.247 180.761 237.496Z" fill="#161616"/>
<path fill-rule="evenodd" clip-rule="evenodd" d="M162.102 302.805C169.254 302.677 175.951 304.371 182.196 307.884C192.56 314.249 200.693 322.716 206.596 333.282C205.653 339.542 203.5 345.348 200.137 350.697C196.375 352.861 192.308 353.829 187.937 353.6C187.495 350.082 187.975 346.696 189.373 343.441C190.659 344.901 191.615 344.901 192.243 343.441C190.267 338.54 186.918 335.152 182.196 333.282C175.915 323.587 168.26 314.879 159.232 307.158C160.226 305.681 161.182 304.23 162.102 302.805Z" fill="black"/>
<path fill-rule="evenodd" clip-rule="evenodd" d="M162.102 302.804C161.182 304.229 160.226 305.681 159.232 307.158C168.26 314.879 175.915 323.587 182.196 333.281C180.686 333.497 179.251 333.257 177.89 332.556C172.036 323.124 164.859 314.899 156.361 307.884C150.62 306.916 144.879 306.916 139.138 307.884C137.984 310.454 136.309 312.631 134.114 314.414C133.636 312.169 134.354 310.235 136.267 308.609C135.746 307.618 135.268 306.65 134.832 305.707C139.726 305.298 144.51 304.329 149.185 302.804C153.865 305.641 158.171 305.641 162.102 302.804Z" fill="black"/>
<path fill-rule="evenodd" clip-rule="evenodd" d="M134.832 305.707C118.51 303.855 112.051 311.111 115.455 327.476C118.432 330.309 121.542 332.969 124.785 335.458C121.977 335.136 119.345 333.927 116.891 331.83C115.933 336.184 115.933 340.538 116.891 344.891C122.303 351.578 129.24 355.447 137.702 356.502C140.573 357.47 143.443 358.436 146.314 359.404C133.907 361.111 123.622 357.24 115.455 347.794C115.475 338.43 114.278 328.997 111.867 319.494C113.424 306.299 120.601 300.977 133.396 303.53C134.194 304.086 134.672 304.811 134.832 305.707Z" fill="black"/>
<path fill-rule="evenodd" clip-rule="evenodd" d="M351.56 146.065C352.038 146.065 354.67 146.065 355.148 146.065C358.019 150.419 358.318 150.991 359.454 154.773C359.652 165.961 359.892 177.088 360.172 188.153C355.395 195.405 350.61 202.661 345.819 209.922C335.65 217.756 324.406 220.174 312.09 217.178C298.594 232.587 281.609 240.811 261.137 241.85C265.515 245.374 268.863 249.728 271.184 254.912C306.191 271.912 310.497 294.407 284.102 322.397C288.551 326.449 290.944 331.528 291.278 337.635C289.508 343.074 287.355 348.395 284.819 353.599C277.173 361.075 269.759 361.075 262.572 353.599C268.799 357.31 275.019 357.31 281.231 353.599C283.008 349.727 283.008 345.858 281.231 341.989C281.709 341.506 282.188 341.021 282.666 340.538C285.919 346.469 287.832 345.986 288.407 339.086C287.793 333.107 285.64 327.785 281.949 323.122C270.593 329.12 259.35 328.878 248.219 322.397C246.483 320.889 245.047 319.195 243.914 317.317C256.711 327.88 270.108 328.605 284.102 319.494C286.606 317.038 287.084 314.378 285.537 311.512C271.587 315.584 259.387 312.682 248.937 302.804C247.671 293.441 243.843 291.989 237.455 298.45C236.746 300.822 236.507 303.241 236.737 305.707C235.586 303.6 234.868 301.182 234.584 298.45C233.133 299.665 231.458 300.148 229.561 299.902C229.901 301.775 229.423 303.227 228.125 304.255C226.615 301.707 224.223 300.739 220.949 301.353C219.003 311.836 214.697 321.269 208.031 329.653C210.133 340.893 206.306 349.601 196.549 355.776C193.763 356.854 191.132 356.612 188.655 355.05C186.703 369.106 178.809 374.67 164.973 371.74C158.175 368.954 152.434 364.842 147.749 359.404C154.277 361.737 160.496 364.881 166.408 368.838C174.994 370.346 181.453 367.202 185.784 359.404C186.852 354.512 186.135 349.917 183.631 345.617C185.83 344.601 187.266 342.909 187.937 340.538C185.99 338.091 184.076 335.673 182.196 333.281C186.918 335.152 190.267 338.539 192.243 343.44C191.615 344.9 190.659 344.9 189.373 343.44C187.975 346.695 187.495 350.081 187.937 353.599C192.308 353.829 196.375 352.86 200.137 350.697C203.5 345.347 205.653 339.542 206.596 333.281C200.693 322.716 192.56 314.249 182.196 307.884C175.951 304.37 169.254 302.676 162.102 302.804C163.12 301.492 164.555 301.009 166.408 301.353C168.476 295.237 171.347 289.432 175.02 283.938C171.787 279.113 169.635 273.792 168.561 267.973C165.93 269.667 163.298 271.359 160.667 273.053C165.04 282.507 161.692 289.037 150.62 292.645C148.074 292.084 145.681 291.117 143.443 289.743C139.155 295.057 133.893 296.509 127.655 294.097C124.631 295.747 121.522 297.198 118.326 298.45C114.795 296.857 111.207 295.406 107.561 294.097C99.3154 298.074 91.1816 297.832 83.1612 293.371C78.2152 288.521 77.7373 283.441 81.726 278.132C81.492 281.553 81.7303 284.939 82.4436 288.291C89.7851 294.869 97.9189 295.837 106.844 291.194C113.401 294.816 119.86 294.816 126.22 291.194C132.821 293.834 138.322 292.383 142.726 286.84C147.205 288.344 151.749 288.586 156.361 287.566C161.092 283.501 161.57 279.147 157.796 274.504C152.012 274.031 146.271 274.031 140.573 274.504C147.607 271.983 154.784 270.049 162.102 268.699C168.633 264.515 173.656 258.952 177.173 252.009C176.452 256.681 174.299 260.792 170.714 264.345C171.526 265.789 172.484 266.998 173.584 267.973C172.867 273.588 174.302 278.91 177.89 283.938C175.442 290.105 172.093 295.668 167.843 300.627C184.491 304.412 197.648 313.361 207.314 327.476C212.346 318.751 216.412 309.56 219.514 299.902C230.908 298.643 240.955 294.29 249.655 286.84C253.052 290.972 257.358 293.632 262.572 294.822C260.659 295.79 258.744 295.79 256.831 294.822C246.722 287.624 244.569 289.801 250.372 301.353C260.026 310.897 271.269 313.557 284.102 309.335C296.233 304.531 300.777 295.581 297.737 282.486C290.911 270.454 281.102 261.988 268.313 257.089C266.951 252.16 264.32 248.049 260.419 244.753C258.947 248.728 256.794 252.114 253.961 254.912C254.965 251.192 256.401 247.564 258.266 244.027C254.398 235.382 247.701 232.237 238.172 234.594C241.327 233.629 244.676 232.661 248.219 231.691C244.65 223.682 238.909 221.262 230.996 224.435C236.404 220.48 242.145 216.852 248.219 213.55C252.103 210.109 255.452 206.24 258.266 201.94C260.966 202.079 263.357 201.837 265.443 201.214C268.223 202.964 270.616 202.481 272.619 199.763C277.446 199.521 278.881 197.344 276.925 193.232C277.684 190.97 278.642 188.793 279.796 186.701C277.268 184.157 275.355 181.255 274.055 177.994C274.307 174.039 276.222 171.62 279.796 170.737C277.908 172.431 276.952 174.608 276.925 177.268C279.107 180.21 281.02 183.355 282.666 186.701C281.749 191.019 281.032 195.373 280.513 199.763C266.715 205.693 253.557 212.707 241.043 220.807C246.306 226.356 251.568 231.678 256.831 236.771C277.667 238.296 295.369 231.523 309.937 216.453C308.979 215.969 308.024 215.485 307.066 215.001C317.281 216.489 327.328 215.521 337.207 212.099C344.216 208.813 347.804 203.249 347.972 195.409C348.45 196.86 348.929 198.312 349.407 199.763C355.79 195.572 358.183 189.767 356.584 182.348C356.185 183.677 355.467 184.643 354.431 185.25C356.941 175.232 357.659 165.073 356.584 154.773C354.53 152.068 352.856 149.165 351.56 146.065Z" fill="#161616"/>
<path fill-rule="evenodd" clip-rule="evenodd" d="M228.125 304.255C225.124 323.089 231.343 337.842 246.784 348.52C252.593 351.528 258.094 351.287 263.29 347.794C263.57 349.708 263.33 351.644 262.572 353.599C243.569 353.776 231.369 344.584 225.973 326.025C225.015 320.22 225.015 314.414 225.973 308.609C226.306 306.814 227.023 305.363 228.125 304.255Z" fill="black"/>
<path fill-rule="evenodd" clip-rule="evenodd" d="M236.737 305.707C237.026 310.975 239.418 314.845 243.914 317.317C245.048 319.195 246.483 320.889 248.22 322.396C259.35 328.878 270.593 329.12 281.949 323.122C285.64 327.785 287.793 333.107 288.408 339.086C287.832 345.986 285.919 346.469 282.666 340.537C282.188 341.021 281.709 341.505 281.231 341.989C283.008 345.858 283.008 349.727 281.231 353.599C275.019 357.31 268.799 357.31 262.572 353.599C263.33 351.644 263.57 349.708 263.29 347.794C258.094 351.287 252.593 351.528 246.784 348.52C231.343 337.842 225.124 323.089 228.125 304.255C229.423 303.226 229.901 301.775 229.561 299.901C231.458 300.148 233.133 299.665 234.584 298.45C234.868 301.182 235.586 303.599 236.737 305.707Z" fill="black"/>
<path fill-rule="evenodd" clip-rule="evenodd" d="M243.914 317.317C239.418 314.845 237.026 310.975 236.737 305.707C236.507 303.241 236.746 300.822 237.455 298.45C243.843 291.989 247.671 293.44 248.937 302.804C259.387 312.681 271.587 315.584 285.537 311.512C287.084 314.378 286.606 317.038 284.102 319.494C270.108 328.605 256.711 327.879 243.914 317.317Z" fill="black"/>
<path fill-rule="evenodd" clip-rule="evenodd" d="M209.467 265.071C206.453 268.83 202.385 270.766 197.267 270.876C194.574 270.84 192.421 269.873 190.808 267.973C197.311 268.481 203.53 267.513 209.467 265.071Z" fill="#161616"/>
<path fill-rule="evenodd" clip-rule="evenodd" d="M233.867 253.46C240.035 254.476 246.255 254.96 252.525 254.912C245.995 259.055 239.774 258.57 233.867 253.46Z" fill="black"/>
<path fill-rule="evenodd" clip-rule="evenodd" d="M344.384 192.507C336.468 192.783 330.249 196.17 325.725 202.666C326.316 200.805 325.361 199.354 322.854 198.312C327.249 196.582 331.555 194.405 335.772 191.781C338.947 190.636 341.818 190.878 344.384 192.507Z" fill="black"/>
<path fill-rule="evenodd" clip-rule="evenodd" d="M286.255 181.622C288.603 183.205 293.301 187.691 294.866 190.33C291.213 189.803 286.776 185.316 286.255 181.622Z" fill="#161616"/>
<path fill-rule="evenodd" clip-rule="evenodd" d="M137.702 356.502C141.559 356.264 145.387 356.506 149.185 357.227C148.387 357.783 147.909 358.509 147.749 359.404C147.271 359.404 146.792 359.404 146.314 359.404C143.443 358.436 140.573 357.47 137.702 356.502Z" fill="black"/>
<path fill-rule="evenodd" clip-rule="evenodd" d="M134.832 305.707C135.268 306.651 135.746 307.619 136.267 308.61C134.354 310.235 133.636 312.17 134.114 314.415C136.309 312.631 137.983 310.454 139.137 307.884C144.879 306.916 150.62 306.916 156.361 307.884C164.859 314.9 172.036 323.124 177.89 332.556C179.251 333.257 180.686 333.498 182.196 333.282C184.076 335.673 185.99 338.091 187.937 340.538C187.266 342.909 185.83 344.602 183.631 345.618C186.135 349.918 186.852 354.512 185.784 359.405C181.453 367.202 174.994 370.346 166.408 368.838C160.496 364.882 154.277 361.737 147.749 359.405C147.909 358.509 148.386 357.784 149.184 357.228C145.387 356.507 141.559 356.264 137.702 356.502C129.24 355.447 122.303 351.578 116.89 344.892C115.933 340.538 115.933 336.184 116.89 331.83C119.345 333.927 121.977 335.136 124.785 335.459C121.542 332.97 118.432 330.309 115.455 327.476C112.051 311.112 118.509 303.855 134.832 305.707Z" fill="black"/>
<path fill-rule="evenodd" clip-rule="evenodd" d="M153.49 346.343C151.181 345.754 149.266 345.754 147.749 346.343C148.596 348.228 150.031 349.437 152.055 349.971C150.62 350.454 149.185 350.939 147.749 351.422C149.287 352.659 150.722 353.868 152.055 355.05C149.961 355.148 148.048 354.664 146.314 353.599C145.812 350.514 145.812 347.128 146.314 343.44C149.469 342.889 151.861 343.857 153.49 346.343Z" fill="#161616"/>
<path fill-rule="evenodd" clip-rule="evenodd" d="M154.926 336.184C163.283 338.821 169.504 344.142 173.584 352.148C173.678 352.783 173.439 353.268 172.867 353.599C167.982 346.48 162.002 340.675 154.926 336.184Z" fill="black"/>
<path fill-rule="evenodd" clip-rule="evenodd" d="M154.926 336.184C162.002 340.675 167.982 346.481 172.867 353.599C173.439 353.268 173.678 352.784 173.584 352.148C176.736 358.88 174.583 363.234 167.126 365.209C162.221 362.571 157.198 359.184 152.055 355.05C150.722 353.868 149.286 352.659 147.749 351.422C149.185 350.939 150.62 350.454 152.055 349.971C150.031 349.437 148.596 348.228 147.749 346.343C149.266 345.754 151.181 345.754 153.49 346.343C151.861 343.857 149.469 342.889 146.314 343.44C145.812 347.128 145.812 350.514 146.314 353.599C143.326 353.419 141.173 351.968 139.855 349.245C138.898 350.213 137.942 351.18 136.985 352.148C134.326 349.16 132.653 346.015 131.961 342.715C133.935 339.12 136.567 337.909 139.855 339.086C144.246 333.063 149.269 332.097 154.926 336.184Z" fill="black"/>
<path fill-rule="evenodd" clip-rule="evenodd" d="M153.49 346.343C155.338 347.835 157.013 347.352 158.514 344.892C161.61 346.176 162.805 348.595 162.102 352.148C157.641 352.329 154.771 350.395 153.49 346.343Z" fill="black"/>
<path fill-rule="evenodd" clip-rule="evenodd" d="M157.796 346.343C160.071 347.071 160.789 348.523 159.949 350.697C158.458 349.617 157.74 348.166 157.796 346.343Z" fill="black"/>
<path d="M330.645 117.783L330.645 117.783L330.662 117.785L330.68 117.787L330.68 117.787L330.68 117.787L330.681 117.787L330.685 117.787L330.703 117.789L330.778 117.797C330.844 117.804 330.943 117.814 331.071 117.828C331.328 117.857 331.701 117.902 332.166 117.964C333.096 118.087 334.39 118.281 335.844 118.559C338.771 119.12 342.266 120.011 344.752 121.331C347.569 122.826 350.37 124.602 352.457 126.604C354.553 128.614 355.834 130.76 355.834 133.001C355.834 135.495 355.528 138.776 355.218 141.454C355.063 142.789 354.908 143.966 354.792 144.809C354.754 145.088 354.72 145.331 354.691 145.53C354.639 145.531 354.585 145.531 354.527 145.531C354.01 145.536 353.257 145.54 352.317 145.539C350.438 145.537 347.814 145.514 344.834 145.429C338.864 145.26 331.504 144.846 325.849 143.875C320.611 142.974 314.624 140.999 309.925 139.236C307.58 138.357 305.566 137.534 304.137 136.931C303.424 136.63 302.857 136.384 302.469 136.213C302.371 136.17 302.284 136.132 302.209 136.099C302.186 135.998 302.159 135.877 302.128 135.74C302.029 135.29 301.898 134.662 301.771 133.946C301.515 132.499 301.289 130.754 301.356 129.416L301.36 129.338C301.425 128.049 301.485 126.856 301.665 125.805C301.85 124.731 302.146 123.902 302.622 123.323C302.825 123.077 303.363 122.672 304.258 122.161C305.122 121.668 306.235 121.121 307.496 120.575C310.019 119.482 313.085 118.41 315.849 117.771C318.612 117.132 322.291 117.126 325.329 117.291C326.838 117.373 328.17 117.496 329.124 117.599C329.601 117.65 329.983 117.696 330.245 117.73C330.376 117.746 330.477 117.76 330.545 117.769L330.621 117.779L330.64 117.782L330.644 117.782L330.645 117.783L330.645 117.783Z" fill="black" stroke="black" stroke-width="1.5"/>
<path d="M301.497 124.217C301.497 124.217 314.475 131.718 327.448 133.949C343.409 136.693 356.463 135.26 356.463 135.26" stroke="black"/>
<path d="M306.885 126.698C306.885 126.698 305.378 130.105 304.913 132.278C304.439 134.498 304.567 137.76 304.567 137.76" stroke="black" stroke-width="0.5"/>
<path d="M312.365 129.254C312.365 129.254 310.879 132.56 310.428 134.671C309.966 136.829 310.113 140.003 310.113 140.003" stroke="black" stroke-width="0.5"/>
<path d="M317.972 131.39C317.972 131.39 316.501 134.625 316.058 136.694C315.606 138.807 315.765 141.921 315.765 141.921" stroke="black" stroke-width="0.5"/>
<path d="M323.513 133.221C323.513 133.221 322.567 136.074 322.137 138.083C321.697 140.136 321.37 143.452 321.37 143.452" stroke="black" stroke-width="0.5"/>
<path d="M329.969 134.351C329.969 134.351 329.48 137.445 329.039 139.504C328.589 141.609 327.772 144.836 327.772 144.836" stroke="black" stroke-width="0.5"/>
<path d="M336.949 135.13C336.949 135.13 336.644 138.204 336.326 140.257C336.002 142.354 335.378 145.578 335.378 145.578" stroke="black" stroke-width="0.5"/>
<path d="M343.284 135.858C343.284 135.858 343.157 138.829 342.898 140.997C342.652 143.053 341.965 146.041 341.965 146.041" stroke="black" stroke-width="0.5"/>
<path d="M349.84 135.621C349.84 135.621 349.738 138.466 349.497 140.54C349.269 142.507 348.606 145.363 348.606 145.363" stroke="black" stroke-width="0.5"/>
</g>
<defs>
<filter id="filter0_d_564_1293" x="0" y="0" width="413" height="398" filterUnits="userSpaceOnUse" color-interpolation-filters="sRGB">
<feFlood flood-opacity="0" result="BackgroundImageFix"/>
<feColorMatrix in="SourceAlpha" type="matrix" values="0 0 0 0 0 0 0 0 0 0 0 0 0 0 0 0 0 0 127 0" result="hardAlpha"/>
<feOffset dy="4"/>
<feGaussianBlur stdDeviation="2"/>
<feComposite in2="hardAlpha" operator="out"/>
<feColorMatrix type="matrix" values="0 0 0 0 0 0 0 0 0 0 0 0 0 0 0 0 0 0 0.25 0"/>
<feBlend mode="normal" in2="BackgroundImageFix" result="effect1_dropShadow_564_1293"/>
<feBlend mode="normal" in="SourceGraphic" in2="effect1_dropShadow_564_1293" result="shape"/>
</filter>
</defs>
</svg>
