<svg width="405" height="390" viewBox="0 0 405 390" fill="none" xmlns="http://www.w3.org/2000/svg">
<rect x="1.5" y="1.5" width="402" height="387" rx="18.5" fill="#FDFFEF" stroke="black" stroke-width="3"/>
<path fill-rule="evenodd" clip-rule="evenodd" d="M222.69 111.234C225.117 115.799 225.835 120.637 224.843 125.747C220.405 132.173 214.424 136.285 206.902 138.083C196.35 138.928 185.825 138.685 175.326 137.357C170.239 134.355 164.977 133.871 159.537 135.906C158.58 135.906 157.624 135.906 156.667 135.906C156.904 131.044 156.664 126.207 155.949 121.393C154.458 122.473 153.74 123.924 153.796 125.747C149.846 144.773 146.498 144.773 143.749 125.747C142.792 133.003 141.836 140.26 140.879 147.516C138.312 146.38 136.877 144.445 136.573 141.711C136.307 139.25 135.11 137.315 132.984 135.906C133.293 140.711 133.293 145.548 132.984 150.419C126.147 140.57 117.056 134.281 105.714 131.552C104.757 125.263 104.757 118.974 105.714 112.685C107.456 110.438 109.609 108.744 112.173 107.606C109.505 105.345 107.352 102.684 105.714 99.6239C104.757 92.8512 104.757 86.0786 105.714 79.3059C124.595 59.3662 121.007 56.2217 94.9494 69.8725C93.0505 71.0566 92.0946 72.7498 92.0788 74.952C90.0421 67.1421 92.4347 60.6113 99.2552 55.3597C89.234 55.1395 82.0576 50.5437 77.7259 41.5725C77.9656 41.0888 78.2038 40.6049 78.4435 40.1212C81.9126 42.2959 85.7391 43.2634 89.9258 43.0237C93.3347 43.1635 96.4435 42.4379 99.2552 40.8468C91.476 33.2247 89.323 24.275 92.7964 13.998C97.6577 23.6067 105.552 28.6862 116.479 29.2365C128.545 33.9683 133.808 42.9178 132.267 56.0853C140.457 55.6081 148.589 56.092 156.667 57.5366C160.317 63.2265 164.145 68.7897 168.149 74.2264C185.838 69.3903 200.908 73.5022 213.361 86.5623C217.322 95.3294 219.715 104.521 220.537 114.137C220.936 112.808 221.654 111.84 222.69 111.234Z" fill="black"/>
<path opacity="0.89" fill-rule="evenodd" clip-rule="evenodd" d="M222.69 111.234C221.654 111.84 220.936 112.808 220.537 114.137C219.715 104.521 217.322 95.3296 213.361 86.5625C200.908 73.5024 185.838 69.3905 168.149 74.2266C164.145 68.7899 160.317 63.2267 156.667 57.5368C148.589 56.0922 140.457 55.6084 132.267 56.0855C133.808 42.918 128.545 33.9685 116.479 29.2368C105.552 28.6864 97.6578 23.6069 92.7964 13.9983C89.323 24.2753 91.476 33.2249 99.2552 40.847C96.4435 42.4381 93.3347 43.1637 89.9259 43.024C85.7391 43.2636 81.9126 42.2962 78.4435 40.1214C78.2039 40.6051 77.9656 41.089 77.7259 41.5727C82.0576 50.5439 89.234 55.1397 99.2552 55.3599C92.4347 60.6115 90.0421 67.1423 92.0788 74.9522C92.1348 76.7753 91.4171 78.2266 89.9259 79.3061C86.4166 71.1181 87.6122 63.6199 93.5141 56.8112C81.0486 54.938 75.3074 47.9235 76.2906 35.7675C81.449 40.0491 87.1902 41.0166 93.5141 38.6701C87.8303 29.2678 87.8303 20.0763 93.5141 11.0957C95.0541 15.7971 97.9247 19.4254 102.126 21.9803C112.923 22.9398 122.253 27.0519 130.114 34.3163C134.075 39.9816 135.272 46.0287 133.702 52.4573C141.995 52.5939 150.128 53.5615 158.102 55.3599C163.197 60.9947 167.743 67.0417 171.737 73.501C192.962 66.0974 208.751 72.3864 219.102 92.3677C221.443 98.4455 222.638 104.734 222.69 111.234Z" fill="black"/>
<path fill-rule="evenodd" clip-rule="evenodd" d="M284.407 112.686C279.949 110.933 275.644 108.756 271.49 106.155C267.16 101.677 262.854 97.3229 258.572 93.0932C251.874 92.1256 245.177 92.1256 238.478 93.0932C236.865 93.4548 235.43 94.1805 234.172 95.2701C231.302 101.559 228.431 107.848 225.561 114.137C229.133 121.514 227.698 128.044 221.255 133.729C206.417 142.753 191.107 143.964 175.326 137.357C185.825 138.685 196.35 138.928 206.902 138.083C214.424 136.285 220.405 132.173 224.843 125.747C225.835 120.637 225.117 115.799 222.69 111.234C225.742 104.968 229.09 98.679 232.737 92.3675C243.454 86.4537 253.981 86.6956 264.313 93.0932C270.093 99.8998 276.792 105.705 284.407 110.509C286.184 111.51 286.184 112.236 284.407 112.686Z" fill="black"/>
<path opacity="0.835" fill-rule="evenodd" clip-rule="evenodd" d="M275.796 115.588C278.694 118.499 282.042 120.918 285.843 122.845C285.665 123.725 285.187 124.209 284.407 124.296C278.541 123.199 273.758 120.297 270.055 115.588C271.777 114.439 273.69 114.439 275.796 115.588Z" fill="black"/>
<path fill-rule="evenodd" clip-rule="evenodd" d="M136.573 141.711C135.315 146.176 134.837 150.53 135.137 154.772C129.178 149.474 123.437 143.911 117.914 138.082C108.804 136.489 100.192 137.94 92.0788 142.436C88.8953 152.98 83.6321 162.413 76.2906 170.736C74.7807 170.953 73.3454 170.712 71.9847 170.011C80.1946 162.383 85.6961 152.949 88.4906 141.711C92.9629 138.363 97.9864 136.428 103.561 135.906C102.932 130.721 101.977 125.642 100.691 120.667C101.579 115.486 103.972 111.132 107.867 107.605C100.774 96.6288 100.294 85.2605 106.432 73.5003C114.811 66.4074 113.854 64.7142 103.561 68.4208C99.5007 70.3883 95.6727 72.5652 92.0788 74.9516C92.0946 72.7494 93.0505 71.0562 94.9494 69.8721C121.007 56.2213 124.595 59.3658 105.714 79.3054C104.757 86.0781 104.757 92.8507 105.714 99.6234C107.352 102.684 109.505 105.345 112.173 107.605C109.609 108.744 107.456 110.437 105.714 112.685C104.757 118.974 104.757 125.263 105.714 131.552C117.056 134.28 126.147 140.57 132.985 150.418C133.293 145.548 133.293 140.711 132.985 135.906C135.11 137.315 136.307 139.249 136.573 141.711Z" fill="black"/>
<path opacity="0.882" fill-rule="evenodd" clip-rule="evenodd" d="M274.36 127.198C277.962 129.261 281.312 131.68 284.407 134.455C279.187 134.474 274.881 132.539 271.49 128.65C272.146 127.492 273.103 127.008 274.36 127.198Z" fill="black"/>
<path fill-rule="evenodd" clip-rule="evenodd" d="M156.667 135.905C155.709 132.519 154.754 129.133 153.796 125.746C153.74 123.923 154.458 122.472 155.949 121.393C156.664 126.206 156.904 131.044 156.667 135.905Z" fill="black"/>
<path fill-rule="evenodd" clip-rule="evenodd" d="M278.666 138.809C280.137 155.212 272.961 162.952 257.137 162.029C258.248 168.239 258.966 174.529 259.29 180.896C262.742 182.019 266.33 182.745 270.055 183.073C268.058 186.541 265.188 188.961 261.443 190.329C262.707 191.357 263.663 192.567 264.313 193.957C261.553 193.529 259.161 192.32 257.137 190.329C259.766 189.244 262.159 187.792 264.313 185.975C260.943 185.473 258.312 183.78 256.419 180.896C256.102 174.046 255.385 167.273 254.266 160.578C265.51 161.064 273.166 155.985 277.231 145.339C274.907 142.205 275.385 140.028 278.666 138.809Z" fill="black"/>
<path fill-rule="evenodd" clip-rule="evenodd" d="M311.678 117.039C308.905 120.924 296.705 129.632 298.043 134.454C298.521 133.487 299 132.519 299.478 131.552C300.066 133.585 300.784 135.52 301.631 137.357C289.521 140.908 283.302 149.131 282.972 162.029C281.563 167.053 281.085 172.375 281.537 177.993C280.579 175.09 279.624 172.188 278.666 169.285C279.249 160.639 281.402 152.414 285.125 144.613C288.331 141.421 291.92 138.76 295.89 136.631C294.297 132.659 294.057 128.547 295.172 124.295C298.043 119.942 309.501 117.054 311.678 117.039Z" fill="black"/>
<path fill-rule="evenodd" clip-rule="evenodd" d="M284.407 112.685C282.108 114.969 279.238 115.937 275.796 115.588C273.69 114.439 271.777 114.439 270.055 115.588C273.758 120.296 278.541 123.199 284.407 124.295C281.515 126.362 278.167 127.329 274.36 127.198C273.103 127.008 272.146 127.492 271.49 128.649C274.881 132.539 279.187 134.473 284.407 134.454C286.184 134.904 286.184 135.63 284.407 136.631C282.621 137.779 280.707 138.505 278.666 138.808C275.385 140.027 274.907 142.204 277.231 145.339C273.166 155.984 265.51 161.064 254.266 160.578C255.385 167.272 256.102 174.046 256.419 180.896C258.312 183.779 260.943 185.473 264.313 185.975C262.159 187.792 259.766 189.243 257.137 190.329C259.161 192.32 261.553 193.529 264.313 193.957C266.251 195.626 266.013 196.594 263.596 196.86C254.034 194.359 253.316 195.81 261.443 201.214C259.357 201.836 256.966 202.079 254.266 201.939C251.452 206.239 248.103 210.109 244.219 213.55C238.145 216.851 232.404 220.479 226.996 224.434C226.505 225.65 225.549 226.135 224.125 225.885C221.438 230.281 217.611 233.425 212.643 235.319C216.528 235.779 219.877 234.57 222.69 231.691C224.125 234.593 225.561 237.496 226.996 240.398C218.901 239.426 211.724 241.362 205.467 246.203C204.037 246.328 202.841 245.844 201.878 244.752C201.301 242.761 200.584 240.826 199.725 238.947C214.948 237.271 214.948 236.062 199.725 235.319C197.621 234.397 195.707 233.187 193.984 231.691C194.576 233.551 193.62 235.002 191.114 236.044C186.03 235.59 181.246 236.075 176.761 237.496C173.923 234.246 170.335 232.31 165.996 231.691C162.352 233.29 158.764 233.29 155.232 231.691C153.346 232.87 151.671 234.322 150.208 236.044C149.951 228.119 147.798 227.151 143.749 233.142C142.413 230.027 142.892 226.884 145.184 223.709C140.627 223.785 136.8 222.577 133.702 220.08C137.029 219.619 138.944 217.683 139.443 214.275C135.518 208.352 132.168 202.063 129.396 195.408C113.083 206.768 99.6873 203.865 89.2082 186.701C91.6583 183.592 92.8553 180.206 92.7965 176.542C91.7803 177.82 90.5833 178.787 89.2082 179.444C85.9588 180.488 82.6102 180.971 79.1612 180.896C82.9863 176.781 86.5745 172.427 89.9259 167.834C90.8832 166.383 90.8832 164.931 89.9259 163.48C88.5638 165.792 86.8903 167.727 84.9024 169.285C82.1251 170.229 79.2545 170.712 76.2906 170.737C83.6321 162.413 88.8954 152.98 92.0788 142.437C100.193 137.94 108.804 136.489 117.914 138.083C123.437 143.911 129.178 149.474 135.137 154.772C134.837 150.53 135.315 146.177 136.573 141.711C136.877 144.445 138.312 146.38 140.879 147.516C141.836 140.26 142.792 133.003 143.749 125.747C146.498 144.773 149.846 144.773 153.796 125.747C154.754 129.133 155.709 132.519 156.667 135.906C157.624 135.906 158.58 135.906 159.537 135.906C164.845 135.981 170.108 136.466 175.326 137.357C191.107 143.963 206.417 142.753 221.255 133.729C227.698 128.044 229.133 121.513 225.561 114.136C228.431 107.848 231.302 101.559 234.172 95.2698C235.43 94.1802 236.865 93.4545 238.478 93.0929C245.177 92.1253 251.874 92.1253 258.572 93.0929C262.854 97.3226 267.16 101.676 271.49 106.154C275.644 108.756 279.949 110.933 284.407 112.685Z" fill="black"/>
<path fill-rule="evenodd" clip-rule="evenodd" d="M119.349 169.285C122.867 172.318 126.216 175.704 129.396 179.444C126.481 182.207 123.611 182.45 120.785 180.17C122.22 179.687 123.655 179.202 125.09 178.719C123.415 177.025 121.742 175.333 120.067 173.639C118.903 175.758 117.706 176.241 116.479 175.09C117.455 173.117 118.412 171.182 119.349 169.285Z" fill="black"/>
<path fill-rule="evenodd" clip-rule="evenodd" d="M155.231 156.224C162.264 155.423 167.05 158.325 169.584 164.931C158.854 162.866 152.395 167.703 150.208 179.444C146.077 170.101 147.752 162.36 155.231 156.224Z" fill="black"/>
<path fill-rule="evenodd" clip-rule="evenodd" d="M212.643 141.711C222.287 140.788 228.506 145.142 231.302 154.772C230.824 155.256 230.344 155.741 229.867 156.224C222.29 148.652 214.875 148.652 207.62 156.224C207.526 150.815 209.2 145.978 212.643 141.711Z" fill="black"/>
<path fill-rule="evenodd" clip-rule="evenodd" d="M248.525 135.906C250.146 139.05 249.428 141.952 246.372 144.614C246.321 141.607 247.038 138.704 248.525 135.906Z" fill="black"/>
<path fill-rule="evenodd" clip-rule="evenodd" d="M159.537 135.906C164.977 133.871 170.239 134.354 175.326 137.357C170.108 136.466 164.845 135.981 159.537 135.906Z" fill="black"/>
<path fill-rule="evenodd" clip-rule="evenodd" d="M249.961 125.747C253.018 128.108 255.888 130.769 258.572 133.729C255.35 133.446 252.719 131.753 250.678 128.65C248.426 133.834 245.078 138.187 240.631 141.711C239.674 140.743 239.674 139.777 240.631 138.809C244.458 134.925 247.568 130.571 249.961 125.747Z" fill="black"/>
<path fill-rule="evenodd" clip-rule="evenodd" d="M301.631 137.357C308.09 138.809 309.412 139.578 315.984 139.534C317.079 140.649 322.102 141.375 323.878 141.711C332.302 142.086 339.666 144.614 347.56 146.065C348.856 149.165 350.53 152.068 352.584 154.773C353.659 165.073 352.941 175.232 350.431 185.25C348.374 187.184 346.459 189.361 344.69 191.781C343.329 192.482 341.894 192.723 340.384 192.506C337.817 190.878 334.947 190.636 331.772 191.781C327.555 194.405 323.249 196.581 318.854 198.311C312.704 197.284 306.485 196.558 300.196 196.134C296.264 194.645 292.916 192.469 290.149 189.604C288.713 187.184 286.8 185.25 284.408 183.799C283.127 176.632 282.648 169.376 282.972 162.029C283.302 149.132 289.521 140.909 301.631 137.357Z" fill="black"/>
<path d="M340.891 159.867L336.092 184.22C335.954 184.922 335.349 185.419 334.643 185.41C330.746 185.361 320.74 185.126 313.933 183.998C307.225 182.886 297.82 179.943 294.073 178.725C293.376 178.498 292.951 177.793 293.074 177.063L297.387 151.337C297.538 150.433 298.455 149.875 299.332 150.152C302.155 151.044 307.281 152.62 312.243 153.917C314.245 154.44 316.224 154.918 318.017 155.288C324.966 156.723 335.071 157.678 339.522 158.054C340.426 158.13 341.066 158.978 340.891 159.867Z" fill="black" stroke="black"/>
<path d="M300.095 160.062C299.926 160.096 299.789 160.077 299.683 160.003C299.577 159.929 299.505 159.845 299.468 159.752C299.413 159.633 299.411 159.519 299.464 159.409C299.516 159.3 299.622 159.216 299.784 159.159C300.05 159.067 300.374 159.013 300.756 158.996C301.14 158.97 301.538 159.016 301.95 159.135C302.362 159.254 302.725 159.44 303.037 159.693C303.362 159.937 303.62 160.223 303.811 160.551C304.012 160.881 304.143 161.241 304.204 161.632C304.277 162.014 304.272 162.403 304.191 162.8C304.095 163.217 303.937 163.621 303.715 164.014C303.504 164.409 303.24 164.767 302.923 165.089C302.616 165.412 302.262 165.694 301.862 165.935C301.474 166.167 301.061 166.329 300.622 166.422C300.325 166.444 300.108 166.414 299.971 166.335C299.833 166.255 299.745 166.174 299.705 166.091C299.694 166.035 299.695 165.964 299.71 165.88C299.738 165.788 299.812 165.704 299.934 165.629C299.989 164.587 300.085 163.591 300.222 162.64C300.371 161.68 300.515 160.807 300.655 160.019C300.471 160.018 300.285 160.032 300.095 160.062ZM301.847 160.173C301.786 160.151 301.718 160.133 301.645 160.12C301.584 160.098 301.522 160.081 301.459 160.069C301.507 160.165 301.541 160.28 301.56 160.413C301.582 160.537 301.582 160.656 301.562 160.771C301.448 161.412 301.331 162.101 301.21 162.838C301.101 163.577 301.012 164.379 300.945 165.245C301.466 164.994 301.934 164.646 302.349 164.202C302.776 163.749 303.051 163.241 303.173 162.678C303.277 162.155 303.228 161.669 303.026 161.22C302.826 160.76 302.433 160.411 301.847 160.173ZM311.028 162.399C311.037 162.596 311.038 162.829 311.034 163.099C311.031 163.359 311.009 163.632 310.969 163.917C310.942 164.194 310.897 164.479 310.834 164.771C310.771 165.063 310.689 165.341 310.588 165.604C310.469 165.907 310.292 166.173 310.056 166.401C309.821 166.629 309.548 166.822 309.238 166.982C308.938 167.144 308.614 167.263 308.264 167.34C307.927 167.408 307.59 167.444 307.254 167.447C306.93 167.442 306.613 167.394 306.304 167.305C306.007 167.207 305.75 167.067 305.533 166.886C305.288 166.679 305.105 166.433 304.982 166.151C304.858 165.868 304.84 165.544 304.927 165.181C305.011 164.827 305.1 164.508 305.195 164.221C305.291 163.925 305.395 163.645 305.506 163.384C305.628 163.124 305.755 162.866 305.888 162.608C306.022 162.34 306.164 162.063 306.312 161.775C306.389 161.649 306.497 161.587 306.638 161.591C306.692 161.59 306.755 161.602 306.826 161.626C306.858 161.632 306.896 161.66 306.941 161.712C306.998 161.755 307.048 161.813 307.089 161.886C307.13 161.958 307.159 162.04 307.176 162.129C307.203 162.221 307.191 162.317 307.141 162.416C306.987 162.735 306.832 163.058 306.676 163.388C306.52 163.717 306.377 164.032 306.247 164.334C306.128 164.637 306.036 164.913 305.97 165.161C305.917 165.401 305.909 165.595 305.948 165.743C306.049 165.967 306.209 166.132 306.429 166.238C306.661 166.335 306.912 166.386 307.181 166.392C307.451 166.399 307.715 166.377 307.973 166.327C308.244 166.268 308.478 166.197 308.677 166.115C308.994 165.978 309.241 165.779 309.417 165.519C309.604 165.26 309.743 164.966 309.834 164.636C309.925 164.305 309.983 163.953 310.006 163.577C310.04 163.204 310.057 162.833 310.058 162.464C310.054 162.366 310.08 162.246 310.138 162.105C310.195 161.964 310.3 161.864 310.451 161.805C310.613 161.748 310.742 161.782 310.839 161.909C310.946 162.037 311.009 162.2 311.028 162.399ZM318.624 163.243C318.392 164.122 318.14 165.019 317.869 165.935C317.61 166.841 317.324 167.689 317.01 168.477C316.933 168.669 316.85 168.8 316.762 168.87C316.673 168.941 316.558 168.979 316.416 168.986C316.297 168.986 316.141 168.919 315.948 168.786C315.765 168.655 315.622 168.487 315.517 168.284C315.382 168.009 315.234 167.711 315.075 167.389C314.928 167.058 314.76 166.724 314.571 166.385C314.394 166.038 314.201 165.694 313.991 165.351C313.791 165.011 313.573 164.689 313.334 164.385C313.179 165.072 313.031 165.755 312.888 166.434C312.748 167.102 312.627 167.779 312.527 168.466C312.51 168.56 312.418 168.592 312.25 168.561C312.051 168.524 311.906 168.395 311.815 168.172C311.727 167.939 311.691 167.715 311.707 167.502C311.713 167.286 311.75 166.984 311.82 166.595C311.891 166.196 311.97 165.782 312.057 165.353C312.154 164.927 312.249 164.516 312.341 164.121C312.433 163.725 312.51 163.414 312.572 163.187C312.638 162.939 312.728 162.766 312.843 162.668C312.969 162.571 313.078 162.537 313.17 162.565C313.376 162.625 313.501 162.713 313.546 162.829C313.602 162.937 313.623 163.066 313.607 163.215C313.936 163.557 314.23 163.915 314.489 164.288C314.758 164.663 314.995 165.037 315.199 165.411C315.414 165.787 315.603 166.158 315.765 166.524C315.94 166.881 316.104 167.209 316.256 167.509C316.494 166.902 316.719 166.217 316.931 165.453C317.153 164.691 317.382 163.893 317.617 163.058C317.625 162.951 317.706 162.863 317.859 162.793C318.014 162.713 318.148 162.689 318.262 162.721C318.552 162.796 318.673 162.97 318.624 163.243ZM319.859 163.698C319.69 163.732 319.553 163.712 319.447 163.638C319.34 163.565 319.269 163.481 319.231 163.387C319.176 163.269 319.175 163.155 319.227 163.045C319.279 162.935 319.386 162.852 319.548 162.795C319.813 162.703 320.137 162.648 320.519 162.632C320.903 162.605 321.302 162.651 321.714 162.77C322.126 162.889 322.488 163.075 322.801 163.328C323.126 163.572 323.384 163.858 323.575 164.186C323.776 164.516 323.907 164.876 323.967 165.267C324.04 165.649 324.036 166.039 323.955 166.436C323.859 166.852 323.7 167.257 323.479 167.65C323.268 168.045 323.003 168.403 322.686 168.724C322.38 169.047 322.026 169.329 321.626 169.57C321.238 169.802 320.824 169.965 320.385 170.058C320.089 170.079 319.872 170.05 319.734 169.97C319.597 169.891 319.508 169.809 319.469 169.726C319.457 169.67 319.459 169.6 319.474 169.516C319.501 169.423 319.576 169.339 319.697 169.264C319.753 168.222 319.849 167.226 319.985 166.275C320.134 165.316 320.279 164.442 320.419 163.654C320.235 163.653 320.048 163.668 319.859 163.698ZM321.61 163.809C321.549 163.786 321.482 163.769 321.408 163.755C321.347 163.733 321.285 163.716 321.222 163.705C321.27 163.8 321.304 163.915 321.324 164.049C321.345 164.172 321.346 164.291 321.325 164.407C321.211 165.047 321.094 165.736 320.974 166.473C320.864 167.212 320.775 168.015 320.708 168.881C321.23 168.63 321.698 168.282 322.113 167.838C322.54 167.385 322.814 166.877 322.936 166.314C323.04 165.79 322.991 165.304 322.789 164.855C322.589 164.395 322.196 164.047 321.61 163.809ZM329.681 167.896C329.704 168.009 329.643 168.106 329.499 168.188C329.356 168.259 329.145 168.285 328.867 168.267C328.384 168.243 327.889 168.222 327.383 168.205C326.878 168.177 326.363 168.153 325.836 168.132C325.719 168.664 325.624 169.199 325.55 169.739C325.791 169.783 326.083 169.815 326.427 169.835C326.782 169.846 327.145 169.848 327.515 169.84C327.884 169.832 328.238 169.821 328.577 169.807C328.927 169.785 329.223 169.769 329.463 169.759C329.584 169.749 329.708 169.75 329.836 169.763C329.966 169.765 330.076 169.785 330.167 169.823C330.27 169.853 330.347 169.905 330.399 169.98C330.45 170.055 330.466 170.15 330.446 170.265C330.44 170.297 330.395 170.337 330.31 170.387C330.226 170.436 330.119 170.487 329.99 170.539C329.874 170.583 329.748 170.625 329.611 170.665C329.486 170.696 329.374 170.719 329.273 170.733C328.586 170.823 327.913 170.889 327.255 170.931C326.6 170.962 325.972 170.928 325.372 170.829C325.024 170.775 324.778 170.638 324.633 170.416C324.49 170.184 324.446 169.883 324.501 169.513C324.572 168.995 324.664 168.475 324.778 167.954C324.619 167.816 324.556 167.653 324.589 167.464C324.646 167.268 324.764 167.149 324.945 167.106C325.021 166.805 325.09 166.504 325.155 166.201C325.222 165.888 325.292 165.581 325.368 165.281C325.256 165.238 325.161 165.161 325.084 165.049C325.017 164.939 324.993 164.827 325.014 164.711C325.031 164.617 325.067 164.537 325.122 164.471C325.179 164.394 325.268 164.346 325.391 164.325C325.588 164.318 325.827 164.313 326.109 164.311C326.391 164.308 326.677 164.312 326.968 164.322C327.269 164.334 327.554 164.349 327.822 164.366C328.1 164.384 328.335 164.406 328.526 164.43C328.75 164.449 328.956 164.509 329.144 164.609C329.342 164.71 329.515 164.867 329.662 165.078C329.677 165.233 329.626 165.337 329.508 165.392C329.401 165.448 329.267 165.472 329.105 165.464C328.944 165.456 328.751 165.447 328.525 165.438C328.301 165.419 328.065 165.403 327.819 165.39C327.582 165.379 327.34 165.367 327.094 165.354C326.859 165.333 326.634 165.318 326.419 165.311C326.415 165.332 326.41 165.358 326.405 165.39C326.411 165.413 326.413 165.435 326.409 165.456C326.34 165.725 326.275 165.995 326.216 166.266C326.157 166.537 326.098 166.808 326.039 167.08C326.493 167.087 326.955 167.107 327.426 167.139C327.899 167.161 328.274 167.187 328.55 167.216C328.774 167.236 328.985 167.301 329.181 167.414C329.378 167.526 329.544 167.686 329.681 167.896ZM331.992 172.095C332.029 171.701 332.081 171.255 332.148 170.757C332.226 170.262 332.31 169.757 332.401 169.242C332.495 168.717 332.586 168.203 332.676 167.699C332.776 167.196 332.873 166.742 332.967 166.337C332.986 166.232 333.047 166.162 333.151 166.127C333.267 166.083 333.355 166.072 333.416 166.094C333.602 166.15 333.715 166.241 333.758 166.368C333.812 166.487 333.833 166.648 333.818 166.851C333.748 167.185 333.678 167.519 333.607 167.854C333.548 168.19 333.493 168.527 333.444 168.865C333.931 168.867 334.355 168.767 334.716 168.562C335.088 168.359 335.372 168.102 335.569 167.791C335.643 167.675 335.707 167.53 335.76 167.355C335.823 167.182 335.86 167.005 335.871 166.822C335.884 166.629 335.862 166.446 335.806 166.273C335.763 166.092 335.67 165.939 335.53 165.816C335.323 165.637 335.085 165.517 334.814 165.456C334.543 165.396 334.252 165.386 333.942 165.426C333.643 165.458 333.336 165.542 333.019 165.679C332.713 165.818 332.415 165.997 332.127 166.215C332.131 166.378 332.085 166.516 331.989 166.629C331.895 166.731 331.775 166.795 331.629 166.823C331.541 166.828 331.449 166.768 331.353 166.642C331.258 166.505 331.221 166.379 331.241 166.263C331.316 165.843 331.496 165.502 331.781 165.24C332.078 164.969 332.424 164.762 332.818 164.618C333.212 164.473 333.623 164.386 334.051 164.356C334.478 164.327 334.865 164.344 335.212 164.407C335.726 164.502 336.129 164.733 336.421 165.101C336.715 165.459 336.885 165.875 336.93 166.35C337.01 167.178 336.827 167.876 336.379 168.445C335.941 169.015 335.309 169.463 334.482 169.788C334.968 170.224 335.42 170.638 335.838 171.029C336.266 171.423 336.69 171.842 337.109 172.288C337.161 172.363 337.212 172.47 337.263 172.609C337.327 172.74 337.284 172.917 337.137 173.139C337.047 173.274 336.922 173.338 336.761 173.33C336.612 173.314 336.474 173.239 336.346 173.107C336.149 172.876 335.921 172.633 335.663 172.38C335.417 172.118 335.154 171.858 334.875 171.6C334.597 171.333 334.318 171.075 334.037 170.828C333.758 170.571 333.492 170.332 333.238 170.112C333.174 170.534 333.104 170.955 333.03 171.375C332.967 171.786 332.911 172.194 332.861 172.596C332.835 172.743 332.774 172.841 332.679 172.888C332.586 172.925 332.476 172.932 332.351 172.909C332.289 172.887 332.237 172.845 332.194 172.783C332.153 172.71 332.113 172.632 332.073 172.549C332.046 172.457 332.024 172.372 332.005 172.293C331.989 172.203 331.984 172.137 331.992 172.095ZM302.726 171.771C302.716 171.823 302.649 171.865 302.524 171.896C302.41 171.93 302.306 171.937 302.211 171.92C301.517 171.803 300.857 171.709 300.23 171.637C299.604 171.565 298.991 171.507 298.393 171.462C298.275 171.451 298.177 171.395 298.097 171.293C298.028 171.194 297.994 171.085 297.993 170.965C297.991 170.856 298.015 170.752 298.065 170.653C298.128 170.545 298.214 170.485 298.325 170.473C298.943 170.468 299.604 170.497 300.308 170.561C301.011 170.626 301.702 170.764 302.38 170.975C302.42 170.993 302.467 171.029 302.523 171.083C302.58 171.126 302.63 171.184 302.671 171.256C302.714 171.318 302.744 171.394 302.76 171.484C302.777 171.574 302.765 171.669 302.726 171.771ZM302.684 176.757C302.679 177.635 302.638 178.505 302.56 179.37C302.484 180.223 302.393 181.074 302.285 181.922C302.279 182.018 302.253 182.1 302.209 182.168C302.166 182.225 302.114 182.275 302.052 182.318C302.001 182.363 301.946 182.396 301.888 182.418C301.841 182.442 301.801 182.451 301.77 182.445C301.654 182.424 301.548 182.35 301.451 182.224C301.367 182.089 301.33 181.93 301.341 181.748C301.381 181.343 301.42 180.938 301.46 180.534C301.499 180.129 301.533 179.723 301.562 179.316C300.407 179.418 299.194 179.472 297.926 179.477C297.927 179.716 297.928 179.954 297.928 180.193C297.929 180.432 297.935 180.672 297.947 180.912C297.95 180.956 297.943 181.025 297.926 181.12C297.92 181.216 297.897 181.315 297.857 181.416C297.828 181.519 297.779 181.613 297.709 181.698C297.653 181.774 297.573 181.825 297.471 181.85C297.385 181.845 297.301 181.802 297.218 181.722C297.135 181.641 297.083 181.567 297.063 181.498C296.995 181.149 296.943 180.738 296.908 180.266C296.883 179.795 296.873 179.305 296.877 178.796C296.893 178.278 296.931 177.759 296.991 177.239C297.051 176.719 297.134 176.224 297.239 175.755C297.288 175.602 297.365 175.502 297.471 175.456C297.589 175.402 297.69 175.383 297.774 175.398C297.868 175.416 297.941 175.462 297.993 175.536C298.055 175.613 298.099 175.702 298.124 175.804C298.149 175.907 298.164 176.007 298.168 176.105C298.172 176.204 298.169 176.284 298.157 176.347C298.108 176.685 298.065 177.019 298.028 177.348C297.991 177.678 297.97 178.01 297.965 178.345C298.513 178.37 299.113 178.378 299.765 178.367C300.418 178.347 301.038 178.303 301.624 178.238C301.646 177.992 301.663 177.746 301.674 177.499C301.688 177.241 301.7 176.988 301.712 176.741C301.743 176.562 301.824 176.414 301.953 176.297C302.093 176.182 302.22 176.135 302.336 176.156C302.42 176.172 302.496 176.229 302.565 176.328C302.644 176.43 302.684 176.573 302.684 176.757ZM309.37 181.029C309.255 181.311 309.089 181.574 308.872 181.816C308.668 182.049 308.441 182.262 308.19 182.455C307.939 182.647 307.673 182.804 307.391 182.926C307.12 183.05 306.85 183.135 306.581 183.184C306.09 183.267 305.618 183.24 305.166 183.102C304.726 182.956 304.359 182.672 304.066 182.249C303.877 181.911 303.763 181.548 303.723 181.161C303.694 180.776 303.713 180.395 303.78 180.017C303.86 179.63 303.979 179.267 304.137 178.927C304.305 178.59 304.493 178.294 304.701 178.039C304.95 177.738 305.225 177.501 305.526 177.329C305.828 177.156 306.139 177.078 306.462 177.094C306.549 177.088 306.614 177.122 306.655 177.195C306.696 177.267 306.709 177.346 306.695 177.43C306.818 177.344 306.995 177.295 307.224 177.283C307.454 177.271 307.702 177.311 307.967 177.403C308.459 177.559 308.831 177.785 309.082 178.08C309.332 178.376 309.497 178.699 309.576 179.05C309.666 179.392 309.68 179.741 309.617 180.098C309.565 180.447 309.483 180.757 309.37 181.029ZM306.326 178.224C306.099 178.28 305.896 178.389 305.715 178.551C305.547 178.704 305.395 178.888 305.26 179.102C305.135 179.317 305.032 179.559 304.952 179.826C304.884 180.084 304.839 180.342 304.815 180.598C304.781 180.971 304.837 181.296 304.983 181.572C305.13 181.838 305.404 182.007 305.802 182.081C306.033 182.123 306.266 182.123 306.501 182.079C306.749 182.027 306.98 181.945 307.195 181.833C307.41 181.72 307.614 181.579 307.807 181.408C308.002 181.227 308.166 181.035 308.3 180.832C308.373 180.726 308.44 180.592 308.501 180.43C308.564 180.257 308.607 180.081 308.628 179.9C308.651 179.709 308.641 179.523 308.597 179.341C308.554 179.16 308.464 178.997 308.327 178.852C308.134 178.654 307.889 178.512 307.59 178.424C307.292 178.337 306.96 178.346 306.594 178.452C306.524 178.483 306.448 178.48 306.368 178.443C306.3 178.398 306.286 178.325 306.326 178.224ZM317.344 179.275C317.112 180.154 316.86 181.051 316.589 181.966C316.33 182.873 316.044 183.721 315.73 184.509C315.653 184.701 315.57 184.832 315.482 184.902C315.393 184.973 315.278 185.011 315.136 185.018C315.017 185.017 314.861 184.951 314.668 184.818C314.485 184.686 314.342 184.519 314.237 184.315C314.102 184.041 313.954 183.743 313.795 183.421C313.648 183.09 313.48 182.755 313.291 182.417C313.114 182.07 312.921 181.725 312.711 181.383C312.511 181.043 312.292 180.721 312.054 180.416C311.899 181.104 311.751 181.787 311.608 182.465C311.468 183.134 311.347 183.811 311.247 184.497C311.23 184.592 311.138 184.624 310.97 184.593C310.77 184.556 310.626 184.426 310.535 184.204C310.447 183.971 310.411 183.747 310.427 183.533C310.433 183.317 310.47 183.015 310.539 182.627C310.61 182.228 310.689 181.814 310.776 181.385C310.874 180.958 310.969 180.548 311.061 180.152C311.153 179.757 311.23 179.446 311.292 179.219C311.358 178.971 311.448 178.797 311.563 178.699C311.688 178.603 311.797 178.569 311.89 178.597C312.096 178.656 312.221 178.745 312.266 178.861C312.322 178.969 312.343 179.098 312.327 179.247C312.656 179.589 312.95 179.947 313.209 180.32C313.478 180.695 313.715 181.069 313.919 181.443C314.134 181.818 314.323 182.189 314.485 182.555C314.66 182.913 314.824 183.241 314.976 183.54C315.214 182.933 315.439 182.248 315.651 181.485C315.873 180.723 316.101 179.925 316.337 179.089C316.345 178.982 316.426 178.894 316.579 178.825C316.734 178.745 316.868 178.721 316.982 178.753C317.272 178.828 317.392 179.002 317.344 179.275ZM301.124 184.978C301.132 185.175 301.134 185.408 301.13 185.678C301.127 185.938 301.105 186.211 301.065 186.496C301.038 186.773 300.993 187.058 300.93 187.35C300.867 187.642 300.785 187.919 300.684 188.183C300.565 188.486 300.388 188.752 300.152 188.98C299.917 189.208 299.644 189.401 299.334 189.561C299.034 189.723 298.71 189.842 298.36 189.919C298.023 189.987 297.686 190.023 297.35 190.026C297.026 190.02 296.709 189.973 296.4 189.884C296.103 189.786 295.846 189.646 295.629 189.465C295.384 189.258 295.2 189.012 295.077 188.729C294.954 188.447 294.936 188.123 295.022 187.76C295.107 187.406 295.196 187.087 295.291 186.8C295.387 186.504 295.49 186.224 295.602 185.963C295.724 185.703 295.851 185.445 295.984 185.187C296.118 184.919 296.26 184.642 296.408 184.354C296.485 184.227 296.593 184.166 296.733 184.17C296.788 184.169 296.851 184.181 296.922 184.205C296.954 184.211 296.992 184.239 297.037 184.291C297.094 184.334 297.144 184.392 297.185 184.465C297.226 184.537 297.255 184.619 297.272 184.708C297.299 184.8 297.287 184.896 297.237 184.995C297.083 185.313 296.928 185.637 296.771 185.967C296.615 186.296 296.473 186.611 296.343 186.913C296.224 187.216 296.132 187.492 296.066 187.74C296.013 187.98 296.005 188.174 296.044 188.322C296.145 188.546 296.305 188.711 296.525 188.817C296.757 188.914 297.007 188.965 297.277 188.971C297.547 188.978 297.811 188.956 298.069 188.906C298.339 188.847 298.574 188.776 298.773 188.693C299.09 188.557 299.337 188.358 299.513 188.098C299.7 187.839 299.839 187.545 299.93 187.215C300.021 186.884 300.079 186.532 300.102 186.156C300.136 185.783 300.153 185.412 300.154 185.043C300.149 184.945 300.176 184.825 300.234 184.684C300.291 184.543 300.396 184.443 300.547 184.384C300.709 184.327 300.838 184.361 300.935 184.488C301.042 184.616 301.105 184.779 301.124 184.978ZM308.72 185.822C308.488 186.701 308.236 187.598 307.965 188.514C307.706 189.42 307.42 190.268 307.106 191.056C307.029 191.248 306.946 191.379 306.858 191.449C306.769 191.52 306.654 191.558 306.512 191.565C306.393 191.565 306.237 191.498 306.044 191.365C305.861 191.234 305.718 191.066 305.613 190.863C305.478 190.588 305.33 190.29 305.171 189.968C305.024 189.637 304.856 189.303 304.667 188.964C304.49 188.617 304.297 188.273 304.087 187.93C303.887 187.59 303.668 187.268 303.43 186.964C303.275 187.651 303.127 188.334 302.984 189.013C302.844 189.681 302.723 190.358 302.623 191.045C302.606 191.139 302.514 191.171 302.346 191.14C302.147 191.103 302.002 190.974 301.911 190.751C301.823 190.518 301.787 190.294 301.803 190.08C301.809 189.865 301.846 189.562 301.915 189.174C301.986 188.775 302.065 188.361 302.153 187.932C302.25 187.506 302.345 187.095 302.437 186.7C302.529 186.304 302.606 185.993 302.668 185.766C302.734 185.518 302.824 185.345 302.939 185.247C303.065 185.15 303.174 185.116 303.266 185.144C303.472 185.204 303.597 185.292 303.642 185.408C303.698 185.516 303.719 185.645 303.703 185.794C304.032 186.136 304.326 186.494 304.585 186.867C304.854 187.242 305.091 187.616 305.295 187.99C305.51 188.366 305.699 188.737 305.861 189.103C306.036 189.46 306.2 189.788 306.352 190.088C306.59 189.481 306.815 188.795 307.027 188.032C307.249 187.27 307.478 186.472 307.713 185.637C307.721 185.53 307.802 185.442 307.955 185.372C308.11 185.292 308.244 185.268 308.358 185.3C308.648 185.375 308.768 185.549 308.72 185.822ZM312.2 188.821C312.147 188.811 312.08 188.793 311.998 188.767C311.928 188.733 311.859 188.693 311.792 188.648C311.736 188.595 311.687 188.537 311.644 188.475C311.603 188.402 311.587 188.334 311.599 188.271C311.614 188.187 311.679 188.096 311.794 187.998C311.921 187.891 312.106 187.827 312.348 187.807C312.675 187.791 313.013 187.81 313.361 187.863C313.711 187.906 314.058 187.97 314.4 188.054C314.744 188.128 315.082 188.212 315.412 188.305C315.744 188.388 316.056 188.462 316.348 188.526C316.515 188.557 316.62 188.609 316.661 188.682C316.703 188.754 316.716 188.833 316.701 188.917C316.667 189.106 316.557 189.237 316.37 189.311C316.184 189.386 316.008 189.402 315.842 189.361C315.665 189.317 315.477 189.277 315.278 189.241C315.089 189.206 314.89 189.169 314.68 189.131C314.628 189.425 314.579 189.757 314.535 190.129C314.503 190.492 314.47 190.86 314.436 191.233C314.402 191.606 314.371 191.964 314.343 192.306C314.325 192.65 314.311 192.94 314.302 193.177C314.308 193.264 314.273 193.339 314.197 193.401C314.133 193.455 314.043 193.471 313.928 193.45C313.708 193.409 313.569 193.243 313.513 192.95C313.405 192.399 313.368 191.785 313.402 191.108C312.774 191.35 312.179 191.463 311.619 191.447C311.058 191.43 310.568 191.324 310.148 191.127C309.74 190.922 309.426 190.648 309.206 190.303C308.998 189.951 308.932 189.559 309.008 189.128C309.081 188.719 309.233 188.291 309.464 187.846C309.695 187.4 309.986 186.982 310.337 186.591C310.689 186.2 311.079 185.86 311.51 185.571C311.953 185.273 312.422 185.071 312.918 184.967C313.082 184.954 313.23 184.976 313.361 185.033C313.504 185.081 313.626 185.157 313.726 185.263C313.839 185.359 313.933 185.474 314.007 185.607C314.093 185.731 314.163 185.853 314.218 185.971C314.257 186.054 314.275 186.139 314.27 186.225C314.266 186.311 314.22 186.384 314.134 186.444C313.956 186.53 313.822 186.495 313.73 186.337C313.591 186.084 313.463 185.924 313.344 185.859C313.238 185.785 313.068 185.798 312.834 185.895C312.598 186.004 312.327 186.187 312.021 186.445C311.717 186.693 311.422 186.981 311.136 187.308C310.863 187.626 310.629 187.968 310.434 188.333C310.241 188.688 310.136 189.032 310.12 189.365C310.101 189.655 310.222 189.889 310.483 190.067C310.746 190.234 311.056 190.346 311.415 190.401C311.784 190.458 312.158 190.456 312.537 190.396C312.927 190.337 313.24 190.221 313.477 190.048C313.498 189.868 313.519 189.687 313.54 189.507C313.564 189.316 313.591 189.131 313.623 188.952C313.388 188.931 313.154 188.91 312.919 188.888C312.686 188.856 312.447 188.834 312.2 188.821Z" fill="black"/>
<path d="M312.736 155.955L311.059 152.88L313.331 152.5L312.736 155.955Z" fill="black"/>
<path d="M310.959 154.875L309.753 152.175L311.706 152.016L310.959 154.875Z" fill="black"/>
<path d="M296.181 164.991L293.736 165.4L294.204 163.474L296.181 164.991Z" fill="black"/>
<path d="M303.26 179.122L302.996 182.686L301.152 181.988L303.26 179.122Z" fill="black"/>
<path fill-rule="evenodd" clip-rule="evenodd" d="M282.972 162.029C282.648 169.376 283.127 176.632 284.407 183.799C282.105 182.656 281.148 180.722 281.537 177.993C281.085 172.376 281.563 167.054 282.972 162.029Z" fill="black"/>
<path opacity="0.961" fill-rule="evenodd" clip-rule="evenodd" d="M79.1612 180.896C78.1005 181.086 77.1432 180.844 76.2906 180.17C80.0138 177.143 82.8844 173.515 84.9024 169.286C86.8903 167.727 88.5638 165.792 89.9259 163.48C90.8832 164.932 90.8832 166.383 89.9259 167.834C86.5745 172.428 82.9863 176.781 79.1612 180.896Z" fill="black"/>
<path fill-rule="evenodd" clip-rule="evenodd" d="M219.819 170.736C229.495 172.365 233.083 178.17 230.584 188.152C225.309 196.032 220.526 195.547 216.231 186.7C214.718 180.67 215.915 175.349 219.819 170.736Z" fill="black"/>
<path fill-rule="evenodd" clip-rule="evenodd" d="M165.279 185.25C172.855 187.357 177.161 192.437 178.196 200.488C176.635 206.879 172.807 208.572 166.714 205.568C161.712 199.011 161.234 192.238 165.279 185.25Z" fill="black"/>
<path fill-rule="evenodd" clip-rule="evenodd" d="M166.714 186.701C168.234 188.98 167.516 190.914 164.561 192.506C164.13 190.234 164.848 188.299 166.714 186.701Z" fill="black"/>
<path fill-rule="evenodd" clip-rule="evenodd" d="M219.941 172.914C221.461 175.193 220.743 177.127 217.788 178.719C217.357 176.446 218.075 174.512 219.941 172.914Z" fill="black"/>
<path fill-rule="evenodd" clip-rule="evenodd" d="M198.29 191.055C201.673 190.818 205.022 191.059 208.337 191.78C202.905 192.613 197.641 193.58 192.549 194.683C194.498 193.327 196.413 192.117 198.29 191.055Z" fill="black"/>
<path fill-rule="evenodd" clip-rule="evenodd" d="M198.29 195.409C202.147 195.171 205.975 195.413 209.772 196.134C212.329 204.227 209.218 208.338 200.443 208.47C193.717 209.007 190.847 206.105 191.831 199.763C193.854 197.904 196.007 196.452 198.29 195.409Z" fill="black"/>
<path fill-rule="evenodd" clip-rule="evenodd" d="M264.313 193.957C267.775 194.239 269.211 196.173 268.619 199.762C266.567 199.877 264.652 199.394 262.878 198.311C261.733 198.974 261.255 199.942 261.443 201.213C253.316 195.81 254.034 194.359 263.596 196.86C266.013 196.594 266.251 195.626 264.313 193.957Z" fill="black"/>
<path opacity="0.788" fill-rule="evenodd" clip-rule="evenodd" d="M133.702 220.081C134.929 218.584 135.887 216.892 136.573 215.001C133.384 210.088 130.513 205.009 127.961 199.763C117.663 207.227 107.138 207.469 96.3847 200.488C88.2538 195.03 85.8626 188.014 89.2082 179.445C90.5832 178.787 91.7803 177.821 92.7964 176.542C92.8553 180.206 91.6583 183.592 89.2082 186.701C99.6873 203.865 113.083 206.768 129.396 195.409C132.168 202.063 135.518 208.353 139.443 214.275C138.944 217.683 137.029 219.619 133.702 220.081Z" fill="black"/>
<path fill-rule="evenodd" clip-rule="evenodd" d="M199.725 196.859C207.14 197.634 207.14 199.086 199.725 201.213C198.768 200.73 197.812 200.245 196.855 199.762C197.921 198.772 198.877 197.804 199.725 196.859Z" fill="black"/>
<path fill-rule="evenodd" clip-rule="evenodd" d="M278.666 169.285C279.624 172.188 280.58 175.09 281.537 177.993C281.148 180.721 282.105 182.656 284.407 183.798C284.885 187.184 286.8 189.12 290.149 189.603C292.916 192.468 296.264 194.645 300.196 196.134C306.485 196.558 312.704 197.284 318.854 198.311C321.36 199.353 322.316 200.804 321.725 202.665C326.249 196.169 332.468 192.782 340.384 192.506C341.894 192.722 343.329 192.481 344.69 191.78C346.459 189.361 348.374 187.184 350.431 185.249C351.467 184.643 352.185 183.676 352.584 182.347C354.183 189.766 351.79 195.571 345.407 199.762C344.929 198.311 344.45 196.86 343.972 195.408C343.804 203.248 340.216 208.813 333.207 212.098C323.328 215.52 313.281 216.488 303.066 215.001C304.024 215.484 304.979 215.969 305.937 216.452C291.369 231.522 273.667 238.295 252.831 236.77C247.568 231.678 242.306 226.356 237.043 220.806C249.557 212.706 262.715 205.692 276.513 199.762C277.032 195.372 277.749 191.018 278.666 186.701C277.02 183.354 275.107 180.209 272.925 177.267C272.952 174.607 273.908 172.43 275.796 170.737C276.287 169.52 277.243 169.036 278.666 169.285Z" fill="black"/>
<path fill-rule="evenodd" clip-rule="evenodd" d="M218.384 225.886C218.212 224.31 217.255 223.342 215.514 222.984C213.211 223.621 211.058 224.589 209.055 225.886C204.409 224.002 201.3 225.454 199.725 230.24C194.659 227.08 190.353 222.968 186.808 217.904C184.26 215.816 181.39 214.364 178.196 213.55C179.392 212.341 180.589 211.131 181.784 209.922C186.488 218.062 193.425 220.722 202.596 217.904C203.494 216.816 204.212 215.605 204.749 214.276C213.231 217.364 219.211 214.221 222.69 204.842C222.109 203.471 221.151 202.503 219.819 201.94C222.212 200.972 224.603 200.972 226.996 201.94C223.9 209.893 221.029 217.875 218.384 225.886Z" fill="black"/>
<path fill-rule="evenodd" clip-rule="evenodd" d="M234.172 234.593C231.82 236.005 229.905 237.94 228.431 240.398C227.953 240.398 227.474 240.398 226.996 240.398C225.561 237.496 224.125 234.593 222.69 231.69C223.168 229.756 223.647 227.82 224.125 225.885C225.549 226.135 226.505 225.65 226.996 224.434C234.909 221.261 240.65 223.681 244.219 231.69C240.676 232.66 237.327 233.628 234.172 234.593Z" fill="black"/>
<path fill-rule="evenodd" clip-rule="evenodd" d="M218.384 225.886C212.794 229.568 206.575 231.019 199.725 230.24C201.3 225.453 204.409 224.002 209.055 225.886C211.059 224.589 213.211 223.621 215.514 222.983C217.255 223.342 218.212 224.31 218.384 225.886Z" fill="black"/>
<path fill-rule="evenodd" clip-rule="evenodd" d="M218.384 225.886C218.278 228.659 216.843 230.353 214.078 230.965C209.016 232.138 204.232 231.896 199.725 230.24C206.575 231.019 212.794 229.568 218.384 225.886Z" fill="black"/>
<path fill-rule="evenodd" clip-rule="evenodd" d="M224.125 225.886C223.647 227.82 223.168 229.756 222.69 231.691C219.877 234.57 216.528 235.779 212.643 235.319C217.611 233.425 221.439 230.282 224.125 225.886Z" fill="black"/>
<path opacity="0.906" fill-rule="evenodd" clip-rule="evenodd" d="M133.702 220.08C136.8 222.576 140.627 223.785 145.185 223.708C142.892 226.884 142.413 230.027 143.749 233.142C142.581 235.715 140.666 236.44 138.008 235.319C143.245 228.01 141.332 224.139 132.267 223.708C130.282 221.588 130.761 220.379 133.702 220.08Z" fill="black"/>
<path fill-rule="evenodd" clip-rule="evenodd" d="M234.172 234.593C243.701 232.236 250.398 235.381 254.266 244.027C252.401 247.563 250.965 251.192 249.961 254.911C249.483 254.911 249.003 254.911 248.525 254.911C242.254 254.959 236.035 254.476 229.867 253.46C229.202 249.132 228.724 244.778 228.431 240.398C229.905 237.94 231.82 236.005 234.172 234.593Z" fill="black"/>
<path fill-rule="evenodd" clip-rule="evenodd" d="M191.114 236.045C193.506 236.045 195.898 236.045 198.29 236.045C198.29 238.464 198.29 240.882 198.29 243.301C192.585 243.281 187.801 245.216 183.937 249.106C182.541 245.554 182.063 241.683 182.502 237.496C185.71 237.924 188.58 237.44 191.114 236.045Z" fill="black"/>
<path fill-rule="evenodd" clip-rule="evenodd" d="M229.867 253.46C235.774 258.57 241.995 259.055 248.525 254.911C249.003 254.911 249.483 254.911 249.961 254.911C252.794 252.113 254.947 248.727 256.419 244.752C260.32 248.048 262.951 252.16 264.313 257.088C277.102 261.988 286.911 270.453 293.737 282.486C296.777 295.581 292.233 304.531 280.102 309.334C267.269 313.556 256.026 310.896 246.372 301.352C240.569 289.8 242.722 287.623 252.831 294.822C254.744 295.79 256.659 295.79 258.572 294.822C253.358 293.631 249.052 290.971 245.655 286.839C236.955 294.289 226.908 298.643 215.514 299.901C212.412 309.559 208.346 318.75 203.314 327.475C193.648 313.36 180.491 304.412 163.843 300.627C168.093 295.668 171.442 290.105 173.89 283.937C170.302 278.91 168.867 273.588 169.584 267.973C172.462 265.311 175.572 262.892 178.914 260.716C181.36 263.435 183.99 265.854 186.808 267.973C188.421 269.872 190.574 270.839 193.267 270.875C198.385 270.765 202.453 268.829 205.467 265.07C207.579 262.723 208.537 259.821 208.337 256.362C208.422 252.576 207.465 249.189 205.467 246.203C212.514 244.289 219.69 242.838 226.996 241.85C226.438 246.28 227.394 250.151 229.867 253.46Z" fill="black"/>
<path fill-rule="evenodd" clip-rule="evenodd" d="M205.467 246.203C207.465 249.189 208.422 252.576 208.337 256.362C208.537 259.821 207.579 262.723 205.467 265.07C207.907 247.255 200.73 241.934 183.937 249.106C187.801 245.215 192.585 243.28 198.29 243.301C198.29 240.881 198.29 238.464 198.29 236.044C195.898 236.044 193.506 236.044 191.114 236.044C193.62 235.002 194.576 233.551 193.984 231.69C195.707 233.187 197.621 234.397 199.725 235.319C214.948 236.062 214.948 237.271 199.725 238.947C200.584 240.826 201.301 242.761 201.878 244.752C202.841 245.843 204.037 246.328 205.467 246.203Z" fill="black"/>
<path fill-rule="evenodd" clip-rule="evenodd" d="M205.467 265.07C199.53 267.512 193.311 268.48 186.808 267.972C184.919 264.602 183.006 261.215 181.067 257.813C181.751 254.77 182.707 251.867 183.937 249.106C200.73 241.933 207.907 247.255 205.467 265.07Z" fill="black"/>
<path fill-rule="evenodd" clip-rule="evenodd" d="M226.996 240.398C227.474 240.398 227.953 240.398 228.431 240.398C228.724 244.778 229.202 249.132 229.867 253.46C227.394 250.151 226.438 246.28 226.996 241.849C219.69 242.838 212.514 244.289 205.467 246.203C211.724 241.362 218.901 239.426 226.996 240.398Z" fill="black"/>
<path fill-rule="evenodd" clip-rule="evenodd" d="M176.761 237.496C178.271 237.279 179.706 237.52 181.067 238.221C179.202 242.771 179.202 247.366 181.067 252.008C180.208 253.888 179.491 255.822 178.914 257.814C174.502 260.094 171.393 263.479 169.584 267.973C168.484 266.997 167.526 265.788 166.714 264.344C170.299 260.792 172.452 256.68 173.173 252.008C169.656 258.951 164.633 264.514 158.102 268.698C150.784 270.048 143.607 271.982 136.573 274.503C142.271 274.03 148.012 274.03 153.796 274.503C157.57 279.146 157.092 283.5 152.361 287.565C147.749 288.585 143.205 288.343 138.726 286.839C134.322 292.382 128.821 293.833 122.22 291.193C115.86 294.816 109.401 294.816 102.843 291.193C93.9189 295.836 85.7851 294.868 78.4436 288.291C77.7302 284.938 77.492 281.552 77.7259 278.132C83.3882 279.809 89.1293 280.535 94.9494 280.309C98.7773 276.923 98.7773 273.535 94.9494 270.15C88.7848 268.846 83.2834 266.186 78.4436 262.167C76.1801 255.522 78.3331 251.168 84.9024 249.106C90.3522 251.961 95.6154 255.105 100.691 258.539C104.006 259.261 107.355 259.501 110.738 259.265C110.75 256.641 110.033 254.222 108.585 252.008C96.4608 240.886 98.1357 235.323 113.608 235.319C120.117 242.427 125.38 250.409 129.396 259.265C130.961 257.972 130.961 256.521 129.396 254.911C139.723 241.707 153.119 235.176 169.584 235.319C172.148 236.458 174.301 238.15 176.043 240.398C176.709 239.536 176.949 238.568 176.761 237.496Z" fill="black"/>
<path fill-rule="evenodd" clip-rule="evenodd" d="M176.761 237.496C181.246 236.075 186.03 235.59 191.114 236.045C188.58 237.439 185.71 237.924 182.502 237.496C182.063 241.683 182.541 245.554 183.937 249.106C182.707 251.868 181.751 254.771 181.067 257.814C183.006 261.216 184.919 264.603 186.808 267.973C183.99 265.854 181.359 263.435 178.914 260.717C175.572 262.892 172.462 265.311 169.584 267.973C171.393 263.48 174.502 260.094 178.914 257.814C179.491 255.823 180.208 253.888 181.067 252.009C179.202 247.366 179.202 242.771 181.067 238.222C179.706 237.521 178.271 237.28 176.761 237.496Z" fill="black"/>
<path fill-rule="evenodd" clip-rule="evenodd" d="M176.761 237.496C176.949 238.568 176.709 239.536 176.043 240.398C174.301 238.15 172.148 236.458 169.584 235.319C153.119 235.176 139.723 241.707 129.396 254.911C130.961 256.52 130.961 257.972 129.396 259.265C125.38 250.409 120.117 242.427 113.608 235.319C98.1357 235.323 96.4607 240.886 108.585 252.008C110.033 254.222 110.75 256.641 110.738 259.265C107.355 259.501 104.006 259.26 100.691 258.539C95.6153 255.105 90.3521 251.961 84.9023 249.106C78.333 251.168 76.1801 255.522 78.4436 262.167C83.2833 266.186 88.7848 268.846 94.9494 270.149C98.7773 273.535 98.7773 276.923 94.9494 280.308C89.1293 280.535 83.3881 279.809 77.7259 278.132C78.389 276.129 79.8243 275.161 82.0318 275.229C85.3803 276.197 88.7303 277.164 92.0788 278.132C93.8542 278.05 95.2895 277.325 96.3847 275.955C89.9531 271.846 83.4943 267.733 77.0083 263.619C75.6218 258.368 76.3394 253.531 79.1612 249.106C80.9869 248.313 82.9016 247.83 84.9023 247.655C91.7975 249.569 98.2563 252.471 104.279 256.362C104.996 255.879 105.714 255.394 106.432 254.911C104.628 251.749 102.475 248.846 99.9729 246.203C97.342 234.351 101.886 229.756 113.608 232.416C120.77 236.516 125.554 242.563 127.961 250.557C134.507 245.605 140.726 240.526 146.62 235.319C146.137 233.824 145.18 233.098 143.749 233.142C147.798 227.151 149.951 228.119 150.208 236.044C151.671 234.322 153.346 232.87 155.231 231.69C158.764 233.29 162.352 233.29 165.996 231.69C170.335 232.31 173.923 234.246 176.761 237.496Z" fill="black"/>
<path fill-rule="evenodd" clip-rule="evenodd" d="M158.102 302.804C165.254 302.676 171.951 304.37 178.196 307.883C188.56 314.248 196.693 322.715 202.596 333.281C201.653 339.541 199.5 345.347 196.137 350.696C192.375 352.86 188.308 353.828 183.937 353.599C183.495 350.081 183.975 346.695 185.373 343.44C186.659 344.9 187.614 344.9 188.243 343.44C186.267 338.539 182.918 335.151 178.196 333.281C171.915 323.586 164.259 314.878 155.232 307.157C156.226 305.68 157.182 304.229 158.102 302.804Z" fill="black"/>
<path fill-rule="evenodd" clip-rule="evenodd" d="M158.102 302.804C157.182 304.229 156.226 305.68 155.231 307.158C164.259 314.878 171.915 323.586 178.196 333.281C176.686 333.497 175.251 333.256 173.89 332.555C168.036 323.123 160.859 314.899 152.361 307.883C146.62 306.915 140.879 306.915 135.137 307.883C133.983 310.453 132.308 312.63 130.114 314.414C129.636 312.169 130.354 310.234 132.267 308.609C131.746 307.618 131.268 306.65 130.832 305.706C135.726 305.297 140.51 304.329 145.184 302.804C149.865 305.641 154.171 305.641 158.102 302.804Z" fill="black"/>
<path fill-rule="evenodd" clip-rule="evenodd" d="M130.832 305.706C114.51 303.854 108.051 311.11 111.455 327.475C114.432 330.308 117.542 332.968 120.785 335.457C117.977 335.135 115.345 333.926 112.891 331.829C111.933 336.183 111.933 340.537 112.891 344.891C118.303 351.577 125.24 355.446 133.702 356.501C136.573 357.469 139.443 358.435 142.314 359.403C129.907 361.11 119.622 357.239 111.455 347.793C111.475 338.429 110.278 328.996 107.867 319.493C109.424 306.298 116.601 300.976 129.396 303.529C130.194 304.085 130.672 304.81 130.832 305.706Z" fill="black"/>
<path fill-rule="evenodd" clip-rule="evenodd" d="M347.56 146.064C348.038 146.064 350.67 146.064 351.148 146.064C354.019 150.418 354.317 150.99 355.454 154.772C355.652 165.96 355.892 177.087 356.172 188.152C351.395 195.404 346.61 202.66 341.819 209.921C331.65 217.755 320.406 220.173 308.09 217.177C294.594 232.586 277.608 240.81 257.137 241.849C261.515 245.373 264.863 249.727 267.184 254.911C302.191 271.911 306.497 294.406 280.102 322.396C284.551 326.448 286.944 331.527 287.278 337.634C285.508 343.074 283.355 348.394 280.819 353.598C273.173 361.074 265.759 361.074 258.572 353.598C264.799 357.309 271.019 357.309 277.231 353.598C279.008 349.726 279.008 345.857 277.231 341.988C277.709 341.505 278.188 341.02 278.666 340.537C281.919 346.468 283.832 345.985 284.407 339.085C283.793 333.106 281.64 327.784 277.949 323.121C266.593 329.119 255.35 328.877 244.219 322.396C242.483 320.888 241.047 319.194 239.913 317.316C252.711 327.879 266.107 328.604 280.102 319.493C282.606 317.037 283.084 314.377 281.537 311.511C267.587 315.583 255.387 312.681 244.937 302.803C243.671 293.44 239.843 291.988 233.455 298.449C232.746 300.821 232.507 303.24 232.737 305.706C231.586 303.599 230.868 301.181 230.584 298.449C229.133 299.664 227.458 300.147 225.561 299.901C225.901 301.774 225.423 303.226 224.125 304.255C222.615 301.706 220.223 300.738 216.949 301.352C215.003 311.835 210.697 321.268 204.031 329.652C206.133 340.892 202.306 349.6 192.549 355.775C189.763 356.853 187.132 356.611 184.655 355.05C182.703 369.105 174.809 374.669 160.973 371.739C154.175 368.953 148.434 364.841 143.749 359.403C150.277 361.736 156.496 364.881 162.408 368.837C170.994 370.345 177.453 367.201 181.784 359.403C182.852 354.511 182.135 349.916 179.631 345.616C181.83 344.6 183.266 342.908 183.937 340.537C181.99 338.09 180.076 335.672 178.196 333.28C182.918 335.151 186.267 338.538 188.243 343.439C187.614 344.899 186.659 344.899 185.373 343.439C183.975 346.694 183.495 350.08 183.937 353.598C188.308 353.828 192.375 352.86 196.137 350.696C199.5 345.346 201.653 339.541 202.596 333.28C196.693 322.715 188.56 314.248 178.196 307.883C171.951 304.369 165.254 302.676 158.102 302.803C159.12 301.491 160.555 301.008 162.408 301.352C164.476 295.236 167.347 289.431 171.02 283.937C167.787 279.112 165.634 273.791 164.561 267.972C161.93 269.666 159.298 271.358 156.667 273.052C161.04 282.506 157.692 289.036 146.62 292.644C144.074 292.083 141.681 291.116 139.443 289.742C135.155 295.056 129.893 296.508 123.655 294.096C120.631 295.746 117.522 297.197 114.326 298.449C110.795 296.856 107.207 295.405 103.561 294.096C95.3154 298.074 87.1816 297.831 79.1612 293.37C74.2152 288.52 73.7372 283.44 77.7259 278.131C77.4919 281.552 77.7302 284.938 78.4435 288.29C85.785 294.868 93.9188 295.836 102.843 291.193C109.401 294.815 115.86 294.815 122.22 291.193C128.821 293.833 134.322 292.382 138.726 286.839C143.205 288.343 147.749 288.585 152.361 287.565C157.092 283.5 157.57 279.146 153.796 274.503C148.012 274.03 142.271 274.03 136.573 274.503C143.607 271.982 150.784 270.048 158.102 268.698C164.633 264.514 169.656 258.951 173.173 252.008C172.452 256.68 170.299 260.791 166.714 264.344C167.526 265.788 168.483 266.997 169.584 267.972C168.867 273.587 170.302 278.909 173.89 283.937C171.442 290.105 168.093 295.667 163.843 300.626C180.491 304.411 193.648 313.36 203.314 327.475C208.346 318.75 212.412 309.559 215.514 299.901C226.908 298.642 236.955 294.289 245.655 286.839C249.052 290.971 253.358 293.631 258.572 294.821C256.659 295.789 254.744 295.789 252.831 294.821C242.722 287.623 240.569 289.8 246.372 301.352C256.026 310.896 267.269 313.556 280.102 309.334C292.233 304.53 296.777 295.58 293.737 282.485C286.911 270.453 277.102 261.987 264.313 257.088C262.951 252.159 260.32 248.048 256.419 244.752C254.947 248.727 252.794 252.113 249.961 254.911C250.965 251.191 252.4 247.563 254.266 244.026C250.398 235.381 243.701 232.236 234.172 234.593C237.327 233.628 240.676 232.66 244.219 231.69C240.65 223.681 234.909 221.261 226.996 224.434C232.404 220.479 238.145 216.851 244.219 213.549C248.103 210.108 251.452 206.239 254.266 201.939C256.966 202.078 259.357 201.836 261.443 201.213C264.223 202.964 266.616 202.48 268.619 199.762C273.446 199.52 274.881 197.343 272.925 193.231C273.684 190.969 274.642 188.792 275.796 186.7C273.268 184.156 271.355 181.254 270.055 177.993C270.307 174.038 272.222 171.619 275.796 170.736C273.908 172.43 272.952 174.607 272.925 177.267C275.107 180.209 277.02 183.354 278.666 186.7C277.749 191.018 277.031 195.372 276.513 199.762C262.714 205.692 249.557 212.706 237.043 220.806C242.306 226.355 247.568 231.677 252.831 236.77C273.667 238.295 291.369 231.522 305.937 216.452C304.979 215.968 304.024 215.484 303.066 215C313.281 216.488 323.328 215.52 333.207 212.098C340.216 208.812 343.804 203.248 343.972 195.408C344.45 196.859 344.929 198.311 345.407 199.762C351.79 195.571 354.183 189.766 352.584 182.347C352.185 183.676 351.467 184.643 350.431 185.249C352.941 175.231 353.659 165.072 352.584 154.772C350.53 152.067 348.856 149.164 347.56 146.064Z" fill="black"/>
<path fill-rule="evenodd" clip-rule="evenodd" d="M224.125 304.255C221.124 323.088 227.343 337.842 242.784 348.519C248.593 351.528 254.094 351.287 259.29 347.793C259.57 349.708 259.33 351.644 258.572 353.599C239.569 353.776 227.369 344.583 221.972 326.024C221.015 320.219 221.015 314.414 221.972 308.609C222.305 306.813 223.023 305.362 224.125 304.255Z" fill="black"/>
<path fill-rule="evenodd" clip-rule="evenodd" d="M232.737 305.707C233.026 310.975 235.418 314.845 239.914 317.317C241.047 319.195 242.483 320.889 244.219 322.396C255.35 328.878 266.593 329.12 277.949 323.122C281.64 327.785 283.793 333.107 284.407 339.086C283.832 345.986 281.919 346.469 278.666 340.537C278.188 341.021 277.709 341.505 277.231 341.989C279.008 345.858 279.008 349.727 277.231 353.599C271.019 357.31 264.799 357.31 258.572 353.599C259.33 351.644 259.57 349.708 259.29 347.794C254.094 351.287 248.593 351.528 242.784 348.52C227.343 337.842 221.124 323.089 224.125 304.255C225.423 303.226 225.901 301.775 225.561 299.901C227.458 300.148 229.133 299.665 230.584 298.45C230.868 301.182 231.586 303.599 232.737 305.707Z" fill="black"/>
<path fill-rule="evenodd" clip-rule="evenodd" d="M239.914 317.317C235.418 314.845 233.026 310.975 232.737 305.707C232.507 303.241 232.746 300.822 233.455 298.45C239.843 291.989 243.671 293.44 244.937 302.804C255.387 312.681 267.587 315.584 281.537 311.512C283.084 314.378 282.606 317.038 280.102 319.494C266.108 328.605 252.711 327.879 239.914 317.317Z" fill="black"/>
<path fill-rule="evenodd" clip-rule="evenodd" d="M205.467 265.07C202.453 268.829 198.385 270.765 193.267 270.875C190.574 270.839 188.421 269.873 186.808 267.973C193.311 268.481 199.53 267.513 205.467 265.07Z" fill="black"/>
<path fill-rule="evenodd" clip-rule="evenodd" d="M229.866 253.46C236.035 254.476 242.254 254.959 248.525 254.911C241.995 259.055 235.774 258.57 229.866 253.46Z" fill="black"/>
<path fill-rule="evenodd" clip-rule="evenodd" d="M340.384 192.506C332.468 192.782 326.249 196.169 321.725 202.665C322.316 200.804 321.36 199.353 318.854 198.311C323.249 196.581 327.555 194.404 331.772 191.78C334.947 190.635 337.817 190.877 340.384 192.506Z" fill="black"/>
<path fill-rule="evenodd" clip-rule="evenodd" d="M282.255 181.621C284.603 183.204 289.3 187.69 290.866 190.329C287.213 189.802 282.776 185.315 282.255 181.621Z" fill="#030303"/>
<path fill-rule="evenodd" clip-rule="evenodd" d="M133.702 356.501C137.559 356.263 141.387 356.505 145.184 357.226C144.386 357.782 143.908 358.508 143.749 359.403C143.271 359.403 142.792 359.403 142.314 359.403C139.443 358.435 136.573 357.469 133.702 356.501Z" fill="black"/>
<path fill-rule="evenodd" clip-rule="evenodd" d="M130.832 305.706C131.268 306.65 131.746 307.618 132.267 308.609C130.354 310.234 129.636 312.169 130.114 314.414C132.309 312.63 133.983 310.453 135.137 307.883C140.879 306.915 146.62 306.915 152.361 307.883C160.859 314.899 168.036 323.123 173.89 332.555C175.251 333.256 176.686 333.497 178.196 333.281C180.076 335.672 181.99 338.09 183.937 340.537C183.266 342.908 181.83 344.601 179.631 345.617C182.135 349.917 182.852 354.511 181.784 359.404C177.453 367.202 170.994 370.345 162.408 368.837C156.496 364.881 150.277 361.736 143.749 359.404C143.909 358.508 144.386 357.783 145.184 357.227C141.387 356.506 137.559 356.263 133.702 356.501C125.24 355.446 118.303 351.577 112.89 344.891C111.933 340.537 111.933 336.183 112.89 331.829C115.345 333.926 117.977 335.135 120.785 335.458C117.542 332.969 114.432 330.308 111.455 327.475C108.051 311.111 114.509 303.854 130.832 305.706Z" fill="black"/>
<path fill-rule="evenodd" clip-rule="evenodd" d="M149.49 346.342C147.181 345.753 145.266 345.753 143.749 346.342C144.596 348.227 146.031 349.436 148.055 349.97C146.62 350.453 145.184 350.938 143.749 351.421C145.286 352.658 146.722 353.867 148.055 355.049C145.961 355.147 144.048 354.663 142.314 353.598C141.812 350.513 141.812 347.127 142.314 343.439C145.469 342.888 147.861 343.856 149.49 346.342Z" fill="#010101"/>
<path fill-rule="evenodd" clip-rule="evenodd" d="M150.926 336.184C159.283 338.821 165.504 344.142 169.584 352.148C169.678 352.783 169.439 353.268 168.867 353.599C163.982 346.48 158.002 340.675 150.926 336.184Z" fill="black"/>
<path fill-rule="evenodd" clip-rule="evenodd" d="M150.926 336.183C158.002 340.674 163.982 346.48 168.867 353.598C169.439 353.267 169.678 352.783 169.584 352.147C172.736 358.879 170.583 363.233 163.126 365.208C158.221 362.57 153.198 359.183 148.055 355.049C146.722 353.867 145.286 352.658 143.749 351.421C145.184 350.938 146.62 350.453 148.055 349.97C146.031 349.436 144.596 348.227 143.749 346.342C145.266 345.753 147.181 345.753 149.49 346.342C147.861 343.856 145.469 342.888 142.314 343.439C141.812 347.127 141.812 350.513 142.314 353.598C139.326 353.418 137.173 351.967 135.855 349.244C134.898 350.212 133.942 351.179 132.985 352.147C130.326 349.159 128.653 346.014 127.961 342.714C129.935 339.119 132.567 337.908 135.855 339.085C140.246 333.062 145.269 332.096 150.926 336.183Z" fill="black"/>
<path fill-rule="evenodd" clip-rule="evenodd" d="M149.49 346.342C151.338 347.834 153.013 347.351 154.514 344.891C157.61 346.175 158.805 348.594 158.102 352.147C153.641 352.328 150.771 350.394 149.49 346.342Z" fill="black"/>
<path fill-rule="evenodd" clip-rule="evenodd" d="M153.796 346.342C156.071 347.07 156.789 348.522 155.949 350.696C154.458 349.616 153.74 348.165 153.796 346.342Z" fill="black"/>
<path d="M326.645 117.782L326.645 117.782L326.662 117.785L326.68 117.786L326.68 117.786L326.68 117.786L326.681 117.786L326.685 117.787L326.703 117.789L326.778 117.796C326.844 117.803 326.943 117.814 327.071 117.828C327.328 117.857 327.701 117.901 328.166 117.963C329.096 118.087 330.39 118.28 331.844 118.559C334.771 119.119 338.266 120.01 340.752 121.33C343.569 122.826 346.37 124.601 348.457 126.603C350.553 128.614 351.834 130.759 351.834 133.001C351.834 135.495 351.528 138.776 351.218 141.454C351.063 142.788 350.908 143.965 350.792 144.808C350.754 145.088 350.72 145.33 350.691 145.53C350.639 145.53 350.585 145.531 350.527 145.531C350.01 145.535 349.257 145.54 348.317 145.539C346.438 145.536 343.814 145.513 340.834 145.429C334.864 145.26 327.504 144.846 321.849 143.874C316.611 142.974 310.624 140.998 305.925 139.236C303.58 138.356 301.566 137.534 300.137 136.931C299.424 136.63 298.857 136.383 298.469 136.213C298.371 136.17 298.284 136.131 298.209 136.098C298.186 135.997 298.159 135.877 298.128 135.739C298.029 135.29 297.898 134.661 297.771 133.946C297.515 132.498 297.289 130.754 297.356 129.415L297.36 129.337C297.425 128.049 297.485 126.855 297.665 125.805C297.85 124.731 298.146 123.901 298.622 123.323C298.825 123.077 299.363 122.671 300.258 122.16C301.122 121.667 302.235 121.121 303.496 120.575C306.019 119.482 309.085 118.409 311.849 117.77C314.612 117.132 318.291 117.125 321.329 117.291C322.838 117.373 324.169 117.496 325.124 117.599C325.601 117.65 325.983 117.696 326.245 117.729C326.376 117.746 326.477 117.759 326.545 117.768L326.621 117.779L326.64 117.781L326.644 117.782L326.645 117.782L326.645 117.782Z" fill="black" stroke="black" stroke-width="1.5"/>
<path d="M297.497 124.217C297.497 124.217 310.475 131.718 323.448 133.948C339.409 136.693 352.463 135.26 352.463 135.26" stroke="black"/>
<path d="M302.885 126.698C302.885 126.698 301.378 130.105 300.913 132.278C300.439 134.498 300.567 137.76 300.567 137.76" stroke="black" stroke-width="0.5"/>
<path d="M308.365 129.253C308.365 129.253 306.879 132.559 306.428 134.67C305.966 136.828 306.113 140.003 306.113 140.003" stroke="black" stroke-width="0.5"/>
<path d="M313.972 131.389C313.972 131.389 312.501 134.624 312.058 136.693C311.606 138.806 311.765 141.92 311.765 141.92" stroke="black" stroke-width="0.5"/>
<path d="M319.513 133.221C319.513 133.221 318.567 136.073 318.137 138.083C317.697 140.136 317.37 143.451 317.37 143.451" stroke="black" stroke-width="0.5"/>
<path d="M325.969 134.35C325.969 134.35 325.48 137.444 325.039 139.504C324.589 141.608 323.772 144.835 323.772 144.835" stroke="black" stroke-width="0.5"/>
<path d="M332.949 135.129C332.949 135.129 332.644 138.203 332.326 140.256C332.001 142.354 331.378 145.577 331.378 145.577" stroke="black" stroke-width="0.5"/>
<path d="M339.284 135.858C339.284 135.858 339.157 138.829 338.898 140.997C338.652 143.053 337.964 146.041 337.964 146.041" stroke="black" stroke-width="0.5"/>
<path d="M345.84 135.621C345.84 135.621 345.738 138.466 345.497 140.54C345.269 142.507 344.606 145.363 344.606 145.363" stroke="black" stroke-width="0.5"/>
</svg>
