<svg width="204" height="258" viewBox="0 0 204 258" fill="none" xmlns="http://www.w3.org/2000/svg">
<path fill-rule="evenodd" clip-rule="evenodd" d="M107.5 74.5C109.191 77.6454 109.691 80.9787 109 84.5C105.908 88.9279 101.741 91.761 96.5 93C89.148 93.582 81.815 93.415 74.5 92.5C70.956 90.431 67.29 90.098 63.5 91.5C62.833 91.5 62.167 91.5 61.5 91.5C61.665 88.1501 61.498 84.8168 61 81.5C59.961 82.2438 59.461 83.2438 59.5 84.5C56.748 97.61 54.415 97.61 52.5 84.5C51.833 89.5 51.167 94.5 50.5 99.5C48.712 98.717 47.712 97.384 47.5 95.5C47.315 93.804 46.481 92.471 45 91.5C45.215 94.811 45.215 98.144 45 101.5C40.236 94.714 33.902 90.38 26 88.5C25.333 84.1667 25.333 79.8333 26 75.5C27.214 73.9512 28.714 72.7845 30.5 72C28.641 70.4422 27.141 68.6089 26 66.5C25.333 61.8333 25.333 57.1667 26 52.5C39.155 38.7607 36.655 36.594 18.5 46C17.177 46.8159 16.511 47.9826 16.5 49.5C15.081 44.1186 16.748 39.6186 21.5 36C14.518 35.8483 9.518 32.6816 6.5 26.5C6.667 26.1667 6.833 25.8333 7 25.5C9.417 26.9985 12.083 27.6651 15 27.5C17.375 27.5963 19.541 27.0963 21.5 26C16.08 20.748 14.58 14.5813 17 7.5C20.387 14.1208 25.887 17.6208 33.5 18C41.907 21.2604 45.574 27.427 44.5 36.5C50.206 36.1712 55.872 36.5046 61.5 37.5C64.043 41.4206 66.71 45.2539 69.5 49C81.824 45.6677 92.324 48.501 101 57.5C103.76 63.5409 105.427 69.8742 106 76.5C106.278 75.5842 106.778 74.9175 107.5 74.5Z" fill="#0381C6"/>
<path opacity="0.89" fill-rule="evenodd" clip-rule="evenodd" d="M107.5 74.5C106.778 74.9175 106.278 75.5842 106 76.5C105.427 69.8742 103.76 63.5409 101 57.5C92.324 48.501 81.824 45.6677 69.5 49C66.71 45.2539 64.043 41.4206 61.5 37.5C55.872 36.5046 50.206 36.1712 44.5 36.5C45.574 27.427 41.907 21.2604 33.5 18C25.887 17.6208 20.387 14.1208 17 7.5C14.58 14.5813 16.08 20.748 21.5 26C19.541 27.0963 17.375 27.5963 15 27.5C12.083 27.6651 9.417 26.9985 7 25.5C6.833 25.8333 6.667 26.1667 6.5 26.5C9.518 32.6816 14.518 35.8483 21.5 36C16.748 39.6186 15.081 44.1186 16.5 49.5C16.539 50.7562 16.039 51.7562 15 52.5C12.555 46.8581 13.388 41.6915 17.5 37C8.815 35.7093 4.815 30.876 5.5 22.5C9.094 25.4502 13.094 26.1168 17.5 24.5C13.54 18.0214 13.54 11.688 17.5 5.5C18.573 8.7395 20.573 11.2395 23.5 13C31.023 13.6611 37.523 16.4945 43 21.5C45.76 25.4037 46.594 29.5704 45.5 34C51.278 34.0941 56.944 34.7608 62.5 36C66.05 39.8826 69.217 44.0493 72 48.5C86.788 43.3986 97.788 47.732 105 61.5C106.631 65.6879 107.464 70.0212 107.5 74.5Z" fill="black"/>
<path fill-rule="evenodd" clip-rule="evenodd" d="M150.5 75.5C147.394 74.2926 144.394 72.7926 141.5 71C138.483 67.9145 135.483 64.9145 132.5 62C127.833 61.3333 123.167 61.3333 118.5 62C117.376 62.2492 116.376 62.7492 115.5 63.5C113.5 67.8333 111.5 72.1667 109.5 76.5C111.989 81.5829 110.989 86.0829 106.5 90C96.162 96.218 85.495 97.052 74.5 92.5C81.815 93.415 89.148 93.582 96.5 93C101.741 91.761 105.908 88.9279 109 84.5C109.691 80.9787 109.191 77.6454 107.5 74.5C109.626 70.1822 111.959 65.8489 114.5 61.5C121.967 57.4251 129.301 57.5918 136.5 62C140.527 66.6901 145.194 70.6901 150.5 74C151.738 74.69 151.738 75.19 150.5 75.5Z" fill="black"/>
<path opacity="0.835" fill-rule="evenodd" clip-rule="evenodd" d="M144.5 77.4999C146.519 79.5057 148.852 81.1723 151.5 82.4999C151.376 83.1066 151.043 83.4399 150.5 83.4999C146.413 82.7442 143.08 80.7442 140.5 77.4999C141.7 76.7084 143.033 76.7084 144.5 77.4999Z" fill="black"/>
<path fill-rule="evenodd" clip-rule="evenodd" d="M47.5 95.4998C46.624 98.5768 46.291 101.577 46.5 104.5C42.348 100.849 38.348 97.0158 34.5 92.9998C28.153 91.9018 22.153 92.9018 16.5 95.9998C14.282 103.265 10.615 109.765 5.5 115.5C4.448 115.649 3.448 115.483 2.5 115C8.22 109.744 12.053 103.244 14 95.4998C17.116 93.1928 20.616 91.8598 24.5 91.4998C24.062 87.9275 23.396 84.4275 22.5 80.9998C23.119 77.4298 24.786 74.4298 27.5 71.9998C22.558 64.4364 22.224 56.6031 26.5 48.4998C32.338 43.6125 31.671 42.4458 24.5 44.9998C21.671 46.3555 19.004 47.8555 16.5 49.4998C16.511 47.9824 17.177 46.8157 18.5 45.9998C36.655 36.5938 39.155 38.7605 26 52.4998C25.333 57.1665 25.333 61.8331 26 66.4998C27.141 68.6087 28.641 70.442 30.5 71.9998C28.714 72.7843 27.214 73.951 26 75.4998C25.333 79.8331 25.333 84.1665 26 88.4998C33.902 90.3798 40.236 94.7138 45 101.5C45.215 98.1438 45.215 94.8108 45 91.4998C46.481 92.4708 47.315 93.8038 47.5 95.4998Z" fill="black"/>
<path opacity="0.882" fill-rule="evenodd" clip-rule="evenodd" d="M143.5 85.4998C146.009 86.9211 148.343 88.5877 150.5 90.4998C146.863 90.5128 143.863 89.1796 141.5 86.4998C141.957 85.7023 142.624 85.3689 143.5 85.4998Z" fill="black"/>
<path fill-rule="evenodd" clip-rule="evenodd" d="M61.5 91.5C60.833 89.1667 60.167 86.8333 59.5 84.5C59.461 83.2438 59.961 82.2438 61 81.5C61.498 84.8168 61.665 88.1501 61.5 91.5Z" fill="#131412"/>
<path fill-rule="evenodd" clip-rule="evenodd" d="M146.5 93.5C147.525 104.803 142.525 110.136 131.5 109.5C132.274 113.779 132.774 118.113 133 122.5C135.405 123.274 137.905 123.774 140.5 124C139.109 126.39 137.109 128.057 134.5 129C135.381 129.708 136.047 130.542 136.5 131.5C134.577 131.205 132.91 130.372 131.5 129C133.332 128.252 134.999 127.252 136.5 126C134.152 125.654 132.319 124.487 131 122.5C130.779 117.78 130.279 113.113 129.5 108.5C137.334 108.835 142.668 105.335 145.5 98C143.881 95.84 144.214 94.34 146.5 93.5Z" fill="black"/>
<path fill-rule="evenodd" clip-rule="evenodd" d="M169.5 78.5C167.568 81.1769 159.068 87.1769 160 90.5C160.333 89.8333 160.667 89.1667 161 88.5C161.41 89.9007 161.91 91.234 162.5 92.5C154.063 94.947 149.73 100.613 149.5 109.5C148.518 112.962 148.185 116.629 148.5 120.5C147.833 118.5 147.167 116.5 146.5 114.5C146.906 108.542 148.406 102.875 151 97.5C153.234 95.3 155.734 93.467 158.5 92C157.39 89.2628 157.223 86.4294 158 83.5C160 80.5 167.983 78.5106 169.5 78.5Z" fill="black"/>
<path fill-rule="evenodd" clip-rule="evenodd" d="M150.5 75.5C148.898 77.0739 146.898 77.7406 144.5 77.5C143.033 76.7084 141.7 76.7084 140.5 77.5C143.08 80.7443 146.413 82.7443 150.5 83.5C148.485 84.9238 146.152 85.5905 143.5 85.5C142.624 85.3691 141.957 85.7025 141.5 86.5C143.863 89.1798 146.863 90.513 150.5 90.5C151.738 90.81 151.738 91.31 150.5 92C149.255 92.791 147.922 93.291 146.5 93.5C144.214 94.34 143.881 95.84 145.5 98C142.668 105.335 137.334 108.835 129.5 108.5C130.279 113.113 130.779 117.78 131 122.5C132.319 124.487 134.152 125.654 136.5 126C134.999 127.252 133.332 128.252 131.5 129C132.91 130.372 134.577 131.205 136.5 131.5C137.85 132.65 137.684 133.317 136 133.5C129.338 131.777 128.838 132.777 134.5 136.5C133.047 136.929 131.381 137.096 129.5 137C127.539 139.963 125.206 142.629 122.5 145C118.268 147.275 114.268 149.775 110.5 152.5C110.158 153.338 109.492 153.672 108.5 153.5C106.628 156.529 103.961 158.695 100.5 160C103.207 160.317 105.54 159.484 107.5 157.5C108.5 159.5 109.5 161.5 110.5 163.5C104.86 162.83 99.86 164.164 95.5 167.5C94.504 167.586 93.671 167.252 93 166.5C92.598 165.128 92.098 163.795 91.5 162.5C102.106 161.345 102.106 160.512 91.5 160C90.034 159.365 88.7 158.531 87.5 157.5C87.912 158.782 87.246 159.782 85.5 160.5C81.958 160.187 78.625 160.521 75.5 161.5C73.523 159.261 71.023 157.927 68 157.5C65.461 158.602 62.961 158.602 60.5 157.5C59.186 158.313 58.019 159.313 57 160.5C56.821 155.039 55.321 154.372 52.5 158.5C51.569 156.354 51.903 154.188 53.5 152C50.325 152.053 47.658 151.22 45.5 149.5C47.818 149.182 49.152 147.848 49.5 145.5C46.765 141.419 44.431 137.085 42.5 132.5C31.134 140.327 21.801 138.327 14.5 126.5C16.207 124.358 17.041 122.025 17 119.5C16.292 120.381 15.458 121.047 14.5 121.5C12.236 122.219 9.903 122.552 7.5 122.5C10.165 119.665 12.665 116.665 15 113.5C15.667 112.5 15.667 111.5 15 110.5C14.051 112.093 12.885 113.426 11.5 114.5C9.565 115.15 7.565 115.483 5.5 115.5C10.615 109.765 14.282 103.265 16.5 96C22.153 92.902 28.153 91.902 34.5 93C38.348 97.016 42.348 100.849 46.5 104.5C46.291 101.577 46.624 98.577 47.5 95.5C47.712 97.384 48.712 98.717 50.5 99.5C51.167 94.5 51.833 89.5 52.5 84.5C54.415 97.61 56.748 97.61 59.5 84.5C60.167 86.8333 60.833 89.1667 61.5 91.5C62.167 91.5 62.833 91.5 63.5 91.5C67.198 91.552 70.865 91.886 74.5 92.5C85.495 97.052 96.162 96.218 106.5 90C110.989 86.0829 111.989 81.5829 109.5 76.5C111.5 72.1667 113.5 67.8333 115.5 63.5C116.376 62.7492 117.376 62.2492 118.5 62C123.167 61.3333 127.833 61.3333 132.5 62C135.483 64.9145 138.483 67.9145 141.5 71C144.394 72.7926 147.394 74.2926 150.5 75.5Z" fill="#DDB901"/>
<path fill-rule="evenodd" clip-rule="evenodd" d="M35.5 114.5C37.951 116.59 40.284 118.923 42.5 121.5C40.469 123.404 38.469 123.571 36.5 122C37.5 121.667 38.5 121.333 39.5 121C38.333 119.833 37.167 118.667 36 117.5C35.189 118.96 34.355 119.293 33.5 118.5C34.18 117.14 34.847 115.807 35.5 114.5Z" fill="black"/>
<path fill-rule="evenodd" clip-rule="evenodd" d="M60.5 105.5C65.4 104.948 68.734 106.948 70.5 111.5C63.024 110.077 58.524 113.41 57 121.5C54.122 115.062 55.289 109.728 60.5 105.5Z" fill="#151107"/>
<path fill-rule="evenodd" clip-rule="evenodd" d="M100.5 95.4999C107.219 94.8639 111.552 97.8639 113.5 104.5C113.167 104.833 112.833 105.167 112.5 105.5C107.221 100.283 102.055 100.283 97 105.5C96.935 101.773 98.101 98.4399 100.5 95.4999Z" fill="#110E07"/>
<path fill-rule="evenodd" clip-rule="evenodd" d="M125.5 91.5C126.629 93.666 126.129 95.666 124 97.5C123.964 95.428 124.464 93.428 125.5 91.5Z" fill="#221B0D"/>
<path fill-rule="evenodd" clip-rule="evenodd" d="M63.5 91.5C67.29 90.098 70.956 90.431 74.5 92.5C70.865 91.886 67.198 91.552 63.5 91.5Z" fill="#12222D"/>
<path fill-rule="evenodd" clip-rule="evenodd" d="M126.5 84.5C128.63 86.1271 130.63 87.9604 132.5 90C130.255 89.8047 128.422 88.6381 127 86.5C125.431 90.072 123.098 93.072 120 95.5C119.333 94.833 119.333 94.167 120 93.5C122.666 90.824 124.833 87.8239 126.5 84.5Z" fill="black"/>
<path fill-rule="evenodd" clip-rule="evenodd" d="M162.5 92.5C167 93.5 167.921 94.03 172.5 94C173.263 94.768 176.763 95.268 178 95.5C183.869 95.758 189 97.5 194.5 98.5C195.403 100.636 196.569 102.636 198 104.5C198.749 111.597 198.249 118.597 196.5 125.5C195.067 126.833 193.733 128.333 192.5 130C191.552 130.483 190.552 130.649 189.5 130.5C187.712 129.378 185.712 129.211 183.5 130C180.562 131.808 177.562 133.308 174.5 134.5C170.215 133.792 165.882 133.292 161.5 133C158.761 131.974 156.428 130.474 154.5 128.5C153.5 126.833 152.167 125.5 150.5 124.5C149.608 119.562 149.274 114.562 149.5 109.5C149.73 100.613 154.063 94.947 162.5 92.5Z" fill="#CC0821"/>
<path d="M189.563 108.631L186.432 124.26C186.292 124.961 185.681 125.459 184.974 125.449C181.977 125.407 175.536 125.232 171.08 124.507C166.697 123.793 160.649 121.965 157.777 121.053C157.08 120.832 156.656 120.13 156.781 119.399L159.604 102.864C159.757 101.963 160.677 101.4 161.557 101.672C163.6 102.302 166.782 103.252 169.875 104.048C171.27 104.407 172.649 104.736 173.9 104.99C178.416 105.907 184.836 106.532 188.195 106.819C189.102 106.896 189.741 107.744 189.563 108.631Z" fill="white" stroke="#2B2424"/>
<path d="M160.97 106.851C160.865 106.873 160.779 106.861 160.713 106.815C160.646 106.769 160.602 106.717 160.578 106.659C160.544 106.585 160.544 106.513 160.576 106.445C160.609 106.376 160.676 106.324 160.777 106.288C160.944 106.23 161.146 106.196 161.386 106.185C161.626 106.167 161.875 106.195 162.132 106.269C162.39 106.343 162.616 106.458 162.812 106.615C163.014 106.767 163.175 106.945 163.294 107.15C163.42 107.355 163.501 107.58 163.538 107.824C163.583 108.062 163.58 108.306 163.528 108.554C163.467 108.814 163.368 109.067 163.228 109.313C163.095 109.56 162.93 109.784 162.731 109.985C162.538 110.187 162.317 110.364 162.066 110.515C161.823 110.661 161.564 110.763 161.289 110.821C161.103 110.835 160.968 110.818 160.882 110.768C160.796 110.719 160.741 110.668 160.716 110.616C160.709 110.581 160.71 110.537 160.72 110.485C160.737 110.427 160.784 110.374 160.86 110.327C160.896 109.677 160.958 109.054 161.045 108.46C161.14 107.861 161.232 107.315 161.321 106.823C161.206 106.823 161.089 106.832 160.97 106.851ZM162.066 106.917C162.028 106.904 161.986 106.893 161.94 106.884C161.902 106.871 161.863 106.86 161.823 106.853C161.853 106.913 161.874 106.984 161.886 107.068C161.899 107.145 161.9 107.219 161.887 107.291C161.814 107.692 161.74 108.122 161.663 108.582C161.593 109.044 161.536 109.545 161.493 110.086C161.819 109.928 162.113 109.71 162.373 109.432C162.641 109.149 162.814 108.831 162.891 108.479C162.957 108.152 162.927 107.849 162.802 107.569C162.677 107.282 162.432 107.065 162.066 106.917ZM167.806 108.291C167.811 108.414 167.812 108.56 167.808 108.728C167.806 108.891 167.792 109.061 167.767 109.239C167.749 109.412 167.72 109.59 167.681 109.772C167.641 109.955 167.589 110.128 167.525 110.293C167.45 110.483 167.339 110.649 167.191 110.792C167.044 110.934 166.873 111.056 166.678 111.156C166.49 111.258 166.287 111.333 166.068 111.381C165.857 111.424 165.647 111.447 165.436 111.45C165.233 111.447 165.035 111.418 164.842 111.363C164.657 111.302 164.496 111.215 164.361 111.103C164.208 110.973 164.093 110.821 164.017 110.644C163.94 110.468 163.929 110.266 163.984 110.039C164.038 109.818 164.094 109.618 164.153 109.439C164.214 109.254 164.28 109.079 164.35 108.916C164.427 108.754 164.507 108.592 164.59 108.431C164.674 108.263 164.763 108.09 164.857 107.91C164.905 107.831 164.973 107.792 165.061 107.794C165.095 107.794 165.134 107.801 165.179 107.816C165.198 107.819 165.222 107.837 165.25 107.869C165.286 107.896 165.317 107.932 165.343 107.978C165.368 108.023 165.386 108.074 165.396 108.13C165.413 108.187 165.406 108.246 165.374 108.308C165.277 108.508 165.18 108.71 165.081 108.916C164.983 109.122 164.893 109.319 164.812 109.508C164.737 109.697 164.679 109.87 164.637 110.025C164.603 110.174 164.598 110.295 164.622 110.388C164.685 110.528 164.785 110.631 164.922 110.696C165.067 110.756 165.224 110.788 165.393 110.791C165.561 110.795 165.727 110.781 165.888 110.749C166.057 110.712 166.204 110.667 166.329 110.615C166.527 110.529 166.682 110.405 166.793 110.242C166.91 110.08 166.998 109.896 167.055 109.69C167.113 109.483 167.149 109.263 167.165 109.029C167.186 108.795 167.198 108.564 167.199 108.334C167.196 108.272 167.213 108.197 167.25 108.109C167.286 108.021 167.351 107.958 167.446 107.921C167.548 107.885 167.628 107.907 167.689 107.985C167.756 108.065 167.795 108.167 167.806 108.291ZM172.557 108.805C172.41 109.354 172.251 109.915 172.08 110.487C171.916 111.053 171.736 111.583 171.538 112.076C171.49 112.196 171.437 112.278 171.382 112.322C171.327 112.366 171.254 112.39 171.166 112.394C171.091 112.395 170.994 112.353 170.873 112.27C170.759 112.189 170.67 112.085 170.604 111.958C170.52 111.787 170.428 111.601 170.329 111.4C170.238 111.194 170.133 110.985 170.016 110.774C169.906 110.558 169.785 110.343 169.655 110.129C169.53 109.917 169.394 109.716 169.245 109.527C169.147 109.956 169.053 110.383 168.963 110.807C168.874 111.225 168.797 111.648 168.733 112.077C168.723 112.136 168.665 112.156 168.56 112.137C168.435 112.114 168.345 112.033 168.289 111.894C168.234 111.749 168.211 111.609 168.222 111.476C168.226 111.341 168.25 111.152 168.294 110.91C168.339 110.66 168.389 110.402 168.444 110.134C168.506 109.867 168.566 109.611 168.624 109.364C168.683 109.117 168.731 108.922 168.771 108.781C168.812 108.625 168.869 108.517 168.941 108.456C169.02 108.395 169.088 108.374 169.146 108.391C169.275 108.428 169.353 108.483 169.38 108.555C169.416 108.623 169.428 108.703 169.418 108.796C169.624 109.009 169.807 109.232 169.968 109.465C170.136 109.698 170.283 109.931 170.41 110.164C170.544 110.399 170.662 110.63 170.763 110.858C170.871 111.081 170.973 111.286 171.068 111.472C171.218 111.093 171.36 110.665 171.494 110.188C171.634 109.712 171.778 109.213 171.927 108.691C171.932 108.624 171.983 108.569 172.079 108.525C172.176 108.475 172.26 108.46 172.331 108.479C172.512 108.526 172.588 108.634 172.557 108.805ZM173.328 109.087C173.223 109.108 173.137 109.096 173.071 109.05C173.004 109.004 172.96 108.952 172.936 108.894C172.902 108.82 172.902 108.749 172.934 108.68C172.967 108.611 173.034 108.559 173.135 108.523C173.302 108.465 173.504 108.431 173.744 108.42C173.984 108.402 174.233 108.43 174.491 108.504C174.748 108.578 174.975 108.693 175.17 108.851C175.373 109.002 175.533 109.181 175.652 109.385C175.778 109.591 175.859 109.815 175.896 110.059C175.941 110.298 175.938 110.541 175.886 110.789C175.826 111.049 175.726 111.302 175.586 111.548C175.454 111.795 175.288 112.019 175.089 112.22C174.896 112.422 174.675 112.599 174.424 112.75C174.181 112.896 173.922 112.998 173.647 113.057C173.461 113.071 173.326 113.053 173.24 113.003C173.154 112.954 173.099 112.903 173.074 112.851C173.067 112.816 173.068 112.772 173.078 112.72C173.095 112.662 173.142 112.61 173.218 112.562C173.254 111.912 173.316 111.29 173.403 110.696C173.498 110.096 173.59 109.551 173.679 109.059C173.564 109.058 173.447 109.067 173.328 109.087ZM174.424 109.153C174.386 109.139 174.344 109.128 174.298 109.12C174.26 109.106 174.221 109.096 174.182 109.088C174.211 109.148 174.232 109.22 174.244 109.303C174.258 109.38 174.258 109.455 174.245 109.527C174.172 109.927 174.098 110.357 174.021 110.818C173.951 111.279 173.895 111.78 173.851 112.321C174.178 112.164 174.471 111.946 174.731 111.668C174.999 111.384 175.172 111.066 175.249 110.714C175.315 110.388 175.285 110.084 175.16 109.804C175.036 109.517 174.79 109.3 174.424 109.153ZM179.466 111.691C179.48 111.761 179.442 111.822 179.352 111.873C179.262 111.918 179.13 111.935 178.956 111.924C178.654 111.91 178.344 111.898 178.028 111.888C177.712 111.871 177.39 111.857 177.06 111.845C176.986 112.177 176.926 112.512 176.878 112.849C177.029 112.876 177.212 112.895 177.427 112.907C177.649 112.913 177.876 112.914 178.107 112.908C178.339 112.903 178.56 112.895 178.772 112.886C178.991 112.872 179.176 112.861 179.326 112.854C179.402 112.848 179.48 112.848 179.56 112.856C179.641 112.857 179.71 112.869 179.767 112.893C179.831 112.912 179.879 112.944 179.912 112.991C179.944 113.037 179.953 113.096 179.94 113.169C179.937 113.188 179.909 113.214 179.855 113.245C179.802 113.276 179.736 113.308 179.655 113.341C179.582 113.368 179.503 113.394 179.417 113.42C179.339 113.439 179.269 113.454 179.206 113.463C178.776 113.52 178.355 113.563 177.943 113.59C177.533 113.611 177.141 113.59 176.765 113.529C176.548 113.497 176.394 113.411 176.304 113.273C176.215 113.128 176.188 112.94 176.223 112.71C176.268 112.386 176.326 112.061 176.399 111.735C176.299 111.65 176.26 111.548 176.281 111.43C176.317 111.307 176.392 111.233 176.505 111.206C176.552 111.018 176.597 110.829 176.638 110.64C176.68 110.445 176.725 110.253 176.772 110.065C176.702 110.039 176.643 109.991 176.595 109.921C176.553 109.853 176.539 109.782 176.552 109.71C176.562 109.651 176.585 109.601 176.62 109.56C176.655 109.512 176.712 109.482 176.789 109.469C176.911 109.464 177.061 109.46 177.238 109.458C177.414 109.456 177.593 109.458 177.775 109.464C177.964 109.471 178.142 109.48 178.309 109.49C178.483 109.501 178.63 109.514 178.749 109.528C178.889 109.54 179.018 109.577 179.136 109.639C179.26 109.702 179.368 109.8 179.459 109.931C179.469 110.028 179.436 110.093 179.362 110.127C179.295 110.162 179.211 110.178 179.11 110.173C179.009 110.168 178.888 110.163 178.747 110.158C178.607 110.146 178.46 110.137 178.305 110.129C178.157 110.123 178.006 110.116 177.852 110.108C177.705 110.095 177.564 110.087 177.43 110.082C177.427 110.096 177.424 110.112 177.421 110.132C177.425 110.146 177.426 110.16 177.423 110.173C177.379 110.341 177.339 110.51 177.301 110.679C177.264 110.849 177.226 111.018 177.189 111.187C177.473 111.191 177.762 111.203 178.057 111.222C178.352 111.235 178.587 111.25 178.76 111.268C178.9 111.28 179.031 111.321 179.154 111.39C179.277 111.46 179.381 111.56 179.466 111.691ZM180.904 114.308C180.929 114.062 180.962 113.784 181.005 113.473C181.054 113.163 181.108 112.848 181.166 112.526C181.225 112.198 181.283 111.877 181.34 111.562C181.404 111.248 181.465 110.965 181.525 110.711C181.536 110.646 181.575 110.602 181.64 110.58C181.713 110.552 181.768 110.545 181.806 110.559C181.922 110.594 181.993 110.65 182.019 110.73C182.053 110.804 182.066 110.904 182.056 111.031C182.012 111.24 181.967 111.449 181.923 111.657C181.885 111.867 181.85 112.078 181.818 112.289C182.123 112.29 182.389 112.226 182.615 112.098C182.848 111.97 183.026 111.81 183.15 111.615C183.197 111.542 183.237 111.451 183.27 111.342C183.31 111.234 183.333 111.123 183.341 111.009C183.349 110.889 183.336 110.775 183.301 110.667C183.274 110.554 183.217 110.458 183.129 110.382C183 110.27 182.851 110.196 182.681 110.158C182.512 110.121 182.33 110.115 182.136 110.141C181.949 110.161 181.757 110.215 181.558 110.301C181.366 110.388 181.18 110.5 180.999 110.637C181.001 110.739 180.972 110.825 180.912 110.895C180.853 110.959 180.778 111 180.687 111.017C180.632 111.021 180.574 110.983 180.514 110.905C180.455 110.819 180.432 110.741 180.445 110.669C180.492 110.406 180.606 110.193 180.784 110.029C180.971 109.859 181.187 109.729 181.434 109.638C181.681 109.547 181.938 109.492 182.206 109.473C182.474 109.454 182.716 109.463 182.932 109.503C183.254 109.561 183.505 109.705 183.687 109.934C183.871 110.157 183.976 110.416 184.004 110.713C184.053 111.23 183.937 111.666 183.655 112.022C183.381 112.378 182.985 112.659 182.467 112.863C182.77 113.135 183.052 113.393 183.313 113.636C183.58 113.881 183.844 114.142 184.106 114.42C184.138 114.466 184.17 114.533 184.202 114.62C184.241 114.702 184.214 114.812 184.121 114.951C184.065 115.036 183.987 115.076 183.886 115.071C183.793 115.061 183.707 115.015 183.627 114.933C183.504 114.789 183.362 114.638 183.201 114.48C183.047 114.317 182.883 114.155 182.709 113.995C182.536 113.828 182.362 113.668 182.186 113.514C182.012 113.354 181.846 113.205 181.688 113.068C181.647 113.332 181.603 113.595 181.555 113.857C181.515 114.114 181.48 114.368 181.448 114.62C181.431 114.712 181.393 114.773 181.333 114.803C181.275 114.826 181.206 114.83 181.128 114.816C181.089 114.803 181.057 114.776 181.03 114.738C181.004 114.692 180.979 114.644 180.955 114.592C180.938 114.535 180.924 114.481 180.913 114.432C180.902 114.376 180.9 114.335 180.904 114.308ZM187.856 113.645C187.85 113.678 187.808 113.704 187.73 113.724C187.658 113.745 187.593 113.75 187.534 113.739C187.1 113.668 186.687 113.61 186.295 113.566C185.903 113.522 185.52 113.487 185.146 113.46C185.072 113.453 185.011 113.418 184.961 113.355C184.918 113.293 184.897 113.225 184.897 113.15C184.895 113.083 184.911 113.018 184.942 112.955C184.981 112.888 185.036 112.85 185.105 112.843C185.492 112.838 185.905 112.855 186.345 112.894C186.786 112.933 187.217 113.018 187.641 113.149C187.666 113.16 187.696 113.183 187.73 113.216C187.766 113.243 187.797 113.279 187.823 113.324C187.849 113.363 187.868 113.41 187.878 113.466C187.888 113.522 187.881 113.582 187.856 113.645ZM162.917 115.303C162.913 115.851 162.886 116.395 162.835 116.934C162.786 117.467 162.728 117.999 162.659 118.528C162.655 118.589 162.639 118.64 162.611 118.682C162.584 118.718 162.551 118.749 162.512 118.776C162.48 118.804 162.446 118.825 162.41 118.839C162.38 118.854 162.355 118.86 162.335 118.856C162.263 118.843 162.197 118.797 162.137 118.718C162.084 118.634 162.061 118.535 162.068 118.422C162.094 118.169 162.119 117.916 162.145 117.663C162.17 117.41 162.192 117.157 162.211 116.903C161.488 116.968 160.729 117.004 159.936 117.009C159.936 117.158 159.936 117.308 159.936 117.457C159.936 117.606 159.94 117.755 159.946 117.906C159.948 117.933 159.944 117.976 159.933 118.035C159.929 118.096 159.914 118.157 159.889 118.221C159.871 118.285 159.84 118.344 159.797 118.397C159.761 118.445 159.711 118.476 159.647 118.492C159.594 118.489 159.541 118.462 159.489 118.412C159.437 118.362 159.405 118.316 159.392 118.273C159.35 118.055 159.319 117.799 159.298 117.504C159.283 117.21 159.277 116.904 159.281 116.586C159.292 116.263 159.316 115.939 159.355 115.614C159.393 115.289 159.446 114.98 159.512 114.687C159.543 114.591 159.592 114.529 159.658 114.5C159.732 114.466 159.795 114.454 159.848 114.463C159.907 114.474 159.952 114.502 159.984 114.549C160.023 114.596 160.05 114.652 160.066 114.716C160.082 114.78 160.091 114.842 160.093 114.904C160.095 114.965 160.093 115.016 160.086 115.055C160.055 115.266 160.027 115.474 160.003 115.68C159.98 115.886 159.966 116.093 159.962 116.303C160.305 116.317 160.68 116.321 161.088 116.313C161.497 116.299 161.885 116.271 162.252 116.229C162.266 116.076 162.277 115.922 162.284 115.768C162.293 115.607 162.301 115.449 162.309 115.294C162.329 115.183 162.38 115.09 162.461 115.017C162.548 114.945 162.628 114.915 162.7 114.928C162.753 114.938 162.8 114.973 162.843 115.035C162.893 115.099 162.918 115.188 162.917 115.303ZM167.093 117.958C167.02 118.135 166.916 118.299 166.78 118.451C166.652 118.597 166.509 118.73 166.352 118.851C166.195 118.971 166.028 119.07 165.851 119.146C165.681 119.224 165.512 119.278 165.344 119.309C165.037 119.362 164.741 119.345 164.459 119.26C164.184 119.17 163.955 118.993 163.772 118.73C163.655 118.519 163.584 118.293 163.56 118.051C163.542 117.811 163.555 117.573 163.597 117.336C163.648 117.095 163.723 116.868 163.822 116.656C163.928 116.444 164.046 116.259 164.177 116.1C164.333 115.911 164.505 115.763 164.694 115.655C164.883 115.547 165.078 115.497 165.28 115.507C165.335 115.503 165.375 115.524 165.401 115.569C165.426 115.614 165.435 115.663 165.425 115.716C165.503 115.662 165.613 115.631 165.757 115.623C165.901 115.615 166.055 115.64 166.221 115.697C166.529 115.793 166.761 115.934 166.917 116.118C167.074 116.302 167.176 116.503 167.225 116.722C167.281 116.936 167.289 117.154 167.249 117.377C167.216 117.595 167.164 117.788 167.093 117.958ZM165.193 116.212C165.051 116.248 164.924 116.316 164.81 116.418C164.705 116.514 164.61 116.629 164.524 116.762C164.446 116.897 164.381 117.048 164.331 117.215C164.288 117.377 164.259 117.537 164.244 117.697C164.222 117.93 164.256 118.133 164.347 118.305C164.439 118.471 164.61 118.576 164.859 118.621C165.003 118.648 165.149 118.647 165.296 118.619C165.451 118.586 165.596 118.535 165.731 118.464C165.866 118.394 165.993 118.305 166.114 118.198C166.236 118.085 166.339 117.964 166.423 117.837C166.469 117.771 166.512 117.687 166.55 117.586C166.59 117.478 166.617 117.368 166.63 117.255C166.645 117.136 166.639 117.019 166.612 116.906C166.585 116.793 166.529 116.691 166.444 116.601C166.324 116.478 166.17 116.389 165.984 116.335C165.797 116.281 165.589 116.287 165.36 116.354C165.316 116.374 165.269 116.372 165.219 116.349C165.177 116.321 165.168 116.276 165.193 116.212ZM172.084 116.849C171.937 117.398 171.778 117.959 171.607 118.531C171.444 119.098 171.263 119.627 171.066 120.12C171.017 120.24 170.965 120.322 170.909 120.366C170.854 120.41 170.782 120.435 170.693 120.439C170.619 120.439 170.521 120.398 170.401 120.315C170.287 120.233 170.197 120.129 170.132 120.002C170.048 119.831 169.956 119.645 169.857 119.444C169.765 119.238 169.661 119.029 169.543 118.818C169.433 118.602 169.313 118.387 169.182 118.174C169.058 117.962 168.921 117.761 168.773 117.571C168.675 118.001 168.581 118.427 168.49 118.851C168.401 119.269 168.325 119.692 168.261 120.121C168.25 120.18 168.192 120.2 168.087 120.181C167.963 120.158 167.872 120.078 167.816 119.939C167.761 119.793 167.739 119.654 167.75 119.52C167.754 119.385 167.778 119.197 167.822 118.954C167.867 118.705 167.917 118.446 167.972 118.178C168.034 117.912 168.094 117.655 168.152 117.408C168.21 117.161 168.259 116.967 168.298 116.825C168.34 116.67 168.397 116.562 168.469 116.5C168.547 116.44 168.616 116.418 168.673 116.435C168.802 116.472 168.88 116.527 168.908 116.6C168.943 116.667 168.956 116.747 168.946 116.84C169.151 117.054 169.334 117.276 169.495 117.509C169.663 117.742 169.811 117.976 169.938 118.209C170.072 118.443 170.189 118.674 170.29 118.903C170.399 119.125 170.501 119.33 170.596 119.517C170.746 119.137 170.887 118.709 171.021 118.232C171.161 117.756 171.306 117.257 171.454 116.735C171.46 116.668 171.51 116.613 171.606 116.57C171.703 116.519 171.788 116.504 171.859 116.524C172.04 116.57 172.115 116.679 172.084 116.849ZM176.127 117.926C176.131 118.049 176.132 118.194 176.129 118.363C176.126 118.525 176.113 118.696 176.087 118.874C176.069 119.047 176.041 119.225 176.001 119.407C175.961 119.59 175.909 119.763 175.846 119.928C175.771 120.117 175.659 120.284 175.512 120.426C175.364 120.569 175.193 120.69 174.999 120.791C174.811 120.892 174.608 120.967 174.389 121.016C174.178 121.059 173.967 121.082 173.756 121.084C173.554 121.082 173.356 121.053 173.163 120.997C172.977 120.937 172.817 120.85 172.681 120.737C172.528 120.608 172.414 120.455 172.337 120.279C172.261 120.102 172.25 119.901 172.304 119.673C172.358 119.453 172.414 119.253 172.474 119.074C172.534 118.888 172.6 118.714 172.67 118.551C172.747 118.388 172.827 118.227 172.91 118.066C172.995 117.898 173.084 117.724 173.177 117.545C173.225 117.465 173.293 117.427 173.381 117.429C173.415 117.429 173.454 117.436 173.499 117.451C173.519 117.454 173.543 117.472 173.571 117.504C173.607 117.531 173.637 117.567 173.663 117.612C173.689 117.658 173.707 117.708 173.717 117.764C173.734 117.822 173.726 117.881 173.695 117.943C173.598 118.142 173.5 118.345 173.402 118.551C173.304 118.757 173.214 118.954 173.132 119.142C173.057 119.332 172.999 119.504 172.957 119.659C172.924 119.809 172.919 119.93 172.942 120.023C173.005 120.163 173.105 120.265 173.242 120.331C173.387 120.391 173.544 120.423 173.713 120.426C173.882 120.43 174.047 120.415 174.208 120.384C174.378 120.346 174.525 120.302 174.649 120.25C174.848 120.164 175.002 120.039 175.113 119.877C175.23 119.715 175.318 119.531 175.376 119.324C175.433 119.118 175.47 118.898 175.485 118.663C175.507 118.43 175.518 118.199 175.519 117.968C175.517 117.907 175.534 117.832 175.57 117.744C175.606 117.656 175.672 117.593 175.767 117.556C175.868 117.52 175.949 117.541 176.009 117.62C176.076 117.7 176.115 117.802 176.127 117.926ZM180.877 118.44C180.73 118.989 180.571 119.549 180.4 120.121C180.237 120.688 180.056 121.218 179.859 121.71C179.81 121.83 179.758 121.912 179.702 121.957C179.647 122.001 179.575 122.025 179.486 122.029C179.411 122.029 179.314 121.988 179.193 121.905C179.079 121.824 178.99 121.719 178.925 121.592C178.841 121.421 178.749 121.235 178.65 121.034C178.558 120.828 178.454 120.62 178.336 120.409C178.226 120.192 178.106 119.977 177.975 119.764C177.851 119.552 177.714 119.351 177.566 119.162C177.468 119.591 177.374 120.018 177.283 120.442C177.194 120.859 177.118 121.282 177.054 121.711C177.043 121.77 176.985 121.79 176.88 121.771C176.756 121.749 176.665 121.668 176.609 121.529C176.554 121.384 176.532 121.244 176.542 121.111C176.547 120.976 176.57 120.787 176.614 120.544C176.659 120.295 176.71 120.037 176.765 119.769C176.827 119.502 176.887 119.245 176.945 118.999C177.003 118.752 177.052 118.557 177.091 118.415C177.133 118.26 177.189 118.152 177.262 118.09C177.34 118.03 177.408 118.009 177.466 118.026C177.595 118.063 177.673 118.117 177.701 118.19C177.736 118.258 177.749 118.338 177.739 118.431C177.944 118.644 178.127 118.867 178.288 119.099C178.456 119.333 178.604 119.566 178.731 119.799C178.865 120.033 178.982 120.265 179.083 120.493C179.192 120.716 179.294 120.921 179.389 121.107C179.538 120.728 179.68 120.3 179.814 119.822C179.954 119.346 180.099 118.847 180.247 118.326C180.253 118.259 180.303 118.204 180.399 118.16C180.496 118.11 180.58 118.095 180.651 118.114C180.833 118.16 180.908 118.269 180.877 118.44ZM183.049 120.306C183.016 120.3 182.974 120.289 182.923 120.273C182.879 120.251 182.836 120.227 182.794 120.199C182.759 120.165 182.729 120.129 182.702 120.091C182.676 120.045 182.667 120.003 182.674 119.964C182.683 119.911 182.724 119.854 182.796 119.793C182.876 119.726 182.992 119.686 183.143 119.673C183.348 119.662 183.56 119.673 183.777 119.706C183.996 119.732 184.213 119.771 184.427 119.823C184.642 119.869 184.853 119.921 185.059 119.978C185.267 120.03 185.462 120.075 185.644 120.115C185.749 120.134 185.815 120.166 185.84 120.211C185.866 120.256 185.874 120.305 185.865 120.358C185.843 120.476 185.774 120.558 185.657 120.605C185.541 120.652 185.43 120.662 185.326 120.637C185.216 120.61 185.099 120.585 184.974 120.563C184.856 120.541 184.731 120.519 184.6 120.495C184.567 120.679 184.536 120.886 184.508 121.118C184.487 121.345 184.466 121.575 184.444 121.808C184.422 122.041 184.402 122.265 184.384 122.478C184.372 122.693 184.363 122.874 184.356 123.022C184.36 123.077 184.338 123.124 184.29 123.162C184.25 123.196 184.194 123.206 184.122 123.193C183.984 123.168 183.898 123.064 183.863 122.882C183.797 122.538 183.775 122.155 183.797 121.732C183.404 121.884 183.032 121.956 182.681 121.947C182.33 121.937 182.024 121.872 181.761 121.75C181.507 121.622 181.311 121.451 181.173 121.237C181.044 121.017 181.003 120.773 181.052 120.504C181.098 120.248 181.194 119.981 181.339 119.702C181.484 119.423 181.667 119.162 181.888 118.917C182.108 118.672 182.353 118.459 182.623 118.278C182.901 118.091 183.195 117.964 183.505 117.899C183.608 117.89 183.7 117.903 183.782 117.939C183.871 117.968 183.948 118.016 184.01 118.081C184.081 118.142 184.139 118.213 184.185 118.296C184.239 118.373 184.282 118.449 184.317 118.523C184.341 118.575 184.352 118.628 184.349 118.681C184.346 118.735 184.317 118.781 184.263 118.818C184.152 118.873 184.068 118.851 184.011 118.752C183.924 118.594 183.844 118.495 183.77 118.455C183.704 118.409 183.597 118.417 183.451 118.478C183.303 118.546 183.133 118.661 182.941 118.823C182.751 118.978 182.566 119.158 182.386 119.363C182.215 119.562 182.068 119.776 181.945 120.005C181.824 120.226 181.758 120.442 181.747 120.65C181.735 120.83 181.81 120.976 181.973 121.087C182.137 121.191 182.331 121.26 182.555 121.294C182.786 121.329 183.02 121.327 183.257 121.289C183.501 121.251 183.697 121.179 183.846 121.07C183.859 120.957 183.873 120.844 183.887 120.732C183.901 120.612 183.919 120.497 183.939 120.386C183.792 120.373 183.646 120.36 183.499 120.347C183.353 120.327 183.203 120.313 183.049 120.306Z" fill="black"/>
<path d="M170.235 105.314L169.068 103.198L170.654 102.934L170.235 105.314Z" fill="#CC0821"/>
<path d="M168.997 104.569L168.158 102.712L169.522 102.6L168.997 104.569Z" fill="#CC0821"/>
<path d="M158.702 111.54L156.999 111.825L157.327 110.496L158.702 111.54Z" fill="#CC0821"/>
<path d="M163.636 121.277L163.449 123.733L162.167 123.254L163.636 121.277Z" fill="#CC0821"/>
<path fill-rule="evenodd" clip-rule="evenodd" d="M149.5 109.5C149.274 114.562 149.608 119.562 150.5 124.5C148.896 123.713 148.229 122.38 148.5 120.5C148.185 116.629 148.518 112.962 149.5 109.5Z" fill="black"/>
<path opacity="0.961" fill-rule="evenodd" clip-rule="evenodd" d="M7.5 122.5C6.761 122.631 6.094 122.464 5.5 122C8.094 119.914 10.094 117.414 11.5 114.5C12.885 113.426 14.051 112.093 15 110.5C15.667 111.5 15.667 112.5 15 113.5C12.665 116.665 10.165 119.665 7.5 122.5Z" fill="black"/>
<path fill-rule="evenodd" clip-rule="evenodd" d="M105.5 115.5C112.241 116.622 114.741 120.622 113 127.5C109.325 132.93 105.992 132.596 103 126.5C101.946 122.345 102.78 118.678 105.5 115.5Z" fill="black"/>
<path fill-rule="evenodd" clip-rule="evenodd" d="M67.5 125.5C72.779 126.952 75.779 130.452 76.5 136C75.412 140.403 72.745 141.57 68.5 139.5C65.015 134.982 64.682 130.315 67.5 125.5Z" fill="#110F0A"/>
<path fill-rule="evenodd" clip-rule="evenodd" d="M68.5 126.5C69.559 128.07 69.059 129.403 67 130.5C66.7 128.934 67.2 127.601 68.5 126.5Z" fill="#D5D6D5"/>
<path fill-rule="evenodd" clip-rule="evenodd" d="M105.584 117C106.643 118.57 106.143 119.903 104.084 121C103.784 119.434 104.284 118.101 105.584 117Z" fill="#D5D6D5"/>
<path fill-rule="evenodd" clip-rule="evenodd" d="M90.5 129.5C92.857 129.337 95.19 129.503 97.5 130C93.715 130.574 90.048 131.24 86.5 132C87.858 131.066 89.192 130.232 90.5 129.5Z" fill="#2E260B"/>
<path fill-rule="evenodd" clip-rule="evenodd" d="M90.5 132.5C93.187 132.336 95.854 132.503 98.5 133C100.281 138.576 98.114 141.409 92 141.5C87.314 141.87 85.314 139.87 86 135.5C87.409 134.219 88.909 133.219 90.5 132.5Z" fill="#0D0B08"/>
<path fill-rule="evenodd" clip-rule="evenodd" d="M136.5 131.5C138.912 131.694 139.912 133.027 139.5 135.5C138.07 135.579 136.736 135.246 135.5 134.5C134.702 134.957 134.369 135.624 134.5 136.5C128.838 132.777 129.338 131.777 136 133.5C137.684 133.317 137.85 132.65 136.5 131.5Z" fill="black"/>
<path opacity="0.788" fill-rule="evenodd" clip-rule="evenodd" d="M45.5 149.5C46.355 148.469 47.022 147.303 47.5 146C45.278 142.615 43.278 139.115 41.5 135.5C34.325 140.643 26.992 140.81 19.5 136C13.835 132.239 12.169 127.405 14.5 121.5C15.458 121.047 16.292 120.381 17 119.5C17.041 122.025 16.207 124.358 14.5 126.5C21.801 138.327 31.134 140.327 42.5 132.5C44.431 137.085 46.765 141.419 49.5 145.5C49.152 147.848 47.818 149.182 45.5 149.5Z" fill="black"/>
<path fill-rule="evenodd" clip-rule="evenodd" d="M91.5 133.5C96.666 134.034 96.666 135.034 91.5 136.5C90.833 136.167 90.167 135.833 89.5 135.5C90.243 134.818 90.909 134.151 91.5 133.5Z" fill="#CDCECE"/>
<path fill-rule="evenodd" clip-rule="evenodd" d="M146.5 114.5C147.167 116.5 147.833 118.5 148.5 120.5C148.229 122.38 148.896 123.713 150.5 124.5C150.833 126.833 152.167 128.167 154.5 128.5C156.428 130.474 158.761 131.974 161.5 133C165.882 133.292 170.215 133.792 174.5 134.5C176.246 135.218 176.912 136.218 176.5 137.5C179.652 133.024 183.985 130.69 189.5 130.5C190.552 130.649 191.552 130.483 192.5 130C193.733 128.333 195.067 126.833 196.5 125.5C197.222 125.082 197.722 124.416 198 123.5C199.114 128.612 197.447 132.612 193 135.5C192.667 134.5 192.333 133.5 192 132.5C191.883 137.902 189.383 141.736 184.5 144C177.617 146.358 170.617 147.025 163.5 146C164.167 146.333 164.833 146.667 165.5 147C155.35 157.384 143.017 162.051 128.5 161C124.833 157.491 121.167 153.824 117.5 150C126.219 144.419 135.386 139.586 145 135.5C145.361 132.475 145.861 129.475 146.5 126.5C145.353 124.194 144.02 122.027 142.5 120C142.519 118.167 143.185 116.667 144.5 115.5C144.842 114.662 145.508 114.328 146.5 114.5Z" fill="#DCB802"/>
<path fill-rule="evenodd" clip-rule="evenodd" d="M104.5 153.5C104.38 152.414 103.713 151.747 102.5 151.5C100.896 151.939 99.396 152.606 98 153.5C94.763 152.202 92.597 153.202 91.5 156.5C87.97 154.323 84.97 151.489 82.5 148C80.725 146.561 78.725 145.561 76.5 145C77.333 144.167 78.167 143.333 79 142.5C82.277 148.109 87.11 149.942 93.5 148C94.126 147.25 94.626 146.416 95 145.5C100.91 147.628 105.076 145.462 107.5 139C107.095 138.055 106.428 137.388 105.5 137C107.167 136.333 108.833 136.333 110.5 137C108.343 142.48 106.343 147.98 104.5 153.5Z" fill="#141007"/>
<path fill-rule="evenodd" clip-rule="evenodd" d="M115.5 159.5C113.861 160.473 112.527 161.806 111.5 163.5C111.167 163.5 110.833 163.5 110.5 163.5C109.5 161.5 108.5 159.5 107.5 157.5C107.833 156.167 108.167 154.833 108.5 153.5C109.492 153.672 110.158 153.338 110.5 152.5C116.013 150.314 120.013 151.981 122.5 157.5C120.031 158.168 117.698 158.835 115.5 159.5Z" fill="#1276B3"/>
<path fill-rule="evenodd" clip-rule="evenodd" d="M104.5 153.5C100.605 156.037 96.272 157.037 91.5 156.5C92.597 153.202 94.763 152.202 98 153.5C99.396 152.606 100.896 151.939 102.5 151.5C103.713 151.747 104.38 152.414 104.5 153.5Z" fill="#D5521C"/>
<path fill-rule="evenodd" clip-rule="evenodd" d="M104.5 153.5C104.426 155.411 103.426 156.578 101.5 157C97.973 157.808 94.64 157.641 91.5 156.5C96.272 157.037 100.605 156.037 104.5 153.5Z" fill="#2C190D"/>
<path fill-rule="evenodd" clip-rule="evenodd" d="M108.5 153.5C108.167 154.833 107.833 156.167 107.5 157.5C105.54 159.484 103.207 160.317 100.5 160C103.961 158.695 106.628 156.529 108.5 153.5Z" fill="black"/>
<path opacity="0.906" fill-rule="evenodd" clip-rule="evenodd" d="M45.5 149.5C47.658 151.22 50.325 152.053 53.5 152C51.903 154.188 51.569 156.354 52.5 158.5C51.686 160.273 50.352 160.773 48.5 160C52.149 154.964 50.816 152.297 44.5 152C43.117 150.539 43.451 149.706 45.5 149.5Z" fill="black"/>
<path fill-rule="evenodd" clip-rule="evenodd" d="M115.5 159.5C122.139 157.876 126.805 160.043 129.5 166C128.2 168.437 127.2 170.937 126.5 173.5C126.167 173.5 125.833 173.5 125.5 173.5C121.131 173.533 116.798 173.2 112.5 172.5C112.037 169.518 111.704 166.518 111.5 163.5C112.527 161.806 113.861 160.473 115.5 159.5Z" fill="#EFEC03"/>
<path fill-rule="evenodd" clip-rule="evenodd" d="M85.5 160.5C87.167 160.5 88.833 160.5 90.5 160.5C90.5 162.167 90.5 163.833 90.5 165.5C86.525 165.486 83.192 166.819 80.5 169.5C79.527 167.052 79.194 164.385 79.5 161.5C81.735 161.795 83.735 161.461 85.5 160.5Z" fill="#0380C3"/>
<path fill-rule="evenodd" clip-rule="evenodd" d="M112.5 172.5C116.616 176.021 120.95 176.355 125.5 173.5C125.833 173.5 126.167 173.5 126.5 173.5C128.474 171.572 129.974 169.239 131 166.5C133.718 168.771 135.551 171.604 136.5 175C145.41 178.376 152.244 184.209 157 192.5C159.118 201.523 155.952 207.69 147.5 211C138.559 213.909 130.726 212.076 124 205.5C119.957 197.54 121.457 196.04 128.5 201C129.833 201.667 131.167 201.667 132.5 201C128.867 200.18 125.867 198.347 123.5 195.5C117.439 200.633 110.439 203.633 102.5 204.5C100.339 211.155 97.506 217.488 94 223.5C87.266 213.774 78.099 207.608 66.5 205C69.461 201.583 71.794 197.75 73.5 193.5C71 190.036 70 186.369 70.5 182.5C72.505 180.666 74.672 178.999 77 177.5C78.704 179.373 80.537 181.04 82.5 182.5C83.624 183.809 85.124 184.475 87 184.5C90.566 184.424 93.4 183.09 95.5 180.5C96.972 178.883 97.639 176.883 97.5 174.5C97.559 171.891 96.892 169.557 95.5 167.5C100.41 166.181 105.41 165.181 110.5 164.5C110.111 167.553 110.777 170.22 112.5 172.5Z" fill="#0182C7"/>
<path fill-rule="evenodd" clip-rule="evenodd" d="M95.5 167.5C96.892 169.557 97.559 171.891 97.5 174.5C97.639 176.883 96.972 178.883 95.5 180.5C97.2 168.225 92.2 164.558 80.5 169.5C83.192 166.819 86.525 165.486 90.5 165.5C90.5 163.833 90.5 162.167 90.5 160.5C88.833 160.5 87.167 160.5 85.5 160.5C87.246 159.782 87.912 158.782 87.5 157.5C88.7 158.531 90.034 159.365 91.5 160C102.106 160.512 102.106 161.345 91.5 162.5C92.098 163.795 92.598 165.128 93 166.5C93.671 167.252 94.504 167.586 95.5 167.5Z" fill="black"/>
<path fill-rule="evenodd" clip-rule="evenodd" d="M95.5 180.5C91.364 182.183 87.031 182.85 82.5 182.5C81.184 180.178 79.851 177.844 78.5 175.5C78.977 173.403 79.643 171.403 80.5 169.5C92.2 164.558 97.2 168.225 95.5 180.5Z" fill="#F0EE03"/>
<path fill-rule="evenodd" clip-rule="evenodd" d="M110.5 163.5C110.833 163.5 111.167 163.5 111.5 163.5C111.704 166.518 112.037 169.518 112.5 172.5C110.777 170.22 110.111 167.553 110.5 164.5C105.41 165.181 100.41 166.181 95.5 167.5C99.86 164.164 104.86 162.83 110.5 163.5Z" fill="#1D1D17"/>
<path fill-rule="evenodd" clip-rule="evenodd" d="M75.5 161.5C76.552 161.351 77.552 161.517 78.5 162C77.201 165.135 77.201 168.301 78.5 171.5C77.902 172.795 77.402 174.128 77 175.5C73.926 177.071 71.76 179.404 70.5 182.5C69.733 181.828 69.066 180.995 68.5 180C70.998 177.552 72.498 174.719 73 171.5C70.55 176.284 67.05 180.117 62.5 183C57.401 183.93 52.401 185.263 47.5 187C51.47 186.674 55.47 186.674 59.5 187C62.129 190.199 61.796 193.199 58.5 196C55.287 196.703 52.121 196.536 49 195.5C45.932 199.319 42.099 200.319 37.5 198.5C33.069 200.996 28.569 200.996 24 198.5C17.782 201.699 12.115 201.032 7 196.5C6.503 194.19 6.337 191.857 6.5 189.5C10.445 190.656 14.445 191.156 18.5 191C21.167 188.667 21.167 186.333 18.5 184C14.205 183.102 10.372 181.269 7 178.5C5.423 173.921 6.923 170.921 11.5 169.5C15.297 171.467 18.964 173.634 22.5 176C24.81 176.497 27.143 176.663 29.5 176.5C29.509 174.692 29.009 173.025 28 171.5C19.553 163.836 20.72 160.003 31.5 160C36.035 164.898 39.702 170.398 42.5 176.5C43.59 175.609 43.59 174.609 42.5 173.5C49.695 164.402 59.028 159.902 70.5 160C72.286 160.785 73.786 161.951 75 163.5C75.464 162.906 75.631 162.239 75.5 161.5Z" fill="#DDB901"/>
<path fill-rule="evenodd" clip-rule="evenodd" d="M75.5 161.5C78.625 160.521 81.958 160.187 85.5 160.5C83.735 161.461 81.735 161.795 79.5 161.5C79.194 164.385 79.527 167.052 80.5 169.5C79.643 171.403 78.977 173.403 78.5 175.5C79.851 177.844 81.184 180.178 82.5 182.5C80.537 181.04 78.704 179.373 77 177.5C74.672 178.999 72.505 180.666 70.5 182.5C71.76 179.404 73.926 177.071 77 175.5C77.402 174.128 77.902 172.795 78.5 171.5C77.201 168.301 77.201 165.135 78.5 162C77.552 161.517 76.552 161.351 75.5 161.5Z" fill="black"/>
<path fill-rule="evenodd" clip-rule="evenodd" d="M75.5 161.5C75.631 162.239 75.464 162.906 75 163.5C73.786 161.951 72.286 160.785 70.5 160C59.028 159.902 49.695 164.402 42.5 173.5C43.59 174.609 43.59 175.609 42.5 176.5C39.702 170.398 36.035 164.898 31.5 160C20.72 160.003 19.553 163.836 28 171.5C29.009 173.025 29.509 174.692 29.5 176.5C27.143 176.663 24.81 176.497 22.5 176C18.964 173.634 15.297 171.467 11.5 169.5C6.923 170.921 5.423 173.921 7 178.5C10.372 181.269 14.205 183.102 18.5 184C21.167 186.333 21.167 188.667 18.5 191C14.445 191.156 10.445 190.656 6.5 189.5C6.962 188.12 7.962 187.453 9.5 187.5C11.833 188.167 14.167 188.833 16.5 189.5C17.737 189.444 18.737 188.944 19.5 188C15.019 185.169 10.519 182.335 6 179.5C5.034 175.882 5.534 172.549 7.5 169.5C8.772 168.954 10.106 168.621 11.5 168.5C16.304 169.819 20.804 171.819 25 174.5C25.5 174.167 26 173.833 26.5 173.5C25.243 171.321 23.743 169.321 22 167.5C20.167 159.333 23.333 156.167 31.5 158C36.49 160.825 39.823 164.992 41.5 170.5C46.061 167.088 50.394 163.588 54.5 160C54.164 158.97 53.497 158.47 52.5 158.5C55.321 154.372 56.821 155.039 57 160.5C58.019 159.313 59.186 158.313 60.5 157.5C62.961 158.602 65.461 158.602 68 157.5C71.023 157.927 73.523 159.261 75.5 161.5Z" fill="black"/>
<path fill-rule="evenodd" clip-rule="evenodd" d="M62.5 206.5C67.483 206.412 72.149 207.579 76.5 210C83.721 214.386 89.387 220.22 93.5 227.5C92.843 231.814 91.343 235.814 89 239.5C86.379 240.991 83.545 241.658 80.5 241.5C80.192 239.076 80.526 236.743 81.5 234.5C82.396 235.506 83.062 235.506 83.5 234.5C82.123 231.123 79.79 228.789 76.5 227.5C72.124 220.82 66.79 214.82 60.5 209.5C61.193 208.482 61.859 207.482 62.5 206.5Z" fill="#0281C6"/>
<path fill-rule="evenodd" clip-rule="evenodd" d="M62.5 206.5C61.859 207.482 61.193 208.482 60.5 209.5C66.79 214.82 72.124 220.82 76.5 227.5C75.448 227.649 74.448 227.483 73.5 227C69.421 220.501 64.421 214.834 58.5 210C54.5 209.333 50.5 209.333 46.5 210C45.696 211.771 44.529 213.271 43 214.5C42.667 212.953 43.167 211.62 44.5 210.5C44.137 209.817 43.804 209.15 43.5 208.5C46.91 208.218 50.243 207.551 53.5 206.5C56.761 208.455 59.761 208.455 62.5 206.5Z" fill="black"/>
<path fill-rule="evenodd" clip-rule="evenodd" d="M43.5 208.5C32.128 207.224 27.628 212.224 30 223.5C32.074 225.452 34.241 227.285 36.5 229C34.544 228.778 32.71 227.945 31 226.5C30.333 229.5 30.333 232.5 31 235.5C34.771 240.107 39.604 242.773 45.5 243.5C47.5 244.167 49.5 244.833 51.5 245.5C42.856 246.676 35.69 244.009 30 237.5C30.014 231.048 29.18 224.548 27.5 218C28.585 208.908 33.585 205.241 42.5 207C43.056 207.383 43.389 207.883 43.5 208.5Z" fill="black"/>
<path fill-rule="evenodd" clip-rule="evenodd" d="M194.5 98.5C194.833 98.5 196.667 98.5 197 98.5C199 101.5 199.208 101.894 200 104.5C200.138 112.209 200.305 119.876 200.5 127.5C197.172 132.497 193.838 137.497 190.5 142.5C183.415 147.898 175.581 149.564 167 147.5C157.597 158.117 145.763 163.784 131.5 164.5C134.55 166.928 136.883 169.928 138.5 173.5C162.89 185.214 165.89 200.714 147.5 220C150.6 222.792 152.267 226.292 152.5 230.5C151.267 234.248 149.767 237.914 148 241.5C142.673 246.651 137.507 246.651 132.5 241.5C136.838 244.057 141.172 244.057 145.5 241.5C146.738 238.832 146.738 236.166 145.5 233.5C145.833 233.167 146.167 232.833 146.5 232.5C148.766 236.587 150.099 236.254 150.5 231.5C150.072 227.38 148.572 223.713 146 220.5C138.088 224.633 130.255 224.466 122.5 220C121.29 218.961 120.29 217.794 119.5 216.5C128.416 223.778 137.75 224.278 147.5 218C149.245 216.308 149.578 214.475 148.5 212.5C138.781 215.306 130.281 213.306 123 206.5C122.118 200.048 119.451 199.048 115 203.5C114.506 205.134 114.34 206.801 114.5 208.5C113.698 207.048 113.198 205.382 113 203.5C111.989 204.337 110.822 204.67 109.5 204.5C109.737 205.791 109.404 206.791 108.5 207.5C107.448 205.744 105.781 205.077 103.5 205.5C102.144 212.723 99.144 219.223 94.5 225C95.964 232.745 93.298 238.745 86.5 243C84.559 243.743 82.726 243.576 81 242.5C79.64 252.185 74.14 256.019 64.5 254C59.764 252.08 55.764 249.247 52.5 245.5C57.048 247.107 61.381 249.274 65.5 252C71.482 253.039 75.982 250.873 79 245.5C79.744 242.129 79.244 238.963 77.5 236C79.032 235.3 80.032 234.134 80.5 232.5C79.143 230.814 77.81 229.148 76.5 227.5C79.79 228.789 82.123 231.123 83.5 234.5C83.062 235.506 82.396 235.506 81.5 234.5C80.526 236.743 80.192 239.076 80.5 241.5C83.545 241.658 86.379 240.991 89 239.5C91.343 235.814 92.843 231.814 93.5 227.5C89.387 220.22 83.721 214.386 76.5 210C72.149 207.579 67.483 206.412 62.5 206.5C63.209 205.596 64.209 205.263 65.5 205.5C66.941 201.286 68.941 197.286 71.5 193.5C69.248 190.176 67.748 186.509 67 182.5C65.167 183.667 63.333 184.833 61.5 186C64.547 192.514 62.214 197.014 54.5 199.5C52.726 199.113 51.059 198.447 49.5 197.5C46.512 201.162 42.846 202.162 38.5 200.5C36.393 201.637 34.227 202.637 32 203.5C29.54 202.402 27.04 201.402 24.5 200.5C18.755 203.241 13.088 203.074 7.5 200C4.054 196.658 3.721 193.158 6.5 189.5C6.337 191.857 6.503 194.19 7 196.5C12.115 201.032 17.782 201.699 24 198.5C28.569 200.996 33.069 200.996 37.5 198.5C42.099 200.319 45.932 199.319 49 195.5C52.121 196.536 55.287 196.703 58.5 196C61.796 193.199 62.129 190.199 59.5 187C55.47 186.674 51.47 186.674 47.5 187C52.401 185.263 57.401 183.93 62.5 183C67.05 180.117 70.55 176.284 73 171.5C72.498 174.719 70.998 177.552 68.5 180C69.066 180.995 69.733 181.828 70.5 182.5C70 186.369 71 190.036 73.5 193.5C71.794 197.75 69.461 201.583 66.5 205C78.099 207.608 87.266 213.774 94 223.5C97.506 217.488 100.339 211.155 102.5 204.5C110.439 203.633 117.439 200.633 123.5 195.5C125.867 198.347 128.867 200.18 132.5 201C131.167 201.667 129.833 201.667 128.5 201C121.457 196.04 119.957 197.54 124 205.5C130.726 212.076 138.559 213.909 147.5 211C155.952 207.69 159.118 201.523 157 192.5C152.244 184.209 145.41 178.376 136.5 175C135.551 171.604 133.718 168.771 131 166.5C129.974 169.239 128.474 171.572 126.5 173.5C127.2 170.937 128.2 168.437 129.5 166C126.805 160.043 122.139 157.876 115.5 159.5C117.698 158.835 120.031 158.168 122.5 157.5C120.013 151.981 116.013 150.314 110.5 152.5C114.268 149.775 118.268 147.275 122.5 145C125.206 142.629 127.539 139.963 129.5 137C131.381 137.096 133.047 136.929 134.5 136.5C136.437 137.706 138.104 137.373 139.5 135.5C142.863 135.333 143.863 133.833 142.5 131C143.029 129.441 143.696 127.941 144.5 126.5C142.739 124.747 141.406 122.747 140.5 120.5C140.676 117.775 142.01 116.108 144.5 115.5C143.185 116.667 142.519 118.167 142.5 120C144.02 122.027 145.353 124.194 146.5 126.5C145.861 129.475 145.361 132.475 145 135.5C135.386 139.586 126.219 144.419 117.5 150C121.167 153.824 124.833 157.491 128.5 161C143.017 162.051 155.35 157.384 165.5 147C164.833 146.667 164.167 146.333 163.5 146C170.617 147.025 177.617 146.358 184.5 144C189.383 141.736 191.883 137.902 192 132.5C192.333 133.5 192.667 134.5 193 135.5C197.447 132.612 199.114 128.612 198 123.5C197.722 124.416 197.222 125.082 196.5 125.5C198.249 118.597 198.749 111.597 198 104.5C196.569 102.636 195.403 100.636 194.5 98.5Z" fill="black"/>
<path fill-rule="evenodd" clip-rule="evenodd" d="M108.5 207.5C106.409 220.477 110.742 230.643 121.5 238C125.547 240.073 129.38 239.907 133 237.5C133.195 238.819 133.028 240.153 132.5 241.5C119.26 241.622 110.76 235.288 107 222.5C106.333 218.5 106.333 214.5 107 210.5C107.232 209.263 107.732 208.263 108.5 207.5Z" fill="black"/>
<path fill-rule="evenodd" clip-rule="evenodd" d="M114.5 208.5C114.701 212.13 116.368 214.797 119.5 216.5C120.29 217.794 121.29 218.961 122.5 220C130.255 224.466 138.088 224.633 146 220.5C148.572 223.713 150.072 227.38 150.5 231.5C150.099 236.254 148.766 236.587 146.5 232.5C146.167 232.833 145.833 233.167 145.5 233.5C146.738 236.166 146.738 238.832 145.5 241.5C141.172 244.057 136.838 244.057 132.5 241.5C133.028 240.153 133.195 238.819 133 237.5C129.38 239.907 125.547 240.073 121.5 238C110.742 230.643 106.409 220.477 108.5 207.5C109.404 206.791 109.737 205.791 109.5 204.5C110.822 204.67 111.989 204.337 113 203.5C113.198 205.382 113.698 207.048 114.5 208.5Z" fill="#DDB902"/>
<path fill-rule="evenodd" clip-rule="evenodd" d="M119.5 216.5C116.368 214.797 114.701 212.13 114.5 208.5C114.34 206.801 114.506 205.134 115 203.5C119.451 199.048 122.118 200.048 123 206.5C130.281 213.306 138.781 215.306 148.5 212.5C149.578 214.475 149.245 216.308 147.5 218C137.75 224.278 128.416 223.778 119.5 216.5Z" fill="#097DBF"/>
<path fill-rule="evenodd" clip-rule="evenodd" d="M95.5 180.5C93.4 183.09 90.566 184.424 87 184.5C85.124 184.475 83.624 183.809 82.5 182.5C87.031 182.85 91.364 182.183 95.5 180.5Z" fill="#181F1F"/>
<path fill-rule="evenodd" clip-rule="evenodd" d="M112.5 172.5C116.798 173.2 121.131 173.533 125.5 173.5C120.95 176.355 116.616 176.021 112.5 172.5Z" fill="#1D211D"/>
<path fill-rule="evenodd" clip-rule="evenodd" d="M189.5 130.5C183.985 130.69 179.652 133.024 176.5 137.5C176.912 136.218 176.246 135.218 174.5 134.5C177.562 133.308 180.562 131.808 183.5 130C185.712 129.211 187.712 129.378 189.5 130.5Z" fill="black"/>
<path fill-rule="evenodd" clip-rule="evenodd" d="M149 123C150.636 124.091 153.909 127.181 155 129C152.455 128.637 149.363 125.545 149 123Z" fill="#030303"/>
<path fill-rule="evenodd" clip-rule="evenodd" d="M45.5 243.5C48.187 243.336 50.854 243.503 53.5 244C52.944 244.383 52.611 244.883 52.5 245.5C52.167 245.5 51.833 245.5 51.5 245.5C49.5 244.833 47.5 244.167 45.5 243.5Z" fill="#635309"/>
<path fill-rule="evenodd" clip-rule="evenodd" d="M43.5 208.5C43.804 209.15 44.137 209.817 44.5 210.5C43.167 211.62 42.667 212.953 43 214.5C44.529 213.271 45.696 211.771 46.5 210C50.5 209.333 54.5 209.333 58.5 210C64.421 214.834 69.421 220.501 73.5 227C74.448 227.483 75.448 227.649 76.5 227.5C77.81 229.148 79.143 230.814 80.5 232.5C80.032 234.134 79.032 235.3 77.5 236C79.244 238.963 79.744 242.129 79 245.5C75.982 250.873 71.482 253.039 65.5 252C61.381 249.274 57.048 247.107 52.5 245.5C52.611 244.883 52.944 244.383 53.5 244C50.854 243.503 48.187 243.336 45.5 243.5C39.604 242.773 34.771 240.107 31 235.5C30.333 232.5 30.333 229.5 31 226.5C32.71 227.945 34.544 228.778 36.5 229C34.241 227.285 32.074 225.452 30 223.5C27.628 212.224 32.128 207.224 43.5 208.5Z" fill="#DAB703"/>
<path fill-rule="evenodd" clip-rule="evenodd" d="M56.5 236.5C54.891 236.094 53.557 236.094 52.5 236.5C53.09 237.799 54.09 238.632 55.5 239C54.5 239.333 53.5 239.667 52.5 240C53.571 240.852 54.571 241.685 55.5 242.5C54.041 242.567 52.708 242.234 51.5 241.5C51.15 239.374 51.15 237.041 51.5 234.5C53.698 234.12 55.365 234.787 56.5 236.5Z" fill="#50440F"/>
<path fill-rule="evenodd" clip-rule="evenodd" d="M57.5 229.5C63.323 231.317 67.657 234.984 70.5 240.5C70.565 240.938 70.399 241.272 70 241.5C66.597 236.595 62.43 232.595 57.5 229.5Z" fill="#221D0C"/>
<path fill-rule="evenodd" clip-rule="evenodd" d="M57.5 229.5C62.43 232.595 66.597 236.595 70 241.5C70.399 241.272 70.565 240.938 70.5 240.5C72.696 245.139 71.196 248.139 66 249.5C62.583 247.682 59.083 245.348 55.5 242.5C54.571 241.685 53.571 240.852 52.5 240C53.5 239.667 54.5 239.333 55.5 239C54.09 238.632 53.09 237.799 52.5 236.5C53.557 236.094 54.891 236.094 56.5 236.5C55.365 234.787 53.698 234.12 51.5 234.5C51.15 237.041 51.15 239.374 51.5 241.5C49.418 241.376 47.918 240.376 47 238.5C46.333 239.167 45.667 239.833 45 240.5C43.148 238.441 41.982 236.274 41.5 234C42.875 231.523 44.709 230.689 47 231.5C50.059 227.35 53.559 226.684 57.5 229.5Z" fill="#9A880C"/>
<path fill-rule="evenodd" clip-rule="evenodd" d="M56.5 236.5C57.787 237.528 58.954 237.195 60 235.5C62.157 236.385 62.99 238.052 62.5 240.5C59.392 240.625 57.392 239.292 56.5 236.5Z" fill="#42380D"/>
<path fill-rule="evenodd" clip-rule="evenodd" d="M59.5 236.5C61.085 237.002 61.585 238.002 61 239.5C59.961 238.756 59.461 237.756 59.5 236.5Z" fill="#DFBF09"/>
<path d="M179.895 79.2429L179.896 79.2429L179.912 79.2452L179.929 79.2468L179.929 79.2468L179.929 79.2468L179.93 79.2469L179.933 79.2472L179.945 79.2484L179.996 79.2535C180.042 79.2582 180.11 79.2654 180.199 79.2753C180.376 79.295 180.635 79.3254 180.957 79.3679C181.602 79.4528 182.499 79.5855 183.507 79.7763C185.542 80.1618 187.95 80.7709 189.651 81.6642C191.606 82.6907 193.537 83.9031 194.969 85.2617C196.411 86.6295 197.25 88.0505 197.25 89.5001C197.25 91.2037 197.038 93.4528 196.822 95.2968C196.714 96.2143 196.607 97.0236 196.526 97.6033C196.511 97.7103 196.497 97.8095 196.485 97.9C196.129 97.9028 195.635 97.9053 195.029 97.9046C193.722 97.9031 191.895 97.8871 189.821 97.829C185.664 97.7125 180.549 97.4277 176.626 96.7608C172.997 96.144 168.841 94.7884 165.571 93.5755C163.941 92.9708 162.54 92.405 161.547 91.9906C161.05 91.7835 160.656 91.6143 160.387 91.4972C160.361 91.4857 160.336 91.4747 160.312 91.4642C160.302 91.4232 160.292 91.379 160.282 91.3319C160.213 91.0247 160.122 90.595 160.035 90.1059C159.857 89.1116 159.703 87.932 159.749 87.0384L159.751 86.9936C159.797 86.0985 159.838 85.2886 159.961 84.5792C160.087 83.8558 160.283 83.3321 160.576 82.98C160.687 82.8465 161.028 82.585 161.652 82.2326C162.245 81.8979 163.013 81.5252 163.886 81.1511C165.634 80.4022 167.757 79.668 169.667 79.2313C171.56 78.7984 174.097 78.7922 176.21 78.906C177.257 78.9623 178.181 79.0468 178.843 79.1173C179.174 79.1525 179.438 79.1841 179.62 79.2068C179.71 79.2182 179.78 79.2273 179.827 79.2335L179.879 79.2406L179.892 79.2424L179.895 79.2428L179.895 79.2429L179.895 79.2429Z" fill="#D9D9D9" stroke="black" stroke-width="1.5"/>
<path d="M159.62 83.4458C159.62 83.4458 168.662 88.6143 177.701 90.1514C188.821 92.0424 197.916 91.0549 197.916 91.0549" stroke="#070707"/>
<path d="M163.374 85.1553C163.374 85.1553 162.324 87.5026 162 88.9998C161.669 90.5295 161.759 92.7774 161.759 92.7774" stroke="black" stroke-width="0.5"/>
<path d="M167.192 86.916C167.192 86.916 166.157 89.1939 165.842 90.6488C165.52 92.1353 165.623 94.323 165.623 94.323" stroke="black" stroke-width="0.5"/>
<path d="M171.098 88.3877C171.098 88.3877 170.073 90.6171 169.765 92.0426C169.45 93.4989 169.561 95.6445 169.561 95.6445" stroke="black" stroke-width="0.5"/>
<path d="M174.959 89.6499C174.959 89.6499 174.3 91.6155 174 93.0001C173.694 94.4148 173.466 96.6993 173.466 96.6993" stroke="#0A0A0A" stroke-width="0.5"/>
<path d="M179.457 90.428C179.457 90.428 179.116 92.56 178.809 93.9792C178.495 95.4291 177.926 97.6528 177.926 97.6528" stroke="black" stroke-width="0.5"/>
<path d="M184.32 90.9646C184.32 90.9646 184.108 93.083 183.886 94.4975C183.66 95.9426 183.225 98.1639 183.225 98.1639" stroke="black" stroke-width="0.5"/>
<path d="M188.734 91.467C188.734 91.467 188.645 93.5142 188.465 95.0078C188.294 96.4244 187.814 98.483 187.814 98.483" stroke="black" stroke-width="0.5"/>
<path d="M193.302 91.3034C193.302 91.3034 193.23 93.2637 193.063 94.6928C192.903 96.0483 192.442 98.0162 192.442 98.0162" stroke="#060606" stroke-width="0.5"/>
</svg>
