<svg width="135" height="130" viewBox="0 0 135 130" fill="none" xmlns="http://www.w3.org/2000/svg">
<g clip-path="url(#clip0_565_17954)">
<path d="M0 20C0 8.9543 8.95431 0 20 0H135V130H0V20Z" fill="white"/>
<rect x="-18.5" y="-17.5" width="524" height="498" rx="18.5" fill="#FDFFEF" stroke="black" stroke-width="3"/>
<path fill-rule="evenodd" clip-rule="evenodd" d="M222.268 111.235C224.691 115.799 225.407 120.637 224.417 125.747C219.988 132.174 214.018 136.285 206.51 138.083C195.978 138.928 185.473 138.686 174.993 137.358C169.916 134.355 164.665 133.872 159.235 135.906C158.28 135.906 157.325 135.906 156.37 135.906C156.606 131.045 156.367 126.207 155.654 121.394C154.165 122.473 153.449 123.924 153.505 125.747C149.562 144.774 146.22 144.774 143.477 125.747C142.521 133.004 141.567 140.26 140.612 147.517C138.05 146.38 136.618 144.446 136.314 141.712C136.049 139.25 134.854 137.316 132.733 135.906C133.041 140.712 133.041 145.549 132.733 150.419C125.908 140.571 116.834 134.281 105.514 131.553C104.558 125.264 104.558 118.975 105.514 112.686C107.253 110.438 109.402 108.745 111.96 107.606C109.297 105.346 107.148 102.685 105.514 99.6243C104.558 92.8516 104.558 86.079 105.514 79.3063C124.359 59.3667 120.778 56.2222 94.7695 69.873C92.8742 71.0571 91.9201 72.7503 91.9043 74.9525C89.8715 67.1425 92.2596 60.6117 99.0672 55.3601C89.065 55.14 81.9021 50.5442 77.5786 41.5729C77.8179 41.0892 78.0557 40.6054 78.2949 40.1216C81.7574 42.2964 85.5767 43.2638 89.7555 43.0242C93.1578 43.164 96.2608 42.4383 99.0672 40.8473C91.3026 33.2251 89.1538 24.2755 92.6206 13.9985C97.4727 23.6072 105.352 28.6867 116.258 29.237C128.302 33.9688 133.555 42.9183 132.016 56.0858C140.191 55.6086 148.307 56.0924 156.37 57.537C160.013 63.2269 163.834 68.7902 167.831 74.2268C185.486 69.3907 200.528 73.5026 212.956 86.5627C216.91 95.3298 219.298 104.521 220.119 114.137C220.518 112.808 221.234 111.84 222.268 111.235Z" fill="#0381C6"/>
<path opacity="0.89" fill-rule="evenodd" clip-rule="evenodd" d="M222.268 111.234C221.234 111.84 220.518 112.808 220.119 114.137C219.299 104.521 216.911 95.3295 212.957 86.5624C200.528 73.5023 185.486 69.3904 167.831 74.2265C163.834 68.7899 160.013 63.2267 156.37 57.5368C148.308 56.0922 140.191 55.6083 132.016 56.0855C133.555 42.918 128.302 33.9685 116.258 29.2367C105.352 28.6864 97.4729 23.6069 92.6207 13.9983C89.1539 24.2752 91.3028 33.2249 99.0673 40.847C96.2609 42.4381 93.158 43.1637 89.7556 43.0239C85.5768 43.2635 81.7576 42.2961 78.295 40.1214C78.0558 40.6051 77.818 41.0889 77.5788 41.5727C81.9022 50.5439 89.0651 55.1397 99.0673 55.3598C92.2597 60.6115 89.8716 67.1422 91.9045 74.9522C91.9603 76.7753 91.244 78.2266 89.7556 79.306C86.253 71.118 87.4463 63.6198 93.337 56.8111C80.8952 54.938 75.1649 47.9235 76.1462 35.7675C81.2948 40.0491 87.0251 41.0165 93.337 38.6701C87.664 29.2678 87.664 20.0762 93.337 11.0957C94.8742 15.7971 97.7393 19.4253 101.932 21.9803C112.71 22.9398 122.021 27.0518 129.868 34.3162C133.821 39.9816 135.016 46.0287 133.449 52.4573C141.726 52.5938 149.843 53.5614 157.803 55.3598C162.888 60.9946 167.425 67.0417 171.412 73.5009C192.597 66.0973 208.355 72.3863 218.687 92.3676C221.023 98.4454 222.217 104.734 222.268 111.234Z" fill="black"/>
<path fill-rule="evenodd" clip-rule="evenodd" d="M136.314 141.711C135.059 146.177 134.582 150.531 134.882 154.773C128.934 149.474 123.203 143.911 117.691 138.083C108.598 136.489 100.003 137.941 91.9046 142.437C88.7272 152.98 83.4739 162.414 76.1463 170.737C74.6393 170.953 73.2067 170.712 71.8486 170.011C80.0429 162.383 85.534 152.95 88.3232 141.711C92.7871 138.363 97.8011 136.428 103.365 135.906C102.738 130.722 101.784 125.642 100.5 120.667C101.387 115.486 103.775 111.133 107.663 107.606C100.583 96.6293 100.105 85.2609 106.23 73.5007C114.594 66.4079 113.638 64.7147 103.365 68.4212C99.3124 70.3888 95.4918 72.5657 91.9046 74.952C91.9204 72.7498 92.8745 71.0566 94.7698 69.8725C120.778 56.2218 124.359 59.3663 105.514 79.3059C104.559 86.0786 104.559 92.8511 105.514 99.6238C107.149 102.684 109.297 105.345 111.961 107.606C109.402 108.744 107.253 110.438 105.514 112.685C104.559 118.974 104.559 125.263 105.514 131.552C116.834 134.28 125.908 140.57 132.733 150.419C133.041 145.548 133.041 140.711 132.733 135.906C134.855 137.315 136.049 139.25 136.314 141.711Z" fill="black"/>
<path fill-rule="evenodd" clip-rule="evenodd" d="M283.869 112.686C281.574 114.97 278.709 115.937 275.273 115.588C273.172 114.439 271.262 114.439 269.543 115.588C273.239 120.297 278.014 123.199 283.869 124.296C280.982 126.362 277.64 127.33 273.841 127.199C272.586 127.009 271.63 127.492 270.976 128.65C274.361 132.539 278.658 134.474 283.869 134.455C285.642 134.905 285.642 135.63 283.869 136.632C282.085 137.78 280.175 138.505 278.138 138.809C274.864 140.028 274.386 142.205 276.706 145.34C272.649 155.985 265.007 161.064 253.785 160.578C254.901 167.273 255.617 174.046 255.934 180.896C257.823 183.78 260.449 185.473 263.813 185.975C261.662 187.792 259.274 189.244 256.65 190.329C258.67 192.321 261.058 193.529 263.813 193.958C265.747 195.627 265.509 196.595 263.096 196.86C253.553 194.36 252.836 195.811 260.948 201.214C258.866 201.837 256.479 202.079 253.785 201.94C250.975 206.24 247.633 210.109 243.757 213.55C237.694 216.852 231.964 220.48 226.566 224.435C226.076 225.651 225.122 226.135 223.701 225.886C221.019 230.282 217.198 233.425 212.24 235.319C216.118 235.779 219.46 234.57 222.268 231.691C223.701 234.593 225.133 237.496 226.566 240.399C218.486 239.426 211.323 241.362 205.077 246.204C203.65 246.329 202.457 245.844 201.496 244.752C200.92 242.761 200.204 240.827 199.347 238.947C214.541 237.271 214.541 236.062 199.347 235.319C197.247 234.398 195.336 233.187 193.617 231.691C194.207 233.551 193.253 235.003 190.752 236.045C185.677 235.591 180.903 236.075 176.426 237.496C173.594 234.247 170.012 232.311 165.682 231.691C162.044 233.29 158.463 233.29 154.937 231.691C153.055 232.871 151.383 234.322 149.923 236.045C149.667 228.119 147.518 227.151 143.477 233.142C142.143 230.028 142.622 226.884 144.909 223.709C140.361 223.786 136.54 222.577 133.449 220.081C136.769 219.619 138.681 217.683 139.179 214.276C135.261 208.353 131.917 202.063 129.151 195.409C112.868 206.768 99.4983 203.865 89.0391 186.701C91.4845 183.592 92.6793 180.207 92.6206 176.542C91.6063 177.821 90.4115 178.787 89.0391 179.445C85.7958 180.488 82.4536 180.971 79.0111 180.896C82.8289 176.782 86.4104 172.428 89.7554 167.834C90.7109 166.383 90.7109 164.932 89.7554 163.481C88.3959 165.792 86.7255 167.727 84.7414 169.286C81.9694 170.229 79.1043 170.712 76.146 170.737C83.4736 162.414 88.7268 152.981 91.9043 142.437C100.003 137.941 108.598 136.49 117.691 138.083C123.203 143.911 128.933 149.474 134.881 154.773C134.582 150.531 135.059 146.177 136.314 141.711C136.618 144.446 138.05 146.38 140.612 147.516C141.567 140.26 142.521 133.004 143.477 125.747C146.22 144.774 149.562 144.774 153.505 125.747C154.46 129.134 155.414 132.52 156.37 135.906C157.325 135.906 158.28 135.906 159.235 135.906C164.533 135.982 169.786 136.466 174.993 137.357C190.744 143.964 206.026 142.753 220.836 133.729C227.266 128.044 228.699 121.514 225.133 114.137C227.998 107.848 230.864 101.559 233.729 95.2703C234.984 94.1807 236.416 93.455 238.026 93.0934C244.712 92.1258 251.397 92.1258 258.082 93.0934C262.356 97.3231 266.653 101.677 270.976 106.155C275.121 108.756 279.419 110.933 283.869 112.686Z" fill="#DDB901"/>
</g>
<path d="M20 0.5H134.5V129.5H0.5V20C0.5 9.23045 9.23045 0.5 20 0.5Z" stroke="black"/>
<defs>
<clipPath id="clip0_565_17954">
<path d="M0 20C0 8.9543 8.95431 0 20 0H135V130H0V20Z" fill="white"/>
</clipPath>
</defs>
</svg>
