<svg width="405" height="390" viewBox="0 0 405 390" fill="none" xmlns="http://www.w3.org/2000/svg">
<rect x="1.5" y="1.5" width="402" height="387" rx="18.5" fill="#FDFFEF" stroke="black" stroke-width="3"/>
<path fill-rule="evenodd" clip-rule="evenodd" d="M222.69 111.235C225.117 115.799 225.835 120.637 224.843 125.747C220.405 132.174 214.424 136.285 206.902 138.083C196.35 138.928 185.825 138.686 175.326 137.358C170.239 134.355 164.977 133.872 159.538 135.906C158.58 135.906 157.624 135.906 156.667 135.906C156.904 131.045 156.664 126.207 155.949 121.394C154.458 122.473 153.74 123.924 153.796 125.747C149.846 144.774 146.498 144.774 143.749 125.747C142.792 133.004 141.836 140.26 140.879 147.517C138.312 146.38 136.877 144.446 136.573 141.712C136.307 139.25 135.11 137.316 132.985 135.906C133.293 140.712 133.293 145.549 132.985 150.419C126.147 140.571 117.056 134.281 105.714 131.553C104.757 125.264 104.757 118.975 105.714 112.686C107.457 110.438 109.61 108.745 112.173 107.606C109.505 105.346 107.352 102.685 105.714 99.6243C104.757 92.8516 104.757 86.079 105.714 79.3063C124.595 59.3667 121.007 56.2222 94.9495 69.873C93.0507 71.0571 92.0947 72.7503 92.079 74.9525C90.0423 67.1425 92.4349 60.6117 99.2554 55.3601C89.2342 55.14 82.0578 50.5442 77.7261 41.5729C77.9658 41.0892 78.204 40.6054 78.4437 40.1216C81.9128 42.2964 85.7393 43.2638 89.926 43.0242C93.3348 43.164 96.4437 42.4383 99.2554 40.8473C91.4761 33.2251 89.3232 24.2755 92.7966 13.9985C97.6579 23.6072 105.552 28.6867 116.479 29.237C128.545 33.9688 133.809 42.9183 132.267 56.0858C140.457 55.6086 148.589 56.0924 156.667 57.537C160.317 63.2269 164.145 68.7902 168.149 74.2268C185.838 69.3907 200.908 73.5026 213.361 86.5627C217.322 95.3298 219.715 104.521 220.537 114.137C220.936 112.808 221.654 111.84 222.69 111.235Z" fill="#0381C6"/>
<path opacity="0.89" fill-rule="evenodd" clip-rule="evenodd" d="M222.69 111.234C221.654 111.84 220.936 112.808 220.537 114.137C219.715 104.521 217.322 95.3295 213.36 86.5624C200.908 73.5023 185.837 69.3904 168.149 74.2265C164.144 68.7899 160.317 63.2267 156.667 57.5368C148.589 56.0922 140.456 55.6083 132.267 56.0855C133.808 42.918 128.545 33.9685 116.479 29.2367C105.552 28.6864 97.6576 23.6069 92.7962 13.9983C89.3229 24.2752 91.4758 33.2249 99.255 40.847C96.4433 42.4381 93.3345 43.1637 89.9257 43.0239C85.7389 43.2635 81.9125 42.2961 78.4434 40.1214C78.2037 40.6051 77.9654 41.0889 77.7257 41.5727C82.0574 50.5439 89.2339 55.1397 99.255 55.3598C92.4346 60.6115 90.0419 67.1422 92.0786 74.9522C92.1346 76.7753 91.4169 78.2266 89.9257 79.306C86.4164 71.118 87.612 63.6198 93.5139 56.8111C81.0484 54.938 75.3073 47.9235 76.2904 35.7675C81.4489 40.0491 87.19 41.0165 93.5139 38.6701C87.8302 29.2678 87.8302 20.0762 93.5139 11.0957C95.054 15.7971 97.9245 19.4253 102.126 21.9803C112.923 22.9398 122.253 27.0518 130.114 34.3162C134.075 39.9816 135.272 46.0287 133.702 52.4573C141.995 52.5938 150.127 53.5614 158.102 55.3598C163.197 60.9946 167.743 67.0417 171.737 73.5009C192.962 66.0973 208.75 72.3863 219.102 92.3676C221.443 98.4454 222.638 104.734 222.69 111.234Z" fill="black"/>
<path fill-rule="evenodd" clip-rule="evenodd" d="M284.408 112.685C279.95 110.933 275.644 108.756 271.49 106.155C267.16 101.677 262.854 97.3229 258.572 93.0932C251.874 92.1256 245.177 92.1256 238.478 93.0932C236.865 93.4548 235.43 94.1805 234.173 95.2701C231.302 101.559 228.431 107.848 225.561 114.137C229.133 121.514 227.698 128.044 221.255 133.729C206.417 142.753 191.107 143.964 175.326 137.357C185.825 138.685 196.35 138.928 206.902 138.083C214.424 136.285 220.405 132.173 224.843 125.747C225.835 120.637 225.117 115.799 222.69 111.234C225.742 104.968 229.09 98.679 232.737 92.3675C243.455 86.4537 253.981 86.6956 264.314 93.0932C270.093 99.8998 276.792 105.705 284.408 110.509C286.185 111.51 286.185 112.236 284.408 112.685Z" fill="black"/>
<path opacity="0.835" fill-rule="evenodd" clip-rule="evenodd" d="M275.796 115.588C278.694 118.499 282.042 120.918 285.843 122.845C285.665 123.725 285.187 124.209 284.408 124.296C278.542 123.199 273.758 120.297 270.055 115.588C271.777 114.439 273.69 114.439 275.796 115.588Z" fill="black"/>
<path fill-rule="evenodd" clip-rule="evenodd" d="M136.573 141.711C135.316 146.177 134.838 150.531 135.138 154.773C129.178 149.474 123.437 143.911 117.914 138.083C108.804 136.489 100.193 137.941 92.0789 142.437C88.8954 152.98 83.6322 162.414 76.2907 170.737C74.7808 170.953 73.3455 170.712 71.9849 170.011C80.1947 162.383 85.6962 152.95 88.4907 141.711C92.963 138.363 97.9866 136.428 103.561 135.906C102.933 130.722 101.977 125.642 100.691 120.667C101.579 115.486 103.972 111.133 107.867 107.606C100.774 96.6293 100.294 85.2609 106.432 73.5007C114.811 66.4079 113.854 64.7147 103.561 68.4212C99.5008 70.3888 95.6729 72.5657 92.0789 74.952C92.0947 72.7498 93.0506 71.0566 94.9495 69.8725C121.007 56.2218 124.595 59.3663 105.714 79.3059C104.757 86.0786 104.757 92.8511 105.714 99.6238C107.352 102.684 109.505 105.345 112.173 107.606C109.61 108.744 107.457 110.438 105.714 112.685C104.757 118.974 104.757 125.263 105.714 131.552C117.056 134.28 126.147 140.57 132.985 150.419C133.293 145.548 133.293 140.711 132.985 135.906C135.11 137.315 136.307 139.25 136.573 141.711Z" fill="black"/>
<path opacity="0.882" fill-rule="evenodd" clip-rule="evenodd" d="M274.36 127.198C277.961 129.261 281.311 131.68 284.407 134.455C279.187 134.474 274.881 132.539 271.49 128.65C272.146 127.492 273.103 127.008 274.36 127.198Z" fill="black"/>
<path fill-rule="evenodd" clip-rule="evenodd" d="M156.667 135.906C155.709 132.52 154.753 129.134 153.796 125.747C153.74 123.924 154.458 122.473 155.949 121.394C156.664 126.207 156.903 131.045 156.667 135.906Z" fill="#131412"/>
<path fill-rule="evenodd" clip-rule="evenodd" d="M278.666 138.809C280.137 155.212 272.961 162.952 257.137 162.029C258.248 168.239 258.965 174.529 259.29 180.896C262.741 182.019 266.33 182.745 270.054 183.073C268.058 186.541 265.187 188.961 261.443 190.329C262.707 191.357 263.663 192.567 264.313 193.957C261.553 193.529 259.16 192.32 257.137 190.329C259.766 189.244 262.159 187.792 264.313 185.975C260.943 185.473 258.312 183.78 256.419 180.896C256.102 174.046 255.384 167.273 254.266 160.578C265.51 161.064 273.166 155.985 277.231 145.339C274.907 142.205 275.385 140.028 278.666 138.809Z" fill="black"/>
<path fill-rule="evenodd" clip-rule="evenodd" d="M311.678 117.04C308.905 120.924 296.705 129.632 298.042 134.455C298.52 133.487 299 132.52 299.478 131.552C300.066 133.585 300.784 135.52 301.631 137.358C289.521 140.909 283.302 149.132 282.972 162.029C281.562 167.054 281.084 172.376 281.537 177.993C280.579 175.091 279.623 172.188 278.666 169.286C279.249 160.639 281.402 152.415 285.125 144.614C288.331 141.421 291.919 138.761 295.889 136.632C294.296 132.659 294.057 128.547 295.172 124.296C298.042 119.942 309.5 117.055 311.678 117.04Z" fill="black"/>
<path fill-rule="evenodd" clip-rule="evenodd" d="M284.407 112.686C282.108 114.97 279.237 115.937 275.796 115.588C273.69 114.439 271.777 114.439 270.054 115.588C273.758 120.297 278.541 123.199 284.407 124.296C281.515 126.362 278.167 127.33 274.36 127.199C273.103 127.009 272.146 127.492 271.49 128.65C274.881 132.539 279.187 134.474 284.407 134.455C286.184 134.905 286.184 135.63 284.407 136.632C282.62 137.78 280.707 138.505 278.666 138.809C275.385 140.028 274.907 142.205 277.231 145.34C273.166 155.985 265.51 161.064 254.266 160.578C255.384 167.273 256.102 174.046 256.419 180.896C258.312 183.78 260.943 185.473 264.313 185.975C262.159 187.792 259.766 189.244 257.137 190.329C259.161 192.321 261.553 193.529 264.313 193.958C266.251 195.627 266.013 196.595 263.596 196.86C254.034 194.36 253.316 195.811 261.443 201.214C259.357 201.837 256.966 202.079 254.266 201.94C251.452 206.24 248.103 210.109 244.219 213.55C238.145 216.852 232.404 220.48 226.996 224.435C226.505 225.651 225.549 226.135 224.125 225.886C221.438 230.282 217.61 233.425 212.643 235.319C216.528 235.779 219.877 234.57 222.69 231.691C224.125 234.593 225.561 237.496 226.996 240.399C218.901 239.426 211.724 241.362 205.466 246.204C204.037 246.329 202.841 245.844 201.878 244.752C201.301 242.761 200.584 240.827 199.725 238.947C214.948 237.271 214.948 236.062 199.725 235.319C197.621 234.398 195.707 233.187 193.984 231.691C194.576 233.551 193.62 235.003 191.114 236.045C186.03 235.591 181.246 236.075 176.761 237.496C173.923 234.247 170.335 232.311 165.996 231.691C162.352 233.29 158.764 233.29 155.231 231.691C153.345 232.871 151.67 234.322 150.208 236.045C149.951 228.119 147.798 227.151 143.749 233.142C142.413 230.028 142.892 226.884 145.184 223.709C140.627 223.786 136.799 222.577 133.702 220.081C137.029 219.619 138.944 217.683 139.443 214.276C135.518 208.353 132.168 202.063 129.396 195.409C113.083 206.768 99.6872 203.865 89.2081 186.701C91.6582 183.592 92.8552 180.207 92.7963 176.542C91.7802 177.821 90.5831 178.787 89.2081 179.445C85.9586 180.488 82.6101 180.971 79.1611 180.896C82.9861 176.782 86.5744 172.428 89.9258 167.834C90.8831 166.383 90.8831 164.932 89.9258 163.481C88.5637 165.792 86.8901 167.727 84.9023 169.286C82.125 170.229 79.2544 170.712 76.2905 170.737C83.632 162.414 88.8952 152.981 92.0787 142.437C100.192 137.941 108.804 136.49 117.914 138.083C123.437 143.911 129.178 149.474 135.137 154.773C134.837 150.531 135.315 146.177 136.573 141.711C136.877 144.446 138.312 146.38 140.879 147.516C141.836 140.26 142.792 133.004 143.749 125.747C146.498 144.774 149.846 144.774 153.796 125.747C154.753 129.134 155.709 132.52 156.667 135.906C157.624 135.906 158.58 135.906 159.537 135.906C164.845 135.982 170.108 136.466 175.325 137.357C191.106 143.964 206.417 142.753 221.255 133.729C227.698 128.044 229.133 121.514 225.561 114.137C228.431 107.848 231.302 101.559 234.172 95.2703C235.43 94.1807 236.865 93.455 238.478 93.0934C245.177 92.1258 251.874 92.1258 258.572 93.0934C262.854 97.3231 267.159 101.677 271.49 106.155C275.643 108.756 279.949 110.933 284.407 112.686Z" fill="#DDB901"/>
<path fill-rule="evenodd" clip-rule="evenodd" d="M119.349 169.286C122.867 172.319 126.216 175.705 129.396 179.445C126.481 182.208 123.61 182.45 120.784 180.17C122.22 179.687 123.655 179.202 125.09 178.719C123.415 177.025 121.742 175.333 120.067 173.639C118.903 175.758 117.706 176.242 116.479 175.091C117.455 173.117 118.412 171.182 119.349 169.286Z" fill="black"/>
<path fill-rule="evenodd" clip-rule="evenodd" d="M155.231 156.225C162.264 155.424 167.049 158.326 169.584 164.932C158.854 162.867 152.395 167.704 150.208 179.445C146.077 170.102 147.752 162.361 155.231 156.225Z" fill="#151107"/>
<path fill-rule="evenodd" clip-rule="evenodd" d="M212.643 141.711C222.287 140.788 228.506 145.142 231.302 154.773C230.824 155.256 230.344 155.741 229.866 156.224C222.29 148.653 214.875 148.653 207.619 156.224C207.526 150.815 209.2 145.978 212.643 141.711Z" fill="#110E07"/>
<path fill-rule="evenodd" clip-rule="evenodd" d="M248.525 135.906C250.146 139.05 249.428 141.952 246.372 144.614C246.321 141.607 247.038 138.704 248.525 135.906Z" fill="#221B0D"/>
<path fill-rule="evenodd" clip-rule="evenodd" d="M159.537 135.906C164.977 133.872 170.239 134.355 175.325 137.358C170.108 136.467 164.845 135.982 159.537 135.906Z" fill="#12222D"/>
<path fill-rule="evenodd" clip-rule="evenodd" d="M249.96 125.747C253.018 128.108 255.888 130.769 258.572 133.729C255.35 133.446 252.719 131.753 250.678 128.65C248.426 133.834 245.078 138.187 240.631 141.711C239.674 140.743 239.674 139.777 240.631 138.809C244.458 134.925 247.568 130.571 249.96 125.747Z" fill="black"/>
<path fill-rule="evenodd" clip-rule="evenodd" d="M301.631 137.357C308.09 138.809 309.412 139.578 315.984 139.534C317.079 140.649 322.102 141.375 323.878 141.711C332.302 142.086 339.666 144.614 347.56 146.065C348.856 149.165 350.53 152.068 352.584 154.773C353.659 165.073 352.941 175.232 350.431 185.25C348.374 187.184 346.459 189.361 344.69 191.781C343.329 192.482 341.894 192.722 340.384 192.506C337.817 190.878 334.947 190.635 331.772 191.781C327.555 194.404 323.249 196.581 318.854 198.311C312.704 197.284 306.485 196.558 300.196 196.134C296.264 194.645 292.916 192.468 290.149 189.604C288.713 187.184 286.8 185.25 284.408 183.798C283.127 176.632 282.648 169.376 282.972 162.029C283.302 149.132 289.521 140.909 301.631 137.357Z" fill="#CC0821"/>
<path d="M340.869 160.105L335.937 184.231C335.794 184.932 335.185 185.425 334.479 185.411C330.59 185.336 320.623 185.034 313.847 183.868C307.17 182.718 297.819 179.735 294.087 178.498C293.391 178.267 292.971 177.559 293.098 176.829L297.555 151.337C297.712 150.436 298.632 149.883 299.507 150.165C302.317 151.071 307.414 152.669 312.35 153.99C314.342 154.523 316.312 155.012 318.097 155.391C325.013 156.863 335.073 157.88 339.512 158.284C340.416 158.366 341.05 159.218 340.869 160.105Z" fill="white" stroke="#2B2424"/>
<path d="M300.177 160.065C300.008 160.099 299.871 160.078 299.766 160.004C299.66 159.93 299.589 159.846 299.552 159.752C299.498 159.633 299.497 159.519 299.55 159.41C299.603 159.3 299.711 159.217 299.873 159.161C300.139 159.07 300.464 159.018 300.846 159.003C301.231 158.978 301.629 159.026 302.04 159.147C302.452 159.268 302.813 159.456 303.124 159.71C303.447 159.955 303.703 160.242 303.892 160.571C304.091 160.902 304.219 161.262 304.277 161.653C304.347 162.035 304.34 162.425 304.256 162.821C304.157 163.237 303.995 163.64 303.771 164.032C303.557 164.426 303.29 164.783 302.97 165.102C302.661 165.424 302.305 165.704 301.903 165.943C301.513 166.173 301.098 166.334 300.658 166.424C300.361 166.444 300.145 166.414 300.008 166.334C299.871 166.254 299.783 166.172 299.744 166.089C299.733 166.032 299.735 165.962 299.75 165.878C299.778 165.786 299.853 165.702 299.976 165.628C300.039 164.587 300.142 163.592 300.285 162.642C300.441 161.684 300.592 160.811 300.738 160.025C300.554 160.022 300.367 160.036 300.177 160.065ZM301.929 160.184C301.868 160.162 301.801 160.144 301.728 160.13C301.667 160.108 301.605 160.09 301.542 160.079C301.589 160.174 301.622 160.289 301.641 160.423C301.661 160.546 301.661 160.665 301.64 160.781C301.521 161.421 301.399 162.108 301.273 162.844C301.158 163.583 301.064 164.384 300.99 165.249C301.513 165.001 301.984 164.656 302.403 164.214C302.833 163.763 303.112 163.257 303.238 162.694C303.345 162.172 303.3 161.686 303.101 161.236C302.904 160.775 302.514 160.425 301.929 160.184ZM311.099 162.452C311.106 162.649 311.106 162.882 311.099 163.152C311.095 163.412 311.071 163.684 311.029 163.969C311 164.246 310.952 164.53 310.887 164.822C310.822 165.113 310.739 165.391 310.636 165.653C310.514 165.956 310.335 166.221 310.098 166.447C309.86 166.674 309.586 166.866 309.275 167.025C308.974 167.185 308.648 167.303 308.298 167.378C307.96 167.444 307.623 167.478 307.286 167.48C306.962 167.473 306.646 167.424 306.337 167.333C306.041 167.234 305.785 167.093 305.569 166.911C305.326 166.703 305.143 166.457 305.022 166.173C304.901 165.89 304.885 165.567 304.974 165.204C305.061 164.851 305.153 164.532 305.249 164.246C305.348 163.95 305.454 163.671 305.567 163.411C305.691 163.152 305.82 162.894 305.955 162.637C306.091 162.37 306.235 162.093 306.385 161.807C306.463 161.68 306.572 161.619 306.712 161.624C306.766 161.624 306.829 161.635 306.901 161.66C306.932 161.666 306.97 161.695 307.015 161.746C307.072 161.79 307.121 161.848 307.162 161.921C307.202 161.993 307.231 162.075 307.247 162.165C307.273 162.256 307.261 162.352 307.21 162.451C307.053 162.769 306.896 163.092 306.737 163.42C306.579 163.748 306.433 164.063 306.302 164.363C306.181 164.666 306.086 164.941 306.018 165.189C305.963 165.428 305.954 165.622 305.992 165.77C306.091 165.995 306.251 166.161 306.469 166.267C306.701 166.365 306.951 166.418 307.221 166.425C307.491 166.433 307.755 166.412 308.014 166.363C308.285 166.306 308.52 166.236 308.72 166.155C309.038 166.019 309.286 165.822 309.464 165.563C309.653 165.305 309.794 165.012 309.888 164.682C309.982 164.352 310.042 164 310.068 163.625C310.104 163.252 310.124 162.881 310.128 162.513C310.124 162.415 310.152 162.295 310.21 162.154C310.269 162.013 310.374 161.914 310.526 161.856C310.688 161.799 310.818 161.835 310.913 161.961C311.02 162.09 311.082 162.253 311.099 162.452ZM318.692 163.332C318.454 164.209 318.195 165.105 317.918 166.018C317.652 166.923 317.36 167.769 317.04 168.555C316.961 168.747 316.877 168.877 316.788 168.947C316.7 169.017 316.584 169.055 316.442 169.061C316.323 169.06 316.167 168.993 315.975 168.859C315.793 168.727 315.651 168.559 315.548 168.355C315.414 168.08 315.269 167.781 315.112 167.459C314.967 167.128 314.801 166.792 314.615 166.453C314.44 166.106 314.249 165.76 314.042 165.417C313.845 165.076 313.628 164.753 313.392 164.448C313.232 165.134 313.078 165.816 312.931 166.494C312.785 167.161 312.66 167.837 312.555 168.523C312.537 168.617 312.444 168.649 312.277 168.617C312.078 168.579 311.934 168.449 311.845 168.226C311.758 167.993 311.723 167.769 311.741 167.555C311.749 167.34 311.788 167.038 311.86 166.65C311.934 166.251 312.016 165.838 312.107 165.41C312.207 164.984 312.305 164.574 312.4 164.179C312.495 163.785 312.574 163.474 312.638 163.247C312.705 163 312.797 162.827 312.913 162.729C313.039 162.634 313.148 162.6 313.241 162.628C313.447 162.689 313.571 162.778 313.615 162.894C313.67 163.003 313.69 163.131 313.673 163.28C314 163.624 314.292 163.983 314.548 164.357C314.814 164.733 315.049 165.108 315.25 165.482C315.463 165.859 315.649 166.23 315.808 166.597C315.981 166.955 316.142 167.284 316.293 167.584C316.535 166.978 316.765 166.295 316.982 165.532C317.21 164.772 317.445 163.975 317.686 163.142C317.695 163.035 317.776 162.947 317.93 162.878C318.086 162.799 318.22 162.776 318.334 162.808C318.623 162.884 318.743 163.059 318.692 163.332ZM319.924 163.792C319.755 163.825 319.618 163.805 319.512 163.731C319.407 163.656 319.336 163.572 319.299 163.479C319.245 163.36 319.244 163.246 319.297 163.136C319.35 163.027 319.458 162.944 319.62 162.888C319.886 162.797 320.211 162.744 320.593 162.73C320.978 162.705 321.375 162.753 321.787 162.874C322.199 162.995 322.56 163.182 322.871 163.436C323.194 163.682 323.45 163.969 323.639 164.298C323.838 164.628 323.966 164.989 324.024 165.38C324.094 165.762 324.087 166.151 324.002 166.548C323.904 166.964 323.742 167.367 323.517 167.759C323.303 168.153 323.037 168.509 322.717 168.829C322.408 169.15 322.052 169.431 321.65 169.67C321.26 169.9 320.845 170.06 320.405 170.151C320.108 170.171 319.891 170.141 319.754 170.061C319.617 169.981 319.53 169.899 319.491 169.816C319.479 169.759 319.482 169.689 319.497 169.605C319.525 169.513 319.6 169.429 319.723 169.355C319.786 168.314 319.889 167.318 320.032 166.369C320.188 165.41 320.339 164.538 320.485 163.751C320.301 163.749 320.114 163.763 319.924 163.792ZM321.676 163.911C321.615 163.889 321.548 163.871 321.475 163.857C321.414 163.834 321.352 163.817 321.289 163.805C321.336 163.901 321.369 164.016 321.388 164.15C321.408 164.273 321.408 164.392 321.386 164.508C321.268 165.147 321.146 165.835 321.02 166.571C320.905 167.309 320.81 168.111 320.737 168.976C321.26 168.728 321.731 168.382 322.149 167.94C322.58 167.49 322.858 166.983 322.984 166.421C323.092 165.899 323.047 165.412 322.848 164.963C322.651 164.502 322.261 164.152 321.676 163.911ZM329.721 168.034C329.743 168.147 329.682 168.244 329.537 168.325C329.393 168.396 329.182 168.421 328.904 168.401C328.421 168.375 327.926 168.352 327.419 168.333C326.915 168.303 326.399 168.276 325.872 168.252C325.752 168.783 325.653 169.318 325.575 169.857C325.816 169.902 326.108 169.936 326.451 169.957C326.807 169.97 327.17 169.973 327.54 169.967C327.91 169.961 328.264 169.952 328.602 169.94C328.953 169.919 329.249 169.904 329.489 169.895C329.611 169.886 329.735 169.888 329.863 169.901C329.992 169.904 330.102 169.924 330.193 169.963C330.296 169.993 330.373 170.046 330.424 170.121C330.475 170.195 330.49 170.291 330.469 170.406C330.463 170.437 330.418 170.478 330.333 170.527C330.247 170.576 330.14 170.626 330.012 170.678C329.895 170.721 329.768 170.762 329.631 170.801C329.506 170.832 329.393 170.854 329.293 170.868C328.604 170.955 327.931 171.018 327.272 171.056C326.616 171.084 325.988 171.047 325.389 170.945C325.041 170.89 324.796 170.752 324.652 170.529C324.511 170.296 324.469 169.995 324.527 169.626C324.601 169.109 324.697 168.589 324.816 168.069C324.657 167.931 324.595 167.767 324.63 167.578C324.688 167.383 324.808 167.264 324.989 167.223C325.066 166.922 325.138 166.621 325.205 166.319C325.274 166.007 325.347 165.7 325.425 165.4C325.313 165.357 325.219 165.28 325.142 165.168C325.076 165.057 325.053 164.945 325.075 164.829C325.092 164.735 325.129 164.655 325.184 164.589C325.242 164.513 325.332 164.465 325.455 164.445C325.652 164.439 325.891 164.435 326.173 164.434C326.456 164.433 326.742 164.438 327.033 164.45C327.334 164.463 327.619 164.479 327.887 164.497C328.165 164.517 328.4 164.54 328.59 164.565C328.814 164.585 329.02 164.646 329.207 164.746C329.405 164.849 329.577 165.006 329.722 165.218C329.737 165.373 329.685 165.477 329.567 165.53C329.459 165.586 329.324 165.609 329.163 165.601C329.002 165.592 328.808 165.583 328.582 165.573C328.358 165.552 328.123 165.535 327.876 165.521C327.639 165.509 327.398 165.496 327.151 165.482C326.916 165.459 326.691 165.444 326.476 165.436C326.472 165.457 326.467 165.483 326.461 165.514C326.468 165.537 326.469 165.559 326.465 165.58C326.394 165.849 326.327 166.118 326.266 166.389C326.205 166.66 326.144 166.931 326.083 167.201C326.537 167.211 327 167.233 327.471 167.268C327.943 167.292 328.318 167.319 328.595 167.35C328.819 167.37 329.029 167.437 329.225 167.55C329.421 167.663 329.586 167.824 329.721 168.034ZM332.002 172.242C332.043 171.848 332.098 171.403 332.169 170.906C332.25 170.411 332.338 169.907 332.433 169.393C332.53 168.868 332.626 168.355 332.719 167.851C332.823 167.35 332.923 166.897 333.02 166.492C333.039 166.387 333.101 166.317 333.205 166.282C333.322 166.239 333.41 166.229 333.471 166.251C333.656 166.308 333.769 166.4 333.811 166.527C333.865 166.646 333.884 166.806 333.868 167.01C333.795 167.343 333.722 167.677 333.65 168.011C333.587 168.346 333.53 168.683 333.479 169.02C333.966 169.025 334.391 168.927 334.754 168.724C335.128 168.523 335.414 168.267 335.612 167.958C335.688 167.842 335.753 167.697 335.807 167.522C335.871 167.35 335.91 167.173 335.922 166.99C335.936 166.798 335.916 166.615 335.861 166.442C335.819 166.26 335.728 166.107 335.588 165.983C335.383 165.803 335.145 165.682 334.874 165.62C334.603 165.558 334.313 165.547 334.002 165.586C333.703 165.616 333.395 165.699 333.077 165.835C332.769 165.972 332.47 166.149 332.181 166.366C332.183 166.529 332.136 166.667 332.039 166.779C331.944 166.88 331.824 166.944 331.678 166.971C331.59 166.976 331.498 166.915 331.403 166.789C331.309 166.652 331.272 166.525 331.294 166.41C331.372 165.99 331.554 165.65 331.841 165.39C332.14 165.121 332.488 164.915 332.883 164.772C333.278 164.63 333.69 164.545 334.118 164.517C334.547 164.489 334.934 164.508 335.28 164.574C335.793 164.67 336.195 164.904 336.484 165.273C336.776 165.632 336.943 166.049 336.985 166.523C337.059 167.352 336.87 168.049 336.418 168.614C335.977 169.182 335.341 169.627 334.511 169.948C334.994 170.386 335.443 170.802 335.858 171.195C336.284 171.59 336.705 172.012 337.121 172.459C337.172 172.534 337.223 172.641 337.273 172.781C337.335 172.912 337.292 173.088 337.142 173.31C337.052 173.445 336.927 173.508 336.765 173.499C336.617 173.482 336.479 173.407 336.351 173.274C336.156 173.042 335.93 172.799 335.673 172.544C335.429 172.281 335.168 172.02 334.891 171.761C334.615 171.492 334.338 171.234 334.058 170.986C333.781 170.727 333.516 170.487 333.264 170.266C333.197 170.687 333.124 171.108 333.046 171.527C332.981 171.938 332.922 172.345 332.869 172.747C332.842 172.894 332.78 172.991 332.685 173.038C332.591 173.075 332.481 173.081 332.356 173.058C332.295 173.035 332.243 172.993 332.2 172.931C332.159 172.858 332.12 172.78 332.081 172.696C332.055 172.605 332.032 172.519 332.015 172.44C331.999 172.35 331.995 172.284 332.002 172.242ZM302.725 171.78C302.715 171.832 302.647 171.874 302.522 171.905C302.408 171.937 302.303 171.945 302.209 171.927C301.515 171.807 300.855 171.709 300.229 171.635C299.603 171.56 298.99 171.498 298.392 171.451C298.274 171.439 298.176 171.383 298.098 171.281C298.029 171.181 297.995 171.072 297.996 170.953C297.994 170.844 298.019 170.74 298.07 170.641C298.133 170.533 298.22 170.474 298.331 170.462C298.95 170.46 299.611 170.492 300.314 170.56C301.018 170.627 301.708 170.768 302.384 170.983C302.424 171.001 302.472 171.037 302.527 171.091C302.584 171.135 302.633 171.193 302.673 171.266C302.716 171.328 302.745 171.404 302.761 171.494C302.777 171.584 302.765 171.679 302.725 171.78ZM302.647 176.763C302.636 177.641 302.588 178.511 302.504 179.374C302.422 180.227 302.324 181.077 302.211 181.924C302.203 182.02 302.177 182.102 302.132 182.169C302.089 182.226 302.037 182.276 301.975 182.319C301.923 182.363 301.868 182.396 301.81 182.418C301.762 182.441 301.722 182.45 301.691 182.444C301.576 182.422 301.47 182.348 301.374 182.222C301.291 182.086 301.255 181.928 301.267 181.746C301.31 181.341 301.352 180.937 301.394 180.532C301.437 180.128 301.474 179.722 301.506 179.316C300.349 179.412 299.136 179.46 297.867 179.459C297.866 179.698 297.865 179.937 297.864 180.175C297.863 180.414 297.868 180.654 297.877 180.894C297.88 180.938 297.873 181.007 297.855 181.102C297.848 181.198 297.824 181.297 297.784 181.398C297.754 181.5 297.704 181.594 297.634 181.679C297.577 181.755 297.497 181.805 297.395 181.829C297.309 181.823 297.225 181.78 297.142 181.7C297.059 181.619 297.008 181.544 296.988 181.475C296.923 181.126 296.874 180.716 296.843 180.243C296.821 179.772 296.814 179.283 296.822 178.774C296.842 178.257 296.884 177.738 296.948 177.218C297.012 176.698 297.098 176.205 297.206 175.737C297.256 175.583 297.334 175.484 297.44 175.439C297.559 175.385 297.66 175.366 297.744 175.382C297.838 175.4 297.911 175.446 297.962 175.521C298.024 175.598 298.067 175.687 298.091 175.79C298.116 175.892 298.13 175.992 298.133 176.091C298.137 176.189 298.133 176.27 298.121 176.333C298.069 176.67 298.024 177.003 297.984 177.333C297.945 177.662 297.921 177.994 297.914 178.329C298.462 178.356 299.062 178.366 299.714 178.359C300.369 178.341 300.989 178.301 301.576 178.238C301.599 177.993 301.618 177.747 301.631 177.5C301.647 177.242 301.661 176.99 301.674 176.743C301.707 176.564 301.789 176.417 301.919 176.3C302.059 176.186 302.187 176.139 302.303 176.161C302.386 176.177 302.463 176.235 302.531 176.335C302.61 176.436 302.648 176.579 302.647 176.763ZM309.305 181.065C309.188 181.346 309.02 181.608 308.802 181.849C308.596 182.081 308.367 182.293 308.114 182.484C307.862 182.675 307.594 182.831 307.311 182.951C307.039 183.074 306.769 183.158 306.499 183.205C306.007 183.286 305.535 183.257 305.084 183.117C304.645 182.969 304.28 182.683 303.99 182.259C303.803 181.92 303.691 181.557 303.655 181.17C303.628 180.786 303.65 180.404 303.72 180.027C303.803 179.641 303.924 179.278 304.084 178.94C304.255 178.603 304.446 178.308 304.655 178.054C304.906 177.754 305.183 177.519 305.486 177.348C305.789 177.177 306.102 177.101 306.424 177.118C306.512 177.113 306.576 177.147 306.617 177.22C306.657 177.292 306.67 177.371 306.654 177.455C306.779 177.37 306.956 177.322 307.186 177.311C307.416 177.3 307.663 177.341 307.928 177.434C308.419 177.592 308.789 177.82 309.038 178.116C309.287 178.413 309.449 178.736 309.525 179.087C309.614 179.43 309.625 179.779 309.559 180.136C309.505 180.484 309.42 180.793 309.305 181.065ZM306.28 178.247C306.053 178.302 305.848 178.41 305.666 178.571C305.497 178.723 305.344 178.906 305.207 179.119C305.08 179.334 304.976 179.575 304.894 179.841C304.824 180.1 304.776 180.356 304.751 180.612C304.714 180.985 304.768 181.31 304.912 181.587C305.058 181.853 305.33 182.024 305.728 182.099C305.959 182.143 306.192 182.143 306.428 182.101C306.676 182.05 306.908 181.969 307.124 181.858C307.34 181.746 307.545 181.606 307.739 181.437C307.935 181.256 308.101 181.065 308.236 180.863C308.31 180.757 308.378 180.624 308.44 180.462C308.505 180.289 308.548 180.113 308.571 179.933C308.595 179.742 308.587 179.556 308.544 179.374C308.502 179.193 308.413 179.029 308.277 178.884C308.086 178.685 307.842 178.542 307.543 178.453C307.245 178.364 306.913 178.372 306.546 178.476C306.476 178.506 306.4 178.503 306.32 178.466C306.253 178.421 306.239 178.348 306.28 178.247ZM317.296 179.349C317.057 180.227 316.799 181.122 316.521 182.036C316.255 182.941 315.963 183.786 315.643 184.573C315.565 184.764 315.481 184.895 315.392 184.965C315.303 185.035 315.187 185.073 315.045 185.078C314.926 185.078 314.77 185.01 314.578 184.876C314.396 184.744 314.254 184.576 314.151 184.372C314.017 184.098 313.872 183.799 313.715 183.476C313.57 183.145 313.404 182.81 313.218 182.471C313.044 182.123 312.853 181.778 312.645 181.434C312.448 181.093 312.231 180.77 311.995 180.465C311.835 181.151 311.681 181.833 311.534 182.511C311.389 183.178 311.263 183.855 311.158 184.54C311.14 184.635 311.048 184.666 310.88 184.634C310.681 184.597 310.537 184.466 310.448 184.243C310.361 184.01 310.327 183.786 310.344 183.573C310.352 183.357 310.392 183.055 310.464 182.667C310.537 182.269 310.62 181.855 310.71 181.427C310.81 181.001 310.908 180.591 311.003 180.197C311.098 179.802 311.177 179.491 311.241 179.265C311.309 179.017 311.4 178.844 311.516 178.747C311.642 178.651 311.752 178.617 311.844 178.646C312.05 178.706 312.174 178.795 312.218 178.912C312.274 179.02 312.293 179.148 312.276 179.297C312.603 179.641 312.895 180 313.151 180.374C313.418 180.75 313.652 181.125 313.853 181.5C314.066 181.876 314.252 182.248 314.412 182.614C314.584 182.973 314.745 183.302 314.896 183.601C315.138 182.996 315.368 182.312 315.586 181.55C315.813 180.79 316.048 179.993 316.289 179.159C316.298 179.052 316.38 178.964 316.533 178.896C316.689 178.817 316.824 178.793 316.937 178.825C317.227 178.902 317.346 179.076 317.296 179.349ZM301.027 184.973C301.034 185.169 301.034 185.403 301.027 185.673C301.022 185.932 300.999 186.205 300.957 186.49C300.927 186.767 300.88 187.051 300.815 187.342C300.75 187.634 300.666 187.911 300.563 188.174C300.442 188.477 300.263 188.741 300.025 188.968C299.788 189.194 299.514 189.387 299.202 189.545C298.901 189.705 298.576 189.823 298.226 189.898C297.888 189.965 297.551 189.999 297.214 190C296.89 189.993 296.573 189.944 296.265 189.854C295.968 189.754 295.712 189.614 295.497 189.432C295.253 189.223 295.071 188.977 294.95 188.694C294.829 188.41 294.813 188.087 294.902 187.724C294.989 187.372 295.081 187.052 295.177 186.767C295.275 186.47 295.381 186.192 295.495 185.931C295.619 185.672 295.748 185.415 295.882 185.158C296.019 184.89 296.162 184.614 296.313 184.327C296.391 184.201 296.5 184.14 296.64 184.145C296.694 184.144 296.757 184.156 296.828 184.18C296.86 184.186 296.898 184.215 296.943 184.267C297 184.31 297.049 184.368 297.089 184.441C297.13 184.514 297.158 184.595 297.174 184.685C297.201 184.777 297.188 184.872 297.137 184.971C296.981 185.289 296.823 185.612 296.665 185.94C296.506 186.269 296.361 186.583 296.229 186.884C296.108 187.187 296.014 187.462 295.946 187.71C295.891 187.949 295.882 188.143 295.92 188.291C296.019 188.516 296.178 188.681 296.397 188.788C296.629 188.886 296.879 188.939 297.149 188.946C297.419 188.954 297.683 188.933 297.942 188.884C298.213 188.827 298.448 188.757 298.648 188.675C298.966 188.54 299.214 188.343 299.392 188.083C299.581 187.826 299.722 187.532 299.816 187.203C299.909 186.873 299.969 186.521 299.995 186.146C300.032 185.773 300.052 185.402 300.055 185.034C300.052 184.935 300.079 184.816 300.138 184.675C300.197 184.534 300.302 184.434 300.454 184.376C300.616 184.32 300.745 184.355 300.841 184.482C300.947 184.61 301.009 184.774 301.027 184.973ZM308.62 185.852C308.381 186.73 308.123 187.625 307.845 188.539C307.58 189.444 307.287 190.29 306.968 191.076C306.889 191.267 306.805 191.398 306.716 191.468C306.627 191.538 306.512 191.576 306.37 191.582C306.25 191.581 306.095 191.514 305.903 191.38C305.721 191.248 305.579 191.08 305.475 190.876C305.342 190.601 305.197 190.302 305.039 189.979C304.895 189.648 304.729 189.313 304.542 188.974C304.368 188.626 304.177 188.281 303.97 187.938C303.772 187.597 303.556 187.273 303.319 186.968C303.16 187.655 303.006 188.336 302.859 189.014C302.713 189.681 302.588 190.358 302.482 191.043C302.465 191.138 302.372 191.169 302.204 191.137C302.005 191.1 301.861 190.97 301.772 190.747C301.686 190.513 301.651 190.29 301.669 190.076C301.676 189.86 301.716 189.558 301.788 189.17C301.862 188.772 301.944 188.359 302.034 187.931C302.135 187.505 302.233 187.094 302.328 186.7C302.422 186.305 302.502 185.995 302.566 185.768C302.633 185.52 302.725 185.347 302.841 185.25C302.967 185.154 303.076 185.121 303.169 185.149C303.374 185.209 303.499 185.298 303.542 185.415C303.598 185.523 303.618 185.652 303.601 185.8C303.928 186.144 304.219 186.503 304.475 186.877C304.742 187.253 304.976 187.628 305.178 188.003C305.39 188.379 305.576 188.751 305.736 189.118C305.908 189.476 306.07 189.805 306.22 190.105C306.463 189.499 306.693 188.815 306.91 188.053C307.138 187.293 307.372 186.496 307.614 185.662C307.623 185.555 307.704 185.468 307.858 185.399C308.014 185.32 308.148 185.296 308.262 185.329C308.551 185.405 308.671 185.58 308.62 185.852ZM312.08 188.866C312.028 188.856 311.96 188.838 311.878 188.812C311.809 188.777 311.74 188.737 311.673 188.691C311.618 188.638 311.569 188.579 311.526 188.517C311.485 188.444 311.471 188.376 311.483 188.314C311.498 188.23 311.564 188.139 311.679 188.041C311.808 187.935 311.993 187.873 312.235 187.853C312.563 187.839 312.901 187.86 313.249 187.914C313.599 187.959 313.945 188.024 314.287 188.11C314.631 188.186 314.968 188.271 315.297 188.366C315.629 188.45 315.94 188.525 316.232 188.591C316.4 188.623 316.504 188.675 316.545 188.748C316.585 188.821 316.598 188.899 316.582 188.983C316.547 189.172 316.436 189.303 316.249 189.376C316.062 189.449 315.885 189.465 315.72 189.423C315.543 189.378 315.356 189.338 315.157 189.3C314.968 189.264 314.769 189.227 314.559 189.187C314.505 189.481 314.454 189.813 314.407 190.184C314.372 190.547 314.336 190.914 314.3 191.287C314.263 191.66 314.23 192.018 314.199 192.359C314.178 192.703 314.163 192.993 314.151 193.229C314.157 193.317 314.121 193.392 314.045 193.453C313.981 193.506 313.891 193.522 313.776 193.5C313.555 193.459 313.418 193.292 313.364 192.999C313.26 192.448 313.227 191.834 313.266 191.157C312.636 191.397 312.04 191.507 311.48 191.488C310.919 191.469 310.429 191.36 310.011 191.162C309.604 190.955 309.292 190.679 309.074 190.334C308.868 189.98 308.805 189.588 308.885 189.158C308.961 188.749 309.116 188.323 309.35 187.879C309.584 187.434 309.878 187.018 310.233 186.629C310.587 186.24 310.981 185.901 311.414 185.614C311.859 185.318 312.33 185.12 312.826 185.018C312.991 185.006 313.139 185.028 313.269 185.085C313.412 185.134 313.533 185.211 313.633 185.317C313.745 185.414 313.838 185.529 313.911 185.662C313.996 185.787 314.066 185.909 314.12 186.027C314.159 186.111 314.175 186.195 314.17 186.281C314.165 186.367 314.119 186.44 314.032 186.499C313.854 186.585 313.719 186.549 313.629 186.391C313.492 186.137 313.364 185.977 313.246 185.911C313.141 185.837 312.97 185.848 312.735 185.945C312.499 186.052 312.226 186.234 311.918 186.491C311.612 186.737 311.315 187.023 311.027 187.348C310.751 187.665 310.514 188.006 310.317 188.37C310.121 188.724 310.014 189.067 309.995 189.4C309.974 189.69 310.094 189.924 310.353 190.103C310.615 190.272 310.925 190.385 311.283 190.441C311.652 190.5 312.026 190.5 312.406 190.442C312.796 190.385 313.111 190.271 313.349 190.098C313.371 189.918 313.394 189.738 313.416 189.558C313.441 189.367 313.47 189.182 313.503 189.004C313.268 188.982 313.034 188.959 312.799 188.937C312.567 188.903 312.327 188.88 312.08 188.866Z" fill="black"/>
<path d="M312.716 155.97L311.052 152.863L313.358 152.507L312.716 155.97Z" fill="#CC0821"/>
<path d="M310.939 154.888L309.745 152.159L311.733 152.021L310.939 154.888Z" fill="#CC0821"/>
<path d="M296.175 165.001L293.733 165.389L294.213 163.478L296.175 165.001Z" fill="#CC0821"/>
<path d="M303.27 179.13L302.982 182.69L301.155 181.978L303.27 179.13Z" fill="#CC0821"/>
<path fill-rule="evenodd" clip-rule="evenodd" d="M282.972 162.029C282.648 169.376 283.127 176.632 284.407 183.799C282.105 182.656 281.148 180.722 281.537 177.993C281.085 172.375 281.563 167.054 282.972 162.029Z" fill="black"/>
<path opacity="0.961" fill-rule="evenodd" clip-rule="evenodd" d="M79.1611 180.896C78.1004 181.086 77.1431 180.844 76.2905 180.17C80.0137 177.143 82.8842 173.515 84.9023 169.286C86.8901 167.727 88.5637 165.792 89.9258 163.48C90.8831 164.932 90.8831 166.383 89.9258 167.834C86.5744 172.428 82.9861 176.781 79.1611 180.896Z" fill="black"/>
<path fill-rule="evenodd" clip-rule="evenodd" d="M219.819 170.737C229.495 172.365 233.083 178.17 230.584 188.152C225.309 196.033 220.526 195.548 216.231 186.701C214.718 180.671 215.915 175.349 219.819 170.737Z" fill="black"/>
<path fill-rule="evenodd" clip-rule="evenodd" d="M165.278 185.25C172.855 187.357 177.161 192.437 178.196 200.488C176.634 206.878 172.806 208.572 166.713 205.568C161.712 199.011 161.234 192.238 165.278 185.25Z" fill="#110F0A"/>
<path fill-rule="evenodd" clip-rule="evenodd" d="M166.714 186.701C168.234 188.98 167.516 190.914 164.561 192.506C164.13 190.234 164.848 188.299 166.714 186.701Z" fill="#D5D6D5"/>
<path fill-rule="evenodd" clip-rule="evenodd" d="M219.941 172.914C221.461 175.193 220.743 177.127 217.788 178.719C217.357 176.446 218.075 174.512 219.941 172.914Z" fill="#D5D6D5"/>
<path fill-rule="evenodd" clip-rule="evenodd" d="M198.29 191.055C201.673 190.819 205.021 191.059 208.337 191.781C202.904 192.614 197.641 193.58 192.549 194.683C194.498 193.328 196.413 192.117 198.29 191.055Z" fill="#2E260B"/>
<path fill-rule="evenodd" clip-rule="evenodd" d="M198.29 195.409C202.147 195.171 205.975 195.413 209.772 196.134C212.329 204.227 209.218 208.338 200.443 208.47C193.717 209.007 190.847 206.105 191.831 199.763C193.853 197.904 196.006 196.452 198.29 195.409Z" fill="#0D0B08"/>
<path fill-rule="evenodd" clip-rule="evenodd" d="M264.313 193.958C267.775 194.239 269.21 196.174 268.619 199.763C266.567 199.877 264.652 199.394 262.878 198.311C261.733 198.975 261.255 199.943 261.443 201.214C253.316 195.811 254.034 194.36 263.596 196.86C266.013 196.595 266.251 195.626 264.313 193.958Z" fill="black"/>
<path opacity="0.788" fill-rule="evenodd" clip-rule="evenodd" d="M133.702 220.081C134.93 218.584 135.887 216.892 136.573 215.001C133.384 210.088 130.513 205.009 127.961 199.763C117.663 207.226 107.138 207.469 96.3848 200.488C88.2539 195.03 85.8627 188.014 89.2084 179.445C90.5834 178.787 91.7804 177.821 92.7966 176.542C92.8555 180.206 91.6584 183.592 89.2084 186.701C99.6874 203.865 113.083 206.768 129.396 195.409C132.168 202.063 135.518 208.353 139.444 214.275C138.944 217.683 137.029 219.619 133.702 220.081Z" fill="black"/>
<path fill-rule="evenodd" clip-rule="evenodd" d="M199.726 196.86C207.14 197.635 207.14 199.087 199.726 201.214C198.768 200.731 197.812 200.246 196.855 199.763C197.921 198.773 198.877 197.805 199.726 196.86Z" fill="#CDCECE"/>
<path fill-rule="evenodd" clip-rule="evenodd" d="M278.666 169.286C279.624 172.188 280.58 175.091 281.537 177.994C281.148 180.722 282.105 182.656 284.407 183.799C284.885 187.185 286.8 189.121 290.149 189.604C292.916 192.469 296.264 194.646 300.196 196.135C306.485 196.558 312.704 197.284 318.854 198.311C321.36 199.354 322.316 200.805 321.725 202.665C326.249 196.169 332.468 192.782 340.384 192.506C341.894 192.723 343.329 192.482 344.69 191.781C346.459 189.361 348.374 187.185 350.431 185.25C351.467 184.643 352.185 183.677 352.584 182.347C354.183 189.766 351.79 195.571 345.407 199.763C344.929 198.311 344.45 196.86 343.972 195.409C343.804 203.249 340.216 208.813 333.207 212.099C323.328 215.521 313.281 216.489 303.066 215.001C304.024 215.485 304.979 215.969 305.937 216.453C291.369 231.523 273.667 238.296 252.831 236.771C247.568 231.678 242.306 226.356 237.043 220.806C249.557 212.707 262.715 205.693 276.513 199.763C277.032 195.373 277.749 191.019 278.666 186.701C277.02 183.355 275.107 180.21 272.925 177.268C272.952 174.608 273.908 172.431 275.796 170.737C276.287 169.521 277.243 169.036 278.666 169.286Z" fill="#DCB802"/>
<path fill-rule="evenodd" clip-rule="evenodd" d="M218.384 225.886C218.212 224.31 217.255 223.342 215.514 222.983C213.212 223.621 211.059 224.589 209.055 225.886C204.409 224.002 201.3 225.454 199.726 230.24C194.659 227.08 190.353 222.968 186.808 217.904C184.26 215.816 181.39 214.364 178.196 213.55C179.392 212.341 180.589 211.131 181.785 209.922C186.488 218.062 193.425 220.722 202.596 217.904C203.495 216.816 204.212 215.605 204.749 214.276C213.232 217.364 219.211 214.221 222.69 204.842C222.109 203.471 221.152 202.503 219.82 201.94C222.212 200.972 224.603 200.972 226.996 201.94C223.9 209.893 221.03 217.875 218.384 225.886Z" fill="#141007"/>
<path fill-rule="evenodd" clip-rule="evenodd" d="M234.172 234.593C231.82 236.006 229.905 237.94 228.431 240.399C227.953 240.399 227.474 240.399 226.996 240.399C225.561 237.496 224.125 234.593 222.69 231.691C223.168 229.756 223.647 227.82 224.125 225.886C225.549 226.135 226.505 225.651 226.996 224.434C234.909 221.262 240.65 223.681 244.219 231.691C240.676 232.66 237.327 233.628 234.172 234.593Z" fill="#1276B3"/>
<path fill-rule="evenodd" clip-rule="evenodd" d="M218.384 225.886C212.794 229.568 206.575 231.019 199.726 230.24C201.3 225.453 204.409 224.002 209.055 225.886C211.059 224.589 213.212 223.621 215.514 222.983C217.255 223.342 218.212 224.31 218.384 225.886Z" fill="#D5521C"/>
<path fill-rule="evenodd" clip-rule="evenodd" d="M218.384 225.886C218.278 228.659 216.843 230.353 214.078 230.965C209.016 232.138 204.232 231.896 199.726 230.24C206.575 231.019 212.794 229.568 218.384 225.886Z" fill="#2C190D"/>
<path fill-rule="evenodd" clip-rule="evenodd" d="M224.125 225.886C223.647 227.82 223.168 229.756 222.69 231.691C219.877 234.57 216.528 235.779 212.643 235.319C217.611 233.425 221.439 230.282 224.125 225.886Z" fill="black"/>
<path opacity="0.906" fill-rule="evenodd" clip-rule="evenodd" d="M133.702 220.081C136.799 222.577 140.627 223.786 145.184 223.709C142.892 226.884 142.413 230.028 143.749 233.142C142.581 235.715 140.666 236.441 138.008 235.319C143.245 228.01 141.332 224.14 132.267 223.709C130.282 221.588 130.761 220.38 133.702 220.081Z" fill="black"/>
<path fill-rule="evenodd" clip-rule="evenodd" d="M234.172 234.593C243.701 232.236 250.398 235.381 254.266 244.027C252.4 247.563 250.965 251.192 249.96 254.911C249.483 254.911 249.003 254.911 248.525 254.911C242.254 254.959 236.035 254.476 229.866 253.46C229.202 249.132 228.724 244.778 228.431 240.398C229.905 237.94 231.82 236.005 234.172 234.593Z" fill="#EFEC03"/>
<path fill-rule="evenodd" clip-rule="evenodd" d="M191.114 236.045C193.506 236.045 195.898 236.045 198.29 236.045C198.29 238.464 198.29 240.882 198.29 243.301C192.585 243.281 187.801 245.216 183.937 249.106C182.541 245.554 182.063 241.683 182.502 237.496C185.71 237.924 188.58 237.44 191.114 236.045Z" fill="#0380C3"/>
<path fill-rule="evenodd" clip-rule="evenodd" d="M229.867 253.46C235.774 258.57 241.995 259.055 248.525 254.912C249.003 254.912 249.483 254.912 249.961 254.912C252.794 252.114 254.947 248.728 256.419 244.753C260.32 248.049 262.951 252.16 264.313 257.089C277.102 261.988 286.911 270.453 293.737 282.486C296.777 295.581 292.233 304.531 280.102 309.335C267.269 313.557 256.026 310.896 246.372 301.353C240.569 289.801 242.722 287.624 252.831 294.822C254.744 295.79 256.659 295.79 258.572 294.822C253.358 293.632 249.052 290.972 245.655 286.84C236.955 294.289 226.908 298.643 215.514 299.901C212.412 309.56 208.346 318.751 203.314 327.476C193.648 313.361 180.491 304.412 163.843 300.627C168.093 295.668 171.442 290.105 173.89 283.937C170.302 278.91 168.867 273.588 169.584 267.973C172.462 265.312 175.572 262.892 178.914 260.717C181.36 263.435 183.99 265.854 186.808 267.973C188.421 269.873 190.574 270.839 193.267 270.876C198.385 270.765 202.453 268.829 205.467 265.071C207.579 262.724 208.537 259.821 208.337 256.363C208.422 252.577 207.465 249.189 205.467 246.204C212.514 244.29 219.69 242.838 226.996 241.85C226.438 246.281 227.394 250.151 229.867 253.46Z" fill="#0182C7"/>
<path fill-rule="evenodd" clip-rule="evenodd" d="M205.466 246.204C207.464 249.189 208.422 252.576 208.337 256.363C208.536 259.821 207.579 262.724 205.466 265.07C207.906 247.256 200.73 241.934 183.937 249.106C187.801 245.215 192.585 243.281 198.29 243.301C198.29 240.882 198.29 238.464 198.29 236.045C195.897 236.045 193.506 236.045 191.113 236.045C193.619 235.003 194.575 233.551 193.984 231.691C195.706 233.187 197.621 234.398 199.725 235.319C214.948 236.062 214.948 237.271 199.725 238.947C200.583 240.827 201.301 242.761 201.878 244.752C202.841 245.844 204.037 246.329 205.466 246.204Z" fill="black"/>
<path fill-rule="evenodd" clip-rule="evenodd" d="M205.466 265.07C199.53 267.513 193.311 268.481 186.808 267.973C184.919 264.603 183.005 261.216 181.066 257.814C181.751 254.77 182.707 251.868 183.937 249.106C200.73 241.934 207.906 247.256 205.466 265.07Z" fill="#F0EE03"/>
<path fill-rule="evenodd" clip-rule="evenodd" d="M226.996 240.399C227.474 240.399 227.953 240.399 228.431 240.399C228.724 244.779 229.202 249.132 229.866 253.46C227.393 250.151 226.437 246.281 226.996 241.85C219.69 242.838 212.514 244.29 205.466 246.204C211.724 241.362 218.901 239.426 226.996 240.399Z" fill="#1D1D17"/>
<path fill-rule="evenodd" clip-rule="evenodd" d="M176.761 237.496C178.27 237.28 179.706 237.521 181.066 238.222C179.202 242.772 179.202 247.366 181.066 252.009C180.208 253.888 179.49 255.823 178.913 257.814C174.501 260.094 171.393 263.48 169.584 267.973C168.483 266.998 167.526 265.789 166.714 264.345C170.299 260.792 172.452 256.681 173.172 252.009C169.656 258.952 164.632 264.515 158.102 268.699C150.783 270.048 143.607 271.983 136.572 274.504C142.271 274.031 148.012 274.031 153.796 274.504C157.569 279.146 157.091 283.5 152.361 287.565C147.749 288.586 143.205 288.343 138.725 286.84C134.322 292.382 128.82 293.833 122.22 291.194C115.86 294.816 109.401 294.816 102.843 291.194C93.9186 295.836 85.7848 294.868 78.4433 288.291C77.7299 284.939 77.4917 281.553 77.7256 278.132C83.3878 279.81 89.129 280.535 94.9491 280.309C98.777 276.923 98.777 273.536 94.9491 270.15C88.7845 268.847 83.2831 266.187 78.4433 262.168C76.1798 255.522 78.3328 251.169 84.9021 249.106C90.3519 251.961 95.6151 255.106 100.69 258.54C104.006 259.261 107.354 259.502 110.737 259.265C110.75 256.641 110.033 254.222 108.584 252.009C96.4605 240.886 98.1354 235.324 113.608 235.319C120.117 242.428 125.38 250.41 129.396 259.265C130.96 257.972 130.96 256.521 129.396 254.911C139.723 241.708 153.118 235.177 169.584 235.319C172.148 236.458 174.3 238.151 176.043 240.399C176.709 239.537 176.949 238.569 176.761 237.496Z" fill="#DDB901"/>
<path fill-rule="evenodd" clip-rule="evenodd" d="M176.761 237.496C181.246 236.075 186.03 235.59 191.114 236.045C188.581 237.439 185.71 237.924 182.502 237.496C182.063 241.683 182.541 245.554 183.937 249.106C182.707 251.868 181.751 254.771 181.067 257.814C183.006 261.216 184.919 264.603 186.808 267.973C183.99 265.854 181.36 263.435 178.914 260.717C175.572 262.892 172.462 265.311 169.584 267.973C171.393 263.48 174.502 260.094 178.914 257.814C179.491 255.823 180.208 253.888 181.067 252.009C179.202 247.366 179.202 242.771 181.067 238.222C179.706 237.521 178.271 237.28 176.761 237.496Z" fill="black"/>
<path fill-rule="evenodd" clip-rule="evenodd" d="M176.761 237.496C176.949 238.569 176.709 239.537 176.043 240.399C174.301 238.151 172.148 236.458 169.585 235.319C153.119 235.177 139.723 241.708 129.396 254.911C130.961 256.521 130.961 257.972 129.396 259.265C125.381 250.41 120.117 242.428 113.608 235.319C98.1359 235.323 96.4609 240.886 108.585 252.009C110.033 254.222 110.751 256.641 110.738 259.265C107.355 259.502 104.006 259.261 100.691 258.54C95.6155 255.106 90.3523 251.961 84.9025 249.106C78.3332 251.169 76.1803 255.522 78.4437 262.168C83.2835 266.186 88.785 268.847 94.9496 270.15C98.7775 273.536 98.7775 276.923 94.9496 280.309C89.1295 280.535 83.3883 279.81 77.7261 278.132C78.3892 276.129 79.8245 275.161 82.032 275.229C85.3805 276.197 88.7304 277.164 92.079 278.132C93.8544 278.051 95.2897 277.325 96.3848 275.955C89.9533 271.846 83.4945 267.734 77.0084 263.619C75.622 258.368 76.3396 253.531 79.1614 249.106C80.9871 248.314 82.9017 247.831 84.9025 247.655C91.7977 249.569 98.2565 252.472 104.279 256.363C104.997 255.879 105.714 255.395 106.432 254.911C104.628 251.749 102.475 248.847 99.9731 246.204C97.3422 234.351 101.886 229.756 113.608 232.417C120.77 236.516 125.554 242.564 127.961 250.558C134.508 245.606 140.727 240.526 146.62 235.319C146.138 233.824 145.18 233.099 143.749 233.142C147.798 227.151 149.951 228.119 150.208 236.045C151.671 234.322 153.346 232.871 155.232 231.691C158.764 233.29 162.352 233.29 165.996 231.691C170.335 232.311 173.923 234.247 176.761 237.496Z" fill="black"/>
<path fill-rule="evenodd" clip-rule="evenodd" d="M158.102 302.804C165.254 302.676 171.951 304.37 178.196 307.884C188.56 314.249 196.693 322.716 202.596 333.281C201.653 339.542 199.5 345.347 196.137 350.696C192.375 352.86 188.308 353.828 183.937 353.599C183.495 350.081 183.975 346.695 185.373 343.44C186.659 344.9 187.614 344.9 188.243 343.44C186.267 338.539 182.918 335.152 178.196 333.281C171.915 323.586 164.259 314.879 155.231 307.158C156.226 305.681 157.182 304.229 158.102 302.804Z" fill="#0281C6"/>
<path fill-rule="evenodd" clip-rule="evenodd" d="M158.102 302.804C157.182 304.229 156.226 305.68 155.232 307.158C164.26 314.878 171.915 323.586 178.196 333.281C176.686 333.497 175.251 333.256 173.89 332.555C168.036 323.123 160.859 314.899 152.361 307.883C146.62 306.915 140.879 306.915 135.138 307.883C133.984 310.453 132.309 312.63 130.114 314.414C129.636 312.169 130.354 310.234 132.267 308.609C131.746 307.618 131.268 306.65 130.832 305.706C135.726 305.297 140.51 304.329 145.185 302.804C149.865 305.641 154.171 305.641 158.102 302.804Z" fill="black"/>
<path fill-rule="evenodd" clip-rule="evenodd" d="M130.831 305.706C114.509 303.854 108.05 311.111 111.455 327.476C114.432 330.308 117.542 332.969 120.784 335.458C117.977 335.135 115.345 333.927 112.89 331.829C111.933 336.183 111.933 340.537 112.89 344.891C118.303 351.577 125.239 355.446 133.702 356.501C136.572 357.469 139.443 358.436 142.314 359.404C129.907 361.111 119.622 357.24 111.455 347.794C111.475 338.43 110.278 328.996 107.867 319.493C109.424 306.298 116.6 300.977 129.396 303.529C130.194 304.085 130.672 304.811 130.831 305.706Z" fill="black"/>
<path fill-rule="evenodd" clip-rule="evenodd" d="M347.56 146.065C348.038 146.065 350.67 146.065 351.148 146.065C354.019 150.419 354.318 150.991 355.454 154.773C355.652 165.961 355.892 177.088 356.172 188.153C351.395 195.405 346.61 202.661 341.819 209.922C331.65 217.756 320.406 220.174 308.09 217.178C294.594 232.587 277.609 240.811 257.137 241.85C261.515 245.374 264.863 249.728 267.184 254.912C302.191 271.912 306.497 294.407 280.102 322.396C284.551 326.448 286.944 331.528 287.278 337.635C285.508 343.074 283.355 348.395 280.819 353.599C273.173 361.075 265.759 361.075 258.572 353.599C264.799 357.31 271.019 357.31 277.231 353.599C279.008 349.727 279.008 345.858 277.231 341.989C277.709 341.505 278.188 341.021 278.666 340.537C281.919 346.469 283.832 345.986 284.407 339.086C283.793 333.107 281.64 327.785 277.949 323.122C266.593 329.12 255.35 328.878 244.219 322.396C242.483 320.888 241.047 319.195 239.914 317.317C252.711 327.879 266.108 328.605 280.102 319.494C282.606 317.038 283.084 314.378 281.537 311.512C267.587 315.584 255.387 312.681 244.937 302.804C243.671 293.44 239.843 291.989 233.455 298.45C232.746 300.822 232.507 303.241 232.737 305.707C231.586 303.599 230.868 301.182 230.584 298.45C229.133 299.665 227.458 300.148 225.561 299.901C225.901 301.775 225.423 303.226 224.125 304.255C222.615 301.707 220.223 300.739 216.949 301.353C215.003 311.835 210.697 321.269 204.031 329.653C206.133 340.893 202.306 349.601 192.549 355.776C189.763 356.854 187.132 356.612 184.655 355.05C182.703 369.106 174.809 374.67 160.973 371.74C154.175 368.954 148.434 364.842 143.749 359.404C150.277 361.736 156.496 364.881 162.408 368.837C170.994 370.345 177.453 367.202 181.784 359.404C182.852 354.512 182.135 349.917 179.631 345.617C181.83 344.601 183.266 342.909 183.937 340.537C181.99 338.091 180.076 335.673 178.196 333.281C182.918 335.152 186.267 338.539 188.243 343.44C187.615 344.9 186.659 344.9 185.373 343.44C183.975 346.695 183.495 350.081 183.937 353.599C188.308 353.828 192.375 352.86 196.137 350.696C199.5 345.347 201.653 339.542 202.596 333.281C196.693 322.716 188.56 314.249 178.196 307.884C171.951 304.37 165.254 302.676 158.102 302.804C159.12 301.492 160.555 301.009 162.408 301.353C164.476 295.237 167.347 289.432 171.02 283.937C167.787 279.113 165.635 273.791 164.561 267.973C161.93 269.667 159.298 271.359 156.667 273.053C161.04 282.506 157.692 289.037 146.62 292.645C144.074 292.083 141.681 291.117 139.443 289.743C135.155 295.057 129.893 296.508 123.655 294.096C120.631 295.746 117.522 297.198 114.326 298.45C110.795 296.857 107.207 295.405 103.561 294.096C95.3154 298.074 87.1816 297.832 79.1612 293.371C74.2152 288.521 73.7373 283.441 77.726 278.132C77.492 281.553 77.7303 284.939 78.4436 288.291C85.7851 294.868 93.9189 295.836 102.844 291.194C109.401 294.816 115.86 294.816 122.22 291.194C128.821 293.834 134.322 292.382 138.726 286.84C143.205 288.343 147.749 288.586 152.361 287.566C157.092 283.501 157.57 279.147 153.796 274.504C148.012 274.031 142.271 274.031 136.573 274.504C143.607 271.983 150.784 270.049 158.102 268.699C164.633 264.515 169.656 258.952 173.173 252.009C172.452 256.681 170.299 260.792 166.714 264.345C167.526 265.789 168.484 266.998 169.584 267.973C168.867 273.588 170.302 278.91 173.89 283.937C171.442 290.105 168.093 295.668 163.843 300.627C180.491 304.412 193.648 313.361 203.314 327.476C208.346 318.751 212.412 309.56 215.514 299.901C226.908 298.643 236.955 294.289 245.655 286.84C249.052 290.972 253.358 293.632 258.572 294.822C256.659 295.79 254.744 295.79 252.831 294.822C242.722 287.624 240.569 289.801 246.372 301.353C256.026 310.896 267.269 313.557 280.102 309.335C292.233 304.531 296.777 295.581 293.737 282.486C286.911 270.453 277.102 261.988 264.313 257.089C262.951 252.16 260.32 248.049 256.419 244.753C254.947 248.728 252.794 252.114 249.961 254.912C250.965 251.192 252.401 247.564 254.266 244.027C250.398 235.382 243.701 232.237 234.172 234.594C237.327 233.629 240.676 232.661 244.219 231.691C240.65 223.682 234.909 221.262 226.996 224.435C232.404 220.48 238.145 216.852 244.219 213.55C248.103 210.109 251.452 206.24 254.266 201.94C256.966 202.079 259.357 201.837 261.443 201.214C264.223 202.964 266.616 202.481 268.619 199.763C273.446 199.521 274.881 197.344 272.925 193.232C273.684 190.97 274.642 188.793 275.796 186.701C273.268 184.157 271.355 181.255 270.055 177.994C270.307 174.039 272.222 171.62 275.796 170.737C273.908 172.431 272.952 174.608 272.925 177.268C275.107 180.21 277.02 183.355 278.666 186.701C277.749 191.019 277.032 195.373 276.513 199.763C262.715 205.693 249.557 212.707 237.043 220.807C242.306 226.356 247.568 231.678 252.831 236.771C273.667 238.296 291.369 231.523 305.937 216.453C304.979 215.969 304.024 215.485 303.066 215.001C313.281 216.489 323.328 215.521 333.207 212.099C340.216 208.813 343.804 203.249 343.972 195.409C344.45 196.86 344.929 198.312 345.407 199.763C351.79 195.572 354.183 189.766 352.584 182.348C352.185 183.677 351.467 184.643 350.431 185.25C352.941 175.232 353.659 165.073 352.584 154.773C350.53 152.068 348.856 149.165 347.56 146.065Z" fill="black"/>
<path fill-rule="evenodd" clip-rule="evenodd" d="M224.125 304.255C221.124 323.088 227.343 337.842 242.784 348.519C248.593 351.528 254.094 351.287 259.29 347.793C259.57 349.708 259.33 351.644 258.572 353.599C239.569 353.776 227.369 344.583 221.972 326.024C221.015 320.219 221.015 314.414 221.972 308.609C222.305 306.813 223.023 305.362 224.125 304.255Z" fill="black"/>
<path fill-rule="evenodd" clip-rule="evenodd" d="M232.737 305.707C233.025 310.975 235.418 314.845 239.913 317.317C241.047 319.195 242.483 320.888 244.219 322.396C255.35 328.878 266.593 329.12 277.949 323.122C281.64 327.785 283.793 333.107 284.407 339.086C283.832 345.986 281.919 346.469 278.666 340.537C278.188 341.021 277.709 341.505 277.231 341.989C279.008 345.858 279.008 349.727 277.231 353.599C271.019 357.31 264.798 357.31 258.572 353.599C259.33 351.644 259.57 349.708 259.29 347.794C254.094 351.287 248.593 351.528 242.784 348.519C227.343 337.842 221.124 323.089 224.125 304.255C225.423 303.226 225.901 301.775 225.561 299.901C227.458 300.148 229.133 299.665 230.584 298.45C230.868 301.182 231.586 303.599 232.737 305.707Z" fill="#DDB902"/>
<path fill-rule="evenodd" clip-rule="evenodd" d="M239.913 317.317C235.418 314.845 233.025 310.975 232.737 305.707C232.507 303.241 232.745 300.822 233.454 298.45C239.843 291.989 243.671 293.44 244.937 302.804C255.387 312.681 267.587 315.584 281.537 311.512C283.084 314.378 282.606 317.038 280.101 319.494C266.107 328.605 252.71 327.879 239.913 317.317Z" fill="#097DBF"/>
<path fill-rule="evenodd" clip-rule="evenodd" d="M205.466 265.07C202.452 268.829 198.385 270.765 193.266 270.875C190.574 270.839 188.421 269.873 186.808 267.973C193.311 268.481 199.53 267.513 205.466 265.07Z" fill="#181F1F"/>
<path fill-rule="evenodd" clip-rule="evenodd" d="M229.866 253.46C236.035 254.476 242.254 254.959 248.525 254.911C241.994 259.055 235.774 258.57 229.866 253.46Z" fill="#1D211D"/>
<path fill-rule="evenodd" clip-rule="evenodd" d="M340.384 192.506C332.468 192.782 326.249 196.169 321.725 202.665C322.316 200.805 321.361 199.353 318.854 198.311C323.249 196.582 327.555 194.405 331.772 191.781C334.947 190.636 337.818 190.878 340.384 192.506Z" fill="black"/>
<path fill-rule="evenodd" clip-rule="evenodd" d="M282.254 181.622C284.603 183.205 289.3 187.69 290.866 190.329C287.213 189.802 282.776 185.315 282.254 181.622Z" fill="#030303"/>
<path fill-rule="evenodd" clip-rule="evenodd" d="M133.702 356.501C137.559 356.263 141.387 356.505 145.184 357.227C144.386 357.783 143.908 358.508 143.749 359.404C143.271 359.404 142.792 359.404 142.314 359.404C139.443 358.436 136.573 357.469 133.702 356.501Z" fill="#635309"/>
<path fill-rule="evenodd" clip-rule="evenodd" d="M130.831 305.707C131.268 306.65 131.746 307.618 132.267 308.609C130.354 310.235 129.636 312.169 130.114 314.414C132.308 312.631 133.983 310.454 135.137 307.884C140.878 306.916 146.62 306.916 152.361 307.884C160.859 314.899 168.036 323.124 173.89 332.555C175.251 333.256 176.686 333.497 178.196 333.281C180.076 335.673 181.989 338.091 183.937 340.537C183.265 342.909 181.83 344.601 179.631 345.617C182.134 349.917 182.852 354.512 181.784 359.404C177.453 367.202 170.994 370.345 162.408 368.838C156.496 364.881 150.277 361.736 143.749 359.404C143.908 358.509 144.386 357.783 145.184 357.227C141.387 356.506 137.559 356.264 133.702 356.502C125.24 355.447 118.303 351.577 112.89 344.891C111.933 340.537 111.933 336.184 112.89 331.83C115.345 333.927 117.977 335.136 120.784 335.458C117.542 332.969 114.432 330.309 111.455 327.476C108.051 311.111 114.509 303.855 130.831 305.707Z" fill="#DAB703"/>
<path fill-rule="evenodd" clip-rule="evenodd" d="M149.49 346.342C147.181 345.753 145.266 345.753 143.749 346.342C144.596 348.227 146.031 349.436 148.055 349.97C146.62 350.454 145.184 350.938 143.749 351.422C145.286 352.658 146.722 353.867 148.055 355.05C145.961 355.147 144.048 354.664 142.314 353.599C141.811 350.513 141.811 347.127 142.314 343.44C145.469 342.888 147.861 343.856 149.49 346.342Z" fill="#50440F"/>
<path fill-rule="evenodd" clip-rule="evenodd" d="M150.926 336.184C159.283 338.821 165.504 344.142 169.585 352.148C169.678 352.783 169.44 353.268 168.867 353.599C163.983 346.48 158.002 340.675 150.926 336.184Z" fill="#221D0C"/>
<path fill-rule="evenodd" clip-rule="evenodd" d="M150.926 336.183C158.002 340.675 163.982 346.48 168.867 353.599C169.439 353.268 169.678 352.783 169.584 352.147C172.736 358.88 170.583 363.234 163.126 365.209C158.221 362.57 153.198 359.183 148.055 355.05C146.722 353.867 145.286 352.658 143.749 351.422C145.184 350.938 146.62 350.454 148.055 349.97C146.031 349.436 144.596 348.227 143.749 346.342C145.266 345.753 147.181 345.753 149.49 346.342C147.861 343.856 145.469 342.888 142.314 343.44C141.811 347.127 141.811 350.513 142.314 353.599C139.326 353.419 137.173 351.967 135.855 349.245C134.898 350.213 133.942 351.179 132.984 352.147C130.326 349.159 128.653 346.014 127.961 342.714C129.934 339.119 132.567 337.909 135.855 339.086C140.246 333.063 145.269 332.096 150.926 336.183Z" fill="#9A880C"/>
<path fill-rule="evenodd" clip-rule="evenodd" d="M149.49 346.342C151.337 347.834 153.012 347.351 154.514 344.891C157.61 346.175 158.805 348.595 158.102 352.148C153.641 352.329 150.771 350.394 149.49 346.342Z" fill="#42380D"/>
<path fill-rule="evenodd" clip-rule="evenodd" d="M153.796 346.342C156.071 347.071 156.789 348.522 155.949 350.696C154.458 349.616 153.74 348.165 153.796 346.342Z" fill="#DFBF09"/>
<path d="M326.645 117.783L326.645 117.783L326.662 117.785L326.679 117.787L326.679 117.787L326.679 117.787L326.68 117.787L326.685 117.787L326.703 117.789L326.778 117.797C326.844 117.804 326.943 117.814 327.071 117.828C327.328 117.857 327.701 117.902 328.166 117.964C329.096 118.087 330.39 118.281 331.843 118.559C334.77 119.12 338.266 120.011 340.752 121.331C343.568 122.826 346.369 124.602 348.456 126.604C350.553 128.614 351.834 130.76 351.834 133.001C351.834 135.495 351.528 138.776 351.217 141.454C351.063 142.789 350.908 143.966 350.792 144.809C350.754 145.088 350.719 145.331 350.691 145.53C350.639 145.53 350.585 145.531 350.527 145.531C350.009 145.536 349.257 145.54 348.317 145.539C346.438 145.537 343.814 145.514 340.834 145.429C334.864 145.26 327.504 144.846 321.849 143.875C316.611 142.974 310.624 140.999 305.925 139.236C303.58 138.357 301.565 137.534 300.137 136.931C299.423 136.63 298.856 136.384 298.468 136.213C298.37 136.17 298.284 136.132 298.209 136.099C298.186 135.998 298.158 135.877 298.128 135.74C298.029 135.29 297.897 134.662 297.771 133.946C297.515 132.499 297.288 130.754 297.356 129.416L297.36 129.338C297.425 128.049 297.485 126.856 297.665 125.805C297.849 124.731 298.145 123.902 298.622 123.323C298.824 123.077 299.363 122.672 300.258 122.161C301.122 121.668 302.235 121.121 303.496 120.575C306.018 119.482 309.085 118.41 311.849 117.771C314.612 117.132 318.291 117.126 321.329 117.291C322.837 117.373 324.169 117.496 325.124 117.599C325.601 117.65 325.983 117.697 326.245 117.73C326.376 117.746 326.477 117.76 326.544 117.769L326.621 117.779L326.64 117.782L326.644 117.782L326.645 117.783L326.645 117.783Z" fill="#D9D9D9" stroke="black" stroke-width="1.5"/>
<path d="M297.497 124.217C297.497 124.217 310.475 131.718 323.449 133.949C339.41 136.693 352.463 135.26 352.463 135.26" stroke="#070707"/>
<path d="M302.885 126.698C302.885 126.698 301.378 130.105 300.913 132.278C300.438 134.498 300.567 137.76 300.567 137.76" stroke="black" stroke-width="0.5"/>
<path d="M308.365 129.253C308.365 129.253 306.879 132.559 306.427 134.671C305.966 136.828 306.113 140.003 306.113 140.003" stroke="black" stroke-width="0.5"/>
<path d="M313.972 131.389C313.972 131.389 312.501 134.625 312.058 136.693C311.606 138.807 311.765 141.921 311.765 141.921" stroke="black" stroke-width="0.5"/>
<path d="M319.513 133.221C319.513 133.221 318.567 136.074 318.137 138.083C317.697 140.136 317.369 143.452 317.369 143.452" stroke="#0A0A0A" stroke-width="0.5"/>
<path d="M325.969 134.351C325.969 134.351 325.48 137.445 325.039 139.504C324.589 141.609 323.772 144.836 323.772 144.836" stroke="black" stroke-width="0.5"/>
<path d="M332.948 135.129C332.948 135.129 332.644 138.203 332.326 140.256C332.001 142.354 331.378 145.577 331.378 145.577" stroke="black" stroke-width="0.5"/>
<path d="M339.284 135.858C339.284 135.858 339.157 138.829 338.898 140.997C338.652 143.053 337.964 146.041 337.964 146.041" stroke="black" stroke-width="0.5"/>
<path d="M345.84 135.621C345.84 135.621 345.738 138.466 345.497 140.54C345.269 142.507 344.607 145.363 344.607 145.363" stroke="#060606" stroke-width="0.5"/>
</svg>
