<svg width="135" height="130" viewBox="0 0 135 130" fill="none" xmlns="http://www.w3.org/2000/svg">
<g clip-path="url(#clip0_565_18675)">
<rect width="135" height="130" fill="white"/>
<rect x="-369.5" y="-184.5" width="524" height="498" rx="18.5" fill="#FDFFEF" stroke="black" stroke-width="3"/>
<path fill-rule="evenodd" clip-rule="evenodd" d="M14.6361 -17.3145C10.1865 -19.0668 5.8888 -21.2437 1.74294 -23.8453C-2.57913 -28.3232 -6.87684 -32.6771 -11.1502 -36.9068C-17.836 -37.8744 -24.5204 -37.8744 -31.2062 -36.9068C-32.8164 -36.5452 -34.249 -35.8195 -35.5039 -34.7299C-38.369 -28.4411 -41.2342 -22.1521 -44.0993 -15.8632C-40.5336 -8.48649 -41.9662 -1.95571 -48.397 3.72911C-63.2069 12.7532 -78.4881 13.9636 -94.2393 7.35732C-83.76 8.68524 -73.255 8.9276 -62.7227 8.08296C-55.2146 6.28482 -49.2451 2.17319 -44.8156 -4.25295C-43.8257 -9.36336 -44.542 -14.2009 -46.9644 -18.7658C-43.9188 -25.0321 -40.5766 -31.321 -36.9365 -37.6325C-26.2395 -43.5463 -15.733 -43.3044 -5.41991 -36.9068C0.349048 -30.1002 7.03485 -24.295 14.6361 -19.4914C16.4096 -18.49 16.4096 -17.7644 14.6361 -17.3145Z" fill="black"/>
<path opacity="0.882" fill-rule="evenodd" clip-rule="evenodd" d="M4.60782 -2.80163C8.20213 -0.738917 11.5458 1.67979 14.6358 4.45479C9.42555 4.47366 5.12784 2.53881 1.74268 -1.35034C2.39736 -2.50774 3.35288 -2.9916 4.60782 -2.80163Z" fill="black"/>
<path fill-rule="evenodd" clip-rule="evenodd" d="M8.90594 8.80859C10.3743 25.2125 3.21147 32.9521 -12.5826 32.0291C-11.4738 38.2392 -10.7575 44.529 -10.4338 50.8958C-6.98843 52.0191 -3.407 52.7448 0.310517 53.0727C-1.68219 56.5413 -4.54733 58.9606 -8.2849 60.3292C-7.02281 61.3567 -6.06872 62.567 -5.41976 63.9574C-8.1746 63.5292 -10.5627 62.3203 -12.5826 60.3292C-9.95815 59.2436 -7.57005 57.7923 -5.41976 55.9753C-8.78344 55.4732 -11.4093 53.7795 -13.2989 50.8958C-13.6155 44.0458 -14.3318 37.2726 -15.4478 30.5778C-4.225 31.064 3.41633 25.9845 7.47337 15.3394C5.15404 12.2046 5.63108 10.0277 8.90594 8.80859Z" fill="black"/>
<path fill-rule="evenodd" clip-rule="evenodd" d="M41.8549 -12.9604C39.0872 -9.07551 26.9103 -0.367807 28.2455 4.45495C28.7225 3.48738 29.201 2.51996 29.678 1.55239C30.2654 3.5852 30.9817 5.5202 31.8269 7.35752C19.7403 10.9088 13.533 19.1318 13.2035 32.0293C11.7967 37.0537 11.3196 42.3755 11.7709 47.9935C10.8154 45.0909 9.86129 42.1883 8.90576 39.2858C9.48739 30.639 11.6362 22.4146 15.3523 14.6139C18.5527 11.4211 22.1341 8.76091 26.0966 6.63188C24.5065 2.65943 24.2672 -1.45264 25.3803 -5.70403C28.2455 -10.0579 39.6817 -12.9451 41.8549 -12.9604Z" fill="black"/>
<path fill-rule="evenodd" clip-rule="evenodd" d="M14.6358 -17.3143C12.3408 -15.0301 9.47563 -14.0626 6.04033 -14.4118C3.93875 -15.5606 2.02913 -15.5606 0.310049 -14.4118C4.00608 -9.70335 8.78084 -6.80079 14.6358 -5.70405C11.7491 -3.63771 8.40694 -2.67014 4.60776 -2.80149C3.35283 -2.99146 2.3973 -2.5076 1.74262 -1.3502C5.12778 2.53895 9.42549 4.4738 14.6358 4.45493C16.4093 4.90483 16.4093 5.63047 14.6358 6.63186C12.8522 7.77982 10.9426 8.50547 8.90547 8.80879C5.63061 10.0279 5.15357 12.2048 7.4729 15.3396C3.41586 25.9847 -4.22547 31.0642 -15.4482 30.578C-14.3322 37.2728 -13.616 44.0459 -13.2994 50.896C-11.4098 53.7797 -8.78391 55.4733 -5.42023 55.9755C-7.57052 57.7925 -9.95861 59.2438 -12.5831 60.3293C-10.5632 62.3205 -8.17506 63.5294 -5.42023 63.9576C-3.48626 65.6265 -3.72407 66.5945 -6.13652 66.8601C-15.6803 64.3596 -16.3966 65.8108 -8.28537 71.214C-10.3669 71.8366 -12.7536 72.0789 -15.4482 71.9396C-18.2575 76.2398 -21.5997 80.1089 -25.4762 83.5499C-31.5388 86.8515 -37.2691 90.4798 -42.6671 94.4345C-43.157 95.6507 -44.1111 96.1354 -45.5322 95.8858C-48.214 100.282 -52.0346 103.425 -56.9928 105.319C-53.1148 105.779 -49.7726 104.57 -46.9648 101.691C-45.5322 104.593 -44.0996 107.496 -42.6671 110.399C-50.7467 109.426 -57.9096 111.362 -64.1556 116.204C-65.5824 116.329 -66.7758 115.844 -67.737 114.752C-68.3129 112.761 -69.0292 110.827 -69.8859 108.947C-54.692 107.271 -54.692 106.062 -69.8859 105.319C-71.986 104.398 -73.8971 103.187 -75.6162 101.691C-75.0259 103.551 -75.98 105.003 -78.4813 106.045C-83.5555 105.591 -88.3302 106.075 -92.807 107.496C-95.6392 104.247 -99.2206 102.311 -103.551 101.691C-107.189 103.29 -110.77 103.29 -114.296 101.691C-116.178 102.871 -117.85 104.322 -119.31 106.045C-119.566 98.1193 -121.715 97.1513 -125.756 103.142C-127.09 100.028 -126.611 96.8843 -124.324 93.7089C-128.872 93.7858 -132.693 92.5769 -135.784 90.0807C-132.463 89.6191 -130.552 87.6831 -130.054 84.2755C-133.972 78.3528 -137.316 72.063 -140.082 65.4088C-156.364 76.768 -169.735 73.8655 -180.194 56.7011C-177.748 53.5925 -176.554 50.2066 -176.612 46.5422C-177.627 47.8207 -178.821 48.7873 -180.194 49.4447C-183.437 50.4882 -186.779 50.9715 -190.222 50.896C-186.404 46.7816 -182.823 42.4278 -179.477 37.8345C-178.522 36.3832 -178.522 34.9319 -179.477 33.4806C-180.837 35.7925 -182.507 37.7271 -184.491 39.2857C-187.264 40.2291 -190.129 40.7123 -193.087 40.737C-185.759 32.4139 -180.506 22.9806 -177.329 12.437C-169.23 7.94092 -160.635 6.48963 -151.542 8.08314C-146.03 13.9115 -140.3 19.4743 -134.352 24.7729C-134.651 20.5308 -134.174 16.177 -132.919 11.7114C-132.615 14.4456 -131.183 16.3801 -128.621 17.5165C-127.666 10.2601 -126.712 3.00365 -125.756 -4.25277C-123.013 14.7736 -119.671 14.7736 -115.728 -4.25277C-114.773 -0.866489 -113.819 2.51994 -112.863 5.90622C-111.907 5.90622 -110.953 5.90622 -109.998 5.90622C-104.7 5.98168 -99.447 6.46641 -94.2396 7.3575C-78.4885 13.9637 -63.2072 12.7534 -48.3973 3.72929C-41.9665 -1.95553 -40.534 -8.48631 -44.0996 -15.863C-41.2345 -22.1519 -38.3693 -28.4409 -35.5042 -34.7297C-34.2493 -35.8193 -32.8167 -36.545 -31.2065 -36.9066C-24.5207 -37.8742 -17.8363 -37.8742 -11.1505 -36.9066C-6.87715 -32.6769 -2.57944 -28.323 1.74262 -23.8451C5.88848 -21.2435 10.1862 -19.0666 14.6358 -17.3143Z" fill="#DDB901"/>
<path fill-rule="evenodd" clip-rule="evenodd" d="M31.8269 7.35742C38.2735 8.80871 39.5929 9.57789 46.1526 9.53435C47.2457 10.6489 52.2596 11.3746 54.0317 11.7113C62.4395 12.0857 69.79 14.6138 77.6691 16.0651C78.9628 19.1651 80.6331 22.0676 82.6831 24.7728C83.7561 35.0726 83.0399 45.2316 80.5343 55.2498C78.4814 57.1843 76.5704 59.3613 74.804 61.7806C73.4459 62.4815 72.0134 62.7224 70.5063 62.5062C67.9449 60.8779 65.0797 60.6355 61.9109 61.7806C57.702 64.4045 53.4043 66.5814 49.0177 68.3113C42.8792 67.2838 36.6719 66.5582 30.3943 66.1344C26.4705 64.6454 23.1283 62.4685 20.3663 59.6036C18.9338 57.1843 17.0242 55.2498 14.6361 53.7985C13.3582 46.6321 12.8797 39.3756 13.2035 32.0292C13.533 19.1317 19.7403 10.9087 31.8269 7.35742Z" fill="#CC0821"/>
<path d="M70.9898 30.1176L66.0734 54.2312C65.9305 54.9324 65.3216 55.4248 64.6161 55.4109C60.732 55.3346 50.7854 55.0292 44.023 53.8609C37.3596 52.7097 28.0273 49.7254 24.2995 48.487C23.6036 48.2558 23.1831 47.5472 23.3102 46.818L27.7524 21.3384C27.9096 20.4364 28.8291 19.8838 29.7043 20.1666C32.5106 21.0733 37.5959 22.6721 42.5212 23.9934C44.5102 24.527 46.4766 25.0163 48.2584 25.3966C55.1602 26.8698 65.1996 27.8893 69.6323 28.295C70.5361 28.3777 71.1707 29.2304 70.9898 30.1176Z" fill="white" stroke="#2B2424"/>
<path d="M30.2668 29.328C30.1296 29.355 30.0181 29.3383 29.9323 29.2779C29.8465 29.2176 29.7886 29.1493 29.7587 29.0731C29.7148 28.9766 29.7143 28.8839 29.7572 28.795C29.8001 28.7061 29.8875 28.6388 30.0193 28.5932C30.2357 28.5195 30.4992 28.4768 30.8099 28.4651C31.1221 28.4448 31.4454 28.484 31.7798 28.5825C32.1141 28.6811 32.4076 28.8337 32.6603 29.0403C32.9231 29.2399 33.1311 29.4734 33.2844 29.7405C33.4462 30.0093 33.5507 30.3024 33.5977 30.62C33.6548 30.9307 33.6492 31.2472 33.5808 31.5694C33.5007 31.907 33.3695 32.2349 33.1873 32.5532C33.0135 32.8731 32.7969 33.1628 32.5373 33.4224C32.2863 33.6836 31.9974 33.9111 31.6706 34.105C31.354 34.292 31.017 34.4222 30.6596 34.4957C30.4187 34.5118 30.2425 34.4873 30.1312 34.4221C30.0198 34.357 29.9484 34.2905 29.9168 34.2228C29.9077 34.177 29.9094 34.12 29.922 34.0518C29.9447 33.9767 30.0057 33.9089 30.1051 33.8483C30.1558 33.0024 30.2392 32.1936 30.3555 31.4218C30.4819 30.6432 30.6042 29.9343 30.7224 29.2952C30.5729 29.2934 30.4211 29.3043 30.2668 29.328ZM31.69 29.4254C31.6405 29.4072 31.5859 29.3925 31.5263 29.3812C31.4767 29.363 31.4264 29.3491 31.3753 29.3394C31.4138 29.4173 31.4407 29.5105 31.4558 29.6192C31.4725 29.7194 31.4722 29.8164 31.4549 29.9101C31.3587 30.4299 31.2598 30.9889 31.158 31.587C31.0647 32.1867 30.9883 32.8381 30.9287 33.5412C31.3539 33.3395 31.7363 33.0591 32.0759 32.7C32.4257 32.3341 32.6516 31.9226 32.7538 31.4657C32.8411 31.0413 32.804 30.6462 32.6425 30.2805C32.4825 29.9062 32.165 29.6212 31.69 29.4254ZM39.14 31.2723C39.1457 31.4322 39.1459 31.6218 39.1405 31.8413C39.1368 32.0523 39.1179 32.2736 39.0838 32.5053C39.0599 32.73 39.0216 32.9609 38.9689 33.1979C38.9163 33.4349 38.8482 33.6601 38.7646 33.8736C38.6662 34.1196 38.5207 34.3346 38.328 34.5186C38.1353 34.7026 37.9125 34.8589 37.6596 34.9874C37.4151 35.1175 37.1507 35.213 36.8662 35.2738C36.5918 35.3276 36.3178 35.3552 36.0444 35.3563C35.781 35.3506 35.5239 35.3107 35.2732 35.2368C35.0325 35.1559 34.8245 35.0416 34.6491 34.8937C34.4513 34.724 34.3032 34.524 34.2048 34.2937C34.1063 34.0634 34.0932 33.8007 34.1654 33.5057C34.236 33.2192 34.3104 32.9599 34.3886 32.7277C34.4684 32.4871 34.5543 32.2608 34.6464 32.0489C34.747 31.8386 34.8519 31.6292 34.961 31.4205C35.0716 31.2033 35.1882 30.9784 35.3105 30.7458C35.3736 30.6431 35.4621 30.5937 35.5759 30.5976C35.6201 30.5972 35.6712 30.6068 35.7292 30.6267C35.7548 30.6315 35.7857 30.655 35.822 30.6971C35.8683 30.7324 35.9081 30.7796 35.9412 30.8388C35.9743 30.898 35.9974 30.9641 36.0103 31.0371C36.0317 31.1117 36.0218 31.1892 35.9805 31.2696C35.8534 31.5277 35.7256 31.7902 35.5969 32.0568C35.4682 32.3235 35.3505 32.5791 35.2436 32.8234C35.1452 33.0694 35.0686 33.293 35.0137 33.4943C34.969 33.6887 34.9619 33.8461 34.9925 33.9665C35.0732 34.1494 35.2026 34.2841 35.3805 34.3707C35.5685 34.4504 35.7721 34.4934 35.9913 34.4996C36.2105 34.5058 36.4251 34.4891 36.6352 34.4495C36.8553 34.403 37.0465 34.3465 37.2086 34.2802C37.4669 34.1704 37.6684 34.0101 37.8132 33.7993C37.9664 33.5902 38.0811 33.3517 38.1571 33.0839C38.233 32.8161 38.2816 32.5298 38.3027 32.2251C38.3323 31.922 38.3483 31.6208 38.3508 31.3214C38.348 31.2415 38.3704 31.1443 38.418 31.0298C38.4656 30.9154 38.5511 30.8345 38.6744 30.7873C38.8062 30.7417 38.9111 30.7704 38.989 30.8733C39.0754 30.9779 39.1258 31.1109 39.14 31.2723ZM45.3089 31.9903C45.1153 32.7033 44.9058 33.431 44.6804 34.1733C44.465 34.9086 44.2277 35.5957 43.9685 36.2346C43.9045 36.3901 43.8364 36.4962 43.7642 36.5531C43.692 36.61 43.5981 36.6407 43.4827 36.6453C43.3859 36.6447 43.2594 36.5898 43.1032 36.4809C42.9556 36.3736 42.8398 36.237 42.7559 36.0712C42.6474 35.8478 42.5293 35.6049 42.4015 35.3426C42.2838 35.0734 42.1491 34.8009 41.9973 34.5253C41.8557 34.2427 41.7005 33.9619 41.5317 33.683C41.3714 33.4058 41.1953 33.1431 41.0031 32.8951C40.8736 33.4526 40.749 34.0067 40.6296 34.5574C40.5117 35.0995 40.41 35.6492 40.3246 36.2063C40.3104 36.283 40.2352 36.3084 40.0989 36.2826C39.9371 36.252 39.8201 36.146 39.7478 35.9648C39.6772 35.775 39.6491 35.5933 39.6636 35.4197C39.6695 35.2444 39.7017 34.9991 39.76 34.6838C39.8199 34.36 39.8864 34.0242 39.9595 33.6765C40.0412 33.3303 40.1205 32.997 40.1974 32.6764C40.2743 32.3558 40.3386 32.1034 40.3903 31.9191C40.4452 31.7179 40.5196 31.5776 40.6136 31.4984C40.7161 31.4208 40.8049 31.3935 40.88 31.4165C41.0471 31.4658 41.1484 31.5379 41.1837 31.6328C41.2292 31.7207 41.2451 31.8252 41.2315 31.9461C41.4972 32.2257 41.7341 32.5175 41.9423 32.8215C42.159 33.1271 42.3494 33.4321 42.5134 33.7366C42.686 34.0427 42.8373 34.3447 42.9672 34.6427C43.1073 34.9338 43.2386 35.2012 43.361 35.4449C43.5577 34.953 43.7442 34.3973 43.9205 33.7781C44.1052 33.1604 44.2955 32.5129 44.4913 31.8355C44.4986 31.7487 44.5646 31.6774 44.6895 31.6217C44.816 31.5575 44.9253 31.5385 45.0174 31.5647C45.2527 31.6269 45.3499 31.7688 45.3089 31.9903ZM46.3097 32.365C46.1725 32.3919 46.061 32.3752 45.9752 32.3149C45.8894 32.2546 45.8315 32.1863 45.8015 32.11C45.7577 32.0135 45.7572 31.9208 45.8001 31.8319C45.843 31.7431 45.9303 31.6758 46.0622 31.6302C46.2785 31.5565 46.5421 31.5138 46.8527 31.502C47.165 31.4818 47.4883 31.5209 47.8226 31.6195C48.157 31.7181 48.4505 31.8706 48.7032 32.0772C48.9659 32.2769 49.174 32.5103 49.3273 32.7775C49.4891 33.0462 49.5936 33.3394 49.6406 33.657C49.6977 33.9677 49.6921 34.2841 49.6237 34.6063C49.5436 34.944 49.4124 35.2719 49.2301 35.5902C49.0564 35.9101 48.8397 36.1998 48.5802 36.4594C48.3291 36.7205 48.0403 36.9481 47.7135 37.142C47.3969 37.329 47.0599 37.4592 46.7025 37.5327C46.4615 37.5488 46.2854 37.5243 46.174 37.4591C46.0627 37.3939 45.9912 37.3275 45.9597 37.2598C45.9505 37.2139 45.9523 37.1569 45.9649 37.0888C45.9876 37.0137 46.0486 36.9459 46.1479 36.8853C46.1986 36.0394 46.2821 35.2306 46.3984 34.4588C46.5248 33.6801 46.6471 32.9713 46.7653 32.3322C46.6158 32.3303 46.4639 32.3413 46.3097 32.365ZM47.7328 32.4624C47.6833 32.4442 47.6288 32.4295 47.5691 32.4182C47.5196 32.4 47.4693 32.3861 47.4182 32.3764C47.4567 32.4542 47.4835 32.5475 47.4987 32.6562C47.5154 32.7564 47.5151 32.8534 47.4978 32.9471C47.4016 33.4669 47.3027 34.0258 47.2008 34.6239C47.1075 35.2237 47.0311 35.8751 46.9716 36.5782C47.3968 36.3764 47.7792 36.096 48.1188 35.737C48.4686 35.3711 48.6945 34.9596 48.7966 34.5027C48.884 34.0782 48.8469 33.6831 48.6853 33.3174C48.5254 32.9432 48.2079 32.6582 47.7328 32.4624ZM54.2694 35.8165C54.2877 35.9082 54.2379 35.987 54.12 36.0528C54.0036 36.1102 53.8323 36.1307 53.6062 36.1143C53.2135 36.0929 52.8115 36.0741 52.4002 36.058C51.9905 36.0333 51.5714 36.0114 51.1431 35.992C51.0457 36.4234 50.9653 36.858 50.902 37.2958C51.0978 37.3328 51.3352 37.3601 51.614 37.3776C51.9029 37.3882 52.1977 37.3911 52.4983 37.3863C52.7989 37.3814 53.0867 37.3742 53.3617 37.3645C53.6468 37.3479 53.887 37.3361 54.0823 37.3289C54.1807 37.3211 54.2818 37.3226 54.3855 37.3334C54.4909 37.3357 54.5803 37.3527 54.6538 37.3842C54.7374 37.4089 54.8 37.4516 54.8416 37.5124C54.8833 37.5732 54.8954 37.6504 54.8781 37.7442C54.8734 37.7697 54.8365 37.8024 54.7674 37.8423C54.6983 37.8821 54.6114 37.923 54.5067 37.9649C54.4121 37.9999 54.309 38.0333 54.1973 38.0651C54.0958 38.09 54.0043 38.1079 53.9229 38.119C53.3634 38.1895 52.8163 38.2402 52.2817 38.2713C51.7486 38.2939 51.2386 38.2635 50.7516 38.1801C50.469 38.1355 50.2695 38.0227 50.1531 37.8419C50.0383 37.6526 50.0042 37.408 50.0508 37.1082C50.111 36.6874 50.189 36.2656 50.2849 35.8428C50.1558 35.7301 50.1055 35.5971 50.1339 35.4438C50.1809 35.2851 50.278 35.1888 50.4253 35.155C50.488 34.9111 50.5465 34.6664 50.6007 34.4209C50.6565 34.1668 50.7158 33.9179 50.7785 33.674C50.688 33.6392 50.6115 33.5762 50.5491 33.485C50.4951 33.3954 50.4768 33.3038 50.4941 33.21C50.5083 33.1333 50.538 33.0684 50.5831 33.0152C50.6297 32.9535 50.7031 32.9144 50.8031 32.8981C50.9627 32.893 51.1571 32.8901 51.3864 32.8895C51.6157 32.8888 51.8485 32.8931 52.0847 32.9026C52.3295 32.9136 52.5607 32.9265 52.7783 32.9413C53.0045 32.9576 53.195 32.9761 53.3499 32.9966C53.5319 33.0134 53.699 33.0627 53.8514 33.1444C54.0122 33.2278 54.1517 33.3556 54.2697 33.5279C54.2817 33.6536 54.2396 33.7383 54.1434 33.7818C54.0557 33.8269 53.9464 33.8459 53.8155 33.8388C53.6846 33.8316 53.5274 33.8239 53.3438 33.8156C53.1618 33.7988 52.9705 33.7847 52.7699 33.7731C52.5778 33.7632 52.3815 33.7525 52.1809 33.741C51.9904 33.7226 51.8076 33.71 51.6325 33.7034C51.6294 33.7204 51.6254 33.7417 51.6207 33.7673C51.6261 33.7859 51.6272 33.8038 51.624 33.8208C51.566 34.0391 51.5123 34.2583 51.4628 34.4782C51.4133 34.6982 51.3638 34.9181 51.3143 35.138C51.683 35.1461 52.0587 35.1643 52.4413 35.1926C52.8254 35.2124 53.1298 35.2348 53.3544 35.2596C53.5364 35.2765 53.707 35.3308 53.8663 35.4227C54.0256 35.5146 54.16 35.6459 54.2694 35.8165ZM56.1246 39.2369C56.1573 38.9168 56.2022 38.5549 56.2593 38.1512C56.3248 37.7491 56.3962 37.3392 56.4734 36.9217C56.5523 36.4956 56.6295 36.0781 56.7051 35.6691C56.7893 35.2616 56.8706 34.8934 56.9491 34.5643C56.9649 34.4791 57.015 34.4224 57.0996 34.3943C57.1942 34.3593 57.2663 34.3509 57.3158 34.3691C57.4659 34.4152 57.5579 34.4899 57.5916 34.5933C57.6355 34.6898 57.651 34.8206 57.638 34.9857C57.5791 35.2568 57.5201 35.5279 57.4612 35.7989C57.4108 36.0716 57.3646 36.3451 57.3227 36.6194C57.7185 36.6238 58.0639 36.5436 58.3588 36.379C58.6622 36.2159 58.8944 36.0085 59.0556 35.7568C59.1171 35.6626 59.1697 35.5447 59.2136 35.4031C59.2659 35.263 59.297 35.119 59.3067 34.9709C59.3181 34.8143 59.3015 34.6656 59.257 34.5249C59.2226 34.3773 59.1486 34.253 59.0351 34.1522C58.8682 34.0059 58.6748 33.9076 58.455 33.8571C58.2351 33.8067 57.9989 33.7973 57.7463 33.8288C57.5037 33.8534 57.2533 33.9207 56.995 34.0306C56.7452 34.142 56.5026 34.2857 56.2674 34.4617C56.2693 34.5943 56.231 34.7061 56.1524 34.7971C56.0755 34.8796 55.9777 34.9316 55.8591 34.9533C55.7878 34.9574 55.7132 34.908 55.6353 34.8051C55.559 34.6936 55.5295 34.591 55.5468 34.4973C55.6099 34.1564 55.7579 33.8802 55.991 33.6685C56.2341 33.45 56.5162 33.2829 56.8373 33.1673C57.1584 33.0516 57.4929 32.9827 57.8408 32.9603C58.1887 32.938 58.5031 32.9534 58.7842 33.0066C59.2015 33.0856 59.5278 33.2753 59.7631 33.5756C60 33.8674 60.1357 34.2062 60.1701 34.5919C60.2308 35.2649 60.0775 35.8312 59.7104 36.2909C59.3519 36.7522 58.8356 37.1131 58.1616 37.3735C58.554 37.7301 58.919 38.0681 59.2565 38.3878C59.6025 38.7091 59.9446 39.0517 60.2828 39.4156C60.3244 39.4764 60.3656 39.5635 60.4063 39.6771C60.4571 39.7837 60.4218 39.9269 60.3004 40.1068C60.2272 40.2164 60.1252 40.2677 59.9943 40.2605C59.8735 40.2465 59.7614 40.1856 59.6579 40.0778C59.4989 39.8889 59.3151 39.691 59.1066 39.4839C58.9082 39.27 58.6962 39.0579 58.4707 38.8476C58.2467 38.6288 58.0212 38.4186 57.7941 38.2168C57.5685 38.0065 57.3534 37.8115 57.1487 37.6316C57.0941 37.9741 57.0354 38.3157 56.9723 38.6566C56.9194 38.9905 56.8715 39.321 56.8286 39.648C56.8065 39.7673 56.7567 39.8461 56.6791 39.8843C56.6031 39.914 56.514 39.9192 56.4118 39.8999C56.3623 39.8817 56.3202 39.8472 56.2855 39.7966C56.2524 39.7374 56.22 39.6739 56.1885 39.6062C56.167 39.5316 56.149 39.4621 56.1345 39.3976C56.1216 39.3246 56.1183 39.271 56.1246 39.2369ZM65.1589 38.4468C65.151 38.4894 65.0963 38.5231 64.9947 38.548C64.9017 38.5745 64.8168 38.5805 64.7402 38.566C64.1765 38.4681 63.6403 38.3886 63.1316 38.3276C62.6228 38.2666 62.1252 38.2165 61.6389 38.1773C61.5436 38.1681 61.464 38.1222 61.3999 38.0395C61.3444 37.9584 61.3168 37.8694 61.3171 37.7725C61.3158 37.684 61.3358 37.5996 61.3772 37.5192C61.4286 37.4319 61.4992 37.3836 61.5891 37.3741C62.0919 37.3723 62.629 37.399 63.2005 37.4543C63.7721 37.5096 64.3326 37.6245 64.882 37.7991C64.9145 37.814 64.9532 37.8434 64.998 37.8872C65.0443 37.9224 65.0841 37.9696 65.1172 38.0288C65.1519 38.0795 65.1757 38.1413 65.1887 38.2143C65.2016 38.2873 65.1917 38.3648 65.1589 38.4468ZM33.1879 37.9825C33.1795 38.6953 33.1413 39.4024 33.0732 40.104C33.0067 40.7969 32.9275 41.4875 32.8355 42.1757C32.8298 42.254 32.8087 42.3205 32.7721 42.3753C32.7371 42.4216 32.6943 42.462 32.6439 42.4966C32.6019 42.5328 32.5573 42.5596 32.51 42.5771C32.4712 42.5962 32.439 42.6033 32.4135 42.5985C32.3198 42.5808 32.234 42.5204 32.1561 42.4175C32.0883 42.3076 32.0592 42.1787 32.069 42.0306C32.1033 41.7019 32.1377 41.3733 32.172 41.0446C32.2064 40.716 32.2365 40.3865 32.2623 40.0563C31.3224 40.1341 30.3369 40.1725 29.3058 40.1713C29.3052 40.3652 29.3046 40.5591 29.304 40.7531C29.3034 40.947 29.307 41.1417 29.3149 41.3372C29.3171 41.3729 29.3111 41.4291 29.2969 41.5058C29.2913 41.5841 29.272 41.6643 29.2393 41.7462C29.215 41.8298 29.1745 41.906 29.1177 41.9746C29.071 42.0363 29.0062 42.077 28.9233 42.0965C28.8535 42.0922 28.7851 42.0572 28.7179 41.9915C28.6507 41.9259 28.6091 41.8651 28.593 41.8091C28.5396 41.5256 28.5 41.1918 28.4741 40.8076C28.4567 40.4251 28.451 40.0271 28.457 39.6137C28.473 39.1934 28.5068 38.7721 28.5585 38.3497C28.6102 37.9273 28.68 37.526 28.768 37.1458C28.8087 37.0212 28.872 36.9406 28.9581 36.904C29.0543 36.8604 29.1365 36.8451 29.2046 36.858C29.2813 36.8725 29.3404 36.9102 29.3821 36.971C29.4322 37.0334 29.4672 37.1062 29.4871 37.1893C29.507 37.2725 29.5184 37.354 29.5212 37.4339C29.5241 37.5138 29.5208 37.5793 29.5113 37.6305C29.4694 37.9048 29.4325 38.1756 29.4007 38.443C29.3689 38.7104 29.3498 38.9802 29.3435 39.2524C29.7889 39.275 30.2765 39.2835 30.8064 39.278C31.3379 39.2639 31.8419 39.2314 32.3185 39.1805C32.3377 38.9813 32.3527 38.7813 32.3634 38.5805C32.3756 38.3711 32.3871 38.1661 32.3978 37.9652C32.4246 37.8204 32.4908 37.7006 32.5965 37.606C32.7107 37.5129 32.8146 37.4753 32.9083 37.493C32.9764 37.5059 33.0382 37.5529 33.0937 37.6339C33.1578 37.7166 33.1892 37.8328 33.1879 37.9825ZM38.5984 41.4806C38.5032 41.7096 38.367 41.9219 38.1897 42.1177C38.0226 42.3065 37.8365 42.4785 37.6315 42.6338C37.4265 42.789 37.2092 42.9154 36.9796 43.0131C36.7585 43.1123 36.5387 43.181 36.3201 43.219C35.9202 43.2844 35.5368 43.2603 35.1699 43.1468C34.8132 43.0263 34.5168 42.7938 34.2809 42.4493C34.1291 42.1736 34.0383 41.8786 34.0083 41.5642C33.9868 41.2515 34.0044 40.9417 34.0611 40.6349C34.128 40.3213 34.2265 40.0268 34.3567 39.7516C34.4955 39.478 34.65 39.2383 34.8203 39.0324C35.024 38.7887 35.2489 38.5976 35.4949 38.4589C35.7409 38.3203 35.9948 38.2581 36.2566 38.2724C36.3279 38.2682 36.3801 38.2957 36.4132 38.3549C36.4463 38.4141 36.4566 38.4778 36.444 38.546C36.5449 38.4769 36.6887 38.438 36.8755 38.4292C37.0622 38.4205 37.2631 38.4541 37.4782 38.5301C37.8775 38.6586 38.1783 38.8434 38.3805 39.0845C38.5827 39.3257 38.7147 39.5888 38.7766 39.8739C38.8485 40.1521 38.8577 40.4361 38.8041 40.7258C38.7606 41.0086 38.6921 41.2602 38.5984 41.4806ZM36.1398 39.1896C35.9553 39.234 35.7893 39.3216 35.6417 39.4524C35.5042 39.5763 35.3798 39.7248 35.2684 39.8977C35.1656 40.0723 35.081 40.268 35.0144 40.4847C34.958 40.6945 34.9194 40.9032 34.8986 41.111C34.869 41.4141 34.9127 41.6781 35.0297 41.9031C35.1484 42.1196 35.3695 42.2585 35.6931 42.3197C35.8805 42.3552 36.0699 42.3558 36.2613 42.3215C36.4629 42.2802 36.6513 42.2145 36.8267 42.1242C37.002 42.0339 37.1686 41.9199 37.3262 41.7822C37.4855 41.636 37.62 41.4806 37.7298 41.3162C37.7897 41.2305 37.845 41.1219 37.8958 40.9904C37.9481 40.8504 37.9834 40.7072 38.0017 40.5607C38.0216 40.4057 38.0143 40.2544 37.9799 40.1067C37.9455 39.9591 37.8731 39.8264 37.7627 39.7084C37.6075 39.5468 37.4088 39.4298 37.1665 39.3575C36.9243 39.2851 36.6543 39.2914 36.3566 39.3761C36.2992 39.4005 36.238 39.3978 36.173 39.3678C36.1181 39.331 36.1071 39.2715 36.1398 39.1896ZM45.0891 40.0899C44.8955 40.8029 44.686 41.5306 44.4605 42.2728C44.2452 43.0082 44.0079 43.6953 43.7487 44.3342C43.6847 44.4896 43.6166 44.5958 43.5444 44.6527C43.4722 44.7096 43.3783 44.7403 43.2629 44.7449C43.1661 44.7442 43.0396 44.6894 42.8834 44.5805C42.7358 44.4732 42.62 44.3366 42.5361 44.1708C42.4276 43.9474 42.3094 43.7045 42.1817 43.4422C42.064 43.173 41.9293 42.9005 41.7775 42.6249C41.6359 42.3423 41.4807 42.0615 41.3119 41.7826C41.1516 41.5053 40.9754 41.2427 40.7833 40.9946C40.6538 41.5522 40.5292 42.1063 40.4098 42.657C40.2919 43.1991 40.1902 43.7487 40.1048 44.3058C40.0906 44.3825 40.0154 44.408 39.8791 44.3822C39.7173 44.3516 39.6003 44.2456 39.528 44.0644C39.4574 43.8746 39.4293 43.6929 39.4437 43.5192C39.4497 43.344 39.4819 43.0987 39.5402 42.7834C39.6001 42.4596 39.6666 42.1238 39.7397 41.7761C39.8214 41.4299 39.9007 41.0966 39.9776 40.776C40.0545 40.4554 40.1188 40.203 40.1705 40.0187C40.2254 39.8174 40.2998 39.6772 40.3938 39.598C40.4963 39.5203 40.5851 39.4931 40.6601 39.5161C40.8273 39.5654 40.9286 39.6375 40.9639 39.7323C41.0093 39.8203 41.0253 39.9248 41.0117 40.0457C41.2773 40.3253 41.5142 40.6171 41.7225 40.9211C41.9392 41.2267 42.1296 41.5317 42.2936 41.8362C42.4662 42.1423 42.6174 42.4443 42.7474 42.7423C42.8875 43.0334 43.0187 43.3008 43.1412 43.5445C43.3379 43.0525 43.5244 42.4969 43.7007 41.8776C43.8854 41.26 44.0757 40.6125 44.2715 39.9351C44.2787 39.8483 44.3448 39.777 44.4697 39.7213C44.5962 39.657 44.7055 39.638 44.7976 39.6643C45.0329 39.7265 45.13 39.8684 45.0891 40.0899ZM50.3348 41.5327C50.3405 41.6926 50.3407 41.8822 50.3353 42.1017C50.3316 42.3127 50.3127 42.534 50.2787 42.7657C50.2547 42.9905 50.2164 43.2213 50.1638 43.4583C50.1111 43.6953 50.043 43.9205 49.9595 44.134C49.8611 44.38 49.7155 44.595 49.5228 44.779C49.3301 44.963 49.1073 45.1193 48.8544 45.2478C48.61 45.3779 48.3455 45.4734 48.061 45.5342C47.7866 45.5881 47.5127 45.6156 47.2392 45.6167C46.9758 45.611 46.7188 45.5711 46.468 45.4972C46.2273 45.4164 46.0193 45.302 45.8439 45.1542C45.6461 44.9844 45.498 44.7844 45.3996 44.5541C45.3012 44.3238 45.2881 44.0611 45.3602 43.7661C45.4309 43.4796 45.5053 43.2203 45.5835 42.9881C45.6632 42.7475 45.7492 42.5212 45.8412 42.3093C45.9418 42.0991 46.0467 41.8896 46.1558 41.6809C46.2665 41.4638 46.383 41.2389 46.5053 41.0063C46.5684 40.9035 46.6569 40.8541 46.7707 40.8581C46.8149 40.8576 46.866 40.8673 46.924 40.8871C46.9496 40.8919 46.9805 40.9154 47.0168 40.9575C47.0631 40.9928 47.1029 41.04 47.136 41.0992C47.1691 41.1584 47.1922 41.2245 47.2051 41.2975C47.2266 41.3721 47.2166 41.4496 47.1753 41.53C47.0483 41.7881 46.9204 42.0506 46.7917 42.3173C46.6631 42.584 46.5453 42.8395 46.4384 43.0838C46.34 43.3298 46.2634 43.5534 46.2085 43.7547C46.1638 43.9491 46.1567 44.1065 46.1873 44.227C46.2681 44.4098 46.3974 44.5445 46.5753 44.6311C46.7633 44.7108 46.9669 44.7538 47.1861 44.76C47.4053 44.7662 47.62 44.7495 47.83 44.7099C48.0502 44.6634 48.2413 44.607 48.4034 44.5406C48.6617 44.4308 48.8633 44.2705 49.008 44.0598C49.1613 43.8506 49.2759 43.6122 49.3519 43.3443C49.4279 43.0765 49.4764 42.7902 49.4975 42.4855C49.5271 42.1824 49.5432 41.8812 49.5457 41.5818C49.5428 41.5019 49.5652 41.4047 49.6128 41.2902C49.6604 41.1758 49.7459 41.0949 49.8692 41.0477C50.001 41.0021 50.1059 41.0308 50.1838 41.1337C50.2703 41.2383 50.3206 41.3713 50.3348 41.5327ZM56.5037 42.2507C56.3101 42.9638 56.1006 43.6914 55.8752 44.4337C55.6598 45.169 55.4226 45.8562 55.1634 46.495C55.0994 46.6505 55.0312 46.7566 54.959 46.8135C54.8868 46.8704 54.793 46.9012 54.6775 46.9058C54.5807 46.9051 54.4542 46.8503 54.2981 46.7413C54.1504 46.634 54.0347 46.4974 53.9508 46.3316C53.8422 46.1082 53.7241 45.8654 53.5963 45.603C53.4786 45.3338 53.3439 45.0614 53.1922 44.7857C53.0505 44.5031 52.8953 44.2224 52.7265 43.9435C52.5663 43.6662 52.3901 43.4035 52.198 43.1555C52.0684 43.713 51.9439 44.2672 51.8244 44.8178C51.7065 45.36 51.6048 45.9096 51.5194 46.4667C51.5052 46.5434 51.43 46.5688 51.2938 46.543C51.1319 46.5124 51.0149 46.4065 50.9427 46.2252C50.872 46.0354 50.8439 45.8537 50.8584 45.6801C50.8644 45.5048 50.8965 45.2595 50.9548 44.9442C51.0147 44.6204 51.0812 44.2847 51.1544 43.9369C51.236 43.5907 51.3153 43.2574 51.3922 42.9368C51.4692 42.6162 51.5335 42.3638 51.5852 42.1796C51.64 41.9783 51.7145 41.838 51.8084 41.7588C51.9109 41.6812 51.9997 41.6539 52.0748 41.6769C52.242 41.7262 52.3432 41.7983 52.3786 41.8932C52.424 41.9812 52.4399 42.0856 52.4264 42.2065C52.692 42.4861 52.9289 42.7779 53.1371 43.0819C53.3538 43.3875 53.5442 43.6925 53.7083 43.997C53.8808 44.3031 54.0321 44.6051 54.1621 44.9031C54.3022 45.1943 54.4334 45.4616 54.5558 45.7053C54.7526 45.2134 54.9391 44.6578 55.1153 44.0385C55.3001 43.4208 55.4903 42.7733 55.6861 42.096C55.6934 42.0091 55.7595 41.9379 55.8843 41.8821C56.0108 41.8179 56.1201 41.7989 56.2122 41.8251C56.4475 41.8873 56.5447 42.0292 56.5037 42.2507ZM59.3154 44.7013C59.2728 44.6932 59.2182 44.6785 59.1517 44.657C59.0952 44.6287 59.0395 44.5961 58.9847 44.5593C58.9399 44.5155 58.9001 44.4683 58.8654 44.4176C58.8323 44.3585 58.8205 44.3033 58.8299 44.2522C58.8425 44.184 58.8958 44.1103 58.9898 44.0311C59.0939 43.9449 59.2443 43.894 59.4411 43.8784C59.7077 43.8671 59.9822 43.8838 60.2648 43.9285C60.549 43.9646 60.8301 44.0178 61.108 44.0881C61.3874 44.1498 61.661 44.2192 61.9288 44.2964C62.1982 44.365 62.4513 44.4262 62.6882 44.4798C62.8245 44.5056 62.9092 44.5481 62.9423 44.6073C62.9754 44.6665 62.9857 44.7302 62.9731 44.7984C62.9447 44.9517 62.8545 45.0581 62.7025 45.1176C62.5505 45.177 62.4071 45.1895 62.2724 45.1552C62.1292 45.1193 61.9767 45.086 61.8149 45.0554C61.6616 45.0263 61.4998 44.9957 61.3295 44.9635C61.2853 45.2021 61.2442 45.4721 61.2061 45.7736C61.178 46.0681 61.1492 46.367 61.1196 46.67C61.09 46.9731 61.0627 47.2634 61.0379 47.5409C61.0215 47.8201 61.0087 48.0558 60.9996 48.2481C61.004 48.3195 60.9752 48.3802 60.9131 48.4301C60.861 48.4732 60.7882 48.4859 60.6945 48.4681C60.5156 48.4343 60.4041 48.2985 60.3599 48.0608C60.2754 47.6127 60.2486 47.1137 60.2798 46.564C59.7679 46.7581 59.2842 46.8474 58.8288 46.8317C58.3733 46.816 57.9754 46.7275 57.6351 46.566C57.3048 46.3977 57.0511 46.1733 56.8738 45.8927C56.7066 45.6053 56.6553 45.2869 56.7199 44.9376C56.7814 44.6052 56.9072 44.2586 57.0973 43.8977C57.2875 43.5368 57.5264 43.1984 57.814 42.8824C58.1016 42.5665 58.4212 42.2918 58.7729 42.0585C59.1346 41.8183 59.5171 41.657 59.9201 41.5745C60.0542 41.5646 60.1742 41.5829 60.2802 41.6295C60.3963 41.6691 60.4948 41.7318 60.5759 41.8177C60.6671 41.8967 60.7423 41.9904 60.8016 42.0986C60.871 42.1999 60.9276 42.2988 60.9715 42.3953C61.0031 42.4631 61.0168 42.5318 61.0127 42.6016C61.0086 42.6714 60.9712 42.7304 60.9006 42.7788C60.7555 42.8484 60.6464 42.8189 60.5732 42.6904C60.4615 42.484 60.3577 42.3541 60.2618 42.3007C60.176 42.2403 60.0377 42.2494 59.8469 42.328C59.6545 42.415 59.4333 42.5628 59.1832 42.7712C58.9346 42.9711 58.6934 43.2032 58.4594 43.4676C58.2355 43.7251 58.0433 44.0018 57.8827 44.2978C57.7238 44.5852 57.6369 44.8642 57.6222 45.1348C57.6051 45.3697 57.7022 45.5601 57.9132 45.7059C58.1258 45.8431 58.3777 45.9349 58.6688 45.9812C58.9684 46.0291 59.2725 46.0293 59.5809 45.9819C59.8979 45.936 60.1531 45.8432 60.3464 45.7034C60.3647 45.557 60.383 45.4105 60.4013 45.264C60.4211 45.109 60.4444 44.9591 60.4712 44.8142C60.2807 44.7958 60.0902 44.7774 59.8997 44.759C59.7108 44.732 59.516 44.7128 59.3154 44.7013Z" fill="black"/>
<path d="M42.8917 25.9702L41.2304 22.8616L43.5315 22.5065L42.8917 25.9702Z" fill="#CC0821"/>
<path d="M41.1178 24.8887L39.9262 22.1589L41.9093 22.0218L41.1178 24.8887Z" fill="#CC0821"/>
<path d="M26.381 35.0007L23.9442 35.3878L24.4226 33.4778L26.381 35.0007Z" fill="#CC0821"/>
<path d="M33.4623 49.1308L33.1762 52.6899L31.3521 51.9771L33.4623 49.1308Z" fill="#CC0821"/>
<path fill-rule="evenodd" clip-rule="evenodd" d="M13.2035 32.0293C12.8798 39.3757 13.3582 46.6321 14.6361 53.7986C12.3382 52.6564 11.3827 50.7218 11.7709 47.9934C11.3197 42.3755 11.7967 37.0536 13.2035 32.0293Z" fill="black"/>
<path fill-rule="evenodd" clip-rule="evenodd" d="M8.90586 39.2858C9.86139 42.1884 10.8155 45.091 11.771 47.9935C11.3828 50.7219 12.3383 52.6565 14.6361 53.7987C15.1132 57.1845 17.0242 59.1205 20.3664 59.6038C23.1284 62.4686 26.4706 64.6455 30.3944 66.1346C36.6719 66.5583 42.8793 67.284 49.0178 68.3115C51.5191 69.3535 52.4732 70.8048 51.883 72.6653C56.3984 66.1694 62.6058 62.7821 70.5064 62.5064C72.0134 62.7226 73.446 62.4817 74.8041 61.7807C76.5705 59.3614 78.4815 57.1845 80.5344 55.2499C81.5687 54.6433 82.285 53.6767 82.6832 52.3474C84.2791 59.7663 81.891 65.5715 75.5204 69.7628C75.0433 68.3115 74.5649 66.8602 74.0878 65.4089C73.9202 73.2488 70.3388 78.813 63.3435 82.0987C53.4832 85.5208 43.4552 86.4888 33.2596 85.0013C34.2151 85.4845 35.1692 85.9693 36.1247 86.4525C21.5841 101.523 3.91622 108.296 -16.8804 106.771C-22.1336 101.678 -27.3854 96.3561 -32.6387 90.8064C-20.1481 82.7068 -7.01572 75.6927 6.75701 69.7628C7.27417 65.3726 7.99045 61.0188 8.90586 56.7012C7.26271 53.3546 5.35309 50.2096 3.17558 47.2679C3.2028 44.6077 4.15689 42.4308 6.04072 40.7371C6.53066 39.5209 7.48475 39.0362 8.90586 39.2858Z" fill="#DCB802"/>
<path fill-rule="evenodd" clip-rule="evenodd" d="M-39.8015 123.46C-33.905 128.57 -27.6963 129.055 -21.1781 124.912C-20.701 124.912 -20.2225 124.912 -19.7455 124.912C-16.9176 122.114 -14.7687 118.728 -13.2989 114.753C-9.4052 118.049 -6.7793 122.16 -5.41979 127.089C7.34441 131.988 17.1346 140.453 23.9479 152.486C26.9821 165.581 22.4466 174.531 10.3385 179.335C-2.47013 183.557 -13.6915 180.896 -23.3269 171.353C-29.1188 159.801 -26.9699 157.624 -16.8804 164.822C-14.9707 165.79 -13.0597 165.79 -11.1501 164.822C-16.3546 163.632 -20.6523 160.972 -24.0432 156.84C-32.726 164.289 -42.754 168.643 -54.1272 169.901C-57.223 179.56 -61.2814 188.751 -66.304 197.476C-75.951 183.361 -89.0833 174.412 -105.7 170.627C-101.458 165.668 -98.1157 160.105 -95.6717 153.937C-99.2531 148.91 -100.686 143.588 -99.9694 137.973C-97.0971 135.312 -93.9927 132.892 -90.6577 130.717C-88.2166 133.435 -85.5907 135.854 -82.7786 137.973C-81.1684 139.873 -79.0195 140.839 -76.332 140.876C-71.2235 140.765 -67.1636 138.829 -64.1552 135.071C-62.0464 132.724 -61.0909 129.821 -61.29 126.363C-61.2055 122.577 -62.161 119.189 -64.1552 116.204C-57.1213 114.29 -49.9584 112.838 -42.6666 111.85C-43.2239 116.281 -42.2698 120.151 -39.8015 123.46Z" fill="#0182C7"/>
<path fill-rule="evenodd" clip-rule="evenodd" d="M77.6691 16.0654C78.1461 16.0654 80.7735 16.0654 81.2505 16.0654C84.1156 20.4193 84.4136 20.9911 85.5482 24.7731C85.7459 35.9611 85.9851 47.0881 86.2645 58.1526C81.4969 65.4047 76.7207 72.6611 71.9388 79.9219C61.789 87.7559 50.5663 90.1738 38.2734 87.1783C24.8029 102.587 7.84991 110.811 -12.5828 111.85C-8.2135 115.374 -4.87133 119.728 -2.55486 124.912C32.3855 141.912 36.6832 164.407 10.3383 192.396C14.7792 196.448 17.1673 201.528 17.5011 207.635C15.7348 213.074 13.5859 218.395 11.0546 223.599C3.42325 231.075 -3.97739 231.075 -11.1503 223.599C-4.93578 227.31 1.27297 227.31 7.47313 223.599C9.24665 219.727 9.24665 215.858 7.47313 211.989C7.95018 211.505 8.42865 211.021 8.9057 210.537C12.1519 216.469 14.0615 215.986 14.636 209.086C14.0228 203.107 11.874 197.785 8.18942 193.122C-3.14508 199.12 -14.3664 198.878 -25.476 192.396C-27.2094 190.888 -28.642 189.195 -29.7737 187.317C-17.0009 197.879 -3.62929 198.605 10.3383 189.494C12.8381 187.038 13.3152 184.378 11.7708 181.512C-2.15231 185.584 -14.3291 182.681 -24.7597 172.804C-26.0232 163.44 -29.8439 161.989 -36.2202 168.45C-36.9279 170.822 -37.1657 173.241 -36.9365 175.707C-38.0855 173.599 -38.8017 171.182 -39.0854 168.45C-40.5337 169.665 -42.2055 170.148 -44.0994 169.901C-43.7599 171.775 -44.2369 173.226 -45.532 174.255C-47.039 171.707 -49.4271 170.739 -52.6948 171.353C-54.6374 181.835 -58.9351 191.269 -65.5879 199.653C-63.4907 210.893 -67.3099 219.601 -77.0485 225.776C-79.8291 226.854 -82.455 226.612 -84.9276 225.05C-86.8759 239.106 -94.7551 244.67 -108.565 241.74C-115.35 238.954 -121.08 234.842 -125.756 229.404C-119.241 231.736 -113.033 234.881 -107.132 238.837C-98.5628 240.345 -92.1163 237.202 -87.7928 229.404C-86.7269 224.512 -87.4432 219.917 -89.9416 215.617C-87.7469 214.601 -86.3144 212.909 -85.6439 210.537C-87.5879 208.091 -89.4975 205.673 -91.3742 203.281C-86.661 205.152 -83.3189 208.539 -81.3462 213.44C-81.9737 214.9 -82.9278 214.9 -84.2113 213.44C-85.6067 216.695 -86.0851 220.081 -85.6439 223.599C-81.2817 223.828 -77.2218 222.86 -73.4671 220.696C-70.1106 215.347 -67.9617 209.542 -67.0205 203.281C-72.9127 192.716 -81.0296 184.249 -91.3742 177.884C-97.6073 174.37 -104.292 172.676 -111.43 172.804C-110.414 171.492 -108.982 171.009 -107.132 171.353C-105.068 165.237 -102.203 159.432 -98.537 153.937C-101.763 149.113 -103.912 143.791 -104.984 137.973C-107.61 139.667 -110.237 141.359 -112.863 143.053C-108.498 152.506 -111.84 159.037 -122.891 162.645C-125.432 162.083 -127.82 161.117 -130.054 159.743C-134.334 165.057 -139.586 166.508 -145.812 164.096C-148.83 165.746 -151.933 167.198 -155.124 168.45C-158.648 166.857 -162.229 165.405 -165.868 164.096C-174.098 168.074 -182.216 167.832 -190.222 163.371C-195.158 158.521 -195.635 153.441 -191.654 148.132C-191.888 151.553 -191.65 154.939 -190.938 158.291C-183.61 164.868 -175.492 165.836 -166.584 161.194C-160.039 164.816 -153.592 164.816 -147.244 161.194C-140.656 163.834 -135.165 162.382 -130.77 156.84C-126.299 158.343 -121.763 158.586 -117.16 157.566C-112.439 153.501 -111.962 149.147 -115.728 144.504C-121.501 144.031 -127.231 144.031 -132.919 144.504C-125.898 141.983 -118.735 140.049 -111.43 138.699C-104.912 134.515 -99.898 128.952 -96.3882 122.009C-97.1073 126.681 -99.2562 130.792 -102.835 134.345C-102.024 135.789 -101.068 136.998 -99.9696 137.973C-100.686 143.588 -99.2533 148.91 -95.6719 153.937C-98.1159 160.105 -101.458 165.668 -105.7 170.627C-89.0835 174.412 -75.9511 183.361 -66.3042 197.476C-61.2816 188.751 -57.2232 179.56 -54.1274 169.901C-42.7542 168.643 -32.7262 164.289 -24.0434 156.84C-20.6525 160.972 -16.3548 163.632 -11.1503 164.822C-13.0599 165.79 -14.9709 165.79 -16.8806 164.822C-26.9701 157.624 -29.119 159.801 -23.3271 171.353C-13.6916 180.896 -2.47034 183.557 10.3383 179.335C22.4464 174.531 26.9819 165.581 23.9477 152.486C17.1344 140.453 7.3442 131.988 -5.42 127.089C-6.77951 122.16 -9.4054 118.049 -13.2991 114.753C-14.7689 118.728 -16.9178 122.114 -19.7457 124.912C-18.7429 121.192 -17.3103 117.564 -15.448 114.027C-19.3088 105.382 -25.9931 102.237 -35.504 104.594C-32.3552 103.629 -29.013 102.661 -25.476 101.691C-29.0388 93.6815 -34.7691 91.2622 -42.6668 94.4347C-37.2689 90.48 -31.5386 86.8518 -25.476 83.5501C-21.5994 80.1091 -18.2573 76.24 -15.448 71.9398C-12.7533 72.0792 -10.3667 71.8368 -8.28514 71.2142C-5.51025 72.9644 -3.12216 72.4812 -1.12229 69.7629C3.69544 69.5205 5.12801 67.3436 3.17542 63.2321C3.93325 60.9696 4.88877 58.7927 6.04056 56.7014C3.5178 54.1573 1.60819 51.2547 0.31028 47.9937C0.562412 44.0389 2.47346 41.6196 6.04056 40.7372C4.15673 42.4309 3.20264 44.6078 3.17542 47.268C5.35293 50.2098 7.26254 53.3547 8.9057 56.7014C7.99029 61.0189 7.274 65.3728 6.75685 69.7629C-7.01588 75.6929 -20.1482 82.7069 -32.6388 90.8065C-27.3856 96.3562 -22.1338 101.678 -16.8806 106.771C3.91607 108.296 21.5839 101.523 36.1245 86.4527C35.169 85.9694 34.2149 85.4847 33.2594 85.0014C43.455 86.489 53.483 85.5209 63.3434 82.0988C70.3386 78.8131 73.92 73.2489 74.0876 65.4091C74.5647 66.8603 75.0432 68.3116 75.5202 69.7629C81.8908 65.5716 84.2789 59.7665 82.6831 52.3475C82.2848 53.6769 81.5685 54.6434 80.5342 55.2501C83.0398 45.2319 83.7561 35.0729 82.6831 24.7731C80.6331 22.0679 78.9627 19.1654 77.6691 16.0654Z" fill="black"/>
<path fill-rule="evenodd" clip-rule="evenodd" d="M70.5061 62.5063C62.6055 62.782 56.3982 66.1693 51.8827 72.6653C52.4729 70.8047 51.5188 69.3535 49.0176 68.3114C53.4041 66.5815 57.7018 64.4046 61.9107 61.7807C65.0796 60.6356 67.9447 60.878 70.5061 62.5063Z" fill="black"/>
<path fill-rule="evenodd" clip-rule="evenodd" d="M12.4873 51.6216C14.8315 53.2048 19.5199 57.6901 21.0827 60.3293C17.4367 59.8021 13.0077 55.3152 12.4873 51.6216Z" fill="#030303"/>
<path d="M56.7941 -12.2173L56.7942 -12.2173L56.8112 -12.2149L56.8284 -12.2132L56.8285 -12.2132L56.8285 -12.2132L56.8294 -12.2131L56.8337 -12.2127L56.852 -12.2109L56.9266 -12.2033C56.9928 -12.1964 57.0915 -12.1859 57.2194 -12.1714C57.4753 -12.1426 57.848 -12.0982 58.312 -12.0363C59.2405 -11.9125 60.5319 -11.719 61.9822 -11.4407C64.9036 -10.8801 68.392 -9.98933 70.873 -8.66961C73.6843 -7.1742 76.4797 -5.39843 78.5628 -3.39663C80.6547 -1.38638 81.9337 0.758768 81.9337 3.00086C81.9337 5.49469 81.628 8.77576 81.3183 11.4538C81.1639 12.7885 81.0095 13.9654 80.8937 14.8086C80.8554 15.0879 80.8213 15.3305 80.7928 15.5299C80.7416 15.5304 80.6874 15.5309 80.6304 15.5314C80.1137 15.5359 79.3622 15.5401 78.4245 15.539C76.5489 15.5368 73.9295 15.5136 70.9552 15.4292C64.9965 15.2601 57.651 14.8463 52.0072 13.8745C46.7793 12.9742 40.8039 10.9987 36.1136 9.23624C33.7733 8.35684 31.7623 7.5341 30.3369 6.93142C29.6244 6.63013 29.0585 6.38398 28.6713 6.21342C28.5738 6.17046 28.4876 6.1323 28.4133 6.09926C28.39 5.99835 28.3627 5.87786 28.3323 5.74044C28.2331 5.29107 28.1022 4.66245 27.9758 3.94671C27.7203 2.49926 27.4942 0.754862 27.5615 -0.583714L27.5655 -0.661813C27.6302 -1.95032 27.6902 -3.14387 27.8701 -4.19438C28.0541 -5.26858 28.3498 -6.09848 28.8251 -6.67706C29.0274 -6.92325 29.5649 -7.32844 30.4582 -7.83933C31.3205 -8.33253 32.4314 -8.87873 33.6896 -9.42487C36.2076 -10.5178 39.2685 -11.5902 42.0266 -12.2291C44.7844 -12.8679 48.4561 -12.8743 51.488 -12.7089C52.9938 -12.6268 54.323 -12.5036 55.2755 -12.4009C55.7515 -12.3495 56.1329 -12.3034 56.3944 -12.2702C56.5252 -12.2536 56.626 -12.2403 56.6937 -12.2311L56.7699 -12.2207L56.7887 -12.2181L56.7931 -12.2175L56.794 -12.2173L56.7941 -12.2173Z" fill="#D9D9D9" stroke="black" stroke-width="1.5"/>
<path d="M27.7007 -5.78271C27.7007 -5.78271 40.6542 1.71824 53.6031 3.94896C69.5338 6.69337 82.563 5.26021 82.563 5.26021" stroke="#070707"/>
<path d="M33.0786 -3.30176C33.0786 -3.30176 31.5743 0.104809 31.1106 2.27777C30.6368 4.49779 30.765 7.76006 30.765 7.76006" stroke="black" stroke-width="0.5"/>
<path d="M38.5483 -0.746582C38.5483 -0.746582 37.0651 2.55923 36.6142 4.6708C36.1536 6.8281 36.3001 10.003 36.3001 10.003" stroke="black" stroke-width="0.5"/>
<path d="M44.1445 1.38916C44.1445 1.38916 42.676 4.62468 42.2341 6.69341C41.7826 8.80696 41.9418 11.9209 41.9418 11.9209" stroke="black" stroke-width="0.5"/>
<path d="M49.6753 3.22119C49.6753 3.22119 48.7308 6.07377 48.3012 8.08331C47.8624 10.1364 47.5355 13.4518 47.5355 13.4518" stroke="#0A0A0A" stroke-width="0.5"/>
<path d="M56.1187 4.35054C56.1187 4.35054 55.6304 7.44472 55.1904 9.50433C54.7408 11.6085 53.9257 14.8358 53.9257 14.8358" stroke="black" stroke-width="0.5"/>
<path d="M63.0854 5.12903C63.0854 5.12903 62.7813 8.20343 62.464 10.2563C62.14 12.3536 61.5175 15.5773 61.5175 15.5773" stroke="black" stroke-width="0.5"/>
<path d="M69.4084 5.85823C69.4084 5.85823 69.282 8.8294 69.0234 10.997C68.7781 13.0529 68.0917 16.0406 68.0917 16.0406" stroke="black" stroke-width="0.5"/>
<path d="M75.9524 5.62092C75.9524 5.62092 75.8504 8.46582 75.6099 10.5399C75.3819 12.5071 74.721 15.3631 74.721 15.3631" stroke="#060606" stroke-width="0.5"/>
</g>
<rect x="0.5" y="0.5" width="134" height="129" stroke="black"/>
<defs>
<clipPath id="clip0_565_18675">
<rect width="135" height="130" fill="white"/>
</clipPath>
</defs>
</svg>
