<svg width="413" height="398" viewBox="0 0 413 398" fill="none" xmlns="http://www.w3.org/2000/svg">
<g filter="url(#filter0_d_639_7987)">
<rect x="5.5" y="1.5" width="402" height="387" rx="18.5" fill="#FDFFEF" stroke="black" stroke-width="3"/>
<path d="M138.048 364.794C135.044 363.766 131.631 361.838 130.265 360.296C129.037 358.882 127.125 357.725 126.033 357.725C125.077 357.725 123.029 356.569 121.8 355.284C119.615 353.099 119.615 352.071 120.981 347.829C124.94 336.52 128.627 333.692 159.212 318.784C168.906 314.157 169.589 313.386 174.504 304.646C183.515 288.453 186.792 281.769 186.246 281.127C185.837 280.87 183.652 281.255 181.331 282.027C176.552 283.569 170.408 281.255 166.994 276.757C165.356 274.572 164.673 274.444 160.987 275.729C155.525 277.657 148.835 275.215 145.421 269.817C142.417 265.062 142.281 262.491 144.875 255.551C146.104 252.21 146.377 250.282 145.421 249.896C140.642 248.354 137.092 243.599 136.956 238.458C136.819 235.502 136.273 233.06 135.727 233.06C134.635 233.06 134.089 237.944 134.635 242.442C134.908 245.912 130.675 249.768 126.442 249.768C122.483 249.768 116.202 244.884 114.837 240.643C114.29 238.972 112.652 238.201 110.058 238.201C105.142 238.201 100.5 232.931 100.5 227.405C100.5 222.65 104.869 214.167 109.102 210.697C110.74 209.412 112.242 206.842 112.379 205.171C112.515 203.372 113.608 200.93 114.7 199.773C117.704 196.56 117.431 195.789 112.652 194.247C99.6808 190.005 105.142 168.799 119.206 168.799C123.165 168.799 124.121 169.442 125.76 173.169C128.217 178.567 129.992 179.724 135.454 179.21C137.912 179.081 140.642 179.724 141.871 180.88C144.329 183.194 149.654 183.708 149.654 181.652C149.654 180.88 148.698 178.439 147.333 176.125C146.104 173.683 145.012 168.157 144.739 162.502C144.465 157.361 144.056 152.863 143.783 152.477C143.373 152.22 140.642 152.606 137.502 153.248C133.815 154.019 128.354 154.019 122.346 153.12L112.925 151.835L116.612 148.622L120.298 145.537L114.427 146.437C109.375 147.079 107.054 146.565 99.5443 143.095L90.5327 138.854L94.4924 136.926L98.452 134.998L95.0385 134.099C88.8943 132.556 83.0231 129.086 80.1558 125.231L77.2885 121.504L82.8866 123.431C86.027 124.331 88.8943 124.845 89.3039 124.46C89.7135 124.074 88.2116 121.889 85.7539 119.576C81.6577 115.592 74.5577 102.997 74.5577 99.6551C74.5577 98.4984 75.5135 98.4984 78.6539 100.041C82.75 102.097 84.1154 101.197 81.2481 98.4984C80.2924 97.5987 79.7462 93.229 79.7462 88.2167C79.8827 77.935 83.9789 68.81 91.4885 61.7413C96.677 56.729 105.552 54.8012 115.246 56.3434C123.439 57.6286 123.848 58.1427 125.077 71.766C126.306 85.2607 128.081 89.2448 130.539 83.4614C131.221 81.5336 131.904 78.4491 131.904 76.5213C132.04 73.4367 132.177 73.3082 133.406 75.3646C134.225 76.6498 134.635 79.4772 134.498 81.7906C133.952 86.8029 135.864 98.1128 137.092 98.1128C137.639 98.1128 139.004 95.9279 140.369 93.229L142.554 88.4737L142.69 94.5142C142.827 102.354 145.148 108.394 147.06 105.824C148.152 104.282 149.244 104.796 153.067 108.652C155.798 111.35 158.665 113.535 159.758 113.535C162.489 113.535 165.902 104.41 167.404 94.0001C167.95 89.1163 168.769 84.7466 169.179 84.4896C169.452 84.104 170.271 89.2448 170.817 95.7994L171.773 107.752L174.504 104.539C175.869 102.74 178.464 99.6551 180.102 97.5987C185.154 91.1727 194.712 82.9473 200.856 79.4772C207.273 76.0072 212.598 74.979 207 78.3205C203.86 80.2484 196.487 87.9596 190.889 95.4139C189.66 97.2132 186.246 100.812 183.515 103.639C180.648 106.467 178.327 109.166 178.327 109.808C178.327 110.451 176.552 110.965 174.367 110.965C169.452 110.965 166.039 115.463 166.039 121.889C166.039 126.13 165.765 126.387 161.669 126.259C157.983 126.259 156.344 125.102 151.975 119.833C149.244 116.363 145.831 113.535 144.465 113.535C143.1 113.535 141.325 112.893 140.369 111.993C139.14 110.836 138.731 110.965 138.731 112.507C138.731 113.664 139.96 114.821 141.462 115.206C143.1 115.592 144.192 117.005 144.192 118.676C144.192 121.632 148.971 128.829 151.975 130.629C152.931 131.143 153.75 133.713 153.75 136.027V140.525H143.783C137.092 140.525 132.86 139.882 131.085 138.597C129.719 137.569 127.125 136.669 125.487 136.669C123.029 136.669 122.346 135.898 122.346 133.456C122.346 131.014 121.664 130.243 119.206 130.243C116.612 130.243 115.656 129.086 113.744 123.431C112.515 119.576 111.423 113.792 111.423 110.322V104.153L121.254 105.053C126.579 105.439 132.45 106.21 134.225 106.595C136.137 107.109 137.365 106.852 137.365 105.824C137.365 105.053 136.137 104.025 134.635 103.639C131.767 102.868 127.808 97.2132 127.808 93.6146C127.808 92.5864 126.715 91.6867 125.35 91.6867C121.8 91.6867 119.752 86.6744 118.114 74.4649C117.294 68.81 116.475 63.9262 116.202 63.5406C115.792 63.2836 112.242 63.0265 108.146 62.898C99.4077 62.898 97.6327 64.3117 90.6693 77.5494C86.7097 84.7466 86.1635 86.9315 86.4366 94.5142C86.5731 99.5265 86.1635 103.254 85.3443 103.254C83.7058 103.254 88.4847 112.122 92.9904 117.134C94.902 119.19 96.4039 122.532 96.4039 124.331C96.4039 126.773 97.2231 127.801 99.8174 128.444C102.412 129.086 103.231 130.115 103.231 132.942C103.231 137.44 106.371 139.24 116.339 140.139C123.029 140.782 123.712 141.167 123.712 144.123C123.712 147.208 123.848 147.208 132.314 146.565C136.956 146.18 144.056 145.409 148.015 144.894L155.115 143.995V148.75C155.115 151.321 154.569 153.377 153.75 153.377C149.517 153.377 154.706 177.153 159.212 178.439C160.714 178.824 164.537 182.037 167.677 185.379C172.319 190.262 176.552 192.833 187.885 197.717C195.804 201.058 202.904 204.271 203.587 204.785C204.406 205.299 207.819 206.071 211.233 206.328L217.65 206.97L218.196 196.946C219.015 183.708 221.337 180.366 229.529 180.366C234.035 180.366 236.356 181.137 237.994 182.937C240.589 185.764 243.865 186.15 247.689 184.35C248.917 183.708 251.239 182.68 252.74 182.166C254.789 181.394 253.423 181.009 247.962 180.366C239.906 179.595 234.308 177.282 234.308 174.84C234.308 174.069 233.352 174.711 232.123 176.254C230.621 178.181 228.71 179.081 225.296 179.081C221.064 179.081 220.654 178.824 220.654 175.225C220.654 167.257 227.344 159.803 234.444 159.803C236.356 159.803 239.087 158.646 240.452 157.233C241.817 155.819 244.002 154.405 245.367 154.019C247.552 153.377 247.825 152.349 247.142 148.236C246.596 145.409 246.733 141.167 247.142 138.597C248.098 134.356 248.371 134.099 253.423 134.099C256.564 134.099 259.567 134.998 261.069 136.284C263.254 138.34 263.254 138.34 262.298 135.384C261.752 133.585 259.977 129.986 258.475 127.416C256.154 123.303 254.925 122.532 251.375 122.532C248.917 122.532 245.367 121.375 243.456 119.961C241.544 118.548 238.677 117.391 237.039 117.391C234.308 117.391 234.035 116.877 234.581 110.322L234.99 103.125L229.939 102.354C226.115 101.84 224.75 101.069 224.75 99.2695C224.75 97.2132 223.931 97.0846 217.923 97.7272C211.233 98.4984 211.096 98.3698 211.096 95.1568V91.6867L206.317 93.8716C203.723 95.0283 201.539 96.442 201.539 97.0846C201.539 97.5987 199.217 98.1128 196.487 98.1128L191.298 97.9843L197.442 92.8434C206.317 85.2607 215.602 81.2765 225.296 80.5054L233.625 79.9913L227.208 83.847C223.521 86.0318 220.108 87.8311 219.289 87.8311C217.787 87.8311 212.189 93.229 213.008 93.8716C213.281 94.1286 215.875 93.486 218.606 92.4579C221.473 91.3012 227.071 90.016 231.031 89.6304C237.585 88.8593 238.814 88.2167 243.183 82.9473C245.777 79.7343 247.962 75.6216 248.098 73.8223L248.235 70.4808L249.737 74.0793C250.556 76.0072 251.648 77.5494 252.194 77.5494C252.74 77.5494 254.379 74.0794 255.744 69.8382C257.792 63.1551 258.339 62.3839 259.84 64.1832C262.435 67.5248 264.21 65.2114 265.165 56.8575L266.121 49.1463L268.715 52.7448L271.446 56.3434L270.627 51.2026C270.217 48.3751 269.671 44.9051 269.535 43.4913C269.125 41.0494 269.944 40.9209 280.048 40.9209C293.429 40.9209 297.252 43.1058 304.762 54.6727C308.721 60.7132 310.087 64.4403 310.496 69.8382C311.042 76.6498 310.769 77.2924 305.308 83.847C302.167 87.5741 299.983 90.9156 300.392 91.3012C300.665 91.6867 302.85 91.0441 305.171 90.016L309.267 88.0882L306.537 91.4297C305.035 93.3575 301.758 96.3135 299.164 98.1128C293.702 101.84 293.156 103.382 297.525 102.225C300.256 101.583 300.392 101.711 298.617 103.768C295.887 106.852 289.742 109.68 285.51 109.68C281.687 109.68 281.14 110.836 283.871 113.407C285.237 114.692 284.827 114.692 281.687 113.407C278.41 111.993 277.181 112.122 272.675 114.564C269.808 116.106 266.394 117.391 265.165 117.391C262.435 117.391 262.435 118.548 264.756 121.889C268.306 126.644 270.217 133.456 271.173 143.095C271.992 152.349 271.992 152.606 273.767 148.879C275.815 144.38 280.048 140.268 281.414 141.553C281.96 142.067 281.414 140.91 280.048 138.854C278.819 136.926 278.273 135.384 278.819 135.384C279.502 135.384 278.956 134.741 277.727 133.97C271.583 130.629 278.546 124.331 286.602 125.745C294.658 127.159 297.798 131.143 297.115 138.854C296.842 142.196 300.939 144.509 305.035 143.481C306.673 143.095 309.54 143.738 311.452 144.894C315.685 147.465 322.239 158.004 321.146 160.574C320.737 161.602 320.873 162.116 321.692 161.731C322.512 161.345 323.058 161.474 323.058 162.116C323.058 162.887 324.287 163.144 325.789 162.759C327.564 162.373 329.748 163.402 332.615 165.972C337.394 170.599 338.214 177.41 334.254 180.752C331.523 183.065 325.925 182.68 323.74 179.981C322.239 178.053 317.05 175.225 315.275 175.225C314.729 175.225 315.002 175.74 315.958 176.254C317.187 177.025 315.821 177.924 312.135 179.081C307.083 180.623 305.99 180.623 301.621 178.439C296.979 175.997 296.706 175.997 294.931 178.31C293.975 179.595 291.108 182.808 288.65 185.379C286.192 187.949 281.14 193.347 277.59 197.46L271.037 204.914L272.539 211.983C273.904 218.28 273.767 219.565 271.446 224.064C269.944 226.891 269.398 229.204 270.081 229.204C272.812 229.204 277.044 241.414 277.181 249.125C277.181 256.065 276.225 258.636 267.487 275.472C262.162 285.754 256.154 296.549 254.106 299.634L250.556 305.032H259.84C264.892 305.032 274.04 303.747 280.048 302.333C295.34 298.606 300.119 298.477 301.894 302.076C302.577 303.618 304.898 305.674 307.083 306.446C312.544 308.63 316.231 314.157 316.231 320.326C316.231 324.567 315.412 326.366 311.589 329.965C308.994 332.407 304.489 335.106 301.621 335.877C298.754 336.777 295.887 337.933 295.067 338.447C289.606 342.303 256.427 343.588 241.817 340.504C234.581 338.961 222.702 335.363 216.421 332.792C214.51 332.021 214.1 332.921 213.554 338.19C213.144 341.917 211.642 346.287 209.867 348.6C206.181 353.356 186.383 362.866 179.965 362.866C177.644 362.866 172.183 363.766 167.814 364.794C158.119 367.236 145.285 367.236 138.048 364.794ZM162.352 358.368C168.633 357.597 168.769 357.468 168.769 353.099C168.769 348.986 169.042 348.729 173.548 348.729C177.781 348.729 178.327 349.115 178.327 352.071C178.327 355.155 178.737 355.412 182.56 354.641C184.881 354.255 190.342 351.814 194.712 349.372C200.446 346.03 203.04 343.588 204.952 339.604C207.546 334.335 207.546 334.335 204.542 332.021C198.671 327.523 200.173 321.483 214.1 296.035C226.389 273.287 226.662 272.902 231.031 272.902C234.717 272.902 235.537 273.416 235.946 275.858L236.356 278.942L243.865 277.014C249.737 275.472 253.014 273.416 259.021 267.889C268.715 258.764 272.265 250.153 269.671 242.185C268.033 237.044 267.896 236.916 261.752 236.916C258.339 236.916 254.242 236.016 252.877 234.988C249.054 232.289 242.91 232.546 241.954 235.373C241.544 236.53 240.589 240.386 239.769 243.984C237.585 252.981 236.765 253.623 225.842 253.623C216.421 253.623 216.148 253.495 210.823 248.483C207.819 245.655 205.089 243.342 204.815 243.342C204.542 243.342 204.269 245.012 204.269 247.069C204.269 250.025 202.904 251.953 198.125 255.68C191.162 260.949 189.796 266.218 194.848 267.375C200.31 268.789 197.715 278.428 185.427 301.947C176.689 318.655 173.685 323.025 171.637 323.025C170.135 323.025 167.267 323.667 165.356 324.567L161.669 326.109L166.994 327.523C171.773 328.808 172.183 329.322 172.592 333.821L173.002 338.704L159.621 337.805C152.248 337.291 145.967 336.52 145.558 335.877C145.148 335.363 141.871 336.391 138.048 337.933C132.177 340.504 131.767 341.018 135.044 341.018C138.321 341.018 138.731 341.403 138.731 345.645C138.731 348.086 138.048 351.428 137.229 352.842C136.273 354.512 136.273 355.926 137.092 356.697C138.458 357.983 150.61 360.167 153.75 359.653C154.842 359.396 158.665 358.882 162.352 358.368ZM279.365 335.106C284.008 334.335 284.144 334.206 283.735 329.322L283.189 324.31H289.333C293.975 324.31 295.887 324.953 297.252 327.009L299.164 329.708L302.987 326.88C309.95 321.74 310.223 319.555 304.625 314.542C300.939 311.329 298.344 310.173 295.067 310.173C292.61 310.173 290.289 309.53 290.015 308.759C289.606 307.731 287.967 307.731 284.144 308.63C281.14 309.402 272.948 310.43 266.121 310.944C258.065 311.458 252.877 312.486 251.921 313.514C251.102 314.542 247.962 315.314 245.094 315.314C240.042 315.314 239.769 315.056 239.769 311.458C239.769 307.474 243.456 299.634 248.235 293.208L250.829 289.609H242.227H233.625L224.477 306.831C214.373 325.724 214.373 325.081 224.75 328.551C242.227 334.335 265.985 337.162 279.365 335.106ZM181.058 272.13C180.239 270.331 179.692 265.062 179.692 260.564C179.692 252.724 179.965 251.953 184.062 248.354C186.519 246.298 189.114 244.627 189.933 244.498C191.298 244.498 168.769 239.615 164.673 239.1C163.444 238.972 162.489 240.514 161.806 243.856C160.987 248.483 159.348 250.539 153.34 254.266C149.381 256.708 149.381 260.821 153.204 265.062C157.71 270.203 158.939 270.074 160.031 264.548C160.85 260.435 161.26 260.049 165.492 260.049C169.589 260.049 170.135 260.435 170.135 263.391C170.135 269.303 175.05 275.343 179.965 275.472C182.014 275.472 182.15 274.958 181.058 272.13ZM130.539 227.534C132.177 224.449 133.133 223.935 137.229 224.321C142.008 224.706 142.144 224.835 142.554 230.49C142.964 236.916 145.148 242.056 147.606 242.056C148.698 242.056 148.971 239.615 148.562 234.474C147.879 226.377 148.835 223.806 155.389 216.224C160.85 209.798 161.806 202.472 157.983 196.689C153.887 190.391 150.064 188.463 143.237 189.106C138.185 189.62 137.365 190.005 137.365 192.704C137.365 198.745 134.498 202.215 129.583 202.215C125.214 202.215 125.077 202.086 125.077 197.203C125.077 189.363 126.033 188.078 132.177 188.078C136.956 188.078 137.502 187.821 136 186.15C135.044 185.122 132.04 184.222 129.31 184.222C123.165 184.222 121.527 183.194 119.752 178.696C118.114 174.711 115.929 175.097 114.29 179.595C112.925 182.808 115.656 188.72 119.615 190.648C124.667 193.218 122.483 206.199 115.519 214.424C111.423 219.308 109.921 222.136 113.062 219.18C114.017 218.28 116.748 217.637 119.206 217.637C123.439 217.637 123.712 217.895 123.712 221.879C123.712 224.064 122.756 227.148 121.664 228.433C119.206 231.389 120.162 235.116 124.258 239.229L127.125 242.314L127.944 236.659C128.354 233.703 129.583 229.461 130.539 227.534ZM228.164 237.944C228.846 235.245 228.71 233.703 227.617 233.317C226.798 233.06 226.115 231.132 226.115 229.076C226.115 225.991 225.569 225.349 222.975 225.349C221.2 225.349 218.606 224.449 217.104 223.421C212.189 219.951 211.096 220.979 213.281 227.02C215.056 231.903 223.931 242.056 226.252 242.056C226.798 242.056 227.754 240.257 228.164 237.944ZM200.992 231.004C200.583 229.847 200.173 226.377 200.173 223.292V217.509L185.7 211.211C177.781 207.613 171.09 204.785 170.817 204.785C170.544 204.785 170.135 208.384 169.862 212.882C169.589 217.252 168.906 221.75 168.36 222.907C167.131 225.349 170.954 227.148 184.471 230.49C196.896 233.574 202.085 233.831 200.992 231.004ZM264.483 209.412C263.664 207.613 262.435 206.071 261.615 206.071C259.294 206.071 260.114 210.954 262.571 212.368C265.712 214.039 266.121 213.525 264.483 209.412ZM269.808 166.615C269.808 162.887 269.398 159.803 268.852 159.803C268.169 159.803 267.76 163.53 267.76 168.028C267.76 172.655 268.169 175.611 268.715 174.84C269.262 173.94 269.808 170.213 269.808 166.615ZM300.392 167.514C303.806 167.514 305.171 168.157 305.717 170.085C306.4 172.784 310.769 173.683 310.769 171.241C310.769 169.571 321.556 170.213 326.471 172.141C328.929 173.041 329.065 172.912 327.154 170.727C326.062 169.442 323.058 167.643 320.737 166.615C318.006 165.586 315.275 163.016 313.637 160.06C309.95 153.377 305.581 150.035 299.3 149.136C292.746 148.108 292.746 148.108 291.79 141.553C291.244 138.083 289.879 135.641 287.967 134.356C284.827 132.556 284.827 132.556 284.827 139.882C284.827 146.18 284.281 147.593 280.867 150.935C278.683 152.991 276.225 154.662 275.406 154.662C274.587 154.662 273.904 155.305 273.904 155.947C273.904 157.49 276.225 157.618 277.181 156.076C278.546 154.148 283.325 156.076 286.192 159.546C289.469 163.402 289.879 171.37 286.875 171.37C285.646 171.37 284.827 172.527 284.827 174.069C284.827 176.511 285.373 176.382 290.289 172.141C294.248 168.799 296.979 167.514 300.392 167.514ZM253.423 165.972C253.423 163.53 252.331 163.659 248.235 166.615C246.869 167.643 246.869 168.157 248.098 168.928C250.556 170.342 253.423 168.799 253.423 165.972ZM271.583 107.366C273.631 107.109 275.269 106.338 275.269 105.696C275.269 105.053 276.498 104.539 278 104.539C279.639 104.539 280.731 103.639 280.731 102.225C280.731 100.94 283.735 98.3698 288.24 95.7994C293.975 92.5864 295.75 90.7871 295.75 88.4737C295.75 86.8029 297.252 83.2044 299.164 80.6339C304.352 73.3082 304.625 70.8663 300.392 62.898C294.658 51.8452 290.698 48.2466 283.189 47.2184L276.635 46.4473V53.6445C276.635 59.942 276.362 60.8417 273.904 60.8417C272.402 60.8417 271.173 61.7413 271.173 62.7695C271.173 65.9825 266.394 73.5653 264.346 73.6938C263.254 73.6938 261.342 75.6216 260.25 77.935C259.021 80.5054 256.973 82.1762 255.198 82.4332C251.102 82.9473 251.239 84.4896 255.471 86.2889C258.202 87.4455 258.885 88.7308 258.885 92.3294C258.885 96.442 258.612 96.8276 254.789 96.8276C251.785 96.8276 250.692 97.4702 250.692 99.141C250.829 101.968 262.981 109.937 265.712 108.909C266.804 108.394 269.398 107.752 271.583 107.366Z" fill="#161616"/>
<path d="M199.764 177.667C195.531 174.583 191.981 164.558 191.981 155.69C191.981 146.565 193.619 144.38 200.583 144.38C211.369 144.38 219.289 155.048 219.289 169.313C219.289 176.254 218.879 177.924 216.694 179.081C212.189 181.266 203.587 180.623 199.764 177.667Z" fill="#161616"/>
<path d="M175.733 129.6C175.733 118.291 176.142 114.435 177.781 113.021C180.375 110.451 188.021 109.166 194.029 110.194C198.398 110.965 198.808 111.479 198.808 115.463C198.808 118.548 198.125 119.961 196.896 119.961C193.619 119.961 189.66 126.645 188.84 133.97C187.748 142.324 186.11 144.38 180.375 144.38H175.869L175.733 129.6Z" fill="#161616"/>
<path d="M213.417 246.041C209.867 242.956 206.727 238.586 205.225 234.731C202.767 228.305 201.948 213.782 204.133 213.782C204.815 213.782 204.952 216.224 204.679 219.308C203.723 226.762 208.775 238.715 215.192 245.012C219.425 248.868 221.337 249.768 225.842 249.768C232.396 249.768 233.762 248.354 235.673 240.129C238.131 229.718 238.404 229.204 241.954 229.204C243.729 229.204 246.46 228.562 247.825 227.662C249.873 226.505 251.102 226.891 255.062 229.59C260.523 233.574 262.708 233.831 266.531 231.132C270.081 228.562 271.173 228.69 271.173 231.775C271.173 233.96 270.217 234.345 264.073 234.345C259.021 234.345 256.29 233.703 254.242 231.903C251.648 229.718 250.692 229.59 245.64 230.875L239.906 232.289L237.585 241.671L235.127 251.053H227.208C219.835 251.053 218.742 250.667 213.417 246.041Z" fill="black"/>
<path d="M217.377 241.928C210.413 236.016 207 228.176 207 218.665C207 212.239 209.048 210.568 212.462 214.424C215.329 217.766 225.706 221.878 229.392 221.236C233.762 220.465 234.854 222.778 231.85 226.762C229.802 229.718 229.802 229.718 231.987 228.047C235.81 225.22 236.083 227.148 233.488 237.429C231.167 246.811 230.894 247.197 227.208 247.197C224.613 247.197 221.337 245.526 217.377 241.928Z" fill="black"/>
<path d="M258.202 227.919C256.837 226.505 254.652 225.091 253.287 224.706C249.19 223.421 250.01 218.151 254.515 216.48L258.202 215.067L253.833 215.709C248.371 216.48 247.962 214.553 252.74 210.954C254.652 209.54 256.154 207.098 256.154 205.299C256.154 203.628 256.837 202.215 257.792 202.215C258.612 202.215 260.387 201.315 261.615 200.287C263.8 198.487 264.21 198.487 265.985 201.186C271.31 208.898 272.675 223.678 268.442 228.561C266.121 231.26 261.206 231.003 258.202 227.919ZM261.069 217.766C260.66 217.123 259.021 216.866 257.519 217.251C253.696 218.151 254.106 218.922 258.338 218.922C260.25 218.922 261.479 218.408 261.069 217.766Z" fill="black"/>
<path d="M235.946 223.806C234.444 219.95 234.581 219.436 238.131 216.737C243.592 212.496 247.142 213.267 247.688 219.051C248.098 224.063 246.596 225.991 241.135 227.276C238.131 227.919 237.448 227.405 235.946 223.806Z" fill="black"/>
<path d="M221.063 216.995C218.606 215.452 218.333 214.167 218.879 209.669C219.698 203.114 222.019 200.03 222.019 205.299C222.019 213.396 226.935 215.966 233.215 211.211C235.127 209.797 238.267 208.127 240.315 207.356C243.456 206.327 243.865 206.456 243.865 208.641C243.865 210.054 243.183 211.211 242.363 211.211C241.544 211.211 238.54 213.01 235.673 215.067C229.938 219.308 225.433 219.951 221.063 216.995Z" fill="black"/>
<path d="M213.417 212.239C211.779 210.569 210.277 210.183 208.638 210.954C206.044 212.239 202.904 211.597 202.904 209.798C202.904 207.998 214.646 208.384 216.285 210.312C218.742 213.011 216.148 214.81 213.417 212.239Z" fill="black"/>
<path d="M224.067 209.926C222.429 207.355 225.023 205.813 229.665 206.456C232.26 206.841 234.035 206.713 233.625 206.07C232.533 204.399 234.99 203.371 237.721 204.271C239.496 204.914 238.813 205.813 234.717 208.127C229.119 211.34 225.433 211.982 224.067 209.926Z" fill="black"/>
<path d="M248.508 207.227C250.556 205.685 252.058 203.371 252.058 201.444C252.058 199.644 252.877 198.359 253.969 198.359C254.925 198.359 256.563 197.459 257.519 196.431C258.475 195.403 260.25 194.503 261.342 194.503C262.708 194.503 262.025 195.66 259.158 197.845C256.7 199.773 254.788 202.472 254.788 204.014C254.788 207.741 252.331 209.926 248.235 209.926H244.821L248.508 207.227Z" fill="black"/>
<path d="M267.76 199.644C265.985 197.845 265.712 196.56 266.667 195.66C267.623 194.761 268.715 195.403 270.217 197.588C273.085 201.572 271.037 203.114 267.76 199.644Z" fill="black"/>
<path d="M191.025 278.556C192.39 274.315 192.8 274.058 193.073 276.628C193.346 278.299 192.664 280.613 191.435 281.641C189.523 283.44 189.523 283.183 191.025 278.556Z" fill="black"/>
<path d="M176.961 279.455C169.861 277.785 166.175 273.672 165.902 266.86C165.765 263.647 165.629 263.647 164.4 268.146C163.171 272.515 162.625 272.901 157.983 272.901C149.244 272.901 143.51 264.804 145.967 255.936C146.923 252.466 148.425 250.41 151.156 248.996C155.661 246.94 157.846 243.598 157.846 239.1C157.846 237.301 159.075 235.116 160.85 234.088C163.581 232.417 164.536 232.417 169.588 234.473C172.592 235.758 179.692 237.558 185.29 238.329C190.888 239.1 196.213 240 197.169 240.257C200.173 241.028 198.944 245.783 195.121 247.711C192.936 248.739 189.66 250.924 187.611 252.852C182.969 256.836 182.56 263.647 186.519 270.973C188.704 274.957 188.84 276.371 187.611 277.528C185.154 279.713 180.921 280.484 176.961 279.455Z" fill="black"/>
<path d="M188.567 270.459C188.158 269.046 187.611 265.447 187.475 262.491C187.338 257.607 187.885 256.708 193.756 252.081C198.671 248.097 200.173 246.04 200.173 243.213C200.173 241.157 200.856 239.486 201.538 239.486C202.358 239.486 202.904 241.671 202.904 244.37C202.904 248.868 202.358 249.639 196.213 253.366C188.158 258.25 187.338 260.049 189.933 265.961C192.39 271.616 192.527 272.13 190.888 272.644C190.069 272.901 189.113 271.873 188.567 270.459Z" fill="black"/>
<path d="M147.742 244.755C150.2 243.341 152.385 241.542 152.931 240.514C153.34 239.614 153.477 240.642 153.34 242.699C153.067 246.169 152.521 246.554 148.288 246.94L143.51 247.326L147.742 244.755Z" fill="black"/>
<path d="M180.102 234.345C170.135 231.903 158.665 227.019 166.038 228.433C167.95 228.818 172.865 230.232 177.098 231.646C181.331 233.06 188.704 234.73 193.483 235.373C201.402 236.53 201.675 236.658 196.077 236.658C192.663 236.787 185.563 235.63 180.102 234.345Z" fill="black"/>
<path d="M155.662 232.931C154.842 231.646 157.163 229.333 159.485 229.204C161.806 229.204 161.806 231.775 159.348 233.06C157.437 233.959 156.344 233.959 155.662 232.931Z" fill="black"/>
<path d="M238.677 175.739C235.127 173.426 234.581 166.871 237.721 165.715C238.814 165.329 239.769 165.458 239.769 166.1C239.769 166.743 241.954 165.201 244.685 162.887C247.279 160.445 250.692 158.518 252.058 158.518C256.29 158.518 259.158 162.373 258.612 167.257C258.202 170.856 258.339 171.241 259.567 169.57C260.523 168.414 261.615 167.514 262.162 167.514C263.937 167.514 262.844 173.812 260.796 175.739C257.929 178.567 242.91 178.567 238.677 175.739ZM254.789 174.583C258.065 172.912 257.929 172.912 252.331 173.555C247.552 174.197 245.64 173.683 242.363 171.498C239.223 169.313 238.404 169.185 238.404 170.599C238.404 172.912 244.685 176.382 248.644 176.382C250.146 176.382 252.877 175.611 254.789 174.583Z" fill="black"/>
<path d="M238.267 163.53C235.263 161.602 244.548 154.662 250.01 154.79C253.696 154.79 253.833 154.919 251.512 156.333C250.01 157.232 247.006 159.417 244.548 161.345C241.544 163.787 239.769 164.429 238.267 163.53Z" fill="black"/>
<path d="M260.25 162.759C260.25 162.116 260.933 160.831 261.615 159.803C262.708 158.26 262.981 158.389 262.981 160.831C262.981 162.373 262.435 163.658 261.615 163.658C260.933 163.658 260.25 163.273 260.25 162.759Z" fill="black"/>
<path d="M132.587 136.669C131.221 135.255 129.037 134.098 127.535 134.098C125.76 134.098 125.077 133.199 125.077 130.885C125.077 128.186 124.394 127.672 120.981 127.672C118.796 127.672 116.885 127.158 116.885 126.387C116.885 125.744 115.929 125.102 114.837 125.102C113.198 125.102 112.788 123.303 112.788 116.105C112.788 107.237 112.788 107.109 116.338 107.109C118.387 107.109 123.848 107.751 128.627 108.651C136.41 109.936 137.365 110.45 137.365 113.149C137.365 115.206 138.185 116.105 140.096 116.105C142.281 116.105 142.827 117.005 142.827 120.347C142.827 123.303 143.919 125.616 146.24 127.672C151.292 132.171 150.746 134.612 144.465 135.126C140.369 135.384 138.594 134.741 136.137 132.299C134.362 130.5 132.177 129.472 131.085 129.857C129.719 130.371 129.173 129.472 129.173 126.516C129.173 122.917 128.9 122.66 125.213 123.303C121.527 124.074 121.254 123.688 119.069 117.905C117.84 114.563 117.021 111.736 117.294 111.479C117.431 111.35 120.981 111.864 125.213 112.507C132.177 113.792 132.723 114.178 132.177 116.876C131.631 119.447 132.177 119.961 135.181 119.961C138.458 119.961 138.731 120.218 137.229 122.66C136 124.973 136.41 126.001 140.233 129.729C145.831 135.126 147.06 134.355 142.281 128.315C140.233 125.873 138.731 122.788 139.004 121.632C139.277 120.09 138.321 119.19 136.273 118.933C133.542 118.547 133.133 117.905 133.815 115.334C134.771 111.736 132.587 110.579 122.073 109.294C116.338 108.523 115.519 108.78 115.519 110.707C115.519 112.635 119.342 124.973 120.298 126.13C120.435 126.259 122.21 125.873 124.258 125.102C127.944 123.817 127.944 123.817 126.988 128.572C126.169 132.942 126.306 133.199 129.037 132.428C131.085 131.913 132.996 132.556 134.771 134.227C136.546 135.898 139.277 136.669 143.51 136.669C146.923 136.669 149.654 137.311 149.654 137.954C149.654 138.725 146.377 139.239 142.417 139.239C136.819 139.239 134.498 138.597 132.587 136.669Z" fill="black"/>
<path d="M140.915 362.866C137.229 362.223 133.269 360.809 132.177 359.781C130.129 357.853 130.265 356.311 134.225 346.158C134.635 345.13 133.952 345.387 132.86 346.929C131.631 348.343 130.265 351.17 129.856 352.97C128.763 357.082 127.671 357.211 124.667 354.126C121.8 351.17 121.8 346.672 124.804 341.403C126.579 338.19 130.129 335.876 139.413 331.635C146.24 328.551 154.979 324.181 158.802 321.996C162.761 319.811 166.994 318.269 168.086 318.654C169.588 319.297 172.865 314.156 180.921 298.348C193.073 274.957 194.575 271.23 191.571 272.387C189.113 273.286 187.885 270.073 187.475 262.491C187.338 257.607 187.885 256.707 193.756 252.08C198.671 248.096 200.173 246.04 200.173 243.212C200.173 240.128 200.719 239.485 203.586 239.485C205.498 239.485 207 238.971 207 238.2C207 237.429 203.45 236.915 199.081 236.915C183.379 236.915 153.613 227.019 159.758 223.806C163.171 222.007 166.038 215.709 165.902 210.311L165.765 205.427L164.536 210.568C163.854 213.396 161.533 217.765 159.485 220.207C153.34 227.404 153.067 228.176 153.067 237.558V246.554L148.698 246.94C142.417 247.582 138.731 243.341 138.731 235.501C138.731 232.16 138.185 229.075 137.502 228.69C135.863 227.661 132.996 234.087 132.04 240.771C131.358 245.783 130.811 246.554 127.808 246.94C119.342 247.839 112.106 232.417 117.431 224.705C118.66 222.906 119.342 221.492 118.933 221.492C117.294 221.492 112.788 230.103 112.788 233.445C112.788 236.015 112.106 236.915 110.194 236.915C101.319 236.915 102.548 220.593 112.242 209.54C114.017 207.612 116.065 203.885 116.748 201.315C117.977 197.073 117.84 196.431 114.154 193.218C109.375 188.977 107.873 184.093 109.511 178.052C110.877 172.911 116.611 168.285 120.025 169.441C121.254 169.955 122.892 172.269 123.711 174.582C125.35 179.338 128.49 180.88 133.679 179.723C136.136 179.08 137.638 179.595 139.55 181.908C141.598 184.221 143.236 184.735 147.196 184.478C153.75 183.964 158.256 186.792 162.898 194.246C164.946 197.459 166.721 199.515 166.994 198.744C167.267 197.973 175.733 200.929 186.383 205.684L205.225 214.167L204.679 219.436C203.723 226.762 208.775 238.843 215.192 245.012C219.425 248.867 221.336 249.767 225.842 249.767C232.396 249.767 233.761 248.353 235.673 240.128C238.131 229.718 238.404 229.204 241.954 229.204C243.729 229.204 246.46 228.561 247.825 227.661C249.873 226.505 251.102 226.89 255.061 229.589C260.523 233.573 262.571 233.83 266.804 231.003C270.627 228.561 270.217 228.304 273.085 236.144C277.727 249.639 274.586 260.82 263.117 271.744C256.836 277.528 253.969 279.198 247.142 280.998C235.127 284.211 231.85 283.954 231.304 279.841C231.031 277.271 228.163 281.383 219.152 298.22C212.598 310.043 206.863 321.096 206.454 322.639C205.771 324.566 206.454 326.237 209.048 328.679C213.281 332.663 213.281 335.362 209.458 342.945C207.136 347.443 204.542 350.014 198.808 353.098C184.198 361.452 175.596 362.352 174.094 355.797C173.138 351.941 173.138 351.941 173.002 356.568C172.865 360.681 172.319 361.323 168.769 361.966C160.577 363.508 147.469 364.022 140.915 362.866ZM168.086 333.306C166.858 331.378 158.529 330.35 153.477 331.507C149.108 332.535 149.244 332.663 156.481 333.434C168.633 334.591 168.906 334.591 168.086 333.306ZM132.45 191.933C131.494 191.161 129.173 194.76 129.31 197.073C129.31 198.23 130.129 197.716 131.221 195.788C132.177 193.989 132.723 192.318 132.45 191.933Z" fill="black"/>
<path d="M249.327 338.832C230.075 336.133 213.827 330.864 211.233 326.751C209.594 323.795 210.14 322.253 219.698 304.26L230.075 284.725L236.219 285.368C244.138 286.267 253.423 283.825 260.386 279.07C266.804 274.7 266.94 274.572 255.471 292.179C251.511 298.22 247.279 305.031 246.05 307.345C243.729 311.714 245.231 313 248.235 309.273C249.6 307.473 252.467 306.831 262.298 306.574C269.125 306.317 279.229 305.031 285.1 303.746C296.296 301.047 301.211 300.533 301.211 302.204C301.211 302.847 299.573 303.875 297.525 304.646L293.702 306.06L298.754 306.188C305.854 306.317 313.5 313.257 313.5 319.297C313.5 324.31 311.042 328.165 305.581 331.764C298.89 336.262 296.569 336.262 293.975 332.021C292.61 329.836 290.561 328.165 289.469 328.165C287.967 328.165 288.104 329.065 290.425 332.021C292.2 334.077 293.156 336.262 292.61 336.648C290.015 339.089 260.933 340.632 249.327 338.832Z" fill="black"/>
<path d="M155.935 233.445C154.706 232.289 154.979 228.176 156.344 227.405C156.89 227.019 158.529 227.79 159.758 229.076C162.079 231.389 162.079 231.646 159.485 232.931C157.983 233.702 156.481 233.831 155.935 233.445Z" fill="black"/>
<path d="M219.971 215.709C218.06 214.038 216.558 213.139 216.558 213.781C216.558 214.552 215.329 213.91 213.827 212.496C211.779 210.568 210.413 210.183 208.502 211.082C206.727 211.982 204.952 211.725 201.812 209.926C199.49 208.512 191.162 204.785 183.515 201.443C172.456 196.688 168.223 194.118 163.581 189.234C160.44 185.892 156.617 182.679 155.115 182.294C151.975 181.394 148.971 172.14 147.606 159.545C146.787 152.091 147.06 150.806 149.244 149.521C151.565 148.107 151.429 148.107 148.971 149.007C147.469 149.521 139.14 150.163 130.538 150.549C115.11 151.063 114.837 151.063 117.158 148.621C120.571 145.023 120.298 144.38 114.837 144.38C110.467 144.38 95.7211 140.267 93.9461 138.596C93.5365 138.211 94.4923 136.926 96.2673 135.898C99.2711 133.841 99.1346 133.841 91.3519 130.371C86.9827 128.443 82.4769 125.744 81.3846 124.459C80.2923 123.045 80.0192 122.403 80.8384 122.917C81.6577 123.302 84.6615 124.074 87.3923 124.331L92.4442 124.973L88.8942 120.989C85.2077 116.876 77.2885 102.996 77.2885 100.683C77.2885 99.7831 78.1077 99.6546 79.6096 100.554C81.7942 101.582 82.0673 100.811 82.0673 91.8148C82.0673 83.3324 82.6135 80.8905 86.5731 73.6933C94.2192 59.1704 94.6288 58.9134 109.648 58.9134C121.254 58.9134 122.483 59.0419 121.937 61.0982C120.981 64.3113 123.302 80.3764 125.213 84.3606C126.988 88.0877 128.763 87.8306 130.538 83.4609C131.494 81.2761 131.767 81.9187 131.767 86.2884C131.904 92.3289 135.317 99.9116 137.365 98.7549C138.185 98.2408 138.731 96.9556 138.867 95.799C138.867 94.6423 139.687 96.4416 140.642 99.7831C141.598 103.253 143.51 106.98 144.738 108.137C146.787 110.065 146.923 109.936 146.923 107.109C147.06 104.024 147.06 104.024 148.562 106.466C149.381 107.88 152.931 112.25 156.208 116.105C161.533 122.146 162.352 122.66 161.669 119.575C161.123 117.005 162.488 113.149 166.175 106.081L171.5 96.1845V101.711C171.5 104.667 172.183 107.109 172.865 107.109C173.685 107.109 174.231 106.723 174.231 106.209C174.367 104.538 190.888 88.4732 196.213 84.8747C202.904 80.1194 204.269 80.5049 199.217 85.6458C194.575 90.4011 190.615 95.6704 190.615 97.2127C190.615 97.8553 193.073 96.5701 195.94 94.3852C203.313 88.8588 215.738 83.718 223.248 83.0754L229.529 82.4328L225.023 85.1317C222.565 86.6739 220.108 87.8306 219.562 87.8306C218.879 87.8306 216.967 89.3729 215.056 91.1722L211.779 94.6423L215.192 93.7426C225.706 90.9151 238.677 89.887 246.187 91.4292C250.419 92.2004 254.242 92.7144 254.515 92.3289C255.335 91.6863 250.01 89.6299 244.821 88.4732L240.998 87.7021L245.094 83.2039C247.415 80.762 249.327 77.4204 249.463 75.8782C249.463 73.1792 249.6 73.1792 250.829 76.1352C252.058 78.9627 252.331 79.0912 254.242 77.2919C255.335 76.2637 257.11 72.5366 258.065 69.0666C259.84 63.0261 259.977 62.8975 260.933 66.3676L261.888 69.8377L264.346 65.725C265.575 63.4116 267.213 59.556 267.76 57.2426C268.579 53.2585 268.852 53.1299 270.627 55.3148C272.538 57.3711 272.675 56.8571 272.129 50.174L271.583 42.7197L282.506 43.1053C292.883 43.4909 293.565 43.6194 297.115 47.732C302.987 54.5437 308.038 65.2109 308.038 71.1229C308.038 76.1352 304.079 85.5173 301.212 87.188C300.529 87.5736 299.846 88.8588 299.846 89.887C299.846 91.3007 300.665 91.5578 302.577 91.0437C307.765 89.5014 305.308 91.8148 294.794 98.2408C284.144 104.795 284.144 104.924 295.75 102.482C297.798 102.096 298.617 102.225 297.798 102.996C295.75 104.795 285.1 108.394 281.687 108.523C280.048 108.523 279.502 108.908 280.458 109.294C283.462 110.45 282.233 111.864 278.683 111.221C276.771 110.964 272.129 111.993 268.169 113.535C262.162 115.977 260.933 116.105 259.704 114.563C258.885 113.535 255.744 111.093 252.74 109.037L247.279 105.181L253.696 111.993C263.527 122.403 267.213 130.628 268.169 143.866C268.715 153.89 269.125 154.919 271.992 155.947C274.177 156.846 276.362 156.589 278.956 155.176L282.779 153.248L278.41 154.019C274.45 154.79 273.904 154.533 273.904 152.22C273.904 150.806 275.679 147.85 278 145.665C281.55 142.195 281.823 141.424 280.594 137.954C279.775 135.898 278.546 134.098 277.863 134.098C277.181 134.098 276.635 132.942 276.635 131.656C276.635 127.415 283.598 126.387 290.425 129.6C295.34 132.042 297.525 136.669 295.75 141.167C294.658 143.994 294.794 144.38 297.252 144.38C298.754 144.38 299.71 144.894 299.3 145.408C299.027 145.922 300.802 146.179 303.396 145.922C309.131 145.28 314.456 149.392 318.279 157.361C319.644 160.06 321.146 162.373 321.556 162.501C329.338 163.401 334.254 168.285 333.708 174.711C333.298 181.008 330.567 182.808 326.744 179.338C323.058 175.996 316.094 173.426 315.002 174.968C312.271 178.695 298.89 177.024 300.392 173.169C302.167 168.67 295.204 174.711 283.188 187.949C270.763 201.829 270.49 201.957 267.896 199.644C265.438 197.331 265.438 196.945 267.35 194.889C271.446 190.519 275.269 181.78 275.269 176.896L275.133 172.012L272.538 178.952C269.398 187.306 264.619 193.989 258.885 198.23C256.427 199.901 254.788 202.471 254.788 204.142C254.788 207.869 252.604 209.412 246.187 210.311C243.319 210.697 238.677 212.882 235.81 214.938C229.392 219.693 224.34 219.95 219.971 215.709ZM234.308 210.568C236.902 208.769 241.271 206.97 244.138 206.584C248.644 205.813 248.917 205.556 247.142 203.885C244.548 201.315 245.367 199.13 249.19 198.616C250.829 198.359 253.15 196.56 254.379 194.76C255.608 192.832 257.656 190.133 259.021 188.72C260.25 187.306 261.615 183.836 262.025 181.008C262.844 176.125 262.844 176.125 261.342 179.723C259.567 184.35 256.154 188.206 254.788 187.435C254.242 187.049 251.921 187.692 249.873 188.72C244.138 191.547 239.087 191.033 234.854 187.435C232.806 185.635 230.348 184.221 229.392 184.221C225.979 184.221 222.975 190.648 222.292 199.515C221.337 213.524 225.023 216.994 234.308 210.568ZM280.731 176.639C280.731 172.783 276.225 166.229 274.587 167.771C274.04 168.285 274.86 170.213 276.498 172.14C278 174.068 279.365 176.639 279.365 177.924C279.365 179.338 279.638 180.366 280.048 180.366C280.458 180.366 280.731 178.695 280.731 176.639ZM212.598 175.225C218.06 172.398 214.373 158.774 206.044 151.449C201.265 147.336 199.217 147.336 197.169 151.449C194.848 156.332 198.125 168.285 202.904 172.912C207.137 176.896 208.638 177.153 212.598 175.225ZM253.833 175.096C255.744 174.325 258.065 172.269 259.021 170.598C259.977 168.799 261.615 167.771 262.571 168.028C264.892 168.927 264.892 166.743 262.571 164.815C261.342 163.658 260.933 160.831 261.342 155.947C262.025 147.079 257.929 138.082 253.287 137.954C251.512 137.954 250.965 143.737 251.921 149.906C253.013 155.69 252.74 156.204 249.463 157.746C247.552 158.774 244.821 160.702 243.456 162.116C241.954 163.658 239.906 164.429 238.267 164.044C234.717 163.144 229.392 166.614 226.662 171.755L224.34 175.868L229.392 171.112C232.26 168.542 235.673 166.229 237.175 165.843C239.633 165.2 239.769 165.586 239.087 168.799C238.404 171.883 238.813 172.783 242.09 174.454C246.733 176.767 249.463 177.024 253.833 175.096ZM282.779 164.172C280.731 161.088 275.269 158.132 274.04 159.288C273.631 159.674 275.815 161.987 278.819 164.686C284.554 169.699 286.602 169.57 282.779 164.172ZM184.608 130.243C185.563 122.66 189.387 116.105 193.073 115.977C194.712 115.977 194.575 115.591 192.39 114.82C188.84 113.535 181.194 115.463 180.921 117.776C180.785 118.676 180.648 124.074 180.512 129.857C180.375 138.211 180.785 140.139 182.013 138.854C182.969 137.954 184.062 134.098 184.608 130.243ZM148.288 134.998C144.192 131.913 138.594 123.817 139.004 121.632C139.277 120.089 138.321 119.19 136.273 118.933C133.542 118.547 133.133 117.905 133.815 115.334C134.771 111.736 132.587 110.579 121.8 109.165L115.11 108.394L116.065 113.278C116.612 115.848 117.294 118.676 117.431 119.318C117.704 120.089 118.387 121.889 118.933 123.56C120.025 126.901 119.752 126.773 124.394 125.102C127.944 123.817 127.944 123.945 126.988 128.572C126.169 132.942 126.306 133.199 129.037 132.427C131.085 131.913 132.996 132.556 134.771 134.227C136.546 135.898 139.277 136.669 143.919 136.669C149.108 136.54 149.927 136.283 148.288 134.998ZM247.962 112.764C243.319 106.595 239.36 105.567 238.677 110.579C238.267 112.764 238.813 113.149 240.862 112.635C242.5 112.25 244.821 113.278 247.006 115.334C252.331 120.346 252.74 119.318 247.962 112.764ZM244.685 98.6264C243.046 97.5982 239.087 96.8271 235.127 96.9556L228.163 97.0842L234.99 98.6264C238.813 99.3975 243.046 100.169 244.548 100.297C247.279 100.554 247.279 100.554 244.685 98.6264Z" fill="black"/>
<path d="M240.042 196.816C237.312 194.246 238.131 193.218 243.183 193.218C246.46 193.218 247.962 193.86 247.962 195.146C247.962 196.174 247.415 197.073 246.733 197.073C246.05 197.073 244.685 197.33 243.592 197.716C242.637 198.102 240.998 197.716 240.042 196.816Z" fill="black"/>
<path d="M249.327 194.76C249.327 193.475 252.194 190.647 253.696 190.647C255.881 190.647 254.788 193.089 252.058 194.503C250.556 195.274 249.327 195.403 249.327 194.76Z" fill="black"/>
<path d="M198.944 155.047C198.808 151.963 199.354 150.806 200.992 150.806C202.631 150.806 202.904 151.192 201.812 152.477C201.129 153.248 200.173 155.176 199.764 156.59C199.354 158.26 199.081 157.746 198.944 155.047Z" fill="black"/>
</g>
<defs>
<filter id="filter0_d_639_7987" x="0" y="0" width="413" height="398" filterUnits="userSpaceOnUse" color-interpolation-filters="sRGB">
<feFlood flood-opacity="0" result="BackgroundImageFix"/>
<feColorMatrix in="SourceAlpha" type="matrix" values="0 0 0 0 0 0 0 0 0 0 0 0 0 0 0 0 0 0 127 0" result="hardAlpha"/>
<feOffset dy="4"/>
<feGaussianBlur stdDeviation="2"/>
<feComposite in2="hardAlpha" operator="out"/>
<feColorMatrix type="matrix" values="0 0 0 0 0 0 0 0 0 0 0 0 0 0 0 0 0 0 0.25 0"/>
<feBlend mode="normal" in2="BackgroundImageFix" result="effect1_dropShadow_639_7987"/>
<feBlend mode="normal" in="SourceGraphic" in2="effect1_dropShadow_639_7987" result="shape"/>
</filter>
</defs>
</svg>
