<svg width="208" height="267" viewBox="0 0 208 267" fill="none" xmlns="http://www.w3.org/2000/svg">
<path d="M53.5 251.488C51.3 250.736 48.8 249.325 47.8 248.197C46.9 247.163 45.5 246.317 44.7 246.317C44 246.317 42.5 245.471 41.6 244.531C40 242.932 40 242.18 41 239.078C43.9 230.805 46.6 228.736 69 217.831C76.1 214.446 76.6 213.882 80.2 207.489C86.8 195.643 89.2 190.755 88.8 190.285C88.5 190.097 86.9 190.379 85.2 190.943C81.7 192.071 77.2 190.379 74.7 187.088C73.5 185.49 73 185.396 70.3 186.336C66.3 187.746 61.4 185.96 58.9 182.011C56.7 178.533 56.6 176.653 58.5 171.576C59.4 169.131 59.6 167.721 58.9 167.439C55.4 166.311 52.8 162.832 52.7 159.072C52.6 156.91 52.2 155.123 51.8 155.123C51 155.123 50.6 158.696 51 161.986C51.2 164.525 48.1 167.345 45 167.345C42.1 167.345 37.5 163.773 36.5 160.67C36.1 159.448 34.9 158.884 33 158.884C29.4 158.884 26 155.029 26 150.987C26 147.508 29.2 141.303 32.3 138.765C33.5 137.825 34.6 135.944 34.7 134.722C34.8 133.406 35.6 131.62 36.4 130.774C38.6 128.423 38.4 127.859 34.9 126.731C25.4 123.629 29.4 108.116 39.7 108.116C42.6 108.116 43.3 108.586 44.5 111.313C46.3 115.261 47.6 116.107 51.6 115.731C53.4 115.637 55.4 116.107 56.3 116.954C58.1 118.646 62 119.022 62 117.518C62 116.954 61.3 115.167 60.3 113.475C59.4 111.689 58.6 107.646 58.4 103.51C58.2 99.749 57.9 96.4585 57.7 96.1765C57.4 95.9885 55.4 96.2705 53.1 96.7406C50.4 97.3047 46.4 97.3047 42 96.6466L35.1 95.7064L37.8 93.3561L40.5 91.0997L36.2 91.7578C32.5 92.2279 30.8 91.8518 25.3 89.3135L18.7 86.211L21.6 84.8008L24.5 83.3906L22 82.7325C17.5 81.6043 13.2 79.0659 11.1 76.2455L9 73.5191L13.1 74.9293C15.4 75.5874 17.5 75.9635 17.8 75.6814C18.1 75.3994 17 73.8011 15.2 72.1089C12.2 69.1944 7 59.9811 7 57.5367C7 56.6906 7.7 56.6906 10 57.8187C13 59.323 14 58.6649 11.9 56.6906C11.2 56.0325 10.8 52.836 10.8 49.1694C10.9 41.6483 13.9 34.9733 19.4 29.8025C23.2 26.136 29.7 24.7258 36.8 25.854C42.8 26.7941 43.1 27.1702 44 37.1356C44.9 47.0071 46.2 49.9216 48 45.6909C48.5 44.2807 49 42.0244 49 40.6142C49.1 38.3578 49.2 38.2638 50.1 39.768C50.7 40.7082 51 42.7765 50.9 44.4687C50.5 48.1353 51.9 56.4085 52.8 56.4085C53.2 56.4085 54.2 54.8103 55.2 52.836L56.8 49.3575L56.9 53.7761C57 59.511 58.7 63.9297 60.1 62.0494C60.9 60.9212 61.7 61.2973 64.5 64.1177C66.5 66.092 68.6 67.6902 69.4 67.6902C71.4 67.6902 73.9 61.0152 75 53.4001C75.4 49.8275 76 46.6311 76.3 46.443C76.5 46.161 77.1 49.9216 77.5 54.7163L78.2 63.4596L80.2 61.1092C81.2 59.793 83.1 57.5367 84.3 56.0325C88 51.3318 95 45.3149 99.5 42.7765C104.2 40.2381 108.1 39.486 104 41.9304C101.7 43.3406 96.3 48.9814 92.2 54.4342C91.3 55.7504 88.8 58.3828 86.8 60.4511C84.7 62.5195 83 64.4937 83 64.9638C83 65.4339 81.7 65.8099 80.1 65.8099C76.5 65.8099 74 69.1004 74 73.8011C74 76.9036 73.8 77.0916 70.8 76.9976C68.1 76.9976 66.9 76.1515 63.7 72.2969C61.7 69.7585 59.2 67.6902 58.2 67.6902C57.2 67.6902 55.9 67.2202 55.2 66.5621C54.3 65.7159 54 65.8099 54 66.9381C54 67.7842 54.9 68.6304 56 68.9124C57.2 69.1945 58 70.2286 58 71.4508C58 73.6131 61.5 78.8779 63.7 80.1941C64.4 80.5702 65 82.4504 65 84.1427V87.4332H57.7C52.8 87.4332 49.7 86.9631 48.4 86.023C47.4 85.2709 45.5 84.6128 44.3 84.6128C42.5 84.6128 42 84.0487 42 82.2624C42 80.4761 41.5 79.9121 39.7 79.9121C37.8 79.9121 37.1 79.0659 35.7 74.9293C34.8 72.1089 34 67.8783 34 65.3399V60.8272L41.2 61.4853C45.1 61.7673 49.4 62.3314 50.7 62.6135C52.1 62.9895 53 62.8015 53 62.0494C53 61.4853 52.1 60.7332 51 60.4511C48.9 59.8871 46 55.7504 46 53.118C46 52.3659 45.2 51.7078 44.2 51.7078C41.6 51.7078 40.1 48.0413 38.9 39.1099C38.3 34.9733 37.7 31.4008 37.5 31.1187C37.2 30.9307 34.6 30.7427 31.6 30.6487C25.2 30.6487 23.9 31.6828 18.8 41.3663C15.9 46.6311 15.5 48.2293 15.7 53.7761C15.8 57.4427 15.5 60.1691 14.9 60.1691C13.7 60.1691 17.2 66.6561 20.5 70.3226C21.9 71.8268 23 74.2712 23 75.5874C23 77.3737 23.6 78.1258 25.5 78.5959C27.4 79.0659 28 79.818 28 81.8863C28 85.1768 30.3 86.493 37.6 87.1511C42.5 87.6212 43 87.9033 43 90.0656C43 92.3219 43.1 92.3219 49.3 91.8518C52.7 91.5698 57.9 91.0057 60.8 90.6297L66 89.9716V93.4501C66 95.3304 65.6 96.8346 65 96.8346C61.9 96.8346 65.7 114.227 69 115.167C70.1 115.449 72.9 117.8 75.2 120.244C78.6 123.817 81.7 125.697 90 129.269C95.8 131.714 101 134.064 101.5 134.44C102.1 134.816 104.6 135.38 107.1 135.568L111.8 136.038L112.2 128.705C112.8 119.022 114.5 116.578 120.5 116.578C123.8 116.578 125.5 117.142 126.7 118.458C128.6 120.526 131 120.808 133.8 119.492C134.7 119.022 136.4 118.27 137.5 117.894C139 117.33 138 117.048 134 116.578C128.1 116.013 124 114.321 124 112.535C124 111.971 123.3 112.441 122.4 113.569C121.3 114.979 119.9 115.637 117.4 115.637C114.3 115.637 114 115.449 114 112.817C114 106.988 118.9 101.535 124.1 101.535C125.5 101.535 127.5 100.689 128.5 99.655C129.5 98.6209 131.1 97.5867 132.1 97.3047C133.7 96.8346 133.9 96.0825 133.4 93.074C133 91.0057 133.1 87.9033 133.4 86.023C134.1 82.9205 134.3 82.7325 138 82.7325C140.3 82.7325 142.5 83.3906 143.6 84.3307C145.2 85.8349 145.2 85.8349 144.5 83.6726C144.1 82.3564 142.8 79.724 141.7 77.8437C140 74.8353 139.1 74.2712 136.5 74.2712C134.7 74.2712 132.1 73.4251 130.7 72.3909C129.3 71.3568 127.2 70.5106 126 70.5106C124 70.5106 123.8 70.1346 124.2 65.3399L124.5 60.0751L120.8 59.511C118 59.1349 117 58.5709 117 57.2547C117 55.7504 116.4 55.6564 112 56.1265C107.1 56.6906 107 56.5966 107 54.2462V51.7078L103.5 53.3061C101.6 54.1522 100 55.1864 100 55.6564C100 56.0325 98.3 56.4085 96.3 56.4085L92.5 56.3145L97 52.554C103.5 47.0071 110.3 44.0927 117.4 43.5286L123.5 43.1525L118.8 45.973C116.1 47.5712 113.6 48.8874 113 48.8874C111.9 48.8874 107.8 52.836 108.4 53.3061C108.6 53.4941 110.5 53.024 112.5 52.2719C114.6 51.4258 118.7 50.4856 121.6 50.2036C126.4 49.6395 127.3 49.1694 130.5 45.3149C132.4 42.9645 134 39.9561 134.1 38.6399L134.2 36.1955L135.3 38.8279C135.9 40.2381 136.7 41.3663 137.1 41.3663C137.5 41.3663 138.7 38.8279 139.7 35.7254C141.2 30.8367 141.6 30.2726 142.7 31.5888C144.6 34.0332 145.9 32.3409 146.6 26.23L147.3 20.5892L149.2 23.2216L151.2 25.854L150.6 22.0934C150.3 20.0251 149.9 17.4867 149.8 16.4525C149.5 14.6663 150.1 14.5723 157.5 14.5723C167.3 14.5723 170.1 16.1705 175.6 24.6318C178.5 29.0504 179.5 31.7768 179.8 35.7254C180.2 40.7082 180 41.1783 176 45.973C173.7 48.6994 172.1 51.1437 172.4 51.4258C172.6 51.7078 174.2 51.2378 175.9 50.4856L178.9 49.0754L176.9 51.5198C175.8 52.93 173.4 55.0923 171.5 56.4085C167.5 59.1349 167.1 60.2631 170.3 59.417C172.3 58.9469 172.4 59.0409 171.1 60.5452C169.1 62.8015 164.6 64.8698 161.5 64.8698C158.7 64.8698 158.3 65.7159 160.3 67.5962C161.3 68.5364 161 68.5364 158.7 67.5962C156.3 66.5621 155.4 66.6561 152.1 68.4423C150 69.5705 147.5 70.5106 146.6 70.5106C144.6 70.5106 144.6 71.3568 146.3 73.8011C148.9 77.2797 150.3 82.2624 151 89.3135C151.6 96.0825 151.6 96.2705 152.9 93.5441C154.4 90.2536 157.5 87.2452 158.5 88.1853C158.9 88.5614 158.5 87.7152 157.5 86.211C156.6 84.8008 156.2 83.6726 156.6 83.6726C157.1 83.6726 156.7 83.2025 155.8 82.6385C151.3 80.1941 156.4 75.5874 162.3 76.6216C168.2 77.6557 170.5 80.5702 170 86.211C169.8 88.6554 172.8 90.3476 175.8 89.5955C177 89.3135 179.1 89.7835 180.5 90.6297C183.6 92.5099 188.4 100.219 187.6 102.099C187.3 102.851 187.4 103.228 188 102.946C188.6 102.663 189 102.757 189 103.228C189 103.792 189.9 103.98 191 103.698C192.3 103.416 193.9 104.168 196 106.048C199.5 109.432 200.1 114.415 197.2 116.86C195.2 118.552 191.1 118.27 189.5 116.296C188.4 114.885 184.6 112.817 183.3 112.817C182.9 112.817 183.1 113.193 183.8 113.569C184.7 114.133 183.7 114.791 181 115.637C177.3 116.766 176.5 116.766 173.3 115.167C169.9 113.381 169.7 113.381 168.4 115.073C167.7 116.013 165.6 118.364 163.8 120.244C162 122.124 158.3 126.073 155.7 129.081L150.9 134.534L152 139.705C153 144.312 152.9 145.252 151.2 148.542C150.1 150.611 149.7 152.303 150.2 152.303C152.2 152.303 155.3 161.234 155.4 166.875C155.4 171.952 154.7 173.832 148.3 186.148C144.4 193.669 140 201.566 138.5 203.823L135.9 207.771H142.7C146.4 207.771 153.1 206.831 157.5 205.797C168.7 203.07 172.2 202.976 173.5 205.609C174 206.737 175.7 208.241 177.3 208.805C181.3 210.404 184 214.446 184 218.959C184 222.061 183.4 223.378 180.6 226.01C178.7 227.796 175.4 229.771 173.3 230.335C171.2 230.993 169.1 231.839 168.5 232.215C164.5 235.035 140.2 235.975 129.5 233.719C124.2 232.591 115.5 229.959 110.9 228.078C109.5 227.514 109.2 228.172 108.8 232.027C108.5 234.753 107.4 237.95 106.1 239.642C103.4 243.12 88.9 250.078 84.2 250.078C82.5 250.078 78.5 250.736 75.3 251.488C68.2 253.274 58.8 253.274 53.5 251.488ZM71.3 246.787C75.9 246.223 76 246.129 76 242.932C76 239.924 76.2 239.736 79.5 239.736C82.6 239.736 83 240.018 83 242.18C83 244.437 83.3 244.625 86.1 244.061C87.8 243.779 91.8 241.992 95 240.206C99.2 237.762 101.1 235.975 102.5 233.061C104.4 229.206 104.4 229.206 102.2 227.514C97.9 224.224 99 219.805 109.2 201.19C118.2 184.55 118.4 184.268 121.6 184.268C124.3 184.268 124.9 184.644 125.2 186.43L125.5 188.686L131 187.276C135.3 186.148 137.7 184.644 142.1 180.601C149.2 173.926 151.8 167.627 149.9 161.798C148.7 158.038 148.6 157.944 144.1 157.944C141.6 157.944 138.6 157.286 137.6 156.534C134.8 154.559 130.3 154.747 129.6 156.816C129.3 157.662 128.6 160.482 128 163.115C126.4 169.696 125.8 170.166 117.8 170.166C110.9 170.166 110.7 170.072 106.8 166.405C104.6 164.337 102.6 162.644 102.4 162.644C102.2 162.644 102 163.867 102 165.371C102 167.533 101 168.943 97.5 171.67C92.4 175.524 91.4 179.379 95.1 180.225C99.1 181.259 97.2 188.31 88.2 205.515C81.8 217.737 79.6 220.933 78.1 220.933C77 220.933 74.9 221.403 73.5 222.061L70.8 223.19L74.7 224.224C78.2 225.164 78.5 225.54 78.8 228.83L79.1 232.403L69.3 231.745C63.9 231.369 59.3 230.805 59 230.335C58.7 229.959 56.3 230.711 53.5 231.839C49.2 233.719 48.9 234.095 51.3 234.095C53.7 234.095 54 234.377 54 237.48C54 239.266 53.5 241.71 52.9 242.744C52.2 243.967 52.2 245.001 52.8 245.565C53.8 246.505 62.7 248.103 65 247.727C65.8 247.539 68.6 247.163 71.3 246.787ZM157 229.77C160.4 229.206 160.5 229.112 160.2 225.54L159.8 221.873H164.3C167.7 221.873 169.1 222.343 170.1 223.848L171.5 225.822L174.3 223.754C179.4 219.993 179.6 218.395 175.5 214.728C172.8 212.378 170.9 211.532 168.5 211.532C166.7 211.532 165 211.062 164.8 210.498C164.5 209.745 163.3 209.746 160.5 210.404C158.3 210.968 152.3 211.72 147.3 212.096C141.4 212.472 137.6 213.224 136.9 213.976C136.3 214.728 134 215.292 131.9 215.292C128.2 215.292 128 215.104 128 212.472C128 209.557 130.7 203.823 134.2 199.122L136.1 196.49H129.8H123.5L116.8 209.087C109.4 222.907 109.4 222.437 117 224.976C129.8 229.206 147.2 231.275 157 229.77ZM85 183.704C84.4 182.387 84 178.533 84 175.242C84 169.507 84.2 168.943 87.2 166.311C89 164.807 90.9 163.585 91.5 163.491C92.5 163.491 76 159.918 73 159.542C72.1 159.448 71.4 160.576 70.9 163.02C70.3 166.405 69.1 167.909 64.7 170.636C61.8 172.422 61.8 175.43 64.6 178.533C67.9 182.293 68.8 182.199 69.6 178.157C70.2 175.148 70.5 174.866 73.6 174.866C76.6 174.866 77 175.148 77 177.311C77 181.635 80.6 186.054 84.2 186.148C85.7 186.148 85.8 185.772 85 183.704ZM48 151.081C49.2 148.824 49.9 148.448 52.9 148.73C56.4 149.012 56.5 149.106 56.8 153.243C57.1 157.944 58.7 161.704 60.5 161.704C61.3 161.704 61.5 159.918 61.2 156.157C60.7 150.235 61.4 148.354 66.2 142.807C70.2 138.107 70.9 132.748 68.1 128.517C65.1 123.911 62.3 122.5 57.3 122.971C53.6 123.347 53 123.629 53 125.603C53 130.022 50.9 132.56 47.3 132.56C44.1 132.56 44 132.466 44 128.893C44 123.159 44.7 122.218 49.2 122.218C52.7 122.218 53.1 122.03 52 120.808C51.3 120.056 49.1 119.398 47.1 119.398C42.6 119.398 41.4 118.646 40.1 115.355C38.9 112.441 37.3 112.723 36.1 116.013C35.1 118.364 37.1 122.688 40 124.099C43.7 125.979 42.1 135.474 37 141.491C34 145.064 32.9 147.132 35.2 144.97C35.9 144.312 37.9 143.842 39.7 143.842C42.8 143.842 43 144.03 43 146.944C43 148.542 42.3 150.799 41.5 151.739C39.7 153.901 40.4 156.628 43.4 159.636L45.5 161.892L46.1 157.756C46.4 155.593 47.3 152.491 48 151.081ZM119.5 158.696C120 156.722 119.9 155.593 119.1 155.311C118.5 155.123 118 153.713 118 152.209C118 149.953 117.6 149.482 115.7 149.482C114.4 149.482 112.5 148.824 111.4 148.072C107.8 145.534 107 146.286 108.6 150.705C109.9 154.277 116.4 161.704 118.1 161.704C118.5 161.704 119.2 160.388 119.5 158.696ZM99.6 153.619C99.3 152.773 99 150.235 99 147.978V143.748L88.4 139.141C82.6 136.509 77.7 134.44 77.5 134.44C77.3 134.44 77 137.073 76.8 140.363C76.6 143.56 76.1 146.85 75.7 147.696C74.8 149.482 77.6 150.799 87.5 153.243C96.6 155.499 100.4 155.687 99.6 153.619ZM146.1 137.825C145.5 136.509 144.6 135.38 144 135.38C142.3 135.38 142.9 138.953 144.7 139.987C147 141.209 147.3 140.833 146.1 137.825ZM150 106.518C150 103.792 149.7 101.535 149.3 101.535C148.8 101.535 148.5 104.262 148.5 107.552C148.5 110.937 148.8 113.099 149.2 112.535C149.6 111.877 150 109.15 150 106.518ZM172.4 107.176C174.9 107.176 175.9 107.646 176.3 109.056C176.8 111.031 180 111.689 180 109.903C180 108.68 187.9 109.15 191.5 110.561C193.3 111.219 193.4 111.125 192 109.526C191.2 108.586 189 107.27 187.3 106.518C185.3 105.766 183.3 103.886 182.1 101.723C179.4 96.8346 176.2 94.3902 171.6 93.7321C166.8 92.98 166.8 92.98 166.1 88.1853C165.7 85.6469 164.7 83.8606 163.3 82.9205C161 81.6043 161 81.6043 161 86.9631C161 91.5698 160.6 92.604 158.1 95.0483C156.5 96.5525 154.7 97.7747 154.1 97.7747C153.5 97.7747 153 98.2448 153 98.7149C153 99.843 154.7 99.937 155.4 98.8089C156.4 97.3987 159.9 98.8089 162 101.347C164.4 104.168 164.7 109.997 162.5 109.997C161.6 109.997 161 110.843 161 111.971C161 113.757 161.4 113.663 165 110.561C167.9 108.116 169.9 107.176 172.4 107.176ZM138 106.048C138 104.262 137.2 104.356 134.2 106.518C133.2 107.27 133.2 107.646 134.1 108.21C135.9 109.244 138 108.116 138 106.048ZM151.3 63.1775C152.8 62.9895 154 62.4254 154 61.9554C154 61.4853 154.9 61.1092 156 61.1092C157.2 61.1092 158 60.4511 158 59.417C158 58.4768 160.2 56.5966 163.5 54.7163C167.7 52.3659 169 51.0497 169 49.3575C169 48.1353 170.1 45.5029 171.5 43.6226C175.3 38.2638 175.5 36.4775 172.4 30.6487C168.2 22.5635 165.3 19.9311 159.8 19.179L155 18.6149V23.8797C155 28.4864 154.8 29.1444 153 29.1444C151.9 29.1444 151 29.8025 151 30.5547C151 32.905 147.5 38.4518 146 38.5459C145.2 38.5459 143.8 39.9561 143 41.6483C142.1 43.5286 140.6 44.7508 139.3 44.9388C136.3 45.3149 136.4 46.443 139.5 47.7592C141.5 48.6054 142 49.5455 142 52.1779C142 55.1864 141.8 55.4684 139 55.4684C136.8 55.4684 136 55.9385 136 57.1606C136.1 59.229 145 65.0578 147 64.3057C147.8 63.9297 149.7 63.4596 151.3 63.1775Z" fill="black"/>
<path d="M98.7 114.603C95.6 112.347 93 105.014 93 98.5267C93 91.8517 94.2 90.2534 99.3 90.2534C107.2 90.2534 113 98.0566 113 108.492C113 113.569 112.7 114.791 111.1 115.637C107.8 117.235 101.5 116.765 98.7 114.603Z" fill="black"/>
<path d="M81.1 79.4421C81.1 71.1689 81.4 68.3484 82.6 67.3143C84.5 65.434 90.1 64.4939 94.5 65.246C97.7 65.8101 98 66.1861 98 69.1005C98 71.3569 97.5 72.391 96.6 72.391C94.2 72.391 91.3 77.2798 90.7 82.6386C89.9 88.7495 88.7 90.2537 84.5 90.2537H81.2L81.1 79.4421Z" fill="black"/>
<path d="M108.7 164.619C106.1 162.362 103.8 159.166 102.7 156.345C100.9 151.645 100.3 141.021 101.9 141.021C102.4 141.021 102.5 142.807 102.3 145.064C101.6 150.516 105.3 159.26 110 163.866C113.1 166.687 114.5 167.345 117.8 167.345C122.6 167.345 123.6 166.311 125 160.294C126.8 152.679 127 152.303 129.6 152.303C130.9 152.303 132.9 151.833 133.9 151.175C135.4 150.328 136.3 150.61 139.2 152.585C143.2 155.499 144.8 155.687 147.6 153.713C150.2 151.833 151 151.927 151 154.183C151 155.781 150.3 156.063 145.8 156.063C142.1 156.063 140.1 155.593 138.6 154.277C136.7 152.679 136 152.585 132.3 153.525L128.1 154.559L126.4 161.422L124.6 168.285H118.8C113.4 168.285 112.6 168.003 108.7 164.619Z" fill="#E23620"/>
<path d="M111.6 161.61C106.5 157.285 104 151.55 104 144.593C104 139.893 105.5 138.67 108 141.491C110.1 143.935 117.7 146.944 120.4 146.474C123.6 145.91 124.4 147.602 122.2 150.516C120.7 152.679 120.7 152.679 122.3 151.456C125.1 149.388 125.3 150.798 123.4 158.319C121.7 165.182 121.5 165.464 118.8 165.464C116.9 165.464 114.5 164.242 111.6 161.61Z" fill="#E23620"/>
<path d="M141.5 151.363C140.5 150.329 138.9 149.294 137.9 149.012C134.9 148.072 135.5 144.218 138.8 142.996L141.5 141.961L138.3 142.431C134.3 142.996 134 141.585 137.5 138.953C138.9 137.919 140 136.132 140 134.816C140 133.594 140.5 132.56 141.2 132.56C141.8 132.56 143.1 131.902 144 131.15C145.6 129.834 145.9 129.834 147.2 131.808C151.1 137.449 152.1 148.26 149 151.833C147.3 153.807 143.7 153.619 141.5 151.363ZM143.6 143.936C143.3 143.466 142.1 143.278 141 143.56C138.2 144.218 138.5 144.782 141.6 144.782C143 144.782 143.9 144.406 143.6 143.936Z" fill="#E23620"/>
<path d="M125.2 148.354C124.1 145.534 124.2 145.158 126.8 143.183C130.8 140.081 133.4 140.645 133.8 144.875C134.1 148.542 133 149.952 129 150.892C126.8 151.362 126.3 150.986 125.2 148.354Z" fill="#E23620"/>
<path d="M114.3 143.371C112.5 142.243 112.3 141.303 112.7 138.013C113.3 133.218 115 130.961 115 134.816C115 140.739 118.6 142.619 123.2 139.141C124.6 138.107 126.9 136.884 128.4 136.32C130.7 135.568 131 135.662 131 137.26C131 138.295 130.5 139.141 129.9 139.141C129.3 139.141 127.1 140.457 125 141.961C120.8 145.064 117.5 145.534 114.3 143.371Z" fill="#E23620"/>
<path d="M108.7 139.893C107.5 138.671 106.4 138.389 105.2 138.953C103.3 139.893 101 139.423 101 138.106C101 136.79 109.6 137.072 110.8 138.483C112.6 140.457 110.7 141.773 108.7 139.893Z" fill="#E23620"/>
<path d="M116.5 138.201C115.3 136.321 117.2 135.192 120.6 135.662C122.5 135.945 123.8 135.851 123.5 135.38C122.7 134.158 124.5 133.406 126.5 134.064C127.8 134.534 127.3 135.192 124.3 136.885C120.2 139.235 117.5 139.705 116.5 138.201Z" fill="#E23620"/>
<path d="M134.4 136.226C135.9 135.098 137 133.406 137 131.996C137 130.68 137.6 129.739 138.4 129.739C139.1 129.739 140.3 129.081 141 128.329C141.7 127.577 143 126.919 143.8 126.919C144.8 126.919 144.3 127.765 142.2 129.363C140.4 130.774 139 132.748 139 133.876C139 136.602 137.2 138.201 134.2 138.201H131.7L134.4 136.226Z" fill="#E23620"/>
<path d="M148.5 130.679C147.2 129.363 147 128.423 147.7 127.765C148.4 127.107 149.2 127.577 150.3 129.175C152.4 132.09 150.9 133.218 148.5 130.679Z" fill="#E23620"/>
<path d="M92.3 188.404C93.3 185.301 93.6 185.113 93.8 186.994C94 188.216 93.5 189.908 92.6 190.66C91.2 191.976 91.2 191.788 92.3 188.404Z" fill="#F9C8BA"/>
<path d="M82 189.062C76.8 187.84 74.1 184.832 73.9 179.849C73.8 177.499 73.7 177.499 72.8 180.789C71.9 183.986 71.5 184.268 68.1 184.268C61.7 184.268 57.5 178.345 59.3 171.858C60 169.319 61.1 167.815 63.1 166.781C66.4 165.277 68 162.832 68 159.542C68 158.226 68.9 156.627 70.2 155.875C72.2 154.653 72.9 154.653 76.6 156.157C78.8 157.098 84 158.414 88.1 158.978C92.2 159.542 96.1 160.2 96.8 160.388C99 160.952 98.1 164.431 95.3 165.841C93.7 166.593 91.3 168.191 89.8 169.601C86.4 172.516 86.1 177.499 89 182.857C90.6 185.772 90.7 186.806 89.8 187.652C88 189.25 84.9 189.814 82 189.062Z" fill="#F9C8BA"/>
<path d="M90.5 182.481C90.2 181.447 89.8 178.815 89.7 176.652C89.6 173.08 90 172.422 94.3 169.037C97.9 166.123 99 164.618 99 162.55C99 161.046 99.5 159.824 100 159.824C100.6 159.824 101 161.422 101 163.396C101 166.687 100.6 167.251 96.1 169.977C90.2 173.55 89.6 174.866 91.5 179.191C93.3 183.327 93.4 183.703 92.2 184.079C91.6 184.267 90.9 183.515 90.5 182.481Z" fill="#F9C8BA"/>
<path d="M60.6 163.678C62.4 162.644 64 161.328 64.4 160.576C64.7 159.918 64.8 160.67 64.7 162.174C64.5 164.713 64.1 164.995 61 165.277L57.5 165.559L60.6 163.678Z" fill="#F9C8BA"/>
<path d="M84.3 156.063C77 154.277 68.6 150.704 74 151.739C75.4 152.021 79 153.055 82.1 154.089C85.2 155.123 90.6 156.345 94.1 156.815C99.9 157.662 100.1 157.756 96 157.756C93.5 157.85 88.3 157.003 84.3 156.063Z" fill="#F9C8BA"/>
<path d="M66.4 155.029C65.8 154.089 67.5 152.397 69.2 152.303C70.9 152.303 70.9 154.183 69.1 155.123C67.7 155.781 66.9 155.781 66.4 155.029Z" fill="#F9C8BA"/>
<path d="M127.2 113.193C124.6 111.5 124.2 106.706 126.5 105.86C127.3 105.577 128 105.671 128 106.142C128 106.612 129.6 105.483 131.6 103.791C133.5 102.005 136 100.595 137 100.595C140.1 100.595 142.2 103.415 141.8 106.988C141.5 109.62 141.6 109.902 142.5 108.68C143.2 107.834 144 107.176 144.4 107.176C145.7 107.176 144.9 111.782 143.4 113.193C141.3 115.261 130.3 115.261 127.2 113.193ZM139 112.346C141.4 111.124 141.3 111.124 137.2 111.594C133.7 112.064 132.3 111.688 129.9 110.09C127.6 108.492 127 108.398 127 109.432C127 111.124 131.6 113.663 134.5 113.663C135.6 113.663 137.6 113.099 139 112.346Z" fill="#F9C8BA"/>
<path d="M126.9 104.261C124.7 102.851 131.5 97.7745 135.5 97.8685C138.2 97.8685 138.3 97.9625 136.6 98.9966C135.5 99.6547 133.3 101.253 131.5 102.663C129.3 104.449 128 104.92 126.9 104.261Z" fill="#F9C8BA"/>
<path d="M143 103.697C143 103.227 143.5 102.287 144 101.535C144.8 100.407 145 100.501 145 102.287C145 103.415 144.6 104.355 144 104.355C143.5 104.355 143 104.073 143 103.697Z" fill="#F9C8BA"/>
<path d="M49.5 84.6125C48.5 83.5783 46.9 82.7322 45.8 82.7322C44.5 82.7322 44 82.0741 44 80.3819C44 78.4076 43.5 78.0315 41 78.0315C39.4 78.0315 38 77.6555 38 77.0914C38 76.6213 37.3 76.1512 36.5 76.1512C35.3 76.1512 35 74.835 35 69.5702C35 63.0833 35 62.9893 37.6 62.9893C39.1 62.9893 43.1 63.4593 46.6 64.1174C52.3 65.0576 53 65.4336 53 67.4079C53 68.9121 53.6 69.5702 55 69.5702C56.6 69.5702 57 70.2283 57 72.6727C57 74.835 57.8 76.5273 59.5 78.0315C63.2 81.322 62.8 83.1083 58.2 83.4843C55.2 83.6724 53.9 83.2023 52.1 81.416C50.8 80.0998 49.2 79.3477 48.4 79.6297C47.4 80.0058 47 79.3477 47 77.1854C47 74.553 46.8 74.365 44.1 74.835C41.4 75.3991 41.2 75.1171 39.6 70.8864C38.7 68.4421 38.1 66.3738 38.3 66.1857C38.4 66.0917 41 66.4678 44.1 66.9378C49.2 67.878 49.6 68.16 49.2 70.1343C48.8 72.0146 49.2 72.3907 51.4 72.3907C53.8 72.3907 54 72.5787 52.9 74.365C52 76.0572 52.3 76.8093 55.1 79.5357C59.2 83.4843 60.1 82.9202 56.6 78.5016C55.1 76.7153 54 74.459 54.2 73.6129C54.4 72.4847 53.7 71.8266 52.2 71.6386C50.2 71.3565 49.9 70.8864 50.4 69.0062C51.1 66.3738 49.5 65.5276 41.8 64.5875C37.6 64.0234 37 64.2114 37 65.6217C37 67.0319 39.8 76.0572 40.5 76.9033C40.6 76.9974 41.9 76.7153 43.4 76.1512C46.1 75.2111 46.1 75.2111 45.4 78.6896C44.8 81.8861 44.9 82.0741 46.9 81.51C48.4 81.134 49.8 81.604 51.1 82.8262C52.4 84.0484 54.4 84.6125 57.5 84.6125C60 84.6125 62 85.0826 62 85.5526C62 86.1167 59.6 86.4928 56.7 86.4928C52.6 86.4928 50.9 86.0227 49.5 84.6125Z" fill="#F9C8BA"/>
<path d="M55.6 250.077C52.9 249.607 50 248.573 49.2 247.821C47.7 246.411 47.8 245.283 50.7 237.855C51 237.103 50.5 237.291 49.7 238.42C48.8 239.454 47.8 241.522 47.5 242.838C46.7 245.847 45.9 245.941 43.7 243.684C41.6 241.522 41.6 238.232 43.8 234.377C45.1 232.027 47.7 230.334 54.5 227.232C59.5 224.976 65.9 221.779 68.7 220.181C71.6 218.583 74.7 217.454 75.5 217.737C76.6 218.207 79 214.446 84.9 202.882C93.8 185.772 94.9 183.045 92.7 183.891C90.9 184.55 90 182.199 89.7 176.652C89.6 173.08 90 172.422 94.3 169.037C97.9 166.123 99 164.619 99 162.55C99 160.294 99.4 159.824 101.5 159.824C102.9 159.824 104 159.448 104 158.884C104 158.32 101.4 157.944 98.2 157.944C86.7 157.944 64.9 150.704 69.4 148.354C71.9 147.038 74 142.431 73.9 138.483L73.8 134.91L72.9 138.671C72.4 140.739 70.7 143.935 69.2 145.722C64.7 150.986 64.5 151.551 64.5 158.414V164.995L61.3 165.277C56.7 165.747 54 162.644 54 156.909C54 154.465 53.6 152.209 53.1 151.927C51.9 151.175 49.8 155.875 49.1 160.764C48.6 164.431 48.2 164.995 46 165.277C39.8 165.935 34.5 154.653 38.4 149.012C39.3 147.696 39.8 146.662 39.5 146.662C38.3 146.662 35 152.961 35 155.405C35 157.285 34.5 157.944 33.1 157.944C26.6 157.944 27.5 146.004 34.6 137.919C35.9 136.508 37.4 133.782 37.9 131.902C38.8 128.799 38.7 128.329 36 125.979C32.5 122.876 31.4 119.304 32.6 114.885C33.6 111.125 37.8 107.74 40.3 108.586C41.2 108.962 42.4 110.654 43 112.347C44.2 115.825 46.5 116.953 50.3 116.107C52.1 115.637 53.2 116.013 54.6 117.706C56.1 119.398 57.3 119.774 60.2 119.586C65 119.21 68.3 121.278 71.7 126.731C73.2 129.081 74.5 130.585 74.7 130.021C74.9 129.457 81.1 131.62 88.9 135.098L102.7 141.303L102.3 145.158C101.6 150.516 105.3 159.354 110 163.866C113.1 166.687 114.5 167.345 117.8 167.345C122.6 167.345 123.6 166.311 125 160.294C126.8 152.679 127 152.303 129.6 152.303C130.9 152.303 132.9 151.833 133.9 151.175C135.4 150.328 136.3 150.61 139.2 152.585C143.2 155.499 144.7 155.687 147.8 153.619C150.6 151.833 150.3 151.645 152.4 157.379C155.8 167.251 153.5 175.43 145.1 183.421C140.5 187.652 138.4 188.874 133.4 190.19C124.6 192.541 122.2 192.353 121.8 189.344C121.6 187.464 119.5 190.472 112.9 202.788C108.1 211.438 103.9 219.523 103.6 220.651C103.1 222.061 103.6 223.283 105.5 225.07C108.6 227.984 108.6 229.958 105.8 235.505C104.1 238.796 102.2 240.676 98 242.932C87.3 249.043 81 249.701 79.9 244.907C79.2 242.086 79.2 242.086 79.1 245.471C79 248.479 78.6 248.949 76 249.419C70 250.547 60.4 250.923 55.6 250.077ZM75.5 228.454C74.6 227.044 68.5 226.292 64.8 227.138C61.6 227.89 61.7 227.984 67 228.548C75.9 229.394 76.1 229.394 75.5 228.454ZM49.4 125.039C48.7 124.475 47 127.107 47.1 128.799C47.1 129.645 47.7 129.269 48.5 127.859C49.2 126.543 49.6 125.321 49.4 125.039Z" fill="white"/>
<path d="M135 232.497C120.9 230.522 109 226.668 107.1 223.659C105.9 221.497 106.3 220.369 113.3 207.207L120.9 192.917L125.4 193.387C131.2 194.045 138 192.259 143.1 188.78C147.8 185.584 147.9 185.49 139.5 198.37C136.6 202.788 133.5 207.771 132.6 209.463C130.9 212.66 132 213.6 134.2 210.874C135.2 209.557 137.3 209.087 144.5 208.899C149.5 208.711 156.9 207.771 161.2 206.831C169.4 204.857 173 204.481 173 205.703C173 206.173 171.8 206.925 170.3 207.489L167.5 208.523L171.2 208.617C176.4 208.711 182 213.788 182 218.207C182 221.873 180.2 224.694 176.2 227.326C171.3 230.616 169.6 230.616 167.7 227.514C166.7 225.916 165.2 224.694 164.4 224.694C163.3 224.694 163.4 225.352 165.1 227.514C166.4 229.018 167.1 230.617 166.7 230.899C164.8 232.685 143.5 233.813 135 232.497Z" fill="white"/>
<path d="M66.6 155.405C65.7 154.559 65.9 151.551 66.9 150.986C67.3 150.704 68.5 151.268 69.4 152.209C71.1 153.901 71.1 154.089 69.2 155.029C68.1 155.593 67 155.687 66.6 155.405Z" fill="white"/>
<path d="M113.5 142.431C112.1 141.209 111 140.551 111 141.021C111 141.585 110.1 141.115 109 140.081C107.5 138.671 106.5 138.389 105.1 139.047C103.8 139.705 102.5 139.517 100.2 138.201C98.5 137.166 92.4 134.44 86.8 131.996C78.7 128.517 75.6 126.637 72.2 123.064C69.9 120.62 67.1 118.27 66 117.987C63.7 117.329 61.5 110.56 60.5 101.347C59.9 95.8942 60.1 94.954 61.7 94.0139C63.4 92.9797 63.3 92.9797 61.5 93.6378C60.4 94.0139 54.3 94.484 48 94.766C36.7 95.1421 36.5 95.1421 38.2 93.3558C40.7 90.7234 40.5 90.2533 36.5 90.2533C33.3 90.2533 22.5 87.2449 21.2 86.0227C20.9 85.7406 21.6 84.8005 22.9 84.0484C25.1 82.5442 25 82.5442 19.3 80.0058C16.1 78.5956 12.8 76.6213 12 75.6811C11.2 74.647 11 74.1769 11.6 74.553C12.2 74.835 14.4 75.3991 16.4 75.5871L20.1 76.0572L17.5 73.1428C14.8 70.1343 9 59.9808 9 58.2885C9 57.6304 9.6 57.5364 10.7 58.1945C12.3 58.9466 12.5 58.3825 12.5 51.8016C12.5 45.5966 12.9 43.8104 15.8 38.5456C21.4 27.922 21.7 27.734 32.7 27.734C41.2 27.734 42.1 27.828 41.7 29.3322C41 31.6826 42.7 43.4343 44.1 46.3487C45.4 49.0752 46.7 48.8871 48 45.6906C48.7 44.0924 48.9 44.5625 48.9 47.759C49 52.1776 51.5 57.7244 53 56.8783C53.6 56.5023 54 55.5621 54.1 54.716C54.1 53.8699 54.7 55.1861 55.4 57.6304C56.1 60.1688 57.5 62.8952 58.4 63.7414C59.9 65.1516 60 65.0575 60 62.9892C60.1 60.7329 60.1 60.7329 61.2 62.5192C61.8 63.5533 64.4 66.7498 66.8 69.5702C70.7 73.9889 71.3 74.3649 70.8 72.1086C70.4 70.2283 71.4 67.4079 74.1 62.2371L78 54.998V59.0406C78 61.203 78.5 62.9892 79 62.9892C79.6 62.9892 80 62.7072 80 62.3311C80.1 61.109 92.2 49.3572 96.1 46.7248C101 43.2463 102 43.5283 98.3 47.2889C94.9 50.7674 92 54.622 92 55.7502C92 56.2202 93.8 55.2801 95.9 53.6818C101.3 49.6392 110.4 45.8787 115.9 45.4086L120.5 44.9385L117.2 46.9128C115.4 48.041 113.6 48.8871 113.2 48.8871C112.7 48.8871 111.3 50.0153 109.9 51.3315L107.5 53.8699L110 53.2118C117.7 51.1435 127.2 50.3914 132.7 51.5195C135.8 52.0836 138.6 52.4597 138.8 52.1776C139.4 51.7076 135.5 50.2033 131.7 49.3572L128.9 48.7931L131.9 45.5026C133.6 43.7164 135 41.272 135.1 40.1438C135.1 38.1695 135.2 38.1695 136.1 40.3318C137 42.4002 137.2 42.4942 138.6 41.178C139.4 40.4259 140.7 37.6995 141.4 35.1611C142.7 30.7424 142.8 30.6484 143.5 33.1868L144.2 35.7252L146 32.7167C146.9 31.0245 148.1 28.204 148.5 26.5118C149.1 23.5973 149.3 23.5033 150.6 25.1016C152 26.6058 152.1 26.2297 151.7 21.341L151.3 15.8882L159.3 16.1702C166.9 16.4523 167.4 16.5463 170 19.5547C174.3 24.5375 178 32.3406 178 36.6653C178 40.3318 175.1 47.1949 173 48.4171C172.5 48.6991 172 49.6392 172 50.3913C172 51.4255 172.6 51.6135 174 51.2375C177.8 50.1093 176 51.8016 168.3 56.5023C160.5 61.297 160.5 61.391 169 59.6047C170.5 59.3227 171.1 59.4167 170.5 59.9808C169 61.297 161.2 63.9294 158.7 64.0234C157.5 64.0234 157.1 64.3054 157.8 64.5875C160 65.4336 159.1 66.4678 156.5 65.9977C155.1 65.8097 151.7 66.5618 148.8 67.6899C144.4 69.4762 143.5 69.5702 142.6 68.4421C142 67.6899 139.7 65.9037 137.5 64.3994L133.5 61.579L138.2 66.5618C145.4 74.1769 148.1 80.1938 148.8 89.8773C149.2 97.2104 149.5 97.9625 151.6 98.7146C153.2 99.3727 154.8 99.1847 156.7 98.1505L159.5 96.7403L156.3 97.3044C153.4 97.8685 153 97.6804 153 95.9882C153 94.954 154.3 92.7917 156 91.1935C158.6 88.6551 158.8 88.091 157.9 85.5526C157.3 84.0484 156.4 82.7322 155.9 82.7322C155.4 82.7322 155 81.8861 155 80.9459C155 77.8435 160.1 77.0914 165.1 79.4417C168.7 81.228 170.3 84.6125 169 87.903C168.2 89.9713 168.3 90.2533 170.1 90.2533C171.2 90.2533 171.9 90.6294 171.6 91.0054C171.4 91.3815 172.7 91.5695 174.6 91.3815C178.8 90.9114 182.7 93.9199 185.5 99.7487C186.5 101.723 187.6 103.415 187.9 103.509C193.6 104.167 197.2 107.74 196.8 112.441C196.5 117.047 194.5 118.364 191.7 115.825C189 113.381 183.9 111.501 183.1 112.629C181.1 115.355 171.3 114.133 172.4 111.312C173.7 108.022 168.6 112.441 159.8 122.124C150.7 132.278 150.5 132.372 148.6 130.679C146.8 128.987 146.8 128.705 148.2 127.201C151.2 124.004 154 117.611 154 114.039L153.9 110.466L152 115.543C149.7 121.654 146.2 126.543 142 129.645C140.2 130.867 139 132.748 139 133.97C139 136.696 137.4 137.824 132.7 138.483C130.6 138.765 127.2 140.363 125.1 141.867C120.4 145.346 116.7 145.534 113.5 142.431ZM124 138.671C125.9 137.354 129.1 136.038 131.2 135.756C134.5 135.192 134.7 135.004 133.4 133.782C131.5 131.902 132.1 130.303 134.9 129.927C136.1 129.739 137.8 128.423 138.7 127.107C139.6 125.697 141.1 123.722 142.1 122.688C143 121.654 144 119.116 144.3 117.047C144.9 113.475 144.9 113.475 143.8 116.107C142.5 119.492 140 122.312 139 121.748C138.6 121.466 136.9 121.936 135.4 122.688C131.2 124.756 127.5 124.38 124.4 121.748C122.9 120.432 121.1 119.398 120.4 119.398C117.9 119.398 115.7 124.098 115.2 130.585C114.5 140.833 117.2 143.371 124 138.671ZM158 113.851C158 111.03 154.7 106.236 153.5 107.364C153.1 107.74 153.7 109.15 154.9 110.56C156 111.971 157 113.851 157 114.791C157 115.825 157.2 116.577 157.5 116.577C157.8 116.577 158 115.355 158 113.851ZM108.1 112.817C112.1 110.748 109.4 100.783 103.3 95.4241C99.8 92.4156 98.3 92.4156 96.8 95.4241C95.1 98.9966 97.5 107.74 101 111.124C104.1 114.039 105.2 114.227 108.1 112.817ZM138.3 112.723C139.7 112.159 141.4 110.654 142.1 109.432C142.8 108.116 144 107.364 144.7 107.552C146.4 108.21 146.4 106.612 144.7 105.202C143.8 104.355 143.5 102.287 143.8 98.7146C144.3 92.2276 141.3 85.6466 137.9 85.5526C136.6 85.5526 136.2 89.7833 136.9 94.2959C137.7 98.5266 137.5 98.9026 135.1 100.031C133.7 100.783 131.7 102.193 130.7 103.227C129.6 104.355 128.1 104.92 126.9 104.637C124.3 103.979 120.4 106.518 118.4 110.278L116.7 113.287L120.4 109.808C122.5 107.928 125 106.236 126.1 105.954C127.9 105.484 128 105.766 127.5 108.116C127 110.372 127.3 111.03 129.7 112.253C133.1 113.945 135.1 114.133 138.3 112.723ZM159.5 104.731C158 102.475 154 100.313 153.1 101.159C152.8 101.441 154.4 103.133 156.6 105.108C160.8 108.774 162.3 108.68 159.5 104.731ZM87.6 79.9118C88.3 74.3649 91.1 69.5702 93.8 69.4762C95 69.4762 94.9 69.1942 93.3 68.6301C90.7 67.6899 85.1 69.1002 84.9 70.7924C84.8 71.4505 84.7 75.3991 84.6 79.6297C84.5 85.7406 84.8 87.1509 85.7 86.2107C86.4 85.5526 87.2 82.7322 87.6 79.9118ZM61 83.3903C58 81.134 53.9 75.2111 54.2 73.6128C54.4 72.4847 53.7 71.8266 52.2 71.6385C50.2 71.3565 49.9 70.8864 50.4 69.0061C51.1 66.3737 49.5 65.5276 41.6 64.4935L36.7 63.9294L37.4 67.5019C37.8 69.3822 38.3 71.4505 38.4 71.9206C38.6 72.4847 39.1 73.8009 39.5 75.023C40.3 77.4674 40.1 77.3734 43.5 76.1512C46.1 75.2111 46.1 75.3051 45.4 78.6896C44.8 81.8861 44.9 82.0741 46.9 81.51C48.4 81.134 49.8 81.604 51.1 82.8262C52.4 84.0484 54.4 84.6125 57.8 84.6125C61.6 84.5185 62.2 84.3304 61 83.3903ZM134 67.1259C130.6 62.6132 127.7 61.8611 127.2 65.5276C126.9 67.1259 127.3 67.4079 128.8 67.0318C130 66.7498 131.7 67.5019 133.3 69.0061C137.2 72.6727 137.5 71.9206 134 67.1259ZM131.6 56.7843C130.4 56.0322 127.5 55.4681 124.6 55.5621L119.5 55.6561L124.5 56.7843C127.3 57.3484 130.4 57.9125 131.5 58.0065C133.5 58.1945 133.5 58.1945 131.6 56.7843Z" fill="white"/>
<path d="M128.2 128.611C126.2 126.731 126.8 125.979 130.5 125.979C132.9 125.979 134 126.449 134 127.389C134 128.141 133.6 128.799 133.1 128.799C132.6 128.799 131.6 128.987 130.8 129.269C130.1 129.551 128.9 129.269 128.2 128.611Z" fill="white"/>
<path d="M135 127.107C135 126.167 137.1 124.099 138.2 124.099C139.8 124.099 139 125.885 137 126.919C135.9 127.483 135 127.577 135 127.107Z" fill="white"/>
<path d="M98.1 98.0566C98 95.8002 98.4 94.9541 99.6 94.9541C100.8 94.9541 101 95.2361 100.2 96.1763C99.7 96.7404 99 98.1506 98.7 99.1847C98.4 100.407 98.2 100.031 98.1 98.0566Z" fill="white"/>
</svg>
