<svg width="135" height="130" viewBox="0 0 135 130" fill="none" xmlns="http://www.w3.org/2000/svg">
<g clip-path="url(#clip0_639_10492)">
<rect width="135" height="130" fill="white"/>
<rect x="-133.5" y="1.5" width="402" height="387" rx="18.5" fill="#FDFFEF" stroke="black" stroke-width="3"/>
<path d="M-0.951933 364.794C-3.95578 363.766 -7.36924 361.838 -8.73462 360.296C-9.96347 358.882 -11.875 357.725 -12.9673 357.725C-13.9231 357.725 -15.9712 356.569 -17.2 355.284C-19.3846 353.099 -19.3846 352.071 -18.0192 347.829C-14.0596 336.52 -10.3731 333.692 20.2115 318.784C29.9058 314.157 30.5884 313.386 35.5038 304.646C44.5154 288.453 47.7923 281.769 47.2462 281.127C46.8365 280.87 44.6519 281.255 42.3308 282.027C37.5519 283.569 31.4077 281.255 27.9942 276.757C26.3558 274.572 25.6731 274.444 21.9865 275.729C16.525 277.657 9.8346 275.215 6.42114 269.817C3.41729 265.062 3.28076 262.491 5.87499 255.551C7.10384 252.21 7.3769 250.282 6.42114 249.896C1.64229 248.354 -1.90771 243.599 -2.04425 238.458C-2.18078 235.502 -2.72693 233.06 -3.27308 233.06C-4.36539 233.06 -4.91155 237.944 -4.3654 242.442C-4.09232 245.912 -8.32501 249.768 -12.5577 249.768C-16.5173 249.768 -22.7981 244.884 -24.1635 240.643C-24.7096 238.972 -26.3481 238.201 -28.9423 238.201C-33.8577 238.201 -38.5 232.931 -38.5 227.405C-38.5 222.65 -34.1308 214.167 -29.8981 210.697C-28.2596 209.412 -26.7577 206.842 -26.6212 205.171C-26.4846 203.372 -25.3923 200.93 -24.3 199.773C-21.2962 196.56 -21.5693 195.789 -26.3481 194.247C-39.3193 190.005 -33.8577 168.799 -19.7942 168.799C-15.8346 168.799 -14.8789 169.442 -13.2404 173.169C-10.7827 178.567 -9.00769 179.724 -3.54616 179.21C-1.08846 179.081 1.6423 179.724 2.87115 180.88C5.32884 183.194 10.6538 183.708 10.6538 181.652C10.6538 180.88 9.69807 178.439 8.33269 176.125C7.10384 173.683 6.01152 168.157 5.73844 162.502C5.46537 157.361 5.05576 152.863 4.78268 152.477C4.37306 152.22 1.64231 152.606 -1.49808 153.248C-5.18462 154.019 -10.6462 154.019 -16.6539 153.12L-26.075 151.835L-22.3885 148.622L-18.7019 145.537L-24.5731 146.437C-29.625 147.079 -31.9462 146.565 -39.4558 143.095L-48.4673 138.854L-44.5077 136.926L-40.5481 134.998L-43.9616 134.099C-50.1058 132.556 -55.9769 129.086 -58.8442 125.231L-61.7116 121.504L-56.1135 123.431C-52.9731 124.331 -50.1058 124.845 -49.6962 124.46C-49.2865 124.074 -50.7885 121.889 -53.2462 119.576C-57.3423 115.592 -64.4423 102.997 -64.4423 99.6551C-64.4423 98.4984 -63.4866 98.4984 -60.3462 100.041C-56.25 102.097 -54.8846 101.197 -57.7519 98.4984C-58.7077 97.5987 -59.2539 93.229 -59.2539 88.2167C-59.1173 77.935 -55.0212 68.81 -47.5115 61.7413C-42.3231 56.729 -33.4481 54.8012 -23.7539 56.3434C-15.5615 57.6286 -15.1519 58.1427 -13.9231 71.766C-12.6942 85.2607 -10.9192 89.2448 -8.46155 83.4614C-7.77886 81.5336 -7.09616 78.4491 -7.09616 76.5213C-6.95963 73.4367 -6.82308 73.3082 -5.59423 75.3646C-4.775 76.6498 -4.3654 79.4772 -4.50194 81.7906C-5.0481 86.8029 -3.13654 98.1128 -1.9077 98.1128C-1.36154 98.1128 0.0038318 95.9279 1.36922 93.229L3.55384 88.4737L3.69037 94.5142C3.8269 102.354 6.14808 108.394 8.05961 105.824C9.15192 104.282 10.2442 104.796 14.0673 108.652C16.7981 111.35 19.6654 113.535 20.7577 113.535C23.4884 113.535 26.9019 104.41 28.4038 94.0001C28.95 89.1163 29.7692 84.7466 30.1788 84.4896C30.4519 84.104 31.2711 89.2448 31.8173 95.7994L32.7731 107.752L35.5038 104.539C36.8692 102.74 39.4635 99.6551 41.1019 97.5987C46.1538 91.1727 55.7115 82.9473 61.8558 79.4772C68.2731 76.0072 73.5981 74.979 68 78.3205C64.8596 80.2484 57.4865 87.9596 51.8885 95.4139C50.6596 97.2132 47.2462 100.812 44.5154 103.639C41.6481 106.467 39.3269 109.166 39.3269 109.808C39.3269 110.451 37.5519 110.965 35.3673 110.965C30.4519 110.965 27.0385 115.463 27.0385 121.889C27.0385 126.13 26.7654 126.387 22.6692 126.259C18.9827 126.259 17.3442 125.102 12.975 119.833C10.2442 116.363 6.83076 113.535 5.46537 113.535C4.09999 113.535 2.32499 112.893 1.36922 111.993C0.14037 110.836 -0.269241 110.965 -0.269241 112.507C-0.269241 113.664 0.959605 114.821 2.46153 115.206C4.09999 115.592 5.1923 117.005 5.1923 118.676C5.1923 121.632 9.97114 128.829 12.975 130.629C13.9308 131.143 14.75 133.713 14.75 136.027V140.525H4.78268C-1.90771 140.525 -6.1404 139.882 -7.9154 138.597C-9.28079 137.569 -11.875 136.669 -13.5135 136.669C-15.9712 136.669 -16.6539 135.898 -16.6539 133.456C-16.6539 131.014 -17.3366 130.243 -19.7942 130.243C-22.3885 130.243 -23.3442 129.086 -25.2558 123.431C-26.4846 119.576 -27.5769 113.792 -27.5769 110.322V104.153L-17.7462 105.053C-12.4212 105.439 -6.55001 106.21 -4.77501 106.595C-2.86348 107.109 -1.63463 106.852 -1.63463 105.824C-1.63463 105.053 -2.86347 104.025 -4.3654 103.639C-7.2327 102.868 -11.1923 97.2132 -11.1923 93.6146C-11.1923 92.5864 -12.2846 91.6867 -13.65 91.6867C-17.2 91.6867 -19.2481 86.6744 -20.8866 74.4649C-21.7058 68.81 -22.525 63.9262 -22.7981 63.5406C-23.2077 63.2836 -26.7577 63.0265 -30.8538 62.898C-39.5923 62.898 -41.3673 64.3117 -48.3308 77.5494C-52.2904 84.7466 -52.8366 86.9315 -52.5635 94.5142C-52.4269 99.5265 -52.8365 103.254 -53.6558 103.254C-55.2942 103.254 -50.5154 112.122 -46.0096 117.134C-44.0981 119.19 -42.5962 122.532 -42.5962 124.331C-42.5962 126.773 -41.7769 127.801 -39.1827 128.444C-36.5885 129.086 -35.7692 130.115 -35.7692 132.942C-35.7692 137.44 -32.6289 139.24 -22.6615 140.139C-15.9712 140.782 -15.2885 141.167 -15.2885 144.123C-15.2885 147.208 -15.1519 147.208 -6.68654 146.565C-2.04424 146.18 5.05576 145.409 9.01538 144.894L16.1154 143.995V148.75C16.1154 151.321 15.5692 153.377 14.75 153.377C10.5173 153.377 15.7058 177.153 20.2115 178.439C21.7135 178.824 25.5365 182.037 28.6769 185.379C33.3192 190.262 37.5519 192.833 48.8846 197.717C56.8038 201.058 63.9038 204.271 64.5865 204.785C65.4058 205.299 68.8192 206.071 72.2327 206.328L78.65 206.97L79.1961 196.946C80.0154 183.708 82.3365 180.366 90.5288 180.366C95.0346 180.366 97.3558 181.137 98.9942 182.937C101.588 185.764 104.865 186.15 108.688 184.35C109.917 183.708 112.238 182.68 113.74 182.166C115.788 181.394 114.423 181.009 108.962 180.366C100.906 179.595 95.3077 177.282 95.3077 174.84C95.3077 174.069 94.3519 174.711 93.1231 176.254C91.6211 178.181 89.7096 179.081 86.2961 179.081C82.0634 179.081 81.6538 178.824 81.6538 175.225C81.6538 167.257 88.3442 159.803 95.4442 159.803C97.3558 159.803 100.087 158.646 101.452 157.233C102.817 155.819 105.002 154.405 106.367 154.019C108.552 153.377 108.825 152.349 108.142 148.236C107.596 145.409 107.733 141.167 108.142 138.597C109.098 134.356 109.371 134.099 114.423 134.099C117.563 134.099 120.567 134.998 122.069 136.284C124.254 138.34 124.254 138.34 123.298 135.384C122.752 133.585 120.977 129.986 119.475 127.416C117.154 123.303 115.925 122.532 112.375 122.532C109.917 122.532 106.367 121.375 104.456 119.961C102.544 118.548 99.6769 117.391 98.0385 117.391C95.3077 117.391 95.0346 116.877 95.5808 110.322L95.9904 103.125L90.9385 102.354C87.1154 101.84 85.75 101.069 85.75 99.2695C85.75 97.2132 84.9308 97.0846 78.9231 97.7272C72.2327 98.4984 72.0961 98.3698 72.0961 95.1568V91.6867L67.3173 93.8716C64.7231 95.0283 62.5385 96.442 62.5385 97.0846C62.5385 97.5987 60.2173 98.1128 57.4865 98.1128L52.2981 97.9843L58.4423 92.8434C67.3173 85.2607 76.6019 81.2765 86.2961 80.5054L94.625 79.9913L88.2077 83.847C84.5212 86.0318 81.1077 87.8311 80.2885 87.8311C78.7865 87.8311 73.1884 93.229 74.0077 93.8716C74.2808 94.1286 76.875 93.486 79.6058 92.4579C82.4731 91.3012 88.0712 90.016 92.0308 89.6304C98.5846 88.8593 99.8135 88.2167 104.183 82.9473C106.777 79.7343 108.962 75.6216 109.098 73.8223L109.235 70.4808L110.737 74.0793C111.556 76.0072 112.648 77.5494 113.194 77.5494C113.74 77.5494 115.379 74.0794 116.744 69.8382C118.792 63.1551 119.338 62.3839 120.84 64.1832C123.435 67.5248 125.21 65.2114 126.165 56.8575L127.121 49.1463L129.715 52.7448L132.446 56.3434L131.627 51.2026C131.217 48.3751 130.671 44.9051 130.535 43.4913C130.125 41.0494 130.944 40.9209 141.048 40.9209C154.429 40.9209 158.252 43.1058 165.762 54.6727C169.721 60.7132 171.087 64.4403 171.496 69.8382C172.042 76.6498 171.769 77.2924 166.308 83.847C163.167 87.5741 160.983 90.9156 161.392 91.3012C161.665 91.6867 163.85 91.0441 166.171 90.016L170.267 88.0882L167.537 91.4297C166.035 93.3575 162.758 96.3135 160.163 98.1128C154.702 101.84 154.156 103.382 158.525 102.225C161.256 101.583 161.392 101.711 159.617 103.768C156.887 106.852 150.742 109.68 146.51 109.68C142.687 109.68 142.14 110.836 144.871 113.407C146.237 114.692 145.827 114.692 142.687 113.407C139.41 111.993 138.181 112.122 133.675 114.564C130.808 116.106 127.394 117.391 126.165 117.391C123.435 117.391 123.435 118.548 125.756 121.889C129.306 126.644 131.217 133.456 132.173 143.095C132.992 152.349 132.992 152.606 134.767 148.879C136.815 144.38 141.048 140.268 142.413 141.553C142.96 142.067 142.413 140.91 141.048 138.854C139.819 136.926 139.273 135.384 139.819 135.384C140.502 135.384 139.956 134.741 138.727 133.97C132.583 130.629 139.546 124.331 147.602 125.745C155.658 127.159 158.798 131.143 158.115 138.854C157.842 142.196 161.938 144.509 166.035 143.481C167.673 143.095 170.54 143.738 172.452 144.894C176.685 147.465 183.238 158.004 182.146 160.574C181.737 161.602 181.873 162.116 182.692 161.731C183.512 161.345 184.058 161.474 184.058 162.116C184.058 162.887 185.287 163.144 186.788 162.759C188.563 162.373 190.748 163.402 193.615 165.972C198.394 170.599 199.213 177.41 195.254 180.752C192.523 183.065 186.925 182.68 184.74 179.981C183.238 178.053 178.05 175.225 176.275 175.225C175.729 175.225 176.002 175.74 176.958 176.254C178.187 177.025 176.821 177.924 173.135 179.081C168.083 180.623 166.99 180.623 162.621 178.439C157.979 175.997 157.706 175.997 155.931 178.31C154.975 179.595 152.108 182.808 149.65 185.379C147.192 187.949 142.14 193.347 138.59 197.46L132.037 204.914L133.538 211.983C134.904 218.28 134.767 219.565 132.446 224.064C130.944 226.891 130.398 229.204 131.081 229.204C133.812 229.204 138.044 241.414 138.181 249.125C138.181 256.065 137.225 258.636 128.487 275.472C123.162 285.754 117.154 296.549 115.106 299.634L111.556 305.032H120.84C125.892 305.032 135.04 303.747 141.048 302.333C156.34 298.606 161.119 298.477 162.894 302.076C163.577 303.618 165.898 305.674 168.083 306.446C173.544 308.63 177.231 314.157 177.231 320.326C177.231 324.567 176.412 326.366 172.588 329.965C169.994 332.407 165.488 335.106 162.621 335.877C159.754 336.777 156.887 337.933 156.067 338.447C150.606 342.303 117.427 343.588 102.817 340.504C95.5808 338.961 83.7019 335.363 77.4211 332.792C75.5096 332.021 75.1 332.921 74.5538 338.19C74.1442 341.917 72.6423 346.287 70.8673 348.6C67.1808 353.356 47.3827 362.866 40.9654 362.866C38.6442 362.866 33.1827 363.766 28.8135 364.794C19.1192 367.236 6.28461 367.236 -0.951933 364.794ZM23.3519 358.368C29.6327 357.597 29.7692 357.468 29.7692 353.099C29.7692 348.986 30.0423 348.729 34.5481 348.729C38.7808 348.729 39.3269 349.115 39.3269 352.071C39.3269 355.155 39.7365 355.412 43.5596 354.641C45.8808 354.255 51.3423 351.814 55.7115 349.372C61.4461 346.03 64.0404 343.588 65.9519 339.604C68.5461 334.335 68.5461 334.335 65.5423 332.021C59.6711 327.523 61.1731 321.483 75.1 296.035C87.3885 273.287 87.6615 272.902 92.0308 272.902C95.7173 272.902 96.5365 273.416 96.9461 275.858L97.3558 278.942L104.865 277.014C110.737 275.472 114.013 273.416 120.021 267.889C129.715 258.764 133.265 250.153 130.671 242.185C129.033 237.044 128.896 236.916 122.752 236.916C119.338 236.916 115.242 236.016 113.877 234.988C110.054 232.289 103.91 232.546 102.954 235.373C102.544 236.53 101.588 240.386 100.769 243.984C98.5846 252.981 97.7654 253.623 86.8423 253.623C77.4212 253.623 77.1481 253.495 71.8231 248.483C68.8192 245.655 66.0884 243.342 65.8154 243.342C65.5423 243.342 65.2692 245.012 65.2692 247.069C65.2692 250.025 63.9038 251.953 59.125 255.68C52.1615 260.949 50.7962 266.218 55.8481 267.375C61.3096 268.789 58.7154 278.428 46.4269 301.947C37.6884 318.655 34.6846 323.025 32.6365 323.025C31.1346 323.025 28.2673 323.667 26.3558 324.567L22.6692 326.109L27.9942 327.523C32.7731 328.808 33.1827 329.322 33.5923 333.821L34.0019 338.704L20.6211 337.805C13.2481 337.291 6.9673 336.52 6.55768 335.877C6.14807 335.363 2.87114 336.391 -0.951933 337.933C-6.82309 340.504 -7.2327 341.018 -3.95578 341.018C-0.678852 341.018 -0.269241 341.403 -0.269241 345.645C-0.269241 348.086 -0.951942 351.428 -1.77117 352.842C-2.72694 354.512 -2.72693 355.926 -1.9077 356.697C-0.542314 357.983 11.6096 360.167 14.75 359.653C15.8423 359.396 19.6654 358.882 23.3519 358.368ZM140.365 335.106C145.008 334.335 145.144 334.206 144.735 329.322L144.188 324.31H150.333C154.975 324.31 156.887 324.953 158.252 327.009L160.163 329.708L163.987 326.88C170.95 321.74 171.223 319.555 165.625 314.542C161.938 311.329 159.344 310.173 156.067 310.173C153.61 310.173 151.288 309.53 151.015 308.759C150.606 307.731 148.967 307.731 145.144 308.63C142.14 309.402 133.948 310.43 127.121 310.944C119.065 311.458 113.877 312.486 112.921 313.514C112.102 314.542 108.962 315.314 106.094 315.314C101.042 315.314 100.769 315.056 100.769 311.458C100.769 307.474 104.456 299.634 109.235 293.208L111.829 289.609H103.227H94.625L85.4769 306.831C75.3731 325.724 75.3731 325.081 85.75 328.551C103.227 334.335 126.985 337.162 140.365 335.106ZM42.0577 272.13C41.2385 270.331 40.6923 265.062 40.6923 260.564C40.6923 252.724 40.9654 251.953 45.0615 248.354C47.5192 246.298 50.1135 244.627 50.9327 244.498C52.2981 244.498 29.7692 239.615 25.6731 239.1C24.4442 238.972 23.4884 240.514 22.8058 243.856C21.9865 248.483 20.3481 250.539 14.3404 254.266C10.3808 256.708 10.3808 260.821 14.2038 265.062C18.7096 270.203 19.9385 270.074 21.0308 264.548C21.85 260.435 22.2596 260.049 26.4923 260.049C30.5885 260.049 31.1346 260.435 31.1346 263.391C31.1346 269.303 36.05 275.343 40.9654 275.472C43.0134 275.472 43.15 274.958 42.0577 272.13ZM-8.46155 227.534C-6.82309 224.449 -5.86733 223.935 -1.77117 224.321C3.00767 224.706 3.14422 224.835 3.55384 230.49C3.96346 236.916 6.14807 242.056 8.60576 242.056C9.69807 242.056 9.97114 239.615 9.56152 234.474C8.87883 226.377 9.8346 223.806 16.3884 216.224C21.85 209.798 22.8058 202.472 18.9827 196.689C14.8865 190.391 11.0635 188.463 4.23653 189.106C-0.815391 189.62 -1.63463 190.005 -1.63463 192.704C-1.63463 198.745 -4.50193 202.215 -9.41731 202.215C-13.7865 202.215 -13.9231 202.086 -13.9231 197.203C-13.9231 189.363 -12.9673 188.078 -6.82309 188.078C-2.04425 188.078 -1.49809 187.821 -3.00001 186.15C-3.95578 185.122 -6.95962 184.222 -9.69039 184.222C-15.8346 184.222 -17.4731 183.194 -19.2481 178.696C-20.8865 174.711 -23.0712 175.097 -24.7096 179.595C-26.075 182.808 -23.3442 188.72 -19.3846 190.648C-14.3327 193.218 -16.5173 206.199 -23.4808 214.424C-27.5769 219.308 -29.0789 222.136 -25.9385 219.18C-24.9827 218.28 -22.2519 217.637 -19.7942 217.637C-15.5616 217.637 -15.2885 217.895 -15.2885 221.879C-15.2885 224.064 -16.2442 227.148 -17.3365 228.433C-19.7942 231.389 -18.8385 235.116 -14.7423 239.229L-11.875 242.314L-11.0558 236.659C-10.6462 233.703 -9.41732 229.461 -8.46155 227.534ZM89.1635 237.944C89.8461 235.245 89.7096 233.703 88.6173 233.317C87.7981 233.06 87.1154 231.132 87.1154 229.076C87.1154 225.991 86.5692 225.349 83.975 225.349C82.2 225.349 79.6058 224.449 78.1038 223.421C73.1884 219.951 72.0962 220.979 74.2808 227.02C76.0558 231.903 84.9308 242.056 87.2519 242.056C87.7981 242.056 88.7538 240.257 89.1635 237.944ZM61.9923 231.004C61.5827 229.847 61.1731 226.377 61.1731 223.292V217.509L46.7 211.211C38.7808 207.613 32.0904 204.785 31.8173 204.785C31.5442 204.785 31.1346 208.384 30.8615 212.882C30.5885 217.252 29.9058 221.75 29.3596 222.907C28.1308 225.349 31.9538 227.148 45.4711 230.49C57.8961 233.574 63.0846 233.831 61.9923 231.004ZM125.483 209.412C124.663 207.613 123.435 206.071 122.615 206.071C120.294 206.071 121.113 210.954 123.571 212.368C126.712 214.039 127.121 213.525 125.483 209.412ZM130.808 166.615C130.808 162.887 130.398 159.803 129.852 159.803C129.169 159.803 128.76 163.53 128.76 168.028C128.76 172.655 129.169 175.611 129.715 174.84C130.262 173.94 130.808 170.213 130.808 166.615ZM161.392 167.514C164.806 167.514 166.171 168.157 166.717 170.085C167.4 172.784 171.769 173.683 171.769 171.241C171.769 169.571 182.556 170.213 187.471 172.141C189.929 173.041 190.065 172.912 188.154 170.727C187.062 169.442 184.058 167.643 181.737 166.615C179.006 165.586 176.275 163.016 174.637 160.06C170.95 153.377 166.581 150.035 160.3 149.136C153.746 148.108 153.746 148.108 152.79 141.553C152.244 138.083 150.879 135.641 148.967 134.356C145.827 132.556 145.827 132.556 145.827 139.882C145.827 146.18 145.281 147.593 141.867 150.935C139.683 152.991 137.225 154.662 136.406 154.662C135.587 154.662 134.904 155.305 134.904 155.947C134.904 157.49 137.225 157.618 138.181 156.076C139.546 154.148 144.325 156.076 147.192 159.546C150.469 163.402 150.879 171.37 147.875 171.37C146.646 171.37 145.827 172.527 145.827 174.069C145.827 176.511 146.373 176.382 151.288 172.141C155.248 168.799 157.979 167.514 161.392 167.514ZM114.423 165.972C114.423 163.53 113.331 163.659 109.235 166.615C107.869 167.643 107.869 168.157 109.098 168.928C111.556 170.342 114.423 168.799 114.423 165.972ZM132.583 107.366C134.631 107.109 136.269 106.338 136.269 105.696C136.269 105.053 137.498 104.539 139 104.539C140.638 104.539 141.731 103.639 141.731 102.225C141.731 100.94 144.735 98.3698 149.24 95.7994C154.975 92.5864 156.75 90.7871 156.75 88.4737C156.75 86.8029 158.252 83.2044 160.163 80.6339C165.352 73.3082 165.625 70.8663 161.392 62.898C155.658 51.8452 151.698 48.2466 144.188 47.2184L137.635 46.4473V53.6445C137.635 59.942 137.362 60.8417 134.904 60.8417C133.402 60.8417 132.173 61.7413 132.173 62.7695C132.173 65.9825 127.394 73.5653 125.346 73.6938C124.254 73.6938 122.342 75.6216 121.25 77.935C120.021 80.5054 117.973 82.1762 116.198 82.4332C112.102 82.9473 112.238 84.4896 116.471 86.2889C119.202 87.4455 119.885 88.7308 119.885 92.3294C119.885 96.442 119.612 96.8276 115.788 96.8276C112.785 96.8276 111.692 97.4702 111.692 99.141C111.829 101.968 123.981 109.937 126.712 108.909C127.804 108.394 130.398 107.752 132.583 107.366Z" fill="black"/>
<path d="M36.7327 129.6C36.7327 118.291 37.1423 114.435 38.7807 113.021C41.375 110.451 49.0211 109.166 55.0288 110.194C59.398 110.965 59.8077 111.479 59.8077 115.463C59.8077 118.548 59.125 119.961 57.8961 119.961C54.6192 119.961 50.6596 126.645 49.8403 133.97C48.748 142.324 47.1096 144.38 41.375 144.38H36.8692L36.7327 129.6Z" fill="black"/>
<path d="M-6.41347 136.669C-7.77886 135.255 -9.96347 134.098 -11.4654 134.098C-13.2404 134.098 -13.9231 133.199 -13.9231 130.885C-13.9231 128.186 -14.6058 127.672 -18.0192 127.672C-20.2039 127.672 -22.1154 127.158 -22.1154 126.387C-22.1154 125.744 -23.0712 125.102 -24.1635 125.102C-25.8019 125.102 -26.2115 123.303 -26.2115 116.105C-26.2115 107.237 -26.2115 107.109 -22.6615 107.109C-20.6135 107.109 -15.1519 107.751 -10.3731 108.651C-2.59039 109.936 -1.63463 110.45 -1.63463 113.149C-1.63463 115.206 -0.815395 116.105 1.09614 116.105C3.28076 116.105 3.82691 117.005 3.82691 120.347C3.82691 123.303 4.91922 125.616 7.24037 127.672C12.2923 132.171 11.7461 134.612 5.46537 135.126C1.36922 135.384 -0.405771 134.741 -2.86346 132.299C-4.63846 130.5 -6.8231 129.472 -7.9154 129.857C-9.28079 130.371 -9.82693 129.472 -9.82693 126.516C-9.82693 122.917 -10.1 122.66 -13.7865 123.303C-17.4731 124.074 -17.7462 123.688 -19.9308 117.905C-21.1596 114.563 -21.9789 111.736 -21.7058 111.479C-21.5692 111.35 -18.0192 111.864 -13.7865 112.507C-6.82308 113.792 -6.27694 114.178 -6.82309 116.876C-7.36924 119.447 -6.8231 119.961 -3.81925 119.961C-0.542326 119.961 -0.269249 120.218 -1.77117 122.66C-3.00002 124.973 -2.59039 126.001 1.23269 129.729C6.83077 135.126 8.05961 134.355 3.28077 128.315C1.23269 125.873 -0.269245 122.788 0.00383189 121.632C0.276909 120.09 -0.67886 119.19 -2.72694 118.933C-5.45771 118.547 -5.86733 117.905 -5.18463 115.334C-4.22886 111.736 -6.41347 110.579 -16.9269 109.294C-22.6615 108.523 -23.4808 108.78 -23.4808 110.707C-23.4808 112.635 -19.6577 124.973 -18.7019 126.13C-18.5654 126.259 -16.7904 125.873 -14.7423 125.102C-11.0558 123.817 -11.0558 123.817 -12.0116 128.572C-12.8308 132.942 -12.6942 133.199 -9.96348 132.428C-7.9154 131.913 -6.00385 132.556 -4.22885 134.227C-2.45385 135.898 0.276913 136.669 4.50961 136.669C7.92307 136.669 10.6538 137.311 10.6538 137.954C10.6538 138.725 7.37691 139.239 3.41729 139.239C-2.18078 139.239 -4.50193 138.597 -6.41347 136.669Z" fill="#F9C8BA"/>
<path d="M80.9711 215.709C79.0596 214.038 77.5577 213.139 77.5577 213.781C77.5577 214.552 76.3288 213.91 74.8269 212.496C72.7788 210.568 71.4135 210.183 69.5019 211.082C67.7269 211.982 65.9519 211.725 62.8115 209.926C60.4904 208.512 52.1615 204.785 44.5154 201.443C33.4558 196.688 29.2231 194.118 24.5808 189.234C21.4404 185.892 17.6173 182.679 16.1154 182.294C12.975 181.394 9.97114 172.14 8.60576 159.545C7.78653 152.091 8.0596 150.806 10.2442 149.521C12.5654 148.107 12.4288 148.107 9.97114 149.007C8.46922 149.521 0.140374 150.163 -8.46155 150.549C-23.8904 151.063 -24.1635 151.063 -21.8423 148.621C-18.4289 145.023 -18.7019 144.38 -24.1635 144.38C-28.5327 144.38 -43.2789 140.267 -45.0539 138.596C-45.4635 138.211 -44.5077 136.926 -42.7327 135.898C-39.7289 133.841 -39.8654 133.841 -47.6481 130.371C-52.0173 128.443 -56.5231 125.744 -57.6154 124.459C-58.7077 123.045 -58.9808 122.403 -58.1616 122.917C-57.3423 123.302 -54.3385 124.074 -51.6077 124.331L-46.5558 124.973L-50.1058 120.989C-53.7923 116.876 -61.7115 102.996 -61.7115 100.683C-61.7115 99.7831 -60.8923 99.6546 -59.3904 100.554C-57.2058 101.582 -56.9327 100.811 -56.9327 91.8148C-56.9327 83.3324 -56.3865 80.8905 -52.4269 73.6933C-44.7808 59.1704 -44.3712 58.9134 -29.3519 58.9134C-17.7462 58.9134 -16.5173 59.0419 -17.0635 61.0982C-18.0192 64.3113 -15.6981 80.3764 -13.7865 84.3606C-12.0115 88.0877 -10.2365 87.8306 -8.46155 83.4609C-7.50578 81.2761 -7.23271 81.9187 -7.23271 86.2884C-7.09617 92.3289 -3.6827 99.9116 -1.63463 98.7549C-0.815396 98.2408 -0.269233 96.9556 -0.132695 95.799C-0.132695 94.6423 0.686519 96.4416 1.64229 99.7831C2.59806 103.253 4.5096 106.98 5.73844 108.137C7.78652 110.065 7.92307 109.936 7.92307 107.109C8.0596 104.024 8.0596 104.024 9.56152 106.466C10.3808 107.88 13.9308 112.25 17.2077 116.105C22.5327 122.146 23.3519 122.66 22.6692 119.575C22.1231 117.005 23.4885 113.149 27.175 106.081L32.5 96.1845V101.711C32.5 104.667 33.1827 107.109 33.8654 107.109C34.6846 107.109 35.2308 106.723 35.2308 106.209C35.3673 104.538 51.8885 88.4732 57.2135 84.8747C63.9038 80.1194 65.2692 80.5049 60.2173 85.6458C55.575 90.4011 51.6154 95.6704 51.6154 97.2127C51.6154 97.8553 54.0731 96.5701 56.9404 94.3852C64.3134 88.8588 76.7384 83.718 84.2481 83.0754L90.5288 82.4328L86.0231 85.1317C83.5654 86.6739 81.1077 87.8306 80.5615 87.8306C79.8788 87.8306 77.9673 89.3729 76.0557 91.1722L72.7788 94.6423L76.1923 93.7426C86.7058 90.9151 99.6769 89.887 107.187 91.4292C111.419 92.2004 115.242 92.7144 115.515 92.3289C116.335 91.6863 111.01 89.6299 105.821 88.4732L101.998 87.7021L106.094 83.2039C108.415 80.762 110.327 77.4204 110.463 75.8782C110.463 73.1792 110.6 73.1792 111.829 76.1352C113.058 78.9627 113.331 79.0912 115.242 77.2919C116.335 76.2637 118.11 72.5366 119.065 69.0666C120.84 63.0261 120.977 62.8975 121.933 66.3676L122.888 69.8377L125.346 65.725C126.575 63.4116 128.213 59.556 128.76 57.2426C129.579 53.2585 129.852 53.1299 131.627 55.3148C133.538 57.3711 133.675 56.8571 133.129 50.174L132.583 42.7197L143.506 43.1053C153.883 43.4909 154.565 43.6194 158.115 47.732C163.987 54.5437 169.038 65.2109 169.038 71.1229C169.038 76.1352 165.079 85.5173 162.212 87.188C161.529 87.5736 160.846 88.8588 160.846 89.887C160.846 91.3007 161.665 91.5578 163.577 91.0437C168.765 89.5014 166.308 91.8148 155.794 98.2408C145.144 104.795 145.144 104.924 156.75 102.482C158.798 102.096 159.617 102.225 158.798 102.996C156.75 104.795 146.1 108.394 142.687 108.523C141.048 108.523 140.502 108.908 141.458 109.294C144.462 110.45 143.233 111.864 139.683 111.221C137.771 110.964 133.129 111.993 129.169 113.535C123.162 115.977 121.933 116.105 120.704 114.563C119.885 113.535 116.744 111.093 113.74 109.037L108.279 105.181L114.696 111.993C124.527 122.403 128.213 130.628 129.169 143.866C129.715 153.89 130.125 154.919 132.992 155.947C135.177 156.846 137.362 156.589 139.956 155.176L143.779 153.248L139.41 154.019C135.45 154.79 134.904 154.533 134.904 152.22C134.904 150.806 136.679 147.85 139 145.665C142.55 142.195 142.823 141.424 141.594 137.954C140.775 135.898 139.546 134.098 138.863 134.098C138.181 134.098 137.635 132.942 137.635 131.656C137.635 127.415 144.598 126.387 151.425 129.6C156.34 132.042 158.525 136.669 156.75 141.167C155.658 143.994 155.794 144.38 158.252 144.38C159.754 144.38 160.71 144.894 160.3 145.408C160.027 145.922 161.802 146.179 164.396 145.922C170.131 145.28 175.456 149.392 179.279 157.361C180.644 160.06 182.146 162.373 182.556 162.501C190.338 163.401 195.254 168.285 194.708 174.711C194.298 181.008 191.567 182.808 187.744 179.338C184.058 175.996 177.094 173.426 176.002 174.968C173.271 178.695 159.89 177.024 161.392 173.169C163.167 168.67 156.204 174.711 144.188 187.949C131.763 201.829 131.49 201.957 128.896 199.644C126.438 197.331 126.438 196.945 128.35 194.889C132.446 190.519 136.269 181.78 136.269 176.896L136.133 172.012L133.538 178.952C130.398 187.306 125.619 193.989 119.885 198.23C117.427 199.901 115.788 202.471 115.788 204.142C115.788 207.869 113.604 209.412 107.187 210.311C104.319 210.697 99.6769 212.882 96.8096 214.938C90.3923 219.693 85.3404 219.95 80.9711 215.709ZM95.3077 210.568C97.9019 208.769 102.271 206.97 105.138 206.584C109.644 205.813 109.917 205.556 108.142 203.885C105.548 201.315 106.367 199.13 110.19 198.616C111.829 198.359 114.15 196.56 115.379 194.76C116.608 192.832 118.656 190.133 120.021 188.72C121.25 187.306 122.615 183.836 123.025 181.008C123.844 176.125 123.844 176.125 122.342 179.723C120.567 184.35 117.154 188.206 115.788 187.435C115.242 187.049 112.921 187.692 110.873 188.72C105.138 191.547 100.087 191.033 95.8538 187.435C93.8057 185.635 91.3481 184.221 90.3923 184.221C86.9788 184.221 83.975 190.648 83.2923 199.515C82.3365 213.524 86.0231 216.994 95.3077 210.568ZM141.731 176.639C141.731 172.783 137.225 166.229 135.587 167.771C135.04 168.285 135.86 170.213 137.498 172.14C139 174.068 140.365 176.639 140.365 177.924C140.365 179.338 140.638 180.366 141.048 180.366C141.458 180.366 141.731 178.695 141.731 176.639ZM73.5981 175.225C79.0596 172.398 75.3731 158.774 67.0442 151.449C62.2654 147.336 60.2173 147.336 58.1692 151.449C55.8481 156.332 59.125 168.285 63.9038 172.912C68.1365 176.896 69.6385 177.153 73.5981 175.225ZM114.833 175.096C116.744 174.325 119.065 172.269 120.021 170.598C120.977 168.799 122.615 167.771 123.571 168.028C125.892 168.927 125.892 166.743 123.571 164.815C122.342 163.658 121.933 160.831 122.342 155.947C123.025 147.079 118.929 138.082 114.287 137.954C112.512 137.954 111.965 143.737 112.921 149.906C114.013 155.69 113.74 156.204 110.463 157.746C108.552 158.774 105.821 160.702 104.456 162.116C102.954 163.658 100.906 164.429 99.2673 164.044C95.7173 163.144 90.3923 166.614 87.6615 171.755L85.3404 175.868L90.3923 171.112C93.2596 168.542 96.6731 166.229 98.175 165.843C100.633 165.2 100.769 165.586 100.087 168.799C99.4038 171.883 99.8134 172.783 103.09 174.454C107.733 176.767 110.463 177.024 114.833 175.096ZM143.779 164.172C141.731 161.088 136.269 158.132 135.04 159.288C134.631 159.674 136.815 161.987 139.819 164.686C145.554 169.699 147.602 169.57 143.779 164.172ZM45.6077 130.243C46.5635 122.66 50.3865 116.105 54.0731 115.977C55.7115 115.977 55.575 115.591 53.3904 114.82C49.8404 113.535 42.1942 115.463 41.9211 117.776C41.7846 118.676 41.6481 124.074 41.5115 129.857C41.375 138.211 41.7846 140.139 43.0134 138.854C43.9692 137.954 45.0615 134.098 45.6077 130.243ZM9.28845 134.998C5.1923 131.913 -0.405784 123.817 0.00383094 121.632C0.276908 120.089 -0.678861 119.19 -2.72694 118.933C-5.45771 118.547 -5.86733 117.905 -5.18463 115.334C-4.22887 111.736 -6.41346 110.579 -17.2 109.165L-23.8904 108.394L-22.9346 113.278C-22.3885 115.848 -21.7058 118.676 -21.5692 119.318C-21.2962 120.089 -20.6135 121.889 -20.0673 123.56C-18.975 126.901 -19.2481 126.773 -14.6058 125.102C-11.0558 123.817 -11.0558 123.945 -12.0116 128.572C-12.8308 132.942 -12.6942 133.199 -9.96348 132.427C-7.9154 131.913 -6.00385 132.556 -4.22885 134.227C-2.45385 135.898 0.276916 136.669 4.91922 136.669C10.1077 136.54 10.9269 136.283 9.28845 134.998ZM108.962 112.764C104.319 106.595 100.36 105.567 99.6769 110.579C99.2673 112.764 99.8135 113.149 101.862 112.635C103.5 112.25 105.821 113.278 108.006 115.334C113.331 120.346 113.74 119.318 108.962 112.764ZM105.685 98.6264C104.046 97.5982 100.087 96.8271 96.1269 96.9556L89.1634 97.0842L95.9904 98.6264C99.8134 99.3975 104.046 100.169 105.548 100.297C108.279 100.554 108.279 100.554 105.685 98.6264Z" fill="white"/>
</g>
<defs>
<clipPath id="clip0_639_10492">
<rect width="135" height="130" fill="white"/>
</clipPath>
</defs>
</svg>
