<svg width="135" height="130" viewBox="0 0 135 130" fill="none" xmlns="http://www.w3.org/2000/svg">
<g clip-path="url(#clip0_639_10874)">
<rect width="135" height="130" fill="white"/>
<rect x="1.5" y="-128.5" width="402" height="387" rx="18.5" fill="#FDFFEF" stroke="black" stroke-width="3"/>
<path d="M134.048 234.794C131.044 233.766 127.631 231.838 126.265 230.296C125.037 228.882 123.125 227.725 122.033 227.725C121.077 227.725 119.029 226.569 117.8 225.284C115.615 223.099 115.615 222.071 116.981 217.829C120.94 206.52 124.627 203.692 155.212 188.784C164.906 184.157 165.588 183.386 170.504 174.646C179.515 158.453 182.792 151.769 182.246 151.127C181.837 150.87 179.652 151.255 177.331 152.027C172.552 153.569 166.408 151.255 162.994 146.757C161.356 144.572 160.673 144.444 156.987 145.729C151.525 147.657 144.835 145.215 141.421 139.817C138.417 135.062 138.281 132.491 140.875 125.551C142.104 122.21 142.377 120.282 141.421 119.896C136.642 118.354 133.092 113.599 132.956 108.458C132.819 105.502 132.273 103.06 131.727 103.06C130.635 103.06 130.088 107.944 130.635 112.442C130.908 115.912 126.675 119.768 122.442 119.768C118.483 119.768 112.202 114.884 110.837 110.643C110.29 108.972 108.652 108.201 106.058 108.201C101.142 108.201 96.5 102.931 96.5 97.4051C96.5 92.6498 100.869 84.1674 105.102 80.6973C106.74 79.4121 108.242 76.8417 108.379 75.1709C108.515 73.3716 109.608 70.9297 110.7 69.773C113.704 66.56 113.431 65.7889 108.652 64.2466C95.6807 60.0054 101.142 38.7994 115.206 38.7994C119.165 38.7994 120.121 39.442 121.76 43.1691C124.217 48.567 125.992 49.7237 131.454 49.2096C133.912 49.0811 136.642 49.7237 137.871 50.8804C140.329 53.1938 145.654 53.7079 145.654 51.6515C145.654 50.8804 144.698 48.4385 143.333 46.1251C142.104 43.6832 141.012 38.1568 140.738 32.5019C140.465 27.361 140.056 22.8628 139.783 22.4772C139.373 22.2202 136.642 22.6058 133.502 23.2484C129.815 24.0195 124.354 24.0195 118.346 23.1199L108.925 21.8346L112.612 18.6216L116.298 15.5371L110.427 16.4367C105.375 17.0794 103.054 16.5653 95.5442 13.0952L86.5327 8.854L90.4923 6.92618L94.4519 4.99836L91.0384 4.09872C84.8942 2.55647 79.0231 -0.913607 76.1558 -4.76924L73.2884 -8.49636L78.8865 -6.56854C82.0269 -5.66889 84.8942 -5.1548 85.3038 -5.54037C85.7135 -5.92593 84.2115 -8.11079 81.7538 -10.4242C77.6577 -14.4083 70.5577 -27.0034 70.5577 -30.3449C70.5577 -31.5016 71.5134 -31.5016 74.6538 -29.9594C78.75 -27.903 80.1154 -28.8027 77.2481 -31.5016C76.2923 -32.4013 75.7461 -36.771 75.7461 -41.7833C75.8827 -52.065 79.9788 -61.19 87.4885 -68.2587C92.6769 -73.271 101.552 -75.1988 111.246 -73.6566C119.438 -72.3714 119.848 -71.8573 121.077 -58.234C122.306 -44.7393 124.081 -40.7552 126.538 -46.5386C127.221 -48.4664 127.904 -51.5509 127.904 -53.4787C128.04 -56.5633 128.177 -56.6918 129.406 -54.6354C130.225 -53.3502 130.635 -50.5228 130.498 -48.2094C129.952 -43.1971 131.863 -31.8872 133.092 -31.8872C133.638 -31.8872 135.004 -34.0721 136.369 -36.771L138.554 -41.5263L138.69 -35.4858C138.827 -27.646 141.148 -21.6055 143.06 -24.1759C144.152 -25.7182 145.244 -25.2041 149.067 -21.3485C151.798 -18.6495 154.665 -16.4647 155.758 -16.4647C158.488 -16.4647 161.902 -25.5897 163.404 -35.9999C163.95 -40.8837 164.769 -45.2534 165.179 -45.5104C165.452 -45.896 166.271 -40.7552 166.817 -34.2006L167.773 -22.2481L170.504 -25.4611C171.869 -27.2604 174.463 -30.3449 176.102 -32.4013C181.154 -38.8273 190.712 -47.0527 196.856 -50.5228C203.273 -53.9928 208.598 -55.021 203 -51.6795C199.86 -49.7516 192.487 -42.0404 186.888 -34.5861C185.66 -32.7868 182.246 -29.1882 179.515 -26.3608C176.648 -23.5333 174.327 -20.8344 174.327 -20.1918C174.327 -19.5492 172.552 -19.0351 170.367 -19.0351C165.452 -19.0351 162.038 -14.5368 162.038 -8.11079C162.038 -3.86959 161.765 -3.61255 157.669 -3.74107C153.983 -3.74107 152.344 -4.89776 147.975 -10.1671C145.244 -13.6372 141.831 -16.4647 140.465 -16.4647C139.1 -16.4647 137.325 -17.1073 136.369 -18.0069C135.14 -19.1636 134.731 -19.0351 134.731 -17.4928C134.731 -16.3361 135.96 -15.1794 137.462 -14.7939C139.1 -14.4083 140.192 -12.9946 140.192 -11.3238C140.192 -8.36783 144.971 -1.17064 147.975 0.628653C148.931 1.14274 149.75 3.71316 149.75 6.02654V10.5248H139.783C133.092 10.5248 128.86 9.88217 127.085 8.59696C125.719 7.56879 123.125 6.66914 121.487 6.66914C119.029 6.66914 118.346 5.89802 118.346 3.45611C118.346 1.01421 117.663 0.243086 115.206 0.243086C112.612 0.243086 111.656 -0.913608 109.744 -6.56854C108.515 -10.4242 107.423 -16.2076 107.423 -19.6777V-25.8467L117.254 -24.9471C122.579 -24.5615 128.45 -23.7904 130.225 -23.4048C132.137 -22.8907 133.365 -23.1478 133.365 -24.1759C133.365 -24.9471 132.137 -25.9752 130.635 -26.3608C127.767 -27.1319 123.808 -32.7868 123.808 -36.3854C123.808 -37.4136 122.715 -38.3133 121.35 -38.3133C117.8 -38.3133 115.752 -43.3256 114.113 -55.5351C113.294 -61.19 112.475 -66.0738 112.202 -66.4594C111.792 -66.7164 108.242 -66.9735 104.146 -67.102C95.4077 -67.102 93.6327 -65.6883 86.6692 -52.4506C82.7096 -45.2534 82.1634 -43.0685 82.4365 -35.4858C82.5731 -30.4735 82.1635 -26.7464 81.3442 -26.7464C79.7058 -26.7464 84.4846 -17.8784 88.9904 -12.8661C90.9019 -10.8097 92.4038 -7.46818 92.4038 -5.66888C92.4038 -3.22698 93.2231 -2.19882 95.8173 -1.55621C98.4115 -0.913607 99.2308 0.114562 99.2308 2.94203C99.2308 7.44027 102.371 9.23956 112.338 10.1392C119.029 10.7818 119.712 11.1674 119.712 14.1234C119.712 17.2079 119.848 17.2079 128.313 16.5653C132.956 16.1797 140.056 15.4086 144.015 14.8945L151.115 13.9948V18.7501C151.115 21.3206 150.569 23.3769 149.75 23.3769C145.517 23.3769 150.706 47.1533 155.212 48.4385C156.713 48.8241 160.537 52.0371 163.677 55.3787C168.319 60.2625 172.552 62.8329 183.885 67.7167C191.804 71.0582 198.904 74.2713 199.587 74.7853C200.406 75.2994 203.819 76.0705 207.233 76.3276L213.65 76.9702L214.196 66.9455C215.015 53.7079 217.337 50.3663 225.529 50.3663C230.035 50.3663 232.356 51.1375 233.994 52.9367C236.588 55.7642 239.865 56.1498 243.688 54.3505C244.917 53.7079 247.238 52.6797 248.74 52.1656C250.788 51.3945 249.423 51.0089 243.962 50.3663C235.906 49.5952 230.308 47.2818 230.308 44.8399C230.308 44.0688 229.352 44.7114 228.123 46.2537C226.621 48.1815 224.71 49.0811 221.296 49.0811C217.063 49.0811 216.654 48.8241 216.654 45.2255C216.654 37.2572 223.344 29.8029 230.444 29.8029C232.356 29.8029 235.087 28.6463 236.452 27.2325C237.817 25.8188 240.002 24.4051 241.367 24.0195C243.552 23.3769 243.825 22.3487 243.142 18.236C242.596 15.4086 242.733 11.1674 243.142 8.59696C244.098 4.35576 244.371 4.09872 249.423 4.09872C252.563 4.09872 255.567 4.99836 257.069 6.28357C259.254 8.33991 259.254 8.33992 258.298 5.38393C257.752 3.58463 255.977 -0.0139528 254.475 -2.58438C252.154 -6.69705 250.925 -7.46818 247.375 -7.46818C244.917 -7.46818 241.367 -8.62487 239.456 -10.0386C237.544 -11.4523 234.677 -12.609 233.038 -12.609C230.308 -12.609 230.035 -13.1231 230.581 -19.6777L230.99 -26.8749L225.938 -27.646C222.115 -28.1601 220.75 -28.9312 220.75 -30.7305C220.75 -32.7868 219.931 -32.9154 213.923 -32.2728C207.233 -31.5016 207.096 -31.6302 207.096 -34.8432V-38.3133L202.317 -36.1284C199.723 -34.9717 197.538 -33.558 197.538 -32.9154C197.538 -32.4013 195.217 -31.8872 192.487 -31.8872L187.298 -32.0157L193.442 -37.1566C202.317 -44.7393 211.602 -48.7235 221.296 -49.4946L229.625 -50.0087L223.208 -46.153C219.521 -43.9682 216.108 -42.1689 215.288 -42.1689C213.787 -42.1689 208.188 -36.771 209.008 -36.1284C209.281 -35.8714 211.875 -36.514 214.606 -37.5421C217.473 -38.6988 223.071 -39.984 227.031 -40.3696C233.585 -41.1407 234.813 -41.7833 239.183 -47.0527C241.777 -50.2657 243.962 -54.3784 244.098 -56.1777L244.235 -59.5192L245.737 -55.9207C246.556 -53.9928 247.648 -52.4506 248.194 -52.4506C248.74 -52.4506 250.379 -55.9206 251.744 -60.1618C253.792 -66.8449 254.338 -67.6161 255.84 -65.8168C258.435 -62.4752 260.21 -64.7886 261.165 -73.1425L262.121 -80.8537L264.715 -77.2552L267.446 -73.6566L266.627 -78.7974C266.217 -81.6249 265.671 -85.0949 265.535 -86.5087C265.125 -88.9506 265.944 -89.0791 276.048 -89.0791C289.429 -89.0791 293.252 -86.8942 300.762 -75.3273C304.721 -69.2868 306.087 -65.5597 306.496 -60.1618C307.042 -53.3502 306.769 -52.7076 301.308 -46.153C298.167 -42.4259 295.983 -39.0844 296.392 -38.6988C296.665 -38.3133 298.85 -38.9559 301.171 -39.984L305.267 -41.9118L302.537 -38.5703C301.035 -36.6425 297.758 -33.6865 295.163 -31.8872C289.702 -28.1601 289.156 -26.6178 293.525 -27.7745C296.256 -28.4171 296.392 -28.2886 294.617 -26.2323C291.887 -23.1478 285.742 -20.3203 281.51 -20.3203C277.687 -20.3203 277.14 -19.1636 279.871 -16.5932C281.237 -15.308 280.827 -15.308 277.687 -16.5932C274.41 -18.0069 273.181 -17.8784 268.675 -15.4365C265.808 -13.8942 262.394 -12.609 261.165 -12.609C258.435 -12.609 258.435 -11.4523 260.756 -8.11079C264.306 -3.35551 266.217 3.45611 267.173 13.0952C267.992 22.3487 267.992 22.6058 269.767 18.8786C271.815 14.3804 276.048 10.2677 277.413 11.5529C277.96 12.067 277.413 10.9103 276.048 8.854C274.819 6.92618 274.273 5.38393 274.819 5.38393C275.502 5.38393 274.956 4.74133 273.727 3.9702C267.583 0.628651 274.546 -5.66889 282.602 -4.25515C290.658 -2.84142 293.798 1.14273 293.115 8.854C292.842 12.1955 296.938 14.5089 301.035 13.4808C302.673 13.0952 305.54 13.7378 307.452 14.8945C311.685 17.4649 318.238 28.0036 317.146 30.5741C316.737 31.6022 316.873 32.1163 317.692 31.7308C318.512 31.3452 319.058 31.4737 319.058 32.1163C319.058 32.8875 320.287 33.1445 321.788 32.7589C323.563 32.3734 325.748 33.4015 328.615 35.972C333.394 40.5987 334.213 47.4103 330.254 50.7519C327.523 53.0653 321.925 52.6797 319.74 49.9808C318.238 48.0529 313.05 45.2255 311.275 45.2255C310.729 45.2255 311.002 45.7396 311.958 46.2537C313.187 47.0248 311.821 47.9244 308.135 49.0811C303.083 50.6234 301.99 50.6234 297.621 48.4385C292.979 45.9966 292.706 45.9966 290.931 48.31C289.975 49.5952 287.108 52.8082 284.65 55.3787C282.192 57.9491 277.14 63.347 273.59 67.4596L267.037 74.9139L268.538 81.9825C269.904 88.2801 269.767 89.5653 267.446 94.0635C265.944 96.891 265.398 99.2044 266.081 99.2044C268.812 99.2044 273.044 111.414 273.181 119.125C273.181 126.065 272.225 128.636 263.487 145.472C258.162 155.754 252.154 166.549 250.106 169.634L246.556 175.032H255.84C260.892 175.032 270.04 173.747 276.048 172.333C291.34 168.606 296.119 168.477 297.894 172.076C298.577 173.618 300.898 175.674 303.083 176.446C308.544 178.63 312.231 184.157 312.231 190.326C312.231 194.567 311.412 196.366 307.588 199.965C304.994 202.407 300.488 205.106 297.621 205.877C294.754 206.777 291.887 207.933 291.067 208.447C285.606 212.303 252.427 213.588 237.817 210.504C230.581 208.961 218.702 205.363 212.421 202.792C210.51 202.021 210.1 202.921 209.554 208.19C209.144 211.917 207.642 216.287 205.867 218.6C202.181 223.356 182.383 232.866 175.965 232.866C173.644 232.866 168.183 233.766 163.813 234.794C154.119 237.236 141.285 237.236 134.048 234.794ZM158.352 228.368C164.633 227.597 164.769 227.468 164.769 223.099C164.769 218.986 165.042 218.729 169.548 218.729C173.781 218.729 174.327 219.115 174.327 222.071C174.327 225.155 174.737 225.412 178.56 224.641C180.881 224.255 186.342 221.814 190.712 219.372C196.446 216.03 199.04 213.588 200.952 209.604C203.546 204.335 203.546 204.335 200.542 202.021C194.671 197.523 196.173 191.483 210.1 166.035C222.388 143.287 222.662 142.902 227.031 142.902C230.717 142.902 231.537 143.416 231.946 145.858L232.356 148.942L239.865 147.014C245.737 145.472 249.013 143.416 255.021 137.889C264.715 128.764 268.265 120.153 265.671 112.185C264.033 107.044 263.896 106.916 257.752 106.916C254.338 106.916 250.242 106.016 248.877 104.988C245.054 102.289 238.91 102.546 237.954 105.373C237.544 106.53 236.588 110.386 235.769 113.984C233.585 122.981 232.765 123.623 221.842 123.623C212.421 123.623 212.148 123.495 206.823 118.483C203.819 115.655 201.088 113.342 200.815 113.342C200.542 113.342 200.269 115.012 200.269 117.069C200.269 120.025 198.904 121.953 194.125 125.68C187.162 130.949 185.796 136.218 190.848 137.375C196.31 138.789 193.715 148.428 181.427 171.947C172.688 188.655 169.685 193.025 167.637 193.025C166.135 193.025 163.267 193.667 161.356 194.567L157.669 196.109L162.994 197.523C167.773 198.808 168.183 199.322 168.592 203.821L169.002 208.704L155.621 207.805C148.248 207.291 141.967 206.52 141.558 205.877C141.148 205.363 137.871 206.391 134.048 207.933C128.177 210.504 127.767 211.018 131.044 211.018C134.321 211.018 134.731 211.403 134.731 215.645C134.731 218.086 134.048 221.428 133.229 222.842C132.273 224.512 132.273 225.926 133.092 226.697C134.458 227.983 146.61 230.167 149.75 229.653C150.842 229.396 154.665 228.882 158.352 228.368ZM275.365 205.106C280.008 204.335 280.144 204.206 279.735 199.322L279.188 194.31H285.333C289.975 194.31 291.887 194.953 293.252 197.009L295.163 199.708L298.987 196.88C305.95 191.74 306.223 189.555 300.625 184.542C296.938 181.329 294.344 180.173 291.067 180.173C288.61 180.173 286.288 179.53 286.015 178.759C285.606 177.731 283.967 177.731 280.144 178.63C277.14 179.402 268.948 180.43 262.121 180.944C254.065 181.458 248.877 182.486 247.921 183.514C247.102 184.542 243.962 185.314 241.094 185.314C236.042 185.314 235.769 185.056 235.769 181.458C235.769 177.474 239.456 169.634 244.235 163.208L246.829 159.609H238.227H229.625L220.477 176.831C210.373 195.724 210.373 195.081 220.75 198.551C238.227 204.335 261.985 207.162 275.365 205.106ZM177.058 142.13C176.238 140.331 175.692 135.062 175.692 130.564C175.692 122.724 175.965 121.953 180.062 118.354C182.519 116.298 185.113 114.627 185.933 114.498C187.298 114.498 164.769 109.615 160.673 109.1C159.444 108.972 158.488 110.514 157.806 113.856C156.987 118.483 155.348 120.539 149.34 124.266C145.381 126.708 145.381 130.821 149.204 135.062C153.71 140.203 154.938 140.074 156.031 134.548C156.85 130.435 157.26 130.049 161.492 130.049C165.588 130.049 166.135 130.435 166.135 133.391C166.135 139.303 171.05 145.343 175.965 145.472C178.013 145.472 178.15 144.958 177.058 142.13ZM126.538 97.5336C128.177 94.4491 129.133 93.935 133.229 94.3206C138.008 94.7061 138.144 94.8346 138.554 100.49C138.963 106.916 141.148 112.056 143.606 112.056C144.698 112.056 144.971 109.615 144.562 104.474C143.879 96.3769 144.835 93.8065 151.388 86.2237C156.85 79.7977 157.806 72.472 153.983 66.6885C149.887 60.391 146.063 58.4632 139.237 59.1058C134.185 59.6199 133.365 60.0054 133.365 62.7044C133.365 68.7449 130.498 72.2149 125.583 72.2149C121.213 72.2149 121.077 72.0864 121.077 67.2026C121.077 59.3628 122.033 58.0776 128.177 58.0776C132.956 58.0776 133.502 57.8206 132 56.1498C131.044 55.1216 128.04 54.222 125.31 54.222C119.165 54.222 117.527 53.1938 115.752 48.6955C114.113 44.7114 111.929 45.097 110.29 49.5952C108.925 52.8082 111.656 58.7202 115.615 60.648C120.667 63.2184 118.483 76.1991 111.519 84.4244C107.423 89.3082 105.921 92.1357 109.062 89.1797C110.017 88.2801 112.748 87.6375 115.206 87.6375C119.438 87.6375 119.712 87.8945 119.712 91.8787C119.712 94.0635 118.756 97.148 117.663 98.4332C115.206 101.389 116.162 105.116 120.258 109.229L123.125 112.314L123.944 106.659C124.354 103.703 125.583 99.4614 126.538 97.5336ZM224.163 107.944C224.846 105.245 224.71 103.703 223.617 103.317C222.798 103.06 222.115 101.132 222.115 99.0758C222.115 95.9913 221.569 95.3487 218.975 95.3487C217.2 95.3487 214.606 94.4491 213.104 93.4209C208.188 89.9508 207.096 90.979 209.281 97.0195C211.056 101.903 219.931 112.056 222.252 112.056C222.798 112.056 223.754 110.257 224.163 107.944ZM196.992 101.004C196.583 99.847 196.173 96.3769 196.173 93.2924V87.5089L181.7 81.2114C173.781 77.6128 167.09 74.7853 166.817 74.7853C166.544 74.7853 166.135 78.3839 165.862 82.8822C165.588 87.2519 164.906 91.7501 164.36 92.9068C163.131 95.3487 166.954 97.148 180.471 100.49C192.896 103.574 198.085 103.831 196.992 101.004ZM260.483 79.4121C259.663 77.6128 258.435 76.0706 257.615 76.0706C255.294 76.0706 256.113 80.9543 258.571 82.3681C261.712 84.0389 262.121 83.5248 260.483 79.4121ZM265.808 36.6146C265.808 32.8875 265.398 29.8029 264.852 29.8029C264.169 29.8029 263.76 33.5301 263.76 38.0283C263.76 42.6551 264.169 45.611 264.715 44.8399C265.262 43.9403 265.808 40.2132 265.808 36.6146ZM296.392 37.5142C299.806 37.5142 301.171 38.1568 301.717 40.0846C302.4 42.7836 306.769 43.6832 306.769 41.2413C306.769 39.5706 317.556 40.2132 322.471 42.141C324.929 43.0406 325.065 42.9121 323.154 40.7272C322.062 39.442 319.058 37.6427 316.737 36.6146C314.006 35.5864 311.275 33.016 309.637 30.06C305.95 23.3769 301.581 20.0353 295.3 19.1357C288.746 18.1075 288.746 18.1075 287.79 11.5529C287.244 8.08288 285.879 5.64097 283.967 4.35576C280.827 2.55646 280.827 2.55647 280.827 9.88217C280.827 16.1797 280.281 17.5934 276.867 20.935C274.683 22.9913 272.225 24.6621 271.406 24.6621C270.587 24.6621 269.904 25.3047 269.904 25.9473C269.904 27.4896 272.225 27.6181 273.181 26.0758C274.546 24.148 279.325 26.0758 282.192 29.5459C285.469 33.4015 285.879 41.3698 282.875 41.3698C281.646 41.3698 280.827 42.5265 280.827 44.0688C280.827 46.5107 281.373 46.3822 286.288 42.141C290.248 38.7994 292.979 37.5142 296.392 37.5142ZM249.423 35.972C249.423 33.5301 248.331 33.6586 244.235 36.6146C242.869 37.6427 242.869 38.1568 244.098 38.9279C246.556 40.3417 249.423 38.7994 249.423 35.972ZM267.583 -22.6337C269.631 -22.8907 271.269 -23.6618 271.269 -24.3044C271.269 -24.9471 272.498 -25.4611 274 -25.4611C275.638 -25.4611 276.731 -26.3608 276.731 -27.7745C276.731 -29.0597 279.735 -31.6302 284.24 -34.2006C289.975 -37.4136 291.75 -39.2129 291.75 -41.5263C291.75 -43.1971 293.252 -46.7956 295.163 -49.3661C300.352 -56.6918 300.625 -59.1337 296.392 -67.102C290.658 -78.1548 286.698 -81.7534 279.188 -82.7816L272.635 -83.5527V-76.3555C272.635 -70.058 272.362 -69.1583 269.904 -69.1583C268.402 -69.1583 267.173 -68.2587 267.173 -67.2305C267.173 -64.0175 262.394 -56.4347 260.346 -56.3062C259.254 -56.3062 257.342 -54.3784 256.25 -52.065C255.021 -49.4946 252.973 -47.8238 251.198 -47.5668C247.102 -47.0527 247.238 -45.5104 251.471 -43.7111C254.202 -42.5545 254.885 -41.2692 254.885 -37.6706C254.885 -33.558 254.612 -33.1724 250.788 -33.1724C247.785 -33.1724 246.692 -32.5298 246.692 -30.859C246.829 -28.0316 258.981 -20.0633 261.712 -21.0914C262.804 -21.6055 265.398 -22.2481 267.583 -22.6337Z" fill="black"/>
<path d="M128.587 6.66875C127.221 5.25501 125.037 4.09832 123.535 4.09832C121.76 4.09832 121.077 3.19868 121.077 0.885296C121.077 -1.81365 120.394 -2.32773 116.981 -2.32773C114.796 -2.32773 112.885 -2.84182 112.885 -3.61294C112.885 -4.25555 111.929 -4.89815 110.837 -4.89815C109.198 -4.89815 108.788 -6.69745 108.788 -13.8946C108.788 -22.7626 108.788 -22.8911 112.338 -22.8911C114.387 -22.8911 119.848 -22.2485 124.627 -21.3489C132.41 -20.0637 133.365 -19.5496 133.365 -16.8506C133.365 -14.7943 134.185 -13.8946 136.096 -13.8946C138.281 -13.8946 138.827 -12.995 138.827 -9.65343C138.827 -6.69745 139.919 -4.38407 142.24 -2.32773C147.292 2.17051 146.746 4.61241 140.465 5.1265C136.369 5.38354 134.594 4.74093 132.137 2.29903C130.362 0.499731 128.177 -0.52844 127.085 -0.142877C125.719 0.371208 125.173 -0.528438 125.173 -3.48442C125.173 -7.08302 124.9 -7.34006 121.213 -6.69745C117.527 -5.92633 117.254 -6.31189 115.069 -12.0953C113.84 -15.4369 113.021 -18.2644 113.294 -18.5214C113.431 -18.6499 116.981 -18.1358 121.213 -17.4932C128.177 -16.208 128.723 -15.8225 128.177 -13.1235C127.631 -10.5531 128.177 -10.039 131.181 -10.039C134.458 -10.039 134.731 -9.78196 133.229 -7.34006C132 -5.02668 132.41 -3.99851 136.233 -0.271396C141.831 5.12649 143.06 4.35537 138.281 -1.68513C136.233 -4.12703 134.731 -7.21153 135.004 -8.36822C135.277 -9.91048 134.321 -10.8101 132.273 -11.0672C129.542 -11.4527 129.133 -12.0953 129.815 -14.6658C130.771 -18.2644 128.587 -19.421 118.073 -20.7063C112.338 -21.4774 111.519 -21.2203 111.519 -19.2925C111.519 -17.3647 115.342 -5.02667 116.298 -3.86998C116.435 -3.74146 118.21 -4.12703 120.258 -4.89815C123.944 -6.18337 123.944 -6.18337 122.988 -1.42809C122.169 2.94163 122.306 3.19867 125.037 2.42755C127.085 1.91346 128.996 2.55607 130.771 4.22684C132.546 5.89762 135.277 6.66875 139.51 6.66875C142.923 6.66875 145.654 7.31135 145.654 7.95396C145.654 8.72509 142.377 9.23917 138.417 9.23917C132.819 9.23917 130.498 8.59656 128.587 6.66875Z" fill="#F9C8BA"/>
<path d="M136.915 232.866C133.229 232.223 129.269 230.809 128.177 229.781C126.129 227.853 126.265 226.311 130.225 216.158C130.635 215.13 129.952 215.387 128.86 216.929C127.631 218.343 126.265 221.17 125.856 222.97C124.763 227.082 123.671 227.211 120.667 224.126C117.8 221.17 117.8 216.672 120.804 211.403C122.579 208.19 126.129 205.876 135.413 201.635C142.24 198.551 150.979 194.181 154.802 191.996C158.762 189.811 162.994 188.269 164.087 188.654C165.588 189.297 168.865 184.156 176.921 168.348C189.073 144.957 190.575 141.23 187.571 142.387C185.113 143.286 183.885 140.073 183.475 132.491C183.338 127.607 183.885 126.707 189.756 122.08C194.671 118.096 196.173 116.04 196.173 113.212C196.173 110.128 196.719 109.485 199.587 109.485C201.498 109.485 203 108.971 203 108.2C203 107.429 199.45 106.915 195.081 106.915C179.379 106.915 149.613 97.0188 155.758 93.8058C159.171 92.0065 162.038 85.709 161.902 80.3111L161.765 75.4273L160.537 80.5681C159.854 83.3956 157.533 87.7653 155.485 90.2072C149.34 97.4044 149.067 98.1755 149.067 107.558V116.554L144.698 116.94C138.417 117.582 134.731 113.341 134.731 105.501C134.731 102.16 134.185 99.0752 133.502 98.6896C131.863 97.6615 128.996 104.087 128.04 110.771C127.358 115.783 126.812 116.554 123.808 116.94C115.342 117.839 108.106 102.417 113.431 94.7055C114.66 92.9062 115.342 91.4924 114.933 91.4924C113.294 91.4924 108.788 100.103 108.788 103.445C108.788 106.015 108.106 106.915 106.194 106.915C97.3192 106.915 98.5481 90.5928 108.242 79.54C110.017 77.6121 112.065 73.885 112.748 71.3146C113.977 67.0734 113.84 66.4308 110.154 63.2178C105.375 58.9766 103.873 54.0928 105.512 48.0523C106.877 42.9114 112.612 38.2847 116.025 39.4414C117.254 39.9555 118.892 42.2688 119.712 44.5822C121.35 49.3375 124.49 50.8798 129.679 49.7231C132.137 49.0805 133.638 49.5945 135.55 51.9079C137.598 54.2213 139.237 54.7354 143.196 54.4783C149.75 53.9643 154.256 56.7917 158.898 64.246C160.946 67.459 162.721 69.5153 162.994 68.7442C163.267 67.9731 171.733 70.929 182.383 75.6843L201.225 84.1667L200.679 89.4361C199.723 96.7618 204.775 108.843 211.192 115.012C215.425 118.867 217.337 119.767 221.842 119.767C228.396 119.767 229.762 118.353 231.673 110.128C234.131 99.7178 234.404 99.2037 237.954 99.2037C239.729 99.2037 242.46 98.5611 243.825 97.6614C245.873 96.5048 247.102 96.8903 251.062 99.5893C256.523 103.573 258.571 103.83 262.804 101.003C266.627 98.5611 266.217 98.304 269.085 106.144C273.727 119.639 270.587 130.82 259.117 141.744C252.837 147.528 249.969 149.198 243.142 150.998C231.127 154.211 227.85 153.954 227.304 149.841C227.031 147.271 224.163 151.383 215.152 168.22C208.598 180.043 202.863 191.096 202.454 192.639C201.771 194.566 202.454 196.237 205.048 198.679C209.281 202.663 209.281 205.362 205.458 212.945C203.137 217.443 200.542 220.014 194.808 223.098C180.198 231.452 171.596 232.352 170.094 225.797C169.138 221.941 169.138 221.941 169.002 226.568C168.865 230.681 168.319 231.323 164.769 231.966C156.577 233.508 143.469 234.022 136.915 232.866ZM164.087 203.306C162.858 201.378 154.529 200.35 149.477 201.507C145.108 202.535 145.244 202.663 152.481 203.434C164.633 204.591 164.906 204.591 164.087 203.306ZM128.45 61.9326C127.494 61.1614 125.173 64.76 125.31 67.0734C125.31 68.2301 126.129 67.716 127.221 65.7882C128.177 63.9889 128.723 62.3181 128.45 61.9326Z" fill="white"/>
<path d="M215.971 85.7092C214.06 84.0384 212.558 83.1387 212.558 83.7813C212.558 84.5525 211.329 83.9099 209.827 82.4961C207.779 80.5683 206.413 80.1827 204.502 81.0824C202.727 81.982 200.952 81.725 197.812 79.9257C195.49 78.512 187.162 74.7848 179.515 71.4433C168.456 66.688 164.223 64.1176 159.581 59.2338C156.44 55.8922 152.617 52.6792 151.115 52.2937C147.975 51.394 144.971 42.1405 143.606 29.5454C142.787 22.0912 143.06 20.806 145.244 19.5208C147.565 18.107 147.429 18.107 144.971 19.0067C143.469 19.5208 135.14 20.1634 126.538 20.5489C111.11 21.063 110.837 21.063 113.158 18.6211C116.571 15.0225 116.298 14.3799 110.837 14.3799C106.467 14.3799 91.7211 10.2673 89.9461 8.59648C89.5365 8.21092 90.4923 6.92571 92.2673 5.89754C95.2711 3.8412 95.1346 3.8412 87.3519 0.371127C82.9827 -1.55669 78.4769 -4.25563 77.3846 -5.54084C76.2923 -6.95458 76.0192 -7.59718 76.8384 -7.08309C77.6577 -6.69753 80.6615 -5.9264 83.3923 -5.66936L88.4442 -5.02676L84.8942 -9.01091C81.2077 -13.1236 73.2885 -27.0039 73.2885 -29.3173C73.2885 -30.2169 74.1077 -30.3454 75.6096 -29.4458C77.7942 -28.4176 78.0673 -29.1887 78.0673 -38.1852C78.0673 -46.6676 78.6135 -49.1095 82.5731 -56.3067C90.2192 -70.8296 90.6288 -71.0866 105.648 -71.0866C117.254 -71.0866 118.483 -70.9581 117.937 -68.9018C116.981 -65.6887 119.302 -49.6236 121.213 -45.6394C122.988 -41.9123 124.763 -42.1694 126.538 -46.5391C127.494 -48.7239 127.767 -48.0813 127.767 -43.7116C127.904 -37.6711 131.317 -30.0884 133.365 -31.2451C134.185 -31.7592 134.731 -33.0444 134.867 -34.201C134.867 -35.3577 135.687 -33.5584 136.642 -30.2169C137.598 -26.7468 139.51 -23.0197 140.738 -21.863C142.787 -19.9352 142.923 -20.0637 142.923 -22.8912C143.06 -25.9757 143.06 -25.9757 144.562 -23.5338C145.381 -22.1201 148.931 -17.7503 152.208 -13.8947C157.533 -7.85422 158.352 -7.34014 157.669 -10.4246C157.123 -12.9951 158.488 -16.8507 162.175 -23.9194L167.5 -33.8155V-28.2891C167.5 -25.3331 168.183 -22.8912 168.865 -22.8912C169.685 -22.8912 170.231 -23.2768 170.231 -23.7908C170.367 -25.4616 186.888 -41.5268 192.213 -45.1253C198.904 -49.8806 200.269 -49.4951 195.217 -44.3542C190.575 -39.5989 186.615 -34.3296 186.615 -32.7873C186.615 -32.1447 189.073 -33.4299 191.94 -35.6148C199.313 -41.1412 211.738 -46.282 219.248 -46.9246L225.529 -47.5672L221.023 -44.8683C218.565 -43.3261 216.108 -42.1694 215.562 -42.1694C214.879 -42.1694 212.967 -40.6271 211.056 -38.8278L207.779 -35.3577L211.192 -36.2574C221.706 -39.0849 234.677 -40.113 242.187 -38.5708C246.419 -37.7996 250.242 -37.2856 250.515 -37.6711C251.335 -38.3137 246.01 -40.3701 240.821 -41.5268L236.998 -42.2979L241.094 -46.7961C243.415 -49.238 245.327 -52.5796 245.463 -54.1218C245.463 -56.8208 245.6 -56.8208 246.829 -53.8648C248.058 -51.0373 248.331 -50.9088 250.242 -52.7081C251.335 -53.7363 253.11 -57.4634 254.065 -60.9334C255.84 -66.9739 255.977 -67.1025 256.933 -63.6324L257.888 -60.1623L260.346 -64.275C261.575 -66.5884 263.213 -70.444 263.76 -72.7574C264.579 -76.7415 264.852 -76.8701 266.627 -74.6852C268.538 -72.6289 268.675 -73.1429 268.129 -79.826L267.583 -87.2803L278.506 -86.8947C288.883 -86.5091 289.565 -86.3806 293.115 -82.268C298.987 -75.4563 304.038 -64.7891 304.038 -58.8771C304.038 -53.8648 300.079 -44.4827 297.212 -42.812C296.529 -42.4264 295.846 -41.1412 295.846 -40.113C295.846 -38.6993 296.665 -38.4422 298.577 -38.9563C303.765 -40.4986 301.308 -38.1852 290.794 -31.7592C280.144 -25.2046 280.144 -25.0761 291.75 -27.518C293.798 -27.9035 294.617 -27.775 293.798 -27.0039C291.75 -25.2046 281.1 -21.606 277.687 -21.4775C276.048 -21.4775 275.502 -21.0919 276.458 -20.7063C279.462 -19.5496 278.233 -18.1359 274.683 -18.7785C272.771 -19.0356 268.129 -18.0074 264.169 -16.4651C258.162 -14.0232 256.933 -13.8947 255.704 -15.437C254.885 -16.4651 251.744 -18.907 248.74 -20.9634L243.279 -24.819L249.696 -18.0074C259.527 -7.59718 263.213 0.628169 264.169 13.8658C264.715 23.8905 265.125 24.9187 267.992 25.9468C270.177 26.8465 272.362 26.5894 274.956 25.1757L278.779 23.2479L274.41 24.019C270.45 24.7901 269.904 24.5331 269.904 22.2197C269.904 20.806 271.679 17.85 274 15.6651C277.55 12.1951 277.823 11.4239 276.594 7.95387C275.775 5.89754 274.546 4.09824 273.863 4.09824C273.181 4.09824 272.635 2.94155 272.635 1.65634C272.635 -2.58486 279.598 -3.61303 286.425 -0.399998C291.34 2.0419 293.525 6.66866 291.75 11.1669C290.658 13.9944 290.794 14.3799 293.252 14.3799C294.754 14.3799 295.71 14.894 295.3 15.4081C295.027 15.9222 296.802 16.1792 299.396 15.9222C305.131 15.2796 310.456 19.3923 314.279 27.3606C315.644 30.0595 317.146 32.3729 317.556 32.5014C325.338 33.4011 330.254 38.2849 329.708 44.7109C329.298 51.0084 326.567 52.8077 322.744 49.3377C319.058 45.9961 312.094 43.4257 311.002 44.968C308.271 48.6951 294.89 47.0243 296.392 43.1687C298.167 38.6704 291.204 44.7109 279.188 57.9486C266.763 71.8289 266.49 71.9574 263.896 69.644C261.438 67.3306 261.438 66.9451 263.35 64.8887C267.446 60.519 271.269 51.7796 271.269 46.8958L271.133 42.012L268.538 48.9521C265.398 57.306 260.619 63.9891 254.885 68.2303C252.427 69.901 250.788 72.4715 250.788 74.1423C250.788 77.8694 248.604 79.4116 242.187 80.3113C239.319 80.6968 234.677 82.8817 231.81 84.938C225.392 89.6933 220.34 89.9504 215.971 85.7092ZM230.308 80.5683C232.902 78.769 237.271 76.9697 240.138 76.5841C244.644 75.813 244.917 75.556 243.142 73.8852C240.548 71.3148 241.367 69.1299 245.19 68.6158C246.829 68.3588 249.15 66.5595 250.379 64.7602C251.608 62.8324 253.656 60.1334 255.021 58.7197C256.25 57.306 257.615 53.8359 258.025 51.0085C258.844 46.1246 258.844 46.1246 257.342 49.7232C255.567 54.35 252.154 58.2056 250.788 57.4345C250.242 57.0489 247.921 57.6915 245.873 58.7197C240.138 61.5472 235.087 61.0331 230.854 57.4345C228.806 55.6352 226.348 54.2215 225.392 54.2215C221.979 54.2215 218.975 60.6475 218.292 69.5155C217.337 83.5243 221.023 86.9944 230.308 80.5683ZM276.731 46.6387C276.731 42.7831 272.225 36.2285 270.587 37.7708C270.04 38.2849 270.86 40.2127 272.498 42.1405C274 44.0683 275.365 46.6387 275.365 47.9239C275.365 49.3377 275.638 50.3658 276.048 50.3658C276.458 50.3658 276.731 48.6951 276.731 46.6387ZM208.598 45.225C214.06 42.3975 210.373 28.7743 202.044 21.4486C197.265 17.3359 195.217 17.3359 193.169 21.4486C190.848 26.3324 194.125 38.2849 198.904 42.9116C203.137 46.8958 204.638 47.1528 208.598 45.225ZM249.833 45.0965C251.744 44.3254 254.065 42.269 255.021 40.5982C255.977 38.7989 257.615 37.7708 258.571 38.0278C260.892 38.9275 260.892 36.7426 258.571 34.8148C257.342 33.6581 256.933 30.8306 257.342 25.9468C258.025 17.0789 253.929 8.0824 249.287 7.95387C247.512 7.95387 246.965 13.7373 247.921 19.9063C249.013 25.6898 248.74 26.2039 245.463 27.7461C243.552 28.7743 240.821 30.7021 239.456 32.1158C237.954 33.6581 235.906 34.4292 234.267 34.0437C230.717 33.144 225.392 36.6141 222.662 41.7549L220.34 45.8676L225.392 41.1123C228.26 38.5419 231.673 36.2285 233.175 35.843C235.633 35.2003 235.769 35.5859 235.087 38.7989C234.404 41.8835 234.813 42.7831 238.09 44.4539C242.733 46.7673 245.463 47.0243 249.833 45.0965ZM278.779 34.1722C276.731 31.0877 271.269 28.1317 270.04 29.2884C269.631 29.6739 271.815 31.9873 274.819 34.6863C280.554 39.6986 282.602 39.5701 278.779 34.1722ZM180.608 0.242608C181.563 -7.34014 185.387 -13.8947 189.073 -14.0232C190.712 -14.0232 190.575 -14.4088 188.39 -15.1799C184.84 -16.4651 177.194 -14.5373 176.921 -12.2239C176.785 -11.3243 176.648 -5.92641 176.512 -0.14296C176.375 8.21091 176.785 10.1387 178.013 8.85352C178.969 7.95387 180.062 4.09824 180.608 0.242608ZM144.288 4.99789C140.192 1.91338 134.594 -6.18344 135.004 -8.3683C135.277 -9.91056 134.321 -10.8102 132.273 -11.0673C129.542 -11.4528 129.133 -12.0954 129.815 -14.6658C130.771 -18.2644 128.587 -19.4211 117.8 -20.8349L111.11 -21.606L112.065 -16.7222C112.612 -14.1518 113.294 -11.3243 113.431 -10.6817C113.704 -9.91056 114.387 -8.11126 114.933 -6.44049C116.025 -3.09894 115.752 -3.22746 120.394 -4.89824C123.944 -6.18345 123.944 -6.05493 122.988 -1.42817C122.169 2.94155 122.306 3.19859 125.037 2.42746C127.085 1.91338 128.996 2.55599 130.771 4.22676C132.546 5.89753 135.277 6.66866 139.919 6.66866C145.108 6.54014 145.927 6.2831 144.288 4.99789ZM243.962 -17.2363C239.319 -23.4053 235.36 -24.4335 234.677 -19.4211C234.267 -17.2363 234.813 -16.8507 236.862 -17.3648C238.5 -17.7503 240.821 -16.7222 243.006 -14.6658C248.331 -9.65352 248.74 -10.6817 243.962 -17.2363ZM240.685 -31.3736C239.046 -32.4018 235.087 -33.1729 231.127 -33.0444L224.163 -32.9158L230.99 -31.3736C234.813 -30.6025 239.046 -29.8313 240.548 -29.7028C243.279 -29.4458 243.279 -29.4458 240.685 -31.3736Z" fill="white"/>
</g>
<defs>
<clipPath id="clip0_639_10874">
<rect width="135" height="130" fill="white"/>
</clipPath>
</defs>
</svg>
