<svg width="135" height="130" viewBox="0 0 135 130" fill="none" xmlns="http://www.w3.org/2000/svg">
<g clip-path="url(#clip0_639_10794)">
<rect x="-268.5" y="-258.5" width="402" height="387" rx="18.5" fill="#FDFFEF" stroke="black" stroke-width="3"/>
<path d="M-135.952 104.794C-138.956 103.766 -142.369 101.838 -143.735 100.296C-144.963 98.8822 -146.875 97.7255 -147.967 97.7255C-148.923 97.7255 -150.971 96.5688 -152.2 95.2836C-154.385 93.0987 -154.385 92.0706 -153.019 87.8294C-149.06 76.5195 -145.373 73.692 -114.788 58.7836C-105.094 54.1568 -104.412 53.3857 -99.4962 44.6463C-90.4846 28.4526 -87.2077 21.7695 -87.7538 21.1269C-88.1635 20.8698 -90.3481 21.2554 -92.6692 22.0266C-97.4481 23.5688 -103.592 21.2554 -107.006 16.7572C-108.644 14.5723 -109.327 14.4438 -113.013 15.729C-118.475 17.6568 -125.165 15.2149 -128.579 9.81704C-131.583 5.06176 -131.719 2.49133 -129.125 -4.44881C-127.896 -7.79036 -127.623 -9.71817 -128.579 -10.1037C-133.358 -11.646 -136.908 -16.4013 -137.044 -21.5421C-137.181 -24.4981 -137.727 -26.94 -138.273 -26.94C-139.365 -26.94 -139.912 -22.0562 -139.365 -17.558C-139.092 -14.0879 -143.325 -10.2323 -147.558 -10.2323C-151.517 -10.2323 -157.798 -15.1161 -159.163 -19.3573C-159.71 -21.028 -161.348 -21.7992 -163.942 -21.7992C-168.858 -21.7992 -173.5 -27.0685 -173.5 -32.5949C-173.5 -37.3502 -169.131 -45.8326 -164.898 -49.3027C-163.26 -50.5879 -161.758 -53.1583 -161.621 -54.8291C-161.485 -56.6284 -160.392 -59.0703 -159.3 -60.227C-156.296 -63.44 -156.569 -64.2111 -161.348 -65.7534C-174.319 -69.9946 -168.858 -91.2006 -154.794 -91.2006C-150.835 -91.2006 -149.879 -90.558 -148.24 -86.8309C-145.783 -81.433 -144.008 -80.2763 -138.546 -80.7904C-136.088 -80.9189 -133.358 -80.2763 -132.129 -79.1196C-129.671 -76.8062 -124.346 -76.2921 -124.346 -78.3485C-124.346 -79.1196 -125.302 -81.5615 -126.667 -83.8749C-127.896 -86.3168 -128.988 -91.8432 -129.262 -97.4981C-129.535 -102.639 -129.944 -107.137 -130.217 -107.523C-130.627 -107.78 -133.358 -107.394 -136.498 -106.752C-140.185 -105.981 -145.646 -105.981 -151.654 -106.88L-161.075 -108.165L-157.388 -111.378L-153.702 -114.463L-159.573 -113.563C-164.625 -112.921 -166.946 -113.435 -174.456 -116.905L-183.467 -121.146L-179.508 -123.074L-175.548 -125.002L-178.962 -125.901C-185.106 -127.444 -190.977 -130.914 -193.844 -134.769L-196.712 -138.496L-191.113 -136.569C-187.973 -135.669 -185.106 -135.155 -184.696 -135.54C-184.287 -135.926 -185.788 -138.111 -188.246 -140.424C-192.342 -144.408 -199.442 -157.003 -199.442 -160.345C-199.442 -161.502 -198.487 -161.502 -195.346 -159.959C-191.25 -157.903 -189.885 -158.803 -192.752 -161.502C-193.708 -162.401 -194.254 -166.771 -194.254 -171.783C-194.117 -182.065 -190.021 -191.19 -182.512 -198.259C-177.323 -203.271 -168.448 -205.199 -158.754 -203.657C-150.562 -202.371 -150.152 -201.857 -148.923 -188.234C-147.694 -174.739 -145.919 -170.755 -143.462 -176.539C-142.779 -178.466 -142.096 -181.551 -142.096 -183.479C-141.96 -186.563 -141.823 -186.692 -140.594 -184.635C-139.775 -183.35 -139.365 -180.523 -139.502 -178.209C-140.048 -173.197 -138.137 -161.887 -136.908 -161.887C-136.362 -161.887 -134.996 -164.072 -133.631 -166.771L-131.446 -171.526L-131.31 -165.486C-131.173 -157.646 -128.852 -151.606 -126.94 -154.176C-125.848 -155.718 -124.756 -155.204 -120.933 -151.348C-118.202 -148.65 -115.335 -146.465 -114.242 -146.465C-111.512 -146.465 -108.098 -155.59 -106.596 -166C-106.05 -170.884 -105.231 -175.253 -104.821 -175.51C-104.548 -175.896 -103.729 -170.755 -103.183 -164.201L-102.227 -152.248L-99.4962 -155.461C-98.1308 -157.26 -95.5365 -160.345 -93.8981 -162.401C-88.8462 -168.827 -79.2885 -177.053 -73.1442 -180.523C-66.7269 -183.993 -61.4019 -185.021 -67 -181.679C-70.1404 -179.752 -77.5135 -172.04 -83.1115 -164.586C-84.3404 -162.787 -87.7538 -159.188 -90.4846 -156.361C-93.3519 -153.533 -95.6731 -150.834 -95.6731 -150.192C-95.6731 -149.549 -97.4481 -149.035 -99.6327 -149.035C-104.548 -149.035 -107.962 -144.537 -107.962 -138.111C-107.962 -133.87 -108.235 -133.613 -112.331 -133.741C-116.017 -133.741 -117.656 -134.898 -122.025 -140.167C-124.756 -143.637 -128.169 -146.465 -129.535 -146.465C-130.9 -146.465 -132.675 -147.107 -133.631 -148.007C-134.86 -149.164 -135.269 -149.035 -135.269 -147.493C-135.269 -146.336 -134.04 -145.179 -132.538 -144.794C-130.9 -144.408 -129.808 -142.995 -129.808 -141.324C-129.808 -138.368 -125.029 -131.171 -122.025 -129.371C-121.069 -128.857 -120.25 -126.287 -120.25 -123.973V-119.475H-130.217C-136.908 -119.475 -141.14 -120.118 -142.915 -121.403C-144.281 -122.431 -146.875 -123.331 -148.513 -123.331C-150.971 -123.331 -151.654 -124.102 -151.654 -126.544C-151.654 -128.986 -152.337 -129.757 -154.794 -129.757C-157.388 -129.757 -158.344 -130.914 -160.256 -136.569C-161.485 -140.424 -162.577 -146.208 -162.577 -149.678V-155.847L-152.746 -154.947C-147.421 -154.561 -141.55 -153.79 -139.775 -153.405C-137.863 -152.891 -136.635 -153.148 -136.635 -154.176C-136.635 -154.947 -137.863 -155.975 -139.365 -156.361C-142.233 -157.132 -146.192 -162.787 -146.192 -166.385C-146.192 -167.414 -147.285 -168.313 -148.65 -168.313C-152.2 -168.313 -154.248 -173.326 -155.887 -185.535C-156.706 -191.19 -157.525 -196.074 -157.798 -196.459C-158.208 -196.716 -161.758 -196.973 -165.854 -197.102C-174.592 -197.102 -176.367 -195.688 -183.331 -182.451C-187.29 -175.253 -187.837 -173.069 -187.563 -165.486C-187.427 -160.473 -187.837 -156.746 -188.656 -156.746C-190.294 -156.746 -185.515 -147.878 -181.01 -142.866C-179.098 -140.81 -177.596 -137.468 -177.596 -135.669C-177.596 -133.227 -176.777 -132.199 -174.183 -131.556C-171.588 -130.914 -170.769 -129.885 -170.769 -127.058C-170.769 -122.56 -167.629 -120.76 -157.662 -119.861C-150.971 -119.218 -150.288 -118.833 -150.288 -115.877C-150.288 -112.792 -150.152 -112.792 -141.687 -113.435C-137.044 -113.82 -129.944 -114.591 -125.985 -115.106L-118.885 -116.005V-111.25C-118.885 -108.679 -119.431 -106.623 -120.25 -106.623C-124.483 -106.623 -119.294 -82.8467 -114.788 -81.5615C-113.287 -81.1759 -109.463 -77.9629 -106.323 -74.6213C-101.681 -69.7375 -97.4481 -67.1671 -86.1154 -62.2833C-78.1962 -58.9418 -71.0962 -55.7287 -70.4135 -55.2147C-69.5942 -54.7006 -66.1808 -53.9295 -62.7673 -53.6724L-56.35 -53.0298L-55.8039 -63.0545C-54.9846 -76.2921 -52.6635 -79.6337 -44.4712 -79.6337C-39.9654 -79.6337 -37.6442 -78.8625 -36.0058 -77.0633C-33.4115 -74.2358 -30.1346 -73.8502 -26.3115 -75.6495C-25.0827 -76.2921 -22.7615 -77.3203 -21.2596 -77.8344C-19.2115 -78.6055 -20.5769 -78.9911 -26.0385 -79.6337C-34.0942 -80.4048 -39.6923 -82.7182 -39.6923 -85.1601C-39.6923 -85.9312 -40.6481 -85.2886 -41.8769 -83.7463C-43.3789 -81.8185 -45.2904 -80.9189 -48.7039 -80.9189C-52.9366 -80.9189 -53.3462 -81.1759 -53.3462 -84.7745C-53.3462 -92.7428 -46.6558 -100.197 -39.5558 -100.197C-37.6442 -100.197 -34.9135 -101.354 -33.5481 -102.767C-32.1827 -104.181 -29.9981 -105.595 -28.6327 -105.981C-26.4481 -106.623 -26.175 -107.651 -26.8577 -111.764C-27.4039 -114.591 -27.2673 -118.833 -26.8577 -121.403C-25.9019 -125.644 -25.6288 -125.901 -20.5769 -125.901C-17.4365 -125.901 -14.4327 -125.002 -12.9308 -123.716C-10.7461 -121.66 -10.7462 -121.66 -11.7019 -124.616C-12.2481 -126.415 -14.0231 -130.014 -15.525 -132.584C-17.8462 -136.697 -19.075 -137.468 -22.625 -137.468C-25.0827 -137.468 -28.6327 -138.625 -30.5442 -140.039C-32.4558 -141.452 -35.3231 -142.609 -36.9615 -142.609C-39.6923 -142.609 -39.9654 -143.123 -39.4192 -149.678L-39.0096 -156.875L-44.0615 -157.646C-47.8846 -158.16 -49.25 -158.931 -49.25 -160.731C-49.25 -162.787 -50.0692 -162.915 -56.0769 -162.273C-62.7673 -161.502 -62.9039 -161.63 -62.9039 -164.843V-168.313L-67.6827 -166.128C-70.2769 -164.972 -72.4615 -163.558 -72.4615 -162.915C-72.4615 -162.401 -74.7827 -161.887 -77.5135 -161.887L-82.7019 -162.016L-76.5577 -167.157C-67.6827 -174.739 -58.3981 -178.723 -48.7039 -179.495L-40.375 -180.009L-46.7923 -176.153C-50.4788 -173.968 -53.8923 -172.169 -54.7115 -172.169C-56.2135 -172.169 -61.8116 -166.771 -60.9923 -166.128C-60.7192 -165.871 -58.125 -166.514 -55.3942 -167.542C-52.5269 -168.699 -46.9288 -169.984 -42.9692 -170.37C-36.4154 -171.141 -35.1865 -171.783 -30.8173 -177.053C-28.2231 -180.266 -26.0385 -184.378 -25.9019 -186.178L-25.7654 -189.519L-24.2635 -185.921C-23.4442 -183.993 -22.3519 -182.451 -21.8058 -182.451C-21.2596 -182.451 -19.6212 -185.921 -18.2558 -190.162C-16.2077 -196.845 -15.6615 -197.616 -14.1596 -195.817C-11.5654 -192.475 -9.79038 -194.789 -8.83461 -203.142L-7.87884 -210.854L-5.28462 -207.255L-2.55385 -203.657L-3.37307 -208.797C-3.78269 -211.625 -4.32884 -215.095 -4.46538 -216.509C-4.875 -218.951 -4.05577 -219.079 6.04808 -219.079C19.4288 -219.079 23.2519 -216.894 30.7615 -205.327C34.7212 -199.287 36.0865 -195.56 36.4961 -190.162C37.0423 -183.35 36.7692 -182.708 31.3077 -176.153C28.1673 -172.426 25.9827 -169.084 26.3923 -168.699C26.6654 -168.313 28.85 -168.956 31.1711 -169.984L35.2673 -171.912L32.5365 -168.57C31.0346 -166.642 27.7577 -163.686 25.1635 -161.887C19.7019 -158.16 19.1558 -156.618 23.525 -157.775C26.2558 -158.417 26.3923 -158.289 24.6173 -156.232C21.8865 -153.148 15.7423 -150.32 11.5096 -150.32C7.68654 -150.32 7.14037 -149.164 9.87114 -146.593C11.2365 -145.308 10.8269 -145.308 7.68653 -146.593C4.40961 -148.007 3.18078 -147.878 -1.32499 -145.436C-4.1923 -143.894 -7.60576 -142.609 -8.83461 -142.609C-11.5654 -142.609 -11.5654 -141.452 -9.24423 -138.111C-5.69423 -133.356 -3.78269 -126.544 -2.82693 -116.905C-2.00769 -107.651 -2.0077 -107.394 -0.232703 -111.121C1.81537 -115.62 6.04808 -119.732 7.41346 -118.447C7.95961 -117.933 7.41346 -119.09 6.04808 -121.146C4.81923 -123.074 4.27308 -124.616 4.81924 -124.616C5.50193 -124.616 4.95577 -125.259 3.72693 -126.03C-2.41731 -129.371 4.54614 -135.669 12.6019 -134.255C20.6577 -132.841 23.7981 -128.857 23.1154 -121.146C22.8423 -117.804 26.9384 -115.491 31.0346 -116.519C32.6731 -116.905 35.5404 -116.262 37.4519 -115.106C41.6846 -112.535 48.2385 -101.996 47.1462 -99.4259C46.7365 -98.3978 46.8731 -97.8837 47.6923 -98.2692C48.5115 -98.6548 49.0577 -98.5263 49.0577 -97.8837C49.0577 -97.1125 50.2865 -96.8555 51.7885 -97.2411C53.5635 -97.6266 55.7481 -96.5985 58.6154 -94.028C63.3942 -89.4013 64.2135 -82.5897 60.2539 -79.2481C57.5231 -76.9347 51.925 -77.3203 49.7404 -80.0192C48.2385 -81.9471 43.05 -84.7745 41.275 -84.7745C40.7288 -84.7745 41.0019 -84.2604 41.9577 -83.7463C43.1865 -82.9752 41.8212 -82.0756 38.1346 -80.9189C33.0827 -79.3766 31.9904 -79.3766 27.6211 -81.5615C22.9788 -84.0034 22.7058 -84.0034 20.9308 -81.69C19.975 -80.4048 17.1077 -77.1918 14.65 -74.6213C12.1923 -72.0509 7.14038 -66.653 3.59038 -62.5404L-2.96347 -55.0861L-1.46154 -48.0175C-0.0961559 -41.7199 -0.232698 -40.4347 -2.55385 -35.9365C-4.05578 -33.109 -4.60193 -30.7956 -3.91924 -30.7956C-1.18847 -30.7956 3.04422 -18.5861 3.18076 -10.8749C3.18076 -3.93473 2.225 -1.3643 -6.51346 15.472C-11.8385 25.7537 -17.8462 36.5494 -19.8942 39.6339L-23.4442 45.0318H-14.1596C-9.1077 45.0318 0.0403825 43.7466 6.04808 42.3329C21.3404 38.6058 26.1192 38.4772 27.8942 42.0758C28.5769 43.6181 30.8981 45.6744 33.0827 46.4456C38.5442 48.6304 42.2308 54.1568 42.2308 60.3258C42.2308 64.567 41.4115 66.3663 37.5885 69.9649C34.9942 72.4068 30.4884 75.1058 27.6211 75.8769C24.7538 76.7765 21.8865 77.9332 21.0673 78.4473C15.6058 82.303 -17.5731 83.5882 -32.1827 80.5037C-39.4192 78.9614 -51.2981 75.3628 -57.5789 72.7924C-59.4904 72.0213 -59.9 72.9209 -60.4462 78.1903C-60.8558 81.9174 -62.3577 86.2871 -64.1327 88.6005C-67.8192 93.3558 -87.6173 102.866 -94.0346 102.866C-96.3558 102.866 -101.817 103.766 -106.187 104.794C-115.881 107.236 -128.715 107.236 -135.952 104.794ZM-111.648 98.3681C-105.367 97.597 -105.231 97.4684 -105.231 93.0987C-105.231 88.986 -104.958 88.729 -100.452 88.729C-96.2192 88.729 -95.6731 89.1146 -95.6731 92.0706C-95.6731 95.1551 -95.2635 95.4121 -91.4404 94.641C-89.1192 94.2554 -83.6577 91.8135 -79.2885 89.3716C-73.5539 86.0301 -70.9596 83.5882 -69.0481 79.604C-66.4539 74.3346 -66.4539 74.3346 -69.4577 72.0213C-75.3289 67.523 -73.8269 61.4825 -59.9 36.0353C-47.6115 13.2871 -47.3385 12.9015 -42.9692 12.9015C-39.2827 12.9015 -38.4635 13.4156 -38.0539 15.8575L-37.6442 18.942L-30.1346 17.0142C-24.2635 15.472 -20.9865 13.4156 -14.9788 7.88923C-5.28461 -1.23577 -1.73463 -9.84669 -4.32886 -17.815C-5.96732 -22.9558 -6.10384 -23.0844 -12.2481 -23.0844C-15.6615 -23.0844 -19.7577 -23.984 -21.1231 -25.0122C-24.9461 -27.7111 -31.0904 -27.4541 -32.0461 -24.6266C-32.4558 -23.4699 -33.4115 -19.6143 -34.2308 -16.0157C-36.4154 -7.01923 -37.2346 -6.37663 -48.1577 -6.37663C-57.5788 -6.37663 -57.8519 -6.50515 -63.1769 -11.5175C-66.1808 -14.3449 -68.9116 -16.6583 -69.1846 -16.6583C-69.4577 -16.6583 -69.7308 -14.9876 -69.7308 -12.9312C-69.7308 -9.97523 -71.0962 -8.04739 -75.875 -4.32028C-82.8385 0.949085 -84.2038 6.21844 -79.1519 7.37513C-73.6904 8.78886 -76.2846 18.428 -88.5731 41.9473C-97.3116 58.6551 -100.315 63.0248 -102.363 63.0248C-103.865 63.0248 -106.733 63.6674 -108.644 64.567L-112.331 66.1093L-107.006 67.523C-102.227 68.8082 -101.817 69.3223 -101.408 73.8206L-100.998 78.7044L-114.379 77.8047C-121.752 77.2906 -128.033 76.5195 -128.442 75.8769C-128.852 75.3628 -132.129 76.391 -135.952 77.9332C-141.823 80.5037 -142.233 81.0177 -138.956 81.0177C-135.679 81.0177 -135.269 81.4033 -135.269 85.6445C-135.269 88.0864 -135.952 91.428 -136.771 92.8417C-137.727 94.5125 -137.727 95.9262 -136.908 96.6973C-135.542 97.9825 -123.39 100.167 -120.25 99.6533C-119.158 99.3963 -115.335 98.8822 -111.648 98.3681ZM5.36538 75.1058C10.0077 74.3346 10.1442 74.2061 9.73463 69.3223L9.18844 64.31H15.3327C19.975 64.31 21.8865 64.9526 23.2519 67.0089L25.1635 69.7079L28.9865 66.8804C35.95 61.7396 36.2231 59.5547 30.625 54.5424C26.9385 51.3294 24.3442 50.1727 21.0673 50.1727C18.6096 50.1727 16.2884 49.5301 16.0154 48.7589C15.6058 47.7308 13.9673 47.7308 10.1442 48.6304C7.14038 49.4015 -1.05192 50.4297 -7.87884 50.9438C-15.9346 51.4579 -21.1231 52.4861 -22.0789 53.5142C-22.8981 54.5424 -26.0385 55.3135 -28.9058 55.3135C-33.9577 55.3135 -34.2308 55.0565 -34.2308 51.4579C-34.2308 47.4737 -30.5442 39.6339 -25.7654 33.2079L-23.1711 29.6093H-31.7731H-40.375L-49.5231 46.8311C-59.6269 65.7237 -59.6269 65.0811 -49.25 68.5512C-31.7731 74.3346 -8.01539 77.1621 5.36538 75.1058ZM-92.9423 12.1304C-93.7615 10.3311 -94.3077 5.06175 -94.3077 0.563506C-94.3077 -7.27628 -94.0346 -8.04741 -89.9385 -11.646C-87.4808 -13.7023 -84.8865 -15.3731 -84.0673 -15.5016C-82.7019 -15.5016 -105.231 -20.3854 -109.327 -20.8995C-110.556 -21.028 -111.512 -19.4858 -112.194 -16.1442C-113.013 -11.5175 -114.652 -9.46113 -120.66 -5.73402C-124.619 -3.29212 -124.619 0.820548 -120.796 5.06175C-116.29 10.2026 -115.062 10.0741 -113.969 4.54767C-113.15 0.434993 -112.74 0.0494293 -108.508 0.0494293C-104.412 0.0494293 -103.865 0.435001 -103.865 3.39099C-103.865 9.30296 -98.95 15.3434 -94.0346 15.472C-91.9866 15.472 -91.85 14.9579 -92.9423 12.1304ZM-143.462 -32.4664C-141.823 -35.5509 -140.867 -36.065 -136.771 -35.6794C-131.992 -35.2939 -131.856 -35.1654 -131.446 -29.5104C-131.037 -23.0844 -128.852 -17.9435 -126.394 -17.9435C-125.302 -17.9435 -125.029 -20.3854 -125.438 -25.5263C-126.121 -33.6231 -125.165 -36.1935 -118.612 -43.7763C-113.15 -50.2023 -112.194 -57.528 -116.017 -63.3115C-120.113 -69.609 -123.937 -71.5368 -130.763 -70.8942C-135.815 -70.3801 -136.635 -69.9946 -136.635 -67.2956C-136.635 -61.2551 -139.502 -57.7851 -144.417 -57.7851C-148.787 -57.7851 -148.923 -57.9136 -148.923 -62.7974C-148.923 -70.6372 -147.967 -71.9224 -141.823 -71.9224C-137.044 -71.9224 -136.498 -72.1794 -138 -73.8502C-138.956 -74.8784 -141.96 -75.778 -144.69 -75.778C-150.835 -75.778 -152.473 -76.8062 -154.248 -81.3045C-155.887 -85.2886 -158.071 -84.903 -159.71 -80.4048C-161.075 -77.1918 -158.344 -71.2798 -154.385 -69.352C-149.333 -66.7816 -151.517 -53.8009 -158.481 -45.5756C-162.577 -40.6918 -164.079 -37.8643 -160.938 -40.8203C-159.983 -41.7199 -157.252 -42.3625 -154.794 -42.3625C-150.562 -42.3625 -150.288 -42.1055 -150.288 -38.1213C-150.288 -35.9365 -151.244 -32.852 -152.337 -31.5668C-154.794 -28.6108 -153.838 -24.8837 -149.742 -20.771L-146.875 -17.6865L-146.056 -23.3414C-145.646 -26.2974 -144.417 -30.5386 -143.462 -32.4664ZM-45.8365 -22.0562C-45.1539 -24.7551 -45.2904 -26.2974 -46.3827 -26.683C-47.2019 -26.94 -47.8846 -28.8678 -47.8846 -30.9242C-47.8846 -34.0087 -48.4308 -34.6513 -51.025 -34.6513C-52.8 -34.6513 -55.3942 -35.5509 -56.8962 -36.5791C-61.8116 -40.0492 -62.9038 -39.021 -60.7192 -32.9805C-58.9442 -28.0967 -50.0692 -17.9435 -47.7481 -17.9435C-47.2019 -17.9435 -46.2462 -19.7428 -45.8365 -22.0562ZM-73.0077 -28.9964C-73.4173 -30.153 -73.8269 -33.6231 -73.8269 -36.7076V-42.4911L-88.3 -48.7886C-96.2192 -52.3872 -102.91 -55.2147 -103.183 -55.2147C-103.456 -55.2147 -103.865 -51.6161 -104.138 -47.1178C-104.412 -42.7481 -105.094 -38.2499 -105.64 -37.0932C-106.869 -34.6513 -103.046 -32.852 -89.5289 -29.5104C-77.1039 -26.4259 -71.9154 -26.1689 -73.0077 -28.9964ZM-9.5173 -50.5879C-10.3365 -52.3872 -11.5654 -53.9294 -12.3846 -53.9294C-14.7058 -53.9294 -13.8865 -49.0457 -11.4289 -47.6319C-8.28847 -45.9611 -7.87884 -46.4752 -9.5173 -50.5879ZM-4.19231 -93.3854C-4.19231 -97.1125 -4.60192 -100.197 -5.14808 -100.197C-5.83077 -100.197 -6.24039 -96.4699 -6.24039 -91.9717C-6.24039 -87.3449 -5.83078 -84.389 -5.28462 -85.1601C-4.73847 -86.0597 -4.19231 -89.7868 -4.19231 -93.3854ZM26.3923 -92.4858C29.8058 -92.4858 31.1711 -91.8432 31.7173 -89.9154C32.4 -87.2164 36.7692 -86.3168 36.7692 -88.7587C36.7692 -90.4294 47.5558 -89.7868 52.4712 -87.859C54.9288 -86.9594 55.0654 -87.0879 53.1538 -89.2728C52.0615 -90.558 49.0577 -92.3573 46.7365 -93.3854C44.0058 -94.4136 41.275 -96.984 39.6365 -99.94C35.95 -106.623 31.5808 -109.965 25.3 -110.864C18.7462 -111.892 18.7462 -111.892 17.7904 -118.447C17.2442 -121.917 15.8788 -124.359 13.9673 -125.644C10.8269 -127.444 10.8269 -127.444 10.8269 -120.118C10.8269 -113.82 10.2808 -112.407 6.86731 -109.065C4.6827 -107.009 2.22501 -105.338 1.40578 -105.338C0.586545 -105.338 -0.0961559 -104.695 -0.0961559 -104.053C-0.0961559 -102.51 2.22499 -102.382 3.18076 -103.924C4.54614 -105.852 9.325 -103.924 12.1923 -100.454C15.4692 -96.5985 15.8788 -88.6302 12.875 -88.6302C11.6462 -88.6302 10.8269 -87.4735 10.8269 -85.9312C10.8269 -83.4893 11.3731 -83.6178 16.2885 -87.859C20.2481 -91.2006 22.9788 -92.4858 26.3923 -92.4858ZM-20.5769 -94.028C-20.5769 -96.4699 -21.6692 -96.3414 -25.7654 -93.3854C-27.1308 -92.3573 -27.1308 -91.8432 -25.9019 -91.0721C-23.4442 -89.6583 -20.5769 -91.2006 -20.5769 -94.028ZM-2.41731 -152.634C-0.369229 -152.891 1.26923 -153.662 1.26923 -154.304C1.26923 -154.947 2.49808 -155.461 4 -155.461C5.63846 -155.461 6.73077 -156.361 6.73077 -157.775C6.73077 -159.06 9.73461 -161.63 14.2404 -164.201C19.975 -167.414 21.75 -169.213 21.75 -171.526C21.75 -173.197 23.2519 -176.796 25.1635 -179.366C30.3519 -186.692 30.625 -189.134 26.3923 -197.102C20.6577 -208.155 16.6981 -211.753 9.18844 -212.782L2.63461 -213.553V-206.356C2.63461 -200.058 2.36154 -199.158 -0.0961559 -199.158C-1.59808 -199.158 -2.82693 -198.259 -2.82693 -197.231C-2.82693 -194.017 -7.60577 -186.435 -9.65385 -186.306C-10.7462 -186.306 -12.6577 -184.378 -13.75 -182.065C-14.9788 -179.495 -17.0269 -177.824 -18.8019 -177.567C-22.8981 -177.053 -22.7615 -175.51 -18.5288 -173.711C-15.7981 -172.554 -15.1154 -171.269 -15.1154 -167.671C-15.1154 -163.558 -15.3885 -163.172 -19.2115 -163.172C-22.2154 -163.172 -23.3077 -162.53 -23.3077 -160.859C-23.1712 -158.032 -11.0192 -150.063 -8.28846 -151.091C-7.19616 -151.606 -4.60192 -152.248 -2.41731 -152.634Z" fill="black"/>
<path d="M-133.085 102.866C-136.771 102.223 -140.731 100.809 -141.823 99.7812C-143.871 97.8533 -143.735 96.3111 -139.775 86.1579C-139.365 85.1297 -140.048 85.3868 -141.14 86.929C-142.369 88.3428 -143.735 91.1702 -144.144 92.9695C-145.237 97.0822 -146.329 97.2107 -149.333 94.1262C-152.2 91.1703 -152.2 86.672 -149.196 81.4026C-147.421 78.1896 -143.871 75.8762 -134.587 71.635C-127.76 68.5505 -119.021 64.1808 -115.198 61.9959C-111.238 59.8111 -107.006 58.2688 -105.913 58.6544C-104.412 59.297 -101.135 54.1562 -93.0788 38.3481C-80.9269 14.9572 -79.425 11.2301 -82.4288 12.3868C-84.8865 13.2865 -86.1154 10.0734 -86.525 2.49066C-86.6615 -2.39314 -86.1154 -3.29277 -80.2442 -7.91953C-75.3288 -11.9037 -73.8269 -13.96 -73.8269 -16.7875C-73.8269 -19.872 -73.2808 -20.5146 -70.4135 -20.5146C-68.5019 -20.5146 -67 -21.0287 -67 -21.7998C-67 -22.571 -70.55 -23.085 -74.9192 -23.085C-90.6212 -23.085 -120.387 -32.9812 -114.242 -36.1942C-110.829 -37.9935 -107.962 -44.291 -108.098 -49.6889L-108.235 -54.5727L-109.463 -49.4319C-110.146 -46.6044 -112.467 -42.2347 -114.515 -39.7928C-120.66 -32.5956 -120.933 -31.8245 -120.933 -22.4424V-13.446L-125.302 -13.0604C-131.583 -12.4178 -135.269 -16.659 -135.269 -24.4988C-135.269 -27.8403 -135.815 -30.9248 -136.498 -31.3104C-138.137 -32.3385 -141.004 -25.9125 -141.96 -19.2294C-142.642 -14.2171 -143.188 -13.4459 -146.192 -13.0604C-154.658 -12.1607 -161.894 -27.5833 -156.569 -35.2945C-155.34 -37.0938 -154.658 -38.5076 -155.067 -38.5076C-156.706 -38.5076 -161.212 -29.8967 -161.212 -26.5551C-161.212 -23.9847 -161.894 -23.085 -163.806 -23.085C-172.681 -23.085 -171.452 -39.4072 -161.758 -50.46C-159.983 -52.3879 -157.935 -56.115 -157.252 -58.6854C-156.023 -62.9266 -156.16 -63.5692 -159.846 -66.7822C-164.625 -71.0234 -166.127 -75.9072 -164.488 -81.9477C-163.123 -87.0886 -157.388 -91.7153 -153.975 -90.5586C-152.746 -90.0445 -151.108 -87.7312 -150.288 -85.4178C-148.65 -80.6625 -145.51 -79.1202 -140.321 -80.2769C-137.863 -80.9195 -136.362 -80.4055 -134.45 -78.0921C-132.402 -75.7787 -130.763 -75.2646 -126.804 -75.5217C-120.25 -76.0357 -115.744 -73.2083 -111.102 -65.754C-109.054 -62.541 -107.279 -60.4847 -107.006 -61.2558C-106.733 -62.0269 -98.2673 -59.071 -87.6173 -54.3157L-68.775 -45.8333L-69.3211 -40.5639C-70.2769 -33.2382 -65.225 -21.1572 -58.8077 -14.9882C-54.575 -11.1326 -52.6634 -10.2329 -48.1577 -10.2329C-41.6038 -10.2329 -40.2385 -11.6467 -38.3269 -19.872C-35.8692 -30.2822 -35.5961 -30.7963 -32.0461 -30.7963C-30.2711 -30.7963 -27.5404 -31.4389 -26.175 -32.3386C-24.1269 -33.4952 -22.8981 -33.1097 -18.9385 -30.4107C-13.4769 -26.4266 -11.4288 -26.1696 -7.19614 -28.997C-3.37306 -31.4389 -3.78269 -31.696 -0.915381 -23.8562C3.72693 -10.3615 0.586558 0.819905 -10.8827 11.7442C-17.1634 17.5277 -20.0308 19.1984 -26.8577 20.9977C-38.8731 24.2107 -42.15 23.9537 -42.6961 19.841C-42.9692 17.2706 -45.8365 21.3833 -54.8481 38.2195C-61.4019 50.0435 -67.1365 61.0963 -67.5461 62.6386C-68.2288 64.5664 -67.5461 66.2371 -64.9519 68.679C-60.7192 72.6632 -60.7192 75.3621 -64.5423 82.9449C-66.8634 87.4431 -69.4577 90.0135 -75.1923 93.098C-89.8019 101.452 -98.4038 102.352 -99.9058 95.797C-100.862 91.9414 -100.862 91.9414 -100.998 96.5681C-101.135 100.681 -101.681 101.323 -105.231 101.966C-113.423 103.508 -126.531 104.022 -133.085 102.866ZM-105.913 73.3058C-107.142 71.378 -115.471 70.3498 -120.523 71.5065C-124.892 72.5347 -124.756 72.6632 -117.519 73.4343C-105.367 74.591 -105.094 74.591 -105.913 73.3058ZM-141.55 -68.0674C-142.506 -68.8386 -144.827 -65.24 -144.69 -62.9266C-144.69 -61.7699 -143.871 -62.284 -142.779 -64.2118C-141.823 -66.0111 -141.277 -67.6819 -141.55 -68.0674Z" fill="white"/>
<path d="M-24.6732 78.8324C-43.9251 76.1335 -60.1731 70.8641 -62.7674 66.7514C-64.4058 63.7955 -63.8597 62.2532 -54.302 44.2602L-43.9251 24.725L-37.7809 25.3676C-29.8616 26.2673 -20.577 23.8254 -13.6135 19.0701C-7.19622 14.7004 -7.05969 14.5719 -18.5289 32.1793C-22.4885 38.2198 -26.7212 45.0314 -27.9501 47.3448C-30.2712 51.7145 -28.7693 52.9997 -25.7655 49.2726C-24.4001 47.4733 -21.5328 46.8307 -11.702 46.5736C-4.87508 46.3166 5.22879 45.0314 11.0999 43.7462C22.2961 41.0472 27.2115 40.5331 27.2115 42.2039C27.2115 42.8465 25.573 43.8747 23.5249 44.6458L19.7018 46.0595L24.7538 46.1881C31.8538 46.3166 39.4999 53.2567 39.4999 59.2972C39.4999 64.3096 37.0423 68.1652 31.5807 71.7638C24.8903 76.262 22.5692 76.262 19.9749 72.0208C18.6096 69.836 16.5615 68.1652 15.4691 68.1652C13.9672 68.1652 14.1038 69.0648 16.4249 72.0208C18.1999 74.0772 19.1557 76.262 18.6096 76.6476C16.0153 79.0895 -13.0674 80.6317 -24.6732 78.8324Z" fill="white"/>
</g>
<defs>
<clipPath id="clip0_639_10794">
<rect width="135" height="130" fill="white"/>
</clipPath>
</defs>
</svg>
