<svg width="135" height="130" viewBox="0 0 135 130" fill="none" xmlns="http://www.w3.org/2000/svg">
<g clip-path="url(#clip0_639_10796)">
<rect width="135" height="130" fill="white"/>
<rect x="-133.5" y="-258.5" width="402" height="387" rx="18.5" fill="#FDFFEF" stroke="black" stroke-width="3"/>
<path d="M-0.951933 104.794C-3.95578 103.766 -7.36924 101.838 -8.73462 100.296C-9.96347 98.8822 -11.875 97.7255 -12.9673 97.7255C-13.9231 97.7255 -15.9712 96.5688 -17.2 95.2836C-19.3846 93.0987 -19.3846 92.0706 -18.0192 87.8294C-14.0596 76.5195 -10.3731 73.692 20.2115 58.7836C29.9058 54.1568 30.5884 53.3857 35.5038 44.6463C44.5154 28.4526 47.7923 21.7695 47.2462 21.1269C46.8365 20.8698 44.6519 21.2554 42.3308 22.0266C37.5519 23.5688 31.4077 21.2554 27.9942 16.7572C26.3558 14.5723 25.6731 14.4438 21.9865 15.729C16.525 17.6568 9.8346 15.2149 6.42114 9.81704C3.41729 5.06176 3.28076 2.49133 5.87499 -4.44881C7.10384 -7.79036 7.3769 -9.71817 6.42114 -10.1037C1.64229 -11.646 -1.90771 -16.4013 -2.04425 -21.5421C-2.18078 -24.4981 -2.72693 -26.94 -3.27308 -26.94C-4.36539 -26.94 -4.91155 -22.0562 -4.3654 -17.558C-4.09232 -14.0879 -8.32501 -10.2323 -12.5577 -10.2323C-16.5173 -10.2323 -22.7981 -15.1161 -24.1635 -19.3573C-24.7096 -21.028 -26.3481 -21.7992 -28.9423 -21.7992C-33.8577 -21.7992 -38.5 -27.0685 -38.5 -32.5949C-38.5 -37.3502 -34.1308 -45.8326 -29.8981 -49.3027C-28.2596 -50.5879 -26.7577 -53.1583 -26.6212 -54.8291C-26.4846 -56.6284 -25.3923 -59.0703 -24.3 -60.227C-21.2962 -63.44 -21.5693 -64.2111 -26.3481 -65.7534C-39.3193 -69.9946 -33.8577 -91.2006 -19.7942 -91.2006C-15.8346 -91.2006 -14.8789 -90.558 -13.2404 -86.8309C-10.7827 -81.433 -9.00769 -80.2763 -3.54616 -80.7904C-1.08846 -80.9189 1.6423 -80.2763 2.87115 -79.1196C5.32884 -76.8062 10.6538 -76.2921 10.6538 -78.3485C10.6538 -79.1196 9.69807 -81.5615 8.33269 -83.8749C7.10384 -86.3168 6.01152 -91.8432 5.73844 -97.4981C5.46537 -102.639 5.05576 -107.137 4.78268 -107.523C4.37306 -107.78 1.64231 -107.394 -1.49808 -106.752C-5.18462 -105.981 -10.6462 -105.981 -16.6539 -106.88L-26.075 -108.165L-22.3885 -111.378L-18.7019 -114.463L-24.5731 -113.563C-29.625 -112.921 -31.9462 -113.435 -39.4558 -116.905L-48.4673 -121.146L-44.5077 -123.074L-40.5481 -125.002L-43.9616 -125.901C-50.1058 -127.444 -55.9769 -130.914 -58.8442 -134.769L-61.7116 -138.496L-56.1135 -136.569C-52.9731 -135.669 -50.1058 -135.155 -49.6962 -135.54C-49.2865 -135.926 -50.7885 -138.111 -53.2462 -140.424C-57.3423 -144.408 -64.4423 -157.003 -64.4423 -160.345C-64.4423 -161.502 -63.4866 -161.502 -60.3462 -159.959C-56.25 -157.903 -54.8846 -158.803 -57.7519 -161.502C-58.7077 -162.401 -59.2539 -166.771 -59.2539 -171.783C-59.1173 -182.065 -55.0212 -191.19 -47.5115 -198.259C-42.3231 -203.271 -33.4481 -205.199 -23.7539 -203.657C-15.5615 -202.371 -15.1519 -201.857 -13.9231 -188.234C-12.6942 -174.739 -10.9192 -170.755 -8.46155 -176.539C-7.77886 -178.466 -7.09616 -181.551 -7.09616 -183.479C-6.95963 -186.563 -6.82308 -186.692 -5.59423 -184.635C-4.775 -183.35 -4.3654 -180.523 -4.50194 -178.209C-5.0481 -173.197 -3.13654 -161.887 -1.9077 -161.887C-1.36154 -161.887 0.0038318 -164.072 1.36922 -166.771L3.55384 -171.526L3.69037 -165.486C3.8269 -157.646 6.14808 -151.606 8.05961 -154.176C9.15192 -155.718 10.2442 -155.204 14.0673 -151.348C16.7981 -148.65 19.6654 -146.465 20.7577 -146.465C23.4884 -146.465 26.9019 -155.59 28.4038 -166C28.95 -170.884 29.7692 -175.253 30.1788 -175.51C30.4519 -175.896 31.2711 -170.755 31.8173 -164.201L32.7731 -152.248L35.5038 -155.461C36.8692 -157.26 39.4635 -160.345 41.1019 -162.401C46.1538 -168.827 55.7115 -177.053 61.8558 -180.523C68.2731 -183.993 73.5981 -185.021 68 -181.679C64.8596 -179.752 57.4865 -172.04 51.8885 -164.586C50.6596 -162.787 47.2462 -159.188 44.5154 -156.361C41.6481 -153.533 39.3269 -150.834 39.3269 -150.192C39.3269 -149.549 37.5519 -149.035 35.3673 -149.035C30.4519 -149.035 27.0385 -144.537 27.0385 -138.111C27.0385 -133.87 26.7654 -133.613 22.6692 -133.741C18.9827 -133.741 17.3442 -134.898 12.975 -140.167C10.2442 -143.637 6.83076 -146.465 5.46537 -146.465C4.09999 -146.465 2.32499 -147.107 1.36922 -148.007C0.14037 -149.164 -0.269241 -149.035 -0.269241 -147.493C-0.269241 -146.336 0.959605 -145.179 2.46153 -144.794C4.09999 -144.408 5.1923 -142.995 5.1923 -141.324C5.1923 -138.368 9.97114 -131.171 12.975 -129.371C13.9308 -128.857 14.75 -126.287 14.75 -123.973V-119.475H4.78268C-1.90771 -119.475 -6.1404 -120.118 -7.9154 -121.403C-9.28079 -122.431 -11.875 -123.331 -13.5135 -123.331C-15.9712 -123.331 -16.6539 -124.102 -16.6539 -126.544C-16.6539 -128.986 -17.3366 -129.757 -19.7942 -129.757C-22.3885 -129.757 -23.3442 -130.914 -25.2558 -136.569C-26.4846 -140.424 -27.5769 -146.208 -27.5769 -149.678V-155.847L-17.7462 -154.947C-12.4212 -154.561 -6.55001 -153.79 -4.77501 -153.405C-2.86348 -152.891 -1.63463 -153.148 -1.63463 -154.176C-1.63463 -154.947 -2.86347 -155.975 -4.3654 -156.361C-7.2327 -157.132 -11.1923 -162.787 -11.1923 -166.385C-11.1923 -167.414 -12.2846 -168.313 -13.65 -168.313C-17.2 -168.313 -19.2481 -173.326 -20.8866 -185.535C-21.7058 -191.19 -22.525 -196.074 -22.7981 -196.459C-23.2077 -196.716 -26.7577 -196.973 -30.8538 -197.102C-39.5923 -197.102 -41.3673 -195.688 -48.3308 -182.451C-52.2904 -175.253 -52.8366 -173.069 -52.5635 -165.486C-52.4269 -160.473 -52.8365 -156.746 -53.6558 -156.746C-55.2942 -156.746 -50.5154 -147.878 -46.0096 -142.866C-44.0981 -140.81 -42.5962 -137.468 -42.5962 -135.669C-42.5962 -133.227 -41.7769 -132.199 -39.1827 -131.556C-36.5885 -130.914 -35.7692 -129.885 -35.7692 -127.058C-35.7692 -122.56 -32.6289 -120.76 -22.6615 -119.861C-15.9712 -119.218 -15.2885 -118.833 -15.2885 -115.877C-15.2885 -112.792 -15.1519 -112.792 -6.68654 -113.435C-2.04424 -113.82 5.05576 -114.591 9.01538 -115.106L16.1154 -116.005V-111.25C16.1154 -108.679 15.5692 -106.623 14.75 -106.623C10.5173 -106.623 15.7058 -82.8467 20.2115 -81.5615C21.7135 -81.1759 25.5365 -77.9629 28.6769 -74.6213C33.3192 -69.7375 37.5519 -67.1671 48.8846 -62.2833C56.8038 -58.9418 63.9038 -55.7287 64.5865 -55.2147C65.4058 -54.7006 68.8192 -53.9295 72.2327 -53.6724L78.65 -53.0298L79.1961 -63.0545C80.0154 -76.2921 82.3365 -79.6337 90.5288 -79.6337C95.0346 -79.6337 97.3558 -78.8625 98.9942 -77.0633C101.588 -74.2358 104.865 -73.8502 108.688 -75.6495C109.917 -76.2921 112.238 -77.3203 113.74 -77.8344C115.788 -78.6055 114.423 -78.9911 108.962 -79.6337C100.906 -80.4048 95.3077 -82.7182 95.3077 -85.1601C95.3077 -85.9312 94.3519 -85.2886 93.1231 -83.7463C91.6211 -81.8185 89.7096 -80.9189 86.2961 -80.9189C82.0634 -80.9189 81.6538 -81.1759 81.6538 -84.7745C81.6538 -92.7428 88.3442 -100.197 95.4442 -100.197C97.3558 -100.197 100.087 -101.354 101.452 -102.767C102.817 -104.181 105.002 -105.595 106.367 -105.981C108.552 -106.623 108.825 -107.651 108.142 -111.764C107.596 -114.591 107.733 -118.833 108.142 -121.403C109.098 -125.644 109.371 -125.901 114.423 -125.901C117.563 -125.901 120.567 -125.002 122.069 -123.716C124.254 -121.66 124.254 -121.66 123.298 -124.616C122.752 -126.415 120.977 -130.014 119.475 -132.584C117.154 -136.697 115.925 -137.468 112.375 -137.468C109.917 -137.468 106.367 -138.625 104.456 -140.039C102.544 -141.452 99.6769 -142.609 98.0385 -142.609C95.3077 -142.609 95.0346 -143.123 95.5808 -149.678L95.9904 -156.875L90.9385 -157.646C87.1154 -158.16 85.75 -158.931 85.75 -160.731C85.75 -162.787 84.9308 -162.915 78.9231 -162.273C72.2327 -161.502 72.0961 -161.63 72.0961 -164.843V-168.313L67.3173 -166.128C64.7231 -164.972 62.5385 -163.558 62.5385 -162.915C62.5385 -162.401 60.2173 -161.887 57.4865 -161.887L52.2981 -162.016L58.4423 -167.157C67.3173 -174.739 76.6019 -178.723 86.2961 -179.495L94.625 -180.009L88.2077 -176.153C84.5212 -173.968 81.1077 -172.169 80.2885 -172.169C78.7865 -172.169 73.1884 -166.771 74.0077 -166.128C74.2808 -165.871 76.875 -166.514 79.6058 -167.542C82.4731 -168.699 88.0712 -169.984 92.0308 -170.37C98.5846 -171.141 99.8135 -171.783 104.183 -177.053C106.777 -180.266 108.962 -184.378 109.098 -186.178L109.235 -189.519L110.737 -185.921C111.556 -183.993 112.648 -182.451 113.194 -182.451C113.74 -182.451 115.379 -185.921 116.744 -190.162C118.792 -196.845 119.338 -197.616 120.84 -195.817C123.435 -192.475 125.21 -194.789 126.165 -203.142L127.121 -210.854L129.715 -207.255L132.446 -203.657L131.627 -208.797C131.217 -211.625 130.671 -215.095 130.535 -216.509C130.125 -218.951 130.944 -219.079 141.048 -219.079C154.429 -219.079 158.252 -216.894 165.762 -205.327C169.721 -199.287 171.087 -195.56 171.496 -190.162C172.042 -183.35 171.769 -182.708 166.308 -176.153C163.167 -172.426 160.983 -169.084 161.392 -168.699C161.665 -168.313 163.85 -168.956 166.171 -169.984L170.267 -171.912L167.537 -168.57C166.035 -166.642 162.758 -163.686 160.163 -161.887C154.702 -158.16 154.156 -156.618 158.525 -157.775C161.256 -158.417 161.392 -158.289 159.617 -156.232C156.887 -153.148 150.742 -150.32 146.51 -150.32C142.687 -150.32 142.14 -149.164 144.871 -146.593C146.237 -145.308 145.827 -145.308 142.687 -146.593C139.41 -148.007 138.181 -147.878 133.675 -145.436C130.808 -143.894 127.394 -142.609 126.165 -142.609C123.435 -142.609 123.435 -141.452 125.756 -138.111C129.306 -133.356 131.217 -126.544 132.173 -116.905C132.992 -107.651 132.992 -107.394 134.767 -111.121C136.815 -115.62 141.048 -119.732 142.413 -118.447C142.96 -117.933 142.413 -119.09 141.048 -121.146C139.819 -123.074 139.273 -124.616 139.819 -124.616C140.502 -124.616 139.956 -125.259 138.727 -126.03C132.583 -129.371 139.546 -135.669 147.602 -134.255C155.658 -132.841 158.798 -128.857 158.115 -121.146C157.842 -117.804 161.938 -115.491 166.035 -116.519C167.673 -116.905 170.54 -116.262 172.452 -115.106C176.685 -112.535 183.238 -101.996 182.146 -99.4259C181.737 -98.3978 181.873 -97.8837 182.692 -98.2692C183.512 -98.6548 184.058 -98.5263 184.058 -97.8837C184.058 -97.1125 185.287 -96.8555 186.788 -97.2411C188.563 -97.6266 190.748 -96.5985 193.615 -94.028C198.394 -89.4013 199.213 -82.5897 195.254 -79.2481C192.523 -76.9347 186.925 -77.3203 184.74 -80.0192C183.238 -81.9471 178.05 -84.7745 176.275 -84.7745C175.729 -84.7745 176.002 -84.2604 176.958 -83.7463C178.187 -82.9752 176.821 -82.0756 173.135 -80.9189C168.083 -79.3766 166.99 -79.3766 162.621 -81.5615C157.979 -84.0034 157.706 -84.0034 155.931 -81.69C154.975 -80.4048 152.108 -77.1918 149.65 -74.6213C147.192 -72.0509 142.14 -66.653 138.59 -62.5404L132.037 -55.0861L133.538 -48.0175C134.904 -41.7199 134.767 -40.4347 132.446 -35.9365C130.944 -33.109 130.398 -30.7956 131.081 -30.7956C133.812 -30.7956 138.044 -18.5861 138.181 -10.8749C138.181 -3.93473 137.225 -1.3643 128.487 15.472C123.162 25.7537 117.154 36.5494 115.106 39.6339L111.556 45.0318H120.84C125.892 45.0318 135.04 43.7466 141.048 42.3329C156.34 38.6058 161.119 38.4772 162.894 42.0758C163.577 43.6181 165.898 45.6744 168.083 46.4456C173.544 48.6304 177.231 54.1568 177.231 60.3258C177.231 64.567 176.412 66.3663 172.588 69.9649C169.994 72.4068 165.488 75.1058 162.621 75.8769C159.754 76.7765 156.887 77.9332 156.067 78.4473C150.606 82.303 117.427 83.5882 102.817 80.5037C95.5808 78.9614 83.7019 75.3628 77.4211 72.7924C75.5096 72.0213 75.1 72.9209 74.5538 78.1903C74.1442 81.9174 72.6423 86.2871 70.8673 88.6005C67.1808 93.3558 47.3827 102.866 40.9654 102.866C38.6442 102.866 33.1827 103.766 28.8135 104.794C19.1192 107.236 6.28461 107.236 -0.951933 104.794ZM23.3519 98.3681C29.6327 97.597 29.7692 97.4684 29.7692 93.0987C29.7692 88.986 30.0423 88.729 34.5481 88.729C38.7808 88.729 39.3269 89.1146 39.3269 92.0706C39.3269 95.1551 39.7365 95.4121 43.5596 94.641C45.8808 94.2554 51.3423 91.8135 55.7115 89.3716C61.4461 86.0301 64.0404 83.5882 65.9519 79.604C68.5461 74.3346 68.5461 74.3346 65.5423 72.0213C59.6711 67.523 61.1731 61.4825 75.1 36.0353C87.3885 13.2871 87.6615 12.9015 92.0308 12.9015C95.7173 12.9015 96.5365 13.4156 96.9461 15.8575L97.3558 18.942L104.865 17.0142C110.737 15.472 114.013 13.4156 120.021 7.88923C129.715 -1.23577 133.265 -9.84669 130.671 -17.815C129.033 -22.9558 128.896 -23.0844 122.752 -23.0844C119.338 -23.0844 115.242 -23.984 113.877 -25.0122C110.054 -27.7111 103.91 -27.4541 102.954 -24.6266C102.544 -23.4699 101.588 -19.6143 100.769 -16.0157C98.5846 -7.01923 97.7654 -6.37663 86.8423 -6.37663C77.4212 -6.37663 77.1481 -6.50515 71.8231 -11.5175C68.8192 -14.3449 66.0884 -16.6583 65.8154 -16.6583C65.5423 -16.6583 65.2692 -14.9876 65.2692 -12.9312C65.2692 -9.97523 63.9038 -8.04739 59.125 -4.32028C52.1615 0.949085 50.7962 6.21844 55.8481 7.37513C61.3096 8.78886 58.7154 18.428 46.4269 41.9473C37.6884 58.6551 34.6846 63.0248 32.6365 63.0248C31.1346 63.0248 28.2673 63.6674 26.3558 64.567L22.6692 66.1093L27.9942 67.523C32.7731 68.8082 33.1827 69.3223 33.5923 73.8206L34.0019 78.7044L20.6211 77.8047C13.2481 77.2906 6.9673 76.5195 6.55768 75.8769C6.14807 75.3628 2.87114 76.391 -0.951933 77.9332C-6.82309 80.5037 -7.2327 81.0177 -3.95578 81.0177C-0.678852 81.0177 -0.269241 81.4033 -0.269241 85.6445C-0.269241 88.0864 -0.951942 91.428 -1.77117 92.8417C-2.72694 94.5125 -2.72693 95.9262 -1.9077 96.6973C-0.542314 97.9825 11.6096 100.167 14.75 99.6533C15.8423 99.3963 19.6654 98.8822 23.3519 98.3681ZM140.365 75.1058C145.008 74.3346 145.144 74.2061 144.735 69.3223L144.188 64.31H150.333C154.975 64.31 156.887 64.9526 158.252 67.0089L160.163 69.7079L163.987 66.8804C170.95 61.7396 171.223 59.5547 165.625 54.5424C161.938 51.3294 159.344 50.1727 156.067 50.1727C153.61 50.1727 151.288 49.5301 151.015 48.7589C150.606 47.7308 148.967 47.7308 145.144 48.6304C142.14 49.4015 133.948 50.4297 127.121 50.9438C119.065 51.4579 113.877 52.4861 112.921 53.5142C112.102 54.5424 108.962 55.3135 106.094 55.3135C101.042 55.3135 100.769 55.0565 100.769 51.4579C100.769 47.4737 104.456 39.6339 109.235 33.2079L111.829 29.6093H103.227H94.625L85.4769 46.8311C75.3731 65.7237 75.3731 65.0811 85.75 68.5512C103.227 74.3346 126.985 77.1621 140.365 75.1058ZM42.0577 12.1304C41.2385 10.3311 40.6923 5.06175 40.6923 0.563506C40.6923 -7.27628 40.9654 -8.04741 45.0615 -11.646C47.5192 -13.7023 50.1135 -15.3731 50.9327 -15.5016C52.2981 -15.5016 29.7692 -20.3854 25.6731 -20.8995C24.4442 -21.028 23.4884 -19.4858 22.8058 -16.1442C21.9865 -11.5175 20.3481 -9.46113 14.3404 -5.73402C10.3808 -3.29212 10.3808 0.820548 14.2038 5.06175C18.7096 10.2026 19.9385 10.0741 21.0308 4.54767C21.85 0.434993 22.2596 0.0494293 26.4923 0.0494293C30.5885 0.0494293 31.1346 0.435001 31.1346 3.39099C31.1346 9.30296 36.05 15.3434 40.9654 15.472C43.0134 15.472 43.15 14.9579 42.0577 12.1304ZM-8.46155 -32.4664C-6.82309 -35.5509 -5.86733 -36.065 -1.77117 -35.6794C3.00767 -35.2939 3.14422 -35.1654 3.55384 -29.5104C3.96346 -23.0844 6.14807 -17.9435 8.60576 -17.9435C9.69807 -17.9435 9.97114 -20.3854 9.56152 -25.5263C8.87883 -33.6231 9.8346 -36.1935 16.3884 -43.7763C21.85 -50.2023 22.8058 -57.528 18.9827 -63.3115C14.8865 -69.609 11.0635 -71.5368 4.23653 -70.8942C-0.815391 -70.3801 -1.63463 -69.9946 -1.63463 -67.2956C-1.63463 -61.2551 -4.50193 -57.7851 -9.41731 -57.7851C-13.7865 -57.7851 -13.9231 -57.9136 -13.9231 -62.7974C-13.9231 -70.6372 -12.9673 -71.9224 -6.82309 -71.9224C-2.04425 -71.9224 -1.49809 -72.1794 -3.00001 -73.8502C-3.95578 -74.8784 -6.95962 -75.778 -9.69039 -75.778C-15.8346 -75.778 -17.4731 -76.8062 -19.2481 -81.3045C-20.8865 -85.2886 -23.0712 -84.903 -24.7096 -80.4048C-26.075 -77.1918 -23.3442 -71.2798 -19.3846 -69.352C-14.3327 -66.7816 -16.5173 -53.8009 -23.4808 -45.5756C-27.5769 -40.6918 -29.0789 -37.8643 -25.9385 -40.8203C-24.9827 -41.7199 -22.2519 -42.3625 -19.7942 -42.3625C-15.5616 -42.3625 -15.2885 -42.1055 -15.2885 -38.1213C-15.2885 -35.9365 -16.2442 -32.852 -17.3365 -31.5668C-19.7942 -28.6108 -18.8385 -24.8837 -14.7423 -20.771L-11.875 -17.6865L-11.0558 -23.3414C-10.6462 -26.2974 -9.41732 -30.5386 -8.46155 -32.4664ZM89.1635 -22.0562C89.8461 -24.7551 89.7096 -26.2974 88.6173 -26.683C87.7981 -26.94 87.1154 -28.8678 87.1154 -30.9242C87.1154 -34.0087 86.5692 -34.6513 83.975 -34.6513C82.2 -34.6513 79.6058 -35.5509 78.1038 -36.5791C73.1884 -40.0492 72.0962 -39.021 74.2808 -32.9805C76.0558 -28.0967 84.9308 -17.9435 87.2519 -17.9435C87.7981 -17.9435 88.7538 -19.7428 89.1635 -22.0562ZM61.9923 -28.9964C61.5827 -30.153 61.1731 -33.6231 61.1731 -36.7076V-42.4911L46.7 -48.7886C38.7808 -52.3872 32.0904 -55.2147 31.8173 -55.2147C31.5442 -55.2147 31.1346 -51.6161 30.8615 -47.1178C30.5885 -42.7481 29.9058 -38.2499 29.3596 -37.0932C28.1308 -34.6513 31.9538 -32.852 45.4711 -29.5104C57.8961 -26.4259 63.0846 -26.1689 61.9923 -28.9964ZM125.483 -50.5879C124.663 -52.3872 123.435 -53.9294 122.615 -53.9294C120.294 -53.9294 121.113 -49.0457 123.571 -47.6319C126.712 -45.9611 127.121 -46.4752 125.483 -50.5879ZM130.808 -93.3854C130.808 -97.1125 130.398 -100.197 129.852 -100.197C129.169 -100.197 128.76 -96.4699 128.76 -91.9717C128.76 -87.3449 129.169 -84.389 129.715 -85.1601C130.262 -86.0597 130.808 -89.7868 130.808 -93.3854ZM161.392 -92.4858C164.806 -92.4858 166.171 -91.8432 166.717 -89.9154C167.4 -87.2164 171.769 -86.3168 171.769 -88.7587C171.769 -90.4294 182.556 -89.7868 187.471 -87.859C189.929 -86.9594 190.065 -87.0879 188.154 -89.2728C187.062 -90.558 184.058 -92.3573 181.737 -93.3854C179.006 -94.4136 176.275 -96.984 174.637 -99.94C170.95 -106.623 166.581 -109.965 160.3 -110.864C153.746 -111.892 153.746 -111.892 152.79 -118.447C152.244 -121.917 150.879 -124.359 148.967 -125.644C145.827 -127.444 145.827 -127.444 145.827 -120.118C145.827 -113.82 145.281 -112.407 141.867 -109.065C139.683 -107.009 137.225 -105.338 136.406 -105.338C135.587 -105.338 134.904 -104.695 134.904 -104.053C134.904 -102.51 137.225 -102.382 138.181 -103.924C139.546 -105.852 144.325 -103.924 147.192 -100.454C150.469 -96.5985 150.879 -88.6302 147.875 -88.6302C146.646 -88.6302 145.827 -87.4735 145.827 -85.9312C145.827 -83.4893 146.373 -83.6178 151.288 -87.859C155.248 -91.2006 157.979 -92.4858 161.392 -92.4858ZM114.423 -94.028C114.423 -96.4699 113.331 -96.3414 109.235 -93.3854C107.869 -92.3573 107.869 -91.8432 109.098 -91.0721C111.556 -89.6583 114.423 -91.2006 114.423 -94.028ZM132.583 -152.634C134.631 -152.891 136.269 -153.662 136.269 -154.304C136.269 -154.947 137.498 -155.461 139 -155.461C140.638 -155.461 141.731 -156.361 141.731 -157.775C141.731 -159.06 144.735 -161.63 149.24 -164.201C154.975 -167.414 156.75 -169.213 156.75 -171.526C156.75 -173.197 158.252 -176.796 160.163 -179.366C165.352 -186.692 165.625 -189.134 161.392 -197.102C155.658 -208.155 151.698 -211.753 144.188 -212.782L137.635 -213.553V-206.356C137.635 -200.058 137.362 -199.158 134.904 -199.158C133.402 -199.158 132.173 -198.259 132.173 -197.231C132.173 -194.017 127.394 -186.435 125.346 -186.306C124.254 -186.306 122.342 -184.378 121.25 -182.065C120.021 -179.495 117.973 -177.824 116.198 -177.567C112.102 -177.053 112.238 -175.51 116.471 -173.711C119.202 -172.554 119.885 -171.269 119.885 -167.671C119.885 -163.558 119.612 -163.172 115.788 -163.172C112.785 -163.172 111.692 -162.53 111.692 -160.859C111.829 -158.032 123.981 -150.063 126.712 -151.091C127.804 -151.606 130.398 -152.248 132.583 -152.634Z" fill="black"/>
<path d="M52.025 18.5563C53.3904 14.3151 53.8 14.058 54.0731 16.6284C54.3461 18.2992 53.6635 20.6126 52.4346 21.6408C50.5231 23.4401 50.5231 23.183 52.025 18.5563Z" fill="#F9C8BA"/>
<path d="M37.9615 19.4555C30.8615 17.7847 27.175 13.672 26.9019 6.86042C26.7654 3.64739 26.6289 3.64739 25.4 8.14563C24.1712 12.5154 23.625 12.9009 18.9827 12.9009C10.2442 12.9009 4.50963 4.80408 6.96732 -4.06387C7.92309 -7.53394 9.42502 -9.59029 12.1558 -11.004C16.6616 -13.0604 18.8462 -16.4019 18.8462 -20.9001C18.8462 -22.6994 20.075 -24.8843 21.85 -25.9125C24.5808 -27.5832 25.5366 -27.5832 30.5885 -25.5269C33.5923 -24.2417 40.6923 -22.4424 46.2904 -21.6713C51.8885 -20.9001 57.2135 -20.0005 58.1692 -19.7434C61.1731 -18.9723 59.9442 -14.2171 56.1212 -12.2892C53.9365 -11.2611 50.6596 -9.07621 48.6115 -7.14839C43.9692 -3.16424 43.5596 3.64739 47.5192 10.9731C49.7039 14.9572 49.8404 16.371 48.6115 17.5277C46.1539 19.7125 41.9212 20.4837 37.9615 19.4555Z" fill="#F9C8BA"/>
<path d="M49.5673 10.4594C49.1577 9.04571 48.6115 5.4471 48.475 2.49111C48.3385 -2.39269 48.8846 -3.29233 54.7558 -7.91909C59.6712 -11.9032 61.1731 -13.9596 61.1731 -16.7871C61.1731 -18.8434 61.8558 -20.5142 62.5385 -20.5142C63.3577 -20.5142 63.9038 -18.3293 63.9038 -15.6304C63.9038 -11.1321 63.3577 -10.361 57.2135 -6.63388C49.1577 -1.75007 48.3385 0.0492271 50.9327 5.9612C53.3904 11.6161 53.5269 12.1302 51.8885 12.6443C51.0692 12.9013 50.1135 11.8732 49.5673 10.4594Z" fill="#F9C8BA"/>
<path d="M1.9154 102.866C-1.77114 102.223 -5.73077 100.809 -6.82308 99.7812C-8.87115 97.8533 -8.73462 96.3111 -4.775 86.1579C-4.36539 85.1297 -5.04808 85.3868 -6.14039 86.929C-7.36923 88.3428 -8.73461 91.1702 -9.14423 92.9695C-10.2365 97.0822 -11.3288 97.2107 -14.3327 94.1262C-17.2 91.1703 -17.2 86.672 -14.1961 81.4026C-12.4211 78.1896 -8.87115 75.8762 0.413465 71.635C7.24039 68.5505 15.9788 64.1808 19.8019 61.9959C23.7615 59.8111 27.9942 58.2688 29.0865 58.6544C30.5885 59.297 33.8654 54.1562 41.9212 38.3481C54.0731 14.9572 55.575 11.2301 52.5712 12.3868C50.1135 13.2865 48.8846 10.0734 48.475 2.49066C48.3385 -2.39314 48.8846 -3.29277 54.7558 -7.91953C59.6712 -11.9037 61.1731 -13.96 61.1731 -16.7875C61.1731 -19.872 61.7192 -20.5146 64.5865 -20.5146C66.4981 -20.5146 68 -21.0287 68 -21.7998C68 -22.571 64.45 -23.085 60.0808 -23.085C44.3788 -23.085 14.6135 -32.9812 20.7577 -36.1942C24.1712 -37.9935 27.0385 -44.291 26.9019 -49.6889L26.7654 -54.5727L25.5365 -49.4319C24.8538 -46.6044 22.5327 -42.2347 20.4846 -39.7928C14.3404 -32.5956 14.0673 -31.8245 14.0673 -22.4424V-13.446L9.69809 -13.0604C3.41732 -12.4178 -0.269227 -16.659 -0.269227 -24.4988C-0.269227 -27.8403 -0.815373 -30.9248 -1.49807 -31.3104C-3.13653 -32.3385 -6.00383 -25.9125 -6.9596 -19.2294C-7.6423 -14.2171 -8.18846 -13.4459 -11.1923 -13.0604C-19.6577 -12.1607 -26.8942 -27.5833 -21.5692 -35.2945C-20.3404 -37.0938 -19.6577 -38.5076 -20.0673 -38.5076C-21.7058 -38.5076 -26.2115 -29.8967 -26.2115 -26.5551C-26.2115 -23.9847 -26.8942 -23.085 -28.8058 -23.085C-37.6808 -23.085 -36.4519 -39.4072 -26.7577 -50.46C-24.9827 -52.3879 -22.9346 -56.115 -22.2519 -58.6854C-21.0231 -62.9266 -21.1596 -63.5692 -24.8462 -66.7822C-29.625 -71.0234 -31.1269 -75.9072 -29.4885 -81.9477C-28.1231 -87.0886 -22.3885 -91.7153 -18.975 -90.5586C-17.7461 -90.0445 -16.1077 -87.7312 -15.2885 -85.4178C-13.65 -80.6625 -10.5096 -79.1202 -5.32115 -80.2769C-2.86345 -80.9195 -1.36153 -80.4055 0.550012 -78.0921C2.59809 -75.7787 4.23654 -75.2646 8.19615 -75.5217C14.75 -76.0357 19.2558 -73.2083 23.8981 -65.754C25.9462 -62.541 27.7212 -60.4847 27.9942 -61.2558C28.2673 -62.0269 36.7327 -59.071 47.3827 -54.3157L66.225 -45.8333L65.6789 -40.5639C64.7231 -33.2382 69.775 -21.1572 76.1923 -14.9882C80.425 -11.1326 82.3366 -10.2329 86.8423 -10.2329C93.3962 -10.2329 94.7615 -11.6467 96.6731 -19.872C99.1308 -30.2822 99.4039 -30.7963 102.954 -30.7963C104.729 -30.7963 107.46 -31.4389 108.825 -32.3386C110.873 -33.4952 112.102 -33.1097 116.062 -30.4107C121.523 -26.4266 123.571 -26.1696 127.804 -28.997C131.627 -31.4389 131.217 -31.696 134.085 -23.8562C138.727 -10.3615 135.587 0.819905 124.117 11.7442C117.837 17.5277 114.969 19.1984 108.142 20.9977C96.1269 24.2107 92.85 23.9537 92.3039 19.841C92.0308 17.2706 89.1635 21.3833 80.1519 38.2195C73.5981 50.0435 67.8635 61.0963 67.4539 62.6386C66.7712 64.5664 67.4539 66.2371 70.0481 68.679C74.2808 72.6632 74.2808 75.3621 70.4577 82.9449C68.1366 87.4431 65.5423 90.0135 59.8077 93.098C45.1981 101.452 36.5962 102.352 35.0942 95.797C34.1385 91.9414 34.1385 91.9414 34.0019 96.5681C33.8654 100.681 33.3192 101.323 29.7692 101.966C21.5769 103.508 8.46924 104.022 1.9154 102.866ZM29.0865 73.3058C27.8577 71.378 19.5289 70.3498 14.4769 71.5065C10.1077 72.5347 10.2442 72.6632 17.4808 73.4343C29.6327 74.591 29.9058 74.591 29.0865 73.3058ZM-6.55001 -68.0674C-7.50577 -68.8386 -9.82691 -65.24 -9.69037 -62.9266C-9.69037 -61.7699 -8.87115 -62.284 -7.77884 -64.2118C-6.82307 -66.0111 -6.27693 -67.6819 -6.55001 -68.0674Z" fill="white"/>
<path d="M110.327 78.8324C91.075 76.1335 74.8269 70.8641 72.2327 66.7514C70.5942 63.7955 71.1404 62.2532 80.6981 44.2602L91.075 24.725L97.2192 25.3676C105.138 26.2673 114.423 23.8254 121.387 19.0701C127.804 14.7004 127.94 14.5719 116.471 32.1793C112.512 38.2198 108.279 45.0314 107.05 47.3448C104.729 51.7145 106.231 52.9997 109.235 49.2726C110.6 47.4733 113.467 46.8307 123.298 46.5736C130.125 46.3166 140.229 45.0314 146.1 43.7462C157.296 41.0472 162.212 40.5331 162.212 42.2039C162.212 42.8465 160.573 43.8747 158.525 44.6458L154.702 46.0595L159.754 46.1881C166.854 46.3166 174.5 53.2567 174.5 59.2972C174.5 64.3096 172.042 68.1652 166.581 71.7638C159.89 76.262 157.569 76.262 154.975 72.0208C153.61 69.836 151.562 68.1652 150.469 68.1652C148.967 68.1652 149.104 69.0648 151.425 72.0208C153.2 74.0772 154.156 76.262 153.61 76.6476C151.015 79.0895 121.933 80.6317 110.327 78.8324Z" fill="white"/>
</g>
<defs>
<clipPath id="clip0_639_10796">
<rect width="135" height="130" fill="white"/>
</clipPath>
</defs>
</svg>
