<svg width="135" height="130" viewBox="0 0 135 130" fill="none" xmlns="http://www.w3.org/2000/svg">
<g clip-path="url(#clip0_639_10798)">
<rect width="135" height="130" fill="white"/>
<rect x="-268.5" y="-128.5" width="402" height="387" rx="18.5" fill="#FDFFEF" stroke="black" stroke-width="3"/>
<path d="M-135.952 234.794C-138.956 233.766 -142.369 231.838 -143.735 230.296C-144.963 228.882 -146.875 227.725 -147.967 227.725C-148.923 227.725 -150.971 226.569 -152.2 225.284C-154.385 223.099 -154.385 222.071 -153.019 217.829C-149.06 206.52 -145.373 203.692 -114.788 188.784C-105.094 184.157 -104.412 183.386 -99.4962 174.646C-90.4846 158.453 -87.2077 151.769 -87.7538 151.127C-88.1635 150.87 -90.3481 151.255 -92.6692 152.027C-97.4481 153.569 -103.592 151.255 -107.006 146.757C-108.644 144.572 -109.327 144.444 -113.013 145.729C-118.475 147.657 -125.165 145.215 -128.579 139.817C-131.583 135.062 -131.719 132.491 -129.125 125.551C-127.896 122.21 -127.623 120.282 -128.579 119.896C-133.358 118.354 -136.908 113.599 -137.044 108.458C-137.181 105.502 -137.727 103.06 -138.273 103.06C-139.365 103.06 -139.912 107.944 -139.365 112.442C-139.092 115.912 -143.325 119.768 -147.558 119.768C-151.517 119.768 -157.798 114.884 -159.163 110.643C-159.71 108.972 -161.348 108.201 -163.942 108.201C-168.858 108.201 -173.5 102.931 -173.5 97.4051C-173.5 92.6498 -169.131 84.1674 -164.898 80.6973C-163.26 79.4121 -161.758 76.8417 -161.621 75.1709C-161.485 73.3716 -160.392 70.9297 -159.3 69.773C-156.296 66.56 -156.569 65.7889 -161.348 64.2466C-174.319 60.0054 -168.858 38.7994 -154.794 38.7994C-150.835 38.7994 -149.879 39.442 -148.24 43.1691C-145.783 48.567 -144.008 49.7237 -138.546 49.2096C-136.088 49.0811 -133.358 49.7237 -132.129 50.8804C-129.671 53.1938 -124.346 53.7079 -124.346 51.6515C-124.346 50.8804 -125.302 48.4385 -126.667 46.1251C-127.896 43.6832 -128.988 38.1568 -129.262 32.5019C-129.535 27.361 -129.944 22.8628 -130.217 22.4772C-130.627 22.2202 -133.358 22.6058 -136.498 23.2484C-140.185 24.0195 -145.646 24.0195 -151.654 23.1199L-161.075 21.8346L-157.388 18.6216L-153.702 15.5371L-159.573 16.4367C-164.625 17.0794 -166.946 16.5653 -174.456 13.0952L-183.467 8.854L-179.508 6.92618L-175.548 4.99836L-178.962 4.09872C-185.106 2.55647 -190.977 -0.913607 -193.844 -4.76924L-196.712 -8.49636L-191.113 -6.56854C-187.973 -5.66889 -185.106 -5.1548 -184.696 -5.54037C-184.287 -5.92593 -185.788 -8.11079 -188.246 -10.4242C-192.342 -14.4083 -199.442 -27.0034 -199.442 -30.3449C-199.442 -31.5016 -198.487 -31.5016 -195.346 -29.9594C-191.25 -27.903 -189.885 -28.8027 -192.752 -31.5016C-193.708 -32.4013 -194.254 -36.771 -194.254 -41.7833C-194.117 -52.065 -190.021 -61.19 -182.512 -68.2587C-177.323 -73.271 -168.448 -75.1988 -158.754 -73.6566C-150.562 -72.3714 -150.152 -71.8573 -148.923 -58.234C-147.694 -44.7393 -145.919 -40.7552 -143.462 -46.5386C-142.779 -48.4664 -142.096 -51.5509 -142.096 -53.4787C-141.96 -56.5633 -141.823 -56.6918 -140.594 -54.6354C-139.775 -53.3502 -139.365 -50.5228 -139.502 -48.2094C-140.048 -43.1971 -138.137 -31.8872 -136.908 -31.8872C-136.362 -31.8872 -134.996 -34.0721 -133.631 -36.771L-131.446 -41.5263L-131.31 -35.4858C-131.173 -27.646 -128.852 -21.6055 -126.94 -24.1759C-125.848 -25.7182 -124.756 -25.2041 -120.933 -21.3485C-118.202 -18.6495 -115.335 -16.4647 -114.242 -16.4647C-111.512 -16.4647 -108.098 -25.5897 -106.596 -35.9999C-106.05 -40.8837 -105.231 -45.2534 -104.821 -45.5104C-104.548 -45.896 -103.729 -40.7552 -103.183 -34.2006L-102.227 -22.2481L-99.4962 -25.4611C-98.1308 -27.2604 -95.5365 -30.3449 -93.8981 -32.4013C-88.8462 -38.8273 -79.2885 -47.0527 -73.1442 -50.5228C-66.7269 -53.9928 -61.4019 -55.021 -67 -51.6795C-70.1404 -49.7516 -77.5135 -42.0404 -83.1115 -34.5861C-84.3404 -32.7868 -87.7538 -29.1882 -90.4846 -26.3608C-93.3519 -23.5333 -95.6731 -20.8344 -95.6731 -20.1918C-95.6731 -19.5492 -97.4481 -19.0351 -99.6327 -19.0351C-104.548 -19.0351 -107.962 -14.5368 -107.962 -8.11079C-107.962 -3.86959 -108.235 -3.61255 -112.331 -3.74107C-116.017 -3.74107 -117.656 -4.89776 -122.025 -10.1671C-124.756 -13.6372 -128.169 -16.4647 -129.535 -16.4647C-130.9 -16.4647 -132.675 -17.1073 -133.631 -18.0069C-134.86 -19.1636 -135.269 -19.0351 -135.269 -17.4928C-135.269 -16.3361 -134.04 -15.1794 -132.538 -14.7939C-130.9 -14.4083 -129.808 -12.9946 -129.808 -11.3238C-129.808 -8.36783 -125.029 -1.17064 -122.025 0.628653C-121.069 1.14274 -120.25 3.71316 -120.25 6.02654V10.5248H-130.217C-136.908 10.5248 -141.14 9.88217 -142.915 8.59696C-144.281 7.56879 -146.875 6.66914 -148.513 6.66914C-150.971 6.66914 -151.654 5.89802 -151.654 3.45611C-151.654 1.01421 -152.337 0.243086 -154.794 0.243086C-157.388 0.243086 -158.344 -0.913608 -160.256 -6.56854C-161.485 -10.4242 -162.577 -16.2076 -162.577 -19.6777V-25.8467L-152.746 -24.9471C-147.421 -24.5615 -141.55 -23.7904 -139.775 -23.4048C-137.863 -22.8907 -136.635 -23.1478 -136.635 -24.1759C-136.635 -24.9471 -137.863 -25.9752 -139.365 -26.3608C-142.233 -27.1319 -146.192 -32.7868 -146.192 -36.3854C-146.192 -37.4136 -147.285 -38.3133 -148.65 -38.3133C-152.2 -38.3133 -154.248 -43.3256 -155.887 -55.5351C-156.706 -61.19 -157.525 -66.0738 -157.798 -66.4594C-158.208 -66.7164 -161.758 -66.9735 -165.854 -67.102C-174.592 -67.102 -176.367 -65.6883 -183.331 -52.4506C-187.29 -45.2534 -187.837 -43.0685 -187.563 -35.4858C-187.427 -30.4735 -187.837 -26.7464 -188.656 -26.7464C-190.294 -26.7464 -185.515 -17.8784 -181.01 -12.8661C-179.098 -10.8097 -177.596 -7.46818 -177.596 -5.66888C-177.596 -3.22698 -176.777 -2.19882 -174.183 -1.55621C-171.588 -0.913607 -170.769 0.114562 -170.769 2.94203C-170.769 7.44027 -167.629 9.23956 -157.662 10.1392C-150.971 10.7818 -150.288 11.1674 -150.288 14.1234C-150.288 17.2079 -150.152 17.2079 -141.687 16.5653C-137.044 16.1797 -129.944 15.4086 -125.985 14.8945L-118.885 13.9948V18.7501C-118.885 21.3206 -119.431 23.3769 -120.25 23.3769C-124.483 23.3769 -119.294 47.1533 -114.788 48.4385C-113.287 48.8241 -109.463 52.0371 -106.323 55.3787C-101.681 60.2625 -97.4481 62.8329 -86.1154 67.7167C-78.1962 71.0582 -71.0962 74.2713 -70.4135 74.7853C-69.5942 75.2994 -66.1808 76.0705 -62.7673 76.3276L-56.35 76.9702L-55.8039 66.9455C-54.9846 53.7079 -52.6635 50.3663 -44.4712 50.3663C-39.9654 50.3663 -37.6442 51.1375 -36.0058 52.9367C-33.4115 55.7642 -30.1346 56.1498 -26.3115 54.3505C-25.0827 53.7079 -22.7615 52.6797 -21.2596 52.1656C-19.2115 51.3945 -20.5769 51.0089 -26.0385 50.3663C-34.0942 49.5952 -39.6923 47.2818 -39.6923 44.8399C-39.6923 44.0688 -40.6481 44.7114 -41.8769 46.2537C-43.3789 48.1815 -45.2904 49.0811 -48.7039 49.0811C-52.9366 49.0811 -53.3462 48.8241 -53.3462 45.2255C-53.3462 37.2572 -46.6558 29.8029 -39.5558 29.8029C-37.6442 29.8029 -34.9135 28.6463 -33.5481 27.2325C-32.1827 25.8188 -29.9981 24.4051 -28.6327 24.0195C-26.4481 23.3769 -26.175 22.3487 -26.8577 18.236C-27.4039 15.4086 -27.2673 11.1674 -26.8577 8.59696C-25.9019 4.35576 -25.6288 4.09872 -20.5769 4.09872C-17.4365 4.09872 -14.4327 4.99836 -12.9308 6.28357C-10.7461 8.33991 -10.7462 8.33992 -11.7019 5.38393C-12.2481 3.58463 -14.0231 -0.0139528 -15.525 -2.58438C-17.8462 -6.69705 -19.075 -7.46818 -22.625 -7.46818C-25.0827 -7.46818 -28.6327 -8.62487 -30.5442 -10.0386C-32.4558 -11.4523 -35.3231 -12.609 -36.9615 -12.609C-39.6923 -12.609 -39.9654 -13.1231 -39.4192 -19.6777L-39.0096 -26.8749L-44.0615 -27.646C-47.8846 -28.1601 -49.25 -28.9312 -49.25 -30.7305C-49.25 -32.7868 -50.0692 -32.9154 -56.0769 -32.2728C-62.7673 -31.5016 -62.9039 -31.6302 -62.9039 -34.8432V-38.3133L-67.6827 -36.1284C-70.2769 -34.9717 -72.4615 -33.558 -72.4615 -32.9154C-72.4615 -32.4013 -74.7827 -31.8872 -77.5135 -31.8872L-82.7019 -32.0157L-76.5577 -37.1566C-67.6827 -44.7393 -58.3981 -48.7235 -48.7039 -49.4946L-40.375 -50.0087L-46.7923 -46.153C-50.4788 -43.9682 -53.8923 -42.1689 -54.7115 -42.1689C-56.2135 -42.1689 -61.8116 -36.771 -60.9923 -36.1284C-60.7192 -35.8714 -58.125 -36.514 -55.3942 -37.5421C-52.5269 -38.6988 -46.9288 -39.984 -42.9692 -40.3696C-36.4154 -41.1407 -35.1865 -41.7833 -30.8173 -47.0527C-28.2231 -50.2657 -26.0385 -54.3784 -25.9019 -56.1777L-25.7654 -59.5192L-24.2635 -55.9207C-23.4442 -53.9928 -22.3519 -52.4506 -21.8058 -52.4506C-21.2596 -52.4506 -19.6212 -55.9206 -18.2558 -60.1618C-16.2077 -66.8449 -15.6615 -67.6161 -14.1596 -65.8168C-11.5654 -62.4752 -9.79038 -64.7886 -8.83461 -73.1425L-7.87884 -80.8537L-5.28462 -77.2552L-2.55385 -73.6566L-3.37307 -78.7974C-3.78269 -81.6249 -4.32884 -85.0949 -4.46538 -86.5087C-4.875 -88.9506 -4.05577 -89.0791 6.04808 -89.0791C19.4288 -89.0791 23.2519 -86.8942 30.7615 -75.3273C34.7212 -69.2868 36.0865 -65.5597 36.4961 -60.1618C37.0423 -53.3502 36.7692 -52.7076 31.3077 -46.153C28.1673 -42.4259 25.9827 -39.0844 26.3923 -38.6988C26.6654 -38.3133 28.85 -38.9559 31.1711 -39.984L35.2673 -41.9118L32.5365 -38.5703C31.0346 -36.6425 27.7577 -33.6865 25.1635 -31.8872C19.7019 -28.1601 19.1558 -26.6178 23.525 -27.7745C26.2558 -28.4171 26.3923 -28.2886 24.6173 -26.2323C21.8865 -23.1478 15.7423 -20.3203 11.5096 -20.3203C7.68654 -20.3203 7.14037 -19.1636 9.87114 -16.5932C11.2365 -15.308 10.8269 -15.308 7.68653 -16.5932C4.40961 -18.0069 3.18078 -17.8784 -1.32499 -15.4365C-4.1923 -13.8942 -7.60576 -12.609 -8.83461 -12.609C-11.5654 -12.609 -11.5654 -11.4523 -9.24423 -8.11079C-5.69423 -3.35551 -3.78269 3.45611 -2.82693 13.0952C-2.00769 22.3487 -2.0077 22.6058 -0.232703 18.8786C1.81537 14.3804 6.04808 10.2677 7.41346 11.5529C7.95961 12.067 7.41346 10.9103 6.04808 8.854C4.81923 6.92618 4.27308 5.38393 4.81924 5.38393C5.50193 5.38393 4.95577 4.74133 3.72693 3.9702C-2.41731 0.628651 4.54614 -5.66889 12.6019 -4.25515C20.6577 -2.84142 23.7981 1.14273 23.1154 8.854C22.8423 12.1955 26.9384 14.5089 31.0346 13.4808C32.6731 13.0952 35.5404 13.7378 37.4519 14.8945C41.6846 17.4649 48.2385 28.0036 47.1462 30.5741C46.7365 31.6022 46.8731 32.1163 47.6923 31.7308C48.5115 31.3452 49.0577 31.4737 49.0577 32.1163C49.0577 32.8875 50.2865 33.1445 51.7885 32.7589C53.5635 32.3734 55.7481 33.4015 58.6154 35.972C63.3942 40.5987 64.2135 47.4103 60.2539 50.7519C57.5231 53.0653 51.925 52.6797 49.7404 49.9808C48.2385 48.0529 43.05 45.2255 41.275 45.2255C40.7288 45.2255 41.0019 45.7396 41.9577 46.2537C43.1865 47.0248 41.8212 47.9244 38.1346 49.0811C33.0827 50.6234 31.9904 50.6234 27.6211 48.4385C22.9788 45.9966 22.7058 45.9966 20.9308 48.31C19.975 49.5952 17.1077 52.8082 14.65 55.3787C12.1923 57.9491 7.14038 63.347 3.59038 67.4596L-2.96347 74.9139L-1.46154 81.9825C-0.0961559 88.2801 -0.232698 89.5653 -2.55385 94.0635C-4.05578 96.891 -4.60193 99.2044 -3.91924 99.2044C-1.18847 99.2044 3.04422 111.414 3.18076 119.125C3.18076 126.065 2.225 128.636 -6.51346 145.472C-11.8385 155.754 -17.8462 166.549 -19.8942 169.634L-23.4442 175.032H-14.1596C-9.1077 175.032 0.0403825 173.747 6.04808 172.333C21.3404 168.606 26.1192 168.477 27.8942 172.076C28.5769 173.618 30.8981 175.674 33.0827 176.446C38.5442 178.63 42.2308 184.157 42.2308 190.326C42.2308 194.567 41.4115 196.366 37.5885 199.965C34.9942 202.407 30.4884 205.106 27.6211 205.877C24.7538 206.777 21.8865 207.933 21.0673 208.447C15.6058 212.303 -17.5731 213.588 -32.1827 210.504C-39.4192 208.961 -51.2981 205.363 -57.5789 202.792C-59.4904 202.021 -59.9 202.921 -60.4462 208.19C-60.8558 211.917 -62.3577 216.287 -64.1327 218.6C-67.8192 223.356 -87.6173 232.866 -94.0346 232.866C-96.3558 232.866 -101.817 233.766 -106.187 234.794C-115.881 237.236 -128.715 237.236 -135.952 234.794ZM-111.648 228.368C-105.367 227.597 -105.231 227.468 -105.231 223.099C-105.231 218.986 -104.958 218.729 -100.452 218.729C-96.2192 218.729 -95.6731 219.115 -95.6731 222.071C-95.6731 225.155 -95.2635 225.412 -91.4404 224.641C-89.1192 224.255 -83.6577 221.814 -79.2885 219.372C-73.5539 216.03 -70.9596 213.588 -69.0481 209.604C-66.4539 204.335 -66.4539 204.335 -69.4577 202.021C-75.3289 197.523 -73.8269 191.483 -59.9 166.035C-47.6115 143.287 -47.3385 142.902 -42.9692 142.902C-39.2827 142.902 -38.4635 143.416 -38.0539 145.858L-37.6442 148.942L-30.1346 147.014C-24.2635 145.472 -20.9865 143.416 -14.9788 137.889C-5.28461 128.764 -1.73463 120.153 -4.32886 112.185C-5.96732 107.044 -6.10384 106.916 -12.2481 106.916C-15.6615 106.916 -19.7577 106.016 -21.1231 104.988C-24.9461 102.289 -31.0904 102.546 -32.0461 105.373C-32.4558 106.53 -33.4115 110.386 -34.2308 113.984C-36.4154 122.981 -37.2346 123.623 -48.1577 123.623C-57.5788 123.623 -57.8519 123.495 -63.1769 118.483C-66.1808 115.655 -68.9116 113.342 -69.1846 113.342C-69.4577 113.342 -69.7308 115.012 -69.7308 117.069C-69.7308 120.025 -71.0962 121.953 -75.875 125.68C-82.8385 130.949 -84.2038 136.218 -79.1519 137.375C-73.6904 138.789 -76.2846 148.428 -88.5731 171.947C-97.3116 188.655 -100.315 193.025 -102.363 193.025C-103.865 193.025 -106.733 193.667 -108.644 194.567L-112.331 196.109L-107.006 197.523C-102.227 198.808 -101.817 199.322 -101.408 203.821L-100.998 208.704L-114.379 207.805C-121.752 207.291 -128.033 206.52 -128.442 205.877C-128.852 205.363 -132.129 206.391 -135.952 207.933C-141.823 210.504 -142.233 211.018 -138.956 211.018C-135.679 211.018 -135.269 211.403 -135.269 215.645C-135.269 218.086 -135.952 221.428 -136.771 222.842C-137.727 224.512 -137.727 225.926 -136.908 226.697C-135.542 227.983 -123.39 230.167 -120.25 229.653C-119.158 229.396 -115.335 228.882 -111.648 228.368ZM5.36538 205.106C10.0077 204.335 10.1442 204.206 9.73463 199.322L9.18844 194.31H15.3327C19.975 194.31 21.8865 194.953 23.2519 197.009L25.1635 199.708L28.9865 196.88C35.95 191.74 36.2231 189.555 30.625 184.542C26.9385 181.329 24.3442 180.173 21.0673 180.173C18.6096 180.173 16.2884 179.53 16.0154 178.759C15.6058 177.731 13.9673 177.731 10.1442 178.63C7.14038 179.402 -1.05192 180.43 -7.87884 180.944C-15.9346 181.458 -21.1231 182.486 -22.0789 183.514C-22.8981 184.542 -26.0385 185.314 -28.9058 185.314C-33.9577 185.314 -34.2308 185.056 -34.2308 181.458C-34.2308 177.474 -30.5442 169.634 -25.7654 163.208L-23.1711 159.609H-31.7731H-40.375L-49.5231 176.831C-59.6269 195.724 -59.6269 195.081 -49.25 198.551C-31.7731 204.335 -8.01539 207.162 5.36538 205.106ZM-92.9423 142.13C-93.7615 140.331 -94.3077 135.062 -94.3077 130.564C-94.3077 122.724 -94.0346 121.953 -89.9385 118.354C-87.4808 116.298 -84.8865 114.627 -84.0673 114.498C-82.7019 114.498 -105.231 109.615 -109.327 109.1C-110.556 108.972 -111.512 110.514 -112.194 113.856C-113.013 118.483 -114.652 120.539 -120.66 124.266C-124.619 126.708 -124.619 130.821 -120.796 135.062C-116.29 140.203 -115.062 140.074 -113.969 134.548C-113.15 130.435 -112.74 130.049 -108.508 130.049C-104.412 130.049 -103.865 130.435 -103.865 133.391C-103.865 139.303 -98.95 145.343 -94.0346 145.472C-91.9866 145.472 -91.85 144.958 -92.9423 142.13ZM-143.462 97.5336C-141.823 94.4491 -140.867 93.935 -136.771 94.3206C-131.992 94.7061 -131.856 94.8346 -131.446 100.49C-131.037 106.916 -128.852 112.056 -126.394 112.056C-125.302 112.056 -125.029 109.615 -125.438 104.474C-126.121 96.3769 -125.165 93.8065 -118.612 86.2237C-113.15 79.7977 -112.194 72.472 -116.017 66.6885C-120.113 60.391 -123.937 58.4632 -130.763 59.1058C-135.815 59.6199 -136.635 60.0054 -136.635 62.7044C-136.635 68.7449 -139.502 72.2149 -144.417 72.2149C-148.787 72.2149 -148.923 72.0864 -148.923 67.2026C-148.923 59.3628 -147.967 58.0776 -141.823 58.0776C-137.044 58.0776 -136.498 57.8206 -138 56.1498C-138.956 55.1216 -141.96 54.222 -144.69 54.222C-150.835 54.222 -152.473 53.1938 -154.248 48.6955C-155.887 44.7114 -158.071 45.097 -159.71 49.5952C-161.075 52.8082 -158.344 58.7202 -154.385 60.648C-149.333 63.2184 -151.517 76.1991 -158.481 84.4244C-162.577 89.3082 -164.079 92.1357 -160.938 89.1797C-159.983 88.2801 -157.252 87.6375 -154.794 87.6375C-150.562 87.6375 -150.288 87.8945 -150.288 91.8787C-150.288 94.0635 -151.244 97.148 -152.337 98.4332C-154.794 101.389 -153.838 105.116 -149.742 109.229L-146.875 112.314L-146.056 106.659C-145.646 103.703 -144.417 99.4614 -143.462 97.5336ZM-45.8365 107.944C-45.1539 105.245 -45.2904 103.703 -46.3827 103.317C-47.2019 103.06 -47.8846 101.132 -47.8846 99.0758C-47.8846 95.9913 -48.4308 95.3487 -51.025 95.3487C-52.8 95.3487 -55.3942 94.4491 -56.8962 93.4209C-61.8116 89.9508 -62.9038 90.979 -60.7192 97.0195C-58.9442 101.903 -50.0692 112.056 -47.7481 112.056C-47.2019 112.056 -46.2462 110.257 -45.8365 107.944ZM-73.0077 101.004C-73.4173 99.847 -73.8269 96.3769 -73.8269 93.2924V87.5089L-88.3 81.2114C-96.2192 77.6128 -102.91 74.7853 -103.183 74.7853C-103.456 74.7853 -103.865 78.3839 -104.138 82.8822C-104.412 87.2519 -105.094 91.7501 -105.64 92.9068C-106.869 95.3487 -103.046 97.148 -89.5289 100.49C-77.1039 103.574 -71.9154 103.831 -73.0077 101.004ZM-9.5173 79.4121C-10.3365 77.6128 -11.5654 76.0706 -12.3846 76.0706C-14.7058 76.0706 -13.8865 80.9543 -11.4289 82.3681C-8.28847 84.0389 -7.87884 83.5248 -9.5173 79.4121ZM-4.19231 36.6146C-4.19231 32.8875 -4.60192 29.8029 -5.14808 29.8029C-5.83077 29.8029 -6.24039 33.5301 -6.24039 38.0283C-6.24039 42.6551 -5.83078 45.611 -5.28462 44.8399C-4.73847 43.9403 -4.19231 40.2132 -4.19231 36.6146ZM26.3923 37.5142C29.8058 37.5142 31.1711 38.1568 31.7173 40.0846C32.4 42.7836 36.7692 43.6832 36.7692 41.2413C36.7692 39.5706 47.5558 40.2132 52.4712 42.141C54.9288 43.0406 55.0654 42.9121 53.1538 40.7272C52.0615 39.442 49.0577 37.6427 46.7365 36.6146C44.0058 35.5864 41.275 33.016 39.6365 30.06C35.95 23.3769 31.5808 20.0353 25.3 19.1357C18.7462 18.1075 18.7462 18.1075 17.7904 11.5529C17.2442 8.08288 15.8788 5.64097 13.9673 4.35576C10.8269 2.55646 10.8269 2.55647 10.8269 9.88217C10.8269 16.1797 10.2808 17.5934 6.86731 20.935C4.6827 22.9913 2.22501 24.6621 1.40578 24.6621C0.586545 24.6621 -0.0961559 25.3047 -0.0961559 25.9473C-0.0961559 27.4896 2.22499 27.6181 3.18076 26.0758C4.54614 24.148 9.325 26.0758 12.1923 29.5459C15.4692 33.4015 15.8788 41.3698 12.875 41.3698C11.6462 41.3698 10.8269 42.5265 10.8269 44.0688C10.8269 46.5107 11.3731 46.3822 16.2885 42.141C20.2481 38.7994 22.9788 37.5142 26.3923 37.5142ZM-20.5769 35.972C-20.5769 33.5301 -21.6692 33.6586 -25.7654 36.6146C-27.1308 37.6427 -27.1308 38.1568 -25.9019 38.9279C-23.4442 40.3417 -20.5769 38.7994 -20.5769 35.972ZM-2.41731 -22.6337C-0.369229 -22.8907 1.26923 -23.6618 1.26923 -24.3044C1.26923 -24.9471 2.49808 -25.4611 4 -25.4611C5.63846 -25.4611 6.73077 -26.3608 6.73077 -27.7745C6.73077 -29.0597 9.73461 -31.6302 14.2404 -34.2006C19.975 -37.4136 21.75 -39.2129 21.75 -41.5263C21.75 -43.1971 23.2519 -46.7956 25.1635 -49.3661C30.3519 -56.6918 30.625 -59.1337 26.3923 -67.102C20.6577 -78.1548 16.6981 -81.7534 9.18844 -82.7816L2.63461 -83.5527V-76.3555C2.63461 -70.058 2.36154 -69.1583 -0.0961559 -69.1583C-1.59808 -69.1583 -2.82693 -68.2587 -2.82693 -67.2305C-2.82693 -64.0175 -7.60577 -56.4347 -9.65385 -56.3062C-10.7462 -56.3062 -12.6577 -54.3784 -13.75 -52.065C-14.9788 -49.4946 -17.0269 -47.8238 -18.8019 -47.5668C-22.8981 -47.0527 -22.7615 -45.5104 -18.5288 -43.7111C-15.7981 -42.5545 -15.1154 -41.2692 -15.1154 -37.6706C-15.1154 -33.558 -15.3885 -33.1724 -19.2115 -33.1724C-22.2154 -33.1724 -23.3077 -32.5298 -23.3077 -30.859C-23.1712 -28.0316 -11.0192 -20.0633 -8.28846 -21.0914C-7.19616 -21.6055 -4.60192 -22.2481 -2.41731 -22.6337Z" fill="black"/>
<path d="M-133.085 232.866C-136.771 232.223 -140.731 230.809 -141.823 229.781C-143.871 227.853 -143.735 226.311 -139.775 216.158C-139.365 215.13 -140.048 215.387 -141.14 216.929C-142.369 218.343 -143.735 221.17 -144.144 222.97C-145.237 227.082 -146.329 227.211 -149.333 224.126C-152.2 221.17 -152.2 216.672 -149.196 211.403C-147.421 208.19 -143.871 205.876 -134.587 201.635C-127.76 198.551 -119.021 194.181 -115.198 191.996C-111.238 189.811 -107.006 188.269 -105.913 188.654C-104.412 189.297 -101.135 184.156 -93.0788 168.348C-80.9269 144.957 -79.425 141.23 -82.4288 142.387C-84.8865 143.286 -86.1154 140.073 -86.525 132.491C-86.6615 127.607 -86.1154 126.707 -80.2442 122.08C-75.3288 118.096 -73.8269 116.04 -73.8269 113.212C-73.8269 110.128 -73.2808 109.485 -70.4135 109.485C-68.5019 109.485 -67 108.971 -67 108.2C-67 107.429 -70.55 106.915 -74.9192 106.915C-90.6212 106.915 -120.387 97.0188 -114.242 93.8058C-110.829 92.0065 -107.962 85.709 -108.098 80.3111L-108.235 75.4273L-109.463 80.5681C-110.146 83.3956 -112.467 87.7653 -114.515 90.2072C-120.66 97.4044 -120.933 98.1755 -120.933 107.558V116.554L-125.302 116.94C-131.583 117.582 -135.269 113.341 -135.269 105.501C-135.269 102.16 -135.815 99.0752 -136.498 98.6896C-138.137 97.6615 -141.004 104.087 -141.96 110.771C-142.642 115.783 -143.188 116.554 -146.192 116.94C-154.658 117.839 -161.894 102.417 -156.569 94.7055C-155.34 92.9062 -154.658 91.4924 -155.067 91.4924C-156.706 91.4924 -161.212 100.103 -161.212 103.445C-161.212 106.015 -161.894 106.915 -163.806 106.915C-172.681 106.915 -171.452 90.5928 -161.758 79.54C-159.983 77.6121 -157.935 73.885 -157.252 71.3146C-156.023 67.0734 -156.16 66.4308 -159.846 63.2178C-164.625 58.9766 -166.127 54.0928 -164.488 48.0523C-163.123 42.9114 -157.388 38.2847 -153.975 39.4414C-152.746 39.9555 -151.108 42.2688 -150.288 44.5822C-148.65 49.3375 -145.51 50.8798 -140.321 49.7231C-137.863 49.0805 -136.362 49.5945 -134.45 51.9079C-132.402 54.2213 -130.763 54.7354 -126.804 54.4783C-120.25 53.9643 -115.744 56.7917 -111.102 64.246C-109.054 67.459 -107.279 69.5153 -107.006 68.7442C-106.733 67.9731 -98.2673 70.929 -87.6173 75.6843L-68.775 84.1667L-69.3211 89.4361C-70.2769 96.7618 -65.225 108.843 -58.8077 115.012C-54.575 118.867 -52.6634 119.767 -48.1577 119.767C-41.6038 119.767 -40.2385 118.353 -38.3269 110.128C-35.8692 99.7178 -35.5961 99.2037 -32.0461 99.2037C-30.2711 99.2037 -27.5404 98.5611 -26.175 97.6614C-24.1269 96.5048 -22.8981 96.8903 -18.9385 99.5893C-13.4769 103.573 -11.4288 103.83 -7.19614 101.003C-3.37306 98.5611 -3.78269 98.304 -0.915381 106.144C3.72693 119.639 0.586558 130.82 -10.8827 141.744C-17.1634 147.528 -20.0308 149.198 -26.8577 150.998C-38.8731 154.211 -42.15 153.954 -42.6961 149.841C-42.9692 147.271 -45.8365 151.383 -54.8481 168.22C-61.4019 180.043 -67.1365 191.096 -67.5461 192.639C-68.2288 194.566 -67.5461 196.237 -64.9519 198.679C-60.7192 202.663 -60.7192 205.362 -64.5423 212.945C-66.8634 217.443 -69.4577 220.014 -75.1923 223.098C-89.8019 231.452 -98.4038 232.352 -99.9058 225.797C-100.862 221.941 -100.862 221.941 -100.998 226.568C-101.135 230.681 -101.681 231.323 -105.231 231.966C-113.423 233.508 -126.531 234.022 -133.085 232.866ZM-105.913 203.306C-107.142 201.378 -115.471 200.35 -120.523 201.507C-124.892 202.535 -124.756 202.663 -117.519 203.434C-105.367 204.591 -105.094 204.591 -105.913 203.306ZM-141.55 61.9326C-142.506 61.1614 -144.827 64.76 -144.69 67.0734C-144.69 68.2301 -143.871 67.716 -142.779 65.7882C-141.823 63.9889 -141.277 62.3181 -141.55 61.9326Z" fill="white"/>
<path d="M-54.0289 85.7092C-55.9404 84.0384 -57.4423 83.1387 -57.4423 83.7813C-57.4423 84.5525 -58.6712 83.9099 -60.1731 82.4961C-62.2212 80.5683 -63.5865 80.1827 -65.4981 81.0824C-67.2731 81.982 -69.0481 81.725 -72.1885 79.9257C-74.5096 78.512 -82.8385 74.7848 -90.4846 71.4433C-101.544 66.688 -105.777 64.1176 -110.419 59.2338C-113.56 55.8922 -117.383 52.6792 -118.885 52.2937C-122.025 51.394 -125.029 42.1405 -126.394 29.5454C-127.213 22.0912 -126.94 20.806 -124.756 19.5208C-122.435 18.107 -122.571 18.107 -125.029 19.0067C-126.531 19.5208 -134.86 20.1634 -143.462 20.5489C-158.89 21.063 -159.163 21.063 -156.842 18.6211C-153.429 15.0225 -153.702 14.3799 -159.163 14.3799C-163.533 14.3799 -178.279 10.2673 -180.054 8.59648C-180.463 8.21092 -179.508 6.92571 -177.733 5.89754C-174.729 3.8412 -174.865 3.8412 -182.648 0.371127C-187.017 -1.55669 -191.523 -4.25563 -192.615 -5.54084C-193.708 -6.95458 -193.981 -7.59718 -193.162 -7.08309C-192.342 -6.69753 -189.338 -5.9264 -186.608 -5.66936L-181.556 -5.02676L-185.106 -9.01091C-188.792 -13.1236 -196.712 -27.0039 -196.712 -29.3173C-196.712 -30.2169 -195.892 -30.3454 -194.39 -29.4458C-192.206 -28.4176 -191.933 -29.1887 -191.933 -38.1852C-191.933 -46.6676 -191.387 -49.1095 -187.427 -56.3067C-179.781 -70.8296 -179.371 -71.0866 -164.352 -71.0866C-152.746 -71.0866 -151.517 -70.9581 -152.063 -68.9018C-153.019 -65.6887 -150.698 -49.6236 -148.787 -45.6394C-147.012 -41.9123 -145.237 -42.1694 -143.462 -46.5391C-142.506 -48.7239 -142.233 -48.0813 -142.233 -43.7116C-142.096 -37.6711 -138.683 -30.0884 -136.635 -31.2451C-135.815 -31.7592 -135.269 -33.0444 -135.133 -34.201C-135.133 -35.3577 -134.313 -33.5584 -133.358 -30.2169C-132.402 -26.7468 -130.49 -23.0197 -129.262 -21.863C-127.213 -19.9352 -127.077 -20.0637 -127.077 -22.8912C-126.94 -25.9757 -126.94 -25.9757 -125.438 -23.5338C-124.619 -22.1201 -121.069 -17.7503 -117.792 -13.8947C-112.467 -7.85422 -111.648 -7.34014 -112.331 -10.4246C-112.877 -12.9951 -111.512 -16.8507 -107.825 -23.9194L-102.5 -33.8155V-28.2891C-102.5 -25.3331 -101.817 -22.8912 -101.135 -22.8912C-100.315 -22.8912 -99.7692 -23.2768 -99.7692 -23.7908C-99.6327 -25.4616 -83.1115 -41.5268 -77.7865 -45.1253C-71.0962 -49.8806 -69.7308 -49.4951 -74.7827 -44.3542C-79.425 -39.5989 -83.3846 -34.3296 -83.3846 -32.7873C-83.3846 -32.1447 -80.9269 -33.4299 -78.0596 -35.6148C-70.6866 -41.1412 -58.2616 -46.282 -50.7519 -46.9246L-44.4712 -47.5672L-48.9769 -44.8683C-51.4346 -43.3261 -53.8923 -42.1694 -54.4385 -42.1694C-55.1212 -42.1694 -57.0327 -40.6271 -58.9443 -38.8278L-62.2212 -35.3577L-58.8077 -36.2574C-48.2942 -39.0849 -35.3231 -40.113 -27.8135 -38.5708C-23.5808 -37.7996 -19.7577 -37.2856 -19.4846 -37.6711C-18.6654 -38.3137 -23.9904 -40.3701 -29.1789 -41.5268L-33.0019 -42.2979L-28.9058 -46.7961C-26.5846 -49.238 -24.6731 -52.5796 -24.5365 -54.1218C-24.5365 -56.8208 -24.4 -56.8208 -23.1712 -53.8648C-21.9423 -51.0373 -21.6692 -50.9088 -19.7577 -52.7081C-18.6654 -53.7363 -16.8904 -57.4634 -15.9346 -60.9334C-14.1596 -66.9739 -14.0231 -67.1025 -13.0673 -63.6324L-12.1116 -60.1623L-9.65386 -64.275C-8.42501 -66.5884 -6.78655 -70.444 -6.2404 -72.7574C-5.42117 -76.7415 -5.14808 -76.8701 -3.37308 -74.6852C-1.46154 -72.6289 -1.32502 -73.1429 -1.87117 -79.826L-2.41732 -87.2803L8.50574 -86.8947C18.8827 -86.5091 19.5654 -86.3806 23.1154 -82.268C28.9865 -75.4563 34.0384 -64.7891 34.0384 -58.8771C34.0384 -53.8648 30.0788 -44.4827 27.2115 -42.812C26.5288 -42.4264 25.8461 -41.1412 25.8461 -40.113C25.8461 -38.6993 26.6654 -38.4422 28.5769 -38.9563C33.7654 -40.4986 31.3077 -38.1852 20.7942 -31.7592C10.1442 -25.2046 10.1442 -25.0761 21.75 -27.518C23.7981 -27.9035 24.6173 -27.775 23.7981 -27.0039C21.75 -25.2046 11.1 -21.606 7.68652 -21.4775C6.04806 -21.4775 5.50191 -21.0919 6.45768 -20.7063C9.46153 -19.5496 8.23268 -18.1359 4.68268 -18.7785C2.77114 -19.0356 -1.87116 -18.0074 -5.83078 -16.4651C-11.8385 -14.0232 -13.0673 -13.8947 -14.2962 -15.437C-15.1154 -16.4651 -18.2558 -18.907 -21.2596 -20.9634L-26.7212 -24.819L-20.3039 -18.0074C-10.4731 -7.59718 -6.78655 0.628169 -5.83078 13.8658C-5.28463 23.8905 -4.87501 24.9187 -2.0077 25.9468C0.176917 26.8465 2.36152 26.5894 4.95575 25.1757L8.77883 23.2479L4.4096 24.019C0.449989 24.7901 -0.0961685 24.5331 -0.0961685 22.2197C-0.0961685 20.806 1.67883 17.85 3.99999 15.6651C7.54998 12.1951 7.82305 11.4239 6.59421 7.95387C5.77498 5.89754 4.54613 4.09824 3.86344 4.09824C3.18075 4.09824 2.6346 2.94155 2.6346 1.65634C2.6346 -2.58486 9.59807 -3.61303 16.425 -0.399998C21.3404 2.0419 23.525 6.66866 21.75 11.1669C20.6577 13.9944 20.7942 14.3799 23.2519 14.3799C24.7538 14.3799 25.7096 14.894 25.3 15.4081C25.0269 15.9222 26.8019 16.1792 29.3961 15.9222C35.1308 15.2796 40.4558 19.3923 44.2788 27.3606C45.6442 30.0595 47.1461 32.3729 47.5557 32.5014C55.3384 33.4011 60.2538 38.2849 59.7077 44.7109C59.298 51.0084 56.5673 52.8077 52.7442 49.3377C49.0577 45.9961 42.0942 43.4257 41.0019 44.968C38.2711 48.6951 24.8904 47.0243 26.3923 43.1687C28.1673 38.6704 21.2038 44.7109 9.18843 57.9486C-3.23657 71.8289 -3.50962 71.9574 -6.10385 69.644C-8.56154 67.3306 -8.56156 66.9451 -6.65002 64.8887C-2.55386 60.519 1.26922 51.7796 1.26922 46.8958L1.13267 42.012L-1.46155 48.9521C-4.60194 57.306 -9.38078 63.9891 -15.1154 68.2303C-17.5731 69.901 -19.2116 72.4715 -19.2116 74.1423C-19.2116 77.8694 -21.3962 79.4116 -27.8135 80.3113C-30.6808 80.6968 -35.3231 82.8817 -38.1904 84.938C-44.6077 89.6933 -49.6596 89.9504 -54.0289 85.7092ZM-39.6923 80.5683C-37.0981 78.769 -32.7289 76.9697 -29.8616 76.5841C-25.3558 75.813 -25.0827 75.556 -26.8577 73.8852C-29.4519 71.3148 -28.6327 69.1299 -24.8096 68.6158C-23.1712 68.3588 -20.85 66.5595 -19.6212 64.7602C-18.3923 62.8324 -16.3442 60.1334 -14.9789 58.7197C-13.75 57.306 -12.3846 53.8359 -11.975 51.0085C-11.1558 46.1246 -11.1558 46.1246 -12.6577 49.7232C-14.4327 54.35 -17.8462 58.2056 -19.2116 57.4345C-19.7577 57.0489 -22.0789 57.6915 -24.1269 58.7197C-29.8616 61.5472 -34.9135 61.0331 -39.1462 57.4345C-41.1943 55.6352 -43.6519 54.2215 -44.6077 54.2215C-48.0212 54.2215 -51.025 60.6475 -51.7077 69.5155C-52.6635 83.5243 -48.9769 86.9944 -39.6923 80.5683ZM6.73075 46.6387C6.73075 42.7831 2.22499 36.2285 0.586524 37.7708C0.0403699 38.2849 0.859592 40.2127 2.49805 42.1405C3.99998 44.0683 5.36537 46.6387 5.36537 47.9239C5.36537 49.3377 5.63845 50.3658 6.04806 50.3658C6.45768 50.3658 6.73075 48.6951 6.73075 46.6387ZM-61.4019 45.225C-55.9404 42.3975 -59.6269 28.7743 -67.9558 21.4486C-72.7346 17.3359 -74.7827 17.3359 -76.8308 21.4486C-79.1519 26.3324 -75.875 38.2849 -71.0962 42.9116C-66.8635 46.8958 -65.3615 47.1528 -61.4019 45.225ZM-20.1673 45.0965C-18.2558 44.3254 -15.9346 42.269 -14.9789 40.5982C-14.0231 38.7989 -12.3846 37.7708 -11.4289 38.0278C-9.10771 38.9275 -9.10771 36.7426 -11.4289 34.8148C-12.6577 33.6581 -13.0673 30.8306 -12.6577 25.9468C-11.975 17.0789 -16.0712 8.0824 -20.7135 7.95387C-22.4885 7.95387 -23.0346 13.7373 -22.0789 19.9063C-20.9866 25.6898 -21.2596 26.2039 -24.5365 27.7461C-26.4481 28.7743 -29.1789 30.7021 -30.5442 32.1158C-32.0462 33.6581 -34.0943 34.4292 -35.7327 34.0437C-39.2827 33.144 -44.6077 36.6141 -47.3385 41.7549L-49.6596 45.8676L-44.6077 41.1123C-41.7404 38.5419 -38.3269 36.2285 -36.825 35.843C-34.3673 35.2003 -34.2308 35.5859 -34.9135 38.7989C-35.5962 41.8835 -35.1866 42.7831 -31.9096 44.4539C-27.2673 46.7673 -24.5365 47.0243 -20.1673 45.0965ZM8.77883 34.1722C6.73075 31.0877 1.26922 28.1317 0.0403783 29.2884C-0.369237 29.6739 1.81538 31.9873 4.81922 34.6863C10.5538 39.6986 12.6019 39.5701 8.77883 34.1722ZM-89.3923 0.242608C-88.4365 -7.34014 -84.6135 -13.8947 -80.9269 -14.0232C-79.2885 -14.0232 -79.425 -14.4088 -81.6096 -15.1799C-85.1596 -16.4651 -92.8058 -14.5373 -93.0789 -12.2239C-93.2154 -11.3243 -93.3519 -5.92641 -93.4885 -0.14296C-93.625 8.21091 -93.2154 10.1387 -91.9866 8.85352C-91.0308 7.95387 -89.9385 4.09824 -89.3923 0.242608ZM-125.712 4.99789C-129.808 1.91338 -135.406 -6.18344 -134.996 -8.3683C-134.723 -9.91056 -135.679 -10.8102 -137.727 -11.0673C-140.458 -11.4528 -140.867 -12.0954 -140.185 -14.6658C-139.229 -18.2644 -141.413 -19.4211 -152.2 -20.8349L-158.89 -21.606L-157.935 -16.7222C-157.388 -14.1518 -156.706 -11.3243 -156.569 -10.6817C-156.296 -9.91056 -155.613 -8.11126 -155.067 -6.44049C-153.975 -3.09894 -154.248 -3.22746 -149.606 -4.89824C-146.056 -6.18345 -146.056 -6.05493 -147.012 -1.42817C-147.831 2.94155 -147.694 3.19859 -144.963 2.42746C-142.915 1.91338 -141.004 2.55599 -139.229 4.22676C-137.454 5.89753 -134.723 6.66866 -130.081 6.66866C-124.892 6.54014 -124.073 6.2831 -125.712 4.99789ZM-26.0385 -17.2363C-30.6808 -23.4053 -34.6404 -24.4335 -35.3231 -19.4211C-35.7327 -17.2363 -35.1865 -16.8507 -33.1385 -17.3648C-31.5 -17.7503 -29.1789 -16.7222 -26.9942 -14.6658C-21.6692 -9.65352 -21.2596 -10.6817 -26.0385 -17.2363ZM-29.3154 -31.3736C-30.9539 -32.4018 -34.9135 -33.1729 -38.8731 -33.0444L-45.8366 -32.9158L-39.0096 -31.3736C-35.1866 -30.6025 -30.9539 -29.8313 -29.4519 -29.7028C-26.7212 -29.4458 -26.7212 -29.4458 -29.3154 -31.3736Z" fill="white"/>
</g>
<defs>
<clipPath id="clip0_639_10798">
<rect width="135" height="130" fill="white"/>
</clipPath>
</defs>
</svg>
