<svg width="135" height="130" viewBox="0 0 135 130" fill="none" xmlns="http://www.w3.org/2000/svg">
<g clip-path="url(#clip0_639_10494)">
<rect x="-133.5" y="-128.5" width="402" height="387" rx="18.5" fill="#FDFFEF" stroke="black" stroke-width="3"/>
<path d="M-0.951933 234.794C-3.95578 233.766 -7.36924 231.838 -8.73462 230.296C-9.96347 228.882 -11.875 227.725 -12.9673 227.725C-13.9231 227.725 -15.9712 226.569 -17.2 225.284C-19.3846 223.099 -19.3846 222.071 -18.0192 217.829C-14.0596 206.52 -10.3731 203.692 20.2115 188.784C29.9058 184.157 30.5884 183.386 35.5038 174.646C44.5154 158.453 47.7923 151.769 47.2462 151.127C46.8365 150.87 44.6519 151.255 42.3308 152.027C37.5519 153.569 31.4077 151.255 27.9942 146.757C26.3558 144.572 25.6731 144.444 21.9865 145.729C16.525 147.657 9.8346 145.215 6.42114 139.817C3.41729 135.062 3.28076 132.491 5.87499 125.551C7.10384 122.21 7.3769 120.282 6.42114 119.896C1.64229 118.354 -1.90771 113.599 -2.04425 108.458C-2.18078 105.502 -2.72693 103.06 -3.27308 103.06C-4.36539 103.06 -4.91155 107.944 -4.3654 112.442C-4.09232 115.912 -8.32501 119.768 -12.5577 119.768C-16.5173 119.768 -22.7981 114.884 -24.1635 110.643C-24.7096 108.972 -26.3481 108.201 -28.9423 108.201C-33.8577 108.201 -38.5 102.931 -38.5 97.4051C-38.5 92.6498 -34.1308 84.1674 -29.8981 80.6973C-28.2596 79.4121 -26.7577 76.8417 -26.6212 75.1709C-26.4846 73.3716 -25.3923 70.9297 -24.3 69.773C-21.2962 66.56 -21.5693 65.7889 -26.3481 64.2466C-39.3193 60.0054 -33.8577 38.7994 -19.7942 38.7994C-15.8346 38.7994 -14.8789 39.442 -13.2404 43.1691C-10.7827 48.567 -9.00769 49.7237 -3.54616 49.2096C-1.08846 49.0811 1.6423 49.7237 2.87115 50.8804C5.32884 53.1938 10.6538 53.7079 10.6538 51.6515C10.6538 50.8804 9.69807 48.4385 8.33269 46.1251C7.10384 43.6832 6.01152 38.1568 5.73844 32.5019C5.46537 27.361 5.05576 22.8628 4.78268 22.4772C4.37306 22.2202 1.64231 22.6058 -1.49808 23.2484C-5.18462 24.0195 -10.6462 24.0195 -16.6539 23.1199L-26.075 21.8346L-22.3885 18.6216L-18.7019 15.5371L-24.5731 16.4367C-29.625 17.0794 -31.9462 16.5653 -39.4558 13.0952L-48.4673 8.854L-44.5077 6.92618L-40.5481 4.99836L-43.9616 4.09872C-50.1058 2.55647 -55.9769 -0.913607 -58.8442 -4.76924L-61.7116 -8.49636L-56.1135 -6.56854C-52.9731 -5.66889 -50.1058 -5.1548 -49.6962 -5.54037C-49.2865 -5.92593 -50.7885 -8.11079 -53.2462 -10.4242C-57.3423 -14.4083 -64.4423 -27.0034 -64.4423 -30.3449C-64.4423 -31.5016 -63.4866 -31.5016 -60.3462 -29.9594C-56.25 -27.903 -54.8846 -28.8027 -57.7519 -31.5016C-58.7077 -32.4013 -59.2539 -36.771 -59.2539 -41.7833C-59.1173 -52.065 -55.0212 -61.19 -47.5115 -68.2587C-42.3231 -73.271 -33.4481 -75.1988 -23.7539 -73.6566C-15.5615 -72.3714 -15.1519 -71.8573 -13.9231 -58.234C-12.6942 -44.7393 -10.9192 -40.7552 -8.46155 -46.5386C-7.77886 -48.4664 -7.09616 -51.5509 -7.09616 -53.4787C-6.95963 -56.5633 -6.82308 -56.6918 -5.59423 -54.6354C-4.775 -53.3502 -4.3654 -50.5228 -4.50194 -48.2094C-5.0481 -43.1971 -3.13654 -31.8872 -1.9077 -31.8872C-1.36154 -31.8872 0.0038318 -34.0721 1.36922 -36.771L3.55384 -41.5263L3.69037 -35.4858C3.8269 -27.646 6.14808 -21.6055 8.05961 -24.1759C9.15192 -25.7182 10.2442 -25.2041 14.0673 -21.3485C16.7981 -18.6495 19.6654 -16.4647 20.7577 -16.4647C23.4884 -16.4647 26.9019 -25.5897 28.4038 -35.9999C28.95 -40.8837 29.7692 -45.2534 30.1788 -45.5104C30.4519 -45.896 31.2711 -40.7552 31.8173 -34.2006L32.7731 -22.2481L35.5038 -25.4611C36.8692 -27.2604 39.4635 -30.3449 41.1019 -32.4013C46.1538 -38.8273 55.7115 -47.0527 61.8558 -50.5228C68.2731 -53.9928 73.5981 -55.021 68 -51.6795C64.8596 -49.7516 57.4865 -42.0404 51.8885 -34.5861C50.6596 -32.7868 47.2462 -29.1882 44.5154 -26.3608C41.6481 -23.5333 39.3269 -20.8344 39.3269 -20.1918C39.3269 -19.5492 37.5519 -19.0351 35.3673 -19.0351C30.4519 -19.0351 27.0385 -14.5368 27.0385 -8.11079C27.0385 -3.86959 26.7654 -3.61255 22.6692 -3.74107C18.9827 -3.74107 17.3442 -4.89776 12.975 -10.1671C10.2442 -13.6372 6.83076 -16.4647 5.46537 -16.4647C4.09999 -16.4647 2.32499 -17.1073 1.36922 -18.0069C0.14037 -19.1636 -0.269241 -19.0351 -0.269241 -17.4928C-0.269241 -16.3361 0.959605 -15.1794 2.46153 -14.7939C4.09999 -14.4083 5.1923 -12.9946 5.1923 -11.3238C5.1923 -8.36783 9.97114 -1.17064 12.975 0.628653C13.9308 1.14274 14.75 3.71316 14.75 6.02654V10.5248H4.78268C-1.90771 10.5248 -6.1404 9.88217 -7.9154 8.59696C-9.28079 7.56879 -11.875 6.66914 -13.5135 6.66914C-15.9712 6.66914 -16.6539 5.89802 -16.6539 3.45611C-16.6539 1.01421 -17.3366 0.243086 -19.7942 0.243086C-22.3885 0.243086 -23.3442 -0.913608 -25.2558 -6.56854C-26.4846 -10.4242 -27.5769 -16.2076 -27.5769 -19.6777V-25.8467L-17.7462 -24.9471C-12.4212 -24.5615 -6.55001 -23.7904 -4.77501 -23.4048C-2.86348 -22.8907 -1.63463 -23.1478 -1.63463 -24.1759C-1.63463 -24.9471 -2.86347 -25.9752 -4.3654 -26.3608C-7.2327 -27.1319 -11.1923 -32.7868 -11.1923 -36.3854C-11.1923 -37.4136 -12.2846 -38.3133 -13.65 -38.3133C-17.2 -38.3133 -19.2481 -43.3256 -20.8866 -55.5351C-21.7058 -61.19 -22.525 -66.0738 -22.7981 -66.4594C-23.2077 -66.7164 -26.7577 -66.9735 -30.8538 -67.102C-39.5923 -67.102 -41.3673 -65.6883 -48.3308 -52.4506C-52.2904 -45.2534 -52.8366 -43.0685 -52.5635 -35.4858C-52.4269 -30.4735 -52.8365 -26.7464 -53.6558 -26.7464C-55.2942 -26.7464 -50.5154 -17.8784 -46.0096 -12.8661C-44.0981 -10.8097 -42.5962 -7.46818 -42.5962 -5.66888C-42.5962 -3.22698 -41.7769 -2.19882 -39.1827 -1.55621C-36.5885 -0.913607 -35.7692 0.114562 -35.7692 2.94203C-35.7692 7.44027 -32.6289 9.23956 -22.6615 10.1392C-15.9712 10.7818 -15.2885 11.1674 -15.2885 14.1234C-15.2885 17.2079 -15.1519 17.2079 -6.68654 16.5653C-2.04424 16.1797 5.05576 15.4086 9.01538 14.8945L16.1154 13.9948V18.7501C16.1154 21.3206 15.5692 23.3769 14.75 23.3769C10.5173 23.3769 15.7058 47.1533 20.2115 48.4385C21.7135 48.8241 25.5365 52.0371 28.6769 55.3787C33.3192 60.2625 37.5519 62.8329 48.8846 67.7167C56.8038 71.0582 63.9038 74.2713 64.5865 74.7853C65.4058 75.2994 68.8192 76.0705 72.2327 76.3276L78.65 76.9702L79.1961 66.9455C80.0154 53.7079 82.3365 50.3663 90.5288 50.3663C95.0346 50.3663 97.3558 51.1375 98.9942 52.9367C101.588 55.7642 104.865 56.1498 108.688 54.3505C109.917 53.7079 112.238 52.6797 113.74 52.1656C115.788 51.3945 114.423 51.0089 108.962 50.3663C100.906 49.5952 95.3077 47.2818 95.3077 44.8399C95.3077 44.0688 94.3519 44.7114 93.1231 46.2537C91.6211 48.1815 89.7096 49.0811 86.2961 49.0811C82.0634 49.0811 81.6538 48.8241 81.6538 45.2255C81.6538 37.2572 88.3442 29.8029 95.4442 29.8029C97.3558 29.8029 100.087 28.6463 101.452 27.2325C102.817 25.8188 105.002 24.4051 106.367 24.0195C108.552 23.3769 108.825 22.3487 108.142 18.236C107.596 15.4086 107.733 11.1674 108.142 8.59696C109.098 4.35576 109.371 4.09872 114.423 4.09872C117.563 4.09872 120.567 4.99836 122.069 6.28357C124.254 8.33991 124.254 8.33992 123.298 5.38393C122.752 3.58463 120.977 -0.0139528 119.475 -2.58438C117.154 -6.69705 115.925 -7.46818 112.375 -7.46818C109.917 -7.46818 106.367 -8.62487 104.456 -10.0386C102.544 -11.4523 99.6769 -12.609 98.0385 -12.609C95.3077 -12.609 95.0346 -13.1231 95.5808 -19.6777L95.9904 -26.8749L90.9385 -27.646C87.1154 -28.1601 85.75 -28.9312 85.75 -30.7305C85.75 -32.7868 84.9308 -32.9154 78.9231 -32.2728C72.2327 -31.5016 72.0961 -31.6302 72.0961 -34.8432V-38.3133L67.3173 -36.1284C64.7231 -34.9717 62.5385 -33.558 62.5385 -32.9154C62.5385 -32.4013 60.2173 -31.8872 57.4865 -31.8872L52.2981 -32.0157L58.4423 -37.1566C67.3173 -44.7393 76.6019 -48.7235 86.2961 -49.4946L94.625 -50.0087L88.2077 -46.153C84.5212 -43.9682 81.1077 -42.1689 80.2885 -42.1689C78.7865 -42.1689 73.1884 -36.771 74.0077 -36.1284C74.2808 -35.8714 76.875 -36.514 79.6058 -37.5421C82.4731 -38.6988 88.0712 -39.984 92.0308 -40.3696C98.5846 -41.1407 99.8135 -41.7833 104.183 -47.0527C106.777 -50.2657 108.962 -54.3784 109.098 -56.1777L109.235 -59.5192L110.737 -55.9207C111.556 -53.9928 112.648 -52.4506 113.194 -52.4506C113.74 -52.4506 115.379 -55.9206 116.744 -60.1618C118.792 -66.8449 119.338 -67.6161 120.84 -65.8168C123.435 -62.4752 125.21 -64.7886 126.165 -73.1425L127.121 -80.8537L129.715 -77.2552L132.446 -73.6566L131.627 -78.7974C131.217 -81.6249 130.671 -85.0949 130.535 -86.5087C130.125 -88.9506 130.944 -89.0791 141.048 -89.0791C154.429 -89.0791 158.252 -86.8942 165.762 -75.3273C169.721 -69.2868 171.087 -65.5597 171.496 -60.1618C172.042 -53.3502 171.769 -52.7076 166.308 -46.153C163.167 -42.4259 160.983 -39.0844 161.392 -38.6988C161.665 -38.3133 163.85 -38.9559 166.171 -39.984L170.267 -41.9118L167.537 -38.5703C166.035 -36.6425 162.758 -33.6865 160.163 -31.8872C154.702 -28.1601 154.156 -26.6178 158.525 -27.7745C161.256 -28.4171 161.392 -28.2886 159.617 -26.2323C156.887 -23.1478 150.742 -20.3203 146.51 -20.3203C142.687 -20.3203 142.14 -19.1636 144.871 -16.5932C146.237 -15.308 145.827 -15.308 142.687 -16.5932C139.41 -18.0069 138.181 -17.8784 133.675 -15.4365C130.808 -13.8942 127.394 -12.609 126.165 -12.609C123.435 -12.609 123.435 -11.4523 125.756 -8.11079C129.306 -3.35551 131.217 3.45611 132.173 13.0952C132.992 22.3487 132.992 22.6058 134.767 18.8786C136.815 14.3804 141.048 10.2677 142.413 11.5529C142.96 12.067 142.413 10.9103 141.048 8.854C139.819 6.92618 139.273 5.38393 139.819 5.38393C140.502 5.38393 139.956 4.74133 138.727 3.9702C132.583 0.628651 139.546 -5.66889 147.602 -4.25515C155.658 -2.84142 158.798 1.14273 158.115 8.854C157.842 12.1955 161.938 14.5089 166.035 13.4808C167.673 13.0952 170.54 13.7378 172.452 14.8945C176.685 17.4649 183.238 28.0036 182.146 30.5741C181.737 31.6022 181.873 32.1163 182.692 31.7308C183.512 31.3452 184.058 31.4737 184.058 32.1163C184.058 32.8875 185.287 33.1445 186.788 32.7589C188.563 32.3734 190.748 33.4015 193.615 35.972C198.394 40.5987 199.213 47.4103 195.254 50.7519C192.523 53.0653 186.925 52.6797 184.74 49.9808C183.238 48.0529 178.05 45.2255 176.275 45.2255C175.729 45.2255 176.002 45.7396 176.958 46.2537C178.187 47.0248 176.821 47.9244 173.135 49.0811C168.083 50.6234 166.99 50.6234 162.621 48.4385C157.979 45.9966 157.706 45.9966 155.931 48.31C154.975 49.5952 152.108 52.8082 149.65 55.3787C147.192 57.9491 142.14 63.347 138.59 67.4596L132.037 74.9139L133.538 81.9825C134.904 88.2801 134.767 89.5653 132.446 94.0635C130.944 96.891 130.398 99.2044 131.081 99.2044C133.812 99.2044 138.044 111.414 138.181 119.125C138.181 126.065 137.225 128.636 128.487 145.472C123.162 155.754 117.154 166.549 115.106 169.634L111.556 175.032H120.84C125.892 175.032 135.04 173.747 141.048 172.333C156.34 168.606 161.119 168.477 162.894 172.076C163.577 173.618 165.898 175.674 168.083 176.446C173.544 178.63 177.231 184.157 177.231 190.326C177.231 194.567 176.412 196.366 172.588 199.965C169.994 202.407 165.488 205.106 162.621 205.877C159.754 206.777 156.887 207.933 156.067 208.447C150.606 212.303 117.427 213.588 102.817 210.504C95.5808 208.961 83.7019 205.363 77.4211 202.792C75.5096 202.021 75.1 202.921 74.5538 208.19C74.1442 211.917 72.6423 216.287 70.8673 218.6C67.1808 223.356 47.3827 232.866 40.9654 232.866C38.6442 232.866 33.1827 233.766 28.8135 234.794C19.1192 237.236 6.28461 237.236 -0.951933 234.794ZM23.3519 228.368C29.6327 227.597 29.7692 227.468 29.7692 223.099C29.7692 218.986 30.0423 218.729 34.5481 218.729C38.7808 218.729 39.3269 219.115 39.3269 222.071C39.3269 225.155 39.7365 225.412 43.5596 224.641C45.8808 224.255 51.3423 221.814 55.7115 219.372C61.4461 216.03 64.0404 213.588 65.9519 209.604C68.5461 204.335 68.5461 204.335 65.5423 202.021C59.6711 197.523 61.1731 191.483 75.1 166.035C87.3885 143.287 87.6615 142.902 92.0308 142.902C95.7173 142.902 96.5365 143.416 96.9461 145.858L97.3558 148.942L104.865 147.014C110.737 145.472 114.013 143.416 120.021 137.889C129.715 128.764 133.265 120.153 130.671 112.185C129.033 107.044 128.896 106.916 122.752 106.916C119.338 106.916 115.242 106.016 113.877 104.988C110.054 102.289 103.91 102.546 102.954 105.373C102.544 106.53 101.588 110.386 100.769 113.984C98.5846 122.981 97.7654 123.623 86.8423 123.623C77.4212 123.623 77.1481 123.495 71.8231 118.483C68.8192 115.655 66.0884 113.342 65.8154 113.342C65.5423 113.342 65.2692 115.012 65.2692 117.069C65.2692 120.025 63.9038 121.953 59.125 125.68C52.1615 130.949 50.7962 136.218 55.8481 137.375C61.3096 138.789 58.7154 148.428 46.4269 171.947C37.6884 188.655 34.6846 193.025 32.6365 193.025C31.1346 193.025 28.2673 193.667 26.3558 194.567L22.6692 196.109L27.9942 197.523C32.7731 198.808 33.1827 199.322 33.5923 203.821L34.0019 208.704L20.6211 207.805C13.2481 207.291 6.9673 206.52 6.55768 205.877C6.14807 205.363 2.87114 206.391 -0.951933 207.933C-6.82309 210.504 -7.2327 211.018 -3.95578 211.018C-0.678852 211.018 -0.269241 211.403 -0.269241 215.645C-0.269241 218.086 -0.951942 221.428 -1.77117 222.842C-2.72694 224.512 -2.72693 225.926 -1.9077 226.697C-0.542314 227.983 11.6096 230.167 14.75 229.653C15.8423 229.396 19.6654 228.882 23.3519 228.368ZM140.365 205.106C145.008 204.335 145.144 204.206 144.735 199.322L144.188 194.31H150.333C154.975 194.31 156.887 194.953 158.252 197.009L160.163 199.708L163.987 196.88C170.95 191.74 171.223 189.555 165.625 184.542C161.938 181.329 159.344 180.173 156.067 180.173C153.61 180.173 151.288 179.53 151.015 178.759C150.606 177.731 148.967 177.731 145.144 178.63C142.14 179.402 133.948 180.43 127.121 180.944C119.065 181.458 113.877 182.486 112.921 183.514C112.102 184.542 108.962 185.314 106.094 185.314C101.042 185.314 100.769 185.056 100.769 181.458C100.769 177.474 104.456 169.634 109.235 163.208L111.829 159.609H103.227H94.625L85.4769 176.831C75.3731 195.724 75.3731 195.081 85.75 198.551C103.227 204.335 126.985 207.162 140.365 205.106ZM42.0577 142.13C41.2385 140.331 40.6923 135.062 40.6923 130.564C40.6923 122.724 40.9654 121.953 45.0615 118.354C47.5192 116.298 50.1135 114.627 50.9327 114.498C52.2981 114.498 29.7692 109.615 25.6731 109.1C24.4442 108.972 23.4884 110.514 22.8058 113.856C21.9865 118.483 20.3481 120.539 14.3404 124.266C10.3808 126.708 10.3808 130.821 14.2038 135.062C18.7096 140.203 19.9385 140.074 21.0308 134.548C21.85 130.435 22.2596 130.049 26.4923 130.049C30.5885 130.049 31.1346 130.435 31.1346 133.391C31.1346 139.303 36.05 145.343 40.9654 145.472C43.0134 145.472 43.15 144.958 42.0577 142.13ZM-8.46155 97.5336C-6.82309 94.4491 -5.86733 93.935 -1.77117 94.3206C3.00767 94.7061 3.14422 94.8346 3.55384 100.49C3.96346 106.916 6.14807 112.056 8.60576 112.056C9.69807 112.056 9.97114 109.615 9.56152 104.474C8.87883 96.3769 9.8346 93.8065 16.3884 86.2237C21.85 79.7977 22.8058 72.472 18.9827 66.6885C14.8865 60.391 11.0635 58.4632 4.23653 59.1058C-0.815391 59.6199 -1.63463 60.0054 -1.63463 62.7044C-1.63463 68.7449 -4.50193 72.2149 -9.41731 72.2149C-13.7865 72.2149 -13.9231 72.0864 -13.9231 67.2026C-13.9231 59.3628 -12.9673 58.0776 -6.82309 58.0776C-2.04425 58.0776 -1.49809 57.8206 -3.00001 56.1498C-3.95578 55.1216 -6.95962 54.222 -9.69039 54.222C-15.8346 54.222 -17.4731 53.1938 -19.2481 48.6955C-20.8865 44.7114 -23.0712 45.097 -24.7096 49.5952C-26.075 52.8082 -23.3442 58.7202 -19.3846 60.648C-14.3327 63.2184 -16.5173 76.1991 -23.4808 84.4244C-27.5769 89.3082 -29.0789 92.1357 -25.9385 89.1797C-24.9827 88.2801 -22.2519 87.6375 -19.7942 87.6375C-15.5616 87.6375 -15.2885 87.8945 -15.2885 91.8787C-15.2885 94.0635 -16.2442 97.148 -17.3365 98.4332C-19.7942 101.389 -18.8385 105.116 -14.7423 109.229L-11.875 112.314L-11.0558 106.659C-10.6462 103.703 -9.41732 99.4614 -8.46155 97.5336ZM89.1635 107.944C89.8461 105.245 89.7096 103.703 88.6173 103.317C87.7981 103.06 87.1154 101.132 87.1154 99.0758C87.1154 95.9913 86.5692 95.3487 83.975 95.3487C82.2 95.3487 79.6058 94.4491 78.1038 93.4209C73.1884 89.9508 72.0962 90.979 74.2808 97.0195C76.0558 101.903 84.9308 112.056 87.2519 112.056C87.7981 112.056 88.7538 110.257 89.1635 107.944ZM61.9923 101.004C61.5827 99.847 61.1731 96.3769 61.1731 93.2924V87.5089L46.7 81.2114C38.7808 77.6128 32.0904 74.7853 31.8173 74.7853C31.5442 74.7853 31.1346 78.3839 30.8615 82.8822C30.5885 87.2519 29.9058 91.7501 29.3596 92.9068C28.1308 95.3487 31.9538 97.148 45.4711 100.49C57.8961 103.574 63.0846 103.831 61.9923 101.004ZM125.483 79.4121C124.663 77.6128 123.435 76.0706 122.615 76.0706C120.294 76.0706 121.113 80.9543 123.571 82.3681C126.712 84.0389 127.121 83.5248 125.483 79.4121ZM130.808 36.6146C130.808 32.8875 130.398 29.8029 129.852 29.8029C129.169 29.8029 128.76 33.5301 128.76 38.0283C128.76 42.6551 129.169 45.611 129.715 44.8399C130.262 43.9403 130.808 40.2132 130.808 36.6146ZM161.392 37.5142C164.806 37.5142 166.171 38.1568 166.717 40.0846C167.4 42.7836 171.769 43.6832 171.769 41.2413C171.769 39.5706 182.556 40.2132 187.471 42.141C189.929 43.0406 190.065 42.9121 188.154 40.7272C187.062 39.442 184.058 37.6427 181.737 36.6146C179.006 35.5864 176.275 33.016 174.637 30.06C170.95 23.3769 166.581 20.0353 160.3 19.1357C153.746 18.1075 153.746 18.1075 152.79 11.5529C152.244 8.08288 150.879 5.64097 148.967 4.35576C145.827 2.55646 145.827 2.55647 145.827 9.88217C145.827 16.1797 145.281 17.5934 141.867 20.935C139.683 22.9913 137.225 24.6621 136.406 24.6621C135.587 24.6621 134.904 25.3047 134.904 25.9473C134.904 27.4896 137.225 27.6181 138.181 26.0758C139.546 24.148 144.325 26.0758 147.192 29.5459C150.469 33.4015 150.879 41.3698 147.875 41.3698C146.646 41.3698 145.827 42.5265 145.827 44.0688C145.827 46.5107 146.373 46.3822 151.288 42.141C155.248 38.7994 157.979 37.5142 161.392 37.5142ZM114.423 35.972C114.423 33.5301 113.331 33.6586 109.235 36.6146C107.869 37.6427 107.869 38.1568 109.098 38.9279C111.556 40.3417 114.423 38.7994 114.423 35.972ZM132.583 -22.6337C134.631 -22.8907 136.269 -23.6618 136.269 -24.3044C136.269 -24.9471 137.498 -25.4611 139 -25.4611C140.638 -25.4611 141.731 -26.3608 141.731 -27.7745C141.731 -29.0597 144.735 -31.6302 149.24 -34.2006C154.975 -37.4136 156.75 -39.2129 156.75 -41.5263C156.75 -43.1971 158.252 -46.7956 160.163 -49.3661C165.352 -56.6918 165.625 -59.1337 161.392 -67.102C155.658 -78.1548 151.698 -81.7534 144.188 -82.7816L137.635 -83.5527V-76.3555C137.635 -70.058 137.362 -69.1583 134.904 -69.1583C133.402 -69.1583 132.173 -68.2587 132.173 -67.2305C132.173 -64.0175 127.394 -56.4347 125.346 -56.3062C124.254 -56.3062 122.342 -54.3784 121.25 -52.065C120.021 -49.4946 117.973 -47.8238 116.198 -47.5668C112.102 -47.0527 112.238 -45.5104 116.471 -43.7111C119.202 -42.5545 119.885 -41.2692 119.885 -37.6706C119.885 -33.558 119.612 -33.1724 115.788 -33.1724C112.785 -33.1724 111.692 -32.5298 111.692 -30.859C111.829 -28.0316 123.981 -20.0633 126.712 -21.0914C127.804 -21.6055 130.398 -22.2481 132.583 -22.6337Z" fill="black"/>
<path d="M60.7635 47.6673C56.5308 44.5828 52.9808 34.5582 52.9808 25.6902C52.9808 16.5652 54.6192 14.3804 61.5827 14.3804C72.3692 14.3804 80.2885 25.0476 80.2885 39.3135C80.2885 46.2536 79.8789 47.9244 77.6942 49.0811C73.1885 51.2659 64.5865 50.6233 60.7635 47.6673Z" fill="black"/>
<path d="M36.7327 -0.399508C36.7327 -11.7094 37.1423 -15.565 38.7807 -16.9787C41.375 -19.5492 49.0211 -20.8344 55.0288 -19.8062C59.398 -19.0351 59.8077 -18.521 59.8077 -14.5368C59.8077 -11.4523 59.125 -10.0386 57.8961 -10.0386C54.6192 -10.0386 50.6596 -3.35549 49.8403 3.97021C48.748 12.3241 47.1096 14.3804 41.375 14.3804H36.8692L36.7327 -0.399508Z" fill="black"/>
<path d="M74.4173 116.041C70.8673 112.956 67.7269 108.586 66.225 104.731C63.7673 98.3046 62.9481 83.7817 65.1327 83.7817C65.8154 83.7817 65.9519 86.2236 65.6788 89.3082C64.7231 96.7624 69.775 108.715 76.1923 115.012C80.425 118.868 82.3365 119.768 86.8423 119.768C93.3962 119.768 94.7615 118.354 96.6731 110.129C99.1308 99.7184 99.4038 99.2043 102.954 99.2043C104.729 99.2043 107.46 98.5617 108.825 97.662C110.873 96.5053 112.102 96.8909 116.062 99.5898C121.523 103.574 123.708 103.831 127.531 101.132C131.081 98.5617 132.173 98.6902 132.173 101.775C132.173 103.96 131.217 104.345 125.073 104.345C120.021 104.345 117.29 103.703 115.242 101.903C112.648 99.7184 111.692 99.5898 106.64 100.875L100.906 102.289L98.5846 111.671L96.1269 121.053H88.2077C80.8346 121.053 79.7423 120.667 74.4173 116.041Z" fill="#E23620"/>
<path d="M78.3769 111.928C71.4135 106.016 68 98.1758 68 88.6652C68 82.2392 70.0481 80.5684 73.4615 84.424C76.3288 87.7656 86.7058 91.8783 90.3923 91.2357C94.7615 90.4645 95.8538 92.7779 92.85 96.7621C90.8019 99.7181 90.8019 99.7181 92.9865 98.0473C96.8096 95.2198 97.0827 97.1476 94.4885 107.429C92.1673 116.811 91.8942 117.197 88.2077 117.197C85.6135 117.197 82.3365 115.526 78.3769 111.928Z" fill="#E23620"/>
<path d="M119.202 97.9188C117.837 96.505 115.652 95.0913 114.287 94.7057C110.19 93.4205 111.01 88.1512 115.515 86.4804L119.202 85.0666L114.833 85.7092C109.371 86.4804 108.962 84.5526 113.74 80.954C115.652 79.5402 117.154 77.0983 117.154 75.299C117.154 73.6283 117.837 72.2145 118.792 72.2145C119.612 72.2145 121.387 71.3149 122.615 70.2867C124.8 68.4874 125.21 68.4874 126.985 71.1864C132.31 78.8976 133.675 93.6776 129.442 98.5614C127.121 101.26 122.206 101.003 119.202 97.9188ZM122.069 87.7656C121.66 87.123 120.021 86.8659 118.519 87.2515C114.696 88.1511 115.106 88.9223 119.338 88.9223C121.25 88.9223 122.479 88.4082 122.069 87.7656Z" fill="#E23620"/>
<path d="M96.9461 93.8061C95.4442 89.9505 95.5808 89.4364 99.1308 86.7374C104.592 82.4962 108.142 83.2674 108.688 89.0508C109.098 94.0631 107.596 95.9909 102.135 97.2762C99.1308 97.9188 98.4481 97.4047 96.9461 93.8061Z" fill="#E23620"/>
<path d="M82.0634 86.9946C79.6057 85.4524 79.3327 84.1671 79.8788 79.6689C80.698 73.1143 83.0192 70.0298 83.0192 75.2992C83.0192 83.396 87.9346 85.9664 94.2153 81.2112C96.1269 79.7974 99.2673 78.1266 101.315 77.3555C104.456 76.3274 104.865 76.4559 104.865 78.6407C104.865 80.0545 104.183 81.2112 103.363 81.2112C102.544 81.2112 99.5404 83.0104 96.673 85.0668C90.9384 89.308 86.4327 89.9506 82.0634 86.9946Z" fill="#E23620"/>
<path d="M74.4173 82.2395C72.7788 80.5687 71.2769 80.1831 69.6384 80.9543C67.0442 82.2395 63.9038 81.5969 63.9038 79.7976C63.9038 77.9983 75.6461 78.3838 77.2846 80.3117C79.7423 83.0106 77.148 84.8099 74.4173 82.2395Z" fill="#E23620"/>
<path d="M85.0673 79.9259C83.4288 77.3555 86.0231 75.8132 90.6654 76.4558C93.2596 76.8414 95.0346 76.7129 94.625 76.0703C93.5327 74.3995 95.9904 73.3713 98.7212 74.271C100.496 74.9136 99.8135 75.8132 95.7173 78.1266C90.1192 81.3396 86.4327 81.9822 85.0673 79.9259Z" fill="#E23620"/>
<path d="M109.508 77.227C111.556 75.6847 113.058 73.3714 113.058 71.4436C113.058 69.6443 113.877 68.3591 114.969 68.3591C115.925 68.3591 117.563 67.4594 118.519 66.4312C119.475 65.4031 121.25 64.5034 122.342 64.5034C123.708 64.5034 123.025 65.6601 120.158 67.845C117.7 69.7728 115.788 72.4717 115.788 74.014C115.788 77.7411 113.331 79.926 109.235 79.926H105.821L109.508 77.227Z" fill="#E23620"/>
<path d="M128.76 69.6444C126.985 67.8451 126.712 66.5598 127.667 65.6602C128.623 64.7605 129.715 65.4032 131.217 67.588C134.085 71.5722 132.037 73.1144 128.76 69.6444Z" fill="#E23620"/>
<path d="M37.9615 149.455C30.8615 147.785 27.175 143.672 26.9019 136.86C26.7654 133.647 26.6289 133.647 25.4 138.146C24.1712 142.515 23.625 142.901 18.9827 142.901C10.2442 142.901 4.50963 134.804 6.96732 125.936C7.92309 122.466 9.42502 120.41 12.1558 118.996C16.6616 116.94 18.8462 113.598 18.8462 109.1C18.8462 107.301 20.075 105.116 21.85 104.088C24.5808 102.417 25.5366 102.417 30.5885 104.473C33.5923 105.758 40.6923 107.558 46.2904 108.329C51.8885 109.1 57.2135 110 58.1692 110.257C61.1731 111.028 59.9442 115.783 56.1212 117.711C53.9365 118.739 50.6596 120.924 48.6115 122.852C43.9692 126.836 43.5596 133.647 47.5192 140.973C49.7039 144.957 49.8404 146.371 48.6115 147.528C46.1539 149.713 41.9212 150.484 37.9615 149.455Z" fill="#F9C8BA"/>
<path d="M49.5673 140.459C49.1577 139.046 48.6115 135.447 48.475 132.491C48.3385 127.607 48.8846 126.708 54.7558 122.081C59.6712 118.097 61.1731 116.04 61.1731 113.213C61.1731 111.157 61.8558 109.486 62.5385 109.486C63.3577 109.486 63.9038 111.671 63.9038 114.37C63.9038 118.868 63.3577 119.639 57.2135 123.366C49.1577 128.25 48.3385 130.049 50.9327 135.961C53.3904 141.616 53.5269 142.13 51.8885 142.644C51.0692 142.901 50.1135 141.873 49.5673 140.459Z" fill="#F9C8BA"/>
<path d="M8.74228 114.755C11.2 113.341 13.3846 111.542 13.9307 110.514C14.3403 109.614 14.4769 110.642 14.3403 112.699C14.0673 116.169 13.5211 116.554 9.28843 116.94L4.50958 117.326L8.74228 114.755Z" fill="#F9C8BA"/>
<path d="M41.1019 104.345C31.1346 101.903 19.6654 97.019 27.0385 98.4328C28.95 98.8183 33.8654 100.232 38.0981 101.646C42.3308 103.06 49.7039 104.73 54.4827 105.373C62.4019 106.53 62.675 106.658 57.0769 106.658C53.6635 106.787 46.5635 105.63 41.1019 104.345Z" fill="#F9C8BA"/>
<path d="M16.6615 102.931C15.8423 101.646 18.1634 99.3326 20.4846 99.2041C22.8057 99.2041 22.8058 101.775 20.3481 103.06C18.4365 103.959 17.3442 103.959 16.6615 102.931Z" fill="#F9C8BA"/>
<path d="M99.6769 45.7394C96.1269 43.426 95.5807 36.8714 98.7211 35.7148C99.8134 35.3292 100.769 35.4577 100.769 36.1003C100.769 36.7429 102.954 35.2007 105.685 32.8873C108.279 30.4454 111.692 28.5176 113.058 28.5176C117.29 28.5176 120.158 32.3732 119.612 37.257C119.202 40.8556 119.338 41.2412 120.567 39.5704C121.523 38.4137 122.615 37.5141 123.162 37.5141C124.937 37.5141 123.844 43.8116 121.796 45.7394C118.929 48.5669 103.91 48.5669 99.6769 45.7394ZM115.788 44.5827C119.065 42.9119 118.929 42.9119 113.331 43.5545C108.552 44.1972 106.64 43.6831 103.363 41.4982C100.223 39.3134 99.4038 39.1848 99.4038 40.5986C99.4038 42.9119 105.685 46.382 109.644 46.382C111.146 46.382 113.877 45.6109 115.788 44.5827Z" fill="#F9C8BA"/>
<path d="M99.2673 33.5298C96.2635 31.602 105.548 24.6618 111.01 24.7903C114.696 24.7903 114.833 24.9189 112.512 26.3326C111.01 27.2322 108.006 29.4171 105.548 31.3449C102.544 33.7868 100.769 34.4294 99.2673 33.5298Z" fill="#F9C8BA"/>
<path d="M121.25 32.7587C121.25 32.1161 121.933 30.8309 122.615 29.8027C123.708 28.2605 123.981 28.389 123.981 30.8309C123.981 32.3731 123.435 33.6584 122.615 33.6584C121.933 33.6584 121.25 33.2728 121.25 32.7587Z" fill="#F9C8BA"/>
<path d="M-6.41347 6.66875C-7.77886 5.25501 -9.96347 4.09832 -11.4654 4.09832C-13.2404 4.09832 -13.9231 3.19868 -13.9231 0.885296C-13.9231 -1.81365 -14.6058 -2.32773 -18.0192 -2.32773C-20.2039 -2.32773 -22.1154 -2.84182 -22.1154 -3.61294C-22.1154 -4.25555 -23.0712 -4.89815 -24.1635 -4.89815C-25.8019 -4.89815 -26.2115 -6.69745 -26.2115 -13.8946C-26.2115 -22.7626 -26.2115 -22.8911 -22.6615 -22.8911C-20.6135 -22.8911 -15.1519 -22.2485 -10.3731 -21.3489C-2.59039 -20.0637 -1.63463 -19.5496 -1.63463 -16.8506C-1.63463 -14.7943 -0.815395 -13.8946 1.09614 -13.8946C3.28076 -13.8946 3.82691 -12.995 3.82691 -9.65343C3.82691 -6.69745 4.91922 -4.38407 7.24037 -2.32773C12.2923 2.17051 11.7461 4.61241 5.46537 5.1265C1.36922 5.38354 -0.405771 4.74093 -2.86346 2.29903C-4.63846 0.499731 -6.8231 -0.52844 -7.9154 -0.142877C-9.28079 0.371208 -9.82693 -0.528438 -9.82693 -3.48442C-9.82693 -7.08302 -10.1 -7.34006 -13.7865 -6.69745C-17.4731 -5.92633 -17.7462 -6.31189 -19.9308 -12.0953C-21.1596 -15.4369 -21.9789 -18.2644 -21.7058 -18.5214C-21.5692 -18.6499 -18.0192 -18.1358 -13.7865 -17.4932C-6.82308 -16.208 -6.27694 -15.8225 -6.82309 -13.1235C-7.36924 -10.5531 -6.8231 -10.039 -3.81925 -10.039C-0.542326 -10.039 -0.269249 -9.78196 -1.77117 -7.34006C-3.00002 -5.02668 -2.59039 -3.99851 1.23269 -0.271396C6.83077 5.12649 8.05961 4.35537 3.28077 -1.68513C1.23269 -4.12703 -0.269245 -7.21153 0.00383189 -8.36822C0.276909 -9.91048 -0.67886 -10.8101 -2.72694 -11.0672C-5.45771 -11.4527 -5.86733 -12.0953 -5.18463 -14.6658C-4.22886 -18.2644 -6.41347 -19.421 -16.9269 -20.7063C-22.6615 -21.4774 -23.4808 -21.2203 -23.4808 -19.2925C-23.4808 -17.3647 -19.6577 -5.02667 -18.7019 -3.86998C-18.5654 -3.74146 -16.7904 -4.12703 -14.7423 -4.89815C-11.0558 -6.18337 -11.0558 -6.18337 -12.0116 -1.42809C-12.8308 2.94163 -12.6942 3.19867 -9.96348 2.42755C-7.9154 1.91346 -6.00385 2.55607 -4.22885 4.22684C-2.45385 5.89762 0.276913 6.66875 4.50961 6.66875C7.92307 6.66875 10.6538 7.31135 10.6538 7.95396C10.6538 8.72509 7.37691 9.23917 3.41729 9.23917C-2.18078 9.23917 -4.50193 8.59656 -6.41347 6.66875Z" fill="#F9C8BA"/>
<path d="M1.9154 232.866C-1.77114 232.223 -5.73077 230.809 -6.82308 229.781C-8.87115 227.853 -8.73462 226.311 -4.775 216.158C-4.36539 215.13 -5.04808 215.387 -6.14039 216.929C-7.36923 218.343 -8.73461 221.17 -9.14423 222.97C-10.2365 227.082 -11.3288 227.211 -14.3327 224.126C-17.2 221.17 -17.2 216.672 -14.1961 211.403C-12.4211 208.19 -8.87115 205.876 0.413465 201.635C7.24039 198.551 15.9788 194.181 19.8019 191.996C23.7615 189.811 27.9942 188.269 29.0865 188.654C30.5885 189.297 33.8654 184.156 41.9212 168.348C54.0731 144.957 55.575 141.23 52.5712 142.387C50.1135 143.286 48.8846 140.073 48.475 132.491C48.3385 127.607 48.8846 126.707 54.7558 122.08C59.6712 118.096 61.1731 116.04 61.1731 113.212C61.1731 110.128 61.7192 109.485 64.5865 109.485C66.4981 109.485 68 108.971 68 108.2C68 107.429 64.45 106.915 60.0808 106.915C44.3788 106.915 14.6135 97.0188 20.7577 93.8058C24.1712 92.0065 27.0385 85.709 26.9019 80.3111L26.7654 75.4273L25.5365 80.5681C24.8538 83.3956 22.5327 87.7653 20.4846 90.2072C14.3404 97.4044 14.0673 98.1755 14.0673 107.558V116.554L9.69809 116.94C3.41732 117.582 -0.269227 113.341 -0.269227 105.501C-0.269227 102.16 -0.815373 99.0752 -1.49807 98.6896C-3.13653 97.6615 -6.00383 104.087 -6.9596 110.771C-7.6423 115.783 -8.18846 116.554 -11.1923 116.94C-19.6577 117.839 -26.8942 102.417 -21.5692 94.7055C-20.3404 92.9062 -19.6577 91.4924 -20.0673 91.4924C-21.7058 91.4924 -26.2115 100.103 -26.2115 103.445C-26.2115 106.015 -26.8942 106.915 -28.8058 106.915C-37.6808 106.915 -36.4519 90.5928 -26.7577 79.54C-24.9827 77.6121 -22.9346 73.885 -22.2519 71.3146C-21.0231 67.0734 -21.1596 66.4308 -24.8462 63.2178C-29.625 58.9766 -31.1269 54.0928 -29.4885 48.0523C-28.1231 42.9114 -22.3885 38.2847 -18.975 39.4414C-17.7461 39.9555 -16.1077 42.2688 -15.2885 44.5822C-13.65 49.3375 -10.5096 50.8798 -5.32115 49.7231C-2.86345 49.0805 -1.36153 49.5945 0.550012 51.9079C2.59809 54.2213 4.23654 54.7354 8.19615 54.4783C14.75 53.9643 19.2558 56.7917 23.8981 64.246C25.9462 67.459 27.7212 69.5153 27.9942 68.7442C28.2673 67.9731 36.7327 70.929 47.3827 75.6843L66.225 84.1667L65.6789 89.4361C64.7231 96.7618 69.775 108.843 76.1923 115.012C80.425 118.867 82.3366 119.767 86.8423 119.767C93.3962 119.767 94.7615 118.353 96.6731 110.128C99.1308 99.7178 99.4039 99.2037 102.954 99.2037C104.729 99.2037 107.46 98.5611 108.825 97.6614C110.873 96.5048 112.102 96.8903 116.062 99.5893C121.523 103.573 123.571 103.83 127.804 101.003C131.627 98.5611 131.217 98.304 134.085 106.144C138.727 119.639 135.587 130.82 124.117 141.744C117.837 147.528 114.969 149.198 108.142 150.998C96.1269 154.211 92.85 153.954 92.3039 149.841C92.0308 147.271 89.1635 151.383 80.1519 168.22C73.5981 180.043 67.8635 191.096 67.4539 192.639C66.7712 194.566 67.4539 196.237 70.0481 198.679C74.2808 202.663 74.2808 205.362 70.4577 212.945C68.1366 217.443 65.5423 220.014 59.8077 223.098C45.1981 231.452 36.5962 232.352 35.0942 225.797C34.1385 221.941 34.1385 221.941 34.0019 226.568C33.8654 230.681 33.3192 231.323 29.7692 231.966C21.5769 233.508 8.46924 234.022 1.9154 232.866ZM29.0865 203.306C27.8577 201.378 19.5289 200.35 14.4769 201.507C10.1077 202.535 10.2442 202.663 17.4808 203.434C29.6327 204.591 29.9058 204.591 29.0865 203.306ZM-6.55001 61.9326C-7.50577 61.1614 -9.82691 64.76 -9.69037 67.0734C-9.69037 68.2301 -8.87115 67.716 -7.77884 65.7882C-6.82307 63.9889 -6.27693 62.3181 -6.55001 61.9326Z" fill="white"/>
<path d="M16.9346 103.445C15.7058 102.289 15.9788 98.1759 17.3442 97.4048C17.8904 97.0192 19.5288 97.7903 20.7577 99.0755C23.0788 101.389 23.0788 101.646 20.4846 102.931C18.9827 103.702 17.4808 103.831 16.9346 103.445Z" fill="white"/>
<path d="M80.9711 85.7092C79.0596 84.0384 77.5577 83.1387 77.5577 83.7813C77.5577 84.5525 76.3288 83.9099 74.8269 82.4961C72.7788 80.5683 71.4135 80.1827 69.5019 81.0824C67.7269 81.982 65.9519 81.725 62.8115 79.9257C60.4904 78.512 52.1615 74.7848 44.5154 71.4433C33.4558 66.688 29.2231 64.1176 24.5808 59.2338C21.4404 55.8922 17.6173 52.6792 16.1154 52.2937C12.975 51.394 9.97114 42.1405 8.60576 29.5454C7.78653 22.0912 8.0596 20.806 10.2442 19.5208C12.5654 18.107 12.4288 18.107 9.97114 19.0067C8.46922 19.5208 0.140374 20.1634 -8.46155 20.5489C-23.8904 21.063 -24.1635 21.063 -21.8423 18.6211C-18.4289 15.0225 -18.7019 14.3799 -24.1635 14.3799C-28.5327 14.3799 -43.2789 10.2673 -45.0539 8.59648C-45.4635 8.21092 -44.5077 6.92571 -42.7327 5.89754C-39.7289 3.8412 -39.8654 3.8412 -47.6481 0.371127C-52.0173 -1.55669 -56.5231 -4.25563 -57.6154 -5.54084C-58.7077 -6.95458 -58.9808 -7.59718 -58.1616 -7.08309C-57.3423 -6.69753 -54.3385 -5.9264 -51.6077 -5.66936L-46.5558 -5.02676L-50.1058 -9.01091C-53.7923 -13.1236 -61.7115 -27.0039 -61.7115 -29.3173C-61.7115 -30.2169 -60.8923 -30.3454 -59.3904 -29.4458C-57.2058 -28.4176 -56.9327 -29.1887 -56.9327 -38.1852C-56.9327 -46.6676 -56.3865 -49.1095 -52.4269 -56.3067C-44.7808 -70.8296 -44.3712 -71.0866 -29.3519 -71.0866C-17.7462 -71.0866 -16.5173 -70.9581 -17.0635 -68.9018C-18.0192 -65.6887 -15.6981 -49.6236 -13.7865 -45.6394C-12.0115 -41.9123 -10.2365 -42.1694 -8.46155 -46.5391C-7.50578 -48.7239 -7.23271 -48.0813 -7.23271 -43.7116C-7.09617 -37.6711 -3.6827 -30.0884 -1.63463 -31.2451C-0.815396 -31.7592 -0.269233 -33.0444 -0.132695 -34.201C-0.132695 -35.3577 0.686519 -33.5584 1.64229 -30.2169C2.59806 -26.7468 4.5096 -23.0197 5.73844 -21.863C7.78652 -19.9352 7.92307 -20.0637 7.92307 -22.8912C8.0596 -25.9757 8.0596 -25.9757 9.56152 -23.5338C10.3808 -22.1201 13.9308 -17.7503 17.2077 -13.8947C22.5327 -7.85422 23.3519 -7.34014 22.6692 -10.4246C22.1231 -12.9951 23.4885 -16.8507 27.175 -23.9194L32.5 -33.8155V-28.2891C32.5 -25.3331 33.1827 -22.8912 33.8654 -22.8912C34.6846 -22.8912 35.2308 -23.2768 35.2308 -23.7908C35.3673 -25.4616 51.8885 -41.5268 57.2135 -45.1253C63.9038 -49.8806 65.2692 -49.4951 60.2173 -44.3542C55.575 -39.5989 51.6154 -34.3296 51.6154 -32.7873C51.6154 -32.1447 54.0731 -33.4299 56.9404 -35.6148C64.3134 -41.1412 76.7384 -46.282 84.2481 -46.9246L90.5288 -47.5672L86.0231 -44.8683C83.5654 -43.3261 81.1077 -42.1694 80.5615 -42.1694C79.8788 -42.1694 77.9673 -40.6271 76.0557 -38.8278L72.7788 -35.3577L76.1923 -36.2574C86.7058 -39.0849 99.6769 -40.113 107.187 -38.5708C111.419 -37.7996 115.242 -37.2856 115.515 -37.6711C116.335 -38.3137 111.01 -40.3701 105.821 -41.5268L101.998 -42.2979L106.094 -46.7961C108.415 -49.238 110.327 -52.5796 110.463 -54.1218C110.463 -56.8208 110.6 -56.8208 111.829 -53.8648C113.058 -51.0373 113.331 -50.9088 115.242 -52.7081C116.335 -53.7363 118.11 -57.4634 119.065 -60.9334C120.84 -66.9739 120.977 -67.1025 121.933 -63.6324L122.888 -60.1623L125.346 -64.275C126.575 -66.5884 128.213 -70.444 128.76 -72.7574C129.579 -76.7415 129.852 -76.8701 131.627 -74.6852C133.538 -72.6289 133.675 -73.1429 133.129 -79.826L132.583 -87.2803L143.506 -86.8947C153.883 -86.5091 154.565 -86.3806 158.115 -82.268C163.987 -75.4563 169.038 -64.7891 169.038 -58.8771C169.038 -53.8648 165.079 -44.4827 162.212 -42.812C161.529 -42.4264 160.846 -41.1412 160.846 -40.113C160.846 -38.6993 161.665 -38.4422 163.577 -38.9563C168.765 -40.4986 166.308 -38.1852 155.794 -31.7592C145.144 -25.2046 145.144 -25.0761 156.75 -27.518C158.798 -27.9035 159.617 -27.775 158.798 -27.0039C156.75 -25.2046 146.1 -21.606 142.687 -21.4775C141.048 -21.4775 140.502 -21.0919 141.458 -20.7063C144.462 -19.5496 143.233 -18.1359 139.683 -18.7785C137.771 -19.0356 133.129 -18.0074 129.169 -16.4651C123.162 -14.0232 121.933 -13.8947 120.704 -15.437C119.885 -16.4651 116.744 -18.907 113.74 -20.9634L108.279 -24.819L114.696 -18.0074C124.527 -7.59718 128.213 0.628169 129.169 13.8658C129.715 23.8905 130.125 24.9187 132.992 25.9468C135.177 26.8465 137.362 26.5894 139.956 25.1757L143.779 23.2479L139.41 24.019C135.45 24.7901 134.904 24.5331 134.904 22.2197C134.904 20.806 136.679 17.85 139 15.6651C142.55 12.1951 142.823 11.4239 141.594 7.95387C140.775 5.89754 139.546 4.09824 138.863 4.09824C138.181 4.09824 137.635 2.94155 137.635 1.65634C137.635 -2.58486 144.598 -3.61303 151.425 -0.399998C156.34 2.0419 158.525 6.66866 156.75 11.1669C155.658 13.9944 155.794 14.3799 158.252 14.3799C159.754 14.3799 160.71 14.894 160.3 15.4081C160.027 15.9222 161.802 16.1792 164.396 15.9222C170.131 15.2796 175.456 19.3923 179.279 27.3606C180.644 30.0595 182.146 32.3729 182.556 32.5014C190.338 33.4011 195.254 38.2849 194.708 44.7109C194.298 51.0084 191.567 52.8077 187.744 49.3377C184.058 45.9961 177.094 43.4257 176.002 44.968C173.271 48.6951 159.89 47.0243 161.392 43.1687C163.167 38.6704 156.204 44.7109 144.188 57.9486C131.763 71.8289 131.49 71.9574 128.896 69.644C126.438 67.3306 126.438 66.9451 128.35 64.8887C132.446 60.519 136.269 51.7796 136.269 46.8958L136.133 42.012L133.538 48.9521C130.398 57.306 125.619 63.9891 119.885 68.2303C117.427 69.901 115.788 72.4715 115.788 74.1423C115.788 77.8694 113.604 79.4116 107.187 80.3113C104.319 80.6968 99.6769 82.8817 96.8096 84.938C90.3923 89.6933 85.3404 89.9504 80.9711 85.7092ZM95.3077 80.5683C97.9019 78.769 102.271 76.9697 105.138 76.5841C109.644 75.813 109.917 75.556 108.142 73.8852C105.548 71.3148 106.367 69.1299 110.19 68.6158C111.829 68.3588 114.15 66.5595 115.379 64.7602C116.608 62.8324 118.656 60.1334 120.021 58.7197C121.25 57.306 122.615 53.8359 123.025 51.0085C123.844 46.1246 123.844 46.1246 122.342 49.7232C120.567 54.35 117.154 58.2056 115.788 57.4345C115.242 57.0489 112.921 57.6915 110.873 58.7197C105.138 61.5472 100.087 61.0331 95.8538 57.4345C93.8057 55.6352 91.3481 54.2215 90.3923 54.2215C86.9788 54.2215 83.975 60.6475 83.2923 69.5155C82.3365 83.5243 86.0231 86.9944 95.3077 80.5683ZM141.731 46.6387C141.731 42.7831 137.225 36.2285 135.587 37.7708C135.04 38.2849 135.86 40.2127 137.498 42.1405C139 44.0683 140.365 46.6387 140.365 47.9239C140.365 49.3377 140.638 50.3658 141.048 50.3658C141.458 50.3658 141.731 48.6951 141.731 46.6387ZM73.5981 45.225C79.0596 42.3975 75.3731 28.7743 67.0442 21.4486C62.2654 17.3359 60.2173 17.3359 58.1692 21.4486C55.8481 26.3324 59.125 38.2849 63.9038 42.9116C68.1365 46.8958 69.6385 47.1528 73.5981 45.225ZM114.833 45.0965C116.744 44.3254 119.065 42.269 120.021 40.5982C120.977 38.7989 122.615 37.7708 123.571 38.0278C125.892 38.9275 125.892 36.7426 123.571 34.8148C122.342 33.6581 121.933 30.8306 122.342 25.9468C123.025 17.0789 118.929 8.0824 114.287 7.95387C112.512 7.95387 111.965 13.7373 112.921 19.9063C114.013 25.6898 113.74 26.2039 110.463 27.7461C108.552 28.7743 105.821 30.7021 104.456 32.1158C102.954 33.6581 100.906 34.4292 99.2673 34.0437C95.7173 33.144 90.3923 36.6141 87.6615 41.7549L85.3404 45.8676L90.3923 41.1123C93.2596 38.5419 96.6731 36.2285 98.175 35.843C100.633 35.2003 100.769 35.5859 100.087 38.7989C99.4038 41.8835 99.8134 42.7831 103.09 44.4539C107.733 46.7673 110.463 47.0243 114.833 45.0965ZM143.779 34.1722C141.731 31.0877 136.269 28.1317 135.04 29.2884C134.631 29.6739 136.815 31.9873 139.819 34.6863C145.554 39.6986 147.602 39.5701 143.779 34.1722ZM45.6077 0.242608C46.5635 -7.34014 50.3865 -13.8947 54.0731 -14.0232C55.7115 -14.0232 55.575 -14.4088 53.3904 -15.1799C49.8404 -16.4651 42.1942 -14.5373 41.9211 -12.2239C41.7846 -11.3243 41.6481 -5.92641 41.5115 -0.14296C41.375 8.21091 41.7846 10.1387 43.0134 8.85352C43.9692 7.95387 45.0615 4.09824 45.6077 0.242608ZM9.28845 4.99789C5.1923 1.91338 -0.405784 -6.18344 0.00383094 -8.3683C0.276908 -9.91056 -0.678861 -10.8102 -2.72694 -11.0673C-5.45771 -11.4528 -5.86733 -12.0954 -5.18463 -14.6658C-4.22887 -18.2644 -6.41346 -19.4211 -17.2 -20.8349L-23.8904 -21.606L-22.9346 -16.7222C-22.3885 -14.1518 -21.7058 -11.3243 -21.5692 -10.6817C-21.2962 -9.91056 -20.6135 -8.11126 -20.0673 -6.44049C-18.975 -3.09894 -19.2481 -3.22746 -14.6058 -4.89824C-11.0558 -6.18345 -11.0558 -6.05493 -12.0116 -1.42817C-12.8308 2.94155 -12.6942 3.19859 -9.96348 2.42746C-7.9154 1.91338 -6.00385 2.55599 -4.22885 4.22676C-2.45385 5.89753 0.276916 6.66866 4.91922 6.66866C10.1077 6.54014 10.9269 6.2831 9.28845 4.99789ZM108.962 -17.2363C104.319 -23.4053 100.36 -24.4335 99.6769 -19.4211C99.2673 -17.2363 99.8135 -16.8507 101.862 -17.3648C103.5 -17.7503 105.821 -16.7222 108.006 -14.6658C113.331 -9.65352 113.74 -10.6817 108.962 -17.2363ZM105.685 -31.3736C104.046 -32.4018 100.087 -33.1729 96.1269 -33.0444L89.1634 -32.9158L95.9904 -31.3736C99.8134 -30.6025 104.046 -29.8313 105.548 -29.7028C108.279 -29.4458 108.279 -29.4458 105.685 -31.3736Z" fill="white"/>
<path d="M101.042 66.8164C98.3115 64.2459 99.1307 63.2178 104.183 63.2178C107.46 63.2178 108.962 63.8604 108.962 65.1456C108.962 66.1738 108.415 67.0734 107.733 67.0734C107.05 67.0734 105.685 67.3304 104.592 67.716C103.637 68.1016 101.998 67.716 101.042 66.8164Z" fill="white"/>
<path d="M110.327 64.7601C110.327 63.4749 113.194 60.6475 114.696 60.6475C116.881 60.6475 115.788 63.0894 113.058 64.5031C111.556 65.2742 110.327 65.4027 110.327 64.7601Z" fill="white"/>
<path d="M59.9442 25.0474C59.8077 21.9628 60.3538 20.8062 61.9923 20.8062C63.6308 20.8062 63.9038 21.1917 62.8115 22.4769C62.1288 23.2481 61.1731 25.1759 60.7634 26.5896C60.3538 28.2604 60.0808 27.7463 59.9442 25.0474Z" fill="white"/>
</g>
<defs>
<clipPath id="clip0_639_10494">
<rect width="135" height="130" fill="white"/>
</clipPath>
</defs>
</svg>
