<svg width="135" height="130" viewBox="0 0 135 130" fill="none" xmlns="http://www.w3.org/2000/svg">
<g clip-path="url(#clip0_639_10489)">
<rect x="1.5" y="1.5" width="402" height="387" rx="18.5" fill="#FDFFEF" stroke="black" stroke-width="3"/>
<path d="M134.048 364.794C131.044 363.766 127.631 361.838 126.265 360.296C125.037 358.882 123.125 357.725 122.033 357.725C121.077 357.725 119.029 356.569 117.8 355.284C115.615 353.099 115.615 352.071 116.981 347.829C120.94 336.52 124.627 333.692 155.212 318.784C164.906 314.157 165.588 313.386 170.504 304.646C179.515 288.453 182.792 281.769 182.246 281.127C181.837 280.87 179.652 281.255 177.331 282.027C172.552 283.569 166.408 281.255 162.994 276.757C161.356 274.572 160.673 274.444 156.987 275.729C151.525 277.657 144.835 275.215 141.421 269.817C138.417 265.062 138.281 262.491 140.875 255.551C142.104 252.21 142.377 250.282 141.421 249.896C136.642 248.354 133.092 243.599 132.956 238.458C132.819 235.502 132.273 233.06 131.727 233.06C130.635 233.06 130.088 237.944 130.635 242.442C130.908 245.912 126.675 249.768 122.442 249.768C118.483 249.768 112.202 244.884 110.837 240.643C110.29 238.972 108.652 238.201 106.058 238.201C101.142 238.201 96.5 232.931 96.5 227.405C96.5 222.65 100.869 214.167 105.102 210.697C106.74 209.412 108.242 206.842 108.379 205.171C108.515 203.372 109.608 200.93 110.7 199.773C113.704 196.56 113.431 195.789 108.652 194.247C95.6807 190.005 101.142 168.799 115.206 168.799C119.165 168.799 120.121 169.442 121.76 173.169C124.217 178.567 125.992 179.724 131.454 179.21C133.912 179.081 136.642 179.724 137.871 180.88C140.329 183.194 145.654 183.708 145.654 181.652C145.654 180.88 144.698 178.439 143.333 176.125C142.104 173.683 141.012 168.157 140.738 162.502C140.465 157.361 140.056 152.863 139.783 152.477C139.373 152.22 136.642 152.606 133.502 153.248C129.815 154.019 124.354 154.019 118.346 153.12L108.925 151.835L112.612 148.622L116.298 145.537L110.427 146.437C105.375 147.079 103.054 146.565 95.5442 143.095L86.5327 138.854L90.4923 136.926L94.4519 134.998L91.0384 134.099C84.8942 132.556 79.0231 129.086 76.1558 125.231L73.2884 121.504L78.8865 123.431C82.0269 124.331 84.8942 124.845 85.3038 124.46C85.7135 124.074 84.2115 121.889 81.7538 119.576C77.6577 115.592 70.5577 102.997 70.5577 99.6551C70.5577 98.4984 71.5134 98.4984 74.6538 100.041C78.75 102.097 80.1154 101.197 77.2481 98.4984C76.2923 97.5987 75.7461 93.229 75.7461 88.2167C75.8827 77.935 79.9788 68.81 87.4885 61.7413C92.6769 56.729 101.552 54.8012 111.246 56.3434C119.438 57.6286 119.848 58.1427 121.077 71.766C122.306 85.2607 124.081 89.2448 126.538 83.4614C127.221 81.5336 127.904 78.4491 127.904 76.5213C128.04 73.4367 128.177 73.3082 129.406 75.3646C130.225 76.6498 130.635 79.4772 130.498 81.7906C129.952 86.8029 131.863 98.1128 133.092 98.1128C133.638 98.1128 135.004 95.9279 136.369 93.229L138.554 88.4737L138.69 94.5142C138.827 102.354 141.148 108.394 143.06 105.824C144.152 104.282 145.244 104.796 149.067 108.652C151.798 111.35 154.665 113.535 155.758 113.535C158.488 113.535 161.902 104.41 163.404 94.0001C163.95 89.1163 164.769 84.7466 165.179 84.4896C165.452 84.104 166.271 89.2448 166.817 95.7994L167.773 107.752L170.504 104.539C171.869 102.74 174.463 99.6551 176.102 97.5987C181.154 91.1727 190.712 82.9473 196.856 79.4772C203.273 76.0072 208.598 74.979 203 78.3205C199.86 80.2484 192.487 87.9596 186.888 95.4139C185.66 97.2132 182.246 100.812 179.515 103.639C176.648 106.467 174.327 109.166 174.327 109.808C174.327 110.451 172.552 110.965 170.367 110.965C165.452 110.965 162.038 115.463 162.038 121.889C162.038 126.13 161.765 126.387 157.669 126.259C153.983 126.259 152.344 125.102 147.975 119.833C145.244 116.363 141.831 113.535 140.465 113.535C139.1 113.535 137.325 112.893 136.369 111.993C135.14 110.836 134.731 110.965 134.731 112.507C134.731 113.664 135.96 114.821 137.462 115.206C139.1 115.592 140.192 117.005 140.192 118.676C140.192 121.632 144.971 128.829 147.975 130.629C148.931 131.143 149.75 133.713 149.75 136.027V140.525H139.783C133.092 140.525 128.86 139.882 127.085 138.597C125.719 137.569 123.125 136.669 121.487 136.669C119.029 136.669 118.346 135.898 118.346 133.456C118.346 131.014 117.663 130.243 115.206 130.243C112.612 130.243 111.656 129.086 109.744 123.431C108.515 119.576 107.423 113.792 107.423 110.322V104.153L117.254 105.053C122.579 105.439 128.45 106.21 130.225 106.595C132.137 107.109 133.365 106.852 133.365 105.824C133.365 105.053 132.137 104.025 130.635 103.639C127.767 102.868 123.808 97.2132 123.808 93.6146C123.808 92.5864 122.715 91.6867 121.35 91.6867C117.8 91.6867 115.752 86.6744 114.113 74.4649C113.294 68.81 112.475 63.9262 112.202 63.5406C111.792 63.2836 108.242 63.0265 104.146 62.898C95.4077 62.898 93.6327 64.3117 86.6692 77.5494C82.7096 84.7466 82.1634 86.9315 82.4365 94.5142C82.5731 99.5265 82.1635 103.254 81.3442 103.254C79.7058 103.254 84.4846 112.122 88.9904 117.134C90.9019 119.19 92.4038 122.532 92.4038 124.331C92.4038 126.773 93.2231 127.801 95.8173 128.444C98.4115 129.086 99.2308 130.115 99.2308 132.942C99.2308 137.44 102.371 139.24 112.338 140.139C119.029 140.782 119.712 141.167 119.712 144.123C119.712 147.208 119.848 147.208 128.313 146.565C132.956 146.18 140.056 145.409 144.015 144.894L151.115 143.995V148.75C151.115 151.321 150.569 153.377 149.75 153.377C145.517 153.377 150.706 177.153 155.212 178.439C156.713 178.824 160.537 182.037 163.677 185.379C168.319 190.262 172.552 192.833 183.885 197.717C191.804 201.058 198.904 204.271 199.587 204.785C200.406 205.299 203.819 206.071 207.233 206.328L213.65 206.97L214.196 196.946C215.015 183.708 217.337 180.366 225.529 180.366C230.035 180.366 232.356 181.137 233.994 182.937C236.588 185.764 239.865 186.15 243.688 184.35C244.917 183.708 247.238 182.68 248.74 182.166C250.788 181.394 249.423 181.009 243.962 180.366C235.906 179.595 230.308 177.282 230.308 174.84C230.308 174.069 229.352 174.711 228.123 176.254C226.621 178.181 224.71 179.081 221.296 179.081C217.063 179.081 216.654 178.824 216.654 175.225C216.654 167.257 223.344 159.803 230.444 159.803C232.356 159.803 235.087 158.646 236.452 157.233C237.817 155.819 240.002 154.405 241.367 154.019C243.552 153.377 243.825 152.349 243.142 148.236C242.596 145.409 242.733 141.167 243.142 138.597C244.098 134.356 244.371 134.099 249.423 134.099C252.563 134.099 255.567 134.998 257.069 136.284C259.254 138.34 259.254 138.34 258.298 135.384C257.752 133.585 255.977 129.986 254.475 127.416C252.154 123.303 250.925 122.532 247.375 122.532C244.917 122.532 241.367 121.375 239.456 119.961C237.544 118.548 234.677 117.391 233.038 117.391C230.308 117.391 230.035 116.877 230.581 110.322L230.99 103.125L225.938 102.354C222.115 101.84 220.75 101.069 220.75 99.2695C220.75 97.2132 219.931 97.0846 213.923 97.7272C207.233 98.4984 207.096 98.3698 207.096 95.1568V91.6867L202.317 93.8716C199.723 95.0283 197.538 96.442 197.538 97.0846C197.538 97.5987 195.217 98.1128 192.487 98.1128L187.298 97.9843L193.442 92.8434C202.317 85.2607 211.602 81.2765 221.296 80.5054L229.625 79.9913L223.208 83.847C219.521 86.0318 216.108 87.8311 215.288 87.8311C213.787 87.8311 208.188 93.229 209.008 93.8716C209.281 94.1286 211.875 93.486 214.606 92.4579C217.473 91.3012 223.071 90.016 227.031 89.6304C233.585 88.8593 234.813 88.2167 239.183 82.9473C241.777 79.7343 243.962 75.6216 244.098 73.8223L244.235 70.4808L245.737 74.0793C246.556 76.0072 247.648 77.5494 248.194 77.5494C248.74 77.5494 250.379 74.0794 251.744 69.8382C253.792 63.1551 254.338 62.3839 255.84 64.1832C258.435 67.5248 260.21 65.2114 261.165 56.8575L262.121 49.1463L264.715 52.7448L267.446 56.3434L266.627 51.2026C266.217 48.3751 265.671 44.9051 265.535 43.4913C265.125 41.0494 265.944 40.9209 276.048 40.9209C289.429 40.9209 293.252 43.1058 300.762 54.6727C304.721 60.7132 306.087 64.4403 306.496 69.8382C307.042 76.6498 306.769 77.2924 301.308 83.847C298.167 87.5741 295.983 90.9156 296.392 91.3012C296.665 91.6867 298.85 91.0441 301.171 90.016L305.267 88.0882L302.537 91.4297C301.035 93.3575 297.758 96.3135 295.163 98.1128C289.702 101.84 289.156 103.382 293.525 102.225C296.256 101.583 296.392 101.711 294.617 103.768C291.887 106.852 285.742 109.68 281.51 109.68C277.687 109.68 277.14 110.836 279.871 113.407C281.237 114.692 280.827 114.692 277.687 113.407C274.41 111.993 273.181 112.122 268.675 114.564C265.808 116.106 262.394 117.391 261.165 117.391C258.435 117.391 258.435 118.548 260.756 121.889C264.306 126.644 266.217 133.456 267.173 143.095C267.992 152.349 267.992 152.606 269.767 148.879C271.815 144.38 276.048 140.268 277.413 141.553C277.96 142.067 277.413 140.91 276.048 138.854C274.819 136.926 274.273 135.384 274.819 135.384C275.502 135.384 274.956 134.741 273.727 133.97C267.583 130.629 274.546 124.331 282.602 125.745C290.658 127.159 293.798 131.143 293.115 138.854C292.842 142.196 296.938 144.509 301.035 143.481C302.673 143.095 305.54 143.738 307.452 144.894C311.685 147.465 318.238 158.004 317.146 160.574C316.737 161.602 316.873 162.116 317.692 161.731C318.512 161.345 319.058 161.474 319.058 162.116C319.058 162.887 320.287 163.144 321.788 162.759C323.563 162.373 325.748 163.402 328.615 165.972C333.394 170.599 334.213 177.41 330.254 180.752C327.523 183.065 321.925 182.68 319.74 179.981C318.238 178.053 313.05 175.225 311.275 175.225C310.729 175.225 311.002 175.74 311.958 176.254C313.187 177.025 311.821 177.924 308.135 179.081C303.083 180.623 301.99 180.623 297.621 178.439C292.979 175.997 292.706 175.997 290.931 178.31C289.975 179.595 287.108 182.808 284.65 185.379C282.192 187.949 277.14 193.347 273.59 197.46L267.037 204.914L268.538 211.983C269.904 218.28 269.767 219.565 267.446 224.064C265.944 226.891 265.398 229.204 266.081 229.204C268.812 229.204 273.044 241.414 273.181 249.125C273.181 256.065 272.225 258.636 263.487 275.472C258.162 285.754 252.154 296.549 250.106 299.634L246.556 305.032H255.84C260.892 305.032 270.04 303.747 276.048 302.333C291.34 298.606 296.119 298.477 297.894 302.076C298.577 303.618 300.898 305.674 303.083 306.446C308.544 308.63 312.231 314.157 312.231 320.326C312.231 324.567 311.412 326.366 307.588 329.965C304.994 332.407 300.488 335.106 297.621 335.877C294.754 336.777 291.887 337.933 291.067 338.447C285.606 342.303 252.427 343.588 237.817 340.504C230.581 338.961 218.702 335.363 212.421 332.792C210.51 332.021 210.1 332.921 209.554 338.19C209.144 341.917 207.642 346.287 205.867 348.6C202.181 353.356 182.383 362.866 175.965 362.866C173.644 362.866 168.183 363.766 163.813 364.794C154.119 367.236 141.285 367.236 134.048 364.794ZM158.352 358.368C164.633 357.597 164.769 357.468 164.769 353.099C164.769 348.986 165.042 348.729 169.548 348.729C173.781 348.729 174.327 349.115 174.327 352.071C174.327 355.155 174.737 355.412 178.56 354.641C180.881 354.255 186.342 351.814 190.712 349.372C196.446 346.03 199.04 343.588 200.952 339.604C203.546 334.335 203.546 334.335 200.542 332.021C194.671 327.523 196.173 321.483 210.1 296.035C222.388 273.287 222.662 272.902 227.031 272.902C230.717 272.902 231.537 273.416 231.946 275.858L232.356 278.942L239.865 277.014C245.737 275.472 249.013 273.416 255.021 267.889C264.715 258.764 268.265 250.153 265.671 242.185C264.033 237.044 263.896 236.916 257.752 236.916C254.338 236.916 250.242 236.016 248.877 234.988C245.054 232.289 238.91 232.546 237.954 235.373C237.544 236.53 236.588 240.386 235.769 243.984C233.585 252.981 232.765 253.623 221.842 253.623C212.421 253.623 212.148 253.495 206.823 248.483C203.819 245.655 201.088 243.342 200.815 243.342C200.542 243.342 200.269 245.012 200.269 247.069C200.269 250.025 198.904 251.953 194.125 255.68C187.162 260.949 185.796 266.218 190.848 267.375C196.31 268.789 193.715 278.428 181.427 301.947C172.688 318.655 169.685 323.025 167.637 323.025C166.135 323.025 163.267 323.667 161.356 324.567L157.669 326.109L162.994 327.523C167.773 328.808 168.183 329.322 168.592 333.821L169.002 338.704L155.621 337.805C148.248 337.291 141.967 336.52 141.558 335.877C141.148 335.363 137.871 336.391 134.048 337.933C128.177 340.504 127.767 341.018 131.044 341.018C134.321 341.018 134.731 341.403 134.731 345.645C134.731 348.086 134.048 351.428 133.229 352.842C132.273 354.512 132.273 355.926 133.092 356.697C134.458 357.983 146.61 360.167 149.75 359.653C150.842 359.396 154.665 358.882 158.352 358.368ZM275.365 335.106C280.008 334.335 280.144 334.206 279.735 329.322L279.188 324.31H285.333C289.975 324.31 291.887 324.953 293.252 327.009L295.163 329.708L298.987 326.88C305.95 321.74 306.223 319.555 300.625 314.542C296.938 311.329 294.344 310.173 291.067 310.173C288.61 310.173 286.288 309.53 286.015 308.759C285.606 307.731 283.967 307.731 280.144 308.63C277.14 309.402 268.948 310.43 262.121 310.944C254.065 311.458 248.877 312.486 247.921 313.514C247.102 314.542 243.962 315.314 241.094 315.314C236.042 315.314 235.769 315.056 235.769 311.458C235.769 307.474 239.456 299.634 244.235 293.208L246.829 289.609H238.227H229.625L220.477 306.831C210.373 325.724 210.373 325.081 220.75 328.551C238.227 334.335 261.985 337.162 275.365 335.106ZM177.058 272.13C176.238 270.331 175.692 265.062 175.692 260.564C175.692 252.724 175.965 251.953 180.062 248.354C182.519 246.298 185.113 244.627 185.933 244.498C187.298 244.498 164.769 239.615 160.673 239.1C159.444 238.972 158.488 240.514 157.806 243.856C156.987 248.483 155.348 250.539 149.34 254.266C145.381 256.708 145.381 260.821 149.204 265.062C153.71 270.203 154.938 270.074 156.031 264.548C156.85 260.435 157.26 260.049 161.492 260.049C165.588 260.049 166.135 260.435 166.135 263.391C166.135 269.303 171.05 275.343 175.965 275.472C178.013 275.472 178.15 274.958 177.058 272.13ZM126.538 227.534C128.177 224.449 129.133 223.935 133.229 224.321C138.008 224.706 138.144 224.835 138.554 230.49C138.963 236.916 141.148 242.056 143.606 242.056C144.698 242.056 144.971 239.615 144.562 234.474C143.879 226.377 144.835 223.806 151.388 216.224C156.85 209.798 157.806 202.472 153.983 196.689C149.887 190.391 146.063 188.463 139.237 189.106C134.185 189.62 133.365 190.005 133.365 192.704C133.365 198.745 130.498 202.215 125.583 202.215C121.213 202.215 121.077 202.086 121.077 197.203C121.077 189.363 122.033 188.078 128.177 188.078C132.956 188.078 133.502 187.821 132 186.15C131.044 185.122 128.04 184.222 125.31 184.222C119.165 184.222 117.527 183.194 115.752 178.696C114.113 174.711 111.929 175.097 110.29 179.595C108.925 182.808 111.656 188.72 115.615 190.648C120.667 193.218 118.483 206.199 111.519 214.424C107.423 219.308 105.921 222.136 109.062 219.18C110.017 218.28 112.748 217.637 115.206 217.637C119.438 217.637 119.712 217.895 119.712 221.879C119.712 224.064 118.756 227.148 117.663 228.433C115.206 231.389 116.162 235.116 120.258 239.229L123.125 242.314L123.944 236.659C124.354 233.703 125.583 229.461 126.538 227.534ZM224.163 237.944C224.846 235.245 224.71 233.703 223.617 233.317C222.798 233.06 222.115 231.132 222.115 229.076C222.115 225.991 221.569 225.349 218.975 225.349C217.2 225.349 214.606 224.449 213.104 223.421C208.188 219.951 207.096 220.979 209.281 227.02C211.056 231.903 219.931 242.056 222.252 242.056C222.798 242.056 223.754 240.257 224.163 237.944ZM196.992 231.004C196.583 229.847 196.173 226.377 196.173 223.292V217.509L181.7 211.211C173.781 207.613 167.09 204.785 166.817 204.785C166.544 204.785 166.135 208.384 165.862 212.882C165.588 217.252 164.906 221.75 164.36 222.907C163.131 225.349 166.954 227.148 180.471 230.49C192.896 233.574 198.085 233.831 196.992 231.004ZM260.483 209.412C259.663 207.613 258.435 206.071 257.615 206.071C255.294 206.071 256.113 210.954 258.571 212.368C261.712 214.039 262.121 213.525 260.483 209.412ZM265.808 166.615C265.808 162.887 265.398 159.803 264.852 159.803C264.169 159.803 263.76 163.53 263.76 168.028C263.76 172.655 264.169 175.611 264.715 174.84C265.262 173.94 265.808 170.213 265.808 166.615ZM296.392 167.514C299.806 167.514 301.171 168.157 301.717 170.085C302.4 172.784 306.769 173.683 306.769 171.241C306.769 169.571 317.556 170.213 322.471 172.141C324.929 173.041 325.065 172.912 323.154 170.727C322.062 169.442 319.058 167.643 316.737 166.615C314.006 165.586 311.275 163.016 309.637 160.06C305.95 153.377 301.581 150.035 295.3 149.136C288.746 148.108 288.746 148.108 287.79 141.553C287.244 138.083 285.879 135.641 283.967 134.356C280.827 132.556 280.827 132.556 280.827 139.882C280.827 146.18 280.281 147.593 276.867 150.935C274.683 152.991 272.225 154.662 271.406 154.662C270.587 154.662 269.904 155.305 269.904 155.947C269.904 157.49 272.225 157.618 273.181 156.076C274.546 154.148 279.325 156.076 282.192 159.546C285.469 163.402 285.879 171.37 282.875 171.37C281.646 171.37 280.827 172.527 280.827 174.069C280.827 176.511 281.373 176.382 286.288 172.141C290.248 168.799 292.979 167.514 296.392 167.514ZM249.423 165.972C249.423 163.53 248.331 163.659 244.235 166.615C242.869 167.643 242.869 168.157 244.098 168.928C246.556 170.342 249.423 168.799 249.423 165.972ZM267.583 107.366C269.631 107.109 271.269 106.338 271.269 105.696C271.269 105.053 272.498 104.539 274 104.539C275.638 104.539 276.731 103.639 276.731 102.225C276.731 100.94 279.735 98.3698 284.24 95.7994C289.975 92.5864 291.75 90.7871 291.75 88.4737C291.75 86.8029 293.252 83.2044 295.163 80.6339C300.352 73.3082 300.625 70.8663 296.392 62.898C290.658 51.8452 286.698 48.2466 279.188 47.2184L272.635 46.4473V53.6445C272.635 59.942 272.362 60.8417 269.904 60.8417C268.402 60.8417 267.173 61.7413 267.173 62.7695C267.173 65.9825 262.394 73.5653 260.346 73.6938C259.254 73.6938 257.342 75.6216 256.25 77.935C255.021 80.5054 252.973 82.1762 251.198 82.4332C247.102 82.9473 247.238 84.4896 251.471 86.2889C254.202 87.4455 254.885 88.7308 254.885 92.3294C254.885 96.442 254.612 96.8276 250.788 96.8276C247.785 96.8276 246.692 97.4702 246.692 99.141C246.829 101.968 258.981 109.937 261.712 108.909C262.804 108.394 265.398 107.752 267.583 107.366Z" fill="black"/>
<path d="M128.587 136.669C127.221 135.255 125.037 134.098 123.535 134.098C121.76 134.098 121.077 133.199 121.077 130.885C121.077 128.186 120.394 127.672 116.981 127.672C114.796 127.672 112.885 127.158 112.885 126.387C112.885 125.744 111.929 125.102 110.837 125.102C109.198 125.102 108.788 123.303 108.788 116.105C108.788 107.237 108.788 107.109 112.338 107.109C114.387 107.109 119.848 107.751 124.627 108.651C132.41 109.936 133.365 110.45 133.365 113.149C133.365 115.206 134.185 116.105 136.096 116.105C138.281 116.105 138.827 117.005 138.827 120.347C138.827 123.303 139.919 125.616 142.24 127.672C147.292 132.171 146.746 134.612 140.465 135.126C136.369 135.384 134.594 134.741 132.137 132.299C130.362 130.5 128.177 129.472 127.085 129.857C125.719 130.371 125.173 129.472 125.173 126.516C125.173 122.917 124.9 122.66 121.213 123.303C117.527 124.074 117.254 123.688 115.069 117.905C113.84 114.563 113.021 111.736 113.294 111.479C113.431 111.35 116.981 111.864 121.213 112.507C128.177 113.792 128.723 114.178 128.177 116.876C127.631 119.447 128.177 119.961 131.181 119.961C134.458 119.961 134.731 120.218 133.229 122.66C132 124.973 132.41 126.001 136.233 129.729C141.831 135.126 143.06 134.355 138.281 128.315C136.233 125.873 134.731 122.788 135.004 121.632C135.277 120.09 134.321 119.19 132.273 118.933C129.542 118.547 129.133 117.905 129.815 115.334C130.771 111.736 128.587 110.579 118.073 109.294C112.338 108.523 111.519 108.78 111.519 110.707C111.519 112.635 115.342 124.973 116.298 126.13C116.435 126.259 118.21 125.873 120.258 125.102C123.944 123.817 123.944 123.817 122.988 128.572C122.169 132.942 122.306 133.199 125.037 132.428C127.085 131.913 128.996 132.556 130.771 134.227C132.546 135.898 135.277 136.669 139.51 136.669C142.923 136.669 145.654 137.311 145.654 137.954C145.654 138.725 142.377 139.239 138.417 139.239C132.819 139.239 130.498 138.597 128.587 136.669Z" fill="#F9C8BA"/>
<path d="M215.971 215.709C214.06 214.038 212.558 213.139 212.558 213.781C212.558 214.552 211.329 213.91 209.827 212.496C207.779 210.568 206.413 210.183 204.502 211.082C202.727 211.982 200.952 211.725 197.812 209.926C195.49 208.512 187.162 204.785 179.515 201.443C168.456 196.688 164.223 194.118 159.581 189.234C156.44 185.892 152.617 182.679 151.115 182.294C147.975 181.394 144.971 172.14 143.606 159.545C142.787 152.091 143.06 150.806 145.244 149.521C147.565 148.107 147.429 148.107 144.971 149.007C143.469 149.521 135.14 150.163 126.538 150.549C111.11 151.063 110.837 151.063 113.158 148.621C116.571 145.023 116.298 144.38 110.837 144.38C106.467 144.38 91.7211 140.267 89.9461 138.596C89.5365 138.211 90.4923 136.926 92.2673 135.898C95.2711 133.841 95.1346 133.841 87.3519 130.371C82.9827 128.443 78.4769 125.744 77.3846 124.459C76.2923 123.045 76.0192 122.403 76.8384 122.917C77.6577 123.302 80.6615 124.074 83.3923 124.331L88.4442 124.973L84.8942 120.989C81.2077 116.876 73.2885 102.996 73.2885 100.683C73.2885 99.7831 74.1077 99.6546 75.6096 100.554C77.7942 101.582 78.0673 100.811 78.0673 91.8148C78.0673 83.3324 78.6135 80.8905 82.5731 73.6933C90.2192 59.1704 90.6288 58.9134 105.648 58.9134C117.254 58.9134 118.483 59.0419 117.937 61.0982C116.981 64.3113 119.302 80.3764 121.213 84.3606C122.988 88.0877 124.763 87.8306 126.538 83.4609C127.494 81.2761 127.767 81.9187 127.767 86.2884C127.904 92.3289 131.317 99.9116 133.365 98.7549C134.185 98.2408 134.731 96.9556 134.867 95.799C134.867 94.6423 135.687 96.4416 136.642 99.7831C137.598 103.253 139.51 106.98 140.738 108.137C142.787 110.065 142.923 109.936 142.923 107.109C143.06 104.024 143.06 104.024 144.562 106.466C145.381 107.88 148.931 112.25 152.208 116.105C157.533 122.146 158.352 122.66 157.669 119.575C157.123 117.005 158.488 113.149 162.175 106.081L167.5 96.1845V101.711C167.5 104.667 168.183 107.109 168.865 107.109C169.685 107.109 170.231 106.723 170.231 106.209C170.367 104.538 186.888 88.4732 192.213 84.8747C198.904 80.1194 200.269 80.5049 195.217 85.6458C190.575 90.4011 186.615 95.6704 186.615 97.2127C186.615 97.8553 189.073 96.5701 191.94 94.3852C199.313 88.8588 211.738 83.718 219.248 83.0754L225.529 82.4328L221.023 85.1317C218.565 86.6739 216.108 87.8306 215.562 87.8306C214.879 87.8306 212.967 89.3729 211.056 91.1722L207.779 94.6423L211.192 93.7426C221.706 90.9151 234.677 89.887 242.187 91.4292C246.419 92.2004 250.242 92.7144 250.515 92.3289C251.335 91.6863 246.01 89.6299 240.821 88.4732L236.998 87.7021L241.094 83.2039C243.415 80.762 245.327 77.4204 245.463 75.8782C245.463 73.1792 245.6 73.1792 246.829 76.1352C248.058 78.9627 248.331 79.0912 250.242 77.2919C251.335 76.2637 253.11 72.5366 254.065 69.0666C255.84 63.0261 255.977 62.8975 256.933 66.3676L257.888 69.8377L260.346 65.725C261.575 63.4116 263.213 59.556 263.76 57.2426C264.579 53.2585 264.852 53.1299 266.627 55.3148C268.538 57.3711 268.675 56.8571 268.129 50.174L267.583 42.7197L278.506 43.1053C288.883 43.4909 289.565 43.6194 293.115 47.732C298.987 54.5437 304.038 65.2109 304.038 71.1229C304.038 76.1352 300.079 85.5173 297.212 87.188C296.529 87.5736 295.846 88.8588 295.846 89.887C295.846 91.3007 296.665 91.5578 298.577 91.0437C303.765 89.5014 301.308 91.8148 290.794 98.2408C280.144 104.795 280.144 104.924 291.75 102.482C293.798 102.096 294.617 102.225 293.798 102.996C291.75 104.795 281.1 108.394 277.687 108.523C276.048 108.523 275.502 108.908 276.458 109.294C279.462 110.45 278.233 111.864 274.683 111.221C272.771 110.964 268.129 111.993 264.169 113.535C258.162 115.977 256.933 116.105 255.704 114.563C254.885 113.535 251.744 111.093 248.74 109.037L243.279 105.181L249.696 111.993C259.527 122.403 263.213 130.628 264.169 143.866C264.715 153.89 265.125 154.919 267.992 155.947C270.177 156.846 272.362 156.589 274.956 155.176L278.779 153.248L274.41 154.019C270.45 154.79 269.904 154.533 269.904 152.22C269.904 150.806 271.679 147.85 274 145.665C277.55 142.195 277.823 141.424 276.594 137.954C275.775 135.898 274.546 134.098 273.863 134.098C273.181 134.098 272.635 132.942 272.635 131.656C272.635 127.415 279.598 126.387 286.425 129.6C291.34 132.042 293.525 136.669 291.75 141.167C290.658 143.994 290.794 144.38 293.252 144.38C294.754 144.38 295.71 144.894 295.3 145.408C295.027 145.922 296.802 146.179 299.396 145.922C305.131 145.28 310.456 149.392 314.279 157.361C315.644 160.06 317.146 162.373 317.556 162.501C325.338 163.401 330.254 168.285 329.708 174.711C329.298 181.008 326.567 182.808 322.744 179.338C319.058 175.996 312.094 173.426 311.002 174.968C308.271 178.695 294.89 177.024 296.392 173.169C298.167 168.67 291.204 174.711 279.188 187.949C266.763 201.829 266.49 201.957 263.896 199.644C261.438 197.331 261.438 196.945 263.35 194.889C267.446 190.519 271.269 181.78 271.269 176.896L271.133 172.012L268.538 178.952C265.398 187.306 260.619 193.989 254.885 198.23C252.427 199.901 250.788 202.471 250.788 204.142C250.788 207.869 248.604 209.412 242.187 210.311C239.319 210.697 234.677 212.882 231.81 214.938C225.392 219.693 220.34 219.95 215.971 215.709ZM230.308 210.568C232.902 208.769 237.271 206.97 240.138 206.584C244.644 205.813 244.917 205.556 243.142 203.885C240.548 201.315 241.367 199.13 245.19 198.616C246.829 198.359 249.15 196.56 250.379 194.76C251.608 192.832 253.656 190.133 255.021 188.72C256.25 187.306 257.615 183.836 258.025 181.008C258.844 176.125 258.844 176.125 257.342 179.723C255.567 184.35 252.154 188.206 250.788 187.435C250.242 187.049 247.921 187.692 245.873 188.72C240.138 191.547 235.087 191.033 230.854 187.435C228.806 185.635 226.348 184.221 225.392 184.221C221.979 184.221 218.975 190.648 218.292 199.515C217.337 213.524 221.023 216.994 230.308 210.568ZM276.731 176.639C276.731 172.783 272.225 166.229 270.587 167.771C270.04 168.285 270.86 170.213 272.498 172.14C274 174.068 275.365 176.639 275.365 177.924C275.365 179.338 275.638 180.366 276.048 180.366C276.458 180.366 276.731 178.695 276.731 176.639ZM208.598 175.225C214.06 172.398 210.373 158.774 202.044 151.449C197.265 147.336 195.217 147.336 193.169 151.449C190.848 156.332 194.125 168.285 198.904 172.912C203.137 176.896 204.638 177.153 208.598 175.225ZM249.833 175.096C251.744 174.325 254.065 172.269 255.021 170.598C255.977 168.799 257.615 167.771 258.571 168.028C260.892 168.927 260.892 166.743 258.571 164.815C257.342 163.658 256.933 160.831 257.342 155.947C258.025 147.079 253.929 138.082 249.287 137.954C247.512 137.954 246.965 143.737 247.921 149.906C249.013 155.69 248.74 156.204 245.463 157.746C243.552 158.774 240.821 160.702 239.456 162.116C237.954 163.658 235.906 164.429 234.267 164.044C230.717 163.144 225.392 166.614 222.662 171.755L220.34 175.868L225.392 171.112C228.26 168.542 231.673 166.229 233.175 165.843C235.633 165.2 235.769 165.586 235.087 168.799C234.404 171.883 234.813 172.783 238.09 174.454C242.733 176.767 245.463 177.024 249.833 175.096ZM278.779 164.172C276.731 161.088 271.269 158.132 270.04 159.288C269.631 159.674 271.815 161.987 274.819 164.686C280.554 169.699 282.602 169.57 278.779 164.172ZM180.608 130.243C181.563 122.66 185.387 116.105 189.073 115.977C190.712 115.977 190.575 115.591 188.39 114.82C184.84 113.535 177.194 115.463 176.921 117.776C176.785 118.676 176.648 124.074 176.512 129.857C176.375 138.211 176.785 140.139 178.013 138.854C178.969 137.954 180.062 134.098 180.608 130.243ZM144.288 134.998C140.192 131.913 134.594 123.817 135.004 121.632C135.277 120.089 134.321 119.19 132.273 118.933C129.542 118.547 129.133 117.905 129.815 115.334C130.771 111.736 128.587 110.579 117.8 109.165L111.11 108.394L112.065 113.278C112.612 115.848 113.294 118.676 113.431 119.318C113.704 120.089 114.387 121.889 114.933 123.56C116.025 126.901 115.752 126.773 120.394 125.102C123.944 123.817 123.944 123.945 122.988 128.572C122.169 132.942 122.306 133.199 125.037 132.427C127.085 131.913 128.996 132.556 130.771 134.227C132.546 135.898 135.277 136.669 139.919 136.669C145.108 136.54 145.927 136.283 144.288 134.998ZM243.962 112.764C239.319 106.595 235.36 105.567 234.677 110.579C234.267 112.764 234.813 113.149 236.862 112.635C238.5 112.25 240.821 113.278 243.006 115.334C248.331 120.346 248.74 119.318 243.962 112.764ZM240.685 98.6264C239.046 97.5982 235.087 96.8271 231.127 96.9556L224.163 97.0842L230.99 98.6264C234.813 99.3975 239.046 100.169 240.548 100.297C243.279 100.554 243.279 100.554 240.685 98.6264Z" fill="white"/>
<rect x="1.5" y="1.5" width="402" height="387" rx="18.5" fill="#FDFFEF" stroke="black" stroke-width="3"/>
<path d="M134.048 364.794C131.044 363.766 127.631 361.838 126.265 360.296C125.037 358.882 123.125 357.725 122.033 357.725C121.077 357.725 119.029 356.569 117.8 355.284C115.615 353.099 115.615 352.071 116.981 347.829C120.94 336.52 124.627 333.692 155.212 318.784C164.906 314.157 165.588 313.386 170.504 304.646C179.515 288.453 182.792 281.769 182.246 281.127C181.837 280.87 179.652 281.255 177.331 282.027C172.552 283.569 166.408 281.255 162.994 276.757C161.356 274.572 160.673 274.444 156.987 275.729C151.525 277.657 144.835 275.215 141.421 269.817C138.417 265.062 138.281 262.491 140.875 255.551C142.104 252.21 142.377 250.282 141.421 249.896C136.642 248.354 133.092 243.599 132.956 238.458C132.819 235.502 132.273 233.06 131.727 233.06C130.635 233.06 130.088 237.944 130.635 242.442C130.908 245.912 126.675 249.768 122.442 249.768C118.483 249.768 112.202 244.884 110.837 240.643C110.29 238.972 108.652 238.201 106.058 238.201C101.142 238.201 96.5 232.931 96.5 227.405C96.5 222.65 100.869 214.167 105.102 210.697C106.74 209.412 108.242 206.842 108.379 205.171C108.515 203.372 109.608 200.93 110.7 199.773C113.704 196.56 113.431 195.789 108.652 194.247C95.6807 190.005 101.142 168.799 115.206 168.799C119.165 168.799 120.121 169.442 121.76 173.169C124.217 178.567 125.992 179.724 131.454 179.21C133.912 179.081 136.642 179.724 137.871 180.88C140.329 183.194 145.654 183.708 145.654 181.652C145.654 180.88 144.698 178.439 143.333 176.125C142.104 173.683 141.012 168.157 140.738 162.502C140.465 157.361 140.056 152.863 139.783 152.477C139.373 152.22 136.642 152.606 133.502 153.248C129.815 154.019 124.354 154.019 118.346 153.12L108.925 151.835L112.612 148.622L116.298 145.537L110.427 146.437C105.375 147.079 103.054 146.565 95.5442 143.095L86.5327 138.854L90.4923 136.926L94.4519 134.998L91.0384 134.099C84.8942 132.556 79.0231 129.086 76.1558 125.231L73.2884 121.504L78.8865 123.431C82.0269 124.331 84.8942 124.845 85.3038 124.46C85.7135 124.074 84.2115 121.889 81.7538 119.576C77.6577 115.592 70.5577 102.997 70.5577 99.6551C70.5577 98.4984 71.5134 98.4984 74.6538 100.041C78.75 102.097 80.1154 101.197 77.2481 98.4984C76.2923 97.5987 75.7461 93.229 75.7461 88.2167C75.8827 77.935 79.9788 68.81 87.4885 61.7413C92.6769 56.729 101.552 54.8012 111.246 56.3434C119.438 57.6286 119.848 58.1427 121.077 71.766C122.306 85.2607 124.081 89.2448 126.538 83.4614C127.221 81.5336 127.904 78.4491 127.904 76.5213C128.04 73.4367 128.177 73.3082 129.406 75.3646C130.225 76.6498 130.635 79.4772 130.498 81.7906C129.952 86.8029 131.863 98.1128 133.092 98.1128C133.638 98.1128 135.004 95.9279 136.369 93.229L138.554 88.4737L138.69 94.5142C138.827 102.354 141.148 108.394 143.06 105.824C144.152 104.282 145.244 104.796 149.067 108.652C151.798 111.35 154.665 113.535 155.758 113.535C158.488 113.535 161.902 104.41 163.404 94.0001C163.95 89.1163 164.769 84.7466 165.179 84.4896C165.452 84.104 166.271 89.2448 166.817 95.7994L167.773 107.752L170.504 104.539C171.869 102.74 174.463 99.6551 176.102 97.5987C181.154 91.1727 190.712 82.9473 196.856 79.4772C203.273 76.0072 208.598 74.979 203 78.3205C199.86 80.2484 192.487 87.9596 186.888 95.4139C185.66 97.2132 182.246 100.812 179.515 103.639C176.648 106.467 174.327 109.166 174.327 109.808C174.327 110.451 172.552 110.965 170.367 110.965C165.452 110.965 162.038 115.463 162.038 121.889C162.038 126.13 161.765 126.387 157.669 126.259C153.983 126.259 152.344 125.102 147.975 119.833C145.244 116.363 141.831 113.535 140.465 113.535C139.1 113.535 137.325 112.893 136.369 111.993C135.14 110.836 134.731 110.965 134.731 112.507C134.731 113.664 135.96 114.821 137.462 115.206C139.1 115.592 140.192 117.005 140.192 118.676C140.192 121.632 144.971 128.829 147.975 130.629C148.931 131.143 149.75 133.713 149.75 136.027V140.525H139.783C133.092 140.525 128.86 139.882 127.085 138.597C125.719 137.569 123.125 136.669 121.487 136.669C119.029 136.669 118.346 135.898 118.346 133.456C118.346 131.014 117.663 130.243 115.206 130.243C112.612 130.243 111.656 129.086 109.744 123.431C108.515 119.576 107.423 113.792 107.423 110.322V104.153L117.254 105.053C122.579 105.439 128.45 106.21 130.225 106.595C132.137 107.109 133.365 106.852 133.365 105.824C133.365 105.053 132.137 104.025 130.635 103.639C127.767 102.868 123.808 97.2132 123.808 93.6146C123.808 92.5864 122.715 91.6867 121.35 91.6867C117.8 91.6867 115.752 86.6744 114.113 74.4649C113.294 68.81 112.475 63.9262 112.202 63.5406C111.792 63.2836 108.242 63.0265 104.146 62.898C95.4077 62.898 93.6327 64.3117 86.6692 77.5494C82.7096 84.7466 82.1634 86.9315 82.4365 94.5142C82.5731 99.5265 82.1635 103.254 81.3442 103.254C79.7058 103.254 84.4846 112.122 88.9904 117.134C90.9019 119.19 92.4038 122.532 92.4038 124.331C92.4038 126.773 93.2231 127.801 95.8173 128.444C98.4115 129.086 99.2308 130.115 99.2308 132.942C99.2308 137.44 102.371 139.24 112.338 140.139C119.029 140.782 119.712 141.167 119.712 144.123C119.712 147.208 119.848 147.208 128.313 146.565C132.956 146.18 140.056 145.409 144.015 144.894L151.115 143.995V148.75C151.115 151.321 150.569 153.377 149.75 153.377C145.517 153.377 150.706 177.153 155.212 178.439C156.713 178.824 160.537 182.037 163.677 185.379C168.319 190.262 172.552 192.833 183.885 197.717C191.804 201.058 198.904 204.271 199.587 204.785C200.406 205.299 203.819 206.071 207.233 206.328L213.65 206.97L214.196 196.946C215.015 183.708 217.337 180.366 225.529 180.366C230.035 180.366 232.356 181.137 233.994 182.937C236.588 185.764 239.865 186.15 243.688 184.35C244.917 183.708 247.238 182.68 248.74 182.166C250.788 181.394 249.423 181.009 243.962 180.366C235.906 179.595 230.308 177.282 230.308 174.84C230.308 174.069 229.352 174.711 228.123 176.254C226.621 178.181 224.71 179.081 221.296 179.081C217.063 179.081 216.654 178.824 216.654 175.225C216.654 167.257 223.344 159.803 230.444 159.803C232.356 159.803 235.087 158.646 236.452 157.233C237.817 155.819 240.002 154.405 241.367 154.019C243.552 153.377 243.825 152.349 243.142 148.236C242.596 145.409 242.733 141.167 243.142 138.597C244.098 134.356 244.371 134.099 249.423 134.099C252.563 134.099 255.567 134.998 257.069 136.284C259.254 138.34 259.254 138.34 258.298 135.384C257.752 133.585 255.977 129.986 254.475 127.416C252.154 123.303 250.925 122.532 247.375 122.532C244.917 122.532 241.367 121.375 239.456 119.961C237.544 118.548 234.677 117.391 233.038 117.391C230.308 117.391 230.035 116.877 230.581 110.322L230.99 103.125L225.938 102.354C222.115 101.84 220.75 101.069 220.75 99.2695C220.75 97.2132 219.931 97.0846 213.923 97.7272C207.233 98.4984 207.096 98.3698 207.096 95.1568V91.6867L202.317 93.8716C199.723 95.0283 197.538 96.442 197.538 97.0846C197.538 97.5987 195.217 98.1128 192.487 98.1128L187.298 97.9843L193.442 92.8434C202.317 85.2607 211.602 81.2765 221.296 80.5054L229.625 79.9913L223.208 83.847C219.521 86.0318 216.108 87.8311 215.288 87.8311C213.787 87.8311 208.188 93.229 209.008 93.8716C209.281 94.1286 211.875 93.486 214.606 92.4579C217.473 91.3012 223.071 90.016 227.031 89.6304C233.585 88.8593 234.813 88.2167 239.183 82.9473C241.777 79.7343 243.962 75.6216 244.098 73.8223L244.235 70.4808L245.737 74.0793C246.556 76.0072 247.648 77.5494 248.194 77.5494C248.74 77.5494 250.379 74.0794 251.744 69.8382C253.792 63.1551 254.338 62.3839 255.84 64.1832C258.435 67.5248 260.21 65.2114 261.165 56.8575L262.121 49.1463L264.715 52.7448L267.446 56.3434L266.627 51.2026C266.217 48.3751 265.671 44.9051 265.535 43.4913C265.125 41.0494 265.944 40.9209 276.048 40.9209C289.429 40.9209 293.252 43.1058 300.762 54.6727C304.721 60.7132 306.087 64.4403 306.496 69.8382C307.042 76.6498 306.769 77.2924 301.308 83.847C298.167 87.5741 295.983 90.9156 296.392 91.3012C296.665 91.6867 298.85 91.0441 301.171 90.016L305.267 88.0882L302.537 91.4297C301.035 93.3575 297.758 96.3135 295.163 98.1128C289.702 101.84 289.156 103.382 293.525 102.225C296.256 101.583 296.392 101.711 294.617 103.768C291.887 106.852 285.742 109.68 281.51 109.68C277.687 109.68 277.14 110.836 279.871 113.407C281.237 114.692 280.827 114.692 277.687 113.407C274.41 111.993 273.181 112.122 268.675 114.564C265.808 116.106 262.394 117.391 261.165 117.391C258.435 117.391 258.435 118.548 260.756 121.889C264.306 126.644 266.217 133.456 267.173 143.095C267.992 152.349 267.992 152.606 269.767 148.879C271.815 144.38 276.048 140.268 277.413 141.553C277.96 142.067 277.413 140.91 276.048 138.854C274.819 136.926 274.273 135.384 274.819 135.384C275.502 135.384 274.956 134.741 273.727 133.97C267.583 130.629 274.546 124.331 282.602 125.745C290.658 127.159 293.798 131.143 293.115 138.854C292.842 142.196 296.938 144.509 301.035 143.481C302.673 143.095 305.54 143.738 307.452 144.894C311.685 147.465 318.238 158.004 317.146 160.574C316.737 161.602 316.873 162.116 317.692 161.731C318.512 161.345 319.058 161.474 319.058 162.116C319.058 162.887 320.287 163.144 321.788 162.759C323.563 162.373 325.748 163.402 328.615 165.972C333.394 170.599 334.213 177.41 330.254 180.752C327.523 183.065 321.925 182.68 319.74 179.981C318.238 178.053 313.05 175.225 311.275 175.225C310.729 175.225 311.002 175.74 311.958 176.254C313.187 177.025 311.821 177.924 308.135 179.081C303.083 180.623 301.99 180.623 297.621 178.439C292.979 175.997 292.706 175.997 290.931 178.31C289.975 179.595 287.108 182.808 284.65 185.379C282.192 187.949 277.14 193.347 273.59 197.46L267.037 204.914L268.538 211.983C269.904 218.28 269.767 219.565 267.446 224.064C265.944 226.891 265.398 229.204 266.081 229.204C268.812 229.204 273.044 241.414 273.181 249.125C273.181 256.065 272.225 258.636 263.487 275.472C258.162 285.754 252.154 296.549 250.106 299.634L246.556 305.032H255.84C260.892 305.032 270.04 303.747 276.048 302.333C291.34 298.606 296.119 298.477 297.894 302.076C298.577 303.618 300.898 305.674 303.083 306.446C308.544 308.63 312.231 314.157 312.231 320.326C312.231 324.567 311.412 326.366 307.588 329.965C304.994 332.407 300.488 335.106 297.621 335.877C294.754 336.777 291.887 337.933 291.067 338.447C285.606 342.303 252.427 343.588 237.817 340.504C230.581 338.961 218.702 335.363 212.421 332.792C210.51 332.021 210.1 332.921 209.554 338.19C209.144 341.917 207.642 346.287 205.867 348.6C202.181 353.356 182.383 362.866 175.965 362.866C173.644 362.866 168.183 363.766 163.813 364.794C154.119 367.236 141.285 367.236 134.048 364.794ZM158.352 358.368C164.633 357.597 164.769 357.468 164.769 353.099C164.769 348.986 165.042 348.729 169.548 348.729C173.781 348.729 174.327 349.115 174.327 352.071C174.327 355.155 174.737 355.412 178.56 354.641C180.881 354.255 186.342 351.814 190.712 349.372C196.446 346.03 199.04 343.588 200.952 339.604C203.546 334.335 203.546 334.335 200.542 332.021C194.671 327.523 196.173 321.483 210.1 296.035C222.388 273.287 222.662 272.902 227.031 272.902C230.717 272.902 231.537 273.416 231.946 275.858L232.356 278.942L239.865 277.014C245.737 275.472 249.013 273.416 255.021 267.889C264.715 258.764 268.265 250.153 265.671 242.185C264.033 237.044 263.896 236.916 257.752 236.916C254.338 236.916 250.242 236.016 248.877 234.988C245.054 232.289 238.91 232.546 237.954 235.373C237.544 236.53 236.588 240.386 235.769 243.984C233.585 252.981 232.765 253.623 221.842 253.623C212.421 253.623 212.148 253.495 206.823 248.483C203.819 245.655 201.088 243.342 200.815 243.342C200.542 243.342 200.269 245.012 200.269 247.069C200.269 250.025 198.904 251.953 194.125 255.68C187.162 260.949 185.796 266.218 190.848 267.375C196.31 268.789 193.715 278.428 181.427 301.947C172.688 318.655 169.685 323.025 167.637 323.025C166.135 323.025 163.267 323.667 161.356 324.567L157.669 326.109L162.994 327.523C167.773 328.808 168.183 329.322 168.592 333.821L169.002 338.704L155.621 337.805C148.248 337.291 141.967 336.52 141.558 335.877C141.148 335.363 137.871 336.391 134.048 337.933C128.177 340.504 127.767 341.018 131.044 341.018C134.321 341.018 134.731 341.403 134.731 345.645C134.731 348.086 134.048 351.428 133.229 352.842C132.273 354.512 132.273 355.926 133.092 356.697C134.458 357.983 146.61 360.167 149.75 359.653C150.842 359.396 154.665 358.882 158.352 358.368ZM275.365 335.106C280.008 334.335 280.144 334.206 279.735 329.322L279.188 324.31H285.333C289.975 324.31 291.887 324.953 293.252 327.009L295.163 329.708L298.987 326.88C305.95 321.74 306.223 319.555 300.625 314.542C296.938 311.329 294.344 310.173 291.067 310.173C288.61 310.173 286.288 309.53 286.015 308.759C285.606 307.731 283.967 307.731 280.144 308.63C277.14 309.402 268.948 310.43 262.121 310.944C254.065 311.458 248.877 312.486 247.921 313.514C247.102 314.542 243.962 315.314 241.094 315.314C236.042 315.314 235.769 315.056 235.769 311.458C235.769 307.474 239.456 299.634 244.235 293.208L246.829 289.609H238.227H229.625L220.477 306.831C210.373 325.724 210.373 325.081 220.75 328.551C238.227 334.335 261.985 337.162 275.365 335.106ZM177.058 272.13C176.238 270.331 175.692 265.062 175.692 260.564C175.692 252.724 175.965 251.953 180.062 248.354C182.519 246.298 185.113 244.627 185.933 244.498C187.298 244.498 164.769 239.615 160.673 239.1C159.444 238.972 158.488 240.514 157.806 243.856C156.987 248.483 155.348 250.539 149.34 254.266C145.381 256.708 145.381 260.821 149.204 265.062C153.71 270.203 154.938 270.074 156.031 264.548C156.85 260.435 157.26 260.049 161.492 260.049C165.588 260.049 166.135 260.435 166.135 263.391C166.135 269.303 171.05 275.343 175.965 275.472C178.013 275.472 178.15 274.958 177.058 272.13ZM126.538 227.534C128.177 224.449 129.133 223.935 133.229 224.321C138.008 224.706 138.144 224.835 138.554 230.49C138.963 236.916 141.148 242.056 143.606 242.056C144.698 242.056 144.971 239.615 144.562 234.474C143.879 226.377 144.835 223.806 151.388 216.224C156.85 209.798 157.806 202.472 153.983 196.689C149.887 190.391 146.063 188.463 139.237 189.106C134.185 189.62 133.365 190.005 133.365 192.704C133.365 198.745 130.498 202.215 125.583 202.215C121.213 202.215 121.077 202.086 121.077 197.203C121.077 189.363 122.033 188.078 128.177 188.078C132.956 188.078 133.502 187.821 132 186.15C131.044 185.122 128.04 184.222 125.31 184.222C119.165 184.222 117.527 183.194 115.752 178.696C114.113 174.711 111.929 175.097 110.29 179.595C108.925 182.808 111.656 188.72 115.615 190.648C120.667 193.218 118.483 206.199 111.519 214.424C107.423 219.308 105.921 222.136 109.062 219.18C110.017 218.28 112.748 217.637 115.206 217.637C119.438 217.637 119.712 217.895 119.712 221.879C119.712 224.064 118.756 227.148 117.663 228.433C115.206 231.389 116.162 235.116 120.258 239.229L123.125 242.314L123.944 236.659C124.354 233.703 125.583 229.461 126.538 227.534ZM224.163 237.944C224.846 235.245 224.71 233.703 223.617 233.317C222.798 233.06 222.115 231.132 222.115 229.076C222.115 225.991 221.569 225.349 218.975 225.349C217.2 225.349 214.606 224.449 213.104 223.421C208.188 219.951 207.096 220.979 209.281 227.02C211.056 231.903 219.931 242.056 222.252 242.056C222.798 242.056 223.754 240.257 224.163 237.944ZM196.992 231.004C196.583 229.847 196.173 226.377 196.173 223.292V217.509L181.7 211.211C173.781 207.613 167.09 204.785 166.817 204.785C166.544 204.785 166.135 208.384 165.862 212.882C165.588 217.252 164.906 221.75 164.36 222.907C163.131 225.349 166.954 227.148 180.471 230.49C192.896 233.574 198.085 233.831 196.992 231.004ZM260.483 209.412C259.663 207.613 258.435 206.071 257.615 206.071C255.294 206.071 256.113 210.954 258.571 212.368C261.712 214.039 262.121 213.525 260.483 209.412ZM265.808 166.615C265.808 162.887 265.398 159.803 264.852 159.803C264.169 159.803 263.76 163.53 263.76 168.028C263.76 172.655 264.169 175.611 264.715 174.84C265.262 173.94 265.808 170.213 265.808 166.615ZM296.392 167.514C299.806 167.514 301.171 168.157 301.717 170.085C302.4 172.784 306.769 173.683 306.769 171.241C306.769 169.571 317.556 170.213 322.471 172.141C324.929 173.041 325.065 172.912 323.154 170.727C322.062 169.442 319.058 167.643 316.737 166.615C314.006 165.586 311.275 163.016 309.637 160.06C305.95 153.377 301.581 150.035 295.3 149.136C288.746 148.108 288.746 148.108 287.79 141.553C287.244 138.083 285.879 135.641 283.967 134.356C280.827 132.556 280.827 132.556 280.827 139.882C280.827 146.18 280.281 147.593 276.867 150.935C274.683 152.991 272.225 154.662 271.406 154.662C270.587 154.662 269.904 155.305 269.904 155.947C269.904 157.49 272.225 157.618 273.181 156.076C274.546 154.148 279.325 156.076 282.192 159.546C285.469 163.402 285.879 171.37 282.875 171.37C281.646 171.37 280.827 172.527 280.827 174.069C280.827 176.511 281.373 176.382 286.288 172.141C290.248 168.799 292.979 167.514 296.392 167.514ZM249.423 165.972C249.423 163.53 248.331 163.659 244.235 166.615C242.869 167.643 242.869 168.157 244.098 168.928C246.556 170.342 249.423 168.799 249.423 165.972ZM267.583 107.366C269.631 107.109 271.269 106.338 271.269 105.696C271.269 105.053 272.498 104.539 274 104.539C275.638 104.539 276.731 103.639 276.731 102.225C276.731 100.94 279.735 98.3698 284.24 95.7994C289.975 92.5864 291.75 90.7871 291.75 88.4737C291.75 86.8029 293.252 83.2044 295.163 80.6339C300.352 73.3082 300.625 70.8663 296.392 62.898C290.658 51.8452 286.698 48.2466 279.188 47.2184L272.635 46.4473V53.6445C272.635 59.942 272.362 60.8417 269.904 60.8417C268.402 60.8417 267.173 61.7413 267.173 62.7695C267.173 65.9825 262.394 73.5653 260.346 73.6938C259.254 73.6938 257.342 75.6216 256.25 77.935C255.021 80.5054 252.973 82.1762 251.198 82.4332C247.102 82.9473 247.238 84.4896 251.471 86.2889C254.202 87.4455 254.885 88.7308 254.885 92.3294C254.885 96.442 254.612 96.8276 250.788 96.8276C247.785 96.8276 246.692 97.4702 246.692 99.141C246.829 101.968 258.981 109.937 261.712 108.909C262.804 108.394 265.398 107.752 267.583 107.366Z" fill="black"/>
<path d="M128.587 136.669C127.221 135.255 125.037 134.098 123.535 134.098C121.76 134.098 121.077 133.199 121.077 130.885C121.077 128.186 120.394 127.672 116.981 127.672C114.796 127.672 112.885 127.158 112.885 126.387C112.885 125.744 111.929 125.102 110.837 125.102C109.198 125.102 108.788 123.303 108.788 116.105C108.788 107.237 108.788 107.109 112.338 107.109C114.387 107.109 119.848 107.751 124.627 108.651C132.41 109.936 133.365 110.45 133.365 113.149C133.365 115.206 134.185 116.105 136.096 116.105C138.281 116.105 138.827 117.005 138.827 120.347C138.827 123.303 139.919 125.616 142.24 127.672C147.292 132.171 146.746 134.612 140.465 135.126C136.369 135.384 134.594 134.741 132.137 132.299C130.362 130.5 128.177 129.472 127.085 129.857C125.719 130.371 125.173 129.472 125.173 126.516C125.173 122.917 124.9 122.66 121.213 123.303C117.527 124.074 117.254 123.688 115.069 117.905C113.84 114.563 113.021 111.736 113.294 111.479C113.431 111.35 116.981 111.864 121.213 112.507C128.177 113.792 128.723 114.178 128.177 116.876C127.631 119.447 128.177 119.961 131.181 119.961C134.458 119.961 134.731 120.218 133.229 122.66C132 124.973 132.41 126.001 136.233 129.729C141.831 135.126 143.06 134.355 138.281 128.315C136.233 125.873 134.731 122.788 135.004 121.632C135.277 120.09 134.321 119.19 132.273 118.933C129.542 118.547 129.133 117.905 129.815 115.334C130.771 111.736 128.587 110.579 118.073 109.294C112.338 108.523 111.519 108.78 111.519 110.707C111.519 112.635 115.342 124.973 116.298 126.13C116.435 126.259 118.21 125.873 120.258 125.102C123.944 123.817 123.944 123.817 122.988 128.572C122.169 132.942 122.306 133.199 125.037 132.428C127.085 131.913 128.996 132.556 130.771 134.227C132.546 135.898 135.277 136.669 139.51 136.669C142.923 136.669 145.654 137.311 145.654 137.954C145.654 138.725 142.377 139.239 138.417 139.239C132.819 139.239 130.498 138.597 128.587 136.669Z" fill="#F9C8BA"/>
<path d="M215.971 215.709C214.06 214.038 212.558 213.139 212.558 213.781C212.558 214.552 211.329 213.91 209.827 212.496C207.779 210.568 206.413 210.183 204.502 211.082C202.727 211.982 200.952 211.725 197.812 209.926C195.49 208.512 187.162 204.785 179.515 201.443C168.456 196.688 164.223 194.118 159.581 189.234C156.44 185.892 152.617 182.679 151.115 182.294C147.975 181.394 144.971 172.14 143.606 159.545C142.787 152.091 143.06 150.806 145.244 149.521C147.565 148.107 147.429 148.107 144.971 149.007C143.469 149.521 135.14 150.163 126.538 150.549C111.11 151.063 110.837 151.063 113.158 148.621C116.571 145.023 116.298 144.38 110.837 144.38C106.467 144.38 91.7211 140.267 89.9461 138.596C89.5365 138.211 90.4923 136.926 92.2673 135.898C95.2711 133.841 95.1346 133.841 87.3519 130.371C82.9827 128.443 78.4769 125.744 77.3846 124.459C76.2923 123.045 76.0192 122.403 76.8384 122.917C77.6577 123.302 80.6615 124.074 83.3923 124.331L88.4442 124.973L84.8942 120.989C81.2077 116.876 73.2885 102.996 73.2885 100.683C73.2885 99.7831 74.1077 99.6546 75.6096 100.554C77.7942 101.582 78.0673 100.811 78.0673 91.8148C78.0673 83.3324 78.6135 80.8905 82.5731 73.6933C90.2192 59.1704 90.6288 58.9134 105.648 58.9134C117.254 58.9134 118.483 59.0419 117.937 61.0982C116.981 64.3113 119.302 80.3764 121.213 84.3606C122.988 88.0877 124.763 87.8306 126.538 83.4609C127.494 81.2761 127.767 81.9187 127.767 86.2884C127.904 92.3289 131.317 99.9116 133.365 98.7549C134.185 98.2408 134.731 96.9556 134.867 95.799C134.867 94.6423 135.687 96.4416 136.642 99.7831C137.598 103.253 139.51 106.98 140.738 108.137C142.787 110.065 142.923 109.936 142.923 107.109C143.06 104.024 143.06 104.024 144.562 106.466C145.381 107.88 148.931 112.25 152.208 116.105C157.533 122.146 158.352 122.66 157.669 119.575C157.123 117.005 158.488 113.149 162.175 106.081L167.5 96.1845V101.711C167.5 104.667 168.183 107.109 168.865 107.109C169.685 107.109 170.231 106.723 170.231 106.209C170.367 104.538 186.888 88.4732 192.213 84.8747C198.904 80.1194 200.269 80.5049 195.217 85.6458C190.575 90.4011 186.615 95.6704 186.615 97.2127C186.615 97.8553 189.073 96.5701 191.94 94.3852C199.313 88.8588 211.738 83.718 219.248 83.0754L225.529 82.4328L221.023 85.1317C218.565 86.6739 216.108 87.8306 215.562 87.8306C214.879 87.8306 212.967 89.3729 211.056 91.1722L207.779 94.6423L211.192 93.7426C221.706 90.9151 234.677 89.887 242.187 91.4292C246.419 92.2004 250.242 92.7144 250.515 92.3289C251.335 91.6863 246.01 89.6299 240.821 88.4732L236.998 87.7021L241.094 83.2039C243.415 80.762 245.327 77.4204 245.463 75.8782C245.463 73.1792 245.6 73.1792 246.829 76.1352C248.058 78.9627 248.331 79.0912 250.242 77.2919C251.335 76.2637 253.11 72.5366 254.065 69.0666C255.84 63.0261 255.977 62.8975 256.933 66.3676L257.888 69.8377L260.346 65.725C261.575 63.4116 263.213 59.556 263.76 57.2426C264.579 53.2585 264.852 53.1299 266.627 55.3148C268.538 57.3711 268.675 56.8571 268.129 50.174L267.583 42.7197L278.506 43.1053C288.883 43.4909 289.565 43.6194 293.115 47.732C298.987 54.5437 304.038 65.2109 304.038 71.1229C304.038 76.1352 300.079 85.5173 297.212 87.188C296.529 87.5736 295.846 88.8588 295.846 89.887C295.846 91.3007 296.665 91.5578 298.577 91.0437C303.765 89.5014 301.308 91.8148 290.794 98.2408C280.144 104.795 280.144 104.924 291.75 102.482C293.798 102.096 294.617 102.225 293.798 102.996C291.75 104.795 281.1 108.394 277.687 108.523C276.048 108.523 275.502 108.908 276.458 109.294C279.462 110.45 278.233 111.864 274.683 111.221C272.771 110.964 268.129 111.993 264.169 113.535C258.162 115.977 256.933 116.105 255.704 114.563C254.885 113.535 251.744 111.093 248.74 109.037L243.279 105.181L249.696 111.993C259.527 122.403 263.213 130.628 264.169 143.866C264.715 153.89 265.125 154.919 267.992 155.947C270.177 156.846 272.362 156.589 274.956 155.176L278.779 153.248L274.41 154.019C270.45 154.79 269.904 154.533 269.904 152.22C269.904 150.806 271.679 147.85 274 145.665C277.55 142.195 277.823 141.424 276.594 137.954C275.775 135.898 274.546 134.098 273.863 134.098C273.181 134.098 272.635 132.942 272.635 131.656C272.635 127.415 279.598 126.387 286.425 129.6C291.34 132.042 293.525 136.669 291.75 141.167C290.658 143.994 290.794 144.38 293.252 144.38C294.754 144.38 295.71 144.894 295.3 145.408C295.027 145.922 296.802 146.179 299.396 145.922C305.131 145.28 310.456 149.392 314.279 157.361C315.644 160.06 317.146 162.373 317.556 162.501C325.338 163.401 330.254 168.285 329.708 174.711C329.298 181.008 326.567 182.808 322.744 179.338C319.058 175.996 312.094 173.426 311.002 174.968C308.271 178.695 294.89 177.024 296.392 173.169C298.167 168.67 291.204 174.711 279.188 187.949C266.763 201.829 266.49 201.957 263.896 199.644C261.438 197.331 261.438 196.945 263.35 194.889C267.446 190.519 271.269 181.78 271.269 176.896L271.133 172.012L268.538 178.952C265.398 187.306 260.619 193.989 254.885 198.23C252.427 199.901 250.788 202.471 250.788 204.142C250.788 207.869 248.604 209.412 242.187 210.311C239.319 210.697 234.677 212.882 231.81 214.938C225.392 219.693 220.34 219.95 215.971 215.709ZM230.308 210.568C232.902 208.769 237.271 206.97 240.138 206.584C244.644 205.813 244.917 205.556 243.142 203.885C240.548 201.315 241.367 199.13 245.19 198.616C246.829 198.359 249.15 196.56 250.379 194.76C251.608 192.832 253.656 190.133 255.021 188.72C256.25 187.306 257.615 183.836 258.025 181.008C258.844 176.125 258.844 176.125 257.342 179.723C255.567 184.35 252.154 188.206 250.788 187.435C250.242 187.049 247.921 187.692 245.873 188.72C240.138 191.547 235.087 191.033 230.854 187.435C228.806 185.635 226.348 184.221 225.392 184.221C221.979 184.221 218.975 190.648 218.292 199.515C217.337 213.524 221.023 216.994 230.308 210.568ZM276.731 176.639C276.731 172.783 272.225 166.229 270.587 167.771C270.04 168.285 270.86 170.213 272.498 172.14C274 174.068 275.365 176.639 275.365 177.924C275.365 179.338 275.638 180.366 276.048 180.366C276.458 180.366 276.731 178.695 276.731 176.639ZM208.598 175.225C214.06 172.398 210.373 158.774 202.044 151.449C197.265 147.336 195.217 147.336 193.169 151.449C190.848 156.332 194.125 168.285 198.904 172.912C203.137 176.896 204.638 177.153 208.598 175.225ZM249.833 175.096C251.744 174.325 254.065 172.269 255.021 170.598C255.977 168.799 257.615 167.771 258.571 168.028C260.892 168.927 260.892 166.743 258.571 164.815C257.342 163.658 256.933 160.831 257.342 155.947C258.025 147.079 253.929 138.082 249.287 137.954C247.512 137.954 246.965 143.737 247.921 149.906C249.013 155.69 248.74 156.204 245.463 157.746C243.552 158.774 240.821 160.702 239.456 162.116C237.954 163.658 235.906 164.429 234.267 164.044C230.717 163.144 225.392 166.614 222.662 171.755L220.34 175.868L225.392 171.112C228.26 168.542 231.673 166.229 233.175 165.843C235.633 165.2 235.769 165.586 235.087 168.799C234.404 171.883 234.813 172.783 238.09 174.454C242.733 176.767 245.463 177.024 249.833 175.096ZM278.779 164.172C276.731 161.088 271.269 158.132 270.04 159.288C269.631 159.674 271.815 161.987 274.819 164.686C280.554 169.699 282.602 169.57 278.779 164.172ZM180.608 130.243C181.563 122.66 185.387 116.105 189.073 115.977C190.712 115.977 190.575 115.591 188.39 114.82C184.84 113.535 177.194 115.463 176.921 117.776C176.785 118.676 176.648 124.074 176.512 129.857C176.375 138.211 176.785 140.139 178.013 138.854C178.969 137.954 180.062 134.098 180.608 130.243ZM144.288 134.998C140.192 131.913 134.594 123.817 135.004 121.632C135.277 120.089 134.321 119.19 132.273 118.933C129.542 118.547 129.133 117.905 129.815 115.334C130.771 111.736 128.587 110.579 117.8 109.165L111.11 108.394L112.065 113.278C112.612 115.848 113.294 118.676 113.431 119.318C113.704 120.089 114.387 121.889 114.933 123.56C116.025 126.901 115.752 126.773 120.394 125.102C123.944 123.817 123.944 123.945 122.988 128.572C122.169 132.942 122.306 133.199 125.037 132.427C127.085 131.913 128.996 132.556 130.771 134.227C132.546 135.898 135.277 136.669 139.919 136.669C145.108 136.54 145.927 136.283 144.288 134.998ZM243.962 112.764C239.319 106.595 235.36 105.567 234.677 110.579C234.267 112.764 234.813 113.149 236.862 112.635C238.5 112.25 240.821 113.278 243.006 115.334C248.331 120.346 248.74 119.318 243.962 112.764ZM240.685 98.6264C239.046 97.5982 235.087 96.8271 231.127 96.9556L224.163 97.0842L230.99 98.6264C234.813 99.3975 239.046 100.169 240.548 100.297C243.279 100.554 243.279 100.554 240.685 98.6264Z" fill="white"/>
</g>
<defs>
<clipPath id="clip0_639_10489">
<rect width="135" height="130" fill="white"/>
</clipPath>
</defs>
</svg>
