<svg width="135" height="130" viewBox="0 0 135 130" fill="none" xmlns="http://www.w3.org/2000/svg">
<g clip-path="url(#clip0_639_10792)">
<rect x="1.5" y="-258.5" width="402" height="387" rx="18.5" fill="#FDFFEF" stroke="black" stroke-width="3"/>
<path d="M134.048 104.794C131.044 103.766 127.631 101.838 126.265 100.296C125.037 98.8822 123.125 97.7255 122.033 97.7255C121.077 97.7255 119.029 96.5688 117.8 95.2836C115.615 93.0987 115.615 92.0706 116.981 87.8294C120.94 76.5195 124.627 73.692 155.212 58.7836C164.906 54.1568 165.588 53.3857 170.504 44.6463C179.515 28.4526 182.792 21.7695 182.246 21.1269C181.837 20.8698 179.652 21.2554 177.331 22.0266C172.552 23.5688 166.408 21.2554 162.994 16.7572C161.356 14.5723 160.673 14.4438 156.987 15.729C151.525 17.6568 144.835 15.2149 141.421 9.81704C138.417 5.06176 138.281 2.49133 140.875 -4.44881C142.104 -7.79036 142.377 -9.71817 141.421 -10.1037C136.642 -11.646 133.092 -16.4013 132.956 -21.5421C132.819 -24.4981 132.273 -26.94 131.727 -26.94C130.635 -26.94 130.088 -22.0562 130.635 -17.558C130.908 -14.0879 126.675 -10.2323 122.442 -10.2323C118.483 -10.2323 112.202 -15.1161 110.837 -19.3573C110.29 -21.028 108.652 -21.7992 106.058 -21.7992C101.142 -21.7992 96.5 -27.0685 96.5 -32.5949C96.5 -37.3502 100.869 -45.8326 105.102 -49.3027C106.74 -50.5879 108.242 -53.1583 108.379 -54.8291C108.515 -56.6284 109.608 -59.0703 110.7 -60.227C113.704 -63.44 113.431 -64.2111 108.652 -65.7534C95.6807 -69.9946 101.142 -91.2006 115.206 -91.2006C119.165 -91.2006 120.121 -90.558 121.76 -86.8309C124.217 -81.433 125.992 -80.2763 131.454 -80.7904C133.912 -80.9189 136.642 -80.2763 137.871 -79.1196C140.329 -76.8062 145.654 -76.2921 145.654 -78.3485C145.654 -79.1196 144.698 -81.5615 143.333 -83.8749C142.104 -86.3168 141.012 -91.8432 140.738 -97.4981C140.465 -102.639 140.056 -107.137 139.783 -107.523C139.373 -107.78 136.642 -107.394 133.502 -106.752C129.815 -105.981 124.354 -105.981 118.346 -106.88L108.925 -108.165L112.612 -111.378L116.298 -114.463L110.427 -113.563C105.375 -112.921 103.054 -113.435 95.5442 -116.905L86.5327 -121.146L90.4923 -123.074L94.4519 -125.002L91.0384 -125.901C84.8942 -127.444 79.0231 -130.914 76.1558 -134.769L73.2884 -138.496L78.8865 -136.569C82.0269 -135.669 84.8942 -135.155 85.3038 -135.54C85.7135 -135.926 84.2115 -138.111 81.7538 -140.424C77.6577 -144.408 70.5577 -157.003 70.5577 -160.345C70.5577 -161.502 71.5134 -161.502 74.6538 -159.959C78.75 -157.903 80.1154 -158.803 77.2481 -161.502C76.2923 -162.401 75.7461 -166.771 75.7461 -171.783C75.8827 -182.065 79.9788 -191.19 87.4885 -198.259C92.6769 -203.271 101.552 -205.199 111.246 -203.657C119.438 -202.371 119.848 -201.857 121.077 -188.234C122.306 -174.739 124.081 -170.755 126.538 -176.539C127.221 -178.466 127.904 -181.551 127.904 -183.479C128.04 -186.563 128.177 -186.692 129.406 -184.635C130.225 -183.35 130.635 -180.523 130.498 -178.209C129.952 -173.197 131.863 -161.887 133.092 -161.887C133.638 -161.887 135.004 -164.072 136.369 -166.771L138.554 -171.526L138.69 -165.486C138.827 -157.646 141.148 -151.606 143.06 -154.176C144.152 -155.718 145.244 -155.204 149.067 -151.348C151.798 -148.65 154.665 -146.465 155.758 -146.465C158.488 -146.465 161.902 -155.59 163.404 -166C163.95 -170.884 164.769 -175.253 165.179 -175.51C165.452 -175.896 166.271 -170.755 166.817 -164.201L167.773 -152.248L170.504 -155.461C171.869 -157.26 174.463 -160.345 176.102 -162.401C181.154 -168.827 190.712 -177.053 196.856 -180.523C203.273 -183.993 208.598 -185.021 203 -181.679C199.86 -179.752 192.487 -172.04 186.888 -164.586C185.66 -162.787 182.246 -159.188 179.515 -156.361C176.648 -153.533 174.327 -150.834 174.327 -150.192C174.327 -149.549 172.552 -149.035 170.367 -149.035C165.452 -149.035 162.038 -144.537 162.038 -138.111C162.038 -133.87 161.765 -133.613 157.669 -133.741C153.983 -133.741 152.344 -134.898 147.975 -140.167C145.244 -143.637 141.831 -146.465 140.465 -146.465C139.1 -146.465 137.325 -147.107 136.369 -148.007C135.14 -149.164 134.731 -149.035 134.731 -147.493C134.731 -146.336 135.96 -145.179 137.462 -144.794C139.1 -144.408 140.192 -142.995 140.192 -141.324C140.192 -138.368 144.971 -131.171 147.975 -129.371C148.931 -128.857 149.75 -126.287 149.75 -123.973V-119.475H139.783C133.092 -119.475 128.86 -120.118 127.085 -121.403C125.719 -122.431 123.125 -123.331 121.487 -123.331C119.029 -123.331 118.346 -124.102 118.346 -126.544C118.346 -128.986 117.663 -129.757 115.206 -129.757C112.612 -129.757 111.656 -130.914 109.744 -136.569C108.515 -140.424 107.423 -146.208 107.423 -149.678V-155.847L117.254 -154.947C122.579 -154.561 128.45 -153.79 130.225 -153.405C132.137 -152.891 133.365 -153.148 133.365 -154.176C133.365 -154.947 132.137 -155.975 130.635 -156.361C127.767 -157.132 123.808 -162.787 123.808 -166.385C123.808 -167.414 122.715 -168.313 121.35 -168.313C117.8 -168.313 115.752 -173.326 114.113 -185.535C113.294 -191.19 112.475 -196.074 112.202 -196.459C111.792 -196.716 108.242 -196.973 104.146 -197.102C95.4077 -197.102 93.6327 -195.688 86.6692 -182.451C82.7096 -175.253 82.1634 -173.069 82.4365 -165.486C82.5731 -160.473 82.1635 -156.746 81.3442 -156.746C79.7058 -156.746 84.4846 -147.878 88.9904 -142.866C90.9019 -140.81 92.4038 -137.468 92.4038 -135.669C92.4038 -133.227 93.2231 -132.199 95.8173 -131.556C98.4115 -130.914 99.2308 -129.885 99.2308 -127.058C99.2308 -122.56 102.371 -120.76 112.338 -119.861C119.029 -119.218 119.712 -118.833 119.712 -115.877C119.712 -112.792 119.848 -112.792 128.313 -113.435C132.956 -113.82 140.056 -114.591 144.015 -115.106L151.115 -116.005V-111.25C151.115 -108.679 150.569 -106.623 149.75 -106.623C145.517 -106.623 150.706 -82.8467 155.212 -81.5615C156.713 -81.1759 160.537 -77.9629 163.677 -74.6213C168.319 -69.7375 172.552 -67.1671 183.885 -62.2833C191.804 -58.9418 198.904 -55.7287 199.587 -55.2147C200.406 -54.7006 203.819 -53.9295 207.233 -53.6724L213.65 -53.0298L214.196 -63.0545C215.015 -76.2921 217.337 -79.6337 225.529 -79.6337C230.035 -79.6337 232.356 -78.8625 233.994 -77.0633C236.588 -74.2358 239.865 -73.8502 243.688 -75.6495C244.917 -76.2921 247.238 -77.3203 248.74 -77.8344C250.788 -78.6055 249.423 -78.9911 243.962 -79.6337C235.906 -80.4048 230.308 -82.7182 230.308 -85.1601C230.308 -85.9312 229.352 -85.2886 228.123 -83.7463C226.621 -81.8185 224.71 -80.9189 221.296 -80.9189C217.063 -80.9189 216.654 -81.1759 216.654 -84.7745C216.654 -92.7428 223.344 -100.197 230.444 -100.197C232.356 -100.197 235.087 -101.354 236.452 -102.767C237.817 -104.181 240.002 -105.595 241.367 -105.981C243.552 -106.623 243.825 -107.651 243.142 -111.764C242.596 -114.591 242.733 -118.833 243.142 -121.403C244.098 -125.644 244.371 -125.901 249.423 -125.901C252.563 -125.901 255.567 -125.002 257.069 -123.716C259.254 -121.66 259.254 -121.66 258.298 -124.616C257.752 -126.415 255.977 -130.014 254.475 -132.584C252.154 -136.697 250.925 -137.468 247.375 -137.468C244.917 -137.468 241.367 -138.625 239.456 -140.039C237.544 -141.452 234.677 -142.609 233.038 -142.609C230.308 -142.609 230.035 -143.123 230.581 -149.678L230.99 -156.875L225.938 -157.646C222.115 -158.16 220.75 -158.931 220.75 -160.731C220.75 -162.787 219.931 -162.915 213.923 -162.273C207.233 -161.502 207.096 -161.63 207.096 -164.843V-168.313L202.317 -166.128C199.723 -164.972 197.538 -163.558 197.538 -162.915C197.538 -162.401 195.217 -161.887 192.487 -161.887L187.298 -162.016L193.442 -167.157C202.317 -174.739 211.602 -178.723 221.296 -179.495L229.625 -180.009L223.208 -176.153C219.521 -173.968 216.108 -172.169 215.288 -172.169C213.787 -172.169 208.188 -166.771 209.008 -166.128C209.281 -165.871 211.875 -166.514 214.606 -167.542C217.473 -168.699 223.071 -169.984 227.031 -170.37C233.585 -171.141 234.813 -171.783 239.183 -177.053C241.777 -180.266 243.962 -184.378 244.098 -186.178L244.235 -189.519L245.737 -185.921C246.556 -183.993 247.648 -182.451 248.194 -182.451C248.74 -182.451 250.379 -185.921 251.744 -190.162C253.792 -196.845 254.338 -197.616 255.84 -195.817C258.435 -192.475 260.21 -194.789 261.165 -203.142L262.121 -210.854L264.715 -207.255L267.446 -203.657L266.627 -208.797C266.217 -211.625 265.671 -215.095 265.535 -216.509C265.125 -218.951 265.944 -219.079 276.048 -219.079C289.429 -219.079 293.252 -216.894 300.762 -205.327C304.721 -199.287 306.087 -195.56 306.496 -190.162C307.042 -183.35 306.769 -182.708 301.308 -176.153C298.167 -172.426 295.983 -169.084 296.392 -168.699C296.665 -168.313 298.85 -168.956 301.171 -169.984L305.267 -171.912L302.537 -168.57C301.035 -166.642 297.758 -163.686 295.163 -161.887C289.702 -158.16 289.156 -156.618 293.525 -157.775C296.256 -158.417 296.392 -158.289 294.617 -156.232C291.887 -153.148 285.742 -150.32 281.51 -150.32C277.687 -150.32 277.14 -149.164 279.871 -146.593C281.237 -145.308 280.827 -145.308 277.687 -146.593C274.41 -148.007 273.181 -147.878 268.675 -145.436C265.808 -143.894 262.394 -142.609 261.165 -142.609C258.435 -142.609 258.435 -141.452 260.756 -138.111C264.306 -133.356 266.217 -126.544 267.173 -116.905C267.992 -107.651 267.992 -107.394 269.767 -111.121C271.815 -115.62 276.048 -119.732 277.413 -118.447C277.96 -117.933 277.413 -119.09 276.048 -121.146C274.819 -123.074 274.273 -124.616 274.819 -124.616C275.502 -124.616 274.956 -125.259 273.727 -126.03C267.583 -129.371 274.546 -135.669 282.602 -134.255C290.658 -132.841 293.798 -128.857 293.115 -121.146C292.842 -117.804 296.938 -115.491 301.035 -116.519C302.673 -116.905 305.54 -116.262 307.452 -115.106C311.685 -112.535 318.238 -101.996 317.146 -99.4259C316.737 -98.3978 316.873 -97.8837 317.692 -98.2692C318.512 -98.6548 319.058 -98.5263 319.058 -97.8837C319.058 -97.1125 320.287 -96.8555 321.788 -97.2411C323.563 -97.6266 325.748 -96.5985 328.615 -94.028C333.394 -89.4013 334.213 -82.5897 330.254 -79.2481C327.523 -76.9347 321.925 -77.3203 319.74 -80.0192C318.238 -81.9471 313.05 -84.7745 311.275 -84.7745C310.729 -84.7745 311.002 -84.2604 311.958 -83.7463C313.187 -82.9752 311.821 -82.0756 308.135 -80.9189C303.083 -79.3766 301.99 -79.3766 297.621 -81.5615C292.979 -84.0034 292.706 -84.0034 290.931 -81.69C289.975 -80.4048 287.108 -77.1918 284.65 -74.6213C282.192 -72.0509 277.14 -66.653 273.59 -62.5404L267.037 -55.0861L268.538 -48.0175C269.904 -41.7199 269.767 -40.4347 267.446 -35.9365C265.944 -33.109 265.398 -30.7956 266.081 -30.7956C268.812 -30.7956 273.044 -18.5861 273.181 -10.8749C273.181 -3.93473 272.225 -1.3643 263.487 15.472C258.162 25.7537 252.154 36.5494 250.106 39.6339L246.556 45.0318H255.84C260.892 45.0318 270.04 43.7466 276.048 42.3329C291.34 38.6058 296.119 38.4772 297.894 42.0758C298.577 43.6181 300.898 45.6744 303.083 46.4456C308.544 48.6304 312.231 54.1568 312.231 60.3258C312.231 64.567 311.412 66.3663 307.588 69.9649C304.994 72.4068 300.488 75.1058 297.621 75.8769C294.754 76.7765 291.887 77.9332 291.067 78.4473C285.606 82.303 252.427 83.5882 237.817 80.5037C230.581 78.9614 218.702 75.3628 212.421 72.7924C210.51 72.0213 210.1 72.9209 209.554 78.1903C209.144 81.9174 207.642 86.2871 205.867 88.6005C202.181 93.3558 182.383 102.866 175.965 102.866C173.644 102.866 168.183 103.766 163.813 104.794C154.119 107.236 141.285 107.236 134.048 104.794ZM158.352 98.3681C164.633 97.597 164.769 97.4684 164.769 93.0987C164.769 88.986 165.042 88.729 169.548 88.729C173.781 88.729 174.327 89.1146 174.327 92.0706C174.327 95.1551 174.737 95.4121 178.56 94.641C180.881 94.2554 186.342 91.8135 190.712 89.3716C196.446 86.0301 199.04 83.5882 200.952 79.604C203.546 74.3346 203.546 74.3346 200.542 72.0213C194.671 67.523 196.173 61.4825 210.1 36.0353C222.388 13.2871 222.662 12.9015 227.031 12.9015C230.717 12.9015 231.537 13.4156 231.946 15.8575L232.356 18.942L239.865 17.0142C245.737 15.472 249.013 13.4156 255.021 7.88923C264.715 -1.23577 268.265 -9.84669 265.671 -17.815C264.033 -22.9558 263.896 -23.0844 257.752 -23.0844C254.338 -23.0844 250.242 -23.984 248.877 -25.0122C245.054 -27.7111 238.91 -27.4541 237.954 -24.6266C237.544 -23.4699 236.588 -19.6143 235.769 -16.0157C233.585 -7.01923 232.765 -6.37663 221.842 -6.37663C212.421 -6.37663 212.148 -6.50515 206.823 -11.5175C203.819 -14.3449 201.088 -16.6583 200.815 -16.6583C200.542 -16.6583 200.269 -14.9876 200.269 -12.9312C200.269 -9.97523 198.904 -8.04739 194.125 -4.32028C187.162 0.949085 185.796 6.21844 190.848 7.37513C196.31 8.78886 193.715 18.428 181.427 41.9473C172.688 58.6551 169.685 63.0248 167.637 63.0248C166.135 63.0248 163.267 63.6674 161.356 64.567L157.669 66.1093L162.994 67.523C167.773 68.8082 168.183 69.3223 168.592 73.8206L169.002 78.7044L155.621 77.8047C148.248 77.2906 141.967 76.5195 141.558 75.8769C141.148 75.3628 137.871 76.391 134.048 77.9332C128.177 80.5037 127.767 81.0177 131.044 81.0177C134.321 81.0177 134.731 81.4033 134.731 85.6445C134.731 88.0864 134.048 91.428 133.229 92.8417C132.273 94.5125 132.273 95.9262 133.092 96.6973C134.458 97.9825 146.61 100.167 149.75 99.6533C150.842 99.3963 154.665 98.8822 158.352 98.3681ZM275.365 75.1058C280.008 74.3346 280.144 74.2061 279.735 69.3223L279.188 64.31H285.333C289.975 64.31 291.887 64.9526 293.252 67.0089L295.163 69.7079L298.987 66.8804C305.95 61.7396 306.223 59.5547 300.625 54.5424C296.938 51.3294 294.344 50.1727 291.067 50.1727C288.61 50.1727 286.288 49.5301 286.015 48.7589C285.606 47.7308 283.967 47.7308 280.144 48.6304C277.14 49.4015 268.948 50.4297 262.121 50.9438C254.065 51.4579 248.877 52.4861 247.921 53.5142C247.102 54.5424 243.962 55.3135 241.094 55.3135C236.042 55.3135 235.769 55.0565 235.769 51.4579C235.769 47.4737 239.456 39.6339 244.235 33.2079L246.829 29.6093H238.227H229.625L220.477 46.8311C210.373 65.7237 210.373 65.0811 220.75 68.5512C238.227 74.3346 261.985 77.1621 275.365 75.1058ZM177.058 12.1304C176.238 10.3311 175.692 5.06175 175.692 0.563506C175.692 -7.27628 175.965 -8.04741 180.062 -11.646C182.519 -13.7023 185.113 -15.3731 185.933 -15.5016C187.298 -15.5016 164.769 -20.3854 160.673 -20.8995C159.444 -21.028 158.488 -19.4858 157.806 -16.1442C156.987 -11.5175 155.348 -9.46113 149.34 -5.73402C145.381 -3.29212 145.381 0.820548 149.204 5.06175C153.71 10.2026 154.938 10.0741 156.031 4.54767C156.85 0.434993 157.26 0.0494293 161.492 0.0494293C165.588 0.0494293 166.135 0.435001 166.135 3.39099C166.135 9.30296 171.05 15.3434 175.965 15.472C178.013 15.472 178.15 14.9579 177.058 12.1304ZM126.538 -32.4664C128.177 -35.5509 129.133 -36.065 133.229 -35.6794C138.008 -35.2939 138.144 -35.1654 138.554 -29.5104C138.963 -23.0844 141.148 -17.9435 143.606 -17.9435C144.698 -17.9435 144.971 -20.3854 144.562 -25.5263C143.879 -33.6231 144.835 -36.1935 151.388 -43.7763C156.85 -50.2023 157.806 -57.528 153.983 -63.3115C149.887 -69.609 146.063 -71.5368 139.237 -70.8942C134.185 -70.3801 133.365 -69.9946 133.365 -67.2956C133.365 -61.2551 130.498 -57.7851 125.583 -57.7851C121.213 -57.7851 121.077 -57.9136 121.077 -62.7974C121.077 -70.6372 122.033 -71.9224 128.177 -71.9224C132.956 -71.9224 133.502 -72.1794 132 -73.8502C131.044 -74.8784 128.04 -75.778 125.31 -75.778C119.165 -75.778 117.527 -76.8062 115.752 -81.3045C114.113 -85.2886 111.929 -84.903 110.29 -80.4048C108.925 -77.1918 111.656 -71.2798 115.615 -69.352C120.667 -66.7816 118.483 -53.8009 111.519 -45.5756C107.423 -40.6918 105.921 -37.8643 109.062 -40.8203C110.017 -41.7199 112.748 -42.3625 115.206 -42.3625C119.438 -42.3625 119.712 -42.1055 119.712 -38.1213C119.712 -35.9365 118.756 -32.852 117.663 -31.5668C115.206 -28.6108 116.162 -24.8837 120.258 -20.771L123.125 -17.6865L123.944 -23.3414C124.354 -26.2974 125.583 -30.5386 126.538 -32.4664ZM224.163 -22.0562C224.846 -24.7551 224.71 -26.2974 223.617 -26.683C222.798 -26.94 222.115 -28.8678 222.115 -30.9242C222.115 -34.0087 221.569 -34.6513 218.975 -34.6513C217.2 -34.6513 214.606 -35.5509 213.104 -36.5791C208.188 -40.0492 207.096 -39.021 209.281 -32.9805C211.056 -28.0967 219.931 -17.9435 222.252 -17.9435C222.798 -17.9435 223.754 -19.7428 224.163 -22.0562ZM196.992 -28.9964C196.583 -30.153 196.173 -33.6231 196.173 -36.7076V-42.4911L181.7 -48.7886C173.781 -52.3872 167.09 -55.2147 166.817 -55.2147C166.544 -55.2147 166.135 -51.6161 165.862 -47.1178C165.588 -42.7481 164.906 -38.2499 164.36 -37.0932C163.131 -34.6513 166.954 -32.852 180.471 -29.5104C192.896 -26.4259 198.085 -26.1689 196.992 -28.9964ZM260.483 -50.5879C259.663 -52.3872 258.435 -53.9294 257.615 -53.9294C255.294 -53.9294 256.113 -49.0457 258.571 -47.6319C261.712 -45.9611 262.121 -46.4752 260.483 -50.5879ZM265.808 -93.3854C265.808 -97.1125 265.398 -100.197 264.852 -100.197C264.169 -100.197 263.76 -96.4699 263.76 -91.9717C263.76 -87.3449 264.169 -84.389 264.715 -85.1601C265.262 -86.0597 265.808 -89.7868 265.808 -93.3854ZM296.392 -92.4858C299.806 -92.4858 301.171 -91.8432 301.717 -89.9154C302.4 -87.2164 306.769 -86.3168 306.769 -88.7587C306.769 -90.4294 317.556 -89.7868 322.471 -87.859C324.929 -86.9594 325.065 -87.0879 323.154 -89.2728C322.062 -90.558 319.058 -92.3573 316.737 -93.3854C314.006 -94.4136 311.275 -96.984 309.637 -99.94C305.95 -106.623 301.581 -109.965 295.3 -110.864C288.746 -111.892 288.746 -111.892 287.79 -118.447C287.244 -121.917 285.879 -124.359 283.967 -125.644C280.827 -127.444 280.827 -127.444 280.827 -120.118C280.827 -113.82 280.281 -112.407 276.867 -109.065C274.683 -107.009 272.225 -105.338 271.406 -105.338C270.587 -105.338 269.904 -104.695 269.904 -104.053C269.904 -102.51 272.225 -102.382 273.181 -103.924C274.546 -105.852 279.325 -103.924 282.192 -100.454C285.469 -96.5985 285.879 -88.6302 282.875 -88.6302C281.646 -88.6302 280.827 -87.4735 280.827 -85.9312C280.827 -83.4893 281.373 -83.6178 286.288 -87.859C290.248 -91.2006 292.979 -92.4858 296.392 -92.4858ZM249.423 -94.028C249.423 -96.4699 248.331 -96.3414 244.235 -93.3854C242.869 -92.3573 242.869 -91.8432 244.098 -91.0721C246.556 -89.6583 249.423 -91.2006 249.423 -94.028ZM267.583 -152.634C269.631 -152.891 271.269 -153.662 271.269 -154.304C271.269 -154.947 272.498 -155.461 274 -155.461C275.638 -155.461 276.731 -156.361 276.731 -157.775C276.731 -159.06 279.735 -161.63 284.24 -164.201C289.975 -167.414 291.75 -169.213 291.75 -171.526C291.75 -173.197 293.252 -176.796 295.163 -179.366C300.352 -186.692 300.625 -189.134 296.392 -197.102C290.658 -208.155 286.698 -211.753 279.188 -212.782L272.635 -213.553V-206.356C272.635 -200.058 272.362 -199.158 269.904 -199.158C268.402 -199.158 267.173 -198.259 267.173 -197.231C267.173 -194.017 262.394 -186.435 260.346 -186.306C259.254 -186.306 257.342 -184.378 256.25 -182.065C255.021 -179.495 252.973 -177.824 251.198 -177.567C247.102 -177.053 247.238 -175.51 251.471 -173.711C254.202 -172.554 254.885 -171.269 254.885 -167.671C254.885 -163.558 254.612 -163.172 250.788 -163.172C247.785 -163.172 246.692 -162.53 246.692 -160.859C246.829 -158.032 258.981 -150.063 261.712 -151.091C262.804 -151.606 265.398 -152.248 267.583 -152.634Z" fill="black"/>
<path d="M136.915 102.866C133.229 102.223 129.269 100.809 128.177 99.7812C126.129 97.8533 126.265 96.3111 130.225 86.1579C130.635 85.1297 129.952 85.3868 128.86 86.929C127.631 88.3428 126.265 91.1702 125.856 92.9695C124.763 97.0822 123.671 97.2107 120.667 94.1262C117.8 91.1703 117.8 86.672 120.804 81.4026C122.579 78.1896 126.129 75.8762 135.413 71.635C142.24 68.5505 150.979 64.1808 154.802 61.9959C158.762 59.8111 162.994 58.2688 164.087 58.6544C165.588 59.297 168.865 54.1562 176.921 38.3481C189.073 14.9572 190.575 11.2301 187.571 12.3868C185.113 13.2865 183.885 10.0734 183.475 2.49066C183.338 -2.39314 183.885 -3.29277 189.756 -7.91953C194.671 -11.9037 196.173 -13.96 196.173 -16.7875C196.173 -19.872 196.719 -20.5146 199.587 -20.5146C201.498 -20.5146 203 -21.0287 203 -21.7998C203 -22.571 199.45 -23.085 195.081 -23.085C179.379 -23.085 149.613 -32.9812 155.758 -36.1942C159.171 -37.9935 162.038 -44.291 161.902 -49.6889L161.765 -54.5727L160.537 -49.4319C159.854 -46.6044 157.533 -42.2347 155.485 -39.7928C149.34 -32.5956 149.067 -31.8245 149.067 -22.4424V-13.446L144.698 -13.0604C138.417 -12.4178 134.731 -16.659 134.731 -24.4988C134.731 -27.8403 134.185 -30.9248 133.502 -31.3104C131.863 -32.3385 128.996 -25.9125 128.04 -19.2294C127.358 -14.2171 126.812 -13.4459 123.808 -13.0604C115.342 -12.1607 108.106 -27.5833 113.431 -35.2945C114.66 -37.0938 115.342 -38.5076 114.933 -38.5076C113.294 -38.5076 108.788 -29.8967 108.788 -26.5551C108.788 -23.9847 108.106 -23.085 106.194 -23.085C97.3192 -23.085 98.5481 -39.4072 108.242 -50.46C110.017 -52.3879 112.065 -56.115 112.748 -58.6854C113.977 -62.9266 113.84 -63.5692 110.154 -66.7822C105.375 -71.0234 103.873 -75.9072 105.512 -81.9477C106.877 -87.0886 112.612 -91.7153 116.025 -90.5586C117.254 -90.0445 118.892 -87.7312 119.712 -85.4178C121.35 -80.6625 124.49 -79.1202 129.679 -80.2769C132.137 -80.9195 133.638 -80.4055 135.55 -78.0921C137.598 -75.7787 139.237 -75.2646 143.196 -75.5217C149.75 -76.0357 154.256 -73.2083 158.898 -65.754C160.946 -62.541 162.721 -60.4847 162.994 -61.2558C163.267 -62.0269 171.733 -59.071 182.383 -54.3157L201.225 -45.8333L200.679 -40.5639C199.723 -33.2382 204.775 -21.1572 211.192 -14.9882C215.425 -11.1326 217.337 -10.2329 221.842 -10.2329C228.396 -10.2329 229.762 -11.6467 231.673 -19.872C234.131 -30.2822 234.404 -30.7963 237.954 -30.7963C239.729 -30.7963 242.46 -31.4389 243.825 -32.3386C245.873 -33.4952 247.102 -33.1097 251.062 -30.4107C256.523 -26.4266 258.571 -26.1696 262.804 -28.997C266.627 -31.4389 266.217 -31.696 269.085 -23.8562C273.727 -10.3615 270.587 0.819905 259.117 11.7442C252.837 17.5277 249.969 19.1984 243.142 20.9977C231.127 24.2107 227.85 23.9537 227.304 19.841C227.031 17.2706 224.163 21.3833 215.152 38.2195C208.598 50.0435 202.863 61.0963 202.454 62.6386C201.771 64.5664 202.454 66.2371 205.048 68.679C209.281 72.6632 209.281 75.3621 205.458 82.9449C203.137 87.4431 200.542 90.0135 194.808 93.098C180.198 101.452 171.596 102.352 170.094 95.797C169.138 91.9414 169.138 91.9414 169.002 96.5681C168.865 100.681 168.319 101.323 164.769 101.966C156.577 103.508 143.469 104.022 136.915 102.866ZM164.087 73.3058C162.858 71.378 154.529 70.3498 149.477 71.5065C145.108 72.5347 145.244 72.6632 152.481 73.4343C164.633 74.591 164.906 74.591 164.087 73.3058ZM128.45 -68.0674C127.494 -68.8386 125.173 -65.24 125.31 -62.9266C125.31 -61.7699 126.129 -62.284 127.221 -64.2118C128.177 -66.0111 128.723 -67.6819 128.45 -68.0674Z" fill="white"/>
</g>
<defs>
<clipPath id="clip0_639_10792">
<rect width="135" height="130" fill="white"/>
</clipPath>
</defs>
</svg>
