<svg width="135" height="130" viewBox="0 0 135 130" fill="none" xmlns="http://www.w3.org/2000/svg">
<g clip-path="url(#clip0_639_10490)">
<rect x="-268.5" y="1.5" width="402" height="387" rx="18.5" fill="#FDFFEF" stroke="black" stroke-width="3"/>
<path d="M-135.952 364.794C-138.956 363.766 -142.369 361.838 -143.735 360.296C-144.963 358.882 -146.875 357.725 -147.967 357.725C-148.923 357.725 -150.971 356.569 -152.2 355.284C-154.385 353.099 -154.385 352.071 -153.019 347.829C-149.06 336.52 -145.373 333.692 -114.788 318.784C-105.094 314.157 -104.412 313.386 -99.4962 304.646C-90.4846 288.453 -87.2077 281.769 -87.7538 281.127C-88.1635 280.87 -90.3481 281.255 -92.6692 282.027C-97.4481 283.569 -103.592 281.255 -107.006 276.757C-108.644 274.572 -109.327 274.444 -113.013 275.729C-118.475 277.657 -125.165 275.215 -128.579 269.817C-131.583 265.062 -131.719 262.491 -129.125 255.551C-127.896 252.21 -127.623 250.282 -128.579 249.896C-133.358 248.354 -136.908 243.599 -137.044 238.458C-137.181 235.502 -137.727 233.06 -138.273 233.06C-139.365 233.06 -139.912 237.944 -139.365 242.442C-139.092 245.912 -143.325 249.768 -147.558 249.768C-151.517 249.768 -157.798 244.884 -159.163 240.643C-159.71 238.972 -161.348 238.201 -163.942 238.201C-168.858 238.201 -173.5 232.931 -173.5 227.405C-173.5 222.65 -169.131 214.167 -164.898 210.697C-163.26 209.412 -161.758 206.842 -161.621 205.171C-161.485 203.372 -160.392 200.93 -159.3 199.773C-156.296 196.56 -156.569 195.789 -161.348 194.247C-174.319 190.005 -168.858 168.799 -154.794 168.799C-150.835 168.799 -149.879 169.442 -148.24 173.169C-145.783 178.567 -144.008 179.724 -138.546 179.21C-136.088 179.081 -133.358 179.724 -132.129 180.88C-129.671 183.194 -124.346 183.708 -124.346 181.652C-124.346 180.88 -125.302 178.439 -126.667 176.125C-127.896 173.683 -128.988 168.157 -129.262 162.502C-129.535 157.361 -129.944 152.863 -130.217 152.477C-130.627 152.22 -133.358 152.606 -136.498 153.248C-140.185 154.019 -145.646 154.019 -151.654 153.12L-161.075 151.835L-157.388 148.622L-153.702 145.537L-159.573 146.437C-164.625 147.079 -166.946 146.565 -174.456 143.095L-183.467 138.854L-179.508 136.926L-175.548 134.998L-178.962 134.099C-185.106 132.556 -190.977 129.086 -193.844 125.231L-196.712 121.504L-191.113 123.431C-187.973 124.331 -185.106 124.845 -184.696 124.46C-184.287 124.074 -185.788 121.889 -188.246 119.576C-192.342 115.592 -199.442 102.997 -199.442 99.6551C-199.442 98.4984 -198.487 98.4984 -195.346 100.041C-191.25 102.097 -189.885 101.197 -192.752 98.4984C-193.708 97.5987 -194.254 93.229 -194.254 88.2167C-194.117 77.935 -190.021 68.81 -182.512 61.7413C-177.323 56.729 -168.448 54.8012 -158.754 56.3434C-150.562 57.6286 -150.152 58.1427 -148.923 71.766C-147.694 85.2607 -145.919 89.2448 -143.462 83.4614C-142.779 81.5336 -142.096 78.4491 -142.096 76.5213C-141.96 73.4367 -141.823 73.3082 -140.594 75.3646C-139.775 76.6498 -139.365 79.4772 -139.502 81.7906C-140.048 86.8029 -138.137 98.1128 -136.908 98.1128C-136.362 98.1128 -134.996 95.9279 -133.631 93.229L-131.446 88.4737L-131.31 94.5142C-131.173 102.354 -128.852 108.394 -126.94 105.824C-125.848 104.282 -124.756 104.796 -120.933 108.652C-118.202 111.35 -115.335 113.535 -114.242 113.535C-111.512 113.535 -108.098 104.41 -106.596 94.0001C-106.05 89.1163 -105.231 84.7466 -104.821 84.4896C-104.548 84.104 -103.729 89.2448 -103.183 95.7994L-102.227 107.752L-99.4962 104.539C-98.1308 102.74 -95.5365 99.6551 -93.8981 97.5987C-88.8462 91.1727 -79.2885 82.9473 -73.1442 79.4772C-66.7269 76.0072 -61.4019 74.979 -67 78.3205C-70.1404 80.2484 -77.5135 87.9596 -83.1115 95.4139C-84.3404 97.2132 -87.7538 100.812 -90.4846 103.639C-93.3519 106.467 -95.6731 109.166 -95.6731 109.808C-95.6731 110.451 -97.4481 110.965 -99.6327 110.965C-104.548 110.965 -107.962 115.463 -107.962 121.889C-107.962 126.13 -108.235 126.387 -112.331 126.259C-116.017 126.259 -117.656 125.102 -122.025 119.833C-124.756 116.363 -128.169 113.535 -129.535 113.535C-130.9 113.535 -132.675 112.893 -133.631 111.993C-134.86 110.836 -135.269 110.965 -135.269 112.507C-135.269 113.664 -134.04 114.821 -132.538 115.206C-130.9 115.592 -129.808 117.005 -129.808 118.676C-129.808 121.632 -125.029 128.829 -122.025 130.629C-121.069 131.143 -120.25 133.713 -120.25 136.027V140.525H-130.217C-136.908 140.525 -141.14 139.882 -142.915 138.597C-144.281 137.569 -146.875 136.669 -148.513 136.669C-150.971 136.669 -151.654 135.898 -151.654 133.456C-151.654 131.014 -152.337 130.243 -154.794 130.243C-157.388 130.243 -158.344 129.086 -160.256 123.431C-161.485 119.576 -162.577 113.792 -162.577 110.322V104.153L-152.746 105.053C-147.421 105.439 -141.55 106.21 -139.775 106.595C-137.863 107.109 -136.635 106.852 -136.635 105.824C-136.635 105.053 -137.863 104.025 -139.365 103.639C-142.233 102.868 -146.192 97.2132 -146.192 93.6146C-146.192 92.5864 -147.285 91.6867 -148.65 91.6867C-152.2 91.6867 -154.248 86.6744 -155.887 74.4649C-156.706 68.81 -157.525 63.9262 -157.798 63.5406C-158.208 63.2836 -161.758 63.0265 -165.854 62.898C-174.592 62.898 -176.367 64.3117 -183.331 77.5494C-187.29 84.7466 -187.837 86.9315 -187.563 94.5142C-187.427 99.5265 -187.837 103.254 -188.656 103.254C-190.294 103.254 -185.515 112.122 -181.01 117.134C-179.098 119.19 -177.596 122.532 -177.596 124.331C-177.596 126.773 -176.777 127.801 -174.183 128.444C-171.588 129.086 -170.769 130.115 -170.769 132.942C-170.769 137.44 -167.629 139.24 -157.662 140.139C-150.971 140.782 -150.288 141.167 -150.288 144.123C-150.288 147.208 -150.152 147.208 -141.687 146.565C-137.044 146.18 -129.944 145.409 -125.985 144.894L-118.885 143.995V148.75C-118.885 151.321 -119.431 153.377 -120.25 153.377C-124.483 153.377 -119.294 177.153 -114.788 178.439C-113.287 178.824 -109.463 182.037 -106.323 185.379C-101.681 190.262 -97.4481 192.833 -86.1154 197.717C-78.1962 201.058 -71.0962 204.271 -70.4135 204.785C-69.5942 205.299 -66.1808 206.071 -62.7673 206.328L-56.35 206.97L-55.8039 196.946C-54.9846 183.708 -52.6635 180.366 -44.4712 180.366C-39.9654 180.366 -37.6442 181.137 -36.0058 182.937C-33.4115 185.764 -30.1346 186.15 -26.3115 184.35C-25.0827 183.708 -22.7615 182.68 -21.2596 182.166C-19.2115 181.394 -20.5769 181.009 -26.0385 180.366C-34.0942 179.595 -39.6923 177.282 -39.6923 174.84C-39.6923 174.069 -40.6481 174.711 -41.8769 176.254C-43.3789 178.181 -45.2904 179.081 -48.7039 179.081C-52.9366 179.081 -53.3462 178.824 -53.3462 175.225C-53.3462 167.257 -46.6558 159.803 -39.5558 159.803C-37.6442 159.803 -34.9135 158.646 -33.5481 157.233C-32.1827 155.819 -29.9981 154.405 -28.6327 154.019C-26.4481 153.377 -26.175 152.349 -26.8577 148.236C-27.4039 145.409 -27.2673 141.167 -26.8577 138.597C-25.9019 134.356 -25.6288 134.099 -20.5769 134.099C-17.4365 134.099 -14.4327 134.998 -12.9308 136.284C-10.7461 138.34 -10.7462 138.34 -11.7019 135.384C-12.2481 133.585 -14.0231 129.986 -15.525 127.416C-17.8462 123.303 -19.075 122.532 -22.625 122.532C-25.0827 122.532 -28.6327 121.375 -30.5442 119.961C-32.4558 118.548 -35.3231 117.391 -36.9615 117.391C-39.6923 117.391 -39.9654 116.877 -39.4192 110.322L-39.0096 103.125L-44.0615 102.354C-47.8846 101.84 -49.25 101.069 -49.25 99.2695C-49.25 97.2132 -50.0692 97.0846 -56.0769 97.7272C-62.7673 98.4984 -62.9039 98.3698 -62.9039 95.1568V91.6867L-67.6827 93.8716C-70.2769 95.0283 -72.4615 96.442 -72.4615 97.0846C-72.4615 97.5987 -74.7827 98.1128 -77.5135 98.1128L-82.7019 97.9843L-76.5577 92.8434C-67.6827 85.2607 -58.3981 81.2765 -48.7039 80.5054L-40.375 79.9913L-46.7923 83.847C-50.4788 86.0318 -53.8923 87.8311 -54.7115 87.8311C-56.2135 87.8311 -61.8116 93.229 -60.9923 93.8716C-60.7192 94.1286 -58.125 93.486 -55.3942 92.4579C-52.5269 91.3012 -46.9288 90.016 -42.9692 89.6304C-36.4154 88.8593 -35.1865 88.2167 -30.8173 82.9473C-28.2231 79.7343 -26.0385 75.6216 -25.9019 73.8223L-25.7654 70.4808L-24.2635 74.0793C-23.4442 76.0072 -22.3519 77.5494 -21.8058 77.5494C-21.2596 77.5494 -19.6212 74.0794 -18.2558 69.8382C-16.2077 63.1551 -15.6615 62.3839 -14.1596 64.1832C-11.5654 67.5248 -9.79038 65.2114 -8.83461 56.8575L-7.87884 49.1463L-5.28462 52.7448L-2.55385 56.3434L-3.37307 51.2026C-3.78269 48.3751 -4.32884 44.9051 -4.46538 43.4913C-4.875 41.0494 -4.05577 40.9209 6.04808 40.9209C19.4288 40.9209 23.2519 43.1058 30.7615 54.6727C34.7212 60.7132 36.0865 64.4403 36.4961 69.8382C37.0423 76.6498 36.7692 77.2924 31.3077 83.847C28.1673 87.5741 25.9827 90.9156 26.3923 91.3012C26.6654 91.6867 28.85 91.0441 31.1711 90.016L35.2673 88.0882L32.5365 91.4297C31.0346 93.3575 27.7577 96.3135 25.1635 98.1128C19.7019 101.84 19.1558 103.382 23.525 102.225C26.2558 101.583 26.3923 101.711 24.6173 103.768C21.8865 106.852 15.7423 109.68 11.5096 109.68C7.68654 109.68 7.14037 110.836 9.87114 113.407C11.2365 114.692 10.8269 114.692 7.68653 113.407C4.40961 111.993 3.18078 112.122 -1.32499 114.564C-4.1923 116.106 -7.60576 117.391 -8.83461 117.391C-11.5654 117.391 -11.5654 118.548 -9.24423 121.889C-5.69423 126.644 -3.78269 133.456 -2.82693 143.095C-2.00769 152.349 -2.0077 152.606 -0.232703 148.879C1.81537 144.38 6.04808 140.268 7.41346 141.553C7.95961 142.067 7.41346 140.91 6.04808 138.854C4.81923 136.926 4.27308 135.384 4.81924 135.384C5.50193 135.384 4.95577 134.741 3.72693 133.97C-2.41731 130.629 4.54614 124.331 12.6019 125.745C20.6577 127.159 23.7981 131.143 23.1154 138.854C22.8423 142.196 26.9384 144.509 31.0346 143.481C32.6731 143.095 35.5404 143.738 37.4519 144.894C41.6846 147.465 48.2385 158.004 47.1462 160.574C46.7365 161.602 46.8731 162.116 47.6923 161.731C48.5115 161.345 49.0577 161.474 49.0577 162.116C49.0577 162.887 50.2865 163.144 51.7885 162.759C53.5635 162.373 55.7481 163.402 58.6154 165.972C63.3942 170.599 64.2135 177.41 60.2539 180.752C57.5231 183.065 51.925 182.68 49.7404 179.981C48.2385 178.053 43.05 175.225 41.275 175.225C40.7288 175.225 41.0019 175.74 41.9577 176.254C43.1865 177.025 41.8212 177.924 38.1346 179.081C33.0827 180.623 31.9904 180.623 27.6211 178.439C22.9788 175.997 22.7058 175.997 20.9308 178.31C19.975 179.595 17.1077 182.808 14.65 185.379C12.1923 187.949 7.14038 193.347 3.59038 197.46L-2.96347 204.914L-1.46154 211.983C-0.0961559 218.28 -0.232698 219.565 -2.55385 224.064C-4.05578 226.891 -4.60193 229.204 -3.91924 229.204C-1.18847 229.204 3.04422 241.414 3.18076 249.125C3.18076 256.065 2.225 258.636 -6.51346 275.472C-11.8385 285.754 -17.8462 296.549 -19.8942 299.634L-23.4442 305.032H-14.1596C-9.1077 305.032 0.0403825 303.747 6.04808 302.333C21.3404 298.606 26.1192 298.477 27.8942 302.076C28.5769 303.618 30.8981 305.674 33.0827 306.446C38.5442 308.63 42.2308 314.157 42.2308 320.326C42.2308 324.567 41.4115 326.366 37.5885 329.965C34.9942 332.407 30.4884 335.106 27.6211 335.877C24.7538 336.777 21.8865 337.933 21.0673 338.447C15.6058 342.303 -17.5731 343.588 -32.1827 340.504C-39.4192 338.961 -51.2981 335.363 -57.5789 332.792C-59.4904 332.021 -59.9 332.921 -60.4462 338.19C-60.8558 341.917 -62.3577 346.287 -64.1327 348.6C-67.8192 353.356 -87.6173 362.866 -94.0346 362.866C-96.3558 362.866 -101.817 363.766 -106.187 364.794C-115.881 367.236 -128.715 367.236 -135.952 364.794ZM-111.648 358.368C-105.367 357.597 -105.231 357.468 -105.231 353.099C-105.231 348.986 -104.958 348.729 -100.452 348.729C-96.2192 348.729 -95.6731 349.115 -95.6731 352.071C-95.6731 355.155 -95.2635 355.412 -91.4404 354.641C-89.1192 354.255 -83.6577 351.814 -79.2885 349.372C-73.5539 346.03 -70.9596 343.588 -69.0481 339.604C-66.4539 334.335 -66.4539 334.335 -69.4577 332.021C-75.3289 327.523 -73.8269 321.483 -59.9 296.035C-47.6115 273.287 -47.3385 272.902 -42.9692 272.902C-39.2827 272.902 -38.4635 273.416 -38.0539 275.858L-37.6442 278.942L-30.1346 277.014C-24.2635 275.472 -20.9865 273.416 -14.9788 267.889C-5.28461 258.764 -1.73463 250.153 -4.32886 242.185C-5.96732 237.044 -6.10384 236.916 -12.2481 236.916C-15.6615 236.916 -19.7577 236.016 -21.1231 234.988C-24.9461 232.289 -31.0904 232.546 -32.0461 235.373C-32.4558 236.53 -33.4115 240.386 -34.2308 243.984C-36.4154 252.981 -37.2346 253.623 -48.1577 253.623C-57.5788 253.623 -57.8519 253.495 -63.1769 248.483C-66.1808 245.655 -68.9116 243.342 -69.1846 243.342C-69.4577 243.342 -69.7308 245.012 -69.7308 247.069C-69.7308 250.025 -71.0962 251.953 -75.875 255.68C-82.8385 260.949 -84.2038 266.218 -79.1519 267.375C-73.6904 268.789 -76.2846 278.428 -88.5731 301.947C-97.3116 318.655 -100.315 323.025 -102.363 323.025C-103.865 323.025 -106.733 323.667 -108.644 324.567L-112.331 326.109L-107.006 327.523C-102.227 328.808 -101.817 329.322 -101.408 333.821L-100.998 338.704L-114.379 337.805C-121.752 337.291 -128.033 336.52 -128.442 335.877C-128.852 335.363 -132.129 336.391 -135.952 337.933C-141.823 340.504 -142.233 341.018 -138.956 341.018C-135.679 341.018 -135.269 341.403 -135.269 345.645C-135.269 348.086 -135.952 351.428 -136.771 352.842C-137.727 354.512 -137.727 355.926 -136.908 356.697C-135.542 357.983 -123.39 360.167 -120.25 359.653C-119.158 359.396 -115.335 358.882 -111.648 358.368ZM5.36538 335.106C10.0077 334.335 10.1442 334.206 9.73463 329.322L9.18844 324.31H15.3327C19.975 324.31 21.8865 324.953 23.2519 327.009L25.1635 329.708L28.9865 326.88C35.95 321.74 36.2231 319.555 30.625 314.542C26.9385 311.329 24.3442 310.173 21.0673 310.173C18.6096 310.173 16.2884 309.53 16.0154 308.759C15.6058 307.731 13.9673 307.731 10.1442 308.63C7.14038 309.402 -1.05192 310.43 -7.87884 310.944C-15.9346 311.458 -21.1231 312.486 -22.0789 313.514C-22.8981 314.542 -26.0385 315.314 -28.9058 315.314C-33.9577 315.314 -34.2308 315.056 -34.2308 311.458C-34.2308 307.474 -30.5442 299.634 -25.7654 293.208L-23.1711 289.609H-31.7731H-40.375L-49.5231 306.831C-59.6269 325.724 -59.6269 325.081 -49.25 328.551C-31.7731 334.335 -8.01539 337.162 5.36538 335.106ZM-92.9423 272.13C-93.7615 270.331 -94.3077 265.062 -94.3077 260.564C-94.3077 252.724 -94.0346 251.953 -89.9385 248.354C-87.4808 246.298 -84.8865 244.627 -84.0673 244.498C-82.7019 244.498 -105.231 239.615 -109.327 239.1C-110.556 238.972 -111.512 240.514 -112.194 243.856C-113.013 248.483 -114.652 250.539 -120.66 254.266C-124.619 256.708 -124.619 260.821 -120.796 265.062C-116.29 270.203 -115.062 270.074 -113.969 264.548C-113.15 260.435 -112.74 260.049 -108.508 260.049C-104.412 260.049 -103.865 260.435 -103.865 263.391C-103.865 269.303 -98.95 275.343 -94.0346 275.472C-91.9866 275.472 -91.85 274.958 -92.9423 272.13ZM-143.462 227.534C-141.823 224.449 -140.867 223.935 -136.771 224.321C-131.992 224.706 -131.856 224.835 -131.446 230.49C-131.037 236.916 -128.852 242.056 -126.394 242.056C-125.302 242.056 -125.029 239.615 -125.438 234.474C-126.121 226.377 -125.165 223.806 -118.612 216.224C-113.15 209.798 -112.194 202.472 -116.017 196.689C-120.113 190.391 -123.937 188.463 -130.763 189.106C-135.815 189.62 -136.635 190.005 -136.635 192.704C-136.635 198.745 -139.502 202.215 -144.417 202.215C-148.787 202.215 -148.923 202.086 -148.923 197.203C-148.923 189.363 -147.967 188.078 -141.823 188.078C-137.044 188.078 -136.498 187.821 -138 186.15C-138.956 185.122 -141.96 184.222 -144.69 184.222C-150.835 184.222 -152.473 183.194 -154.248 178.696C-155.887 174.711 -158.071 175.097 -159.71 179.595C-161.075 182.808 -158.344 188.72 -154.385 190.648C-149.333 193.218 -151.517 206.199 -158.481 214.424C-162.577 219.308 -164.079 222.136 -160.938 219.18C-159.983 218.28 -157.252 217.637 -154.794 217.637C-150.562 217.637 -150.288 217.895 -150.288 221.879C-150.288 224.064 -151.244 227.148 -152.337 228.433C-154.794 231.389 -153.838 235.116 -149.742 239.229L-146.875 242.314L-146.056 236.659C-145.646 233.703 -144.417 229.461 -143.462 227.534ZM-45.8365 237.944C-45.1539 235.245 -45.2904 233.703 -46.3827 233.317C-47.2019 233.06 -47.8846 231.132 -47.8846 229.076C-47.8846 225.991 -48.4308 225.349 -51.025 225.349C-52.8 225.349 -55.3942 224.449 -56.8962 223.421C-61.8116 219.951 -62.9038 220.979 -60.7192 227.02C-58.9442 231.903 -50.0692 242.056 -47.7481 242.056C-47.2019 242.056 -46.2462 240.257 -45.8365 237.944ZM-73.0077 231.004C-73.4173 229.847 -73.8269 226.377 -73.8269 223.292V217.509L-88.3 211.211C-96.2192 207.613 -102.91 204.785 -103.183 204.785C-103.456 204.785 -103.865 208.384 -104.138 212.882C-104.412 217.252 -105.094 221.75 -105.64 222.907C-106.869 225.349 -103.046 227.148 -89.5289 230.49C-77.1039 233.574 -71.9154 233.831 -73.0077 231.004ZM-9.5173 209.412C-10.3365 207.613 -11.5654 206.071 -12.3846 206.071C-14.7058 206.071 -13.8865 210.954 -11.4289 212.368C-8.28847 214.039 -7.87884 213.525 -9.5173 209.412ZM-4.19231 166.615C-4.19231 162.887 -4.60192 159.803 -5.14808 159.803C-5.83077 159.803 -6.24039 163.53 -6.24039 168.028C-6.24039 172.655 -5.83078 175.611 -5.28462 174.84C-4.73847 173.94 -4.19231 170.213 -4.19231 166.615ZM26.3923 167.514C29.8058 167.514 31.1711 168.157 31.7173 170.085C32.4 172.784 36.7692 173.683 36.7692 171.241C36.7692 169.571 47.5558 170.213 52.4712 172.141C54.9288 173.041 55.0654 172.912 53.1538 170.727C52.0615 169.442 49.0577 167.643 46.7365 166.615C44.0058 165.586 41.275 163.016 39.6365 160.06C35.95 153.377 31.5808 150.035 25.3 149.136C18.7462 148.108 18.7462 148.108 17.7904 141.553C17.2442 138.083 15.8788 135.641 13.9673 134.356C10.8269 132.556 10.8269 132.556 10.8269 139.882C10.8269 146.18 10.2808 147.593 6.86731 150.935C4.6827 152.991 2.22501 154.662 1.40578 154.662C0.586545 154.662 -0.0961559 155.305 -0.0961559 155.947C-0.0961559 157.49 2.22499 157.618 3.18076 156.076C4.54614 154.148 9.325 156.076 12.1923 159.546C15.4692 163.402 15.8788 171.37 12.875 171.37C11.6462 171.37 10.8269 172.527 10.8269 174.069C10.8269 176.511 11.3731 176.382 16.2885 172.141C20.2481 168.799 22.9788 167.514 26.3923 167.514ZM-20.5769 165.972C-20.5769 163.53 -21.6692 163.659 -25.7654 166.615C-27.1308 167.643 -27.1308 168.157 -25.9019 168.928C-23.4442 170.342 -20.5769 168.799 -20.5769 165.972ZM-2.41731 107.366C-0.369229 107.109 1.26923 106.338 1.26923 105.696C1.26923 105.053 2.49808 104.539 4 104.539C5.63846 104.539 6.73077 103.639 6.73077 102.225C6.73077 100.94 9.73461 98.3698 14.2404 95.7994C19.975 92.5864 21.75 90.7871 21.75 88.4737C21.75 86.8029 23.2519 83.2044 25.1635 80.6339C30.3519 73.3082 30.625 70.8663 26.3923 62.898C20.6577 51.8452 16.6981 48.2466 9.18844 47.2184L2.63461 46.4473V53.6445C2.63461 59.942 2.36154 60.8417 -0.0961559 60.8417C-1.59808 60.8417 -2.82693 61.7413 -2.82693 62.7695C-2.82693 65.9825 -7.60577 73.5653 -9.65385 73.6938C-10.7462 73.6938 -12.6577 75.6216 -13.75 77.935C-14.9788 80.5054 -17.0269 82.1762 -18.8019 82.4332C-22.8981 82.9473 -22.7615 84.4896 -18.5288 86.2889C-15.7981 87.4455 -15.1154 88.7308 -15.1154 92.3294C-15.1154 96.442 -15.3885 96.8276 -19.2115 96.8276C-22.2154 96.8276 -23.3077 97.4702 -23.3077 99.141C-23.1712 101.968 -11.0192 109.937 -8.28846 108.909C-7.19616 108.394 -4.60192 107.752 -2.41731 107.366Z" fill="black"/>
<path d="M-54.0289 215.709C-55.9404 214.038 -57.4423 213.139 -57.4423 213.781C-57.4423 214.552 -58.6712 213.91 -60.1731 212.496C-62.2212 210.568 -63.5865 210.183 -65.4981 211.082C-67.2731 211.982 -69.0481 211.725 -72.1885 209.926C-74.5096 208.512 -82.8385 204.785 -90.4846 201.443C-101.544 196.688 -105.777 194.118 -110.419 189.234C-113.56 185.892 -117.383 182.679 -118.885 182.294C-122.025 181.394 -125.029 172.14 -126.394 159.545C-127.213 152.091 -126.94 150.806 -124.756 149.521C-122.435 148.107 -122.571 148.107 -125.029 149.007C-126.531 149.521 -134.86 150.163 -143.462 150.549C-158.89 151.063 -159.163 151.063 -156.842 148.621C-153.429 145.023 -153.702 144.38 -159.163 144.38C-163.533 144.38 -178.279 140.267 -180.054 138.596C-180.463 138.211 -179.508 136.926 -177.733 135.898C-174.729 133.841 -174.865 133.841 -182.648 130.371C-187.017 128.443 -191.523 125.744 -192.615 124.459C-193.708 123.045 -193.981 122.403 -193.162 122.917C-192.342 123.302 -189.338 124.074 -186.608 124.331L-181.556 124.973L-185.106 120.989C-188.792 116.876 -196.712 102.996 -196.712 100.683C-196.712 99.7831 -195.892 99.6546 -194.39 100.554C-192.206 101.582 -191.933 100.811 -191.933 91.8148C-191.933 83.3324 -191.387 80.8905 -187.427 73.6933C-179.781 59.1704 -179.371 58.9134 -164.352 58.9134C-152.746 58.9134 -151.517 59.0419 -152.063 61.0982C-153.019 64.3113 -150.698 80.3764 -148.787 84.3606C-147.012 88.0877 -145.237 87.8306 -143.462 83.4609C-142.506 81.2761 -142.233 81.9187 -142.233 86.2884C-142.096 92.3289 -138.683 99.9116 -136.635 98.7549C-135.815 98.2408 -135.269 96.9556 -135.133 95.799C-135.133 94.6423 -134.313 96.4416 -133.358 99.7831C-132.402 103.253 -130.49 106.98 -129.262 108.137C-127.213 110.065 -127.077 109.936 -127.077 107.109C-126.94 104.024 -126.94 104.024 -125.438 106.466C-124.619 107.88 -121.069 112.25 -117.792 116.105C-112.467 122.146 -111.648 122.66 -112.331 119.575C-112.877 117.005 -111.512 113.149 -107.825 106.081L-102.5 96.1845V101.711C-102.5 104.667 -101.817 107.109 -101.135 107.109C-100.315 107.109 -99.7692 106.723 -99.7692 106.209C-99.6327 104.538 -83.1115 88.4732 -77.7865 84.8747C-71.0962 80.1194 -69.7308 80.5049 -74.7827 85.6458C-79.425 90.4011 -83.3846 95.6704 -83.3846 97.2127C-83.3846 97.8553 -80.9269 96.5701 -78.0596 94.3852C-70.6866 88.8588 -58.2616 83.718 -50.7519 83.0754L-44.4712 82.4328L-48.9769 85.1317C-51.4346 86.6739 -53.8923 87.8306 -54.4385 87.8306C-55.1212 87.8306 -57.0327 89.3729 -58.9443 91.1722L-62.2212 94.6423L-58.8077 93.7426C-48.2942 90.9151 -35.3231 89.887 -27.8135 91.4292C-23.5808 92.2004 -19.7577 92.7144 -19.4846 92.3289C-18.6654 91.6863 -23.9904 89.6299 -29.1789 88.4732L-33.0019 87.7021L-28.9058 83.2039C-26.5846 80.762 -24.6731 77.4204 -24.5365 75.8782C-24.5365 73.1792 -24.4 73.1792 -23.1712 76.1352C-21.9423 78.9627 -21.6692 79.0912 -19.7577 77.2919C-18.6654 76.2637 -16.8904 72.5366 -15.9346 69.0666C-14.1596 63.0261 -14.0231 62.8975 -13.0673 66.3676L-12.1116 69.8377L-9.65386 65.725C-8.42501 63.4116 -6.78655 59.556 -6.2404 57.2426C-5.42117 53.2585 -5.14808 53.1299 -3.37308 55.3148C-1.46154 57.3711 -1.32502 56.8571 -1.87117 50.174L-2.41732 42.7197L8.50574 43.1053C18.8827 43.4909 19.5654 43.6194 23.1154 47.732C28.9865 54.5437 34.0384 65.2109 34.0384 71.1229C34.0384 76.1352 30.0788 85.5173 27.2115 87.188C26.5288 87.5736 25.8461 88.8588 25.8461 89.887C25.8461 91.3007 26.6654 91.5578 28.5769 91.0437C33.7654 89.5014 31.3077 91.8148 20.7942 98.2408C10.1442 104.795 10.1442 104.924 21.75 102.482C23.7981 102.096 24.6173 102.225 23.7981 102.996C21.75 104.795 11.1 108.394 7.68652 108.523C6.04806 108.523 5.50191 108.908 6.45768 109.294C9.46153 110.45 8.23268 111.864 4.68268 111.221C2.77114 110.964 -1.87116 111.993 -5.83078 113.535C-11.8385 115.977 -13.0673 116.105 -14.2962 114.563C-15.1154 113.535 -18.2558 111.093 -21.2596 109.037L-26.7212 105.181L-20.3039 111.993C-10.4731 122.403 -6.78655 130.628 -5.83078 143.866C-5.28463 153.89 -4.87501 154.919 -2.0077 155.947C0.176917 156.846 2.36152 156.589 4.95575 155.176L8.77883 153.248L4.4096 154.019C0.449989 154.79 -0.0961685 154.533 -0.0961685 152.22C-0.0961685 150.806 1.67883 147.85 3.99999 145.665C7.54998 142.195 7.82305 141.424 6.59421 137.954C5.77498 135.898 4.54613 134.098 3.86344 134.098C3.18075 134.098 2.6346 132.942 2.6346 131.656C2.6346 127.415 9.59807 126.387 16.425 129.6C21.3404 132.042 23.525 136.669 21.75 141.167C20.6577 143.994 20.7942 144.38 23.2519 144.38C24.7538 144.38 25.7096 144.894 25.3 145.408C25.0269 145.922 26.8019 146.179 29.3961 145.922C35.1308 145.28 40.4558 149.392 44.2788 157.361C45.6442 160.06 47.1461 162.373 47.5557 162.501C55.3384 163.401 60.2538 168.285 59.7077 174.711C59.298 181.008 56.5673 182.808 52.7442 179.338C49.0577 175.996 42.0942 173.426 41.0019 174.968C38.2711 178.695 24.8904 177.024 26.3923 173.169C28.1673 168.67 21.2038 174.711 9.18843 187.949C-3.23657 201.829 -3.50962 201.957 -6.10385 199.644C-8.56154 197.331 -8.56156 196.945 -6.65002 194.889C-2.55386 190.519 1.26922 181.78 1.26922 176.896L1.13267 172.012L-1.46155 178.952C-4.60194 187.306 -9.38078 193.989 -15.1154 198.23C-17.5731 199.901 -19.2116 202.471 -19.2116 204.142C-19.2116 207.869 -21.3962 209.412 -27.8135 210.311C-30.6808 210.697 -35.3231 212.882 -38.1904 214.938C-44.6077 219.693 -49.6596 219.95 -54.0289 215.709ZM-39.6923 210.568C-37.0981 208.769 -32.7289 206.97 -29.8616 206.584C-25.3558 205.813 -25.0827 205.556 -26.8577 203.885C-29.4519 201.315 -28.6327 199.13 -24.8096 198.616C-23.1712 198.359 -20.85 196.56 -19.6212 194.76C-18.3923 192.832 -16.3442 190.133 -14.9789 188.72C-13.75 187.306 -12.3846 183.836 -11.975 181.008C-11.1558 176.125 -11.1558 176.125 -12.6577 179.723C-14.4327 184.35 -17.8462 188.206 -19.2116 187.435C-19.7577 187.049 -22.0789 187.692 -24.1269 188.72C-29.8616 191.547 -34.9135 191.033 -39.1462 187.435C-41.1943 185.635 -43.6519 184.221 -44.6077 184.221C-48.0212 184.221 -51.025 190.648 -51.7077 199.515C-52.6635 213.524 -48.9769 216.994 -39.6923 210.568ZM6.73075 176.639C6.73075 172.783 2.22499 166.229 0.586524 167.771C0.0403699 168.285 0.859592 170.213 2.49805 172.14C3.99998 174.068 5.36537 176.639 5.36537 177.924C5.36537 179.338 5.63845 180.366 6.04806 180.366C6.45768 180.366 6.73075 178.695 6.73075 176.639ZM-61.4019 175.225C-55.9404 172.398 -59.6269 158.774 -67.9558 151.449C-72.7346 147.336 -74.7827 147.336 -76.8308 151.449C-79.1519 156.332 -75.875 168.285 -71.0962 172.912C-66.8635 176.896 -65.3615 177.153 -61.4019 175.225ZM-20.1673 175.096C-18.2558 174.325 -15.9346 172.269 -14.9789 170.598C-14.0231 168.799 -12.3846 167.771 -11.4289 168.028C-9.10771 168.927 -9.10771 166.743 -11.4289 164.815C-12.6577 163.658 -13.0673 160.831 -12.6577 155.947C-11.975 147.079 -16.0712 138.082 -20.7135 137.954C-22.4885 137.954 -23.0346 143.737 -22.0789 149.906C-20.9866 155.69 -21.2596 156.204 -24.5365 157.746C-26.4481 158.774 -29.1789 160.702 -30.5442 162.116C-32.0462 163.658 -34.0943 164.429 -35.7327 164.044C-39.2827 163.144 -44.6077 166.614 -47.3385 171.755L-49.6596 175.868L-44.6077 171.112C-41.7404 168.542 -38.3269 166.229 -36.825 165.843C-34.3673 165.2 -34.2308 165.586 -34.9135 168.799C-35.5962 171.883 -35.1866 172.783 -31.9096 174.454C-27.2673 176.767 -24.5365 177.024 -20.1673 175.096ZM8.77883 164.172C6.73075 161.088 1.26922 158.132 0.0403783 159.288C-0.369237 159.674 1.81538 161.987 4.81922 164.686C10.5538 169.699 12.6019 169.57 8.77883 164.172ZM-89.3923 130.243C-88.4365 122.66 -84.6135 116.105 -80.9269 115.977C-79.2885 115.977 -79.425 115.591 -81.6096 114.82C-85.1596 113.535 -92.8058 115.463 -93.0789 117.776C-93.2154 118.676 -93.3519 124.074 -93.4885 129.857C-93.625 138.211 -93.2154 140.139 -91.9866 138.854C-91.0308 137.954 -89.9385 134.098 -89.3923 130.243ZM-125.712 134.998C-129.808 131.913 -135.406 123.817 -134.996 121.632C-134.723 120.089 -135.679 119.19 -137.727 118.933C-140.458 118.547 -140.867 117.905 -140.185 115.334C-139.229 111.736 -141.413 110.579 -152.2 109.165L-158.89 108.394L-157.935 113.278C-157.388 115.848 -156.706 118.676 -156.569 119.318C-156.296 120.089 -155.613 121.889 -155.067 123.56C-153.975 126.901 -154.248 126.773 -149.606 125.102C-146.056 123.817 -146.056 123.945 -147.012 128.572C-147.831 132.942 -147.694 133.199 -144.963 132.427C-142.915 131.913 -141.004 132.556 -139.229 134.227C-137.454 135.898 -134.723 136.669 -130.081 136.669C-124.892 136.54 -124.073 136.283 -125.712 134.998ZM-26.0385 112.764C-30.6808 106.595 -34.6404 105.567 -35.3231 110.579C-35.7327 112.764 -35.1865 113.149 -33.1385 112.635C-31.5 112.25 -29.1789 113.278 -26.9942 115.334C-21.6692 120.346 -21.2596 119.318 -26.0385 112.764ZM-29.3154 98.6264C-30.9539 97.5982 -34.9135 96.8271 -38.8731 96.9556L-45.8366 97.0842L-39.0096 98.6264C-35.1866 99.3975 -30.9539 100.169 -29.4519 100.297C-26.7212 100.554 -26.7212 100.554 -29.3154 98.6264Z" fill="white"/>
</g>
<defs>
<clipPath id="clip0_639_10490">
<rect width="135" height="130" fill="white"/>
</clipPath>
</defs>
</svg>
