<svg width="405" height="390" viewBox="0 0 405 390" fill="none" xmlns="http://www.w3.org/2000/svg">
<rect x="1.5" y="1.5" width="402" height="387" rx="18.5" fill="#FDFFEF" stroke="black" stroke-width="3"/>
<path d="M308.5 107.11C308.5 148.532 297 122.61 199.5 216.11C199.5 216.11 86.5 187.532 86.5 146.11C93 107.11 141.303 60.6104 183 60.6104C224.697 60.6104 308.5 65.6889 308.5 107.11Z" fill="black"/>
<path d="M268 193.11C268 209.955 274.5 229.11 262.5 229.11C247.5 238.61 261 197.11 258.5 195.11C258.5 178.266 255 162.61 263.5 165.11C277.5 127.11 268 176.266 268 193.11Z" fill="black"/>
<path d="M139.5 229.61C139.5 246.455 148 260.538 136.699 262.11C126.5 269.11 133.5 227.61 131 225.61C129 208.11 128.199 198.683 136.699 201.183C138.5 166.61 139.5 212.766 139.5 229.61Z" fill="black"/>
<path d="M196.5 215.61C196.5 217.267 174.583 210.61 160.5 210.61C142.5 204.11 151 209.61 134.5 214.11C134.5 212.453 140.917 198.11 155 198.11C169.083 198.11 196.5 213.953 196.5 215.61Z" fill="black"/>
<path d="M290.5 302.611C303 311.61 281 347.111 263.5 339.61C256.873 339.61 263.5 333.872 263.5 331.11C263.5 328.349 273.872 308.61 280.5 308.61C287.127 308.61 290.5 299.849 290.5 302.611Z" fill="black"/>
<path d="M212.123 131.441V132.13C211.697 132.046 211.709 132.13 211.206 131.899L211.553 131.429L212.123 131.441Z" fill="black"/>
<path d="M267.896 344.686C267.896 353.61 262.213 354.635 255.202 354.635C234.53 357.215 238.882 348.707 238.882 343.212C237.069 329.579 248.192 334.737 255.202 334.737C262.213 334.737 278.776 321.841 267.896 344.686Z" fill="black"/>
<path d="M212 348.61C209.5 358.11 204.165 362.11 194.5 362.11C166 365.61 172 354.066 172 346.61C169.5 328.11 184.835 335.11 194.5 335.11C204.165 335.11 227 317.61 212 348.61Z" fill="black"/>
<path d="M203.027 344.531C200.527 354.032 195.192 358.031 185.527 358.031C157.027 361.531 160.5 345.566 160.5 338.11C165 328.61 167.5 317.11 183 318.61C192.665 318.61 218.027 313.532 203.027 344.531Z" fill="black"/>
<path d="M285 295.11C285 310.298 258.5 325.11 266 301.111C257.992 301.111 232.5 290.298 232.5 275.11C232.5 259.923 235.992 241.111 244 241.111C283 234.11 285 279.922 285 295.11Z" fill="black"/>
<path d="M168 273.11C168 295.202 189.09 335.11 185.5 335.11C181.91 335.11 155 295.202 155 273.11C155 251.019 176.91 208.61 180.5 208.61C184.09 208.61 168 251.019 168 273.11Z" fill="black"/>
<path d="M245.5 273.61C321.5 326.11 266 354.61 215 339.61C127.548 351.61 192.452 309.024 192.452 275.61C192.452 242.197 213.484 216.11 229.5 216.11C240 204.61 245.5 240.197 245.5 273.61Z" fill="black"/>
<path d="M215.5 251.61C215.5 289.994 204.531 321.11 191 321.11C177.469 321.11 166.5 289.994 166.5 251.61C166.5 213.226 206.969 179.11 220.5 179.11C322 76.1103 258 179.11 215.5 251.61Z" fill="black"/>
<path d="M231.5 58.1104C234 71.1104 213.949 62.6104 196 62.6104C178.051 62.6104 163 63.1104 169 51.1103C169 48.3488 178.051 50.11 196 50.11C213.949 50.11 230.5 50.11 231.5 58.1104Z" fill="black"/>
<path d="M317 150.61C310 169.11 303.5 176.269 290.5 175.55C273.5 174.61 271.5 156.761 271.5 144.61C271.5 132.46 284.977 131.55 290.5 131.55C296.023 131.55 327.5 85.6104 317 150.61Z" fill="black"/>
<path d="M226 50.1104C226 52.8718 214.755 55.1102 201.5 55.1102C188.245 55.1102 175 47.8714 175 45.11C175 42.3486 187.5 42.6104 203 44.1104C224 46.1104 226 47.349 226 50.1104Z" fill="black"/>
<path d="M182 48.6104C182 49.7149 180.485 50.6106 178 50.6106C175.515 50.6106 169 51.7149 169 50.6104C173 47.6104 173 47.6104 179 47.1104C181.485 47.1104 182 47.5058 182 48.6104Z" fill="black"/>
<path d="M155.5 74.1104C155.5 87.3652 130.165 116.11 120.5 116.11C110.835 116.11 118.5 88.3652 118.5 75.1104C130.5 63.6104 133.5 58.6104 149 50.1104C158.665 50.1104 155.5 60.8555 155.5 74.1104Z" fill="black"/>
<ellipse cx="162.5" cy="62.6104" rx="15" ry="11.5" fill="black"/>
<path d="M161 51.1104C161 52.2149 159.485 53.1106 157 53.1106C154.515 53.1106 149.5 53.2149 149.5 52.1104C149.5 51.0058 155.515 49.6104 158 49.6104C160.485 49.6104 161 50.0058 161 51.1104Z" fill="black"/>
<path d="M298.5 88.1104C297.176 91.4471 280.128 80.9347 267.808 76.046C255.488 71.1572 231.676 69.4472 233 66.1105C234.324 62.7737 257 57.1104 272.603 63.9625C289 76.046 299.824 84.7736 298.5 88.1104Z" fill="black"/>
<path d="M224.385 50.3612C223.992 51.2822 224.068 52.1966 224.714 52.4717C225.359 52.7467 226.66 54.3886 227.052 53.4676C227.078 50.5235 227.078 50.5235 225.697 49.4425C225.051 49.1675 224.777 49.4402 224.385 50.3612Z" fill="black"/>
<path d="M322 121.11C322 132.432 310.046 138.61 299 138.61C287.954 138.61 283.5 128.932 283.5 117.61C283.5 106.289 279.454 82.6104 290.5 82.6104C301.546 82.6104 322 109.789 322 121.11Z" fill="black"/>
<path d="M161.5 176.11C161.5 192.679 141.054 214.11 122 214.11C102.946 214.11 85 177.179 85 160.61C88 110.61 107.946 146.11 127 146.11C146.054 146.11 161.5 159.542 161.5 176.11Z" fill="black"/>
</svg>
