<svg width="135" height="130" viewBox="0 0 135 130" fill="none" xmlns="http://www.w3.org/2000/svg">
<g clip-path="url(#clip0_645_68695)">
<rect x="-268.5" y="-258.5" width="402" height="387" rx="18.5" fill="#FDFFEF" stroke="black" stroke-width="3"/>
<g clip-path="url(#clip1_645_68695)">
<path d="M0.3125 58.8151C1.86016 59.1486 3.42969 60.0942 4.14062 61.5483C3.97109 61.5647 3.71953 62.084 3.59375 62.095C2.53828 62.2098 -0.212494 62.6143 -0.912495 62.5104C-2.47656 62.2754 -3.60859 60.2746 -4.86093 60.3949L-9.53125 62.6416L-10.625 60.455L-10.3078 64.3034C-10.8984 65.1234 -13.4086 64.8446 -14.4531 64.8227C-16.05 64.7899 -18.6695 64.2323 -19.9219 63.1828C-18.9266 62.8384 -17.9805 62.3628 -17.1875 62.0895C-12.1836 60.373 -10.1383 58.755 -4.30313 59.3235C-2.70078 59.482 -1.18594 61.7943 -0.78125 58.8096C-0.425781 58.8534 -0.00468826 58.744 0.3125 58.8096V58.8151Z" fill="#F3BE56"/>
<path d="M0.3125 57.1754H-0.234375C-1.32812 57.2027 -2.42734 57.1371 -3.51562 57.1754V56.6287C-3.12187 56.5686 -2.65157 56.7052 -2.24141 56.5467C-0.600788 55.929 -1.86406 54.0103 -1.90234 52.5507C-1.95702 50.4516 -1.80937 48.3361 -1.875 46.2425C-1.62344 45.8872 -1.83672 44.7665 -0.78125 44.6025C-0.573437 49.0686 -0.0648434 52.8186 0.3125 57.1754Z" fill="#BE8B45"/>
<path d="M12.3438 63.1881C12.5516 63.516 12.6609 63.9862 12.8906 64.2813H12.3438C11.5289 62.6414 9.63672 62.5266 7.96875 62.6414C7.925 62.9967 8.0125 63.3794 7.96875 63.7347C7.925 64.09 8.00156 64.4672 7.96328 64.828L6.875 64.2813C6.32266 63.5652 5.41484 63.5652 4.6875 63.1881C4.17344 62.9202 3.79609 62.6742 3.59375 62.0948C3.71953 62.0838 3.97109 61.5645 4.14062 61.5481C4.29375 61.5317 4.93359 62.1166 5.50781 62.0565C6.47031 61.9526 6.89687 60.9249 8.09999 61.078C9.57656 61.2693 11.2555 62.6195 12.3438 63.1881Z" fill="#E7B963"/>
<path d="M17.8126 70.8413C18.168 72.3337 18.6712 73.5472 18.3595 75.2145L17.2712 73.0334C17.1891 74.1431 16.779 75.1926 16.7188 76.3078C15.8274 76.0399 15.7345 75.4933 15.6251 74.6679C15.4665 73.4816 15.7345 72.0713 15.6251 70.8413C15.9532 70.5243 16.5766 70.3822 16.7188 69.748C17.0087 70.1635 17.4516 70.4915 17.8126 70.8413Z" fill="#C3933F"/>
<path d="M18.3593 75.2143L17.8125 83.414C18.2281 82.5503 17.3148 81.5937 17.2656 81.2274C17.1289 80.1888 16.757 78.8932 16.7187 78.4942C16.664 77.9639 16.7296 77.3954 16.7187 76.8542C16.7187 76.6739 16.7078 76.488 16.7187 76.3076C16.7789 75.1924 17.189 74.1429 17.2711 73.0332L18.3593 75.2143Z" fill="#B7893B"/>
<path d="M12.3438 82.8674C12.3875 84.6714 11.5234 89.6185 13.4375 89.4272V91.0671C13.1313 91.16 12.6172 90.9687 12.3438 91.0671C12.2016 90.8594 12.0266 90.6243 11.7969 90.5205C11.6219 89.1539 12.3438 87.093 11.25 86.1473C11.4469 84.901 11.682 83.5672 11.7969 82.3208H12.3438C12.3438 82.5012 12.3438 82.6871 12.3438 82.8674Z" fill="#965F22"/>
<path d="M8.51562 90.5205C8.31875 91.1273 8.51562 92.073 7.96875 92.7071C7.02266 92.6524 6.09844 93.1553 5.23438 93.2537C4.87891 93.292 4.50156 93.2264 4.14062 93.2537C3.77969 93.2811 3.40234 93.2155 3.04688 93.2537V92.7071C4.16797 92.5595 4.83516 92.0238 5.78125 91.6138C6.67266 91.2257 7.58594 90.8212 8.51562 90.5205Z" fill="#A36E24"/>
<path d="M12.8907 83.4138C12.8907 84.8679 12.8907 86.3329 12.8907 87.7925H15.0782V88.3336C14.9797 88.678 14.6571 89.0497 14.5313 89.4269H13.4375C11.5235 89.6183 12.3875 84.6711 12.3438 82.8672H12.8907C12.8907 83.0476 12.8907 83.2334 12.8907 83.4138Z" fill="#9F6723"/>
<path d="M10.1562 88.8804L9.60938 89.427L10.1562 90.5203C10.107 90.8319 9.71875 91.2583 9.60938 91.6136V92.1603C9.07344 92.3352 8.45 93.1114 7.96875 93.2536V92.7069C8.52109 92.0728 8.31875 91.1271 8.51562 90.5203C8.86562 89.4434 8.87109 88.2955 10.1562 87.7871C10.1344 88.1479 10.1727 88.5196 10.1562 88.8804Z" fill="#A27231"/>
<path d="M16.1719 65.9212C15.8492 65.8228 15.6086 66.2383 15.625 66.4679C15.1055 66.0797 14.482 65.79 13.9844 65.3746C13.6234 65.0739 13.175 64.6475 12.8906 64.2813C12.6609 63.9861 12.5516 63.516 12.3438 63.188C14.1047 64.1118 14.6133 63.3957 16.1719 65.9212Z" fill="#DDB96E"/>
<path d="M17.8125 83.4141L15.625 86.694C15.6359 86.1473 15.614 85.6007 15.625 85.0541C15.9367 84.3762 17.5172 81.5118 17.2656 81.2275C17.3148 81.5938 18.2281 82.5504 17.8125 83.4141Z" fill="#9E7233"/>
<path d="M17.8126 70.8414C17.4516 70.4915 17.0087 70.1635 16.7188 69.7481C16.5493 69.5075 16.4946 69.0702 16.1719 68.6548C16.0352 67.9277 15.6743 67.2062 15.6251 66.4682C15.6087 66.2386 15.8493 65.8232 16.1719 65.9216C17.0907 67.4139 17.4133 69.1577 17.8126 70.8414Z" fill="#CAAD71"/>
<path d="M11.25 90.5203C11.3977 90.5913 11.6492 90.4492 11.7969 90.5203C12.0266 90.6241 12.2016 90.8592 12.3438 91.0669C12.1086 91.1544 11.3211 91.7393 10.1562 92.1602L9.60938 91.6136C9.71875 91.2582 10.107 90.8319 10.1562 90.5203C10.1781 90.3672 10.1836 90.1212 10.1562 89.9736H10.7031C10.9 90.1158 11.0641 90.4273 11.25 90.5203Z" fill="#855C2A"/>
<path d="M-0.234375 90.5205C-0.141406 91.2257 0.0992155 91.98 0.394528 92.6305C0.744528 92.8492 2.47813 92.7836 3.04688 92.7071V93.2537C2.34141 93.3248 1.55391 93.1608 0.859375 93.2537L-0.78125 92.7071C-0.78125 91.9855 -0.721094 91.2311 -0.78125 90.5205H-0.234375Z" fill="#B57928"/>
<path d="M-0.78125 57.7217H0.3125C0.3125 58.0879 0.3125 58.4487 0.3125 58.815C-0.00468755 58.7494 -0.425781 58.8587 -0.78125 58.815C-1.31172 58.7494 -1.88594 58.8751 -2.42188 58.815V57.7217C-2.24141 57.7162 -2.05547 57.7217 -1.875 57.7217L-1.06016 58.2628L-0.78125 57.7217Z" fill="#F0CD8A"/>
<path d="M15.625 86.6941C15.614 87.044 15.6961 87.5141 15.625 87.7874H15.0781C14.3398 86.8581 14.7828 86.4317 15.0781 85.6008C15.1437 85.4205 15.5375 85.2401 15.625 85.0542C15.614 85.6008 15.6359 86.1475 15.625 86.6941Z" fill="#A1702B"/>
<path d="M14.5313 89.4272C14.4 89.8099 14.7172 90.8212 14.5148 91.0508C14.3781 91.2093 13.7273 90.9797 13.4375 91.0672V89.4272H14.5313Z" fill="#956C37"/>
<path d="M7.96875 92.7073V93.2539C7.07187 93.5108 6.175 93.7568 5.23438 93.8006V93.2539C6.09844 93.1555 7.02266 92.6526 7.96875 92.7073Z" fill="#80602E"/>
<path d="M0.859375 93.2537C0.678906 93.2755 0.0554686 93.691 -0.78125 93.8003V92.707L0.859375 93.2537Z" fill="#8A5F2A"/>
<path d="M5.23438 93.2539V93.8006C4.78047 93.8225 4.26641 93.7623 4.14062 93.2539C4.50156 93.2266 4.87891 93.2922 5.23438 93.2539Z" fill="#85612B"/>
<path d="M0.3125 57.7219H-0.234375V57.1753H0.3125C0.328906 57.3557 0.3125 57.5415 0.3125 57.7219Z" fill="#F6CA80"/>
<path d="M15.0781 88.3338V87.7871H15.625C15.5703 87.9948 15.1164 88.1916 15.0781 88.3338Z" fill="#9E7233"/>
<path d="M10.1562 92.1604C9.99766 92.2205 9.77344 92.1057 9.60938 92.1604V91.6138L10.1562 92.1604Z" fill="#6A522D"/>
<path d="M-14.4531 64.8281C-13.4086 64.8499 -10.8984 65.1287 -10.3078 64.3088L-10.625 60.4604L-9.53125 62.647L-4.86093 60.4003C-3.60859 60.2855 -2.48203 62.2807 -0.912495 62.5158C-0.212495 62.6196 2.53828 62.2151 3.59375 62.1003C3.79609 62.6798 4.17344 62.9258 4.6875 63.1936V63.7403C2.92109 62.5158 1.3461 64.2596 -0.502338 64.2924C-1.46484 64.3088 -2.47109 63.7293 -3.51562 63.7403C-4.63672 63.7457 -5.97656 65.8011 -6.96093 66.7906C-7.08671 66.9163 -7.61172 66.6156 -7.89062 67.0201C-9.00625 67.4247 -8.92422 65.976 -9.34531 65.905C-11.1938 65.6043 -13.8625 68.1025 -14.4531 64.8336V64.8281Z" fill="#F2BC50"/>
<path d="M8.51562 63.7349L8.57032 65.3311C8.88203 65.5278 9.48359 65.2819 9.60938 65.3748V65.9214C9.62578 66.4681 9.5875 67.0147 9.60938 67.5614L7.42188 65.9214C7.26328 65.5169 6.92969 64.3526 6.875 64.2815L7.96328 64.8282C8.00156 64.4728 7.925 64.0902 7.96875 63.7349H8.51562Z" fill="#D7A960"/>
<path d="M12.3438 64.2816L8.51568 63.7349H7.96881C8.01256 63.3796 7.92506 63.0024 7.96881 62.6417C9.63678 62.5269 11.529 62.6417 12.3438 64.2816Z" fill="#E8B65A"/>
<path d="M6.87499 64.2813C6.92968 64.3523 7.26327 65.5167 7.42186 65.9212C7.48202 66.0797 7.36171 66.3039 7.42186 66.4679H6.87499L4.68749 64.2813C4.73671 64.1173 4.64921 63.9096 4.68749 63.7346V63.188C5.41483 63.5652 6.32265 63.5652 6.87499 64.2813Z" fill="#DEAD4C"/>
<path d="M15.0781 71.388C15.2586 71.2076 15.4391 71.0217 15.625 70.8413C15.7344 72.0713 15.4664 73.4816 15.625 74.6678L13.9844 75.7611C13.7383 75.0833 12.5133 72.935 11.7969 72.4812V70.8413C12.1578 71.377 13.3391 72.2024 13.7109 73.0169C14.3563 72.6507 14.6516 71.8089 15.0781 71.388Z" fill="#CF9537"/>
<path d="M16.1719 68.6544C16.4945 69.0699 16.5492 69.5072 16.7187 69.7477C16.5766 70.3818 15.9531 70.5239 15.625 70.841C15.4391 71.0214 15.2586 71.2073 15.0781 71.3876C14.5258 71.2783 13.9023 71.169 13.4375 70.841L13.9625 69.4962L15.0727 69.7477V68.1078C15.1383 68.0914 15.275 67.3589 15.5649 67.5885C15.6195 68.0367 15.9148 68.321 16.1719 68.6544Z" fill="#D39D42"/>
<path d="M16.7188 76.3079C16.7078 76.4883 16.7188 76.6742 16.7188 76.8545L15.7891 77.9752C15.0727 78.0736 14.493 77.4996 13.9844 77.4012C13.8914 76.9201 14.1211 76.133 13.9844 75.7613L15.625 74.668C15.7344 75.4934 15.8274 76.04 16.7188 76.3079Z" fill="#C48E30"/>
<path d="M16.7187 78.4944L14.5312 80.681C13.6016 79.4292 13.4102 78.8005 12.8906 77.4011C13.3227 77.9314 13.9297 77.3902 13.9844 77.4011C14.4984 77.505 15.0726 78.079 15.7891 77.9751L16.7187 76.8545C16.7297 77.3957 16.6641 77.9642 16.7187 78.4944Z" fill="#C3892F"/>
<path d="M17.2656 81.2274C16.6641 81.4296 16.2047 81.9653 15.625 82.3207C15.9312 81.2438 14.8758 81.1399 14.5312 80.6807L16.7188 78.4941C16.757 78.8932 17.1289 80.1887 17.2656 81.2274Z" fill="#B8832F"/>
<path d="M11.7969 78.4942C11.7805 79.0408 11.8297 79.5929 11.7969 80.1341C11.7531 80.8557 11.8625 81.6046 11.7969 82.3207C11.682 83.567 11.4469 84.9008 11.25 86.1472C11.2226 86.3276 11.2773 86.5189 11.25 86.6938C11.2391 86.754 10.8453 86.8688 10.7031 87.7871C10.6539 88.1206 10.7031 88.5306 10.7031 88.8804H10.1562C10.1726 88.5196 10.1344 88.1479 10.1562 87.7871C10.2109 86.7868 10.5883 86.262 10.7031 85.6006C10.818 84.9391 10.6211 84.1082 10.7031 83.414C10.8453 82.2442 11.1406 81.1509 11.25 79.5875C11.2992 78.8659 11.2226 78.1279 11.25 77.4009H11.7969C11.775 77.7617 11.8078 78.1334 11.7969 78.4942Z" fill="#B37D3D"/>
<path d="M11.7969 90.5206C11.6492 90.4496 11.3977 90.5917 11.25 90.5206L10.7031 88.8807C10.7031 88.5308 10.6539 88.1208 10.7031 87.7874L11.25 86.6941C11.2774 86.5192 11.2227 86.3279 11.25 86.1475C12.3438 87.0932 11.6219 89.154 11.7969 90.5206Z" fill="#8A551D"/>
<path d="M12.8906 81.2273V82.8673H12.3437C12.3437 82.6869 12.3437 82.501 12.3437 82.3206C12.3328 81.5936 12.3547 80.8611 12.3437 80.134C12.3437 79.9537 12.3437 79.7678 12.3437 79.5874C13.1531 79.8498 12.7484 80.7627 12.8906 81.2273Z" fill="#A66D2A"/>
<path d="M12.3438 82.3209H11.7969C11.8625 81.6048 11.7532 80.8558 11.7969 80.1343H12.3438C12.3547 80.8613 12.3329 81.5938 12.3438 82.3209Z" fill="#9B6120"/>
<path d="M9.06249 86.6942C7.94139 88.2466 6.96796 90.0834 5.78124 91.614C4.83514 92.0239 4.16796 92.5597 3.04686 92.7073C2.47811 92.7838 0.739047 92.8494 0.394516 92.6307C0.0992034 91.9802 -0.141418 91.2313 -0.234387 90.5207C-0.256262 90.3403 -0.217981 90.1544 -0.234387 89.974H0.312488C0.914051 95.8559 7.23046 88.6238 8.51561 86.1475C8.63046 85.9234 8.40624 85.333 8.51561 85.0542C8.61405 84.8082 9.15546 84.4639 9.06249 83.9609H9.60936C9.35233 84.6552 9.45624 85.9015 9.06249 86.6942Z" fill="#BF812C"/>
<path d="M10.7031 85.6009C10.5883 86.2624 10.2109 86.7871 10.1562 87.7875C8.87109 88.2959 8.86562 89.4438 8.51562 90.5207C7.58594 90.8214 6.67266 91.2259 5.78125 91.614C6.96797 90.0834 7.94141 88.2467 9.0625 86.6942C9.53281 86.0437 9.74062 85.3932 10.7031 85.6009Z" fill="#AC782E"/>
<path d="M12.8906 81.2275C13.1312 82.0038 13.6836 83.0151 14.5203 83.1681C15.5102 83.354 15.2039 82.5778 15.625 82.3208C16.2047 81.9655 16.6641 81.4298 17.2656 81.2275C17.5172 81.5118 15.9367 84.3762 15.625 85.0541C15.5375 85.2399 15.1437 85.4203 15.0781 85.6007C13.6125 85.7538 13.6289 84.3325 12.8906 83.4141C12.8906 83.2337 12.8906 83.0479 12.8906 82.8675V81.2275Z" fill="#B1792A"/>
<path d="M15.0781 85.6006C14.7828 86.4315 14.3398 86.8579 15.0781 87.7872H12.8906C12.8906 86.3331 12.8906 84.8681 12.8906 83.4141C13.6289 84.3324 13.6125 85.7537 15.0781 85.6006Z" fill="#A66D2A"/>
<path d="M10.7031 88.8804V89.9737H10.1562C10.0961 89.6675 9.92656 89.4653 9.60938 89.427L10.1562 88.8804H10.7031Z" fill="#A17237"/>
<path d="M10.1562 89.9739C10.1836 90.1215 10.1781 90.3675 10.1562 90.5205L9.60938 89.4272C9.92656 89.4655 10.0961 89.6678 10.1562 89.9739Z" fill="#A97A42"/>
<path d="M12.3438 64.2815H12.8906C13.175 64.6478 13.6234 65.0741 13.9844 65.3748L13.4375 67.5614H12.8906C12.557 67.4958 12.0484 67.6598 11.7969 67.5614C11.4523 67.4247 10.8289 66.5009 10.1562 66.4681C10.1234 66.2768 10.2109 66.0472 10.1562 65.9214C9.95938 65.4787 9.89922 65.5825 9.60938 65.3748C9.47812 65.2819 8.87657 65.5278 8.57032 65.3311L8.51562 63.7349L12.3438 64.2815Z" fill="#DFB04D"/>
<path d="M15.625 66.4683C15.6742 67.2063 16.0352 67.9278 16.1719 68.6549C15.9148 68.3214 15.6195 68.0372 15.5649 67.5889C15.275 67.3593 15.1383 68.0864 15.0781 68.1082C14.0117 68.4198 14.0773 68.6767 13.4375 68.1082V67.5616L13.9844 65.375C14.482 65.7905 15.1055 66.0802 15.625 66.4683Z" fill="#DCAB50"/>
<path d="M11.25 90.5203C11.0641 90.4274 10.9 90.1158 10.7031 89.9737V88.8804L11.25 90.5203Z" fill="#81521A"/>
<path d="M4.68746 63.735C4.64918 63.9099 4.73668 64.1177 4.68746 64.2817C4.46871 64.9704 4.37028 64.9595 4.14059 65.375L-1.87504 64.8338C-1.08207 65.9927 -2.36722 66.3097 -2.42191 66.4682L-3.51566 65.9216C-3.48285 65.8177 -4.06254 64.2981 -3.51566 63.735C-2.4766 63.7296 -1.46487 64.309 -0.502374 64.2871C1.35153 64.2489 2.92653 62.5105 4.68746 63.735ZM-2.69535 64.8283V65.375C-2.33988 65.1946 -2.33988 65.0087 -2.69535 64.8283Z" fill="#ECB445"/>
<path d="M9.60941 67.5613C9.61488 67.7417 9.59847 67.9276 9.60941 68.108H7.96878C7.89222 67.7472 7.5805 66.8944 7.42191 66.468C7.36175 66.304 7.48206 66.0799 7.42191 65.9214L9.60941 67.5613Z" fill="#D3A351"/>
<path d="M10.1562 66.468C10.2109 66.7906 10.1453 67.2005 10.1562 67.5613C10.1726 68.0916 10.2109 68.6819 10.1562 69.2013C10.1398 69.3816 10.1726 69.5675 10.1562 69.7479C9.43436 69.4691 9.64764 68.7093 9.60936 68.108C9.59843 67.9276 9.61483 67.7417 9.60936 67.5613C9.58749 67.0147 9.62577 66.468 9.60936 65.9214H10.1562C10.2109 66.0471 10.1234 66.2767 10.1562 66.468Z" fill="#CFA051"/>
<path d="M10.1562 65.9216H9.60938V65.375C9.89922 65.5827 9.95937 65.4789 10.1562 65.9216Z" fill="#DCAB50"/>
<path d="M4.6875 64.2817L6.875 66.4683C6.56875 66.9712 5.85234 68.2066 5.78125 68.6549C5.09219 68.4144 4.25 68.3761 3.59375 68.1083C3.36953 68.0153 3.18906 67.7584 3.04688 67.5616C3.12344 67.4523 3.8125 65.9709 4.14063 65.375C4.37031 64.9596 4.46875 64.9705 4.6875 64.2817Z" fill="#E4AB43"/>
<path d="M7.42185 66.4683C7.58044 66.8946 7.89216 67.7474 7.96873 68.1082C8.06169 68.5728 8.43357 69.0594 8.5156 69.7481C8.39529 69.7755 6.42107 70.7594 6.3281 70.8414C6.20779 70.4916 5.82498 70.0652 5.78123 69.7481C5.73748 69.4529 5.73748 68.95 5.78123 68.6548C5.85232 68.2066 6.56873 66.9712 6.87498 66.4683H7.42185Z" fill="#D9A343"/>
<path d="M11.7969 69.2012C12.4695 69.5292 12.9398 70.4858 13.4375 70.8411C13.9023 71.1691 14.5258 71.2784 15.0781 71.3878C14.6516 71.8141 14.3562 72.6505 13.7109 73.0167C13.3391 72.2022 12.1578 71.3768 11.7969 70.8411C11.4359 70.3054 11.425 70.0649 11.25 69.7478C11.1789 69.6166 11.3156 69.3652 11.25 69.2012H11.7969Z" fill="#D49937"/>
<path d="M13.9844 75.7608C14.1211 76.1325 13.8914 76.9197 13.9844 77.4008C13.9297 77.3898 13.3227 77.931 12.8906 77.4008C12.6773 76.8323 13.1258 76.4441 12.3438 75.2142C12.2016 74.9846 12.043 74.7933 11.7969 74.6675V72.481C12.5133 72.9347 13.7383 75.083 13.9844 75.7608Z" fill="#C78932"/>
<path d="M11.7969 70.8413V71.9346C11.5562 72.0221 11.2937 72.2353 11.25 72.4813H10.7031V69.748H11.25C11.425 70.0651 11.4414 70.3166 11.7969 70.8413Z" fill="#BB8735"/>
<path d="M11.7968 72.4812V73.0279H11.25C11.2664 72.8475 11.2171 72.6561 11.25 72.4812C11.2937 72.2352 11.5562 72.022 11.7968 71.9346V72.4812Z" fill="#B37D2A"/>
<path d="M12.8906 67.5614C13.0273 67.791 13.2406 67.9386 13.4375 68.108C14.0773 68.6765 14.0117 68.4196 15.0781 68.108V69.748L13.9625 69.4965L13.4375 70.8413C12.9398 70.4859 12.4695 69.5293 11.7969 69.2013V67.5614C12.0484 67.6598 12.557 67.4958 12.8906 67.5614Z" fill="#DDA13D"/>
<path d="M12.8906 77.4009C13.4102 78.8003 13.6016 79.429 14.5313 80.6808C14.8758 81.14 15.9313 81.2438 15.625 82.3207C15.2039 82.5831 15.5156 83.3594 14.5203 83.168C13.6836 83.0095 13.1313 82.0037 12.8906 81.2274C12.7484 80.7628 13.1531 79.8499 12.3438 79.5875C12.3383 79.2213 12.3547 78.8605 12.3438 78.4942C12.3273 77.953 12.382 77.3955 12.3438 76.8543C12.3055 76.3131 12.3711 75.7555 12.3438 75.2144C13.1258 76.4443 12.6773 76.8324 12.8906 77.4009Z" fill="#BA7C2C"/>
<path d="M11.2499 79.5874C11.1406 81.1508 10.8453 82.2441 10.7031 83.4139H10.1562C10.1617 81.7795 10.1453 80.1286 10.1562 78.4941L11.2499 79.5874Z" fill="#B57F3A"/>
<path d="M11.25 75.761C11.25 76.3077 11.2719 76.8543 11.25 77.401C11.2227 78.128 11.2992 78.866 11.25 79.5875L10.1562 78.4943C10.1562 77.7672 10.1125 77.0292 10.1562 76.3077C10.1945 75.7009 10.0359 75.0777 10.2328 74.471L10.7031 74.1211L11.25 75.761Z" fill="#B98942"/>
<path d="M10.7031 85.6006C9.74063 85.3929 9.53281 86.0434 9.0625 86.6939C9.45625 85.9013 9.35234 84.6549 9.60938 83.9607C9.64766 83.8514 10.0906 83.6765 10.1562 83.4141H10.7031C10.6211 84.1083 10.818 84.9392 10.7031 85.6006Z" fill="#B17B34"/>
<path d="M12.3437 75.2146L11.8023 75.4934C11.7531 75.9417 11.8461 76.4118 11.7969 76.8545C11.775 77.0349 11.8078 77.2208 11.7969 77.4012H11.25C11.2719 76.8545 11.25 76.3079 11.25 75.7613C11.25 75.395 11.2445 75.0342 11.25 74.668H11.7969C12.043 74.7937 12.2016 74.985 12.3437 75.2146Z" fill="#AB732E"/>
<path d="M12.3438 78.4944H11.7969C11.8078 78.1336 11.775 77.7619 11.7969 77.4011C11.8078 77.2207 11.775 77.0349 11.7969 76.8545H12.3438C12.382 77.3957 12.3274 77.9532 12.3438 78.4944Z" fill="#A66B27"/>
<path d="M12.3438 79.5874C12.3438 79.7678 12.3438 79.9537 12.3438 80.1341H11.7969C11.8297 79.5929 11.7805 79.0408 11.7969 78.4941H12.3438C12.3547 78.8604 12.3383 79.2212 12.3438 79.5874Z" fill="#9F6521"/>
<path d="M10.7031 87.7871C10.8453 86.8688 11.2391 86.754 11.25 86.6938L10.7031 87.7871Z" fill="#A26F33"/>
<path d="M10.1562 78.4942C10.1453 80.1287 10.1617 81.7795 10.1562 83.414C10.0906 83.6764 9.64766 83.8513 9.60938 83.9606H9.0625L8.51562 85.0539C8.40625 85.3327 8.63047 85.9231 8.51562 86.1472C7.50937 86.2675 6.49219 87.1203 5.78125 87.7872C6.59609 86.836 6.59609 84.5784 6.875 83.9606C8.24766 80.9158 9.31406 80.5605 9.60938 76.3076H10.1562C10.1125 77.0292 10.1562 77.7672 10.1562 78.4942Z" fill="#C08831"/>
<path d="M8.51562 86.1475C7.23047 88.6238 0.914062 95.8559 0.3125 89.974L2.18828 91.5975C3.62109 90.5862 4.56172 88.9299 5.78125 87.7874C6.49219 87.1205 7.50938 86.2677 8.51562 86.1475Z" fill="#C0852C"/>
<path d="M8.51562 85.0542L9.0625 83.9609C9.15547 84.4639 8.61406 84.8082 8.51562 85.0542Z" fill="#C0852C"/>
<path d="M11.7969 67.5616V69.2015H11.25C10.993 68.5674 10.7524 67.9606 10.1563 67.5616C10.1453 67.2008 10.211 66.7908 10.1563 66.4683C10.8289 66.5011 11.4524 67.4249 11.7969 67.5616Z" fill="#D7A141"/>
<path d="M13.4375 68.1082C13.2406 67.9387 13.0273 67.7911 12.8906 67.5615H13.4375V68.1082Z" fill="#D7A141"/>
<path d="M0.31254 81.7742C0.389102 82.053 0.285196 82.5122 0.31254 82.8675C0.476602 85.1688 0.0828522 87.7217 0.31254 89.9739H-0.234335C-0.338242 88.7384 -0.217929 87.3992 -0.234335 86.1473C-0.239804 85.6007 -0.223398 85.0541 -0.234335 84.5074C-0.250742 83.7858 0.0391021 82.698 -0.78121 82.3208C-0.792148 81.96 -0.742929 81.5829 -0.78121 81.2275H-0.234335C0.132071 81.2439 0.22504 81.4571 0.31254 81.7742Z" fill="#B57928"/>
<path d="M4.14062 65.3747C3.8125 65.9705 3.12344 67.4519 3.04688 67.5612C1.3625 69.9392 1.11641 69.152 -0.78125 69.7478C-0.939844 69.0372 -2.30703 67.9275 -2.42188 67.5612C-2.47656 67.3973 -2.47656 66.621 -2.42188 66.468C-2.36719 66.3149 -1.07656 65.9924 -1.875 64.8335L4.14062 65.3747Z" fill="#EBB140"/>
<path d="M9.60938 68.1079C9.64766 68.7092 9.43437 69.4691 10.1562 69.7478L9.88281 70.2781C9.62031 70.1633 9.2375 69.7369 9.0625 69.7478C8.87656 69.7533 8.66875 69.7096 8.51562 69.7478C8.43359 69.0591 8.06172 68.5726 7.96875 68.1079H9.60938Z" fill="#CB9D4A"/>
<path d="M10.7031 69.7478V72.481L10.1726 73.0277L9.60934 71.9344C9.57106 71.6064 8.63043 70.606 9.06247 69.7478C9.23747 69.7424 9.62575 70.1687 9.88278 70.278L10.1562 69.7478C10.1726 69.5674 10.1398 69.3816 10.1562 69.2012L10.7031 69.7478Z" fill="#C5954A"/>
<path d="M11.25 69.2015C11.3156 69.3655 11.1789 69.6169 11.25 69.7481H10.7031L10.1562 69.2015C10.2109 68.6821 10.1727 68.0918 10.1562 67.5615C10.7523 67.9606 10.993 68.5674 11.25 69.2015Z" fill="#CA9743"/>
<path d="M3.59378 68.1081C3.60472 69.0592 3.22191 69.9339 3.04691 70.8413C2.80628 72.0931 2.54378 73.3832 2.49456 74.6678C0.815653 74.8919 0.864879 72.9896 0.143004 72.0877C-0.0593401 71.8362 -0.682779 72.0166 -0.781217 71.9401C-0.879654 71.8635 -0.956216 71.0436 -1.32809 70.8468C-1.3445 70.6664 -1.29528 70.475 -1.32809 70.3001C-1.11481 70.2291 -0.928873 69.7972 -0.781217 69.7535C1.11644 69.1576 1.36253 69.9448 3.04691 67.5669C3.1891 67.7637 3.36957 68.0206 3.59378 68.1135V68.1081Z" fill="#E5A83D"/>
<path d="M5.78125 68.6546C5.7375 68.9497 5.7375 69.4527 5.78125 69.7478C5.50234 70.0813 4.82969 70.5022 4.6875 70.8411H3.04688C3.22187 69.9337 3.60469 69.0591 3.59375 68.1079C4.25 68.3758 5.09219 68.414 5.78125 68.6546Z" fill="#E2A93D"/>
<path d="M6.32815 70.8413C4.21174 72.7546 5.50237 80.7083 2.50003 82.8675C2.32503 82.0257 2.19378 81.4954 1.95315 80.6809C1.74534 79.9758 1.1219 79.2323 0.8594 78.4944C0.837525 78.4288 1.49378 78.5217 0.8594 77.4011C0.678932 77.084 0.252369 76.8271 0.312525 76.3078C4.71487 75.7557 3.47893 73.7878 4.68753 70.8413C4.82971 70.5024 5.50237 70.0815 5.78128 69.748C5.82503 70.0651 6.20784 70.4915 6.32815 70.8413Z" fill="#E0A23A"/>
<path d="M8.51563 72.4813C3.75234 74.9958 7.50391 82.5997 3.04688 84.5075C3.07969 83.9335 2.59844 83.3322 2.5 82.8675C5.50234 80.7083 4.21172 72.7546 6.32813 70.8413C6.42109 70.7593 8.39531 69.7754 8.51563 69.748C8.60313 70.4587 8.60859 71.7816 8.51563 72.4813Z" fill="#DA9B37"/>
<path d="M11.7969 74.6678H11.25C11.25 74.4874 11.25 74.3015 11.25 74.1211C11.261 73.7603 11.2227 73.3886 11.25 73.0278H11.7969V74.6678Z" fill="#A97227"/>
<path d="M9.60938 71.9346L10.1727 73.0279L10.7031 72.4812H11.25C11.2172 72.6561 11.2664 72.8475 11.25 73.0279C11.2227 73.3886 11.2609 73.7604 11.25 74.1211H10.7031L10.2328 74.471C10.0414 75.0723 10.1945 75.701 10.1562 76.3077H9.60938C9.69687 75.0504 9.75156 73.1536 9.60938 71.9346Z" fill="#C09044"/>
<path d="M12.3437 76.8543H11.7969C11.8461 76.4115 11.7531 75.9414 11.8023 75.4931L12.3437 75.2144C12.3711 75.7555 12.3055 76.3131 12.3437 76.8543Z" fill="#AB7029"/>
<path d="M11.25 74.6677C11.2445 75.034 11.25 75.3948 11.25 75.761L10.7031 74.1211H11.25C11.25 74.3015 11.25 74.4873 11.25 74.6677Z" fill="#C4924D"/>
<path d="M9.60939 71.9345C9.75158 73.1535 9.69689 75.0503 9.60939 76.3076C9.31408 80.5605 8.24768 80.9158 6.87502 83.9607L5.78674 84.5073V83.414C6.27346 82.0365 6.89689 80.965 7.15939 80.1669C7.61329 78.7785 6.93518 76.4552 7.09924 75.4603C7.21408 74.7934 8.2422 74.4654 8.51017 72.4756C8.60314 71.7759 8.59767 70.4531 8.51017 69.7424C8.6633 69.7042 8.87111 69.7479 9.05704 69.7424C8.62501 70.6007 9.56564 71.601 9.60392 71.929L9.60939 71.9345Z" fill="#CB9337"/>
<path d="M0.85938 86.1471C0.886724 86.7429 0.689849 87.5246 1.40626 87.787C1.40626 87.9401 0.957823 88.2844 1.00157 88.6179L1.40626 88.8803C3.71954 90.1977 4.11329 87.5793 4.6875 86.1471C5.04297 85.2615 5.46407 84.3049 5.78125 83.4138V84.5071L6.875 83.9605C6.5961 84.5782 6.5961 86.8358 5.78125 87.787C4.56172 88.9295 3.62109 90.5858 2.18828 91.5971L0.312505 89.9736C0.0828176 87.7214 0.476568 85.1686 0.312505 82.8672C1.25313 83.474 0.81563 85.1139 0.85938 86.1471Z" fill="#D1912F"/>
<path d="M-0.234375 84.5074H-0.78125C-0.759375 83.7858 -0.753906 83.0424 -0.78125 82.3208C0.0390625 82.698 -0.250781 83.7858 -0.234375 84.5074Z" fill="#A66B20"/>
<path d="M2.50007 82.8672C2.59851 83.3319 3.07976 83.9332 3.04695 84.5072C2.99226 85.513 2.13914 86.579 1.40632 87.2404C1.40086 86.7539 1.38992 86.322 0.85945 86.1471C0.8157 85.114 1.2532 83.474 0.312575 82.8672C0.285231 82.5119 0.389137 82.0527 0.312575 81.774L1.9532 80.6807C2.19382 81.4952 2.32507 82.0254 2.50007 82.8672Z" fill="#DD9D32"/>
<path d="M0.859375 77.4009V78.4942C1.12188 79.2322 1.74531 79.9756 1.95312 80.6808L0.3125 81.7741C0.225 81.457 0.132031 81.2438 -0.234375 81.2274V76.3076C-0.0921875 76.3404 0.164844 76.324 0.3125 76.3076C0.252344 76.8269 0.678906 77.0839 0.859375 77.4009Z" fill="#E09F3A"/>
<path d="M4.68749 70.8414C3.47889 73.7878 4.71483 75.7557 0.312488 76.3079C0.164832 76.3243 -0.0921995 76.3407 -0.234387 76.3079C-0.349231 76.2805 -0.562512 75.8596 -0.781262 75.7612C-0.797668 75.0342 -0.759387 74.3017 -0.781262 73.5746C-0.786731 73.3942 -0.770325 73.2084 -0.781262 73.028C-0.803137 72.6672 -0.764856 72.2955 -0.781262 71.9347C-0.682825 72.0112 -0.0593857 71.8308 0.142958 72.0823C0.864833 72.9843 0.821076 74.892 2.49451 74.6625C2.54373 73.3778 2.80077 72.0932 3.04686 70.8359H4.68749V70.8414Z" fill="#E2A53A"/>
<path d="M0.859425 78.4942V77.4009C1.4938 78.5215 0.83755 78.4286 0.859425 78.4942Z" fill="#E2A53A"/>
<path d="M8.51558 72.481C8.24215 74.4707 7.21403 74.7987 7.10465 75.4657C6.93512 76.4605 7.61871 78.7838 7.1648 80.1723C6.9023 80.9704 6.27887 82.0418 5.78668 83.4193C5.4695 84.3104 5.0484 85.267 4.69293 86.1526C2.45621 86.1744 2.57653 87.5137 1.41168 88.8858L1.00698 88.6234C0.968703 88.2899 1.41168 87.9455 1.41168 87.7925C1.41168 87.6121 1.41168 87.4262 1.41168 87.2458C2.1445 86.5844 2.99762 85.5184 3.05231 84.5126C7.50934 82.6048 3.75778 75.001 8.52106 72.4864L8.51558 72.481Z" fill="#D49934"/>
<path d="M4.6875 86.1475C4.11328 87.5797 3.71953 90.1981 1.40625 88.8807C2.57109 87.5086 2.45078 86.1693 4.6875 86.1475Z" fill="#D1932E"/>
<path d="M1.40624 87.2408C1.40624 87.4211 1.40624 87.607 1.40624 87.7874C0.68983 87.525 0.886705 86.7433 0.859361 86.1475C1.38983 86.3224 1.40077 86.7542 1.40624 87.2408Z" fill="#D1932E"/>
</g>
</g>
<defs>
<clipPath id="clip0_645_68695">
<rect width="135" height="130" fill="white"/>
</clipPath>
<clipPath id="clip1_645_68695">
<rect width="175" height="334" fill="white" transform="translate(-155 -232)"/>
</clipPath>
</defs>
</svg>
