<svg width="135" height="130" viewBox="0 0 135 130" fill="none" xmlns="http://www.w3.org/2000/svg">
<g clip-path="url(#clip0_653_144950)">
<rect x="1.5" y="-258.5" width="402" height="387" rx="18.5" fill="#FDFFEF" stroke="black" stroke-width="3"/>
<g clip-path="url(#clip1_653_144950)">
<path d="M139.297 -47.2839C139.297 -46.1912 139.229 -44.953 139.297 -43.8732C140.11 -31.3901 141.462 -18.8672 141.824 -6.30433C141.88 -4.36791 141.86 -2.36376 141.701 -0.451247C141.541 -0.120541 137.854 1.74417 137.332 1.82386C136.714 1.91948 133.772 1.94338 133.265 1.79197C131.539 1.27799 132.325 -4.97354 132.289 -6.52746C132.002 -19.1341 131.818 -32.442 130.913 -44.9371C130.878 -45.4152 130.551 -48.3039 130.435 -48.6785C130.284 -49.7344 130.965 -49.5072 130.036 -49.4754C130.399 -49.5351 131.033 -49.0769 130.945 -48.1286C131.292 -47.6345 131.208 -43.423 131.276 -42.5026C132.034 -32.0316 132.388 -21.3972 132.66 -10.8943C132.763 -6.88604 132.392 -2.82595 132.883 1.14251C133.158 1.21822 133.401 0.943311 133.568 0.911436C133.999 0.831748 134.505 0.887523 134.944 0.680334C135.295 1.09073 136.028 1.14253 136.546 1.13855C137.112 1.13855 137.096 1.02698 137.463 0.907448C137.981 0.744087 139.11 0.269948 139.524 -0.00895968C139.624 -0.0766945 139.716 -0.104592 139.751 -0.240062C140.154 -0.271937 140.381 -0.415382 140.668 -0.471164C140.955 -0.526946 141.418 0.0428278 141.597 -1.26406C141.27 -12.9065 140.501 -24.5011 139.751 -36.0957C139.708 -36.7531 139.624 -38.3788 139.066 -38.7334C139.054 -39.0362 139.074 -39.343 139.066 -39.6498C139.668 -41.6141 138.926 -43.945 138.838 -45.9531C138.67 -49.769 139.297 -47.9773 139.297 -47.2839Z" fill="#E7BDC8"/>
<path d="M130.814 -48.567C130.985 -48.5471 131.224 -48.6825 131.28 -48.4196C132.058 -41.678 132.181 -34.9563 132.416 -28.1788C132.564 -24.035 132.592 -19.7956 132.691 -15.6917C132.699 -15.3172 132.907 -14.9426 132.887 -14.5561L132.875 -8.93415C132.875 -8.09742 133.102 -7.08539 133.102 -6.52758V-2.17263C133.102 -2.077 132.783 -1.79011 132.911 -1.5391L133.56 0.919273C133.393 0.951148 133.15 1.22608 132.875 1.15038C132.384 -2.82207 132.755 -6.88219 132.652 -10.8865C132.38 -21.3894 132.026 -32.0277 131.268 -42.4948C131.2 -43.4152 131.284 -47.6227 130.937 -48.1207C130.814 -48.567 130.937 -48.1208 130.814 -48.567Z" fill="#E7BDC8"/>
<path d="M135.625 -10.0735C135.976 -9.97786 136.498 -10.3883 136.542 -9.73881C136.67 -7.85817 136.455 -5.8819 136.522 -4.00923C136.586 -2.32383 137.348 -0.494987 136.538 1.15057C136.02 1.15057 135.287 1.10275 134.936 0.692355C134.904 0.652511 134.493 -0.172255 134.477 -0.224053C134.051 -1.5907 134.577 -1.43928 134.784 -2.32382C135.119 -3.7582 134.908 -5.20454 134.709 -6.63893L135.163 -6.40783C135.446 -7.53143 135.47 -8.70284 135.621 -9.84637C135.633 -9.92207 135.613 -10.0018 135.621 -10.0775L135.625 -10.0735Z" fill="#F79CB1"/>
<path d="M134.936 -32.9878L136.538 -11.3286L137.455 -10.9939C137.455 -10.6273 137.647 -9.92608 137.682 -9.38819L137.34 -9.85037C137.14 -9.88224 137.24 -9.55952 137.224 -9.38819C137.188 -8.93795 137.232 -8.46779 137.224 -8.01357C137.212 -7.17684 137.228 -6.33214 137.224 -5.49143C137.212 -3.74228 137.18 -1.96923 137.224 -0.220076C137.232 0.0827383 137.108 0.536955 137.451 0.696331V0.927433C137.084 1.04298 137.1 1.15455 136.534 1.15854C137.344 -0.487022 136.582 -2.31587 136.518 -4.00127C136.447 -5.87394 136.666 -7.8502 136.538 -9.73084C136.494 -10.3843 135.972 -9.96992 135.621 -10.0655C135.757 -11.1174 136.004 -12.0338 136.08 -13.0459C136.295 -15.8668 135.649 -20.2935 135.39 -23.2579C135.338 -23.8556 135.753 -24.6365 135.163 -25.1863C135.251 -26.6606 134.988 -28.0352 134.936 -29.5413C134.904 -30.4497 134.964 -31.5375 134.936 -32.2905C134.928 -32.5176 134.948 -32.7487 134.936 -32.9798V-32.9878Z" fill="#EA89A0"/>
<path d="M134.023 -16.7197C134.023 -16.644 134.023 -16.5683 134.023 -16.4886C133.975 -12.8469 133.859 -9.30875 133.899 -5.7188C133.903 -5.34028 133.604 -5.00958 134.25 -4.80239C134.166 -3.9059 134.202 -3.14488 134.142 -2.38785C134.091 -1.69854 133.058 -0.511192 134.477 -0.220331C134.493 -0.168533 134.904 0.656233 134.936 0.696077C134.497 0.899281 133.991 0.843507 133.56 0.927179L132.911 -1.53119C132.783 -1.78221 133.102 -2.06909 133.102 -2.16472V-6.51967C133.102 -7.07748 132.875 -8.08951 132.875 -8.92624C132.871 -11.4165 133.134 -14.1259 133.102 -16.7158H134.019L134.023 -16.7197Z" fill="#EFA7BA"/>
</g>
</g>
<defs>
<clipPath id="clip0_653_144950">
<rect width="135" height="130" fill="white"/>
</clipPath>
<clipPath id="clip1_653_144950">
<rect width="242" height="329" fill="white" transform="translate(82 -222)"/>
</clipPath>
</defs>
</svg>
