<svg width="85" height="122" viewBox="0 0 85 122" fill="none" xmlns="http://www.w3.org/2000/svg">
<g clip-path="url(#clip0_453_1659)">
<path d="M50.234 -13.2013C52.744 41.6972 80.3536 88.1113 0.536819 88.1113C-75.766 88.1113 -53.1764 56.1704 -51.1685 -13.2013C-51.1685 -64.469 -51.1685 -109.024 -0.467247 -106.03C40.6961 -106.03 41.1982 -64.1072 50.234 -13.2013Z" fill="#FFCC33"/>
<path d="M4.44112 113.386C1.68022 117.554 13.979 120.373 28.0348 120.872C42.0906 122.369 60.6643 122.868 60.6643 116.38C62.6722 110.89 43.5965 101.907 28.0348 105.9C14.4499 105.9 17.9949 92.9235 4.44112 113.386Z" fill="#FFCC33"/>
<path d="M16.8469 95.2383C12.9749 104.402 5.08358 113.439 7.95502 114.384C10.8265 115.329 24.2824 107.558 27.2453 98.6613C32.0507 80.8412 30.2823 81.7864 27.4109 80.8412C24.5394 79.896 20.5048 73.4595 16.8469 95.2383Z" fill="#FFCC33"/>
<path d="M63.1766 -6.22279C63.739 2.02726 61.2577 9.9136 64.2628 9.71112C66.8349 10.5383 68.9317 4.39432 68.185 -6.56025C67.6226 -14.8103 65.2681 -21.3704 64.1617 -21.2958C63.0552 -21.2213 62.6142 -14.4728 63.1766 -6.22279Z" fill="#FFCC33"/>
<path d="M69.0849 -8.12171C71.9211 -0.348336 70.3997 7.59065 73.1083 6.61386C75.7078 6.7382 76.2209 -0.0280571 72.455 -10.3497C69.6188 -18.123 66.6481 -23.963 65.6509 -23.6034C64.6536 -23.2437 66.2488 -15.8951 69.0849 -8.12171Z" fill="#FFCC33"/>
<path d="M74.0933 -8.459C79.2938 -2.00578 80.1041 3.78049 82.3526 1.9894C84.1004 0.59728 83.2989 -3.04643 76.3936 -11.6151C71.1931 -18.0683 66.6567 -23.0153 65.8288 -22.3558C65.0009 -21.6964 68.8928 -14.9122 74.0933 -8.459Z" fill="#FFCC33"/>
<path d="M58.0751 -14.9998C53.9238 -9.1008 50.1886 -4.84735 53.3973 -2.06223C57.1069 0.689165 59.2891 -6.29553 62.7653 -12.3288C66.2414 -18.362 68.1901 -24.7443 66.8949 -25.4819C65.5878 -29.8957 60.3586 -18.0381 58.0751 -14.9998Z" fill="#FFCC33"/>
</g>
<defs>
<clipPath id="clip0_453_1659">
<rect width="85" height="122" fill="white"/>
</clipPath>
</defs>
</svg>
