<svg width="202" height="195" viewBox="0 0 202 195" fill="none" xmlns="http://www.w3.org/2000/svg">
<g clip-path="url(#clip0_577_2623)">
<rect x="-201.5" y="-193.5" width="402" height="387" rx="18.5" fill="#FDFFEF"/>
<rect x="-201.5" y="-193.5" width="402" height="387" rx="18.5" stroke="black" stroke-width="3"/>
<path d="M70.47 -18.8046C74.0161 59.0005 113.023 124.781 0.258277 124.781C-107.542 124.781 -75.6273 79.5127 -72.7905 -18.8046C-72.7905 -91.4639 -72.7905 -154.61 -1.16026 -150.366C56.995 -150.366 57.7042 -90.9511 70.47 -18.8046Z" fill="#FFCC33"/>
<path d="M5.77437 160.602C1.8738 166.509 19.2494 170.504 39.1073 171.211C58.9652 173.333 85.2059 174.041 85.2059 164.845C88.0427 157.065 61.0928 144.333 39.1073 149.992C19.9146 149.992 24.9231 131.601 5.77437 160.602Z" fill="#FFCC33"/>
<path d="M23.3013 134.882C17.8311 147.87 6.68222 160.676 10.739 162.016C14.7957 163.356 33.8061 152.342 37.9921 139.733C44.7811 114.477 42.2827 115.817 38.226 114.477C34.1692 113.138 28.4692 104.016 23.3013 134.882Z" fill="#FFCC33"/>
<path d="M88.7554 -8.91421C89.5499 2.77821 86.0444 13.9552 90.29 13.6682C93.9238 14.8405 96.8862 6.13293 95.8312 -9.39247C95.0367 -21.0849 91.7103 -30.3822 90.1471 -30.2765C88.5839 -30.1709 87.9609 -20.6066 88.7554 -8.91421Z" fill="#FFCC33"/>
<path d="M97.1024 -11.6057C101.109 -0.588886 98.96 10.6627 102.787 9.27831C106.459 9.45453 107.184 -0.134969 101.864 -14.7633C97.8568 -25.7802 93.6597 -34.0569 92.2508 -33.5472C90.8419 -33.0375 93.0955 -22.6226 97.1024 -11.6057Z" fill="#FFCC33"/>
<path d="M104.178 -12.0836C111.525 -2.93777 112.67 5.26284 115.847 2.72442C118.316 0.751429 117.184 -4.41263 107.428 -16.5567C100.081 -25.7025 93.6717 -32.7136 92.5021 -31.7789C91.3324 -30.8443 96.8309 -21.2295 104.178 -12.0836Z" fill="#FFCC33"/>
<path d="M81.5477 -21.3537C75.6829 -12.9933 70.4058 -6.96507 74.939 -3.01784C80.1799 0.881584 83.2629 -9.0175 88.174 -17.5681C93.0851 -26.1187 95.8381 -35.1641 94.0083 -36.2094C92.1616 -42.465 84.7738 -25.6598 81.5477 -21.3537Z" fill="#FFCC33"/>
</g>
<defs>
<clipPath id="clip0_577_2623">
<rect width="202" height="195" fill="white"/>
</clipPath>
</defs>
</svg>
