<svg width="405" height="390" viewBox="0 0 405 390" fill="none" xmlns="http://www.w3.org/2000/svg">
<rect x="1.5" y="1.5" width="402" height="387" rx="18.5" fill="#FDFFEF"/>
<rect x="1.5" y="1.5" width="402" height="387" rx="18.5" stroke="black" stroke-width="3"/>
<path d="M212.478 36.1466C216.024 46.7565 226.662 55.2444 196.875 50.2931C172.762 54.5371 179.145 48.1712 181.273 36.1466C181.273 28.3336 189.825 22 196.875 22C203.926 22 209.641 27.6586 212.478 36.1466Z" fill="black"/>
<path d="M273.47 176.198C277.016 254.004 316.023 319.785 203.258 319.785C95.4585 319.785 127.373 274.516 130.21 176.198C130.21 103.537 130.21 40.3906 201.84 44.6345C259.995 44.6345 260.704 104.05 273.47 176.198Z" fill="black"/>
<path d="M195.457 355.859C199.358 361.767 181.982 365.762 162.124 366.469C142.266 368.591 116.025 369.298 116.025 360.103C113.189 352.323 140.139 339.591 162.124 345.249C181.317 345.249 176.308 326.859 195.457 355.859Z" fill="black"/>
<path d="M177.93 330.139C183.401 343.127 194.549 355.934 190.493 357.274C186.436 358.613 167.425 347.599 163.24 334.99C156.451 309.735 158.949 311.074 163.006 309.735C167.062 308.395 172.762 299.273 177.93 330.139Z" fill="black"/>
<path d="M208.775 355.606C204.874 361.513 222.25 365.508 242.107 366.215C261.965 368.337 288.206 369.045 288.206 359.85C291.043 352.069 264.093 339.337 242.107 344.996C222.915 344.996 227.923 326.605 208.775 355.606Z" fill="black"/>
<path d="M226.301 329.886C220.831 342.874 209.682 355.681 213.739 357.021C217.796 358.36 236.806 347.346 240.992 334.737C247.781 309.482 245.283 310.821 241.226 309.482C237.169 308.142 231.469 299.02 226.301 329.886Z" fill="black"/>
<path d="M111.77 187.515C111.77 199.235 116.025 210.15 111.77 210.15C108.224 211.564 104.678 203.076 104.678 187.515C104.678 175.796 107.367 166.295 108.933 166.295C110.5 166.295 111.77 175.796 111.77 187.515Z" fill="black"/>
<path d="M103.26 185.393C100.009 196.655 102.916 207.736 99.0044 206.613C95.3522 207.036 93.9788 197.517 98.2953 182.564C101.546 171.302 105.172 162.761 106.613 163.174C108.053 163.588 106.51 174.131 103.26 185.393Z" fill="black"/>
<path d="M96.1677 185.393C89.4573 195.014 88.8712 203.273 85.5297 200.954C82.9323 199.152 83.712 193.924 92.6221 181.149C99.3324 171.529 105.251 164.102 106.482 164.955C107.712 165.809 102.878 175.773 96.1677 185.393Z" fill="black"/>
<path d="M118.118 174.618C124.536 182.564 130.21 188.223 125.954 192.467C120.99 196.711 117.243 187.042 111.763 178.842C106.284 170.642 102.924 161.803 104.679 160.637C106.097 154.271 114.607 170.539 118.118 174.618Z" fill="black"/>
<path d="M107.508 181.503C107.508 183.847 107.515 190.344 103.969 183.978C99.7206 190.698 100.416 183.847 100.416 181.503C100.416 179.159 102.003 177.259 103.962 177.259C105.92 177.259 107.508 179.159 107.508 181.503Z" fill="black"/>
<path d="M116.625 178.32C117.38 180.539 119.484 186.689 112.879 182.203C108.224 191.759 108.275 183.624 107.519 181.404C106.763 179.185 108.189 176.695 110.703 175.844C113.218 174.992 115.869 176.101 116.625 178.32Z" fill="black"/>
<path d="M99.8958 184.192C99.5923 185.547 98.7563 189.302 96.8026 185.005C91.4969 188.406 94.0359 184.308 94.3394 182.954C94.6429 181.599 96.1329 180.779 97.6672 181.121C99.2016 181.463 100.199 182.838 99.8958 184.192Z" fill="black"/>
<path d="M123.827 134.465C116.225 145.366 101.132 174.076 103.26 174.783C101.874 172.89 103.969 134.882 117.898 128.028C127.497 121.036 138.72 111.124 137.788 118.794C143.685 123.855 133.425 127.473 123.827 134.465Z" fill="black"/>
<path d="M113.806 158.466C111.061 176.905 118.862 179.027 106.57 174.09C84.111 189.637 102.964 166.05 104.349 157.023C105.733 147.996 108.973 141.001 111.585 141.399C114.196 141.798 116.735 140.124 113.806 158.466Z" fill="black"/>
<path d="M291.756 186.088C292.55 197.781 289.045 208.958 293.29 208.671C296.924 209.843 299.886 201.136 298.831 185.61C298.037 173.917 294.711 164.62 293.147 164.726C291.584 164.831 290.961 174.396 291.756 186.088Z" fill="black"/>
<path d="M300.103 183.397C304.109 194.414 301.96 205.665 305.787 204.281C309.459 204.457 310.184 194.867 304.864 180.239C300.857 169.222 296.66 160.945 295.251 161.455C293.842 161.965 296.096 172.38 300.103 183.397Z" fill="black"/>
<path d="M307.179 182.919C314.526 192.065 315.67 200.265 318.847 197.727C321.316 195.754 320.184 190.59 310.428 178.446C303.081 169.3 296.672 162.288 295.502 163.223C294.333 164.158 299.831 173.773 307.179 182.919Z" fill="black"/>
<path d="M284.548 173.648C278.683 182.009 273.406 188.037 277.939 191.985C283.18 195.884 286.263 185.985 291.174 177.434C296.085 168.883 298.838 159.838 297.009 158.793C295.162 152.537 287.774 169.342 284.548 173.648Z" fill="black"/>
<path d="M295.601 179.802C295.76 182.14 296.193 188.624 299.299 182.033C303.993 188.451 302.835 181.662 302.676 179.324C302.518 176.985 300.805 175.196 298.851 175.328C296.897 175.46 295.442 177.463 295.601 179.802Z" fill="black"/>
<path d="M286.289 177.241C285.685 179.506 284.003 185.784 290.289 180.863C295.581 190.083 294.979 181.969 295.582 179.704C296.186 177.439 294.595 175.051 292.028 174.371C289.462 173.691 286.892 174.976 286.289 177.241Z" fill="black"/>
<path d="M303.378 181.972C303.772 183.303 304.861 186.994 306.519 182.574C312.043 185.61 309.232 181.692 308.837 180.362C308.443 179.031 306.901 178.313 305.393 178.757C303.885 179.202 302.983 180.641 303.378 181.972Z" fill="black"/>
<path d="M276.13 133.973C284.453 144.336 301.458 171.963 299.383 172.812C300.638 170.83 295.97 133.05 281.608 127.151C271.558 120.822 259.688 111.689 261.139 119.28C255.598 124.727 266.079 127.644 276.13 133.973Z" fill="black"/>
<path d="M287.755 157.243C291.744 175.455 284.104 178.098 296.034 172.343C319.495 186.34 299.086 164.079 297.093 155.166C295.099 146.253 291.393 139.492 288.814 140.066C286.235 140.639 283.589 139.14 287.755 157.243Z" fill="black"/>
<ellipse cx="180.536" cy="69.7807" rx="9.21974" ry="12.0246" fill="black"/>
<ellipse cx="180.536" cy="72.6094" rx="3.54605" ry="3.53664" fill="black"/>
<ellipse cx="179.472" cy="71.5488" rx="1.06382" ry="1.06099" fill="black"/>
<ellipse cx="208.904" cy="68.3657" rx="9.21974" ry="12.0246" fill="black"/>
<ellipse cx="208.904" cy="71.195" rx="3.54605" ry="3.53664" fill="black"/>
<ellipse cx="207.84" cy="70.1335" rx="1.06382" ry="1.06099" fill="black"/>
<path d="M188.337 50.9049C188.337 51.6122 182.825 51.3259 177.954 52.8044C168.025 58.463 167.884 58.8353 167.77 58.4616C167.656 58.0879 170.606 51.3883 176.28 49.9736C181.245 47.8517 189.046 50.1976 188.337 50.9049Z" fill="black"/>
<path d="M221.67 57.7561C221.135 58.22 218.183 54.7949 213.869 52.0975C207.486 49.2681 202.521 49.9755 202.503 48.658C202.711 48.327 210.323 45.7315 216.706 49.9754C221.67 52.8047 222.671 57.826 221.67 57.7561Z" fill="black"/>
<path d="M225.925 93.1223C228.053 93.8296 215.595 105.059 200.394 106.561C185.192 108.064 169.898 102.318 170.607 100.903C170.53 100.125 185.058 104.417 200.259 102.915C215.46 101.413 225.848 92.3448 225.925 93.1223Z" fill="black"/>
</svg>
