<svg width="202" height="195" viewBox="0 0 202 195" fill="none" xmlns="http://www.w3.org/2000/svg">
<g clip-path="url(#clip0_577_2622)">
<rect x="0.5" y="-193.5" width="402" height="387" rx="18.5" fill="#FDFFEF"/>
<rect x="0.5" y="-193.5" width="402" height="387" rx="18.5" stroke="black" stroke-width="3"/>
<path d="M272.47 -18.8046C276.016 59.0005 315.023 124.781 202.258 124.781C94.4584 124.781 126.373 79.5127 129.209 -18.8046C129.209 -91.4639 129.209 -154.61 200.84 -150.366C258.995 -150.366 259.704 -90.9511 272.47 -18.8046Z" fill="#FFCC33"/>
<path d="M194.457 160.855C198.357 166.762 180.982 170.757 161.124 171.464C141.266 173.586 115.025 174.294 115.025 165.099C112.189 157.318 139.138 144.586 161.124 150.245C180.317 150.245 175.308 131.855 194.457 160.855Z" fill="#FFCC33"/>
<path d="M176.93 135.135C182.4 148.123 193.549 160.929 189.492 162.269C185.436 163.609 166.425 152.595 162.239 139.986C155.45 114.73 157.949 116.07 162.005 114.73C166.062 113.391 171.762 104.269 176.93 135.135Z" fill="#FFCC33"/>
<path d="M110.77 -7.48747C110.77 4.23178 115.026 15.1467 110.77 15.1467C107.224 16.5614 103.678 8.07355 103.678 -7.48747C103.678 -19.2067 106.367 -28.707 107.933 -28.707C109.5 -28.707 110.77 -19.2067 110.77 -7.48747Z" fill="#FFCC33"/>
<path d="M102.26 -9.60909C99.0089 1.65276 101.916 12.7336 98.0045 11.6105C94.3523 12.034 92.9788 2.5153 97.2953 -12.4384C100.546 -23.7002 104.172 -32.241 105.613 -31.8275C107.053 -31.414 105.511 -20.8709 102.26 -9.60909Z" fill="#FFCC33"/>
<path d="M95.1676 -9.60938C88.4572 0.011013 87.8711 8.27004 84.5295 5.95166C81.9322 4.14971 82.7119 -1.0789 91.622 -13.853C98.3323 -23.4734 104.251 -30.9006 105.482 -30.047C106.712 -29.1934 101.878 -19.2298 95.1676 -9.60938Z" fill="#FFCC33"/>
<path d="M117.118 -20.3842C123.536 -12.4384 129.21 -6.77986 124.955 -2.53595C119.99 1.70797 116.243 -7.96055 110.763 -16.1604C105.284 -24.3602 101.924 -33.1992 103.679 -34.3656C105.097 -40.7314 113.607 -24.4628 117.118 -20.3842Z" fill="#FFCC33"/>
</g>
<defs>
<clipPath id="clip0_577_2622">
<rect width="202" height="195" fill="white"/>
</clipPath>
</defs>
</svg>
