<svg width="86" height="122" viewBox="0 0 86 122" fill="none" xmlns="http://www.w3.org/2000/svg">
<g clip-path="url(#clip0_453_1658)">
<path d="M136.234 -13.2013C138.744 41.6972 166.354 88.1113 86.5368 88.1113C10.234 88.1113 32.8235 56.1704 34.8315 -13.2013C34.8315 -64.469 34.8315 -109.024 85.5327 -106.03C126.696 -106.03 127.198 -64.1072 136.234 -13.2013Z" fill="#FFCC33"/>
<path d="M81.0148 113.565C83.7757 117.733 71.477 120.551 57.4212 121.051C43.3654 122.548 24.7916 123.047 24.7916 116.559C22.7837 111.069 41.8594 102.086 57.4212 106.078C71.0061 106.078 67.461 93.1022 81.0148 113.565Z" fill="#FFCC33"/>
<path d="M68.6091 95.4168C72.481 104.581 80.3724 113.617 77.5009 114.562C74.6295 115.508 61.1735 107.736 58.2107 98.8397C53.4053 81.0197 55.1736 81.9649 58.0451 81.0197C60.9165 80.0744 64.9511 73.638 68.6091 95.4168Z" fill="#FFCC33"/>
<path d="M21.7797 -5.21592C21.7797 3.05305 24.7917 10.7545 21.7797 10.7545C19.2698 11.7527 16.7598 5.76377 16.7598 -5.21592C16.7598 -13.4849 18.6628 -20.1882 19.7717 -20.1882C20.8807 -20.1882 21.7797 -13.4849 21.7797 -5.21592Z" fill="#FFCC33"/>
<path d="M15.7558 -6.71312C13.4548 1.23312 15.5126 9.05166 12.7438 8.25919C10.1588 8.55799 9.1866 1.84172 12.2419 -8.70944C14.5429 -16.6557 17.1096 -22.682 18.1291 -22.3902C19.1485 -22.0984 18.0568 -14.6594 15.7558 -6.71312Z" fill="#FFCC33"/>
<path d="M10.7359 -6.71326C5.98621 0.0747867 5.57137 5.90228 3.20613 4.26645C1.36768 2.99501 1.91953 -0.694242 8.22627 -9.70753C12.976 -16.4956 17.1655 -21.7362 18.0364 -21.1339C18.9072 -20.5316 15.4856 -13.5013 10.7359 -6.71326Z" fill="#FFCC33"/>
<path d="M26.2727 -14.3158C30.8156 -8.70932 34.8316 -4.7167 31.8197 -1.72225C28.3057 1.27222 25.6534 -5.54979 21.7749 -11.3355C17.8963 -17.1212 15.5181 -23.358 16.7601 -24.1809C17.764 -28.6726 23.7878 -17.1936 26.2727 -14.3158Z" fill="#FFCC33"/>
</g>
<defs>
<clipPath id="clip0_453_1658">
<rect width="86" height="122" fill="white"/>
</clipPath>
</defs>
</svg>
