<svg width="202" height="195" viewBox="0 0 202 195" fill="none" xmlns="http://www.w3.org/2000/svg">
<g clip-path="url(#clip0_577_2621)">
<rect x="-201.5" y="1.5" width="402" height="387" rx="18.5" fill="#FDFFEF"/>
<rect x="-201.5" y="1.5" width="402" height="387" rx="18.5" stroke="black" stroke-width="3"/>
<path d="M9.47804 36.1464C13.0241 46.7562 23.6623 55.244 -6.12458 50.2928C-30.2378 54.5367 -23.8549 48.1708 -21.7272 36.1464C-21.7272 28.3335 -13.1749 22 -6.12458 22C0.925774 22 6.6412 27.6586 9.47804 36.1464Z" fill="#FFCC33"/>
<path d="M70.47 176.195C74.0161 254 113.023 319.781 0.258277 319.781C-107.542 319.781 -75.6273 274.513 -72.7905 176.195C-72.7905 103.536 -72.7905 40.3901 -1.16026 44.6341C56.995 44.6341 57.7042 104.049 70.47 176.195Z" fill="#FFCC33"/>
<path d="M88.7554 186.086C89.5499 197.778 86.0444 208.955 90.29 208.668C93.9238 209.84 96.8862 201.133 95.8312 185.608C95.0367 173.915 91.7103 164.618 90.1471 164.723C88.5839 164.829 87.9609 174.393 88.7554 186.086Z" fill="#FFCC33"/>
<path d="M97.1024 183.394C101.109 194.411 98.96 205.663 102.787 204.278C106.459 204.455 107.184 194.865 101.864 180.237C97.8568 169.22 93.6597 160.943 92.2508 161.453C90.8419 161.963 93.0955 172.377 97.1024 183.394Z" fill="#FFCC33"/>
<path d="M104.178 182.916C111.525 192.062 112.67 200.263 115.847 197.724C118.316 195.751 117.184 190.587 107.428 178.443C100.081 169.297 93.6717 162.286 92.5021 163.221C91.3324 164.156 96.8309 173.771 104.178 182.916Z" fill="#FFCC33"/>
<path d="M81.5477 173.646C75.6829 182.007 70.4058 188.035 74.939 191.982C80.1799 195.882 83.2629 185.982 88.174 177.432C93.0851 168.881 95.8381 159.836 94.0083 158.791C92.1616 152.535 84.7738 169.34 81.5477 173.646Z" fill="#FFCC33"/>
<path d="M92.6002 179.8C92.7591 182.139 93.1926 188.622 96.2989 182.031C100.993 188.449 99.835 181.66 99.6761 179.322C99.5172 176.983 97.8044 175.195 95.8504 175.327C93.8965 175.459 92.4413 177.462 92.6002 179.8Z" fill="#FFCC33"/>
<path d="M83.2886 177.239C82.6851 179.504 81.0027 185.781 87.2887 180.86C92.5809 190.08 91.9788 181.967 92.5824 179.702C93.1859 177.436 91.5947 175.049 89.0283 174.369C86.4619 173.689 83.8921 174.973 83.2886 177.239Z" fill="#FFCC33"/>
<path d="M100.377 181.97C100.772 183.301 101.861 186.991 103.519 182.572C109.043 185.607 106.232 181.69 105.837 180.359C105.443 179.029 103.9 178.31 102.393 178.755C100.885 179.2 99.9828 180.639 100.377 181.97Z" fill="#FFCC33"/>
<path d="M73.1297 133.971C81.4532 144.334 98.458 171.96 96.3832 172.809C97.6379 170.827 92.9705 133.048 78.6083 127.149C68.5579 120.82 56.6879 111.688 58.1386 119.278C52.598 124.725 63.0794 127.642 73.1297 133.971Z" fill="#FFCC33"/>
<path d="M84.7548 157.241C88.7434 175.452 81.1038 178.096 93.0335 172.341C116.495 186.338 96.0862 164.077 94.0925 155.164C92.0989 146.251 88.3924 139.49 85.8139 140.064C83.2353 140.638 80.5891 139.139 84.7548 157.241Z" fill="#FFCC33"/>
<ellipse cx="5.90431" cy="68.3649" rx="9.21974" ry="12.0244" fill="white"/>
<ellipse cx="5.90433" cy="71.1942" rx="3.54605" ry="3.53659" fill="black"/>
<ellipse cx="4.84055" cy="70.1332" rx="1.06382" ry="1.06098" fill="white"/>
<path d="M18.6699 57.755C18.1346 58.219 15.1828 54.7939 10.8686 52.0965C4.48568 49.2672 -0.478789 49.9745 -0.496909 48.657C-0.28886 48.3261 7.32258 45.7306 13.7055 49.9745C18.67 52.8037 19.6704 57.825 18.6699 57.755Z" fill="#787262"/>
<path d="M22.9253 93.1212C25.0529 93.8285 12.595 105.058 -2.60633 106.56C-17.8077 108.062 -33.1024 102.316 -32.3932 100.902C-32.4704 100.124 -17.9425 104.416 -2.74117 102.914C12.4602 101.412 22.848 92.3438 22.9253 93.1212Z" fill="#693624"/>
</g>
<defs>
<clipPath id="clip0_577_2621">
<rect width="202" height="195" fill="white"/>
</clipPath>
</defs>
</svg>
