<svg width="405" height="390" viewBox="0 0 405 390" fill="none" xmlns="http://www.w3.org/2000/svg">
<rect x="1.5" y="1.5" width="402" height="387" rx="18.5" fill="#FDFFEF"/>
<rect x="1.5" y="1.5" width="402" height="387" rx="18.5" stroke="black" stroke-width="3"/>
<path d="M212.478 36.1464C216.024 46.7562 226.662 55.244 196.875 50.2928C172.762 54.5367 179.145 48.1708 181.273 36.1464C181.273 28.3335 189.825 22 196.875 22C203.926 22 209.641 27.6586 212.478 36.1464Z" fill="#FFCC33"/>
<path d="M273.47 176.195C277.016 254 316.023 319.781 203.258 319.781C95.4584 319.781 127.373 274.513 130.209 176.195C130.209 103.536 130.209 40.3901 201.84 44.6341C259.995 44.6341 260.704 104.049 273.47 176.195Z" fill="#FFCC33"/>
<path d="M195.457 355.855C199.357 361.762 181.982 365.757 162.124 366.464C142.266 368.586 116.025 369.294 116.025 360.099C113.189 352.318 140.138 339.586 162.124 345.245C181.317 345.245 176.308 326.855 195.457 355.855Z" fill="#FFCC33"/>
<path d="M177.93 330.135C183.4 343.123 194.549 355.929 190.492 357.269C186.436 358.609 167.425 347.595 163.239 334.986C156.45 309.73 158.949 311.07 163.005 309.73C167.062 308.391 172.762 299.269 177.93 330.135Z" fill="#FFCC33"/>
<path d="M208.774 355.602C204.874 361.509 222.249 365.504 242.107 366.211C261.965 368.333 288.206 369.041 288.206 359.845C291.043 352.065 264.093 339.333 242.107 344.992C222.915 344.992 227.923 326.601 208.774 355.602Z" fill="#FFCC33"/>
<path d="M226.301 329.882C220.831 342.87 209.682 355.676 213.739 357.016C217.796 358.356 236.806 347.342 240.992 334.733C247.781 309.477 245.283 310.817 241.226 309.477C237.169 308.138 231.469 299.016 226.301 329.882Z" fill="#FFCC33"/>
<path d="M111.77 187.513C111.77 199.232 116.026 210.147 111.77 210.147C108.224 211.561 104.678 203.074 104.678 187.513C104.678 175.793 107.367 166.293 108.933 166.293C110.5 166.293 111.77 175.793 111.77 187.513Z" fill="#FFCC33"/>
<path d="M103.26 185.391C100.009 196.653 102.916 207.734 99.0045 206.61C95.3523 207.034 93.9788 197.515 98.2953 182.562C101.546 171.3 105.172 162.759 106.613 163.173C108.053 163.586 106.511 174.129 103.26 185.391Z" fill="#FFCC33"/>
<path d="M96.1676 185.391C89.4572 195.011 88.8711 203.27 85.5295 200.952C82.9322 199.15 83.7119 193.921 92.622 181.147C99.3323 171.527 105.251 164.099 106.482 164.953C107.712 165.807 102.878 175.77 96.1676 185.391Z" fill="#FFCC33"/>
<path d="M118.118 174.616C124.536 182.562 130.21 188.22 125.955 192.464C120.99 196.708 117.243 187.039 111.763 178.84C106.284 170.64 102.924 161.801 104.679 160.634C106.097 154.269 114.607 170.537 118.118 174.616Z" fill="#FFCC33"/>
<path d="M107.508 181.501C107.508 183.844 107.515 190.342 103.969 183.976C99.7207 190.696 100.416 183.844 100.416 181.501C100.416 179.157 102.003 177.257 103.962 177.257C105.92 177.257 107.508 179.157 107.508 181.501Z" fill="#FFCC33"/>
<path d="M116.625 178.318C117.38 180.537 119.484 186.686 112.879 182.201C108.224 191.757 108.275 183.621 107.519 181.402C106.763 179.182 108.189 176.693 110.703 175.841C113.218 174.99 115.869 176.098 116.625 178.318Z" fill="#FFCC33"/>
<path d="M99.8958 184.19C99.5923 185.544 98.7563 189.3 96.8026 185.002C91.4969 188.403 94.0359 184.306 94.3394 182.951C94.6429 181.597 96.1329 180.776 97.6672 181.118C99.2016 181.461 100.199 182.836 99.8958 184.19Z" fill="#FFCC33"/>
<path d="M123.827 134.464C116.225 145.364 101.132 174.073 103.26 174.781C101.874 172.888 103.969 134.881 117.898 128.027C127.497 121.034 138.72 111.122 137.788 118.793C143.685 123.854 133.425 127.471 123.827 134.464Z" fill="#FFCC33"/>
<path d="M113.806 158.464C111.061 176.903 118.862 179.025 106.57 174.088C84.111 189.634 102.964 166.048 104.349 157.021C105.734 147.994 108.973 140.999 111.585 141.398C114.196 141.796 116.735 140.122 113.806 158.464Z" fill="#FFCC33"/>
<path d="M291.755 186.086C292.55 197.778 289.044 208.955 293.29 208.668C296.924 209.84 299.886 201.133 298.831 185.608C298.037 173.915 294.71 164.618 293.147 164.723C291.584 164.829 290.961 174.393 291.755 186.086Z" fill="#FFCC33"/>
<path d="M300.102 183.394C304.109 194.411 301.96 205.663 305.787 204.278C309.459 204.455 310.184 194.865 304.864 180.237C300.857 169.22 296.66 160.943 295.251 161.453C293.842 161.963 296.096 172.377 300.102 183.394Z" fill="#FFCC33"/>
<path d="M307.178 182.916C314.525 192.062 315.67 200.263 318.847 197.724C321.316 195.751 320.184 190.587 310.428 178.443C303.081 169.297 296.672 162.286 295.502 163.221C294.332 164.156 299.831 173.771 307.178 182.916Z" fill="#FFCC33"/>
<path d="M284.548 173.646C278.683 182.007 273.406 188.035 277.939 191.982C283.18 195.882 286.263 185.982 291.174 177.432C296.085 168.881 298.838 159.836 297.008 158.791C295.162 152.535 287.774 169.34 284.548 173.646Z" fill="#FFCC33"/>
<path d="M295.6 179.8C295.759 182.139 296.193 188.622 299.299 182.031C303.993 188.449 302.835 181.66 302.676 179.322C302.517 176.983 300.804 175.195 298.85 175.327C296.897 175.459 295.441 177.462 295.6 179.8Z" fill="#FFCC33"/>
<path d="M286.289 177.239C285.685 179.504 284.003 185.781 290.289 180.86C295.581 190.08 294.979 181.967 295.582 179.702C296.186 177.436 294.595 175.049 292.028 174.369C289.462 173.689 286.892 174.973 286.289 177.239Z" fill="#FFCC33"/>
<path d="M303.377 181.97C303.772 183.301 304.861 186.991 306.519 182.572C312.043 185.607 309.232 181.69 308.837 180.359C308.443 179.029 306.9 178.31 305.393 178.755C303.885 179.2 302.983 180.639 303.377 181.97Z" fill="#FFCC33"/>
<path d="M276.13 133.971C284.453 144.334 301.458 171.96 299.383 172.809C300.638 170.827 295.97 133.048 281.608 127.149C271.558 120.82 259.688 111.688 261.139 119.278C255.598 124.725 266.079 127.642 276.13 133.971Z" fill="#FFCC33"/>
<path d="M287.755 157.241C291.743 175.452 284.104 178.096 296.033 172.341C319.495 186.338 299.086 164.077 297.093 155.164C295.099 146.251 291.392 139.49 288.814 140.064C286.235 140.638 283.589 139.139 287.755 157.241Z" fill="#FFCC33"/>
<ellipse cx="180.536" cy="69.7794" rx="9.21974" ry="12.0244" fill="white"/>
<ellipse cx="180.536" cy="72.6087" rx="3.54605" ry="3.53659" fill="black"/>
<ellipse cx="179.472" cy="71.5478" rx="1.06382" ry="1.06098" fill="white"/>
<ellipse cx="208.904" cy="68.3649" rx="9.21974" ry="12.0244" fill="white"/>
<ellipse cx="208.904" cy="71.1942" rx="3.54605" ry="3.53659" fill="black"/>
<ellipse cx="207.841" cy="70.1332" rx="1.06382" ry="1.06098" fill="white"/>
<path d="M188.34 50.909C188.34 51.6162 182.827 51.3289 177.955 52.8063C168.026 58.4622 167.885 58.8345 167.771 58.4608C167.657 58.0871 170.607 51.389 176.281 49.9756C181.246 47.8549 189.049 50.2019 188.34 50.909Z" fill="#787262"/>
<path d="M221.67 57.755C221.135 58.219 218.183 54.7939 213.869 52.0965C207.486 49.2672 202.521 49.9745 202.503 48.657C202.711 48.3261 210.323 45.7306 216.705 49.9745C221.67 52.8037 222.67 57.825 221.67 57.755Z" fill="#787262"/>
<path d="M225.925 93.1214C228.053 93.8287 215.595 105.058 200.394 106.56C185.192 108.062 169.898 102.317 170.607 100.902C170.53 100.124 185.057 104.416 200.259 102.914C215.46 101.412 225.848 92.3439 225.925 93.1214Z" fill="#693624"/>
</svg>
