<svg width="202" height="195" viewBox="0 0 202 195" fill="none" xmlns="http://www.w3.org/2000/svg">
<g clip-path="url(#clip0_577_2291)">
<rect x="0.5" y="1.5" width="402" height="387" rx="18.5" fill="#FDFFEF"/>
<rect x="0.5" y="1.5" width="402" height="387" rx="18.5" stroke="black" stroke-width="3"/>
<path d="M211.478 36.1464C215.024 46.7562 225.662 55.244 195.875 50.2928C171.762 54.5367 178.145 48.1708 180.273 36.1464C180.273 28.3335 188.825 22 195.875 22C202.926 22 208.641 27.6586 211.478 36.1464Z" fill="#FFCC33"/>
<path d="M272.47 176.195C276.016 254 315.023 319.781 202.258 319.781C94.4584 319.781 126.373 274.513 129.209 176.195C129.209 103.536 129.209 40.3901 200.84 44.6341C258.995 44.6341 259.704 104.049 272.47 176.195Z" fill="#FFCC33"/>
<path d="M110.77 187.513C110.77 199.232 115.026 210.147 110.77 210.147C107.224 211.561 103.678 203.074 103.678 187.513C103.678 175.793 106.367 166.293 107.933 166.293C109.5 166.293 110.77 175.793 110.77 187.513Z" fill="#FFCC33"/>
<path d="M102.26 185.391C99.0089 196.653 101.916 207.734 98.0045 206.61C94.3523 207.034 92.9788 197.515 97.2953 182.562C100.546 171.3 104.172 162.759 105.613 163.173C107.053 163.586 105.511 174.129 102.26 185.391Z" fill="#FFCC33"/>
<path d="M95.1676 185.391C88.4572 195.011 87.8711 203.27 84.5295 200.952C81.9322 199.15 82.7119 193.921 91.622 181.147C98.3323 171.527 104.251 164.099 105.482 164.953C106.712 165.807 101.878 175.77 95.1676 185.391Z" fill="#FFCC33"/>
<path d="M117.118 174.616C123.536 182.562 129.21 188.22 124.955 192.464C119.99 196.708 116.243 187.039 110.763 178.84C105.284 170.64 101.924 161.801 103.679 160.634C105.097 154.269 113.607 170.537 117.118 174.616Z" fill="#FFCC33"/>
<path d="M106.508 181.501C106.508 183.844 106.515 190.342 102.969 183.976C98.7207 190.696 99.4158 183.844 99.4158 181.501C99.4158 179.157 101.003 177.257 102.962 177.257C104.92 177.257 106.508 179.157 106.508 181.501Z" fill="#FFCC33"/>
<path d="M115.625 178.318C116.38 180.537 118.484 186.686 111.879 182.201C107.224 191.757 107.275 183.621 106.519 181.402C105.763 179.182 107.189 176.693 109.703 175.841C112.218 174.99 114.869 176.098 115.625 178.318Z" fill="#FFCC33"/>
<path d="M98.8958 184.19C98.5923 185.544 97.7563 189.3 95.8026 185.002C90.4969 188.403 93.0359 184.306 93.3394 182.951C93.6429 181.597 95.1329 180.776 96.6672 181.118C98.2016 181.461 99.1994 182.836 98.8958 184.19Z" fill="#FFCC33"/>
<path d="M122.827 134.464C115.225 145.364 100.132 174.074 102.26 174.781C100.874 172.888 102.969 134.881 116.898 128.027C126.497 121.034 137.72 111.122 136.788 118.793C142.685 123.854 132.425 127.471 122.827 134.464Z" fill="#FFCC33"/>
<path d="M112.806 158.464C110.061 176.903 117.862 179.025 105.57 174.088C83.111 189.634 101.964 166.048 103.349 157.021C104.734 147.994 107.973 140.999 110.585 141.398C113.196 141.796 115.735 140.122 112.806 158.464Z" fill="#FFCC33"/>
<ellipse cx="179.536" cy="69.7794" rx="9.21974" ry="12.0244" fill="white"/>
<ellipse cx="179.536" cy="72.6087" rx="3.54605" ry="3.53659" fill="black"/>
<ellipse cx="178.472" cy="71.5478" rx="1.06382" ry="1.06098" fill="white"/>
<ellipse cx="207.904" cy="68.3649" rx="9.21974" ry="12.0244" fill="white"/>
<path d="M187.34 50.909C187.34 51.6162 181.827 51.3289 176.955 52.8063C167.026 58.4622 166.885 58.8345 166.771 58.4608C166.657 58.0871 169.607 51.389 175.281 49.9756C180.246 47.8549 188.049 50.2019 187.34 50.909Z" fill="#787262"/>
<path d="M220.67 57.755C220.135 58.219 217.183 54.7939 212.869 52.0965C206.486 49.2672 201.521 49.9745 201.503 48.657C201.711 48.3261 209.323 45.7306 215.705 49.9745C220.67 52.8037 221.67 57.825 220.67 57.755Z" fill="#787262"/>
<path d="M224.925 93.1212C227.053 93.8285 214.595 105.058 199.394 106.56C184.192 108.062 168.898 102.316 169.607 100.902C169.53 100.124 184.057 104.416 199.259 102.914C214.46 101.412 224.848 92.3438 224.925 93.1212Z" fill="#693624"/>
</g>
<defs>
<clipPath id="clip0_577_2291">
<rect width="202" height="195" fill="white"/>
</clipPath>
</defs>
</svg>
