<svg width="86" height="122" viewBox="0 0 86 122" fill="none" xmlns="http://www.w3.org/2000/svg">
<g clip-path="url(#clip0_453_1657)">
<path d="M7.06272 9.98154C9.57267 17.4677 17.1026 23.4566 -3.98111 19.9631C-21.0489 22.9575 -16.531 18.4658 -15.025 9.98154C-15.025 4.46889 -8.97148 0 -3.98111 0C1.00926 0 5.05475 3.99262 7.06272 9.98154Z" fill="#FFCC33"/>
<path d="M50.234 108.799C52.744 163.697 80.3536 210.111 0.536819 210.111C-75.766 210.111 -53.1764 178.17 -51.1685 108.799C-51.1685 57.531 -51.1685 12.9759 -0.467247 15.9704C40.6961 15.9704 41.1982 57.8928 50.234 108.799Z" fill="#FFCC33"/>
<path d="M63.1766 115.777C63.739 124.027 61.2577 131.914 64.2628 131.711C66.8349 132.538 68.9317 126.394 68.185 115.44C67.6226 107.19 65.2681 100.63 64.1617 100.704C63.0552 100.779 62.6142 107.527 63.1766 115.777Z" fill="#FFCC33"/>
<path d="M69.0849 113.878C71.9211 121.652 70.3997 129.591 73.1083 128.614C75.7078 128.738 76.2209 121.972 72.455 111.65C69.6188 103.877 66.6481 98.037 65.6509 98.3966C64.6536 98.7563 66.2488 106.105 69.0849 113.878Z" fill="#FFCC33"/>
<path d="M74.0933 113.541C79.2938 119.994 80.1041 125.78 82.3526 123.989C84.1004 122.597 83.2989 118.954 76.3936 110.385C71.1931 103.932 66.6567 98.9847 65.8288 99.6442C65.0009 100.304 68.8928 107.088 74.0933 113.541Z" fill="#FFCC33"/>
<path d="M58.0751 107C53.9238 112.899 50.1886 117.153 53.3973 119.938C57.1069 122.689 59.2891 115.704 62.7653 109.671C66.2414 103.638 68.1901 97.2557 66.8949 96.5181C65.5878 92.1043 60.3586 103.962 58.0751 107Z" fill="#FFCC33"/>
<path d="M65.8981 111.342C66.0106 112.992 66.3174 117.566 68.5161 112.916C71.8387 117.445 71.019 112.655 70.9065 111.005C70.7941 109.355 69.5817 108.092 68.1987 108.186C66.8156 108.279 65.7856 109.692 65.8981 111.342Z" fill="#FFCC33"/>
<path d="M59.3072 109.535C58.88 111.133 57.6892 115.562 62.1386 112.09C65.8845 118.596 65.4583 112.871 65.8855 111.273C66.3127 109.674 65.1864 107.99 63.3699 107.51C61.5533 107.03 59.7344 107.937 59.3072 109.535Z" fill="#FFCC33"/>
<path d="M71.4029 112.873C71.6823 113.812 72.4529 116.416 73.6264 113.298C77.5364 115.44 75.5468 112.676 75.2674 111.737C74.9881 110.798 73.8965 110.291 72.8294 110.605C71.7622 110.919 71.1236 111.934 71.4029 112.873Z" fill="#FFCC33"/>
<path d="M52.1165 79.0059C58.008 86.3175 70.0443 105.81 68.5757 106.41C69.4638 105.011 66.1601 78.3546 55.9943 74.1923C48.8805 69.7266 40.4787 63.2827 41.5055 68.6384C37.5837 72.4818 45.0026 74.5402 52.1165 79.0059Z" fill="#FFCC33"/>
<path d="M60.345 95.4247C63.1682 108.274 57.7607 110.139 66.2048 106.079C82.8113 115.955 68.3655 100.248 66.9544 93.9588C65.5433 87.6699 62.9197 82.8999 61.0946 83.3046C59.2695 83.7094 57.3964 82.6517 60.345 95.4247Z" fill="#FFCC33"/>
<ellipse cx="4.53305" cy="32.7145" rx="6.5259" ry="8.48431" fill="white"/>
<ellipse cx="4.53303" cy="34.711" rx="2.50996" ry="2.49538" fill="black"/>
<ellipse cx="3.78009" cy="33.9622" rx="0.752989" ry="0.748616" fill="white"/>
<path d="M13.5688 25.2286C13.1899 25.556 11.1006 23.1393 8.04691 21.236C3.52898 19.2397 0.0150331 19.7388 0.0022076 18.8092C0.149468 18.5756 5.53699 16.7443 10.0549 19.7388C13.5689 21.7351 14.277 25.278 13.5688 25.2286Z" fill="#787262"/>
<path d="M16.5808 50.1825C18.0868 50.6815 9.26889 58.6051 -1.49091 59.6649C-12.2507 60.7247 -23.0766 56.6705 -22.5746 55.6723C-22.6293 55.1237 -12.3461 58.152 -1.58635 57.0922C9.17344 56.0323 16.5262 49.6339 16.5808 50.1825Z" fill="#693624"/>
</g>
<defs>
<clipPath id="clip0_453_1657">
<rect width="86" height="122" fill="white"/>
</clipPath>
</defs>
</svg>
