<svg width="172" height="244" viewBox="0 0 172 244" fill="none" xmlns="http://www.w3.org/2000/svg">
<path d="M93.0627 9.98154C95.5726 17.4677 103.103 23.4566 82.0188 19.9631C64.9511 22.9575 69.469 18.4658 70.975 9.98154C70.975 4.46889 77.0285 0 82.0188 0C87.0092 0 91.0547 3.99262 93.0627 9.98154Z" fill="black"/>
<path d="M136.234 108.799C138.744 163.697 166.354 210.111 86.5368 210.111C10.234 210.111 32.8236 178.17 34.8315 108.799C34.8315 57.531 34.8315 12.9759 85.5328 15.9704C126.696 15.9704 127.198 57.8928 136.234 108.799Z" fill="black"/>
<path d="M81.0148 235.565C83.7757 239.733 71.477 242.551 57.4212 243.051C43.3654 244.548 24.7916 245.047 24.7916 238.559C22.7837 233.069 41.8594 224.086 57.4212 228.078C71.0061 228.078 67.461 215.102 81.0148 235.565Z" fill="black"/>
<path d="M68.6091 217.417C72.481 226.581 80.3724 235.617 77.5009 236.562C74.6295 237.508 61.1735 229.736 58.2107 220.84C53.4053 203.02 55.1736 203.965 58.0451 203.02C60.9165 202.074 64.9511 195.638 68.6091 217.417Z" fill="black"/>
<path d="M90.4412 235.386C87.6803 239.554 99.979 242.373 114.035 242.872C128.091 244.369 146.664 244.868 146.664 238.38C148.672 232.89 129.597 223.907 114.035 227.9C100.45 227.9 103.995 214.924 90.4412 235.386Z" fill="black"/>
<path d="M102.847 217.238C98.9751 226.402 91.0837 235.439 93.9551 236.384C96.8266 237.329 110.283 229.558 113.245 220.661C118.051 202.841 116.282 203.786 113.411 202.841C110.54 201.896 106.505 195.459 102.847 217.238Z" fill="black"/>
<path d="M21.7797 116.784C21.7797 125.053 24.7917 132.755 21.7797 132.755C19.2698 133.753 16.7598 127.764 16.7598 116.784C16.7598 108.515 18.6628 101.812 19.7717 101.812C20.8807 101.812 21.7797 108.515 21.7797 116.784Z" fill="black"/>
<path d="M15.7558 115.287C13.4548 123.233 15.5127 131.052 12.7439 130.259C10.1588 130.558 9.18663 123.842 12.2419 113.291C14.5429 105.344 17.1097 99.318 18.1291 99.6098C19.1485 99.9016 18.0568 107.341 15.7558 115.287Z" fill="black"/>
<path d="M10.7359 115.287C5.98618 122.075 5.57134 127.902 3.2061 126.266C1.36765 124.995 1.9195 121.306 8.22624 112.292C12.9759 105.504 17.1655 100.264 18.0363 100.866C18.9072 101.468 15.4856 108.499 10.7359 115.287Z" fill="black"/>
<path d="M26.2726 107.684C30.8156 113.291 34.8315 117.283 31.8196 120.278C28.3056 123.272 25.6534 116.45 21.7748 110.664C17.8963 104.879 15.518 98.642 16.7601 97.8191C17.764 93.3274 23.7877 104.806 26.2726 107.684Z" fill="black"/>
<path d="M18.7628 112.542C18.7628 114.196 18.7678 118.78 16.2578 114.289C13.2509 119.03 13.7429 114.196 13.7429 112.542C13.7429 110.888 14.8666 109.547 16.2528 109.547C17.639 109.547 18.7628 110.888 18.7628 112.542Z" fill="black"/>
<path d="M25.2158 110.296C25.7507 111.862 27.24 116.201 22.5647 113.036C19.2698 119.779 19.3057 114.038 18.7707 112.472C18.2358 110.906 19.245 109.15 21.0247 108.549C22.8044 107.948 24.6809 108.73 25.2158 110.296Z" fill="black"/>
<path d="M13.3747 114.44C13.1599 115.395 12.5681 118.045 11.1852 115.013C7.42979 117.412 9.22692 114.521 9.44177 113.566C9.65663 112.61 10.7112 112.031 11.7973 112.272C12.8833 112.514 13.5896 113.484 13.3747 114.44Z" fill="black"/>
<path d="M30.3136 79.3531C24.9329 87.0441 14.2499 107.301 15.7558 107.801C14.7746 106.465 16.2578 79.6474 26.1173 74.8113C32.9111 69.8776 40.8555 62.8836 40.1952 68.2961C44.3694 71.867 37.1075 74.4195 30.3136 79.3531Z" fill="black"/>
<path d="M23.2207 96.2876C21.2779 109.298 26.7998 110.795 18.0989 107.311C2.20206 118.281 15.5465 101.639 16.5267 95.2694C17.5069 88.9 19.8 83.9646 21.6485 84.2457C23.4969 84.5269 25.2938 83.3457 23.2207 96.2876Z" fill="black"/>
<path d="M149.177 115.777C149.739 124.027 147.258 131.914 150.263 131.711C152.835 132.538 154.932 126.394 154.185 115.44C153.623 107.19 151.268 100.63 150.162 100.704C149.055 100.779 148.614 107.527 149.177 115.777Z" fill="black"/>
<path d="M155.085 113.878C157.921 121.652 156.4 129.591 159.108 128.614C161.708 128.738 162.221 121.972 158.455 111.65C155.619 103.877 152.648 98.037 151.651 98.3966C150.654 98.7563 152.249 106.105 155.085 113.878Z" fill="black"/>
<path d="M160.093 113.541C165.294 119.994 166.104 125.78 168.353 123.989C170.1 122.597 169.299 118.954 162.394 110.385C157.193 103.932 152.657 98.9847 151.829 99.6442C151.001 100.304 154.893 107.088 160.093 113.541Z" fill="black"/>
<path d="M144.075 107C139.924 112.899 136.189 117.153 139.397 119.938C143.107 122.689 145.289 115.704 148.765 109.671C152.241 103.638 154.19 97.2557 152.895 96.5181C151.588 92.1043 146.358 103.962 144.075 107Z" fill="black"/>
<path d="M151.898 111.342C152.011 112.992 152.317 117.566 154.516 112.916C157.839 117.445 157.019 112.655 156.907 111.005C156.794 109.355 155.582 108.092 154.199 108.186C152.816 108.279 151.786 109.692 151.898 111.342Z" fill="black"/>
<path d="M145.307 109.535C144.88 111.133 143.689 115.562 148.139 112.09C151.884 118.596 151.458 112.871 151.885 111.273C152.313 109.674 151.186 107.99 149.37 107.51C147.553 107.03 145.734 107.937 145.307 109.535Z" fill="black"/>
<path d="M157.403 112.873C157.682 113.812 158.453 116.416 159.626 113.298C163.536 115.44 161.547 112.676 161.267 111.737C160.988 110.798 159.897 110.291 158.829 110.605C157.762 110.919 157.124 111.934 157.403 112.873Z" fill="black"/>
<path d="M138.116 79.0059C144.008 86.3175 156.044 105.81 154.576 106.41C155.464 105.011 152.16 78.3546 141.994 74.1923C134.88 69.7266 126.479 63.2827 127.505 68.6384C123.584 72.4818 131.003 74.5402 138.116 79.0059Z" fill="black"/>
<path d="M146.345 95.4247C149.168 108.274 143.761 110.139 152.205 106.079C168.811 115.955 154.366 100.248 152.954 93.9588C151.543 87.6699 148.92 82.8999 147.095 83.3046C145.269 83.7094 143.396 82.6517 146.345 95.4247Z" fill="black"/>
<ellipse cx="70.4534" cy="33.7128" rx="6.5259" ry="8.48431" fill="black"/>
<ellipse cx="70.4534" cy="35.709" rx="2.50996" ry="2.49538" fill="black"/>
<ellipse cx="69.7004" cy="34.9605" rx="0.752989" ry="0.748616" fill="black"/>
<ellipse cx="90.5331" cy="32.7145" rx="6.5259" ry="8.48431" fill="black"/>
<ellipse cx="90.5332" cy="34.711" rx="2.50996" ry="2.49538" fill="black"/>
<ellipse cx="89.7801" cy="33.9622" rx="0.752989" ry="0.748616" fill="black"/>
<path d="M75.9753 20.3948C75.9753 20.8939 72.0737 20.6918 68.6257 21.735C61.5978 25.7276 61.4979 25.9903 61.4172 25.7266C61.3364 25.4629 63.4251 20.7359 67.4411 19.7377C70.9551 18.2405 76.4773 19.8957 75.9753 20.3948Z" fill="black"/>
<path d="M99.5689 25.2286C99.19 25.556 97.1007 23.1393 94.047 21.236C89.529 19.2397 86.0151 19.7388 86.0023 18.8092C86.1495 18.5756 91.5371 16.7443 96.055 19.7388C99.5689 21.7351 100.277 25.278 99.5689 25.2286Z" fill="black"/>
<path d="M102.581 50.1825C104.087 50.6815 95.2689 58.6051 84.5092 59.6649C73.7494 60.7247 62.9235 56.6705 63.4255 55.6723C63.3708 55.1237 73.6539 58.152 84.4137 57.0922C95.1735 56.0323 102.526 49.6339 102.581 50.1825Z" fill="black"/>
</svg>
