<svg width="86" height="122" viewBox="0 0 86 122" fill="none" xmlns="http://www.w3.org/2000/svg">
<g clip-path="url(#clip0_453_1656)">
<path d="M93.0627 9.98154C95.5726 17.4677 103.103 23.4566 82.0189 19.9631C64.9511 22.9575 69.469 18.4658 70.975 9.98154C70.975 4.46889 77.0285 0 82.0189 0C87.0092 0 91.0547 3.99262 93.0627 9.98154Z" fill="#FFCC33"/>
<path d="M136.234 108.799C138.744 163.697 166.354 210.111 86.5368 210.111C10.234 210.111 32.8235 178.17 34.8315 108.799C34.8315 57.531 34.8315 12.9759 85.5327 15.9704C126.696 15.9704 127.198 57.8928 136.234 108.799Z" fill="#FFCC33"/>
<path d="M21.7797 116.784C21.7797 125.053 24.7917 132.755 21.7797 132.755C19.2698 133.753 16.7598 127.764 16.7598 116.784C16.7598 108.515 18.6628 101.812 19.7718 101.812C20.8807 101.812 21.7797 108.515 21.7797 116.784Z" fill="#FFCC33"/>
<path d="M15.7558 115.287C13.4548 123.233 15.5127 131.052 12.7439 130.259C10.1588 130.558 9.18662 123.842 12.2419 113.291C14.5429 105.344 17.1096 99.318 18.1291 99.6098C19.1485 99.9016 18.0568 107.341 15.7558 115.287Z" fill="#FFCC33"/>
<path d="M10.7359 115.287C5.98621 122.075 5.57137 127.902 3.20613 126.266C1.36768 124.995 1.91953 121.306 8.22627 112.292C12.976 105.504 17.1655 100.264 18.0364 100.866C18.9072 101.468 15.4856 108.499 10.7359 115.287Z" fill="#FFCC33"/>
<path d="M26.2727 107.684C30.8156 113.291 34.8316 117.283 31.8196 120.278C28.3057 123.272 25.6534 116.45 21.7748 110.664C17.8963 104.879 15.5181 98.642 16.7601 97.8191C17.764 93.3274 23.7878 104.806 26.2727 107.684Z" fill="#FFCC33"/>
<path d="M18.7628 112.542C18.7628 114.196 18.7678 118.78 16.2578 114.289C13.2509 119.03 13.7428 114.196 13.7428 112.542C13.7428 110.888 14.8666 109.547 16.2528 109.547C17.639 109.547 18.7628 110.888 18.7628 112.542Z" fill="#FFCC33"/>
<path d="M25.2157 110.296C25.7507 111.862 27.24 116.201 22.5647 113.036C19.2698 119.779 19.3056 114.038 18.7707 112.472C18.2358 110.906 19.2449 109.15 21.0247 108.549C22.8044 107.948 24.6808 108.73 25.2157 110.296Z" fill="#FFCC33"/>
<path d="M13.3747 114.44C13.1599 115.395 12.5681 118.045 11.1852 115.013C7.42979 117.412 9.22692 114.521 9.44177 113.566C9.65663 112.61 10.7112 112.031 11.7973 112.272C12.8833 112.514 13.5896 113.484 13.3747 114.44Z" fill="#FFCC33"/>
<path d="M30.3136 79.3531C24.9329 87.0441 14.2499 107.301 15.7558 107.801C14.7746 106.465 16.2578 79.6474 26.1173 74.8113C32.9111 69.8776 40.8555 62.8836 40.1952 68.2961C44.3694 71.867 37.1075 74.4195 30.3136 79.3531Z" fill="#FFCC33"/>
<path d="M23.2207 96.2876C21.2779 109.298 26.7998 110.795 18.0989 107.311C2.20204 118.281 15.5465 101.639 16.5267 95.2694C17.5069 88.9 19.8 83.9646 21.6484 84.2457C23.4969 84.5269 25.2938 83.3457 23.2207 96.2876Z" fill="#FFCC33"/>
<ellipse cx="70.4533" cy="33.7128" rx="6.5259" ry="8.48431" fill="white"/>
<ellipse cx="70.4533" cy="35.709" rx="2.50996" ry="2.49538" fill="black"/>
<ellipse cx="69.7003" cy="34.9605" rx="0.752989" ry="0.748616" fill="white"/>
<ellipse cx="90.533" cy="32.7145" rx="6.5259" ry="8.48431" fill="white"/>
<path d="M75.9752 20.3948C75.9752 20.8939 72.0737 20.6918 68.6256 21.735C61.5977 25.7276 61.4978 25.9903 61.4171 25.7266C61.3364 25.4629 63.4251 20.7359 67.4411 19.7377C70.955 18.2405 76.4772 19.8957 75.9752 20.3948Z" fill="#787262"/>
<path d="M99.5689 25.2286C99.19 25.556 97.1006 23.1393 94.0469 21.236C89.529 19.2397 86.0151 19.7388 86.0022 18.8092C86.1495 18.5756 91.537 16.7443 96.055 19.7388C99.5689 21.7351 100.277 25.278 99.5689 25.2286Z" fill="#787262"/>
<path d="M102.581 50.1825C104.087 50.6815 95.2689 58.6051 84.5091 59.6649C73.7493 60.7247 62.9234 56.6705 63.4254 55.6723C63.3708 55.1237 73.6539 58.152 84.4137 57.0922C95.1735 56.0323 102.526 49.6339 102.581 50.1825Z" fill="#693624"/>
</g>
<defs>
<clipPath id="clip0_453_1656">
<rect width="86" height="122" fill="white"/>
</clipPath>
</defs>
</svg>
