<svg width="405" height="390" viewBox="0 0 405 390" fill="none" xmlns="http://www.w3.org/2000/svg">
<rect x="1.5" y="1.5" width="402" height="387" rx="18.5" fill="#FDFFEF" stroke="black" stroke-width="3"/>
<path d="M184 330.5C113 240 142.994 220.872 147.634 204.772C152.274 188.671 194.123 201.254 221 209C247.877 216.746 313.79 228.669 294.29 239.669C277.79 246.169 210.877 338.246 184 330.5Z" fill="black"/>
<path d="M334 174C334 188.636 319.232 208 311.5 208C303.768 208 304 185.136 304 170.5C304 155.864 299.268 129.5 307 129.5C314.732 129.5 334 159.364 334 174Z" fill="black"/>
<path d="M322 160.5C322 211.31 308.675 242 272.5 242C236.325 242 155.5 206.81 155.5 156C155.5 105.19 202.325 20.5 238.5 20.5C274.675 20.5 309 99.5 322 160.5Z" fill="black"/>
<path d="M315 280C331 371.5 271.5 311 263 306C224 313 248 271.27 248 260.5C248 249.73 260.536 241 276 241C284.5 210.5 315 269.23 315 280Z" fill="black"/>
<path d="M324 337.5C324 349.374 328.5 359.5 298.5 358C269.5 356.55 272 349.374 272 337.5C272 318 282.969 316 296.5 316C310.031 316 315 249.5 324 337.5Z" fill="black"/>
<path d="M263.5 354.5C218 382.5 228.5 362 200.5 352C162.5 301 166 309.561 166 301C166 292.44 205.655 315 222.5 315C239.345 315 282.5 328 263.5 354.5Z" fill="black"/>
<path d="M285.5 318.5C285.5 323.194 277.209 335 275 335C272.791 335 272.5 323.194 272.5 318.5C272.5 313.806 258.791 300.5 261 300.5C263.209 300.5 285.5 313.806 285.5 318.5Z" fill="black"/>
<path d="M275.391 291.5C275.391 295.918 275.391 306.5 253.891 314.5C232.391 326.5 215.391 334.418 215.391 330C215.391 325.581 221.498 289.5 240 289.5C258.502 289.5 275.391 287.082 275.391 291.5Z" fill="black"/>
<path d="M244 45.9998C244 58.9785 196.047 137.5 166.5 137.5C136.953 137.5 148 83.4786 148 70.4999C148 57.5212 191.453 35.4999 221 35.4999C250.547 35.4999 244 33.0211 244 45.9998Z" fill="black"/>
<path d="M304 73.5C335.5 90.5 300.5 92.5 291 89C282.716 89 276 79.3741 276 67.5C233 17 278.716 42.5 287 42.5C295.284 42.5 304 61.6258 304 73.5Z" fill="black"/>
<path d="M338 74.9999C342.073 88.0348 325.284 87.5002 317 87.5002C299 93.5002 300.5 74.5522 300.5 73.9999C279 67 314.78 75.0272 323 73.9999C327 73.5 335.5 67.0001 338 74.9999Z" fill="black"/>
<path d="M143 214C143 228.912 118.882 241.5 99 241.5C79.1177 241.5 70.5 220.412 70.5 205.5C70.5 190.588 134.118 125.5 154 125.5C173.882 125.5 209 217.5 143 214Z" fill="black"/>
<path d="M102.5 185.423C124 198.423 93.5832 216 79.4999 216C65.4167 216 53.5 230 48.9999 207.5C42 193.5 46 194.5 70.9999 178C73.5 178 91.4999 156.423 102.5 185.423Z" fill="black"/>
<path d="M147.5 220.5C147.5 230.717 162.113 290 153 290C143.887 290 141.5 278.5 119 242.5C92.5 246.5 79.8873 234 89 234C98.1127 234 147.5 210.283 147.5 220.5Z" fill="black"/>
<path d="M156 138C156 154.292 138.956 166 131.5 166C67.5 135.5 114.5 154.292 114.5 138C120 105 137.544 103 145 103C152.456 103 156 121.708 156 138Z" fill="black"/>
<path d="M113.5 157C113.5 162.799 101.985 168 99.5 168C94.5 175.5 95 163.299 95 157.5C97 147 97.0147 147 99.5 147C101.985 147 113.5 151.201 113.5 157Z" fill="black"/>
<path d="M98 172.5C98 173.881 95.4853 173.5 93 173.5C90.5147 173.5 86 171.881 86 170.5C86 169.12 88.5 164.5 95 165.5C97.4853 165.5 98 171.119 98 172.5Z" fill="black"/>
<path d="M114.5 141C114.5 142.657 114.276 144 114 144C111 146.5 111.5 141.657 111.5 140C111.5 138.343 114.224 137.5 114.5 137.5C114.776 137.5 114.5 139.343 114.5 141Z" fill="black"/>
<path d="M271.5 37.5003C271.5 39.9856 246.106 40 226.5 40C206.894 40 181 46.4856 181 44.0003C181 41.515 181 28.3651 226.5 20.5005C267 13.5001 271.5 35.015 271.5 37.5003Z" fill="black"/>
<path d="M262.5 21.9998C262.5 23.6567 258.418 24.9999 254 24.9999C249.582 24.9999 231.5 22.1567 231.5 20.4998C231.5 18.843 249.582 18.9999 254 18.9999C258.5 18.5 262.5 20.343 262.5 21.9998Z" fill="black"/>
<path d="M265 24.5001C265 27.5 260.918 27.0837 256.5 27.0837C252.082 27.0837 234 24.2405 234 22.5836C234 20.9268 251.582 22.0001 256 22.0001C260.5 21.5002 265 22.8432 265 24.5001Z" fill="black"/>
<path d="M268 26.842C268 32 263.918 29.4257 259.5 29.4257C255.082 29.4257 237 26.5824 237 24.9256C237 23.2687 255.082 25 259.5 25C264 24.5001 268 25.1852 268 26.842Z" fill="black"/>
</svg>
