<svg width="202" height="195" viewBox="0 0 202 195" fill="none" xmlns="http://www.w3.org/2000/svg">
<g clip-path="url(#clip0_577_3745)">
<rect x="-200.5" y="-193.5" width="402" height="387" rx="18.5" fill="#FDFFEF"/>
<rect x="-200.5" y="-193.5" width="402" height="387" rx="18.5" stroke="black" stroke-width="3"/>
<path d="M68.9652 -15.3202C77.3794 48.2364 96.5028 101.838 1.65182 104.901C-94.729 104.901 -90.1397 31.3901 -73.3113 -20.6803C-52.5347 -84.9673 -25.1209 -119.461 1.65182 -130.947C33.0136 -130.947 60.2469 -81.1739 68.9652 -15.3202Z" fill="#B2CA36"/>
<path d="M33.6114 111.7C33.4526 121.574 30.5436 131.539 33.6083 131.341C36.673 131.143 46.5563 131.339 45.7942 109.696C47.5458 99.5412 48.8617 91.6859 45.797 91.8838C42.7323 92.0817 31.4851 84.2286 33.6114 111.7Z" fill="#B2CA36"/>
<path d="M29.9536 129.313C29.1887 133.138 37.5904 137.062 49.8417 137.062C62.0805 134.765 76.3945 134.811 76.3945 129.313C76.3945 123.816 69.8386 115.158 57.2714 118.589C40.443 123.183 30.7185 115.53 29.9536 129.313Z" fill="#B2CA36"/>
<path d="M38.7545 29.8587C44.109 39.0476 28.0455 52.8309 2.038 52.8309C-19.5073 52.8309 -30.8539 47.4708 -39.2681 37.5161C-36.9733 34.4532 -19.5073 43.6422 2.038 43.6422C23.5833 43.6422 38.7545 27.7442 38.7545 29.8587Z" fill="black"/>
<g filter="url(#filter0_d_577_3745)">
<path d="M77.4882 35.1801C77.4882 42.3695 97.3763 97.2052 0.995479 107.926C-86.2062 101.8 -83.1465 42.3695 -83.1465 35.1801C-83.1465 27.9907 -65.5532 58.9177 0.995479 58.9175C75.1934 55.8547 77.4882 27.9907 77.4882 35.1801Z" fill="white"/>
<path d="M77.8184 32.8499C77.6782 33.9539 82.4057 35.6828 90.4915 36.7114C98.5772 37.7401 108.901 44.4555 111.145 39.0086C111.285 37.9047 107.32 30.5854 95.0811 28.2883C80.5474 28.2883 77.9585 31.7459 77.8184 32.8499Z" fill="white"/>
<path d="M94.3157 49.7285C102.73 58.1517 103.744 64.1489 105.672 63.0685C109.617 61.632 107.684 49.6293 101.965 43.6027C92.0209 31.3507 80.0592 31.1585 78.3043 32.8274C73.6626 37.2417 84.3716 41.3054 94.3157 49.7285Z" fill="white"/>
</g>
<path d="M52.1361 -43.6526C55.9607 -28.0541 62.6812 -34.747 86.5578 -17.6172C100.327 5.35505 105.116 12.2832 106.61 10.233C108.103 8.18273 109.67 -9.67629 92.8411 -28.0541C76.7777 -41.0716 53.666 -47.4811 52.1361 -43.6526Z" fill="#B2CA36"/>
<path d="M95.9011 20.4506C95.9011 21.2964 98.7209 15.5931 101.256 15.5931C103.79 15.5931 103.55 22.5649 103.55 21.719C103.55 20.8732 105.32 10.2329 102.785 10.2329C100.251 10.2329 95.9011 19.6048 95.9011 20.4506Z" fill="#B2CA36"/>
<path d="M118.849 17.8903C119.457 18.4782 116.659 12.5413 117.746 11.4158C118.849 11.7645 124.046 16.1811 123.439 15.5931C122.831 15.0052 115.347 4.5132 114.26 5.63872C113.173 6.76425 118.242 17.3023 118.849 17.8903Z" fill="#B2CA36"/>
<path d="M112.73 20.1872C115.025 23.2502 110.435 37.0336 118.085 36.268C121.909 34.7363 120.665 26.3132 119.614 20.9531C117.988 12.6531 115.025 -0.487556 108.14 -2.01904C95.5258 0.45705 108.905 7.9355 112.73 20.1872Z" fill="#B2CA36"/>
<path d="M92.842 12.5305C87.6208 19.1804 84.5654 25.4195 86.2262 26.7262C92.0767 30.9079 92.9751 23.7744 98.1962 17.1244C103.417 10.4745 106.794 3.95119 105.133 2.64452C82.1327 -31.1173 103.551 -1.1096 92.842 12.5305Z" fill="#B2CA36"/>
<path d="M103.551 27.846C102.884 36.2778 101.256 41.6293 105.899 43.0791C111.2 43.4987 111.2 33.9712 111.2 28.6119C111.866 20.1801 111.775 8.10263 109.67 7.93587C93.098 6.62317 105.08 1.0445 103.551 27.846Z" fill="#B2CA36"/>
<path d="M114.259 5.63949C117.319 7.93672 121.909 20.1886 126.498 17.8914C128.793 12.5312 124.204 7.93636 118.849 4.10768C109.297 0.760801 103.601 -12.7779 102.786 -11.9734C96.3737 -5.64229 104.611 -2.75603 114.259 5.63949Z" fill="#B2CA36"/>
</g>
<defs>
<filter id="filter0_d_577_3745" x="-106.325" y="28.2883" width="221.473" height="87.6372" filterUnits="userSpaceOnUse" color-interpolation-filters="sRGB">
<feFlood flood-opacity="0" result="BackgroundImageFix"/>
<feColorMatrix in="SourceAlpha" type="matrix" values="0 0 0 0 0 0 0 0 0 0 0 0 0 0 0 0 0 0 127 0" result="hardAlpha"/>
<feOffset dy="4"/>
<feGaussianBlur stdDeviation="2"/>
<feComposite in2="hardAlpha" operator="out"/>
<feColorMatrix type="matrix" values="0 0 0 0 0 0 0 0 0 0 0 0 0 0 0 0 0 0 0.25 0"/>
<feBlend mode="normal" in2="BackgroundImageFix" result="effect1_dropShadow_577_3745"/>
<feBlend mode="normal" in="SourceGraphic" in2="effect1_dropShadow_577_3745" result="shape"/>
</filter>
<clipPath id="clip0_577_3745">
<rect width="202" height="195" fill="white"/>
</clipPath>
</defs>
</svg>
