<svg width="202" height="195" viewBox="0 0 202 195" fill="none" xmlns="http://www.w3.org/2000/svg">
<g clip-path="url(#clip0_577_3744)">
<rect x="1.5" y="-193.5" width="402" height="387" rx="18.5" fill="#FDFFEF"/>
<rect x="1.5" y="-193.5" width="402" height="387" rx="18.5" stroke="black" stroke-width="3"/>
<path d="M270.965 -15.3202C279.379 48.2364 298.503 101.838 203.652 104.901C107.271 104.901 111.86 31.3901 128.689 -20.6803C149.465 -84.9673 176.879 -119.461 203.652 -130.947C235.014 -130.947 262.247 -81.1739 270.965 -15.3202Z" fill="#B2CA36"/>
<path d="M173.001 110.263C173.16 120.138 176.069 130.103 173.004 129.905C169.939 129.707 160.056 129.903 160.818 108.259C163.075 90.0702 164.381 91.5979 167.446 91.7958C170.511 91.9937 177.846 88.8573 173.001 110.263Z" fill="#B2CA36"/>
<path d="M175.349 127.108C176.114 130.932 165.417 137.066 153.166 137.066C140.915 137.066 130.218 133.375 130.218 127.877C130.218 122.38 136.774 113.722 149.341 117.153C166.17 121.747 174.584 113.324 175.349 127.108Z" fill="#B2CA36"/>
<path d="M240.755 29.8587C246.109 39.0476 230.046 52.8309 204.038 52.8309C182.493 52.8309 171.146 47.4708 162.732 37.5161C165.027 34.4532 182.493 43.6422 204.038 43.6422C225.583 43.6422 240.755 27.7442 240.755 29.8587Z" fill="black"/>
<g filter="url(#filter0_d_577_3744)">
<path d="M279.488 35.1801C279.488 42.3695 299.376 97.2052 202.995 107.926C115.794 101.8 118.853 42.3695 118.853 35.1801C118.853 27.9907 136.447 58.9177 202.995 58.9175C277.193 55.8547 279.488 27.9907 279.488 35.1801Z" fill="white"/>
<path d="M111.781 50.4448C107.998 54.4307 103.555 55.8545 101.754 54.6401C98.2005 52.7916 101.643 48.387 105.426 44.4011C112.734 39.0082 117.864 32.7449 119.618 34.4138C121.373 36.0827 118.854 37.4767 111.781 50.4448Z" fill="white"/>
<path d="M119.939 34.3513C120.179 35.1625 116.876 36.5657 111.204 38.2426C105.532 39.9196 102.025 43.6025 99.7302 39.7743C99.4909 38.9631 99.73 34.4136 106.614 33.6482C112.287 31.9713 119.7 33.5401 119.939 34.3513Z" fill="white"/>
</g>
<path d="M150.106 -45.1839C151.6 -43.1337 132.575 -29.5957 117.215 -18.383C103.882 0.600091 98.82 12.7655 97.3266 10.7152C95.8331 8.66498 94.2669 -9.19405 111.095 -27.5719C127.159 -40.5893 148.613 -47.2342 150.106 -45.1839Z" fill="#B2CA36"/>
<path d="M108.035 20.9328C108.035 21.7786 105.216 16.0753 102.681 16.0753C100.146 16.0753 100.386 23.047 100.386 22.2012C100.386 21.3554 98.6163 10.7151 101.151 10.7151C103.686 10.7151 108.035 20.087 108.035 20.9328Z" fill="#B2CA36"/>
<path d="M85.0872 18.372C84.4798 18.9599 87.2771 13.023 86.1901 11.8975C85.0874 12.2461 79.8904 16.6628 80.4978 16.0748C81.1052 15.4869 88.5899 4.99489 89.6769 6.12041C90.764 7.24594 85.6946 17.784 85.0872 18.372Z" fill="#B2CA36"/>
<path d="M91.2065 20.6694C88.9117 23.7324 93.5013 37.5157 85.8519 36.7501C82.0274 35.2185 83.272 26.7954 84.3221 21.4353C85.9481 13.1353 88.9119 -0.00537869 95.7963 -1.53686C108.411 0.939227 95.0312 8.41768 91.2065 20.6694Z" fill="#B2CA36"/>
<path d="M111.095 13.0126C116.316 19.6626 119.371 25.9017 117.71 27.2084C111.86 31.3901 110.961 24.2566 105.74 17.6066C100.519 10.9566 97.1423 4.43337 98.803 3.1267C121.804 -30.6351 100.386 -0.627427 111.095 13.0126Z" fill="#B2CA36"/>
<path d="M100.386 28.3279C101.052 36.7597 102.681 42.1112 98.0375 43.561C92.7368 43.9806 92.7368 34.4531 92.7368 29.0938C92.0705 20.662 92.1611 8.58456 94.2668 8.4178C110.839 7.1051 98.8564 1.52644 100.386 28.3279Z" fill="#B2CA36"/>
<path d="M89.6771 6.12167C86.6174 8.41889 82.0278 20.6708 77.4383 18.3736C75.1435 13.0133 79.7329 8.41854 85.0874 4.58986C94.6396 1.24298 100.336 -12.2957 101.151 -11.4912C107.563 -5.16011 99.3251 -2.27385 89.6771 6.12167Z" fill="#B2CA36"/>
</g>
<defs>
<filter id="filter0_d_577_3744" x="95.6748" y="28.2883" width="221.473" height="87.6372" filterUnits="userSpaceOnUse" color-interpolation-filters="sRGB">
<feFlood flood-opacity="0" result="BackgroundImageFix"/>
<feColorMatrix in="SourceAlpha" type="matrix" values="0 0 0 0 0 0 0 0 0 0 0 0 0 0 0 0 0 0 127 0" result="hardAlpha"/>
<feOffset dy="4"/>
<feGaussianBlur stdDeviation="2"/>
<feComposite in2="hardAlpha" operator="out"/>
<feColorMatrix type="matrix" values="0 0 0 0 0 0 0 0 0 0 0 0 0 0 0 0 0 0 0.25 0"/>
<feBlend mode="normal" in2="BackgroundImageFix" result="effect1_dropShadow_577_3744"/>
<feBlend mode="normal" in="SourceGraphic" in2="effect1_dropShadow_577_3744" result="shape"/>
</filter>
<clipPath id="clip0_577_3744">
<rect width="202" height="195" fill="white"/>
</clipPath>
</defs>
</svg>
