<svg width="202" height="195" viewBox="0 0 202 195" fill="none" xmlns="http://www.w3.org/2000/svg">
<g clip-path="url(#clip0_577_3743)">
<rect x="-201.5" y="1.5" width="402" height="387" rx="18.5" fill="#FDFFEF"/>
<rect x="-201.5" y="1.5" width="402" height="387" rx="18.5" stroke="black" stroke-width="3"/>
<path d="M67.9652 179.68C76.3794 243.236 95.5028 296.838 0.651823 299.901C-95.729 299.901 -91.1397 226.39 -74.3113 174.32C-53.5347 110.033 -26.1209 75.539 0.651823 64.0529C32.0136 64.0529 59.2469 113.826 67.9652 179.68Z" fill="#B2CA36"/>
<path d="M21.3048 50.2695C20.5399 63.2871 15.572 68.6473 10.9825 66.3501C3.33318 65.5843 5.24134 63.0368 5.24134 49.5037C10.5958 38.0176 1.59924 25 3.71153 25C5.82382 25 17.4802 31.8917 21.3048 50.2695Z" fill="#909A39"/>
<path d="M12.5382 56.8168C13.9236 69.7829 5.8593 64.5771 4.47618 65.5844C0.27329 65.5844 -1.64323 68.6473 -1.64323 57.927C-1.64323 53.3326 -0.113375 51.0354 -8.96924 34.7901C-5.46783 34.1889 0.651584 44.1435 12.5382 56.8168Z" fill="#7E8732"/>
<path d="M39.284 155.942C39.284 166.515 35.4593 176.617 23.2205 176.617C16.8836 176.617 11.7466 166.515 11.7466 155.942C11.7466 145.369 16.8836 136.798 23.2205 136.798C29.5574 136.798 39.284 145.369 39.284 155.942Z" fill="white"/>
<path d="M33.1642 156.304C33.1642 159.91 30.2868 162.833 26.7373 162.833C23.1878 162.833 20.3104 159.932 19.507 156.304C18.7037 151.226 22.3845 149.05 25.9339 149.05C29.4834 149.05 33.1642 150.683 33.1642 156.304Z" fill="black"/>
<path d="M5.62736 154.411C3.33258 167.428 -0.492059 179.68 -18.0854 189.635C-38.7384 194.995 -46.3877 175.133 -46.3877 154.411C-46.3877 133.688 -33.5563 116.889 -19.6152 116.889C-4.3167 116.889 5.62736 133.688 5.62736 154.411Z" fill="white"/>
<path d="M51.1361 151.347C54.9607 166.946 61.6812 160.253 85.5578 177.383C99.3265 200.355 104.116 207.283 105.61 205.233C107.103 203.183 108.67 185.324 91.8411 166.946C75.7777 153.928 52.666 147.519 51.1361 151.347Z" fill="#B2CA36"/>
<path d="M111.73 215.187C114.025 218.25 109.435 232.034 117.085 231.268C120.909 229.736 119.665 221.313 118.614 215.953C116.988 207.653 114.025 194.512 107.14 192.981C94.5258 195.457 107.905 202.936 111.73 215.187Z" fill="#B2CA36"/>
<path d="M91.842 207.53C86.6208 214.18 83.5654 220.42 85.2262 221.726C91.0767 225.908 91.9751 218.774 97.1962 212.124C102.417 205.474 105.794 198.951 104.133 197.645C81.1327 163.883 102.551 193.89 91.842 207.53Z" fill="#B2CA36"/>
<path d="M113.259 200.639C116.319 202.937 120.909 215.189 125.498 212.891C127.793 207.531 123.204 202.936 117.849 199.108C108.297 195.761 102.601 182.222 101.786 183.027C95.3737 189.358 103.611 192.244 113.259 200.639Z" fill="#B2CA36"/>
</g>
<defs>
<clipPath id="clip0_577_3743">
<rect width="202" height="195" fill="white"/>
</clipPath>
</defs>
</svg>
