<svg width="84" height="100" viewBox="0 0 84 100" fill="none" xmlns="http://www.w3.org/2000/svg">
<g clip-path="url(#clip0_453_1092)">
<path d="M44.2878 100.747C49.7682 142.143 62.2238 177.055 0.445019 179.05C-62.3301 179.05 -59.341 131.17 -48.3803 97.2555C-34.8479 55.3838 -16.9927 32.9172 0.445019 25.436C20.8717 25.436 38.6094 57.8545 44.2878 100.747Z" fill="#B2CA36"/>
<path d="M13.8967 16.4586C13.3985 24.9373 10.1628 28.4285 7.1735 26.9323C2.19134 26.4336 3.43417 24.7743 3.43417 15.9599C6.92169 8.47869 1.06198 0 2.43777 0C3.81355 0 11.4056 4.48872 13.8967 16.4586Z" fill="#909A39"/>
<path d="M8.18689 20.723C9.08925 29.1682 3.83678 25.7775 2.93592 26.4336C0.198471 26.4336 -1.0498 28.4285 -1.0498 21.4462C-1.0498 18.4537 -0.0533727 16.9574 -5.82141 6.37648C-3.54086 5.9849 0.444864 12.4686 8.18689 20.723Z" fill="#7E8732"/>
<path d="M25.6075 85.2856C25.6075 92.1718 23.1164 98.7517 15.1449 98.7517C11.0176 98.7517 7.67169 92.1718 7.67169 85.2856C7.67169 78.3993 11.0176 72.8169 15.1449 72.8169C19.2723 72.8169 25.6075 78.3993 25.6075 85.2856Z" fill="white"/>
<path d="M21.6218 85.5218C21.6218 87.8704 19.7476 89.7743 17.4358 89.7743C15.1239 89.7743 13.2497 87.8843 12.7265 85.5218C12.2033 82.2144 14.6006 80.7969 16.9125 80.7969C19.2244 80.7969 21.6218 81.8607 21.6218 85.5218Z" fill="black"/>
<path d="M3.68598 84.2882C2.19133 92.7669 -0.299747 100.747 -11.7587 107.231C-25.2105 110.722 -30.1927 97.7852 -30.1927 84.2882C-30.1927 70.7911 -21.8353 59.8496 -12.7551 59.8496C-2.79082 59.8496 3.68598 70.7911 3.68598 84.2882Z" fill="white"/>
<path d="M33.3271 82.293C35.8181 92.4527 40.1953 88.0935 55.7468 99.2505C64.7146 114.213 67.8344 118.725 68.8071 117.39C69.7798 116.055 70.8 104.423 59.8392 92.4527C49.3767 83.9741 34.3235 79.7994 33.3271 82.293Z" fill="#B2CA36"/>
<path d="M59.8395 118.886C56.4389 123.218 54.4488 127.281 55.5305 128.132C59.3411 130.856 59.9262 126.21 63.3268 121.879C66.7275 117.547 68.9269 113.299 67.8453 112.447C52.8643 90.4576 66.8144 110.002 59.8395 118.886Z" fill="#B2CA36"/>
</g>
<defs>
<clipPath id="clip0_453_1092">
<rect width="84" height="100" fill="white"/>
</clipPath>
</defs>
</svg>
