<svg width="84" height="100" viewBox="0 0 84 100" fill="none" xmlns="http://www.w3.org/2000/svg">
<g clip-path="url(#clip0_453_1094)">
<path d="M44.2878 0.746704C49.7682 42.1426 62.2237 77.0549 0.444988 79.0499C-62.3302 79.0499 -59.3411 31.1702 -48.3803 -2.74451C-34.848 -44.6162 -16.9927 -67.0828 0.444988 -74.564C20.8717 -74.564 38.6094 -42.1455 44.2878 0.746704Z" fill="#B2CA36"/>
<path d="M21.261 83.4779C21.1576 89.9096 19.2628 96.3999 21.2589 96.2709C23.255 96.142 29.6923 96.2697 29.1959 82.1726C30.3368 75.5588 31.1938 70.4425 29.1977 70.5714C27.2016 70.7003 19.8761 65.5854 21.261 83.4779Z" fill="#B2CA36"/>
<path d="M18.8788 94.9501C18.3806 97.4412 23.8528 99.9972 31.8324 99.9972C39.8038 98.5009 49.1269 98.531 49.1269 94.9501C49.1269 91.3693 44.8568 85.73 36.6715 87.9648C25.7108 90.9574 19.377 85.9726 18.8788 94.9501Z" fill="#B2CA36"/>
<path d="M24.611 30.1728C28.0985 36.1577 17.636 45.1351 0.696646 45.1351C-13.3364 45.1351 -20.7266 41.644 -26.207 35.1602C-24.7124 33.1653 -13.3364 39.1503 0.696646 39.1503C14.7296 39.1503 24.611 28.7955 24.611 30.1728Z" fill="black"/>
<path d="M3.68595 -15.7118C2.1913 -7.23314 -0.299778 0.746803 -11.7587 7.23051C-25.2106 10.7217 -30.1927 -2.21478 -30.1927 -15.7118C-30.1927 -29.2089 -21.8353 -40.1504 -12.7552 -40.1504C-2.79086 -40.1504 3.68595 -29.2089 3.68595 -15.7118Z" fill="white"/>
<path d="M49.8389 33.6387C49.8389 38.3214 62.7924 74.0372 0.0172768 81.0196C-56.7793 77.0297 -54.7864 38.3214 -54.7864 33.6387C-54.7864 28.9561 -43.3275 49.0996 0.0172768 49.0995C48.3442 47.1046 49.8389 28.9561 49.8389 33.6387Z" fill="white"/>
<path d="M50.0542 32.1211C49.9629 32.8401 53.042 33.9662 58.3084 34.6362C63.5749 35.3061 70.2988 39.6801 71.7603 36.1324C71.8516 35.4134 69.2692 30.6462 61.2978 29.15C51.8317 29.15 50.1454 31.402 50.0542 32.1211Z" fill="white"/>
<path d="M60.7996 43.1145C66.2799 48.6007 66.9407 52.5069 68.1964 51.8032C70.7658 50.8676 69.5067 43.0499 65.7817 39.1246C59.3049 31.1446 51.514 31.0194 50.371 32.1064C47.3477 34.9815 54.3228 37.6283 60.7996 43.1145Z" fill="white"/>
<path d="M33.3271 -17.707C35.8181 -7.54727 40.1953 -11.9065 55.7468 -0.74947C64.7146 14.2129 67.8344 18.7254 68.8071 17.39C69.7798 16.0547 70.8 4.42264 59.8392 -7.54727C49.3767 -16.0259 34.3235 -20.2006 33.3271 -17.707Z" fill="#B2CA36"/>
<path d="M61.8321 24.0449C61.8321 24.5958 63.6687 20.8811 65.3196 20.8811C66.9706 20.8811 66.8143 25.422 66.8143 24.8711C66.8143 24.3202 67.967 17.3899 66.3161 17.3899C64.6651 17.3899 61.8321 23.494 61.8321 24.0449Z" fill="#B2CA36"/>
<path d="M76.7787 22.3773C77.1743 22.7602 75.3524 18.8934 76.0604 18.1603C76.7786 18.3874 80.1635 21.264 79.7679 20.8811C79.3723 20.4982 74.4973 13.6645 73.7893 14.3976C73.0813 15.1306 76.3831 21.9944 76.7787 22.3773Z" fill="#B2CA36"/>
<path d="M72.793 23.8734C74.2877 25.8684 71.2984 34.8459 76.2806 34.3472C78.7716 33.3496 77.9609 27.8634 77.277 24.3723C76.218 18.9663 74.2875 10.4074 69.8036 9.40995C61.5875 11.0227 70.3019 15.8936 72.793 23.8734Z" fill="#B2CA36"/>
<path d="M59.8395 18.8864C56.4388 23.2177 54.4488 27.2814 55.5305 28.1324C59.3411 30.8561 59.9262 26.2099 63.3268 21.8786C66.7275 17.5473 68.9269 13.2985 67.8452 12.4475C52.8643 -9.54243 66.8144 10.0023 59.8395 18.8864Z" fill="#B2CA36"/>
<path d="M66.8145 28.8618C66.3805 34.3536 65.3198 37.8392 68.3441 38.7835C71.7966 39.0568 71.7965 32.8513 71.7965 29.3606C72.2305 23.8688 72.1715 16.0025 70.8 15.8938C60.0064 15.0389 67.8107 11.4053 66.8145 28.8618Z" fill="#B2CA36"/>
<path d="M73.7891 14.3981C75.782 15.8943 78.7713 23.8742 81.7605 22.378C83.2552 18.8868 80.266 15.8941 76.7785 13.4003C70.5569 11.2204 66.8467 2.40238 66.3161 2.92637C62.1396 7.04995 67.5051 8.92985 73.7891 14.3981Z" fill="#B2CA36"/>
</g>
<defs>
<clipPath id="clip0_453_1094">
<rect width="84" height="100" fill="white"/>
</clipPath>
</defs>
</svg>
