<svg width="202" height="195" viewBox="0 0 202 195" fill="none" xmlns="http://www.w3.org/2000/svg">
<g clip-path="url(#clip0_577_3742)">
<rect x="1.5" y="1.5" width="402" height="387" rx="18.5" fill="#FDFFEF"/>
<rect x="1.5" y="1.5" width="402" height="387" rx="18.5" stroke="black" stroke-width="3"/>
<path d="M270.965 179.68C279.379 243.236 298.503 296.838 203.652 299.901C107.271 299.901 111.86 226.39 128.689 174.32C149.465 110.033 176.879 75.539 203.652 64.0529C235.014 64.0529 262.247 113.826 270.965 179.68Z" fill="#B2CA36"/>
<path d="M215.538 56.8168C216.924 69.7829 208.859 64.5771 207.476 65.5844C203.273 65.5844 201.357 68.6473 201.357 57.927C201.357 53.3326 202.887 51.0354 194.031 34.7901C197.532 34.1889 203.652 44.1435 215.538 56.8168Z" fill="#7E8732"/>
<path d="M208.627 154.411C206.333 167.428 202.508 179.68 184.915 189.635C164.262 194.995 156.612 175.133 156.612 154.411C156.612 133.688 169.444 116.889 183.385 116.889C198.683 116.889 208.627 133.688 208.627 154.411Z" fill="white"/>
<path d="M191.799 149.05C190.269 154.411 189.504 155.942 184.149 157.474C179.56 156.708 178.795 155.176 177.265 149.05C177.265 142.159 179.925 140.627 184.149 140.627C188.374 140.627 191.799 144.821 191.799 149.05Z" fill="black"/>
<path d="M150.106 149.816C151.6 151.866 132.575 165.404 117.215 176.617C103.882 195.6 98.82 207.765 97.3266 205.715C95.8331 203.665 94.2669 185.806 111.095 167.428C127.159 154.411 148.613 147.766 150.106 149.816Z" fill="#B2CA36"/>
<path d="M91.2065 215.669C88.9117 218.732 93.5013 232.516 85.8519 231.75C82.0274 230.219 83.272 221.795 84.3221 216.435C85.9481 208.135 88.9119 194.995 95.7963 193.463C108.411 195.939 95.0312 203.418 91.2065 215.669Z" fill="#B2CA36"/>
<path d="M111.095 208.013C116.316 214.663 119.371 220.902 117.71 222.208C111.86 226.39 110.961 219.257 105.74 212.607C100.519 205.957 97.1423 199.433 98.803 198.127C121.804 164.365 100.386 194.373 111.095 208.013Z" fill="#B2CA36"/>
<path d="M89.6771 201.122C86.6174 203.419 82.0278 215.671 77.4383 213.374C75.1435 208.013 79.7329 203.419 85.0874 199.59C94.6396 196.243 100.336 182.704 101.151 183.509C107.563 189.84 99.3251 192.726 89.6771 201.122Z" fill="#B2CA36"/>
</g>
<defs>
<clipPath id="clip0_577_3742">
<rect width="202" height="195" fill="white"/>
</clipPath>
</defs>
</svg>
