<svg width="84" height="100" viewBox="0 0 84 100" fill="none" xmlns="http://www.w3.org/2000/svg">
<g clip-path="url(#clip0_453_1086)">
<path d="M128.288 100.747C133.768 142.143 146.224 177.055 84.445 179.05C21.6699 179.05 24.659 131.17 35.6197 97.2555C49.1521 55.3838 67.0073 32.9172 84.445 25.436C104.872 25.436 122.609 57.8545 128.288 100.747Z" fill="#B2CA36"/>
<path d="M92.1869 20.723C93.0893 29.1682 87.8368 25.7775 86.9359 26.4336C84.1985 26.4336 82.9502 28.4285 82.9502 21.4462C82.9502 18.4537 83.9466 16.9574 78.1786 6.37648C80.4591 5.9849 84.4449 12.4686 92.1869 20.723Z" fill="#7E8732"/>
<path d="M87.686 84.2882C86.1913 92.7669 83.7003 100.747 72.2413 107.231C58.7895 110.722 53.8073 97.7852 53.8073 84.2882C53.8073 70.7911 62.1647 59.8496 71.2449 59.8496C81.2092 59.8496 87.686 70.7911 87.686 84.2882Z" fill="white"/>
<path d="M76.7253 80.797C75.7288 84.2882 75.2306 85.2857 71.7431 86.2832C68.7538 85.7845 68.2556 84.787 67.2592 80.797C67.2592 76.3083 68.9915 75.3108 71.7431 75.3108C74.4947 75.3108 76.7253 78.0425 76.7253 80.797Z" fill="black"/>
<path d="M49.5697 81.2958C50.5424 82.6312 38.1512 91.4488 28.1465 98.7519C19.4626 111.116 16.1656 119.04 15.1929 117.704C14.2202 116.369 13.2 104.737 24.1608 92.767C34.6233 84.2884 48.597 79.9604 49.5697 81.2958Z" fill="#B2CA36"/>
<path d="M24.1605 119.201C27.5611 123.532 29.5512 127.596 28.4695 128.447C24.6589 131.17 24.0738 126.524 20.6732 122.193C17.2725 117.861 15.0731 113.613 16.1547 112.762C31.1357 90.7718 17.1856 110.317 24.1605 119.201Z" fill="#B2CA36"/>
</g>
<defs>
<clipPath id="clip0_453_1086">
<rect width="84" height="100" fill="white"/>
</clipPath>
</defs>
</svg>
