<svg width="84" height="100" viewBox="0 0 84 100" fill="none" xmlns="http://www.w3.org/2000/svg">
<g clip-path="url(#clip0_453_1093)">
<path d="M128.288 0.746704C133.768 42.1426 146.224 77.0549 84.445 79.0499C21.6698 79.0499 24.6589 31.1702 35.6197 -2.74451C49.152 -44.6162 67.0073 -67.0828 84.445 -74.564C104.872 -74.564 122.609 -42.1455 128.288 0.746704Z" fill="#B2CA36"/>
<path d="M64.4819 82.5424C64.5853 88.9741 66.48 95.4644 64.4839 95.3354C62.4878 95.2065 56.0506 95.3342 56.5469 81.237C58.017 69.39 58.8676 70.385 60.8637 70.5139C62.8598 70.6428 67.6375 68.6 64.4819 82.5424Z" fill="#B2CA36"/>
<path d="M66.0108 93.5134C66.5091 96.0046 59.5421 99.9998 51.5626 99.9998C43.583 99.9998 36.6161 97.5957 36.6161 94.0148C36.6161 90.434 40.8862 84.7947 49.0715 87.0295C60.0323 90.0221 65.5126 84.5359 66.0108 93.5134Z" fill="#B2CA36"/>
<path d="M108.611 30.1728C112.099 36.1577 101.636 45.1351 84.6966 45.1351C70.6636 45.1351 63.2734 41.644 57.793 35.1602C59.2876 33.1653 70.6636 39.1503 84.6966 39.1503C98.7296 39.1503 108.611 28.7955 108.611 30.1728Z" fill="black"/>
<path d="M87.6859 -15.7118C86.1913 -7.23314 83.7002 0.746803 72.2413 7.23051C58.7894 10.7217 53.8073 -2.21478 53.8073 -15.7118C53.8073 -29.2089 62.1647 -40.1504 71.2448 -40.1504C81.2091 -40.1504 87.6859 -29.2089 87.6859 -15.7118Z" fill="white"/>
<path d="M133.839 33.6387C133.839 38.3214 146.792 74.0372 84.0173 81.0196C27.2207 77.0297 29.2136 38.3214 29.2136 33.6387C29.2136 28.9561 40.6725 49.0996 84.0173 49.0995C132.344 47.1046 133.839 28.9561 133.839 33.6387Z" fill="white"/>
<path d="M24.6069 43.581C22.1432 46.1771 19.2492 47.1045 18.0764 46.3135C15.7617 45.1095 18.004 42.2407 20.4676 39.6446C25.2278 36.1321 28.5687 32.0526 29.7117 33.1396C30.8547 34.2266 29.2135 35.1346 24.6069 43.581Z" fill="white"/>
<path d="M29.9211 33.099C30.0769 33.6274 27.9259 34.5413 24.2315 35.6336C20.537 36.7258 18.2528 39.1246 16.7583 36.6311C16.6024 36.1028 16.7582 33.1396 21.2422 32.6411C24.9366 31.5489 29.7652 32.5707 29.9211 33.099Z" fill="white"/>
<path d="M49.5697 -18.7042C50.5424 -17.3688 38.1512 -8.55117 28.1465 -1.24808C19.4626 11.1161 16.1656 19.0397 15.1929 17.7043C14.2202 16.3689 13.2 4.73689 24.1608 -7.23302C34.6233 -15.7116 48.597 -20.0396 49.5697 -18.7042Z" fill="#B2CA36"/>
<path d="M22.1679 24.3591C22.1679 24.91 20.3313 21.1953 18.6803 21.1953C17.0294 21.1953 17.1857 25.7362 17.1857 25.1853C17.1857 24.6344 16.033 17.7041 17.6839 17.7041C19.3349 17.7041 22.1679 23.8082 22.1679 24.3591Z" fill="#B2CA36"/>
<path d="M7.2213 22.6912C6.82567 23.0742 8.64764 19.2073 7.93961 18.4742C7.2214 18.7014 3.83646 21.578 4.2321 21.1951C4.62773 20.8122 9.50268 13.9784 10.2107 14.7115C10.9187 15.4446 7.61694 22.3083 7.2213 22.6912Z" fill="#B2CA36"/>
<path d="M11.207 24.1876C9.71232 26.1826 12.7016 35.1601 7.71941 34.6614C5.22839 33.6638 6.03906 28.1777 6.723 24.6865C7.78203 19.2805 9.71248 10.7217 14.1964 9.72416C22.4125 11.3369 13.6981 16.2078 11.207 24.1876Z" fill="#B2CA36"/>
<path d="M24.1605 19.2006C27.5612 23.5319 29.5512 27.5956 28.4695 28.4467C24.6589 31.1703 24.0738 26.5241 20.6732 22.1928C17.2725 17.8615 15.0731 13.6127 16.1548 12.7617C31.1357 -9.22822 17.1856 10.3165 24.1605 19.2006Z" fill="#B2CA36"/>
<path d="M17.1855 29.1758C17.6195 34.6676 18.6802 38.1532 15.6559 39.0974C12.2034 39.3707 12.2035 33.1653 12.2035 29.6746C11.7695 24.1828 11.8285 16.3164 13.2 16.2078C23.9936 15.3528 16.1893 11.7193 17.1855 29.1758Z" fill="#B2CA36"/>
<path d="M10.2109 14.7123C8.21807 16.2085 5.22878 24.1884 2.23952 22.6922C0.744841 19.201 3.73403 16.2083 7.22155 13.7146C13.4432 11.5347 17.1533 2.71659 17.6839 3.24058C21.8604 7.36416 16.4949 9.24405 10.2109 14.7123Z" fill="#B2CA36"/>
</g>
<defs>
<clipPath id="clip0_453_1093">
<rect width="84" height="100" fill="white"/>
</clipPath>
</defs>
</svg>
