<svg width="405" height="390" viewBox="0 0 405 390" fill="none" xmlns="http://www.w3.org/2000/svg">
<rect x="1.5" y="1.5" width="402" height="387" rx="18.5" fill="#FDFFEF"/>
<rect x="1.5" y="1.5" width="402" height="387" rx="18.5" stroke="black" stroke-width="3"/>
<path d="M270.965 179.68C279.379 243.236 298.503 296.838 203.652 299.901C107.271 299.901 111.86 226.39 128.689 174.32C149.465 110.033 176.879 75.539 203.652 64.0529C235.014 64.0529 262.247 113.826 270.965 179.68Z" fill="black"/>
<path d="M224.305 50.2695C223.54 63.2871 218.572 68.6473 213.982 66.3501C206.333 65.5843 208.241 63.0368 208.241 49.5037C213.596 38.0176 204.599 25 206.712 25C208.824 25 220.48 31.8917 224.305 50.2695Z" fill="black"/>
<path d="M215.538 56.8168C216.924 69.7829 208.859 64.5771 207.476 65.5844C203.273 65.5844 201.357 68.6473 201.357 57.927C201.357 53.3326 202.887 51.0354 194.031 34.7901C197.532 34.1889 203.652 44.1435 215.538 56.8168Z" fill="black"/>
<path d="M173.001 305.263C173.16 315.138 176.069 325.103 173.004 324.905C169.939 324.707 160.056 324.903 160.818 303.259C163.075 285.07 164.381 286.598 167.446 286.796C170.511 286.994 177.846 283.857 173.001 305.263Z" fill="black"/>
<path d="M175.349 322.108C176.114 325.932 165.417 332.066 153.166 332.066C140.915 332.066 130.218 328.375 130.218 322.877C130.218 317.38 136.774 308.722 149.341 312.153C166.17 316.747 174.584 308.324 175.349 322.108Z" fill="black"/>
<path d="M235.611 306.7C235.453 316.574 232.544 326.539 235.608 326.341C238.673 326.143 248.556 326.339 247.794 304.696C249.546 294.541 250.862 286.686 247.797 286.884C244.732 287.082 233.485 279.229 235.611 306.7Z" fill="black"/>
<path d="M231.954 324.313C231.189 328.138 239.59 332.062 251.842 332.062C264.081 329.765 278.395 329.811 278.395 324.313C278.395 318.816 271.839 310.158 259.271 313.589C242.443 318.183 232.719 310.53 231.954 324.313Z" fill="black"/>
<path d="M242.284 155.942C242.284 166.515 238.459 176.617 226.22 176.617C219.884 176.617 214.747 166.515 214.747 155.942C214.747 145.369 219.884 136.798 226.22 136.798C232.557 136.798 242.284 145.369 242.284 155.942Z" fill="black"/>
<path d="M236.164 156.304C236.164 159.91 233.287 162.833 229.737 162.833C226.188 162.833 223.31 159.932 222.507 156.304C221.704 151.226 225.384 149.05 228.934 149.05C232.483 149.05 236.164 150.683 236.164 156.304Z" fill="black"/>
<path d="M240.755 224.859C246.109 234.048 230.046 247.831 204.038 247.831C182.493 247.831 171.146 242.471 162.732 232.516C165.027 229.453 182.493 238.642 204.038 238.642C225.583 238.642 240.755 222.744 240.755 224.859Z" fill="black"/>
<path d="M208.627 154.411C206.333 167.428 202.508 179.68 184.915 189.635C164.262 194.995 156.612 175.133 156.612 154.411C156.612 133.688 169.444 116.889 183.385 116.889C198.683 116.889 208.627 133.688 208.627 154.411Z" fill="black"/>
<path d="M191.799 149.05C190.269 154.411 189.504 155.942 184.149 157.474C179.56 156.708 178.795 155.176 177.265 149.05C177.265 142.159 179.925 140.627 184.149 140.627C188.374 140.627 191.799 144.821 191.799 149.05Z" fill="black"/>
<path d="M279.488 230.18C279.488 237.37 299.376 292.205 202.995 302.926C115.794 296.8 118.853 237.37 118.853 230.18C118.853 222.991 136.447 253.918 202.995 253.917C277.193 250.855 279.488 222.991 279.488 230.18Z" fill="black"/>
<path d="M111.781 245.445C107.998 249.431 103.555 250.855 101.754 249.64C98.2005 247.792 101.643 243.387 105.426 239.401C112.734 234.008 117.864 227.745 119.618 229.414C121.373 231.083 118.854 232.477 111.781 245.445Z" fill="black"/>
<path d="M119.939 229.351C120.179 230.162 116.876 231.566 111.204 233.243C105.532 234.92 102.025 238.603 99.7302 234.774C99.4909 233.963 99.73 229.414 106.614 228.648C112.287 226.971 119.7 228.54 119.939 229.351Z" fill="black"/>
<path d="M279.818 227.85C279.678 228.954 284.406 230.683 292.491 231.711C300.577 232.74 310.901 239.455 313.145 234.009C313.285 232.905 309.32 225.585 297.081 223.288C282.547 223.288 279.959 226.746 279.818 227.85Z" fill="black"/>
<path d="M296.316 244.729C304.73 253.152 305.744 259.149 307.672 258.069C311.617 256.632 309.684 244.629 303.965 238.603C294.021 226.351 282.059 226.158 280.304 227.827C275.663 232.242 286.372 236.305 296.316 244.729Z" fill="black"/>
<path d="M254.136 151.347C257.961 166.946 264.681 160.253 288.558 177.383C302.327 200.355 307.116 207.283 308.61 205.233C310.103 203.183 311.67 185.324 294.841 166.946C278.778 153.928 255.666 147.519 254.136 151.347Z" fill="black"/>
<path d="M297.901 215.451C297.901 216.296 300.721 210.593 303.256 210.593C305.79 210.593 305.55 217.565 305.55 216.719C305.55 215.873 307.32 205.233 304.785 205.233C302.251 205.233 297.901 214.605 297.901 215.451Z" fill="black"/>
<path d="M320.849 212.89C321.457 213.478 318.659 207.541 319.746 206.416C320.849 206.764 326.046 211.181 325.439 210.593C324.831 210.005 317.347 199.513 316.26 200.639C315.173 201.764 320.242 212.302 320.849 212.89Z" fill="black"/>
<path d="M314.73 215.187C317.025 218.25 312.435 232.034 320.085 231.268C323.909 229.736 322.665 221.313 321.614 215.953C319.988 207.653 317.025 194.512 310.14 192.981C297.526 195.457 310.905 202.936 314.73 215.187Z" fill="black"/>
<path d="M294.842 207.53C289.621 214.18 286.565 220.42 288.226 221.726C294.077 225.908 294.975 218.774 300.196 212.124C305.417 205.474 308.794 198.951 307.133 197.645C284.133 163.883 305.551 193.89 294.842 207.53Z" fill="black"/>
<path d="M305.551 222.846C304.884 231.278 303.256 236.629 307.899 238.079C313.2 238.499 313.2 228.971 313.2 223.612C313.866 215.18 313.775 203.103 311.67 202.936C295.098 201.623 307.08 196.045 305.551 222.846Z" fill="black"/>
<path d="M316.259 200.639C319.319 202.937 323.909 215.189 328.498 212.891C330.793 207.531 326.204 202.936 320.849 199.108C311.297 195.761 305.601 182.222 304.786 183.027C298.374 189.358 306.611 192.244 316.259 200.639Z" fill="black"/>
<path d="M150.106 149.816C151.6 151.866 132.575 165.404 117.215 176.617C103.882 195.6 98.82 207.765 97.3266 205.715C95.8331 203.665 94.2669 185.806 111.095 167.428C127.159 154.411 148.613 147.766 150.106 149.816Z" fill="black"/>
<path d="M108.035 215.933C108.035 216.779 105.216 211.075 102.681 211.075C100.146 211.075 100.386 218.047 100.386 217.201C100.386 216.355 98.6163 205.715 101.151 205.715C103.686 205.715 108.035 215.087 108.035 215.933Z" fill="black"/>
<path d="M85.0872 213.372C84.4798 213.96 87.2771 208.023 86.1901 206.897C85.0874 207.246 79.8904 211.663 80.4978 211.075C81.1052 210.487 88.5899 199.995 89.6769 201.12C90.764 202.246 85.6946 212.784 85.0872 213.372Z" fill="black"/>
<path d="M91.2065 215.669C88.9117 218.732 93.5013 232.516 85.8519 231.75C82.0274 230.219 83.272 221.795 84.3221 216.435C85.9481 208.135 88.9119 194.995 95.7963 193.463C108.411 195.939 95.0312 203.418 91.2065 215.669Z" fill="black"/>
<path d="M111.095 208.013C116.316 214.663 119.371 220.902 117.71 222.208C111.86 226.39 110.961 219.257 105.74 212.607C100.519 205.957 97.1423 199.433 98.803 198.127C121.804 164.365 100.386 194.373 111.095 208.013Z" fill="black"/>
<path d="M100.386 223.328C101.052 231.76 102.681 237.111 98.0375 238.561C92.7368 238.981 92.7368 229.453 92.7368 224.094C92.0705 215.662 92.1611 203.585 94.2668 203.418C110.839 202.105 98.8564 196.526 100.386 223.328Z" fill="black"/>
<path d="M89.6771 201.122C86.6174 203.419 82.0278 215.671 77.4383 213.374C75.1435 208.013 79.7329 203.419 85.0874 199.59C94.6396 196.243 100.336 182.704 101.151 183.509C107.563 189.84 99.3251 192.726 89.6771 201.122Z" fill="black"/>
</svg>
