<svg width="168" height="200" viewBox="0 0 168 200" fill="none" xmlns="http://www.w3.org/2000/svg">
<path d="M128.288 100.747C133.768 142.143 146.224 177.055 84.445 179.05C21.6699 179.05 24.659 131.17 35.6197 97.2555C49.1521 55.3838 67.0073 32.9172 84.445 25.436C104.872 25.436 122.609 57.8545 128.288 100.747Z" fill="black"/>
<path d="M97.8966 16.4586C97.3984 24.9373 94.1627 28.4285 91.1734 26.9323C86.1913 26.4336 87.4341 24.7743 87.4341 15.9599C90.9216 8.47869 85.0619 0 86.4377 0C87.8135 0 95.4056 4.48872 97.8966 16.4586Z" fill="black"/>
<path d="M92.1869 20.723C93.0893 29.1682 87.8368 25.7775 86.9359 26.4336C84.1985 26.4336 82.9502 28.4285 82.9502 21.4462C82.9502 18.4537 83.9466 16.9574 78.1786 6.37648C80.4591 5.9849 84.4449 12.4686 92.1869 20.723Z" fill="black"/>
<path d="M64.4819 182.542C64.5853 188.974 66.48 195.464 64.4839 195.335C62.4878 195.207 56.0506 195.334 56.5469 181.237C58.017 169.39 58.8676 170.385 60.8637 170.514C62.8598 170.643 67.6375 168.6 64.4819 182.542Z" fill="black"/>
<path d="M66.0108 193.513C66.509 196.005 59.5421 200 51.5626 200C43.583 200 36.6161 197.596 36.6161 194.015C36.6161 190.434 40.8862 184.795 49.0715 187.03C60.0322 190.022 65.5126 184.536 66.0108 193.513Z" fill="black"/>
<path d="M105.261 183.478C105.158 189.91 103.263 196.4 105.259 196.271C107.255 196.142 113.692 196.27 113.196 182.173C114.337 175.559 115.194 170.442 113.198 170.571C111.202 170.7 103.876 165.585 105.261 183.478Z" fill="black"/>
<path d="M102.879 194.95C102.381 197.441 107.853 199.997 115.832 199.997C123.804 198.501 133.127 198.531 133.127 194.95C133.127 191.369 128.857 185.73 120.672 187.965C109.711 190.957 103.377 185.973 102.879 194.95Z" fill="black"/>
<path d="M109.608 85.2856C109.608 92.1718 107.116 98.7517 99.145 98.7517C95.0176 98.7517 91.6718 92.1718 91.6718 85.2856C91.6718 78.3993 95.0176 72.8169 99.145 72.8169C103.272 72.8169 109.608 78.3993 109.608 85.2856Z" fill="black"/>
<path d="M105.622 85.5218C105.622 87.8704 103.748 89.7743 101.436 89.7743C99.124 89.7743 97.2498 87.8843 96.7266 85.5218C96.2033 82.2144 98.6007 80.7969 100.913 80.7969C103.224 80.7969 105.622 81.8607 105.622 85.5218Z" fill="black"/>
<path d="M108.611 130.173C112.099 136.158 101.636 145.135 84.6967 145.135C70.6637 145.135 63.2734 141.644 57.793 135.16C59.2877 133.165 70.6637 139.15 84.6967 139.15C98.7297 139.15 108.611 128.796 108.611 130.173Z" fill="black"/>
<path d="M87.686 84.2882C86.1913 92.7669 83.7003 100.747 72.2413 107.231C58.7895 110.722 53.8073 97.7852 53.8073 84.2882C53.8073 70.7911 62.1647 59.8496 71.2449 59.8496C81.2092 59.8496 87.686 70.7911 87.686 84.2882Z" fill="black"/>
<path d="M76.7253 80.797C75.7288 84.2882 75.2306 85.2857 71.7431 86.2832C68.7538 85.7845 68.2556 84.787 67.2592 80.797C67.2592 76.3083 68.9915 75.3108 71.7431 75.3108C74.4947 75.3108 76.7253 78.0425 76.7253 80.797Z" fill="black"/>
<path d="M133.839 133.639C133.839 138.321 146.792 174.037 84.0172 181.02C27.2207 177.03 29.2135 138.321 29.2135 133.639C29.2135 128.956 40.6725 149.1 84.0172 149.099C132.344 147.105 133.839 128.956 133.839 133.639Z" fill="black"/>
<path d="M24.6069 143.581C22.1432 146.177 19.2492 147.104 18.0764 146.313C15.7617 145.109 18.004 142.241 20.4676 139.645C25.2278 136.132 28.5687 132.053 29.7117 133.14C30.8547 134.227 29.2135 135.135 24.6069 143.581Z" fill="black"/>
<path d="M29.921 133.099C30.0769 133.627 27.9259 134.541 24.2314 135.634C20.537 136.726 18.2528 139.125 16.7582 136.631C16.6024 136.103 16.7581 133.14 21.2422 132.641C24.9366 131.549 29.7652 132.571 29.921 133.099Z" fill="black"/>
<path d="M134.054 132.121C133.963 132.84 137.042 133.966 142.308 134.636C147.575 135.306 154.299 139.68 155.76 136.132C155.852 135.413 153.269 130.646 145.298 129.15C135.832 129.15 134.145 131.402 134.054 132.121Z" fill="black"/>
<path d="M144.8 143.115C150.28 148.601 150.941 152.507 152.196 151.803C154.766 150.868 153.507 143.05 149.782 139.125C143.305 131.145 135.514 131.019 134.371 132.106C131.348 134.982 138.323 137.628 144.8 143.115Z" fill="black"/>
<path d="M117.327 82.293C119.818 92.4527 124.195 88.0935 139.747 99.2505C148.715 114.213 151.834 118.725 152.807 117.39C153.78 116.055 154.8 104.423 143.839 92.4527C133.377 83.9741 118.323 79.7994 117.327 82.293Z" fill="black"/>
<path d="M145.832 124.045C145.832 124.596 147.669 120.881 149.32 120.881C150.971 120.881 150.814 125.422 150.814 124.871C150.814 124.32 151.967 117.39 150.316 117.39C148.665 117.39 145.832 123.494 145.832 124.045Z" fill="black"/>
<path d="M160.779 122.377C161.174 122.76 159.352 118.893 160.06 118.16C160.779 118.387 164.164 121.264 163.768 120.881C163.372 120.498 158.497 113.664 157.789 114.398C157.081 115.131 160.383 121.994 160.779 122.377Z" fill="black"/>
<path d="M156.793 123.873C158.288 125.868 155.298 134.846 160.281 134.347C162.772 133.35 161.961 127.863 161.277 124.372C160.218 118.966 158.288 110.407 153.804 109.41C145.588 111.023 154.302 115.894 156.793 123.873Z" fill="black"/>
<path d="M143.839 118.886C140.439 123.218 138.449 127.281 139.53 128.132C143.341 130.856 143.926 126.21 147.327 121.879C150.727 117.547 152.927 113.299 151.845 112.447C136.864 90.4576 150.814 110.002 143.839 118.886Z" fill="black"/>
<path d="M150.814 128.862C150.38 134.354 149.32 137.839 152.344 138.783C155.797 139.057 155.797 132.851 155.797 129.361C156.231 123.869 156.172 116.002 154.8 115.894C144.006 115.039 151.811 111.405 150.814 128.862Z" fill="black"/>
<path d="M157.789 114.398C159.782 115.894 162.771 123.874 165.76 122.378C167.255 118.887 164.266 115.894 160.778 113.4C154.557 111.22 150.847 102.402 150.316 102.926C146.14 107.05 151.505 108.93 157.789 114.398Z" fill="black"/>
<path d="M49.5697 81.2958C50.5424 82.6312 38.1512 91.4488 28.1465 98.7519C19.4626 111.116 16.1656 119.04 15.1929 117.704C14.2202 116.369 13.2 104.737 24.1608 92.767C34.6233 84.2884 48.597 79.9604 49.5697 81.2958Z" fill="black"/>
<path d="M22.1679 124.359C22.1679 124.91 20.3313 121.195 18.6804 121.195C17.0294 121.195 17.1857 125.736 17.1857 125.185C17.1857 124.634 16.033 117.704 17.6839 117.704C19.3349 117.704 22.1679 123.808 22.1679 124.359Z" fill="black"/>
<path d="M7.22127 122.691C6.82564 123.074 8.64761 119.207 7.93958 118.474C7.22137 118.701 3.83643 121.578 4.23207 121.195C4.6277 120.812 9.50265 113.978 10.2107 114.712C10.9187 115.445 7.61691 122.308 7.22127 122.691Z" fill="black"/>
<path d="M11.207 124.188C9.71234 126.183 12.7016 135.16 7.71943 134.661C5.22841 133.664 6.03908 128.178 6.72302 124.686C7.78205 119.28 9.71249 110.722 14.1964 109.724C22.4125 111.337 13.6981 116.208 11.207 124.188Z" fill="black"/>
<path d="M24.1605 119.201C27.5611 123.532 29.5512 127.596 28.4695 128.447C24.6589 131.17 24.0738 126.524 20.6732 122.193C17.2725 117.861 15.0731 113.613 16.1547 112.762C31.1357 90.7718 17.1856 110.317 24.1605 119.201Z" fill="black"/>
<path d="M17.1855 129.176C17.6195 134.668 18.6802 138.153 15.6559 139.097C12.2034 139.371 12.2035 133.165 12.2035 129.675C11.7695 124.183 11.8285 116.316 13.2 116.208C23.9936 115.353 16.1893 111.719 17.1855 129.176Z" fill="black"/>
<path d="M10.2109 114.712C8.21804 116.209 5.22875 124.188 2.23948 122.692C0.744811 119.201 3.734 116.208 7.22152 113.715C13.4431 111.535 17.1533 102.717 17.6839 103.241C21.8604 107.364 16.4949 109.244 10.2109 114.712Z" fill="black"/>
</svg>
